solid OpenSCAD_Model
  facet normal 0.866025 0.5 0
    outer loop
      vertex 4 0 5
      vertex 2 3.4641 0
      vertex 2 3.4641 5
    endloop
  endfacet
  facet normal 0.866025 0.5 0
    outer loop
      vertex 2 3.4641 0
      vertex 4 0 5
      vertex 4 0 0
    endloop
  endfacet
  facet normal -0.866025 0.5 0
    outer loop
      vertex -4 0 0
      vertex -2 3.4641 5
      vertex -2 3.4641 0
    endloop
  endfacet
  facet normal -0.866025 0.5 0
    outer loop
      vertex -2 3.4641 5
      vertex -4 0 0
      vertex -4 0 5
    endloop
  endfacet
  facet normal 0 1 -0
    outer loop
      vertex 2 3.4641 0
      vertex -2 3.4641 5
      vertex 2 3.4641 5
    endloop
  endfacet
  facet normal 0 1 0
    outer loop
      vertex -2 3.4641 5
      vertex 2 3.4641 0
      vertex -2 3.4641 0
    endloop
  endfacet
  facet normal 0 0 1
    outer loop
      vertex 4 0 5
      vertex 2.42705 1.76336 5
      vertex 3 0 5
    endloop
  endfacet
  facet normal 0 0 1
    outer loop
      vertex 2 3.4641 5
      vertex 2.42705 1.76336 5
      vertex 4 0 5
    endloop
  endfacet
  facet normal 0 0 1
    outer loop
      vertex 2 3.4641 5
      vertex 0.927051 2.85317 5
      vertex 2.42705 1.76336 5
    endloop
  endfacet
  facet normal 0 0 1
    outer loop
      vertex 2 3.4641 5
      vertex -0.927051 2.85317 5
      vertex 0.927051 2.85317 5
    endloop
  endfacet
  facet normal -0 0 1
    outer loop
      vertex -2 3.4641 5
      vertex -0.927051 2.85317 5
      vertex 2 3.4641 5
    endloop
  endfacet
  facet normal 0 0 1
    outer loop
      vertex -2 3.4641 5
      vertex -2.42705 1.76336 5
      vertex -0.927051 2.85317 5
    endloop
  endfacet
  facet normal 0 0 1
    outer loop
      vertex -4 0 5
      vertex -2.42705 1.76336 5
      vertex -2 3.4641 5
    endloop
  endfacet
  facet normal 0 0 1
    outer loop
      vertex -2.42705 1.76336 5
      vertex -4 0 5
      vertex -3 0 5
    endloop
  endfacet
  facet normal 0 0 1
    outer loop
      vertex 2.42705 -1.76336 5
      vertex 4 0 5
      vertex 3 0 5
    endloop
  endfacet
  facet normal -0 0 1
    outer loop
      vertex 2.42705 -1.76336 5
      vertex 2 -3.4641 5
      vertex 4 0 5
    endloop
  endfacet
  facet normal -0 0 1
    outer loop
      vertex 0.927051 -2.85317 5
      vertex 2 -3.4641 5
      vertex 2.42705 -1.76336 5
    endloop
  endfacet
  facet normal -0 0 1
    outer loop
      vertex -0.927051 -2.85317 5
      vertex 2 -3.4641 5
      vertex 0.927051 -2.85317 5
    endloop
  endfacet
  facet normal 0 0 1
    outer loop
      vertex -0.927051 -2.85317 5
      vertex -2 -3.4641 5
      vertex 2 -3.4641 5
    endloop
  endfacet
  facet normal 0 0 1
    outer loop
      vertex -2.42705 -1.76336 5
      vertex -2 -3.4641 5
      vertex -0.927051 -2.85317 5
    endloop
  endfacet
  facet normal -0 0 1
    outer loop
      vertex -4 0 5
      vertex -2.42705 -1.76336 5
      vertex -3 0 5
    endloop
  endfacet
  facet normal 0 0 1
    outer loop
      vertex -2.42705 -1.76336 5
      vertex -4 0 5
      vertex -2 -3.4641 5
    endloop
  endfacet
  facet normal 0.866025 -0.5 0
    outer loop
      vertex 2 -3.4641 5
      vertex 4 0 0
      vertex 4 0 5
    endloop
  endfacet
  facet normal 0.866025 -0.5 0
    outer loop
      vertex 4 0 0
      vertex 2 -3.4641 5
      vertex 2 -3.4641 0
    endloop
  endfacet
  facet normal -0 0 -1
    outer loop
      vertex 4 0 0
      vertex 2.42705 -1.76336 0
      vertex 3 0 0
    endloop
  endfacet
  facet normal 0 0 -1
    outer loop
      vertex 2 -3.4641 0
      vertex 2.42705 -1.76336 0
      vertex 4 0 0
    endloop
  endfacet
  facet normal 0 0 -1
    outer loop
      vertex 2 -3.4641 0
      vertex 0.927051 -2.85317 0
      vertex 2.42705 -1.76336 0
    endloop
  endfacet
  facet normal 0 0 -1
    outer loop
      vertex 2 -3.4641 0
      vertex -0.927051 -2.85317 0
      vertex 0.927051 -2.85317 0
    endloop
  endfacet
  facet normal 0 0 -1
    outer loop
      vertex -2 -3.4641 0
      vertex -0.927051 -2.85317 0
      vertex 2 -3.4641 0
    endloop
  endfacet
  facet normal 0 0 -1
    outer loop
      vertex -2 -3.4641 0
      vertex -2.42705 -1.76336 0
      vertex -0.927051 -2.85317 0
    endloop
  endfacet
  facet normal 0 0 -1
    outer loop
      vertex -4 0 0
      vertex -2.42705 -1.76336 0
      vertex -2 -3.4641 0
    endloop
  endfacet
  facet normal 0 0 -1
    outer loop
      vertex -2.42705 -1.76336 0
      vertex -4 0 0
      vertex -3 0 0
    endloop
  endfacet
  facet normal 0 0 -1
    outer loop
      vertex 2.42705 1.76336 0
      vertex 4 0 0
      vertex 3 0 0
    endloop
  endfacet
  facet normal 0 0 -1
    outer loop
      vertex 2.42705 1.76336 0
      vertex 2 3.4641 0
      vertex 4 0 0
    endloop
  endfacet
  facet normal 0 0 -1
    outer loop
      vertex 0.927051 2.85317 0
      vertex 2 3.4641 0
      vertex 2.42705 1.76336 0
    endloop
  endfacet
  facet normal 0 0 -1
    outer loop
      vertex -0.927051 2.85317 0
      vertex 2 3.4641 0
      vertex 0.927051 2.85317 0
    endloop
  endfacet
  facet normal 0 0 -1
    outer loop
      vertex -0.927051 2.85317 0
      vertex -2 3.4641 0
      vertex 2 3.4641 0
    endloop
  endfacet
  facet normal 0 0 -1
    outer loop
      vertex -2.42705 1.76336 0
      vertex -2 3.4641 0
      vertex -0.927051 2.85317 0
    endloop
  endfacet
  facet normal 0 0 -1
    outer loop
      vertex -4 0 0
      vertex -2.42705 1.76336 0
      vertex -3 0 0
    endloop
  endfacet
  facet normal -0 0 -1
    outer loop
      vertex -2.42705 1.76336 0
      vertex -4 0 0
      vertex -2 3.4641 0
    endloop
  endfacet
  facet normal 0 -1 0
    outer loop
      vertex -2 -3.4641 0
      vertex 2 -3.4641 5
      vertex -2 -3.4641 5
    endloop
  endfacet
  facet normal 0 -1 -0
    outer loop
      vertex 2 -3.4641 5
      vertex -2 -3.4641 0
      vertex 2 -3.4641 0
    endloop
  endfacet
  facet normal -0.866025 -0.5 0
    outer loop
      vertex -2 -3.4641 0
      vertex -4 0 5
      vertex -4 0 0
    endloop
  endfacet
  facet normal -0.866025 -0.5 0
    outer loop
      vertex -4 0 5
      vertex -2 -3.4641 0
      vertex -2 -3.4641 5
    endloop
  endfacet
  facet normal 0.951056 0.309017 0
    outer loop
      vertex 3 0 0
      vertex 2.42705 1.76336 -2.5
      vertex 2.42705 1.76336 0
    endloop
  endfacet
  facet normal 0.951056 0.309017 0
    outer loop
      vertex 2.42705 1.76336 -2.5
      vertex 3 0 0
      vertex 3 0 -2.5
    endloop
  endfacet
  facet normal -0.951056 0.309017 0
    outer loop
      vertex -3 0 -2.5
      vertex -2.42705 1.76336 0
      vertex -2.42705 1.76336 -2.5
    endloop
  endfacet
  facet normal -0.951056 0.309017 0
    outer loop
      vertex -2.42705 1.76336 0
      vertex -3 0 -2.5
      vertex -3 0 0
    endloop
  endfacet
  facet normal 0 -1 0
    outer loop
      vertex -0.927051 -2.85317 -2.5
      vertex 0.927051 -2.85317 0
      vertex -0.927051 -2.85317 0
    endloop
  endfacet
  facet normal 0 -1 -0
    outer loop
      vertex 0.927051 -2.85317 0
      vertex -0.927051 -2.85317 -2.5
      vertex 0.927051 -2.85317 -2.5
    endloop
  endfacet
  facet normal 0 1 -0
    outer loop
      vertex 0.927051 2.85317 -2.5
      vertex -0.927051 2.85317 0
      vertex 0.927051 2.85317 0
    endloop
  endfacet
  facet normal 0 1 0
    outer loop
      vertex -0.927051 2.85317 0
      vertex 0.927051 2.85317 -2.5
      vertex -0.927051 2.85317 -2.5
    endloop
  endfacet
  facet normal 0.587785 0.809017 -0
    outer loop
      vertex 2.42705 1.76336 -2.5
      vertex 0.927051 2.85317 0
      vertex 2.42705 1.76336 0
    endloop
  endfacet
  facet normal 0.587785 0.809017 0
    outer loop
      vertex 0.927051 2.85317 0
      vertex 2.42705 1.76336 -2.5
      vertex 0.927051 2.85317 -2.5
    endloop
  endfacet
  facet normal -0.587785 0.809017 0
    outer loop
      vertex -0.927051 2.85317 -2.5
      vertex -2.42705 1.76336 0
      vertex -0.927051 2.85317 0
    endloop
  endfacet
  facet normal -0.587785 0.809017 0
    outer loop
      vertex -2.42705 1.76336 0
      vertex -0.927051 2.85317 -2.5
      vertex -2.42705 1.76336 -2.5
    endloop
  endfacet
  facet normal 0.951056 -0.309017 0
    outer loop
      vertex 2.42705 -1.76336 0
      vertex 3 0 -2.5
      vertex 3 0 0
    endloop
  endfacet
  facet normal 0.951056 -0.309017 0
    outer loop
      vertex 3 0 -2.5
      vertex 2.42705 -1.76336 0
      vertex 2.42705 -1.76336 -2.5
    endloop
  endfacet
  facet normal 0 0 -1
    outer loop
      vertex 2.42705 -1.76336 -2.5
      vertex 2.42705 1.76336 -2.5
      vertex 3 0 -2.5
    endloop
  endfacet
  facet normal 0 0 -1
    outer loop
      vertex 0.927051 -2.85317 -2.5
      vertex 2.42705 1.76336 -2.5
      vertex 2.42705 -1.76336 -2.5
    endloop
  endfacet
  facet normal 0 0 -1
    outer loop
      vertex 0.927051 -2.85317 -2.5
      vertex 0.927051 2.85317 -2.5
      vertex 2.42705 1.76336 -2.5
    endloop
  endfacet
  facet normal 0 0 -1
    outer loop
      vertex -0.927051 -2.85317 -2.5
      vertex 0.927051 2.85317 -2.5
      vertex 0.927051 -2.85317 -2.5
    endloop
  endfacet
  facet normal 0 0 -1
    outer loop
      vertex -0.927051 -2.85317 -2.5
      vertex -0.927051 2.85317 -2.5
      vertex 0.927051 2.85317 -2.5
    endloop
  endfacet
  facet normal 0 0 -1
    outer loop
      vertex -2.42705 -1.76336 -2.5
      vertex -0.927051 2.85317 -2.5
      vertex -0.927051 -2.85317 -2.5
    endloop
  endfacet
  facet normal 0 0 -1
    outer loop
      vertex -2.42705 -1.76336 -2.5
      vertex -2.42705 1.76336 -2.5
      vertex -0.927051 2.85317 -2.5
    endloop
  endfacet
  facet normal 0 -0 -1
    outer loop
      vertex -2.42705 1.76336 -2.5
      vertex -2.42705 -1.76336 -2.5
      vertex -3 0 -2.5
    endloop
  endfacet
  facet normal 0.587785 -0.809017 0
    outer loop
      vertex 0.927051 -2.85317 -2.5
      vertex 2.42705 -1.76336 0
      vertex 0.927051 -2.85317 0
    endloop
  endfacet
  facet normal 0.587785 -0.809017 0
    outer loop
      vertex 2.42705 -1.76336 0
      vertex 0.927051 -2.85317 -2.5
      vertex 2.42705 -1.76336 -2.5
    endloop
  endfacet
  facet normal -0.587785 -0.809017 0
    outer loop
      vertex -2.42705 -1.76336 -2.5
      vertex -0.927051 -2.85317 0
      vertex -2.42705 -1.76336 0
    endloop
  endfacet
  facet normal -0.587785 -0.809017 -0
    outer loop
      vertex -0.927051 -2.85317 0
      vertex -2.42705 -1.76336 -2.5
      vertex -0.927051 -2.85317 -2.5
    endloop
  endfacet
  facet normal -0.951056 -0.309017 0
    outer loop
      vertex -2.42705 -1.76336 -2.5
      vertex -3 0 0
      vertex -3 0 -2.5
    endloop
  endfacet
  facet normal -0.951056 -0.309017 0
    outer loop
      vertex -3 0 0
      vertex -2.42705 -1.76336 -2.5
      vertex -2.42705 -1.76336 0
    endloop
  endfacet
  facet normal 0.951056 0.309017 0
    outer loop
      vertex 3 0 7.5
      vertex 2.42705 1.76336 5
      vertex 2.42705 1.76336 7.5
    endloop
  endfacet
  facet normal 0.951056 0.309017 0
    outer loop
      vertex 2.42705 1.76336 5
      vertex 3 0 7.5
      vertex 3 0 5
    endloop
  endfacet
  facet normal -0.951056 0.309017 0
    outer loop
      vertex -3 0 5
      vertex -2.42705 1.76336 7.5
      vertex -2.42705 1.76336 5
    endloop
  endfacet
  facet normal -0.951056 0.309017 0
    outer loop
      vertex -2.42705 1.76336 7.5
      vertex -3 0 5
      vertex -3 0 7.5
    endloop
  endfacet
  facet normal 0 -1 0
    outer loop
      vertex -0.927051 -2.85317 5
      vertex 0.927051 -2.85317 7.5
      vertex -0.927051 -2.85317 7.5
    endloop
  endfacet
  facet normal 0 -1 -0
    outer loop
      vertex 0.927051 -2.85317 7.5
      vertex -0.927051 -2.85317 5
      vertex 0.927051 -2.85317 5
    endloop
  endfacet
  facet normal 0 1 -0
    outer loop
      vertex 0.927051 2.85317 5
      vertex -0.927051 2.85317 7.5
      vertex 0.927051 2.85317 7.5
    endloop
  endfacet
  facet normal 0 1 0
    outer loop
      vertex -0.927051 2.85317 7.5
      vertex 0.927051 2.85317 5
      vertex -0.927051 2.85317 5
    endloop
  endfacet
  facet normal 0.587785 0.809017 -0
    outer loop
      vertex 2.42705 1.76336 5
      vertex 0.927051 2.85317 7.5
      vertex 2.42705 1.76336 7.5
    endloop
  endfacet
  facet normal 0.587785 0.809017 0
    outer loop
      vertex 0.927051 2.85317 7.5
      vertex 2.42705 1.76336 5
      vertex 0.927051 2.85317 5
    endloop
  endfacet
  facet normal 0 0 1
    outer loop
      vertex 2.42705 1.76336 7.5
      vertex 2.42705 -1.76336 7.5
      vertex 3 0 7.5
    endloop
  endfacet
  facet normal 0 0 1
    outer loop
      vertex 0.927051 2.85317 7.5
      vertex 2.42705 -1.76336 7.5
      vertex 2.42705 1.76336 7.5
    endloop
  endfacet
  facet normal 0 0 1
    outer loop
      vertex 0.927051 2.85317 7.5
      vertex 0.927051 -2.85317 7.5
      vertex 2.42705 -1.76336 7.5
    endloop
  endfacet
  facet normal -0 0 1
    outer loop
      vertex -0.927051 2.85317 7.5
      vertex 0.927051 -2.85317 7.5
      vertex 0.927051 2.85317 7.5
    endloop
  endfacet
  facet normal 0 0 1
    outer loop
      vertex -0.927051 2.85317 7.5
      vertex -0.927051 -2.85317 7.5
      vertex 0.927051 -2.85317 7.5
    endloop
  endfacet
  facet normal -0 0 1
    outer loop
      vertex -2.42705 1.76336 7.5
      vertex -0.927051 -2.85317 7.5
      vertex -0.927051 2.85317 7.5
    endloop
  endfacet
  facet normal 0 0 1
    outer loop
      vertex -2.42705 1.76336 7.5
      vertex -2.42705 -1.76336 7.5
      vertex -0.927051 -2.85317 7.5
    endloop
  endfacet
  facet normal 0 -0 1
    outer loop
      vertex -2.42705 -1.76336 7.5
      vertex -2.42705 1.76336 7.5
      vertex -3 0 7.5
    endloop
  endfacet
  facet normal -0.587785 0.809017 0
    outer loop
      vertex -0.927051 2.85317 5
      vertex -2.42705 1.76336 7.5
      vertex -0.927051 2.85317 7.5
    endloop
  endfacet
  facet normal -0.587785 0.809017 0
    outer loop
      vertex -2.42705 1.76336 7.5
      vertex -0.927051 2.85317 5
      vertex -2.42705 1.76336 5
    endloop
  endfacet
  facet normal 0.951056 -0.309017 0
    outer loop
      vertex 2.42705 -1.76336 7.5
      vertex 3 0 5
      vertex 3 0 7.5
    endloop
  endfacet
  facet normal 0.951056 -0.309017 0
    outer loop
      vertex 3 0 5
      vertex 2.42705 -1.76336 7.5
      vertex 2.42705 -1.76336 5
    endloop
  endfacet
  facet normal 0.587785 -0.809017 0
    outer loop
      vertex 0.927051 -2.85317 5
      vertex 2.42705 -1.76336 7.5
      vertex 0.927051 -2.85317 7.5
    endloop
  endfacet
  facet normal 0.587785 -0.809017 0
    outer loop
      vertex 2.42705 -1.76336 7.5
      vertex 0.927051 -2.85317 5
      vertex 2.42705 -1.76336 5
    endloop
  endfacet
  facet normal -0.587785 -0.809017 0
    outer loop
      vertex -2.42705 -1.76336 5
      vertex -0.927051 -2.85317 7.5
      vertex -2.42705 -1.76336 7.5
    endloop
  endfacet
  facet normal -0.587785 -0.809017 -0
    outer loop
      vertex -0.927051 -2.85317 7.5
      vertex -2.42705 -1.76336 5
      vertex -0.927051 -2.85317 5
    endloop
  endfacet
  facet normal -0.951056 -0.309017 0
    outer loop
      vertex -2.42705 -1.76336 5
      vertex -3 0 7.5
      vertex -3 0 5
    endloop
  endfacet
  facet normal -0.951056 -0.309017 0
    outer loop
      vertex -3 0 7.5
      vertex -2.42705 -1.76336 5
      vertex -2.42705 -1.76336 7.5
    endloop
  endfacet
endsolid OpenSCAD_Model
