solid OpenSCAD_Model
  facet normal 0 0 1
    outer loop
      vertex 2 18 3
      vertex 5 18 3
      vertex 4.93844 18.7822 3
    endloop
  endfacet
  facet normal -0 0 1
    outer loop
      vertex 1.17557 16.382 3
      vertex 5 5 3
      vertex 1.41421 16.5858 3
    endloop
  endfacet
  facet normal -0 0 1
    outer loop
      vertex 0.907981 16.218 3
      vertex 5 5 3
      vertex 1.17557 16.382 3
    endloop
  endfacet
  facet normal -0 0 1
    outer loop
      vertex 0.618033 16.0979 3
      vertex 5 5 3
      vertex 0.907981 16.218 3
    endloop
  endfacet
  facet normal -0 0 1
    outer loop
      vertex 0.312868 16.0246 3
      vertex 5 5 3
      vertex 0.618033 16.0979 3
    endloop
  endfacet
  facet normal -0 0 1
    outer loop
      vertex 9.79685e-016 16 3
      vertex 5 5 3
      vertex 0.312868 16.0246 3
    endloop
  endfacet
  facet normal 0 0 1
    outer loop
      vertex -0.312868 16.0246 3
      vertex 5 5 3
      vertex 9.79685e-016 16 3
    endloop
  endfacet
  facet normal 0 0 1
    outer loop
      vertex 5 5 3
      vertex -0.312868 16.0246 3
      vertex -1.5 1.5 3
    endloop
  endfacet
  facet normal 0 0 1
    outer loop
      vertex -1.5 1.5 3
      vertex -0.312868 16.0246 3
      vertex -0.618033 16.0979 3
    endloop
  endfacet
  facet normal 0 0 1
    outer loop
      vertex -1.5 1.5 3
      vertex -0.618033 16.0979 3
      vertex -0.907981 16.218 3
    endloop
  endfacet
  facet normal 0 0 1
    outer loop
      vertex -1.5 1.5 3
      vertex -0.907981 16.218 3
      vertex -1.17557 16.382 3
    endloop
  endfacet
  facet normal 0 0 1
    outer loop
      vertex -5 18 3
      vertex -1.17557 16.382 3
      vertex -1.41421 16.5858 3
    endloop
  endfacet
  facet normal 0 0 1
    outer loop
      vertex 5 5 3
      vertex -1.5 1.5 3
      vertex 1.5 1.5 3
    endloop
  endfacet
  facet normal -0 0 1
    outer loop
      vertex -5 0 3
      vertex -1.5 -1.5 3
      vertex -1.5 1.5 3
    endloop
  endfacet
  facet normal 0 0 1
    outer loop
      vertex -1.17557 16.382 3
      vertex -5 18 3
      vertex -1.5 1.5 3
    endloop
  endfacet
  facet normal 0 0 1
    outer loop
      vertex -5 18 3
      vertex -1.41421 16.5858 3
      vertex -1.61803 16.8244 3
    endloop
  endfacet
  facet normal 0 0 1
    outer loop
      vertex -5 18 3
      vertex -1.61803 16.8244 3
      vertex -1.78201 17.092 3
    endloop
  endfacet
  facet normal 0 0 1
    outer loop
      vertex -5 18 3
      vertex -1.78201 17.092 3
      vertex -1.90211 17.382 3
    endloop
  endfacet
  facet normal 0 0 1
    outer loop
      vertex -5 18 3
      vertex -1.90211 17.382 3
      vertex -1.97538 17.6871 3
    endloop
  endfacet
  facet normal -0 0 1
    outer loop
      vertex -5 18 3
      vertex -1.97538 17.6871 3
      vertex -2 18 3
    endloop
  endfacet
  facet normal -0 0 1
    outer loop
      vertex -4.45503 20.27 3
      vertex -1.78201 18.908 3
      vertex -4.04508 20.9389 3
    endloop
  endfacet
  facet normal 0 0 1
    outer loop
      vertex -1.5 1.5 3
      vertex -5 18 3
      vertex -5 3.06152e-016 3
    endloop
  endfacet
  facet normal 0 0 1
    outer loop
      vertex -1.78201 18.908 3
      vertex -4.45503 20.27 3
      vertex -1.90211 18.618 3
    endloop
  endfacet
  facet normal 0 0 1
    outer loop
      vertex -5 0 3
      vertex -1.5 1.5 3
      vertex -5 3.06152e-016 3
    endloop
  endfacet
  facet normal -0 0 1
    outer loop
      vertex -4.75528 19.5451 3
      vertex -1.90211 18.618 3
      vertex -4.45503 20.27 3
    endloop
  endfacet
  facet normal 0 0 1
    outer loop
      vertex -1.5 -1.5 3
      vertex -2.26995 -4.45503 3
      vertex -1.54508 -4.75528 3
    endloop
  endfacet
  facet normal 0 0 1
    outer loop
      vertex -1.90211 18.618 3
      vertex -4.75528 19.5451 3
      vertex -1.97538 18.3129 3
    endloop
  endfacet
  facet normal 0 0 1
    outer loop
      vertex -1.5 -1.5 3
      vertex -2.93893 -4.04508 3
      vertex -2.26995 -4.45503 3
    endloop
  endfacet
  facet normal -0 0 1
    outer loop
      vertex -4.93844 18.7822 3
      vertex -1.97538 18.3129 3
      vertex -4.75528 19.5451 3
    endloop
  endfacet
  facet normal 0 0 1
    outer loop
      vertex -1.5 -1.5 3
      vertex -3.53553 -3.53553 3
      vertex -2.93893 -4.04508 3
    endloop
  endfacet
  facet normal 0 0 1
    outer loop
      vertex -1.97538 18.3129 3
      vertex -4.93844 18.7822 3
      vertex -2 18 3
    endloop
  endfacet
  facet normal 0 0 1
    outer loop
      vertex -1.5 -1.5 3
      vertex -4.04508 -2.93893 3
      vertex -3.53553 -3.53553 3
    endloop
  endfacet
  facet normal 0 0 1
    outer loop
      vertex -2 18 3
      vertex -4.93844 18.7822 3
      vertex -5 18 3
    endloop
  endfacet
  facet normal 0 0 1
    outer loop
      vertex -1.5 -1.5 3
      vertex -4.45503 -2.26995 3
      vertex -4.04508 -2.93893 3
    endloop
  endfacet
  facet normal 0 0 1
    outer loop
      vertex -1.5 -1.5 3
      vertex -4.75528 -1.54508 3
      vertex -4.45503 -2.26995 3
    endloop
  endfacet
  facet normal 0 0 1
    outer loop
      vertex -1.5 -1.5 3
      vertex -4.93844 -0.782172 3
      vertex -4.75528 -1.54508 3
    endloop
  endfacet
  facet normal 0 0 1
    outer loop
      vertex -1.5 -1.5 3
      vertex -5 0 3
      vertex -4.93844 -0.782172 3
    endloop
  endfacet
  facet normal 0 0 1
    outer loop
      vertex 4.93844 18.7822 3
      vertex 1.97538 18.3129 3
      vertex 2 18 3
    endloop
  endfacet
  facet normal 0 0 1
    outer loop
      vertex 2.93893 22.0451 3
      vertex 1.90211 18.618 3
      vertex 1.97538 18.3129 3
    endloop
  endfacet
  facet normal 0 0 1
    outer loop
      vertex 2.93893 22.0451 3
      vertex 1.78201 18.908 3
      vertex 1.90211 18.618 3
    endloop
  endfacet
  facet normal 0 0 1
    outer loop
      vertex 2.93893 22.0451 3
      vertex 1.61803 19.1756 3
      vertex 1.78201 18.908 3
    endloop
  endfacet
  facet normal 0 0 1
    outer loop
      vertex 0.907981 19.782 3
      vertex 2.26995 22.455 3
      vertex 1.54508 22.7553 3
    endloop
  endfacet
  facet normal 0 0 1
    outer loop
      vertex 2.93893 22.0451 3
      vertex 1.41421 19.4142 3
      vertex 1.61803 19.1756 3
    endloop
  endfacet
  facet normal 0 0 1
    outer loop
      vertex 2.93893 22.0451 3
      vertex 1.17557 19.618 3
      vertex 1.41421 19.4142 3
    endloop
  endfacet
  facet normal 0 0 1
    outer loop
      vertex 2.26995 22.455 3
      vertex 0.907981 19.782 3
      vertex 1.17557 19.618 3
    endloop
  endfacet
  facet normal 0 0 1
    outer loop
      vertex 0.618033 19.9021 3
      vertex 1.54508 22.7553 3
      vertex 0.782172 22.9384 3
    endloop
  endfacet
  facet normal 0 0 1
    outer loop
      vertex 1.54508 22.7553 3
      vertex 0.618033 19.9021 3
      vertex 0.907981 19.782 3
    endloop
  endfacet
  facet normal 0 0 1
    outer loop
      vertex 0.782172 22.9384 3
      vertex 0.312868 19.9754 3
      vertex 0.618033 19.9021 3
    endloop
  endfacet
  facet normal 0 0 1
    outer loop
      vertex 1.4083e-015 23 3
      vertex 0.312868 19.9754 3
      vertex 0.782172 22.9384 3
    endloop
  endfacet
  facet normal 0 0 1
    outer loop
      vertex 1.4083e-015 23 3
      vertex 1.22461e-015 20 3
      vertex 0.312868 19.9754 3
    endloop
  endfacet
  facet normal 0 0 1
    outer loop
      vertex 1.4083e-015 23 3
      vertex -0.312868 19.9754 3
      vertex 1.22461e-015 20 3
    endloop
  endfacet
  facet normal -0 0 1
    outer loop
      vertex -0.782172 22.9384 3
      vertex -0.312868 19.9754 3
      vertex 1.4083e-015 23 3
    endloop
  endfacet
  facet normal 0 0 1
    outer loop
      vertex -0.312868 19.9754 3
      vertex -0.782172 22.9384 3
      vertex -0.618033 19.9021 3
    endloop
  endfacet
  facet normal -0 0 1
    outer loop
      vertex -1.54508 22.7553 3
      vertex -0.618033 19.9021 3
      vertex -0.782172 22.9384 3
    endloop
  endfacet
  facet normal 0 0 1
    outer loop
      vertex -0.618033 19.9021 3
      vertex -1.54508 22.7553 3
      vertex -0.907981 19.782 3
    endloop
  endfacet
  facet normal -0 0 1
    outer loop
      vertex -2.26995 22.455 3
      vertex -0.907981 19.782 3
      vertex -1.54508 22.7553 3
    endloop
  endfacet
  facet normal 0 0 1
    outer loop
      vertex -0.907981 19.782 3
      vertex -2.26995 22.455 3
      vertex -1.17557 19.618 3
    endloop
  endfacet
  facet normal -0 0 1
    outer loop
      vertex -2.93893 22.0451 3
      vertex -1.17557 19.618 3
      vertex -2.26995 22.455 3
    endloop
  endfacet
  facet normal 0 0 1
    outer loop
      vertex -1.17557 19.618 3
      vertex -2.93893 22.0451 3
      vertex -1.41421 19.4142 3
    endloop
  endfacet
  facet normal -0 0 1
    outer loop
      vertex -3.53553 21.5355 3
      vertex -1.41421 19.4142 3
      vertex -2.93893 22.0451 3
    endloop
  endfacet
  facet normal 0 0 1
    outer loop
      vertex -1.41421 19.4142 3
      vertex -3.53553 21.5355 3
      vertex -1.61803 19.1756 3
    endloop
  endfacet
  facet normal 0 0 1
    outer loop
      vertex -1.61803 19.1756 3
      vertex -4.04508 20.9389 3
      vertex -1.78201 18.908 3
    endloop
  endfacet
  facet normal -0 0 1
    outer loop
      vertex -4.04508 20.9389 3
      vertex -1.61803 19.1756 3
      vertex -3.53553 21.5355 3
    endloop
  endfacet
  facet normal 0 0 1
    outer loop
      vertex 20 0 3
      vertex 23 0 3
      vertex 22.9384 0.782172 3
    endloop
  endfacet
  facet normal 0 0 1
    outer loop
      vertex 19.9754 0.312868 3
      vertex 22.9384 0.782172 3
      vertex 22.7553 1.54508 3
    endloop
  endfacet
  facet normal 0 0 1
    outer loop
      vertex 23 0 3
      vertex 20 0 3
      vertex 22.9384 -0.782172 3
    endloop
  endfacet
  facet normal 0 0 1
    outer loop
      vertex 19.9021 0.618033 3
      vertex 22.7553 1.54508 3
      vertex 22.455 2.26995 3
    endloop
  endfacet
  facet normal -0 0 1
    outer loop
      vertex 19.9754 -0.312868 3
      vertex 22.9384 -0.782172 3
      vertex 20 0 3
    endloop
  endfacet
  facet normal 0 0 1
    outer loop
      vertex 19.782 0.907981 3
      vertex 22.455 2.26995 3
      vertex 22.0451 2.93893 3
    endloop
  endfacet
  facet normal 0 0 1
    outer loop
      vertex 22.9384 -0.782172 3
      vertex 19.9754 -0.312868 3
      vertex 22.7553 -1.54508 3
    endloop
  endfacet
  facet normal 0 0 1
    outer loop
      vertex 19.618 1.17557 3
      vertex 22.0451 2.93893 3
      vertex 21.5355 3.53553 3
    endloop
  endfacet
  facet normal -0 0 1
    outer loop
      vertex 19.9021 -0.618033 3
      vertex 22.7553 -1.54508 3
      vertex 19.9754 -0.312868 3
    endloop
  endfacet
  facet normal 0 0 1
    outer loop
      vertex 19.4142 1.41421 3
      vertex 21.5355 3.53553 3
      vertex 20.9389 4.04508 3
    endloop
  endfacet
  facet normal 0 0 1
    outer loop
      vertex 22.7553 -1.54508 3
      vertex 19.9021 -0.618033 3
      vertex 22.455 -2.26995 3
    endloop
  endfacet
  facet normal 0 0 1
    outer loop
      vertex 19.1756 1.61803 3
      vertex 20.9389 4.04508 3
      vertex 20.27 4.45503 3
    endloop
  endfacet
  facet normal -0 0 1
    outer loop
      vertex 19.782 -0.907981 3
      vertex 22.455 -2.26995 3
      vertex 19.9021 -0.618033 3
    endloop
  endfacet
  facet normal 0 0 1
    outer loop
      vertex 22.455 -2.26995 3
      vertex 19.782 -0.907981 3
      vertex 22.0451 -2.93893 3
    endloop
  endfacet
  facet normal 0 0 1
    outer loop
      vertex 22.9384 0.782172 3
      vertex 19.9754 0.312868 3
      vertex 20 0 3
    endloop
  endfacet
  facet normal 0 0 1
    outer loop
      vertex 22.7553 1.54508 3
      vertex 19.9021 0.618033 3
      vertex 19.9754 0.312868 3
    endloop
  endfacet
  facet normal 0 0 1
    outer loop
      vertex 22.455 2.26995 3
      vertex 19.782 0.907981 3
      vertex 19.9021 0.618033 3
    endloop
  endfacet
  facet normal 0 0 1
    outer loop
      vertex 22.0451 2.93893 3
      vertex 19.618 1.17557 3
      vertex 19.782 0.907981 3
    endloop
  endfacet
  facet normal 0 0 1
    outer loop
      vertex 18.908 1.78201 3
      vertex 20.27 4.45503 3
      vertex 19.5451 4.75528 3
    endloop
  endfacet
  facet normal 0 0 1
    outer loop
      vertex 21.5355 3.53553 3
      vertex 19.4142 1.41421 3
      vertex 19.618 1.17557 3
    endloop
  endfacet
  facet normal 0 0 1
    outer loop
      vertex 20.9389 4.04508 3
      vertex 19.1756 1.61803 3
      vertex 19.4142 1.41421 3
    endloop
  endfacet
  facet normal 0 0 1
    outer loop
      vertex 20.27 4.45503 3
      vertex 18.908 1.78201 3
      vertex 19.1756 1.61803 3
    endloop
  endfacet
  facet normal 0 0 1
    outer loop
      vertex 18.618 1.90211 3
      vertex 19.5451 4.75528 3
      vertex 18.7822 4.93844 3
    endloop
  endfacet
  facet normal 0 0 1
    outer loop
      vertex 19.5451 4.75528 3
      vertex 18.618 1.90211 3
      vertex 18.908 1.78201 3
    endloop
  endfacet
  facet normal 0 0 1
    outer loop
      vertex 18.7822 4.93844 3
      vertex 18.3129 1.97538 3
      vertex 18.618 1.90211 3
    endloop
  endfacet
  facet normal 0 0 1
    outer loop
      vertex 18 5 3
      vertex 18.3129 1.97538 3
      vertex 18.7822 4.93844 3
    endloop
  endfacet
  facet normal 0 0 1
    outer loop
      vertex 18 5 3
      vertex 18 2 3
      vertex 18.3129 1.97538 3
    endloop
  endfacet
  facet normal 0 0 1
    outer loop
      vertex 18 5 3
      vertex 17.6871 1.97538 3
      vertex 18 2 3
    endloop
  endfacet
  facet normal 0 0 1
    outer loop
      vertex 18 5 3
      vertex 17.382 1.90211 3
      vertex 17.6871 1.97538 3
    endloop
  endfacet
  facet normal 0 0 1
    outer loop
      vertex 18 5 3
      vertex 17.092 1.78201 3
      vertex 17.382 1.90211 3
    endloop
  endfacet
  facet normal 0 0 1
    outer loop
      vertex 18 5 3
      vertex 16.8244 1.61803 3
      vertex 17.092 1.78201 3
    endloop
  endfacet
  facet normal 0 0 1
    outer loop
      vertex 18 5 3
      vertex 16.5858 1.41421 3
      vertex 16.8244 1.61803 3
    endloop
  endfacet
  facet normal 0 0 1
    outer loop
      vertex 18 5 3
      vertex 16.382 1.17557 3
      vertex 16.5858 1.41421 3
    endloop
  endfacet
  facet normal -0 0 1
    outer loop
      vertex 5 5 3
      vertex 16.382 1.17557 3
      vertex 18 5 3
    endloop
  endfacet
  facet normal 0 0 1
    outer loop
      vertex 16.0246 0.312868 3
      vertex 5 5 3
      vertex 16 0 3
    endloop
  endfacet
  facet normal 0 0 1
    outer loop
      vertex 16.0979 0.618033 3
      vertex 5 5 3
      vertex 16.0246 0.312868 3
    endloop
  endfacet
  facet normal 0 0 1
    outer loop
      vertex 16.218 0.907981 3
      vertex 5 5 3
      vertex 16.0979 0.618033 3
    endloop
  endfacet
  facet normal 0 0 1
    outer loop
      vertex 16.382 1.17557 3
      vertex 5 5 3
      vertex 16.218 0.907981 3
    endloop
  endfacet
  facet normal -0 0 1
    outer loop
      vertex 19.618 -1.17557 3
      vertex 22.0451 -2.93893 3
      vertex 19.782 -0.907981 3
    endloop
  endfacet
  facet normal 0 0 1
    outer loop
      vertex 22.0451 -2.93893 3
      vertex 19.618 -1.17557 3
      vertex 21.5355 -3.53553 3
    endloop
  endfacet
  facet normal -0 0 1
    outer loop
      vertex 19.4142 -1.41421 3
      vertex 21.5355 -3.53553 3
      vertex 19.618 -1.17557 3
    endloop
  endfacet
  facet normal 0 0 1
    outer loop
      vertex 21.5355 -3.53553 3
      vertex 19.4142 -1.41421 3
      vertex 20.9389 -4.04508 3
    endloop
  endfacet
  facet normal -0 0 1
    outer loop
      vertex 19.1756 -1.61803 3
      vertex 20.9389 -4.04508 3
      vertex 19.4142 -1.41421 3
    endloop
  endfacet
  facet normal 0 0 1
    outer loop
      vertex 20.9389 -4.04508 3
      vertex 19.1756 -1.61803 3
      vertex 20.27 -4.45503 3
    endloop
  endfacet
  facet normal -0 0 1
    outer loop
      vertex 18.908 -1.78201 3
      vertex 20.27 -4.45503 3
      vertex 19.1756 -1.61803 3
    endloop
  endfacet
  facet normal 0 0 1
    outer loop
      vertex 20.27 -4.45503 3
      vertex 18.908 -1.78201 3
      vertex 19.5451 -4.75528 3
    endloop
  endfacet
  facet normal -0 0 1
    outer loop
      vertex 18.618 -1.90211 3
      vertex 19.5451 -4.75528 3
      vertex 18.908 -1.78201 3
    endloop
  endfacet
  facet normal 0 0 1
    outer loop
      vertex 19.5451 -4.75528 3
      vertex 18.618 -1.90211 3
      vertex 18.7822 -4.93844 3
    endloop
  endfacet
  facet normal -0 0 1
    outer loop
      vertex 18.3129 -1.97538 3
      vertex 18.7822 -4.93844 3
      vertex 18.618 -1.90211 3
    endloop
  endfacet
  facet normal -0 0 1
    outer loop
      vertex 18 -2 3
      vertex 18.7822 -4.93844 3
      vertex 18.3129 -1.97538 3
    endloop
  endfacet
  facet normal 0 0 1
    outer loop
      vertex 18 -2 3
      vertex 18 -5 3
      vertex 18.7822 -4.93844 3
    endloop
  endfacet
  facet normal 0 0 1
    outer loop
      vertex 17.6871 -1.97538 3
      vertex 18 -5 3
      vertex 18 -2 3
    endloop
  endfacet
  facet normal 0 0 1
    outer loop
      vertex 17.382 -1.90211 3
      vertex 18 -5 3
      vertex 17.6871 -1.97538 3
    endloop
  endfacet
  facet normal 0 0 1
    outer loop
      vertex 17.092 -1.78201 3
      vertex 18 -5 3
      vertex 17.382 -1.90211 3
    endloop
  endfacet
  facet normal 0 0 1
    outer loop
      vertex 16.8244 -1.61803 3
      vertex 18 -5 3
      vertex 17.092 -1.78201 3
    endloop
  endfacet
  facet normal 0 0 1
    outer loop
      vertex 16.5858 -1.41421 3
      vertex 18 -5 3
      vertex 16.8244 -1.61803 3
    endloop
  endfacet
  facet normal 0 0 1
    outer loop
      vertex 16.382 -1.17557 3
      vertex 18 -5 3
      vertex 16.5858 -1.41421 3
    endloop
  endfacet
  facet normal 0 0 1
    outer loop
      vertex 1.5 -1.5 3
      vertex 16.382 -1.17557 3
      vertex 16.218 -0.907981 3
    endloop
  endfacet
  facet normal 0 0 1
    outer loop
      vertex 5 5 3
      vertex 16.0246 -0.312868 3
      vertex 16 0 3
    endloop
  endfacet
  facet normal 0 0 1
    outer loop
      vertex 1.5 -1.5 3
      vertex 16.0246 -0.312868 3
      vertex 5 5 3
    endloop
  endfacet
  facet normal 0 0 1
    outer loop
      vertex 16.0246 -0.312868 3
      vertex 1.5 -1.5 3
      vertex 16.0979 -0.618033 3
    endloop
  endfacet
  facet normal 0 0 1
    outer loop
      vertex 16.0979 -0.618033 3
      vertex 1.5 -1.5 3
      vertex 16.218 -0.907981 3
    endloop
  endfacet
  facet normal 0 0 1
    outer loop
      vertex 1.97538 18.3129 3
      vertex 4.93844 18.7822 3
      vertex 4.75528 19.5451 3
    endloop
  endfacet
  facet normal 0 0 1
    outer loop
      vertex 1.97538 18.3129 3
      vertex 4.75528 19.5451 3
      vertex 4.45503 20.27 3
    endloop
  endfacet
  facet normal 0 0 1
    outer loop
      vertex 1.97538 18.3129 3
      vertex 4.45503 20.27 3
      vertex 4.04508 20.9389 3
    endloop
  endfacet
  facet normal 0 0 1
    outer loop
      vertex 1.97538 18.3129 3
      vertex 4.04508 20.9389 3
      vertex 3.53553 21.5355 3
    endloop
  endfacet
  facet normal 0 0 1
    outer loop
      vertex 1.97538 18.3129 3
      vertex 3.53553 21.5355 3
      vertex 2.93893 22.0451 3
    endloop
  endfacet
  facet normal 0 0 1
    outer loop
      vertex 1.17557 19.618 3
      vertex 2.93893 22.0451 3
      vertex 2.26995 22.455 3
    endloop
  endfacet
  facet normal 0 0 1
    outer loop
      vertex 5 18 3
      vertex 2 18 3
      vertex 1.97538 17.6871 3
    endloop
  endfacet
  facet normal 0 0 1
    outer loop
      vertex 5 18 3
      vertex 1.97538 17.6871 3
      vertex 1.90211 17.382 3
    endloop
  endfacet
  facet normal 0 0 1
    outer loop
      vertex 5 18 3
      vertex 1.90211 17.382 3
      vertex 1.78201 17.092 3
    endloop
  endfacet
  facet normal 0 0 1
    outer loop
      vertex 5 18 3
      vertex 1.78201 17.092 3
      vertex 1.61803 16.8244 3
    endloop
  endfacet
  facet normal 0 0 1
    outer loop
      vertex 5 18 3
      vertex 1.61803 16.8244 3
      vertex 1.41421 16.5858 3
    endloop
  endfacet
  facet normal 0 0 1
    outer loop
      vertex 5 18 3
      vertex 1.41421 16.5858 3
      vertex 5 5 3
    endloop
  endfacet
  facet normal 0 0 1
    outer loop
      vertex 1.5 -1.5 3
      vertex 5 5 3
      vertex 1.5 1.5 3
    endloop
  endfacet
  facet normal 0 0 1
    outer loop
      vertex 16.382 -1.17557 3
      vertex 1.5 -1.5 3
      vertex 18 -5 3
    endloop
  endfacet
  facet normal 0 0 1
    outer loop
      vertex 1.5 -1.5 3
      vertex 0 -5 3
      vertex 18 -5 3
    endloop
  endfacet
  facet normal -0 0 1
    outer loop
      vertex -1.5 -1.5 3
      vertex 0 -5 3
      vertex 1.5 -1.5 3
    endloop
  endfacet
  facet normal 0 0 1
    outer loop
      vertex 0 -5 3
      vertex -1.5 -1.5 3
      vertex -0.782172 -4.93844 3
    endloop
  endfacet
  facet normal 0 0 1
    outer loop
      vertex -0.782172 -4.93844 3
      vertex -1.5 -1.5 3
      vertex -1.54508 -4.75528 3
    endloop
  endfacet
  facet normal 0 1 -0
    outer loop
      vertex 18 5 0
      vertex 5 5 3
      vertex 18 5 3
    endloop
  endfacet
  facet normal 0 1 0
    outer loop
      vertex 5 5 3
      vertex 18 5 0
      vertex 5 5 0
    endloop
  endfacet
  facet normal 0 0 -1
    outer loop
      vertex 20 0 0
      vertex 23 0 0
      vertex 22.9384 -0.782172 0
    endloop
  endfacet
  facet normal 0 0 -1
    outer loop
      vertex 19.9754 -0.312868 0
      vertex 22.9384 -0.782172 0
      vertex 22.7553 -1.54508 0
    endloop
  endfacet
  facet normal 0 0 -1
    outer loop
      vertex 23 0 0
      vertex 20 0 0
      vertex 22.9384 0.782172 0
    endloop
  endfacet
  facet normal 0 0 -1
    outer loop
      vertex 19.9021 -0.618033 0
      vertex 22.7553 -1.54508 0
      vertex 22.455 -2.26995 0
    endloop
  endfacet
  facet normal 0 0 -1
    outer loop
      vertex 19.9754 0.312868 0
      vertex 22.9384 0.782172 0
      vertex 20 0 0
    endloop
  endfacet
  facet normal 0 0 -1
    outer loop
      vertex 19.782 -0.907981 0
      vertex 22.455 -2.26995 0
      vertex 22.0451 -2.93893 0
    endloop
  endfacet
  facet normal -0 0 -1
    outer loop
      vertex 22.9384 0.782172 0
      vertex 19.9754 0.312868 0
      vertex 22.7553 1.54508 0
    endloop
  endfacet
  facet normal 0 0 -1
    outer loop
      vertex 19.618 -1.17557 0
      vertex 22.0451 -2.93893 0
      vertex 21.5355 -3.53553 0
    endloop
  endfacet
  facet normal 0 0 -1
    outer loop
      vertex 19.9021 0.618033 0
      vertex 22.7553 1.54508 0
      vertex 19.9754 0.312868 0
    endloop
  endfacet
  facet normal 0 0 -1
    outer loop
      vertex 19.4142 -1.41421 0
      vertex 21.5355 -3.53553 0
      vertex 20.9389 -4.04508 0
    endloop
  endfacet
  facet normal -0 0 -1
    outer loop
      vertex 22.7553 1.54508 0
      vertex 19.9021 0.618033 0
      vertex 22.455 2.26995 0
    endloop
  endfacet
  facet normal 0 0 -1
    outer loop
      vertex 19.1756 -1.61803 0
      vertex 20.9389 -4.04508 0
      vertex 20.27 -4.45503 0
    endloop
  endfacet
  facet normal 0 0 -1
    outer loop
      vertex 19.782 0.907981 0
      vertex 22.455 2.26995 0
      vertex 19.9021 0.618033 0
    endloop
  endfacet
  facet normal -0 0 -1
    outer loop
      vertex 22.455 2.26995 0
      vertex 19.782 0.907981 0
      vertex 22.0451 2.93893 0
    endloop
  endfacet
  facet normal 0 0 -1
    outer loop
      vertex 22.9384 -0.782172 0
      vertex 19.9754 -0.312868 0
      vertex 20 0 0
    endloop
  endfacet
  facet normal 0 0 -1
    outer loop
      vertex 22.7553 -1.54508 0
      vertex 19.9021 -0.618033 0
      vertex 19.9754 -0.312868 0
    endloop
  endfacet
  facet normal 0 0 -1
    outer loop
      vertex 22.455 -2.26995 0
      vertex 19.782 -0.907981 0
      vertex 19.9021 -0.618033 0
    endloop
  endfacet
  facet normal 0 0 -1
    outer loop
      vertex 22.0451 -2.93893 0
      vertex 19.618 -1.17557 0
      vertex 19.782 -0.907981 0
    endloop
  endfacet
  facet normal 0 0 -1
    outer loop
      vertex 18.908 -1.78201 0
      vertex 20.27 -4.45503 0
      vertex 19.5451 -4.75528 0
    endloop
  endfacet
  facet normal 0 0 -1
    outer loop
      vertex 21.5355 -3.53553 0
      vertex 19.4142 -1.41421 0
      vertex 19.618 -1.17557 0
    endloop
  endfacet
  facet normal 0 0 -1
    outer loop
      vertex 20.9389 -4.04508 0
      vertex 19.1756 -1.61803 0
      vertex 19.4142 -1.41421 0
    endloop
  endfacet
  facet normal 0 0 -1
    outer loop
      vertex 20.27 -4.45503 0
      vertex 18.908 -1.78201 0
      vertex 19.1756 -1.61803 0
    endloop
  endfacet
  facet normal 0 0 -1
    outer loop
      vertex 18.618 -1.90211 0
      vertex 19.5451 -4.75528 0
      vertex 18.7822 -4.93844 0
    endloop
  endfacet
  facet normal 0 0 -1
    outer loop
      vertex 19.5451 -4.75528 0
      vertex 18.618 -1.90211 0
      vertex 18.908 -1.78201 0
    endloop
  endfacet
  facet normal 0 0 -1
    outer loop
      vertex 18.7822 -4.93844 0
      vertex 18.3129 -1.97538 0
      vertex 18.618 -1.90211 0
    endloop
  endfacet
  facet normal 0 0 -1
    outer loop
      vertex 18 -5 0
      vertex 18.3129 -1.97538 0
      vertex 18.7822 -4.93844 0
    endloop
  endfacet
  facet normal 0 0 -1
    outer loop
      vertex 18 -5 0
      vertex 18 -2 0
      vertex 18.3129 -1.97538 0
    endloop
  endfacet
  facet normal 0 0 -1
    outer loop
      vertex 18 -5 0
      vertex 17.6871 -1.97538 0
      vertex 18 -2 0
    endloop
  endfacet
  facet normal 0 0 -1
    outer loop
      vertex 18 -5 0
      vertex 17.382 -1.90211 0
      vertex 17.6871 -1.97538 0
    endloop
  endfacet
  facet normal 0 0 -1
    outer loop
      vertex 18 -5 0
      vertex 17.092 -1.78201 0
      vertex 17.382 -1.90211 0
    endloop
  endfacet
  facet normal 0 0 -1
    outer loop
      vertex 18 -5 0
      vertex 16.8244 -1.61803 0
      vertex 17.092 -1.78201 0
    endloop
  endfacet
  facet normal 0 0 -1
    outer loop
      vertex 18 -5 0
      vertex 16.5858 -1.41421 0
      vertex 16.8244 -1.61803 0
    endloop
  endfacet
  facet normal 0 0 -1
    outer loop
      vertex 18 -5 0
      vertex 16.382 -1.17557 0
      vertex 16.5858 -1.41421 0
    endloop
  endfacet
  facet normal 0 0 -1
    outer loop
      vertex 1.5 -1.5 0
      vertex 16.382 -1.17557 0
      vertex 18 -5 0
    endloop
  endfacet
  facet normal 0 0 -1
    outer loop
      vertex 16.0246 -0.312868 0
      vertex 5 5 0
      vertex 16 0 0
    endloop
  endfacet
  facet normal 0 0 -1
    outer loop
      vertex 1.5 -1.5 0
      vertex 16.0246 -0.312868 0
      vertex 16.0979 -0.618033 0
    endloop
  endfacet
  facet normal 0 0 -1
    outer loop
      vertex 1.5 -1.5 0
      vertex 16.0979 -0.618033 0
      vertex 16.218 -0.907981 0
    endloop
  endfacet
  facet normal -0 0 -1
    outer loop
      vertex 16.382 -1.17557 0
      vertex 1.5 -1.5 0
      vertex 16.218 -0.907981 0
    endloop
  endfacet
  facet normal 0 0 -1
    outer loop
      vertex 1.41421 16.5858 0
      vertex 5 18 0
      vertex 5 5 0
    endloop
  endfacet
  facet normal 0 -0 -1
    outer loop
      vertex 1.61803 16.8244 0
      vertex 5 18 0
      vertex 1.41421 16.5858 0
    endloop
  endfacet
  facet normal 0 -0 -1
    outer loop
      vertex 1.90211 17.382 0
      vertex 5 18 0
      vertex 1.78201 17.092 0
    endloop
  endfacet
  facet normal 0 -0 -1
    outer loop
      vertex 2 18 0
      vertex 5 18 0
      vertex 1.97538 17.6871 0
    endloop
  endfacet
  facet normal 0 0 -1
    outer loop
      vertex 1.97538 18.3129 0
      vertex 4.93844 18.7822 0
      vertex 2 18 0
    endloop
  endfacet
  facet normal 0 0 -1
    outer loop
      vertex 1.90211 18.618 0
      vertex 4.75528 19.5451 0
      vertex 1.97538 18.3129 0
    endloop
  endfacet
  facet normal -0 0 -1
    outer loop
      vertex 4.75528 19.5451 0
      vertex 1.90211 18.618 0
      vertex 4.45503 20.27 0
    endloop
  endfacet
  facet normal -0 0 -1
    outer loop
      vertex 4.45503 20.27 0
      vertex 1.78201 18.908 0
      vertex 4.04508 20.9389 0
    endloop
  endfacet
  facet normal 0 0 -1
    outer loop
      vertex 1.78201 18.908 0
      vertex 4.45503 20.27 0
      vertex 1.90211 18.618 0
    endloop
  endfacet
  facet normal -0 0 -1
    outer loop
      vertex 4.93844 18.7822 0
      vertex 1.97538 18.3129 0
      vertex 4.75528 19.5451 0
    endloop
  endfacet
  facet normal 0 0 -1
    outer loop
      vertex 5 18 0
      vertex 2 18 0
      vertex 4.93844 18.7822 0
    endloop
  endfacet
  facet normal 0 -0 -1
    outer loop
      vertex 1.97538 17.6871 0
      vertex 5 18 0
      vertex 1.90211 17.382 0
    endloop
  endfacet
  facet normal 0 0 -1
    outer loop
      vertex 1.5 1.5 0
      vertex 5 5 0
      vertex 1.5 -1.5 0
    endloop
  endfacet
  facet normal -0 0 -1
    outer loop
      vertex 16.0246 -0.312868 0
      vertex 1.5 -1.5 0
      vertex 5 5 0
    endloop
  endfacet
  facet normal 0 0 -1
    outer loop
      vertex 0 -5 0
      vertex 1.5 -1.5 0
      vertex 18 -5 0
    endloop
  endfacet
  facet normal 0 0 -1
    outer loop
      vertex -1.5 -1.5 0
      vertex 0 -5 0
      vertex -0.782172 -4.93844 0
    endloop
  endfacet
  facet normal 0 0 -1
    outer loop
      vertex 0 -5 0
      vertex -1.5 -1.5 0
      vertex 1.5 -1.5 0
    endloop
  endfacet
  facet normal 0 0 -1
    outer loop
      vertex -2.26995 -4.45503 0
      vertex -1.5 -1.5 0
      vertex -1.54508 -4.75528 0
    endloop
  endfacet
  facet normal 0 0 -1
    outer loop
      vertex -1.54508 -4.75528 0
      vertex -1.5 -1.5 0
      vertex -0.782172 -4.93844 0
    endloop
  endfacet
  facet normal 0 0 -1
    outer loop
      vertex 19.618 1.17557 0
      vertex 22.0451 2.93893 0
      vertex 19.782 0.907981 0
    endloop
  endfacet
  facet normal -0 0 -1
    outer loop
      vertex 22.0451 2.93893 0
      vertex 19.618 1.17557 0
      vertex 21.5355 3.53553 0
    endloop
  endfacet
  facet normal 0 0 -1
    outer loop
      vertex 19.4142 1.41421 0
      vertex 21.5355 3.53553 0
      vertex 19.618 1.17557 0
    endloop
  endfacet
  facet normal -0 0 -1
    outer loop
      vertex 21.5355 3.53553 0
      vertex 19.4142 1.41421 0
      vertex 20.9389 4.04508 0
    endloop
  endfacet
  facet normal 0 0 -1
    outer loop
      vertex 19.1756 1.61803 0
      vertex 20.9389 4.04508 0
      vertex 19.4142 1.41421 0
    endloop
  endfacet
  facet normal -0 0 -1
    outer loop
      vertex 20.9389 4.04508 0
      vertex 19.1756 1.61803 0
      vertex 20.27 4.45503 0
    endloop
  endfacet
  facet normal 0 0 -1
    outer loop
      vertex 18.908 1.78201 0
      vertex 20.27 4.45503 0
      vertex 19.1756 1.61803 0
    endloop
  endfacet
  facet normal -0 0 -1
    outer loop
      vertex 20.27 4.45503 0
      vertex 18.908 1.78201 0
      vertex 19.5451 4.75528 0
    endloop
  endfacet
  facet normal 0 0 -1
    outer loop
      vertex 18.618 1.90211 0
      vertex 19.5451 4.75528 0
      vertex 18.908 1.78201 0
    endloop
  endfacet
  facet normal -0 0 -1
    outer loop
      vertex 19.5451 4.75528 0
      vertex 18.618 1.90211 0
      vertex 18.7822 4.93844 0
    endloop
  endfacet
  facet normal 0 0 -1
    outer loop
      vertex 18.3129 1.97538 0
      vertex 18.7822 4.93844 0
      vertex 18.618 1.90211 0
    endloop
  endfacet
  facet normal 0 0 -1
    outer loop
      vertex 18 2 0
      vertex 18.7822 4.93844 0
      vertex 18.3129 1.97538 0
    endloop
  endfacet
  facet normal 0 0 -1
    outer loop
      vertex 18 2 0
      vertex 18 5 0
      vertex 18.7822 4.93844 0
    endloop
  endfacet
  facet normal 0 0 -1
    outer loop
      vertex 17.6871 1.97538 0
      vertex 18 5 0
      vertex 18 2 0
    endloop
  endfacet
  facet normal 0 0 -1
    outer loop
      vertex 17.382 1.90211 0
      vertex 18 5 0
      vertex 17.6871 1.97538 0
    endloop
  endfacet
  facet normal 0 0 -1
    outer loop
      vertex 17.092 1.78201 0
      vertex 18 5 0
      vertex 17.382 1.90211 0
    endloop
  endfacet
  facet normal 0 0 -1
    outer loop
      vertex 16.8244 1.61803 0
      vertex 18 5 0
      vertex 17.092 1.78201 0
    endloop
  endfacet
  facet normal 0 0 -1
    outer loop
      vertex 16.5858 1.41421 0
      vertex 18 5 0
      vertex 16.8244 1.61803 0
    endloop
  endfacet
  facet normal 0 0 -1
    outer loop
      vertex 16.382 1.17557 0
      vertex 18 5 0
      vertex 16.5858 1.41421 0
    endloop
  endfacet
  facet normal 0 0 -1
    outer loop
      vertex 5 5 0
      vertex 16.382 1.17557 0
      vertex 16.218 0.907981 0
    endloop
  endfacet
  facet normal 0 0 -1
    outer loop
      vertex 16.382 1.17557 0
      vertex 5 5 0
      vertex 18 5 0
    endloop
  endfacet
  facet normal 0 0 -1
    outer loop
      vertex 16.0979 0.618033 0
      vertex 5 5 0
      vertex 16.218 0.907981 0
    endloop
  endfacet
  facet normal 0 0 -1
    outer loop
      vertex 16.0246 0.312868 0
      vertex 5 5 0
      vertex 16.0979 0.618033 0
    endloop
  endfacet
  facet normal 0 0 -1
    outer loop
      vertex 5 5 0
      vertex 16.0246 0.312868 0
      vertex 16 0 0
    endloop
  endfacet
  facet normal 0 0 -1
    outer loop
      vertex 1.61803 19.1756 0
      vertex 4.04508 20.9389 0
      vertex 1.78201 18.908 0
    endloop
  endfacet
  facet normal -0 0 -1
    outer loop
      vertex 4.04508 20.9389 0
      vertex 1.61803 19.1756 0
      vertex 3.53553 21.5355 0
    endloop
  endfacet
  facet normal 0 0 -1
    outer loop
      vertex 1.41421 19.4142 0
      vertex 3.53553 21.5355 0
      vertex 1.61803 19.1756 0
    endloop
  endfacet
  facet normal -0 0 -1
    outer loop
      vertex 3.53553 21.5355 0
      vertex 1.41421 19.4142 0
      vertex 2.93893 22.0451 0
    endloop
  endfacet
  facet normal 0 0 -1
    outer loop
      vertex 1.17557 19.618 0
      vertex 2.93893 22.0451 0
      vertex 1.41421 19.4142 0
    endloop
  endfacet
  facet normal -0 0 -1
    outer loop
      vertex 2.93893 22.0451 0
      vertex 1.17557 19.618 0
      vertex 2.26995 22.455 0
    endloop
  endfacet
  facet normal 0 0 -1
    outer loop
      vertex 0.907981 19.782 0
      vertex 2.26995 22.455 0
      vertex 1.17557 19.618 0
    endloop
  endfacet
  facet normal -0 0 -1
    outer loop
      vertex 2.26995 22.455 0
      vertex 0.907981 19.782 0
      vertex 1.54508 22.7553 0
    endloop
  endfacet
  facet normal 0 0 -1
    outer loop
      vertex 0.618033 19.9021 0
      vertex 1.54508 22.7553 0
      vertex 0.907981 19.782 0
    endloop
  endfacet
  facet normal -0 0 -1
    outer loop
      vertex 1.54508 22.7553 0
      vertex 0.618033 19.9021 0
      vertex 0.782172 22.9384 0
    endloop
  endfacet
  facet normal 0 0 -1
    outer loop
      vertex 0.312868 19.9754 0
      vertex 0.782172 22.9384 0
      vertex 0.618033 19.9021 0
    endloop
  endfacet
  facet normal 0 0 -1
    outer loop
      vertex 0.312868 19.9754 0
      vertex 1.4083e-015 23 0
      vertex 0.782172 22.9384 0
    endloop
  endfacet
  facet normal 0 0 -1
    outer loop
      vertex 1.22461e-015 20 0
      vertex 1.4083e-015 23 0
      vertex 0.312868 19.9754 0
    endloop
  endfacet
  facet normal 0 0 -1
    outer loop
      vertex -0.312868 19.9754 0
      vertex 1.4083e-015 23 0
      vertex 1.22461e-015 20 0
    endloop
  endfacet
  facet normal 0 0 -1
    outer loop
      vertex -0.782172 22.9384 0
      vertex -0.312868 19.9754 0
      vertex -0.618033 19.9021 0
    endloop
  endfacet
  facet normal 0 0 -1
    outer loop
      vertex -0.312868 19.9754 0
      vertex -0.782172 22.9384 0
      vertex 1.4083e-015 23 0
    endloop
  endfacet
  facet normal 0 0 -1
    outer loop
      vertex -1.54508 22.7553 0
      vertex -0.618033 19.9021 0
      vertex -0.907981 19.782 0
    endloop
  endfacet
  facet normal 0 0 -1
    outer loop
      vertex -2.26995 22.455 0
      vertex -0.907981 19.782 0
      vertex -1.17557 19.618 0
    endloop
  endfacet
  facet normal 0 0 -1
    outer loop
      vertex -2.93893 22.0451 0
      vertex -1.17557 19.618 0
      vertex -1.41421 19.4142 0
    endloop
  endfacet
  facet normal 0 0 -1
    outer loop
      vertex -0.618033 19.9021 0
      vertex -1.54508 22.7553 0
      vertex -0.782172 22.9384 0
    endloop
  endfacet
  facet normal 0 0 -1
    outer loop
      vertex -3.53553 21.5355 0
      vertex -1.41421 19.4142 0
      vertex -1.61803 19.1756 0
    endloop
  endfacet
  facet normal 0 0 -1
    outer loop
      vertex -4.04508 20.9389 0
      vertex -1.61803 19.1756 0
      vertex -1.78201 18.908 0
    endloop
  endfacet
  facet normal 0 0 -1
    outer loop
      vertex -4.45503 20.27 0
      vertex -1.78201 18.908 0
      vertex -1.90211 18.618 0
    endloop
  endfacet
  facet normal 0 0 -1
    outer loop
      vertex -4.75528 19.5451 0
      vertex -1.90211 18.618 0
      vertex -1.97538 18.3129 0
    endloop
  endfacet
  facet normal 0 0 -1
    outer loop
      vertex -0.907981 19.782 0
      vertex -2.26995 22.455 0
      vertex -1.54508 22.7553 0
    endloop
  endfacet
  facet normal 0 0 -1
    outer loop
      vertex -4.93844 18.7822 0
      vertex -1.97538 18.3129 0
      vertex -2 18 0
    endloop
  endfacet
  facet normal 0 0 -1
    outer loop
      vertex -1.90211 17.382 0
      vertex -5 18 0
      vertex -1.97538 17.6871 0
    endloop
  endfacet
  facet normal 0 0 -1
    outer loop
      vertex -3.53553 -3.53553 0
      vertex -1.5 -1.5 0
      vertex -2.93893 -4.04508 0
    endloop
  endfacet
  facet normal 0 0 -1
    outer loop
      vertex -1.97538 17.6871 0
      vertex -5 18 0
      vertex -2 18 0
    endloop
  endfacet
  facet normal 0 0 -1
    outer loop
      vertex -4.04508 -2.93893 0
      vertex -1.5 -1.5 0
      vertex -3.53553 -3.53553 0
    endloop
  endfacet
  facet normal 0 -0 -1
    outer loop
      vertex -4.93844 18.7822 0
      vertex -2 18 0
      vertex -5 18 0
    endloop
  endfacet
  facet normal 0 0 -1
    outer loop
      vertex -4.45503 -2.26995 0
      vertex -1.5 -1.5 0
      vertex -4.04508 -2.93893 0
    endloop
  endfacet
  facet normal 0 0 -1
    outer loop
      vertex -1.17557 19.618 0
      vertex -2.93893 22.0451 0
      vertex -2.26995 22.455 0
    endloop
  endfacet
  facet normal 0 0 -1
    outer loop
      vertex -4.75528 -1.54508 0
      vertex -1.5 -1.5 0
      vertex -4.45503 -2.26995 0
    endloop
  endfacet
  facet normal 0 0 -1
    outer loop
      vertex -1.41421 19.4142 0
      vertex -3.53553 21.5355 0
      vertex -2.93893 22.0451 0
    endloop
  endfacet
  facet normal 0 0 -1
    outer loop
      vertex -4.93844 -0.782172 0
      vertex -1.5 -1.5 0
      vertex -4.75528 -1.54508 0
    endloop
  endfacet
  facet normal 0 0 -1
    outer loop
      vertex -1.61803 19.1756 0
      vertex -4.04508 20.9389 0
      vertex -3.53553 21.5355 0
    endloop
  endfacet
  facet normal 0 0 -1
    outer loop
      vertex -5 0 0
      vertex -1.5 -1.5 0
      vertex -4.93844 -0.782172 0
    endloop
  endfacet
  facet normal 0 0 -1
    outer loop
      vertex -1.78201 18.908 0
      vertex -4.45503 20.27 0
      vertex -4.04508 20.9389 0
    endloop
  endfacet
  facet normal 0 0 -1
    outer loop
      vertex -1.5 -1.5 0
      vertex -5 0 0
      vertex -5 3.06152e-016 0
    endloop
  endfacet
  facet normal 0 0 -1
    outer loop
      vertex -1.90211 18.618 0
      vertex -4.75528 19.5451 0
      vertex -4.45503 20.27 0
    endloop
  endfacet
  facet normal 0 0 -1
    outer loop
      vertex -1.97538 18.3129 0
      vertex -4.93844 18.7822 0
      vertex -4.75528 19.5451 0
    endloop
  endfacet
  facet normal 0 0 -1
    outer loop
      vertex -1.5 1.5 0
      vertex 5 5 0
      vertex 1.5 1.5 0
    endloop
  endfacet
  facet normal 0 -0 -1
    outer loop
      vertex 1.78201 17.092 0
      vertex 5 18 0
      vertex 1.61803 16.8244 0
    endloop
  endfacet
  facet normal 0 0 -1
    outer loop
      vertex 5 5 0
      vertex 1.17557 16.382 0
      vertex 1.41421 16.5858 0
    endloop
  endfacet
  facet normal 0 0 -1
    outer loop
      vertex 5 5 0
      vertex 0.907981 16.218 0
      vertex 1.17557 16.382 0
    endloop
  endfacet
  facet normal 0 0 -1
    outer loop
      vertex 5 5 0
      vertex 0.618033 16.0979 0
      vertex 0.907981 16.218 0
    endloop
  endfacet
  facet normal 0 0 -1
    outer loop
      vertex 5 5 0
      vertex 0.312868 16.0246 0
      vertex 0.618033 16.0979 0
    endloop
  endfacet
  facet normal 0 0 -1
    outer loop
      vertex 5 5 0
      vertex 9.79685e-016 16 0
      vertex 0.312868 16.0246 0
    endloop
  endfacet
  facet normal 0 -0 -1
    outer loop
      vertex -0.312868 16.0246 0
      vertex 5 5 0
      vertex -1.5 1.5 0
    endloop
  endfacet
  facet normal 0 0 -1
    outer loop
      vertex 5 5 0
      vertex -0.312868 16.0246 0
      vertex 9.79685e-016 16 0
    endloop
  endfacet
  facet normal -0 0 -1
    outer loop
      vertex -0.312868 16.0246 0
      vertex -1.5 1.5 0
      vertex -0.618033 16.0979 0
    endloop
  endfacet
  facet normal -0 0 -1
    outer loop
      vertex -0.618033 16.0979 0
      vertex -1.5 1.5 0
      vertex -0.907981 16.218 0
    endloop
  endfacet
  facet normal -0 0 -1
    outer loop
      vertex -0.907981 16.218 0
      vertex -1.5 1.5 0
      vertex -1.17557 16.382 0
    endloop
  endfacet
  facet normal 0 0 -1
    outer loop
      vertex -5 18 0
      vertex -1.5 1.5 0
      vertex -5 3.06152e-016 0
    endloop
  endfacet
  facet normal 0 0 -1
    outer loop
      vertex -2.93893 -4.04508 0
      vertex -1.5 -1.5 0
      vertex -2.26995 -4.45503 0
    endloop
  endfacet
  facet normal 0 0 -1
    outer loop
      vertex -1.5 -1.5 0
      vertex -5 3.06152e-016 0
      vertex -1.5 1.5 0
    endloop
  endfacet
  facet normal 0 0 -1
    outer loop
      vertex -1.5 1.5 0
      vertex -5 18 0
      vertex -1.17557 16.382 0
    endloop
  endfacet
  facet normal 0 0 -1
    outer loop
      vertex -1.17557 16.382 0
      vertex -5 18 0
      vertex -1.41421 16.5858 0
    endloop
  endfacet
  facet normal 0 0 -1
    outer loop
      vertex -1.41421 16.5858 0
      vertex -5 18 0
      vertex -1.61803 16.8244 0
    endloop
  endfacet
  facet normal 0 0 -1
    outer loop
      vertex -1.61803 16.8244 0
      vertex -5 18 0
      vertex -1.78201 17.092 0
    endloop
  endfacet
  facet normal 0 0 -1
    outer loop
      vertex -1.78201 17.092 0
      vertex -5 18 0
      vertex -1.90211 17.382 0
    endloop
  endfacet
  facet normal 0 -1 0
    outer loop
      vertex 0 -5 0
      vertex 18 -5 3
      vertex 0 -5 3
    endloop
  endfacet
  facet normal 0 -1 -0
    outer loop
      vertex 18 -5 3
      vertex 0 -5 0
      vertex 18 -5 0
    endloop
  endfacet
  facet normal 0.760406 0.649448 0
    outer loop
      vertex 22.0451 2.93893 3
      vertex 21.5355 3.53553 0
      vertex 21.5355 3.53553 3
    endloop
  endfacet
  facet normal 0.760406 0.649448 0
    outer loop
      vertex 21.5355 3.53553 0
      vertex 22.0451 2.93893 3
      vertex 22.0451 2.93893 0
    endloop
  endfacet
  facet normal 0.382685 0.923879 -0
    outer loop
      vertex 20.27 4.45503 0
      vertex 19.5451 4.75528 3
      vertex 20.27 4.45503 3
    endloop
  endfacet
  facet normal 0.382685 0.923879 0
    outer loop
      vertex 19.5451 4.75528 3
      vertex 20.27 4.45503 0
      vertex 19.5451 4.75528 0
    endloop
  endfacet
  facet normal 0.97237 0.233445 0
    outer loop
      vertex 22.9384 0.782172 3
      vertex 22.7553 1.54508 0
      vertex 22.7553 1.54508 3
    endloop
  endfacet
  facet normal 0.97237 0.233445 0
    outer loop
      vertex 22.7553 1.54508 0
      vertex 22.9384 0.782172 3
      vertex 22.9384 0.782172 0
    endloop
  endfacet
  facet normal 0.649448 0.760406 -0
    outer loop
      vertex 21.5355 3.53553 0
      vertex 20.9389 4.04508 3
      vertex 21.5355 3.53553 3
    endloop
  endfacet
  facet normal 0.649448 0.760406 0
    outer loop
      vertex 20.9389 4.04508 3
      vertex 21.5355 3.53553 0
      vertex 20.9389 4.04508 0
    endloop
  endfacet
  facet normal 0.522497 0.852641 -0
    outer loop
      vertex 20.9389 4.04508 0
      vertex 20.27 4.45503 3
      vertex 20.9389 4.04508 3
    endloop
  endfacet
  facet normal 0.522497 0.852641 0
    outer loop
      vertex 20.27 4.45503 3
      vertex 20.9389 4.04508 0
      vertex 20.27 4.45503 0
    endloop
  endfacet
  facet normal 0.996917 0.0784584 0
    outer loop
      vertex 23 0 3
      vertex 22.9384 0.782172 0
      vertex 22.9384 0.782172 3
    endloop
  endfacet
  facet normal 0.996917 0.0784584 0
    outer loop
      vertex 22.9384 0.782172 0
      vertex 23 0 3
      vertex 23 0 0
    endloop
  endfacet
  facet normal 0.923879 -0.382685 0
    outer loop
      vertex 22.455 -2.26995 3
      vertex 22.7553 -1.54508 0
      vertex 22.7553 -1.54508 3
    endloop
  endfacet
  facet normal 0.923879 -0.382685 0
    outer loop
      vertex 22.7553 -1.54508 0
      vertex 22.455 -2.26995 3
      vertex 22.455 -2.26995 0
    endloop
  endfacet
  facet normal 0.649448 -0.760406 0
    outer loop
      vertex 20.9389 -4.04508 0
      vertex 21.5355 -3.53553 3
      vertex 20.9389 -4.04508 3
    endloop
  endfacet
  facet normal 0.649448 -0.760406 0
    outer loop
      vertex 21.5355 -3.53553 3
      vertex 20.9389 -4.04508 0
      vertex 21.5355 -3.53553 0
    endloop
  endfacet
  facet normal 0.233445 0.97237 -0
    outer loop
      vertex 19.5451 4.75528 0
      vertex 18.7822 4.93844 3
      vertex 19.5451 4.75528 3
    endloop
  endfacet
  facet normal 0.233445 0.97237 0
    outer loop
      vertex 18.7822 4.93844 3
      vertex 19.5451 4.75528 0
      vertex 18.7822 4.93844 0
    endloop
  endfacet
  facet normal 0.0784596 0.996917 -0
    outer loop
      vertex 18.7822 4.93844 0
      vertex 18 5 3
      vertex 18.7822 4.93844 3
    endloop
  endfacet
  facet normal 0.0784596 0.996917 0
    outer loop
      vertex 18 5 3
      vertex 18.7822 4.93844 0
      vertex 18 5 0
    endloop
  endfacet
  facet normal 0.97237 -0.233445 0
    outer loop
      vertex 22.7553 -1.54508 3
      vertex 22.9384 -0.782172 0
      vertex 22.9384 -0.782172 3
    endloop
  endfacet
  facet normal 0.97237 -0.233445 0
    outer loop
      vertex 22.9384 -0.782172 0
      vertex 22.7553 -1.54508 3
      vertex 22.7553 -1.54508 0
    endloop
  endfacet
  facet normal 0.852641 -0.522497 0
    outer loop
      vertex 22.0451 -2.93893 3
      vertex 22.455 -2.26995 0
      vertex 22.455 -2.26995 3
    endloop
  endfacet
  facet normal 0.852641 -0.522497 0
    outer loop
      vertex 22.455 -2.26995 0
      vertex 22.0451 -2.93893 3
      vertex 22.0451 -2.93893 0
    endloop
  endfacet
  facet normal 0.233445 -0.97237 0
    outer loop
      vertex 18.7822 -4.93844 0
      vertex 19.5451 -4.75528 3
      vertex 18.7822 -4.93844 3
    endloop
  endfacet
  facet normal 0.233445 -0.97237 0
    outer loop
      vertex 19.5451 -4.75528 3
      vertex 18.7822 -4.93844 0
      vertex 19.5451 -4.75528 0
    endloop
  endfacet
  facet normal 0.852641 0.522497 0
    outer loop
      vertex 22.455 2.26995 3
      vertex 22.0451 2.93893 0
      vertex 22.0451 2.93893 3
    endloop
  endfacet
  facet normal 0.852641 0.522497 0
    outer loop
      vertex 22.0451 2.93893 0
      vertex 22.455 2.26995 3
      vertex 22.455 2.26995 0
    endloop
  endfacet
  facet normal 0.923879 0.382685 0
    outer loop
      vertex 22.7553 1.54508 3
      vertex 22.455 2.26995 0
      vertex 22.455 2.26995 3
    endloop
  endfacet
  facet normal 0.923879 0.382685 0
    outer loop
      vertex 22.455 2.26995 0
      vertex 22.7553 1.54508 3
      vertex 22.7553 1.54508 0
    endloop
  endfacet
  facet normal 0.996917 -0.0784584 0
    outer loop
      vertex 22.9384 -0.782172 3
      vertex 23 0 0
      vertex 23 0 3
    endloop
  endfacet
  facet normal 0.996917 -0.0784584 0
    outer loop
      vertex 23 0 0
      vertex 22.9384 -0.782172 3
      vertex 22.9384 -0.782172 0
    endloop
  endfacet
  facet normal 0.0784596 -0.996917 0
    outer loop
      vertex 18 -5 0
      vertex 18.7822 -4.93844 3
      vertex 18 -5 3
    endloop
  endfacet
  facet normal 0.0784596 -0.996917 0
    outer loop
      vertex 18.7822 -4.93844 3
      vertex 18 -5 0
      vertex 18.7822 -4.93844 0
    endloop
  endfacet
  facet normal 0.522497 -0.852641 0
    outer loop
      vertex 20.27 -4.45503 0
      vertex 20.9389 -4.04508 3
      vertex 20.27 -4.45503 3
    endloop
  endfacet
  facet normal 0.522497 -0.852641 0
    outer loop
      vertex 20.9389 -4.04508 3
      vertex 20.27 -4.45503 0
      vertex 20.9389 -4.04508 0
    endloop
  endfacet
  facet normal 0.382685 -0.923879 0
    outer loop
      vertex 19.5451 -4.75528 0
      vertex 20.27 -4.45503 3
      vertex 19.5451 -4.75528 3
    endloop
  endfacet
  facet normal 0.382685 -0.923879 0
    outer loop
      vertex 20.27 -4.45503 3
      vertex 19.5451 -4.75528 0
      vertex 20.27 -4.45503 0
    endloop
  endfacet
  facet normal 0.760406 -0.649448 0
    outer loop
      vertex 21.5355 -3.53553 3
      vertex 22.0451 -2.93893 0
      vertex 22.0451 -2.93893 3
    endloop
  endfacet
  facet normal 0.760406 -0.649448 0
    outer loop
      vertex 22.0451 -2.93893 0
      vertex 21.5355 -3.53553 3
      vertex 21.5355 -3.53553 0
    endloop
  endfacet
  facet normal -0.92388 -0.382683 0
    outer loop
      vertex 19.9021 0.618033 0
      vertex 19.782 0.907981 3
      vertex 19.782 0.907981 0
    endloop
  endfacet
  facet normal -0.92388 -0.382683 0
    outer loop
      vertex 19.782 0.907981 3
      vertex 19.9021 0.618033 0
      vertex 19.9021 0.618033 3
    endloop
  endfacet
  facet normal -0.852641 -0.522497 0
    outer loop
      vertex 19.782 0.907981 0
      vertex 19.618 1.17557 3
      vertex 19.618 1.17557 0
    endloop
  endfacet
  facet normal -0.852641 -0.522497 0
    outer loop
      vertex 19.618 1.17557 3
      vertex 19.782 0.907981 0
      vertex 19.782 0.907981 3
    endloop
  endfacet
  facet normal -0.382683 -0.92388 0
    outer loop
      vertex 18.618 1.90211 0
      vertex 18.908 1.78201 3
      vertex 18.618 1.90211 3
    endloop
  endfacet
  facet normal -0.382683 -0.92388 -0
    outer loop
      vertex 18.908 1.78201 3
      vertex 18.618 1.90211 0
      vertex 18.908 1.78201 0
    endloop
  endfacet
  facet normal 0.382683 -0.92388 0
    outer loop
      vertex 17.092 1.78201 0
      vertex 17.382 1.90211 3
      vertex 17.092 1.78201 3
    endloop
  endfacet
  facet normal 0.382683 -0.92388 0
    outer loop
      vertex 17.382 1.90211 3
      vertex 17.092 1.78201 0
      vertex 17.382 1.90211 0
    endloop
  endfacet
  facet normal 0.923878 -0.382688 0
    outer loop
      vertex 16.0979 0.618033 3
      vertex 16.218 0.907981 0
      vertex 16.218 0.907981 3
    endloop
  endfacet
  facet normal 0.923878 -0.382688 0
    outer loop
      vertex 16.218 0.907981 0
      vertex 16.0979 0.618033 3
      vertex 16.0979 0.618033 0
    endloop
  endfacet
  facet normal -0.97237 0.233444 0
    outer loop
      vertex 19.9021 -0.618033 0
      vertex 19.9754 -0.312868 3
      vertex 19.9754 -0.312868 0
    endloop
  endfacet
  facet normal -0.97237 0.233444 0
    outer loop
      vertex 19.9754 -0.312868 3
      vertex 19.9021 -0.618033 0
      vertex 19.9021 -0.618033 3
    endloop
  endfacet
  facet normal -0.97237 -0.233444 0
    outer loop
      vertex 19.9754 0.312868 0
      vertex 19.9021 0.618033 3
      vertex 19.9021 0.618033 0
    endloop
  endfacet
  facet normal -0.97237 -0.233444 0
    outer loop
      vertex 19.9021 0.618033 3
      vertex 19.9754 0.312868 0
      vertex 19.9754 0.312868 3
    endloop
  endfacet
  facet normal 0.0784606 -0.996917 0
    outer loop
      vertex 17.6871 1.97538 0
      vertex 18 2 3
      vertex 17.6871 1.97538 3
    endloop
  endfacet
  facet normal 0.0784606 -0.996917 0
    outer loop
      vertex 18 2 3
      vertex 17.6871 1.97538 0
      vertex 18 2 0
    endloop
  endfacet
  facet normal -0.5225 -0.85264 0
    outer loop
      vertex 18.908 1.78201 0
      vertex 19.1756 1.61803 3
      vertex 18.908 1.78201 3
    endloop
  endfacet
  facet normal -0.5225 -0.85264 -0
    outer loop
      vertex 19.1756 1.61803 3
      vertex 18.908 1.78201 0
      vertex 19.1756 1.61803 0
    endloop
  endfacet
  facet normal 0.852641 -0.522497 0
    outer loop
      vertex 16.218 0.907981 3
      vertex 16.382 1.17557 0
      vertex 16.382 1.17557 3
    endloop
  endfacet
  facet normal 0.852641 -0.522497 0
    outer loop
      vertex 16.382 1.17557 0
      vertex 16.218 0.907981 3
      vertex 16.218 0.907981 0
    endloop
  endfacet
  facet normal 0.5225 -0.85264 0
    outer loop
      vertex 16.8244 1.61803 0
      vertex 17.092 1.78201 3
      vertex 16.8244 1.61803 3
    endloop
  endfacet
  facet normal 0.5225 -0.85264 0
    outer loop
      vertex 17.092 1.78201 3
      vertex 16.8244 1.61803 0
      vertex 17.092 1.78201 0
    endloop
  endfacet
  facet normal 0.233444 -0.97237 0
    outer loop
      vertex 17.382 1.90211 0
      vertex 17.6871 1.97538 3
      vertex 17.382 1.90211 3
    endloop
  endfacet
  facet normal 0.233444 -0.97237 0
    outer loop
      vertex 17.6871 1.97538 3
      vertex 17.382 1.90211 0
      vertex 17.6871 1.97538 0
    endloop
  endfacet
  facet normal -0.996917 -0.078461 0
    outer loop
      vertex 20 0 0
      vertex 19.9754 0.312868 3
      vertex 19.9754 0.312868 0
    endloop
  endfacet
  facet normal -0.996917 -0.078461 0
    outer loop
      vertex 19.9754 0.312868 3
      vertex 20 0 0
      vertex 20 0 3
    endloop
  endfacet
  facet normal -0.92388 0.382683 0
    outer loop
      vertex 19.782 -0.907981 0
      vertex 19.9021 -0.618033 3
      vertex 19.9021 -0.618033 0
    endloop
  endfacet
  facet normal -0.92388 0.382683 0
    outer loop
      vertex 19.9021 -0.618033 3
      vertex 19.782 -0.907981 0
      vertex 19.782 -0.907981 3
    endloop
  endfacet
  facet normal 0.5225 0.85264 -0
    outer loop
      vertex 17.092 -1.78201 0
      vertex 16.8244 -1.61803 3
      vertex 17.092 -1.78201 3
    endloop
  endfacet
  facet normal 0.5225 0.85264 0
    outer loop
      vertex 16.8244 -1.61803 3
      vertex 17.092 -1.78201 0
      vertex 16.8244 -1.61803 0
    endloop
  endfacet
  facet normal 0.852641 0.522497 0
    outer loop
      vertex 16.382 -1.17557 3
      vertex 16.218 -0.907981 0
      vertex 16.218 -0.907981 3
    endloop
  endfacet
  facet normal 0.852641 0.522497 0
    outer loop
      vertex 16.218 -0.907981 0
      vertex 16.382 -1.17557 3
      vertex 16.382 -1.17557 0
    endloop
  endfacet
  facet normal -0.64945 -0.760405 0
    outer loop
      vertex 19.1756 1.61803 0
      vertex 19.4142 1.41421 3
      vertex 19.1756 1.61803 3
    endloop
  endfacet
  facet normal -0.64945 -0.760405 -0
    outer loop
      vertex 19.4142 1.41421 3
      vertex 19.1756 1.61803 0
      vertex 19.4142 1.41421 0
    endloop
  endfacet
  facet normal -0.233443 -0.97237 0
    outer loop
      vertex 18.3129 1.97538 0
      vertex 18.618 1.90211 3
      vertex 18.3129 1.97538 3
    endloop
  endfacet
  facet normal -0.233443 -0.97237 -0
    outer loop
      vertex 18.618 1.90211 3
      vertex 18.3129 1.97538 0
      vertex 18.618 1.90211 0
    endloop
  endfacet
  facet normal -0.078461 -0.996917 0
    outer loop
      vertex 18 2 0
      vertex 18.3129 1.97538 3
      vertex 18 2 3
    endloop
  endfacet
  facet normal -0.078461 -0.996917 -0
    outer loop
      vertex 18.3129 1.97538 3
      vertex 18 2 0
      vertex 18.3129 1.97538 0
    endloop
  endfacet
  facet normal 0.996917 0.078461 0
    outer loop
      vertex 16.0246 -0.312868 3
      vertex 16 0 0
      vertex 16 0 3
    endloop
  endfacet
  facet normal 0.996917 0.078461 0
    outer loop
      vertex 16 0 0
      vertex 16.0246 -0.312868 3
      vertex 16.0246 -0.312868 0
    endloop
  endfacet
  facet normal 0.972372 -0.233438 0
    outer loop
      vertex 16.0246 0.312868 3
      vertex 16.0979 0.618033 0
      vertex 16.0979 0.618033 3
    endloop
  endfacet
  facet normal 0.972372 -0.233438 0
    outer loop
      vertex 16.0979 0.618033 0
      vertex 16.0246 0.312868 3
      vertex 16.0246 0.312868 0
    endloop
  endfacet
  facet normal 0.649447 -0.760407 0
    outer loop
      vertex 16.5858 1.41421 0
      vertex 16.8244 1.61803 3
      vertex 16.5858 1.41421 3
    endloop
  endfacet
  facet normal 0.649447 -0.760407 0
    outer loop
      vertex 16.8244 1.61803 3
      vertex 16.5858 1.41421 0
      vertex 16.8244 1.61803 0
    endloop
  endfacet
  facet normal 0.760407 -0.649447 0
    outer loop
      vertex 16.382 1.17557 3
      vertex 16.5858 1.41421 0
      vertex 16.5858 1.41421 3
    endloop
  endfacet
  facet normal 0.760407 -0.649447 0
    outer loop
      vertex 16.5858 1.41421 0
      vertex 16.382 1.17557 3
      vertex 16.382 1.17557 0
    endloop
  endfacet
  facet normal -0.996917 0.078461 0
    outer loop
      vertex 19.9754 -0.312868 0
      vertex 20 0 3
      vertex 20 0 0
    endloop
  endfacet
  facet normal -0.996917 0.078461 0
    outer loop
      vertex 20 0 3
      vertex 19.9754 -0.312868 0
      vertex 19.9754 -0.312868 3
    endloop
  endfacet
  facet normal 0.972372 0.233438 0
    outer loop
      vertex 16.0979 -0.618033 3
      vertex 16.0246 -0.312868 0
      vertex 16.0246 -0.312868 3
    endloop
  endfacet
  facet normal 0.972372 0.233438 0
    outer loop
      vertex 16.0246 -0.312868 0
      vertex 16.0979 -0.618033 3
      vertex 16.0979 -0.618033 0
    endloop
  endfacet
  facet normal 0.760407 0.649447 0
    outer loop
      vertex 16.5858 -1.41421 3
      vertex 16.382 -1.17557 0
      vertex 16.382 -1.17557 3
    endloop
  endfacet
  facet normal 0.760407 0.649447 0
    outer loop
      vertex 16.382 -1.17557 0
      vertex 16.5858 -1.41421 3
      vertex 16.5858 -1.41421 0
    endloop
  endfacet
  facet normal -0.233443 0.97237 0
    outer loop
      vertex 18.618 -1.90211 0
      vertex 18.3129 -1.97538 3
      vertex 18.618 -1.90211 3
    endloop
  endfacet
  facet normal -0.233443 0.97237 0
    outer loop
      vertex 18.3129 -1.97538 3
      vertex 18.618 -1.90211 0
      vertex 18.3129 -1.97538 0
    endloop
  endfacet
  facet normal -0.382683 0.92388 0
    outer loop
      vertex 18.908 -1.78201 0
      vertex 18.618 -1.90211 3
      vertex 18.908 -1.78201 3
    endloop
  endfacet
  facet normal -0.382683 0.92388 0
    outer loop
      vertex 18.618 -1.90211 3
      vertex 18.908 -1.78201 0
      vertex 18.618 -1.90211 0
    endloop
  endfacet
  facet normal -0.760404 -0.64945 0
    outer loop
      vertex 19.618 1.17557 0
      vertex 19.4142 1.41421 3
      vertex 19.4142 1.41421 0
    endloop
  endfacet
  facet normal -0.760404 -0.64945 0
    outer loop
      vertex 19.4142 1.41421 3
      vertex 19.618 1.17557 0
      vertex 19.618 1.17557 3
    endloop
  endfacet
  facet normal 0.996917 -0.078461 0
    outer loop
      vertex 16 0 3
      vertex 16.0246 0.312868 0
      vertex 16.0246 0.312868 3
    endloop
  endfacet
  facet normal 0.996917 -0.078461 0
    outer loop
      vertex 16.0246 0.312868 0
      vertex 16 0 3
      vertex 16 0 0
    endloop
  endfacet
  facet normal -0.852641 0.522497 0
    outer loop
      vertex 19.618 -1.17557 0
      vertex 19.782 -0.907981 3
      vertex 19.782 -0.907981 0
    endloop
  endfacet
  facet normal -0.852641 0.522497 0
    outer loop
      vertex 19.782 -0.907981 3
      vertex 19.618 -1.17557 0
      vertex 19.618 -1.17557 3
    endloop
  endfacet
  facet normal -0.078461 0.996917 0
    outer loop
      vertex 18.3129 -1.97538 0
      vertex 18 -2 3
      vertex 18.3129 -1.97538 3
    endloop
  endfacet
  facet normal -0.078461 0.996917 0
    outer loop
      vertex 18 -2 3
      vertex 18.3129 -1.97538 0
      vertex 18 -2 0
    endloop
  endfacet
  facet normal 0.923878 0.382688 0
    outer loop
      vertex 16.218 -0.907981 3
      vertex 16.0979 -0.618033 0
      vertex 16.0979 -0.618033 3
    endloop
  endfacet
  facet normal 0.923878 0.382688 0
    outer loop
      vertex 16.0979 -0.618033 0
      vertex 16.218 -0.907981 3
      vertex 16.218 -0.907981 0
    endloop
  endfacet
  facet normal 0.649447 0.760407 -0
    outer loop
      vertex 16.8244 -1.61803 0
      vertex 16.5858 -1.41421 3
      vertex 16.8244 -1.61803 3
    endloop
  endfacet
  facet normal 0.649447 0.760407 0
    outer loop
      vertex 16.5858 -1.41421 3
      vertex 16.8244 -1.61803 0
      vertex 16.5858 -1.41421 0
    endloop
  endfacet
  facet normal -0.64945 0.760405 0
    outer loop
      vertex 19.4142 -1.41421 0
      vertex 19.1756 -1.61803 3
      vertex 19.4142 -1.41421 3
    endloop
  endfacet
  facet normal -0.64945 0.760405 0
    outer loop
      vertex 19.1756 -1.61803 3
      vertex 19.4142 -1.41421 0
      vertex 19.1756 -1.61803 0
    endloop
  endfacet
  facet normal -0.5225 0.85264 0
    outer loop
      vertex 19.1756 -1.61803 0
      vertex 18.908 -1.78201 3
      vertex 19.1756 -1.61803 3
    endloop
  endfacet
  facet normal -0.5225 0.85264 0
    outer loop
      vertex 18.908 -1.78201 3
      vertex 19.1756 -1.61803 0
      vertex 18.908 -1.78201 0
    endloop
  endfacet
  facet normal 0.233444 0.97237 -0
    outer loop
      vertex 17.6871 -1.97538 0
      vertex 17.382 -1.90211 3
      vertex 17.6871 -1.97538 3
    endloop
  endfacet
  facet normal 0.233444 0.97237 0
    outer loop
      vertex 17.382 -1.90211 3
      vertex 17.6871 -1.97538 0
      vertex 17.382 -1.90211 0
    endloop
  endfacet
  facet normal 0.382683 0.92388 -0
    outer loop
      vertex 17.382 -1.90211 0
      vertex 17.092 -1.78201 3
      vertex 17.382 -1.90211 3
    endloop
  endfacet
  facet normal 0.382683 0.92388 0
    outer loop
      vertex 17.092 -1.78201 3
      vertex 17.382 -1.90211 0
      vertex 17.092 -1.78201 0
    endloop
  endfacet
  facet normal -0.760404 0.64945 0
    outer loop
      vertex 19.4142 -1.41421 0
      vertex 19.618 -1.17557 3
      vertex 19.618 -1.17557 0
    endloop
  endfacet
  facet normal -0.760404 0.64945 0
    outer loop
      vertex 19.618 -1.17557 3
      vertex 19.4142 -1.41421 0
      vertex 19.4142 -1.41421 3
    endloop
  endfacet
  facet normal 0.0784606 0.996917 -0
    outer loop
      vertex 18 -2 0
      vertex 17.6871 -1.97538 3
      vertex 18 -2 3
    endloop
  endfacet
  facet normal 0.0784606 0.996917 0
    outer loop
      vertex 17.6871 -1.97538 3
      vertex 18 -2 0
      vertex 17.6871 -1.97538 0
    endloop
  endfacet
  facet normal -1 0 0
    outer loop
      vertex -5 3.06152e-016 0
      vertex -5 18 3
      vertex -5 18 0
    endloop
  endfacet
  facet normal -1 -0 0
    outer loop
      vertex -5 18 3
      vertex -5 3.06152e-016 0
      vertex -5 3.06152e-016 3
    endloop
  endfacet
  facet normal 1 -0 0
    outer loop
      vertex 5 5 3
      vertex 5 18 0
      vertex 5 18 3
    endloop
  endfacet
  facet normal 1 0 0
    outer loop
      vertex 5 18 0
      vertex 5 5 3
      vertex 5 5 0
    endloop
  endfacet
  facet normal -0.649448 0.760406 0
    outer loop
      vertex -2.93893 22.0451 0
      vertex -3.53553 21.5355 3
      vertex -2.93893 22.0451 3
    endloop
  endfacet
  facet normal -0.649448 0.760406 0
    outer loop
      vertex -3.53553 21.5355 3
      vertex -2.93893 22.0451 0
      vertex -3.53553 21.5355 0
    endloop
  endfacet
  facet normal -0.923879 0.382685 0
    outer loop
      vertex -4.75528 19.5451 0
      vertex -4.45503 20.27 3
      vertex -4.45503 20.27 0
    endloop
  endfacet
  facet normal -0.923879 0.382685 0
    outer loop
      vertex -4.45503 20.27 3
      vertex -4.75528 19.5451 0
      vertex -4.75528 19.5451 3
    endloop
  endfacet
  facet normal -0.233445 0.97237 0
    outer loop
      vertex -0.782172 22.9384 0
      vertex -1.54508 22.7553 3
      vertex -0.782172 22.9384 3
    endloop
  endfacet
  facet normal -0.233445 0.97237 0
    outer loop
      vertex -1.54508 22.7553 3
      vertex -0.782172 22.9384 0
      vertex -1.54508 22.7553 0
    endloop
  endfacet
  facet normal -0.760406 0.649448 0
    outer loop
      vertex -4.04508 20.9389 0
      vertex -3.53553 21.5355 3
      vertex -3.53553 21.5355 0
    endloop
  endfacet
  facet normal -0.760406 0.649448 0
    outer loop
      vertex -3.53553 21.5355 3
      vertex -4.04508 20.9389 0
      vertex -4.04508 20.9389 3
    endloop
  endfacet
  facet normal -0.852641 0.522497 0
    outer loop
      vertex -4.45503 20.27 0
      vertex -4.04508 20.9389 3
      vertex -4.04508 20.9389 0
    endloop
  endfacet
  facet normal -0.852641 0.522497 0
    outer loop
      vertex -4.04508 20.9389 3
      vertex -4.45503 20.27 0
      vertex -4.45503 20.27 3
    endloop
  endfacet
  facet normal -0.0784584 0.996917 0
    outer loop
      vertex 1.4083e-015 23 0
      vertex -0.782172 22.9384 3
      vertex 1.4083e-015 23 3
    endloop
  endfacet
  facet normal -0.0784584 0.996917 0
    outer loop
      vertex -0.782172 22.9384 3
      vertex 1.4083e-015 23 0
      vertex -0.782172 22.9384 0
    endloop
  endfacet
  facet normal 0.382683 0.92388 -0
    outer loop
      vertex 2.26995 22.455 0
      vertex 1.54508 22.7553 3
      vertex 2.26995 22.455 3
    endloop
  endfacet
  facet normal 0.382683 0.92388 0
    outer loop
      vertex 1.54508 22.7553 3
      vertex 2.26995 22.455 0
      vertex 1.54508 22.7553 0
    endloop
  endfacet
  facet normal 0.760407 0.649447 0
    outer loop
      vertex 4.04508 20.9389 3
      vertex 3.53553 21.5355 0
      vertex 3.53553 21.5355 3
    endloop
  endfacet
  facet normal 0.760407 0.649447 0
    outer loop
      vertex 3.53553 21.5355 0
      vertex 4.04508 20.9389 3
      vertex 4.04508 20.9389 0
    endloop
  endfacet
  facet normal -0.97237 0.233445 0
    outer loop
      vertex -4.93844 18.7822 0
      vertex -4.75528 19.5451 3
      vertex -4.75528 19.5451 0
    endloop
  endfacet
  facet normal -0.97237 0.233445 0
    outer loop
      vertex -4.75528 19.5451 3
      vertex -4.93844 18.7822 0
      vertex -4.93844 18.7822 3
    endloop
  endfacet
  facet normal -0.996917 0.0784596 0
    outer loop
      vertex -5 18 0
      vertex -4.93844 18.7822 3
      vertex -4.93844 18.7822 0
    endloop
  endfacet
  facet normal -0.996917 0.0784596 0
    outer loop
      vertex -4.93844 18.7822 3
      vertex -5 18 0
      vertex -5 18 3
    endloop
  endfacet
  facet normal 0.233445 0.97237 -0
    outer loop
      vertex 1.54508 22.7553 0
      vertex 0.782172 22.9384 3
      vertex 1.54508 22.7553 3
    endloop
  endfacet
  facet normal 0.233445 0.97237 0
    outer loop
      vertex 0.782172 22.9384 3
      vertex 1.54508 22.7553 0
      vertex 0.782172 22.9384 0
    endloop
  endfacet
  facet normal 0.522499 0.85264 -0
    outer loop
      vertex 2.93893 22.0451 0
      vertex 2.26995 22.455 3
      vertex 2.93893 22.0451 3
    endloop
  endfacet
  facet normal 0.522499 0.85264 0
    outer loop
      vertex 2.26995 22.455 3
      vertex 2.93893 22.0451 0
      vertex 2.26995 22.455 0
    endloop
  endfacet
  facet normal 0.97237 0.233445 0
    outer loop
      vertex 4.93844 18.7822 3
      vertex 4.75528 19.5451 0
      vertex 4.75528 19.5451 3
    endloop
  endfacet
  facet normal 0.97237 0.233445 0
    outer loop
      vertex 4.75528 19.5451 0
      vertex 4.93844 18.7822 3
      vertex 4.93844 18.7822 0
    endloop
  endfacet
  facet normal -0.522497 0.852641 0
    outer loop
      vertex -2.26995 22.455 0
      vertex -2.93893 22.0451 3
      vertex -2.26995 22.455 3
    endloop
  endfacet
  facet normal -0.522497 0.852641 0
    outer loop
      vertex -2.93893 22.0451 3
      vertex -2.26995 22.455 0
      vertex -2.93893 22.0451 0
    endloop
  endfacet
  facet normal -0.382685 0.923879 0
    outer loop
      vertex -1.54508 22.7553 0
      vertex -2.26995 22.455 3
      vertex -1.54508 22.7553 3
    endloop
  endfacet
  facet normal -0.382685 0.923879 0
    outer loop
      vertex -2.26995 22.455 3
      vertex -1.54508 22.7553 0
      vertex -2.26995 22.455 0
    endloop
  endfacet
  facet normal 0.0784609 0.996917 -0
    outer loop
      vertex 0.782172 22.9384 0
      vertex 1.4083e-015 23 3
      vertex 0.782172 22.9384 3
    endloop
  endfacet
  facet normal 0.0784609 0.996917 0
    outer loop
      vertex 1.4083e-015 23 3
      vertex 0.782172 22.9384 0
      vertex 1.4083e-015 23 0
    endloop
  endfacet
  facet normal 0.996917 0.0784597 0
    outer loop
      vertex 5 18 3
      vertex 4.93844 18.7822 0
      vertex 4.93844 18.7822 3
    endloop
  endfacet
  facet normal 0.996917 0.0784597 0
    outer loop
      vertex 4.93844 18.7822 0
      vertex 5 18 3
      vertex 5 18 0
    endloop
  endfacet
  facet normal 0.85264 0.522498 0
    outer loop
      vertex 4.45503 20.27 3
      vertex 4.04508 20.9389 0
      vertex 4.04508 20.9389 3
    endloop
  endfacet
  facet normal 0.85264 0.522498 0
    outer loop
      vertex 4.04508 20.9389 0
      vertex 4.45503 20.27 3
      vertex 4.45503 20.27 0
    endloop
  endfacet
  facet normal 0.923879 0.382684 0
    outer loop
      vertex 4.75528 19.5451 3
      vertex 4.45503 20.27 0
      vertex 4.45503 20.27 3
    endloop
  endfacet
  facet normal 0.923879 0.382684 0
    outer loop
      vertex 4.45503 20.27 0
      vertex 4.75528 19.5451 3
      vertex 4.75528 19.5451 0
    endloop
  endfacet
  facet normal 0.649447 0.760407 -0
    outer loop
      vertex 3.53553 21.5355 0
      vertex 2.93893 22.0451 3
      vertex 3.53553 21.5355 3
    endloop
  endfacet
  facet normal 0.649447 0.760407 0
    outer loop
      vertex 2.93893 22.0451 3
      vertex 3.53553 21.5355 0
      vertex 2.93893 22.0451 0
    endloop
  endfacet
  facet normal 0.382683 -0.92388 0
    outer loop
      vertex -0.907981 19.782 0
      vertex -0.618033 19.9021 3
      vertex -0.907981 19.782 3
    endloop
  endfacet
  facet normal 0.382683 -0.92388 0
    outer loop
      vertex -0.618033 19.9021 3
      vertex -0.907981 19.782 0
      vertex -0.618033 19.9021 0
    endloop
  endfacet
  facet normal 0.522497 -0.852641 0
    outer loop
      vertex -1.17557 19.618 0
      vertex -0.907981 19.782 3
      vertex -1.17557 19.618 3
    endloop
  endfacet
  facet normal 0.522497 -0.852641 0
    outer loop
      vertex -0.907981 19.782 3
      vertex -1.17557 19.618 0
      vertex -0.907981 19.782 0
    endloop
  endfacet
  facet normal 0.92388 -0.382683 0
    outer loop
      vertex -1.90211 18.618 3
      vertex -1.78201 18.908 0
      vertex -1.78201 18.908 3
    endloop
  endfacet
  facet normal 0.92388 -0.382683 0
    outer loop
      vertex -1.78201 18.908 0
      vertex -1.90211 18.618 3
      vertex -1.90211 18.618 0
    endloop
  endfacet
  facet normal 0.92388 0.382683 0
    outer loop
      vertex -1.78201 17.092 3
      vertex -1.90211 17.382 0
      vertex -1.90211 17.382 3
    endloop
  endfacet
  facet normal 0.92388 0.382683 0
    outer loop
      vertex -1.90211 17.382 0
      vertex -1.78201 17.092 3
      vertex -1.78201 17.092 0
    endloop
  endfacet
  facet normal 0.382688 0.923878 -0
    outer loop
      vertex -0.618033 16.0979 0
      vertex -0.907981 16.218 3
      vertex -0.618033 16.0979 3
    endloop
  endfacet
  facet normal 0.382688 0.923878 0
    outer loop
      vertex -0.907981 16.218 3
      vertex -0.618033 16.0979 0
      vertex -0.907981 16.218 0
    endloop
  endfacet
  facet normal -0.233444 -0.97237 0
    outer loop
      vertex 0.312868 19.9754 0
      vertex 0.618033 19.9021 3
      vertex 0.312868 19.9754 3
    endloop
  endfacet
  facet normal -0.233444 -0.97237 -0
    outer loop
      vertex 0.618033 19.9021 3
      vertex 0.312868 19.9754 0
      vertex 0.618033 19.9021 0
    endloop
  endfacet
  facet normal 0.233444 -0.97237 0
    outer loop
      vertex -0.618033 19.9021 0
      vertex -0.312868 19.9754 3
      vertex -0.618033 19.9021 3
    endloop
  endfacet
  facet normal 0.233444 -0.97237 0
    outer loop
      vertex -0.312868 19.9754 3
      vertex -0.618033 19.9021 0
      vertex -0.312868 19.9754 0
    endloop
  endfacet
  facet normal 0.996917 0.0784606 0
    outer loop
      vertex -1.97538 17.6871 3
      vertex -2 18 0
      vertex -2 18 3
    endloop
  endfacet
  facet normal 0.996917 0.0784606 0
    outer loop
      vertex -2 18 0
      vertex -1.97538 17.6871 3
      vertex -1.97538 17.6871 0
    endloop
  endfacet
  facet normal 0.85264 -0.5225 0
    outer loop
      vertex -1.78201 18.908 3
      vertex -1.61803 19.1756 0
      vertex -1.61803 19.1756 3
    endloop
  endfacet
  facet normal 0.85264 -0.5225 0
    outer loop
      vertex -1.61803 19.1756 0
      vertex -1.78201 18.908 3
      vertex -1.78201 18.908 0
    endloop
  endfacet
  facet normal 0.522497 0.852641 -0
    outer loop
      vertex -0.907981 16.218 0
      vertex -1.17557 16.382 3
      vertex -0.907981 16.218 3
    endloop
  endfacet
  facet normal 0.522497 0.852641 0
    outer loop
      vertex -1.17557 16.382 3
      vertex -0.907981 16.218 0
      vertex -1.17557 16.382 0
    endloop
  endfacet
  facet normal 0.85264 0.5225 0
    outer loop
      vertex -1.61803 16.8244 3
      vertex -1.78201 17.092 0
      vertex -1.78201 17.092 3
    endloop
  endfacet
  facet normal 0.85264 0.5225 0
    outer loop
      vertex -1.78201 17.092 0
      vertex -1.61803 16.8244 3
      vertex -1.61803 16.8244 0
    endloop
  endfacet
  facet normal 0.97237 0.233444 0
    outer loop
      vertex -1.90211 17.382 3
      vertex -1.97538 17.6871 0
      vertex -1.97538 17.6871 3
    endloop
  endfacet
  facet normal 0.97237 0.233444 0
    outer loop
      vertex -1.97538 17.6871 0
      vertex -1.90211 17.382 3
      vertex -1.90211 17.382 0
    endloop
  endfacet
  facet normal 0.078461 -0.996917 0
    outer loop
      vertex -0.312868 19.9754 0
      vertex 1.22461e-015 20 3
      vertex -0.312868 19.9754 3
    endloop
  endfacet
  facet normal 0.078461 -0.996917 0
    outer loop
      vertex 1.22461e-015 20 3
      vertex -0.312868 19.9754 0
      vertex 1.22461e-015 20 0
    endloop
  endfacet
  facet normal -0.382683 -0.92388 0
    outer loop
      vertex 0.618033 19.9021 0
      vertex 0.907981 19.782 3
      vertex 0.618033 19.9021 3
    endloop
  endfacet
  facet normal -0.382683 -0.92388 -0
    outer loop
      vertex 0.907981 19.782 3
      vertex 0.618033 19.9021 0
      vertex 0.907981 19.782 0
    endloop
  endfacet
  facet normal -0.85264 0.5225 0
    outer loop
      vertex 1.61803 16.8244 0
      vertex 1.78201 17.092 3
      vertex 1.78201 17.092 0
    endloop
  endfacet
  facet normal -0.85264 0.5225 0
    outer loop
      vertex 1.78201 17.092 3
      vertex 1.61803 16.8244 0
      vertex 1.61803 16.8244 3
    endloop
  endfacet
  facet normal -0.522502 0.852638 0
    outer loop
      vertex 1.17557 16.382 0
      vertex 0.907981 16.218 3
      vertex 1.17557 16.382 3
    endloop
  endfacet
  facet normal -0.522502 0.852638 0
    outer loop
      vertex 0.907981 16.218 3
      vertex 1.17557 16.382 0
      vertex 0.907981 16.218 0
    endloop
  endfacet
  facet normal 0.760405 -0.64945 0
    outer loop
      vertex -1.61803 19.1756 3
      vertex -1.41421 19.4142 0
      vertex -1.41421 19.4142 3
    endloop
  endfacet
  facet normal 0.760405 -0.64945 0
    outer loop
      vertex -1.41421 19.4142 0
      vertex -1.61803 19.1756 3
      vertex -1.61803 19.1756 0
    endloop
  endfacet
  facet normal 0.97237 -0.233443 0
    outer loop
      vertex -1.97538 18.3129 3
      vertex -1.90211 18.618 0
      vertex -1.90211 18.618 3
    endloop
  endfacet
  facet normal 0.97237 -0.233443 0
    outer loop
      vertex -1.90211 18.618 0
      vertex -1.97538 18.3129 3
      vertex -1.97538 18.3129 0
    endloop
  endfacet
  facet normal 0.996917 -0.078461 0
    outer loop
      vertex -2 18 3
      vertex -1.97538 18.3129 0
      vertex -1.97538 18.3129 3
    endloop
  endfacet
  facet normal 0.996917 -0.078461 0
    outer loop
      vertex -1.97538 18.3129 0
      vertex -2 18 3
      vertex -2 18 0
    endloop
  endfacet
  facet normal -0.078455 0.996918 0
    outer loop
      vertex 0.312868 16.0246 0
      vertex 9.79685e-016 16 3
      vertex 0.312868 16.0246 3
    endloop
  endfacet
  facet normal -0.078455 0.996918 0
    outer loop
      vertex 9.79685e-016 16 3
      vertex 0.312868 16.0246 0
      vertex 9.79685e-016 16 0
    endloop
  endfacet
  facet normal 0.233438 0.972372 -0
    outer loop
      vertex -0.312868 16.0246 0
      vertex -0.618033 16.0979 3
      vertex -0.312868 16.0246 3
    endloop
  endfacet
  facet normal 0.233438 0.972372 0
    outer loop
      vertex -0.618033 16.0979 3
      vertex -0.312868 16.0246 0
      vertex -0.618033 16.0979 0
    endloop
  endfacet
  facet normal 0.760407 0.649447 0
    outer loop
      vertex -1.41421 16.5858 3
      vertex -1.61803 16.8244 0
      vertex -1.61803 16.8244 3
    endloop
  endfacet
  facet normal 0.760407 0.649447 0
    outer loop
      vertex -1.61803 16.8244 0
      vertex -1.41421 16.5858 3
      vertex -1.41421 16.5858 0
    endloop
  endfacet
  facet normal 0.649447 0.760407 -0
    outer loop
      vertex -1.17557 16.382 0
      vertex -1.41421 16.5858 3
      vertex -1.17557 16.382 3
    endloop
  endfacet
  facet normal 0.649447 0.760407 0
    outer loop
      vertex -1.41421 16.5858 3
      vertex -1.17557 16.382 0
      vertex -1.41421 16.5858 0
    endloop
  endfacet
  facet normal -0.078461 -0.996917 0
    outer loop
      vertex 1.22461e-015 20 0
      vertex 0.312868 19.9754 3
      vertex 1.22461e-015 20 3
    endloop
  endfacet
  facet normal -0.078461 -0.996917 -0
    outer loop
      vertex 0.312868 19.9754 3
      vertex 1.22461e-015 20 0
      vertex 0.312868 19.9754 0
    endloop
  endfacet
  facet normal -0.233444 0.97237 0
    outer loop
      vertex 0.618033 16.0979 0
      vertex 0.312868 16.0246 3
      vertex 0.618033 16.0979 3
    endloop
  endfacet
  facet normal -0.233444 0.97237 0
    outer loop
      vertex 0.312868 16.0246 3
      vertex 0.618033 16.0979 0
      vertex 0.312868 16.0246 0
    endloop
  endfacet
  facet normal -0.649447 0.760407 0
    outer loop
      vertex 1.41421 16.5858 0
      vertex 1.17557 16.382 3
      vertex 1.41421 16.5858 3
    endloop
  endfacet
  facet normal -0.649447 0.760407 0
    outer loop
      vertex 1.17557 16.382 3
      vertex 1.41421 16.5858 0
      vertex 1.17557 16.382 0
    endloop
  endfacet
  facet normal -0.97237 -0.233444 0
    outer loop
      vertex 1.97538 18.3129 0
      vertex 1.90211 18.618 3
      vertex 1.90211 18.618 0
    endloop
  endfacet
  facet normal -0.97237 -0.233444 0
    outer loop
      vertex 1.90211 18.618 3
      vertex 1.97538 18.3129 0
      vertex 1.97538 18.3129 3
    endloop
  endfacet
  facet normal -0.92388 -0.382683 0
    outer loop
      vertex 1.90211 18.618 0
      vertex 1.78201 18.908 3
      vertex 1.78201 18.908 0
    endloop
  endfacet
  facet normal -0.92388 -0.382683 0
    outer loop
      vertex 1.78201 18.908 3
      vertex 1.90211 18.618 0
      vertex 1.90211 18.618 3
    endloop
  endfacet
  facet normal 0.64945 -0.760404 0
    outer loop
      vertex -1.41421 19.4142 0
      vertex -1.17557 19.618 3
      vertex -1.41421 19.4142 3
    endloop
  endfacet
  facet normal 0.64945 -0.760404 0
    outer loop
      vertex -1.17557 19.618 3
      vertex -1.41421 19.4142 0
      vertex -1.17557 19.618 0
    endloop
  endfacet
  facet normal 0.078461 0.996917 -0
    outer loop
      vertex 9.79685e-016 16 0
      vertex -0.312868 16.0246 3
      vertex 9.79685e-016 16 3
    endloop
  endfacet
  facet normal 0.078461 0.996917 0
    outer loop
      vertex -0.312868 16.0246 3
      vertex 9.79685e-016 16 0
      vertex -0.312868 16.0246 0
    endloop
  endfacet
  facet normal -0.522502 -0.852638 0
    outer loop
      vertex 0.907981 19.782 0
      vertex 1.17557 19.618 3
      vertex 0.907981 19.782 3
    endloop
  endfacet
  facet normal -0.522502 -0.852638 -0
    outer loop
      vertex 1.17557 19.618 3
      vertex 0.907981 19.782 0
      vertex 1.17557 19.618 0
    endloop
  endfacet
  facet normal -0.996917 -0.078461 0
    outer loop
      vertex 2 18 0
      vertex 1.97538 18.3129 3
      vertex 1.97538 18.3129 0
    endloop
  endfacet
  facet normal -0.996917 -0.078461 0
    outer loop
      vertex 1.97538 18.3129 3
      vertex 2 18 0
      vertex 2 18 3
    endloop
  endfacet
  facet normal -0.382683 0.92388 0
    outer loop
      vertex 0.907981 16.218 0
      vertex 0.618033 16.0979 3
      vertex 0.907981 16.218 3
    endloop
  endfacet
  facet normal -0.382683 0.92388 0
    outer loop
      vertex 0.618033 16.0979 3
      vertex 0.907981 16.218 0
      vertex 0.618033 16.0979 0
    endloop
  endfacet
  facet normal -0.760407 0.649447 0
    outer loop
      vertex 1.41421 16.5858 0
      vertex 1.61803 16.8244 3
      vertex 1.61803 16.8244 0
    endloop
  endfacet
  facet normal -0.760407 0.649447 0
    outer loop
      vertex 1.61803 16.8244 3
      vertex 1.41421 16.5858 0
      vertex 1.41421 16.5858 3
    endloop
  endfacet
  facet normal -0.760407 -0.649447 0
    outer loop
      vertex 1.61803 19.1756 0
      vertex 1.41421 19.4142 3
      vertex 1.41421 19.4142 0
    endloop
  endfacet
  facet normal -0.760407 -0.649447 0
    outer loop
      vertex 1.41421 19.4142 3
      vertex 1.61803 19.1756 0
      vertex 1.61803 19.1756 3
    endloop
  endfacet
  facet normal -0.85264 -0.5225 0
    outer loop
      vertex 1.78201 18.908 0
      vertex 1.61803 19.1756 3
      vertex 1.61803 19.1756 0
    endloop
  endfacet
  facet normal -0.85264 -0.5225 0
    outer loop
      vertex 1.61803 19.1756 3
      vertex 1.78201 18.908 0
      vertex 1.78201 18.908 3
    endloop
  endfacet
  facet normal -0.97237 0.233444 0
    outer loop
      vertex 1.90211 17.382 0
      vertex 1.97538 17.6871 3
      vertex 1.97538 17.6871 0
    endloop
  endfacet
  facet normal -0.97237 0.233444 0
    outer loop
      vertex 1.97538 17.6871 3
      vertex 1.90211 17.382 0
      vertex 1.90211 17.382 3
    endloop
  endfacet
  facet normal -0.92388 0.382683 0
    outer loop
      vertex 1.78201 17.092 0
      vertex 1.90211 17.382 3
      vertex 1.90211 17.382 0
    endloop
  endfacet
  facet normal -0.92388 0.382683 0
    outer loop
      vertex 1.90211 17.382 3
      vertex 1.78201 17.092 0
      vertex 1.78201 17.092 3
    endloop
  endfacet
  facet normal -0.649447 -0.760407 0
    outer loop
      vertex 1.17557 19.618 0
      vertex 1.41421 19.4142 3
      vertex 1.17557 19.618 3
    endloop
  endfacet
  facet normal -0.649447 -0.760407 -0
    outer loop
      vertex 1.41421 19.4142 3
      vertex 1.17557 19.618 0
      vertex 1.41421 19.4142 0
    endloop
  endfacet
  facet normal -0.996917 0.0784606 0
    outer loop
      vertex 1.97538 17.6871 0
      vertex 2 18 3
      vertex 2 18 0
    endloop
  endfacet
  facet normal -0.996917 0.0784606 0
    outer loop
      vertex 2 18 3
      vertex 1.97538 17.6871 0
      vertex 1.97538 17.6871 3
    endloop
  endfacet
  facet normal -0.233445 -0.97237 0
    outer loop
      vertex -1.54508 -4.75528 0
      vertex -0.782172 -4.93844 3
      vertex -1.54508 -4.75528 3
    endloop
  endfacet
  facet normal -0.233445 -0.97237 -0
    outer loop
      vertex -0.782172 -4.93844 3
      vertex -1.54508 -4.75528 0
      vertex -0.782172 -4.93844 0
    endloop
  endfacet
  facet normal -0.382684 -0.923879 0
    outer loop
      vertex -2.26995 -4.45503 0
      vertex -1.54508 -4.75528 3
      vertex -2.26995 -4.45503 3
    endloop
  endfacet
  facet normal -0.382684 -0.923879 -0
    outer loop
      vertex -1.54508 -4.75528 3
      vertex -2.26995 -4.45503 0
      vertex -1.54508 -4.75528 0
    endloop
  endfacet
  facet normal -1 0 0
    outer loop
      vertex -5 0 0
      vertex -5 3.06152e-016 3
      vertex -5 3.06152e-016 0
    endloop
  endfacet
  facet normal -1 -0 0
    outer loop
      vertex -5 3.06152e-016 3
      vertex -5 0 0
      vertex -5 0 3
    endloop
  endfacet
  facet normal -0.0784596 -0.996917 0
    outer loop
      vertex -0.782172 -4.93844 0
      vertex 0 -5 3
      vertex -0.782172 -4.93844 3
    endloop
  endfacet
  facet normal -0.0784596 -0.996917 -0
    outer loop
      vertex 0 -5 3
      vertex -0.782172 -4.93844 0
      vertex 0 -5 0
    endloop
  endfacet
  facet normal -0.649448 -0.760406 0
    outer loop
      vertex -3.53553 -3.53553 0
      vertex -2.93893 -4.04508 3
      vertex -3.53553 -3.53553 3
    endloop
  endfacet
  facet normal -0.649448 -0.760406 -0
    outer loop
      vertex -2.93893 -4.04508 3
      vertex -3.53553 -3.53553 0
      vertex -2.93893 -4.04508 0
    endloop
  endfacet
  facet normal -0.996917 -0.0784596 0
    outer loop
      vertex -4.93844 -0.782172 0
      vertex -5 0 3
      vertex -5 0 0
    endloop
  endfacet
  facet normal -0.996917 -0.0784596 0
    outer loop
      vertex -5 0 3
      vertex -4.93844 -0.782172 0
      vertex -4.93844 -0.782172 3
    endloop
  endfacet
  facet normal -0.522498 -0.85264 0
    outer loop
      vertex -2.93893 -4.04508 0
      vertex -2.26995 -4.45503 3
      vertex -2.93893 -4.04508 3
    endloop
  endfacet
  facet normal -0.522498 -0.85264 -0
    outer loop
      vertex -2.26995 -4.45503 3
      vertex -2.93893 -4.04508 0
      vertex -2.26995 -4.45503 0
    endloop
  endfacet
  facet normal -0.97237 -0.233445 0
    outer loop
      vertex -4.75528 -1.54508 0
      vertex -4.93844 -0.782172 3
      vertex -4.93844 -0.782172 0
    endloop
  endfacet
  facet normal -0.97237 -0.233445 0
    outer loop
      vertex -4.93844 -0.782172 3
      vertex -4.75528 -1.54508 0
      vertex -4.75528 -1.54508 3
    endloop
  endfacet
  facet normal -0.760406 -0.649448 0
    outer loop
      vertex -3.53553 -3.53553 0
      vertex -4.04508 -2.93893 3
      vertex -4.04508 -2.93893 0
    endloop
  endfacet
  facet normal -0.760406 -0.649448 0
    outer loop
      vertex -4.04508 -2.93893 3
      vertex -3.53553 -3.53553 0
      vertex -3.53553 -3.53553 3
    endloop
  endfacet
  facet normal -0.923879 -0.382684 0
    outer loop
      vertex -4.45503 -2.26995 0
      vertex -4.75528 -1.54508 3
      vertex -4.75528 -1.54508 0
    endloop
  endfacet
  facet normal -0.923879 -0.382684 0
    outer loop
      vertex -4.75528 -1.54508 3
      vertex -4.45503 -2.26995 0
      vertex -4.45503 -2.26995 3
    endloop
  endfacet
  facet normal -0.85264 -0.522498 0
    outer loop
      vertex -4.04508 -2.93893 0
      vertex -4.45503 -2.26995 3
      vertex -4.45503 -2.26995 0
    endloop
  endfacet
  facet normal -0.85264 -0.522498 0
    outer loop
      vertex -4.45503 -2.26995 3
      vertex -4.04508 -2.93893 0
      vertex -4.04508 -2.93893 3
    endloop
  endfacet
  facet normal 1 -0 0
    outer loop
      vertex -1.5 -1.5 3
      vertex -1.5 1.5 0
      vertex -1.5 1.5 3
    endloop
  endfacet
  facet normal 1 0 0
    outer loop
      vertex -1.5 1.5 0
      vertex -1.5 -1.5 3
      vertex -1.5 -1.5 0
    endloop
  endfacet
  facet normal -1 0 0
    outer loop
      vertex 1.5 -1.5 0
      vertex 1.5 1.5 3
      vertex 1.5 1.5 0
    endloop
  endfacet
  facet normal -1 -0 0
    outer loop
      vertex 1.5 1.5 3
      vertex 1.5 -1.5 0
      vertex 1.5 -1.5 3
    endloop
  endfacet
  facet normal 0 -1 0
    outer loop
      vertex -1.5 1.5 0
      vertex 1.5 1.5 3
      vertex -1.5 1.5 3
    endloop
  endfacet
  facet normal 0 -1 -0
    outer loop
      vertex 1.5 1.5 3
      vertex -1.5 1.5 0
      vertex 1.5 1.5 0
    endloop
  endfacet
  facet normal 0 1 -0
    outer loop
      vertex 1.5 -1.5 0
      vertex -1.5 -1.5 3
      vertex 1.5 -1.5 3
    endloop
  endfacet
  facet normal 0 1 0
    outer loop
      vertex -1.5 -1.5 3
      vertex 1.5 -1.5 0
      vertex -1.5 -1.5 0
    endloop
  endfacet
endsolid OpenSCAD_Model
