solid OpenSCAD_Model
  facet normal -1 0 0
    outer loop
      vertex 0 0 0
      vertex 0 20 3
      vertex 0 20 0
    endloop
  endfacet
  facet normal -1 -0 0
    outer loop
      vertex 0 20 3
      vertex 0 0 0
      vertex 0 0 3
    endloop
  endfacet
  facet normal -0 0 1
    outer loop
      vertex 0 20 3
      vertex 10 0 3
      vertex 10 20 3
    endloop
  endfacet
  facet normal 0 0 1
    outer loop
      vertex 10 0 3
      vertex 0 20 3
      vertex 0 0 3
    endloop
  endfacet
  facet normal 1 -0 0
    outer loop
      vertex 10 0 3
      vertex 10 20 0
      vertex 10 20 3
    endloop
  endfacet
  facet normal 1 0 0
    outer loop
      vertex 10 20 0
      vertex 10 0 3
      vertex 10 0 0
    endloop
  endfacet
  facet normal 0 0 -1
    outer loop
      vertex 0 0 0
      vertex 10 20 0
      vertex 10 0 0
    endloop
  endfacet
  facet normal -0 0 -1
    outer loop
      vertex 10 20 0
      vertex 0 0 0
      vertex 0 20 0
    endloop
  endfacet
  facet normal 0 -1 0
    outer loop
      vertex 0 0 0
      vertex 10 0 3
      vertex 0 0 3
    endloop
  endfacet
  facet normal 0 -1 -0
    outer loop
      vertex 10 0 3
      vertex 0 0 0
      vertex 10 0 0
    endloop
  endfacet
  facet normal 0 1 -0
    outer loop
      vertex 10 20 0
      vertex 0 20 3
      vertex 10 20 3
    endloop
  endfacet
  facet normal 0 1 0
    outer loop
      vertex 0 20 3
      vertex 10 20 0
      vertex 0 20 0
    endloop
  endfacet
  facet normal -1 0 0
    outer loop
      vertex 20 0 0
      vertex 20 20 2
      vertex 20 20 0
    endloop
  endfacet
  facet normal -1 -0 0
    outer loop
      vertex 20 20 2
      vertex 20 0 0
      vertex 20 0 2
    endloop
  endfacet
  facet normal -0 0 1
    outer loop
      vertex 20 20 2
      vertex 30 0 2
      vertex 30 20 2
    endloop
  endfacet
  facet normal 0 0 1
    outer loop
      vertex 30 0 2
      vertex 20 20 2
      vertex 20 0 2
    endloop
  endfacet
  facet normal 1 -0 0
    outer loop
      vertex 30 0 2
      vertex 30 20 0
      vertex 30 20 2
    endloop
  endfacet
  facet normal 1 0 0
    outer loop
      vertex 30 20 0
      vertex 30 0 2
      vertex 30 0 0
    endloop
  endfacet
  facet normal 0 0 -1
    outer loop
      vertex 20 0 0
      vertex 30 20 0
      vertex 30 0 0
    endloop
  endfacet
  facet normal -0 0 -1
    outer loop
      vertex 30 20 0
      vertex 20 0 0
      vertex 20 20 0
    endloop
  endfacet
  facet normal 0 -1 0
    outer loop
      vertex 20 0 0
      vertex 30 0 2
      vertex 20 0 2
    endloop
  endfacet
  facet normal 0 -1 -0
    outer loop
      vertex 30 0 2
      vertex 20 0 0
      vertex 30 0 0
    endloop
  endfacet
  facet normal 0 1 -0
    outer loop
      vertex 30 20 0
      vertex 20 20 2
      vertex 30 20 2
    endloop
  endfacet
  facet normal 0 1 0
    outer loop
      vertex 20 20 2
      vertex 30 20 0
      vertex 20 20 0
    endloop
  endfacet
  facet normal -1 0 0
    outer loop
      vertex 40 0 0
      vertex 40 20 1
      vertex 40 20 0
    endloop
  endfacet
  facet normal -1 -0 0
    outer loop
      vertex 40 20 1
      vertex 40 0 0
      vertex 40 0 1
    endloop
  endfacet
  facet normal -0 0 1
    outer loop
      vertex 40 20 1
      vertex 50 0 1
      vertex 50 20 1
    endloop
  endfacet
  facet normal 0 0 1
    outer loop
      vertex 50 0 1
      vertex 40 20 1
      vertex 40 0 1
    endloop
  endfacet
  facet normal 1 -0 0
    outer loop
      vertex 50 0 1
      vertex 50 20 0
      vertex 50 20 1
    endloop
  endfacet
  facet normal 1 0 0
    outer loop
      vertex 50 20 0
      vertex 50 0 1
      vertex 50 0 0
    endloop
  endfacet
  facet normal 0 1 -0
    outer loop
      vertex 50 20 0
      vertex 40 20 1
      vertex 50 20 1
    endloop
  endfacet
  facet normal 0 1 0
    outer loop
      vertex 40 20 1
      vertex 50 20 0
      vertex 40 20 0
    endloop
  endfacet
  facet normal 0 0 -1
    outer loop
      vertex 40 0 0
      vertex 50 20 0
      vertex 50 0 0
    endloop
  endfacet
  facet normal -0 0 -1
    outer loop
      vertex 50 20 0
      vertex 40 0 0
      vertex 40 20 0
    endloop
  endfacet
  facet normal 0 -1 0
    outer loop
      vertex 40 0 0
      vertex 50 0 1
      vertex 40 0 1
    endloop
  endfacet
  facet normal 0 -1 -0
    outer loop
      vertex 50 0 1
      vertex 40 0 0
      vertex 50 0 0
    endloop
  endfacet
  facet normal -1 0 0
    outer loop
      vertex 60 0 0
      vertex 60 20 0.5
      vertex 60 20 0
    endloop
  endfacet
  facet normal -1 -0 0
    outer loop
      vertex 60 20 0.5
      vertex 60 0 0
      vertex 60 0 0.5
    endloop
  endfacet
  facet normal -0 0 1
    outer loop
      vertex 60 20 0.5
      vertex 70 0 0.5
      vertex 70 20 0.5
    endloop
  endfacet
  facet normal 0 0 1
    outer loop
      vertex 70 0 0.5
      vertex 60 20 0.5
      vertex 60 0 0.5
    endloop
  endfacet
  facet normal 1 -0 0
    outer loop
      vertex 70 0 0.5
      vertex 70 20 0
      vertex 70 20 0.5
    endloop
  endfacet
  facet normal 1 0 0
    outer loop
      vertex 70 20 0
      vertex 70 0 0.5
      vertex 70 0 0
    endloop
  endfacet
  facet normal 0 0 -1
    outer loop
      vertex 60 0 0
      vertex 70 20 0
      vertex 70 0 0
    endloop
  endfacet
  facet normal -0 0 -1
    outer loop
      vertex 70 20 0
      vertex 60 0 0
      vertex 60 20 0
    endloop
  endfacet
  facet normal 0 -1 0
    outer loop
      vertex 60 0 0
      vertex 70 0 0.5
      vertex 60 0 0.5
    endloop
  endfacet
  facet normal 0 -1 -0
    outer loop
      vertex 70 0 0.5
      vertex 60 0 0
      vertex 70 0 0
    endloop
  endfacet
  facet normal 0 1 -0
    outer loop
      vertex 70 20 0
      vertex 60 20 0.5
      vertex 70 20 0.5
    endloop
  endfacet
  facet normal 0 1 0
    outer loop
      vertex 60 20 0.5
      vertex 70 20 0
      vertex 60 20 0
    endloop
  endfacet
endsolid OpenSCAD_Model
