solid OpenSCAD_Model
  facet normal -0.463213 0.580851 -0.669363
    outer loop
      vertex 1.77176 20 0.412592
      vertex 1.43698 20 0.644262
      vertex 1.58884 20.8014 1.23463
    endloop
  endfacet
  facet normal -0.742936 0 0.669362
    outer loop
      vertex 0.335227 19.8017 4.76537
      vertex 1.31043 1.66792 5.84776
      vertex 1.31043 19.3321 5.84776
    endloop
  endfacet
  facet normal -0.742936 0 0.669362
    outer loop
      vertex 1.31043 1.66792 5.84776
      vertex 0.335227 19.8017 4.76537
      vertex 0.335227 1.19829 4.76537
    endloop
  endfacet
  facet normal 1 -0 0
    outer loop
      vertex 28.8478 2 4.76537
      vertex 28.8478 19 4
      vertex 28.8478 19 4.76537
    endloop
  endfacet
  facet normal 1 0 0
    outer loop
      vertex 28.8478 19 4
      vertex 28.8478 2 4.76537
      vertex 28.8478 2 4
    endloop
  endfacet
  facet normal 0 0 1
    outer loop
      vertex 1.31043 19.3321 5.84776
      vertex 4.5 19.7462 5.84776
      vertex 1.82969 19.7462 5.84776
    endloop
  endfacet
  facet normal 0 0 1
    outer loop
      vertex 4.5 19.7462 5.84776
      vertex 1.31043 19.3321 5.84776
      vertex 4.5 1.25382 5.84776
    endloop
  endfacet
  facet normal -0 0 1
    outer loop
      vertex 1.31043 1.66792 5.84776
      vertex 4.5 1.25382 5.84776
      vertex 1.31043 19.3321 5.84776
    endloop
  endfacet
  facet normal 0 0 1
    outer loop
      vertex 4.5 1.25382 5.84776
      vertex 1.31043 1.66792 5.84776
      vertex 1.82969 1.25382 5.84776
    endloop
  endfacet
  facet normal 0 0 1
    outer loop
      vertex 26.8297 19.7462 5.84776
      vertex 27.7654 19 5.84776
      vertex 27.4772 19.5984 5.84776
    endloop
  endfacet
  facet normal 0 0 1
    outer loop
      vertex 27.7654 19 5.84776
      vertex 26.75 11.5 5.84776
      vertex 27.7654 2 5.84776
    endloop
  endfacet
  facet normal -0 0 1
    outer loop
      vertex 24.5 19.7462 5.84776
      vertex 27.7654 19 5.84776
      vertex 26.8297 19.7462 5.84776
    endloop
  endfacet
  facet normal -0 0 1
    outer loop
      vertex 26.75 9.5 5.84776
      vertex 27.7654 2 5.84776
      vertex 26.75 11.5 5.84776
    endloop
  endfacet
  facet normal -0 0 1
    outer loop
      vertex 24.5 9.5 5.84776
      vertex 27.7654 2 5.84776
      vertex 26.75 9.5 5.84776
    endloop
  endfacet
  facet normal 0 0 1
    outer loop
      vertex 24.5 11.5 5.84776
      vertex 27.7654 19 5.84776
      vertex 24.5 19.7462 5.84776
    endloop
  endfacet
  facet normal 0 0 1
    outer loop
      vertex 27.7654 19 5.84776
      vertex 24.5 11.5 5.84776
      vertex 26.75 11.5 5.84776
    endloop
  endfacet
  facet normal 0 0 1
    outer loop
      vertex 27.7654 2 5.84776
      vertex 26.8297 1.25382 5.84776
      vertex 27.4772 1.40161 5.84776
    endloop
  endfacet
  facet normal 0 0 1
    outer loop
      vertex 24.5 1.25382 5.84776
      vertex 27.7654 2 5.84776
      vertex 24.5 9.5 5.84776
    endloop
  endfacet
  facet normal 0 0 1
    outer loop
      vertex 27.7654 2 5.84776
      vertex 24.5 1.25382 5.84776
      vertex 26.8297 1.25382 5.84776
    endloop
  endfacet
  facet normal 0.222522 0.974928 -0
    outer loop
      vertex 28.1521 20.4446 3.3877
      vertex 26.5888 20.8014 4.76537
      vertex 28.1521 20.4446 4.76537
    endloop
  endfacet
  facet normal 0.222522 0.974928 0
    outer loop
      vertex 26.5888 20.8014 4.76537
      vertex 28.1521 20.4446 3.3877
      vertex 26.5888 20.8014 3.3877
    endloop
  endfacet
  facet normal 0 0.716027 0.698072
    outer loop
      vertex 26.8297 19.7462 5.84776
      vertex 24.5 20 5.58741
      vertex 24.5 19.7462 5.84776
    endloop
  endfacet
  facet normal 0 0.716026 0.698074
    outer loop
      vertex 24.5 20 5.58741
      vertex 26.5888 20.8014 4.76537
      vertex 4.5 20 5.58741
    endloop
  endfacet
  facet normal -2.70209e-07 0.716026 0.698074
    outer loop
      vertex 26.5888 20.8014 4.76537
      vertex 24.5 20 5.58741
      vertex 26.8297 19.7462 5.84776
    endloop
  endfacet
  facet normal 0 0.716027 0.698072
    outer loop
      vertex 4.5 20 5.58741
      vertex 1.82969 19.7462 5.84776
      vertex 4.5 19.7462 5.84776
    endloop
  endfacet
  facet normal 2.24998e-07 0.716026 0.698074
    outer loop
      vertex 4.5 20 5.58741
      vertex 1.58884 20.8014 4.76537
      vertex 1.82969 19.7462 5.84776
    endloop
  endfacet
  facet normal -0 0.716026 0.698074
    outer loop
      vertex 1.58884 20.8014 4.76537
      vertex 4.5 20 5.58741
      vertex 26.5888 20.8014 4.76537
    endloop
  endfacet
  facet normal -0.62349 0.781831 -1.09902e-08
    outer loop
      vertex 1.58884 20.8014 4.76537
      vertex 0.583872 20 4
      vertex 0.335227 19.8017 4.76537
    endloop
  endfacet
  facet normal -0.62349 0.781831 0
    outer loop
      vertex 1.58884 20.8014 1.23463
      vertex 0.583872 20 4
      vertex 1.58884 20.8014 4.76537
    endloop
  endfacet
  facet normal -0.62349 0.781831 0
    outer loop
      vertex 0.583872 20 4
      vertex 1.58884 20.8014 1.23463
      vertex 0.583872 20 1.23463
    endloop
  endfacet
  facet normal -0.62349 0.781831 0
    outer loop
      vertex 0.335227 19.8017 4.76537
      vertex 0.583872 20 4
      vertex 0.335227 19.8017 4
    endloop
  endfacet
  facet normal 0.900968 0.433886 0
    outer loop
      vertex 28.1521 20.4446 4.76537
      vertex 28.3662 20 4
      vertex 28.1521 20.4446 3.3877
    endloop
  endfacet
  facet normal 0.900968 0.433885 1.05357e-06
    outer loop
      vertex 28.8478 19 4.76537
      vertex 28.3662 20 4
      vertex 28.1521 20.4446 4.76537
    endloop
  endfacet
  facet normal 0.900969 0.433884 0
    outer loop
      vertex 28.3662 20 4
      vertex 28.8478 19 4.76537
      vertex 28.8478 19 4
    endloop
  endfacet
  facet normal 0.900968 0.433886 0
    outer loop
      vertex 28.1521 20.4446 3.3877
      vertex 28.3662 20 4
      vertex 28.3662 20 3.3877
    endloop
  endfacet
  facet normal -0.463213 -0.580851 0.669363
    outer loop
      vertex 1.82969 1.25382 5.84776
      vertex 1.31043 1.66792 5.84776
      vertex 1.58884 0.198568 4.76537
    endloop
  endfacet
  facet normal 0.165318 -0.724309 0.669363
    outer loop
      vertex 26.8297 1.25382 5.84776
      vertex 26.5888 0.198568 4.76537
      vertex 27.4772 1.40161 5.84776
    endloop
  endfacet
  facet normal 0 -1 0
    outer loop
      vertex 14.1545 0.198568 2.97553
      vertex 26.5888 0.198568 4.76537
      vertex 1.58884 0.198568 4.76537
    endloop
  endfacet
  facet normal 0 -1 0
    outer loop
      vertex 20.6652 0.198568 2.49666
      vertex 26.5888 0.198568 4.76537
      vertex 14.1545 0.198568 2.97553
    endloop
  endfacet
  facet normal 0 -1 0
    outer loop
      vertex 7.95506 0.198568 2.41644
      vertex 14.1545 0.198568 2.97553
      vertex 1.58884 0.198568 4.76537
    endloop
  endfacet
  facet normal 0 -1 0
    outer loop
      vertex 7.95506 0.198568 2.41644
      vertex 1.58884 0.198568 4.76537
      vertex 6.04493 0.198568 2.41644
    endloop
  endfacet
  facet normal 0 -1 0
    outer loop
      vertex 1.58884 0.198568 4.76537
      vertex 4.25 0.198568 1.76314
      vertex 6.04493 0.198568 2.41644
    endloop
  endfacet
  facet normal 0 -1 0
    outer loop
      vertex 3.62015 0.198568 1.23463
      vertex 1.58884 0.198568 4.76537
      vertex 1.58884 0.198568 1.23463
    endloop
  endfacet
  facet normal 0 -1 0
    outer loop
      vertex 1.58884 0.198568 4.76537
      vertex 3.62015 0.198568 1.23463
      vertex 4.25 0.198568 1.76314
    endloop
  endfacet
  facet normal 0 -1 -0
    outer loop
      vertex 26.5888 0.198568 4.76537
      vertex 24.8572 0.198568 3.3877
      vertex 26.5888 0.198568 3.3877
    endloop
  endfacet
  facet normal 0 -1 0
    outer loop
      vertex 17.8306 0.198568 1.23463
      vertex 14.1545 0.198568 2.97553
      vertex 14.5 0.198568 2.5
    endloop
  endfacet
  facet normal 0 -1 0
    outer loop
      vertex 26.5888 0.198568 4.76537
      vertex 20.6652 0.198568 2.49666
      vertex 24.8572 0.198568 3.3877
    endloop
  endfacet
  facet normal 0 -1 0
    outer loop
      vertex 17.8306 0.198568 1.23463
      vertex 14.5 0.198568 2.5
      vertex 14.1545 0.198568 2.02447
    endloop
  endfacet
  facet normal 0 -1 -0
    outer loop
      vertex 13.5955 0.198568 2.20611
      vertex 10.3798 0.198568 1.23463
      vertex 14.1545 0.198568 2.02447
    endloop
  endfacet
  facet normal 0 -1 0
    outer loop
      vertex 17.8306 0.198568 1.23463
      vertex 14.1545 0.198568 2.02447
      vertex 10.3798 0.198568 1.23463
    endloop
  endfacet
  facet normal 0 -1 0
    outer loop
      vertex 14.1545 0.198568 2.97553
      vertex 17.8306 0.198568 1.23463
      vertex 20.6652 0.198568 2.49666
    endloop
  endfacet
  facet normal 0 -1 0
    outer loop
      vertex 14.1545 0.198568 2.97553
      vertex 7.95506 0.198568 2.41644
      vertex 13.5955 0.198568 2.79389
    endloop
  endfacet
  facet normal 0 -1 0
    outer loop
      vertex 9.75 0.198568 1.76314
      vertex 13.5955 0.198568 2.79389
      vertex 7.95506 0.198568 2.41644
    endloop
  endfacet
  facet normal 0 -1 0
    outer loop
      vertex 10.3798 0.198568 1.23463
      vertex 13.5955 0.198568 2.79389
      vertex 9.75 0.198568 1.76314
    endloop
  endfacet
  facet normal 0 -1 -0
    outer loop
      vertex 13.5955 0.198568 2.79389
      vertex 10.3798 0.198568 1.23463
      vertex 13.5955 0.198568 2.20611
    endloop
  endfacet
  facet normal -1 0 0
    outer loop
      vertex 0.335227 1.19829 4
      vertex 0.335227 19.8017 4.76537
      vertex 0.335227 19.8017 4
    endloop
  endfacet
  facet normal -1 -0 0
    outer loop
      vertex 0.335227 19.8017 4.76537
      vertex 0.335227 1.19829 4
      vertex 0.335227 1.19829 4.76537
    endloop
  endfacet
  facet normal 0 1 0
    outer loop
      vertex 10.3798 20.8014 1.23463
      vertex 13.5955 20.8014 2.79389
      vertex 13.5955 20.8014 2.20611
    endloop
  endfacet
  facet normal 0 1 0
    outer loop
      vertex 10.3798 20.8014 1.23463
      vertex 13.5955 20.8014 2.20611
      vertex 14.1545 20.8014 2.02447
    endloop
  endfacet
  facet normal 0 1 0
    outer loop
      vertex 13.5955 20.8014 2.79389
      vertex 9.75 20.8014 1.76314
      vertex 7.95506 20.8014 2.41644
    endloop
  endfacet
  facet normal 0 1 0
    outer loop
      vertex 26.5888 20.8014 4.76537
      vertex 20.6652 20.8014 2.49666
      vertex 14.1545 20.8014 2.97553
    endloop
  endfacet
  facet normal 0 1 -0
    outer loop
      vertex 17.8306 20.8014 1.23463
      vertex 14.1545 20.8014 2.97553
      vertex 20.6652 20.8014 2.49666
    endloop
  endfacet
  facet normal 0 1 0
    outer loop
      vertex 14.1545 20.8014 2.97553
      vertex 17.8306 20.8014 1.23463
      vertex 14.5 20.8014 2.5
    endloop
  endfacet
  facet normal 0 1 0
    outer loop
      vertex 14.5 20.8014 2.5
      vertex 17.8306 20.8014 1.23463
      vertex 14.1545 20.8014 2.02447
    endloop
  endfacet
  facet normal 0 1 0
    outer loop
      vertex 10.3798 20.8014 1.23463
      vertex 14.1545 20.8014 2.02447
      vertex 17.8306 20.8014 1.23463
    endloop
  endfacet
  facet normal 0 1 0
    outer loop
      vertex 13.5955 20.8014 2.79389
      vertex 10.3798 20.8014 1.23463
      vertex 9.75 20.8014 1.76314
    endloop
  endfacet
  facet normal 0 1 0
    outer loop
      vertex 24.8572 20.8014 3.3877
      vertex 26.5888 20.8014 4.76537
      vertex 26.5888 20.8014 3.3877
    endloop
  endfacet
  facet normal 0 1 0
    outer loop
      vertex 20.6652 20.8014 2.49666
      vertex 26.5888 20.8014 4.76537
      vertex 24.8572 20.8014 3.3877
    endloop
  endfacet
  facet normal 0 1 0
    outer loop
      vertex 26.5888 20.8014 4.76537
      vertex 14.1545 20.8014 2.97553
      vertex 1.58884 20.8014 4.76537
    endloop
  endfacet
  facet normal 0 1 0
    outer loop
      vertex 7.95506 20.8014 2.41644
      vertex 14.1545 20.8014 2.97553
      vertex 13.5955 20.8014 2.79389
    endloop
  endfacet
  facet normal 0 1 0
    outer loop
      vertex 14.1545 20.8014 2.97553
      vertex 7.95506 20.8014 2.41644
      vertex 1.58884 20.8014 4.76537
    endloop
  endfacet
  facet normal 0 1 -0
    outer loop
      vertex 6.04493 20.8014 2.41644
      vertex 1.58884 20.8014 4.76537
      vertex 7.95506 20.8014 2.41644
    endloop
  endfacet
  facet normal 0 1 -0
    outer loop
      vertex 4.25 20.8014 1.76314
      vertex 1.58884 20.8014 4.76537
      vertex 6.04493 20.8014 2.41644
    endloop
  endfacet
  facet normal 0 1 -0
    outer loop
      vertex 3.62015 20.8014 1.23463
      vertex 1.58884 20.8014 4.76537
      vertex 4.25 20.8014 1.76314
    endloop
  endfacet
  facet normal 0 1 0
    outer loop
      vertex 1.58884 20.8014 4.76537
      vertex 3.62015 20.8014 1.23463
      vertex 1.58884 20.8014 1.23463
    endloop
  endfacet
  facet normal 0 0.716025 -0.698074
    outer loop
      vertex 2.78676 20.1197 0.535332
      vertex 1.58884 20.8014 1.23463
      vertex 3.62015 20.8014 1.23463
    endloop
  endfacet
  facet normal 0 0.716028 -0.698071
    outer loop
      vertex 1.77176 20 0.412592
      vertex 2.78676 20.1197 0.535332
      vertex 2.71589 20 0.412592
    endloop
  endfacet
  facet normal 6.26411e-07 0.716026 -0.698074
    outer loop
      vertex 2.78676 20.1197 0.535332
      vertex 1.77176 20 0.412592
      vertex 1.58884 20.8014 1.23463
    endloop
  endfacet
  facet normal 0 0.716026 -0.698074
    outer loop
      vertex 16.75 20.3324 0.75352
      vertex 10.3798 20.8014 1.23463
      vertex 17.8306 20.8014 1.23463
    endloop
  endfacet
  facet normal -7.74705e-08 0.716025 -0.698075
    outer loop
      vertex 16.75 20.3324 0.75352
      vertex 11.2132 20.1197 0.535332
      vertex 10.3798 20.8014 1.23463
    endloop
  endfacet
  facet normal -1.24679e-07 0.716026 -0.698074
    outer loop
      vertex 16.2808 20 0.412592
      vertex 11.2132 20.1197 0.535332
      vertex 16.75 20.3324 0.75352
    endloop
  endfacet
  facet normal 0 0.716028 -0.698071
    outer loop
      vertex 11.2132 20.1197 0.535332
      vertex 16.2808 20 0.412592
      vertex 11.2841 20 0.412592
    endloop
  endfacet
  facet normal -0.62349 -0.781831 0
    outer loop
      vertex 0.583872 1 4
      vertex 0.335227 1.19829 4.76537
      vertex 0.335227 1.19829 4
    endloop
  endfacet
  facet normal -0.62349 -0.781831 -1.09902e-08
    outer loop
      vertex 0.335227 1.19829 4.76537
      vertex 0.583872 1 4
      vertex 1.58884 0.198568 4.76537
    endloop
  endfacet
  facet normal -0.62349 -0.781831 0
    outer loop
      vertex 1.58884 0.198568 1.23463
      vertex 0.583872 1 4
      vertex 0.583872 1 1.23463
    endloop
  endfacet
  facet normal -0.62349 -0.781831 0
    outer loop
      vertex 0.583872 1 4
      vertex 1.58884 0.198568 1.23463
      vertex 1.58884 0.198568 4.76537
    endloop
  endfacet
  facet normal -0.463213 -0.580851 0.669362
    outer loop
      vertex 1.31043 1.66792 5.84776
      vertex 0.335227 1.19829 4.76537
      vertex 1.58884 0.198568 4.76537
    endloop
  endfacet
  facet normal -0.463213 -0.580851 -0.669362
    outer loop
      vertex 1.58884 0.198568 1.23463
      vertex 0.583872 1 1.23463
      vertex 1.43698 1 0.644262
    endloop
  endfacet
  facet normal -0.463213 -0.580851 -0.669363
    outer loop
      vertex 1.58884 0.198568 1.23463
      vertex 1.43698 1 0.644262
      vertex 1.77176 1 0.412592
    endloop
  endfacet
  facet normal 0.165319 -0.724309 0.669362
    outer loop
      vertex 27.4772 1.40161 5.84776
      vertex 26.5888 0.198568 4.76537
      vertex 28.1521 0.555365 4.76537
    endloop
  endfacet
  facet normal -0.463213 0.580851 -0.669362
    outer loop
      vertex 1.43698 20 0.644262
      vertex 0.583872 20 1.23463
      vertex 1.58884 20.8014 1.23463
    endloop
  endfacet
  facet normal 0.669362 0.322348 0.669363
    outer loop
      vertex 28.1521 20.4446 4.76537
      vertex 27.7654 19 5.84776
      vertex 28.8478 19 4.76537
    endloop
  endfacet
  facet normal 0.669362 -0.322348 0.669363
    outer loop
      vertex 28.8478 2 4.76537
      vertex 27.7654 2 5.84776
      vertex 28.1521 0.555365 4.76537
    endloop
  endfacet
  facet normal 0.707106 0 0.707107
    outer loop
      vertex 27.7654 19 5.84776
      vertex 28.8478 2 4.76537
      vertex 28.8478 19 4.76537
    endloop
  endfacet
  facet normal 0.707106 0 0.707107
    outer loop
      vertex 28.8478 2 4.76537
      vertex 27.7654 19 5.84776
      vertex 27.7654 2 5.84776
    endloop
  endfacet
  facet normal 0.669363 0.322347 0.669362
    outer loop
      vertex 28.1521 20.4446 4.76537
      vertex 27.4772 19.5984 5.84776
      vertex 27.7654 19 5.84776
    endloop
  endfacet
  facet normal -0.463213 0.580851 0.669362
    outer loop
      vertex 1.58884 20.8014 4.76537
      vertex 0.335227 19.8017 4.76537
      vertex 1.31043 19.3321 5.84776
    endloop
  endfacet
  facet normal -0.463213 0.580851 0.669362
    outer loop
      vertex 1.58884 20.8014 4.76537
      vertex 1.31043 19.3321 5.84776
      vertex 1.82969 19.7462 5.84776
    endloop
  endfacet
  facet normal 0 -0.716026 -0.698074
    outer loop
      vertex 1.58884 0.198568 1.23463
      vertex 2.78676 0.880338 0.535332
      vertex 3.62015 0.198568 1.23463
    endloop
  endfacet
  facet normal 1.22214e-08 -0.716026 -0.698074
    outer loop
      vertex 1.77176 1 0.412592
      vertex 2.78676 0.880338 0.535332
      vertex 1.58884 0.198568 1.23463
    endloop
  endfacet
  facet normal 0 -0.716026 -0.698074
    outer loop
      vertex 2.78676 0.880338 0.535332
      vertex 1.77176 1 0.412592
      vertex 2.71589 1 0.412592
    endloop
  endfacet
  facet normal 0 -0.716026 -0.698074
    outer loop
      vertex 10.3798 0.198568 1.23463
      vertex 16.75 0.66762 0.75352
      vertex 17.8306 0.198568 1.23463
    endloop
  endfacet
  facet normal -1.49118e-09 -0.716026 -0.698074
    outer loop
      vertex 11.2132 0.880338 0.535332
      vertex 16.75 0.66762 0.75352
      vertex 10.3798 0.198568 1.23463
    endloop
  endfacet
  facet normal -0 -0.716026 -0.698074
    outer loop
      vertex 16.2808 1 0.412592
      vertex 11.2132 0.880338 0.535332
      vertex 11.2841 1 0.412592
    endloop
  endfacet
  facet normal -2.42442e-09 -0.716026 -0.698074
    outer loop
      vertex 11.2132 0.880338 0.535332
      vertex 16.2808 1 0.412592
      vertex 16.75 0.66762 0.75352
    endloop
  endfacet
  facet normal 0 -0.716026 0.698074
    outer loop
      vertex 1.82969 1.25382 5.84776
      vertex 4.5 1 5.58741
      vertex 4.5 1.25382 5.84776
    endloop
  endfacet
  facet normal 0 -0.716026 0.698074
    outer loop
      vertex 26.5888 0.198568 4.76537
      vertex 4.5 1 5.58741
      vertex 1.58884 0.198568 4.76537
    endloop
  endfacet
  facet normal 3.49099e-08 -0.716026 0.698074
    outer loop
      vertex 1.58884 0.198568 4.76537
      vertex 4.5 1 5.58741
      vertex 1.82969 1.25382 5.84776
    endloop
  endfacet
  facet normal 0 -0.716026 0.698074
    outer loop
      vertex 24.5 1 5.58741
      vertex 26.8297 1.25382 5.84776
      vertex 24.5 1.25382 5.84776
    endloop
  endfacet
  facet normal -4.19247e-08 -0.716026 0.698074
    outer loop
      vertex 24.5 1 5.58741
      vertex 26.5888 0.198568 4.76537
      vertex 26.8297 1.25382 5.84776
    endloop
  endfacet
  facet normal 0 -0.716026 0.698074
    outer loop
      vertex 4.5 1 5.58741
      vertex 26.5888 0.198568 4.76537
      vertex 24.5 1 5.58741
    endloop
  endfacet
  facet normal 0.900969 -0.433884 0
    outer loop
      vertex 28.8478 2 4.76537
      vertex 28.3662 1 4
      vertex 28.8478 2 4
    endloop
  endfacet
  facet normal 0.900968 -0.433885 1.05357e-06
    outer loop
      vertex 28.1521 0.555365 4.76537
      vertex 28.3662 1 4
      vertex 28.8478 2 4.76537
    endloop
  endfacet
  facet normal 0.900968 -0.433886 0
    outer loop
      vertex 28.1521 0.555365 3.3877
      vertex 28.3662 1 4
      vertex 28.1521 0.555365 4.76537
    endloop
  endfacet
  facet normal 0.900968 -0.433886 0
    outer loop
      vertex 28.3662 1 4
      vertex 28.1521 0.555365 3.3877
      vertex 28.3662 1 3.3877
    endloop
  endfacet
  facet normal 0.669363 -0.322348 0.669362
    outer loop
      vertex 27.7654 2 5.84776
      vertex 27.4772 1.40161 5.84776
      vertex 28.1521 0.555365 4.76537
    endloop
  endfacet
  facet normal 0.165319 0.724309 0.669362
    outer loop
      vertex 28.1521 20.4446 4.76537
      vertex 26.5888 20.8014 4.76537
      vertex 27.4772 19.5984 5.84776
    endloop
  endfacet
  facet normal 0.165318 0.724309 0.669363
    outer loop
      vertex 27.4772 19.5984 5.84776
      vertex 26.5888 20.8014 4.76537
      vertex 26.8297 19.7462 5.84776
    endloop
  endfacet
  facet normal 0.222522 -0.974928 0
    outer loop
      vertex 26.5888 0.198568 3.3877
      vertex 28.1521 0.555365 4.76537
      vertex 26.5888 0.198568 4.76537
    endloop
  endfacet
  facet normal 0.222522 -0.974928 0
    outer loop
      vertex 28.1521 0.555365 4.76537
      vertex 26.5888 0.198568 3.3877
      vertex 28.1521 0.555365 3.3877
    endloop
  endfacet
  facet normal 1 0 0
    outer loop
      vertex 4.5 19.7462 5.84776
      vertex 4.5 20 4
      vertex 4.5 20 5.58741
    endloop
  endfacet
  facet normal 1 -0 0
    outer loop
      vertex 4.5 1.25382 5.84776
      vertex 4.5 20 4
      vertex 4.5 19.7462 5.84776
    endloop
  endfacet
  facet normal 1 0 0
    outer loop
      vertex 4.5 1 4
      vertex 4.5 1.25382 5.84776
      vertex 4.5 1 5.58741
    endloop
  endfacet
  facet normal 1 0 0
    outer loop
      vertex 4.5 1.25382 5.84776
      vertex 4.5 1 4
      vertex 4.5 20 4
    endloop
  endfacet
  facet normal -1 0 0
    outer loop
      vertex 24.5 20 4
      vertex 24.5 19.7462 5.84776
      vertex 24.5 20 5.58741
    endloop
  endfacet
  facet normal -1 0 0
    outer loop
      vertex 24.5 20 4
      vertex 24.5 11.5 5
      vertex 24.5 19.7462 5.84776
    endloop
  endfacet
  facet normal -1 0 0
    outer loop
      vertex 24.5 20 4
      vertex 24.5 9.5 5
      vertex 24.5 11.5 5
    endloop
  endfacet
  facet normal -1 0 0
    outer loop
      vertex 24.5 9.5 5
      vertex 24.5 1.25382 5.84776
      vertex 24.5 9.5 5.84776
    endloop
  endfacet
  facet normal -1 0 0
    outer loop
      vertex 24.5 1 4
      vertex 24.5 9.5 5
      vertex 24.5 20 4
    endloop
  endfacet
  facet normal -1 0 0
    outer loop
      vertex 24.5 1 4
      vertex 24.5 1.25382 5.84776
      vertex 24.5 9.5 5
    endloop
  endfacet
  facet normal -1 0 0
    outer loop
      vertex 24.5 1.25382 5.84776
      vertex 24.5 1 4
      vertex 24.5 1 5.58741
    endloop
  endfacet
  facet normal -1 -0 0
    outer loop
      vertex 24.5 19.7462 5.84776
      vertex 24.5 11.5 5
      vertex 24.5 11.5 5.84776
    endloop
  endfacet
  facet normal 0 -1 0
    outer loop
      vertex 4.25 20 1.76314
      vertex 4.5 20 4
      vertex 0.583872 20 4
    endloop
  endfacet
  facet normal 0 -1 0
    outer loop
      vertex 4.5 20 4
      vertex 14.1545 20 2.97553
      vertex 24.5 20 4
    endloop
  endfacet
  facet normal 0 -1 0
    outer loop
      vertex 20.6652 20 2.49666
      vertex 24.5 20 4
      vertex 14.1545 20 2.97553
    endloop
  endfacet
  facet normal 0 -1 0
    outer loop
      vertex 24.5 20 4
      vertex 24.8572 20 3.3877
      vertex 28.3662 20 4
    endloop
  endfacet
  facet normal -0 -1 0
    outer loop
      vertex 13.5955 20 2.79389
      vertex 4.5 20 4
      vertex 7.95506 20 2.41644
    endloop
  endfacet
  facet normal 0 -1 0
    outer loop
      vertex 4.5 20 4
      vertex 6.04493 20 2.41644
      vertex 7.95506 20 2.41644
    endloop
  endfacet
  facet normal 0 -1 -0
    outer loop
      vertex 4.5 20 4
      vertex 4.25 20 1.76314
      vertex 6.04493 20 2.41644
    endloop
  endfacet
  facet normal 0 -1 0
    outer loop
      vertex 1.43698 20 0.644262
      vertex 0.583872 20 4
      vertex 0.583872 20 1.23463
    endloop
  endfacet
  facet normal 0 -1 0
    outer loop
      vertex 0.583872 20 4
      vertex 1.43698 20 0.644262
      vertex 4.25 20 1.76314
    endloop
  endfacet
  facet normal 0 -1 0
    outer loop
      vertex 1.43698 20 0.644262
      vertex 2.78676 20 0.535332
      vertex 4.25 20 1.76314
    endloop
  endfacet
  facet normal 0 -1 0
    outer loop
      vertex 1.77176 20 0.412592
      vertex 2.78676 20 0.535332
      vertex 1.43698 20 0.644262
    endloop
  endfacet
  facet normal 0 -1 0
    outer loop
      vertex 2.78676 20 0.535332
      vertex 1.77176 20 0.412592
      vertex 2.71589 20 0.412592
    endloop
  endfacet
  facet normal 0 -1 0
    outer loop
      vertex 4.5 20 4
      vertex 24.5 20 5.58741
      vertex 4.5 20 5.58741
    endloop
  endfacet
  facet normal 0 -1 -0
    outer loop
      vertex 24.5 20 5.58741
      vertex 4.5 20 4
      vertex 24.5 20 4
    endloop
  endfacet
  facet normal 0 -1 -0
    outer loop
      vertex 28.3662 20 4
      vertex 24.8572 20 3.3877
      vertex 28.3662 20 3.3877
    endloop
  endfacet
  facet normal 0 -1 0
    outer loop
      vertex 20.6652 20 2.49666
      vertex 14.1545 20 2.97553
      vertex 14.5 20 2.5
    endloop
  endfacet
  facet normal 0 -1 -0
    outer loop
      vertex 24.5 20 4
      vertex 20.6652 20 2.49666
      vertex 24.8572 20 3.3877
    endloop
  endfacet
  facet normal 0 -1 0
    outer loop
      vertex 16.2808 20 0.412592
      vertex 14.5 20 2.5
      vertex 14.1545 20 2.02447
    endloop
  endfacet
  facet normal 0 -1 0
    outer loop
      vertex 14.5 20 2.5
      vertex 16.75 20 0.75352
      vertex 20.6652 20 2.49666
    endloop
  endfacet
  facet normal 0 -1 0
    outer loop
      vertex 11.2841 20 0.412592
      vertex 13.5955 20 2.20611
      vertex 11.2132 20 0.535332
    endloop
  endfacet
  facet normal 0 -1 -0
    outer loop
      vertex 13.5955 20 2.20611
      vertex 11.2841 20 0.412592
      vertex 14.1545 20 2.02447
    endloop
  endfacet
  facet normal 0 -1 -0
    outer loop
      vertex 14.1545 20 2.02447
      vertex 11.2841 20 0.412592
      vertex 16.2808 20 0.412592
    endloop
  endfacet
  facet normal 0 -1 0
    outer loop
      vertex 14.5 20 2.5
      vertex 16.2808 20 0.412592
      vertex 16.75 20 0.75352
    endloop
  endfacet
  facet normal 0 -1 0
    outer loop
      vertex 4.5 20 4
      vertex 13.5955 20 2.79389
      vertex 14.1545 20 2.97553
    endloop
  endfacet
  facet normal 0 -1 0
    outer loop
      vertex 9.75 20 1.76314
      vertex 13.5955 20 2.79389
      vertex 7.95506 20 2.41644
    endloop
  endfacet
  facet normal 0 -1 -0
    outer loop
      vertex 13.5955 20 2.79389
      vertex 9.75 20 1.76314
      vertex 13.5955 20 2.20611
    endloop
  endfacet
  facet normal 0 -1 0
    outer loop
      vertex 11.2132 20 0.535332
      vertex 13.5955 20 2.20611
      vertex 9.75 20 1.76314
    endloop
  endfacet
  facet normal 0 1 -0
    outer loop
      vertex 13.5955 1 2.20611
      vertex 7.95506 1 2.41644
      vertex 14.5 1 2.5
    endloop
  endfacet
  facet normal 0 1 0
    outer loop
      vertex 11.2841 1 0.412592
      vertex 13.5955 1 2.20611
      vertex 14.1545 1 2.02447
    endloop
  endfacet
  facet normal 0 1 0
    outer loop
      vertex 13.5955 1 2.20611
      vertex 9.75 1 1.76314
      vertex 7.95506 1 2.41644
    endloop
  endfacet
  facet normal 0 1 0
    outer loop
      vertex 24.5 1 4
      vertex 20.6652 1 2.49666
      vertex 14.5 1 2.5
    endloop
  endfacet
  facet normal 0 1 -0
    outer loop
      vertex 16.75 1 0.75352
      vertex 14.5 1 2.5
      vertex 20.6652 1 2.49666
    endloop
  endfacet
  facet normal 0 1 -0
    outer loop
      vertex 16.2808 1 0.412592
      vertex 14.5 1 2.5
      vertex 16.75 1 0.75352
    endloop
  endfacet
  facet normal 0 1 0
    outer loop
      vertex 14.5 1 2.5
      vertex 16.2808 1 0.412592
      vertex 14.1545 1 2.02447
    endloop
  endfacet
  facet normal 0 1 0
    outer loop
      vertex 13.5955 1 2.20611
      vertex 11.2132 1 0.535332
      vertex 9.75 1 1.76314
    endloop
  endfacet
  facet normal 0 1 0
    outer loop
      vertex 11.2841 1 0.412592
      vertex 14.1545 1 2.02447
      vertex 16.2808 1 0.412592
    endloop
  endfacet
  facet normal 0 1 0
    outer loop
      vertex 13.5955 1 2.20611
      vertex 11.2841 1 0.412592
      vertex 11.2132 1 0.535332
    endloop
  endfacet
  facet normal 0 1 -0
    outer loop
      vertex 24.8572 1 3.3877
      vertex 24.5 1 4
      vertex 28.3662 1 4
    endloop
  endfacet
  facet normal 0 1 0
    outer loop
      vertex 20.6652 1 2.49666
      vertex 24.5 1 4
      vertex 24.8572 1 3.3877
    endloop
  endfacet
  facet normal 0 1 0
    outer loop
      vertex 24.8572 1 3.3877
      vertex 28.3662 1 4
      vertex 28.3662 1 3.3877
    endloop
  endfacet
  facet normal 0 1 0
    outer loop
      vertex 24.5 1 4
      vertex 14.5 1 2.5
      vertex 4.5 1 4
    endloop
  endfacet
  facet normal 0 1 -0
    outer loop
      vertex 7.95506 1 2.41644
      vertex 4.5 1 4
      vertex 14.5 1 2.5
    endloop
  endfacet
  facet normal 0 1 -0
    outer loop
      vertex 6.04493 1 2.41644
      vertex 4.5 1 4
      vertex 7.95506 1 2.41644
    endloop
  endfacet
  facet normal 0 1 0
    outer loop
      vertex 4.25 1 1.76314
      vertex 4.5 1 4
      vertex 6.04493 1 2.41644
    endloop
  endfacet
  facet normal 0 1 0
    outer loop
      vertex 4.5 1 4
      vertex 4.25 1 1.76314
      vertex 0.583872 1 4
    endloop
  endfacet
  facet normal 0 1 -0
    outer loop
      vertex 1.43698 1 0.644262
      vertex 0.583872 1 4
      vertex 4.25 1 1.76314
    endloop
  endfacet
  facet normal 0 1 0
    outer loop
      vertex 0.583872 1 4
      vertex 1.43698 1 0.644262
      vertex 0.583872 1 1.23463
    endloop
  endfacet
  facet normal 0 1 -0
    outer loop
      vertex 2.78676 1 0.535332
      vertex 1.43698 1 0.644262
      vertex 4.25 1 1.76314
    endloop
  endfacet
  facet normal 0 1 0
    outer loop
      vertex 1.77176 1 0.412592
      vertex 2.78676 1 0.535332
      vertex 2.71589 1 0.412592
    endloop
  endfacet
  facet normal 0 1 0
    outer loop
      vertex 2.78676 1 0.535332
      vertex 1.77176 1 0.412592
      vertex 1.43698 1 0.644262
    endloop
  endfacet
  facet normal 0 1 -0
    outer loop
      vertex 24.5 1 4
      vertex 4.5 1 5.58741
      vertex 24.5 1 5.58741
    endloop
  endfacet
  facet normal 0 1 0
    outer loop
      vertex 4.5 1 5.58741
      vertex 24.5 1 4
      vertex 4.5 1 4
    endloop
  endfacet
  facet normal 0 0 -1
    outer loop
      vertex 0.335227 1.19829 4
      vertex 4.5 1 4
      vertex 0.583872 1 4
    endloop
  endfacet
  facet normal 0 0 -1
    outer loop
      vertex 4.5 1 4
      vertex 0.335227 1.19829 4
      vertex 4.5 20 4
    endloop
  endfacet
  facet normal 0 0 -1
    outer loop
      vertex 0.335227 19.8017 4
      vertex 4.5 20 4
      vertex 0.335227 1.19829 4
    endloop
  endfacet
  facet normal -0 0 -1
    outer loop
      vertex 4.5 20 4
      vertex 0.335227 19.8017 4
      vertex 0.583872 20 4
    endloop
  endfacet
  facet normal 0 0 -1
    outer loop
      vertex 24.5 1 4
      vertex 28.8478 2 4
      vertex 28.3662 1 4
    endloop
  endfacet
  facet normal -0 0 -1
    outer loop
      vertex 28.8478 2 4
      vertex 24.5 1 4
      vertex 28.8478 19 4
    endloop
  endfacet
  facet normal 0 0 -1
    outer loop
      vertex 24.5 20 4
      vertex 28.8478 19 4
      vertex 24.5 1 4
    endloop
  endfacet
  facet normal 0 0 -1
    outer loop
      vertex 28.8478 19 4
      vertex 24.5 20 4
      vertex 28.3662 20 4
    endloop
  endfacet
  facet normal -0.809017 0 0.587786
    outer loop
      vertex 14.1545 0.198568 2.02447
      vertex 14.5 1 2.5
      vertex 14.1545 1 2.02447
    endloop
  endfacet
  facet normal -0.809017 0 0.587786
    outer loop
      vertex 14.5 1 2.5
      vertex 14.1545 0.198568 2.02447
      vertex 14.5 0.198568 2.5
    endloop
  endfacet
  facet normal 0.309018 0 0.951056
    outer loop
      vertex 13.5955 1 2.20611
      vertex 14.1545 0.198568 2.02447
      vertex 14.1545 1 2.02447
    endloop
  endfacet
  facet normal 0.309018 0 0.951056
    outer loop
      vertex 14.1545 0.198568 2.02447
      vertex 13.5955 1 2.20611
      vertex 13.5955 0.198568 2.20611
    endloop
  endfacet
  facet normal 5.27179e-07 -1 -1.62249e-06
    outer loop
      vertex 14.5 1 2.5
      vertex 14.1545 0.999999 2.97553
      vertex 13.5955 1 2.20611
    endloop
  endfacet
  facet normal 1 -0 0
    outer loop
      vertex 13.5955 0.198568 2.79389
      vertex 13.5955 1 2.20611
      vertex 13.5955 0.999999 2.79389
    endloop
  endfacet
  facet normal 1 0 0
    outer loop
      vertex 13.5955 1 2.20611
      vertex 13.5955 0.198568 2.79389
      vertex 13.5955 0.198568 2.20611
    endloop
  endfacet
  facet normal 5.2718e-07 -1 -1.62249e-06
    outer loop
      vertex 13.5955 1 2.20611
      vertex 14.1545 0.999999 2.97553
      vertex 13.5955 0.999999 2.79389
    endloop
  endfacet
  facet normal -0.809016 0 -0.587787
    outer loop
      vertex 14.5 0.198568 2.5
      vertex 14.1545 0.999999 2.97553
      vertex 14.5 1 2.5
    endloop
  endfacet
  facet normal -0.809016 -0 -0.587787
    outer loop
      vertex 14.1545 0.999999 2.97553
      vertex 14.5 0.198568 2.5
      vertex 14.1545 0.198568 2.97553
    endloop
  endfacet
  facet normal 0.309018 0 -0.951056
    outer loop
      vertex 13.5955 0.198568 2.79389
      vertex 14.1545 0.999999 2.97553
      vertex 14.1545 0.198568 2.97553
    endloop
  endfacet
  facet normal 0.309018 0 -0.951056
    outer loop
      vertex 14.1545 0.999999 2.97553
      vertex 13.5955 0.198568 2.79389
      vertex 13.5955 0.999999 2.79389
    endloop
  endfacet
  facet normal -0.809017 0 0.587786
    outer loop
      vertex 14.1545 20 2.02447
      vertex 14.5 20.8014 2.5
      vertex 14.1545 20.8014 2.02447
    endloop
  endfacet
  facet normal -0.809017 0 0.587786
    outer loop
      vertex 14.5 20.8014 2.5
      vertex 14.1545 20 2.02447
      vertex 14.5 20 2.5
    endloop
  endfacet
  facet normal 0.309018 0 0.951056
    outer loop
      vertex 13.5955 20.8014 2.20611
      vertex 14.1545 20 2.02447
      vertex 14.1545 20.8014 2.02447
    endloop
  endfacet
  facet normal 0.309018 0 0.951056
    outer loop
      vertex 14.1545 20 2.02447
      vertex 13.5955 20.8014 2.20611
      vertex 13.5955 20 2.20611
    endloop
  endfacet
  facet normal 1 -0 0
    outer loop
      vertex 13.5955 20 2.79389
      vertex 13.5955 20.8014 2.20611
      vertex 13.5955 20.8014 2.79389
    endloop
  endfacet
  facet normal 1 0 0
    outer loop
      vertex 13.5955 20.8014 2.20611
      vertex 13.5955 20 2.79389
      vertex 13.5955 20 2.20611
    endloop
  endfacet
  facet normal -0.809016 0 -0.587787
    outer loop
      vertex 14.5 20 2.5
      vertex 14.1545 20.8014 2.97553
      vertex 14.5 20.8014 2.5
    endloop
  endfacet
  facet normal -0.809016 -0 -0.587787
    outer loop
      vertex 14.1545 20.8014 2.97553
      vertex 14.5 20 2.5
      vertex 14.1545 20 2.97553
    endloop
  endfacet
  facet normal 0.309018 0 -0.951056
    outer loop
      vertex 13.5955 20 2.79389
      vertex 14.1545 20.8014 2.97553
      vertex 14.1545 20 2.97553
    endloop
  endfacet
  facet normal 0.309018 0 -0.951056
    outer loop
      vertex 14.1545 20.8014 2.97553
      vertex 13.5955 20 2.79389
      vertex 13.5955 20.8014 2.79389
    endloop
  endfacet
  facet normal 0 0 -1
    outer loop
      vertex 6.04493 20 2.41644
      vertex 7.95506 20.8014 2.41644
      vertex 7.95506 20 2.41644
    endloop
  endfacet
  facet normal -0 0 -1
    outer loop
      vertex 7.95506 20.8014 2.41644
      vertex 6.04493 20 2.41644
      vertex 6.04493 20.8014 2.41644
    endloop
  endfacet
  facet normal 0 0 -1
    outer loop
      vertex 6.04493 0.198568 2.41644
      vertex 7.95506 1 2.41644
      vertex 7.95506 0.198568 2.41644
    endloop
  endfacet
  facet normal -0 0 -1
    outer loop
      vertex 7.95506 1 2.41644
      vertex 6.04493 0.198568 2.41644
      vertex 6.04493 1 2.41644
    endloop
  endfacet
  facet normal -0.866025 -0 -0.5
    outer loop
      vertex 11.2132 1 0.535332
      vertex 11.2841 1 0.412592
      vertex 11.2132 0.880338 0.535332
    endloop
  endfacet
  facet normal -0.866025 -0 -0.5
    outer loop
      vertex 11.2132 20.1197 0.535332
      vertex 11.2841 20 0.412592
      vertex 11.2132 20 0.535332
    endloop
  endfacet
  facet normal 0.866025 0 -0.5
    outer loop
      vertex 2.78676 1 0.535332
      vertex 2.78676 0.880338 0.535332
      vertex 2.71589 1 0.412592
    endloop
  endfacet
  facet normal 0.866025 0 -0.5
    outer loop
      vertex 2.78676 20.1197 0.535332
      vertex 2.78676 20 0.535332
      vertex 2.71589 20 0.412592
    endloop
  endfacet
  facet normal 0.34202 0 -0.939693
    outer loop
      vertex 4.25 20 1.76314
      vertex 6.04493 20.8014 2.41644
      vertex 6.04493 20 2.41644
    endloop
  endfacet
  facet normal 0.34202 0 -0.939693
    outer loop
      vertex 6.04493 20.8014 2.41644
      vertex 4.25 20 1.76314
      vertex 4.25 20.8014 1.76314
    endloop
  endfacet
  facet normal 0.34202 0 -0.939693
    outer loop
      vertex 4.25 0.198568 1.76314
      vertex 6.04493 1 2.41644
      vertex 6.04493 0.198568 2.41644
    endloop
  endfacet
  facet normal 0.34202 0 -0.939693
    outer loop
      vertex 6.04493 1 2.41644
      vertex 4.25 0.198568 1.76314
      vertex 4.25 1 1.76314
    endloop
  endfacet
  facet normal 0.642788 0 -0.766045
    outer loop
      vertex 4.25 20 1.76314
      vertex 3.62015 20.8014 1.23463
      vertex 4.25 20.8014 1.76314
    endloop
  endfacet
  facet normal 0.642788 0 -0.766044
    outer loop
      vertex 2.78676 20.1197 0.535332
      vertex 4.25 20 1.76314
      vertex 2.78676 20 0.535332
    endloop
  endfacet
  facet normal 0.642788 9.40813e-08 -0.766044
    outer loop
      vertex 4.25 20 1.76314
      vertex 2.78676 20.1197 0.535332
      vertex 3.62015 20.8014 1.23463
    endloop
  endfacet
  facet normal 0.642788 0 -0.766045
    outer loop
      vertex 3.62015 0.198568 1.23463
      vertex 4.25 1 1.76314
      vertex 4.25 0.198568 1.76314
    endloop
  endfacet
  facet normal 0.642788 -9.40814e-08 -0.766044
    outer loop
      vertex 2.78676 0.880338 0.535332
      vertex 4.25 1 1.76314
      vertex 3.62015 0.198568 1.23463
    endloop
  endfacet
  facet normal 0.642788 0 -0.766044
    outer loop
      vertex 4.25 1 1.76314
      vertex 2.78676 0.880338 0.535332
      vertex 2.78676 1 0.535332
    endloop
  endfacet
  facet normal -0.34202 0 -0.939693
    outer loop
      vertex 7.95506 20 2.41644
      vertex 9.75 20.8014 1.76314
      vertex 9.75 20 1.76314
    endloop
  endfacet
  facet normal -0.34202 0 -0.939693
    outer loop
      vertex 9.75 20.8014 1.76314
      vertex 7.95506 20 2.41644
      vertex 7.95506 20.8014 2.41644
    endloop
  endfacet
  facet normal -0.34202 0 -0.939693
    outer loop
      vertex 7.95506 0.198568 2.41644
      vertex 9.75 1 1.76314
      vertex 9.75 0.198568 1.76314
    endloop
  endfacet
  facet normal -0.34202 0 -0.939693
    outer loop
      vertex 9.75 1 1.76314
      vertex 7.95506 0.198568 2.41644
      vertex 7.95506 1 2.41644
    endloop
  endfacet
  facet normal -0.642787 0 -0.766045
    outer loop
      vertex 9.75 20 1.76314
      vertex 11.2132 20.1197 0.535332
      vertex 11.2132 20 0.535332
    endloop
  endfacet
  facet normal -0.642787 -5.3421e-08 -0.766045
    outer loop
      vertex 11.2132 20.1197 0.535332
      vertex 9.75 20 1.76314
      vertex 10.3798 20.8014 1.23463
    endloop
  endfacet
  facet normal -0.642787 0 -0.766045
    outer loop
      vertex 10.3798 20.8014 1.23463
      vertex 9.75 20 1.76314
      vertex 9.75 20.8014 1.76314
    endloop
  endfacet
  facet normal -0.642787 5.34211e-08 -0.766045
    outer loop
      vertex 9.75 1 1.76314
      vertex 11.2132 0.880338 0.535332
      vertex 10.3798 0.198568 1.23463
    endloop
  endfacet
  facet normal -0.642787 -0 -0.766045
    outer loop
      vertex 9.75 1 1.76314
      vertex 10.3798 0.198568 1.23463
      vertex 9.75 0.198568 1.76314
    endloop
  endfacet
  facet normal -0.642787 0 -0.766045
    outer loop
      vertex 11.2132 0.880338 0.535332
      vertex 9.75 1 1.76314
      vertex 11.2132 1 0.535332
    endloop
  endfacet
  facet normal 0.207912 0 -0.978148
    outer loop
      vertex 20.6652 20 2.49666
      vertex 24.8572 20.8014 3.3877
      vertex 24.8572 20 3.3877
    endloop
  endfacet
  facet normal 0.207912 0 -0.978148
    outer loop
      vertex 24.8572 20.8014 3.3877
      vertex 20.6652 20 2.49666
      vertex 20.6652 20.8014 2.49666
    endloop
  endfacet
  facet normal 0.207912 0 -0.978148
    outer loop
      vertex 20.6652 0.198568 2.49666
      vertex 24.8572 1 3.3877
      vertex 24.8572 0.198568 3.3877
    endloop
  endfacet
  facet normal 0.207912 0 -0.978148
    outer loop
      vertex 24.8572 1 3.3877
      vertex 20.6652 0.198568 2.49666
      vertex 20.6652 1 2.49666
    endloop
  endfacet
  facet normal 0.587784 0 -0.809018
    outer loop
      vertex 16.75 1 0.75352
      vertex 16.75 0.66762 0.75352
      vertex 16.2808 1 0.412592
    endloop
  endfacet
  facet normal 0.587784 0 -0.809018
    outer loop
      vertex 16.75 20.3324 0.75352
      vertex 16.75 20 0.75352
      vertex 16.2808 20 0.412592
    endloop
  endfacet
  facet normal 0.406737 0 -0.913545
    outer loop
      vertex 20.6652 20 2.49666
      vertex 17.8306 20.8014 1.23463
      vertex 20.6652 20.8014 2.49666
    endloop
  endfacet
  facet normal 0.406737 6.19923e-07 -0.913545
    outer loop
      vertex 16.75 20 0.75352
      vertex 17.8306 20.8014 1.23463
      vertex 20.6652 20 2.49666
    endloop
  endfacet
  facet normal 0.406737 0 -0.913545
    outer loop
      vertex 17.8306 20.8014 1.23463
      vertex 16.75 20 0.75352
      vertex 16.75 20.3324 0.75352
    endloop
  endfacet
  facet normal 0.406737 0 -0.913545
    outer loop
      vertex 17.8306 0.198568 1.23463
      vertex 20.6652 1 2.49666
      vertex 20.6652 0.198568 2.49666
    endloop
  endfacet
  facet normal 0.406737 0 -0.913545
    outer loop
      vertex 16.75 1 0.75352
      vertex 17.8306 0.198568 1.23463
      vertex 16.75 0.66762 0.75352
    endloop
  endfacet
  facet normal 0.406737 -6.19923e-07 -0.913545
    outer loop
      vertex 17.8306 0.198568 1.23463
      vertex 16.75 1 0.75352
      vertex 20.6652 1 2.49666
    endloop
  endfacet
  facet normal 0 0 -1
    outer loop
      vertex 28.3662 20 3.3877
      vertex 26.5888 20.8014 3.3877
      vertex 28.1521 20.4446 3.3877
    endloop
  endfacet
  facet normal 0 0 -1
    outer loop
      vertex 24.8572 20 3.3877
      vertex 26.5888 20.8014 3.3877
      vertex 28.3662 20 3.3877
    endloop
  endfacet
  facet normal -0 0 -1
    outer loop
      vertex 26.5888 20.8014 3.3877
      vertex 24.8572 20 3.3877
      vertex 24.8572 20.8014 3.3877
    endloop
  endfacet
  facet normal 0 0 -1
    outer loop
      vertex 26.5888 0.198568 3.3877
      vertex 28.3662 1 3.3877
      vertex 28.1521 0.555365 3.3877
    endloop
  endfacet
  facet normal 0 0 -1
    outer loop
      vertex 24.8572 1 3.3877
      vertex 26.5888 0.198568 3.3877
      vertex 24.8572 0.198568 3.3877
    endloop
  endfacet
  facet normal 0 0 -1
    outer loop
      vertex 26.5888 0.198568 3.3877
      vertex 24.8572 1 3.3877
      vertex 28.3662 1 3.3877
    endloop
  endfacet
  facet normal -1 0 0
    outer loop
      vertex 26.75 9.5 5
      vertex 26.75 11.5 5.84776
      vertex 26.75 11.5 5
    endloop
  endfacet
  facet normal -1 -0 0
    outer loop
      vertex 26.75 11.5 5.84776
      vertex 26.75 9.5 5
      vertex 26.75 9.5 5.84776
    endloop
  endfacet
  facet normal -0 0 1
    outer loop
      vertex 24.5 11.5 5
      vertex 26.75 9.5 5
      vertex 26.75 11.5 5
    endloop
  endfacet
  facet normal 0 0 1
    outer loop
      vertex 26.75 9.5 5
      vertex 24.5 11.5 5
      vertex 24.5 9.5 5
    endloop
  endfacet
  facet normal 0 1 -0
    outer loop
      vertex 26.75 9.5 5
      vertex 24.5 9.5 5.84776
      vertex 26.75 9.5 5.84776
    endloop
  endfacet
  facet normal 0 1 0
    outer loop
      vertex 24.5 9.5 5.84776
      vertex 26.75 9.5 5
      vertex 24.5 9.5 5
    endloop
  endfacet
  facet normal 0 -1 0
    outer loop
      vertex 24.5 11.5 5
      vertex 26.75 11.5 5.84776
      vertex 24.5 11.5 5.84776
    endloop
  endfacet
  facet normal 0 -1 -0
    outer loop
      vertex 26.75 11.5 5.84776
      vertex 24.5 11.5 5
      vertex 26.75 11.5 5
    endloop
  endfacet
endsolid OpenSCAD_Model
