<?xml version="1.0" encoding="UTF-8" standalone="yes"?>
<svg xmlns="http://www.w3.org/2000/svg" xmlns:xlink="http://www.w3.org/1999/xlink" width="273.691pt" height="565.945pt" version="1.1" viewBox="-174.537 374.896 273.691 565.945">
  <!--
	Exported with Concepts: Smarter Sketching
	Version: 1055 on iOS 15.2
	https://concepts.app/
	-->
  <title>Ohne Titel 4</title>
  <desc>Drawing exported from Concepts: Smarter Sketching</desc>
  <defs></defs>
  <g id="Stift" opacity="1.000">
    <path id="STROKE_6df385f6-634d-4db0-86de-4c372198dadb" opacity="1.000" fill="none" stroke="#185ebd" stroke-width="8.500" stroke-opacity="1.000" stroke-linecap="round" stroke-linejoin="round" d="M -99.272 911.384 Q -99.312 911.299 -100.732 907.895 Q -102.152 904.491 -103.361 901.801 Q -104.569 899.112 -105.256 897.657 Q -105.943 896.202 -107.478 893.201 Q -109.013 890.200 -111.600 885.546 Q -114.186 880.892 -116.136 877.064 Q -118.085 873.236 -119.960 868.872 Q -121.835 864.507 -124.283 858.329 Q -126.731 852.150 -128.183 848.464 Q -129.635 844.777 -130.319 842.985 Q -131.003 841.193 -132.177 838.136 Q -133.352 835.079 -135.883 827.701 Q -138.415 820.323 -140.155 814.597 Q -141.895 808.870 -143.071 804.641 Q -144.248 800.412 -145.981 793.770 Q -147.715 787.129 -149.124 781.400 Q -150.533 775.672 -152.248 768.556 Q -153.962 761.439 -155.113 756.271 Q -156.264 751.103 -157.422 745.512 Q -158.580 739.920 -159.275 736.402 Q -159.970 732.883 -160.318 730.716 Q -160.666 728.548 -161.100 725.088 Q -161.534 721.628 -161.910 717.411 Q -162.287 713.195 -162.751 707.068 Q -163.215 700.941 -163.516 696.206 Q -163.816 691.471 -164.022 686.456 Q -164.229 681.441 -164.238 676.945 Q -164.248 672.449 -164.210 669.650 Q -164.172 666.851 -163.980 663.063 Q -163.788 659.276 -163.397 654.940 Q -163.006 650.604 -162.351 644.457 Q -161.697 638.310 -161.102 633.529 Q -160.507 628.747 -159.704 623.622 Q -158.901 618.498 -157.363 611.221 Q -155.825 603.943 -154.910 600.230 Q -153.995 596.516 -152.632 591.526 Q -151.269 586.537 -148.673 578.913 Q -146.078 571.290 -144.267 566.469 Q -142.456 561.648 -141.425 559.088 Q -140.393 556.528 -137.308 549.736 Q -134.224 542.943 -132.549 539.573 Q -130.875 536.204 -129.971 534.464 Q -129.068 532.725 -127.656 530.137 Q -126.243 527.550 -121.358 519.078 Q -116.473 510.606 -114.834 508.017 Q -113.195 505.429 -112.231 503.993 Q -111.266 502.557 -106.473 495.741 Q -101.679 488.925 -99.019 485.095 Q -96.359 481.266 -94.967 479.232 Q -93.575 477.198 -92.016 474.954 Q -90.457 472.710 -87.585 468.592 Q -84.714 464.475 -82.198 461.063 Q -79.682 457.651 -77.846 455.242 Q -76.009 452.833 -74.047 450.407 Q -72.084 447.980 -69.032 444.487 Q -65.980 440.995 -65.099 440.003 Q -64.217 439.011 -62.520 437.159 Q -60.823 435.307 -56.508 430.663 Q -52.193 426.020 -49.861 423.528 Q -47.529 421.035 -46.089 419.553 Q -44.649 418.071 -42.680 416.140 Q -40.710 414.210 -36.216 410.139 Q -31.721 406.069 -28.679 403.446 Q -25.637 400.823 -23.674 399.239 Q -21.712 397.655 -21.073 397.146 Q -20.434 396.637 -17.859 394.690 Q -15.285 392.744 -13.616 391.622 Q -11.946 390.501 -8.446 388.666 Q -4.946 386.832 -3.177 386.232 Q -1.408 385.632 -0.359 385.460 Q 0.690 385.287 1.592 385.227 Q 2.493 385.167 2.690 385.206 Q 2.886 385.245 3.947 385.654 Q 5.008 386.063 6.193 386.685 Q 7.377 387.307 10.373 389.436 Q 13.368 391.565 16.684 394.458 Q 20.000 397.351 22.024 399.205 Q 24.049 401.059 27.727 404.915 Q 31.404 408.771 33.667 411.640 Q 35.931 414.508 38.313 418.152 Q 40.695 421.796 42.542 424.972 Q 44.388 428.149 46.305 431.702 Q 48.223 435.255 50.708 440.889 Q 53.194 446.522 55.891 454.171 Q 58.587 461.820 59.476 464.606 Q 60.364 467.392 61.397 470.951 Q 62.431 474.510 63.917 479.854 Q 65.403 485.199 66.544 489.623 Q 67.685 494.046 68.860 499.242 Q 70.036 504.438 70.986 508.994 Q 71.936 513.550 72.466 516.216 Q 72.996 518.883 74.519 526.432 Q 76.042 533.982 76.830 538.327 Q 77.618 542.672 78.492 547.630 Q 79.366 552.588 80.501 559.672 Q 81.635 566.756 82.413 572.322 Q 83.191 577.888 83.941 583.843 Q 84.691 589.797 85.320 596.253 Q 85.950 602.709 86.398 608.494 Q 86.846 614.280 87.202 619.963 Q 87.559 625.647 87.817 630.687 Q 88.076 635.728 88.234 639.867 Q 88.392 644.007 88.552 648.893 Q 88.712 653.780 88.789 657.871 Q 88.866 661.963 88.856 666.996 Q 88.845 672.030 88.670 676.179 Q 88.494 680.328 88.067 686.514 Q 87.641 692.699 87.096 696.761 Q 86.551 700.822 85.367 705.485 Q 84.183 710.148 83.296 712.789 Q 82.409 715.430 81.617 717.930 Q 80.825 720.430 79.325 726.184 Q 77.825 731.938 75.994 738.816 Q 74.163 745.694 72.973 749.329 Q 71.783 752.964 70.772 755.709 Q 69.762 758.454 68.429 761.750 Q 67.096 765.046 66.463 766.613 Q 65.830 768.180 65.563 768.835 Q 65.295 769.490 64.189 772.372 Q 63.084 775.255 61.410 779.310 Q 59.737 783.365 57.619 787.480 Q 55.500 791.595 53.793 794.511 Q 52.085 797.426 49.837 800.804 Q 47.589 804.183 46.083 806.382 Q 44.576 808.582 40.612 814.792 Q 36.647 821.001 34.360 824.765 Q 32.072 828.528 28.957 833.952 Q 25.843 839.377 24.605 841.489 Q 23.368 843.601 21.294 847.012 Q 19.220 850.423 17.238 853.364 Q 15.257 856.305 13.305 858.834 Q 11.353 861.363 9.794 863.209 Q 8.235 865.056 5.961 867.794 Q 3.688 870.533 0.275 874.456 Q -3.138 878.379 -4.793 880.209 Q -6.447 882.039 -8.663 884.341 Q -10.879 886.643 -15.443 890.786 Q -20.007 894.929 -20.868 895.632 Q -21.728 896.334 -23.298 897.541 Q -24.869 898.747 -29.263 901.773 Q -33.657 904.800 -36.168 906.473 Q -38.679 908.145 -41.254 909.842 Q -43.829 911.538 -46.583 913.469 Q -49.336 915.400 -49.520 915.540 Q -49.704 915.680 -52.569 917.876 Q -55.435 920.071 -58.229 922.198 Q -61.023 924.324 -62.957 925.595 Q -64.891 926.866 -65.996 927.482 Q -67.102 928.098 -68.640 928.742 Q -70.178 929.386 -71.377 929.760 Q -72.575 930.133 -74.610 930.347 Q -76.644 930.561 -77.215 930.548 Q -77.787 930.536 -78.742 930.367 Q -79.697 930.198 -80.622 929.854 Q -81.546 929.510 -82.128 929.204 Q -82.710 928.899 -83.519 928.278 Q -84.327 927.656 -85.073 926.972 Q -85.818 926.287 -86.627 925.474 Q -87.435 924.660 -87.508 924.610 Q -87.582 924.560 -88.269 923.749 Q -88.957 922.939 -89.667 922.064 Q -90.377 921.189 -91.340 919.980 Q -92.303 918.770 -93.480 917.104 Q -94.945 915.254 -96.203 913.472 Q -97.461 911.689 -97.650 911.432 Q -97.838 911.175 -100.327 906.873 "></path>
  </g>
  <g id="Neue_Ebene_1" opacity="1.000" display="none">
    <path id="STROKE_0986ba87-2a57-49b9-92e3-95e4591b969e" opacity="1.000" display="none" fill="none" stroke="#185ebd" stroke-width="8.500" stroke-opacity="1.000" stroke-linecap="round" stroke-linejoin="round" d="M -2.881 404.230 Q -3.078 404.835 -4.378 412.077 Q -5.678 419.319 -6.822 424.980 Q -7.966 430.641 -8.620 433.272 Q -9.274 435.903 -10.445 440.151 Q -11.616 444.399 -12.891 449.241 Q -14.165 454.082 -15.956 461.095 Q -17.747 468.107 -19.054 474.164 Q -20.361 480.220 -20.983 483.510 Q -21.605 486.799 -24.281 499.357 Q -26.956 511.916 -27.872 516.389 Q -28.788 520.863 -30.419 528.804 Q -32.049 536.745 -33.842 546.669 Q -35.636 556.594 -36.464 561.473 Q -37.292 566.353 -38.469 573.568 Q -39.646 580.783 -40.788 587.709 Q -41.929 594.634 -42.483 597.987 Q -43.037 601.340 -43.288 602.816 Q -43.538 604.293 -44.484 610.176 Q -45.430 616.059 -46.535 624.664 Q -47.640 633.270 -48.831 643.967 Q -50.022 654.664 -50.472 659.820 Q -50.922 664.976 -51.330 671.285 Q -51.737 677.595 -52.581 690.987 Q -53.424 704.379 -53.974 711.830 Q -54.523 719.282 -54.972 723.855 Q -55.421 728.429 -56.140 735.398 Q -56.858 742.368 -58.100 755.542 Q -59.343 768.716 -59.818 774.135 Q -60.294 779.553 -60.687 783.762 Q -61.080 787.970 -63.117 806.815 Q -65.154 825.659 -66.293 835.366 Q -67.431 845.073 -68.036 849.560 Q -68.642 854.047 -69.295 858.959 Q -69.949 863.872 -70.566 869.016 Q -71.183 874.160 -71.648 878.259 Q -72.113 882.359 -72.885 889.363 Q -73.656 896.368 -74.272 901.145 Q -74.887 905.922 -75.726 910.627 L -75.968 911.939 "></path>
    <path id="STROKE_c5e76ac1-bb91-4b91-85bb-08d735ca4c17" opacity="1.000" display="none" fill="none" stroke="#185ebd" stroke-width="8.500" stroke-opacity="1.000" stroke-linecap="round" stroke-linejoin="round" d="M -74.303 478.227 Q -73.346 485.802 -72.676 491.557 Q -72.005 497.313 -71.348 502.119 Q -70.691 506.925 -70.038 511.211 Q -69.385 515.497 -68.934 517.847 Q -68.483 520.197 -67.192 525.531 Q -65.901 530.865 -63.855 536.908 Q -61.810 542.951 -59.576 547.982 Q -57.342 553.013 -55.160 557.207 Q -52.977 561.400 -44.162 578.316 "></path>
    <path id="STROKE_eca681de-45ec-4e78-9e7b-8922d4ec750a" opacity="1.000" display="none" fill="none" stroke="#185ebd" stroke-width="8.500" stroke-opacity="1.000" stroke-linecap="round" stroke-linejoin="round" d="M 37.214 479.760 Q 36.815 480.626 36.318 482.022 Q 35.821 483.418 33.990 488.461 Q 32.159 493.505 30.075 498.894 Q 27.990 504.284 26.659 507.515 Q 25.327 510.746 23.211 515.198 Q 21.095 519.650 19.806 522.064 Q 18.517 524.478 16.633 527.598 Q 14.750 530.719 12.678 533.898 Q 10.605 537.077 9.345 538.914 Q 8.085 540.751 5.473 544.168 Q 2.862 547.584 0.031 550.904 Q -2.800 554.224 -7.844 559.574 Q -12.888 564.925 -19.899 572.048 Q -26.909 579.171 -30.579 582.220 L -32.561 583.692 "></path>
    <path id="STROKE_aabf3840-49d8-4ebf-b39c-f40f7557d060" opacity="1.000" display="none" fill="none" stroke="#185ebd" stroke-width="8.500" stroke-opacity="1.000" stroke-linecap="round" stroke-linejoin="round" d="M -115.930 573.928 L -115.962 574.336 Q -115.888 575.565 -115.495 582.190 Q -115.101 588.815 -114.708 592.650 Q -114.314 596.485 -114.003 598.243 Q -113.691 600.001 -112.726 604.205 Q -111.761 608.409 -110.380 613.205 Q -108.998 618.000 -108.096 620.588 Q -107.194 623.177 -106.217 625.628 Q -105.241 628.080 -102.981 632.952 Q -100.722 637.825 -98.262 642.289 Q -95.802 646.754 -94.061 649.571 Q -92.320 652.388 -90.514 655.010 Q -88.709 657.631 -83.076 664.661 Q -77.443 671.690 -75.915 673.333 Q -74.387 674.976 -72.615 676.759 Q -70.843 678.543 -70.319 679.032 Q -69.795 679.522 -68.512 680.761 Q -67.229 682.000 -65.495 683.482 Q -63.761 684.964 -58.203 689.478 "></path>
    <path id="STROKE_bbca0746-0e19-4976-9372-f238c9577de8" opacity="1.000" display="none" fill="none" stroke="#185ebd" stroke-width="8.500" stroke-opacity="1.000" stroke-linecap="round" stroke-linejoin="round" d="M -136.332 698.439 L -136.033 700.463 Q -135.999 701.140 -134.053 709.312 Q -132.108 717.485 -130.196 724.112 Q -128.284 730.739 -127.131 734.101 Q -125.978 737.463 -124.941 740.159 Q -123.904 742.855 -120.643 749.691 Q -117.383 756.528 -113.007 763.702 Q -108.630 770.876 -106.302 774.397 Q -103.974 777.917 -101.517 781.433 Q -99.060 784.950 -97.166 787.423 Q -95.273 789.897 -91.273 794.544 Q -87.272 799.190 -84.950 801.644 Q -82.627 804.097 -81.271 805.638 Q -79.915 807.179 -77.940 809.502 Q -75.966 811.825 -74.105 813.989 "></path>
    <path id="STROKE_ff55e5a8-5863-4491-92e3-23ea3c1f8454" opacity="1.000" display="none" fill="none" stroke="#185ebd" stroke-width="8.500" stroke-opacity="1.000" stroke-linecap="round" stroke-linejoin="round" d="M 47.612 588.735 Q 46.846 589.626 43.884 594.751 Q 40.922 599.875 35.930 608.559 Q 30.937 617.244 27.972 622.156 Q 25.006 627.068 22.774 630.228 Q 20.543 633.388 17.475 637.484 Q 14.407 641.580 12.786 643.719 Q 11.164 645.858 8.359 649.353 Q 5.554 652.848 2.528 656.327 Q -0.497 659.806 -4.746 664.299 Q -8.995 668.791 -13.839 673.239 Q -18.683 677.686 -21.769 680.237 Q -24.855 682.788 -28.238 685.147 Q -31.621 687.507 -33.012 688.364 Q -34.403 689.221 -35.962 690.200 Q -37.522 691.180 -38.766 691.869 Q -40.009 692.558 -41.773 693.458 "></path>
    <path id="STROKE_57b52049-5804-447e-80f0-917d4b4d7109" opacity="1.000" display="none" fill="none" stroke="#185ebd" stroke-width="8.500" stroke-opacity="1.000" stroke-linecap="round" stroke-linejoin="round" d="M 39.916 728.176 Q 39.379 728.694 36.187 732.583 Q 32.994 736.473 24.251 746.028 Q 15.508 755.584 11.099 760.253 Q 6.691 764.922 -1.076 772.123 Q -8.843 779.324 -14.693 784.150 Q -20.543 788.977 -27.345 793.769 Q -34.147 798.561 -36.242 799.961 Q -38.336 801.362 -41.966 803.584 Q -45.597 805.807 -47.146 806.719 Q -48.695 807.632 -49.543 808.093 Q -50.390 808.554 -53.506 810.268 "></path>
  </g>
</svg>