solid OpenSCAD_Model
  facet normal 0.987824 0.155573 0
    outer loop
      vertex 112.573 1.53648 16
      vertex 112.5 2 14
      vertex 112.5 2 16
    endloop
  endfacet
  facet normal 0.987824 0.155573 -0
    outer loop
      vertex 112.573 1.53648 0
      vertex 112.5 2 14
      vertex 112.573 1.53648 16
    endloop
  endfacet
  facet normal 0.987824 0.155573 0
    outer loop
      vertex 112.5 2 14
      vertex 112.573 1.53648 0
      vertex 112.5 2 0
    endloop
  endfacet
  facet normal -0.15628 0.987713 0
    outer loop
      vertex 114.464 0.573416 0
      vertex 114 0.5 16
      vertex 114.464 0.573416 16
    endloop
  endfacet
  facet normal -0.15628 0.987713 0
    outer loop
      vertex 114 0.5 16
      vertex 114.464 0.573416 0
      vertex 114 0.5 0
    endloop
  endfacet
  facet normal 0.706942 0.707272 -0
    outer loop
      vertex 113.118 0.786475 0
      vertex 112.786 1.11832 16
      vertex 113.118 0.786475 16
    endloop
  endfacet
  facet normal 0.706942 0.707272 0
    outer loop
      vertex 112.786 1.11832 16
      vertex 113.118 0.786475 0
      vertex 112.786 1.11832 0
    endloop
  endfacet
  facet normal 0.891061 0.453884 0
    outer loop
      vertex 112.786 1.11832 16
      vertex 112.573 1.53648 0
      vertex 112.573 1.53648 16
    endloop
  endfacet
  facet normal 0.891061 0.453884 0
    outer loop
      vertex 112.573 1.53648 0
      vertex 112.786 1.11832 16
      vertex 112.786 1.11832 0
    endloop
  endfacet
  facet normal -0.706942 0.707272 0
    outer loop
      vertex 115.214 1.11832 0
      vertex 114.882 0.786475 16
      vertex 115.214 1.11832 16
    endloop
  endfacet
  facet normal -0.706942 0.707272 0
    outer loop
      vertex 114.882 0.786475 16
      vertex 115.214 1.11832 0
      vertex 114.882 0.786475 0
    endloop
  endfacet
  facet normal -0.454121 0.89094 0
    outer loop
      vertex 114.882 0.786475 0
      vertex 114.464 0.573416 16
      vertex 114.882 0.786475 16
    endloop
  endfacet
  facet normal -0.454121 0.89094 0
    outer loop
      vertex 114.464 0.573416 16
      vertex 114.882 0.786475 0
      vertex 114.464 0.573416 0
    endloop
  endfacet
  facet normal 0.454123 -0.890939 0
    outer loop
      vertex 113.118 3.21353 0
      vertex 113.536 3.42659 14
      vertex 113.118 3.21353 14
    endloop
  endfacet
  facet normal 0.454123 -0.890939 0
    outer loop
      vertex 113.536 3.42659 14
      vertex 113.118 3.21353 0
      vertex 113.536 3.42659 0
    endloop
  endfacet
  facet normal 0.891057 -0.453892 0
    outer loop
      vertex 112.573 2.46353 14
      vertex 112.786 2.88168 0
      vertex 112.786 2.88168 14
    endloop
  endfacet
  facet normal 0.891057 -0.453892 0
    outer loop
      vertex 112.786 2.88168 0
      vertex 112.573 2.46353 14
      vertex 112.573 2.46353 0
    endloop
  endfacet
  facet normal -0.454123 -0.890939 0
    outer loop
      vertex 114.464 3.42659 0
      vertex 114.882 3.21353 14
      vertex 114.464 3.42659 14
    endloop
  endfacet
  facet normal -0.454123 -0.890939 -0
    outer loop
      vertex 114.882 3.21353 14
      vertex 114.464 3.42659 0
      vertex 114.882 3.21353 0
    endloop
  endfacet
  facet normal -0.891057 -0.453892 0
    outer loop
      vertex 115.427 2.46353 0
      vertex 115.214 2.88168 16
      vertex 115.214 2.88168 0
    endloop
  endfacet
  facet normal -0.891057 -0.453892 0
    outer loop
      vertex 115.214 2.88168 16
      vertex 115.427 2.46353 0
      vertex 115.427 2.46353 16
    endloop
  endfacet
  facet normal 0.15628 0.987713 -0
    outer loop
      vertex 114 0.5 0
      vertex 113.536 0.573416 16
      vertex 114 0.5 16
    endloop
  endfacet
  facet normal 0.15628 0.987713 0
    outer loop
      vertex 113.536 0.573416 16
      vertex 114 0.5 0
      vertex 113.536 0.573416 0
    endloop
  endfacet
  facet normal 0.454121 0.89094 -0
    outer loop
      vertex 113.536 0.573416 0
      vertex 113.118 0.786475 16
      vertex 113.536 0.573416 16
    endloop
  endfacet
  facet normal 0.454121 0.89094 0
    outer loop
      vertex 113.118 0.786475 16
      vertex 113.536 0.573416 0
      vertex 113.118 0.786475 0
    endloop
  endfacet
  facet normal -0.891061 0.453884 0
    outer loop
      vertex 115.214 1.11832 0
      vertex 115.427 1.53648 16
      vertex 115.427 1.53648 0
    endloop
  endfacet
  facet normal -0.891061 0.453884 0
    outer loop
      vertex 115.427 1.53648 16
      vertex 115.214 1.11832 0
      vertex 115.214 1.11832 16
    endloop
  endfacet
  facet normal -0.987824 0.155573 0
    outer loop
      vertex 115.427 1.53648 0
      vertex 115.5 2 16
      vertex 115.5 2 0
    endloop
  endfacet
  facet normal -0.987824 0.155573 0
    outer loop
      vertex 115.5 2 16
      vertex 115.427 1.53648 0
      vertex 115.427 1.53648 16
    endloop
  endfacet
  facet normal -0.987825 -0.15557 0
    outer loop
      vertex 115.5 2 0
      vertex 115.427 2.46353 16
      vertex 115.427 2.46353 0
    endloop
  endfacet
  facet normal -0.987825 -0.15557 0
    outer loop
      vertex 115.427 2.46353 16
      vertex 115.5 2 0
      vertex 115.5 2 16
    endloop
  endfacet
  facet normal 0.987825 -0.15557 0
    outer loop
      vertex 112.5 2 14
      vertex 112.573 2.46353 0
      vertex 112.573 2.46353 14
    endloop
  endfacet
  facet normal 0.987825 -0.15557 0
    outer loop
      vertex 112.573 2.46353 0
      vertex 112.5 2 14
      vertex 112.5 2 0
    endloop
  endfacet
  facet normal 0.706947 -0.707267 0
    outer loop
      vertex 112.786 2.88168 0
      vertex 113.118 3.21353 14
      vertex 112.786 2.88168 14
    endloop
  endfacet
  facet normal 0.706947 -0.707267 0
    outer loop
      vertex 113.118 3.21353 14
      vertex 112.786 2.88168 0
      vertex 113.118 3.21353 0
    endloop
  endfacet
  facet normal -0.156268 -0.987715 0
    outer loop
      vertex 114 3.5 0
      vertex 114.464 3.42659 14
      vertex 114 3.5 14
    endloop
  endfacet
  facet normal -0.156268 -0.987715 -0
    outer loop
      vertex 114.464 3.42659 14
      vertex 114 3.5 0
      vertex 114.464 3.42659 0
    endloop
  endfacet
  facet normal -0.708093 -0.706119 -0
    outer loop
      vertex 114.882 3.21353 14
      vertex 114.882 3.21353 0
      vertex 115 3.0952 14
    endloop
  endfacet
  facet normal -0.706312 -0.7079 0
    outer loop
      vertex 115 3.0952 14
      vertex 115.214 2.88168 16
      vertex 115 3.0952 16
    endloop
  endfacet
  facet normal -0.706947 -0.707267 -1.93646e-05
    outer loop
      vertex 115.214 2.88168 0
      vertex 115 3.0952 14
      vertex 114.882 3.21353 0
    endloop
  endfacet
  facet normal -0.706312 -0.7079 0
    outer loop
      vertex 115 3.0952 14
      vertex 115.214 2.88168 0
      vertex 115.214 2.88168 16
    endloop
  endfacet
  facet normal 0 0 -1
    outer loop
      vertex 115 2 16
      vertex 115.5 2 16
      vertex 115.427 1.53648 16
    endloop
  endfacet
  facet normal 0 0 -1
    outer loop
      vertex 115 2 16
      vertex 115.427 1.53648 16
      vertex 115.214 1.11832 16
    endloop
  endfacet
  facet normal 0 0 -1
    outer loop
      vertex 115.5 2 16
      vertex 115 2 16
      vertex 115.427 2.46353 16
    endloop
  endfacet
  facet normal -0 0 -1
    outer loop
      vertex 115.427 2.46353 16
      vertex 115 2 16
      vertex 115.214 2.88168 16
    endloop
  endfacet
  facet normal 0 0 -1
    outer loop
      vertex 114.882 0.786475 16
      vertex 115 2 16
      vertex 115.214 1.11832 16
    endloop
  endfacet
  facet normal 0 0 -1
    outer loop
      vertex 114.464 0.573416 16
      vertex 115 2 16
      vertex 114.882 0.786475 16
    endloop
  endfacet
  facet normal 0 0 -1
    outer loop
      vertex 114 0.5 16
      vertex 115 2 16
      vertex 114.464 0.573416 16
    endloop
  endfacet
  facet normal 0 0 -1
    outer loop
      vertex 113.536 0.573416 16
      vertex 115 2 16
      vertex 114 0.5 16
    endloop
  endfacet
  facet normal 0 0 -1
    outer loop
      vertex 113.118 0.786475 16
      vertex 115 2 16
      vertex 113.536 0.573416 16
    endloop
  endfacet
  facet normal 0 0 -1
    outer loop
      vertex 112.786 1.11832 16
      vertex 115 2 16
      vertex 113.118 0.786475 16
    endloop
  endfacet
  facet normal 0 0 -1
    outer loop
      vertex 112.573 1.53648 16
      vertex 115 2 16
      vertex 112.786 1.11832 16
    endloop
  endfacet
  facet normal -0 0 -1
    outer loop
      vertex 115 2 16
      vertex 112.573 1.53648 16
      vertex 112.5 2 16
    endloop
  endfacet
  facet normal -0 0 -1
    outer loop
      vertex 115.214 2.88168 16
      vertex 115 2 16
      vertex 115 3.0952 16
    endloop
  endfacet
  facet normal 0.156268 -0.987715 0
    outer loop
      vertex 113.536 3.42659 0
      vertex 114 3.5 14
      vertex 113.536 3.42659 14
    endloop
  endfacet
  facet normal 0.156268 -0.987715 0
    outer loop
      vertex 114 3.5 14
      vertex 113.536 3.42659 0
      vertex 114 3.5 0
    endloop
  endfacet
  facet normal 0.987823 0.15558 0
    outer loop
      vertex 112.573 67.5365 14
      vertex 112.5 68 0
      vertex 112.5 68 14
    endloop
  endfacet
  facet normal 0.987823 0.15558 0
    outer loop
      vertex 112.5 68 0
      vertex 112.573 67.5365 14
      vertex 112.573 67.5365 0
    endloop
  endfacet
  facet normal -0.987823 0.15558 0
    outer loop
      vertex 115.427 67.5365 0
      vertex 115.5 68 16
      vertex 115.5 68 0
    endloop
  endfacet
  facet normal -0.987823 0.15558 0
    outer loop
      vertex 115.5 68 16
      vertex 115.427 67.5365 0
      vertex 115.427 67.5365 16
    endloop
  endfacet
  facet normal 0.156247 0.987718 -0
    outer loop
      vertex 114 66.5 0
      vertex 113.536 66.5734 14
      vertex 114 66.5 14
    endloop
  endfacet
  facet normal 0.156247 0.987718 0
    outer loop
      vertex 113.536 66.5734 14
      vertex 114 66.5 0
      vertex 113.536 66.5734 0
    endloop
  endfacet
  facet normal 0.706894 0.70732 0
    outer loop
      vertex 113.118 66.7865 14
      vertex 112.786 67.1183 0
      vertex 112.786 67.1183 14
    endloop
  endfacet
  facet normal 0.706894 0.70732 0
    outer loop
      vertex 112.786 67.1183 0
      vertex 113.118 66.7865 14
      vertex 113.118 66.7865 0
    endloop
  endfacet
  facet normal 0.891079 0.453849 0
    outer loop
      vertex 112.786 67.1183 14
      vertex 112.573 67.5365 0
      vertex 112.573 67.5365 14
    endloop
  endfacet
  facet normal 0.891079 0.453849 0
    outer loop
      vertex 112.573 67.5365 0
      vertex 112.786 67.1183 14
      vertex 112.786 67.1183 0
    endloop
  endfacet
  facet normal 0.454191 0.890904 -0
    outer loop
      vertex 113.536 66.5734 0
      vertex 113.118 66.7865 14
      vertex 113.536 66.5734 14
    endloop
  endfacet
  facet normal 0.454191 0.890904 0
    outer loop
      vertex 113.118 66.7865 14
      vertex 113.536 66.5734 0
      vertex 113.118 66.7865 0
    endloop
  endfacet
  facet normal -0.454191 0.890904 0
    outer loop
      vertex 114.882 66.7865 0
      vertex 114.464 66.5734 14
      vertex 114.882 66.7865 14
    endloop
  endfacet
  facet normal -0.454191 0.890904 0
    outer loop
      vertex 114.464 66.5734 14
      vertex 114.882 66.7865 0
      vertex 114.464 66.5734 0
    endloop
  endfacet
  facet normal -0.706279 0.707933 0
    outer loop
      vertex 115.214 67.1183 0
      vertex 115 66.9048 14
      vertex 115.214 67.1183 16
    endloop
  endfacet
  facet normal -0.706894 0.70732 -1.87482e-05
    outer loop
      vertex 114.882 66.7865 0
      vertex 115 66.9048 14
      vertex 115.214 67.1183 0
    endloop
  endfacet
  facet normal -0.708004 0.706208 0
    outer loop
      vertex 115 66.9048 14
      vertex 114.882 66.7865 0
      vertex 114.882 66.7865 14
    endloop
  endfacet
  facet normal -0.706279 0.707933 0
    outer loop
      vertex 115.214 67.1183 16
      vertex 115 66.9048 14
      vertex 115 66.9048 16
    endloop
  endfacet
  facet normal -0.156247 0.987718 0
    outer loop
      vertex 114.464 66.5734 0
      vertex 114 66.5 14
      vertex 114.464 66.5734 14
    endloop
  endfacet
  facet normal -0.156247 0.987718 0
    outer loop
      vertex 114 66.5 14
      vertex 114.464 66.5734 0
      vertex 114 66.5 0
    endloop
  endfacet
  facet normal 0.891079 -0.453849 0
    outer loop
      vertex 112.573 68.4635 16
      vertex 112.786 68.8817 0
      vertex 112.786 68.8817 16
    endloop
  endfacet
  facet normal 0.891079 -0.453849 0
    outer loop
      vertex 112.786 68.8817 0
      vertex 112.573 68.4635 16
      vertex 112.573 68.4635 0
    endloop
  endfacet
  facet normal -0.706894 -0.70732 0
    outer loop
      vertex 115.214 68.8817 0
      vertex 114.882 69.2135 16
      vertex 114.882 69.2135 0
    endloop
  endfacet
  facet normal -0.706894 -0.70732 0
    outer loop
      vertex 114.882 69.2135 16
      vertex 115.214 68.8817 0
      vertex 115.214 68.8817 16
    endloop
  endfacet
  facet normal -0.987823 -0.15558 0
    outer loop
      vertex 115.5 68 0
      vertex 115.427 68.4635 16
      vertex 115.427 68.4635 0
    endloop
  endfacet
  facet normal -0.987823 -0.15558 0
    outer loop
      vertex 115.427 68.4635 16
      vertex 115.5 68 0
      vertex 115.5 68 16
    endloop
  endfacet
  facet normal -0.891079 0.453849 0
    outer loop
      vertex 115.214 67.1183 0
      vertex 115.427 67.5365 16
      vertex 115.427 67.5365 0
    endloop
  endfacet
  facet normal -0.891079 0.453849 0
    outer loop
      vertex 115.427 67.5365 16
      vertex 115.214 67.1183 0
      vertex 115.214 67.1183 16
    endloop
  endfacet
  facet normal 0 0 -1
    outer loop
      vertex 115 68 16
      vertex 115.5 68 16
      vertex 115.427 67.5365 16
    endloop
  endfacet
  facet normal 0 0 -1
    outer loop
      vertex 115 68 16
      vertex 115.427 67.5365 16
      vertex 115.214 67.1183 16
    endloop
  endfacet
  facet normal 0 0 -1
    outer loop
      vertex 115.5 68 16
      vertex 115 68 16
      vertex 115.427 68.4635 16
    endloop
  endfacet
  facet normal 0 0 -1
    outer loop
      vertex 115 68 16
      vertex 115.214 67.1183 16
      vertex 115 66.9048 16
    endloop
  endfacet
  facet normal -0 0 -1
    outer loop
      vertex 115.427 68.4635 16
      vertex 115 68 16
      vertex 115.214 68.8817 16
    endloop
  endfacet
  facet normal 0 0 -1
    outer loop
      vertex 115 68 16
      vertex 114.882 69.2135 16
      vertex 115.214 68.8817 16
    endloop
  endfacet
  facet normal 0 0 -1
    outer loop
      vertex 115 68 16
      vertex 114.464 69.4266 16
      vertex 114.882 69.2135 16
    endloop
  endfacet
  facet normal 0 0 -1
    outer loop
      vertex 115 68 16
      vertex 114 69.5 16
      vertex 114.464 69.4266 16
    endloop
  endfacet
  facet normal 0 0 -1
    outer loop
      vertex 115 68 16
      vertex 113.536 69.4266 16
      vertex 114 69.5 16
    endloop
  endfacet
  facet normal 0 0 -1
    outer loop
      vertex 115 68 16
      vertex 113.118 69.2135 16
      vertex 113.536 69.4266 16
    endloop
  endfacet
  facet normal 0 0 -1
    outer loop
      vertex 115 68 16
      vertex 112.786 68.8817 16
      vertex 113.118 69.2135 16
    endloop
  endfacet
  facet normal 0 0 -1
    outer loop
      vertex 115 68 16
      vertex 112.573 68.4635 16
      vertex 112.786 68.8817 16
    endloop
  endfacet
  facet normal 0 -0 -1
    outer loop
      vertex 112.573 68.4635 16
      vertex 115 68 16
      vertex 112.5 68 16
    endloop
  endfacet
  facet normal 0.987823 -0.15558 0
    outer loop
      vertex 112.5 68 14
      vertex 112.573 68.4635 16
      vertex 112.5 68 16
    endloop
  endfacet
  facet normal 0.987823 -0.15558 0
    outer loop
      vertex 112.573 68.4635 16
      vertex 112.5 68 14
      vertex 112.573 68.4635 0
    endloop
  endfacet
  facet normal 0.987823 -0.15558 0
    outer loop
      vertex 112.573 68.4635 0
      vertex 112.5 68 14
      vertex 112.5 68 0
    endloop
  endfacet
  facet normal 0.156247 -0.987718 0
    outer loop
      vertex 113.536 69.4266 0
      vertex 114 69.5 16
      vertex 113.536 69.4266 16
    endloop
  endfacet
  facet normal 0.156247 -0.987718 0
    outer loop
      vertex 114 69.5 16
      vertex 113.536 69.4266 0
      vertex 114 69.5 0
    endloop
  endfacet
  facet normal 0.706894 -0.70732 0
    outer loop
      vertex 112.786 68.8817 16
      vertex 113.118 69.2135 0
      vertex 113.118 69.2135 16
    endloop
  endfacet
  facet normal 0.706894 -0.70732 0
    outer loop
      vertex 113.118 69.2135 0
      vertex 112.786 68.8817 16
      vertex 112.786 68.8817 0
    endloop
  endfacet
  facet normal -0.454191 -0.890904 0
    outer loop
      vertex 114.464 69.4266 0
      vertex 114.882 69.2135 16
      vertex 114.464 69.4266 16
    endloop
  endfacet
  facet normal -0.454191 -0.890904 -0
    outer loop
      vertex 114.882 69.2135 16
      vertex 114.464 69.4266 0
      vertex 114.882 69.2135 0
    endloop
  endfacet
  facet normal -0.891079 -0.453849 0
    outer loop
      vertex 115.427 68.4635 0
      vertex 115.214 68.8817 16
      vertex 115.214 68.8817 0
    endloop
  endfacet
  facet normal -0.891079 -0.453849 0
    outer loop
      vertex 115.214 68.8817 16
      vertex 115.427 68.4635 0
      vertex 115.427 68.4635 16
    endloop
  endfacet
  facet normal 0.454191 -0.890904 0
    outer loop
      vertex 113.118 69.2135 0
      vertex 113.536 69.4266 16
      vertex 113.118 69.2135 16
    endloop
  endfacet
  facet normal 0.454191 -0.890904 0
    outer loop
      vertex 113.536 69.4266 16
      vertex 113.118 69.2135 0
      vertex 113.536 69.4266 0
    endloop
  endfacet
  facet normal -0.156247 -0.987718 0
    outer loop
      vertex 114 69.5 0
      vertex 114.464 69.4266 16
      vertex 114 69.5 16
    endloop
  endfacet
  facet normal -0.156247 -0.987718 -0
    outer loop
      vertex 114.464 69.4266 16
      vertex 114 69.5 0
      vertex 114.464 69.4266 0
    endloop
  endfacet
  facet normal 0.987824 0.155573 0
    outer loop
      vertex 112.573 1.53648 120
      vertex 112.5 2 107
      vertex 112.5 2 120
    endloop
  endfacet
  facet normal 0.987824 0.155573 0
    outer loop
      vertex 112.5 2 107
      vertex 112.573 1.53648 120
      vertex 112.573 1.53648 107
    endloop
  endfacet
  facet normal -0.15628 0.987713 0
    outer loop
      vertex 114.464 0.573416 107
      vertex 114 0.5 120
      vertex 114.464 0.573416 120
    endloop
  endfacet
  facet normal -0.15628 0.987713 0
    outer loop
      vertex 114 0.5 120
      vertex 114.464 0.573416 107
      vertex 114 0.5 107
    endloop
  endfacet
  facet normal 0.706942 0.707272 -0
    outer loop
      vertex 113.118 0.786475 107
      vertex 112.786 1.11832 120
      vertex 113.118 0.786475 120
    endloop
  endfacet
  facet normal 0.706942 0.707272 0
    outer loop
      vertex 112.786 1.11832 120
      vertex 113.118 0.786475 107
      vertex 112.786 1.11832 107
    endloop
  endfacet
  facet normal 0.891061 0.453884 0
    outer loop
      vertex 112.786 1.11832 120
      vertex 112.573 1.53648 107
      vertex 112.573 1.53648 120
    endloop
  endfacet
  facet normal 0.891061 0.453884 0
    outer loop
      vertex 112.573 1.53648 107
      vertex 112.786 1.11832 120
      vertex 112.786 1.11832 107
    endloop
  endfacet
  facet normal -0.706942 0.707272 0
    outer loop
      vertex 115.214 1.11832 107
      vertex 114.882 0.786475 120
      vertex 115.214 1.11832 120
    endloop
  endfacet
  facet normal -0.706942 0.707272 0
    outer loop
      vertex 114.882 0.786475 120
      vertex 115.214 1.11832 107
      vertex 114.882 0.786475 107
    endloop
  endfacet
  facet normal 0 0 1
    outer loop
      vertex 115.427 2.46353 107
      vertex 115.427 1.53648 107
      vertex 115.5 2 107
    endloop
  endfacet
  facet normal 0 0 1
    outer loop
      vertex 115.214 2.88168 107
      vertex 115.427 1.53648 107
      vertex 115.427 2.46353 107
    endloop
  endfacet
  facet normal 0 0 1
    outer loop
      vertex 115.214 2.88168 107
      vertex 115.214 1.11832 107
      vertex 115.427 1.53648 107
    endloop
  endfacet
  facet normal 0 0 1
    outer loop
      vertex 114.882 3.21353 107
      vertex 115.214 1.11832 107
      vertex 115.214 2.88168 107
    endloop
  endfacet
  facet normal 0 0 1
    outer loop
      vertex 114.882 3.21353 107
      vertex 114.882 0.786475 107
      vertex 115.214 1.11832 107
    endloop
  endfacet
  facet normal 0 0 1
    outer loop
      vertex 114.464 3.42659 107
      vertex 114.882 0.786475 107
      vertex 114.882 3.21353 107
    endloop
  endfacet
  facet normal 0 0 1
    outer loop
      vertex 114.464 3.42659 107
      vertex 114.464 0.573416 107
      vertex 114.882 0.786475 107
    endloop
  endfacet
  facet normal 0 0 1
    outer loop
      vertex 114 3.5 107
      vertex 114.464 0.573416 107
      vertex 114.464 3.42659 107
    endloop
  endfacet
  facet normal 0 0 1
    outer loop
      vertex 114 3.5 107
      vertex 114 0.5 107
      vertex 114.464 0.573416 107
    endloop
  endfacet
  facet normal -0 0 1
    outer loop
      vertex 113.536 3.42659 107
      vertex 114 0.5 107
      vertex 114 3.5 107
    endloop
  endfacet
  facet normal 0 0 1
    outer loop
      vertex 113.536 3.42659 107
      vertex 113.536 0.573416 107
      vertex 114 0.5 107
    endloop
  endfacet
  facet normal -0 0 1
    outer loop
      vertex 113.118 3.21353 107
      vertex 113.536 0.573416 107
      vertex 113.536 3.42659 107
    endloop
  endfacet
  facet normal 0 0 1
    outer loop
      vertex 113.118 3.21353 107
      vertex 113.118 0.786475 107
      vertex 113.536 0.573416 107
    endloop
  endfacet
  facet normal -0 0 1
    outer loop
      vertex 112.786 2.88168 107
      vertex 113.118 0.786475 107
      vertex 113.118 3.21353 107
    endloop
  endfacet
  facet normal 0 0 1
    outer loop
      vertex 112.786 2.88168 107
      vertex 112.786 1.11832 107
      vertex 113.118 0.786475 107
    endloop
  endfacet
  facet normal -0 0 1
    outer loop
      vertex 112.573 2.46353 107
      vertex 112.786 1.11832 107
      vertex 112.786 2.88168 107
    endloop
  endfacet
  facet normal 0 0 1
    outer loop
      vertex 112.573 2.46353 107
      vertex 112.573 1.53648 107
      vertex 112.786 1.11832 107
    endloop
  endfacet
  facet normal 0 -0 1
    outer loop
      vertex 112.573 1.53648 107
      vertex 112.573 2.46353 107
      vertex 112.5 2 107
    endloop
  endfacet
  facet normal -0.454121 0.89094 0
    outer loop
      vertex 114.882 0.786475 107
      vertex 114.464 0.573416 120
      vertex 114.882 0.786475 120
    endloop
  endfacet
  facet normal -0.454121 0.89094 0
    outer loop
      vertex 114.464 0.573416 120
      vertex 114.882 0.786475 107
      vertex 114.464 0.573416 107
    endloop
  endfacet
  facet normal 0.454123 -0.890939 0
    outer loop
      vertex 113.118 3.21353 107
      vertex 113.536 3.42659 120
      vertex 113.118 3.21353 120
    endloop
  endfacet
  facet normal 0.454123 -0.890939 0
    outer loop
      vertex 113.536 3.42659 120
      vertex 113.118 3.21353 107
      vertex 113.536 3.42659 107
    endloop
  endfacet
  facet normal 0.891057 -0.453892 0
    outer loop
      vertex 112.573 2.46353 120
      vertex 112.786 2.88168 107
      vertex 112.786 2.88168 120
    endloop
  endfacet
  facet normal 0.891057 -0.453892 0
    outer loop
      vertex 112.786 2.88168 107
      vertex 112.573 2.46353 120
      vertex 112.573 2.46353 107
    endloop
  endfacet
  facet normal -0.454123 -0.890939 0
    outer loop
      vertex 114.464 3.42659 107
      vertex 114.882 3.21353 120
      vertex 114.464 3.42659 120
    endloop
  endfacet
  facet normal -0.454123 -0.890939 -0
    outer loop
      vertex 114.882 3.21353 120
      vertex 114.464 3.42659 107
      vertex 114.882 3.21353 107
    endloop
  endfacet
  facet normal -0.891057 -0.453892 0
    outer loop
      vertex 115.427 2.46353 107
      vertex 115.214 2.88168 120
      vertex 115.214 2.88168 107
    endloop
  endfacet
  facet normal -0.891057 -0.453892 0
    outer loop
      vertex 115.214 2.88168 120
      vertex 115.427 2.46353 107
      vertex 115.427 2.46353 120
    endloop
  endfacet
  facet normal 0.15628 0.987713 -0
    outer loop
      vertex 114 0.5 107
      vertex 113.536 0.573416 120
      vertex 114 0.5 120
    endloop
  endfacet
  facet normal 0.15628 0.987713 0
    outer loop
      vertex 113.536 0.573416 120
      vertex 114 0.5 107
      vertex 113.536 0.573416 107
    endloop
  endfacet
  facet normal 0.454121 0.89094 -0
    outer loop
      vertex 113.536 0.573416 107
      vertex 113.118 0.786475 120
      vertex 113.536 0.573416 120
    endloop
  endfacet
  facet normal 0.454121 0.89094 0
    outer loop
      vertex 113.118 0.786475 120
      vertex 113.536 0.573416 107
      vertex 113.118 0.786475 107
    endloop
  endfacet
  facet normal -0.891061 0.453884 0
    outer loop
      vertex 115.214 1.11832 107
      vertex 115.427 1.53648 120
      vertex 115.427 1.53648 107
    endloop
  endfacet
  facet normal -0.891061 0.453884 0
    outer loop
      vertex 115.427 1.53648 120
      vertex 115.214 1.11832 107
      vertex 115.214 1.11832 120
    endloop
  endfacet
  facet normal -0.987824 0.155573 0
    outer loop
      vertex 115.427 1.53648 107
      vertex 115.5 2 120
      vertex 115.5 2 107
    endloop
  endfacet
  facet normal -0.987824 0.155573 0
    outer loop
      vertex 115.5 2 120
      vertex 115.427 1.53648 107
      vertex 115.427 1.53648 120
    endloop
  endfacet
  facet normal -0.987825 -0.15557 0
    outer loop
      vertex 115.5 2 107
      vertex 115.427 2.46353 120
      vertex 115.427 2.46353 107
    endloop
  endfacet
  facet normal -0.987825 -0.15557 0
    outer loop
      vertex 115.427 2.46353 120
      vertex 115.5 2 107
      vertex 115.5 2 120
    endloop
  endfacet
  facet normal 0.987825 -0.15557 0
    outer loop
      vertex 112.5 2 120
      vertex 112.573 2.46353 107
      vertex 112.573 2.46353 120
    endloop
  endfacet
  facet normal 0.987825 -0.15557 0
    outer loop
      vertex 112.573 2.46353 107
      vertex 112.5 2 120
      vertex 112.5 2 107
    endloop
  endfacet
  facet normal 0.706947 -0.707267 0
    outer loop
      vertex 112.786 2.88168 107
      vertex 113.118 3.21353 120
      vertex 112.786 2.88168 120
    endloop
  endfacet
  facet normal 0.706947 -0.707267 0
    outer loop
      vertex 113.118 3.21353 120
      vertex 112.786 2.88168 107
      vertex 113.118 3.21353 107
    endloop
  endfacet
  facet normal -0.156268 -0.987715 0
    outer loop
      vertex 114 3.5 107
      vertex 114.464 3.42659 120
      vertex 114 3.5 120
    endloop
  endfacet
  facet normal -0.156268 -0.987715 -0
    outer loop
      vertex 114.464 3.42659 120
      vertex 114 3.5 107
      vertex 114.464 3.42659 107
    endloop
  endfacet
  facet normal -0.706947 -0.707267 0
    outer loop
      vertex 114.882 3.21353 107
      vertex 115.214 2.88168 120
      vertex 114.882 3.21353 120
    endloop
  endfacet
  facet normal -0.706947 -0.707267 -0
    outer loop
      vertex 115.214 2.88168 120
      vertex 114.882 3.21353 107
      vertex 115.214 2.88168 107
    endloop
  endfacet
  facet normal 0.156268 -0.987715 0
    outer loop
      vertex 113.536 3.42659 107
      vertex 114 3.5 120
      vertex 113.536 3.42659 120
    endloop
  endfacet
  facet normal 0.156268 -0.987715 0
    outer loop
      vertex 114 3.5 120
      vertex 113.536 3.42659 107
      vertex 114 3.5 107
    endloop
  endfacet
  facet normal 0.987823 0.15558 0
    outer loop
      vertex 112.573 67.5365 120
      vertex 112.5 68 107
      vertex 112.5 68 120
    endloop
  endfacet
  facet normal 0.987823 0.15558 0
    outer loop
      vertex 112.5 68 107
      vertex 112.573 67.5365 120
      vertex 112.573 67.5365 107
    endloop
  endfacet
  facet normal -0.987823 0.15558 0
    outer loop
      vertex 115.427 67.5365 107
      vertex 115.5 68 120
      vertex 115.5 68 107
    endloop
  endfacet
  facet normal -0.987823 0.15558 0
    outer loop
      vertex 115.5 68 120
      vertex 115.427 67.5365 107
      vertex 115.427 67.5365 120
    endloop
  endfacet
  facet normal 0.156247 0.987718 -0
    outer loop
      vertex 114 66.5 107
      vertex 113.536 66.5734 120
      vertex 114 66.5 120
    endloop
  endfacet
  facet normal 0.156247 0.987718 0
    outer loop
      vertex 113.536 66.5734 120
      vertex 114 66.5 107
      vertex 113.536 66.5734 107
    endloop
  endfacet
  facet normal 0 0 1
    outer loop
      vertex 115.427 68.4635 107
      vertex 115.427 67.5365 107
      vertex 115.5 68 107
    endloop
  endfacet
  facet normal 0 0 1
    outer loop
      vertex 115.214 68.8817 107
      vertex 115.427 67.5365 107
      vertex 115.427 68.4635 107
    endloop
  endfacet
  facet normal 0 0 1
    outer loop
      vertex 115.214 68.8817 107
      vertex 115.214 67.1183 107
      vertex 115.427 67.5365 107
    endloop
  endfacet
  facet normal 0 0 1
    outer loop
      vertex 114.882 69.2135 107
      vertex 115.214 67.1183 107
      vertex 115.214 68.8817 107
    endloop
  endfacet
  facet normal 0 0 1
    outer loop
      vertex 114.882 69.2135 107
      vertex 114.882 66.7865 107
      vertex 115.214 67.1183 107
    endloop
  endfacet
  facet normal 0 0 1
    outer loop
      vertex 114.464 69.4266 107
      vertex 114.882 66.7865 107
      vertex 114.882 69.2135 107
    endloop
  endfacet
  facet normal 0 0 1
    outer loop
      vertex 114.464 69.4266 107
      vertex 114.464 66.5734 107
      vertex 114.882 66.7865 107
    endloop
  endfacet
  facet normal 0 0 1
    outer loop
      vertex 114 69.5 107
      vertex 114.464 66.5734 107
      vertex 114.464 69.4266 107
    endloop
  endfacet
  facet normal 0 0 1
    outer loop
      vertex 114 69.5 107
      vertex 114 66.5 107
      vertex 114.464 66.5734 107
    endloop
  endfacet
  facet normal -0 0 1
    outer loop
      vertex 113.536 69.4266 107
      vertex 114 66.5 107
      vertex 114 69.5 107
    endloop
  endfacet
  facet normal 0 0 1
    outer loop
      vertex 113.536 69.4266 107
      vertex 113.536 66.5734 107
      vertex 114 66.5 107
    endloop
  endfacet
  facet normal -0 0 1
    outer loop
      vertex 113.118 69.2135 107
      vertex 113.536 66.5734 107
      vertex 113.536 69.4266 107
    endloop
  endfacet
  facet normal 0 0 1
    outer loop
      vertex 113.118 69.2135 107
      vertex 113.118 66.7865 107
      vertex 113.536 66.5734 107
    endloop
  endfacet
  facet normal -0 0 1
    outer loop
      vertex 112.786 68.8817 107
      vertex 113.118 66.7865 107
      vertex 113.118 69.2135 107
    endloop
  endfacet
  facet normal 0 0 1
    outer loop
      vertex 112.786 68.8817 107
      vertex 112.786 67.1183 107
      vertex 113.118 66.7865 107
    endloop
  endfacet
  facet normal -0 0 1
    outer loop
      vertex 112.573 68.4635 107
      vertex 112.786 67.1183 107
      vertex 112.786 68.8817 107
    endloop
  endfacet
  facet normal 0 0 1
    outer loop
      vertex 112.573 68.4635 107
      vertex 112.573 67.5365 107
      vertex 112.786 67.1183 107
    endloop
  endfacet
  facet normal 0 -0 1
    outer loop
      vertex 112.573 67.5365 107
      vertex 112.573 68.4635 107
      vertex 112.5 68 107
    endloop
  endfacet
  facet normal 0.706894 0.70732 0
    outer loop
      vertex 113.118 66.7865 120
      vertex 112.786 67.1183 107
      vertex 112.786 67.1183 120
    endloop
  endfacet
  facet normal 0.706894 0.70732 0
    outer loop
      vertex 112.786 67.1183 107
      vertex 113.118 66.7865 120
      vertex 113.118 66.7865 107
    endloop
  endfacet
  facet normal 0.891079 0.453849 0
    outer loop
      vertex 112.786 67.1183 120
      vertex 112.573 67.5365 107
      vertex 112.573 67.5365 120
    endloop
  endfacet
  facet normal 0.891079 0.453849 0
    outer loop
      vertex 112.573 67.5365 107
      vertex 112.786 67.1183 120
      vertex 112.786 67.1183 107
    endloop
  endfacet
  facet normal 0.454191 0.890904 -0
    outer loop
      vertex 113.536 66.5734 107
      vertex 113.118 66.7865 120
      vertex 113.536 66.5734 120
    endloop
  endfacet
  facet normal 0.454191 0.890904 0
    outer loop
      vertex 113.118 66.7865 120
      vertex 113.536 66.5734 107
      vertex 113.118 66.7865 107
    endloop
  endfacet
  facet normal -0.454191 0.890904 0
    outer loop
      vertex 114.882 66.7865 107
      vertex 114.464 66.5734 120
      vertex 114.882 66.7865 120
    endloop
  endfacet
  facet normal -0.454191 0.890904 0
    outer loop
      vertex 114.464 66.5734 120
      vertex 114.882 66.7865 107
      vertex 114.464 66.5734 107
    endloop
  endfacet
  facet normal -0.706894 0.70732 0
    outer loop
      vertex 114.882 66.7865 107
      vertex 115.214 67.1183 120
      vertex 115.214 67.1183 107
    endloop
  endfacet
  facet normal -0.706894 0.70732 0
    outer loop
      vertex 115.214 67.1183 120
      vertex 114.882 66.7865 107
      vertex 114.882 66.7865 120
    endloop
  endfacet
  facet normal -0.156247 0.987718 0
    outer loop
      vertex 114.464 66.5734 107
      vertex 114 66.5 120
      vertex 114.464 66.5734 120
    endloop
  endfacet
  facet normal -0.156247 0.987718 0
    outer loop
      vertex 114 66.5 120
      vertex 114.464 66.5734 107
      vertex 114 66.5 107
    endloop
  endfacet
  facet normal 0.891079 -0.453849 0
    outer loop
      vertex 112.573 68.4635 120
      vertex 112.786 68.8817 107
      vertex 112.786 68.8817 120
    endloop
  endfacet
  facet normal 0.891079 -0.453849 0
    outer loop
      vertex 112.786 68.8817 107
      vertex 112.573 68.4635 120
      vertex 112.573 68.4635 107
    endloop
  endfacet
  facet normal -0.706894 -0.70732 0
    outer loop
      vertex 115.214 68.8817 107
      vertex 114.882 69.2135 120
      vertex 114.882 69.2135 107
    endloop
  endfacet
  facet normal -0.706894 -0.70732 0
    outer loop
      vertex 114.882 69.2135 120
      vertex 115.214 68.8817 107
      vertex 115.214 68.8817 120
    endloop
  endfacet
  facet normal -0.987823 -0.15558 0
    outer loop
      vertex 115.5 68 107
      vertex 115.427 68.4635 120
      vertex 115.427 68.4635 107
    endloop
  endfacet
  facet normal -0.987823 -0.15558 0
    outer loop
      vertex 115.427 68.4635 120
      vertex 115.5 68 107
      vertex 115.5 68 120
    endloop
  endfacet
  facet normal -0.891079 0.453849 0
    outer loop
      vertex 115.214 67.1183 107
      vertex 115.427 67.5365 120
      vertex 115.427 67.5365 107
    endloop
  endfacet
  facet normal -0.891079 0.453849 0
    outer loop
      vertex 115.427 67.5365 120
      vertex 115.214 67.1183 107
      vertex 115.214 67.1183 120
    endloop
  endfacet
  facet normal 0.987823 -0.15558 0
    outer loop
      vertex 112.5 68 120
      vertex 112.573 68.4635 107
      vertex 112.573 68.4635 120
    endloop
  endfacet
  facet normal 0.987823 -0.15558 0
    outer loop
      vertex 112.573 68.4635 107
      vertex 112.5 68 120
      vertex 112.5 68 107
    endloop
  endfacet
  facet normal 0.156247 -0.987718 0
    outer loop
      vertex 113.536 69.4266 107
      vertex 114 69.5 120
      vertex 113.536 69.4266 120
    endloop
  endfacet
  facet normal 0.156247 -0.987718 0
    outer loop
      vertex 114 69.5 120
      vertex 113.536 69.4266 107
      vertex 114 69.5 107
    endloop
  endfacet
  facet normal 0.706894 -0.70732 0
    outer loop
      vertex 112.786 68.8817 120
      vertex 113.118 69.2135 107
      vertex 113.118 69.2135 120
    endloop
  endfacet
  facet normal 0.706894 -0.70732 0
    outer loop
      vertex 113.118 69.2135 107
      vertex 112.786 68.8817 120
      vertex 112.786 68.8817 107
    endloop
  endfacet
  facet normal -0.454191 -0.890904 0
    outer loop
      vertex 114.464 69.4266 107
      vertex 114.882 69.2135 120
      vertex 114.464 69.4266 120
    endloop
  endfacet
  facet normal -0.454191 -0.890904 -0
    outer loop
      vertex 114.882 69.2135 120
      vertex 114.464 69.4266 107
      vertex 114.882 69.2135 107
    endloop
  endfacet
  facet normal -0.891079 -0.453849 0
    outer loop
      vertex 115.427 68.4635 107
      vertex 115.214 68.8817 120
      vertex 115.214 68.8817 107
    endloop
  endfacet
  facet normal -0.891079 -0.453849 0
    outer loop
      vertex 115.214 68.8817 120
      vertex 115.427 68.4635 107
      vertex 115.427 68.4635 120
    endloop
  endfacet
  facet normal 0.454191 -0.890904 0
    outer loop
      vertex 113.118 69.2135 107
      vertex 113.536 69.4266 120
      vertex 113.118 69.2135 120
    endloop
  endfacet
  facet normal 0.454191 -0.890904 0
    outer loop
      vertex 113.536 69.4266 120
      vertex 113.118 69.2135 107
      vertex 113.536 69.4266 107
    endloop
  endfacet
  facet normal -0.156247 -0.987718 0
    outer loop
      vertex 114 69.5 107
      vertex 114.464 69.4266 120
      vertex 114 69.5 120
    endloop
  endfacet
  facet normal -0.156247 -0.987718 -0
    outer loop
      vertex 114.464 69.4266 120
      vertex 114 69.5 107
      vertex 114.464 69.4266 107
    endloop
  endfacet
  facet normal -1 0 0
    outer loop
      vertex 111.152 17.5 104
      vertex 111.152 2 104
      vertex 111.152 17.5 118
    endloop
  endfacet
  facet normal -1 0 0
    outer loop
      vertex 111.152 68 104
      vertex 111.152 70 0
      vertex 111.152 68 14
    endloop
  endfacet
  facet normal -1 0 0
    outer loop
      vertex 111.152 70 0
      vertex 111.152 52.5 2
      vertex 111.152 68 14
    endloop
  endfacet
  facet normal -1 0 0
    outer loop
      vertex 111.152 70 0
      vertex 111.152 17.5 2
      vertex 111.152 52.5 2
    endloop
  endfacet
  facet normal -1 0 0
    outer loop
      vertex 111.152 17.5 2
      vertex 111.152 2 14
      vertex 111.152 17.5 14
    endloop
  endfacet
  facet normal -1 -0 0
    outer loop
      vertex 111.152 2 14
      vertex 111.152 0 0
      vertex 111.152 2 104
    endloop
  endfacet
  facet normal -1 -0 0
    outer loop
      vertex 111.152 17.5 2
      vertex 111.152 0 0
      vertex 111.152 2 14
    endloop
  endfacet
  facet normal -1 0 0
    outer loop
      vertex 111.152 0 0
      vertex 111.152 17.5 2
      vertex 111.152 70 0
    endloop
  endfacet
  facet normal -1 0 0
    outer loop
      vertex 111.152 70 0
      vertex 111.152 68 104
      vertex 111.152 70 119.765
    endloop
  endfacet
  facet normal -1 0 0
    outer loop
      vertex 111.152 52.5 118
      vertex 111.152 68 104
      vertex 111.152 52.5 104
    endloop
  endfacet
  facet normal -1 0 0
    outer loop
      vertex 111.152 68 104
      vertex 111.152 52.5 118
      vertex 111.152 70 119.765
    endloop
  endfacet
  facet normal -1 0 0
    outer loop
      vertex 111.152 17.5 118
      vertex 111.152 70 119.765
      vertex 111.152 52.5 118
    endloop
  endfacet
  facet normal -1 0 0
    outer loop
      vertex 111.152 17.5 118
      vertex 111.152 0 119.765
      vertex 111.152 70 119.765
    endloop
  endfacet
  facet normal -1 0 0
    outer loop
      vertex 111.152 2 104
      vertex 111.152 0 119.765
      vertex 111.152 17.5 118
    endloop
  endfacet
  facet normal -1 0 0
    outer loop
      vertex 111.152 0 119.765
      vertex 111.152 2 104
      vertex 111.152 0 0
    endloop
  endfacet
  facet normal -1 -0 0
    outer loop
      vertex 111.152 68 14
      vertex 111.152 52.5 2
      vertex 111.152 52.5 14
    endloop
  endfacet
  facet normal 0.463374 0.58055 0.669512
    outer loop
      vertex 116.665 70.8017 119.765
      vertex 115.472 71.4829 120
      vertex 116.453 70.6999 120
    endloop
  endfacet
  facet normal 0.463813 0.581796 0.668125
    outer loop
      vertex 115.472 71.4829 120
      vertex 116.665 70.8017 119.765
      vertex 115.411 71.8014 119.765
    endloop
  endfacet
  facet normal 1 0 0
    outer loop
      vertex 116.665 70.8017 119.765
      vertex 116.665 45.9795 45.4955
      vertex 116.665 70.8017 0
    endloop
  endfacet
  facet normal 1 0 0
    outer loop
      vertex 116.665 70.8017 119.765
      vertex 116.665 45.4946 47.4102
      vertex 116.665 45.9795 45.4955
    endloop
  endfacet
  facet normal 1 0 0
    outer loop
      vertex 116.665 70.8017 119.765
      vertex 116.665 44.4143 49.0637
      vertex 116.665 45.4946 47.4102
    endloop
  endfacet
  facet normal 1 0 0
    outer loop
      vertex 116.665 70.8017 119.765
      vertex 116.665 42.8557 50.2768
      vertex 116.665 44.4143 49.0637
    endloop
  endfacet
  facet normal 1 0 0
    outer loop
      vertex 116.665 70.8017 119.765
      vertex 116.665 40.9876 50.9182
      vertex 116.665 42.8557 50.2768
    endloop
  endfacet
  facet normal 1 0 0
    outer loop
      vertex 116.665 70.8017 119.765
      vertex 116.665 39.0124 50.9182
      vertex 116.665 40.9876 50.9182
    endloop
  endfacet
  facet normal 1 -0 0
    outer loop
      vertex 116.665 -0.801712 119.765
      vertex 116.665 39.0124 50.9182
      vertex 116.665 70.8017 119.765
    endloop
  endfacet
  facet normal 1 0 0
    outer loop
      vertex 116.665 39.0124 50.9182
      vertex 116.665 -0.801712 119.765
      vertex 116.665 37.1443 50.2768
    endloop
  endfacet
  facet normal 1 0 0
    outer loop
      vertex 116.665 37.1443 50.2768
      vertex 116.665 -0.801712 119.765
      vertex 116.665 35.5857 49.0637
    endloop
  endfacet
  facet normal 1 0 0
    outer loop
      vertex 116.665 34.5054 47.4102
      vertex 116.665 -0.801712 119.765
      vertex 116.665 34.0205 45.4955
    endloop
  endfacet
  facet normal 1 0 0
    outer loop
      vertex 116.665 35.5857 49.0637
      vertex 116.665 -0.801712 119.765
      vertex 116.665 34.5054 47.4102
    endloop
  endfacet
  facet normal 1 -0 0
    outer loop
      vertex 116.665 45.8164 43.5271
      vertex 116.665 70.8017 0
      vertex 116.665 45.9795 45.4955
    endloop
  endfacet
  facet normal 1 -0 0
    outer loop
      vertex 116.665 45.023 41.7183
      vertex 116.665 70.8017 0
      vertex 116.665 45.8164 43.5271
    endloop
  endfacet
  facet normal 1 -0 0
    outer loop
      vertex 116.665 43.6853 40.2652
      vertex 116.665 70.8017 0
      vertex 116.665 45.023 41.7183
    endloop
  endfacet
  facet normal 1 -0 0
    outer loop
      vertex 116.665 41.9482 39.3251
      vertex 116.665 70.8017 0
      vertex 116.665 43.6853 40.2652
    endloop
  endfacet
  facet normal 1 -0 0
    outer loop
      vertex 116.665 40 39
      vertex 116.665 70.8017 0
      vertex 116.665 41.9482 39.3251
    endloop
  endfacet
  facet normal 1 0 0
    outer loop
      vertex 116.665 -0.801712 0
      vertex 116.665 40 39
      vertex 116.665 38.0518 39.3251
    endloop
  endfacet
  facet normal 1 0 0
    outer loop
      vertex 116.665 -0.801712 0
      vertex 116.665 38.0518 39.3251
      vertex 116.665 36.3147 40.2652
    endloop
  endfacet
  facet normal 1 0 0
    outer loop
      vertex 116.665 -0.801712 0
      vertex 116.665 36.3147 40.2652
      vertex 116.665 34.977 41.7183
    endloop
  endfacet
  facet normal 1 0 0
    outer loop
      vertex 116.665 -0.801712 0
      vertex 116.665 34.0205 45.4955
      vertex 116.665 -0.801712 119.765
    endloop
  endfacet
  facet normal 1 0 0
    outer loop
      vertex 116.665 34.0205 45.4955
      vertex 116.665 -0.801712 0
      vertex 116.665 34.1836 43.5271
    endloop
  endfacet
  facet normal 1 0 0
    outer loop
      vertex 116.665 40 39
      vertex 116.665 -0.801712 0
      vertex 116.665 70.8017 0
    endloop
  endfacet
  facet normal 1 0 0
    outer loop
      vertex 116.665 34.1836 43.5271
      vertex 116.665 -0.801712 0
      vertex 116.665 34.977 41.7183
    endloop
  endfacet
  facet normal 0.62337 -0.781927 0
    outer loop
      vertex 115.411 -1.80143 0
      vertex 116.665 -0.801712 119.765
      vertex 115.411 -1.80143 119.765
    endloop
  endfacet
  facet normal 0.62337 -0.781927 0
    outer loop
      vertex 116.665 -0.801712 119.765
      vertex 115.411 -1.80143 0
      vertex 116.665 -0.801712 0
    endloop
  endfacet
  facet normal 0.462358 -0.582068 0.668896
    outer loop
      vertex 115.472 -1.48292 120
      vertex 115.359 -1.57268 120
      vertex 115.411 -1.80143 119.765
    endloop
  endfacet
  facet normal -0.165413 0.724608 0.669015
    outer loop
      vertex 111.848 71.4446 119.765
      vertex 113.219 71.5406 120
      vertex 113.411 71.8014 119.765
    endloop
  endfacet
  facet normal -0.165366 0.72503 0.66857
    outer loop
      vertex 113.219 71.5406 120
      vertex 111.848 71.4446 119.765
      vertex 111.994 71.2612 120
    endloop
  endfacet
  facet normal 0 -1 0
    outer loop
      vertex 113.411 -1.80143 0
      vertex 115.411 -1.80143 119.765
      vertex 113.411 -1.80143 119.765
    endloop
  endfacet
  facet normal 0 -1 -0
    outer loop
      vertex 115.411 -1.80143 119.765
      vertex 113.411 -1.80143 0
      vertex 115.411 -1.80143 0
    endloop
  endfacet
  facet normal -0.222554 0.97492 0
    outer loop
      vertex 113.411 71.8014 0
      vertex 111.848 71.4446 119.765
      vertex 113.411 71.8014 119.765
    endloop
  endfacet
  facet normal -0.222554 0.97492 0
    outer loop
      vertex 111.848 71.4446 119.765
      vertex 113.411 71.8014 0
      vertex 111.848 71.4446 0
    endloop
  endfacet
  facet normal -0.166188 0.72481 0.668605
    outer loop
      vertex 113.411 71.8014 119.765
      vertex 113.219 71.5406 120
      vertex 113.359 71.5727 120
    endloop
  endfacet
  facet normal 0.623363 0.781932 -0
    outer loop
      vertex 116.665 70.8017 0
      vertex 115.411 71.8014 119.765
      vertex 116.665 70.8017 119.765
    endloop
  endfacet
  facet normal 0.623363 0.781932 0
    outer loop
      vertex 115.411 71.8014 119.765
      vertex 116.665 70.8017 0
      vertex 115.411 71.8014 0
    endloop
  endfacet
  facet normal -0.165376 -0.724943 0.668662
    outer loop
      vertex 111.848 -1.44464 119.765
      vertex 113.219 -1.54064 120
      vertex 111.994 -1.26119 120
    endloop
  endfacet
  facet normal -0.165411 -0.724622 0.669001
    outer loop
      vertex 113.219 -1.54064 120
      vertex 111.848 -1.44464 119.765
      vertex 113.411 -1.80143 119.765
    endloop
  endfacet
  facet normal -0.900891 0.434044 0
    outer loop
      vertex 111.152 70 0
      vertex 111.848 71.4446 119.765
      vertex 111.848 71.4446 0
    endloop
  endfacet
  facet normal -0.900891 0.434044 0
    outer loop
      vertex 111.848 71.4446 119.765
      vertex 111.152 70 0
      vertex 111.152 70 119.765
    endloop
  endfacet
  facet normal 0.463375 -0.580541 0.669519
    outer loop
      vertex 115.472 -1.48292 120
      vertex 116.665 -0.801712 119.765
      vertex 116.453 -0.699908 120
    endloop
  endfacet
  facet normal 0.463812 -0.581785 0.668135
    outer loop
      vertex 116.665 -0.801712 119.765
      vertex 115.472 -1.48292 120
      vertex 115.411 -1.80143 119.765
    endloop
  endfacet
  facet normal 0.742508 -0 0.669837
    outer loop
      vertex 116.453 -0.699908 120
      vertex 116.665 70.8017 119.765
      vertex 116.453 70.6999 120
    endloop
  endfacet
  facet normal 0.742508 0 0.669837
    outer loop
      vertex 116.665 70.8017 119.765
      vertex 116.453 -0.699908 120
      vertex 116.665 -0.801712 119.765
    endloop
  endfacet
  facet normal 0 1 -0
    outer loop
      vertex 115.411 71.8014 0
      vertex 113.411 71.8014 119.765
      vertex 115.411 71.8014 119.765
    endloop
  endfacet
  facet normal 0 1 0
    outer loop
      vertex 113.411 71.8014 119.765
      vertex 115.411 71.8014 0
      vertex 113.411 71.8014 0
    endloop
  endfacet
  facet normal -0.669349 -0.322405 0.669349
    outer loop
      vertex 111.152 0 119.765
      vertex 111.932 -1.13148 120
      vertex 111.387 0 120
    endloop
  endfacet
  facet normal -0.669493 -0.322549 0.669135
    outer loop
      vertex 111.932 -1.13148 120
      vertex 111.152 0 119.765
      vertex 111.848 -1.44464 119.765
    endloop
  endfacet
  facet normal -0.707107 0 0.707107
    outer loop
      vertex 111.152 0 119.765
      vertex 111.387 70 120
      vertex 111.152 70 119.765
    endloop
  endfacet
  facet normal -0.707107 0 0.707107
    outer loop
      vertex 111.387 70 120
      vertex 111.152 0 119.765
      vertex 111.387 0 120
    endloop
  endfacet
  facet normal -0.222548 -0.974922 0
    outer loop
      vertex 111.848 -1.44464 0
      vertex 113.411 -1.80143 119.765
      vertex 111.848 -1.44464 119.765
    endloop
  endfacet
  facet normal -0.222548 -0.974922 -0
    outer loop
      vertex 113.411 -1.80143 119.765
      vertex 111.848 -1.44464 0
      vertex 113.411 -1.80143 0
    endloop
  endfacet
  facet normal -0.900896 -0.434035 0
    outer loop
      vertex 111.848 -1.44464 0
      vertex 111.152 0 119.765
      vertex 111.152 0 0
    endloop
  endfacet
  facet normal -0.900896 -0.434035 0
    outer loop
      vertex 111.152 0 119.765
      vertex 111.848 -1.44464 0
      vertex 111.848 -1.44464 119.765
    endloop
  endfacet
  facet normal 0.462544 0.582043 0.668789
    outer loop
      vertex 115.411 71.8014 119.765
      vertex 115.359 71.5727 120
      vertex 115.472 71.4829 120
    endloop
  endfacet
  facet normal -0 0.716648 0.697435
    outer loop
      vertex 113.411 71.8014 119.765
      vertex 115.359 71.5727 120
      vertex 115.411 71.8014 119.765
    endloop
  endfacet
  facet normal 0 0.716648 0.697435
    outer loop
      vertex 115.359 71.5727 120
      vertex 113.411 71.8014 119.765
      vertex 113.359 71.5727 120
    endloop
  endfacet
  facet normal -0.671576 0.321031 0.667776
    outer loop
      vertex 111.994 71.2612 120
      vertex 111.848 71.4446 119.765
      vertex 111.932 71.1315 120
    endloop
  endfacet
  facet normal -0.669522 0.322572 0.669094
    outer loop
      vertex 111.152 70 119.765
      vertex 111.932 71.1315 120
      vertex 111.848 71.4446 119.765
    endloop
  endfacet
  facet normal -0.66935 0.3224 0.66935
    outer loop
      vertex 111.932 71.1315 120
      vertex 111.152 70 119.765
      vertex 111.387 70 120
    endloop
  endfacet
  facet normal 0 -0.716571 0.697514
    outer loop
      vertex 113.411 -1.80143 119.765
      vertex 115.359 -1.57268 120
      vertex 113.359 -1.57268 120
    endloop
  endfacet
  facet normal 0 -0.716571 0.697514
    outer loop
      vertex 115.359 -1.57268 120
      vertex 113.411 -1.80143 119.765
      vertex 115.411 -1.80143 119.765
    endloop
  endfacet
  facet normal -0.67156 -0.320998 0.667808
    outer loop
      vertex 111.932 -1.13148 120
      vertex 111.848 -1.44464 119.765
      vertex 111.994 -1.26119 120
    endloop
  endfacet
  facet normal -0.165862 -0.724739 0.668763
    outer loop
      vertex 113.359 -1.57268 120
      vertex 113.219 -1.54064 120
      vertex 113.411 -1.80143 119.765
    endloop
  endfacet
  facet normal 0 0 -1
    outer loop
      vertex 115.427 67.5365 0
      vertex 116.665 70.8017 0
      vertex 115.427 2.46353 0
    endloop
  endfacet
  facet normal 0 0 -1
    outer loop
      vertex 116.665 70.8017 0
      vertex 115.427 67.5365 0
      vertex 115.5 68 0
    endloop
  endfacet
  facet normal 0 0 -1
    outer loop
      vertex 115.214 2.88168 0
      vertex 115.427 67.5365 0
      vertex 115.427 2.46353 0
    endloop
  endfacet
  facet normal 0 0 -1
    outer loop
      vertex 115.214 2.88168 0
      vertex 115.214 67.1183 0
      vertex 115.427 67.5365 0
    endloop
  endfacet
  facet normal 0 0 -1
    outer loop
      vertex 114.882 3.21353 0
      vertex 115.214 67.1183 0
      vertex 115.214 2.88168 0
    endloop
  endfacet
  facet normal 0 0 -1
    outer loop
      vertex 114.882 3.21353 0
      vertex 114.882 66.7865 0
      vertex 115.214 67.1183 0
    endloop
  endfacet
  facet normal 0 0 -1
    outer loop
      vertex 114.464 3.42659 0
      vertex 114.882 66.7865 0
      vertex 114.882 3.21353 0
    endloop
  endfacet
  facet normal 0 0 -1
    outer loop
      vertex 114.464 3.42659 0
      vertex 114.464 66.5734 0
      vertex 114.882 66.7865 0
    endloop
  endfacet
  facet normal 0 0 -1
    outer loop
      vertex 114 3.5 0
      vertex 114.464 66.5734 0
      vertex 114.464 3.42659 0
    endloop
  endfacet
  facet normal 0 0 -1
    outer loop
      vertex 114 3.5 0
      vertex 114 66.5 0
      vertex 114.464 66.5734 0
    endloop
  endfacet
  facet normal 0 0 -1
    outer loop
      vertex 113.536 3.42659 0
      vertex 114 66.5 0
      vertex 114 3.5 0
    endloop
  endfacet
  facet normal 0 0 -1
    outer loop
      vertex 113.536 3.42659 0
      vertex 113.536 66.5734 0
      vertex 114 66.5 0
    endloop
  endfacet
  facet normal 0 0 -1
    outer loop
      vertex 113.118 3.21353 0
      vertex 113.536 66.5734 0
      vertex 113.536 3.42659 0
    endloop
  endfacet
  facet normal 0 0 -1
    outer loop
      vertex 113.118 3.21353 0
      vertex 113.118 66.7865 0
      vertex 113.536 66.5734 0
    endloop
  endfacet
  facet normal 0 0 -1
    outer loop
      vertex 112.786 2.88168 0
      vertex 113.118 66.7865 0
      vertex 113.118 3.21353 0
    endloop
  endfacet
  facet normal 0 0 -1
    outer loop
      vertex 112.786 2.88168 0
      vertex 112.786 67.1183 0
      vertex 113.118 66.7865 0
    endloop
  endfacet
  facet normal 0 0 -1
    outer loop
      vertex 111.152 0 0
      vertex 112.786 2.88168 0
      vertex 112.573 2.46353 0
    endloop
  endfacet
  facet normal -0 0 -1
    outer loop
      vertex 112.786 2.88168 0
      vertex 111.152 0 0
      vertex 112.786 67.1183 0
    endloop
  endfacet
  facet normal 0 0 -1
    outer loop
      vertex 111.152 0 0
      vertex 112.573 2.46353 0
      vertex 112.5 2 0
    endloop
  endfacet
  facet normal 0 0 -1
    outer loop
      vertex 111.152 70 0
      vertex 112.786 67.1183 0
      vertex 111.152 0 0
    endloop
  endfacet
  facet normal 0 0 -1
    outer loop
      vertex 115.427 2.46353 0
      vertex 116.665 -0.801712 0
      vertex 115.5 2 0
    endloop
  endfacet
  facet normal 0 0 -1
    outer loop
      vertex 116.665 -0.801712 0
      vertex 115.427 1.53648 0
      vertex 115.5 2 0
    endloop
  endfacet
  facet normal 0 0 -1
    outer loop
      vertex 114.882 0.786475 0
      vertex 116.665 -0.801712 0
      vertex 115.411 -1.80143 0
    endloop
  endfacet
  facet normal 0 0 -1
    outer loop
      vertex 116.665 -0.801712 0
      vertex 115.214 1.11832 0
      vertex 115.427 1.53648 0
    endloop
  endfacet
  facet normal 0 0 -1
    outer loop
      vertex 116.665 -0.801712 0
      vertex 114.882 0.786475 0
      vertex 115.214 1.11832 0
    endloop
  endfacet
  facet normal 0 0 -1
    outer loop
      vertex 115.411 -1.80143 0
      vertex 114.464 0.573416 0
      vertex 114.882 0.786475 0
    endloop
  endfacet
  facet normal 0 0 -1
    outer loop
      vertex 115.411 -1.80143 0
      vertex 114 0.5 0
      vertex 114.464 0.573416 0
    endloop
  endfacet
  facet normal 0 0 -1
    outer loop
      vertex 113.411 -1.80143 0
      vertex 114 0.5 0
      vertex 115.411 -1.80143 0
    endloop
  endfacet
  facet normal -0 0 -1
    outer loop
      vertex 114 0.5 0
      vertex 113.411 -1.80143 0
      vertex 113.536 0.573416 0
    endloop
  endfacet
  facet normal 0 0 -1
    outer loop
      vertex 111.848 -1.44464 0
      vertex 113.536 0.573416 0
      vertex 113.411 -1.80143 0
    endloop
  endfacet
  facet normal -0 0 -1
    outer loop
      vertex 113.536 0.573416 0
      vertex 111.848 -1.44464 0
      vertex 113.118 0.786475 0
    endloop
  endfacet
  facet normal 0 0 -1
    outer loop
      vertex 111.152 0 0
      vertex 113.118 0.786475 0
      vertex 111.848 -1.44464 0
    endloop
  endfacet
  facet normal -0 0 -1
    outer loop
      vertex 112.573 1.53648 0
      vertex 111.152 0 0
      vertex 112.5 2 0
    endloop
  endfacet
  facet normal -0 0 -1
    outer loop
      vertex 112.786 1.11832 0
      vertex 111.152 0 0
      vertex 112.573 1.53648 0
    endloop
  endfacet
  facet normal -0 0 -1
    outer loop
      vertex 113.118 0.786475 0
      vertex 111.152 0 0
      vertex 112.786 1.11832 0
    endloop
  endfacet
  facet normal 0 0 -1
    outer loop
      vertex 116.665 -0.801712 0
      vertex 115.427 2.46353 0
      vertex 116.665 70.8017 0
    endloop
  endfacet
  facet normal 0 0 -1
    outer loop
      vertex 115.427 68.4635 0
      vertex 116.665 70.8017 0
      vertex 115.5 68 0
    endloop
  endfacet
  facet normal 0 0 -1
    outer loop
      vertex 115.214 68.8817 0
      vertex 116.665 70.8017 0
      vertex 115.427 68.4635 0
    endloop
  endfacet
  facet normal 0 0 -1
    outer loop
      vertex 114.882 69.2135 0
      vertex 116.665 70.8017 0
      vertex 115.214 68.8817 0
    endloop
  endfacet
  facet normal -0 0 -1
    outer loop
      vertex 116.665 70.8017 0
      vertex 114.882 69.2135 0
      vertex 115.411 71.8014 0
    endloop
  endfacet
  facet normal 0 0 -1
    outer loop
      vertex 114.464 69.4266 0
      vertex 115.411 71.8014 0
      vertex 114.882 69.2135 0
    endloop
  endfacet
  facet normal 0 0 -1
    outer loop
      vertex 114 69.5 0
      vertex 115.411 71.8014 0
      vertex 114.464 69.4266 0
    endloop
  endfacet
  facet normal 0 0 -1
    outer loop
      vertex 113.411 71.8014 0
      vertex 114 69.5 0
      vertex 113.536 69.4266 0
    endloop
  endfacet
  facet normal 0 0 -1
    outer loop
      vertex 114 69.5 0
      vertex 113.411 71.8014 0
      vertex 115.411 71.8014 0
    endloop
  endfacet
  facet normal 0 0 -1
    outer loop
      vertex 111.848 71.4446 0
      vertex 113.536 69.4266 0
      vertex 113.118 69.2135 0
    endloop
  endfacet
  facet normal 0 0 -1
    outer loop
      vertex 111.152 70 0
      vertex 113.118 69.2135 0
      vertex 112.786 68.8817 0
    endloop
  endfacet
  facet normal 0 0 -1
    outer loop
      vertex 111.152 70 0
      vertex 112.786 68.8817 0
      vertex 112.573 68.4635 0
    endloop
  endfacet
  facet normal 0 0 -1
    outer loop
      vertex 113.536 69.4266 0
      vertex 111.848 71.4446 0
      vertex 113.411 71.8014 0
    endloop
  endfacet
  facet normal 0 0 -1
    outer loop
      vertex 111.152 70 0
      vertex 112.573 68.4635 0
      vertex 112.5 68 0
    endloop
  endfacet
  facet normal 0 0 -1
    outer loop
      vertex 112.786 67.1183 0
      vertex 111.152 70 0
      vertex 112.573 67.5365 0
    endloop
  endfacet
  facet normal 0 0 -1
    outer loop
      vertex 112.573 67.5365 0
      vertex 111.152 70 0
      vertex 112.5 68 0
    endloop
  endfacet
  facet normal 0 0 -1
    outer loop
      vertex 113.118 69.2135 0
      vertex 111.152 70 0
      vertex 111.848 71.4446 0
    endloop
  endfacet
  facet normal -0 0 1
    outer loop
      vertex 115.427 2.46353 120
      vertex 116.453 -0.699908 120
      vertex 115.427 67.5365 120
    endloop
  endfacet
  facet normal 0 0 1
    outer loop
      vertex 116.453 -0.699908 120
      vertex 115.427 2.46353 120
      vertex 115.5 2 120
    endloop
  endfacet
  facet normal -0 0 1
    outer loop
      vertex 115.214 67.1183 120
      vertex 115.427 2.46353 120
      vertex 115.427 67.5365 120
    endloop
  endfacet
  facet normal 0 0 1
    outer loop
      vertex 115.214 67.1183 120
      vertex 115.214 2.88168 120
      vertex 115.427 2.46353 120
    endloop
  endfacet
  facet normal -0 0 1
    outer loop
      vertex 114.882 66.7865 120
      vertex 115.214 2.88168 120
      vertex 115.214 67.1183 120
    endloop
  endfacet
  facet normal 0 0 1
    outer loop
      vertex 114.882 66.7865 120
      vertex 114.882 3.21353 120
      vertex 115.214 2.88168 120
    endloop
  endfacet
  facet normal -0 0 1
    outer loop
      vertex 114.464 66.5734 120
      vertex 114.882 3.21353 120
      vertex 114.882 66.7865 120
    endloop
  endfacet
  facet normal 0 0 1
    outer loop
      vertex 114.464 66.5734 120
      vertex 114.464 3.42659 120
      vertex 114.882 3.21353 120
    endloop
  endfacet
  facet normal -0 0 1
    outer loop
      vertex 114 66.5 120
      vertex 114.464 3.42659 120
      vertex 114.464 66.5734 120
    endloop
  endfacet
  facet normal 0 0 1
    outer loop
      vertex 114 66.5 120
      vertex 114 3.5 120
      vertex 114.464 3.42659 120
    endloop
  endfacet
  facet normal 0 0 1
    outer loop
      vertex 113.536 66.5734 120
      vertex 114 3.5 120
      vertex 114 66.5 120
    endloop
  endfacet
  facet normal 0 0 1
    outer loop
      vertex 113.536 66.5734 120
      vertex 113.536 3.42659 120
      vertex 114 3.5 120
    endloop
  endfacet
  facet normal 0 0 1
    outer loop
      vertex 113.118 66.7865 120
      vertex 113.536 3.42659 120
      vertex 113.536 66.5734 120
    endloop
  endfacet
  facet normal 0 0 1
    outer loop
      vertex 113.118 66.7865 120
      vertex 113.118 3.21353 120
      vertex 113.536 3.42659 120
    endloop
  endfacet
  facet normal 0 0 1
    outer loop
      vertex 112.786 67.1183 120
      vertex 113.118 3.21353 120
      vertex 113.118 66.7865 120
    endloop
  endfacet
  facet normal 0 0 1
    outer loop
      vertex 112.786 67.1183 120
      vertex 112.786 2.88168 120
      vertex 113.118 3.21353 120
    endloop
  endfacet
  facet normal 0 0 1
    outer loop
      vertex 112.573 67.5365 120
      vertex 112.786 2.88168 120
      vertex 112.786 67.1183 120
    endloop
  endfacet
  facet normal 0 0 1
    outer loop
      vertex 112.573 67.5365 120
      vertex 112.573 2.46353 120
      vertex 112.786 2.88168 120
    endloop
  endfacet
  facet normal 0 0 1
    outer loop
      vertex 111.387 70 120
      vertex 112.573 67.5365 120
      vertex 112.5 68 120
    endloop
  endfacet
  facet normal 0 0 1
    outer loop
      vertex 112.573 67.5365 120
      vertex 111.387 70 120
      vertex 112.573 2.46353 120
    endloop
  endfacet
  facet normal 0 0 1
    outer loop
      vertex 115.427 67.5365 120
      vertex 116.453 70.6999 120
      vertex 115.5 68 120
    endloop
  endfacet
  facet normal 0 0 1
    outer loop
      vertex 114.882 69.2135 120
      vertex 116.453 70.6999 120
      vertex 115.472 71.4829 120
    endloop
  endfacet
  facet normal 0 0 1
    outer loop
      vertex 116.453 70.6999 120
      vertex 115.427 68.4635 120
      vertex 115.5 68 120
    endloop
  endfacet
  facet normal 0 0 1
    outer loop
      vertex 114.464 69.4266 120
      vertex 115.472 71.4829 120
      vertex 115.359 71.5727 120
    endloop
  endfacet
  facet normal 0 0 1
    outer loop
      vertex 116.453 70.6999 120
      vertex 115.214 68.8817 120
      vertex 115.427 68.4635 120
    endloop
  endfacet
  facet normal 0 0 1
    outer loop
      vertex 116.453 70.6999 120
      vertex 114.882 69.2135 120
      vertex 115.214 68.8817 120
    endloop
  endfacet
  facet normal 0 0 1
    outer loop
      vertex 115.472 71.4829 120
      vertex 114.464 69.4266 120
      vertex 114.882 69.2135 120
    endloop
  endfacet
  facet normal 0 0 1
    outer loop
      vertex 115.359 71.5727 120
      vertex 114 69.5 120
      vertex 114.464 69.4266 120
    endloop
  endfacet
  facet normal -0 0 1
    outer loop
      vertex 113.359 71.5727 120
      vertex 114 69.5 120
      vertex 115.359 71.5727 120
    endloop
  endfacet
  facet normal 0 0 1
    outer loop
      vertex 114 69.5 120
      vertex 113.359 71.5727 120
      vertex 113.536 69.4266 120
    endloop
  endfacet
  facet normal -0 0 1
    outer loop
      vertex 113.219 71.5406 120
      vertex 113.536 69.4266 120
      vertex 113.359 71.5727 120
    endloop
  endfacet
  facet normal -0 0 1
    outer loop
      vertex 111.932 71.1315 120
      vertex 113.536 69.4266 120
      vertex 113.219 71.5406 120
    endloop
  endfacet
  facet normal 0 0 1
    outer loop
      vertex 113.536 69.4266 120
      vertex 111.932 71.1315 120
      vertex 113.118 69.2135 120
    endloop
  endfacet
  facet normal -0 0 1
    outer loop
      vertex 111.387 70 120
      vertex 113.118 69.2135 120
      vertex 111.932 71.1315 120
    endloop
  endfacet
  facet normal 0 0 1
    outer loop
      vertex 112.786 68.8817 120
      vertex 111.387 70 120
      vertex 112.573 68.4635 120
    endloop
  endfacet
  facet normal 0 0 1
    outer loop
      vertex 113.118 69.2135 120
      vertex 111.387 70 120
      vertex 112.786 68.8817 120
    endloop
  endfacet
  facet normal 0 0 1
    outer loop
      vertex 111.932 71.1315 120
      vertex 113.219 71.5406 120
      vertex 111.994 71.2612 120
    endloop
  endfacet
  facet normal 0 0 1
    outer loop
      vertex 116.453 70.6999 120
      vertex 115.427 67.5365 120
      vertex 116.453 -0.699908 120
    endloop
  endfacet
  facet normal -0 0 1
    outer loop
      vertex 115.427 1.53648 120
      vertex 116.453 -0.699908 120
      vertex 115.5 2 120
    endloop
  endfacet
  facet normal -0 0 1
    outer loop
      vertex 115.214 1.11832 120
      vertex 116.453 -0.699908 120
      vertex 115.427 1.53648 120
    endloop
  endfacet
  facet normal -0 0 1
    outer loop
      vertex 114.882 0.786475 120
      vertex 116.453 -0.699908 120
      vertex 115.214 1.11832 120
    endloop
  endfacet
  facet normal 0 0 1
    outer loop
      vertex 116.453 -0.699908 120
      vertex 114.882 0.786475 120
      vertex 115.472 -1.48292 120
    endloop
  endfacet
  facet normal -0 0 1
    outer loop
      vertex 114.464 0.573416 120
      vertex 115.472 -1.48292 120
      vertex 114.882 0.786475 120
    endloop
  endfacet
  facet normal 0 0 1
    outer loop
      vertex 115.472 -1.48292 120
      vertex 114.464 0.573416 120
      vertex 115.359 -1.57268 120
    endloop
  endfacet
  facet normal -0 0 1
    outer loop
      vertex 114 0.5 120
      vertex 115.359 -1.57268 120
      vertex 114.464 0.573416 120
    endloop
  endfacet
  facet normal 0 0 1
    outer loop
      vertex 113.359 -1.57268 120
      vertex 114 0.5 120
      vertex 113.536 0.573416 120
    endloop
  endfacet
  facet normal 0 0 1
    outer loop
      vertex 114 0.5 120
      vertex 113.359 -1.57268 120
      vertex 115.359 -1.57268 120
    endloop
  endfacet
  facet normal 0 0 1
    outer loop
      vertex 113.536 0.573416 120
      vertex 113.219 -1.54064 120
      vertex 113.359 -1.57268 120
    endloop
  endfacet
  facet normal 0 0 1
    outer loop
      vertex 111.932 -1.13148 120
      vertex 113.536 0.573416 120
      vertex 113.118 0.786475 120
    endloop
  endfacet
  facet normal 0 0 1
    outer loop
      vertex 111.387 0 120
      vertex 113.118 0.786475 120
      vertex 112.786 1.11832 120
    endloop
  endfacet
  facet normal 0 0 1
    outer loop
      vertex 111.387 0 120
      vertex 112.786 1.11832 120
      vertex 112.573 1.53648 120
    endloop
  endfacet
  facet normal 0 0 1
    outer loop
      vertex 113.536 0.573416 120
      vertex 111.932 -1.13148 120
      vertex 113.219 -1.54064 120
    endloop
  endfacet
  facet normal 0 0 1
    outer loop
      vertex 111.387 0 120
      vertex 112.573 1.53648 120
      vertex 112.5 2 120
    endloop
  endfacet
  facet normal 0 0 1
    outer loop
      vertex 112.573 68.4635 120
      vertex 111.387 70 120
      vertex 112.5 68 120
    endloop
  endfacet
  facet normal 0 0 1
    outer loop
      vertex 111.387 0 120
      vertex 112.573 2.46353 120
      vertex 111.387 70 120
    endloop
  endfacet
  facet normal 0 0 1
    outer loop
      vertex 113.219 -1.54064 120
      vertex 111.932 -1.13148 120
      vertex 111.994 -1.26119 120
    endloop
  endfacet
  facet normal 0 0 1
    outer loop
      vertex 112.573 2.46353 120
      vertex 111.387 0 120
      vertex 112.5 2 120
    endloop
  endfacet
  facet normal 0 0 1
    outer loop
      vertex 113.118 0.786475 120
      vertex 111.387 0 120
      vertex 111.932 -1.13148 120
    endloop
  endfacet
  facet normal -1 0 0
    outer loop
      vertex 115 66.9048 14
      vertex 115 52.5 14
      vertex 115 66.9048 16
    endloop
  endfacet
  facet normal -1 0 0
    outer loop
      vertex 115 45.8164 43.5271
      vertex 115 68 16
      vertex 115 66.9048 16
    endloop
  endfacet
  facet normal -1 0 0
    outer loop
      vertex 115 45.023 41.7183
      vertex 115 66.9048 16
      vertex 115 52.5 14
    endloop
  endfacet
  facet normal -1 0 0
    outer loop
      vertex 115 45.4946 47.4102
      vertex 115 68 16
      vertex 115 45.9795 45.4955
    endloop
  endfacet
  facet normal -1 0 0
    outer loop
      vertex 115 2 16
      vertex 115 34.0205 45.4955
      vertex 115 3.0952 16
    endloop
  endfacet
  facet normal -1 -0 0
    outer loop
      vertex 115 34.0205 45.4955
      vertex 115 2 16
      vertex 115 34.5054 47.4102
    endloop
  endfacet
  facet normal -1 -0 0
    outer loop
      vertex 115 34.5054 47.4102
      vertex 115 2 16
      vertex 115 2 104
    endloop
  endfacet
  facet normal -1 0 0
    outer loop
      vertex 115 34.5054 47.4102
      vertex 115 2 104
      vertex 115 17.5 104
    endloop
  endfacet
  facet normal -1 0 0
    outer loop
      vertex 115 17.5 14
      vertex 115 52.5 14
      vertex 115 52.5 2
    endloop
  endfacet
  facet normal -1 0 0
    outer loop
      vertex 115 68 16
      vertex 115 45.4946 47.4102
      vertex 115 68 104
    endloop
  endfacet
  facet normal -1 0 0
    outer loop
      vertex 115 44.4143 49.0637
      vertex 115 68 104
      vertex 115 45.4946 47.4102
    endloop
  endfacet
  facet normal -1 0 0
    outer loop
      vertex 115 68 16
      vertex 115 45.8164 43.5271
      vertex 115 45.9795 45.4955
    endloop
  endfacet
  facet normal -1 0 0
    outer loop
      vertex 115 66.9048 16
      vertex 115 45.023 41.7183
      vertex 115 45.8164 43.5271
    endloop
  endfacet
  facet normal -1 0 0
    outer loop
      vertex 115 52.5 14
      vertex 115 43.6853 40.2652
      vertex 115 45.023 41.7183
    endloop
  endfacet
  facet normal -1 0 0
    outer loop
      vertex 115 52.5 14
      vertex 115 41.9482 39.3251
      vertex 115 43.6853 40.2652
    endloop
  endfacet
  facet normal -1 0 0
    outer loop
      vertex 115 52.5 14
      vertex 115 40 39
      vertex 115 41.9482 39.3251
    endloop
  endfacet
  facet normal -1 0 -0
    outer loop
      vertex 115 38.0518 39.3251
      vertex 115 52.5 14
      vertex 115 17.5 14
    endloop
  endfacet
  facet normal -1 0 0
    outer loop
      vertex 115 52.5 14
      vertex 115 38.0518 39.3251
      vertex 115 40 39
    endloop
  endfacet
  facet normal -1 -0 0
    outer loop
      vertex 115 38.0518 39.3251
      vertex 115 17.5 14
      vertex 115 36.3147 40.2652
    endloop
  endfacet
  facet normal -1 -0 0
    outer loop
      vertex 115 34.977 41.7183
      vertex 115 17.5 14
      vertex 115 34.1836 43.5271
    endloop
  endfacet
  facet normal -1 -0 0
    outer loop
      vertex 115 36.3147 40.2652
      vertex 115 17.5 14
      vertex 115 34.977 41.7183
    endloop
  endfacet
  facet normal -1 0 0
    outer loop
      vertex 115 17.5 14
      vertex 115 52.5 2
      vertex 115 17.5 2
    endloop
  endfacet
  facet normal -1 0 0
    outer loop
      vertex 115 42.8557 50.2768
      vertex 115 68 104
      vertex 115 44.4143 49.0637
    endloop
  endfacet
  facet normal -1 -0 0
    outer loop
      vertex 115 68 104
      vertex 115 42.8557 50.2768
      vertex 115 52.5 104
    endloop
  endfacet
  facet normal -1 0 0
    outer loop
      vertex 115 40.9876 50.9182
      vertex 115 52.5 104
      vertex 115 42.8557 50.2768
    endloop
  endfacet
  facet normal -1 0 0
    outer loop
      vertex 115 39.0124 50.9182
      vertex 115 52.5 104
      vertex 115 40.9876 50.9182
    endloop
  endfacet
  facet normal -1 -0 0
    outer loop
      vertex 115 52.5 104
      vertex 115 39.0124 50.9182
      vertex 115 17.5 104
    endloop
  endfacet
  facet normal -1 0 0
    outer loop
      vertex 115 17.5 104
      vertex 115 39.0124 50.9182
      vertex 115 37.1443 50.2768
    endloop
  endfacet
  facet normal -1 0 0
    outer loop
      vertex 115 17.5 104
      vertex 115 37.1443 50.2768
      vertex 115 35.5857 49.0637
    endloop
  endfacet
  facet normal -1 0 0
    outer loop
      vertex 115 17.5 104
      vertex 115 35.5857 49.0637
      vertex 115 34.5054 47.4102
    endloop
  endfacet
  facet normal -1 0 0
    outer loop
      vertex 115 3.0952 16
      vertex 115 17.5 14
      vertex 115 3.0952 14
    endloop
  endfacet
  facet normal -1 0 0
    outer loop
      vertex 115 17.5 14
      vertex 115 3.0952 16
      vertex 115 34.1836 43.5271
    endloop
  endfacet
  facet normal -1 -0 0
    outer loop
      vertex 115 34.1836 43.5271
      vertex 115 3.0952 16
      vertex 115 34.0205 45.4955
    endloop
  endfacet
  facet normal -1 0 0
    outer loop
      vertex 115 52.5 104
      vertex 115 17.5 104
      vertex 115 52.5 118
    endloop
  endfacet
  facet normal -1 -0 0
    outer loop
      vertex 115 52.5 118
      vertex 115 17.5 104
      vertex 115 17.5 118
    endloop
  endfacet
  facet normal 0 0 -1
    outer loop
      vertex 111.152 17.5 118
      vertex 115 52.5 118
      vertex 115 17.5 118
    endloop
  endfacet
  facet normal -0 0 -1
    outer loop
      vertex 115 52.5 118
      vertex 111.152 17.5 118
      vertex 111.152 52.5 118
    endloop
  endfacet
  facet normal 0 1 -0
    outer loop
      vertex 115 17.5 104
      vertex 111.152 17.5 118
      vertex 115 17.5 118
    endloop
  endfacet
  facet normal 0 1 0
    outer loop
      vertex 111.152 17.5 118
      vertex 115 17.5 104
      vertex 111.152 17.5 104
    endloop
  endfacet
  facet normal 0 1 -0
    outer loop
      vertex 115 17.5 2
      vertex 111.152 17.5 14
      vertex 115 17.5 14
    endloop
  endfacet
  facet normal 0 1 0
    outer loop
      vertex 111.152 17.5 14
      vertex 115 17.5 2
      vertex 111.152 17.5 2
    endloop
  endfacet
  facet normal -0 0 1
    outer loop
      vertex 111.152 52.5 2
      vertex 115 17.5 2
      vertex 115 52.5 2
    endloop
  endfacet
  facet normal 0 0 1
    outer loop
      vertex 115 17.5 2
      vertex 111.152 52.5 2
      vertex 111.152 17.5 2
    endloop
  endfacet
  facet normal 0 -1 0
    outer loop
      vertex 111.152 52.5 2
      vertex 115 52.5 14
      vertex 111.152 52.5 14
    endloop
  endfacet
  facet normal 0 -1 -0
    outer loop
      vertex 115 52.5 14
      vertex 111.152 52.5 2
      vertex 115 52.5 2
    endloop
  endfacet
  facet normal 0 -1 0
    outer loop
      vertex 111.152 52.5 104
      vertex 115 52.5 118
      vertex 111.152 52.5 118
    endloop
  endfacet
  facet normal 0 -1 -0
    outer loop
      vertex 115 52.5 118
      vertex 111.152 52.5 104
      vertex 115 52.5 104
    endloop
  endfacet
  facet normal 0 0 -1
    outer loop
      vertex 111.152 52.5 104
      vertex 115 68 104
      vertex 115 52.5 104
    endloop
  endfacet
  facet normal -0 0 -1
    outer loop
      vertex 115 68 104
      vertex 111.152 52.5 104
      vertex 111.152 68 104
    endloop
  endfacet
  facet normal 0 0 -1
    outer loop
      vertex 111.152 2 104
      vertex 115 17.5 104
      vertex 115 2 104
    endloop
  endfacet
  facet normal -0 0 -1
    outer loop
      vertex 115 17.5 104
      vertex 111.152 2 104
      vertex 111.152 17.5 104
    endloop
  endfacet
  facet normal 0 1 0
    outer loop
      vertex 112.5 2 16
      vertex 115 2 104
      vertex 115 2 16
    endloop
  endfacet
  facet normal 0 1 0
    outer loop
      vertex 115 2 104
      vertex 112.5 2 16
      vertex 111.152 2 104
    endloop
  endfacet
  facet normal 0 1 0
    outer loop
      vertex 111.152 2 14
      vertex 112.5 2 16
      vertex 112.5 2 14
    endloop
  endfacet
  facet normal 0 1 0
    outer loop
      vertex 112.5 2 16
      vertex 111.152 2 14
      vertex 111.152 2 104
    endloop
  endfacet
  facet normal -0 0 1
    outer loop
      vertex 114.882 66.7865 14
      vertex 115 52.5 14
      vertex 115 66.9048 14
    endloop
  endfacet
  facet normal -0 0 1
    outer loop
      vertex 114.464 66.5734 14
      vertex 115 52.5 14
      vertex 114.882 66.7865 14
    endloop
  endfacet
  facet normal -0 0 1
    outer loop
      vertex 114 66.5 14
      vertex 115 52.5 14
      vertex 114.464 66.5734 14
    endloop
  endfacet
  facet normal 0 0 1
    outer loop
      vertex 111.152 52.5 14
      vertex 114 66.5 14
      vertex 113.536 66.5734 14
    endloop
  endfacet
  facet normal 0 0 1
    outer loop
      vertex 111.152 52.5 14
      vertex 113.536 66.5734 14
      vertex 113.118 66.7865 14
    endloop
  endfacet
  facet normal 0 0 1
    outer loop
      vertex 111.152 68 14
      vertex 113.118 66.7865 14
      vertex 112.786 67.1183 14
    endloop
  endfacet
  facet normal 0 0 1
    outer loop
      vertex 111.152 68 14
      vertex 112.786 67.1183 14
      vertex 112.573 67.5365 14
    endloop
  endfacet
  facet normal -0 0 1
    outer loop
      vertex 111.152 68 14
      vertex 112.573 67.5365 14
      vertex 112.5 68 14
    endloop
  endfacet
  facet normal 0 0 1
    outer loop
      vertex 113.118 66.7865 14
      vertex 111.152 68 14
      vertex 111.152 52.5 14
    endloop
  endfacet
  facet normal 0 0 1
    outer loop
      vertex 114 66.5 14
      vertex 111.152 52.5 14
      vertex 115 52.5 14
    endloop
  endfacet
  facet normal 0 0 1
    outer loop
      vertex 115 17.5 14
      vertex 114.882 3.21353 14
      vertex 115 3.0952 14
    endloop
  endfacet
  facet normal 0 0 1
    outer loop
      vertex 115 17.5 14
      vertex 114.464 3.42659 14
      vertex 114.882 3.21353 14
    endloop
  endfacet
  facet normal 0 0 1
    outer loop
      vertex 115 17.5 14
      vertex 114 3.5 14
      vertex 114.464 3.42659 14
    endloop
  endfacet
  facet normal -0 0 1
    outer loop
      vertex 111.152 17.5 14
      vertex 114 3.5 14
      vertex 115 17.5 14
    endloop
  endfacet
  facet normal 0 0 1
    outer loop
      vertex 114 3.5 14
      vertex 111.152 17.5 14
      vertex 113.536 3.42659 14
    endloop
  endfacet
  facet normal 0 0 1
    outer loop
      vertex 113.536 3.42659 14
      vertex 111.152 17.5 14
      vertex 113.118 3.21353 14
    endloop
  endfacet
  facet normal 0 0 1
    outer loop
      vertex 111.152 2 14
      vertex 113.118 3.21353 14
      vertex 111.152 17.5 14
    endloop
  endfacet
  facet normal 0 0 1
    outer loop
      vertex 113.118 3.21353 14
      vertex 111.152 2 14
      vertex 112.786 2.88168 14
    endloop
  endfacet
  facet normal 0 0 1
    outer loop
      vertex 112.786 2.88168 14
      vertex 111.152 2 14
      vertex 112.573 2.46353 14
    endloop
  endfacet
  facet normal 0 0 1
    outer loop
      vertex 112.573 2.46353 14
      vertex 111.152 2 14
      vertex 112.5 2 14
    endloop
  endfacet
  facet normal 0 -1 0
    outer loop
      vertex 111.152 68 104
      vertex 112.5 68 16
      vertex 115 68 104
    endloop
  endfacet
  facet normal 0 -1 0
    outer loop
      vertex 111.152 68 14
      vertex 112.5 68 16
      vertex 111.152 68 104
    endloop
  endfacet
  facet normal 0 -1 -0
    outer loop
      vertex 112.5 68 16
      vertex 111.152 68 14
      vertex 112.5 68 14
    endloop
  endfacet
  facet normal 0 -1 -0
    outer loop
      vertex 115 68 104
      vertex 112.5 68 16
      vertex 115 68 16
    endloop
  endfacet
  facet normal 0 -0.164596 0.986361
    outer loop
      vertex 115 41.9482 39.3251
      vertex 116.665 40 39
      vertex 116.665 41.9482 39.3251
    endloop
  endfacet
  facet normal 0 -0.164596 0.986361
    outer loop
      vertex 116.665 40 39
      vertex 115 41.9482 39.3251
      vertex 115 40 39
    endloop
  endfacet
  facet normal 0 0 -1
    outer loop
      vertex 115 39.0124 50.9182
      vertex 116.665 40.9876 50.9182
      vertex 116.665 39.0124 50.9182
    endloop
  endfacet
  facet normal -0 0 -1
    outer loop
      vertex 116.665 40.9876 50.9182
      vertex 115 39.0124 50.9182
      vertex 115 40.9876 50.9182
    endloop
  endfacet
  facet normal 0 0.996585 0.0825762
    outer loop
      vertex 116.665 34.1836 43.5271
      vertex 115 34.0205 45.4955
      vertex 116.665 34.0205 45.4955
    endloop
  endfacet
  facet normal 0 0.996585 0.0825762
    outer loop
      vertex 115 34.0205 45.4955
      vertex 116.665 34.1836 43.5271
      vertex 115 34.1836 43.5271
    endloop
  endfacet
  facet normal 0 0.837163 -0.546953
    outer loop
      vertex 116.665 34.5054 47.4102
      vertex 115 35.5857 49.0637
      vertex 116.665 35.5857 49.0637
    endloop
  endfacet
  facet normal 0 0.837163 -0.546953
    outer loop
      vertex 115 35.5857 49.0637
      vertex 116.665 34.5054 47.4102
      vertex 115 34.5054 47.4102
    endloop
  endfacet
  facet normal 0 -0.475959 0.879468
    outer loop
      vertex 115 43.6853 40.2652
      vertex 116.665 41.9482 39.3251
      vertex 116.665 43.6853 40.2652
    endloop
  endfacet
  facet normal 0 -0.475959 0.879468
    outer loop
      vertex 116.665 41.9482 39.3251
      vertex 115 43.6853 40.2652
      vertex 115 41.9482 39.3251
    endloop
  endfacet
  facet normal 0 -0.915776 0.40169
    outer loop
      vertex 115 45.023 41.7183
      vertex 116.665 45.8164 43.5271
      vertex 115 45.8164 43.5271
    endloop
  endfacet
  facet normal 0 -0.915776 0.40169
    outer loop
      vertex 116.665 45.8164 43.5271
      vertex 115 45.023 41.7183
      vertex 116.665 45.023 41.7183
    endloop
  endfacet
  facet normal 0 -0.61421 -0.789142
    outer loop
      vertex 115 42.8557 50.2768
      vertex 116.665 44.4143 49.0637
      vertex 116.665 42.8557 50.2768
    endloop
  endfacet
  facet normal -0 -0.61421 -0.789142
    outer loop
      vertex 116.665 44.4143 49.0637
      vertex 115 42.8557 50.2768
      vertex 115 44.4143 49.0637
    endloop
  endfacet
  facet normal 0 -0.324736 -0.945805
    outer loop
      vertex 115 40.9876 50.9182
      vertex 116.665 42.8557 50.2768
      vertex 116.665 40.9876 50.9182
    endloop
  endfacet
  facet normal -0 -0.324736 -0.945805
    outer loop
      vertex 116.665 42.8557 50.2768
      vertex 115 40.9876 50.9182
      vertex 115 42.8557 50.2768
    endloop
  endfacet
  facet normal 0 -0.969396 -0.245501
    outer loop
      vertex 115 45.9795 45.4955
      vertex 116.665 45.4946 47.4102
      vertex 115 45.4946 47.4102
    endloop
  endfacet
  facet normal 0 -0.969396 -0.245501
    outer loop
      vertex 116.665 45.4946 47.4102
      vertex 115 45.9795 45.4955
      vertex 116.665 45.9795 45.4955
    endloop
  endfacet
  facet normal -0 0.164596 0.986361
    outer loop
      vertex 115 40 39
      vertex 116.665 38.0518 39.3251
      vertex 116.665 40 39
    endloop
  endfacet
  facet normal 0 0.164596 0.986361
    outer loop
      vertex 116.665 38.0518 39.3251
      vertex 115 40 39
      vertex 115 38.0518 39.3251
    endloop
  endfacet
  facet normal 0 0.915776 0.40169
    outer loop
      vertex 116.665 34.977 41.7183
      vertex 115 34.1836 43.5271
      vertex 116.665 34.1836 43.5271
    endloop
  endfacet
  facet normal 0 0.915776 0.40169
    outer loop
      vertex 115 34.1836 43.5271
      vertex 116.665 34.977 41.7183
      vertex 115 34.977 41.7183
    endloop
  endfacet
  facet normal -0 0.475959 0.879468
    outer loop
      vertex 115 38.0518 39.3251
      vertex 116.665 36.3147 40.2652
      vertex 116.665 38.0518 39.3251
    endloop
  endfacet
  facet normal 0 0.475959 0.879468
    outer loop
      vertex 116.665 36.3147 40.2652
      vertex 115 38.0518 39.3251
      vertex 115 36.3147 40.2652
    endloop
  endfacet
  facet normal 0 0.969396 -0.245501
    outer loop
      vertex 116.665 34.0205 45.4955
      vertex 115 34.5054 47.4102
      vertex 116.665 34.5054 47.4102
    endloop
  endfacet
  facet normal 0 0.969396 -0.245501
    outer loop
      vertex 115 34.5054 47.4102
      vertex 116.665 34.0205 45.4955
      vertex 115 34.0205 45.4955
    endloop
  endfacet
  facet normal 0 0.324736 -0.945805
    outer loop
      vertex 115 37.1443 50.2768
      vertex 116.665 39.0124 50.9182
      vertex 116.665 37.1443 50.2768
    endloop
  endfacet
  facet normal 0 0.324736 -0.945805
    outer loop
      vertex 116.665 39.0124 50.9182
      vertex 115 37.1443 50.2768
      vertex 115 39.0124 50.9182
    endloop
  endfacet
  facet normal 0 -0.735717 0.677289
    outer loop
      vertex 115 43.6853 40.2652
      vertex 116.665 45.023 41.7183
      vertex 115 45.023 41.7183
    endloop
  endfacet
  facet normal 0 -0.735717 0.677289
    outer loop
      vertex 116.665 45.023 41.7183
      vertex 115 43.6853 40.2652
      vertex 116.665 43.6853 40.2652
    endloop
  endfacet
  facet normal 0 -0.996585 0.0825762
    outer loop
      vertex 115 45.8164 43.5271
      vertex 116.665 45.9795 45.4955
      vertex 115 45.9795 45.4955
    endloop
  endfacet
  facet normal 0 -0.996585 0.0825762
    outer loop
      vertex 116.665 45.9795 45.4955
      vertex 115 45.8164 43.5271
      vertex 116.665 45.8164 43.5271
    endloop
  endfacet
  facet normal 0 -0.837163 -0.546953
    outer loop
      vertex 115 45.4946 47.4102
      vertex 116.665 44.4143 49.0637
      vertex 115 44.4143 49.0637
    endloop
  endfacet
  facet normal 0 -0.837163 -0.546953
    outer loop
      vertex 116.665 44.4143 49.0637
      vertex 115 45.4946 47.4102
      vertex 116.665 45.4946 47.4102
    endloop
  endfacet
  facet normal 0 0.735717 0.677289
    outer loop
      vertex 116.665 36.3147 40.2652
      vertex 115 34.977 41.7183
      vertex 116.665 34.977 41.7183
    endloop
  endfacet
  facet normal 0 0.735717 0.677289
    outer loop
      vertex 115 34.977 41.7183
      vertex 116.665 36.3147 40.2652
      vertex 115 36.3147 40.2652
    endloop
  endfacet
  facet normal 0 0.61421 -0.789142
    outer loop
      vertex 115 35.5857 49.0637
      vertex 116.665 37.1443 50.2768
      vertex 116.665 35.5857 49.0637
    endloop
  endfacet
  facet normal 0 0.61421 -0.789142
    outer loop
      vertex 116.665 37.1443 50.2768
      vertex 115 35.5857 49.0637
      vertex 115 37.1443 50.2768
    endloop
  endfacet
endsolid OpenSCAD_Model
