solid OpenSCAD_Model
  facet normal -1 0 0
    outer loop
      vertex -65 -65 -10
      vertex -65 65 10
      vertex -65 65 -10
    endloop
  endfacet
  facet normal -1 -0 0
    outer loop
      vertex -65 65 10
      vertex -65 -65 -10
      vertex -65 -65 10
    endloop
  endfacet
  facet normal 0 0 1
    outer loop
      vertex 65 65 10
      vertex 64 64 10
      vertex 65 -65 10
    endloop
  endfacet
  facet normal 0 0 1
    outer loop
      vertex 65 65 10
      vertex -64 64 10
      vertex 64 64 10
    endloop
  endfacet
  facet normal 0 0 1
    outer loop
      vertex -64 64 10
      vertex -65 65 10
      vertex -64 -64 10
    endloop
  endfacet
  facet normal -0 0 1
    outer loop
      vertex -65 65 10
      vertex -64 64 10
      vertex 65 65 10
    endloop
  endfacet
  facet normal -0 0 1
    outer loop
      vertex 64 -64 10
      vertex 65 -65 10
      vertex 64 64 10
    endloop
  endfacet
  facet normal -0 0 1
    outer loop
      vertex -64 -64 10
      vertex 65 -65 10
      vertex 64 -64 10
    endloop
  endfacet
  facet normal 0 0 1
    outer loop
      vertex -64 -64 10
      vertex -65 -65 10
      vertex 65 -65 10
    endloop
  endfacet
  facet normal 0 0 1
    outer loop
      vertex -65 -65 10
      vertex -64 -64 10
      vertex -65 65 10
    endloop
  endfacet
  facet normal 1 -0 0
    outer loop
      vertex 65 -65 10
      vertex 65 65 -10
      vertex 65 65 10
    endloop
  endfacet
  facet normal 1 0 0
    outer loop
      vertex 65 65 -10
      vertex 65 -65 10
      vertex 65 -65 -10
    endloop
  endfacet
  facet normal 0 0 -1
    outer loop
      vertex -65 -65 -10
      vertex 65 65 -10
      vertex 65 -65 -10
    endloop
  endfacet
  facet normal -0 0 -1
    outer loop
      vertex 65 65 -10
      vertex -65 -65 -10
      vertex -65 65 -10
    endloop
  endfacet
  facet normal 0 -1 0
    outer loop
      vertex -65 -65 -10
      vertex 65 -65 10
      vertex -65 -65 10
    endloop
  endfacet
  facet normal 0 -1 -0
    outer loop
      vertex 65 -65 10
      vertex -65 -65 -10
      vertex 65 -65 -10
    endloop
  endfacet
  facet normal 0 1 -0
    outer loop
      vertex 65 65 -10
      vertex -65 65 10
      vertex 65 65 10
    endloop
  endfacet
  facet normal 0 1 0
    outer loop
      vertex -65 65 10
      vertex 65 65 -10
      vertex -65 65 -10
    endloop
  endfacet
  facet normal 1 0 0
    outer loop
      vertex -64 64 10
      vertex -64 57 9.5
      vertex -64 64 9.5
    endloop
  endfacet
  facet normal 1 0 0
    outer loop
      vertex -64 57 9.5
      vertex -64 -57 9.5
      vertex -64 57 -9
    endloop
  endfacet
  facet normal 1 0 0
    outer loop
      vertex -64 64 10
      vertex -64 -57 9.5
      vertex -64 57 9.5
    endloop
  endfacet
  facet normal 1 -0 0
    outer loop
      vertex -64 -64 10
      vertex -64 -57 9.5
      vertex -64 64 10
    endloop
  endfacet
  facet normal 1 0 0
    outer loop
      vertex -64 -57 9.5
      vertex -64 -64 10
      vertex -64 -64 9.5
    endloop
  endfacet
  facet normal 1 0 0
    outer loop
      vertex -64 57 -9
      vertex -64 -57 9.5
      vertex -64 -57 -9
    endloop
  endfacet
  facet normal -1 0 0
    outer loop
      vertex 64 57 -9
      vertex 64 -57 -9
      vertex 64 57 9.5
    endloop
  endfacet
  facet normal -1 0 0
    outer loop
      vertex 64 57 9.5
      vertex 64 64 10
      vertex 64 64 9.5
    endloop
  endfacet
  facet normal -1 0 0
    outer loop
      vertex 64 -57 9.5
      vertex 64 57 9.5
      vertex 64 -57 -9
    endloop
  endfacet
  facet normal -1 0 0
    outer loop
      vertex 64 -57 9.5
      vertex 64 64 10
      vertex 64 57 9.5
    endloop
  endfacet
  facet normal -1 0 0
    outer loop
      vertex 64 -64 10
      vertex 64 -57 9.5
      vertex 64 -64 9.5
    endloop
  endfacet
  facet normal -1 0 0
    outer loop
      vertex 64 -57 9.5
      vertex 64 -64 10
      vertex 64 64 10
    endloop
  endfacet
  facet normal 0 -1 0
    outer loop
      vertex -57 64 -9
      vertex 57 64 9.5
      vertex -57 64 9.5
    endloop
  endfacet
  facet normal 0 -1 -0
    outer loop
      vertex 57 64 9.5
      vertex -57 64 -9
      vertex 57 64 -9
    endloop
  endfacet
  facet normal 0 -1 0
    outer loop
      vertex -57 64 9.5
      vertex -64 64 10
      vertex -64 64 9.5
    endloop
  endfacet
  facet normal 0 -1 0
    outer loop
      vertex -64 64 10
      vertex -57 64 9.5
      vertex 64 64 10
    endloop
  endfacet
  facet normal 0 -1 0
    outer loop
      vertex 57 64 9.5
      vertex 64 64 10
      vertex -57 64 9.5
    endloop
  endfacet
  facet normal 0 -1 -0
    outer loop
      vertex 64 64 10
      vertex 57 64 9.5
      vertex 64 64 9.5
    endloop
  endfacet
  facet normal -0 0 1
    outer loop
      vertex -64 57 -9
      vertex -57 -57 -9
      vertex -57 57 -9
    endloop
  endfacet
  facet normal 0 0 1
    outer loop
      vertex -57 -57 -9
      vertex -64 57 -9
      vertex -64 -57 -9
    endloop
  endfacet
  facet normal 0 0 1
    outer loop
      vertex -57 57 -9
      vertex 57 57 -9
      vertex 57 64 -9
    endloop
  endfacet
  facet normal 0 0 1
    outer loop
      vertex 57 57 -9
      vertex -57 57 -9
      vertex 57 -57 -9
    endloop
  endfacet
  facet normal 0 0 1
    outer loop
      vertex -57 57 -9
      vertex 57 64 -9
      vertex -57 64 -9
    endloop
  endfacet
  facet normal 0 0 1
    outer loop
      vertex -57 -57 -9
      vertex 57 -57 -9
      vertex -57 57 -9
    endloop
  endfacet
  facet normal 0 0 1
    outer loop
      vertex 57 -57 -9
      vertex -57 -57 -9
      vertex 57 -64 -9
    endloop
  endfacet
  facet normal 0 0 1
    outer loop
      vertex 57 -64 -9
      vertex -57 -57 -9
      vertex -57 -64 -9
    endloop
  endfacet
  facet normal -0 0 1
    outer loop
      vertex 57 57 -9
      vertex 64 -57 -9
      vertex 64 57 -9
    endloop
  endfacet
  facet normal 0 0 1
    outer loop
      vertex 64 -57 -9
      vertex 57 57 -9
      vertex 57 -57 -9
    endloop
  endfacet
  facet normal 0 0 1
    outer loop
      vertex 61.4635 62.4266 -9
      vertex 61.4635 59.5734 -9
      vertex 62.5 61 -9
    endloop
  endfacet
  facet normal -0 0 1
    outer loop
      vertex 59.7865 61.8817 -9
      vertex 61.4635 59.5734 -9
      vertex 61.4635 62.4266 -9
    endloop
  endfacet
  facet normal 0 0 1
    outer loop
      vertex 61.4635 59.5734 -9
      vertex 59.7865 61.8817 -9
      vertex 59.7865 60.1183 -9
    endloop
  endfacet
  facet normal 0 0 1
    outer loop
      vertex -60.5365 62.4266 -9
      vertex -60.5365 59.5734 -9
      vertex -59.5 61 -9
    endloop
  endfacet
  facet normal -0 0 1
    outer loop
      vertex -62.2135 61.8817 -9
      vertex -60.5365 59.5734 -9
      vertex -60.5365 62.4266 -9
    endloop
  endfacet
  facet normal 0 0 1
    outer loop
      vertex -60.5365 59.5734 -9
      vertex -62.2135 61.8817 -9
      vertex -62.2135 60.1183 -9
    endloop
  endfacet
  facet normal 0 0 1
    outer loop
      vertex 61.4635 -59.5734 -9
      vertex 61.4635 -62.4266 -9
      vertex 62.5 -61 -9
    endloop
  endfacet
  facet normal -0 0 1
    outer loop
      vertex 59.7865 -60.1183 -9
      vertex 61.4635 -62.4266 -9
      vertex 61.4635 -59.5734 -9
    endloop
  endfacet
  facet normal 0 0 1
    outer loop
      vertex 61.4635 -62.4266 -9
      vertex 59.7865 -60.1183 -9
      vertex 59.7865 -61.8817 -9
    endloop
  endfacet
  facet normal 0 0 1
    outer loop
      vertex -60.5365 -59.5734 -9
      vertex -60.5365 -62.4266 -9
      vertex -59.5 -61 -9
    endloop
  endfacet
  facet normal -0 0 1
    outer loop
      vertex -62.2135 -60.1183 -9
      vertex -60.5365 -62.4266 -9
      vertex -60.5365 -59.5734 -9
    endloop
  endfacet
  facet normal 0 0 1
    outer loop
      vertex -60.5365 -62.4266 -9
      vertex -62.2135 -60.1183 -9
      vertex -62.2135 -61.8817 -9
    endloop
  endfacet
  facet normal 0 1 -0
    outer loop
      vertex 57 -64 -9
      vertex -57 -64 9.5
      vertex 57 -64 9.5
    endloop
  endfacet
  facet normal 0 1 0
    outer loop
      vertex -57 -64 9.5
      vertex 57 -64 -9
      vertex -57 -64 -9
    endloop
  endfacet
  facet normal 0 1 0
    outer loop
      vertex 57 -64 9.5
      vertex 64 -64 10
      vertex 64 -64 9.5
    endloop
  endfacet
  facet normal 0 1 0
    outer loop
      vertex 64 -64 10
      vertex 57 -64 9.5
      vertex -64 -64 10
    endloop
  endfacet
  facet normal 0 1 -0
    outer loop
      vertex -57 -64 9.5
      vertex -64 -64 10
      vertex 57 -64 9.5
    endloop
  endfacet
  facet normal 0 1 0
    outer loop
      vertex -64 -64 10
      vertex -57 -64 9.5
      vertex -64 -64 9.5
    endloop
  endfacet
  facet normal -1 0 0
    outer loop
      vertex 57 57 -9
      vertex 57 64 9.5
      vertex 57 64 -9
    endloop
  endfacet
  facet normal -1 -0 0
    outer loop
      vertex 57 64 9.5
      vertex 57 57 -9
      vertex 57 57 9.5
    endloop
  endfacet
  facet normal 0 0 1
    outer loop
      vertex 64 64 9.5
      vertex 62.5 61 9.5
      vertex 64 57 9.5
    endloop
  endfacet
  facet normal 0 0 1
    outer loop
      vertex 64 64 9.5
      vertex 61.4635 62.4266 9.5
      vertex 62.5 61 9.5
    endloop
  endfacet
  facet normal -0 0 1
    outer loop
      vertex 57 64 9.5
      vertex 61.4635 62.4266 9.5
      vertex 64 64 9.5
    endloop
  endfacet
  facet normal 0 0 1
    outer loop
      vertex 59.7865 61.8817 9.5
      vertex 57 64 9.5
      vertex 59.7865 60.1183 9.5
    endloop
  endfacet
  facet normal 0 0 1
    outer loop
      vertex 61.4635 62.4266 9.5
      vertex 57 64 9.5
      vertex 59.7865 61.8817 9.5
    endloop
  endfacet
  facet normal -0 0 1
    outer loop
      vertex 61.4635 59.5734 9.5
      vertex 64 57 9.5
      vertex 62.5 61 9.5
    endloop
  endfacet
  facet normal 0 0 1
    outer loop
      vertex 57 57 9.5
      vertex 61.4635 59.5734 9.5
      vertex 59.7865 60.1183 9.5
    endloop
  endfacet
  facet normal 0 0 1
    outer loop
      vertex 61.4635 59.5734 9.5
      vertex 57 57 9.5
      vertex 64 57 9.5
    endloop
  endfacet
  facet normal 0 0 1
    outer loop
      vertex 57 57 9.5
      vertex 59.7865 60.1183 9.5
      vertex 57 64 9.5
    endloop
  endfacet
  facet normal 0 -1 0
    outer loop
      vertex 57 57 -9
      vertex 64 57 9.5
      vertex 57 57 9.5
    endloop
  endfacet
  facet normal 0 -1 -0
    outer loop
      vertex 64 57 9.5
      vertex 57 57 -9
      vertex 64 57 -9
    endloop
  endfacet
  facet normal -0.809013 -0.587791 0
    outer loop
      vertex 62.5 61 -9
      vertex 61.4635 62.4266 9.5
      vertex 61.4635 62.4266 -9
    endloop
  endfacet
  facet normal -0.809013 -0.587791 0
    outer loop
      vertex 61.4635 62.4266 9.5
      vertex 62.5 61 -9
      vertex 62.5 61 9.5
    endloop
  endfacet
  facet normal 1 -0 0
    outer loop
      vertex 59.7865 60.1183 9.5
      vertex 59.7865 61.8817 -9
      vertex 59.7865 61.8817 9.5
    endloop
  endfacet
  facet normal 1 0 0
    outer loop
      vertex 59.7865 61.8817 -9
      vertex 59.7865 60.1183 9.5
      vertex 59.7865 60.1183 -9
    endloop
  endfacet
  facet normal 0.309022 -0.951055 0
    outer loop
      vertex 59.7865 61.8817 -9
      vertex 61.4635 62.4266 9.5
      vertex 59.7865 61.8817 9.5
    endloop
  endfacet
  facet normal 0.309022 -0.951055 0
    outer loop
      vertex 61.4635 62.4266 9.5
      vertex 59.7865 61.8817 -9
      vertex 61.4635 62.4266 -9
    endloop
  endfacet
  facet normal 0.309022 0.951055 -0
    outer loop
      vertex 61.4635 59.5734 -9
      vertex 59.7865 60.1183 9.5
      vertex 61.4635 59.5734 9.5
    endloop
  endfacet
  facet normal 0.309022 0.951055 0
    outer loop
      vertex 59.7865 60.1183 9.5
      vertex 61.4635 59.5734 -9
      vertex 59.7865 60.1183 -9
    endloop
  endfacet
  facet normal -0.809013 0.587791 0
    outer loop
      vertex 61.4635 59.5734 -9
      vertex 62.5 61 9.5
      vertex 62.5 61 -9
    endloop
  endfacet
  facet normal -0.809013 0.587791 0
    outer loop
      vertex 62.5 61 9.5
      vertex 61.4635 59.5734 -9
      vertex 61.4635 59.5734 9.5
    endloop
  endfacet
  facet normal 0 0 1
    outer loop
      vertex -57 64 9.5
      vertex -59.5 61 9.5
      vertex -57 57 9.5
    endloop
  endfacet
  facet normal 0 0 1
    outer loop
      vertex -57 64 9.5
      vertex -60.5365 62.4266 9.5
      vertex -59.5 61 9.5
    endloop
  endfacet
  facet normal -0 0 1
    outer loop
      vertex -64 64 9.5
      vertex -60.5365 62.4266 9.5
      vertex -57 64 9.5
    endloop
  endfacet
  facet normal 0 0 1
    outer loop
      vertex -62.2135 61.8817 9.5
      vertex -64 64 9.5
      vertex -62.2135 60.1183 9.5
    endloop
  endfacet
  facet normal 0 0 1
    outer loop
      vertex -60.5365 62.4266 9.5
      vertex -64 64 9.5
      vertex -62.2135 61.8817 9.5
    endloop
  endfacet
  facet normal -0 0 1
    outer loop
      vertex -60.5365 59.5734 9.5
      vertex -57 57 9.5
      vertex -59.5 61 9.5
    endloop
  endfacet
  facet normal 0 0 1
    outer loop
      vertex -64 57 9.5
      vertex -60.5365 59.5734 9.5
      vertex -62.2135 60.1183 9.5
    endloop
  endfacet
  facet normal 0 0 1
    outer loop
      vertex -60.5365 59.5734 9.5
      vertex -64 57 9.5
      vertex -57 57 9.5
    endloop
  endfacet
  facet normal 0 0 1
    outer loop
      vertex -64 57 9.5
      vertex -62.2135 60.1183 9.5
      vertex -64 64 9.5
    endloop
  endfacet
  facet normal 1 -0 0
    outer loop
      vertex -57 57 9.5
      vertex -57 64 -9
      vertex -57 64 9.5
    endloop
  endfacet
  facet normal 1 0 0
    outer loop
      vertex -57 64 -9
      vertex -57 57 9.5
      vertex -57 57 -9
    endloop
  endfacet
  facet normal 0 -1 0
    outer loop
      vertex -64 57 -9
      vertex -57 57 9.5
      vertex -64 57 9.5
    endloop
  endfacet
  facet normal 0 -1 -0
    outer loop
      vertex -57 57 9.5
      vertex -64 57 -9
      vertex -57 57 -9
    endloop
  endfacet
  facet normal -0.809013 -0.587791 0
    outer loop
      vertex -59.5 61 -9
      vertex -60.5365 62.4266 9.5
      vertex -60.5365 62.4266 -9
    endloop
  endfacet
  facet normal -0.809013 -0.587791 0
    outer loop
      vertex -60.5365 62.4266 9.5
      vertex -59.5 61 -9
      vertex -59.5 61 9.5
    endloop
  endfacet
  facet normal 1 -0 0
    outer loop
      vertex -62.2135 60.1183 9.5
      vertex -62.2135 61.8817 -9
      vertex -62.2135 61.8817 9.5
    endloop
  endfacet
  facet normal 1 0 0
    outer loop
      vertex -62.2135 61.8817 -9
      vertex -62.2135 60.1183 9.5
      vertex -62.2135 60.1183 -9
    endloop
  endfacet
  facet normal 0.309022 -0.951055 0
    outer loop
      vertex -62.2135 61.8817 -9
      vertex -60.5365 62.4266 9.5
      vertex -62.2135 61.8817 9.5
    endloop
  endfacet
  facet normal 0.309022 -0.951055 0
    outer loop
      vertex -60.5365 62.4266 9.5
      vertex -62.2135 61.8817 -9
      vertex -60.5365 62.4266 -9
    endloop
  endfacet
  facet normal 0.309022 0.951055 -0
    outer loop
      vertex -60.5365 59.5734 -9
      vertex -62.2135 60.1183 9.5
      vertex -60.5365 59.5734 9.5
    endloop
  endfacet
  facet normal 0.309022 0.951055 0
    outer loop
      vertex -62.2135 60.1183 9.5
      vertex -60.5365 59.5734 -9
      vertex -62.2135 60.1183 -9
    endloop
  endfacet
  facet normal -0.809013 0.587791 0
    outer loop
      vertex -60.5365 59.5734 -9
      vertex -59.5 61 9.5
      vertex -59.5 61 -9
    endloop
  endfacet
  facet normal -0.809013 0.587791 0
    outer loop
      vertex -59.5 61 9.5
      vertex -60.5365 59.5734 -9
      vertex -60.5365 59.5734 9.5
    endloop
  endfacet
  facet normal -1 0 0
    outer loop
      vertex 57 -64 -9
      vertex 57 -57 9.5
      vertex 57 -57 -9
    endloop
  endfacet
  facet normal -1 -0 0
    outer loop
      vertex 57 -57 9.5
      vertex 57 -64 -9
      vertex 57 -64 9.5
    endloop
  endfacet
  facet normal 0 0 1
    outer loop
      vertex 64 -57 9.5
      vertex 62.5 -61 9.5
      vertex 64 -64 9.5
    endloop
  endfacet
  facet normal 0 0 1
    outer loop
      vertex 64 -57 9.5
      vertex 61.4635 -59.5734 9.5
      vertex 62.5 -61 9.5
    endloop
  endfacet
  facet normal -0 0 1
    outer loop
      vertex 57 -57 9.5
      vertex 61.4635 -59.5734 9.5
      vertex 64 -57 9.5
    endloop
  endfacet
  facet normal 0 0 1
    outer loop
      vertex 57 -64 9.5
      vertex 59.7865 -60.1183 9.5
      vertex 57 -57 9.5
    endloop
  endfacet
  facet normal 0 0 1
    outer loop
      vertex 61.4635 -59.5734 9.5
      vertex 57 -57 9.5
      vertex 59.7865 -60.1183 9.5
    endloop
  endfacet
  facet normal -0 0 1
    outer loop
      vertex 61.4635 -62.4266 9.5
      vertex 64 -64 9.5
      vertex 62.5 -61 9.5
    endloop
  endfacet
  facet normal 0 0 1
    outer loop
      vertex 57 -64 9.5
      vertex 61.4635 -62.4266 9.5
      vertex 59.7865 -61.8817 9.5
    endloop
  endfacet
  facet normal 0 0 1
    outer loop
      vertex 61.4635 -62.4266 9.5
      vertex 57 -64 9.5
      vertex 64 -64 9.5
    endloop
  endfacet
  facet normal 0 0 1
    outer loop
      vertex 59.7865 -60.1183 9.5
      vertex 57 -64 9.5
      vertex 59.7865 -61.8817 9.5
    endloop
  endfacet
  facet normal 0 1 -0
    outer loop
      vertex 64 -57 -9
      vertex 57 -57 9.5
      vertex 64 -57 9.5
    endloop
  endfacet
  facet normal 0 1 0
    outer loop
      vertex 57 -57 9.5
      vertex 64 -57 -9
      vertex 57 -57 -9
    endloop
  endfacet
  facet normal -0.809013 -0.587791 0
    outer loop
      vertex 62.5 -61 -9
      vertex 61.4635 -59.5734 9.5
      vertex 61.4635 -59.5734 -9
    endloop
  endfacet
  facet normal -0.809013 -0.587791 0
    outer loop
      vertex 61.4635 -59.5734 9.5
      vertex 62.5 -61 -9
      vertex 62.5 -61 9.5
    endloop
  endfacet
  facet normal 1 -0 0
    outer loop
      vertex 59.7865 -61.8817 9.5
      vertex 59.7865 -60.1183 -9
      vertex 59.7865 -60.1183 9.5
    endloop
  endfacet
  facet normal 1 0 0
    outer loop
      vertex 59.7865 -60.1183 -9
      vertex 59.7865 -61.8817 9.5
      vertex 59.7865 -61.8817 -9
    endloop
  endfacet
  facet normal 0.309022 -0.951055 0
    outer loop
      vertex 59.7865 -60.1183 -9
      vertex 61.4635 -59.5734 9.5
      vertex 59.7865 -60.1183 9.5
    endloop
  endfacet
  facet normal 0.309022 -0.951055 0
    outer loop
      vertex 61.4635 -59.5734 9.5
      vertex 59.7865 -60.1183 -9
      vertex 61.4635 -59.5734 -9
    endloop
  endfacet
  facet normal 0.309022 0.951055 -0
    outer loop
      vertex 61.4635 -62.4266 -9
      vertex 59.7865 -61.8817 9.5
      vertex 61.4635 -62.4266 9.5
    endloop
  endfacet
  facet normal 0.309022 0.951055 0
    outer loop
      vertex 59.7865 -61.8817 9.5
      vertex 61.4635 -62.4266 -9
      vertex 59.7865 -61.8817 -9
    endloop
  endfacet
  facet normal -0.809013 0.587791 0
    outer loop
      vertex 61.4635 -62.4266 -9
      vertex 62.5 -61 9.5
      vertex 62.5 -61 -9
    endloop
  endfacet
  facet normal -0.809013 0.587791 0
    outer loop
      vertex 62.5 -61 9.5
      vertex 61.4635 -62.4266 -9
      vertex 61.4635 -62.4266 9.5
    endloop
  endfacet
  facet normal 0 0 1
    outer loop
      vertex -57 -57 9.5
      vertex -59.5 -61 9.5
      vertex -57 -64 9.5
    endloop
  endfacet
  facet normal 0 0 1
    outer loop
      vertex -57 -57 9.5
      vertex -60.5365 -59.5734 9.5
      vertex -59.5 -61 9.5
    endloop
  endfacet
  facet normal -0 0 1
    outer loop
      vertex -64 -57 9.5
      vertex -60.5365 -59.5734 9.5
      vertex -57 -57 9.5
    endloop
  endfacet
  facet normal 0 0 1
    outer loop
      vertex -64 -64 9.5
      vertex -62.2135 -60.1183 9.5
      vertex -64 -57 9.5
    endloop
  endfacet
  facet normal 0 0 1
    outer loop
      vertex -60.5365 -59.5734 9.5
      vertex -64 -57 9.5
      vertex -62.2135 -60.1183 9.5
    endloop
  endfacet
  facet normal -0 0 1
    outer loop
      vertex -60.5365 -62.4266 9.5
      vertex -57 -64 9.5
      vertex -59.5 -61 9.5
    endloop
  endfacet
  facet normal 0 0 1
    outer loop
      vertex -64 -64 9.5
      vertex -60.5365 -62.4266 9.5
      vertex -62.2135 -61.8817 9.5
    endloop
  endfacet
  facet normal 0 0 1
    outer loop
      vertex -60.5365 -62.4266 9.5
      vertex -64 -64 9.5
      vertex -57 -64 9.5
    endloop
  endfacet
  facet normal 0 0 1
    outer loop
      vertex -62.2135 -60.1183 9.5
      vertex -64 -64 9.5
      vertex -62.2135 -61.8817 9.5
    endloop
  endfacet
  facet normal 1 -0 0
    outer loop
      vertex -57 -64 9.5
      vertex -57 -57 -9
      vertex -57 -57 9.5
    endloop
  endfacet
  facet normal 1 0 0
    outer loop
      vertex -57 -57 -9
      vertex -57 -64 9.5
      vertex -57 -64 -9
    endloop
  endfacet
  facet normal 0 1 -0
    outer loop
      vertex -57 -57 -9
      vertex -64 -57 9.5
      vertex -57 -57 9.5
    endloop
  endfacet
  facet normal 0 1 0
    outer loop
      vertex -64 -57 9.5
      vertex -57 -57 -9
      vertex -64 -57 -9
    endloop
  endfacet
  facet normal -0.809013 -0.587791 0
    outer loop
      vertex -59.5 -61 -9
      vertex -60.5365 -59.5734 9.5
      vertex -60.5365 -59.5734 -9
    endloop
  endfacet
  facet normal -0.809013 -0.587791 0
    outer loop
      vertex -60.5365 -59.5734 9.5
      vertex -59.5 -61 -9
      vertex -59.5 -61 9.5
    endloop
  endfacet
  facet normal 1 -0 0
    outer loop
      vertex -62.2135 -61.8817 9.5
      vertex -62.2135 -60.1183 -9
      vertex -62.2135 -60.1183 9.5
    endloop
  endfacet
  facet normal 1 0 0
    outer loop
      vertex -62.2135 -60.1183 -9
      vertex -62.2135 -61.8817 9.5
      vertex -62.2135 -61.8817 -9
    endloop
  endfacet
  facet normal 0.309022 -0.951055 0
    outer loop
      vertex -62.2135 -60.1183 -9
      vertex -60.5365 -59.5734 9.5
      vertex -62.2135 -60.1183 9.5
    endloop
  endfacet
  facet normal 0.309022 -0.951055 0
    outer loop
      vertex -60.5365 -59.5734 9.5
      vertex -62.2135 -60.1183 -9
      vertex -60.5365 -59.5734 -9
    endloop
  endfacet
  facet normal 0.309022 0.951055 -0
    outer loop
      vertex -60.5365 -62.4266 -9
      vertex -62.2135 -61.8817 9.5
      vertex -60.5365 -62.4266 9.5
    endloop
  endfacet
  facet normal 0.309022 0.951055 0
    outer loop
      vertex -62.2135 -61.8817 9.5
      vertex -60.5365 -62.4266 -9
      vertex -62.2135 -61.8817 -9
    endloop
  endfacet
  facet normal -0.809013 0.587791 0
    outer loop
      vertex -60.5365 -62.4266 -9
      vertex -59.5 -61 9.5
      vertex -59.5 -61 -9
    endloop
  endfacet
  facet normal -0.809013 0.587791 0
    outer loop
      vertex -59.5 -61 9.5
      vertex -60.5365 -62.4266 -9
      vertex -60.5365 -62.4266 9.5
    endloop
  endfacet
endsolid OpenSCAD_Model
