999
"DXF R12 Output" (www.mydxf.blogspot.com)
 0 
SECTION
 2 
HEADER
 9 
$ACADVER
 1 
AC1009
 9 
$EXTMIN
 10 
 0 
 20 
 0 
 9 
$EXTMAX
 10 
 8.5 
 20 
 11 
 0 
ENDSEC
 0 
SECTION
 2 
ENTITIES
0
LINE
8
Layer 1
10
761.576000
20
163.413000
11
761.164299
21
167.931069
0
LINE
8
Layer 1
10
761.164299
20
167.931069
11
760.931240
21
172.414542
0
LINE
8
Layer 1
10
760.931240
20
172.414542
11
760.877482
21
176.863292
0
LINE
8
Layer 1
10
760.877482
20
176.863292
11
761.003680
21
181.277192
0
LINE
8
Layer 1
10
761.003680
20
181.277192
11
761.310493
21
185.656116
0
LINE
8
Layer 1
10
761.310493
20
185.656116
11
761.798578
21
189.999937
0
LINE
8
Layer 1
10
761.798578
20
189.999937
11
762.468592
21
194.308528
0
LINE
8
Layer 1
10
762.468592
20
194.308528
11
763.321193
21
198.581763
0
LINE
8
Layer 1
10
763.321193
20
198.581763
11
764.357037
21
202.819514
0
LINE
8
Layer 1
10
764.357037
20
202.819514
11
765.576783
21
207.021655
0
LINE
8
Layer 1
10
765.576783
20
207.021655
11
766.981088
21
211.188060
0
LINE
8
Layer 1
10
766.981088
20
211.188060
11
768.570609
21
215.318602
0
LINE
8
Layer 1
10
768.570609
20
215.318602
11
770.346003
21
219.413153
0
LINE
8
Layer 1
10
770.346003
20
219.413153
11
772.307928
21
223.471588
0
LINE
8
Layer 1
10
772.307928
20
223.471588
11
774.457041
21
227.493779
0
LINE
8
Layer 1
10
774.457041
20
227.493779
11
776.794000
21
231.479600
0
LINE
8
Layer 1
10
776.794000
20
231.479600
11
777.940100
21
294.666600
0
LINE
8
Layer 1
10
777.940100
20
294.666600
11
754.479017
21
295.626069
0
LINE
8
Layer 1
10
754.479017
20
295.626069
11
730.869403
21
296.441807
0
LINE
8
Layer 1
10
730.869403
20
296.441807
11
707.132462
21
297.109714
0
LINE
8
Layer 1
10
707.132462
20
297.109714
11
683.289397
21
297.625693
0
LINE
8
Layer 1
10
683.289397
20
297.625693
11
659.361412
21
297.985646
0
LINE
8
Layer 1
10
659.361412
20
297.985646
11
635.369711
21
298.185474
0
LINE
8
Layer 1
10
635.369711
20
298.185474
11
611.335498
21
298.221080
0
LINE
8
Layer 1
10
611.335498
20
298.221080
11
587.279975
21
298.088365
0
LINE
8
Layer 1
10
587.279975
20
298.088365
11
563.224347
21
297.783231
0
LINE
8
Layer 1
10
563.224347
20
297.783231
11
539.189817
21
297.301580
0
LINE
8
Layer 1
10
539.189817
20
297.301580
11
515.197589
21
296.639314
0
LINE
8
Layer 1
10
515.197589
20
296.639314
11
491.268866
21
295.792334
0
LINE
8
Layer 1
10
491.268866
20
295.792334
11
467.424852
21
294.756543
0
LINE
8
Layer 1
10
467.424852
20
294.756543
11
443.686750
21
293.527842
0
LINE
8
Layer 1
10
443.686750
20
293.527842
11
420.075765
21
292.102134
0
LINE
8
Layer 1
10
420.075765
20
292.102134
11
396.613100
21
290.475320
0
LINE
8
Layer 1
10
396.613100
20
290.475320
11
396.060123
21
290.517542
0
LINE
8
Layer 1
10
396.060123
20
290.517542
11
394.671547
21
290.276768
0
LINE
8
Layer 1
10
394.671547
20
290.276768
11
389.598766
21
289.013617
0
LINE
8
Layer 1
10
389.598766
20
289.013617
11
371.748848
21
283.832590
0
LINE
8
Layer 1
10
371.748848
20
283.832590
11
346.442007
21
276.010388
0
LINE
8
Layer 1
10
346.442007
20
276.010388
11
317.056904
21
266.625162
0
LINE
8
Layer 1
10
317.056904
20
266.625162
11
286.972200
21
256.755063
0
LINE
8
Layer 1
10
286.972200
20
256.755063
11
259.566558
21
247.478239
0
LINE
8
Layer 1
10
259.566558
20
247.478239
11
238.218637
21
239.872841
0
LINE
8
Layer 1
10
238.218637
20
239.872841
11
230.872154
21
237.033849
0
LINE
8
Layer 1
10
230.872154
20
237.033849
11
226.307100
21
235.017020
0
LINE
8
Layer 1
10
226.307100
20
235.017020
11
216.088512
21
233.693483
0
LINE
8
Layer 1
10
216.088512
20
233.693483
11
205.654775
21
232.530404
0
LINE
8
Layer 1
10
205.654775
20
232.530404
11
195.016129
21
231.520143
0
LINE
8
Layer 1
10
195.016129
20
231.520143
11
184.182813
21
230.655063
0
LINE
8
Layer 1
10
184.182813
20
230.655063
11
161.973131
21
229.329890
0
LINE
8
Layer 1
10
161.973131
20
229.329890
11
139.107650
21
228.493775
0
LINE
8
Layer 1
10
139.107650
20
228.493775
11
115.668288
21
228.085610
0
LINE
8
Layer 1
10
115.668288
20
228.085610
11
91.736963
21
228.044287
0
LINE
8
Layer 1
10
91.736963
20
228.044287
11
67.395594
21
228.308696
0
LINE
8
Layer 1
10
67.395594
20
228.308696
11
42.726100
21
228.817730
0
LINE
8
Layer 1
10
42.726100
20
228.817730
11
42.923938
21
235.648910
0
LINE
8
Layer 1
10
42.923938
20
235.648910
11
27.548238
21
235.482681
0
LINE
8
Layer 1
10
27.548238
20
235.482681
11
26.951621
21
227.647631
0
LINE
8
Layer 1
10
26.951621
20
227.647631
11
11.360821
21
228.241708
0
LINE
8
Layer 1
10
11.360821
20
228.241708
11
11.677756
21
212.205608
0
LINE
8
Layer 1
10
11.677756
20
212.205608
11
228.171756
21
210.724228
0
LINE
8
Layer 1
10
228.171756
20
210.724228
11
249.125801
21
220.512884
0
LINE
8
Layer 1
10
249.125801
20
220.512884
11
270.101304
21
229.757605
0
LINE
8
Layer 1
10
270.101304
20
229.757605
11
291.099905
21
238.416727
0
LINE
8
Layer 1
10
291.099905
20
238.416727
11
301.608380
21
242.513670
0
LINE
8
Layer 1
10
301.608380
20
242.513670
11
312.123244
21
246.448591
0
LINE
8
Layer 1
10
312.123244
20
246.448591
11
322.644701
21
250.216281
0
LINE
8
Layer 1
10
322.644701
20
250.216281
11
333.172958
21
253.811534
0
LINE
8
Layer 1
10
333.172958
20
253.811534
11
343.708219
21
257.229141
0
LINE
8
Layer 1
10
343.708219
20
257.229141
11
354.250689
21
260.463895
0
LINE
8
Layer 1
10
354.250689
20
260.463895
11
364.800572
21
263.510589
0
LINE
8
Layer 1
10
364.800572
20
263.510589
11
375.358075
21
266.364014
0
LINE
8
Layer 1
10
375.358075
20
266.364014
11
385.923401
21
269.018963
0
LINE
8
Layer 1
10
385.923401
20
269.018963
11
396.496756
21
271.470228
0
LINE
8
Layer 1
10
396.496756
20
271.470228
11
420.640388
21
273.044628
0
LINE
8
Layer 1
10
420.640388
20
273.044628
11
444.555404
21
274.410038
0
LINE
8
Layer 1
10
444.555404
20
274.410038
11
468.241425
21
275.566112
0
LINE
8
Layer 1
10
468.241425
20
275.566112
11
491.698068
21
276.512502
0
LINE
8
Layer 1
10
491.698068
20
276.512502
11
514.924954
21
277.248864
0
LINE
8
Layer 1
10
514.924954
20
277.248864
11
537.921701
21
277.774850
0
LINE
8
Layer 1
10
537.921701
20
277.774850
11
560.687929
21
278.090113
0
LINE
8
Layer 1
10
560.687929
20
278.090113
11
583.223256
21
278.194308
0
LINE
8
Layer 1
10
583.223256
20
278.194308
11
605.527302
21
278.087088
0
LINE
8
Layer 1
10
605.527302
20
278.087088
11
627.599686
21
277.768106
0
LINE
8
Layer 1
10
627.599686
20
277.768106
11
649.440027
21
277.237016
0
LINE
8
Layer 1
10
649.440027
20
277.237016
11
671.047943
21
276.493472
0
LINE
8
Layer 1
10
671.047943
20
276.493472
11
692.423056
21
275.537126
0
LINE
8
Layer 1
10
692.423056
20
275.537126
11
713.564983
21
274.367633
0
LINE
8
Layer 1
10
713.564983
20
274.367633
11
734.473343
21
272.984646
0
LINE
8
Layer 1
10
734.473343
20
272.984646
11
755.147756
21
271.387819
0
LINE
8
Layer 1
10
755.147756
20
271.387819
11
752.214353
21
265.362697
0
LINE
8
Layer 1
10
752.214353
20
265.362697
11
749.377193
21
259.144831
0
LINE
8
Layer 1
10
749.377193
20
259.144831
11
746.646100
21
252.756210
0
LINE
8
Layer 1
10
746.646100
20
252.756210
11
744.030900
21
246.218829
0
LINE
8
Layer 1
10
744.030900
20
246.218829
11
741.541416
21
239.554677
0
LINE
8
Layer 1
10
741.541416
20
239.554677
11
739.187472
21
232.785747
0
LINE
8
Layer 1
10
739.187472
20
232.785747
11
736.978894
21
225.934030
0
LINE
8
Layer 1
10
736.978894
20
225.934030
11
734.925506
21
219.021519
0
LINE
8
Layer 1
10
734.925506
20
219.021519
11
733.037132
21
212.070205
0
LINE
8
Layer 1
10
733.037132
20
212.070205
11
731.323596
21
205.102079
0
LINE
8
Layer 1
10
731.323596
20
205.102079
11
729.794723
21
198.139133
0
LINE
8
Layer 1
10
729.794723
20
198.139133
11
728.460337
21
191.203360
0
LINE
8
Layer 1
10
728.460337
20
191.203360
11
727.330263
21
184.316750
0
LINE
8
Layer 1
10
727.330263
20
184.316750
11
726.414326
21
177.501295
0
LINE
8
Layer 1
10
726.414326
20
177.501295
11
725.722348
21
170.778988
0
LINE
8
Layer 1
10
725.722348
20
170.778988
11
725.264156
21
164.171819
0
LINE
8
Layer 1
10
725.264156
20
164.171819
11
761.575956
21
163.413488
0
LINE
8
Layer 1
10
761.575956
20
163.413488
11
761.576000
21
163.413000
 0 
ENDSEC
 0 
EOF