<?xml version="1.0" encoding="UTF-8" standalone="no"?><!DOCTYPE svg PUBLIC "-//W3C//DTD SVG 1.1//EN" "http://www.w3.org/Graphics/SVG/1.1/DTD/svg11.dtd"><svg width="100%" height="100%" viewBox="0 0 842 596" version="1.1" xmlns="http://www.w3.org/2000/svg" xmlns:xlink="http://www.w3.org/1999/xlink" xml:space="preserve" xmlns:serif="http://www.serif.com/" style="fill-rule:evenodd;clip-rule:evenodd;stroke-linecap:round;stroke-linejoin:round;stroke-miterlimit:1.5;"><path d="M758.485,283.465l-31.398,-0c0,-0 2.299,-36.617 9.921,-55.273l11.338,-34.016l-402.519,0c-19.408,0.487 -100.491,47.875 -102.047,72.281l-107.717,1.42c-4.284,7.227 -8.007,6.419 -11.339,0l-11.338,0l-0,-18.428l11.338,-0c3.676,-4.449 7.443,-4.941 11.339,-0l90.709,-0c1.597,-26.208 67.733,-72.713 113.385,-79.37c90.709,-13.229 430.867,-0 430.867,-0l-0,58.113c-10.087,17.249 -12.539,55.273 -12.539,55.273Z" style="fill:#cc3369;stroke:#231f20;stroke-width:0.24px;"/></svg>