999
"DXF R12 Output" (www.mydxf.blogspot.com)
 0 
SECTION
 2 
HEADER
 9 
$ACADVER
 1 
AC1009
 9 
$EXTMIN
 10 
 0 
 20 
 0 
 9 
$EXTMAX
 10 
 8.5 
 20 
 11 
 0 
ENDSEC
 0 
SECTION
 2 
ENTITIES
0
LINE
8
Layer 1
10
214.061000
20
88.203900
11
205.199790
21
88.203900
0
LINE
8
Layer 1
10
205.199790
20
88.203900
11
205.334780
21
89.900872
0
LINE
8
Layer 1
10
205.334780
20
89.900872
11
205.793091
21
94.029100
0
LINE
8
Layer 1
10
205.793091
20
94.029100
11
206.654731
21
99.144553
0
LINE
8
Layer 1
10
206.654731
20
99.144553
11
207.261802
21
101.621229
0
LINE
8
Layer 1
10
207.261802
20
101.621229
11
207.999710
21
103.803200
0
LINE
8
Layer 1
10
207.999710
20
103.803200
11
211.199540
21
113.403260
0
LINE
8
Layer 1
10
211.199540
20
113.403260
11
97.599540
21
113.403260
0
LINE
8
Layer 1
10
97.599540
20
113.403260
11
96.824828
21
112.691653
0
LINE
8
Layer 1
10
96.824828
20
112.691653
11
96.147092
21
111.827377
0
LINE
8
Layer 1
10
96.147092
20
111.827377
11
95.053677
21
109.704434
0
LINE
8
Layer 1
10
95.053677
20
109.704434
11
94.261556
21
107.161659
0
LINE
8
Layer 1
10
94.261556
20
107.161659
11
93.712991
21
104.326279
0
LINE
8
Layer 1
10
93.712991
20
104.326279
11
93.350243
21
101.325521
0
LINE
8
Layer 1
10
93.350243
20
101.325521
11
93.115573
21
98.286614
0
LINE
8
Layer 1
10
93.115573
20
98.286614
11
92.799510
21
92.603260
0
LINE
8
Layer 1
10
92.799510
20
92.603260
11
38.399510
21
92.603260
0
LINE
8
Layer 1
10
38.399510
20
92.603260
11
37.521667
21
91.488042
0
LINE
8
Layer 1
10
37.521667
20
91.488042
11
37.103605
21
91.229280
0
LINE
8
Layer 1
10
37.103605
20
91.229280
11
36.698699
21
91.159060
0
LINE
8
Layer 1
10
36.698699
20
91.159060
11
36.306387
21
91.269365
0
LINE
8
Layer 1
10
36.306387
20
91.269365
11
35.926106
21
91.552178
0
LINE
8
Layer 1
10
35.926106
20
91.552178
11
35.199390
21
92.603260
0
LINE
8
Layer 1
10
35.199390
20
92.603260
11
31.999560
21
92.603260
0
LINE
8
Layer 1
10
31.999560
20
92.603260
11
31.999560
21
97.804050
0
LINE
8
Layer 1
10
31.999560
20
97.804050
11
35.199390
21
97.804050
0
LINE
8
Layer 1
10
35.199390
20
97.804050
11
35.982460
21
98.529856
0
LINE
8
Layer 1
10
35.982460
20
98.529856
11
36.776166
21
98.797826
0
LINE
8
Layer 1
10
36.776166
20
98.797826
11
37.581514
21
98.568908
0
LINE
8
Layer 1
10
37.581514
20
98.568908
11
38.399510
21
97.804050
0
LINE
8
Layer 1
10
38.399510
20
97.804050
11
86.399510
21
97.804050
0
LINE
8
Layer 1
10
86.399510
20
97.804050
11
86.756022
21
100.742174
0
LINE
8
Layer 1
10
86.756022
20
100.742174
11
87.454024
21
103.917103
0
LINE
8
Layer 1
10
87.454024
20
103.917103
11
88.443267
21
107.190703
0
LINE
8
Layer 1
10
88.443267
20
107.190703
11
89.673498
21
110.424839
0
LINE
8
Layer 1
10
89.673498
20
110.424839
11
91.094467
21
113.481376
0
LINE
8
Layer 1
10
91.094467
20
113.481376
11
92.655923
21
116.222180
0
LINE
8
Layer 1
10
92.655923
20
116.222180
11
94.307614
21
118.509116
0
LINE
8
Layer 1
10
94.307614
20
118.509116
11
95.999290
21
120.204050
0
LINE
8
Layer 1
10
95.999290
20
120.204050
11
217.599290
21
120.204050
0
LINE
8
Layer 1
10
217.599290
20
120.204050
11
217.599290
21
103.803250
0
LINE
8
Layer 1
10
217.599290
20
103.803250
11
216.629899
21
101.735305
0
LINE
8
Layer 1
10
216.629899
20
101.735305
11
215.845375
21
99.312151
0
LINE
8
Layer 1
10
215.845375
20
99.312151
11
215.228576
21
96.728254
0
LINE
8
Layer 1
10
215.228576
20
96.728254
11
214.762361
21
94.178081
0
LINE
8
Layer 1
10
214.762361
20
94.178081
11
214.213117
21
89.956771
0
LINE
8
Layer 1
10
214.213117
20
89.956771
11
214.060510
21
88.203950
0
LINE
8
Layer 1
10
214.060510
20
88.203950
11
214.061000
21
88.203900
 0 
ENDSEC
 0 
EOF