999
"DXF R12 Output" (www.mydxf.blogspot.com)
 0 
SECTION
 2 
HEADER
 9 
$ACADVER
 1 
AC1009
 9 
$EXTMIN
 10 
 0 
 20 
 0 
 9 
$EXTMAX
 10 
 8.5 
 20 
 11 
 0 
ENDSEC
 0 
SECTION
 2 
ENTITIES
0
LINE
8
Layer 1
10
214.061000
20
88.203900
11
205.199790
21
88.203900
0
LINE
8
Layer 1
10
205.199790
20
88.203900
11
205.334780
21
89.900872
0
LINE
8
Layer 1
10
205.334780
20
89.900872
11
205.793091
21
94.029100
0
LINE
8
Layer 1
10
205.793091
20
94.029100
11
206.654731
21
99.144553
0
LINE
8
Layer 1
10
206.654731
20
99.144553
11
207.261802
21
101.621229
0
LINE
8
Layer 1
10
207.261802
20
101.621229
11
207.999710
21
103.803200
0
LINE
8
Layer 1
10
207.999710
20
103.803200
11
211.199540
21
113.403260
0
LINE
8
Layer 1
10
211.199540
20
113.403260
11
97.599540
21
113.403260
0
LINE
8
Layer 1
10
97.599540
20
113.403260
11
96.378287
21
113.227189
0
LINE
8
Layer 1
10
96.378287
20
113.227189
11
94.807453
21
112.769778
0
LINE
8
Layer 1
10
94.807453
20
112.769778
11
90.850543
21
111.126497
0
LINE
8
Layer 1
10
90.850543
20
111.126497
11
86.195807
21
108.704540
0
LINE
8
Layer 1
10
86.195807
20
108.704540
11
81.310242
21
105.735032
0
LINE
8
Layer 1
10
81.310242
20
105.735032
11
76.660846
21
102.449096
0
LINE
8
Layer 1
10
76.660846
20
102.449096
11
74.570648
21
100.759693
0
LINE
8
Layer 1
10
74.570648
20
100.759693
11
72.714616
21
99.077856
0
LINE
8
Layer 1
10
72.714616
20
99.077856
11
71.151124
21
97.432473
0
LINE
8
Layer 1
10
71.151124
20
97.432473
11
69.938548
21
95.852436
0
LINE
8
Layer 1
10
69.938548
20
95.852436
11
69.135262
21
94.366635
0
LINE
8
Layer 1
10
69.135262
20
94.366635
11
68.799640
21
93.003960
0
LINE
8
Layer 1
10
68.799640
20
93.003960
11
38.399540
21
92.603205
0
LINE
8
Layer 1
10
38.399540
20
92.603205
11
37.521697
21
91.487987
0
LINE
8
Layer 1
10
37.521697
20
91.487987
11
37.103635
21
91.229225
0
LINE
8
Layer 1
10
37.103635
20
91.229225
11
36.698729
21
91.159005
0
LINE
8
Layer 1
10
36.698729
20
91.159005
11
36.306417
21
91.269310
0
LINE
8
Layer 1
10
36.306417
20
91.269310
11
35.926136
21
91.552123
0
LINE
8
Layer 1
10
35.926136
20
91.552123
11
35.199420
21
92.603205
0
LINE
8
Layer 1
10
35.199420
20
92.603205
11
31.999590
21
92.603205
0
LINE
8
Layer 1
10
31.999590
20
92.603205
11
31.999590
21
97.803995
0
LINE
8
Layer 1
10
31.999590
20
97.803995
11
35.199420
21
97.803995
0
LINE
8
Layer 1
10
35.199420
20
97.803995
11
35.982490
21
98.529801
0
LINE
8
Layer 1
10
35.982490
20
98.529801
11
36.776196
21
98.797771
0
LINE
8
Layer 1
10
36.776196
20
98.797771
11
37.581544
21
98.568853
0
LINE
8
Layer 1
10
37.581544
20
98.568853
11
38.399540
21
97.803995
0
LINE
8
Layer 1
10
38.399540
20
97.803995
11
63.999640
21
97.803995
0
LINE
8
Layer 1
10
63.999640
20
97.803995
11
64.291738
21
99.253817
0
LINE
8
Layer 1
10
64.291738
20
99.253817
11
64.975585
21
100.813031
0
LINE
8
Layer 1
10
64.975585
20
100.813031
11
66.016029
21
102.456771
0
LINE
8
Layer 1
10
66.016029
20
102.456771
11
67.377923
21
104.160175
0
LINE
8
Layer 1
10
67.377923
20
104.160175
11
69.026117
21
105.898376
0
LINE
8
Layer 1
10
69.026117
20
105.898376
11
70.925462
21
107.646510
0
LINE
8
Layer 1
10
70.925462
20
107.646510
11
75.337006
21
111.073121
0
LINE
8
Layer 1
10
75.337006
20
111.073121
11
80.331360
21
114.241092
0
LINE
8
Layer 1
10
80.331360
20
114.241092
11
85.627330
21
116.951505
0
LINE
8
Layer 1
10
85.627330
20
116.951505
11
88.300548
21
118.072966
0
LINE
8
Layer 1
10
88.300548
20
118.072966
11
90.943722
21
119.005445
0
LINE
8
Layer 1
10
90.943722
20
119.005445
11
93.521702
21
119.724076
0
LINE
8
Layer 1
10
93.521702
20
119.724076
11
95.999340
21
120.203995
0
LINE
8
Layer 1
10
95.999340
20
120.203995
11
101.583731
21
120.819258
0
LINE
8
Layer 1
10
101.583731
20
120.819258
11
108.574369
21
121.275921
0
LINE
8
Layer 1
10
108.574369
20
121.275921
11
116.727502
21
121.590389
0
LINE
8
Layer 1
10
116.727502
20
121.590389
11
125.799382
21
121.779070
0
LINE
8
Layer 1
10
125.799382
20
121.779070
11
145.724384
21
121.844698
0
LINE
8
Layer 1
10
145.724384
20
121.844698
11
166.399377
21
121.604061
0
LINE
8
Layer 1
10
166.399377
20
121.604061
11
202.199354
21
120.729020
0
LINE
8
Layer 1
10
202.199354
20
120.729020
11
217.599340
21
120.203995
0
LINE
8
Layer 1
10
217.599340
20
120.203995
11
217.599340
21
103.803195
0
LINE
8
Layer 1
10
217.599340
20
103.803195
11
216.629949
21
101.735250
0
LINE
8
Layer 1
10
216.629949
20
101.735250
11
215.845425
21
99.312096
0
LINE
8
Layer 1
10
215.845425
20
99.312096
11
215.228626
21
96.728199
0
LINE
8
Layer 1
10
215.228626
20
96.728199
11
214.762411
21
94.178026
0
LINE
8
Layer 1
10
214.762411
20
94.178026
11
214.213167
21
89.956716
0
LINE
8
Layer 1
10
214.213167
20
89.956716
11
214.060560
21
88.203895
0
LINE
8
Layer 1
10
214.060560
20
88.203895
11
214.061000
21
88.203900
 0 
ENDSEC
 0 
EOF