<?xml version="1.0" encoding="UTF-8" standalone="no"?><!DOCTYPE svg PUBLIC "-//W3C//DTD SVG 1.1//EN" "http://www.w3.org/Graphics/SVG/1.1/DTD/svg11.dtd"><svg width="100%" height="100%" viewBox="0 0 2765 1188" version="1.1" xmlns="http://www.w3.org/2000/svg" xmlns:xlink="http://www.w3.org/1999/xlink" xml:space="preserve" xmlns:serif="http://www.serif.com/" style="fill-rule:evenodd;clip-rule:evenodd;stroke-linecap:round;stroke-linejoin:round;stroke-miterlimit:1.5;"><path d="M2698.5,608.978c-9.464,-85.707 7.98,-166.203 53.922,-241.181l4.061,-223.891c-441.824,-19.464 -909.306,-17.818 -1351.16,14.851c-4.444,-7.156 -546.121,167.01 -603.446,196.506c-191.01,26.576 -416.096,27.739 -650.483,21.966l0.701,-24.205l-54.481,0.589l-2.114,27.762l-55.243,-2.105l1.123,56.821l767.107,5.249c197.895,-94.93 396.538,-170.876 596.426,-215.242c458.415,-31.725 882.325,-31.907 1270.81,0.292c-56.282,111.901 -99.499,256.266 -105.887,379.901l128.664,2.687Z" style="fill:#939598;stroke:#939598;stroke-width:20.83px;"/></svg>