solid Untitled-5c38fe24
facet normal -1.0 0.0 0.0
  outer loop
    vertex 0.7384692627486994 3.5874436890673502 14.178502483321969
    vertex 0.7384692627486994 3.4538725299858815 8.75661035120603
    vertex 0.7384692627486994 3.094234386003122 13.938376730519538
  endloop
endfacet
facet normal -1.0 0.0 0.0
  outer loop
    vertex 0.7384692627486994 3.4538725299858815 8.75661035120603
    vertex 0.7384692627486994 3.5874436890673502 14.178502483321969
    vertex 0.7384692627486994 5.222207557413118 13.025840465056152
  endloop
endfacet
facet normal -1.0 0.0 0.0
  outer loop
    vertex 0.7384692627486994 5.222207557413118 13.025840465056152
    vertex 0.7384692627486994 3.5874436890673502 14.178502483321969
    vertex 0.7384692627486994 4.191443555117042 14.222019226935151
  endloop
endfacet
facet normal -1.0 0.0 0.0
  outer loop
    vertex 0.7384692627486994 5.222207557413118 13.025840465056152
    vertex 0.7384692627486994 4.191443555117042 14.222019226935151
    vertex 0.7384692627486994 4.713981231162441 14.055075611001179
  endloop
endfacet
facet normal -1.0 0.0 0.0
  outer loop
    vertex 0.7384692627486994 5.222207557413118 13.025840465056152
    vertex 0.7384692627486994 4.713981231162441 14.055075611001179
    vertex 0.7384692627486994 4.999954095672111 13.857478543903525
  endloop
endfacet
facet normal -1.0 0.0 0.0
  outer loop
    vertex 0.7384692627486994 5.222207557413118 13.025840465056152
    vertex 0.7384692627486994 4.999954095672111 13.857478543903525
    vertex 0.7384692627486994 5.222332620582575 13.595858632624296
  endloop
endfacet
facet normal -1.0 0.0 0.0
  outer loop
    vertex 0.7384692627486994 5.222207557413118 13.025840465056152
    vertex 0.7384692627486994 5.222332620582575 13.595858632624296
    vertex 0.7384692627486994 5.259058169182562 13.420555962028951
  endloop
endfacet
facet normal -1.0 0.0 0.0
  outer loop
    vertex 0.7384692627486994 2.595537784720657 13.376022545543435
    vertex 0.7384692627486994 0.6821557060946362 -0.2609046319571915
    vertex 0.7384692627486994 0.6821557060946362 8.75661035120603
  endloop
endfacet
facet normal -1.0 0.0 0.0
  outer loop
    vertex 0.7384692627486994 0.6821557060946362 -0.2609046319571915
    vertex 0.7384692627486994 2.595537784720657 13.376022545543435
    vertex 0.7384692627486994 3.4538725299858815 8.75661035120603
  endloop
endfacet
facet normal -1.0 0.0 0.0
  outer loop
    vertex 0.7384692627486994 0.6821557060946362 -0.2609046319571915
    vertex 0.7384692627486994 3.4538725299858815 8.75661035120603
    vertex 0.7384692627486994 13.154881413605112 4.739095368042797
  endloop
endfacet
facet normal -1.0 0.0 0.0
  outer loop
    vertex 0.7384692627486994 0.6821557060946362 -0.2609046319571915
    vertex 0.7384692627486994 13.154881413605112 4.739095368042797
    vertex 0.7384692627486994 31.624764860864488 -0.2609046319571915
  endloop
endfacet
facet normal -1.0 0.0 0.0
  outer loop
    vertex 0.7384692627486994 3.4538725299858815 8.75661035120603
    vertex 0.7384692627486994 2.595537784720657 13.376022545543435
    vertex 0.7384692627486994 3.094234386003122 13.938376730519538
  endloop
endfacet
facet normal -1.0 0.0 0.0
  outer loop
    vertex 0.7384692627486994 31.624764860864488 -0.2609046319571915
    vertex 0.7384692627486994 13.154881413605112 4.739095368042797
    vertex 0.7384692627486994 23.487144638185594 29.68392121746463
  endloop
endfacet
facet normal -1.0 0.0 0.0
  outer loop
    vertex 0.7384692627486994 31.624764860864488 -0.2609046319571915
    vertex 0.7384692627486994 23.487144638185594 29.68392121746463
    vertex 0.7384692627486994 23.855110970430328 30.49578747977586
  endloop
endfacet
facet normal -1.0 0.0 0.0
  outer loop
    vertex 0.7384692627486994 31.624764860864488 -0.2609046319571915
    vertex 0.7384692627486994 23.855110970430328 30.49578747977586
    vertex 0.7384692627486994 24.382963220341857 31.21404791430376
  endloop
endfacet
facet normal -1.0 0.0 0.0
  outer loop
    vertex 0.7384692627486994 31.624764860864488 -0.2609046319571915
    vertex 0.7384692627486994 24.382963220341857 31.21404791430376
    vertex 0.7384692627486994 25.047896820527633 31.807671833034153
  endloop
endfacet
facet normal -1.0 0.0 0.0
  outer loop
    vertex 0.7384692627486994 31.624764860864488 -0.2609046319571915
    vertex 0.7384692627486994 25.047896820527633 31.807671833034153
    vertex 0.7384692627486994 25.821184938622142 32.25101316424379
  endloop
endfacet
facet normal -1.0 0.0 0.0
  outer loop
    vertex 0.7384692627486994 31.624764860864488 -0.2609046319571915
    vertex 0.7384692627486994 25.821184938622142 32.25101316424379
    vertex 0.7384692627486994 26.66941954992551 32.524918428399076
  endloop
endfacet
facet normal -1.0 0.0 0.0
  outer loop
    vertex 0.7384692627486994 31.624764860864488 -0.2609046319571915
    vertex 0.7384692627486994 26.66941954992551 32.524918428399076
    vertex 0.7384692627486994 27.555954749525018 32.61755421746458
  endloop
endfacet
facet normal -1.0 0.0 0.0
  outer loop
    vertex 0.7384692627486994 31.624764860864488 -0.2609046319571915
    vertex 0.7384692627486994 27.555954749525018 32.61755421746458
    vertex 0.7384692627486994 28.442489949124624 32.524918428399076
  endloop
endfacet
facet normal -1.0 0.0 0.0
  outer loop
    vertex 0.7384692627486994 31.624764860864488 -0.2609046319571915
    vertex 0.7384692627486994 28.442489949124624 32.524918428399076
    vertex 0.7384692627486994 29.290724560427904 32.25101316424379
  endloop
endfacet
facet normal -1.0 0.0 0.0
  outer loop
    vertex 0.7384692627486994 31.624764860864488 -0.2609046319571915
    vertex 0.7384692627486994 29.290724560427904 32.25101316424379
    vertex 0.7384692627486994 30.064012678522506 31.807671833034153
  endloop
endfacet
facet normal -1.0 0.0 0.0
  outer loop
    vertex 0.7384692627486994 31.624764860864488 -0.2609046319571915
    vertex 0.7384692627486994 30.064012678522506 31.807671833034153
    vertex 0.7384692627486994 30.72894627870819 31.21404791430376
  endloop
endfacet
facet normal -1.0 0.0 0.0
  outer loop
    vertex 0.7384692627486994 31.624764860864488 -0.2609046319571915
    vertex 0.7384692627486994 30.72894627870819 31.21404791430376
    vertex 0.7384692627486994 31.25679852861972 30.49578747977586
  endloop
endfacet
facet normal -1.0 0.0 0.0
  outer loop
    vertex 0.7384692627486994 31.624764860864488 -0.2609046319571915
    vertex 0.7384692627486994 31.25679852861972 30.49578747977586
    vertex 0.7384692627486994 31.624764860864488 29.68392121746463
  endloop
endfacet
facet normal 1.0 0.0 0.0
  outer loop
    vertex 175.73846926274868 0.6821557060946362 -0.2609046319571915
    vertex 175.73846926274868 13.154881413605112 4.739095368042797
    vertex 175.73846926274868 0.6821557060946362 8.75661035120603
  endloop
endfacet
facet normal 1.0 0.0 0.0
  outer loop
    vertex 175.73846926274868 13.154881413605112 4.739095368042797
    vertex 175.73846926274868 0.6821557060946362 -0.2609046319571915
    vertex 175.73846926274868 31.624764860864488 -0.2609046319571915
  endloop
endfacet
facet normal 1.0 0.0 0.0
  outer loop
    vertex 175.73846926274868 0.6821557060946362 8.75661035120603
    vertex 175.73846926274868 13.154881413605112 4.739095368042797
    vertex 175.73846926274868 3.4538725299858815 8.75661035120603
  endloop
endfacet
facet normal 1.0 0.0 0.0
  outer loop
    vertex 175.73846926274868 0.6821557060946362 8.75661035120603
    vertex 175.73846926274868 3.4538725299858815 8.75661035120603
    vertex 175.73846926274868 2.595537784720657 13.376022545543435
  endloop
endfacet
facet normal 1.0 0.0 0.0
  outer loop
    vertex 175.73846926274868 2.595537784720657 13.376022545543435
    vertex 175.73846926274868 3.4538725299858815 8.75661035120603
    vertex 175.73846926274868 3.094234386003122 13.938376730519538
  endloop
endfacet
facet normal 1.0 0.0 0.0
  outer loop
    vertex 175.73846926274868 13.154881413605112 4.739095368042797
    vertex 175.73846926274868 31.624764860864488 -0.2609046319571915
    vertex 175.73846926274868 23.487144638185594 29.68392121746463
  endloop
endfacet
facet normal 1.0 0.0 0.0
  outer loop
    vertex 175.73846926274868 23.487144638185594 29.68392121746463
    vertex 175.73846926274868 31.624764860864488 -0.2609046319571915
    vertex 175.73846926274868 23.855110970430328 30.49578747977586
  endloop
endfacet
facet normal 1.0 0.0 0.0
  outer loop
    vertex 175.73846926274868 23.855110970430328 30.49578747977586
    vertex 175.73846926274868 31.624764860864488 -0.2609046319571915
    vertex 175.73846926274868 24.382963220341857 31.21404791430376
  endloop
endfacet
facet normal 1.0 0.0 0.0
  outer loop
    vertex 175.73846926274868 24.382963220341857 31.21404791430376
    vertex 175.73846926274868 31.624764860864488 -0.2609046319571915
    vertex 175.73846926274868 25.047896820527633 31.807671833034153
  endloop
endfacet
facet normal 1.0 0.0 0.0
  outer loop
    vertex 175.73846926274868 25.047896820527633 31.807671833034153
    vertex 175.73846926274868 31.624764860864488 -0.2609046319571915
    vertex 175.73846926274868 25.821184938622142 32.25101316424379
  endloop
endfacet
facet normal 1.0 0.0 0.0
  outer loop
    vertex 175.73846926274868 25.821184938622142 32.25101316424379
    vertex 175.73846926274868 31.624764860864488 -0.2609046319571915
    vertex 175.73846926274868 26.66941954992551 32.524918428399076
  endloop
endfacet
facet normal 1.0 0.0 0.0
  outer loop
    vertex 175.73846926274868 26.66941954992551 32.524918428399076
    vertex 175.73846926274868 31.624764860864488 -0.2609046319571915
    vertex 175.73846926274868 27.555954749525018 32.61755421746458
  endloop
endfacet
facet normal 1.0 0.0 0.0
  outer loop
    vertex 175.73846926274868 27.555954749525018 32.61755421746458
    vertex 175.73846926274868 31.624764860864488 -0.2609046319571915
    vertex 175.73846926274868 28.442489949124624 32.524918428399076
  endloop
endfacet
facet normal 1.0 0.0 0.0
  outer loop
    vertex 175.73846926274868 28.442489949124624 32.524918428399076
    vertex 175.73846926274868 31.624764860864488 -0.2609046319571915
    vertex 175.73846926274868 29.290724560427904 32.25101316424379
  endloop
endfacet
facet normal 1.0 0.0 0.0
  outer loop
    vertex 175.73846926274868 29.290724560427904 32.25101316424379
    vertex 175.73846926274868 31.624764860864488 -0.2609046319571915
    vertex 175.73846926274868 30.064012678522506 31.807671833034153
  endloop
endfacet
facet normal 1.0 0.0 0.0
  outer loop
    vertex 175.73846926274868 30.064012678522506 31.807671833034153
    vertex 175.73846926274868 31.624764860864488 -0.2609046319571915
    vertex 175.73846926274868 30.72894627870819 31.21404791430376
  endloop
endfacet
facet normal 1.0 0.0 0.0
  outer loop
    vertex 175.73846926274868 30.72894627870819 31.21404791430376
    vertex 175.73846926274868 31.624764860864488 -0.2609046319571915
    vertex 175.73846926274868 31.25679852861972 30.49578747977586
  endloop
endfacet
facet normal 1.0 0.0 0.0
  outer loop
    vertex 175.73846926274868 31.25679852861972 30.49578747977586
    vertex 175.73846926274868 31.624764860864488 -0.2609046319571915
    vertex 175.73846926274868 31.624764860864488 29.68392121746463
  endloop
endfacet
facet normal 1.0 0.0 0.0
  outer loop
    vertex 175.73846926274868 3.4538725299858815 8.75661035120603
    vertex 175.73846926274868 3.5874436890673502 14.178502483321969
    vertex 175.73846926274868 3.094234386003122 13.938376730519538
  endloop
endfacet
facet normal 1.0 0.0 0.0
  outer loop
    vertex 175.73846926274868 3.5874436890673502 14.178502483321969
    vertex 175.73846926274868 3.4538725299858815 8.75661035120603
    vertex 175.73846926274868 5.222207557413118 13.025840465056152
  endloop
endfacet
facet normal 1.0 0.0 0.0
  outer loop
    vertex 175.73846926274868 3.5874436890673502 14.178502483321969
    vertex 175.73846926274868 5.222207557413118 13.025840465056152
    vertex 175.73846926274868 4.191443555117042 14.222019226935151
  endloop
endfacet
facet normal 1.0 0.0 0.0
  outer loop
    vertex 175.73846926274868 4.191443555117042 14.222019226935151
    vertex 175.73846926274868 5.222207557413118 13.025840465056152
    vertex 175.73846926274868 4.713981231162441 14.055075611001179
  endloop
endfacet
facet normal 1.0 0.0 0.0
  outer loop
    vertex 175.73846926274868 4.713981231162441 14.055075611001179
    vertex 175.73846926274868 5.222207557413118 13.025840465056152
    vertex 175.73846926274868 4.999954095672111 13.857478543903525
  endloop
endfacet
facet normal 1.0 0.0 0.0
  outer loop
    vertex 175.73846926274868 4.999954095672111 13.857478543903525
    vertex 175.73846926274868 5.222207557413118 13.025840465056152
    vertex 175.73846926274868 5.222332620582575 13.595858632624296
  endloop
endfacet
facet normal 1.0 0.0 0.0
  outer loop
    vertex 175.73846926274868 5.222332620582575 13.595858632624296
    vertex 175.73846926274868 5.222207557413118 13.025840465056152
    vertex 175.73846926274868 5.259058169182562 13.420555962028951
  endloop
endfacet
facet normal 0.0 0.0 -1.0
  outer loop
    vertex 175.73846926274868 31.624764860864488 -0.2609046319571915
    vertex 0.7384692627486994 0.6821557060946362 -0.2609046319571915
    vertex 0.7384692627486994 31.624764860864488 -0.2609046319571915
  endloop
endfacet
facet normal 0.0 0.0 -1.0
  outer loop
    vertex 0.7384692627486994 0.6821557060946362 -0.2609046319571915
    vertex 175.73846926274868 31.624764860864488 -0.2609046319571915
    vertex 175.73846926274868 0.6821557060946362 -0.2609046319571915
  endloop
endfacet
facet normal 0.0 1.0 -0.0
  outer loop
    vertex 0.7384692627486994 31.624764860864488 29.68392121746463
    vertex 175.73846926274868 31.624764860864488 -0.2609046319571915
    vertex 0.7384692627486994 31.624764860864488 -0.2609046319571915
  endloop
endfacet
facet normal 0.0 1.0 -0.0
  outer loop
    vertex 175.73846926274868 31.624764860864488 -0.2609046319571915
    vertex 0.7384692627486994 31.624764860864488 29.68392121746463
    vertex 175.73846926274868 31.624764860864488 29.68392121746463
  endloop
endfacet
facet normal 0.0 0.9108155237342013 0.41281361620565854
  outer loop
    vertex 0.7384692627486994 31.25679852861972 30.49578747977586
    vertex 175.73846926274868 31.624764860864488 29.68392121746463
    vertex 0.7384692627486994 31.624764860864488 29.68392121746463
  endloop
endfacet
facet normal 0.0 0.9108155237342013 0.41281361620565854
  outer loop
    vertex 175.73846926274868 31.624764860864488 29.68392121746463
    vertex 0.7384692627486994 31.25679852861972 30.49578747977586
    vertex 175.73846926274868 31.25679852861972 30.49578747977586
  endloop
endfacet
facet normal 0.0 0.8058011327994998 0.5921862328516619
  outer loop
    vertex 0.7384692627486994 30.72894627870819 31.21404791430376
    vertex 175.73846926274868 31.25679852861972 30.49578747977586
    vertex 0.7384692627486994 31.25679852861972 30.49578747977586
  endloop
endfacet
facet normal 0.0 0.8058011327994998 0.5921862328516619
  outer loop
    vertex 175.73846926274868 31.25679852861972 30.49578747977586
    vertex 0.7384692627486994 30.72894627870819 31.21404791430376
    vertex 175.73846926274868 30.72894627870819 31.21404791430376
  endloop
endfacet
facet normal 0.0 0.6659740717644846 0.7459748894818332
  outer loop
    vertex 175.73846926274868 30.064012678522506 31.807671833034153
    vertex 0.7384692627486994 30.72894627870819 31.21404791430376
    vertex 0.7384692627486994 30.064012678522506 31.807671833034153
  endloop
endfacet
facet normal 0.0 0.6659740717644846 0.7459748894818332
  outer loop
    vertex 0.7384692627486994 30.72894627870819 31.21404791430376
    vertex 175.73846926274868 30.064012678522506 31.807671833034153
    vertex 175.73846926274868 30.72894627870819 31.21404791430376
  endloop
endfacet
facet normal 0.0 0.49737522733009815 0.8675355227530073
  outer loop
    vertex 175.73846926274868 29.290724560427904 32.25101316424379
    vertex 0.7384692627486994 30.064012678522506 31.807671833034153
    vertex 0.7384692627486994 29.290724560427904 32.25101316424379
  endloop
endfacet
facet normal 0.0 0.49737522733009815 0.8675355227530073
  outer loop
    vertex 0.7384692627486994 30.064012678522506 31.807671833034153
    vertex 175.73846926274868 29.290724560427904 32.25101316424379
    vertex 175.73846926274868 30.064012678522506 31.807671833034153
  endloop
endfacet
facet normal 0.0 0.3072885008362689 0.9516164023669405
  outer loop
    vertex 175.73846926274868 28.442489949124624 32.524918428399076
    vertex 0.7384692627486994 29.290724560427904 32.25101316424379
    vertex 0.7384692627486994 28.442489949124624 32.524918428399076
  endloop
endfacet
facet normal 0.0 0.3072885008362689 0.9516164023669405
  outer loop
    vertex 0.7384692627486994 29.290724560427904 32.25101316424379
    vertex 175.73846926274868 28.442489949124624 32.524918428399076
    vertex 175.73846926274868 29.290724560427904 32.25101316424379
  endloop
endfacet
facet normal 0.0 0.1039261250911278 0.9945850192535294
  outer loop
    vertex 175.73846926274868 27.555954749525018 32.61755421746458
    vertex 0.7384692627486994 28.442489949124624 32.524918428399076
    vertex 0.7384692627486994 27.555954749525018 32.61755421746458
  endloop
endfacet
facet normal 0.0 0.1039261250911278 0.9945850192535294
  outer loop
    vertex 0.7384692627486994 28.442489949124624 32.524918428399076
    vertex 175.73846926274868 27.555954749525018 32.61755421746458
    vertex 175.73846926274868 28.442489949124624 32.524918428399076
  endloop
endfacet
facet normal 0.0 -0.10392612509113958 0.9945850192535282
  outer loop
    vertex 175.73846926274868 26.66941954992551 32.524918428399076
    vertex 0.7384692627486994 27.555954749525018 32.61755421746458
    vertex 0.7384692627486994 26.66941954992551 32.524918428399076
  endloop
endfacet
facet normal 0.0 -0.10392612509113958 0.9945850192535282
  outer loop
    vertex 0.7384692627486994 27.555954749525018 32.61755421746458
    vertex 175.73846926274868 26.66941954992551 32.524918428399076
    vertex 175.73846926274868 27.555954749525018 32.61755421746458
  endloop
endfacet
facet normal 0.0 -0.30728850083623926 0.9516164023669499
  outer loop
    vertex 175.73846926274868 25.821184938622142 32.25101316424379
    vertex 0.7384692627486994 26.66941954992551 32.524918428399076
    vertex 0.7384692627486994 25.821184938622142 32.25101316424379
  endloop
endfacet
facet normal 0.0 -0.30728850083623926 0.9516164023669499
  outer loop
    vertex 0.7384692627486994 26.66941954992551 32.524918428399076
    vertex 175.73846926274868 25.821184938622142 32.25101316424379
    vertex 175.73846926274868 26.66941954992551 32.524918428399076
  endloop
endfacet
facet normal 0.0 -0.49737522733014317 0.8675355227529814
  outer loop
    vertex 175.73846926274868 25.047896820527633 31.807671833034153
    vertex 0.7384692627486994 25.821184938622142 32.25101316424379
    vertex 0.7384692627486994 25.047896820527633 31.807671833034153
  endloop
endfacet
facet normal 0.0 -0.49737522733014317 0.8675355227529814
  outer loop
    vertex 0.7384692627486994 25.821184938622142 32.25101316424379
    vertex 175.73846926274868 25.047896820527633 31.807671833034153
    vertex 175.73846926274868 25.821184938622142 32.25101316424379
  endloop
endfacet
facet normal 0.0 -0.6659740717644328 0.7459748894818795
  outer loop
    vertex 175.73846926274868 24.382963220341857 31.21404791430376
    vertex 0.7384692627486994 25.047896820527633 31.807671833034153
    vertex 0.7384692627486994 24.382963220341857 31.21404791430376
  endloop
endfacet
facet normal 0.0 -0.6659740717644328 0.7459748894818795
  outer loop
    vertex 0.7384692627486994 25.047896820527633 31.807671833034153
    vertex 175.73846926274868 24.382963220341857 31.21404791430376
    vertex 175.73846926274868 25.047896820527633 31.807671833034153
  endloop
endfacet
facet normal 0.0 -0.8058011327994998 0.5921862328516619
  outer loop
    vertex 175.73846926274868 24.382963220341857 31.21404791430376
    vertex 0.7384692627486994 23.855110970430328 30.49578747977586
    vertex 175.73846926274868 23.855110970430328 30.49578747977586
  endloop
endfacet
facet normal 0.0 -0.8058011327994998 0.5921862328516619
  outer loop
    vertex 0.7384692627486994 23.855110970430328 30.49578747977586
    vertex 175.73846926274868 24.382963220341857 31.21404791430376
    vertex 0.7384692627486994 24.382963220341857 31.21404791430376
  endloop
endfacet
facet normal 0.0 -0.9108155237342155 0.412813616205627
  outer loop
    vertex 175.73846926274868 23.855110970430328 30.49578747977586
    vertex 0.7384692627486994 23.487144638185594 29.68392121746463
    vertex 175.73846926274868 23.487144638185594 29.68392121746463
  endloop
endfacet
facet normal 0.0 -0.9108155237342155 0.412813616205627
  outer loop
    vertex 0.7384692627486994 23.487144638185594 29.68392121746463
    vertex 175.73846926274868 23.855110970430328 30.49578747977586
    vertex 0.7384692627486994 23.855110970430328 30.49578747977586
  endloop
endfacet
facet normal 0.0 -0.9238824388674742 0.38267641572520256
  outer loop
    vertex 175.73846926274868 23.487144638185594 29.68392121746463
    vertex 0.7384692627486994 13.154881413605112 4.739095368042797
    vertex 175.73846926274868 13.154881413605112 4.739095368042797
  endloop
endfacet
facet normal 0.0 -0.9238824388674742 0.38267641572520256
  outer loop
    vertex 0.7384692627486994 13.154881413605112 4.739095368042797
    vertex 175.73846926274868 23.487144638185594 29.68392121746463
    vertex 0.7384692627486994 23.487144638185594 29.68392121746463
  endloop
endfacet
facet normal 0.0 0.38262047458697424 0.9239056079637351
  outer loop
    vertex 175.73846926274868 3.4538725299858815 8.75661035120603
    vertex 0.7384692627486994 13.154881413605112 4.739095368042797
    vertex 0.7384692627486994 3.4538725299858815 8.75661035120603
  endloop
endfacet
facet normal 0.0 0.38262047458697424 0.9239056079637351
  outer loop
    vertex 0.7384692627486994 13.154881413605112 4.739095368042797
    vertex 175.73846926274868 3.4538725299858815 8.75661035120603
    vertex 175.73846926274868 13.154881413605112 4.739095368042797
  endloop
endfacet
facet normal 0.0 0.9238824388674746 -0.38267641572520145
  outer loop
    vertex 0.7384692627486994 5.222207557413118 13.025840465056152
    vertex 175.73846926274868 3.4538725299858815 8.75661035120603
    vertex 0.7384692627486994 3.4538725299858815 8.75661035120603
  endloop
endfacet
facet normal 0.0 0.9238824388674746 -0.38267641572520145
  outer loop
    vertex 175.73846926274868 3.4538725299858815 8.75661035120603
    vertex 0.7384692627486994 5.222207557413118 13.025840465056152
    vertex 175.73846926274868 5.222207557413118 13.025840465056152
  endloop
endfacet
facet normal 0.0 0.9956702449816622 -0.09295570589348799
  outer loop
    vertex 0.7384692627486994 5.259058169182562 13.420555962028951
    vertex 175.73846926274868 5.222207557413118 13.025840465056152
    vertex 0.7384692627486994 5.222207557413118 13.025840465056152
  endloop
endfacet
facet normal 0.0 0.9956702449816622 -0.09295570589348799
  outer loop
    vertex 175.73846926274868 5.222207557413118 13.025840465056152
    vertex 0.7384692627486994 5.259058169182562 13.420555962028951
    vertex 175.73846926274868 5.259058169182562 13.420555962028951
  endloop
endfacet
facet normal 0.0 0.9787522169942223 0.20504657453587216
  outer loop
    vertex 0.7384692627486994 5.222332620582575 13.595858632624296
    vertex 175.73846926274868 5.259058169182562 13.420555962028951
    vertex 0.7384692627486994 5.259058169182562 13.420555962028951
  endloop
endfacet
facet normal 0.0 0.9787522169942223 0.20504657453587216
  outer loop
    vertex 175.73846926274868 5.259058169182562 13.420555962028951
    vertex 0.7384692627486994 5.222332620582575 13.595858632624296
    vertex 175.73846926274868 5.222332620582575 13.595858632624296
  endloop
endfacet
facet normal 0.0 0.7619370178191675 0.6476511258979126
  outer loop
    vertex 0.7384692627486994 4.999954095672111 13.857478543903525
    vertex 175.73846926274868 5.222332620582575 13.595858632624296
    vertex 0.7384692627486994 5.222332620582575 13.595858632624296
  endloop
endfacet
facet normal 0.0 0.7619370178191675 0.6476511258979126
  outer loop
    vertex 175.73846926274868 5.222332620582575 13.595858632624296
    vertex 0.7384692627486994 4.999954095672111 13.857478543903525
    vertex 175.73846926274868 4.999954095672111 13.857478543903525
  endloop
endfacet
facet normal 0.0 0.5684626668587144 0.8227090593811874
  outer loop
    vertex 175.73846926274868 4.713981231162441 14.055075611001179
    vertex 0.7384692627486994 4.999954095672111 13.857478543903525
    vertex 0.7384692627486994 4.713981231162441 14.055075611001179
  endloop
endfacet
facet normal 0.0 0.5684626668587144 0.8227090593811874
  outer loop
    vertex 0.7384692627486994 4.999954095672111 13.857478543903525
    vertex 175.73846926274868 4.713981231162441 14.055075611001179
    vertex 175.73846926274868 4.999954095672111 13.857478543903525
  endloop
endfacet
facet normal 0.0 0.3043317929409605 0.9525660920930057
  outer loop
    vertex 175.73846926274868 4.191443555117042 14.222019226935151
    vertex 0.7384692627486994 4.713981231162441 14.055075611001179
    vertex 0.7384692627486994 4.191443555117042 14.222019226935151
  endloop
endfacet
facet normal 0.0 0.3043317929409605 0.9525660920930057
  outer loop
    vertex 0.7384692627486994 4.713981231162441 14.055075611001179
    vertex 175.73846926274868 4.191443555117042 14.222019226935151
    vertex 175.73846926274868 4.713981231162441 14.055075611001179
  endloop
endfacet
facet normal 0.0 -0.0718613351835655 0.9974146321894599
  outer loop
    vertex 175.73846926274868 3.5874436890673502 14.178502483321969
    vertex 0.7384692627486994 4.191443555117042 14.222019226935151
    vertex 0.7384692627486994 3.5874436890673502 14.178502483321969
  endloop
endfacet
facet normal 0.0 -0.0718613351835655 0.9974146321894599
  outer loop
    vertex 0.7384692627486994 4.191443555117042 14.222019226935151
    vertex 175.73846926274868 3.5874436890673502 14.178502483321969
    vertex 175.73846926274868 4.191443555117042 14.222019226935151
  endloop
endfacet
facet normal 0.0 -0.43774001463203416 0.8991015958110332
  outer loop
    vertex 175.73846926274868 3.094234386003122 13.938376730519538
    vertex 0.7384692627486994 3.5874436890673502 14.178502483321969
    vertex 0.7384692627486994 3.094234386003122 13.938376730519538
  endloop
endfacet
facet normal 0.0 -0.43774001463203416 0.8991015958110332
  outer loop
    vertex 0.7384692627486994 3.5874436890673502 14.178502483321969
    vertex 175.73846926274868 3.094234386003122 13.938376730519538
    vertex 175.73846926274868 3.5874436890673502 14.178502483321969
  endloop
endfacet
facet normal 0.0 -0.7481842560230034 0.6634910090116556
  outer loop
    vertex 175.73846926274868 3.094234386003122 13.938376730519538
    vertex 0.7384692627486994 2.595537784720657 13.376022545543435
    vertex 175.73846926274868 2.595537784720657 13.376022545543435
  endloop
endfacet
facet normal 0.0 -0.7481842560230034 0.6634910090116556
  outer loop
    vertex 0.7384692627486994 2.595537784720657 13.376022545543435
    vertex 175.73846926274868 3.094234386003122 13.938376730519538
    vertex 0.7384692627486994 3.094234386003122 13.938376730519538
  endloop
endfacet
facet normal 0.0 -0.9238824388674747 0.38267641572520156
  outer loop
    vertex 175.73846926274868 2.595537784720657 13.376022545543435
    vertex 0.7384692627486994 0.6821557060946362 8.75661035120603
    vertex 175.73846926274868 0.6821557060946362 8.75661035120603
  endloop
endfacet
facet normal 0.0 -0.9238824388674747 0.38267641572520156
  outer loop
    vertex 0.7384692627486994 0.6821557060946362 8.75661035120603
    vertex 175.73846926274868 2.595537784720657 13.376022545543435
    vertex 0.7384692627486994 2.595537784720657 13.376022545543435
  endloop
endfacet
facet normal -0.0 -1.0 -0.0
  outer loop
    vertex 175.73846926274868 0.6821557060946362 8.75661035120603
    vertex 0.7384692627486994 0.6821557060946362 -0.2609046319571915
    vertex 175.73846926274868 0.6821557060946362 -0.2609046319571915
  endloop
endfacet
facet normal -0.0 -1.0 -0.0
  outer loop
    vertex 0.7384692627486994 0.6821557060946362 -0.2609046319571915
    vertex 175.73846926274868 0.6821557060946362 8.75661035120603
    vertex 0.7384692627486994 0.6821557060946362 8.75661035120603
  endloop
endfacet
endsolid Untitled-5c38fe24
