solid OpenSCAD_Model
  facet normal -0.971342 -0.237687 0
    outer loop
      vertex -61.4363 -52.8608 -0.5
      vertex -61.9 -50.9658 5
      vertex -61.9 -50.9658 -0.5
    endloop
  endfacet
  facet normal -0.971342 -0.237687 0
    outer loop
      vertex -61.9 -50.9658 5
      vertex -61.4363 -52.8608 -0.5
      vertex -61.4363 -52.8608 5
    endloop
  endfacet
  facet normal 0.906308 0.422618 0
    outer loop
      vertex -14.0322 -119.026 5
      vertex -45.1731 -52.2442 -0.5
      vertex -45.1731 -52.2442 5
    endloop
  endfacet
  facet normal 0.906308 0.422618 0
    outer loop
      vertex -45.1731 -52.2442 -0.5
      vertex -14.0322 -119.026 5
      vertex -14.0322 -119.026 -0.5
    endloop
  endfacet
  facet normal -0.906308 -0.422618 0
    outer loop
      vertex -27.6268 -125.365 -0.5
      vertex -61.4363 -52.8608 5
      vertex -61.4363 -52.8608 -0.5
    endloop
  endfacet
  facet normal -0.906308 -0.422618 0
    outer loop
      vertex -61.4363 -52.8608 5
      vertex -27.6268 -125.365 -0.5
      vertex -27.6268 -125.365 5
    endloop
  endfacet
  facet normal -0.988362 0.152122 0
    outer loop
      vertex -61.9 -50.9658 -0.5
      vertex -61.6032 -49.0376 5
      vertex -61.6032 -49.0376 -0.5
    endloop
  endfacet
  facet normal -0.988362 0.152122 0
    outer loop
      vertex -61.6032 -49.0376 5
      vertex -61.9 -50.9658 -0.5
      vertex -61.9 -50.9658 5
    endloop
  endfacet
  facet normal -0.854911 0.518774 0
    outer loop
      vertex -61.6032 -49.0376 -0.5
      vertex -60.5911 -47.3697 5
      vertex -60.5911 -47.3697 -0.5
    endloop
  endfacet
  facet normal -0.854911 0.518774 0
    outer loop
      vertex -60.5911 -47.3697 5
      vertex -61.6032 -49.0376 -0.5
      vertex -61.6032 -49.0376 5
    endloop
  endfacet
  facet normal -0 0 1
    outer loop
      vertex 6.91342 0.380603 5
      vertex -45.1731 -52.2442 5
      vertex 8.53553 1.46447 5
    endloop
  endfacet
  facet normal -0 0 1
    outer loop
      vertex 5 0 5
      vertex -45.1731 -52.2442 5
      vertex 6.91342 0.380603 5
    endloop
  endfacet
  facet normal -0 0 1
    outer loop
      vertex 0 0 5
      vertex -45.1731 -52.2442 5
      vertex 5 0 5
    endloop
  endfacet
  facet normal 0 0 1
    outer loop
      vertex -1.91342 0.380603 5
      vertex -45.1731 -52.2442 5
      vertex 0 0 5
    endloop
  endfacet
  facet normal 0 0 1
    outer loop
      vertex -3.53553 1.46447 5
      vertex -45.1731 -52.2442 5
      vertex -1.91342 0.380603 5
    endloop
  endfacet
  facet normal 0 0 1
    outer loop
      vertex -4.6194 3.08658 5
      vertex -45.1731 -52.2442 5
      vertex -3.53553 1.46447 5
    endloop
  endfacet
  facet normal 0 0 1
    outer loop
      vertex -58.6396 -44.4975 5
      vertex -4.6194 3.08658 5
      vertex -5 5 5
    endloop
  endfacet
  facet normal 0 0 1
    outer loop
      vertex -21.047 -118.122 5
      vertex -13.5685 -120.921 5
      vertex -14.0322 -119.026 5
    endloop
  endfacet
  facet normal 0 0 1
    outer loop
      vertex -13.5685 -120.921 5
      vertex -21.047 -118.122 5
      vertex -13.8653 -122.849 5
    endloop
  endfacet
  facet normal 0 0 1
    outer loop
      vertex -13.8653 -122.849 5
      vertex -21.047 -118.122 5
      vertex -14.8773 -124.517 5
    endloop
  endfacet
  facet normal -0 0 1
    outer loop
      vertex -22.1185 -119.432 5
      vertex -14.8773 -124.517 5
      vertex -21.047 -118.122 5
    endloop
  endfacet
  facet normal 0 0 1
    outer loop
      vertex -14.8773 -124.517 5
      vertex -22.1185 -119.432 5
      vertex -16.4506 -125.671 5
    endloop
  endfacet
  facet normal 0 0 1
    outer loop
      vertex -14.0322 -119.026 5
      vertex -21.403 -116.468 5
      vertex -21.047 -118.122 5
    endloop
  endfacet
  facet normal 0 0 1
    outer loop
      vertex -14.0322 -119.026 5
      vertex -22.9183 -115.714 5
      vertex -21.403 -116.468 5
    endloop
  endfacet
  facet normal 0 0 1
    outer loop
      vertex -23.8105 -119.41 5
      vertex -27.6268 -125.365 5
      vertex -26.4732 -126.939 5
    endloop
  endfacet
  facet normal 0 0 1
    outer loop
      vertex -24.4519 -116.43 5
      vertex -27.6268 -125.365 5
      vertex -24.849 -118.074 5
    endloop
  endfacet
  facet normal 0 0 1
    outer loop
      vertex -22.9183 -115.714 5
      vertex -41.9815 -76.8351 5
      vertex -24.4519 -116.43 5
    endloop
  endfacet
  facet normal -0 0 1
    outer loop
      vertex -41.9815 -76.8351 5
      vertex -22.9183 -115.714 5
      vertex -40.9101 -75.5253 5
    endloop
  endfacet
  facet normal 0 0 1
    outer loop
      vertex -14.0322 -119.026 5
      vertex -40.9101 -75.5253 5
      vertex -22.9183 -115.714 5
    endloop
  endfacet
  facet normal 0 0 1
    outer loop
      vertex -14.0322 -119.026 5
      vertex -41.266 -73.8711 5
      vertex -40.9101 -75.5253 5
    endloop
  endfacet
  facet normal -0 0 1
    outer loop
      vertex -61.4363 -52.8608 5
      vertex -44.3149 -73.833 5
      vertex -45.1731 -52.2442 5
    endloop
  endfacet
  facet normal 0 0 1
    outer loop
      vertex -42.7813 -73.1179 5
      vertex -45.1731 -52.2442 5
      vertex -44.3149 -73.833 5
    endloop
  endfacet
  facet normal 0 0 1
    outer loop
      vertex -41.266 -73.8711 5
      vertex -45.1731 -52.2442 5
      vertex -42.7813 -73.1179 5
    endloop
  endfacet
  facet normal 0 0 1
    outer loop
      vertex -45.1731 -52.2442 5
      vertex -41.266 -73.8711 5
      vertex -14.0322 -119.026 5
    endloop
  endfacet
  facet normal 0 0 1
    outer loop
      vertex -16.4506 -125.671 5
      vertex -22.1185 -119.432 5
      vertex -20.9822 -127.784 5
    endloop
  endfacet
  facet normal 0 0 1
    outer loop
      vertex -22.1185 -119.432 5
      vertex -22.8772 -128.248 5
      vertex -20.9822 -127.784 5
    endloop
  endfacet
  facet normal 0 0 1
    outer loop
      vertex -23.8105 -119.41 5
      vertex -22.8772 -128.248 5
      vertex -22.1185 -119.432 5
    endloop
  endfacet
  facet normal 0 0 1
    outer loop
      vertex -23.8105 -119.41 5
      vertex -24.8054 -127.951 5
      vertex -22.8772 -128.248 5
    endloop
  endfacet
  facet normal 0 0 1
    outer loop
      vertex -27.6268 -125.365 5
      vertex -23.8105 -119.41 5
      vertex -24.849 -118.074 5
    endloop
  endfacet
  facet normal 0 0 1
    outer loop
      vertex -23.8105 -119.41 5
      vertex -26.4732 -126.939 5
      vertex -24.8054 -127.951 5
    endloop
  endfacet
  facet normal 0 0 1
    outer loop
      vertex -43.6736 -76.814 5
      vertex -24.4519 -116.43 5
      vertex -41.9815 -76.8351 5
    endloop
  endfacet
  facet normal 0 0 1
    outer loop
      vertex -24.4519 -116.43 5
      vertex -43.6736 -76.814 5
      vertex -27.6268 -125.365 5
    endloop
  endfacet
  facet normal 0 0 1
    outer loop
      vertex -44.712 -75.4779 5
      vertex -27.6268 -125.365 5
      vertex -43.6736 -76.814 5
    endloop
  endfacet
  facet normal -0 0 1
    outer loop
      vertex -59.8665 -46.8384 5
      vertex -45.1731 -52.2442 5
      vertex -58.6396 -44.4975 5
    endloop
  endfacet
  facet normal 0 0 1
    outer loop
      vertex -44.3149 -73.833 5
      vertex -61.4363 -52.8608 5
      vertex -44.712 -75.4779 5
    endloop
  endfacet
  facet normal 0 0 1
    outer loop
      vertex -59.8665 -46.8384 5
      vertex -58.6396 -44.4975 5
      vertex -59.7235 -46.1196 5
    endloop
  endfacet
  facet normal 0 0 1
    outer loop
      vertex -45.1731 -52.2442 5
      vertex -59.8665 -46.8384 5
      vertex -61.4363 -52.8608 5
    endloop
  endfacet
  facet normal 0 0 1
    outer loop
      vertex -61.6032 -49.0376 5
      vertex -59.8665 -46.8384 5
      vertex -60.5911 -47.3697 5
    endloop
  endfacet
  facet normal 0 0 1
    outer loop
      vertex -44.712 -75.4779 5
      vertex -61.4363 -52.8608 5
      vertex -27.6268 -125.365 5
    endloop
  endfacet
  facet normal 0 0 1
    outer loop
      vertex -61.9 -50.9658 5
      vertex -59.8665 -46.8384 5
      vertex -61.6032 -49.0376 5
    endloop
  endfacet
  facet normal 0 0 1
    outer loop
      vertex -59.8665 -46.8384 5
      vertex -61.9 -50.9658 5
      vertex -61.4363 -52.8608 5
    endloop
  endfacet
  facet normal 0 0 1
    outer loop
      vertex 3.71581 22.5246 5
      vertex 10 23 5
      vertex 9.6194 24.9134 5
    endloop
  endfacet
  facet normal 0 0 1
    outer loop
      vertex 10 23 5
      vertex 9.6194 8.91342 5
      vertex 10 7 5
    endloop
  endfacet
  facet normal 0 0 1
    outer loop
      vertex 3.71581 22.5246 5
      vertex 9.6194 24.9134 5
      vertex 8.53553 26.5355 5
    endloop
  endfacet
  facet normal 0 0 1
    outer loop
      vertex 10 23 5
      vertex 8.53553 10.5355 5
      vertex 9.6194 8.91342 5
    endloop
  endfacet
  facet normal 0 0 1
    outer loop
      vertex 3.71581 22.5246 5
      vertex 8.53553 26.5355 5
      vertex 6.91342 27.6194 5
    endloop
  endfacet
  facet normal 0 0 1
    outer loop
      vertex 3.71581 19.4754 5
      vertex 10 23 5
      vertex 4.45 21 5
    endloop
  endfacet
  facet normal 0 0 1
    outer loop
      vertex 3.71581 22.5246 5
      vertex 6.91342 27.6194 5
      vertex 5 28 5
    endloop
  endfacet
  facet normal 0 0 1
    outer loop
      vertex 10 23 5
      vertex 6.91342 11.6194 5
      vertex 8.53553 10.5355 5
    endloop
  endfacet
  facet normal 0 0 1
    outer loop
      vertex 10 23 5
      vertex 3.71581 19.4754 5
      vertex 6.91342 11.6194 5
    endloop
  endfacet
  facet normal 0 0 1
    outer loop
      vertex 10 23 5
      vertex 3.71581 22.5246 5
      vertex 4.45 21 5
    endloop
  endfacet
  facet normal 0 0 1
    outer loop
      vertex 5 28 5
      vertex 2.06608 22.9011 5
      vertex 3.71581 22.5246 5
    endloop
  endfacet
  facet normal -0 0 1
    outer loop
      vertex 0 28 5
      vertex 2.06608 22.9011 5
      vertex 5 28 5
    endloop
  endfacet
  facet normal 0 0 1
    outer loop
      vertex 2.06608 22.9011 5
      vertex -1.91342 27.6194 5
      vertex 0.743111 21.8461 5
    endloop
  endfacet
  facet normal -0 0 1
    outer loop
      vertex -1.91342 27.6194 5
      vertex 2.06608 22.9011 5
      vertex 0 28 5
    endloop
  endfacet
  facet normal 0 0 1
    outer loop
      vertex 6.91342 11.6194 5
      vertex 3.71581 19.4754 5
      vertex 5 12 5
    endloop
  endfacet
  facet normal -0 0 1
    outer loop
      vertex 2.06608 19.0989 5
      vertex 5 12 5
      vertex 3.71581 19.4754 5
    endloop
  endfacet
  facet normal 0 0 1
    outer loop
      vertex 0 12 5
      vertex 2.06608 19.0989 5
      vertex 0.743111 20.1539 5
    endloop
  endfacet
  facet normal 0 0 1
    outer loop
      vertex 2.06608 19.0989 5
      vertex 0 12 5
      vertex 5 12 5
    endloop
  endfacet
  facet normal -0 0 1
    outer loop
      vertex -3.53553 26.5355 5
      vertex 0.743111 21.8461 5
      vertex -1.91342 27.6194 5
    endloop
  endfacet
  facet normal -0 0 1
    outer loop
      vertex -4.6194 24.9134 5
      vertex 0.743111 21.8461 5
      vertex -3.53553 26.5355 5
    endloop
  endfacet
  facet normal 0 -0 1
    outer loop
      vertex -1.91342 11.6194 5
      vertex 0.743111 20.1539 5
      vertex -5 23 5
    endloop
  endfacet
  facet normal -0 0 1
    outer loop
      vertex -5 23 5
      vertex 0.743111 21.8461 5
      vertex -4.6194 24.9134 5
    endloop
  endfacet
  facet normal 0 0 1
    outer loop
      vertex 0.743111 20.1539 5
      vertex -1.91342 11.6194 5
      vertex 0 12 5
    endloop
  endfacet
  facet normal 0 0 1
    outer loop
      vertex 0.743111 21.8461 5
      vertex -5 23 5
      vertex 0.743111 20.1539 5
    endloop
  endfacet
  facet normal 0 0 1
    outer loop
      vertex -1.91342 11.6194 5
      vertex -5 23 5
      vertex -3.53553 10.5355 5
    endloop
  endfacet
  facet normal 0 0 1
    outer loop
      vertex -5 9.14214 5
      vertex -3.53553 10.5355 5
      vertex -5 23 5
    endloop
  endfacet
  facet normal 0 0 1
    outer loop
      vertex -3.53553 10.5355 5
      vertex -5 9.14214 5
      vertex -4.6194 8.91342 5
    endloop
  endfacet
  facet normal 0 0 1
    outer loop
      vertex -5 9.14214 5
      vertex -5 7 5
      vertex -4.6194 8.91342 5
    endloop
  endfacet
  facet normal 0 0 1
    outer loop
      vertex -58.6396 -44.4975 5
      vertex -5 7 5
      vertex -5 9.14214 5
    endloop
  endfacet
  facet normal 0 0 1
    outer loop
      vertex -5 7 5
      vertex -58.6396 -44.4975 5
      vertex -5 5 5
    endloop
  endfacet
  facet normal 0 0 1
    outer loop
      vertex -4.6194 3.08658 5
      vertex -58.6396 -44.4975 5
      vertex -45.1731 -52.2442 5
    endloop
  endfacet
  facet normal 0.237688 -0.971342 0
    outer loop
      vertex -22.8772 -128.248 -0.5
      vertex -20.9822 -127.784 5
      vertex -22.8772 -128.248 5
    endloop
  endfacet
  facet normal 0.237688 -0.971342 0
    outer loop
      vertex -20.9822 -127.784 5
      vertex -22.8772 -128.248 -0.5
      vertex -20.9822 -127.784 -0.5
    endloop
  endfacet
  facet normal 0.422618 -0.906308 0
    outer loop
      vertex -20.9822 -127.784 -0.5
      vertex -16.4506 -125.671 5
      vertex -20.9822 -127.784 5
    endloop
  endfacet
  facet normal 0.422618 -0.906308 0
    outer loop
      vertex -16.4506 -125.671 5
      vertex -20.9822 -127.784 -0.5
      vertex -16.4506 -125.671 -0.5
    endloop
  endfacet
  facet normal 0.971342 0.237686 0
    outer loop
      vertex -13.5685 -120.921 5
      vertex -14.0322 -119.026 -0.5
      vertex -14.0322 -119.026 5
    endloop
  endfacet
  facet normal 0.971342 0.237686 0
    outer loop
      vertex -14.0322 -119.026 -0.5
      vertex -13.5685 -120.921 5
      vertex -13.5685 -120.921 -0.5
    endloop
  endfacet
  facet normal -0.152126 -0.988361 0
    outer loop
      vertex -24.8054 -127.951 -0.5
      vertex -22.8772 -128.248 5
      vertex -24.8054 -127.951 5
    endloop
  endfacet
  facet normal -0.152126 -0.988361 -0
    outer loop
      vertex -22.8772 -128.248 5
      vertex -24.8054 -127.951 -0.5
      vertex -22.8772 -128.248 -0.5
    endloop
  endfacet
  facet normal 0.854912 -0.518772 0
    outer loop
      vertex -14.8773 -124.517 5
      vertex -13.8653 -122.849 -0.5
      vertex -13.8653 -122.849 5
    endloop
  endfacet
  facet normal 0.854912 -0.518772 0
    outer loop
      vertex -13.8653 -122.849 -0.5
      vertex -14.8773 -124.517 5
      vertex -14.8773 -124.517 -0.5
    endloop
  endfacet
  facet normal 0.591309 -0.806445 0
    outer loop
      vertex -16.4506 -125.671 -0.5
      vertex -14.8773 -124.517 5
      vertex -16.4506 -125.671 5
    endloop
  endfacet
  facet normal 0.591309 -0.806445 0
    outer loop
      vertex -14.8773 -124.517 5
      vertex -16.4506 -125.671 -0.5
      vertex -14.8773 -124.517 -0.5
    endloop
  endfacet
  facet normal 0.988362 -0.152123 0
    outer loop
      vertex -13.8653 -122.849 5
      vertex -13.5685 -120.921 -0.5
      vertex -13.5685 -120.921 5
    endloop
  endfacet
  facet normal 0.988362 -0.152123 0
    outer loop
      vertex -13.5685 -120.921 -0.5
      vertex -13.8653 -122.849 5
      vertex -13.8653 -122.849 -0.5
    endloop
  endfacet
  facet normal 0 0 -1
    outer loop
      vertex -22.9183 -115.714 -0.5
      vertex -41.9815 -76.8351 -0.5
      vertex -40.9101 -75.5253 -0.5
    endloop
  endfacet
  facet normal 0 0 -1
    outer loop
      vertex -24.4519 -116.43 -0.5
      vertex -43.6736 -76.814 -0.5
      vertex -41.9815 -76.8351 -0.5
    endloop
  endfacet
  facet normal 0 0 -1
    outer loop
      vertex -27.6268 -125.365 -0.5
      vertex -44.712 -75.4779 -0.5
      vertex -43.6736 -76.814 -0.5
    endloop
  endfacet
  facet normal 0 0 -1
    outer loop
      vertex -44.3149 -73.833 -0.5
      vertex -58.6396 -44.4975 -0.5
      vertex -45.1731 -52.2442 -0.5
    endloop
  endfacet
  facet normal 0 0 -1
    outer loop
      vertex -61.4363 -52.8608 -0.5
      vertex -44.712 -75.4779 -0.5
      vertex -27.6268 -125.365 -0.5
    endloop
  endfacet
  facet normal 0 0 -1
    outer loop
      vertex -44.3149 -73.833 -0.5
      vertex -61.4363 -52.8608 -0.5
      vertex -58.6396 -44.4975 -0.5
    endloop
  endfacet
  facet normal 0 0 -1
    outer loop
      vertex -58.6396 -44.4975 -0.5
      vertex -59.8665 -46.8384 -0.5
      vertex -59.7235 -46.1196 -0.5
    endloop
  endfacet
  facet normal 0 0 -1
    outer loop
      vertex -58.6396 -44.4975 -0.5
      vertex -61.4363 -52.8608 -0.5
      vertex -59.8665 -46.8384 -0.5
    endloop
  endfacet
  facet normal 0 0 -1
    outer loop
      vertex -61.9 -50.9658 -0.5
      vertex -59.8665 -46.8384 -0.5
      vertex -61.4363 -52.8608 -0.5
    endloop
  endfacet
  facet normal 0 0 -1
    outer loop
      vertex -59.8665 -46.8384 -0.5
      vertex -61.6032 -49.0376 -0.5
      vertex -60.5911 -47.3697 -0.5
    endloop
  endfacet
  facet normal 0 0 -1
    outer loop
      vertex -59.8665 -46.8384 -0.5
      vertex -61.9 -50.9658 -0.5
      vertex -61.6032 -49.0376 -0.5
    endloop
  endfacet
  facet normal 0 0 -1
    outer loop
      vertex 8.53553 1.46447 -0.5
      vertex 10 5 -0.5
      vertex 9.6194 3.08658 -0.5
    endloop
  endfacet
  facet normal 0 0 -1
    outer loop
      vertex 10 5 -0.5
      vertex -5 9.14214 -0.5
      vertex 10 23 -0.5
    endloop
  endfacet
  facet normal -0 0 -1
    outer loop
      vertex 10 5 -0.5
      vertex 8.53553 1.46447 -0.5
      vertex -5 9.14214 -0.5
    endloop
  endfacet
  facet normal 0 -0 -1
    outer loop
      vertex -5 23 -0.5
      vertex 10 23 -0.5
      vertex -5 9.14214 -0.5
    endloop
  endfacet
  facet normal 0 -0 -1
    outer loop
      vertex 5 28 -0.5
      vertex 10 23 -0.5
      vertex -5 23 -0.5
    endloop
  endfacet
  facet normal 0 0 -1
    outer loop
      vertex 10 23 -0.5
      vertex 5 28 -0.5
      vertex 9.6194 24.9134 -0.5
    endloop
  endfacet
  facet normal 0 0 -1
    outer loop
      vertex 9.6194 24.9134 -0.5
      vertex 5 28 -0.5
      vertex 8.53553 26.5355 -0.5
    endloop
  endfacet
  facet normal 0 0 -1
    outer loop
      vertex 8.53553 26.5355 -0.5
      vertex 5 28 -0.5
      vertex 6.91342 27.6194 -0.5
    endloop
  endfacet
  facet normal 0 0 -1
    outer loop
      vertex 0 28 -0.5
      vertex -5 23 -0.5
      vertex -1.91342 27.6194 -0.5
    endloop
  endfacet
  facet normal 0 0 -1
    outer loop
      vertex -1.91342 27.6194 -0.5
      vertex -5 23 -0.5
      vertex -3.53553 26.5355 -0.5
    endloop
  endfacet
  facet normal 0 0 -1
    outer loop
      vertex -3.53553 26.5355 -0.5
      vertex -5 23 -0.5
      vertex -4.6194 24.9134 -0.5
    endloop
  endfacet
  facet normal -0 0 -1
    outer loop
      vertex 5 28 -0.5
      vertex -5 23 -0.5
      vertex 0 28 -0.5
    endloop
  endfacet
  facet normal 0 0 -1
    outer loop
      vertex -45.1731 -52.2442 -0.5
      vertex -5 9.14214 -0.5
      vertex 8.53553 1.46447 -0.5
    endloop
  endfacet
  facet normal 0 0 -1
    outer loop
      vertex -5 9.14214 -0.5
      vertex -45.1731 -52.2442 -0.5
      vertex -58.6396 -44.4975 -0.5
    endloop
  endfacet
  facet normal 0 0 -1
    outer loop
      vertex -14.8773 -124.517 -0.5
      vertex -22.1185 -119.432 -0.5
      vertex -21.047 -118.122 -0.5
    endloop
  endfacet
  facet normal 0 0 -1
    outer loop
      vertex -22.8772 -128.248 -0.5
      vertex -22.1185 -119.432 -0.5
      vertex -20.9822 -127.784 -0.5
    endloop
  endfacet
  facet normal 0 0 -1
    outer loop
      vertex -22.8772 -128.248 -0.5
      vertex -23.8105 -119.41 -0.5
      vertex -22.1185 -119.432 -0.5
    endloop
  endfacet
  facet normal 0 0 -1
    outer loop
      vertex -24.8054 -127.951 -0.5
      vertex -23.8105 -119.41 -0.5
      vertex -22.8772 -128.248 -0.5
    endloop
  endfacet
  facet normal 0 0 -1
    outer loop
      vertex -26.4732 -126.939 -0.5
      vertex -23.8105 -119.41 -0.5
      vertex -24.8054 -127.951 -0.5
    endloop
  endfacet
  facet normal 0 0 -1
    outer loop
      vertex -23.8105 -119.41 -0.5
      vertex -26.4732 -126.939 -0.5
      vertex -27.6268 -125.365 -0.5
    endloop
  endfacet
  facet normal 0 0 -1
    outer loop
      vertex -21.047 -118.122 -0.5
      vertex -13.5685 -120.921 -0.5
      vertex -13.8653 -122.849 -0.5
    endloop
  endfacet
  facet normal 0 0 -1
    outer loop
      vertex -21.047 -118.122 -0.5
      vertex -13.8653 -122.849 -0.5
      vertex -14.8773 -124.517 -0.5
    endloop
  endfacet
  facet normal 0 0 -1
    outer loop
      vertex -22.1185 -119.432 -0.5
      vertex -14.8773 -124.517 -0.5
      vertex -16.4506 -125.671 -0.5
    endloop
  endfacet
  facet normal 0 0 -1
    outer loop
      vertex -22.1185 -119.432 -0.5
      vertex -16.4506 -125.671 -0.5
      vertex -20.9822 -127.784 -0.5
    endloop
  endfacet
  facet normal 0 0 -1
    outer loop
      vertex -13.5685 -120.921 -0.5
      vertex -21.047 -118.122 -0.5
      vertex -14.0322 -119.026 -0.5
    endloop
  endfacet
  facet normal 0 0 -1
    outer loop
      vertex -21.403 -116.468 -0.5
      vertex -14.0322 -119.026 -0.5
      vertex -21.047 -118.122 -0.5
    endloop
  endfacet
  facet normal 0 0 -1
    outer loop
      vertex -22.9183 -115.714 -0.5
      vertex -14.0322 -119.026 -0.5
      vertex -21.403 -116.468 -0.5
    endloop
  endfacet
  facet normal -0 0 -1
    outer loop
      vertex -23.8105 -119.41 -0.5
      vertex -27.6268 -125.365 -0.5
      vertex -24.849 -118.074 -0.5
    endloop
  endfacet
  facet normal 0 0 -1
    outer loop
      vertex -27.6268 -125.365 -0.5
      vertex -24.4519 -116.43 -0.5
      vertex -24.849 -118.074 -0.5
    endloop
  endfacet
  facet normal 0 0 -1
    outer loop
      vertex -43.6736 -76.814 -0.5
      vertex -24.4519 -116.43 -0.5
      vertex -27.6268 -125.365 -0.5
    endloop
  endfacet
  facet normal 0 0 -1
    outer loop
      vertex -41.9815 -76.8351 -0.5
      vertex -22.9183 -115.714 -0.5
      vertex -24.4519 -116.43 -0.5
    endloop
  endfacet
  facet normal 0 0 -1
    outer loop
      vertex -40.9101 -75.5253 -0.5
      vertex -14.0322 -119.026 -0.5
      vertex -22.9183 -115.714 -0.5
    endloop
  endfacet
  facet normal 0 0 -1
    outer loop
      vertex -41.266 -73.8711 -0.5
      vertex -14.0322 -119.026 -0.5
      vertex -40.9101 -75.5253 -0.5
    endloop
  endfacet
  facet normal 0 0 -1
    outer loop
      vertex -41.266 -73.8711 -0.5
      vertex -45.1731 -52.2442 -0.5
      vertex -14.0322 -119.026 -0.5
    endloop
  endfacet
  facet normal 0 0 -1
    outer loop
      vertex -42.7813 -73.1179 -0.5
      vertex -45.1731 -52.2442 -0.5
      vertex -41.266 -73.8711 -0.5
    endloop
  endfacet
  facet normal 0 0 -1
    outer loop
      vertex -44.3149 -73.833 -0.5
      vertex -45.1731 -52.2442 -0.5
      vertex -42.7813 -73.1179 -0.5
    endloop
  endfacet
  facet normal 0 0 -1
    outer loop
      vertex -61.4363 -52.8608 -0.5
      vertex -44.3149 -73.833 -0.5
      vertex -44.712 -75.4779 -0.5
    endloop
  endfacet
  facet normal -0.591311 0.806444 0
    outer loop
      vertex -59.8665 -46.8384 -0.5
      vertex -60.5911 -47.3697 5
      vertex -59.8665 -46.8384 5
    endloop
  endfacet
  facet normal -0.591311 0.806444 0
    outer loop
      vertex -60.5911 -47.3697 5
      vertex -59.8665 -46.8384 -0.5
      vertex -60.5911 -47.3697 -0.5
    endloop
  endfacet
  facet normal -0.518774 -0.854912 0
    outer loop
      vertex -26.4732 -126.939 -0.5
      vertex -24.8054 -127.951 5
      vertex -26.4732 -126.939 5
    endloop
  endfacet
  facet normal -0.518774 -0.854912 -0
    outer loop
      vertex -24.8054 -127.951 5
      vertex -26.4732 -126.939 -0.5
      vertex -24.8054 -127.951 -0.5
    endloop
  endfacet
  facet normal -0.806445 -0.591309 0
    outer loop
      vertex -26.4732 -126.939 -0.5
      vertex -27.6268 -125.365 5
      vertex -27.6268 -125.365 -0.5
    endloop
  endfacet
  facet normal -0.806445 -0.591309 0
    outer loop
      vertex -27.6268 -125.365 5
      vertex -26.4732 -126.939 -0.5
      vertex -26.4732 -126.939 5
    endloop
  endfacet
  facet normal -0.773997 0.633189 0
    outer loop
      vertex -22.1185 -119.432 -0.5
      vertex -21.047 -118.122 5
      vertex -21.047 -118.122 -0.5
    endloop
  endfacet
  facet normal -0.773997 0.633189 0
    outer loop
      vertex -21.047 -118.122 5
      vertex -22.1185 -119.432 -0.5
      vertex -22.1185 -119.432 5
    endloop
  endfacet
  facet normal 0.422619 -0.906308 0
    outer loop
      vertex -24.4519 -116.43 -0.5
      vertex -22.9183 -115.714 5
      vertex -24.4519 -116.43 5
    endloop
  endfacet
  facet normal 0.422619 -0.906308 0
    outer loop
      vertex -22.9183 -115.714 5
      vertex -24.4519 -116.43 -0.5
      vertex -22.9183 -115.714 -0.5
    endloop
  endfacet
  facet normal -0.445082 -0.89549 0
    outer loop
      vertex -22.9183 -115.714 -0.5
      vertex -21.403 -116.468 5
      vertex -22.9183 -115.714 5
    endloop
  endfacet
  facet normal -0.445082 -0.89549 -0
    outer loop
      vertex -21.403 -116.468 5
      vertex -22.9183 -115.714 -0.5
      vertex -21.403 -116.468 -0.5
    endloop
  endfacet
  facet normal -0.977626 -0.21035 0
    outer loop
      vertex -21.047 -118.122 -0.5
      vertex -21.403 -116.468 5
      vertex -21.403 -116.468 -0.5
    endloop
  endfacet
  facet normal -0.977626 -0.21035 0
    outer loop
      vertex -21.403 -116.468 5
      vertex -21.047 -118.122 -0.5
      vertex -21.047 -118.122 5
    endloop
  endfacet
  facet normal 0.0124666 0.999922 -0
    outer loop
      vertex -22.1185 -119.432 -0.5
      vertex -23.8105 -119.41 5
      vertex -22.1185 -119.432 5
    endloop
  endfacet
  facet normal 0.0124666 0.999922 0
    outer loop
      vertex -23.8105 -119.41 5
      vertex -22.1185 -119.432 -0.5
      vertex -23.8105 -119.41 -0.5
    endloop
  endfacet
  facet normal 0.972078 -0.234657 0
    outer loop
      vertex -24.849 -118.074 5
      vertex -24.4519 -116.43 -0.5
      vertex -24.4519 -116.43 5
    endloop
  endfacet
  facet normal 0.972078 -0.234657 0
    outer loop
      vertex -24.4519 -116.43 -0.5
      vertex -24.849 -118.074 5
      vertex -24.849 -118.074 -0.5
    endloop
  endfacet
  facet normal 0.789543 0.613695 0
    outer loop
      vertex -23.8105 -119.41 5
      vertex -24.849 -118.074 -0.5
      vertex -24.849 -118.074 5
    endloop
  endfacet
  facet normal 0.789543 0.613695 0
    outer loop
      vertex -24.849 -118.074 -0.5
      vertex -23.8105 -119.41 5
      vertex -23.8105 -119.41 -0.5
    endloop
  endfacet
  facet normal -0.773998 0.633188 0
    outer loop
      vertex -41.9815 -76.8351 -0.5
      vertex -40.9101 -75.5253 5
      vertex -40.9101 -75.5253 -0.5
    endloop
  endfacet
  facet normal -0.773998 0.633188 0
    outer loop
      vertex -40.9101 -75.5253 5
      vertex -41.9815 -76.8351 -0.5
      vertex -41.9815 -76.8351 5
    endloop
  endfacet
  facet normal 0.422619 -0.906307 0
    outer loop
      vertex -44.3149 -73.833 -0.5
      vertex -42.7813 -73.1179 5
      vertex -44.3149 -73.833 5
    endloop
  endfacet
  facet normal 0.422619 -0.906307 0
    outer loop
      vertex -42.7813 -73.1179 5
      vertex -44.3149 -73.833 -0.5
      vertex -42.7813 -73.1179 -0.5
    endloop
  endfacet
  facet normal -0.445082 -0.89549 0
    outer loop
      vertex -42.7813 -73.1179 -0.5
      vertex -41.266 -73.8711 5
      vertex -42.7813 -73.1179 5
    endloop
  endfacet
  facet normal -0.445082 -0.89549 -0
    outer loop
      vertex -41.266 -73.8711 5
      vertex -42.7813 -73.1179 -0.5
      vertex -41.266 -73.8711 -0.5
    endloop
  endfacet
  facet normal -0.977626 -0.210349 0
    outer loop
      vertex -40.9101 -75.5253 -0.5
      vertex -41.266 -73.8711 5
      vertex -41.266 -73.8711 -0.5
    endloop
  endfacet
  facet normal -0.977626 -0.210349 0
    outer loop
      vertex -41.266 -73.8711 5
      vertex -40.9101 -75.5253 -0.5
      vertex -40.9101 -75.5253 5
    endloop
  endfacet
  facet normal 0.0124666 0.999922 -0
    outer loop
      vertex -41.9815 -76.8351 -0.5
      vertex -43.6736 -76.814 5
      vertex -41.9815 -76.8351 5
    endloop
  endfacet
  facet normal 0.0124666 0.999922 0
    outer loop
      vertex -43.6736 -76.814 5
      vertex -41.9815 -76.8351 -0.5
      vertex -43.6736 -76.814 -0.5
    endloop
  endfacet
  facet normal 0.972078 -0.234658 0
    outer loop
      vertex -44.712 -75.4779 5
      vertex -44.3149 -73.833 -0.5
      vertex -44.3149 -73.833 5
    endloop
  endfacet
  facet normal 0.972078 -0.234658 0
    outer loop
      vertex -44.3149 -73.833 -0.5
      vertex -44.712 -75.4779 5
      vertex -44.712 -75.4779 -0.5
    endloop
  endfacet
  facet normal 0.789543 0.613695 0
    outer loop
      vertex -43.6736 -76.814 5
      vertex -44.712 -75.4779 -0.5
      vertex -44.712 -75.4779 5
    endloop
  endfacet
  facet normal 0.789543 0.613695 0
    outer loop
      vertex -44.712 -75.4779 -0.5
      vertex -43.6736 -76.814 5
      vertex -43.6736 -76.814 -0.5
    endloop
  endfacet
  facet normal 0.83147 -0.55557 0
    outer loop
      vertex 8.53553 1.46447 5
      vertex 9.6194 3.08658 13
      vertex 8.53553 1.46447 13
    endloop
  endfacet
  facet normal 0.83147 -0.55557 0
    outer loop
      vertex 9.6194 3.08658 13
      vertex 8.53553 1.46447 5
      vertex 9.6194 3.08658 -0.5
    endloop
  endfacet
  facet normal 0.83147 -0.55557 0
    outer loop
      vertex 9.6194 3.08658 -0.5
      vertex 8.53553 1.46447 5
      vertex 8.53553 1.46447 -0.5
    endloop
  endfacet
  facet normal -1 6.88183e-08 0
    outer loop
      vertex -5 9.14214 -0.5
      vertex -5 23 5
      vertex -5 23 -0.5
    endloop
  endfacet
  facet normal -1 6.88183e-08 0
    outer loop
      vertex -5 23 5
      vertex -5 9.14214 -0.5
      vertex -5 9.14214 5
    endloop
  endfacet
  facet normal 0 1 -0
    outer loop
      vertex 5 28 -0.5
      vertex 0 28 5
      vertex 5 28 5
    endloop
  endfacet
  facet normal 0 1 0
    outer loop
      vertex 0 28 5
      vertex 5 28 -0.5
      vertex 0 28 -0.5
    endloop
  endfacet
  facet normal -0.195091 0.980785 0
    outer loop
      vertex 0 28 -0.5
      vertex -1.91342 27.6194 5
      vertex 0 28 5
    endloop
  endfacet
  facet normal -0.195091 0.980785 0
    outer loop
      vertex -1.91342 27.6194 5
      vertex 0 28 -0.5
      vertex -1.91342 27.6194 -0.5
    endloop
  endfacet
  facet normal 0.83147 0.55557 0
    outer loop
      vertex 9.6194 24.9134 5
      vertex 8.53553 26.5355 -0.5
      vertex 8.53553 26.5355 5
    endloop
  endfacet
  facet normal 0.83147 0.55557 0
    outer loop
      vertex 8.53553 26.5355 -0.5
      vertex 9.6194 24.9134 5
      vertex 9.6194 24.9134 -0.5
    endloop
  endfacet
  facet normal 1 0 0
    outer loop
      vertex 10 23 13
      vertex 10 7 7.5
      vertex 10 23 7.5
    endloop
  endfacet
  facet normal 1 0 0
    outer loop
      vertex 10 7 7.5
      vertex 10 5 13
      vertex 10 7 5
    endloop
  endfacet
  facet normal 1 -0 0
    outer loop
      vertex 10 5 13
      vertex 10 7 7.5
      vertex 10 23 13
    endloop
  endfacet
  facet normal 1 -0 0
    outer loop
      vertex 10 7 5
      vertex 10 23 -0.5
      vertex 10 23 5
    endloop
  endfacet
  facet normal 1 0 0
    outer loop
      vertex 10 7 5
      vertex 10 5 -0.5
      vertex 10 23 -0.5
    endloop
  endfacet
  facet normal 1 0 0
    outer loop
      vertex 10 5 -0.5
      vertex 10 7 5
      vertex 10 5 13
    endloop
  endfacet
  facet normal 0.980785 -0.195091 0
    outer loop
      vertex 9.6194 3.08658 13
      vertex 10 5 -0.5
      vertex 10 5 13
    endloop
  endfacet
  facet normal 0.980785 -0.195091 0
    outer loop
      vertex 10 5 -0.5
      vertex 9.6194 3.08658 13
      vertex 9.6194 3.08658 -0.5
    endloop
  endfacet
  facet normal -0.980785 0.195091 0
    outer loop
      vertex -5 23 -0.5
      vertex -4.6194 24.9134 5
      vertex -4.6194 24.9134 -0.5
    endloop
  endfacet
  facet normal -0.980785 0.195091 0
    outer loop
      vertex -4.6194 24.9134 5
      vertex -5 23 -0.5
      vertex -5 23 5
    endloop
  endfacet
  facet normal -0.55557 0.83147 0
    outer loop
      vertex -1.91342 27.6194 -0.5
      vertex -3.53553 26.5355 5
      vertex -1.91342 27.6194 5
    endloop
  endfacet
  facet normal -0.55557 0.83147 0
    outer loop
      vertex -3.53553 26.5355 5
      vertex -1.91342 27.6194 -0.5
      vertex -3.53553 26.5355 -0.5
    endloop
  endfacet
  facet normal 0.195091 0.980785 -0
    outer loop
      vertex 6.91342 27.6194 -0.5
      vertex 5 28 5
      vertex 6.91342 27.6194 5
    endloop
  endfacet
  facet normal 0.195091 0.980785 0
    outer loop
      vertex 5 28 5
      vertex 6.91342 27.6194 -0.5
      vertex 5 28 -0.5
    endloop
  endfacet
  facet normal 0.55557 0.83147 -0
    outer loop
      vertex 8.53553 26.5355 -0.5
      vertex 6.91342 27.6194 5
      vertex 8.53553 26.5355 5
    endloop
  endfacet
  facet normal 0.55557 0.83147 0
    outer loop
      vertex 6.91342 27.6194 5
      vertex 8.53553 26.5355 -0.5
      vertex 6.91342 27.6194 -0.5
    endloop
  endfacet
  facet normal 0.980785 0.195091 0
    outer loop
      vertex 10 23 5
      vertex 9.6194 24.9134 -0.5
      vertex 9.6194 24.9134 5
    endloop
  endfacet
  facet normal 0.980785 0.195091 0
    outer loop
      vertex 9.6194 24.9134 -0.5
      vertex 10 23 5
      vertex 10 23 -0.5
    endloop
  endfacet
  facet normal -0.83147 0.55557 0
    outer loop
      vertex -4.6194 24.9134 -0.5
      vertex -3.53553 26.5355 5
      vertex -3.53553 26.5355 -0.5
    endloop
  endfacet
  facet normal -0.83147 0.55557 0
    outer loop
      vertex -3.53553 26.5355 5
      vertex -4.6194 24.9134 -0.5
      vertex -4.6194 24.9134 5
    endloop
  endfacet
  facet normal 0.195091 -0.980785 0
    outer loop
      vertex 5 0 5
      vertex 6.91342 0.380603 13
      vertex 5 0 13
    endloop
  endfacet
  facet normal 0.195091 -0.980785 0
    outer loop
      vertex 6.91342 0.380603 13
      vertex 5 0 5
      vertex 6.91342 0.380603 5
    endloop
  endfacet
  facet normal -1 5.96046e-08 0
    outer loop
      vertex -5 7 12.5
      vertex -5 23 7.5
      vertex -5 7 7.5
    endloop
  endfacet
  facet normal -1 5.96046e-08 0
    outer loop
      vertex -5 23 7.5
      vertex -5 7 12.5
      vertex -5 23 13
    endloop
  endfacet
  facet normal -1 0 0
    outer loop
      vertex -5 5 13
      vertex -5 7 12.5
      vertex -5 5 12.5
    endloop
  endfacet
  facet normal -1 5.29819e-08 2.11928e-07
    outer loop
      vertex -5 7 12.5
      vertex -5 5 13
      vertex -5 23 13
    endloop
  endfacet
  facet normal 0.195091 0.980785 -0
    outer loop
      vertex 6.91342 27.6194 7.5
      vertex 5 28 13
      vertex 6.91342 27.6194 13
    endloop
  endfacet
  facet normal 0.195091 0.980785 0
    outer loop
      vertex 5 28 13
      vertex 6.91342 27.6194 7.5
      vertex 5 28 7.5
    endloop
  endfacet
  facet normal -0.980785 -0.195091 0
    outer loop
      vertex -4.6194 3.08658 5
      vertex -5 5 12.5
      vertex -5 5 5
    endloop
  endfacet
  facet normal -0.980785 -0.195091 -0
    outer loop
      vertex -4.6194 3.08658 13
      vertex -5 5 12.5
      vertex -4.6194 3.08658 5
    endloop
  endfacet
  facet normal -0.980785 -0.195091 0
    outer loop
      vertex -5 5 12.5
      vertex -4.6194 3.08658 13
      vertex -5 5 13
    endloop
  endfacet
  facet normal 0 0 -1
    outer loop
      vertex 9.6194 8.91342 7.5
      vertex 10 23 7.5
      vertex 10 7 7.5
    endloop
  endfacet
  facet normal 0 0 -1
    outer loop
      vertex 8.53553 10.5355 7.5
      vertex 10 23 7.5
      vertex 9.6194 8.91342 7.5
    endloop
  endfacet
  facet normal 0 0 -1
    outer loop
      vertex 6.91342 11.6194 7.5
      vertex 10 23 7.5
      vertex 8.53553 10.5355 7.5
    endloop
  endfacet
  facet normal 0 0 -1
    outer loop
      vertex 3.71581 19.4754 7.5
      vertex 10 23 7.5
      vertex 6.91342 11.6194 7.5
    endloop
  endfacet
  facet normal 0 0 -1
    outer loop
      vertex 3.71581 22.5246 7.5
      vertex 10 23 7.5
      vertex 4.45 21 7.5
    endloop
  endfacet
  facet normal -0 0 -1
    outer loop
      vertex 10 23 7.5
      vertex 3.71581 22.5246 7.5
      vertex 9.6194 24.9134 7.5
    endloop
  endfacet
  facet normal 0 0 -1
    outer loop
      vertex 3.71581 19.4754 7.5
      vertex 6.91342 11.6194 7.5
      vertex 5 12 7.5
    endloop
  endfacet
  facet normal -0 0 -1
    outer loop
      vertex 9.6194 24.9134 7.5
      vertex 3.71581 22.5246 7.5
      vertex 8.53553 26.5355 7.5
    endloop
  endfacet
  facet normal -0 0 -1
    outer loop
      vertex 8.53553 26.5355 7.5
      vertex 3.71581 22.5246 7.5
      vertex 6.91342 27.6194 7.5
    endloop
  endfacet
  facet normal 0 0 -1
    outer loop
      vertex 10 23 7.5
      vertex 3.71581 19.4754 7.5
      vertex 4.45 21 7.5
    endloop
  endfacet
  facet normal 0 0 -1
    outer loop
      vertex 5 12 7.5
      vertex 2.06608 19.0989 7.5
      vertex 3.71581 19.4754 7.5
    endloop
  endfacet
  facet normal 0 0 -1
    outer loop
      vertex 0 12 7.5
      vertex 2.06608 19.0989 7.5
      vertex 5 12 7.5
    endloop
  endfacet
  facet normal 0 0 -1
    outer loop
      vertex -1.91342 11.6194 7.5
      vertex 0.743111 20.1539 7.5
      vertex 0 12 7.5
    endloop
  endfacet
  facet normal -0 0 -1
    outer loop
      vertex 2.06608 19.0989 7.5
      vertex 0 12 7.5
      vertex 0.743111 20.1539 7.5
    endloop
  endfacet
  facet normal -0 0 -1
    outer loop
      vertex 6.91342 27.6194 7.5
      vertex 3.71581 22.5246 7.5
      vertex 5 28 7.5
    endloop
  endfacet
  facet normal 0 0 -1
    outer loop
      vertex 2.06608 22.9011 7.5
      vertex 5 28 7.5
      vertex 3.71581 22.5246 7.5
    endloop
  endfacet
  facet normal 0 0 -1
    outer loop
      vertex -1.91342 27.6194 7.5
      vertex 2.06608 22.9011 7.5
      vertex 0.743111 21.8461 7.5
    endloop
  endfacet
  facet normal 0 0 -1
    outer loop
      vertex 2.06608 22.9011 7.5
      vertex 0 28 7.5
      vertex 5 28 7.5
    endloop
  endfacet
  facet normal 0 0 -1
    outer loop
      vertex -5 23 7.5
      vertex 0.743111 20.1539 7.5
      vertex -1.91342 11.6194 7.5
    endloop
  endfacet
  facet normal 0 0 -1
    outer loop
      vertex 0.743111 20.1539 7.5
      vertex -5 23 7.5
      vertex 0.743111 21.8461 7.5
    endloop
  endfacet
  facet normal 0 -0 -1
    outer loop
      vertex -4.6194 24.9134 7.5
      vertex 0.743111 21.8461 7.5
      vertex -5 23 7.5
    endloop
  endfacet
  facet normal 0 0 -1
    outer loop
      vertex -5 23 7.5
      vertex -1.91342 11.6194 7.5
      vertex -3.53553 10.5355 7.5
    endloop
  endfacet
  facet normal 0 0 -1
    outer loop
      vertex 2.06608 22.9011 7.5
      vertex -1.91342 27.6194 7.5
      vertex 0 28 7.5
    endloop
  endfacet
  facet normal 0 0 -1
    outer loop
      vertex 0.743111 21.8461 7.5
      vertex -3.53553 26.5355 7.5
      vertex -1.91342 27.6194 7.5
    endloop
  endfacet
  facet normal 0 0 -1
    outer loop
      vertex -5 23 7.5
      vertex -3.53553 10.5355 7.5
      vertex -4.6194 8.91342 7.5
    endloop
  endfacet
  facet normal 0 0 -1
    outer loop
      vertex 0.743111 21.8461 7.5
      vertex -4.6194 24.9134 7.5
      vertex -3.53553 26.5355 7.5
    endloop
  endfacet
  facet normal 0 -0 -1
    outer loop
      vertex -5 23 7.5
      vertex -4.6194 8.91342 7.5
      vertex -5 7 7.5
    endloop
  endfacet
  facet normal 0 0 1
    outer loop
      vertex 3.71581 22.5246 13
      vertex 10 23 13
      vertex 9.6194 24.9134 13
    endloop
  endfacet
  facet normal 0 0 1
    outer loop
      vertex 10 23 13
      vertex 3.71581 19.4754 13
      vertex 10 5 13
    endloop
  endfacet
  facet normal 0 0 1
    outer loop
      vertex 3.71581 22.5246 13
      vertex 9.6194 24.9134 13
      vertex 8.53553 26.5355 13
    endloop
  endfacet
  facet normal 0 0 1
    outer loop
      vertex 10 23 13
      vertex 4.45 21 13
      vertex 3.71581 19.4754 13
    endloop
  endfacet
  facet normal 0 0 1
    outer loop
      vertex 3.71581 22.5246 13
      vertex 8.53553 26.5355 13
      vertex 6.91342 27.6194 13
    endloop
  endfacet
  facet normal -0 0 1
    outer loop
      vertex 2.06608 19.0989 13
      vertex 10 5 13
      vertex 3.71581 19.4754 13
    endloop
  endfacet
  facet normal 0 0 1
    outer loop
      vertex 3.71581 22.5246 13
      vertex 6.91342 27.6194 13
      vertex 5 28 13
    endloop
  endfacet
  facet normal -0 0 1
    outer loop
      vertex -5 5 13
      vertex 10 5 13
      vertex 2.06608 19.0989 13
    endloop
  endfacet
  facet normal 0 -0 1
    outer loop
      vertex 5 0 13
      vertex 10 5 13
      vertex -5 5 13
    endloop
  endfacet
  facet normal 0 0 1
    outer loop
      vertex 10 23 13
      vertex 3.71581 22.5246 13
      vertex 4.45 21 13
    endloop
  endfacet
  facet normal 0 0 1
    outer loop
      vertex 5 28 13
      vertex 2.06608 22.9011 13
      vertex 3.71581 22.5246 13
    endloop
  endfacet
  facet normal -0 0 1
    outer loop
      vertex 0 28 13
      vertex 2.06608 22.9011 13
      vertex 5 28 13
    endloop
  endfacet
  facet normal 0 0 1
    outer loop
      vertex 2.06608 22.9011 13
      vertex -1.91342 27.6194 13
      vertex 0.743111 21.8461 13
    endloop
  endfacet
  facet normal -0 0 1
    outer loop
      vertex -1.91342 27.6194 13
      vertex 2.06608 22.9011 13
      vertex 0 28 13
    endloop
  endfacet
  facet normal 0 0 1
    outer loop
      vertex 10 5 13
      vertex 5 0 13
      vertex 9.6194 3.08658 13
    endloop
  endfacet
  facet normal 0 0 1
    outer loop
      vertex 8.53553 1.46447 13
      vertex 5 0 13
      vertex 6.91342 0.380603 13
    endloop
  endfacet
  facet normal 0 0 1
    outer loop
      vertex -5 5 13
      vertex 2.06608 19.0989 13
      vertex 0.743111 20.1539 13
    endloop
  endfacet
  facet normal 0 0 1
    outer loop
      vertex 9.6194 3.08658 13
      vertex 5 0 13
      vertex 8.53553 1.46447 13
    endloop
  endfacet
  facet normal -0 0 1
    outer loop
      vertex -3.53553 26.5355 13
      vertex 0.743111 21.8461 13
      vertex -1.91342 27.6194 13
    endloop
  endfacet
  facet normal -0 0 1
    outer loop
      vertex -4.6194 24.9134 13
      vertex 0.743111 21.8461 13
      vertex -3.53553 26.5355 13
    endloop
  endfacet
  facet normal 0 0 1
    outer loop
      vertex -5 5 13
      vertex 0.743111 20.1539 13
      vertex -5 23 13
    endloop
  endfacet
  facet normal -0 0 1
    outer loop
      vertex -5 23 13
      vertex 0.743111 21.8461 13
      vertex -4.6194 24.9134 13
    endloop
  endfacet
  facet normal 0 0 1
    outer loop
      vertex 5 0 13
      vertex -5 5 13
      vertex 0 0 13
    endloop
  endfacet
  facet normal 0 0 1
    outer loop
      vertex 0.743111 21.8461 13
      vertex -5 23 13
      vertex 0.743111 20.1539 13
    endloop
  endfacet
  facet normal 0 0 1
    outer loop
      vertex 0 0 13
      vertex -5 5 13
      vertex -1.91342 0.380603 13
    endloop
  endfacet
  facet normal 0 0 1
    outer loop
      vertex -1.91342 0.380603 13
      vertex -5 5 13
      vertex -3.53553 1.46447 13
    endloop
  endfacet
  facet normal 0 0 1
    outer loop
      vertex -3.53553 1.46447 13
      vertex -5 5 13
      vertex -4.6194 3.08658 13
    endloop
  endfacet
  facet normal -0.980785 0.195091 0
    outer loop
      vertex -5 23 7.5
      vertex -4.6194 24.9134 13
      vertex -4.6194 24.9134 7.5
    endloop
  endfacet
  facet normal -0.980785 0.195091 0
    outer loop
      vertex -4.6194 24.9134 13
      vertex -5 23 7.5
      vertex -5 23 13
    endloop
  endfacet
  facet normal 0.555569 -0.83147 0
    outer loop
      vertex 6.91342 0.380603 5
      vertex 8.53553 1.46447 13
      vertex 6.91342 0.380603 13
    endloop
  endfacet
  facet normal 0.555569 -0.83147 0
    outer loop
      vertex 8.53553 1.46447 13
      vertex 6.91342 0.380603 5
      vertex 8.53553 1.46447 5
    endloop
  endfacet
  facet normal -0.83147 0.55557 0
    outer loop
      vertex -4.6194 24.9134 7.5
      vertex -3.53553 26.5355 13
      vertex -3.53553 26.5355 7.5
    endloop
  endfacet
  facet normal -0.83147 0.55557 0
    outer loop
      vertex -3.53553 26.5355 13
      vertex -4.6194 24.9134 7.5
      vertex -4.6194 24.9134 13
    endloop
  endfacet
  facet normal -0.83147 -0.55557 0
    outer loop
      vertex -3.53553 1.46447 5
      vertex -4.6194 3.08658 13
      vertex -4.6194 3.08658 5
    endloop
  endfacet
  facet normal -0.83147 -0.55557 0
    outer loop
      vertex -4.6194 3.08658 13
      vertex -3.53553 1.46447 5
      vertex -3.53553 1.46447 13
    endloop
  endfacet
  facet normal 0 -1 0
    outer loop
      vertex 0 0 5
      vertex 5 0 13
      vertex 0 0 13
    endloop
  endfacet
  facet normal 0 -1 -0
    outer loop
      vertex 5 0 13
      vertex 0 0 5
      vertex 5 0 5
    endloop
  endfacet
  facet normal -0.195091 -0.980785 0
    outer loop
      vertex -1.91342 0.380603 5
      vertex 0 0 13
      vertex -1.91342 0.380603 13
    endloop
  endfacet
  facet normal -0.195091 -0.980785 -0
    outer loop
      vertex 0 0 13
      vertex -1.91342 0.380603 5
      vertex 0 0 5
    endloop
  endfacet
  facet normal -0.55557 -0.83147 0
    outer loop
      vertex -3.53553 1.46447 5
      vertex -1.91342 0.380603 13
      vertex -3.53553 1.46447 13
    endloop
  endfacet
  facet normal -0.55557 -0.83147 -0
    outer loop
      vertex -1.91342 0.380603 13
      vertex -3.53553 1.46447 5
      vertex -1.91342 0.380603 5
    endloop
  endfacet
  facet normal 0.55557 0.83147 -0
    outer loop
      vertex 8.53553 26.5355 7.5
      vertex 6.91342 27.6194 13
      vertex 8.53553 26.5355 13
    endloop
  endfacet
  facet normal 0.55557 0.83147 0
    outer loop
      vertex 6.91342 27.6194 13
      vertex 8.53553 26.5355 7.5
      vertex 6.91342 27.6194 7.5
    endloop
  endfacet
  facet normal -0.55557 0.83147 0
    outer loop
      vertex -1.91342 27.6194 7.5
      vertex -3.53553 26.5355 13
      vertex -1.91342 27.6194 13
    endloop
  endfacet
  facet normal -0.55557 0.83147 0
    outer loop
      vertex -3.53553 26.5355 13
      vertex -1.91342 27.6194 7.5
      vertex -3.53553 26.5355 7.5
    endloop
  endfacet
  facet normal -0.195091 0.980785 0
    outer loop
      vertex 0 28 7.5
      vertex -1.91342 27.6194 13
      vertex 0 28 13
    endloop
  endfacet
  facet normal -0.195091 0.980785 0
    outer loop
      vertex -1.91342 27.6194 13
      vertex 0 28 7.5
      vertex -1.91342 27.6194 7.5
    endloop
  endfacet
  facet normal 0 1 -0
    outer loop
      vertex 5 28 7.5
      vertex 0 28 13
      vertex 5 28 13
    endloop
  endfacet
  facet normal 0 1 0
    outer loop
      vertex 0 28 13
      vertex 5 28 7.5
      vertex 0 28 7.5
    endloop
  endfacet
  facet normal 0.83147 0.55557 0
    outer loop
      vertex 9.6194 24.9134 13
      vertex 8.53553 26.5355 7.5
      vertex 8.53553 26.5355 13
    endloop
  endfacet
  facet normal 0.83147 0.55557 0
    outer loop
      vertex 8.53553 26.5355 7.5
      vertex 9.6194 24.9134 13
      vertex 9.6194 24.9134 7.5
    endloop
  endfacet
  facet normal 0.980785 0.195091 0
    outer loop
      vertex 10 23 13
      vertex 9.6194 24.9134 7.5
      vertex 9.6194 24.9134 13
    endloop
  endfacet
  facet normal 0.980785 0.195091 0
    outer loop
      vertex 9.6194 24.9134 7.5
      vertex 10 23 13
      vertex 10 23 7.5
    endloop
  endfacet
  facet normal -0.55557 0.83147 0
    outer loop
      vertex -1.91342 11.6194 5
      vertex -3.53553 10.5355 7.5
      vertex -1.91342 11.6194 7.5
    endloop
  endfacet
  facet normal -0.55557 0.83147 0
    outer loop
      vertex -3.53553 10.5355 7.5
      vertex -1.91342 11.6194 5
      vertex -3.53553 10.5355 5
    endloop
  endfacet
  facet normal -0.195091 0.980785 0
    outer loop
      vertex 0 12 5
      vertex -1.91342 11.6194 7.5
      vertex 0 12 7.5
    endloop
  endfacet
  facet normal -0.195091 0.980785 0
    outer loop
      vertex -1.91342 11.6194 7.5
      vertex 0 12 5
      vertex -1.91342 11.6194 5
    endloop
  endfacet
  facet normal -0.980785 0.195091 0
    outer loop
      vertex -4.6194 8.91342 5
      vertex -5 7 7.5
      vertex -4.6194 8.91342 7.5
    endloop
  endfacet
  facet normal -0.980785 0.195091 -3.72106e-08
    outer loop
      vertex -5 7 5
      vertex -5 7 7.5
      vertex -4.6194 8.91342 5
    endloop
  endfacet
  facet normal -1 0 0
    outer loop
      vertex -5 7 12.5
      vertex -5 7 7.5
      vertex -5 7 5
    endloop
  endfacet
  facet normal 0.980785 0.195091 0
    outer loop
      vertex 10 7 7.5
      vertex 9.6194 8.91342 5
      vertex 9.6194 8.91342 7.5
    endloop
  endfacet
  facet normal 0.980785 0.195091 0
    outer loop
      vertex 9.6194 8.91342 5
      vertex 10 7 7.5
      vertex 10 7 5
    endloop
  endfacet
  facet normal 0.55557 0.83147 -0
    outer loop
      vertex 8.53553 10.5355 5
      vertex 6.91342 11.6194 7.5
      vertex 8.53553 10.5355 7.5
    endloop
  endfacet
  facet normal 0.55557 0.83147 0
    outer loop
      vertex 6.91342 11.6194 7.5
      vertex 8.53553 10.5355 5
      vertex 6.91342 11.6194 5
    endloop
  endfacet
  facet normal 0.195091 0.980785 -0
    outer loop
      vertex 6.91342 11.6194 5
      vertex 5 12 7.5
      vertex 6.91342 11.6194 7.5
    endloop
  endfacet
  facet normal 0.195091 0.980785 0
    outer loop
      vertex 5 12 7.5
      vertex 6.91342 11.6194 5
      vertex 5 12 5
    endloop
  endfacet
  facet normal 0.83147 0.55557 0
    outer loop
      vertex 9.6194 8.91342 7.5
      vertex 8.53553 10.5355 5
      vertex 8.53553 10.5355 7.5
    endloop
  endfacet
  facet normal 0.83147 0.55557 0
    outer loop
      vertex 8.53553 10.5355 5
      vertex 9.6194 8.91342 7.5
      vertex 9.6194 8.91342 5
    endloop
  endfacet
  facet normal 0 1 -0
    outer loop
      vertex 5 12 5
      vertex 0 12 7.5
      vertex 5 12 7.5
    endloop
  endfacet
  facet normal 0 1 0
    outer loop
      vertex 0 12 7.5
      vertex 5 12 5
      vertex 0 12 5
    endloop
  endfacet
  facet normal -0.83147 0.55557 0
    outer loop
      vertex -4.6194 8.91342 5
      vertex -3.53553 10.5355 7.5
      vertex -3.53553 10.5355 5
    endloop
  endfacet
  facet normal -0.83147 0.55557 0
    outer loop
      vertex -3.53553 10.5355 7.5
      vertex -4.6194 8.91342 5
      vertex -4.6194 8.91342 7.5
    endloop
  endfacet
  facet normal -1 0 0
    outer loop
      vertex -5 5 5
      vertex -5 7 12.5
      vertex -5 7 5
    endloop
  endfacet
  facet normal -1 -0 0
    outer loop
      vertex -5 7 12.5
      vertex -5 5 5
      vertex -5 5 12.5
    endloop
  endfacet
  facet normal 0.707107 -0.707107 0
    outer loop
      vertex -45.1731 -52.2442 5
      vertex 8.53553 1.46447 -0.5
      vertex 8.53553 1.46447 5
    endloop
  endfacet
  facet normal 0.707107 -0.707107 0
    outer loop
      vertex 8.53553 1.46447 -0.5
      vertex -45.1731 -52.2442 5
      vertex -45.1731 -52.2442 -0.5
    endloop
  endfacet
  facet normal -0.707107 0.707107 0
    outer loop
      vertex -58.6396 -44.4975 -0.5
      vertex -5 9.14214 5
      vertex -5 9.14214 -0.5
    endloop
  endfacet
  facet normal -0.707107 0.707107 0
    outer loop
      vertex -5 9.14214 5
      vertex -58.6396 -44.4975 -0.5
      vertex -58.6396 -44.4975 5
    endloop
  endfacet
  facet normal -0.980785 0.195091 0
    outer loop
      vertex -59.8665 -46.8384 -0.5
      vertex -59.7235 -46.1196 5
      vertex -59.7235 -46.1196 -0.5
    endloop
  endfacet
  facet normal -0.980785 0.195091 0
    outer loop
      vertex -59.7235 -46.1196 5
      vertex -59.8665 -46.8384 -0.5
      vertex -59.8665 -46.8384 5
    endloop
  endfacet
  facet normal -0.83147 0.55557 0
    outer loop
      vertex -59.7235 -46.1196 -0.5
      vertex -58.6396 -44.4975 5
      vertex -58.6396 -44.4975 -0.5
    endloop
  endfacet
  facet normal -0.83147 0.55557 0
    outer loop
      vertex -58.6396 -44.4975 5
      vertex -59.7235 -46.1196 -0.5
      vertex -59.7235 -46.1196 5
    endloop
  endfacet
  facet normal -0.900969 -0.433884 0
    outer loop
      vertex 4.45 21 0
      vertex 3.71581 22.5246 5
      vertex 3.71581 22.5246 0
    endloop
  endfacet
  facet normal -0.900969 -0.433884 0
    outer loop
      vertex 3.71581 22.5246 5
      vertex 4.45 21 0
      vertex 4.45 21 5
    endloop
  endfacet
  facet normal -0.900969 -0.433884 0
    outer loop
      vertex 4.45 21 7.5
      vertex 3.71581 22.5246 13
      vertex 3.71581 22.5246 7.5
    endloop
  endfacet
  facet normal -0.900969 -0.433884 0
    outer loop
      vertex 3.71581 22.5246 13
      vertex 4.45 21 7.5
      vertex 4.45 21 13
    endloop
  endfacet
  facet normal 1 -0 0
    outer loop
      vertex 0.743111 20.1539 5
      vertex 0.743111 21.8461 0
      vertex 0.743111 21.8461 5
    endloop
  endfacet
  facet normal 1 0 0
    outer loop
      vertex 0.743111 21.8461 0
      vertex 0.743111 20.1539 5
      vertex 0.743111 20.1539 0
    endloop
  endfacet
  facet normal 1 -0 0
    outer loop
      vertex 0.743111 20.1539 13
      vertex 0.743111 21.8461 7.5
      vertex 0.743111 21.8461 13
    endloop
  endfacet
  facet normal 1 0 0
    outer loop
      vertex 0.743111 21.8461 7.5
      vertex 0.743111 20.1539 13
      vertex 0.743111 20.1539 7.5
    endloop
  endfacet
  facet normal 0 0 1
    outer loop
      vertex 3.71581 22.5246 0
      vertex 3.71581 19.4754 0
      vertex 4.45 21 0
    endloop
  endfacet
  facet normal 0 0 1
    outer loop
      vertex 2.06608 22.9011 0
      vertex 3.71581 19.4754 0
      vertex 3.71581 22.5246 0
    endloop
  endfacet
  facet normal 0 0 1
    outer loop
      vertex 2.06608 22.9011 0
      vertex 2.06608 19.0989 0
      vertex 3.71581 19.4754 0
    endloop
  endfacet
  facet normal -0 0 1
    outer loop
      vertex 0.743111 21.8461 0
      vertex 2.06608 19.0989 0
      vertex 2.06608 22.9011 0
    endloop
  endfacet
  facet normal 0 0 1
    outer loop
      vertex 2.06608 19.0989 0
      vertex 0.743111 21.8461 0
      vertex 0.743111 20.1539 0
    endloop
  endfacet
  facet normal 0.623489 -0.781832 0
    outer loop
      vertex 0.743111 21.8461 0
      vertex 2.06608 22.9011 5
      vertex 0.743111 21.8461 5
    endloop
  endfacet
  facet normal 0.623489 -0.781832 0
    outer loop
      vertex 2.06608 22.9011 5
      vertex 0.743111 21.8461 0
      vertex 2.06608 22.9011 0
    endloop
  endfacet
  facet normal 0.623489 -0.781832 0
    outer loop
      vertex 0.743111 21.8461 7.5
      vertex 2.06608 22.9011 13
      vertex 0.743111 21.8461 13
    endloop
  endfacet
  facet normal 0.623489 -0.781832 0
    outer loop
      vertex 2.06608 22.9011 13
      vertex 0.743111 21.8461 7.5
      vertex 2.06608 22.9011 7.5
    endloop
  endfacet
  facet normal -0.222521 -0.974928 0
    outer loop
      vertex 2.06608 22.9011 0
      vertex 3.71581 22.5246 5
      vertex 2.06608 22.9011 5
    endloop
  endfacet
  facet normal -0.222521 -0.974928 -0
    outer loop
      vertex 3.71581 22.5246 5
      vertex 2.06608 22.9011 0
      vertex 3.71581 22.5246 0
    endloop
  endfacet
  facet normal -0.222521 -0.974928 0
    outer loop
      vertex 2.06608 22.9011 7.5
      vertex 3.71581 22.5246 13
      vertex 2.06608 22.9011 13
    endloop
  endfacet
  facet normal -0.222521 -0.974928 -0
    outer loop
      vertex 3.71581 22.5246 13
      vertex 2.06608 22.9011 7.5
      vertex 3.71581 22.5246 7.5
    endloop
  endfacet
  facet normal -0.900969 0.433884 0
    outer loop
      vertex 3.71581 19.4754 0
      vertex 4.45 21 5
      vertex 4.45 21 0
    endloop
  endfacet
  facet normal -0.900969 0.433884 0
    outer loop
      vertex 4.45 21 5
      vertex 3.71581 19.4754 0
      vertex 3.71581 19.4754 5
    endloop
  endfacet
  facet normal -0.900969 0.433884 0
    outer loop
      vertex 3.71581 19.4754 7.5
      vertex 4.45 21 13
      vertex 4.45 21 7.5
    endloop
  endfacet
  facet normal -0.900969 0.433884 0
    outer loop
      vertex 4.45 21 13
      vertex 3.71581 19.4754 7.5
      vertex 3.71581 19.4754 13
    endloop
  endfacet
  facet normal 0.62349 0.781831 -0
    outer loop
      vertex 2.06608 19.0989 0
      vertex 0.743111 20.1539 5
      vertex 2.06608 19.0989 5
    endloop
  endfacet
  facet normal 0.62349 0.781831 0
    outer loop
      vertex 0.743111 20.1539 5
      vertex 2.06608 19.0989 0
      vertex 0.743111 20.1539 0
    endloop
  endfacet
  facet normal 0.62349 0.781831 -0
    outer loop
      vertex 2.06608 19.0989 7.5
      vertex 0.743111 20.1539 13
      vertex 2.06608 19.0989 13
    endloop
  endfacet
  facet normal 0.62349 0.781831 0
    outer loop
      vertex 0.743111 20.1539 13
      vertex 2.06608 19.0989 7.5
      vertex 0.743111 20.1539 7.5
    endloop
  endfacet
  facet normal -0.222522 0.974928 0
    outer loop
      vertex 3.71581 19.4754 0
      vertex 2.06608 19.0989 5
      vertex 3.71581 19.4754 5
    endloop
  endfacet
  facet normal -0.222522 0.974928 0
    outer loop
      vertex 2.06608 19.0989 5
      vertex 3.71581 19.4754 0
      vertex 2.06608 19.0989 0
    endloop
  endfacet
  facet normal -0.222522 0.974928 0
    outer loop
      vertex 3.71581 19.4754 7.5
      vertex 2.06608 19.0989 13
      vertex 3.71581 19.4754 13
    endloop
  endfacet
  facet normal -0.222522 0.974928 0
    outer loop
      vertex 2.06608 19.0989 13
      vertex 3.71581 19.4754 7.5
      vertex 2.06608 19.0989 7.5
    endloop
  endfacet
endsolid OpenSCAD_Model
