999
"DXF R12 Output" (www.mydxf.blogspot.com)
 0 
SECTION
 2 
HEADER
 9 
$ACADVER
 1 
AC1009
 9 
$EXTMIN
 10 
 0 
 20 
 0 
 9 
$EXTMAX
 10 
 8.5 
 20 
 11 
 0 
ENDSEC
 0 
SECTION
 2 
ENTITIES
0
LINE
8
Layer 1
10
174.729000
20
111.844000
11
181.384360
21
98.001900
0
LINE
8
Layer 1
10
181.384360
20
98.001900
11
184.729848
21
98.255006
0
LINE
8
Layer 1
10
184.729848
20
98.255006
11
187.345048
21
98.187152
0
LINE
8
Layer 1
10
187.345048
20
98.187152
11
189.342953
21
97.794879
0
LINE
8
Layer 1
10
189.342953
20
97.794879
11
190.836558
21
97.074729
0
LINE
8
Layer 1
10
190.836558
20
97.074729
11
191.938856
21
96.023241
0
LINE
8
Layer 1
10
191.938856
20
96.023241
11
192.762843
21
94.636956
0
LINE
8
Layer 1
10
192.762843
20
94.636956
11
193.421513
21
92.912416
0
LINE
8
Layer 1
10
193.421513
20
92.912416
11
194.027860
21
90.846160
0
LINE
8
Layer 1
10
194.027860
20
90.846160
11
195.412746
21
87.273900
0
LINE
8
Layer 1
10
195.412746
20
87.273900
11
196.405772
21
83.723389
0
LINE
8
Layer 1
10
196.405772
20
83.723389
11
197.056190
21
80.191896
0
LINE
8
Layer 1
10
197.056190
20
80.191896
11
197.413251
21
76.676691
0
LINE
8
Layer 1
10
197.413251
20
76.676691
11
197.526209
21
73.175045
0
LINE
8
Layer 1
10
197.526209
20
73.175045
11
197.444315
21
69.684228
0
LINE
8
Layer 1
10
197.444315
20
69.684228
11
196.892980
21
62.724160
0
LINE
8
Layer 1
10
196.892980
20
62.724160
11
176.388980
21
76.999760
0
LINE
8
Layer 1
10
176.388980
20
76.999760
11
173.715555
21
79.882337
0
LINE
8
Layer 1
10
173.715555
20
79.882337
11
171.749638
21
82.676522
0
LINE
8
Layer 1
10
171.749638
20
82.676522
11
170.475130
21
85.389752
0
LINE
8
Layer 1
10
170.475130
20
85.389752
11
170.092122
21
86.718332
0
LINE
8
Layer 1
10
170.092122
20
86.718332
11
169.875930
21
88.029462
0
LINE
8
Layer 1
10
169.875930
20
88.029462
11
169.824540
21
89.324073
0
LINE
8
Layer 1
10
169.824540
20
89.324073
11
169.935939
21
90.603092
0
LINE
8
Layer 1
10
169.935939
20
90.603092
11
170.208116
21
91.867450
0
LINE
8
Layer 1
10
170.208116
20
91.867450
11
170.639057
21
93.118077
0
LINE
8
Layer 1
10
170.639057
20
93.118077
11
171.969184
21
95.581854
0
LINE
8
Layer 1
10
171.969184
20
95.581854
11
173.910220
21
98.001860
0
LINE
8
Layer 1
10
173.910220
20
98.001860
11
163.128520
21
115.640760
0
LINE
8
Layer 1
10
163.128520
20
115.640760
11
158.750130
21
113.102460
0
LINE
8
Layer 1
10
158.750130
20
113.102460
11
160.570471
21
111.932313
0
LINE
8
Layer 1
10
160.570471
20
111.932313
11
162.202705
21
110.543729
0
LINE
8
Layer 1
10
162.202705
20
110.543729
11
163.650881
21
108.948149
0
LINE
8
Layer 1
10
163.650881
20
108.948149
11
164.919045
21
107.157015
0
LINE
8
Layer 1
10
164.919045
20
107.157015
11
166.011246
21
105.181768
0
LINE
8
Layer 1
10
166.011246
20
105.181768
11
166.931531
21
103.033848
0
LINE
8
Layer 1
10
166.931531
20
103.033848
11
167.683949
21
100.724696
0
LINE
8
Layer 1
10
167.683949
20
100.724696
11
168.272548
21
98.265754
0
LINE
8
Layer 1
10
168.272548
20
98.265754
11
168.701374
21
95.668461
0
LINE
8
Layer 1
10
168.701374
20
95.668461
11
168.974477
21
92.944260
0
LINE
8
Layer 1
10
168.974477
20
92.944260
11
169.095903
21
90.104591
0
LINE
8
Layer 1
10
169.095903
20
90.104591
11
169.069702
21
87.160895
0
LINE
8
Layer 1
10
169.069702
20
87.160895
11
168.590605
21
81.007186
0
LINE
8
Layer 1
10
168.590605
20
81.007186
11
167.569570
21
74.574660
0
LINE
8
Layer 1
10
167.569570
20
74.574660
11
171.503778
21
73.423810
0
LINE
8
Layer 1
10
171.503778
20
73.423810
11
175.139143
21
71.925075
0
LINE
8
Layer 1
10
175.139143
20
71.925075
11
176.814251
21
71.004238
0
LINE
8
Layer 1
10
176.814251
20
71.004238
11
178.378037
21
69.947213
0
LINE
8
Layer 1
10
178.378037
20
69.947213
11
179.818299
21
68.737596
0
LINE
8
Layer 1
10
179.818299
20
68.737596
11
181.122832
21
67.358980
0
LINE
8
Layer 1
10
181.122832
20
67.358980
11
182.279434
21
65.794960
0
LINE
8
Layer 1
10
182.279434
20
65.794960
11
183.275901
21
64.029132
0
LINE
8
Layer 1
10
183.275901
20
64.029132
11
184.100029
21
62.045088
0
LINE
8
Layer 1
10
184.100029
20
62.045088
11
184.739615
21
59.826425
0
LINE
8
Layer 1
10
184.739615
20
59.826425
11
185.182456
21
57.356736
0
LINE
8
Layer 1
10
185.182456
20
57.356736
11
185.416348
21
54.619615
0
LINE
8
Layer 1
10
185.416348
20
54.619615
11
185.429087
21
51.598659
0
LINE
8
Layer 1
10
185.429087
20
51.598659
11
185.208470
21
48.277460
0
LINE
8
Layer 1
10
185.208470
20
48.277460
11
167.569570
21
49.573990
0
LINE
8
Layer 1
10
167.569570
20
49.573990
11
167.199527
21
43.711551
0
LINE
8
Layer 1
10
167.199527
20
43.711551
11
166.437494
21
38.133598
0
LINE
8
Layer 1
10
166.437494
20
38.133598
11
165.303968
21
32.825262
0
LINE
8
Layer 1
10
165.303968
20
32.825262
11
163.819443
21
27.771677
0
LINE
8
Layer 1
10
163.819443
20
27.771677
11
162.004416
21
22.957975
0
LINE
8
Layer 1
10
162.004416
20
22.957975
11
159.879381
21
18.369288
0
LINE
8
Layer 1
10
159.879381
20
18.369288
11
157.464834
21
13.990749
0
LINE
8
Layer 1
10
157.464834
20
13.990749
11
154.781270
21
9.807490
0
LINE
8
Layer 1
10
154.781270
20
9.807490
11
151.653771
21
15.162369
0
LINE
8
Layer 1
10
151.653771
20
15.162369
11
148.919200
21
20.462354
0
LINE
8
Layer 1
10
148.919200
20
20.462354
11
146.583773
21
25.706579
0
LINE
8
Layer 1
10
146.583773
20
25.706579
11
144.653703
21
30.894177
0
LINE
8
Layer 1
10
144.653703
20
30.894177
11
143.135203
21
36.024284
0
LINE
8
Layer 1
10
143.135203
20
36.024284
11
142.034488
21
41.096032
0
LINE
8
Layer 1
10
142.034488
20
41.096032
11
141.357773
21
46.108556
0
LINE
8
Layer 1
10
141.357773
20
46.108556
11
141.111270
21
51.060990
0
LINE
8
Layer 1
10
141.111270
20
51.060990
11
132.291830
21
48.178090
0
LINE
8
Layer 1
10
132.291830
20
48.178090
11
129.370944
21
47.356546
0
LINE
8
Layer 1
10
129.370944
20
47.356546
11
127.979366
21
47.167086
0
LINE
8
Layer 1
10
127.979366
20
47.167086
11
126.692441
21
47.200719
0
LINE
8
Layer 1
10
126.692441
20
47.200719
11
125.554225
21
47.514108
0
LINE
8
Layer 1
10
125.554225
20
47.514108
11
124.608773
21
48.163919
0
LINE
8
Layer 1
10
124.608773
20
48.163919
11
123.900143
21
49.206815
0
LINE
8
Layer 1
10
123.900143
20
49.206815
11
123.472390
21
50.699460
0
LINE
8
Layer 1
10
123.472390
20
50.699460
11
123.260522
21
52.999019
0
LINE
8
Layer 1
10
123.260522
20
52.999019
11
123.347749
21
55.220934
0
LINE
8
Layer 1
10
123.347749
20
55.220934
11
123.714051
21
57.381411
0
LINE
8
Layer 1
10
123.714051
20
57.381411
11
124.339410
21
59.496656
0
LINE
8
Layer 1
10
124.339410
20
59.496656
11
125.203806
21
61.582877
0
LINE
8
Layer 1
10
125.203806
20
61.582877
11
126.287220
21
63.656280
0
LINE
8
Layer 1
10
126.287220
20
63.656280
11
129.031030
21
67.829460
0
LINE
8
Layer 1
10
129.031030
20
67.829460
11
141.111230
21
76.878630
0
LINE
8
Layer 1
10
141.111230
20
76.878630
11
141.111230
21
98.001830
0
LINE
8
Layer 1
10
141.111230
20
98.001830
11
143.728840
21
106.821270
0
LINE
8
Layer 1
10
143.728840
20
106.821270
11
139.371577
21
100.353572
0
LINE
8
Layer 1
10
139.371577
20
100.353572
11
137.638739
21
97.506084
0
LINE
8
Layer 1
10
137.638739
20
97.506084
11
137.136476
21
96.188264
0
LINE
8
Layer 1
10
137.136476
20
96.188264
11
136.470940
21
94.309570
0
LINE
8
Layer 1
10
136.470940
20
94.309570
11
137.389757
21
92.054278
0
LINE
8
Layer 1
10
137.389757
20
92.054278
11
137.925711
21
89.765789
0
LINE
8
Layer 1
10
137.925711
20
89.765789
11
138.064348
21
87.442843
0
LINE
8
Layer 1
10
138.064348
20
87.442843
11
137.791211
21
85.084181
0
LINE
8
Layer 1
10
137.791211
20
85.084181
11
137.091844
21
82.688543
0
LINE
8
Layer 1
10
137.091844
20
82.688543
11
135.951790
21
80.254668
0
LINE
8
Layer 1
10
135.951790
20
80.254668
11
134.356595
21
77.781297
0
LINE
8
Layer 1
10
134.356595
20
77.781297
11
132.291800
21
75.267170
0
LINE
8
Layer 1
10
132.291800
20
75.267170
11
127.972046
21
73.344726
0
LINE
8
Layer 1
10
127.972046
20
73.344726
11
123.595991
21
71.018319
0
LINE
8
Layer 1
10
123.595991
20
71.018319
11
119.158115
21
68.385842
0
LINE
8
Layer 1
10
119.158115
20
68.385842
11
114.652900
21
65.545190
0
LINE
8
Layer 1
10
114.652900
20
65.545190
11
113.655493
21
67.586154
0
LINE
8
Layer 1
10
113.655493
20
67.586154
11
112.826315
21
70.013388
0
LINE
8
Layer 1
10
112.826315
20
70.013388
11
112.184289
21
72.743765
0
LINE
8
Layer 1
10
112.184289
20
72.743765
11
111.748341
21
75.694157
0
LINE
8
Layer 1
10
111.748341
20
75.694157
11
111.537394
21
78.781438
0
LINE
8
Layer 1
10
111.537394
20
78.781438
11
111.570373
21
81.922480
0
LINE
8
Layer 1
10
111.570373
20
81.922480
11
111.866201
21
85.034158
0
LINE
8
Layer 1
10
111.866201
20
85.034158
11
112.443804
21
88.033344
0
LINE
8
Layer 1
10
112.443804
20
88.033344
11
113.322105
21
90.836911
0
LINE
8
Layer 1
10
113.322105
20
90.836911
11
114.520028
21
93.361732
0
LINE
8
Layer 1
10
114.520028
20
93.361732
11
116.056498
21
95.524680
0
LINE
8
Layer 1
10
116.056498
20
95.524680
11
116.957602
21
96.444475
0
LINE
8
Layer 1
10
116.957602
20
96.444475
11
117.950440
21
97.242629
0
LINE
8
Layer 1
10
117.950440
20
97.242629
11
119.037376
21
97.908751
0
LINE
8
Layer 1
10
119.037376
20
97.908751
11
120.220776
21
98.432451
0
LINE
8
Layer 1
10
120.220776
20
98.432451
11
121.503006
21
98.803338
0
LINE
8
Layer 1
10
121.503006
20
98.803338
11
122.886432
21
99.011020
0
LINE
8
Layer 1
10
122.886432
20
99.011020
11
124.373419
21
99.045107
0
LINE
8
Layer 1
10
124.373419
20
99.045107
11
125.966332
21
98.895209
0
LINE
8
Layer 1
10
125.966332
20
98.895209
11
127.667537
21
98.550933
0
LINE
8
Layer 1
10
127.667537
20
98.550933
11
129.479400
21
98.001890
0
LINE
8
Layer 1
10
129.479400
20
98.001890
11
130.307088
21
100.355730
0
LINE
8
Layer 1
10
130.307088
20
100.355730
11
131.278920
21
102.367337
0
LINE
8
Layer 1
10
131.278920
20
102.367337
11
133.256062
21
105.187996
0
LINE
8
Layer 1
10
133.256062
20
105.187996
11
137.099680
21
109.968990
0
LINE
8
Layer 1
10
137.099680
20
109.968990
11
139.012020
21
115.640810
0
LINE
8
Layer 1
10
139.012020
20
115.640810
11
135.188070
21
111.662263
0
LINE
8
Layer 1
10
135.188070
20
111.662263
11
131.263398
21
108.062635
0
LINE
8
Layer 1
10
131.263398
20
108.062635
11
127.242168
21
104.826269
0
LINE
8
Layer 1
10
127.242168
20
104.826269
11
123.128545
21
101.937510
0
LINE
8
Layer 1
10
123.128545
20
101.937510
11
118.926694
21
99.380701
0
LINE
8
Layer 1
10
118.926694
20
99.380701
11
114.640779
21
97.140185
0
LINE
8
Layer 1
10
114.640779
20
97.140185
11
110.274966
21
95.200307
0
LINE
8
Layer 1
10
110.274966
20
95.200307
11
105.833420
21
93.545410
0
LINE
8
Layer 1
10
105.833420
20
93.545410
11
106.713770
21
93.087457
0
LINE
8
Layer 1
10
106.713770
20
93.087457
11
107.434896
21
92.509372
0
LINE
8
Layer 1
10
107.434896
20
92.509372
11
108.004651
21
91.819910
0
LINE
8
Layer 1
10
108.004651
20
91.819910
11
108.430886
21
91.027824
0
LINE
8
Layer 1
10
108.430886
20
91.027824
11
108.884198
21
89.170795
0
LINE
8
Layer 1
10
108.884198
20
89.170795
11
108.857642
21
87.008315
0
LINE
8
Layer 1
10
108.857642
20
87.008315
11
108.414027
21
84.610414
0
LINE
8
Layer 1
10
108.414027
20
84.610414
11
107.616164
21
82.047122
0
LINE
8
Layer 1
10
107.616164
20
82.047122
11
106.526861
21
79.388467
0
LINE
8
Layer 1
10
106.526861
20
79.388467
11
105.208928
21
76.704481
0
LINE
8
Layer 1
10
105.208928
20
76.704481
11
103.725174
21
74.065193
0
LINE
8
Layer 1
10
103.725174
20
74.065193
11
102.138409
21
71.540632
0
LINE
8
Layer 1
10
102.138409
20
71.540632
11
98.907085
21
67.115812
0
LINE
8
Layer 1
10
98.907085
20
67.115812
11
97.388144
21
65.355612
0
LINE
8
Layer 1
10
97.388144
20
65.355612
11
96.017430
21
63.990258
0
LINE
8
Layer 1
10
96.017430
20
63.990258
11
94.857752
21
63.089781
0
LINE
8
Layer 1
10
94.857752
20
63.089781
11
93.971920
21
62.724210
0
LINE
8
Layer 1
10
93.971920
20
62.724210
11
84.462450
21
80.363110
0
LINE
8
Layer 1
10
84.462450
20
80.363110
11
84.468374
21
79.974882
0
LINE
8
Layer 1
10
84.468374
20
79.974882
11
84.256608
21
79.565269
0
LINE
8
Layer 1
10
84.256608
20
79.565269
11
83.234374
21
78.693353
0
LINE
8
Layer 1
10
83.234374
20
78.693353
11
81.504489
21
77.770281
0
LINE
8
Layer 1
10
81.504489
20
77.770281
11
79.175697
21
76.818974
0
LINE
8
Layer 1
10
79.175697
20
76.818974
11
73.156353
21
74.923329
0
LINE
8
Layer 1
10
73.156353
20
74.923329
11
66.046278
21
73.189779
0
LINE
8
Layer 1
10
66.046278
20
73.189779
11
58.715405
21
71.801679
0
LINE
8
Layer 1
10
58.715405
20
71.801679
11
52.033670
21
70.942390
0
LINE
8
Layer 1
10
52.033670
20
70.942390
11
49.208083
21
70.768347
0
LINE
8
Layer 1
10
49.208083
20
70.768347
11
46.871007
21
70.795267
0
LINE
8
Layer 1
10
46.871007
20
70.795267
11
45.131182
21
71.046068
0
LINE
8
Layer 1
10
45.131182
20
71.046068
11
44.097350
21
71.543670
0
LINE
8
Layer 1
10
44.097350
20
71.543670
11
43.840633
21
71.959013
0
LINE
8
Layer 1
10
43.840633
20
71.959013
11
43.764016
21
72.514627
0
LINE
8
Layer 1
10
43.764016
20
72.514627
11
44.107005
21
74.005647
0
LINE
8
Layer 1
10
44.107005
20
74.005647
11
45.038162
21
75.934679
0
LINE
8
Layer 1
10
45.038162
20
75.934679
11
46.469331
21
78.219674
0
LINE
8
Layer 1
10
46.469331
20
78.219674
11
50.479082
21
83.529353
0
LINE
8
Layer 1
10
50.479082
20
83.529353
11
55.431014
21
89.278285
0
LINE
8
Layer 1
10
55.431014
20
89.278285
11
60.619881
21
94.810071
0
LINE
8
Layer 1
10
60.619881
20
94.810071
11
65.340440
21
99.468313
0
LINE
8
Layer 1
10
65.340440
20
99.468313
11
68.887444
21
102.596612
0
LINE
8
Layer 1
10
68.887444
20
102.596612
11
70.000475
21
103.381909
0
LINE
8
Layer 1
10
70.000475
20
103.381909
11
70.555650
21
103.538570
0
LINE
8
Layer 1
10
70.555650
20
103.538570
11
68.153175
21
105.679037
0
LINE
8
Layer 1
10
68.153175
20
105.679037
11
66.167160
21
107.763299
0
LINE
8
Layer 1
10
66.167160
20
107.763299
11
64.575097
21
109.794392
0
LINE
8
Layer 1
10
64.575097
20
109.794392
11
63.354475
21
111.775351
0
LINE
8
Layer 1
10
63.354475
20
111.775351
11
62.482785
21
113.709213
0
LINE
8
Layer 1
10
62.482785
20
113.709213
11
61.937517
21
115.599013
0
LINE
8
Layer 1
10
61.937517
20
115.599013
11
61.696162
21
117.447787
0
LINE
8
Layer 1
10
61.696162
20
117.447787
11
61.736210
21
119.258570
0
LINE
8
Layer 1
10
61.736210
20
119.258570
11
63.229549
21
120.410992
0
LINE
8
Layer 1
10
63.229549
20
120.410992
11
65.126796
21
121.361524
0
LINE
8
Layer 1
10
65.126796
20
121.361524
11
67.361727
21
122.110370
0
LINE
8
Layer 1
10
67.361727
20
122.110370
11
69.868121
21
122.657735
0
LINE
8
Layer 1
10
69.868121
20
122.657735
11
72.579755
21
123.003823
0
LINE
8
Layer 1
10
72.579755
20
123.003823
11
75.430406
21
123.148840
0
LINE
8
Layer 1
10
75.430406
20
123.148840
11
78.353852
21
123.092989
0
LINE
8
Layer 1
10
78.353852
20
123.092989
11
81.283870
21
122.836475
0
LINE
8
Layer 1
10
81.283870
20
122.836475
11
84.154238
21
122.379503
0
LINE
8
Layer 1
10
84.154238
20
122.379503
11
86.898733
21
121.722278
0
LINE
8
Layer 1
10
86.898733
20
121.722278
11
89.451132
21
120.865004
0
LINE
8
Layer 1
10
89.451132
20
120.865004
11
91.745214
21
119.807885
0
LINE
8
Layer 1
10
91.745214
20
119.807885
11
93.714755
21
118.551127
0
LINE
8
Layer 1
10
93.714755
20
118.551127
11
95.293533
21
117.094933
0
LINE
8
Layer 1
10
95.293533
20
117.094933
11
96.415326
21
115.439510
0
LINE
8
Layer 1
10
96.415326
20
115.439510
11
96.784158
21
114.537150
0
LINE
8
Layer 1
10
96.784158
20
114.537150
11
97.013910
21
113.585060
0
LINE
8
Layer 1
10
97.013910
20
113.585060
11
97.404299
21
114.752126
0
LINE
8
Layer 1
10
97.404299
20
114.752126
11
98.231762
21
115.997541
0
LINE
8
Layer 1
10
98.231762
20
115.997541
11
99.438732
21
117.296459
0
LINE
8
Layer 1
10
99.438732
20
117.296459
11
100.967644
21
118.624034
0
LINE
8
Layer 1
10
100.967644
20
118.624034
11
104.761032
21
121.265770
0
LINE
8
Layer 1
10
104.761032
20
121.265770
11
109.151401
21
123.723979
0
LINE
8
Layer 1
10
109.151401
20
123.723979
11
113.678228
21
125.799892
0
LINE
8
Layer 1
10
113.678228
20
125.799892
11
117.880988
21
127.294739
0
LINE
8
Layer 1
10
117.880988
20
127.294739
11
119.716929
21
127.762148
0
LINE
8
Layer 1
10
119.716929
20
127.762148
11
121.299157
21
128.009752
0
LINE
8
Layer 1
10
121.299157
20
128.009752
11
122.570106
21
128.012704
0
LINE
8
Layer 1
10
122.570106
20
128.012704
11
123.472210
21
127.746160
0
LINE
8
Layer 1
10
123.472210
20
127.746160
11
123.472210
21
130.950510
0
LINE
8
Layer 1
10
123.472210
20
130.950510
11
108.118510
21
130.501495
0
LINE
8
Layer 1
10
108.118510
20
130.501495
11
107.589710
21
128.728155
0
LINE
8
Layer 1
10
107.589710
20
128.728155
11
106.680677
21
127.046797
0
LINE
8
Layer 1
10
106.680677
20
127.046797
11
105.458774
21
125.511569
0
LINE
8
Layer 1
10
105.458774
20
125.511569
11
103.991364
21
124.176617
0
LINE
8
Layer 1
10
103.991364
20
124.176617
11
102.345810
21
123.096089
0
LINE
8
Layer 1
10
102.345810
20
123.096089
11
100.589474
21
122.324132
0
LINE
8
Layer 1
10
100.589474
20
122.324132
11
98.789720
21
121.914891
0
LINE
8
Layer 1
10
98.789720
20
121.914891
11
97.013910
21
121.922515
0
LINE
8
Layer 1
10
97.013910
20
121.922515
11
92.998767
21
122.063508
0
LINE
8
Layer 1
10
92.998767
20
122.063508
11
89.206844
21
122.720525
0
LINE
8
Layer 1
10
89.206844
20
122.720525
11
85.627655
21
123.818219
0
LINE
8
Layer 1
10
85.627655
20
123.818219
11
82.250710
21
125.281243
0
LINE
8
Layer 1
10
82.250710
20
125.281243
11
79.065521
21
127.034252
0
LINE
8
Layer 1
10
79.065521
20
127.034252
11
76.061601
21
129.001898
0
LINE
8
Layer 1
10
76.061601
20
129.001898
11
73.228460
21
131.108834
0
LINE
8
Layer 1
10
73.228460
20
131.108834
11
70.555610
21
133.279715
0
LINE
8
Layer 1
10
70.555610
20
133.279715
11
73.183451
21
135.615905
0
LINE
8
Layer 1
10
73.183451
20
135.615905
11
75.927451
21
137.850181
0
LINE
8
Layer 1
10
75.927451
20
137.850181
11
78.826595
21
139.948342
0
LINE
8
Layer 1
10
78.826595
20
139.948342
11
81.919866
21
141.876185
0
LINE
8
Layer 1
10
81.919866
20
141.876185
11
85.246249
21
143.599506
0
LINE
8
Layer 1
10
85.246249
20
143.599506
11
88.844728
21
145.084104
0
LINE
8
Layer 1
10
88.844728
20
145.084104
11
92.754287
21
146.295774
0
LINE
8
Layer 1
10
92.754287
20
146.295774
11
97.013910
21
147.200315
0
LINE
8
Layer 1
10
97.013910
20
147.200315
11
99.459901
21
146.572458
0
LINE
8
Layer 1
10
99.459901
20
146.572458
11
101.575912
21
145.681966
0
LINE
8
Layer 1
10
101.575912
20
145.681966
11
103.391243
21
144.575104
0
LINE
8
Layer 1
10
103.391243
20
144.575104
11
104.935195
21
143.298139
0
LINE
8
Layer 1
10
104.935195
20
143.298139
11
106.237067
21
141.897334
0
LINE
8
Layer 1
10
106.237067
20
141.897334
11
107.326161
21
140.418957
0
LINE
8
Layer 1
10
107.326161
20
140.418957
11
108.983210
21
137.414545
0
LINE
8
Layer 1
10
108.983210
20
137.414545
11
132.025210
21
136.339275
0
LINE
8
Layer 1
10
132.025210
20
136.339275
11
132.291628
21
138.860365
0
LINE
8
Layer 1
10
132.291628
20
138.860365
11
125.487045
21
140.001761
0
LINE
8
Layer 1
10
125.487045
20
140.001761
11
119.376630
21
141.380819
0
LINE
8
Layer 1
10
119.376630
20
141.380819
11
113.904486
21
142.981967
0
LINE
8
Layer 1
10
113.904486
20
142.981967
11
109.014716
21
144.789634
0
LINE
8
Layer 1
10
109.014716
20
144.789634
11
104.651422
21
146.788248
0
LINE
8
Layer 1
10
104.651422
20
146.788248
11
100.758708
21
148.962239
0
LINE
8
Layer 1
10
100.758708
20
148.962239
11
97.280675
21
151.296035
0
LINE
8
Layer 1
10
97.280675
20
151.296035
11
94.161428
21
153.774065
0
LINE
8
Layer 1
10
94.161428
20
153.774065
11
93.309669
21
152.203434
0
LINE
8
Layer 1
10
93.309669
20
152.203434
11
91.989733
21
150.792760
0
LINE
8
Layer 1
10
91.989733
20
150.792760
11
90.268377
21
149.547541
0
LINE
8
Layer 1
10
90.268377
20
149.547541
11
88.212359
21
148.473277
0
LINE
8
Layer 1
10
88.212359
20
148.473277
11
85.888435
21
147.575469
0
LINE
8
Layer 1
10
85.888435
20
147.575469
11
83.363363
21
146.859616
0
LINE
8
Layer 1
10
83.363363
20
146.859616
11
80.703901
21
146.331218
0
LINE
8
Layer 1
10
80.703901
20
146.331218
11
77.976806
21
145.995774
0
LINE
8
Layer 1
10
77.976806
20
145.995774
11
75.248834
21
145.858784
0
LINE
8
Layer 1
10
75.248834
20
145.858784
11
72.586744
21
145.925748
0
LINE
8
Layer 1
10
72.586744
20
145.925748
11
70.057293
21
146.202165
0
LINE
8
Layer 1
10
70.057293
20
146.202165
11
67.727238
21
146.693536
0
LINE
8
Layer 1
10
67.727238
20
146.693536
11
65.663337
21
147.405359
0
LINE
8
Layer 1
10
65.663337
20
147.405359
11
63.932347
21
148.343136
0
LINE
8
Layer 1
10
63.932347
20
148.343136
11
62.601025
21
149.512364
0
LINE
8
Layer 1
10
62.601025
20
149.512364
11
61.736128
21
150.918545
0
LINE
8
Layer 1
10
61.736128
20
150.918545
11
62.272699
21
153.049184
0
LINE
8
Layer 1
10
62.272699
20
153.049184
11
62.956207
21
155.068137
0
LINE
8
Layer 1
10
62.956207
20
155.068137
11
63.794021
21
156.969794
0
LINE
8
Layer 1
10
63.794021
20
156.969794
11
64.793508
21
158.748544
0
LINE
8
Layer 1
10
64.793508
20
158.748544
11
65.962038
21
160.398775
0
LINE
8
Layer 1
10
65.962038
20
160.398775
11
67.306979
21
161.914876
0
LINE
8
Layer 1
10
67.306979
20
161.914876
11
68.835699
21
163.291236
0
LINE
8
Layer 1
10
68.835699
20
163.291236
11
70.555568
21
164.522245
0
LINE
8
Layer 1
10
70.555568
20
164.522245
11
66.081337
21
168.497396
0
LINE
8
Layer 1
10
66.081337
20
168.497396
11
61.968737
21
172.421892
0
LINE
8
Layer 1
10
61.968737
20
172.421892
11
58.203659
21
176.297708
0
LINE
8
Layer 1
10
58.203659
20
176.297708
11
54.771993
21
180.126820
0
LINE
8
Layer 1
10
54.771993
20
180.126820
11
51.659631
21
183.911204
0
LINE
8
Layer 1
10
51.659631
20
183.911204
11
48.852462
21
187.652836
0
LINE
8
Layer 1
10
48.852462
20
187.652836
11
46.336377
21
191.353691
0
LINE
8
Layer 1
10
46.336377
20
191.353691
11
44.097268
21
195.015745
0
LINE
8
Layer 1
10
44.097268
20
195.015745
11
49.398309
21
195.476009
0
LINE
8
Layer 1
10
49.398309
20
195.476009
11
54.668491
21
195.608269
0
LINE
8
Layer 1
10
54.668491
20
195.608269
11
59.902240
21
195.353286
0
LINE
8
Layer 1
10
59.902240
20
195.353286
11
65.093981
21
194.651819
0
LINE
8
Layer 1
10
65.093981
20
194.651819
11
70.238138
21
193.444627
0
LINE
8
Layer 1
10
70.238138
20
193.444627
11
75.329138
21
191.672471
0
LINE
8
Layer 1
10
75.329138
20
191.672471
11
77.852962
21
190.556019
0
LINE
8
Layer 1
10
77.852962
20
190.556019
11
80.361406
21
189.276111
0
LINE
8
Layer 1
10
80.361406
20
189.276111
11
82.853774
21
187.825341
0
LINE
8
Layer 1
10
82.853774
20
187.825341
11
85.329368
21
186.196305
0
LINE
8
Layer 1
10
85.329368
20
186.196305
11
85.194947
21
188.735889
0
LINE
8
Layer 1
10
85.194947
20
188.735889
11
85.368690
21
191.107319
0
LINE
8
Layer 1
10
85.368690
20
191.107319
11
85.873142
21
193.393296
0
LINE
8
Layer 1
10
85.873142
20
193.393296
11
86.730848
21
195.676520
0
LINE
8
Layer 1
10
86.730848
20
195.676520
11
87.964356
21
198.039693
0
LINE
8
Layer 1
10
87.964356
20
198.039693
11
89.596209
21
200.565514
0
LINE
8
Layer 1
10
89.596209
20
200.565514
11
91.648955
21
203.336684
0
LINE
8
Layer 1
10
91.648955
20
203.336684
11
94.145138
21
206.435905
0
LINE
8
Layer 1
10
94.145138
20
206.435905
11
95.924966
21
205.113748
0
LINE
8
Layer 1
10
95.924966
20
205.113748
11
97.616666
21
203.665335
0
LINE
8
Layer 1
10
97.616666
20
203.665335
11
99.218757
21
202.088553
0
LINE
8
Layer 1
10
99.218757
20
202.088553
11
100.729762
21
200.381286
0
LINE
8
Layer 1
10
100.729762
20
200.381286
11
102.148201
21
198.541422
0
LINE
8
Layer 1
10
102.148201
20
198.541422
11
103.472596
21
196.566847
0
LINE
8
Layer 1
10
103.472596
20
196.566847
11
104.701468
21
194.455446
0
LINE
8
Layer 1
10
104.701468
20
194.455446
11
105.833338
21
192.205105
0
LINE
8
Layer 1
10
105.833338
20
192.205105
11
106.480929
21
191.209762
0
LINE
8
Layer 1
10
106.480929
20
191.209762
11
107.024193
21
190.099515
0
LINE
8
Layer 1
10
107.024193
20
190.099515
11
107.813148
21
187.603498
0
LINE
8
Layer 1
10
107.813148
20
187.603498
11
108.231032
21
184.855424
0
LINE
8
Layer 1
10
108.231032
20
184.855424
11
108.308672
21
181.993665
0
LINE
8
Layer 1
10
108.308672
20
181.993665
11
108.076895
21
179.156593
0
LINE
8
Layer 1
10
108.076895
20
179.156593
11
107.566528
21
176.482578
0
LINE
8
Layer 1
10
107.566528
20
176.482578
11
106.808400
21
174.109991
0
LINE
8
Layer 1
10
106.808400
20
174.109991
11
105.833338
21
172.177205
0
LINE
8
Layer 1
10
105.833338
20
172.177205
11
106.381945
21
172.617450
0
LINE
8
Layer 1
10
106.381945
20
172.617450
11
107.035052
21
172.932165
0
LINE
8
Layer 1
10
107.035052
20
172.932165
11
108.622083
21
173.210898
0
LINE
8
Layer 1
10
108.622083
20
173.210898
11
110.529068
21
173.065190
0
LINE
8
Layer 1
10
110.529068
20
173.065190
11
112.690639
21
172.546829
0
LINE
8
Layer 1
10
112.690639
20
172.546829
11
115.041431
21
171.707601
0
LINE
8
Layer 1
10
115.041431
20
171.707601
11
117.516080
21
170.599294
0
LINE
8
Layer 1
10
117.516080
20
170.599294
11
120.049219
21
169.273695
0
LINE
8
Layer 1
10
120.049219
20
169.273695
11
122.575483
21
167.782590
0
LINE
8
Layer 1
10
122.575483
20
167.782590
11
127.345924
21
164.511013
0
LINE
8
Layer 1
10
127.345924
20
164.511013
11
131.304480
21
161.198859
0
LINE
8
Layer 1
10
131.304480
20
161.198859
11
132.815887
21
159.657033
0
LINE
8
Layer 1
10
132.815887
20
159.657033
11
133.928226
21
158.260424
0
LINE
8
Layer 1
10
133.928226
20
158.260424
11
134.576131
21
157.060819
0
LINE
8
Layer 1
10
134.576131
20
157.060819
11
134.694238
21
156.110005
0
LINE
8
Layer 1
10
134.694238
20
156.110005
11
134.975243
21
158.132342
0
LINE
8
Layer 1
10
134.975243
20
158.132342
11
134.715769
21
160.116239
0
LINE
8
Layer 1
10
134.715769
20
160.116239
11
134.013085
21
162.014285
0
LINE
8
Layer 1
10
134.013085
20
162.014285
11
132.964463
21
163.779071
0
LINE
8
Layer 1
10
132.964463
20
163.779071
11
131.667173
21
165.363186
0
LINE
8
Layer 1
10
131.667173
20
165.363186
11
130.218485
21
166.719220
0
LINE
8
Layer 1
10
130.218485
20
166.719220
11
128.715670
21
167.799763
0
LINE
8
Layer 1
10
128.715670
20
167.799763
11
127.255998
21
168.557405
0
LINE
8
Layer 1
10
127.255998
20
168.557405
11
124.553327
21
169.613952
0
LINE
8
Layer 1
10
124.553327
20
169.613952
11
122.083440
21
170.889555
0
LINE
8
Layer 1
10
122.083440
20
170.889555
11
119.842483
21
172.376837
0
LINE
8
Layer 1
10
119.842483
20
172.376837
11
117.826599
21
174.068424
0
LINE
8
Layer 1
10
117.826599
20
174.068424
11
116.031934
21
175.956939
0
LINE
8
Layer 1
10
116.031934
20
175.956939
11
114.454633
21
178.035008
0
LINE
8
Layer 1
10
114.454633
20
178.035008
11
113.090839
21
180.295255
0
LINE
8
Layer 1
10
113.090839
20
180.295255
11
111.936698
21
182.730305
0
LINE
8
Layer 1
10
111.936698
20
182.730305
11
111.777935
21
188.522290
0
LINE
8
Layer 1
10
111.777935
20
188.522290
11
111.499501
21
194.507414
0
LINE
8
Layer 1
10
111.499501
20
194.507414
11
111.469271
21
197.320686
0
LINE
8
Layer 1
10
111.469271
20
197.320686
11
111.593759
21
199.880183
0
LINE
8
Layer 1
10
111.593759
20
199.880183
11
111.934511
21
202.085218
0
LINE
8
Layer 1
10
111.934511
20
202.085218
11
112.553071
21
203.835105
0
LINE
8
Layer 1
10
112.553071
20
203.835105
11
115.244589
21
203.386807
0
LINE
8
Layer 1
10
115.244589
20
203.386807
11
117.864006
21
202.728133
0
LINE
8
Layer 1
10
117.864006
20
202.728133
11
120.415345
21
201.870822
0
LINE
8
Layer 1
10
120.415345
20
201.870822
11
122.902630
21
200.826617
0
LINE
8
Layer 1
10
122.902630
20
200.826617
11
125.329882
21
199.607257
0
LINE
8
Layer 1
10
125.329882
20
199.607257
11
127.701124
21
198.224485
0
LINE
8
Layer 1
10
127.701124
20
198.224485
11
132.291671
21
195.015665
0
LINE
8
Layer 1
10
132.291671
20
195.015665
11
134.381574
21
191.895882
0
LINE
8
Layer 1
10
134.381574
20
191.895882
11
135.893552
21
188.937320
0
LINE
8
Layer 1
10
135.893552
20
188.937320
11
136.865230
21
186.129486
0
LINE
8
Layer 1
10
136.865230
20
186.129486
11
137.334237
21
183.461886
0
LINE
8
Layer 1
10
137.334237
20
183.461886
11
137.338200
21
180.924028
0
LINE
8
Layer 1
10
137.338200
20
180.924028
11
136.914745
21
178.505417
0
LINE
8
Layer 1
10
136.914745
20
178.505417
11
136.101499
21
176.195560
0
LINE
8
Layer 1
10
136.101499
20
176.195560
11
134.936091
21
173.983965
0
LINE
8
Layer 1
10
134.936091
20
173.983965
11
137.313391
21
168.799947
0
LINE
8
Layer 1
10
137.313391
20
168.799947
11
140.187921
21
163.711024
0
LINE
8
Layer 1
10
140.187921
20
163.711024
11
143.486786
21
158.703271
0
LINE
8
Layer 1
10
143.486786
20
158.703271
11
147.137091
21
153.762765
0
LINE
8
Layer 1
10
147.137091
20
153.762765
11
149.930521
21
157.538045
0
LINE
8
Layer 1
10
149.930521
20
157.538045
11
148.476300
21
157.640262
0
LINE
8
Layer 1
10
148.476300
20
157.640262
11
147.157480
21
158.106583
0
LINE
8
Layer 1
10
147.157480
20
158.106583
11
145.970847
21
158.922989
0
LINE
8
Layer 1
10
145.970847
20
158.922989
11
144.913186
21
160.075463
0
LINE
8
Layer 1
10
144.913186
20
160.075463
11
143.981283
21
161.549986
0
LINE
8
Layer 1
10
143.981283
20
161.549986
11
143.171924
21
163.332540
0
LINE
8
Layer 1
10
143.171924
20
163.332540
11
142.481894
21
165.409106
0
LINE
8
Layer 1
10
142.481894
20
165.409106
11
141.907980
21
167.765667
0
LINE
8
Layer 1
10
141.907980
20
167.765667
11
141.095638
21
173.262697
0
LINE
8
Layer 1
10
141.095638
20
173.262697
11
140.709184
21
179.711484
0
LINE
8
Layer 1
10
140.709184
20
179.711484
11
140.722904
21
186.999883
0
LINE
8
Layer 1
10
140.722904
20
186.999883
11
141.111081
21
195.015745
0
LINE
8
Layer 1
10
141.111081
20
195.015745
11
138.621256
21
195.677376
0
LINE
8
Layer 1
10
138.621256
20
195.677376
11
136.305602
21
196.463542
0
LINE
8
Layer 1
10
136.305602
20
196.463542
11
134.166436
21
197.375900
0
LINE
8
Layer 1
10
134.166436
20
197.375900
11
132.206076
21
198.416108
0
LINE
8
Layer 1
10
132.206076
20
198.416108
11
130.426839
21
199.585823
0
LINE
8
Layer 1
10
130.426839
20
199.585823
11
128.831043
21
200.886701
0
LINE
8
Layer 1
10
128.831043
20
200.886701
11
127.421005
21
202.320400
0
LINE
8
Layer 1
10
127.421005
20
202.320400
11
126.199044
21
203.888576
0
LINE
8
Layer 1
10
126.199044
20
203.888576
11
125.167475
21
205.592888
0
LINE
8
Layer 1
10
125.167475
20
205.592888
11
124.328617
21
207.434992
0
LINE
8
Layer 1
10
124.328617
20
207.434992
11
123.684788
21
209.416544
0
LINE
8
Layer 1
10
123.684788
20
209.416544
11
123.238304
21
211.539204
0
LINE
8
Layer 1
10
123.238304
20
211.539204
11
122.991485
21
213.804626
0
LINE
8
Layer 1
10
122.991485
20
213.804626
11
122.946646
21
216.214469
0
LINE
8
Layer 1
10
122.946646
20
216.214469
11
123.106105
21
218.770390
0
LINE
8
Layer 1
10
123.106105
20
218.770390
11
123.472181
21
221.474045
0
LINE
8
Layer 1
10
123.472181
20
221.474045
11
125.886256
21
221.804990
0
LINE
8
Layer 1
10
125.886256
20
221.804990
11
128.251600
21
221.946154
0
LINE
8
Layer 1
10
128.251600
20
221.946154
11
130.562690
21
221.876054
0
LINE
8
Layer 1
10
130.562690
20
221.876054
11
132.814006
21
221.573211
0
LINE
8
Layer 1
10
132.814006
20
221.573211
11
135.000025
21
221.016143
0
LINE
8
Layer 1
10
135.000025
20
221.016143
11
137.115225
21
220.183370
0
LINE
8
Layer 1
10
137.115225
20
220.183370
11
139.154084
21
219.053411
0
LINE
8
Layer 1
10
139.154084
20
219.053411
11
141.111081
21
217.604785
0
LINE
8
Layer 1
10
141.111081
20
217.604785
11
141.327211
21
221.992935
0
LINE
8
Layer 1
10
141.327211
20
221.992935
11
141.751041
21
226.241210
0
LINE
8
Layer 1
10
141.751041
20
226.241210
11
142.404192
21
230.335060
0
LINE
8
Layer 1
10
142.404192
20
230.335060
11
143.308283
21
234.259935
0
LINE
8
Layer 1
10
143.308283
20
234.259935
11
144.484935
21
238.001285
0
LINE
8
Layer 1
10
144.484935
20
238.001285
11
145.955767
21
241.544560
0
LINE
8
Layer 1
10
145.955767
20
241.544560
11
147.742399
21
244.875210
0
LINE
8
Layer 1
10
147.742399
20
244.875210
11
149.866451
21
247.978685
0
LINE
8
Layer 1
10
149.866451
20
247.978685
11
148.053362
21
248.852323
0
LINE
8
Layer 1
10
148.053362
20
248.852323
11
146.404116
21
249.959188
0
LINE
8
Layer 1
10
146.404116
20
249.959188
11
144.942725
21
251.276417
0
LINE
8
Layer 1
10
144.942725
20
251.276417
11
143.693199
21
252.781145
0
LINE
8
Layer 1
10
143.693199
20
252.781145
11
142.679548
21
254.450509
0
LINE
8
Layer 1
10
142.679548
20
254.450509
11
141.925785
21
256.261647
0
LINE
8
Layer 1
10
141.925785
20
256.261647
11
141.455919
21
258.191693
0
LINE
8
Layer 1
10
141.455919
20
258.191693
11
141.293961
21
260.217785
0
LINE
8
Layer 1
10
141.293961
20
260.217785
11
141.577082
21
262.887776
0
LINE
8
Layer 1
10
141.577082
20
262.887776
11
142.388996
21
265.375278
0
LINE
8
Layer 1
10
142.388996
20
265.375278
11
143.673528
21
267.626810
0
LINE
8
Layer 1
10
143.673528
20
267.626810
11
145.374505
21
269.588895
0
LINE
8
Layer 1
10
145.374505
20
269.588895
11
147.435751
21
271.208054
0
LINE
8
Layer 1
10
147.435751
20
271.208054
11
149.801091
21
272.430808
0
LINE
8
Layer 1
10
149.801091
20
272.430808
11
152.414353
21
273.203678
0
LINE
8
Layer 1
10
152.414353
20
273.203678
11
155.219361
21
273.473185
0
LINE
8
Layer 1
10
155.219361
20
273.473185
11
158.024289
21
273.203678
0
LINE
8
Layer 1
10
158.024289
20
273.203678
11
160.637512
21
272.430808
0
LINE
8
Layer 1
10
160.637512
20
272.430808
11
163.002848
21
271.208054
0
LINE
8
Layer 1
10
163.002848
20
271.208054
11
165.064112
21
269.588895
0
LINE
8
Layer 1
10
165.064112
20
269.588895
11
166.765120
21
267.626810
0
LINE
8
Layer 1
10
166.765120
20
267.626810
11
168.049686
21
265.375278
0
LINE
8
Layer 1
10
168.049686
20
265.375278
11
168.861628
21
262.887776
0
LINE
8
Layer 1
10
168.861628
20
262.887776
11
169.144761
21
260.217785
0
LINE
8
Layer 1
10
169.144761
20
260.217785
11
168.955293
21
258.028112
0
LINE
8
Layer 1
10
168.955293
20
258.028112
11
168.407209
21
255.953274
0
LINE
8
Layer 1
10
168.407209
20
255.953274
11
167.530988
21
254.022276
0
LINE
8
Layer 1
10
167.530988
20
254.022276
11
166.357112
21
252.264125
0
LINE
8
Layer 1
10
166.357112
20
252.264125
11
164.916060
21
250.707825
0
LINE
8
Layer 1
10
164.916060
20
250.707825
11
163.238313
21
249.382381
0
LINE
8
Layer 1
10
163.238313
20
249.382381
11
161.354350
21
248.316800
0
LINE
8
Layer 1
10
161.354350
20
248.316800
11
159.294651
21
247.540085
0
LINE
8
Layer 1
10
159.294651
20
247.540085
11
161.268806
21
244.349961
0
LINE
8
Layer 1
10
161.268806
20
244.349961
11
162.970668
21
240.974258
0
LINE
8
Layer 1
10
162.970668
20
240.974258
11
164.402186
21
237.414297
0
LINE
8
Layer 1
10
164.402186
20
237.414297
11
165.565307
21
233.671405
0
LINE
8
Layer 1
10
165.565307
20
233.671405
11
166.461981
21
229.746904
0
LINE
8
Layer 1
10
166.461981
20
229.746904
11
167.094154
21
225.642118
0
LINE
8
Layer 1
10
167.094154
20
225.642118
11
167.463774
21
221.358370
0
LINE
8
Layer 1
10
167.463774
20
221.358370
11
167.572791
21
216.896985
0
LINE
8
Layer 1
10
167.572791
20
216.896985
11
167.569404
21
216.893034
0
LINE
8
Layer 1
10
167.569404
20
216.893034
11
167.569404
21
216.445994
0
LINE
8
Layer 1
10
167.569404
20
216.445994
11
167.572791
21
216.896985
0
LINE
8
Layer 1
10
167.572791
20
216.896985
11
169.234659
21
218.580008
0
LINE
8
Layer 1
10
169.234659
20
218.580008
11
171.072395
21
219.902952
0
LINE
8
Layer 1
10
171.072395
20
219.902952
11
173.075575
21
220.887157
0
LINE
8
Layer 1
10
173.075575
20
220.887157
11
175.233775
21
221.553965
0
LINE
8
Layer 1
10
175.233775
20
221.553965
11
177.536571
21
221.924718
0
LINE
8
Layer 1
10
177.536571
20
221.924718
11
179.973538
21
222.020758
0
LINE
8
Layer 1
10
179.973538
20
222.020758
11
182.534253
21
221.863426
0
LINE
8
Layer 1
10
182.534253
20
221.863426
11
185.208291
21
221.474065
0
LINE
8
Layer 1
10
185.208291
20
221.474065
11
185.766010
21
219.258256
0
LINE
8
Layer 1
10
185.766010
20
219.258256
11
186.097808
21
217.083684
0
LINE
8
Layer 1
10
186.097808
20
217.083684
11
186.199044
21
214.951195
0
LINE
8
Layer 1
10
186.199044
20
214.951195
11
186.065074
21
212.861640
0
LINE
8
Layer 1
10
186.065074
20
212.861640
11
185.691255
21
210.815866
0
LINE
8
Layer 1
10
185.691255
20
210.815866
11
185.072946
21
208.814721
0
LINE
8
Layer 1
10
185.072946
20
208.814721
11
184.205504
21
206.859055
0
LINE
8
Layer 1
10
184.205504
20
206.859055
11
183.084286
21
204.949715
0
LINE
8
Layer 1
10
183.084286
20
204.949715
11
181.704649
21
203.087550
0
LINE
8
Layer 1
10
181.704649
20
203.087550
11
180.061951
21
201.273409
0
LINE
8
Layer 1
10
180.061951
20
201.273409
11
178.151549
21
199.508139
0
LINE
8
Layer 1
10
178.151549
20
199.508139
11
175.968801
21
197.792590
0
LINE
8
Layer 1
10
175.968801
20
197.792590
11
173.509064
21
196.127609
0
LINE
8
Layer 1
10
173.509064
20
196.127609
11
170.767695
21
194.514046
0
LINE
8
Layer 1
10
170.767695
20
194.514046
11
167.740051
21
192.952748
0
LINE
8
Layer 1
10
167.740051
20
192.952748
11
164.421491
21
191.444565
0
LINE
8
Layer 1
10
164.421491
20
191.444565
11
165.630031
21
187.918207
0
LINE
8
Layer 1
10
165.630031
20
187.918207
11
166.287993
21
184.497886
0
LINE
8
Layer 1
10
166.287993
20
184.497886
11
166.504458
21
181.124197
0
LINE
8
Layer 1
10
166.504458
20
181.124197
11
166.388507
21
177.737736
0
LINE
8
Layer 1
10
166.388507
20
177.737736
11
165.595683
21
170.688876
0
LINE
8
Layer 1
10
165.595683
20
170.688876
11
165.136972
21
166.907667
0
LINE
8
Layer 1
10
165.136972
20
166.907667
11
164.782171
21
162.876065
0
LINE
8
Layer 1
10
164.782171
20
162.876065
11
172.490221
21
173.582465
0
LINE
8
Layer 1
10
172.490221
20
173.582465
11
171.065281
21
186.196365
0
LINE
8
Layer 1
10
171.065281
20
186.196365
11
173.895080
21
190.058968
0
LINE
8
Layer 1
10
173.895080
20
190.058968
11
176.737661
21
193.398991
0
LINE
8
Layer 1
10
176.737661
20
193.398991
11
179.592420
21
196.240905
0
LINE
8
Layer 1
10
179.592420
20
196.240905
11
182.458750
21
198.609177
0
LINE
8
Layer 1
10
182.458750
20
198.609177
11
185.336046
21
200.528280
0
LINE
8
Layer 1
10
185.336046
20
200.528280
11
188.223704
21
202.022682
0
LINE
8
Layer 1
10
188.223704
20
202.022682
11
191.121117
21
203.116854
0
LINE
8
Layer 1
10
191.121117
20
203.116854
11
194.027681
21
203.835265
0
LINE
8
Layer 1
10
194.027681
20
203.835265
11
195.508554
21
200.261048
0
LINE
8
Layer 1
10
195.508554
20
200.261048
11
196.562317
21
196.803140
0
LINE
8
Layer 1
10
196.562317
20
196.803140
11
197.214100
21
193.475743
0
LINE
8
Layer 1
10
197.214100
20
193.475743
11
197.489033
21
190.293057
0
LINE
8
Layer 1
10
197.489033
20
190.293057
11
197.412243
21
187.269284
0
LINE
8
Layer 1
10
197.412243
20
187.269284
11
197.008862
21
184.418624
0
LINE
8
Layer 1
10
197.008862
20
184.418624
11
196.304016
21
181.755280
0
LINE
8
Layer 1
10
196.304016
20
181.755280
11
195.322837
21
179.293452
0
LINE
8
Layer 1
10
195.322837
20
179.293452
11
194.090453
21
177.047342
0
LINE
8
Layer 1
10
194.090453
20
177.047342
11
192.631993
21
175.031151
0
LINE
8
Layer 1
10
192.631993
20
175.031151
11
190.972587
21
173.259079
0
LINE
8
Layer 1
10
190.972587
20
173.259079
11
189.137364
21
171.745329
0
LINE
8
Layer 1
10
189.137364
20
171.745329
11
187.151452
21
170.504101
0
LINE
8
Layer 1
10
187.151452
20
170.504101
11
185.039982
21
169.549597
0
LINE
8
Layer 1
10
185.039982
20
169.549597
11
182.828082
21
168.896018
0
LINE
8
Layer 1
10
182.828082
20
168.896018
11
180.540881
21
168.557565
0
LINE
8
Layer 1
10
180.540881
20
168.557565
11
175.967860
21
163.569400
0
LINE
8
Layer 1
10
175.967860
20
163.569400
11
167.569381
21
153.976865
0
LINE
8
Layer 1
10
167.569381
20
153.976865
11
170.814651
21
150.918705
0
LINE
8
Layer 1
10
170.814651
20
150.918705
11
171.843342
21
153.268516
0
LINE
8
Layer 1
10
171.843342
20
153.268516
11
173.024923
21
155.475252
0
LINE
8
Layer 1
10
173.024923
20
155.475252
11
174.354442
21
157.543547
0
LINE
8
Layer 1
10
174.354442
20
157.543547
11
175.826946
21
159.478036
0
LINE
8
Layer 1
10
175.826946
20
159.478036
11
177.437483
21
161.283354
0
LINE
8
Layer 1
10
177.437483
20
161.283354
11
179.181100
21
162.964136
0
LINE
8
Layer 1
10
179.181100
20
162.964136
11
181.052845
21
164.525016
0
LINE
8
Layer 1
10
181.052845
20
164.525016
11
183.047766
21
165.970630
0
LINE
8
Layer 1
10
183.047766
20
165.970630
11
185.160910
21
167.305611
0
LINE
8
Layer 1
10
185.160910
20
167.305611
11
187.387324
21
168.534596
0
LINE
8
Layer 1
10
187.387324
20
168.534596
11
192.160154
21
170.693111
0
LINE
8
Layer 1
10
192.160154
20
170.693111
11
197.326636
21
172.483255
0
LINE
8
Layer 1
10
197.326636
20
172.483255
11
202.847151
21
173.942105
0
LINE
8
Layer 1
10
202.847151
20
173.942105
11
201.428191
21
175.416427
0
LINE
8
Layer 1
10
201.428191
20
175.416427
11
200.457545
21
177.200798
0
LINE
8
Layer 1
10
200.457545
20
177.200798
11
199.901253
21
179.240036
0
LINE
8
Layer 1
10
199.901253
20
179.240036
11
199.725354
21
181.478960
0
LINE
8
Layer 1
10
199.725354
20
181.478960
11
199.895886
21
183.862388
0
LINE
8
Layer 1
10
199.895886
20
183.862388
11
200.378890
21
186.335137
0
LINE
8
Layer 1
10
200.378890
20
186.335137
11
201.140405
21
188.842027
0
LINE
8
Layer 1
10
201.140405
20
188.842027
11
202.146469
21
191.327874
0
LINE
8
Layer 1
10
202.146469
20
191.327874
11
203.363121
21
193.737497
0
LINE
8
Layer 1
10
203.363121
20
193.737497
11
204.756401
21
196.015714
0
LINE
8
Layer 1
10
204.756401
20
196.015714
11
206.292347
21
198.107343
0
LINE
8
Layer 1
10
206.292347
20
198.107343
11
207.937000
21
199.957203
0
LINE
8
Layer 1
10
207.937000
20
199.957203
11
209.656397
21
201.510110
0
LINE
8
Layer 1
10
209.656397
20
201.510110
11
211.416579
21
202.710885
0
LINE
8
Layer 1
10
211.416579
20
202.710885
11
213.183584
21
203.504343
0
LINE
8
Layer 1
10
213.183584
20
203.504343
11
214.923451
21
203.835305
0
LINE
8
Layer 1
10
214.923451
20
203.835305
11
215.892468
21
203.699735
0
LINE
8
Layer 1
10
215.892468
20
203.699735
11
216.861139
21
203.230702
0
LINE
8
Layer 1
10
216.861139
20
203.230702
11
217.817014
21
202.472037
0
LINE
8
Layer 1
10
217.817014
20
202.472037
11
218.747642
21
201.467572
0
LINE
8
Layer 1
10
218.747642
20
201.467572
11
220.483358
21
198.896570
0
LINE
8
Layer 1
10
220.483358
20
198.896570
11
221.968687
21
195.868351
0
LINE
8
Layer 1
10
221.968687
20
195.868351
11
223.104027
21
192.733569
0
LINE
8
Layer 1
10
223.104027
20
192.733569
11
223.789777
21
189.842881
0
LINE
8
Layer 1
10
223.789777
20
189.842881
11
223.926335
21
187.546942
0
LINE
8
Layer 1
10
223.926335
20
187.546942
11
223.757542
21
186.731582
0
LINE
8
Layer 1
10
223.757542
20
186.731582
11
223.414101
21
186.196405
0
LINE
8
Layer 1
10
223.414101
20
186.196405
11
230.028540
21
190.496929
0
LINE
8
Layer 1
10
230.028540
20
190.496929
11
233.167898
21
192.280084
0
LINE
8
Layer 1
10
233.167898
20
192.280084
11
236.197510
21
193.823516
0
LINE
8
Layer 1
10
236.197510
20
193.823516
11
239.119000
21
195.130989
0
LINE
8
Layer 1
10
239.119000
20
195.130989
11
241.933988
21
196.206265
0
LINE
8
Layer 1
10
241.933988
20
196.206265
11
244.644098
21
197.053105
0
LINE
8
Layer 1
10
244.644098
20
197.053105
11
247.250951
21
197.675272
0
LINE
8
Layer 1
10
247.250951
20
197.675272
11
249.756170
21
198.076529
0
LINE
8
Layer 1
10
249.756170
20
198.076529
11
252.161376
21
198.260636
0
LINE
8
Layer 1
10
252.161376
20
198.260636
11
254.468193
21
198.231358
0
LINE
8
Layer 1
10
254.468193
20
198.231358
11
256.678242
21
197.992455
0
LINE
8
Layer 1
10
256.678242
20
197.992455
11
258.793145
21
197.547690
0
LINE
8
Layer 1
10
258.793145
20
197.547690
11
260.814524
21
196.900825
0
LINE
8
Layer 1
10
260.814524
20
196.900825
11
262.744002
21
196.055623
0
LINE
8
Layer 1
10
262.744002
20
196.055623
11
264.583201
21
195.015845
0
LINE
8
Layer 1
10
264.583201
20
195.015845
11
262.703835
21
191.356948
0
LINE
8
Layer 1
10
262.703835
20
191.356948
11
260.408496
21
187.781113
0
LINE
8
Layer 1
10
260.408496
20
187.781113
11
257.701182
21
184.250145
0
LINE
8
Layer 1
10
257.701182
20
184.250145
11
254.585891
21
180.725847
0
LINE
8
Layer 1
10
254.585891
20
180.725847
11
251.066620
21
177.170024
0
LINE
8
Layer 1
10
251.066620
20
177.170024
11
247.147366
21
173.544480
0
LINE
8
Layer 1
10
247.147366
20
173.544480
11
242.832127
21
169.811019
0
LINE
8
Layer 1
10
242.832127
20
169.811019
11
238.124901
21
165.931445
0
LINE
8
Layer 1
10
238.124901
20
165.931445
11
240.187300
21
164.335145
0
LINE
8
Layer 1
10
240.187300
20
164.335145
11
241.963523
21
162.755472
0
LINE
8
Layer 1
10
241.963523
20
162.755472
11
243.459519
21
161.144068
0
LINE
8
Layer 1
10
243.459519
20
161.144068
11
244.681237
21
159.452579
0
LINE
8
Layer 1
10
244.681237
20
159.452579
11
245.634629
21
157.632648
0
LINE
8
Layer 1
10
245.634629
20
157.632648
11
246.325643
21
155.635919
0
LINE
8
Layer 1
10
246.325643
20
155.635919
11
246.760231
21
153.414037
0
LINE
8
Layer 1
10
246.760231
20
153.414037
11
246.944341
21
150.918645
0
LINE
8
Layer 1
10
246.944341
20
150.918645
11
244.549807
21
149.629304
0
LINE
8
Layer 1
10
244.549807
20
149.629304
11
242.189457
21
148.614404
0
LINE
8
Layer 1
10
242.189457
20
148.614404
11
239.861388
21
147.858646
0
LINE
8
Layer 1
10
239.861388
20
147.858646
11
237.563691
21
147.346732
0
LINE
8
Layer 1
10
237.563691
20
147.346732
11
235.294462
21
147.063363
0
LINE
8
Layer 1
10
235.294462
20
147.063363
11
233.051793
21
146.993241
0
LINE
8
Layer 1
10
233.051793
20
146.993241
11
230.833780
21
147.121068
0
LINE
8
Layer 1
10
230.833780
20
147.121068
11
228.638516
21
147.431545
0
LINE
8
Layer 1
10
228.638516
20
147.431545
11
226.464095
21
147.909374
0
LINE
8
Layer 1
10
226.464095
20
147.909374
11
224.308611
21
148.539258
0
LINE
8
Layer 1
10
224.308611
20
148.539258
11
220.046829
21
150.193993
0
LINE
8
Layer 1
10
220.046829
20
150.193993
11
215.837921
21
152.273364
0
LINE
8
Layer 1
10
215.837921
20
152.273364
11
211.666641
21
154.654985
0
LINE
8
Layer 1
10
211.666641
20
154.654985
11
209.065748
21
151.855554
0
LINE
8
Layer 1
10
209.065748
20
151.855554
11
206.183197
21
149.457922
0
LINE
8
Layer 1
10
206.183197
20
149.457922
11
203.058903
21
147.385125
0
LINE
8
Layer 1
10
203.058903
20
147.385125
11
199.732782
21
145.560201
0
LINE
8
Layer 1
10
199.732782
20
145.560201
11
196.244750
21
143.906188
0
LINE
8
Layer 1
10
196.244750
20
143.906188
11
192.634722
21
142.346122
0
LINE
8
Layer 1
10
192.634722
20
142.346122
11
185.208341
21
139.199985
0
LINE
8
Layer 1
10
185.208341
20
139.199985
11
187.293973
21
138.865988
0
LINE
8
Layer 1
10
187.293973
20
138.865988
11
189.399673
21
138.688856
0
LINE
8
Layer 1
10
189.399673
20
138.688856
11
193.699272
21
138.699748
0
LINE
8
Layer 1
10
193.699272
20
138.699748
11
198.163131
21
139.021789
0
LINE
8
Layer 1
10
198.163131
20
139.021789
11
202.847241
21
139.444107
0
LINE
8
Layer 1
10
202.847241
20
139.444107
11
203.828485
21
142.122117
0
LINE
8
Layer 1
10
203.828485
20
142.122117
11
205.140827
21
144.246983
0
LINE
8
Layer 1
10
205.140827
20
144.246983
11
206.748279
21
145.849713
0
LINE
8
Layer 1
10
206.748279
20
145.849713
11
208.614851
21
146.961316
0
LINE
8
Layer 1
10
208.614851
20
146.961316
11
210.704553
21
147.612801
0
LINE
8
Layer 1
10
210.704553
20
147.612801
11
212.981397
21
147.835176
0
LINE
8
Layer 1
10
212.981397
20
147.835176
11
215.409392
21
147.659450
0
LINE
8
Layer 1
10
215.409392
20
147.659450
11
217.952550
21
147.116632
0
LINE
8
Layer 1
10
217.952550
20
147.116632
11
220.574881
21
146.237730
0
LINE
8
Layer 1
10
220.574881
20
146.237730
11
223.240396
21
145.053754
0
LINE
8
Layer 1
10
223.240396
20
145.053754
11
225.913105
21
143.595712
0
LINE
8
Layer 1
10
225.913105
20
143.595712
11
228.557019
21
141.894613
0
LINE
8
Layer 1
10
228.557019
20
141.894613
11
231.136149
21
139.981465
0
LINE
8
Layer 1
10
231.136149
20
139.981465
11
233.614506
21
137.887277
0
LINE
8
Layer 1
10
233.614506
20
137.887277
11
235.956100
21
135.643058
0
LINE
8
Layer 1
10
235.956100
20
135.643058
11
238.124941
21
133.279817
0
LINE
8
Layer 1
10
238.124941
20
133.279817
11
234.713001
21
130.804467
0
LINE
8
Layer 1
10
234.713001
20
130.804467
11
231.437150
21
128.678850
0
LINE
8
Layer 1
10
231.437150
20
128.678850
11
228.294474
21
126.895478
0
LINE
8
Layer 1
10
228.294474
20
126.895478
11
225.282060
21
125.446865
0
LINE
8
Layer 1
10
225.282060
20
125.446865
11
222.396993
21
124.325524
0
LINE
8
Layer 1
10
222.396993
20
124.325524
11
219.636361
21
123.523967
0
LINE
8
Layer 1
10
219.636361
20
123.523967
11
216.997248
21
123.034706
0
LINE
8
Layer 1
10
216.997248
20
123.034706
11
214.476741
21
122.850256
0
LINE
8
Layer 1
10
214.476741
20
122.850256
11
212.071926
21
122.963127
0
LINE
8
Layer 1
10
212.071926
20
122.963127
11
209.779890
21
123.365834
0
LINE
8
Layer 1
10
209.779890
20
123.365834
11
207.597718
21
124.050889
0
LINE
8
Layer 1
10
207.597718
20
124.050889
11
205.522497
21
125.010804
0
LINE
8
Layer 1
10
205.522497
20
125.010804
11
203.551313
21
126.238093
0
LINE
8
Layer 1
10
203.551313
20
126.238093
11
201.681251
21
127.725268
0
LINE
8
Layer 1
10
201.681251
20
127.725268
11
199.909399
21
129.464841
0
LINE
8
Layer 1
10
199.909399
20
129.464841
11
198.232841
21
131.449327
0
LINE
8
Layer 1
10
198.232841
20
131.449327
11
194.369143
21
131.052976
0
LINE
8
Layer 1
10
194.369143
20
131.052976
11
189.944924
21
130.811327
0
LINE
8
Layer 1
10
189.944924
20
130.811327
11
184.415763
21
130.913584
0
LINE
8
Layer 1
10
184.415763
20
130.913584
11
177.237241
21
131.548951
0
LINE
8
Layer 1
10
177.237241
20
131.548951
11
177.278798
21
129.582041
0
LINE
8
Layer 1
10
177.278798
20
129.582041
11
177.198012
21
128.837931
0
LINE
8
Layer 1
10
177.198012
20
128.837931
11
177.124352
21
128.723067
0
LINE
8
Layer 1
10
177.124352
20
128.723067
11
177.198012
21
128.837931
0
LINE
8
Layer 1
10
177.198012
20
128.837931
11
177.746537
21
129.089994
0
LINE
8
Layer 1
10
177.746537
20
129.089994
11
178.767210
21
129.255264
0
LINE
8
Layer 1
10
178.767210
20
129.255264
11
182.016999
21
129.271787
0
LINE
8
Layer 1
10
182.016999
20
129.271787
11
186.531361
21
128.780217
0
LINE
8
Layer 1
10
186.531361
20
128.780217
11
191.894281
21
127.673274
0
LINE
8
Layer 1
10
191.894281
20
127.673274
11
194.763945
21
126.855512
0
LINE
8
Layer 1
10
194.763945
20
126.855512
11
197.689742
21
125.843675
0
LINE
8
Layer 1
10
197.689742
20
125.843675
11
200.619671
21
124.624355
0
LINE
8
Layer 1
10
200.619671
20
124.624355
11
203.501729
21
123.184140
0
LINE
8
Layer 1
10
203.501729
20
123.184140
11
206.283914
21
121.509620
0
LINE
8
Layer 1
10
206.283914
20
121.509620
11
208.914224
21
119.587386
0
LINE
8
Layer 1
10
208.914224
20
119.587386
11
211.340657
21
117.404026
0
LINE
8
Layer 1
10
211.340657
20
117.404026
11
213.511212
21
114.946131
0
LINE
8
Layer 1
10
213.511212
20
114.946131
11
214.244089
21
116.558832
0
LINE
8
Layer 1
10
214.244089
20
116.558832
11
215.362185
21
118.056445
0
LINE
8
Layer 1
10
215.362185
20
118.056445
11
216.821715
21
119.426796
0
LINE
8
Layer 1
10
216.821715
20
119.426796
11
218.578895
21
120.657707
0
LINE
8
Layer 1
10
218.578895
20
120.657707
11
220.589942
21
121.737001
0
LINE
8
Layer 1
10
220.589942
20
121.737001
11
222.811069
21
122.652503
0
LINE
8
Layer 1
10
222.811069
20
122.652503
11
225.198495
21
123.392036
0
LINE
8
Layer 1
10
225.198495
20
123.392036
11
227.708433
21
123.943424
0
LINE
8
Layer 1
10
227.708433
20
123.943424
11
230.297101
21
124.294489
0
LINE
8
Layer 1
10
230.297101
20
124.294489
11
232.920713
21
124.433056
0
LINE
8
Layer 1
10
232.920713
20
124.433056
11
235.535486
21
124.346949
0
LINE
8
Layer 1
10
235.535486
20
124.346949
11
238.097636
21
124.023990
0
LINE
8
Layer 1
10
238.097636
20
124.023990
11
240.563377
21
123.452003
0
LINE
8
Layer 1
10
240.563377
20
123.452003
11
242.888927
21
122.618812
0
LINE
8
Layer 1
10
242.888927
20
122.618812
11
245.030500
21
121.512240
0
LINE
8
Layer 1
10
245.030500
20
121.512240
11
246.944312
21
120.120111
0
LINE
8
Layer 1
10
246.944312
20
120.120111
11
246.690078
21
117.398295
0
LINE
8
Layer 1
10
246.690078
20
117.398295
11
246.121383
21
115.096962
0
LINE
8
Layer 1
10
246.121383
20
115.096962
11
245.274287
21
113.116899
0
LINE
8
Layer 1
10
245.274287
20
113.116899
11
244.184849
21
111.358895
0
LINE
8
Layer 1
10
244.184849
20
111.358895
11
242.889130
21
109.723737
0
LINE
8
Layer 1
10
242.889130
20
109.723737
11
241.423187
21
108.112211
0
LINE
8
Layer 1
10
241.423187
20
108.112211
11
238.124872
21
104.563211
0
LINE
8
Layer 1
10
238.124872
20
104.563211
11
243.063630
21
101.331743
0
LINE
8
Layer 1
10
243.063630
20
101.331743
11
247.481766
21
97.994174
0
LINE
8
Layer 1
10
247.481766
20
97.994174
11
251.406524
21
94.513770
0
LINE
8
Layer 1
10
251.406524
20
94.513770
11
254.865147
21
90.853800
0
LINE
8
Layer 1
10
254.865147
20
90.853800
11
257.884880
21
86.977532
0
LINE
8
Layer 1
10
257.884880
20
86.977532
11
260.492966
21
82.848232
0
LINE
8
Layer 1
10
260.492966
20
82.848232
11
262.716649
21
78.429169
0
LINE
8
Layer 1
10
262.716649
20
78.429169
11
264.583172
21
73.683611
0
LINE
8
Layer 1
10
264.583172
20
73.683611
11
256.979745
21
73.989561
0
LINE
8
Layer 1
10
256.979745
20
73.989561
11
250.244278
21
74.584293
0
LINE
8
Layer 1
10
250.244278
20
74.584293
11
244.304084
21
75.439381
0
LINE
8
Layer 1
10
244.304084
20
75.439381
11
239.086472
21
76.526400
0
LINE
8
Layer 1
10
239.086472
20
76.526400
11
234.518754
21
77.816923
0
LINE
8
Layer 1
10
234.518754
20
77.816923
11
230.528241
21
79.282523
0
LINE
8
Layer 1
10
230.528241
20
79.282523
11
227.042243
21
80.894775
0
LINE
8
Layer 1
10
227.042243
20
80.894775
11
223.988072
21
82.625251
0
LINE
8
Layer 1
10
223.988072
20
82.625251
11
223.557888
21
79.988451
0
LINE
8
Layer 1
10
223.557888
20
79.988451
11
223.029970
21
77.582778
0
LINE
8
Layer 1
10
223.029970
20
77.582778
11
222.357648
21
75.357314
0
LINE
8
Layer 1
10
222.357648
20
75.357314
11
221.494255
21
73.261139
0
LINE
8
Layer 1
10
221.494255
20
73.261139
11
220.393119
21
71.243334
0
LINE
8
Layer 1
10
220.393119
20
71.243334
11
219.007573
21
69.252981
0
LINE
8
Layer 1
10
219.007573
20
69.252981
11
217.290947
21
67.239160
0
LINE
8
Layer 1
10
217.290947
20
67.239160
11
215.196572
21
65.150951
0
LINE
8
Layer 1
10
215.196572
20
65.150951
11
214.773713
21
64.911763
0
LINE
8
Layer 1
10
214.773713
20
64.911763
11
214.294461
21
64.853817
0
LINE
8
Layer 1
10
214.294461
20
64.853817
11
213.188505
21
65.239513
0
LINE
8
Layer 1
10
213.188505
20
65.239513
11
211.922149
21
66.223754
0
LINE
8
Layer 1
10
211.922149
20
66.223754
11
210.538841
21
67.722256
0
LINE
8
Layer 1
10
210.538841
20
67.722256
11
209.082026
21
69.650736
0
LINE
8
Layer 1
10
209.082026
20
69.650736
11
207.595152
21
71.924909
0
LINE
8
Layer 1
10
207.595152
20
71.924909
11
204.705011
21
77.173203
0
LINE
8
Layer 1
10
204.705011
20
77.173203
11
202.215990
21
82.792864
0
LINE
8
Layer 1
10
202.215990
20
82.792864
11
201.230516
21
85.531249
0
LINE
8
Layer 1
10
201.230516
20
85.531249
11
200.475662
21
88.109624
0
LINE
8
Layer 1
10
200.475662
20
88.109624
11
199.994874
21
90.443705
0
LINE
8
Layer 1
10
199.994874
20
90.443705
11
199.831598
21
92.449210
0
LINE
8
Layer 1
10
199.831598
20
92.449210
11
200.029282
21
94.041853
0
LINE
8
Layer 1
10
200.029282
20
94.041853
11
200.277061
21
94.657013
0
LINE
8
Layer 1
10
200.277061
20
94.657013
11
200.631372
21
95.137351
0
LINE
8
Layer 1
10
200.631372
20
95.137351
11
199.091546
21
96.047540
0
LINE
8
Layer 1
10
199.091546
20
96.047540
11
196.355246
21
97.264143
0
LINE
8
Layer 1
10
196.355246
20
97.264143
11
192.949809
21
98.813642
0
LINE
8
Layer 1
10
192.949809
20
98.813642
11
189.402572
21
100.722521
0
LINE
8
Layer 1
10
189.402572
20
100.722521
11
184.570185
21
103.862103
0
LINE
8
Layer 1
10
184.570185
20
103.862103
11
180.202558
21
107.030286
0
LINE
8
Layer 1
10
180.202558
20
107.030286
11
176.766464
21
109.825037
0
LINE
8
Layer 1
10
176.766464
20
109.825037
11
174.728672
21
111.844321
0
LINE
8
Layer 1
10
174.728672
20
111.844321
11
174.379846
21
112.569914
0
LINE
8
Layer 1
10
174.379846
20
112.569914
11
174.728672
21
111.844321
0
LINE
8
Layer 1
10
174.728672
20
111.844321
11
174.729000
21
111.844000
0
LINE
8
Layer 1
10
176.984520
20
211.893000
11
175.952480
21
212.496870
0
LINE
8
Layer 1
10
175.952480
20
212.496870
11
174.794680
21
212.810162
0
LINE
8
Layer 1
10
174.794680
20
212.810162
11
173.543166
21
212.860132
0
LINE
8
Layer 1
10
173.543166
20
212.860132
11
172.229979
21
212.674032
0
LINE
8
Layer 1
10
172.229979
20
212.674032
11
170.887164
21
212.279117
0
LINE
8
Layer 1
10
170.887164
20
212.279117
11
169.546764
21
211.702639
0
LINE
8
Layer 1
10
169.546764
20
211.702639
11
167.001386
21
210.114014
0
LINE
8
Layer 1
10
167.001386
20
210.114014
11
164.850194
21
208.126185
0
LINE
8
Layer 1
10
164.850194
20
208.126185
11
164.002526
21
207.050704
0
LINE
8
Layer 1
10
164.002526
20
207.050704
11
163.349535
21
205.957184
0
LINE
8
Layer 1
10
163.349535
20
205.957184
11
162.923266
21
204.872877
0
LINE
8
Layer 1
10
162.923266
20
204.872877
11
162.755761
21
203.825039
0
LINE
8
Layer 1
10
162.755761
20
203.825039
11
162.879065
21
202.840922
0
LINE
8
Layer 1
10
162.879065
20
202.840922
11
163.325220
21
201.947780
0
LINE
8
Layer 1
10
163.325220
20
201.947780
11
163.694855
21
201.684832
0
LINE
8
Layer 1
10
163.694855
20
201.684832
11
164.333166
21
201.672757
0
LINE
8
Layer 1
10
164.333166
20
201.672757
11
166.240847
21
202.287283
0
LINE
8
Layer 1
10
166.240847
20
202.287283
11
168.698319
21
203.563466
0
LINE
8
Layer 1
10
168.698319
20
203.563466
11
171.355639
21
205.273413
0
LINE
8
Layer 1
10
171.355639
20
205.273413
11
173.862862
21
207.189232
0
LINE
8
Layer 1
10
173.862862
20
207.189232
11
175.870046
21
209.083031
0
LINE
8
Layer 1
10
175.870046
20
209.083031
11
176.576765
21
209.950456
0
LINE
8
Layer 1
10
176.576765
20
209.950456
11
177.027246
21
210.726917
0
LINE
8
Layer 1
10
177.027246
20
210.726917
11
177.177745
21
211.383928
0
LINE
8
Layer 1
10
177.177745
20
211.383928
11
176.984520
21
211.893000
0
LINE
8
Layer 1
10
176.984520
20
211.893000
11
176.984520
21
211.893000
0
LINE
8
Layer 1
10
145.456420
20
202.120780
11
144.713086
21
204.878697
0
LINE
8
Layer 1
10
144.713086
20
204.878697
11
143.650480
21
207.136744
0
LINE
8
Layer 1
10
143.650480
20
207.136744
11
142.285508
21
208.921386
0
LINE
8
Layer 1
10
142.285508
20
208.921386
11
140.635079
21
210.259087
0
LINE
8
Layer 1
10
140.635079
20
210.259087
11
138.716098
21
211.176311
0
LINE
8
Layer 1
10
138.716098
20
211.176311
11
136.545474
21
211.699522
0
LINE
8
Layer 1
10
136.545474
20
211.699522
11
134.140112
21
211.855184
0
LINE
8
Layer 1
10
134.140112
20
211.855184
11
131.516920
21
211.669760
0
LINE
8
Layer 1
10
131.516920
20
211.669760
11
132.477897
21
209.458382
0
LINE
8
Layer 1
10
132.477897
20
209.458382
11
133.654727
21
207.528154
0
LINE
8
Layer 1
10
133.654727
20
207.528154
11
135.051121
21
205.883895
0
LINE
8
Layer 1
10
135.051121
20
205.883895
11
136.670789
21
204.530422
0
LINE
8
Layer 1
10
136.670789
20
204.530422
11
138.517442
21
203.472556
0
LINE
8
Layer 1
10
138.517442
20
203.472556
11
140.594791
21
202.715114
0
LINE
8
Layer 1
10
140.594791
20
202.715114
11
142.906547
21
202.262916
0
LINE
8
Layer 1
10
142.906547
20
202.262916
11
145.456420
21
202.120780
0
LINE
8
Layer 1
10
145.456420
20
202.120780
11
145.456420
21
202.120780
0
LINE
8
Layer 1
10
118.043020
20
195.180090
11
117.616203
21
192.258945
0
LINE
8
Layer 1
10
117.616203
20
192.258945
11
117.538855
21
189.529753
0
LINE
8
Layer 1
10
117.538855
20
189.529753
11
117.800160
21
186.975132
0
LINE
8
Layer 1
10
117.800160
20
186.975132
11
118.389305
21
184.577699
0
LINE
8
Layer 1
10
118.389305
20
184.577699
11
119.295473
21
182.320071
0
LINE
8
Layer 1
10
119.295473
20
182.320071
11
120.507850
21
180.184865
0
LINE
8
Layer 1
10
120.507850
20
180.184865
11
122.015620
21
178.154699
0
LINE
8
Layer 1
10
122.015620
20
178.154699
11
123.807970
21
176.212190
0
LINE
8
Layer 1
10
123.807970
20
176.212190
11
122.885279
21
179.433279
0
LINE
8
Layer 1
10
122.885279
20
179.433279
11
122.208334
21
182.021168
0
LINE
8
Layer 1
10
122.208334
20
182.021168
11
122.081608
21
183.054543
0
LINE
8
Layer 1
10
122.081608
20
183.054543
11
122.159828
21
183.901877
0
LINE
8
Layer 1
10
122.159828
20
183.901877
11
122.490831
21
184.553922
0
LINE
8
Layer 1
10
122.490831
20
184.553922
11
123.122453
21
185.001430
0
LINE
8
Layer 1
10
123.122453
20
185.001430
11
124.304232
21
185.680981
0
LINE
8
Layer 1
10
124.304232
20
185.680981
11
125.445170
21
185.902471
0
LINE
8
Layer 1
10
125.445170
20
185.902471
11
126.545779
21
185.708426
0
LINE
8
Layer 1
10
126.545779
20
185.708426
11
127.606573
21
185.141375
0
LINE
8
Layer 1
10
127.606573
20
185.141375
11
128.628063
21
184.243847
0
LINE
8
Layer 1
10
128.628063
20
184.243847
11
129.610761
21
183.058370
0
LINE
8
Layer 1
10
129.610761
20
183.058370
11
131.461833
21
179.993680
0
LINE
8
Layer 1
10
131.461833
20
179.993680
11
131.325738
21
182.984752
0
LINE
8
Layer 1
10
131.325738
20
182.984752
11
130.749682
21
185.632834
0
LINE
8
Layer 1
10
130.749682
20
185.632834
11
129.733465
21
187.953309
0
LINE
8
Layer 1
10
129.733465
20
187.953309
11
128.276889
21
189.961564
0
LINE
8
Layer 1
10
128.276889
20
189.961564
11
126.379757
21
191.672983
0
LINE
8
Layer 1
10
126.379757
20
191.672983
11
124.041869
21
193.102952
0
LINE
8
Layer 1
10
124.041869
20
193.102952
11
121.263027
21
194.266856
0
LINE
8
Layer 1
10
121.263027
20
194.266856
11
118.043033
21
195.180080
0
LINE
8
Layer 1
10
118.043033
20
195.180080
11
118.043020
21
195.180090
0
LINE
8
Layer 1
10
161.876020
20
152.494590
11
160.905134
21
152.402325
0
LINE
8
Layer 1
10
160.905134
20
152.402325
11
160.000604
21
152.137733
0
LINE
8
Layer 1
10
160.000604
20
152.137733
11
159.181878
21
151.719122
0
LINE
8
Layer 1
10
159.181878
20
151.719122
11
158.468402
21
151.164795
0
LINE
8
Layer 1
10
158.468402
20
151.164795
11
157.879625
21
150.493060
0
LINE
8
Layer 1
10
157.879625
20
150.493060
11
157.434992
21
149.722222
0
LINE
8
Layer 1
10
157.434992
20
149.722222
11
157.153952
21
148.870586
0
LINE
8
Layer 1
10
157.153952
20
148.870586
11
157.055950
21
147.956460
0
LINE
8
Layer 1
10
157.055950
20
147.956460
11
157.153951
21
147.042426
0
LINE
8
Layer 1
10
157.153951
20
147.042426
11
157.434991
21
146.190860
0
LINE
8
Layer 1
10
157.434991
20
146.190860
11
157.879622
21
145.420072
0
LINE
8
Layer 1
10
157.879622
20
145.420072
11
158.468399
21
144.748370
0
LINE
8
Layer 1
10
158.468399
20
144.748370
11
159.181873
21
144.194064
0
LINE
8
Layer 1
10
159.181873
20
144.194064
11
160.000600
21
143.775462
0
LINE
8
Layer 1
10
160.000600
20
143.775462
11
160.905131
21
143.510875
0
LINE
8
Layer 1
10
160.905131
20
143.510875
11
161.876020
21
143.418610
0
LINE
8
Layer 1
10
161.876020
20
143.418610
11
162.846990
21
143.510875
0
LINE
8
Layer 1
10
162.846990
20
143.510875
11
163.751559
21
143.775462
0
LINE
8
Layer 1
10
163.751559
20
143.775462
11
164.570290
21
144.194064
0
LINE
8
Layer 1
10
164.570290
20
144.194064
11
165.283746
21
144.748370
0
LINE
8
Layer 1
10
165.283746
20
144.748370
11
165.872491
21
145.420072
0
LINE
8
Layer 1
10
165.872491
20
145.420072
11
166.317088
21
146.190860
0
LINE
8
Layer 1
10
166.317088
20
146.190860
11
166.598100
21
147.042426
0
LINE
8
Layer 1
10
166.598100
20
147.042426
11
166.696090
21
147.956460
0
LINE
8
Layer 1
10
166.696090
20
147.956460
11
166.598100
21
148.870586
0
LINE
8
Layer 1
10
166.598100
20
148.870586
11
166.317088
21
149.722222
0
LINE
8
Layer 1
10
166.317088
20
149.722222
11
165.872491
21
150.493060
0
LINE
8
Layer 1
10
165.872491
20
150.493060
11
165.283746
21
151.164795
0
LINE
8
Layer 1
10
165.283746
20
151.164795
11
164.570290
21
151.719122
0
LINE
8
Layer 1
10
164.570290
20
151.719122
11
163.751559
21
152.137733
0
LINE
8
Layer 1
10
163.751559
20
152.137733
11
162.846990
21
152.402325
0
LINE
8
Layer 1
10
162.846990
20
152.402325
11
161.876020
21
152.494590
0
LINE
8
Layer 1
10
161.876020
20
152.494590
11
161.876020
21
152.494590
0
LINE
8
Layer 1
10
101.610920
20
137.876590
11
100.855115
21
138.706568
0
LINE
8
Layer 1
10
100.855115
20
138.706568
11
100.016671
21
139.394071
0
LINE
8
Layer 1
10
100.016671
20
139.394071
11
99.098940
21
139.940553
0
LINE
8
Layer 1
10
99.098940
20
139.940553
11
98.105273
21
140.347465
0
LINE
8
Layer 1
10
98.105273
20
140.347465
11
95.903539
21
140.748390
0
LINE
8
Layer 1
10
95.903539
20
140.748390
11
93.438284
21
140.608464
0
LINE
8
Layer 1
10
93.438284
20
140.608464
11
90.736320
21
139.939306
0
LINE
8
Layer 1
10
90.736320
20
139.939306
11
87.824463
21
138.752533
0
LINE
8
Layer 1
10
87.824463
20
138.752533
11
84.729525
21
137.059765
0
LINE
8
Layer 1
10
84.729525
20
137.059765
11
81.478320
21
134.872620
0
LINE
8
Layer 1
10
81.478320
20
134.872620
11
83.563139
21
132.542147
0
LINE
8
Layer 1
10
83.563139
20
132.542147
11
85.808346
21
130.607334
0
LINE
8
Layer 1
10
85.808346
20
130.607334
11
88.179860
21
129.099458
0
LINE
8
Layer 1
10
88.179860
20
129.099458
11
90.643596
21
128.049798
0
LINE
8
Layer 1
10
90.643596
20
128.049798
11
93.165473
21
127.489629
0
LINE
8
Layer 1
10
93.165473
20
127.489629
11
95.711408
21
127.450230
0
LINE
8
Layer 1
10
95.711408
20
127.450230
11
98.247318
21
127.962878
0
LINE
8
Layer 1
10
98.247318
20
127.962878
11
100.739120
21
129.058850
0
LINE
8
Layer 1
10
100.739120
20
129.058850
11
97.761040
21
130.429584
0
LINE
8
Layer 1
10
97.761040
20
130.429584
11
95.965936
21
131.431066
0
LINE
8
Layer 1
10
95.965936
20
131.431066
11
95.445747
21
131.912367
0
LINE
8
Layer 1
10
95.445747
20
131.912367
11
95.141799
21
132.444190
0
LINE
8
Layer 1
10
95.141799
20
132.444190
11
95.027590
21
133.074147
0
LINE
8
Layer 1
10
95.027590
20
133.074147
11
95.076620
21
133.849850
0
LINE
8
Layer 1
10
95.076620
20
133.849850
11
94.996165
21
135.102382
0
LINE
8
Layer 1
10
94.996165
20
135.102382
11
95.178997
21
136.093752
0
LINE
8
Layer 1
10
95.178997
20
136.093752
11
95.621649
21
136.847513
0
LINE
8
Layer 1
10
95.621649
20
136.847513
11
96.320656
21
137.387220
0
LINE
8
Layer 1
10
96.320656
20
137.387220
11
97.272552
21
137.736427
0
LINE
8
Layer 1
10
97.272552
20
137.736427
11
98.473870
21
137.918688
0
LINE
8
Layer 1
10
98.473870
20
137.918688
11
101.610910
21
137.876590
0
LINE
8
Layer 1
10
101.610910
20
137.876590
11
101.610920
21
137.876590
0
LINE
8
Layer 1
10
162.861520
20
66.266190
11
164.435478
21
64.055555
0
LINE
8
Layer 1
10
164.435478
20
64.055555
11
166.122817
21
62.140575
0
LINE
8
Layer 1
10
166.122817
20
62.140575
11
167.919599
21
60.510994
0
LINE
8
Layer 1
10
167.919599
20
60.510994
11
169.821890
21
59.156558
0
LINE
8
Layer 1
10
169.821890
20
59.156558
11
171.825753
21
58.067008
0
LINE
8
Layer 1
10
171.825753
20
58.067008
11
173.927253
21
57.232091
0
LINE
8
Layer 1
10
173.927253
20
57.232091
11
176.122454
21
56.641550
0
LINE
8
Layer 1
10
176.122454
20
56.641550
11
178.407420
21
56.285130
0
LINE
8
Layer 1
10
178.407420
20
56.285130
11
177.558228
21
59.617317
0
LINE
8
Layer 1
10
177.558228
20
59.617317
11
176.458034
21
62.396468
0
LINE
8
Layer 1
10
176.458034
20
62.396468
11
175.076045
21
64.601309
0
LINE
8
Layer 1
10
175.076045
20
64.601309
11
174.269756
21
65.481714
0
LINE
8
Layer 1
10
174.269756
20
65.481714
11
173.381473
21
66.210563
0
LINE
8
Layer 1
10
173.381473
20
66.210563
11
172.407345
21
66.785195
0
LINE
8
Layer 1
10
172.407345
20
66.785195
11
171.343524
21
67.202953
0
LINE
8
Layer 1
10
171.343524
20
67.202953
11
170.186162
21
67.461176
0
LINE
8
Layer 1
10
170.186162
20
67.461176
11
168.931410
21
67.557205
0
LINE
8
Layer 1
10
168.931410
20
67.557205
11
167.575418
21
67.488381
0
LINE
8
Layer 1
10
167.575418
20
67.488381
11
166.114339
21
67.252043
0
LINE
8
Layer 1
10
166.114339
20
67.252043
11
162.861520
21
66.266190
0
LINE
8
Layer 1
10
162.861520
20
66.266190
11
162.861520
21
66.266190
0
LINE
8
Layer 1
10
186.169120
20
92.765390
11
186.748738
21
91.051301
0
LINE
8
Layer 1
10
186.748738
20
91.051301
11
187.082102
21
89.584843
0
LINE
8
Layer 1
10
187.082102
20
89.584843
11
187.173622
21
88.330462
0
LINE
8
Layer 1
10
187.173622
20
88.330462
11
187.027713
21
87.252605
0
LINE
8
Layer 1
10
187.027713
20
87.252605
11
186.648784
21
86.315718
0
LINE
8
Layer 1
10
186.648784
20
86.315718
11
186.041250
21
85.484247
0
LINE
8
Layer 1
10
186.041250
20
85.484247
11
185.209521
21
84.722639
0
LINE
8
Layer 1
10
185.209521
20
84.722639
11
184.158010
21
83.995340
0
LINE
8
Layer 1
10
184.158010
20
83.995340
11
181.891959
21
84.458621
0
LINE
8
Layer 1
10
181.891959
20
84.458621
11
179.957698
21
85.292610
0
LINE
8
Layer 1
10
179.957698
20
85.292610
11
178.287597
21
86.421714
0
LINE
8
Layer 1
10
178.287597
20
86.421714
11
176.814030
21
87.770340
0
LINE
8
Layer 1
10
176.814030
20
87.770340
11
178.949116
21
84.265264
0
LINE
8
Layer 1
10
178.949116
20
84.265264
11
180.311346
21
82.394781
0
LINE
8
Layer 1
10
180.311346
20
82.394781
11
181.909303
21
80.510925
0
LINE
8
Layer 1
10
181.909303
20
80.510925
11
183.772438
21
78.662640
0
LINE
8
Layer 1
10
183.772438
20
78.662640
11
185.930203
21
76.898869
0
LINE
8
Layer 1
10
185.930203
20
76.898869
11
188.412050
21
75.268554
0
LINE
8
Layer 1
10
188.412050
20
75.268554
11
191.247430
21
73.820640
0
LINE
8
Layer 1
10
191.247430
20
73.820640
11
191.370167
21
77.610563
0
LINE
8
Layer 1
10
191.370167
20
77.610563
11
191.288414
21
81.016698
0
LINE
8
Layer 1
10
191.288414
20
81.016698
11
190.996199
21
84.027819
0
LINE
8
Layer 1
10
190.996199
20
84.027819
11
190.487548
21
86.632703
0
LINE
8
Layer 1
10
190.487548
20
86.632703
11
189.756488
21
88.820121
0
LINE
8
Layer 1
10
189.756488
20
88.820121
11
188.797048
21
90.578851
0
LINE
8
Layer 1
10
188.797048
20
90.578851
11
187.603252
21
91.897666
0
LINE
8
Layer 1
10
187.603252
20
91.897666
11
186.169130
21
92.765340
0
LINE
8
Layer 1
10
186.169130
20
92.765340
11
186.169120
21
92.765390
0
LINE
8
Layer 1
10
170.174520
20
140.550690
11
169.203634
21
140.458425
0
LINE
8
Layer 1
10
169.203634
20
140.458425
11
168.299104
21
140.193838
0
LINE
8
Layer 1
10
168.299104
20
140.193838
11
167.480378
21
139.775236
0
LINE
8
Layer 1
10
167.480378
20
139.775236
11
166.766903
21
139.220930
0
LINE
8
Layer 1
10
166.766903
20
139.220930
11
166.178125
21
138.549228
0
LINE
8
Layer 1
10
166.178125
20
138.549228
11
165.733493
21
137.778440
0
LINE
8
Layer 1
10
165.733493
20
137.778440
11
165.452452
21
136.926874
0
LINE
8
Layer 1
10
165.452452
20
136.926874
11
165.354450
21
136.012840
0
LINE
8
Layer 1
10
165.354450
20
136.012840
11
165.452451
21
135.098714
0
LINE
8
Layer 1
10
165.452451
20
135.098714
11
165.733491
21
134.247078
0
LINE
8
Layer 1
10
165.733491
20
134.247078
11
166.178122
21
133.476240
0
LINE
8
Layer 1
10
166.178122
20
133.476240
11
166.766899
21
132.804505
0
LINE
8
Layer 1
10
166.766899
20
132.804505
11
167.480373
21
132.250178
0
LINE
8
Layer 1
10
167.480373
20
132.250178
11
168.299100
21
131.831567
0
LINE
8
Layer 1
10
168.299100
20
131.831567
11
169.203631
21
131.566975
0
LINE
8
Layer 1
10
169.203631
20
131.566975
11
170.174520
21
131.474710
0
LINE
8
Layer 1
10
170.174520
20
131.474710
11
171.145490
21
131.566975
0
LINE
8
Layer 1
10
171.145490
20
131.566975
11
172.050059
21
131.831567
0
LINE
8
Layer 1
10
172.050059
20
131.831567
11
172.868790
21
132.250178
0
LINE
8
Layer 1
10
172.868790
20
132.250178
11
173.582246
21
132.804505
0
LINE
8
Layer 1
10
173.582246
20
132.804505
11
174.170991
21
133.476240
0
LINE
8
Layer 1
10
174.170991
20
133.476240
11
174.615588
21
134.247078
0
LINE
8
Layer 1
10
174.615588
20
134.247078
11
174.896600
21
135.098714
0
LINE
8
Layer 1
10
174.896600
20
135.098714
11
174.994590
21
136.012840
0
LINE
8
Layer 1
10
174.994590
20
136.012840
11
174.896600
21
136.926874
0
LINE
8
Layer 1
10
174.896600
20
136.926874
11
174.615588
21
137.778440
0
LINE
8
Layer 1
10
174.615588
20
137.778440
11
174.170991
21
138.549228
0
LINE
8
Layer 1
10
174.170991
20
138.549228
11
173.582246
21
139.220930
0
LINE
8
Layer 1
10
173.582246
20
139.220930
11
172.868790
21
139.775236
0
LINE
8
Layer 1
10
172.868790
20
139.775236
11
172.050059
21
140.193838
0
LINE
8
Layer 1
10
172.050059
20
140.193838
11
171.145490
21
140.458425
0
LINE
8
Layer 1
10
171.145490
20
140.458425
11
170.174520
21
140.550690
0
LINE
8
Layer 1
10
170.174520
20
140.550690
11
170.174520
21
140.550690
0
LINE
8
Layer 1
10
89.571620
20
158.674390
11
88.871453
21
159.702677
0
LINE
8
Layer 1
10
88.871453
20
159.702677
11
88.107727
21
160.514946
0
LINE
8
Layer 1
10
88.107727
20
160.514946
11
87.283138
21
161.120353
0
LINE
8
Layer 1
10
87.283138
20
161.120353
11
86.400379
21
161.528055
0
LINE
8
Layer 1
10
86.400379
20
161.528055
11
85.462143
21
161.747206
0
LINE
8
Layer 1
10
85.462143
20
161.747206
11
84.471125
21
161.786962
0
LINE
8
Layer 1
10
84.471125
20
161.786962
11
83.430018
21
161.656481
0
LINE
8
Layer 1
10
83.430018
20
161.656481
11
82.341515
21
161.364916
0
LINE
8
Layer 1
10
82.341515
20
161.364916
11
80.033099
21
160.335162
0
LINE
8
Layer 1
10
80.033099
20
160.335162
11
77.567428
21
158.770947
0
LINE
8
Layer 1
10
77.567428
20
158.770947
11
74.966052
21
156.745518
0
LINE
8
Layer 1
10
74.966052
20
156.745518
11
72.250520
21
154.332120
0
LINE
8
Layer 1
10
72.250520
20
154.332120
11
75.434395
21
153.657749
0
LINE
8
Layer 1
10
75.434395
20
153.657749
11
78.361811
21
153.366069
0
LINE
8
Layer 1
10
78.361811
20
153.366069
11
81.015462
21
153.439613
0
LINE
8
Layer 1
10
81.015462
20
153.439613
11
83.378045
21
153.860915
0
LINE
8
Layer 1
10
83.378045
20
153.860915
11
85.432256
21
154.612509
0
LINE
8
Layer 1
10
85.432256
20
154.612509
11
87.160792
21
155.676931
0
LINE
8
Layer 1
10
87.160792
20
155.676931
11
88.546348
21
157.036713
0
LINE
8
Layer 1
10
88.546348
20
157.036713
11
89.571620
21
158.674390
0
LINE
8
Layer 1
10
89.571620
20
158.674390
11
89.571620
21
158.674390
0
LINE
8
Layer 1
10
154.918420
20
242.289990
11
154.168031
21
240.990636
0
LINE
8
Layer 1
10
154.168031
20
240.990636
11
152.455644
21
237.422829
0
LINE
8
Layer 1
10
152.455644
20
237.422829
11
151.491254
21
234.943063
0
LINE
8
Layer 1
10
151.491254
20
234.943063
11
150.589430
21
232.081952
0
LINE
8
Layer 1
10
150.589430
20
232.081952
11
149.851191
21
228.901420
0
LINE
8
Layer 1
10
149.851191
20
228.901420
11
149.377560
21
225.463390
0
LINE
8
Layer 1
10
149.377560
20
225.463390
11
149.293182
21
222.652168
0
LINE
8
Layer 1
10
149.293182
20
222.652168
11
149.495700
21
219.928583
0
LINE
8
Layer 1
10
149.495700
20
219.928583
11
149.930728
21
217.354793
0
LINE
8
Layer 1
10
149.930728
20
217.354793
11
150.543876
21
214.992956
0
LINE
8
Layer 1
10
150.543876
20
214.992956
11
151.280757
21
212.905230
0
LINE
8
Layer 1
10
151.280757
20
212.905230
11
152.086981
21
211.153771
0
LINE
8
Layer 1
10
152.086981
20
211.153771
11
152.908162
21
209.800739
0
LINE
8
Layer 1
10
152.908162
20
209.800739
11
153.689910
21
208.908290
0
LINE
8
Layer 1
10
153.689910
20
208.908290
11
154.749806
21
209.883584
0
LINE
8
Layer 1
10
154.749806
20
209.883584
11
155.657518
21
211.168891
0
LINE
8
Layer 1
10
155.657518
20
211.168891
11
156.417568
21
212.729525
0
LINE
8
Layer 1
10
156.417568
20
212.729525
11
157.034478
21
214.530799
0
LINE
8
Layer 1
10
157.034478
20
214.530799
11
157.512769
21
216.538027
0
LINE
8
Layer 1
10
157.512769
20
216.538027
11
157.856964
21
218.716522
0
LINE
8
Layer 1
10
157.856964
20
218.716522
11
158.161153
21
223.448565
0
LINE
8
Layer 1
10
158.161153
20
223.448565
11
157.983217
21
228.449436
0
LINE
8
Layer 1
10
157.983217
20
228.449436
11
157.359334
21
233.441643
0
LINE
8
Layer 1
10
157.359334
20
233.441643
11
156.325676
21
238.147692
0
LINE
8
Layer 1
10
156.325676
20
238.147692
11
154.918420
21
242.290090
0
LINE
8
Layer 1
10
154.918420
20
242.290090
11
154.918420
21
242.289990
0
LINE
8
Layer 1
10
130.630920
20
119.200990
11
128.478091
21
119.847853
0
LINE
8
Layer 1
10
128.478091
20
119.847853
11
126.352547
21
120.242116
0
LINE
8
Layer 1
10
126.352547
20
120.242116
11
124.253396
21
120.392037
0
LINE
8
Layer 1
10
124.253396
20
120.392037
11
122.179747
21
120.305874
0
LINE
8
Layer 1
10
122.179747
20
120.305874
11
120.130707
21
119.991887
0
LINE
8
Layer 1
10
120.130707
20
119.991887
11
118.105386
21
119.458335
0
LINE
8
Layer 1
10
118.105386
20
119.458335
11
116.102892
21
118.713475
0
LINE
8
Layer 1
10
116.102892
20
118.713475
11
114.122333
21
117.765566
0
LINE
8
Layer 1
10
114.122333
20
117.765566
11
112.162817
21
116.622868
0
LINE
8
Layer 1
10
112.162817
20
116.622868
11
110.223452
21
115.293638
0
LINE
8
Layer 1
10
110.223452
20
115.293638
11
106.401612
21
112.108620
0
LINE
8
Layer 1
10
106.401612
20
112.108620
11
102.649679
21
108.276581
0
LINE
8
Layer 1
10
102.649679
20
108.276581
11
98.960520
21
103.863590
0
LINE
8
Layer 1
10
98.960520
20
103.863590
11
103.504133
21
103.729950
0
LINE
8
Layer 1
10
103.504133
20
103.729950
11
107.884193
21
104.169873
0
LINE
8
Layer 1
10
107.884193
20
104.169873
11
110.012339
21
104.606856
0
LINE
8
Layer 1
10
110.012339
20
104.606856
11
112.098933
21
105.189552
0
LINE
8
Layer 1
10
112.098933
20
105.189552
11
114.143754
21
105.918734
0
LINE
8
Layer 1
10
114.143754
20
105.918734
11
116.146583
21
106.795178
0
LINE
8
Layer 1
10
116.146583
20
106.795178
11
118.107196
21
107.819655
0
LINE
8
Layer 1
10
118.107196
20
107.819655
11
120.025374
21
108.992942
0
LINE
8
Layer 1
10
120.025374
20
108.992942
11
123.733540
21
111.789038
0
LINE
8
Layer 1
10
123.733540
20
111.789038
11
127.269312
21
115.189656
0
LINE
8
Layer 1
10
127.269312
20
115.189656
11
130.630920
21
119.200990
0
LINE
8
Layer 1
10
130.630920
20
119.200990
11
130.630920
21
119.200990
0
LINE
8
Layer 1
10
249.920920
20
188.233590
11
247.117108
21
188.248292
0
LINE
8
Layer 1
10
247.117108
20
188.248292
11
244.461945
21
188.111709
0
LINE
8
Layer 1
10
244.461945
20
188.111709
11
241.951301
21
187.828710
0
LINE
8
Layer 1
10
241.951301
20
187.828710
11
239.581048
21
187.404167
0
LINE
8
Layer 1
10
239.581048
20
187.404167
11
237.347057
21
186.842951
0
LINE
8
Layer 1
10
237.347057
20
186.842951
11
235.245200
21
186.149932
0
LINE
8
Layer 1
10
235.245200
20
186.149932
11
233.271347
21
185.329981
0
LINE
8
Layer 1
10
233.271347
20
185.329981
11
231.421370
21
184.387970
0
LINE
8
Layer 1
10
231.421370
20
184.387970
11
229.691140
21
183.328768
0
LINE
8
Layer 1
10
229.691140
20
183.328768
11
228.076527
21
182.157247
0
LINE
8
Layer 1
10
228.076527
20
182.157247
11
226.573404
21
180.878278
0
LINE
8
Layer 1
10
226.573404
20
180.878278
11
225.177642
21
179.496732
0
LINE
8
Layer 1
10
225.177642
20
179.496732
11
222.691683
21
176.445391
0
LINE
8
Layer 1
10
222.691683
20
176.445391
11
220.585620
21
173.042190
0
LINE
8
Layer 1
10
220.585620
20
173.042190
11
222.285726
21
172.890736
0
LINE
8
Layer 1
10
222.285726
20
172.890736
11
224.001483
21
172.899304
0
LINE
8
Layer 1
10
224.001483
20
172.899304
11
225.733346
21
173.065059
0
LINE
8
Layer 1
10
225.733346
20
173.065059
11
227.481773
21
173.385164
0
LINE
8
Layer 1
10
227.481773
20
173.385164
11
231.030140
21
174.477083
0
LINE
8
Layer 1
10
231.030140
20
174.477083
11
234.650236
21
176.152376
0
LINE
8
Layer 1
10
234.650236
20
176.152376
11
238.345712
21
178.388359
0
LINE
8
Layer 1
10
238.345712
20
178.388359
11
242.120217
21
181.162346
0
LINE
8
Layer 1
10
242.120217
20
181.162346
11
245.977403
21
184.451651
0
LINE
8
Layer 1
10
245.977403
20
184.451651
11
249.920920
21
188.233590
0
LINE
8
Layer 1
10
249.920920
20
188.233590
11
249.920920
21
188.233590
0
LINE
8
Layer 1
10
147.118920
20
125.986990
11
146.148034
21
125.894737
0
LINE
8
Layer 1
10
146.148034
20
125.894737
11
145.243504
21
125.630177
0
LINE
8
Layer 1
10
145.243504
20
125.630177
11
144.424778
21
125.211610
0
LINE
8
Layer 1
10
144.424778
20
125.211610
11
143.711303
21
124.657335
0
LINE
8
Layer 1
10
143.711303
20
124.657335
11
143.122525
21
123.985651
0
LINE
8
Layer 1
10
143.122525
20
123.985651
11
142.677893
21
123.214858
0
LINE
8
Layer 1
10
142.677893
20
123.214858
11
142.396852
21
122.363254
0
LINE
8
Layer 1
10
142.396852
20
122.363254
11
142.298850
21
121.449140
0
LINE
8
Layer 1
10
142.298850
20
121.449140
11
142.396851
21
120.535106
0
LINE
8
Layer 1
10
142.396851
20
120.535106
11
142.677891
21
119.683540
0
LINE
8
Layer 1
10
142.677891
20
119.683540
11
143.122522
21
118.912752
0
LINE
8
Layer 1
10
143.122522
20
118.912752
11
143.711299
21
118.241050
0
LINE
8
Layer 1
10
143.711299
20
118.241050
11
144.424773
21
117.686744
0
LINE
8
Layer 1
10
144.424773
20
117.686744
11
145.243500
21
117.268142
0
LINE
8
Layer 1
10
145.243500
20
117.268142
11
146.148031
21
117.003555
0
LINE
8
Layer 1
10
146.148031
20
117.003555
11
147.118920
21
116.911290
0
LINE
8
Layer 1
10
147.118920
20
116.911290
11
148.089806
21
117.003555
0
LINE
8
Layer 1
10
148.089806
20
117.003555
11
148.994336
21
117.268142
0
LINE
8
Layer 1
10
148.994336
20
117.268142
11
149.813062
21
117.686744
0
LINE
8
Layer 1
10
149.813062
20
117.686744
11
150.526537
21
118.241050
0
LINE
8
Layer 1
10
150.526537
20
118.241050
11
151.115315
21
118.912752
0
LINE
8
Layer 1
10
151.115315
20
118.912752
11
151.559947
21
119.683540
0
LINE
8
Layer 1
10
151.559947
20
119.683540
11
151.840988
21
120.535106
0
LINE
8
Layer 1
10
151.840988
20
120.535106
11
151.938990
21
121.449140
0
LINE
8
Layer 1
10
151.938990
20
121.449140
11
151.840989
21
122.363254
0
LINE
8
Layer 1
10
151.840989
20
122.363254
11
151.559949
21
123.214858
0
LINE
8
Layer 1
10
151.559949
20
123.214858
11
151.115318
21
123.985651
0
LINE
8
Layer 1
10
151.115318
20
123.985651
11
150.526541
21
124.657335
0
LINE
8
Layer 1
10
150.526541
20
124.657335
11
149.813067
21
125.211610
0
LINE
8
Layer 1
10
149.813067
20
125.211610
11
148.994340
21
125.630177
0
LINE
8
Layer 1
10
148.994340
20
125.630177
11
148.089809
21
125.894737
0
LINE
8
Layer 1
10
148.089809
20
125.894737
11
147.118920
21
125.986990
0
LINE
8
Layer 1
10
147.118920
20
125.986990
11
147.118920
21
125.986990
0
LINE
8
Layer 1
10
211.015420
20
94.070790
11
209.891904
21
91.478503
0
LINE
8
Layer 1
10
209.891904
20
91.478503
11
209.232741
21
89.019047
0
LINE
8
Layer 1
10
209.232741
20
89.019047
11
209.037519
21
86.692298
0
LINE
8
Layer 1
10
209.037519
20
86.692298
11
209.305824
21
84.498135
0
LINE
8
Layer 1
10
209.305824
20
84.498135
11
210.037242
21
82.436435
0
LINE
8
Layer 1
10
210.037242
20
82.436435
11
211.231360
21
80.507076
0
LINE
8
Layer 1
10
211.231360
20
80.507076
11
212.887763
21
78.709935
0
LINE
8
Layer 1
10
212.887763
20
78.709935
11
215.006040
21
77.044890
0
LINE
8
Layer 1
10
215.006040
20
77.044890
11
215.461869
21
80.275449
0
LINE
8
Layer 1
10
215.461869
20
80.275449
11
215.697591
21
83.251853
0
LINE
8
Layer 1
10
215.697591
20
83.251853
11
215.686880
21
85.943705
0
LINE
8
Layer 1
10
215.686880
20
85.943705
11
215.403410
21
88.320608
0
LINE
8
Layer 1
10
215.403410
20
88.320608
11
214.820854
21
90.352164
0
LINE
8
Layer 1
10
214.820854
20
90.352164
11
213.912888
21
92.007978
0
LINE
8
Layer 1
10
213.912888
20
92.007978
11
212.653185
21
93.257652
0
LINE
8
Layer 1
10
212.653185
20
93.257652
11
211.015420
21
94.070790
0
LINE
8
Layer 1
10
211.015420
20
94.070790
11
211.015420
21
94.070790
0
LINE
8
Layer 1
10
249.496720
20
82.538390
11
246.798120
21
87.087381
0
LINE
8
Layer 1
10
246.798120
20
87.087381
11
245.371051
21
89.076289
0
LINE
8
Layer 1
10
245.371051
20
89.076289
11
243.892126
21
90.874767
0
LINE
8
Layer 1
10
243.892126
20
90.874767
11
242.361336
21
92.482782
0
LINE
8
Layer 1
10
242.361336
20
92.482782
11
240.778673
21
93.900305
0
LINE
8
Layer 1
10
240.778673
20
93.900305
11
239.144129
21
95.127305
0
LINE
8
Layer 1
10
239.144129
20
95.127305
11
237.457695
21
96.163753
0
LINE
8
Layer 1
10
237.457695
20
96.163753
11
235.719364
21
97.009617
0
LINE
8
Layer 1
10
235.719364
20
97.009617
11
233.929126
21
97.664868
0
LINE
8
Layer 1
10
233.929126
20
97.664868
11
232.086975
21
98.129474
0
LINE
8
Layer 1
10
232.086975
20
98.129474
11
230.192901
21
98.403407
0
LINE
8
Layer 1
10
230.192901
20
98.403407
11
228.246897
21
98.486635
0
LINE
8
Layer 1
10
228.246897
20
98.486635
11
226.248954
21
98.379129
0
LINE
8
Layer 1
10
226.248954
20
98.379129
11
224.199065
21
98.080857
0
LINE
8
Layer 1
10
224.199065
20
98.080857
11
222.097220
21
97.591790
0
LINE
8
Layer 1
10
222.097220
20
97.591790
11
223.194245
21
95.725553
0
LINE
8
Layer 1
10
223.194245
20
95.725553
11
224.384334
21
93.999243
0
LINE
8
Layer 1
10
224.384334
20
93.999243
11
225.665128
21
92.409314
0
LINE
8
Layer 1
10
225.665128
20
92.409314
11
227.034270
21
90.952223
0
LINE
8
Layer 1
10
227.034270
20
90.952223
11
228.489400
21
89.624425
0
LINE
8
Layer 1
10
228.489400
20
89.624425
11
230.028162
21
88.422377
0
LINE
8
Layer 1
10
230.028162
20
88.422377
11
233.347148
21
86.381353
0
LINE
8
Layer 1
10
233.347148
20
86.381353
11
236.972360
21
84.800795
0
LINE
8
Layer 1
10
236.972360
20
84.800795
11
240.884937
21
83.652351
0
LINE
8
Layer 1
10
240.884937
20
83.652351
11
245.066011
21
82.907667
0
LINE
8
Layer 1
10
245.066011
20
82.907667
11
249.496720
21
82.538390
0
LINE
8
Layer 1
10
249.496720
20
82.538390
11
249.496720
21
82.538390
0
LINE
8
Layer 1
10
86.605720
20
171.259990
11
85.527376
21
173.583901
0
LINE
8
Layer 1
10
85.527376
20
173.583901
11
84.309933
21
175.687488
0
LINE
8
Layer 1
10
84.309933
20
175.687488
11
82.959565
21
177.580527
0
LINE
8
Layer 1
10
82.959565
20
177.580527
11
81.482440
21
179.272796
0
LINE
8
Layer 1
10
81.482440
20
179.272796
11
79.884732
21
180.774071
0
LINE
8
Layer 1
10
79.884732
20
180.774071
11
78.172612
21
182.094127
0
LINE
8
Layer 1
10
78.172612
20
182.094127
11
76.352250
21
183.242741
0
LINE
8
Layer 1
10
76.352250
20
183.242741
11
74.429819
21
184.229690
0
LINE
8
Layer 1
10
74.429819
20
184.229690
11
72.411489
21
185.064750
0
LINE
8
Layer 1
10
72.411489
20
185.064750
11
70.303432
21
185.757697
0
LINE
8
Layer 1
10
70.303432
20
185.757697
11
65.842823
21
186.756359
0
LINE
8
Layer 1
10
65.842823
20
186.756359
11
61.097362
21
187.303886
0
LINE
8
Layer 1
10
61.097362
20
187.303886
11
56.116420
21
187.478490
0
LINE
8
Layer 1
10
56.116420
20
187.478490
11
59.416719
21
183.730917
0
LINE
8
Layer 1
10
59.416719
20
183.730917
11
62.827640
21
180.355896
0
LINE
8
Layer 1
10
62.827640
20
180.355896
11
66.366851
21
177.412904
0
LINE
8
Layer 1
10
66.366851
20
177.412904
11
70.052024
21
174.961415
0
LINE
8
Layer 1
10
70.052024
20
174.961415
11
71.954867
21
173.938570
0
LINE
8
Layer 1
10
71.954867
20
173.938570
11
73.900827
21
173.060904
0
LINE
8
Layer 1
10
73.900827
20
173.060904
11
75.892112
21
172.335851
0
LINE
8
Layer 1
10
75.892112
20
172.335851
11
77.930931
21
171.770846
0
LINE
8
Layer 1
10
77.930931
20
171.770846
11
80.019492
21
171.373323
0
LINE
8
Layer 1
10
80.019492
20
171.373323
11
82.160005
21
171.150717
0
LINE
8
Layer 1
10
82.160005
20
171.150717
11
84.354678
21
171.110461
0
LINE
8
Layer 1
10
84.354678
20
171.110461
11
86.605720
21
171.259990
0
LINE
8
Layer 1
10
86.605720
20
171.259990
11
86.605720
21
171.259990
0
LINE
8
Layer 1
10
129.589220
20
146.969990
11
128.238358
21
149.417526
0
LINE
8
Layer 1
10
128.238358
20
149.417526
11
126.786146
21
151.677908
0
LINE
8
Layer 1
10
126.786146
20
151.677908
11
125.233772
21
153.753328
0
LINE
8
Layer 1
10
125.233772
20
153.753328
11
123.582426
21
155.645981
0
LINE
8
Layer 1
10
123.582426
20
155.645981
11
121.833294
21
157.358058
0
LINE
8
Layer 1
10
121.833294
20
157.358058
11
119.987566
21
158.891752
0
LINE
8
Layer 1
10
119.987566
20
158.891752
11
118.046431
21
160.249257
0
LINE
8
Layer 1
10
118.046431
20
160.249257
11
116.011075
21
161.432765
0
LINE
8
Layer 1
10
116.011075
20
161.432765
11
113.882688
21
162.444469
0
LINE
8
Layer 1
10
113.882688
20
162.444469
11
111.662458
21
163.286562
0
LINE
8
Layer 1
10
111.662458
20
163.286562
11
109.351573
21
163.961237
0
LINE
8
Layer 1
10
109.351573
20
163.961237
11
106.951222
21
164.470687
0
LINE
8
Layer 1
10
106.951222
20
164.470687
11
104.462593
21
164.817104
0
LINE
8
Layer 1
10
104.462593
20
164.817104
11
101.886874
21
165.002682
0
LINE
8
Layer 1
10
101.886874
20
165.002682
11
99.225253
21
165.029613
0
LINE
8
Layer 1
10
99.225253
20
165.029613
11
96.478920
21
164.900090
0
LINE
8
Layer 1
10
96.478920
20
164.900090
11
99.316804
21
161.214352
0
LINE
8
Layer 1
10
99.316804
20
161.214352
11
102.507428
21
157.920276
0
LINE
8
Layer 1
10
102.507428
20
157.920276
11
106.060266
21
155.028386
0
LINE
8
Layer 1
10
106.060266
20
155.028386
11
109.984791
21
152.549203
0
LINE
8
Layer 1
10
109.984791
20
152.549203
11
114.290476
21
150.493249
0
LINE
8
Layer 1
10
114.290476
20
150.493249
11
118.986794
21
148.871048
0
LINE
8
Layer 1
10
118.986794
20
148.871048
11
124.083217
21
147.693121
0
LINE
8
Layer 1
10
124.083217
20
147.693121
11
129.589220
21
146.969990
0
LINE
8
Layer 1
10
129.589220
20
146.969990
11
129.589220
21
146.969990
0
LINE
8
Layer 1
10
236.283220
20
114.857890
11
235.290558
21
115.568446
0
LINE
8
Layer 1
10
235.290558
20
115.568446
11
234.119856
21
116.007669
0
LINE
8
Layer 1
10
234.119856
20
116.007669
11
232.807892
21
116.202135
0
LINE
8
Layer 1
10
232.807892
20
116.202135
11
231.391450
21
116.178418
0
LINE
8
Layer 1
10
231.391450
20
116.178418
11
229.907308
21
115.963093
0
LINE
8
Layer 1
10
229.907308
20
115.963093
11
228.392248
21
115.582735
0
LINE
8
Layer 1
10
228.392248
20
115.582735
11
225.416496
21
114.433220
0
LINE
8
Layer 1
10
225.416496
20
114.433220
11
222.758442
21
112.942472
0
LINE
8
Layer 1
10
222.758442
20
112.942472
11
220.712330
21
111.323089
0
LINE
8
Layer 1
10
220.712330
20
111.323089
11
220.010705
21
110.531598
0
LINE
8
Layer 1
10
220.010705
20
110.531598
11
219.572407
21
109.787672
0
LINE
8
Layer 1
10
219.572407
20
109.787672
11
219.434219
21
109.117888
0
LINE
8
Layer 1
10
219.434219
20
109.117888
11
219.632920
21
108.548820
0
LINE
8
Layer 1
10
219.632920
20
108.548820
11
221.881292
21
108.559198
0
LINE
8
Layer 1
10
221.881292
20
108.559198
11
224.088756
21
108.760111
0
LINE
8
Layer 1
10
224.088756
20
108.760111
11
226.251895
21
109.167472
0
LINE
8
Layer 1
10
226.251895
20
109.167472
11
228.367296
21
109.797192
0
LINE
8
Layer 1
10
228.367296
20
109.797192
11
230.431544
21
110.665182
0
LINE
8
Layer 1
10
230.431544
20
110.665182
11
232.441224
21
111.787355
0
LINE
8
Layer 1
10
232.441224
20
111.787355
11
234.392921
21
113.179620
0
LINE
8
Layer 1
10
234.392921
20
113.179620
11
236.283220
21
114.857890
0
LINE
8
Layer 1
10
236.283220
20
114.857890
11
236.283220
21
114.857890
0
LINE
8
Layer 1
10
154.463720
20
58.677690
11
153.040531
21
57.213516
0
LINE
8
Layer 1
10
153.040531
20
57.213516
11
151.845659
21
55.609066
0
LINE
8
Layer 1
10
151.845659
20
55.609066
11
150.872000
21
53.882752
0
LINE
8
Layer 1
10
150.872000
20
53.882752
11
150.112450
21
52.052986
0
LINE
8
Layer 1
10
150.112450
20
52.052986
11
149.559906
21
50.138182
0
LINE
8
Layer 1
10
149.559906
20
50.138182
11
149.207266
21
48.156753
0
LINE
8
Layer 1
10
149.207266
20
48.156753
11
149.047426
21
46.127112
0
LINE
8
Layer 1
10
149.047426
20
46.127112
11
149.073283
21
44.067670
0
LINE
8
Layer 1
10
149.073283
20
44.067670
11
149.277733
21
41.996842
0
LINE
8
Layer 1
10
149.277733
20
41.996842
11
149.653673
21
39.933039
0
LINE
8
Layer 1
10
149.653673
20
39.933039
11
150.194001
21
37.894676
0
LINE
8
Layer 1
10
150.194001
20
37.894676
11
150.891612
21
35.900164
0
LINE
8
Layer 1
10
150.891612
20
35.900164
11
151.739404
21
33.967916
0
LINE
8
Layer 1
10
151.739404
20
33.967916
11
152.730273
21
32.116346
0
LINE
8
Layer 1
10
152.730273
20
32.116346
11
153.857117
21
30.363867
0
LINE
8
Layer 1
10
153.857117
20
30.363867
11
155.112831
21
28.728890
0
LINE
8
Layer 1
10
155.112831
20
28.728890
11
156.750030
21
32.841946
0
LINE
8
Layer 1
10
156.750030
20
32.841946
11
158.060277
21
37.050648
0
LINE
8
Layer 1
10
158.060277
20
37.050648
11
158.961571
21
41.254392
0
LINE
8
Layer 1
10
158.961571
20
41.254392
11
159.371912
21
45.352578
0
LINE
8
Layer 1
10
159.371912
20
45.352578
11
159.367350
21
47.330647
0
LINE
8
Layer 1
10
159.367350
20
47.330647
11
159.209298
21
49.244602
0
LINE
8
Layer 1
10
159.209298
20
49.244602
11
158.887508
21
51.081866
0
LINE
8
Layer 1
10
158.887508
20
51.081866
11
158.391729
21
52.829863
0
LINE
8
Layer 1
10
158.391729
20
52.829863
11
157.711711
21
54.476020
0
LINE
8
Layer 1
10
157.711711
20
54.476020
11
156.837203
21
56.007760
0
LINE
8
Layer 1
10
156.837203
20
56.007760
11
155.757956
21
57.412509
0
LINE
8
Layer 1
10
155.757956
20
57.412509
11
154.463720
21
58.677690
0
LINE
8
Layer 1
10
154.463720
20
58.677690
11
154.463720
21
58.677690
0
LINE
8
Layer 1
10
97.626720
20
93.681690
11
95.681114
21
91.579990
0
LINE
8
Layer 1
10
95.681114
20
91.579990
11
94.284667
21
89.398695
0
LINE
8
Layer 1
10
94.284667
20
89.398695
11
93.438375
21
87.137666
0
LINE
8
Layer 1
10
93.438375
20
87.137666
11
93.143233
21
84.796766
0
LINE
8
Layer 1
10
93.143233
20
84.796766
11
93.400237
21
82.375857
0
LINE
8
Layer 1
10
93.400237
20
82.375857
11
94.210382
21
79.874800
0
LINE
8
Layer 1
10
94.210382
20
79.874800
11
95.574663
21
77.293457
0
LINE
8
Layer 1
10
95.574663
20
77.293457
11
97.494076
21
74.631690
0
LINE
8
Layer 1
10
97.494076
20
74.631690
11
99.125776
21
78.049142
0
LINE
8
Layer 1
10
99.125776
20
78.049142
11
100.364719
21
81.214609
0
LINE
8
Layer 1
10
100.364719
20
81.214609
11
101.176551
21
84.106053
0
LINE
8
Layer 1
10
101.176551
20
84.106053
11
101.526922
21
86.701440
0
LINE
8
Layer 1
10
101.526922
20
86.701440
11
101.381476
21
88.978733
0
LINE
8
Layer 1
10
101.381476
20
88.978733
11
101.112088
21
89.991208
0
LINE
8
Layer 1
10
101.112088
20
89.991208
11
100.705863
21
90.915896
0
LINE
8
Layer 1
10
100.705863
20
90.915896
11
100.158508
21
91.750043
0
LINE
8
Layer 1
10
100.158508
20
91.750043
11
99.465728
21
92.490894
0
LINE
8
Layer 1
10
99.465728
20
92.490894
11
98.623230
21
93.135694
0
LINE
8
Layer 1
10
98.623230
20
93.135694
11
97.626720
21
93.681690
0
LINE
8
Layer 1
10
97.626720
20
93.681690
11
97.626720
21
93.681690
0
LINE
8
Layer 1
10
178.181620
20
121.827990
11
179.504872
21
119.778886
0
LINE
8
Layer 1
10
179.504872
20
119.778886
11
180.949976
21
117.841102
0
LINE
8
Layer 1
10
180.949976
20
117.841102
11
182.512651
21
116.017514
0
LINE
8
Layer 1
10
182.512651
20
116.017514
11
184.188616
21
114.310998
0
LINE
8
Layer 1
10
184.188616
20
114.310998
11
185.973589
21
112.724428
0
LINE
8
Layer 1
10
185.973589
20
112.724428
11
187.863288
21
111.260680
0
LINE
8
Layer 1
10
187.863288
20
111.260680
11
189.853433
21
109.922630
0
LINE
8
Layer 1
10
189.853433
20
109.922630
11
191.939741
21
108.713153
0
LINE
8
Layer 1
10
191.939741
20
108.713153
11
194.117932
21
107.635123
0
LINE
8
Layer 1
10
194.117932
20
107.635123
11
196.383723
21
106.691417
0
LINE
8
Layer 1
10
196.383723
20
106.691417
11
198.732833
21
105.884909
0
LINE
8
Layer 1
10
198.732833
20
105.884909
11
201.160981
21
105.218476
0
LINE
8
Layer 1
10
201.160981
20
105.218476
11
203.663885
21
104.694992
0
LINE
8
Layer 1
10
203.663885
20
104.694992
11
206.237264
21
104.317333
0
LINE
8
Layer 1
10
206.237264
20
104.317333
11
208.876836
21
104.088374
0
LINE
8
Layer 1
10
208.876836
20
104.088374
11
211.578320
21
104.010990
0
LINE
8
Layer 1
10
211.578320
20
104.010990
11
210.304861
21
106.833352
0
LINE
8
Layer 1
10
210.304861
20
106.833352
11
208.884639
21
109.409423
0
LINE
8
Layer 1
10
208.884639
20
109.409423
11
207.325851
21
111.743157
0
LINE
8
Layer 1
10
207.325851
20
111.743157
11
205.636694
21
113.838507
0
LINE
8
Layer 1
10
205.636694
20
113.838507
11
203.825364
21
115.699428
0
LINE
8
Layer 1
10
203.825364
20
115.699428
11
201.900058
21
117.329874
0
LINE
8
Layer 1
10
201.900058
20
117.329874
11
199.868972
21
118.733797
0
LINE
8
Layer 1
10
199.868972
20
118.733797
11
197.740305
21
119.915153
0
LINE
8
Layer 1
10
197.740305
20
119.915153
11
195.522252
21
120.877893
0
LINE
8
Layer 1
10
195.522252
20
120.877893
11
193.223011
21
121.625973
0
LINE
8
Layer 1
10
193.223011
20
121.625973
11
190.850777
21
122.163347
0
LINE
8
Layer 1
10
190.850777
20
122.163347
11
188.413749
21
122.493967
0
LINE
8
Layer 1
10
188.413749
20
122.493967
11
185.920122
21
122.621787
0
LINE
8
Layer 1
10
185.920122
20
122.621787
11
183.378094
21
122.550762
0
LINE
8
Layer 1
10
183.378094
20
122.550762
11
180.795861
21
122.284845
0
LINE
8
Layer 1
10
180.795861
20
122.284845
11
178.181620
21
121.827990
0
LINE
8
Layer 1
10
178.181620
20
121.827990
11
178.181620
21
121.827990
0
LINE
8
Layer 1
10
139.570520
20
139.226390
11
138.599634
21
139.134125
0
LINE
8
Layer 1
10
138.599634
20
139.134125
11
137.695104
21
138.869533
0
LINE
8
Layer 1
10
137.695104
20
138.869533
11
136.876378
21
138.450922
0
LINE
8
Layer 1
10
136.876378
20
138.450922
11
136.162903
21
137.896595
0
LINE
8
Layer 1
10
136.162903
20
137.896595
11
135.574125
21
137.224860
0
LINE
8
Layer 1
10
135.574125
20
137.224860
11
135.129492
21
136.454022
0
LINE
8
Layer 1
10
135.129492
20
136.454022
11
134.848452
21
135.602386
0
LINE
8
Layer 1
10
134.848452
20
135.602386
11
134.750450
21
134.688260
0
LINE
8
Layer 1
10
134.750450
20
134.688260
11
134.848451
21
133.774226
0
LINE
8
Layer 1
10
134.848451
20
133.774226
11
135.129491
21
132.922660
0
LINE
8
Layer 1
10
135.129491
20
132.922660
11
135.574122
21
132.151872
0
LINE
8
Layer 1
10
135.574122
20
132.151872
11
136.162899
21
131.480170
0
LINE
8
Layer 1
10
136.162899
20
131.480170
11
136.876373
21
130.925864
0
LINE
8
Layer 1
10
136.876373
20
130.925864
11
137.695100
21
130.507262
0
LINE
8
Layer 1
10
137.695100
20
130.507262
11
138.599631
21
130.242675
0
LINE
8
Layer 1
10
138.599631
20
130.242675
11
139.570520
21
130.150410
0
LINE
8
Layer 1
10
139.570520
20
130.150410
11
140.541406
21
130.242675
0
LINE
8
Layer 1
10
140.541406
20
130.242675
11
141.445936
21
130.507262
0
LINE
8
Layer 1
10
141.445936
20
130.507262
11
142.264662
21
130.925864
0
LINE
8
Layer 1
10
142.264662
20
130.925864
11
142.978138
21
131.480170
0
LINE
8
Layer 1
10
142.978138
20
131.480170
11
143.566915
21
132.151872
0
LINE
8
Layer 1
10
143.566915
20
132.151872
11
144.011548
21
132.922660
0
LINE
8
Layer 1
10
144.011548
20
132.922660
11
144.292588
21
133.774226
0
LINE
8
Layer 1
10
144.292588
20
133.774226
11
144.390590
21
134.688260
0
LINE
8
Layer 1
10
144.390590
20
134.688260
11
144.292589
21
135.602386
0
LINE
8
Layer 1
10
144.292589
20
135.602386
11
144.011549
21
136.454022
0
LINE
8
Layer 1
10
144.011549
20
136.454022
11
143.566918
21
137.224860
0
LINE
8
Layer 1
10
143.566918
20
137.224860
11
142.978141
21
137.896595
0
LINE
8
Layer 1
10
142.978141
20
137.896595
11
142.264667
21
138.450922
0
LINE
8
Layer 1
10
142.264667
20
138.450922
11
141.445940
21
138.869533
0
LINE
8
Layer 1
10
141.445940
20
138.869533
11
140.541409
21
139.134125
0
LINE
8
Layer 1
10
140.541409
20
139.134125
11
139.570520
21
139.226390
0
LINE
8
Layer 1
10
139.570520
20
139.226390
11
139.570520
21
139.226390
0
LINE
8
Layer 1
10
146.434720
20
67.068990
11
144.066302
21
67.448120
0
LINE
8
Layer 1
10
144.066302
20
67.448120
11
141.872336
21
67.260351
0
LINE
8
Layer 1
10
141.872336
20
67.260351
11
139.841062
21
66.543912
0
LINE
8
Layer 1
10
139.841062
20
66.543912
11
137.960718
21
65.337033
0
LINE
8
Layer 1
10
137.960718
20
65.337033
11
136.219542
21
63.677941
0
LINE
8
Layer 1
10
136.219542
20
63.677941
11
134.605775
21
61.604868
0
LINE
8
Layer 1
10
134.605775
20
61.604868
11
133.107655
21
59.156041
0
LINE
8
Layer 1
10
133.107655
20
59.156041
11
131.713420
21
56.369690
0
LINE
8
Layer 1
10
131.713420
20
56.369690
11
134.509775
21
56.935933
0
LINE
8
Layer 1
10
134.509775
20
56.935933
11
137.120875
21
57.651609
0
LINE
8
Layer 1
10
137.120875
20
57.651609
11
139.502747
21
58.552169
0
LINE
8
Layer 1
10
139.502747
20
58.552169
11
141.611421
21
59.673063
0
LINE
8
Layer 1
10
141.611421
20
59.673063
11
143.402927
21
61.049741
0
LINE
8
Layer 1
10
143.402927
20
61.049741
11
144.833292
21
62.717654
0
LINE
8
Layer 1
10
144.833292
20
62.717654
11
145.858547
21
64.712254
0
LINE
8
Layer 1
10
145.858547
20
64.712254
11
146.434720
21
67.068990
0
LINE
8
Layer 1
10
146.434720
20
67.068990
11
146.434720
21
67.068990
0
LINE
8
Layer 1
10
154.108620
20
196.220990
11
152.334988
21
194.650086
0
LINE
8
Layer 1
10
152.334988
20
194.650086
11
150.839387
21
192.803034
0
LINE
8
Layer 1
10
150.839387
20
192.803034
11
149.613479
21
190.722393
0
LINE
8
Layer 1
10
149.613479
20
190.722393
11
148.648930
21
188.450727
0
LINE
8
Layer 1
10
148.648930
20
188.450727
11
147.937404
21
186.030596
0
LINE
8
Layer 1
10
147.937404
20
186.030596
11
147.470565
21
183.504562
0
LINE
8
Layer 1
10
147.470565
20
183.504562
11
147.240077
21
180.915187
0
LINE
8
Layer 1
10
147.240077
20
180.915187
11
147.237605
21
178.305031
0
LINE
8
Layer 1
10
147.237605
20
178.305031
11
147.454813
21
175.716657
0
LINE
8
Layer 1
10
147.454813
20
175.716657
11
147.883366
21
173.192626
0
LINE
8
Layer 1
10
147.883366
20
173.192626
11
148.514928
21
170.775500
0
LINE
8
Layer 1
10
148.514928
20
170.775500
11
149.341163
21
168.507840
0
LINE
8
Layer 1
10
149.341163
20
168.507840
11
150.353735
21
166.432207
0
LINE
8
Layer 1
10
150.353735
20
166.432207
11
151.544309
21
164.591164
0
LINE
8
Layer 1
10
151.544309
20
164.591164
11
152.904549
21
163.027271
0
LINE
8
Layer 1
10
152.904549
20
163.027271
11
154.426120
21
161.783090
0
LINE
8
Layer 1
10
154.426120
20
161.783090
11
155.463790
21
162.542564
0
LINE
8
Layer 1
10
155.463790
20
162.542564
11
156.431190
21
163.769502
0
LINE
8
Layer 1
10
156.431190
20
163.769502
11
157.313164
21
165.403529
0
LINE
8
Layer 1
10
157.313164
20
165.403529
11
158.094554
21
167.384271
0
LINE
8
Layer 1
10
158.094554
20
167.384271
11
158.760204
21
169.651356
0
LINE
8
Layer 1
10
158.760204
20
169.651356
11
159.294957
21
172.144409
0
LINE
8
Layer 1
10
159.294957
20
172.144409
11
159.683655
21
174.803057
0
LINE
8
Layer 1
10
159.683655
20
174.803057
11
159.911143
21
177.566926
0
LINE
8
Layer 1
10
159.911143
20
177.566926
11
159.962262
21
180.375642
0
LINE
8
Layer 1
10
159.962262
20
180.375642
11
159.821857
21
183.168832
0
LINE
8
Layer 1
10
159.821857
20
183.168832
11
159.474770
21
185.886122
0
LINE
8
Layer 1
10
159.474770
20
185.886122
11
158.905845
21
188.467138
0
LINE
8
Layer 1
10
158.905845
20
188.467138
11
158.099924
21
190.851506
0
LINE
8
Layer 1
10
158.099924
20
190.851506
11
157.041851
21
192.978854
0
LINE
8
Layer 1
10
157.041851
20
192.978854
11
155.716468
21
194.788806
0
LINE
8
Layer 1
10
155.716468
20
194.788806
11
154.108620
21
196.220990
0
LINE
8
Layer 1
10
154.108620
20
196.220990
11
154.108620
21
196.220990
0
LINE
8
Layer 1
10
146.372910
20
152.076390
11
145.402024
21
151.984125
0
LINE
8
Layer 1
10
145.402024
20
151.984125
11
144.497494
21
151.719538
0
LINE
8
Layer 1
10
144.497494
20
151.719538
11
143.678768
21
151.300936
0
LINE
8
Layer 1
10
143.678768
20
151.300936
11
142.965293
21
150.746630
0
LINE
8
Layer 1
10
142.965293
20
150.746630
11
142.376515
21
150.074928
0
LINE
8
Layer 1
10
142.376515
20
150.074928
11
141.931883
21
149.304140
0
LINE
8
Layer 1
10
141.931883
20
149.304140
11
141.650842
21
148.452574
0
LINE
8
Layer 1
10
141.650842
20
148.452574
11
141.552840
21
147.538540
0
LINE
8
Layer 1
10
141.552840
20
147.538540
11
141.650841
21
146.624414
0
LINE
8
Layer 1
10
141.650841
20
146.624414
11
141.931881
21
145.772778
0
LINE
8
Layer 1
10
141.931881
20
145.772778
11
142.376512
21
145.001940
0
LINE
8
Layer 1
10
142.376512
20
145.001940
11
142.965289
21
144.330205
0
LINE
8
Layer 1
10
142.965289
20
144.330205
11
143.678763
21
143.775878
0
LINE
8
Layer 1
10
143.678763
20
143.775878
11
144.497490
21
143.357267
0
LINE
8
Layer 1
10
144.497490
20
143.357267
11
145.402021
21
143.092675
0
LINE
8
Layer 1
10
145.402021
20
143.092675
11
146.372910
21
143.000410
0
LINE
8
Layer 1
10
146.372910
20
143.000410
11
147.343796
21
143.092675
0
LINE
8
Layer 1
10
147.343796
20
143.092675
11
148.248326
21
143.357267
0
LINE
8
Layer 1
10
148.248326
20
143.357267
11
149.067052
21
143.775878
0
LINE
8
Layer 1
10
149.067052
20
143.775878
11
149.780528
21
144.330205
0
LINE
8
Layer 1
10
149.780528
20
144.330205
11
150.369305
21
145.001940
0
LINE
8
Layer 1
10
150.369305
20
145.001940
11
150.813938
21
145.772778
0
LINE
8
Layer 1
10
150.813938
20
145.772778
11
151.094978
21
146.624414
0
LINE
8
Layer 1
10
151.094978
20
146.624414
11
151.192980
21
147.538540
0
LINE
8
Layer 1
10
151.192980
20
147.538540
11
151.094979
21
148.452574
0
LINE
8
Layer 1
10
151.094979
20
148.452574
11
150.813939
21
149.304140
0
LINE
8
Layer 1
10
150.813939
20
149.304140
11
150.369308
21
150.074928
0
LINE
8
Layer 1
10
150.369308
20
150.074928
11
149.780531
21
150.746630
0
LINE
8
Layer 1
10
149.780531
20
150.746630
11
149.067057
21
151.300936
0
LINE
8
Layer 1
10
149.067057
20
151.300936
11
148.248330
21
151.719538
0
LINE
8
Layer 1
10
148.248330
20
151.719538
11
147.343799
21
151.984125
0
LINE
8
Layer 1
10
147.343799
20
151.984125
11
146.372910
21
152.076390
0
LINE
8
Layer 1
10
146.372910
20
152.076390
11
146.372910
21
152.076390
0
LINE
8
Layer 1
10
155.580970
20
267.467390
11
154.336002
21
267.340922
0
LINE
8
Layer 1
10
154.336002
20
267.340922
11
153.176133
21
266.978251
0
LINE
8
Layer 1
10
153.176133
20
266.978251
11
152.126299
21
266.404476
0
LINE
8
Layer 1
10
152.126299
20
266.404476
11
151.211433
21
265.644696
0
LINE
8
Layer 1
10
151.211433
20
265.644696
11
150.456467
21
264.724010
0
LINE
8
Layer 1
10
150.456467
20
264.724010
11
149.886335
21
263.667515
0
LINE
8
Layer 1
10
149.886335
20
263.667515
11
149.525972
21
262.500313
0
LINE
8
Layer 1
10
149.525972
20
262.500313
11
149.400310
21
261.247500
0
LINE
8
Layer 1
10
149.400310
20
261.247500
11
149.525972
21
259.994607
0
LINE
8
Layer 1
10
149.525972
20
259.994607
11
149.886335
21
258.827366
0
LINE
8
Layer 1
10
149.886335
20
258.827366
11
150.456467
21
257.770867
0
LINE
8
Layer 1
10
150.456467
20
257.770867
11
151.211433
21
256.850199
0
LINE
8
Layer 1
10
151.211433
20
256.850199
11
152.126299
21
256.090450
0
LINE
8
Layer 1
10
152.126299
20
256.090450
11
153.176133
21
255.516709
0
LINE
8
Layer 1
10
153.176133
20
255.516709
11
154.336002
21
255.154066
0
LINE
8
Layer 1
10
154.336002
20
255.154066
11
155.580970
21
255.027610
0
LINE
8
Layer 1
10
155.580970
20
255.027610
11
156.825938
21
255.154066
0
LINE
8
Layer 1
10
156.825938
20
255.154066
11
157.985807
21
255.516709
0
LINE
8
Layer 1
10
157.985807
20
255.516709
11
159.035641
21
256.090450
0
LINE
8
Layer 1
10
159.035641
20
256.090450
11
159.950508
21
256.850199
0
LINE
8
Layer 1
10
159.950508
20
256.850199
11
160.705473
21
257.770867
0
LINE
8
Layer 1
10
160.705473
20
257.770867
11
161.275605
21
258.827366
0
LINE
8
Layer 1
10
161.275605
20
258.827366
11
161.635968
21
259.994607
0
LINE
8
Layer 1
10
161.635968
20
259.994607
11
161.761630
21
261.247500
0
LINE
8
Layer 1
10
161.761630
20
261.247500
11
161.635968
21
262.500313
0
LINE
8
Layer 1
10
161.635968
20
262.500313
11
161.275605
21
263.667515
0
LINE
8
Layer 1
10
161.275605
20
263.667515
11
160.705473
21
264.724010
0
LINE
8
Layer 1
10
160.705473
20
264.724010
11
159.950508
21
265.644696
0
LINE
8
Layer 1
10
159.950508
20
265.644696
11
159.035641
21
266.404476
0
LINE
8
Layer 1
10
159.035641
20
266.404476
11
157.985807
21
266.978251
0
LINE
8
Layer 1
10
157.985807
20
266.978251
11
156.825938
21
267.340922
0
LINE
8
Layer 1
10
156.825938
20
267.340922
11
155.580970
21
267.467390
0
LINE
8
Layer 1
10
155.580970
20
267.467390
11
155.580970
21
267.467390
0
LINE
8
Layer 1
10
208.311570
20
139.815390
11
210.652208
21
139.913154
0
LINE
8
Layer 1
10
210.652208
20
139.913154
11
211.714774
21
139.804605
0
LINE
8
Layer 1
10
211.714774
20
139.804605
11
212.681671
21
139.516094
0
LINE
8
Layer 1
10
212.681671
20
139.516094
11
213.535022
21
138.991362
0
LINE
8
Layer 1
10
213.535022
20
138.991362
11
214.256952
21
138.174154
0
LINE
8
Layer 1
10
214.256952
20
138.174154
11
214.829583
21
137.008212
0
LINE
8
Layer 1
10
214.829583
20
137.008212
11
215.235040
21
135.437280
0
LINE
8
Layer 1
10
215.235040
20
135.437280
11
214.982571
21
134.551348
0
LINE
8
Layer 1
10
214.982571
20
134.551348
11
214.494441
21
133.791401
0
LINE
8
Layer 1
10
214.494441
20
133.791401
11
213.789439
21
133.139411
0
LINE
8
Layer 1
10
213.789439
20
133.139411
11
212.886353
21
132.577349
0
LINE
8
Layer 1
10
212.886353
20
132.577349
11
210.561086
21
131.650897
0
LINE
8
Layer 1
10
210.561086
20
131.650897
11
207.668950
21
130.867820
0
LINE
8
Layer 1
10
207.668950
20
130.867820
11
209.686601
21
130.149202
0
LINE
8
Layer 1
10
209.686601
20
130.149202
11
211.917730
21
129.768080
0
LINE
8
Layer 1
10
211.917730
20
129.768080
11
214.323955
21
129.731617
0
LINE
8
Layer 1
10
214.323955
20
129.731617
11
216.866894
21
130.046978
0
LINE
8
Layer 1
10
216.866894
20
130.046978
11
219.508164
21
130.721324
0
LINE
8
Layer 1
10
219.508164
20
130.721324
11
222.209385
21
131.761821
0
LINE
8
Layer 1
10
222.209385
20
131.761821
11
224.932174
21
133.175632
0
LINE
8
Layer 1
10
224.932174
20
133.175632
11
227.638150
21
134.969920
0
LINE
8
Layer 1
10
227.638150
20
134.969920
11
225.693082
21
136.841131
0
LINE
8
Layer 1
10
225.693082
20
136.841131
11
223.625077
21
138.406643
0
LINE
8
Layer 1
10
223.625077
20
138.406643
11
221.428351
21
139.638515
0
LINE
8
Layer 1
10
221.428351
20
139.638515
11
219.097124
21
140.508808
0
LINE
8
Layer 1
10
219.097124
20
140.508808
11
216.625612
21
140.989581
0
LINE
8
Layer 1
10
216.625612
20
140.989581
11
214.008034
21
141.052896
0
LINE
8
Layer 1
10
214.008034
20
141.052896
11
211.238607
21
140.670812
0
LINE
8
Layer 1
10
211.238607
20
140.670812
11
208.311550
21
139.815390
0
LINE
8
Layer 1
10
208.311550
20
139.815390
11
208.311570
21
139.815390
0
LINE
8
Layer 1
10
219.816670
20
161.323490
11
221.149452
21
159.618775
0
LINE
8
Layer 1
10
221.149452
20
159.618775
11
222.696522
21
158.187175
0
LINE
8
Layer 1
10
222.696522
20
158.187175
11
224.459843
21
157.031193
0
LINE
8
Layer 1
10
224.459843
20
157.031193
11
226.441376
21
156.153326
0
LINE
8
Layer 1
10
226.441376
20
156.153326
11
228.643084
21
155.556077
0
LINE
8
Layer 1
10
228.643084
20
155.556077
11
231.066927
21
155.241944
0
LINE
8
Layer 1
10
231.066927
20
155.241944
11
233.714869
21
155.213428
0
LINE
8
Layer 1
10
233.714869
20
155.213428
11
236.588870
21
155.473030
0
LINE
8
Layer 1
10
236.588870
20
155.473030
11
234.934671
21
157.952948
0
LINE
8
Layer 1
10
234.934671
20
157.952948
11
233.155654
21
159.939394
0
LINE
8
Layer 1
10
233.155654
20
159.939394
11
231.251040
21
161.429303
0
LINE
8
Layer 1
10
231.251040
20
161.429303
11
229.220048
21
162.419610
0
LINE
8
Layer 1
10
229.220048
20
162.419610
11
227.061895
21
162.907248
0
LINE
8
Layer 1
10
227.061895
20
162.907248
11
224.775802
21
162.889151
0
LINE
8
Layer 1
10
224.775802
20
162.889151
11
222.360987
21
162.362254
0
LINE
8
Layer 1
10
222.360987
20
162.362254
11
219.816670
21
161.323490
0
LINE
8
Layer 1
10
219.816670
20
161.323490
11
219.816670
21
161.323490
0
LINE
8
Layer 1
10
124.710670
20
84.261090
11
123.824229
21
85.232170
0
LINE
8
Layer 1
10
123.824229
20
85.232170
11
123.263339
21
86.297598
0
LINE
8
Layer 1
10
123.263339
20
86.297598
11
122.976517
21
87.425356
0
LINE
8
Layer 1
10
122.976517
20
87.425356
11
122.912282
21
88.583425
0
LINE
8
Layer 1
10
122.912282
20
88.583425
11
123.245648
21
90.862427
0
LINE
8
Layer 1
10
123.245648
20
90.862427
11
123.851586
21
92.878460
0
LINE
8
Layer 1
10
123.851586
20
92.878460
11
122.015932
21
91.480702
0
LINE
8
Layer 1
10
122.015932
20
91.480702
11
120.474739
21
89.850846
0
LINE
8
Layer 1
10
120.474739
20
89.850846
11
119.249577
21
87.972904
0
LINE
8
Layer 1
10
119.249577
20
87.972904
11
118.362016
21
85.830889
0
LINE
8
Layer 1
10
118.362016
20
85.830889
11
117.833627
21
83.408814
0
LINE
8
Layer 1
10
117.833627
20
83.408814
11
117.685979
21
80.690692
0
LINE
8
Layer 1
10
117.685979
20
80.690692
11
117.940642
21
77.660537
0
LINE
8
Layer 1
10
117.940642
20
77.660537
11
118.619186
21
74.302360
0
LINE
8
Layer 1
10
118.619186
20
74.302360
11
123.908120
21
77.078989
0
LINE
8
Layer 1
10
123.908120
20
77.078989
11
126.134138
21
78.455173
0
LINE
8
Layer 1
10
126.134138
20
78.455173
11
128.073005
21
79.875855
0
LINE
8
Layer 1
10
128.073005
20
79.875855
11
129.718582
21
81.380475
0
LINE
8
Layer 1
10
129.718582
20
81.380475
11
131.064731
21
83.008473
0
LINE
8
Layer 1
10
131.064731
20
83.008473
11
132.105311
21
84.799288
0
LINE
8
Layer 1
10
132.105311
20
84.799288
11
132.834186
21
86.792360
0
LINE
8
Layer 1
10
132.834186
20
86.792360
11
129.851545
21
84.827254
0
LINE
8
Layer 1
10
129.851545
20
84.827254
11
127.485409
21
83.757946
0
LINE
8
Layer 1
10
127.485409
20
83.757946
11
126.541971
21
83.555653
0
LINE
8
Layer 1
10
126.541971
20
83.555653
11
125.762790
21
83.573033
0
LINE
8
Layer 1
10
125.762790
20
83.573033
11
125.151243
21
83.808661
0
LINE
8
Layer 1
10
125.151243
20
83.808661
11
124.710706
21
84.261110
0
LINE
8
Layer 1
10
124.710706
20
84.261110
11
124.710670
21
84.261090
0
LINE
8
Layer 1
10
155.083370
20
107.695690
11
152.823725
21
103.290425
0
LINE
8
Layer 1
10
152.823725
20
103.290425
11
151.940306
21
101.091397
0
LINE
8
Layer 1
10
151.940306
20
101.091397
11
151.220893
21
98.894767
0
LINE
8
Layer 1
10
151.220893
20
98.894767
11
150.665287
21
96.700532
0
LINE
8
Layer 1
10
150.665287
20
96.700532
11
150.273293
21
94.508691
0
LINE
8
Layer 1
10
150.273293
20
94.508691
11
150.044714
21
92.319241
0
LINE
8
Layer 1
10
150.044714
20
92.319241
11
149.979350
21
90.132178
0
LINE
8
Layer 1
10
149.979350
20
90.132178
11
150.077007
21
87.947499
0
LINE
8
Layer 1
10
150.077007
20
87.947499
11
150.337486
21
85.765203
0
LINE
8
Layer 1
10
150.337486
20
85.765203
11
150.760589
21
83.585285
0
LINE
8
Layer 1
10
150.760589
20
83.585285
11
151.346121
21
81.407745
0
LINE
8
Layer 1
10
151.346121
20
81.407745
11
152.093884
21
79.232578
0
LINE
8
Layer 1
10
152.093884
20
79.232578
11
153.003680
21
77.059781
0
LINE
8
Layer 1
10
153.003680
20
77.059781
11
155.308583
21
72.721290
0
LINE
8
Layer 1
10
155.308583
20
72.721290
11
156.638824
21
73.799341
0
LINE
8
Layer 1
10
156.638824
20
73.799341
11
157.813721
21
75.136223
0
LINE
8
Layer 1
10
157.813721
20
75.136223
11
158.828152
21
76.708125
0
LINE
8
Layer 1
10
158.828152
20
76.708125
11
159.676997
21
78.491236
0
LINE
8
Layer 1
10
159.676997
20
78.491236
11
160.355134
21
80.461744
0
LINE
8
Layer 1
10
160.355134
20
80.461744
11
160.857443
21
82.595840
0
LINE
8
Layer 1
10
160.857443
20
82.595840
11
161.178802
21
84.869713
0
LINE
8
Layer 1
10
161.178802
20
84.869713
11
161.314091
21
87.259550
0
LINE
8
Layer 1
10
161.314091
20
87.259550
11
161.258190
21
89.741542
0
LINE
8
Layer 1
10
161.258190
20
89.741542
11
161.005976
21
92.291877
0
LINE
8
Layer 1
10
161.005976
20
92.291877
11
160.552329
21
94.886745
0
LINE
8
Layer 1
10
160.552329
20
94.886745
11
159.892128
21
97.502334
0
LINE
8
Layer 1
10
159.892128
20
97.502334
11
159.020253
21
100.114835
0
LINE
8
Layer 1
10
159.020253
20
100.114835
11
157.931582
21
102.700434
0
LINE
8
Layer 1
10
157.931582
20
102.700434
11
156.620995
21
105.235323
0
LINE
8
Layer 1
10
156.620995
20
105.235323
11
155.083370
21
107.695690
0
LINE
8
Layer 1
10
155.083370
20
107.695690
11
155.083370
21
107.695690
0
LINE
8
Layer 1
10
88.582870
20
96.248790
11
86.390570
21
96.686924
0
LINE
8
Layer 1
10
86.390570
20
96.686924
11
84.246601
21
96.919485
0
LINE
8
Layer 1
10
84.246601
20
96.919485
11
82.149701
21
96.951855
0
LINE
8
Layer 1
10
82.149701
20
96.951855
11
80.098603
21
96.789413
0
LINE
8
Layer 1
10
80.098603
20
96.789413
11
78.092044
21
96.437540
0
LINE
8
Layer 1
10
78.092044
20
96.437540
11
76.128760
21
95.901615
0
LINE
8
Layer 1
10
76.128760
20
95.901615
11
74.207486
21
95.187019
0
LINE
8
Layer 1
10
74.207486
20
95.187019
11
72.326958
21
94.299133
0
LINE
8
Layer 1
10
72.326958
20
94.299133
11
70.485911
21
93.243335
0
LINE
8
Layer 1
10
70.485911
20
93.243335
11
68.683082
21
92.025007
0
LINE
8
Layer 1
10
68.683082
20
92.025007
11
65.187018
21
89.122281
0
LINE
8
Layer 1
10
65.187018
20
89.122281
11
61.828653
21
85.633994
0
LINE
8
Layer 1
10
61.828653
20
85.633994
11
58.597870
21
81.603190
0
LINE
8
Layer 1
10
58.597870
20
81.603190
11
63.172017
21
81.951371
0
LINE
8
Layer 1
10
63.172017
20
81.951371
11
67.545314
21
82.660067
0
LINE
8
Layer 1
10
67.545314
20
82.660067
11
71.700183
21
83.760807
0
LINE
8
Layer 1
10
71.700183
20
83.760807
11
75.619045
21
85.285125
0
LINE
8
Layer 1
10
75.619045
20
85.285125
11
79.284323
21
87.264550
0
LINE
8
Layer 1
10
79.284323
20
87.264550
11
82.678439
21
89.730616
0
LINE
8
Layer 1
10
82.678439
20
89.730616
11
85.783814
21
92.714852
0
LINE
8
Layer 1
10
85.783814
20
92.714852
11
87.222730
21
94.411137
0
LINE
8
Layer 1
10
87.222730
20
94.411137
11
88.582870
21
96.248790
0
LINE
8
Layer 1
10
88.582870
20
96.248790
11
88.582870
21
96.248790
0
LINE
8
Layer 1
10
213.265870
20
192.768990
11
211.151677
21
191.049424
0
LINE
8
Layer 1
10
211.151677
20
191.049424
11
209.554927
21
189.306023
0
LINE
8
Layer 1
10
209.554927
20
189.306023
11
208.477601
21
187.512518
0
LINE
8
Layer 1
10
208.477601
20
187.512518
11
207.921679
21
185.642639
0
LINE
8
Layer 1
10
207.921679
20
185.642639
11
207.889142
21
183.670116
0
LINE
8
Layer 1
10
207.889142
20
183.670116
11
208.381971
21
181.568680
0
LINE
8
Layer 1
10
208.381971
20
181.568680
11
209.402147
21
179.312061
0
LINE
8
Layer 1
10
209.402147
20
179.312061
11
210.951650
21
176.873990
0
LINE
8
Layer 1
10
210.951650
20
176.873990
11
212.804364
21
178.819903
0
LINE
8
Layer 1
10
212.804364
20
178.819903
11
214.277585
21
180.718512
0
LINE
8
Layer 1
10
214.277585
20
180.718512
11
215.337713
21
182.599320
0
LINE
8
Layer 1
10
215.337713
20
182.599320
11
215.951145
21
184.491831
0
LINE
8
Layer 1
10
215.951145
20
184.491831
11
216.084279
21
186.425550
0
LINE
8
Layer 1
10
216.084279
20
186.425550
11
215.703512
21
188.429980
0
LINE
8
Layer 1
10
215.703512
20
188.429980
11
214.775243
21
190.534625
0
LINE
8
Layer 1
10
214.775243
20
190.534625
11
213.265870
21
192.768990
0
LINE
8
Layer 1
10
213.265870
20
192.768990
11
213.265870
21
192.768990
0
LINE
8
Layer 1
10
211.198030
20
166.784490
11
208.448179
21
167.151058
0
LINE
8
Layer 1
10
208.448179
20
167.151058
11
205.798263
21
167.283187
0
LINE
8
Layer 1
10
205.798263
20
167.283187
11
203.247194
21
167.188426
0
LINE
8
Layer 1
10
203.247194
20
167.188426
11
200.793886
21
166.874325
0
LINE
8
Layer 1
10
200.793886
20
166.874325
11
198.437251
21
166.348430
0
LINE
8
Layer 1
10
198.437251
20
166.348430
11
196.176200
21
165.618293
0
LINE
8
Layer 1
10
196.176200
20
165.618293
11
194.009648
21
164.691461
0
LINE
8
Layer 1
10
194.009648
20
164.691461
11
191.936505
21
163.575484
0
LINE
8
Layer 1
10
191.936505
20
163.575484
11
189.955685
21
162.277910
0
LINE
8
Layer 1
10
189.955685
20
162.277910
11
188.066100
21
160.806288
0
LINE
8
Layer 1
10
188.066100
20
160.806288
11
186.266663
21
159.168167
0
LINE
8
Layer 1
10
186.266663
20
159.168167
11
184.556286
21
157.371096
0
LINE
8
Layer 1
10
184.556286
20
157.371096
11
182.933882
21
155.422624
0
LINE
8
Layer 1
10
182.933882
20
155.422624
11
181.398363
21
153.330300
0
LINE
8
Layer 1
10
181.398363
20
153.330300
11
178.583630
21
148.744290
0
LINE
8
Layer 1
10
178.583630
20
148.744290
11
183.743419
21
149.506942
0
LINE
8
Layer 1
10
183.743419
20
149.506942
11
188.642497
21
150.698004
0
LINE
8
Layer 1
10
188.642497
20
150.698004
11
193.256508
21
152.316466
0
LINE
8
Layer 1
10
193.256508
20
152.316466
11
197.561093
21
154.361321
0
LINE
8
Layer 1
10
197.561093
20
154.361321
11
201.531895
21
156.831560
0
LINE
8
Layer 1
10
201.531895
20
156.831560
11
205.144557
21
159.726173
0
LINE
8
Layer 1
10
205.144557
20
159.726173
11
208.374721
21
163.044153
0
LINE
8
Layer 1
10
208.374721
20
163.044153
11
211.198030
21
166.784490
0
LINE
8
Layer 1
10
211.198030
20
166.784490
11
211.198030
21
166.784490
0
LINE
8
Layer 1
10
162.577430
20
127.127790
11
161.606544
21
127.035525
0
LINE
8
Layer 1
10
161.606544
20
127.035525
11
160.702014
21
126.770938
0
LINE
8
Layer 1
10
160.702014
20
126.770938
11
159.883288
21
126.352336
0
LINE
8
Layer 1
10
159.883288
20
126.352336
11
159.169813
21
125.798030
0
LINE
8
Layer 1
10
159.169813
20
125.798030
11
158.581035
21
125.126328
0
LINE
8
Layer 1
10
158.581035
20
125.126328
11
158.136403
21
124.355540
0
LINE
8
Layer 1
10
158.136403
20
124.355540
11
157.855362
21
123.503974
0
LINE
8
Layer 1
10
157.855362
20
123.503974
11
157.757360
21
122.589940
0
LINE
8
Layer 1
10
157.757360
20
122.589940
11
157.855361
21
121.675826
0
LINE
8
Layer 1
10
157.855361
20
121.675826
11
158.136401
21
120.824222
0
LINE
8
Layer 1
10
158.136401
20
120.824222
11
158.581032
21
120.053429
0
LINE
8
Layer 1
10
158.581032
20
120.053429
11
159.169809
21
119.381745
0
LINE
8
Layer 1
10
159.169809
20
119.381745
11
159.883283
21
118.827470
0
LINE
8
Layer 1
10
159.883283
20
118.827470
11
160.702010
21
118.408903
0
LINE
8
Layer 1
10
160.702010
20
118.408903
11
161.606541
21
118.144343
0
LINE
8
Layer 1
10
161.606541
20
118.144343
11
162.577430
21
118.052090
0
LINE
8
Layer 1
10
162.577430
20
118.052090
11
163.548316
21
118.144343
0
LINE
8
Layer 1
10
163.548316
20
118.144343
11
164.452846
21
118.408903
0
LINE
8
Layer 1
10
164.452846
20
118.408903
11
165.271572
21
118.827470
0
LINE
8
Layer 1
10
165.271572
20
118.827470
11
165.985048
21
119.381745
0
LINE
8
Layer 1
10
165.985048
20
119.381745
11
166.573825
21
120.053429
0
LINE
8
Layer 1
10
166.573825
20
120.053429
11
167.018458
21
120.824222
0
LINE
8
Layer 1
10
167.018458
20
120.824222
11
167.299498
21
121.675826
0
LINE
8
Layer 1
10
167.299498
20
121.675826
11
167.397500
21
122.589940
0
LINE
8
Layer 1
10
167.397500
20
122.589940
11
167.299499
21
123.503974
0
LINE
8
Layer 1
10
167.299499
20
123.503974
11
167.018459
21
124.355540
0
LINE
8
Layer 1
10
167.018459
20
124.355540
11
166.573828
21
125.126328
0
LINE
8
Layer 1
10
166.573828
20
125.126328
11
165.985051
21
125.798030
0
LINE
8
Layer 1
10
165.985051
20
125.798030
11
165.271577
21
126.352336
0
LINE
8
Layer 1
10
165.271577
20
126.352336
11
164.452850
21
126.770938
0
LINE
8
Layer 1
10
164.452850
20
126.770938
11
163.548319
21
127.035525
0
LINE
8
Layer 1
10
163.548319
20
127.035525
11
162.577430
21
127.127790
0
LINE
8
Layer 1
10
162.577430
20
127.127790
11
162.577430
21
127.127790
0
LINE
8
Layer 1
10
98.641730
20
174.060990
11
99.334513
21
177.253023
0
LINE
8
Layer 1
10
99.334513
20
177.253023
11
99.702332
21
180.196908
0
LINE
8
Layer 1
10
99.702332
20
180.196908
11
99.730499
21
182.881429
0
LINE
8
Layer 1
10
99.730499
20
182.881429
11
99.404328
21
185.295370
0
LINE
8
Layer 1
10
99.404328
20
185.295370
11
98.709128
21
187.427513
0
LINE
8
Layer 1
10
98.709128
20
187.427513
11
97.630214
21
189.266642
0
LINE
8
Layer 1
10
97.630214
20
189.266642
11
96.152898
21
190.801540
0
LINE
8
Layer 1
10
96.152898
20
190.801540
11
94.262490
21
192.020990
0
LINE
8
Layer 1
10
94.262490
20
192.020990
11
93.436554
21
189.600914
0
LINE
8
Layer 1
10
93.436554
20
189.600914
11
93.003967
21
187.230988
0
LINE
8
Layer 1
10
93.003967
20
187.230988
11
92.964246
21
184.911148
0
LINE
8
Layer 1
10
92.964246
20
184.911148
11
93.316908
21
182.641330
0
LINE
8
Layer 1
10
93.316908
20
182.641330
11
94.061470
21
180.421469
0
LINE
8
Layer 1
10
94.061470
20
180.421469
11
95.197449
21
178.251502
0
LINE
8
Layer 1
10
95.197449
20
178.251502
11
96.724364
21
176.131364
0
LINE
8
Layer 1
10
96.724364
20
176.131364
11
98.641730
21
174.060990
0
LINE
8
Layer 1
10
98.641730
20
174.060990
11
98.641730
21
174.060990
0
LINE
8
Layer 1
10
89.465280
20
107.739390
11
89.090140
21
108.989942
0
LINE
8
Layer 1
10
89.090140
20
108.989942
11
88.592170
21
110.099238
0
LINE
8
Layer 1
10
88.592170
20
110.099238
11
87.976866
21
111.073602
0
LINE
8
Layer 1
10
87.976866
20
111.073602
11
87.249727
21
111.919356
0
LINE
8
Layer 1
10
87.249727
20
111.919356
11
86.416250
21
112.642823
0
LINE
8
Layer 1
10
86.416250
20
112.642823
11
85.481934
21
113.250325
0
LINE
8
Layer 1
10
85.481934
20
113.250325
11
83.332778
21
114.142728
0
LINE
8
Layer 1
10
83.332778
20
114.142728
11
80.846240
21
114.647144
0
LINE
8
Layer 1
10
80.846240
20
114.647144
11
78.066305
21
114.814158
0
LINE
8
Layer 1
10
78.066305
20
114.814158
11
75.036957
21
114.694349
0
LINE
8
Layer 1
10
75.036957
20
114.694349
11
71.802180
21
114.338300
0
LINE
8
Layer 1
10
71.802180
20
114.338300
11
73.698566
21
112.467668
0
LINE
8
Layer 1
10
73.698566
20
112.467668
11
75.666832
21
110.838380
0
LINE
8
Layer 1
10
75.666832
20
110.838380
11
77.715537
21
109.479158
0
LINE
8
Layer 1
10
77.715537
20
109.479158
11
79.853243
21
108.418728
0
LINE
8
Layer 1
10
79.853243
20
108.418728
11
82.088509
21
107.685812
0
LINE
8
Layer 1
10
82.088509
20
107.685812
11
84.429897
21
107.309134
0
LINE
8
Layer 1
10
84.429897
20
107.309134
11
86.885967
21
107.317419
0
LINE
8
Layer 1
10
86.885967
20
107.317419
11
89.465280
21
107.739390
0
LINE
8
Layer 1
10
89.465280
20
107.739390
11
89.465280
21
107.739390
0
LINE
8
Layer 1
10
190.835280
20
195.359490
11
188.024221
21
194.305816
0
LINE
8
Layer 1
10
188.024221
20
194.305816
11
185.580102
21
193.115785
0
LINE
8
Layer 1
10
185.580102
20
193.115785
11
183.472378
21
191.773770
0
LINE
8
Layer 1
10
183.472378
20
191.773770
11
181.670508
21
190.264145
0
LINE
8
Layer 1
10
181.670508
20
190.264145
11
180.143946
21
188.571281
0
LINE
8
Layer 1
10
180.143946
20
188.571281
11
178.862150
21
186.679553
0
LINE
8
Layer 1
10
178.862150
20
186.679553
11
177.794576
21
184.573331
0
LINE
8
Layer 1
10
177.794576
20
184.573331
11
176.910680
21
182.236990
0
LINE
8
Layer 1
10
176.910680
20
182.236990
11
177.884302
21
183.510814
0
LINE
8
Layer 1
10
177.884302
20
183.510814
11
178.967680
21
184.541254
0
LINE
8
Layer 1
10
178.967680
20
184.541254
11
180.118249
21
185.323872
0
LINE
8
Layer 1
10
180.118249
20
185.323872
11
181.293444
21
185.854230
0
LINE
8
Layer 1
10
181.293444
20
185.854230
11
182.450700
21
186.127889
0
LINE
8
Layer 1
10
182.450700
20
186.127889
11
183.547453
21
186.140411
0
LINE
8
Layer 1
10
183.547453
20
186.140411
11
184.541138
21
185.887357
0
LINE
8
Layer 1
10
184.541138
20
185.887357
11
185.389190
21
185.364290
0
LINE
8
Layer 1
10
185.389190
20
185.364290
11
185.971978
21
184.714736
0
LINE
8
Layer 1
10
185.971978
20
184.714736
11
186.333934
21
183.960602
0
LINE
8
Layer 1
10
186.333934
20
183.960602
11
186.491268
21
183.077583
0
LINE
8
Layer 1
10
186.491268
20
183.077583
11
186.460189
21
182.041374
0
LINE
8
Layer 1
10
186.460189
20
182.041374
11
185.897628
21
179.412164
0
LINE
8
Layer 1
10
185.897628
20
179.412164
11
184.775922
21
175.878530
0
LINE
8
Layer 1
10
184.775922
20
175.878530
11
186.687751
21
177.380766
0
LINE
8
Layer 1
10
186.687751
20
177.380766
11
188.288764
21
179.134160
0
LINE
8
Layer 1
10
188.288764
20
179.134160
11
189.569452
21
181.146401
0
LINE
8
Layer 1
10
189.569452
20
181.146401
11
190.520307
21
183.425178
0
LINE
8
Layer 1
10
190.520307
20
183.425178
11
191.131821
21
185.978180
0
LINE
8
Layer 1
10
191.131821
20
185.978180
11
191.394485
21
188.813097
0
LINE
8
Layer 1
10
191.394485
20
188.813097
11
191.298792
21
191.937617
0
LINE
8
Layer 1
10
191.298792
20
191.937617
11
190.835232
21
195.359430
0
LINE
8
Layer 1
10
190.835232
20
195.359430
11
190.835280
21
195.359490
 0 
ENDSEC
 0 
EOF