solid OpenSCAD_Model
  facet normal 0.408249 0.707106 -0.57735
    outer loop
      vertex 0 0 -2.73205
      vertex -1.22474 2.12132 -1
      vertex 0.612372 1.06066 -1
    endloop
  endfacet
  facet normal -0.816498 0 -0.577349
    outer loop
      vertex 0 0 -2.73205
      vertex -1.22474 0 -1
      vertex -1.22474 2.12132 -1
    endloop
  endfacet
  facet normal 0.408248 0.707107 -0.57735
    outer loop
      vertex 2.44949 0 -1
      vertex 0 0 -2.73205
      vertex 0.612372 1.06066 -1
    endloop
  endfacet
  facet normal 0.408248 -0.707107 -0.57735
    outer loop
      vertex 0.612372 -1.06066 -1
      vertex 0 0 -2.73205
      vertex 2.44949 0 -1
    endloop
  endfacet
  facet normal -0.816498 0 -0.577349
    outer loop
      vertex -1.22474 -2.12132 -1
      vertex -1.22474 0 -1
      vertex 0 0 -2.73205
    endloop
  endfacet
  facet normal 0.408249 -0.707106 -0.57735
    outer loop
      vertex 0.612372 -1.06066 -1
      vertex -1.22474 -2.12132 -1
      vertex 0 0 -2.73205
    endloop
  endfacet
  facet normal 0 0 1
    outer loop
      vertex 2.93444 0.623734 1
      vertex 2.93444 -0.623734 1
      vertex 3 0 1
    endloop
  endfacet
  facet normal 0 0 1
    outer loop
      vertex 2.74064 1.22021 1
      vertex 2.93444 -0.623734 1
      vertex 2.93444 0.623734 1
    endloop
  endfacet
  facet normal 0 0 1
    outer loop
      vertex 2.74064 1.22021 1
      vertex 2.74064 -1.22021 1
      vertex 2.93444 -0.623734 1
    endloop
  endfacet
  facet normal 0 0 1
    outer loop
      vertex 2.42705 1.76336 1
      vertex 2.74064 -1.22021 1
      vertex 2.74064 1.22021 1
    endloop
  endfacet
  facet normal 0 0 1
    outer loop
      vertex 2.42705 1.76336 1
      vertex 2.42705 -1.76336 1
      vertex 2.74064 -1.22021 1
    endloop
  endfacet
  facet normal 0 0 1
    outer loop
      vertex 2.00739 2.22943 1
      vertex 2.42705 -1.76336 1
      vertex 2.42705 1.76336 1
    endloop
  endfacet
  facet normal 0 0 1
    outer loop
      vertex 2.00739 2.22943 1
      vertex 2.00739 -2.22943 1
      vertex 2.42705 -1.76336 1
    endloop
  endfacet
  facet normal 0 0 1
    outer loop
      vertex 1.5 2.59808 1
      vertex 2.00739 -2.22943 1
      vertex 2.00739 2.22943 1
    endloop
  endfacet
  facet normal 0 0 1
    outer loop
      vertex 1.5 2.59808 1
      vertex 1.5 -2.59808 1
      vertex 2.00739 -2.22943 1
    endloop
  endfacet
  facet normal 0 0 1
    outer loop
      vertex 0.927051 2.85317 1
      vertex 1.5 -2.59808 1
      vertex 1.5 2.59808 1
    endloop
  endfacet
  facet normal 0 0 1
    outer loop
      vertex 0.927051 2.85317 1
      vertex 0.927051 -2.85317 1
      vertex 1.5 -2.59808 1
    endloop
  endfacet
  facet normal 0 0 1
    outer loop
      vertex 0.313585 2.98357 1
      vertex 0.927051 -2.85317 1
      vertex 0.927051 2.85317 1
    endloop
  endfacet
  facet normal 0 0 1
    outer loop
      vertex 0.313585 2.98357 1
      vertex 0.313585 -2.98357 1
      vertex 0.927051 -2.85317 1
    endloop
  endfacet
  facet normal -0 0 1
    outer loop
      vertex -0.313585 2.98357 1
      vertex 0.313585 -2.98357 1
      vertex 0.313585 2.98357 1
    endloop
  endfacet
  facet normal 0 0 1
    outer loop
      vertex -0.313585 2.98357 1
      vertex -0.313585 -2.98357 1
      vertex 0.313585 -2.98357 1
    endloop
  endfacet
  facet normal -0 0 1
    outer loop
      vertex -0.927051 2.85317 1
      vertex -0.313585 -2.98357 1
      vertex -0.313585 2.98357 1
    endloop
  endfacet
  facet normal 0 0 1
    outer loop
      vertex -0.927051 2.85317 1
      vertex -0.927051 -2.85317 1
      vertex -0.313585 -2.98357 1
    endloop
  endfacet
  facet normal -0 0 1
    outer loop
      vertex -1.5 2.59808 1
      vertex -0.927051 -2.85317 1
      vertex -0.927051 2.85317 1
    endloop
  endfacet
  facet normal 0 0 1
    outer loop
      vertex -1.5 2.59808 1
      vertex -1.5 -2.59808 1
      vertex -0.927051 -2.85317 1
    endloop
  endfacet
  facet normal -0 0 1
    outer loop
      vertex -2.00739 2.22943 1
      vertex -1.5 -2.59808 1
      vertex -1.5 2.59808 1
    endloop
  endfacet
  facet normal 0 0 1
    outer loop
      vertex -2.00739 2.22943 1
      vertex -2.00739 -2.22943 1
      vertex -1.5 -2.59808 1
    endloop
  endfacet
  facet normal -0 0 1
    outer loop
      vertex -2.42705 1.76336 1
      vertex -2.00739 -2.22943 1
      vertex -2.00739 2.22943 1
    endloop
  endfacet
  facet normal 0 0 1
    outer loop
      vertex -2.42705 1.76336 1
      vertex -2.42705 -1.76336 1
      vertex -2.00739 -2.22943 1
    endloop
  endfacet
  facet normal -0 0 1
    outer loop
      vertex -2.74064 1.22021 1
      vertex -2.42705 -1.76336 1
      vertex -2.42705 1.76336 1
    endloop
  endfacet
  facet normal 0 0 1
    outer loop
      vertex -2.74064 1.22021 1
      vertex -2.74064 -1.22021 1
      vertex -2.42705 -1.76336 1
    endloop
  endfacet
  facet normal -0 0 1
    outer loop
      vertex -2.93444 0.623734 1
      vertex -2.74064 -1.22021 1
      vertex -2.74064 1.22021 1
    endloop
  endfacet
  facet normal 0 0 1
    outer loop
      vertex -2.93444 0.623734 1
      vertex -2.93444 -0.623734 1
      vertex -2.74064 -1.22021 1
    endloop
  endfacet
  facet normal 0 -0 1
    outer loop
      vertex -2.93444 -0.623734 1
      vertex -2.93444 0.623734 1
      vertex -3 0 1
    endloop
  endfacet
  facet normal 0.866024 0.500003 0
    outer loop
      vertex 2.74064 1.22021 1
      vertex 2.42705 1.76336 -1
      vertex 2.42705 1.76336 1
    endloop
  endfacet
  facet normal 0.866024 0.500003 0
    outer loop
      vertex 2.42705 1.76336 -1
      vertex 2.74064 1.22021 1
      vertex 2.74064 1.22021 -1
    endloop
  endfacet
  facet normal -0.994521 0.104533 0
    outer loop
      vertex -3 0 -1
      vertex -2.93444 0.623734 1
      vertex -2.93444 0.623734 -1
    endloop
  endfacet
  facet normal -0.994521 0.104533 0
    outer loop
      vertex -2.93444 0.623734 1
      vertex -3 0 -1
      vertex -3 0 1
    endloop
  endfacet
  facet normal 0.743138 0.669138 0
    outer loop
      vertex 2.42705 1.76336 1
      vertex 2.00739 2.22943 -1
      vertex 2.00739 2.22943 1
    endloop
  endfacet
  facet normal 0.743138 0.669138 0
    outer loop
      vertex 2.00739 2.22943 -1
      vertex 2.42705 1.76336 1
      vertex 2.42705 1.76336 -1
    endloop
  endfacet
  facet normal -0.406732 0.913547 0
    outer loop
      vertex -0.927051 2.85317 -1
      vertex -1.5 2.59808 1
      vertex -0.927051 2.85317 1
    endloop
  endfacet
  facet normal -0.406732 0.913547 0
    outer loop
      vertex -1.5 2.59808 1
      vertex -0.927051 2.85317 -1
      vertex -1.5 2.59808 -1
    endloop
  endfacet
  facet normal -0.95106 0.309007 0
    outer loop
      vertex -2.93444 0.623734 -1
      vertex -2.74064 1.22021 1
      vertex -2.74064 1.22021 -1
    endloop
  endfacet
  facet normal -0.95106 0.309007 0
    outer loop
      vertex -2.74064 1.22021 1
      vertex -2.93444 0.623734 -1
      vertex -2.93444 0.623734 1
    endloop
  endfacet
  facet normal 0.994521 -0.104533 0
    outer loop
      vertex 2.93444 -0.623734 1
      vertex 3 0 -1
      vertex 3 0 1
    endloop
  endfacet
  facet normal 0.994521 -0.104533 0
    outer loop
      vertex 3 0 -1
      vertex 2.93444 -0.623734 1
      vertex 2.93444 -0.623734 -1
    endloop
  endfacet
  facet normal 0.587795 0.80901 -0
    outer loop
      vertex 2.00739 2.22943 -1
      vertex 1.5 2.59808 1
      vertex 2.00739 2.22943 1
    endloop
  endfacet
  facet normal 0.587795 0.80901 0
    outer loop
      vertex 1.5 2.59808 1
      vertex 2.00739 2.22943 -1
      vertex 1.5 2.59808 -1
    endloop
  endfacet
  facet normal 0 1 -0
    outer loop
      vertex 0.313585 2.98357 -1
      vertex -0.313585 2.98357 1
      vertex 0.313585 2.98357 1
    endloop
  endfacet
  facet normal 0 1 0
    outer loop
      vertex -0.313585 2.98357 1
      vertex 0.313585 2.98357 -1
      vertex -0.313585 2.98357 -1
    endloop
  endfacet
  facet normal 0.406732 0.913547 -0
    outer loop
      vertex 1.5 2.59808 -1
      vertex 0.927051 2.85317 1
      vertex 1.5 2.59808 1
    endloop
  endfacet
  facet normal 0.406732 0.913547 0
    outer loop
      vertex 0.927051 2.85317 1
      vertex 1.5 2.59808 -1
      vertex 0.927051 2.85317 -1
    endloop
  endfacet
  facet normal -0.866024 0.500003 0
    outer loop
      vertex -2.74064 1.22021 -1
      vertex -2.42705 1.76336 1
      vertex -2.42705 1.76336 -1
    endloop
  endfacet
  facet normal -0.866024 0.500003 0
    outer loop
      vertex -2.42705 1.76336 1
      vertex -2.74064 1.22021 -1
      vertex -2.74064 1.22021 1
    endloop
  endfacet
  facet normal -0.587795 0.80901 0
    outer loop
      vertex -1.5 2.59808 -1
      vertex -2.00739 2.22943 1
      vertex -1.5 2.59808 1
    endloop
  endfacet
  facet normal -0.587795 0.80901 0
    outer loop
      vertex -2.00739 2.22943 1
      vertex -1.5 2.59808 -1
      vertex -2.00739 2.22943 -1
    endloop
  endfacet
  facet normal -0.207917 0.978146 0
    outer loop
      vertex -0.313585 2.98357 -1
      vertex -0.927051 2.85317 1
      vertex -0.313585 2.98357 1
    endloop
  endfacet
  facet normal -0.207917 0.978146 0
    outer loop
      vertex -0.927051 2.85317 1
      vertex -0.313585 2.98357 -1
      vertex -0.927051 2.85317 -1
    endloop
  endfacet
  facet normal -0.743138 0.669138 0
    outer loop
      vertex -2.42705 1.76336 -1
      vertex -2.00739 2.22943 1
      vertex -2.00739 2.22943 -1
    endloop
  endfacet
  facet normal -0.743138 0.669138 0
    outer loop
      vertex -2.00739 2.22943 1
      vertex -2.42705 1.76336 -1
      vertex -2.42705 1.76336 1
    endloop
  endfacet
  facet normal 0.994521 0.104533 0
    outer loop
      vertex 3 0 1
      vertex 2.93444 0.623734 -1
      vertex 2.93444 0.623734 1
    endloop
  endfacet
  facet normal 0.994521 0.104533 0
    outer loop
      vertex 2.93444 0.623734 -1
      vertex 3 0 1
      vertex 3 0 -1
    endloop
  endfacet
  facet normal -0.207917 -0.978146 0
    outer loop
      vertex -0.927051 -2.85317 -1
      vertex -0.313585 -2.98357 1
      vertex -0.927051 -2.85317 1
    endloop
  endfacet
  facet normal -0.207917 -0.978146 -0
    outer loop
      vertex -0.313585 -2.98357 1
      vertex -0.927051 -2.85317 -1
      vertex -0.313585 -2.98357 -1
    endloop
  endfacet
  facet normal -0.994521 -0.104533 0
    outer loop
      vertex -2.93444 -0.623734 -1
      vertex -3 0 1
      vertex -3 0 -1
    endloop
  endfacet
  facet normal -0.994521 -0.104533 0
    outer loop
      vertex -3 0 1
      vertex -2.93444 -0.623734 -1
      vertex -2.93444 -0.623734 1
    endloop
  endfacet
  facet normal -0.95106 -0.309007 0
    outer loop
      vertex -2.74064 -1.22021 -1
      vertex -2.93444 -0.623734 1
      vertex -2.93444 -0.623734 -1
    endloop
  endfacet
  facet normal -0.95106 -0.309007 0
    outer loop
      vertex -2.93444 -0.623734 1
      vertex -2.74064 -1.22021 -1
      vertex -2.74064 -1.22021 1
    endloop
  endfacet
  facet normal 0.587795 -0.80901 0
    outer loop
      vertex 1.5 -2.59808 -1
      vertex 2.00739 -2.22943 1
      vertex 1.5 -2.59808 1
    endloop
  endfacet
  facet normal 0.587795 -0.80901 0
    outer loop
      vertex 2.00739 -2.22943 1
      vertex 1.5 -2.59808 -1
      vertex 2.00739 -2.22943 -1
    endloop
  endfacet
  facet normal 0.95106 0.309007 0
    outer loop
      vertex 2.93444 0.623734 1
      vertex 2.74064 1.22021 -1
      vertex 2.74064 1.22021 1
    endloop
  endfacet
  facet normal 0.95106 0.309007 0
    outer loop
      vertex 2.74064 1.22021 -1
      vertex 2.93444 0.623734 1
      vertex 2.93444 0.623734 -1
    endloop
  endfacet
  facet normal 0.207917 0.978146 -0
    outer loop
      vertex 0.927051 2.85317 -1
      vertex 0.313585 2.98357 1
      vertex 0.927051 2.85317 1
    endloop
  endfacet
  facet normal 0.207917 0.978146 0
    outer loop
      vertex 0.313585 2.98357 1
      vertex 0.927051 2.85317 -1
      vertex 0.313585 2.98357 -1
    endloop
  endfacet
  facet normal 0.95106 -0.309007 0
    outer loop
      vertex 2.74064 -1.22021 1
      vertex 2.93444 -0.623734 -1
      vertex 2.93444 -0.623734 1
    endloop
  endfacet
  facet normal 0.95106 -0.309007 0
    outer loop
      vertex 2.93444 -0.623734 -1
      vertex 2.74064 -1.22021 1
      vertex 2.74064 -1.22021 -1
    endloop
  endfacet
  facet normal 0.866024 -0.500003 0
    outer loop
      vertex 2.42705 -1.76336 1
      vertex 2.74064 -1.22021 -1
      vertex 2.74064 -1.22021 1
    endloop
  endfacet
  facet normal 0.866024 -0.500003 0
    outer loop
      vertex 2.74064 -1.22021 -1
      vertex 2.42705 -1.76336 1
      vertex 2.42705 -1.76336 -1
    endloop
  endfacet
  facet normal 0.207917 -0.978146 0
    outer loop
      vertex 0.313585 -2.98357 -1
      vertex 0.927051 -2.85317 1
      vertex 0.313585 -2.98357 1
    endloop
  endfacet
  facet normal 0.207917 -0.978146 0
    outer loop
      vertex 0.927051 -2.85317 1
      vertex 0.313585 -2.98357 -1
      vertex 0.927051 -2.85317 -1
    endloop
  endfacet
  facet normal 0.406732 -0.913547 0
    outer loop
      vertex 0.927051 -2.85317 -1
      vertex 1.5 -2.59808 1
      vertex 0.927051 -2.85317 1
    endloop
  endfacet
  facet normal 0.406732 -0.913547 0
    outer loop
      vertex 1.5 -2.59808 1
      vertex 0.927051 -2.85317 -1
      vertex 1.5 -2.59808 -1
    endloop
  endfacet
  facet normal 0.743138 -0.669138 0
    outer loop
      vertex 2.00739 -2.22943 1
      vertex 2.42705 -1.76336 -1
      vertex 2.42705 -1.76336 1
    endloop
  endfacet
  facet normal 0.743138 -0.669138 0
    outer loop
      vertex 2.42705 -1.76336 -1
      vertex 2.00739 -2.22943 1
      vertex 2.00739 -2.22943 -1
    endloop
  endfacet
  facet normal 0 0 -1
    outer loop
      vertex 2.44949 0 -1
      vertex 3 0 -1
      vertex 2.93444 -0.623734 -1
    endloop
  endfacet
  facet normal 0 0 -1
    outer loop
      vertex 2.44949 0 -1
      vertex 2.93444 -0.623734 -1
      vertex 2.74064 -1.22021 -1
    endloop
  endfacet
  facet normal 0 0 -1
    outer loop
      vertex 3 0 -1
      vertex 2.44949 0 -1
      vertex 2.93444 0.623734 -1
    endloop
  endfacet
  facet normal -0 0 -1
    outer loop
      vertex 2.93444 0.623734 -1
      vertex 2.44949 0 -1
      vertex 2.74064 1.22021 -1
    endloop
  endfacet
  facet normal 0 0 -1
    outer loop
      vertex 0.612372 -1.06066 -1
      vertex 2.74064 -1.22021 -1
      vertex 2.42705 -1.76336 -1
    endloop
  endfacet
  facet normal 0 0 -1
    outer loop
      vertex 0.612372 -1.06066 -1
      vertex 2.42705 -1.76336 -1
      vertex 2.00739 -2.22943 -1
    endloop
  endfacet
  facet normal 0 0 -1
    outer loop
      vertex 0.612372 -1.06066 -1
      vertex 2.00739 -2.22943 -1
      vertex 1.5 -2.59808 -1
    endloop
  endfacet
  facet normal 0 0 -1
    outer loop
      vertex 0.612372 -1.06066 -1
      vertex 1.5 -2.59808 -1
      vertex 0.927051 -2.85317 -1
    endloop
  endfacet
  facet normal 0 0 -1
    outer loop
      vertex 2.74064 -1.22021 -1
      vertex 0.612372 -1.06066 -1
      vertex 2.44949 0 -1
    endloop
  endfacet
  facet normal 0 0 -1
    outer loop
      vertex 0.313585 -2.98357 -1
      vertex 0.612372 -1.06066 -1
      vertex 0.927051 -2.85317 -1
    endloop
  endfacet
  facet normal 0 0 -1
    outer loop
      vertex -0.313585 -2.98357 -1
      vertex 0.612372 -1.06066 -1
      vertex 0.313585 -2.98357 -1
    endloop
  endfacet
  facet normal 0 0 -1
    outer loop
      vertex -1.22474 -2.12132 -1
      vertex -0.313585 -2.98357 -1
      vertex -0.927051 -2.85317 -1
    endloop
  endfacet
  facet normal 0 0 -1
    outer loop
      vertex -0.313585 -2.98357 -1
      vertex -1.22474 -2.12132 -1
      vertex 0.612372 -1.06066 -1
    endloop
  endfacet
  facet normal 0 0 -1
    outer loop
      vertex -2.00739 -2.22943 -1
      vertex -1.22474 -2.12132 -1
      vertex -1.5 -2.59808 -1
    endloop
  endfacet
  facet normal 0 0 -1
    outer loop
      vertex -1.5 -2.59808 -1
      vertex -1.22474 -2.12132 -1
      vertex -0.927051 -2.85317 -1
    endloop
  endfacet
  facet normal 0 0 -1
    outer loop
      vertex 0.612372 1.06066 -1
      vertex 2.74064 1.22021 -1
      vertex 2.44949 0 -1
    endloop
  endfacet
  facet normal -0 0 -1
    outer loop
      vertex 2.74064 1.22021 -1
      vertex 0.612372 1.06066 -1
      vertex 2.42705 1.76336 -1
    endloop
  endfacet
  facet normal -0 0 -1
    outer loop
      vertex 2.42705 1.76336 -1
      vertex 0.612372 1.06066 -1
      vertex 2.00739 2.22943 -1
    endloop
  endfacet
  facet normal -0 0 -1
    outer loop
      vertex 2.00739 2.22943 -1
      vertex 0.612372 1.06066 -1
      vertex 1.5 2.59808 -1
    endloop
  endfacet
  facet normal -0 0 -1
    outer loop
      vertex 1.5 2.59808 -1
      vertex 0.612372 1.06066 -1
      vertex 0.927051 2.85317 -1
    endloop
  endfacet
  facet normal 0 0 -1
    outer loop
      vertex 0.612372 1.06066 -1
      vertex 0.313585 2.98357 -1
      vertex 0.927051 2.85317 -1
    endloop
  endfacet
  facet normal 0 0 -1
    outer loop
      vertex 0.612372 1.06066 -1
      vertex -0.313585 2.98357 -1
      vertex 0.313585 2.98357 -1
    endloop
  endfacet
  facet normal 0 0 -1
    outer loop
      vertex -1.22474 2.12132 -1
      vertex -0.313585 2.98357 -1
      vertex 0.612372 1.06066 -1
    endloop
  endfacet
  facet normal 0 0 -1
    outer loop
      vertex -0.313585 2.98357 -1
      vertex -1.22474 2.12132 -1
      vertex -0.927051 2.85317 -1
    endloop
  endfacet
  facet normal 0 0 -1
    outer loop
      vertex -2.42705 -1.76336 -1
      vertex -1.22474 -2.12132 -1
      vertex -2.00739 -2.22943 -1
    endloop
  endfacet
  facet normal 0 0 -1
    outer loop
      vertex -1.22474 2.12132 -1
      vertex -1.5 2.59808 -1
      vertex -0.927051 2.85317 -1
    endloop
  endfacet
  facet normal 0 0 -1
    outer loop
      vertex -1.22474 -2.12132 -1
      vertex -2.42705 -1.76336 -1
      vertex -1.22474 0 -1
    endloop
  endfacet
  facet normal 0 0 -1
    outer loop
      vertex -2.74064 -1.22021 -1
      vertex -1.22474 0 -1
      vertex -2.42705 -1.76336 -1
    endloop
  endfacet
  facet normal 0 0 -1
    outer loop
      vertex -1.22474 2.12132 -1
      vertex -2.00739 2.22943 -1
      vertex -1.5 2.59808 -1
    endloop
  endfacet
  facet normal 0 0 -1
    outer loop
      vertex -2.93444 -0.623734 -1
      vertex -1.22474 0 -1
      vertex -2.74064 -1.22021 -1
    endloop
  endfacet
  facet normal -0 0 -1
    outer loop
      vertex -1.22474 2.12132 -1
      vertex -2.42705 1.76336 -1
      vertex -2.00739 2.22943 -1
    endloop
  endfacet
  facet normal 0 0 -1
    outer loop
      vertex -3 0 -1
      vertex -1.22474 0 -1
      vertex -2.93444 -0.623734 -1
    endloop
  endfacet
  facet normal 0 0 -1
    outer loop
      vertex -1.22474 0 -1
      vertex -2.42705 1.76336 -1
      vertex -1.22474 2.12132 -1
    endloop
  endfacet
  facet normal 0 -0 -1
    outer loop
      vertex -2.93444 0.623734 -1
      vertex -1.22474 0 -1
      vertex -3 0 -1
    endloop
  endfacet
  facet normal 0 -0 -1
    outer loop
      vertex -2.42705 1.76336 -1
      vertex -1.22474 0 -1
      vertex -2.74064 1.22021 -1
    endloop
  endfacet
  facet normal 0 -0 -1
    outer loop
      vertex -2.74064 1.22021 -1
      vertex -1.22474 0 -1
      vertex -2.93444 0.623734 -1
    endloop
  endfacet
  facet normal -0.743138 -0.669138 0
    outer loop
      vertex -2.00739 -2.22943 -1
      vertex -2.42705 -1.76336 1
      vertex -2.42705 -1.76336 -1
    endloop
  endfacet
  facet normal -0.743138 -0.669138 0
    outer loop
      vertex -2.42705 -1.76336 1
      vertex -2.00739 -2.22943 -1
      vertex -2.00739 -2.22943 1
    endloop
  endfacet
  facet normal -0.866024 -0.500003 0
    outer loop
      vertex -2.42705 -1.76336 -1
      vertex -2.74064 -1.22021 1
      vertex -2.74064 -1.22021 -1
    endloop
  endfacet
  facet normal -0.866024 -0.500003 0
    outer loop
      vertex -2.74064 -1.22021 1
      vertex -2.42705 -1.76336 -1
      vertex -2.42705 -1.76336 1
    endloop
  endfacet
  facet normal -0.406732 -0.913547 0
    outer loop
      vertex -1.5 -2.59808 -1
      vertex -0.927051 -2.85317 1
      vertex -1.5 -2.59808 1
    endloop
  endfacet
  facet normal -0.406732 -0.913547 -0
    outer loop
      vertex -0.927051 -2.85317 1
      vertex -1.5 -2.59808 -1
      vertex -0.927051 -2.85317 -1
    endloop
  endfacet
  facet normal 0 -1 0
    outer loop
      vertex -0.313585 -2.98357 -1
      vertex 0.313585 -2.98357 1
      vertex -0.313585 -2.98357 1
    endloop
  endfacet
  facet normal 0 -1 -0
    outer loop
      vertex 0.313585 -2.98357 1
      vertex -0.313585 -2.98357 -1
      vertex 0.313585 -2.98357 -1
    endloop
  endfacet
  facet normal -0.587795 -0.80901 0
    outer loop
      vertex -2.00739 -2.22943 -1
      vertex -1.5 -2.59808 1
      vertex -2.00739 -2.22943 1
    endloop
  endfacet
  facet normal -0.587795 -0.80901 -0
    outer loop
      vertex -1.5 -2.59808 1
      vertex -2.00739 -2.22943 -1
      vertex -1.5 -2.59808 -1
    endloop
  endfacet
endsolid OpenSCAD_Model
