solid OpenSCAD_Model
  facet normal -1 0 0
    outer loop
      vertex -10.5 -19 -10.5
      vertex -10.5 -2 10.5
      vertex -10.5 -2 -10.5
    endloop
  endfacet
  facet normal -1 -0 0
    outer loop
      vertex -10.5 -2 10.5
      vertex -10.5 -19 -10.5
      vertex -10.5 -19 10.5
    endloop
  endfacet
  facet normal -1 0 0
    outer loop
      vertex -10.5 -1.5 -10
      vertex -10.5 18.5 10
      vertex -10.5 18.5 -10
    endloop
  endfacet
  facet normal -1 -0 0
    outer loop
      vertex -10.5 18.5 10
      vertex -10.5 -1.5 -10
      vertex -10.5 -1.5 10
    endloop
  endfacet
  facet normal 0 0 1
    outer loop
      vertex 10.5 19 10.5
      vertex -10.5 -2 10.5
      vertex 10.5 -19 10.5
    endloop
  endfacet
  facet normal -0 0 1
    outer loop
      vertex -27.5 19 10.5
      vertex -10.5 -2 10.5
      vertex 10.5 19 10.5
    endloop
  endfacet
  facet normal 0 0 1
    outer loop
      vertex -10.5 -2 10.5
      vertex -27.5 19 10.5
      vertex -27.5 -2 10.5
    endloop
  endfacet
  facet normal 0 0 1
    outer loop
      vertex 10.5 -19 10.5
      vertex -10.5 -2 10.5
      vertex -10.5 -19 10.5
    endloop
  endfacet
  facet normal 1 -0 0
    outer loop
      vertex 10.5 -19 10.5
      vertex 10.5 19 -10.5
      vertex 10.5 19 10.5
    endloop
  endfacet
  facet normal 1 0 0
    outer loop
      vertex 10.5 19 -10.5
      vertex 10.5 -19 10.5
      vertex 10.5 -19 -10.5
    endloop
  endfacet
  facet normal 0 0 -1
    outer loop
      vertex -10.5 -2 -10.5
      vertex 10.5 -19 -10.5
      vertex -10.5 -19 -10.5
    endloop
  endfacet
  facet normal 0 0 -1
    outer loop
      vertex 10.5 -19 -10.5
      vertex -10.5 -2 -10.5
      vertex 10.5 19 -10.5
    endloop
  endfacet
  facet normal 0 0 -1
    outer loop
      vertex -27.5 19 -10.5
      vertex -10.5 -2 -10.5
      vertex -27.5 -2 -10.5
    endloop
  endfacet
  facet normal 0 0 -1
    outer loop
      vertex -10.5 -2 -10.5
      vertex -27.5 19 -10.5
      vertex 10.5 19 -10.5
    endloop
  endfacet
  facet normal 0 -1 0
    outer loop
      vertex -10.5 -19 10.5
      vertex -10 -19 10
      vertex 10.5 -19 10.5
    endloop
  endfacet
  facet normal 0 -1 0
    outer loop
      vertex -10.5 -19 10.5
      vertex -10 -19 -10
      vertex -10 -19 10
    endloop
  endfacet
  facet normal 0 -1 -0
    outer loop
      vertex -10 -19 -10
      vertex -10.5 -19 -10.5
      vertex 10 -19 -10
    endloop
  endfacet
  facet normal 0 -1 0
    outer loop
      vertex -10.5 -19 -10.5
      vertex -10 -19 -10
      vertex -10.5 -19 10.5
    endloop
  endfacet
  facet normal 0 -1 0
    outer loop
      vertex 10 -19 10
      vertex 10.5 -19 10.5
      vertex -10 -19 10
    endloop
  endfacet
  facet normal 0 -1 0
    outer loop
      vertex 10 -19 -10
      vertex 10.5 -19 10.5
      vertex 10 -19 10
    endloop
  endfacet
  facet normal 0 -1 0
    outer loop
      vertex 10 -19 -10
      vertex 10.5 -19 -10.5
      vertex 10.5 -19 10.5
    endloop
  endfacet
  facet normal 0 -1 0
    outer loop
      vertex 10.5 -19 -10.5
      vertex 10 -19 -10
      vertex -10.5 -19 -10.5
    endloop
  endfacet
  facet normal 0 1 -0
    outer loop
      vertex 10.5 19 -10.5
      vertex -27.5 19 10.5
      vertex 10.5 19 10.5
    endloop
  endfacet
  facet normal 0 1 0
    outer loop
      vertex -27.5 19 10.5
      vertex 10.5 19 -10.5
      vertex -27.5 19 -10.5
    endloop
  endfacet
  facet normal 1 -0 0
    outer loop
      vertex -10 -19 10
      vertex -10 -2 -10
      vertex -10 -2 10
    endloop
  endfacet
  facet normal 1 0 0
    outer loop
      vertex -10 -2 -10
      vertex -10 -19 10
      vertex -10 -19 -10
    endloop
  endfacet
  facet normal 1 -0 0
    outer loop
      vertex -10 -1.5 10
      vertex -10 18.5 -10
      vertex -10 18.5 10
    endloop
  endfacet
  facet normal 1 0 0
    outer loop
      vertex -10 18.5 -10
      vertex -10 -1.5 10
      vertex -10 -1.5 -10
    endloop
  endfacet
  facet normal 0 0 -1
    outer loop
      vertex -27.5 -1.5 10
      vertex -10.5 18.5 10
      vertex -10.5 -1.5 10
    endloop
  endfacet
  facet normal -0 0 -1
    outer loop
      vertex -10.5 18.5 10
      vertex -27.5 -1.5 10
      vertex -27.5 18.5 10
    endloop
  endfacet
  facet normal 0 0 -1
    outer loop
      vertex -10 -19 10
      vertex 10 -2 10
      vertex 10 -19 10
    endloop
  endfacet
  facet normal -0 0 -1
    outer loop
      vertex 10 -2 10
      vertex -10 -19 10
      vertex -10 -2 10
    endloop
  endfacet
  facet normal 0 0 -1
    outer loop
      vertex -10 -1.5 10
      vertex 10 18.5 10
      vertex 10 -1.5 10
    endloop
  endfacet
  facet normal -0 0 -1
    outer loop
      vertex 10 18.5 10
      vertex -10 -1.5 10
      vertex -10 18.5 10
    endloop
  endfacet
  facet normal -1 0 0
    outer loop
      vertex 10 -19 -10
      vertex 10 -2 10
      vertex 10 -2 -10
    endloop
  endfacet
  facet normal -1 -0 0
    outer loop
      vertex 10 -2 10
      vertex 10 -19 -10
      vertex 10 -19 10
    endloop
  endfacet
  facet normal -1 0 0
    outer loop
      vertex 10 -1.5 -10
      vertex 10 18.5 10
      vertex 10 18.5 -10
    endloop
  endfacet
  facet normal -1 -0 0
    outer loop
      vertex 10 18.5 10
      vertex 10 -1.5 -10
      vertex 10 -1.5 10
    endloop
  endfacet
  facet normal -0 0 1
    outer loop
      vertex -27.5 18.5 -10
      vertex -10.5 -1.5 -10
      vertex -10.5 18.5 -10
    endloop
  endfacet
  facet normal 0 0 1
    outer loop
      vertex -10.5 -1.5 -10
      vertex -27.5 18.5 -10
      vertex -27.5 -1.5 -10
    endloop
  endfacet
  facet normal -0 0 1
    outer loop
      vertex -10 -2 -10
      vertex 10 -19 -10
      vertex 10 -2 -10
    endloop
  endfacet
  facet normal 0 0 1
    outer loop
      vertex 10 -19 -10
      vertex -10 -2 -10
      vertex -10 -19 -10
    endloop
  endfacet
  facet normal -0 0 1
    outer loop
      vertex -10 18.5 -10
      vertex 10 -1.5 -10
      vertex 10 18.5 -10
    endloop
  endfacet
  facet normal 0 0 1
    outer loop
      vertex 10 -1.5 -10
      vertex -10 18.5 -10
      vertex -10 -1.5 -10
    endloop
  endfacet
  facet normal 0 -1 0
    outer loop
      vertex -27.5 -2 -10.5
      vertex -10.5 -2 10.5
      vertex -27.5 -2 10.5
    endloop
  endfacet
  facet normal 0 -1 -0
    outer loop
      vertex -10.5 -2 10.5
      vertex -27.5 -2 -10.5
      vertex -10.5 -2 -10.5
    endloop
  endfacet
  facet normal 0 -1 0
    outer loop
      vertex -10 -2 -10
      vertex 10 -2 10
      vertex -10 -2 10
    endloop
  endfacet
  facet normal 0 -1 -0
    outer loop
      vertex 10 -2 10
      vertex -10 -2 -10
      vertex 10 -2 -10
    endloop
  endfacet
  facet normal -1 0 0
    outer loop
      vertex -27.5 19 -10.5
      vertex -27.5 18.5 -10
      vertex -27.5 19 10.5
    endloop
  endfacet
  facet normal -1 0 0
    outer loop
      vertex -27.5 19 -10.5
      vertex -27.5 -1.5 -10
      vertex -27.5 18.5 -10
    endloop
  endfacet
  facet normal -1 -0 0
    outer loop
      vertex -27.5 -1.5 -10
      vertex -27.5 -2 -10.5
      vertex -27.5 -1.5 10
    endloop
  endfacet
  facet normal -1 0 0
    outer loop
      vertex -27.5 -2 -10.5
      vertex -27.5 -1.5 -10
      vertex -27.5 19 -10.5
    endloop
  endfacet
  facet normal -1 0 0
    outer loop
      vertex -27.5 18.5 10
      vertex -27.5 19 10.5
      vertex -27.5 18.5 -10
    endloop
  endfacet
  facet normal -1 0 0
    outer loop
      vertex -27.5 -1.5 10
      vertex -27.5 19 10.5
      vertex -27.5 18.5 10
    endloop
  endfacet
  facet normal -1 0 0
    outer loop
      vertex -27.5 -1.5 10
      vertex -27.5 -2 10.5
      vertex -27.5 19 10.5
    endloop
  endfacet
  facet normal -1 0 0
    outer loop
      vertex -27.5 -2 10.5
      vertex -27.5 -1.5 10
      vertex -27.5 -2 -10.5
    endloop
  endfacet
  facet normal 0 1 -0
    outer loop
      vertex -10.5 -1.5 -10
      vertex -27.5 -1.5 10
      vertex -10.5 -1.5 10
    endloop
  endfacet
  facet normal 0 1 0
    outer loop
      vertex -27.5 -1.5 10
      vertex -10.5 -1.5 -10
      vertex -27.5 -1.5 -10
    endloop
  endfacet
  facet normal 0 1 -0
    outer loop
      vertex 10 -1.5 -10
      vertex -10 -1.5 10
      vertex 10 -1.5 10
    endloop
  endfacet
  facet normal 0 1 0
    outer loop
      vertex -10 -1.5 10
      vertex 10 -1.5 -10
      vertex -10 -1.5 -10
    endloop
  endfacet
  facet normal 0 -1 0
    outer loop
      vertex -27.5 18.5 -10
      vertex -10.5 18.5 10
      vertex -27.5 18.5 10
    endloop
  endfacet
  facet normal 0 -1 -0
    outer loop
      vertex -10.5 18.5 10
      vertex -27.5 18.5 -10
      vertex -10.5 18.5 -10
    endloop
  endfacet
  facet normal 0 -1 0
    outer loop
      vertex -10 18.5 -10
      vertex 10 18.5 10
      vertex -10 18.5 10
    endloop
  endfacet
  facet normal 0 -1 -0
    outer loop
      vertex 10 18.5 10
      vertex -10 18.5 -10
      vertex 10 18.5 -10
    endloop
  endfacet
endsolid OpenSCAD_Model
