solid OBJECT
  facet normal 0 1 0
    outer loop
      vertex 201.77278502793649 -83.379176077930282 2.9896026858895937
      vertex 171.02280028672556 -83.379176077930282 2.9896026858895937
      vertex 201.77278502793649 -83.379176077930282 12.989602685889594
    endloop
  endfacet
  facet normal 0 1 0
    outer loop
      vertex 201.77278502793649 -83.379176077930282 12.989602685889594
      vertex 171.02280028672556 -83.379176077930282 2.9896026858895937
      vertex 171.02280028672556 -83.379176077930282 12.989602685889594
    endloop
  endfacet
  facet normal 0 -1 -0
    outer loop
      vertex 171.02280028672556 -85.879176077930282 2.9896026858895937
      vertex 201.77278502793649 -85.879176077930282 2.9896026858895937
      vertex 171.02280028672556 -85.879176077930282 12.989602685889594
    endloop
  endfacet
  facet normal 0 -1 -0
    outer loop
      vertex 171.02280028672556 -85.879176077930282 12.989602685889594
      vertex 201.77278502793649 -85.879176077930282 2.9896026858895937
      vertex 201.77278502793649 -85.879176077930282 12.989602685889594
    endloop
  endfacet
  facet normal -1 -0 0
    outer loop
      vertex 201.77278502793649 -83.379176077930282 2.9896026858895937
      vertex 201.77278502793649 -83.379176077930282 12.989602685889594
      vertex 201.77278502793649 -81.379176077930282 2.9896026858895937
    endloop
  endfacet
  facet normal -1 -0 0
    outer loop
      vertex 201.77278502793649 -81.379176077930282 2.9896026858895937
      vertex 201.77278502793649 -83.379176077930282 12.989602685889594
      vertex 201.77278502793649 -81.379176077930282 12.989602685889594
    endloop
  endfacet
  facet normal -0 -0 -1
    outer loop
      vertex 201.77278502793649 -83.379176077930282 12.989602685889594
      vertex 171.02280028672556 -83.379176077930282 12.989602685889594
      vertex 201.77278502793649 -81.379176077930282 12.989602685889594
    endloop
  endfacet
  facet normal -0 0 -1
    outer loop
      vertex 201.77278502793649 -81.379176077930282 12.989602685889594
      vertex 171.02280028672556 -83.379176077930282 12.989602685889594
      vertex 171.02280028672556 -81.379176077930282 12.989602685889594
    endloop
  endfacet
  facet normal 1 0 0
    outer loop
      vertex 171.02280028672556 -83.379176077930282 12.989602685889594
      vertex 171.02280028672556 -83.379176077930282 2.9896026858895937
      vertex 171.02280028672556 -81.379176077930282 12.989602685889594
    endloop
  endfacet
  facet normal 1 0 0
    outer loop
      vertex 171.02280028672556 -81.379176077930282 12.989602685889594
      vertex 171.02280028672556 -83.379176077930282 2.9896026858895937
      vertex 171.02280028672556 -81.379176077930282 2.9896026858895937
    endloop
  endfacet
  facet normal 0 1 0
    outer loop
      vertex 201.77278502793649 -88.379176077930282 2.9896026858895937
      vertex 171.02280028672556 -88.379176077930282 2.9896026858895937
      vertex 201.77278502793649 -88.379176077930282 12.989602685889594
    endloop
  endfacet
  facet normal 0 1 0
    outer loop
      vertex 201.77278502793649 -88.379176077930282 12.989602685889594
      vertex 171.02280028672556 -88.379176077930282 2.9896026858895937
      vertex 171.02280028672556 -88.379176077930282 12.989602685889594
    endloop
  endfacet
  facet normal 0 0 -1
    outer loop
      vertex 169.02280028672556 -90.879175839511703 12.989602685889594
      vertex 204.02278502793649 -90.879175839511703 12.989602685889594
      vertex 169.02280028672556 -93.379176077930282 12.989602685889594
    endloop
  endfacet
  facet normal 0 0 -1
    outer loop
      vertex 169.02280028672556 -93.379176077930282 12.989602685889594
      vertex 204.02278502793649 -90.879175839511703 12.989602685889594
      vertex 204.02278502793649 -93.379176077930282 12.989602685889594
    endloop
  endfacet
  facet normal 1 -0 -0
    outer loop
      vertex 171.02280028672556 -85.879176077930282 2.9896026858895937
      vertex 171.02280028672556 -85.879176077930282 12.989602685889594
      vertex 171.02280028672556 -88.379176077930282 2.9896026858895937
    endloop
  endfacet
  facet normal 1 -0 0
    outer loop
      vertex 171.02280028672556 -88.379176077930282 2.9896026858895937
      vertex 171.02280028672556 -85.879176077930282 12.989602685889594
      vertex 171.02280028672556 -88.379176077930282 12.989602685889594
    endloop
  endfacet
  facet normal 0 0 -1
    outer loop
      vertex 201.77278502793649 -81.379176077930282 2.9896026858895937
      vertex 204.02278502793649 -81.379176077930282 2.9896026858895937
      vertex 201.77278502793649 -83.379176077930282 2.9896026858895937
    endloop
  endfacet
  facet normal -0 0 -1
    outer loop
      vertex 201.77278502793649 -83.379176077930282 2.9896026858895937
      vertex 204.02278502793649 -81.379176077930282 2.9896026858895937
      vertex 201.77278502793649 -85.879176077930282 2.9896026858895937
    endloop
  endfacet
  facet normal -0 0 -1
    outer loop
      vertex 201.77278502793649 -83.379176077930282 2.9896026858895937
      vertex 201.77278502793649 -85.879176077930282 2.9896026858895937
      vertex 171.02280028672556 -85.879176077930282 2.9896026858895937
    endloop
  endfacet
  facet normal 0 -0 -1
    outer loop
      vertex 204.02278502793649 -81.379176077930282 2.9896026858895937
      vertex 204.02278502793649 -90.879175839511703 2.9896026858895937
      vertex 201.77278502793649 -85.879176077930282 2.9896026858895937
    endloop
  endfacet
  facet normal 0 0 -1
    outer loop
      vertex 201.77278502793649 -85.879176077930282 2.9896026858895937
      vertex 204.02278502793649 -90.879175839511703 2.9896026858895937
      vertex 201.77278502793649 -88.379176077930282 2.9896026858895937
    endloop
  endfacet
  facet normal -0 0 -1
    outer loop
      vertex 201.77278502793649 -88.379176077930282 2.9896026858895937
      vertex 204.02278502793649 -90.879175839511703 2.9896026858895937
      vertex 169.02280028672556 -90.879175839511703 2.9896026858895937
    endloop
  endfacet
  facet normal 0 -0 -1
    outer loop
      vertex 201.77278502793649 -88.379176077930282 2.9896026858895937
      vertex 169.02280028672556 -90.879175839511703 2.9896026858895937
      vertex 171.02280028672556 -88.379176077930282 2.9896026858895937
    endloop
  endfacet
  facet normal 0 0 -1
    outer loop
      vertex 171.02280028672556 -88.379176077930282 2.9896026858895937
      vertex 169.02280028672556 -90.879175839511703 2.9896026858895937
      vertex 171.02280028672556 -85.879176077930282 2.9896026858895937
    endloop
  endfacet
  facet normal 0 0 -1
    outer loop
      vertex 171.02280028672556 -85.879176077930282 2.9896026858895937
      vertex 169.02280028672556 -90.879175839511703 2.9896026858895937
      vertex 169.02280028672556 -81.379176077930282 2.9896026858895937
    endloop
  endfacet
  facet normal -0 0 -1
    outer loop
      vertex 171.02280028672556 -85.879176077930282 2.9896026858895937
      vertex 169.02280028672556 -81.379176077930282 2.9896026858895937
      vertex 171.02280028672556 -83.379176077930282 2.9896026858895937
    endloop
  endfacet
  facet normal -0 -0 -1
    outer loop
      vertex 171.02280028672556 -83.379176077930282 2.9896026858895937
      vertex 169.02280028672556 -81.379176077930282 2.9896026858895937
      vertex 171.02280028672556 -81.379176077930282 2.9896026858895937
    endloop
  endfacet
  facet normal 0 0 -1
    outer loop
      vertex 171.02280028672556 -83.379176077930282 2.9896026858895937
      vertex 201.77278502793649 -83.379176077930282 2.9896026858895937
      vertex 171.02280028672556 -85.879176077930282 2.9896026858895937
    endloop
  endfacet
  facet normal 0 -1 0
    outer loop
      vertex 169.02280028672556 -90.879175839511703 12.989602685889594
      vertex 169.02280028672556 -90.879175839511703 2.9896026858895937
      vertex 204.02278502793649 -90.879175839511703 12.989602685889594
    endloop
  endfacet
  facet normal -0 -1 0
    outer loop
      vertex 204.02278502793649 -90.879175839511703 12.989602685889594
      vertex 169.02280028672556 -90.879175839511703 2.9896026858895937
      vertex 204.02278502793649 -90.879175839511703 2.9896026858895937
    endloop
  endfacet
  facet normal -1 0 -0
    outer loop
      vertex 201.77278502793649 -85.879176077930282 12.989602685889594
      vertex 201.77278502793649 -85.879176077930282 2.9896026858895937
      vertex 201.77278502793649 -88.379176077930282 12.989602685889594
    endloop
  endfacet
  facet normal -1 0 0
    outer loop
      vertex 201.77278502793649 -88.379176077930282 12.989602685889594
      vertex 201.77278502793649 -85.879176077930282 2.9896026858895937
      vertex 201.77278502793649 -88.379176077930282 2.9896026858895937
    endloop
  endfacet
  facet normal 0 0 -1
    outer loop
      vertex 171.02280028672556 -85.879176077930282 12.989602685889594
      vertex 201.77278502793649 -85.879176077930282 12.989602685889594
      vertex 171.02280028672556 -88.379176077930282 12.989602685889594
    endloop
  endfacet
  facet normal 0 0 -1
    outer loop
      vertex 171.02280028672556 -88.379176077930282 12.989602685889594
      vertex 201.77278502793649 -85.879176077930282 12.989602685889594
      vertex 201.77278502793649 -88.379176077930282 12.989602685889594
    endloop
  endfacet
  facet normal 1 0 0
    outer loop
      vertex 204.02278502793649 -90.879175839511703 2.9896026858895937
      vertex 204.02278502793649 -81.379176077930282 2.9896026858895937
      vertex 204.02278502793649 -90.879175839511703 12.989602685889594
    endloop
  endfacet
  facet normal 1 0 -0
    outer loop
      vertex 204.02278502793649 -90.879175839511703 12.989602685889594
      vertex 204.02278502793649 -81.379176077930282 2.9896026858895937
      vertex 204.02278502793649 -81.379176077930282 15.989602685889594
    endloop
  endfacet
  facet normal 1 0 0
    outer loop
      vertex 204.02278502793649 -90.879175839511703 12.989602685889594
      vertex 204.02278502793649 -81.379176077930282 15.989602685889594
      vertex 204.02278502793649 -93.379176077930282 15.989602685889594
    endloop
  endfacet
  facet normal 1 0 0
    outer loop
      vertex 204.02278502793649 -93.379176077930282 15.989602685889594
      vertex 204.02278502793649 -93.379176077930282 12.989602685889594
      vertex 204.02278502793649 -90.879175839511703 12.989602685889594
    endloop
  endfacet
  facet normal 0 -1 -0
    outer loop
      vertex 169.02280028672556 -93.379176077930282 12.989602685889594
      vertex 204.02278502793649 -93.379176077930282 12.989602685889594
      vertex 169.02280028672556 -93.379176077930282 15.989602685889594
    endloop
  endfacet
  facet normal 0 -1 -0
    outer loop
      vertex 169.02280028672556 -93.379176077930282 15.989602685889594
      vertex 204.02278502793649 -93.379176077930282 12.989602685889594
      vertex 204.02278502793649 -93.379176077930282 15.989602685889594
    endloop
  endfacet
  facet normal -1 -0 0
    outer loop
      vertex 169.02280028672556 -93.379176077930282 12.989602685889594
      vertex 169.02280028672556 -93.379176077930282 15.989602685889594
      vertex 169.02280028672556 -90.879175839511703 12.989602685889594
    endloop
  endfacet
  facet normal -1 0 -0
    outer loop
      vertex 169.02280028672556 -90.879175839511703 12.989602685889594
      vertex 169.02280028672556 -93.379176077930282 15.989602685889594
      vertex 169.02280028672556 -81.379176077930282 15.989602685889594
    endloop
  endfacet
  facet normal -1 -0 -0
    outer loop
      vertex 169.02280028672556 -90.879175839511703 12.989602685889594
      vertex 169.02280028672556 -81.379176077930282 15.989602685889594
      vertex 169.02280028672556 -81.379176077930282 2.9896026858895937
    endloop
  endfacet
  facet normal -1 0 0
    outer loop
      vertex 169.02280028672556 -81.379176077930282 2.9896026858895937
      vertex 169.02280028672556 -90.879175839511703 2.9896026858895937
      vertex 169.02280028672556 -90.879175839511703 12.989602685889594
    endloop
  endfacet
  facet normal -0 1 0
    outer loop
      vertex 171.02280028672556 -81.379176077930282 2.9896026858895937
      vertex 169.02280028672556 -81.379176077930282 2.9896026858895937
      vertex 171.02280028672556 -81.379176077930282 12.989602685889594
    endloop
  endfacet
  facet normal -0 1 -0
    outer loop
      vertex 171.02280028672556 -81.379176077930282 12.989602685889594
      vertex 169.02280028672556 -81.379176077930282 2.9896026858895937
      vertex 169.02280028672556 -81.379176077930282 15.989602685889594
    endloop
  endfacet
  facet normal 0 1 0
    outer loop
      vertex 171.02280028672556 -81.379176077930282 12.989602685889594
      vertex 169.02280028672556 -81.379176077930282 15.989602685889594
      vertex 201.77278502793649 -81.379176077930282 12.989602685889594
    endloop
  endfacet
  facet normal -0 1 0
    outer loop
      vertex 201.77278502793649 -81.379176077930282 12.989602685889594
      vertex 169.02280028672556 -81.379176077930282 15.989602685889594
      vertex 204.02278502793649 -81.379176077930282 15.989602685889594
    endloop
  endfacet
  facet normal 0 1 0
    outer loop
      vertex 201.77278502793649 -81.379176077930282 12.989602685889594
      vertex 204.02278502793649 -81.379176077930282 15.989602685889594
      vertex 204.02278502793649 -81.379176077930282 2.9896026858895937
    endloop
  endfacet
  facet normal -0 1 -0
    outer loop
      vertex 204.02278502793649 -81.379176077930282 2.9896026858895937
      vertex 201.77278502793649 -81.379176077930282 2.9896026858895937
      vertex 201.77278502793649 -81.379176077930282 12.989602685889594
    endloop
  endfacet
  facet normal 0 -0 1
    outer loop
      vertex 204.02278502793649 -81.379176077930282 15.989602685889594
      vertex 169.02280028672556 -81.379176077930282 15.989602685889594
      vertex 204.02278502793649 -93.379176077930282 15.989602685889594
    endloop
  endfacet
  facet normal 0 -0 1
    outer loop
      vertex 204.02278502793649 -93.379176077930282 15.989602685889594
      vertex 169.02280028672556 -81.379176077930282 15.989602685889594
      vertex 169.02280028672556 -93.379176077930282 15.989602685889594
    endloop
  endfacet
endsolid OBJECT
