solid meeples la villa y colt expresa
facet normal -0.0 -0.0 -1.0
  outer loop
    vertex 103.54151481118106 -24.495859647182385 0.0
    vertex 103.4566253193693 -25.819345775021045 0.0
    vertex 103.42481255309434 -25.599568538526537 0.0
  endloop
endfacet
facet normal -0.0 -0.0 -1.0
  outer loop
    vertex 103.4566253193693 -25.819345775021045 0.0
    vertex 103.54151481118106 -24.495859647182385 0.0
    vertex 103.5123917995929 -25.928707995289884 0.0
  endloop
endfacet
facet normal -0.0 -0.0 -1.0
  outer loop
    vertex 103.5123917995929 -25.928707995289884 0.0
    vertex 103.54151481118106 -24.495859647182385 0.0
    vertex 104.15122352179807 -26.657982881707873 0.0
  endloop
endfacet
facet normal -0.0 -0.0 -1.0
  outer loop
    vertex 104.15122352179807 -26.657982881707873 0.0
    vertex 103.54151481118106 -24.495859647182385 0.0
    vertex 104.38257630195663 -21.362568625502576 0.0
  endloop
endfacet
facet normal -0.0 -0.0 -1.0
  outer loop
    vertex 98.10928271151728 -16.92669103928567 0.0
    vertex 98.04522462163519 -17.547552264168207 0.0
    vertex 98.01290231449529 -17.239503472282756 0.0
  endloop
endfacet
facet normal -0.0 -0.0 -1.0
  outer loop
    vertex 98.04522462163519 -17.547552264168207 0.0
    vertex 98.10928271151728 -16.92669103928567 0.0
    vertex 98.25012720634349 -17.986950381322064 0.0
  endloop
endfacet
facet normal -0.0 -0.0 -1.0
  outer loop
    vertex 98.25012720634349 -17.986950381322064 0.0
    vertex 98.10928271151728 -16.92669103928567 0.0
    vertex 98.23233752260037 -16.764018428370772 0.0
  endloop
endfacet
facet normal -0.0 -0.0 -1.0
  outer loop
    vertex 98.25012720634349 -17.986950381322064 0.0
    vertex 98.23233752260037 -16.764018428370772 0.0
    vertex 98.46765025859068 -16.576134307677613 0.0
  endloop
endfacet
facet normal -0.0 -0.0 -1.0
  outer loop
    vertex 98.25012720634349 -17.986950381322064 0.0
    vertex 98.46765025859068 -16.576134307677613 0.0
    vertex 98.46765025859068 -18.265010124021167 0.0
  endloop
endfacet
facet normal -0.0 -0.0 -1.0
  outer loop
    vertex 98.46765025859068 -18.265010124021167 0.0
    vertex 98.46765025859068 -16.576134307677613 0.0
    vertex 101.70659308970633 -16.576134307677613 0.0
  endloop
endfacet
facet normal -0.0 -0.0 -1.0
  outer loop
    vertex 98.46765025859068 -18.265010124021167 0.0
    vertex 101.70659308970633 -16.576134307677613 0.0
    vertex 100.68863951061121 -18.265010124021167 0.0
  endloop
endfacet
facet normal -0.0 -0.0 -1.0
  outer loop
    vertex 100.68863951061121 -18.265010124021167 0.0
    vertex 101.70659308970633 -16.576134307677613 0.0
    vertex 101.48690640929966 -19.684745429418758 0.0
  endloop
endfacet
facet normal -0.0 -0.0 -1.0
  outer loop
    vertex 101.48690640929966 -19.684745429418758 0.0
    vertex 101.70659308970633 -16.576134307677613 0.0
    vertex 102.14271685507858 -20.396303462424488 0.0
  endloop
endfacet
facet normal -0.0 -0.0 -1.0
  outer loop
    vertex 102.14271685507858 -20.396303462424488 0.0
    vertex 101.70659308970633 -16.576134307677613 0.0
    vertex 102.73482858509027 -17.175081393617006 0.0
  endloop
endfacet
facet normal -0.0 -0.0 -1.0
  outer loop
    vertex 102.14271685507858 -20.396303462424488 0.0
    vertex 102.73482858509027 -17.175081393617006 0.0
    vertex 102.72681969175524 -20.785851864750793 0.0
  endloop
endfacet
facet normal -0.0 -0.0 -1.0
  outer loop
    vertex 102.72681969175524 -20.785851864750793 0.0
    vertex 102.73482858509027 -17.175081393617006 0.0
    vertex 103.26223375568057 -20.986369536926 0.0
  endloop
endfacet
facet normal -0.0 -0.0 -1.0
  outer loop
    vertex 103.26223375568057 -20.986369536926 0.0
    vertex 102.73482858509027 -17.175081393617006 0.0
    vertex 103.2203151905922 -16.7376672582828 0.0
  endloop
endfacet
facet normal -0.0 -0.0 -1.0
  outer loop
    vertex 103.26223375568057 -20.986369536926 0.0
    vertex 103.2203151905922 -16.7376672582828 0.0
    vertex 103.77649461239392 -16.372847399932773 0.0
  endloop
endfacet
facet normal -0.0 -0.0 -1.0
  outer loop
    vertex 103.26223375568057 -20.986369536926 0.0
    vertex 103.77649461239392 -16.372847399932773 0.0
    vertex 104.30881587103512 -21.130592159290384 0.0
  endloop
endfacet
facet normal -0.0 -0.0 -1.0
  outer loop
    vertex 104.30881587103512 -21.130592159290384 0.0
    vertex 103.77649461239392 -16.372847399932773 0.0
    vertex 104.70379503270313 -15.99465738038832 0.0
  endloop
endfacet
facet normal -0.0 -0.0 -1.0
  outer loop
    vertex 104.30881587103512 -21.130592159290384 0.0
    vertex 104.70379503270313 -15.99465738038832 0.0
    vertex 104.38633275089668 -21.19163347734226 0.0
  endloop
endfacet
facet normal -0.0 -0.0 -1.0
  outer loop
    vertex 105.24115312084577 -11.159902160346403 0.0
    vertex 103.97385259373328 -12.208702356951605 0.0
    vertex 103.97385259373328 -11.159902160346403 0.0
  endloop
endfacet
facet normal -0.0 -0.0 -1.0
  outer loop
    vertex 103.97385259373328 -12.208702356951605 0.0
    vertex 105.24115312084577 -11.159902160346403 0.0
    vertex 104.12572839990767 -12.389588685377205 0.0
  endloop
endfacet
facet normal -0.0 -0.0 -1.0
  outer loop
    vertex 104.12572839990767 -12.389588685377205 0.0
    vertex 105.24115312084577 -11.159902160346403 0.0
    vertex 104.30180244318403 -12.527991396099004 0.0
  endloop
endfacet
facet normal -0.0 -0.0 -1.0
  outer loop
    vertex 104.30180244318403 -12.527991396099004 0.0
    vertex 105.24115312084577 -11.159902160346403 0.0
    vertex 105.08259049678712 -12.90648022901735 0.0
  endloop
endfacet
facet normal -0.0 -0.0 -1.0
  outer loop
    vertex 105.08259049678712 -12.90648022901735 0.0
    vertex 105.24115312084577 -11.159902160346403 0.0
    vertex 105.1127302556257 -12.952129183739885 0.0
  endloop
endfacet
facet normal -0.0 -0.0 -1.0
  outer loop
    vertex 105.1127302556257 -12.952129183739885 0.0
    vertex 105.24115312084577 -11.159902160346403 0.0
    vertex 105.12429363828034 -14.439371989617324 0.0
  endloop
endfacet
facet normal -0.0 -0.0 -1.0
  outer loop
    vertex 105.12429363828034 -14.439371989617324 0.0
    vertex 105.24115312084577 -11.159902160346403 0.0
    vertex 105.35657326108405 -15.124502411904558 0.0
  endloop
endfacet
facet normal -0.0 -0.0 -1.0
  outer loop
    vertex 105.35657326108405 -15.124502411904558 0.0
    vertex 105.24115312084577 -11.159902160346403 0.0
    vertex 105.49821253759397 -9.183116183687796 0.0
  endloop
endfacet
facet normal -0.0 -0.0 -1.0
  outer loop
    vertex 105.35657326108405 -15.124502411904558 0.0
    vertex 105.49821253759397 -9.183116183687796 0.0
    vertex 105.67558259701521 -15.840945696115941 0.0
  endloop
endfacet
facet normal -0.0 -0.0 -1.0
  outer loop
    vertex 105.67558259701521 -15.840945696115941 0.0
    vertex 105.49821253759397 -9.183116183687796 0.0
    vertex 105.91373859329089 -8.711307239189454 0.0
  endloop
endfacet
facet normal -0.0 -0.0 -1.0
  outer loop
    vertex 110.91701500112671 -11.170183425152615 0.0
    vertex 109.78531667799939 -12.94095147881201 0.0
    vertex 109.66256692366557 -11.170183425152615 0.0
  endloop
endfacet
facet normal -0.0 -0.0 -1.0
  outer loop
    vertex 109.78531667799939 -12.94095147881201 0.0
    vertex 110.91701500112671 -11.170183425152615 0.0
    vertex 110.74144129652294 -12.421374089380995 0.0
  endloop
endfacet
facet normal -0.0 -0.0 -1.0
  outer loop
    vertex 110.74144129652294 -12.421374089380995 0.0
    vertex 110.91701500112671 -11.170183425152615 0.0
    vertex 110.91701500112671 -12.218983621757816 0.0
  endloop
endfacet
facet normal -0.0 -0.0 -1.0
  outer loop
    vertex 110.91701500112671 -12.218983621757816 0.0
    vertex 110.91701500112671 -11.170183425152615 0.0
    vertex 110.96679001261079 -11.561719283872685 0.0
  endloop
endfacet
facet normal -0.0 -0.0 -1.0
  outer loop
    vertex 109.30287466806568 -8.938815403089786 0.0
    vertex 109.21528412920131 -15.851226960922151 0.0
    vertex 109.15716145340599 -8.75764415958676 0.0
  endloop
endfacet
facet normal -0.0 -0.0 -1.0
  outer loop
    vertex 109.21528412920131 -15.851226960922151 0.0
    vertex 109.30287466806568 -8.938815403089786 0.0
    vertex 109.46510774535507 -15.30816492504802 0.0
  endloop
endfacet
facet normal -0.0 -0.0 -1.0
  outer loop
    vertex 109.46510774535507 -15.30816492504802 0.0
    vertex 109.30287466806568 -8.938815403089786 0.0
    vertex 109.38700192518101 -9.113162583031002 0.0
  endloop
endfacet
facet normal -0.0 -0.0 -1.0
  outer loop
    vertex 109.46510774535507 -15.30816492504802 0.0
    vertex 109.38700192518101 -9.113162583031002 0.0
    vertex 109.66256692366557 -11.170183425152615 0.0
  endloop
endfacet
facet normal -0.0 -0.0 -1.0
  outer loop
    vertex 109.46510774535507 -15.30816492504802 0.0
    vertex 109.66256692366557 -11.170183425152615 0.0
    vertex 109.842889502441 -14.145878188699504 0.0
  endloop
endfacet
facet normal -0.0 -0.0 -1.0
  outer loop
    vertex 109.842889502441 -14.145878188699504 0.0
    vertex 109.66256692366557 -11.170183425152615 0.0
    vertex 109.79109663203965 -13.064708859639195 0.0
  endloop
endfacet
facet normal -0.0 -0.0 -1.0
  outer loop
    vertex 109.79109663203965 -13.064708859639195 0.0
    vertex 109.66256692366557 -11.170183425152615 0.0
    vertex 109.78531667799939 -12.94095147881201 0.0
  endloop
endfacet
facet normal -0.0 -0.0 -1.0
  outer loop
    vertex 109.842889502441 -14.145878188699504 0.0
    vertex 109.79109663203965 -13.064708859639195 0.0
    vertex 109.87480694026114 -13.289096855984278 0.0
  endloop
endfacet
facet normal -0.0 -0.0 -1.0
  outer loop
    vertex 109.842889502441 -14.145878188699504 0.0
    vertex 109.87480694026114 -13.289096855984278 0.0
    vertex 109.90553520509047 -13.551382032201394 0.0
  endloop
endfacet
facet normal -0.0 -0.0 -1.0
  outer loop
    vertex 110.50500955765182 -16.106677649855115 0.0
    vertex 110.49892210380236 -21.28483545340235 0.0
    vertex 109.86417995533051 -15.92844937062747 0.0
  endloop
endfacet
facet normal -0.0 -0.0 -1.0
  outer loop
    vertex 110.49892210380236 -21.28483545340235 0.0
    vertex 110.50500955765182 -16.106677649855115 0.0
    vertex 110.54707101460062 -21.167589424466637 0.0
  endloop
endfacet
facet normal -0.0 -0.0 -1.0
  outer loop
    vertex 110.54707101460062 -21.167589424466637 0.0
    vertex 110.50500955765182 -16.106677649855115 0.0
    vertex 111.40032912916328 -16.555359829044182 0.0
  endloop
endfacet
facet normal -0.0 -0.0 -1.0
  outer loop
    vertex 110.54707101460062 -21.167589424466637 0.0
    vertex 111.40032912916328 -16.555359829044182 0.0
    vertex 110.67475466417774 -21.123757672006228 0.0
  endloop
endfacet
facet normal -0.0 -0.0 -1.0
  outer loop
    vertex 110.67475466417774 -21.123757672006228 0.0
    vertex 111.40032912916328 -16.555359829044182 0.0
    vertex 111.5385146790029 -21.024725360581208 0.0
  endloop
endfacet
facet normal -0.0 -0.0 -1.0
  outer loop
    vertex 111.5385146790029 -21.024725360581208 0.0
    vertex 111.40032912916328 -16.555359829044182 0.0
    vertex 112.15603857544801 -17.185362658423216 0.0
  endloop
endfacet
facet normal -0.0 -0.0 -1.0
  outer loop
    vertex 111.5385146790029 -21.024725360581208 0.0
    vertex 112.15603857544801 -17.185362658423216 0.0
    vertex 112.1256734036137 -20.82258506229431 0.0
  endloop
endfacet
facet normal -0.0 -0.0 -1.0
  outer loop
    vertex 112.1256734036137 -20.82258506229431 0.0
    vertex 112.15603857544801 -17.185362658423216 0.0
    vertex 112.7091820881167 -20.44851936222433 0.0
  endloop
endfacet
facet normal -0.0 -0.0 -1.0
  outer loop
    vertex 112.7091820881167 -20.44851936222433 0.0
    vertex 112.15603857544801 -17.185362658423216 0.0
    vertex 113.18427450515371 -16.586415572483826 0.0
  endloop
endfacet
facet normal -0.0 -0.0 -1.0
  outer loop
    vertex 112.7091820881167 -20.44851936222433 0.0
    vertex 113.18427450515371 -16.586415572483826 0.0
    vertex 113.31772073590051 -19.82159153093705 0.0
  endloop
endfacet
facet normal -0.0 -0.0 -1.0
  outer loop
    vertex 113.31772073590051 -19.82159153093705 0.0
    vertex 113.18427450515371 -16.586415572483826 0.0
    vertex 114.21251043485942 -18.27529138882738 0.0
  endloop
endfacet
facet normal -0.0 -0.0 -1.0
  outer loop
    vertex 114.21251043485942 -18.27529138882738 0.0
    vertex 113.18427450515371 -16.586415572483826 0.0
    vertex 116.43349990404083 -16.586415572483826 0.0
  endloop
endfacet
facet normal -0.0 -0.0 -1.0
  outer loop
    vertex 113.31772073590051 -19.82159153093705 0.0
    vertex 114.21251043485942 -18.27529138882738 0.0
    vertex 113.77080520049326 -19.151214150342003 0.0
  endloop
endfacet
facet normal -0.0 -0.0 -1.0
  outer loop
    vertex 114.21251043485942 -18.27529138882738 0.0
    vertex 116.43349990404083 -16.586415572483826 0.0
    vertex 116.43349990404083 -18.27529138882738 0.0
  endloop
endfacet
facet normal -0.0 -0.0 -1.0
  outer loop
    vertex 116.43349990404083 -18.27529138882738 0.0
    vertex 116.43349990404083 -16.586415572483826 0.0
    vertex 116.66833420746259 -16.77379935450443 0.0
  endloop
endfacet
facet normal -0.0 -0.0 -1.0
  outer loop
    vertex 116.43349990404083 -18.27529138882738 0.0
    vertex 116.66833420746259 -16.77379935450443 0.0
    vertex 116.66199658427688 -17.98024445328016 0.0
  endloop
endfacet
facet normal -0.0 -0.0 -1.0
  outer loop
    vertex 116.66199658427688 -17.98024445328016 0.0
    vertex 116.66833420746259 -16.77379935450443 0.0
    vertex 116.81908729187607 -17.6718447294091 0.0
  endloop
endfacet
facet normal -0.0 -0.0 -1.0
  outer loop
    vertex 116.81908729187607 -17.6718447294091 0.0
    vertex 116.66833420746259 -16.77379935450443 0.0
    vertex 116.85619053156285 -17.082595179824605 0.0
  endloop
endfacet
facet normal -0.0 -0.0 -1.0
  outer loop
    vertex 116.81908729187607 -17.6718447294091 0.0
    vertex 116.85619053156285 -17.082595179824605 0.0
    vertex 116.88193191389364 -17.4309351331473 0.0
  endloop
endfacet
facet normal -0.0 -0.0 -1.0
  outer loop
    vertex 111.09649760160985 -23.359510606602154 0.0
    vertex 110.7499262065117 -26.668267621088194 0.0
    vertex 110.49892210380236 -21.28483545340235 0.0
  endloop
endfacet
facet normal -0.0 -0.0 -1.0
  outer loop
    vertex 110.7499262065117 -26.668267621088194 0.0
    vertex 111.09649760160985 -23.359510606602154 0.0
    vertex 111.44617613461037 -25.82206636655308 0.0
  endloop
endfacet
facet normal -0.0 -0.0 -1.0
  outer loop
    vertex 111.44617613461037 -25.82206636655308 0.0
    vertex 111.09649760160985 -23.359510606602154 0.0
    vertex 111.38806735711154 -24.669293014131362 0.0
  endloop
endfacet
facet normal -0.0 -0.0 -1.0
  outer loop
    vertex 111.44617613461037 -25.82206636655308 0.0
    vertex 111.38806735711154 -24.669293014131362 0.0
    vertex 111.47679147578094 -25.443157110166826 0.0
  endloop
endfacet
facet normal -0.0 -0.0 -1.0
  outer loop
    vertex 103.13575057146019 -27.177379593284922 0.0
    vertex 106.22054783086081 -28.2646016304535 0.0
    vertex 103.12298759209234 -28.2646016304535 0.0
  endloop
endfacet
facet normal -0.0 -0.0 -1.0
  outer loop
    vertex 106.22054783086081 -28.2646016304535 0.0
    vertex 103.13575057146019 -27.177379593284922 0.0
    vertex 103.3394691950388 -26.98030522405765 0.0
  endloop
endfacet
facet normal -0.0 -0.0 -1.0
  outer loop
    vertex 106.22054783086081 -28.2646016304535 0.0
    vertex 103.3394691950388 -26.98030522405765 0.0
    vertex 104.15122352179807 -26.657982881707873 0.0
  endloop
endfacet
facet normal -0.0 -0.0 -1.0
  outer loop
    vertex 106.22054783086081 -28.2646016304535 0.0
    vertex 104.15122352179807 -26.657982881707873 0.0
    vertex 104.38257630195663 -21.362568625502576 0.0
  endloop
endfacet
facet normal -0.0 -0.0 -1.0
  outer loop
    vertex 106.22054783086081 -28.2646016304535 0.0
    vertex 104.38257630195663 -21.362568625502576 0.0
    vertex 104.38633275089668 -21.19163347734226 0.0
  endloop
endfacet
facet normal -0.0 -0.0 -1.0
  outer loop
    vertex 106.22054783086081 -28.2646016304535 0.0
    vertex 104.38633275089668 -21.19163347734226 0.0
    vertex 104.70379503270313 -15.99465738038832 0.0
  endloop
endfacet
facet normal -0.0 -0.0 -1.0
  outer loop
    vertex 106.22054783086081 -28.2646016304535 0.0
    vertex 104.70379503270313 -15.99465738038832 0.0
    vertex 105.67558259701521 -15.840945696115941 0.0
  endloop
endfacet
facet normal -0.0 -0.0 -1.0
  outer loop
    vertex 106.22054783086081 -28.2646016304535 0.0
    vertex 105.67558259701521 -15.840945696115941 0.0
    vertex 105.91373859329089 -8.711307239189454 0.0
  endloop
endfacet
facet normal -0.0 -0.0 -1.0
  outer loop
    vertex 106.22054783086081 -28.2646016304535 0.0
    vertex 105.91373859329089 -8.711307239189454 0.0
    vertex 106.2354737326152 -8.51014329622886 0.0
  endloop
endfacet
facet normal -0.0 -0.0 -1.0
  outer loop
    vertex 106.22054783086081 -28.2646016304535 0.0
    vertex 106.2354737326152 -8.51014329622886 0.0
    vertex 106.96344825967068 -26.303242762865388 0.0
  endloop
endfacet
facet normal -0.0 -0.0 -1.0
  outer loop
    vertex 106.96344825967068 -26.303242762865388 0.0
    vertex 106.2354737326152 -8.51014329622886 0.0
    vertex 106.72516717872686 -8.335375692819735 0.0
  endloop
endfacet
facet normal -0.0 -0.0 -1.0
  outer loop
    vertex 106.96344825967068 -26.303242762865388 0.0
    vertex 106.72516717872686 -8.335375692819735 0.0
    vertex 107.4518604565774 -8.262847432743746 0.0
  endloop
endfacet
facet normal -0.0 -0.0 -1.0
  outer loop
    vertex 106.96344825967068 -26.303242762865388 0.0
    vertex 107.4518604565774 -8.262847432743746 0.0
    vertex 107.19423034103085 -25.995913207821737 0.0
  endloop
endfacet
facet normal -0.0 -0.0 -1.0
  outer loop
    vertex 107.19423034103085 -25.995913207821737 0.0
    vertex 107.4518604565774 -8.262847432743746 0.0
    vertex 107.31511946092611 -25.910515125223874 0.0
  endloop
endfacet
facet normal -0.0 -0.0 -1.0
  outer loop
    vertex 107.31511946092611 -25.910515125223874 0.0
    vertex 107.4518604565774 -8.262847432743746 0.0
    vertex 107.54284912892628 -25.88575531008057 0.0
  endloop
endfacet
facet normal -0.0 -0.0 -1.0
  outer loop
    vertex 107.54284912892628 -25.88575531008057 0.0
    vertex 107.4518604565774 -8.262847432743746 0.0
    vertex 108.18819220302292 -8.314938247875451 0.0
  endloop
endfacet
facet normal -0.0 -0.0 -1.0
  outer loop
    vertex 107.54284912892628 -25.88575531008057 0.0
    vertex 108.18819220302292 -8.314938247875451 0.0
    vertex 107.62108263969907 -25.924764353669392 0.0
  endloop
endfacet
facet normal -0.0 -0.0 -1.0
  outer loop
    vertex 107.62108263969907 -25.924764353669392 0.0
    vertex 108.18819220302292 -8.314938247875451 0.0
    vertex 107.9377014686391 -26.3135240276716 0.0
  endloop
endfacet
facet normal -0.0 -0.0 -1.0
  outer loop
    vertex 107.9377014686391 -26.3135240276716 0.0
    vertex 108.18819220302292 -8.314938247875451 0.0
    vertex 108.68060189744895 -28.27488636983384 0.0
  endloop
endfacet
facet normal -0.0 -0.0 -1.0
  outer loop
    vertex 108.68060189744895 -28.27488636983384 0.0
    vertex 108.18819220302292 -8.314938247875451 0.0
    vertex 108.62196064146698 -8.429540125909671 0.0
  endloop
endfacet
facet normal -0.0 -0.0 -1.0
  outer loop
    vertex 108.68060189744895 -28.27488636983384 0.0
    vertex 108.62196064146698 -8.429540125909671 0.0
    vertex 108.93891563545264 -8.584599944938663 0.0
  endloop
endfacet
facet normal -0.0 -0.0 -1.0
  outer loop
    vertex 108.68060189744895 -28.27488636983384 0.0
    vertex 108.93891563545264 -8.584599944938663 0.0
    vertex 109.21528412920131 -15.851226960922151 0.0
  endloop
endfacet
facet normal -0.0 -0.0 -1.0
  outer loop
    vertex 108.68060189744895 -28.27488636983384 0.0
    vertex 109.21528412920131 -15.851226960922151 0.0
    vertex 110.7499262065117 -26.668267621088194 0.0
  endloop
endfacet
facet normal -0.0 -0.0 -1.0
  outer loop
    vertex 108.68060189744895 -28.27488636983384 0.0
    vertex 110.7499262065117 -26.668267621088194 0.0
    vertex 111.77816213621742 -28.27488636983384 0.0
  endloop
endfacet
facet normal -0.0 -0.0 -1.0
  outer loop
    vertex 109.21528412920131 -15.851226960922151 0.0
    vertex 108.93891563545264 -8.584599944938663 0.0
    vertex 109.15716145340599 -8.75764415958676 0.0
  endloop
endfacet
facet normal -0.0 -0.0 -1.0
  outer loop
    vertex 110.7499262065117 -26.668267621088194 0.0
    vertex 109.21528412920131 -15.851226960922151 0.0
    vertex 109.86417995533051 -15.92844937062747 0.0
  endloop
endfacet
facet normal -0.0 -0.0 -1.0
  outer loop
    vertex 110.7499262065117 -26.668267621088194 0.0
    vertex 109.86417995533051 -15.92844937062747 0.0
    vertex 110.49892210380236 -21.28483545340235 0.0
  endloop
endfacet
facet normal -0.0 -0.0 -1.0
  outer loop
    vertex 111.77816213621742 -28.27488636983384 0.0
    vertex 110.7499262065117 -26.668267621088194 0.0
    vertex 111.08773733162249 -26.77310594585934 0.0
  endloop
endfacet
facet normal -0.0 -0.0 -1.0
  outer loop
    vertex 111.77816213621742 -28.27488636983384 0.0
    vertex 111.08773733162249 -26.77310594585934 0.0
    vertex 111.64103198826523 -27.04904967292243 0.0
  endloop
endfacet
facet normal -0.0 -0.0 -1.0
  outer loop
    vertex 111.77816213621742 -28.27488636983384 0.0
    vertex 111.64103198826523 -27.04904967292243 0.0
    vertex 111.77816213621742 -27.218372618693387 0.0
  endloop
endfacet
facet normal -0.0 -0.0 -1.0
  outer loop
    vertex 104.99379558367012 -13.42783660039523 0.0
    vertex 105.12429363828034 -14.439371989617324 0.0
    vertex 104.9914819516313 -13.723338705151507 0.0
  endloop
endfacet
facet normal -0.0 -0.0 -1.0
  outer loop
    vertex 105.12429363828034 -14.439371989617324 0.0
    vertex 104.99379558367012 -13.42783660039523 0.0
    vertex 105.1127302556257 -12.952129183739885 0.0
  endloop
endfacet
facet normal -0.3690409830591526 0.9294131227945591 0.0
  outer loop
    vertex 103.3394691950388 -26.98030522405765 6.0
    vertex 104.15122352179807 -26.657982881707873 0.0
    vertex 103.3394691950388 -26.98030522405765 0.0
  endloop
endfacet
facet normal -0.3690409830591526 0.9294131227945591 0.0
  outer loop
    vertex 104.15122352179807 -26.657982881707873 0.0
    vertex 103.3394691950388 -26.98030522405765 6.0
    vertex 104.15122352179807 -26.657982881707873 6.0
  endloop
endfacet
facet normal -0.9999311041976849 0.011738264692817225 0.0
  outer loop
    vertex 103.13575057146019 -27.177379593284922 6.0
    vertex 103.12298759209234 -28.2646016304535 0.0
    vertex 103.12298759209234 -28.2646016304535 6.0
  endloop
endfacet
facet normal -0.9999311041976849 0.011738264692817225 0.0
  outer loop
    vertex 103.12298759209234 -28.2646016304535 0.0
    vertex 103.13575057146019 -27.177379593284922 6.0
    vertex 103.13575057146019 -27.177379593284922 0.0
  endloop
endfacet
facet normal 0.9351655316508217 -0.3542109942001178 0.0
  outer loop
    vertex 106.96344825967068 -26.303242762865388 0.0
    vertex 106.22054783086081 -28.2646016304535 6.0
    vertex 106.22054783086081 -28.2646016304535 0.0
  endloop
endfacet
facet normal 0.9351655316508217 -0.3542109942001178 0.0
  outer loop
    vertex 106.22054783086081 -28.2646016304535 6.0
    vertex 106.96344825967068 -26.303242762865388 0.0
    vertex 106.96344825967068 -26.303242762865388 6.0
  endloop
endfacet
facet normal 0.5769744057109963 -0.8167622268166194 0.0
  outer loop
    vertex 107.31511946092611 -25.910515125223874 6.0
    vertex 107.19423034103085 -25.995913207821737 0.0
    vertex 107.31511946092611 -25.910515125223874 0.0
  endloop
endfacet
facet normal 0.5769744057109963 -0.8167622268166194 0.0
  outer loop
    vertex 107.19423034103085 -25.995913207821737 0.0
    vertex 107.31511946092611 -25.910515125223874 6.0
    vertex 107.19423034103085 -25.995913207821737 6.0
  endloop
endfacet
facet normal -0.44622762471299904 -0.8949194974649926 0.0
  outer loop
    vertex 107.62108263969907 -25.924764353669392 6.0
    vertex 107.54284912892628 -25.88575531008057 0.0
    vertex 107.62108263969907 -25.924764353669392 0.0
  endloop
endfacet
facet normal -0.44622762471299904 -0.8949194974649926 0.0
  outer loop
    vertex 107.54284912892628 -25.88575531008057 0.0
    vertex 107.62108263969907 -25.924764353669392 6.0
    vertex 107.54284912892628 -25.88575531008057 6.0
  endloop
endfacet
facet normal 0.0 -1.0 0.0
  outer loop
    vertex 100.68863951061121 -18.265010124021167 6.0
    vertex 98.46765025859068 -18.265010124021167 0.0
    vertex 100.68863951061121 -18.265010124021167 0.0
  endloop
endfacet
facet normal 0.0 -1.0 0.0
  outer loop
    vertex 98.46765025859068 -18.265010124021167 0.0
    vertex 100.68863951061121 -18.265010124021167 6.0
    vertex 98.46765025859068 -18.265010124021167 6.0
  endloop
endfacet
facet normal -0.9658102403789693 0.25925003293947246 0.0
  outer loop
    vertex 104.38257630195663 -21.362568625502576 6.0
    vertex 103.54151481118106 -24.495859647182385 0.0
    vertex 103.54151481118106 -24.495859647182385 6.0
  endloop
endfacet
facet normal -0.9658102403789693 0.25925003293947246 0.0
  outer loop
    vertex 103.54151481118106 -24.495859647182385 0.0
    vertex 104.38257630195663 -21.362568625502576 6.0
    vertex 104.38257630195663 -21.362568625502576 0.0
  endloop
endfacet
facet normal -0.7753798215302555 -0.6314951562472265 0.0
  outer loop
    vertex 107.62108263969907 -25.924764353669392 6.0
    vertex 107.9377014686391 -26.3135240276716 0.0
    vertex 107.9377014686391 -26.3135240276716 6.0
  endloop
endfacet
facet normal -0.7753798215302555 -0.6314951562472265 0.0
  outer loop
    vertex 107.9377014686391 -26.3135240276716 0.0
    vertex 107.62108263969907 -25.924764353669392 6.0
    vertex 107.62108263969907 -25.924764353669392 0.0
  endloop
endfacet
facet normal -0.9556669465137215 0.2944498044508435 0.0
  outer loop
    vertex 98.10928271151728 -16.92669103928567 6.0
    vertex 98.01290231449529 -17.239503472282756 0.0
    vertex 98.01290231449529 -17.239503472282756 6.0
  endloop
endfacet
facet normal -0.9556669465137215 0.2944498044508435 0.0
  outer loop
    vertex 98.01290231449529 -17.239503472282756 0.0
    vertex 98.10928271151728 -16.92669103928567 6.0
    vertex 98.10928271151728 -16.92669103928567 0.0
  endloop
endfacet
facet normal -0.35072072584929637 -0.9364800972042827 0.0
  outer loop
    vertex 103.26223375568057 -20.986369536926 6.0
    vertex 102.72681969175524 -20.785851864750793 0.0
    vertex 103.26223375568057 -20.986369536926 0.0
  endloop
endfacet
facet normal -0.35072072584929637 -0.9364800972042827 0.0
  outer loop
    vertex 102.72681969175524 -20.785851864750793 0.0
    vertex 103.26223375568057 -20.986369536926 6.0
    vertex 102.72681969175524 -20.785851864750793 6.0
  endloop
endfacet
facet normal -0.7522104866429701 -0.6589228966915219 0.0
  outer loop
    vertex 103.5123917995929 -25.928707995289884 6.0
    vertex 104.15122352179807 -26.657982881707873 0.0
    vertex 104.15122352179807 -26.657982881707873 6.0
  endloop
endfacet
facet normal -0.7522104866429701 -0.6589228966915219 0.0
  outer loop
    vertex 104.15122352179807 -26.657982881707873 0.0
    vertex 103.5123917995929 -25.928707995289884 6.0
    vertex 103.5123917995929 -25.928707995289884 0.0
  endloop
endfacet
facet normal 0.7996440240049594 -0.600474341561033 0.0
  outer loop
    vertex 107.19423034103085 -25.995913207821737 0.0
    vertex 106.96344825967068 -26.303242762865388 6.0
    vertex 106.96344825967068 -26.303242762865388 0.0
  endloop
endfacet
facet normal 0.7996440240049594 -0.600474341561033 0.0
  outer loop
    vertex 106.96344825967068 -26.303242762865388 6.0
    vertex 107.19423034103085 -25.995913207821737 0.0
    vertex 107.19423034103085 -25.995913207821737 6.0
  endloop
endfacet
facet normal -0.9351657395037183 -0.35421044543952085 0.0
  outer loop
    vertex 107.9377014686391 -26.3135240276716 6.0
    vertex 108.68060189744895 -28.27488636983384 0.0
    vertex 108.68060189744895 -28.27488636983384 6.0
  endloop
endfacet
facet normal -0.9351657395037183 -0.35421044543952085 0.0
  outer loop
    vertex 108.68060189744895 -28.27488636983384 0.0
    vertex 107.9377014686391 -26.3135240276716 6.0
    vertex 107.9377014686391 -26.3135240276716 0.0
  endloop
endfacet
facet normal -0.9063015633913152 -0.42263160813462347 0.0
  outer loop
    vertex 98.04522462163519 -17.547552264168207 6.0
    vertex 98.25012720634349 -17.986950381322064 0.0
    vertex 98.25012720634349 -17.986950381322064 6.0
  endloop
endfacet
facet normal -0.9063015633913152 -0.42263160813462347 0.0
  outer loop
    vertex 98.25012720634349 -17.986950381322064 0.0
    vertex 98.04522462163519 -17.547552264168207 6.0
    vertex 98.04522462163519 -17.547552264168207 0.0
  endloop
endfacet
facet normal -0.6186684239217465 -0.7856522011947666 0.0
  outer loop
    vertex 104.38633275089668 -21.19163347734226 6.0
    vertex 104.30881587103512 -21.130592159290384 0.0
    vertex 104.38633275089668 -21.19163347734226 0.0
  endloop
endfacet
facet normal -0.6186684239217465 -0.7856522011947666 0.0
  outer loop
    vertex 104.30881587103512 -21.130592159290384 0.0
    vertex 104.38633275089668 -21.19163347734226 6.0
    vertex 104.30881587103512 -21.130592159290384 6.0
  endloop
endfacet
facet normal -0.6952889931146539 0.7187302804624353 0.0
  outer loop
    vertex 103.13575057146019 -27.177379593284922 6.0
    vertex 103.3394691950388 -26.98030522405765 0.0
    vertex 103.13575057146019 -27.177379593284922 0.0
  endloop
endfacet
facet normal -0.6952889931146539 0.7187302804624353 0.0
  outer loop
    vertex 103.3394691950388 -26.98030522405765 0.0
    vertex 103.13575057146019 -27.177379593284922 6.0
    vertex 103.3394691950388 -26.98030522405765 6.0
  endloop
endfacet
facet normal 0.0 -1.0 0.0
  outer loop
    vertex 106.22054783086081 -28.2646016304535 6.0
    vertex 103.12298759209234 -28.2646016304535 0.0
    vertex 106.22054783086081 -28.2646016304535 0.0
  endloop
endfacet
facet normal 0.0 -1.0 0.0
  outer loop
    vertex 103.12298759209234 -28.2646016304535 0.0
    vertex 106.22054783086081 -28.2646016304535 6.0
    vertex 103.12298759209234 -28.2646016304535 6.0
  endloop
endfacet
facet normal 0.10808761464271056 -0.9941413720195176 0.0
  outer loop
    vertex 107.54284912892628 -25.88575531008057 6.0
    vertex 107.31511946092611 -25.910515125223874 0.0
    vertex 107.54284912892628 -25.88575531008057 0.0
  endloop
endfacet
facet normal 0.10808761464271056 -0.9941413720195176 0.0
  outer loop
    vertex 107.31511946092611 -25.910515125223874 0.0
    vertex 107.54284912892628 -25.88575531008057 6.0
    vertex 107.31511946092611 -25.910515125223874 6.0
  endloop
endfacet
facet normal 0.0 -1.0 0.0
  outer loop
    vertex 111.77816213621742 -28.27488636983384 6.0
    vertex 108.68060189744895 -28.27488636983384 0.0
    vertex 111.77816213621742 -28.27488636983384 0.0
  endloop
endfacet
facet normal 0.0 -1.0 0.0
  outer loop
    vertex 108.68060189744895 -28.27488636983384 0.0
    vertex 111.77816213621742 -28.27488636983384 6.0
    vertex 108.68060189744895 -28.27488636983384 6.0
  endloop
endfacet
facet normal 1.0 0.0 0.0
  outer loop
    vertex 111.77816213621742 -27.218372618693387 0.0
    vertex 111.77816213621742 -28.27488636983384 6.0
    vertex 111.77816213621742 -28.27488636983384 0.0
  endloop
endfacet
facet normal 1.0 0.0 0.0
  outer loop
    vertex 111.77816213621742 -28.27488636983384 6.0
    vertex 111.77816213621742 -27.218372618693387 0.0
    vertex 111.77816213621742 -27.218372618693387 6.0
  endloop
endfacet
facet normal -0.7876272315660234 -0.616152046248036 0.0
  outer loop
    vertex 98.25012720634349 -17.986950381322064 6.0
    vertex 98.46765025859068 -18.265010124021167 0.0
    vertex 98.46765025859068 -18.265010124021167 6.0
  endloop
endfacet
facet normal -0.7876272315660234 -0.616152046248036 0.0
  outer loop
    vertex 98.46765025859068 -18.265010124021167 0.0
    vertex 98.25012720634349 -17.986950381322064 6.0
    vertex 98.25012720634349 -17.986950381322064 0.0
  endloop
endfacet
facet normal -0.8716632018936135 -0.49010535853485 0.0
  outer loop
    vertex 100.68863951061121 -18.265010124021167 6.0
    vertex 101.48690640929966 -19.684745429418758 0.0
    vertex 101.48690640929966 -19.684745429418758 6.0
  endloop
endfacet
facet normal -0.8716632018936135 -0.49010535853485 0.0
  outer loop
    vertex 101.48690640929966 -19.684745429418758 0.0
    vertex 100.68863951061121 -18.265010124021167 6.0
    vertex 100.68863951061121 -18.265010124021167 0.0
  endloop
endfacet
facet normal -0.9997586179505106 0.02197056744112777 0.0
  outer loop
    vertex 104.38633275089668 -21.19163347734226 6.0
    vertex 104.38257630195663 -21.362568625502576 0.0
    vertex 104.38257630195663 -21.362568625502576 6.0
  endloop
endfacet
facet normal -0.9997586179505106 0.02197056744112777 0.0
  outer loop
    vertex 104.38257630195663 -21.362568625502576 0.0
    vertex 104.38633275089668 -21.19163347734226 6.0
    vertex 104.38633275089668 -21.19163347734226 0.0
  endloop
endfacet
facet normal -0.7353246399949137 -0.6777150388004908 0.0
  outer loop
    vertex 101.48690640929966 -19.684745429418758 6.0
    vertex 102.14271685507858 -20.396303462424488 0.0
    vertex 102.14271685507858 -20.396303462424488 6.0
  endloop
endfacet
facet normal -0.7353246399949137 -0.6777150388004908 0.0
  outer loop
    vertex 102.14271685507858 -20.396303462424488 0.0
    vertex 101.48690640929966 -19.684745429418758 6.0
    vertex 101.48690640929966 -19.684745429418758 0.0
  endloop
endfacet
facet normal -0.9944563430664528 0.1051502816681807 0.0
  outer loop
    vertex 103.54151481118106 -24.495859647182385 6.0
    vertex 103.42481255309434 -25.599568538526537 0.0
    vertex 103.42481255309434 -25.599568538526537 6.0
  endloop
endfacet
facet normal -0.9944563430664528 0.1051502816681807 0.0
  outer loop
    vertex 103.42481255309434 -25.599568538526537 0.0
    vertex 103.54151481118106 -24.495859647182385 6.0
    vertex 103.54151481118106 -24.495859647182385 0.0
  endloop
endfacet
facet normal -0.989685517473766 -0.14325702950530583 0.0
  outer loop
    vertex 103.42481255309434 -25.599568538526537 6.0
    vertex 103.4566253193693 -25.819345775021045 0.0
    vertex 103.4566253193693 -25.819345775021045 6.0
  endloop
endfacet
facet normal -0.989685517473766 -0.14325702950530583 0.0
  outer loop
    vertex 103.4566253193693 -25.819345775021045 0.0
    vertex 103.42481255309434 -25.599568538526537 6.0
    vertex 103.42481255309434 -25.599568538526537 0.0
  endloop
endfacet
facet normal -0.5548446586344389 -0.8319539679482473 0.0
  outer loop
    vertex 102.72681969175524 -20.785851864750793 6.0
    vertex 102.14271685507858 -20.396303462424488 0.0
    vertex 102.72681969175524 -20.785851864750793 0.0
  endloop
endfacet
facet normal -0.5548446586344389 -0.8319539679482473 0.0
  outer loop
    vertex 102.14271685507858 -20.396303462424488 0.0
    vertex 102.72681969175524 -20.785851864750793 6.0
    vertex 102.14271685507858 -20.396303462424488 6.0
  endloop
endfacet
facet normal -0.9945403141859105 -0.10435307115265263 0.0
  outer loop
    vertex 98.01290231449529 -17.239503472282756 6.0
    vertex 98.04522462163519 -17.547552264168207 0.0
    vertex 98.04522462163519 -17.547552264168207 6.0
  endloop
endfacet
facet normal -0.9945403141859105 -0.10435307115265263 0.0
  outer loop
    vertex 98.04522462163519 -17.547552264168207 0.0
    vertex 98.01290231449529 -17.239503472282756 6.0
    vertex 98.01290231449529 -17.239503472282756 0.0
  endloop
endfacet
facet normal -0.13651336210771525 -0.9906382296106122 0.0
  outer loop
    vertex 104.30881587103512 -21.130592159290384 6.0
    vertex 103.26223375568057 -20.986369536926 0.0
    vertex 104.30881587103512 -21.130592159290384 0.0
  endloop
endfacet
facet normal -0.13651336210771525 -0.9906382296106122 0.0
  outer loop
    vertex 103.26223375568057 -20.986369536926 0.0
    vertex 104.30881587103512 -21.130592159290384 6.0
    vertex 103.26223375568057 -20.986369536926 6.0
  endloop
endfacet
facet normal -0.8908626614356481 -0.4542727357654143 0.0
  outer loop
    vertex 103.4566253193693 -25.819345775021045 6.0
    vertex 103.5123917995929 -25.928707995289884 0.0
    vertex 103.5123917995929 -25.928707995289884 6.0
  endloop
endfacet
facet normal -0.8908626614356481 -0.4542727357654143 0.0
  outer loop
    vertex 103.5123917995929 -25.928707995289884 0.0
    vertex 103.4566253193693 -25.819345775021045 6.0
    vertex 103.4566253193693 -25.819345775021045 0.0
  endloop
endfacet
facet normal 0.3255182493550655 -0.9455357578308783 0.0
  outer loop
    vertex 112.1256734036137 -20.82258506229431 6.0
    vertex 111.5385146790029 -21.024725360581208 0.0
    vertex 112.1256734036137 -20.82258506229431 0.0
  endloop
endfacet
facet normal 0.3255182493550655 -0.9455357578308783 0.0
  outer loop
    vertex 111.5385146790029 -21.024725360581208 0.0
    vertex 112.1256734036137 -20.82258506229431 6.0
    vertex 111.5385146790029 -21.024725360581208 6.0
  endloop
endfacet
facet normal 0.9934916928222451 0.11390459294159151 0.0
  outer loop
    vertex 111.38806735711154 -24.669293014131362 0.0
    vertex 111.47679147578094 -25.443157110166826 6.0
    vertex 111.47679147578094 -25.443157110166826 0.0
  endloop
endfacet
facet normal 0.9934916928222451 0.11390459294159151 0.0
  outer loop
    vertex 111.47679147578094 -25.443157110166826 6.0
    vertex 111.38806735711154 -24.669293014131362 0.0
    vertex 111.38806735711154 -24.669293014131362 6.0
  endloop
endfacet
facet normal 0.5396882752814139 -0.8418649330645462 0.0
  outer loop
    vertex 112.7091820881167 -20.44851936222433 6.0
    vertex 112.1256734036137 -20.82258506229431 0.0
    vertex 112.7091820881167 -20.44851936222433 0.0
  endloop
endfacet
facet normal 0.5396882752814139 -0.8418649330645462 0.0
  outer loop
    vertex 112.1256734036137 -20.82258506229431 0.0
    vertex 112.7091820881167 -20.44851936222433 6.0
    vertex 112.1256734036137 -20.82258506229431 6.0
  endloop
endfacet
facet normal 0.7175521641037003 -0.6965047679593418 0.0
  outer loop
    vertex 113.31772073590051 -19.82159153093705 0.0
    vertex 112.7091820881167 -20.44851936222433 6.0
    vertex 112.7091820881167 -20.44851936222433 0.0
  endloop
endfacet
facet normal 0.7175521641037003 -0.6965047679593418 0.0
  outer loop
    vertex 112.7091820881167 -20.44851936222433 6.0
    vertex 113.31772073590051 -19.82159153093705 0.0
    vertex 113.31772073590051 -19.82159153093705 6.0
  endloop
endfacet
facet normal 0.7906286888151838 -0.6122959059330572 0.0
  outer loop
    vertex 116.66199658427688 -17.98024445328016 0.0
    vertex 116.43349990404083 -18.27529138882738 6.0
    vertex 116.43349990404083 -18.27529138882738 0.0
  endloop
endfacet
facet normal 0.7906286888151838 -0.6122959059330572 0.0
  outer loop
    vertex 116.43349990404083 -18.27529138882738 6.0
    vertex 116.66199658427688 -17.98024445328016 0.0
    vertex 116.66199658427688 -17.98024445328016 6.0
  endloop
endfacet
facet normal 0.9676186062026436 -0.25241678416946356 0.0
  outer loop
    vertex 116.88193191389364 -17.4309351331473 0.0
    vertex 116.81908729187607 -17.6718447294091 6.0
    vertex 116.81908729187607 -17.6718447294091 0.0
  endloop
endfacet
facet normal 0.9676186062026436 -0.25241678416946356 0.0
  outer loop
    vertex 116.81908729187607 -17.6718447294091 6.0
    vertex 116.88193191389364 -17.4309351331473 0.0
    vertex 116.88193191389364 -17.4309351331473 6.0
  endloop
endfacet
facet normal 0.9972807264879601 0.07369635388298898 0.0
  outer loop
    vertex 116.85619053156285 -17.082595179824605 0.0
    vertex 116.88193191389364 -17.4309351331473 6.0
    vertex 116.88193191389364 -17.4309351331473 0.0
  endloop
endfacet
facet normal 0.9972807264879601 0.07369635388298898 0.0
  outer loop
    vertex 116.88193191389364 -17.4309351331473 6.0
    vertex 116.85619053156285 -17.082595179824605 0.0
    vertex 116.85619053156285 -17.082595179824605 6.0
  endloop
endfacet
facet normal 0.8543292113356334 0.5197322374633255 0.0
  outer loop
    vertex 116.66833420746259 -16.77379935450443 0.0
    vertex 116.85619053156285 -17.082595179824605 6.0
    vertex 116.85619053156285 -17.082595179824605 0.0
  endloop
endfacet
facet normal 0.8543292113356334 0.5197322374633255 0.0
  outer loop
    vertex 116.85619053156285 -17.082595179824605 6.0
    vertex 116.66833420746259 -16.77379935450443 0.0
    vertex 116.66833420746259 -16.77379935450443 6.0
  endloop
endfacet
facet normal 0.7771119992441688 0.6293623285761001 0.0
  outer loop
    vertex 111.64103198826523 -27.04904967292243 0.0
    vertex 111.77816213621742 -27.218372618693387 6.0
    vertex 111.77816213621742 -27.218372618693387 0.0
  endloop
endfacet
facet normal 0.7771119992441688 0.6293623285761001 0.0
  outer loop
    vertex 111.77816213621742 -27.218372618693387 6.0
    vertex 111.64103198826523 -27.04904967292243 0.0
    vertex 111.64103198826523 -27.04904967292243 6.0
  endloop
endfacet
facet normal 0.9250356447575254 -0.3798803179002952 0.0
  outer loop
    vertex 110.54707101460062 -21.167589424466637 0.0
    vertex 110.49892210380236 -21.28483545340235 6.0
    vertex 110.49892210380236 -21.28483545340235 0.0
  endloop
endfacet
facet normal 0.9250356447575254 -0.3798803179002952 0.0
  outer loop
    vertex 110.49892210380236 -21.28483545340235 6.0
    vertex 110.54707101460062 -21.167589424466637 0.0
    vertex 110.54707101460062 -21.167589424466637 6.0
  endloop
endfacet
facet normal 0.0 -1.0 0.0
  outer loop
    vertex 116.43349990404083 -18.27529138882738 6.0
    vertex 114.21251043485942 -18.27529138882738 0.0
    vertex 116.43349990404083 -18.27529138882738 0.0
  endloop
endfacet
facet normal 0.0 -1.0 0.0
  outer loop
    vertex 114.21251043485942 -18.27529138882738 0.0
    vertex 116.43349990404083 -18.27529138882738 6.0
    vertex 114.21251043485942 -18.27529138882738 6.0
  endloop
endfacet
facet normal 0.0 1.0 0.0
  outer loop
    vertex 113.18427450515371 -16.586415572483826 6.0
    vertex 116.43349990404083 -16.586415572483826 0.0
    vertex 113.18427450515371 -16.586415572483826 0.0
  endloop
endfacet
facet normal 0.0 1.0 0.0
  outer loop
    vertex 116.43349990404083 -16.586415572483826 0.0
    vertex 113.18427450515371 -16.586415572483826 6.0
    vertex 116.43349990404083 -16.586415572483826 6.0
  endloop
endfacet
facet normal 0.640331323073708 0.7680988196128639 0.0
  outer loop
    vertex 111.40032912916328 -16.555359829044182 6.0
    vertex 112.15603857544801 -17.185362658423216 0.0
    vertex 111.40032912916328 -16.555359829044182 0.0
  endloop
endfacet
facet normal 0.640331323073708 0.7680988196128639 0.0
  outer loop
    vertex 112.15603857544801 -17.185362658423216 0.0
    vertex 111.40032912916328 -16.555359829044182 6.0
    vertex 112.15603857544801 -17.185362658423216 6.0
  endloop
endfacet
facet normal 0.2964002190497527 0.9550638251694274 0.0
  outer loop
    vertex 110.7499262065117 -26.668267621088194 6.0
    vertex 111.08773733162249 -26.77310594585934 0.0
    vertex 110.7499262065117 -26.668267621088194 0.0
  endloop
endfacet
facet normal 0.2964002190497527 0.9550638251694274 0.0
  outer loop
    vertex 111.08773733162249 -26.77310594585934 0.0
    vertex 110.7499262065117 -26.668267621088194 6.0
    vertex 111.08773733162249 -26.77310594585934 6.0
  endloop
endfacet
facet normal 0.11390635937824513 -0.9934914902973222 0.0
  outer loop
    vertex 111.5385146790029 -21.024725360581208 6.0
    vertex 110.67475466417774 -21.123757672006228 0.0
    vertex 111.5385146790029 -21.024725360581208 0.0
  endloop
endfacet
facet normal 0.11390635937824513 -0.9934914902973222 0.0
  outer loop
    vertex 110.67475466417774 -21.123757672006228 0.0
    vertex 111.5385146790029 -21.024725360581208 6.0
    vertex 110.67475466417774 -21.123757672006228 6.0
  endloop
endfacet
facet normal 0.891061215555117 -0.45388314590149437 0.0
  outer loop
    vertex 116.81908729187607 -17.6718447294091 0.0
    vertex 116.66199658427688 -17.98024445328016 6.0
    vertex 116.66199658427688 -17.98024445328016 0.0
  endloop
endfacet
facet normal 0.891061215555117 -0.45388314590149437 0.0
  outer loop
    vertex 116.66199658427688 -17.98024445328016 6.0
    vertex 116.81908729187607 -17.6718447294091 0.0
    vertex 116.81908729187607 -17.6718447294091 6.0
  endloop
endfacet
facet normal 0.44803013517432816 0.8940184550531791 0.0
  outer loop
    vertex 110.50500955765182 -16.106677649855115 6.0
    vertex 111.40032912916328 -16.555359829044182 0.0
    vertex 110.50500955765182 -16.106677649855115 0.0
  endloop
endfacet
facet normal 0.44803013517432816 0.8940184550531791 0.0
  outer loop
    vertex 111.40032912916328 -16.555359829044182 0.0
    vertex 110.50500955765182 -16.106677649855115 6.0
    vertex 111.40032912916328 -16.555359829044182 6.0
  endloop
endfacet
facet normal 0.2679509872723105 0.9634325448207539 0.0
  outer loop
    vertex 109.86417995533051 -15.92844937062747 6.0
    vertex 110.50500955765182 -16.106677649855115 0.0
    vertex 109.86417995533051 -15.92844937062747 0.0
  endloop
endfacet
facet normal 0.2679509872723105 0.9634325448207539 0.0
  outer loop
    vertex 110.50500955765182 -16.106677649855115 0.0
    vertex 109.86417995533051 -15.92844937062747 6.0
    vertex 110.50500955765182 -16.106677649855115 6.0
  endloop
endfacet
facet normal 0.11817200853516135 0.992993140156953 0.0
  outer loop
    vertex 109.21528412920131 -15.851226960922151 6.0
    vertex 109.86417995533051 -15.92844937062747 0.0
    vertex 109.21528412920131 -15.851226960922151 0.0
  endloop
endfacet
facet normal 0.11817200853516135 0.992993140156953 0.0
  outer loop
    vertex 109.86417995533051 -15.92844937062747 0.0
    vertex 109.21528412920131 -15.851226960922151 6.0
    vertex 109.86417995533051 -15.92844937062747 6.0
  endloop
endfacet
facet normal 0.9084808748504162 -0.41792642896928944 0.0
  outer loop
    vertex 109.46510774535507 -15.30816492504802 0.0
    vertex 109.21528412920131 -15.851226960922151 6.0
    vertex 109.21528412920131 -15.851226960922151 0.0
  endloop
endfacet
facet normal 0.9084808748504162 -0.41792642896928944 0.0
  outer loop
    vertex 109.21528412920131 -15.851226960922151 6.0
    vertex 109.46510774535507 -15.30816492504802 0.0
    vertex 109.46510774535507 -15.30816492504802 6.0
  endloop
endfacet
facet normal 0.9761069811929514 0.2172904997149749 0.0
  outer loop
    vertex 111.09649760160985 -23.359510606602154 0.0
    vertex 111.38806735711154 -24.669293014131362 6.0
    vertex 111.38806735711154 -24.669293014131362 0.0
  endloop
endfacet
facet normal 0.9761069811929514 0.2172904997149749 0.0
  outer loop
    vertex 111.38806735711154 -24.669293014131362 6.0
    vertex 111.09649760160985 -23.359510606602154 0.0
    vertex 111.09649760160985 -23.359510606602154 6.0
  endloop
endfacet
facet normal 0.8285162788674119 -0.559964977165266 0.0
  outer loop
    vertex 113.77080520049326 -19.151214150342003 0.0
    vertex 113.31772073590051 -19.82159153093705 6.0
    vertex 113.31772073590051 -19.82159153093705 0.0
  endloop
endfacet
facet normal 0.8285162788674119 -0.559964977165266 0.0
  outer loop
    vertex 113.31772073590051 -19.82159153093705 6.0
    vertex 113.77080520049326 -19.151214150342003 0.0
    vertex 113.77080520049326 -19.151214150342003 6.0
  endloop
endfacet
facet normal 0.6237129196875636 0.7816534998417234 0.0
  outer loop
    vertex 116.43349990404083 -16.586415572483826 6.0
    vertex 116.66833420746259 -16.77379935450443 0.0
    vertex 116.43349990404083 -16.586415572483826 0.0
  endloop
endfacet
facet normal 0.6237129196875636 0.7816534998417234 0.0
  outer loop
    vertex 116.66833420746259 -16.77379935450443 0.0
    vertex 116.43349990404083 -16.586415572483826 6.0
    vertex 116.66833420746259 -16.77379935450443 6.0
  endloop
endfacet
facet normal 0.9510247919206002 -0.30911461491229913 0.0
  outer loop
    vertex 109.842889502441 -14.145878188699504 0.0
    vertex 109.46510774535507 -15.30816492504802 6.0
    vertex 109.46510774535507 -15.30816492504802 0.0
  endloop
endfacet
facet normal 0.9510247919206002 -0.30911461491229913 0.0
  outer loop
    vertex 109.46510774535507 -15.30816492504802 6.0
    vertex 109.842889502441 -14.145878188699504 0.0
    vertex 109.842889502441 -14.145878188699504 6.0
  endloop
endfacet
facet normal -0.5033334534085404 0.8640922605137907 0.0
  outer loop
    vertex 112.15603857544801 -17.185362658423216 6.0
    vertex 113.18427450515371 -16.586415572483826 0.0
    vertex 112.15603857544801 -17.185362658423216 0.0
  endloop
endfacet
facet normal -0.5033334534085404 0.8640922605137907 0.0
  outer loop
    vertex 113.18427450515371 -16.586415572483826 0.0
    vertex 112.15603857544801 -17.185362658423216 6.0
    vertex 113.18427450515371 -16.586415572483826 6.0
  endloop
endfacet
facet normal 0.9944937502786053 -0.10479589999992943 0.0
  outer loop
    vertex 109.90553520509047 -13.551382032201394 0.0
    vertex 109.842889502441 -14.145878188699504 6.0
    vertex 109.842889502441 -14.145878188699504 0.0
  endloop
endfacet
facet normal 0.9944937502786053 -0.10479589999992943 0.0
  outer loop
    vertex 109.842889502441 -14.145878188699504 6.0
    vertex 109.90553520509047 -13.551382032201394 0.0
    vertex 109.90553520509047 -13.551382032201394 6.0
  endloop
endfacet
facet normal 0.9609331058851496 0.2767807182842038 0.0
  outer loop
    vertex 110.49892210380236 -21.28483545340235 0.0
    vertex 111.09649760160985 -23.359510606602154 6.0
    vertex 111.09649760160985 -23.359510606602154 0.0
  endloop
endfacet
facet normal 0.9609331058851496 0.2767807182842038 0.0
  outer loop
    vertex 111.09649760160985 -23.359510606602154 6.0
    vertex 110.49892210380236 -21.28483545340235 0.0
    vertex 110.49892210380236 -21.28483545340235 6.0
  endloop
endfacet
facet normal 0.8928954209502511 -0.4502641083254072 0.0
  outer loop
    vertex 114.21251043485942 -18.27529138882738 0.0
    vertex 113.77080520049326 -19.151214150342003 6.0
    vertex 113.77080520049326 -19.151214150342003 0.0
  endloop
endfacet
facet normal 0.8928954209502511 -0.4502641083254072 0.0
  outer loop
    vertex 113.77080520049326 -19.151214150342003 6.0
    vertex 114.21251043485942 -18.27529138882738 0.0
    vertex 114.21251043485942 -18.27529138882738 6.0
  endloop
endfacet
facet normal 0.7722085635866085 -0.6353691323345092 0.0
  outer loop
    vertex 111.44617613461037 -25.82206636655308 0.0
    vertex 110.7499262065117 -26.668267621088194 6.0
    vertex 110.7499262065117 -26.668267621088194 0.0
  endloop
endfacet
facet normal 0.7722085635866085 -0.6353691323345092 0.0
  outer loop
    vertex 110.7499262065117 -26.668267621088194 6.0
    vertex 111.44617613461037 -25.82206636655308 0.0
    vertex 111.44617613461037 -25.82206636655308 6.0
  endloop
endfacet
facet normal 0.996751688444829 -0.08053615077952572 0.0
  outer loop
    vertex 111.47679147578094 -25.443157110166826 0.0
    vertex 111.44617613461037 -25.82206636655308 6.0
    vertex 111.44617613461037 -25.82206636655308 0.0
  endloop
endfacet
facet normal 0.996751688444829 -0.08053615077952572 0.0
  outer loop
    vertex 111.44617613461037 -25.82206636655308 6.0
    vertex 111.47679147578094 -25.443157110166826 0.0
    vertex 111.47679147578094 -25.443157110166826 6.0
  endloop
endfacet
facet normal 0.44630297725083773 0.8948819209801026 0.0
  outer loop
    vertex 111.08773733162249 -26.77310594585934 6.0
    vertex 111.64103198826523 -27.04904967292243 0.0
    vertex 111.08773733162249 -26.77310594585934 0.0
  endloop
endfacet
facet normal 0.44630297725083773 0.8948819209801026 0.0
  outer loop
    vertex 111.64103198826523 -27.04904967292243 0.0
    vertex 111.08773733162249 -26.77310594585934 6.0
    vertex 111.64103198826523 -27.04904967292243 6.0
  endloop
endfacet
facet normal 0.3246855546640719 -0.9458220184540451 0.0
  outer loop
    vertex 110.67475466417774 -21.123757672006228 6.0
    vertex 110.54707101460062 -21.167589424466637 0.0
    vertex 110.67475466417774 -21.123757672006228 0.0
  endloop
endfacet
facet normal 0.3246855546640719 -0.9458220184540451 0.0
  outer loop
    vertex 110.54707101460062 -21.167589424466637 0.0
    vertex 110.67475466417774 -21.123757672006228 6.0
    vertex 110.54707101460062 -21.167589424466637 6.0
  endloop
endfacet
facet normal 0.0 0.0 1.0
  outer loop
    vertex 105.12429363828034 -14.439371989617324 6.0
    vertex 104.99379558367012 -13.42783660039523 6.0
    vertex 104.9914819516313 -13.723338705151507 6.0
  endloop
endfacet
facet normal 0.0 0.0 1.0
  outer loop
    vertex 104.99379558367012 -13.42783660039523 6.0
    vertex 105.12429363828034 -14.439371989617324 6.0
    vertex 105.1127302556257 -12.952129183739885 6.0
  endloop
endfacet
facet normal 0.0 0.0 1.0
  outer loop
    vertex 104.12572839990767 -12.389588685377205 6.0
    vertex 103.97385259373328 -11.159902160346403 6.0
    vertex 103.97385259373328 -12.208702356951605 6.0
  endloop
endfacet
facet normal 0.0 0.0 1.0
  outer loop
    vertex 103.97385259373328 -11.159902160346403 6.0
    vertex 104.12572839990767 -12.389588685377205 6.0
    vertex 105.24115312084577 -11.159902160346403 6.0
  endloop
endfacet
facet normal 0.0 0.0 1.0
  outer loop
    vertex 105.24115312084577 -11.159902160346403 6.0
    vertex 104.12572839990767 -12.389588685377205 6.0
    vertex 104.30180244318403 -12.527991396099004 6.0
  endloop
endfacet
facet normal 0.0 0.0 1.0
  outer loop
    vertex 105.24115312084577 -11.159902160346403 6.0
    vertex 104.30180244318403 -12.527991396099004 6.0
    vertex 105.08259049678712 -12.90648022901735 6.0
  endloop
endfacet
facet normal 0.0 0.0 1.0
  outer loop
    vertex 105.24115312084577 -11.159902160346403 6.0
    vertex 105.08259049678712 -12.90648022901735 6.0
    vertex 105.1127302556257 -12.952129183739885 6.0
  endloop
endfacet
facet normal 0.0 0.0 1.0
  outer loop
    vertex 105.24115312084577 -11.159902160346403 6.0
    vertex 105.1127302556257 -12.952129183739885 6.0
    vertex 105.12429363828034 -14.439371989617324 6.0
  endloop
endfacet
facet normal 0.0 0.0 1.0
  outer loop
    vertex 105.24115312084577 -11.159902160346403 6.0
    vertex 105.12429363828034 -14.439371989617324 6.0
    vertex 105.35657326108405 -15.124502411904558 6.0
  endloop
endfacet
facet normal 0.0 0.0 1.0
  outer loop
    vertex 105.24115312084577 -11.159902160346403 6.0
    vertex 105.35657326108405 -15.124502411904558 6.0
    vertex 105.49821253759397 -9.183116183687796 6.0
  endloop
endfacet
facet normal 0.0 0.0 1.0
  outer loop
    vertex 105.49821253759397 -9.183116183687796 6.0
    vertex 105.35657326108405 -15.124502411904558 6.0
    vertex 105.67558259701521 -15.840945696115941 6.0
  endloop
endfacet
facet normal 0.0 0.0 1.0
  outer loop
    vertex 105.49821253759397 -9.183116183687796 6.0
    vertex 105.67558259701521 -15.840945696115941 6.0
    vertex 105.91373859329089 -8.711307239189454 6.0
  endloop
endfacet
facet normal 0.0 0.0 1.0
  outer loop
    vertex 98.04522462163519 -17.547552264168207 6.0
    vertex 98.10928271151728 -16.92669103928567 6.0
    vertex 98.01290231449529 -17.239503472282756 6.0
  endloop
endfacet
facet normal 0.0 0.0 1.0
  outer loop
    vertex 98.10928271151728 -16.92669103928567 6.0
    vertex 98.04522462163519 -17.547552264168207 6.0
    vertex 98.25012720634349 -17.986950381322064 6.0
  endloop
endfacet
facet normal 0.0 0.0 1.0
  outer loop
    vertex 98.10928271151728 -16.92669103928567 6.0
    vertex 98.25012720634349 -17.986950381322064 6.0
    vertex 98.23233752260037 -16.764018428370772 6.0
  endloop
endfacet
facet normal 0.0 0.0 1.0
  outer loop
    vertex 98.23233752260037 -16.764018428370772 6.0
    vertex 98.25012720634349 -17.986950381322064 6.0
    vertex 98.46765025859068 -16.576134307677613 6.0
  endloop
endfacet
facet normal 0.0 0.0 1.0
  outer loop
    vertex 98.46765025859068 -16.576134307677613 6.0
    vertex 98.25012720634349 -17.986950381322064 6.0
    vertex 98.46765025859068 -18.265010124021167 6.0
  endloop
endfacet
facet normal 0.0 0.0 1.0
  outer loop
    vertex 98.46765025859068 -16.576134307677613 6.0
    vertex 98.46765025859068 -18.265010124021167 6.0
    vertex 100.68863951061121 -18.265010124021167 6.0
  endloop
endfacet
facet normal 0.0 0.0 1.0
  outer loop
    vertex 98.46765025859068 -16.576134307677613 6.0
    vertex 100.68863951061121 -18.265010124021167 6.0
    vertex 101.70659308970633 -16.576134307677613 6.0
  endloop
endfacet
facet normal 0.0 0.0 1.0
  outer loop
    vertex 101.70659308970633 -16.576134307677613 6.0
    vertex 100.68863951061121 -18.265010124021167 6.0
    vertex 101.48690640929966 -19.684745429418758 6.0
  endloop
endfacet
facet normal 0.0 0.0 1.0
  outer loop
    vertex 101.70659308970633 -16.576134307677613 6.0
    vertex 101.48690640929966 -19.684745429418758 6.0
    vertex 102.14271685507858 -20.396303462424488 6.0
  endloop
endfacet
facet normal 0.0 0.0 1.0
  outer loop
    vertex 101.70659308970633 -16.576134307677613 6.0
    vertex 102.14271685507858 -20.396303462424488 6.0
    vertex 102.73482858509027 -17.175081393617006 6.0
  endloop
endfacet
facet normal 0.0 0.0 1.0
  outer loop
    vertex 102.73482858509027 -17.175081393617006 6.0
    vertex 102.14271685507858 -20.396303462424488 6.0
    vertex 102.72681969175524 -20.785851864750793 6.0
  endloop
endfacet
facet normal 0.0 0.0 1.0
  outer loop
    vertex 102.73482858509027 -17.175081393617006 6.0
    vertex 102.72681969175524 -20.785851864750793 6.0
    vertex 103.26223375568057 -20.986369536926 6.0
  endloop
endfacet
facet normal 0.0 0.0 1.0
  outer loop
    vertex 102.73482858509027 -17.175081393617006 6.0
    vertex 103.26223375568057 -20.986369536926 6.0
    vertex 103.2203151905922 -16.7376672582828 6.0
  endloop
endfacet
facet normal 0.0 0.0 1.0
  outer loop
    vertex 103.2203151905922 -16.7376672582828 6.0
    vertex 103.26223375568057 -20.986369536926 6.0
    vertex 103.77649461239392 -16.372847399932773 6.0
  endloop
endfacet
facet normal 0.0 0.0 1.0
  outer loop
    vertex 103.77649461239392 -16.372847399932773 6.0
    vertex 103.26223375568057 -20.986369536926 6.0
    vertex 104.30881587103512 -21.130592159290384 6.0
  endloop
endfacet
facet normal 0.0 0.0 1.0
  outer loop
    vertex 103.77649461239392 -16.372847399932773 6.0
    vertex 104.30881587103512 -21.130592159290384 6.0
    vertex 104.70379503270313 -15.99465738038832 6.0
  endloop
endfacet
facet normal 0.0 0.0 1.0
  outer loop
    vertex 104.70379503270313 -15.99465738038832 6.0
    vertex 104.30881587103512 -21.130592159290384 6.0
    vertex 104.38633275089668 -21.19163347734226 6.0
  endloop
endfacet
facet normal 0.0 0.0 1.0
  outer loop
    vertex 103.4566253193693 -25.819345775021045 6.0
    vertex 103.54151481118106 -24.495859647182385 6.0
    vertex 103.42481255309434 -25.599568538526537 6.0
  endloop
endfacet
facet normal 0.0 0.0 1.0
  outer loop
    vertex 103.54151481118106 -24.495859647182385 6.0
    vertex 103.4566253193693 -25.819345775021045 6.0
    vertex 103.5123917995929 -25.928707995289884 6.0
  endloop
endfacet
facet normal 0.0 0.0 1.0
  outer loop
    vertex 103.54151481118106 -24.495859647182385 6.0
    vertex 103.5123917995929 -25.928707995289884 6.0
    vertex 104.15122352179807 -26.657982881707873 6.0
  endloop
endfacet
facet normal 0.0 0.0 1.0
  outer loop
    vertex 103.54151481118106 -24.495859647182385 6.0
    vertex 104.15122352179807 -26.657982881707873 6.0
    vertex 104.38257630195663 -21.362568625502576 6.0
  endloop
endfacet
facet normal 0.0 0.0 1.0
  outer loop
    vertex 109.21528412920131 -15.851226960922151 6.0
    vertex 109.30287466806568 -8.938815403089786 6.0
    vertex 109.15716145340599 -8.75764415958676 6.0
  endloop
endfacet
facet normal 0.0 0.0 1.0
  outer loop
    vertex 109.30287466806568 -8.938815403089786 6.0
    vertex 109.21528412920131 -15.851226960922151 6.0
    vertex 109.46510774535507 -15.30816492504802 6.0
  endloop
endfacet
facet normal 0.0 0.0 1.0
  outer loop
    vertex 109.30287466806568 -8.938815403089786 6.0
    vertex 109.46510774535507 -15.30816492504802 6.0
    vertex 109.38700192518101 -9.113162583031002 6.0
  endloop
endfacet
facet normal 0.0 0.0 1.0
  outer loop
    vertex 109.38700192518101 -9.113162583031002 6.0
    vertex 109.46510774535507 -15.30816492504802 6.0
    vertex 109.66256692366557 -11.170183425152615 6.0
  endloop
endfacet
facet normal 0.0 0.0 1.0
  outer loop
    vertex 109.66256692366557 -11.170183425152615 6.0
    vertex 109.46510774535507 -15.30816492504802 6.0
    vertex 109.842889502441 -14.145878188699504 6.0
  endloop
endfacet
facet normal 0.0 0.0 1.0
  outer loop
    vertex 109.66256692366557 -11.170183425152615 6.0
    vertex 109.842889502441 -14.145878188699504 6.0
    vertex 109.79109663203965 -13.064708859639195 6.0
  endloop
endfacet
facet normal 0.0 0.0 1.0
  outer loop
    vertex 109.66256692366557 -11.170183425152615 6.0
    vertex 109.79109663203965 -13.064708859639195 6.0
    vertex 109.78531667799939 -12.94095147881201 6.0
  endloop
endfacet
facet normal 0.0 0.0 1.0
  outer loop
    vertex 109.79109663203965 -13.064708859639195 6.0
    vertex 109.842889502441 -14.145878188699504 6.0
    vertex 109.87480694026114 -13.289096855984278 6.0
  endloop
endfacet
facet normal 0.0 0.0 1.0
  outer loop
    vertex 109.87480694026114 -13.289096855984278 6.0
    vertex 109.842889502441 -14.145878188699504 6.0
    vertex 109.90553520509047 -13.551382032201394 6.0
  endloop
endfacet
facet normal 0.0 0.0 1.0
  outer loop
    vertex 106.22054783086081 -28.2646016304535 6.0
    vertex 103.13575057146019 -27.177379593284922 6.0
    vertex 103.12298759209234 -28.2646016304535 6.0
  endloop
endfacet
facet normal 0.0 0.0 1.0
  outer loop
    vertex 103.13575057146019 -27.177379593284922 6.0
    vertex 106.22054783086081 -28.2646016304535 6.0
    vertex 103.3394691950388 -26.98030522405765 6.0
  endloop
endfacet
facet normal 0.0 0.0 1.0
  outer loop
    vertex 103.3394691950388 -26.98030522405765 6.0
    vertex 106.22054783086081 -28.2646016304535 6.0
    vertex 104.15122352179807 -26.657982881707873 6.0
  endloop
endfacet
facet normal 0.0 0.0 1.0
  outer loop
    vertex 104.15122352179807 -26.657982881707873 6.0
    vertex 106.22054783086081 -28.2646016304535 6.0
    vertex 104.38257630195663 -21.362568625502576 6.0
  endloop
endfacet
facet normal 0.0 0.0 1.0
  outer loop
    vertex 104.38257630195663 -21.362568625502576 6.0
    vertex 106.22054783086081 -28.2646016304535 6.0
    vertex 104.38633275089668 -21.19163347734226 6.0
  endloop
endfacet
facet normal 0.0 0.0 1.0
  outer loop
    vertex 104.38633275089668 -21.19163347734226 6.0
    vertex 106.22054783086081 -28.2646016304535 6.0
    vertex 104.70379503270313 -15.99465738038832 6.0
  endloop
endfacet
facet normal 0.0 0.0 1.0
  outer loop
    vertex 104.70379503270313 -15.99465738038832 6.0
    vertex 106.22054783086081 -28.2646016304535 6.0
    vertex 105.67558259701521 -15.840945696115941 6.0
  endloop
endfacet
facet normal 0.0 0.0 1.0
  outer loop
    vertex 105.67558259701521 -15.840945696115941 6.0
    vertex 106.22054783086081 -28.2646016304535 6.0
    vertex 105.91373859329089 -8.711307239189454 6.0
  endloop
endfacet
facet normal 0.0 0.0 1.0
  outer loop
    vertex 105.91373859329089 -8.711307239189454 6.0
    vertex 106.22054783086081 -28.2646016304535 6.0
    vertex 106.2354737326152 -8.51014329622886 6.0
  endloop
endfacet
facet normal 0.0 0.0 1.0
  outer loop
    vertex 106.2354737326152 -8.51014329622886 6.0
    vertex 106.22054783086081 -28.2646016304535 6.0
    vertex 106.96344825967068 -26.303242762865388 6.0
  endloop
endfacet
facet normal 0.0 0.0 1.0
  outer loop
    vertex 106.2354737326152 -8.51014329622886 6.0
    vertex 106.96344825967068 -26.303242762865388 6.0
    vertex 106.72516717872686 -8.335375692819735 6.0
  endloop
endfacet
facet normal 0.0 0.0 1.0
  outer loop
    vertex 106.72516717872686 -8.335375692819735 6.0
    vertex 106.96344825967068 -26.303242762865388 6.0
    vertex 107.4518604565774 -8.262847432743746 6.0
  endloop
endfacet
facet normal 0.0 0.0 1.0
  outer loop
    vertex 107.4518604565774 -8.262847432743746 6.0
    vertex 106.96344825967068 -26.303242762865388 6.0
    vertex 107.19423034103085 -25.995913207821737 6.0
  endloop
endfacet
facet normal 0.0 0.0 1.0
  outer loop
    vertex 107.4518604565774 -8.262847432743746 6.0
    vertex 107.19423034103085 -25.995913207821737 6.0
    vertex 107.31511946092611 -25.910515125223874 6.0
  endloop
endfacet
facet normal 0.0 0.0 1.0
  outer loop
    vertex 107.4518604565774 -8.262847432743746 6.0
    vertex 107.31511946092611 -25.910515125223874 6.0
    vertex 107.54284912892628 -25.88575531008057 6.0
  endloop
endfacet
facet normal 0.0 0.0 1.0
  outer loop
    vertex 107.4518604565774 -8.262847432743746 6.0
    vertex 107.54284912892628 -25.88575531008057 6.0
    vertex 108.18819220302292 -8.314938247875451 6.0
  endloop
endfacet
facet normal 0.0 0.0 1.0
  outer loop
    vertex 108.18819220302292 -8.314938247875451 6.0
    vertex 107.54284912892628 -25.88575531008057 6.0
    vertex 107.62108263969907 -25.924764353669392 6.0
  endloop
endfacet
facet normal 0.0 0.0 1.0
  outer loop
    vertex 108.18819220302292 -8.314938247875451 6.0
    vertex 107.62108263969907 -25.924764353669392 6.0
    vertex 107.9377014686391 -26.3135240276716 6.0
  endloop
endfacet
facet normal 0.0 0.0 1.0
  outer loop
    vertex 108.18819220302292 -8.314938247875451 6.0
    vertex 107.9377014686391 -26.3135240276716 6.0
    vertex 108.68060189744895 -28.27488636983384 6.0
  endloop
endfacet
facet normal 0.0 0.0 1.0
  outer loop
    vertex 108.18819220302292 -8.314938247875451 6.0
    vertex 108.68060189744895 -28.27488636983384 6.0
    vertex 108.62196064146698 -8.429540125909671 6.0
  endloop
endfacet
facet normal 0.0 0.0 1.0
  outer loop
    vertex 108.62196064146698 -8.429540125909671 6.0
    vertex 108.68060189744895 -28.27488636983384 6.0
    vertex 108.93891563545264 -8.584599944938663 6.0
  endloop
endfacet
facet normal 0.0 0.0 1.0
  outer loop
    vertex 108.93891563545264 -8.584599944938663 6.0
    vertex 108.68060189744895 -28.27488636983384 6.0
    vertex 109.21528412920131 -15.851226960922151 6.0
  endloop
endfacet
facet normal 0.0 0.0 1.0
  outer loop
    vertex 109.21528412920131 -15.851226960922151 6.0
    vertex 108.68060189744895 -28.27488636983384 6.0
    vertex 110.7499262065117 -26.668267621088194 6.0
  endloop
endfacet
facet normal 0.0 0.0 1.0
  outer loop
    vertex 110.7499262065117 -26.668267621088194 6.0
    vertex 108.68060189744895 -28.27488636983384 6.0
    vertex 111.77816213621742 -28.27488636983384 6.0
  endloop
endfacet
facet normal 0.0 0.0 1.0
  outer loop
    vertex 108.93891563545264 -8.584599944938663 6.0
    vertex 109.21528412920131 -15.851226960922151 6.0
    vertex 109.15716145340599 -8.75764415958676 6.0
  endloop
endfacet
facet normal 0.0 0.0 1.0
  outer loop
    vertex 109.21528412920131 -15.851226960922151 6.0
    vertex 110.7499262065117 -26.668267621088194 6.0
    vertex 109.86417995533051 -15.92844937062747 6.0
  endloop
endfacet
facet normal 0.0 0.0 1.0
  outer loop
    vertex 109.86417995533051 -15.92844937062747 6.0
    vertex 110.7499262065117 -26.668267621088194 6.0
    vertex 110.49892210380236 -21.28483545340235 6.0
  endloop
endfacet
facet normal 0.0 0.0 1.0
  outer loop
    vertex 110.7499262065117 -26.668267621088194 6.0
    vertex 111.77816213621742 -28.27488636983384 6.0
    vertex 111.08773733162249 -26.77310594585934 6.0
  endloop
endfacet
facet normal 0.0 0.0 1.0
  outer loop
    vertex 111.08773733162249 -26.77310594585934 6.0
    vertex 111.77816213621742 -28.27488636983384 6.0
    vertex 111.64103198826523 -27.04904967292243 6.0
  endloop
endfacet
facet normal 0.0 0.0 1.0
  outer loop
    vertex 111.64103198826523 -27.04904967292243 6.0
    vertex 111.77816213621742 -28.27488636983384 6.0
    vertex 111.77816213621742 -27.218372618693387 6.0
  endloop
endfacet
facet normal 0.0 0.0 1.0
  outer loop
    vertex 110.7499262065117 -26.668267621088194 6.0
    vertex 111.09649760160985 -23.359510606602154 6.0
    vertex 110.49892210380236 -21.28483545340235 6.0
  endloop
endfacet
facet normal 0.0 0.0 1.0
  outer loop
    vertex 111.09649760160985 -23.359510606602154 6.0
    vertex 110.7499262065117 -26.668267621088194 6.0
    vertex 111.44617613461037 -25.82206636655308 6.0
  endloop
endfacet
facet normal 0.0 0.0 1.0
  outer loop
    vertex 111.09649760160985 -23.359510606602154 6.0
    vertex 111.44617613461037 -25.82206636655308 6.0
    vertex 111.38806735711154 -24.669293014131362 6.0
  endloop
endfacet
facet normal 0.0 0.0 1.0
  outer loop
    vertex 111.38806735711154 -24.669293014131362 6.0
    vertex 111.44617613461037 -25.82206636655308 6.0
    vertex 111.47679147578094 -25.443157110166826 6.0
  endloop
endfacet
facet normal 0.0 0.0 1.0
  outer loop
    vertex 110.49892210380236 -21.28483545340235 6.0
    vertex 110.50500955765182 -16.106677649855115 6.0
    vertex 109.86417995533051 -15.92844937062747 6.0
  endloop
endfacet
facet normal 0.0 0.0 1.0
  outer loop
    vertex 110.50500955765182 -16.106677649855115 6.0
    vertex 110.49892210380236 -21.28483545340235 6.0
    vertex 110.54707101460062 -21.167589424466637 6.0
  endloop
endfacet
facet normal 0.0 0.0 1.0
  outer loop
    vertex 110.50500955765182 -16.106677649855115 6.0
    vertex 110.54707101460062 -21.167589424466637 6.0
    vertex 111.40032912916328 -16.555359829044182 6.0
  endloop
endfacet
facet normal 0.0 0.0 1.0
  outer loop
    vertex 111.40032912916328 -16.555359829044182 6.0
    vertex 110.54707101460062 -21.167589424466637 6.0
    vertex 110.67475466417774 -21.123757672006228 6.0
  endloop
endfacet
facet normal 0.0 0.0 1.0
  outer loop
    vertex 111.40032912916328 -16.555359829044182 6.0
    vertex 110.67475466417774 -21.123757672006228 6.0
    vertex 111.5385146790029 -21.024725360581208 6.0
  endloop
endfacet
facet normal 0.0 0.0 1.0
  outer loop
    vertex 111.40032912916328 -16.555359829044182 6.0
    vertex 111.5385146790029 -21.024725360581208 6.0
    vertex 112.15603857544801 -17.185362658423216 6.0
  endloop
endfacet
facet normal 0.0 0.0 1.0
  outer loop
    vertex 112.15603857544801 -17.185362658423216 6.0
    vertex 111.5385146790029 -21.024725360581208 6.0
    vertex 112.1256734036137 -20.82258506229431 6.0
  endloop
endfacet
facet normal 0.0 0.0 1.0
  outer loop
    vertex 112.15603857544801 -17.185362658423216 6.0
    vertex 112.1256734036137 -20.82258506229431 6.0
    vertex 112.7091820881167 -20.44851936222433 6.0
  endloop
endfacet
facet normal 0.0 0.0 1.0
  outer loop
    vertex 112.15603857544801 -17.185362658423216 6.0
    vertex 112.7091820881167 -20.44851936222433 6.0
    vertex 113.18427450515371 -16.586415572483826 6.0
  endloop
endfacet
facet normal 0.0 0.0 1.0
  outer loop
    vertex 113.18427450515371 -16.586415572483826 6.0
    vertex 112.7091820881167 -20.44851936222433 6.0
    vertex 113.31772073590051 -19.82159153093705 6.0
  endloop
endfacet
facet normal 0.0 0.0 1.0
  outer loop
    vertex 113.18427450515371 -16.586415572483826 6.0
    vertex 113.31772073590051 -19.82159153093705 6.0
    vertex 114.21251043485942 -18.27529138882738 6.0
  endloop
endfacet
facet normal 0.0 0.0 1.0
  outer loop
    vertex 113.18427450515371 -16.586415572483826 6.0
    vertex 114.21251043485942 -18.27529138882738 6.0
    vertex 116.43349990404083 -16.586415572483826 6.0
  endloop
endfacet
facet normal 0.0 0.0 1.0
  outer loop
    vertex 114.21251043485942 -18.27529138882738 6.0
    vertex 113.31772073590051 -19.82159153093705 6.0
    vertex 113.77080520049326 -19.151214150342003 6.0
  endloop
endfacet
facet normal 0.0 0.0 1.0
  outer loop
    vertex 116.43349990404083 -16.586415572483826 6.0
    vertex 114.21251043485942 -18.27529138882738 6.0
    vertex 116.43349990404083 -18.27529138882738 6.0
  endloop
endfacet
facet normal 0.0 0.0 1.0
  outer loop
    vertex 116.43349990404083 -16.586415572483826 6.0
    vertex 116.43349990404083 -18.27529138882738 6.0
    vertex 116.66199658427688 -17.98024445328016 6.0
  endloop
endfacet
facet normal 0.0 0.0 1.0
  outer loop
    vertex 116.43349990404083 -16.586415572483826 6.0
    vertex 116.66199658427688 -17.98024445328016 6.0
    vertex 116.66833420746259 -16.77379935450443 6.0
  endloop
endfacet
facet normal 0.0 0.0 1.0
  outer loop
    vertex 116.66833420746259 -16.77379935450443 6.0
    vertex 116.66199658427688 -17.98024445328016 6.0
    vertex 116.81908729187607 -17.6718447294091 6.0
  endloop
endfacet
facet normal 0.0 0.0 1.0
  outer loop
    vertex 116.66833420746259 -16.77379935450443 6.0
    vertex 116.81908729187607 -17.6718447294091 6.0
    vertex 116.85619053156285 -17.082595179824605 6.0
  endloop
endfacet
facet normal 0.0 0.0 1.0
  outer loop
    vertex 116.85619053156285 -17.082595179824605 6.0
    vertex 116.81908729187607 -17.6718447294091 6.0
    vertex 116.88193191389364 -17.4309351331473 6.0
  endloop
endfacet
facet normal 0.0 0.0 1.0
  outer loop
    vertex 109.78531667799939 -12.94095147881201 6.0
    vertex 110.91701500112671 -11.170183425152615 6.0
    vertex 109.66256692366557 -11.170183425152615 6.0
  endloop
endfacet
facet normal 0.0 0.0 1.0
  outer loop
    vertex 110.91701500112671 -11.170183425152615 6.0
    vertex 109.78531667799939 -12.94095147881201 6.0
    vertex 110.74144129652294 -12.421374089380995 6.0
  endloop
endfacet
facet normal 0.0 0.0 1.0
  outer loop
    vertex 110.91701500112671 -11.170183425152615 6.0
    vertex 110.74144129652294 -12.421374089380995 6.0
    vertex 110.91701500112671 -12.218983621757816 6.0
  endloop
endfacet
facet normal 0.0 0.0 1.0
  outer loop
    vertex 110.91701500112671 -11.170183425152615 6.0
    vertex 110.91701500112671 -12.218983621757816 6.0
    vertex 110.96679001261079 -11.561719283872685 6.0
  endloop
endfacet
facet normal 0.9932070912283928 0.11636010456180954 0.0
  outer loop
    vertex 109.87480694026114 -13.289096855984278 0.0
    vertex 109.90553520509047 -13.551382032201394 6.0
    vertex 109.90553520509047 -13.551382032201394 0.0
  endloop
endfacet
facet normal 0.9932070912283928 0.11636010456180954 0.0
  outer loop
    vertex 109.90553520509047 -13.551382032201394 6.0
    vertex 109.87480694026114 -13.289096855984278 0.0
    vertex 109.87480694026114 -13.289096855984278 6.0
  endloop
endfacet
facet normal 0.0 1.0 0.0
  outer loop
    vertex 109.66256692366557 -11.170183425152615 6.0
    vertex 110.91701500112671 -11.170183425152615 0.0
    vertex 109.66256692366557 -11.170183425152615 0.0
  endloop
endfacet
facet normal 0.0 1.0 0.0
  outer loop
    vertex 110.91701500112671 -11.170183425152615 0.0
    vertex 109.66256692366557 -11.170183425152615 6.0
    vertex 110.91701500112671 -11.170183425152615 6.0
  endloop
endfacet
facet normal 0.9911459322966195 0.13277703450471037 0.0
  outer loop
    vertex 109.38700192518101 -9.113162583031002 0.0
    vertex 109.66256692366557 -11.170183425152615 6.0
    vertex 109.66256692366557 -11.170183425152615 0.0
  endloop
endfacet
facet normal 0.9911459322966195 0.13277703450471037 0.0
  outer loop
    vertex 109.66256692366557 -11.170183425152615 6.0
    vertex 109.38700192518101 -9.113162583031002 0.0
    vertex 109.38700192518101 -9.113162583031002 6.0
  endloop
endfacet
facet normal -0.0993124666081998 0.9950562968878671 0.0
  outer loop
    vertex 106.72516717872686 -8.335375692819735 6.0
    vertex 107.4518604565774 -8.262847432743746 0.0
    vertex 106.72516717872686 -8.335375692819735 0.0
  endloop
endfacet
facet normal -0.0993124666081998 0.9950562968878671 0.0
  outer loop
    vertex 107.4518604565774 -8.262847432743746 0.0
    vertex 106.72516717872686 -8.335375692819735 6.0
    vertex 107.4518604565774 -8.262847432743746 6.0
  endloop
endfacet
facet normal -0.3361267342779616 0.9418167648240462 0.0
  outer loop
    vertex 106.2354737326152 -8.51014329622886 6.0
    vertex 106.72516717872686 -8.335375692819735 0.0
    vertex 106.2354737326152 -8.51014329622886 0.0
  endloop
endfacet
facet normal -0.3361267342779616 0.9418167648240462 0.0
  outer loop
    vertex 106.72516717872686 -8.335375692819735 0.0
    vertex 106.2354737326152 -8.51014329622886 6.0
    vertex 106.72516717872686 -8.335375692819735 6.0
  endloop
endfacet
facet normal -0.617983925766047 -0.7861907322620798 0.0
  outer loop
    vertex 104.30180244318403 -12.527991396099004 6.0
    vertex 104.12572839990767 -12.389588685377205 0.0
    vertex 104.30180244318403 -12.527991396099004 0.0
  endloop
endfacet
facet normal -0.617983925766047 -0.7861907322620798 0.0
  outer loop
    vertex 104.12572839990767 -12.389588685377205 0.0
    vertex 104.30180244318403 -12.527991396099004 6.0
    vertex 104.12572839990767 -12.389588685377205 6.0
  endloop
endfacet
facet normal -0.43620345347866896 -0.8998480689390198 0.0
  outer loop
    vertex 105.08259049678712 -12.90648022901735 6.0
    vertex 104.30180244318403 -12.527991396099004 0.0
    vertex 105.08259049678712 -12.90648022901735 0.0
  endloop
endfacet
facet normal -0.43620345347866896 -0.8998480689390198 0.0
  outer loop
    vertex 104.30180244318403 -12.527991396099004 0.0
    vertex 105.08259049678712 -12.90648022901735 6.0
    vertex 104.30180244318403 -12.527991396099004 6.0
  endloop
endfacet
facet normal -0.1562318488831135 0.9877204105386119 0.0
  outer loop
    vertex 104.70379503270313 -15.99465738038832 6.0
    vertex 105.67558259701521 -15.840945696115941 0.0
    vertex 104.70379503270313 -15.99465738038832 0.0
  endloop
endfacet
facet normal -0.1562318488831135 0.9877204105386119 0.0
  outer loop
    vertex 105.67558259701521 -15.840945696115941 0.0
    vertex 104.70379503270313 -15.99465738038832 6.0
    vertex 105.67558259701521 -15.840945696115941 6.0
  endloop
endfacet
facet normal 0.9369252330201641 0.3495298381112996 0.0
  outer loop
    vertex 109.79109663203965 -13.064708859639195 0.0
    vertex 109.87480694026114 -13.289096855984278 6.0
    vertex 109.87480694026114 -13.289096855984278 0.0
  endloop
endfacet
facet normal 0.9369252330201641 0.3495298381112996 0.0
  outer loop
    vertex 109.87480694026114 -13.289096855984278 6.0
    vertex 109.79109663203965 -13.064708859639195 0.0
    vertex 109.79109663203965 -13.064708859639195 6.0
  endloop
endfacet
facet normal 0.9006332207533462 0.4345800290803234 0.0
  outer loop
    vertex 109.30287466806568 -8.938815403089786 0.0
    vertex 109.38700192518101 -9.113162583031002 6.0
    vertex 109.38700192518101 -9.113162583031002 0.0
  endloop
endfacet
facet normal 0.9006332207533462 0.4345800290803234 0.0
  outer loop
    vertex 109.38700192518101 -9.113162583031002 6.0
    vertex 109.30287466806568 -8.938815403089786 0.0
    vertex 109.30287466806568 -8.938815403089786 6.0
  endloop
endfacet
facet normal -0.5301495579789736 0.84790414916705 0.0
  outer loop
    vertex 105.91373859329089 -8.711307239189454 6.0
    vertex 106.2354737326152 -8.51014329622886 0.0
    vertex 105.91373859329089 -8.711307239189454 0.0
  endloop
endfacet
facet normal -0.5301495579789736 0.84790414916705 0.0
  outer loop
    vertex 106.2354737326152 -8.51014329622886 0.0
    vertex 105.91373859329089 -8.711307239189454 6.0
    vertex 106.2354737326152 -8.51014329622886 6.0
  endloop
endfacet
facet normal 0.7553775001642858 -0.6552898841318661 0.0
  outer loop
    vertex 110.91701500112671 -12.218983621757816 0.0
    vertex 110.74144129652294 -12.421374089380995 6.0
    vertex 110.74144129652294 -12.421374089380995 0.0
  endloop
endfacet
facet normal 0.7553775001642858 -0.6552898841318661 0.0
  outer loop
    vertex 110.74144129652294 -12.421374089380995 6.0
    vertex 110.91701500112671 -12.218983621757816 0.0
    vertex 110.91701500112671 -12.218983621757816 6.0
  endloop
endfacet
facet normal 0.992015933611457 0.12611259834366076 0.0
  outer loop
    vertex 110.91701500112671 -11.170183425152615 0.0
    vertex 110.96679001261079 -11.561719283872685 6.0
    vertex 110.96679001261079 -11.561719283872685 0.0
  endloop
endfacet
facet normal 0.992015933611457 0.12611259834366076 0.0
  outer loop
    vertex 110.96679001261079 -11.561719283872685 6.0
    vertex 110.91701500112671 -11.170183425152615 0.0
    vertex 110.91701500112671 -11.170183425152615 6.0
  endloop
endfacet
facet normal 0.43944810211054025 0.8982679809229784 0.0
  outer loop
    vertex 108.62196064146698 -8.429540125909671 6.0
    vertex 108.93891563545264 -8.584599944938663 0.0
    vertex 108.62196064146698 -8.429540125909671 0.0
  endloop
endfacet
facet normal 0.43944810211054025 0.8982679809229784 0.0
  outer loop
    vertex 108.93891563545264 -8.584599944938663 0.0
    vertex 108.62196064146698 -8.429540125909671 6.0
    vertex 108.93891563545264 -8.584599944938663 6.0
  endloop
endfacet
facet normal 0.07056731425960379 0.9975070196034644 0.0
  outer loop
    vertex 107.4518604565774 -8.262847432743746 6.0
    vertex 108.18819220302292 -8.314938247875451 0.0
    vertex 107.4518604565774 -8.262847432743746 0.0
  endloop
endfacet
facet normal 0.07056731425960379 0.9975070196034644 0.0
  outer loop
    vertex 108.18819220302292 -8.314938247875451 0.0
    vertex 107.4518604565774 -8.262847432743746 6.0
    vertex 108.18819220302292 -8.314938247875451 6.0
  endloop
endfacet
facet normal 0.0 1.0 0.0
  outer loop
    vertex 103.97385259373328 -11.159902160346403 6.0
    vertex 105.24115312084577 -11.159902160346403 0.0
    vertex 103.97385259373328 -11.159902160346403 0.0
  endloop
endfacet
facet normal 0.0 1.0 0.0
  outer loop
    vertex 105.24115312084577 -11.159902160346403 0.0
    vertex 103.97385259373328 -11.159902160346403 6.0
    vertex 105.24115312084577 -11.159902160346403 6.0
  endloop
endfacet
facet normal 0.9989111531865867 0.046653060343812676 0.0
  outer loop
    vertex 109.78531667799939 -12.94095147881201 0.0
    vertex 109.79109663203965 -13.064708859639195 6.0
    vertex 109.79109663203965 -13.064708859639195 0.0
  endloop
endfacet
facet normal 0.9989111531865867 0.046653060343812676 0.0
  outer loop
    vertex 109.79109663203965 -13.064708859639195 6.0
    vertex 109.78531667799939 -12.94095147881201 0.0
    vertex 109.78531667799939 -12.94095147881201 6.0
  endloop
endfacet
facet normal 0.7792375668156867 0.6267286609555751 0.0
  outer loop
    vertex 109.15716145340599 -8.75764415958676 0.0
    vertex 109.30287466806568 -8.938815403089786 6.0
    vertex 109.30287466806568 -8.938815403089786 0.0
  endloop
endfacet
facet normal 0.7792375668156867 0.6267286609555751 0.0
  outer loop
    vertex 109.30287466806568 -8.938815403089786 6.0
    vertex 109.15716145340599 -8.75764415958676 0.0
    vertex 109.15716145340599 -8.75764415958676 6.0
  endloop
endfacet
facet normal -0.7504498404072705 0.6609274067798234 0.0
  outer loop
    vertex 105.91373859329089 -8.711307239189454 6.0
    vertex 105.49821253759397 -9.183116183687796 0.0
    vertex 105.49821253759397 -9.183116183687796 6.0
  endloop
endfacet
facet normal -0.7504498404072705 0.6609274067798234 0.0
  outer loop
    vertex 105.49821253759397 -9.183116183687796 0.0
    vertex 105.91373859329089 -8.711307239189454 6.0
    vertex 105.91373859329089 -8.711307239189454 0.0
  endloop
endfacet
facet normal -0.7658481163921949 -0.6430215102300445 0.0
  outer loop
    vertex 103.97385259373328 -12.208702356951605 6.0
    vertex 104.12572839990767 -12.389588685377205 0.0
    vertex 104.12572839990767 -12.389588685377205 6.0
  endloop
endfacet
facet normal -0.7658481163921949 -0.6430215102300445 0.0
  outer loop
    vertex 104.12572839990767 -12.389588685377205 0.0
    vertex 103.97385259373328 -12.208702356951605 6.0
    vertex 103.97385259373328 -12.208702356951605 0.0
  endloop
endfacet
facet normal -0.8345131728334128 -0.5509879893132976 0.0
  outer loop
    vertex 105.08259049678712 -12.90648022901735 6.0
    vertex 105.1127302556257 -12.952129183739885 0.0
    vertex 105.1127302556257 -12.952129183739885 6.0
  endloop
endfacet
facet normal -0.8345131728334128 -0.5509879893132976 0.0
  outer loop
    vertex 105.1127302556257 -12.952129183739885 0.0
    vertex 105.08259049678712 -12.90648022901735 6.0
    vertex 105.08259049678712 -12.90648022901735 0.0
  endloop
endfacet
facet normal -0.9701387486662362 0.24255063045951766 0.0
  outer loop
    vertex 105.1127302556257 -12.952129183739885 6.0
    vertex 104.99379558367012 -13.42783660039523 0.0
    vertex 104.99379558367012 -13.42783660039523 6.0
  endloop
endfacet
facet normal -0.9701387486662362 0.24255063045951766 0.0
  outer loop
    vertex 104.99379558367012 -13.42783660039523 0.0
    vertex 105.1127302556257 -12.952129183739885 6.0
    vertex 105.1127302556257 -12.952129183739885 0.0
  endloop
endfacet
facet normal -0.9832296137598565 -0.18237194582951502 0.0
  outer loop
    vertex 104.9914819516313 -13.723338705151507 6.0
    vertex 105.12429363828034 -14.439371989617324 0.0
    vertex 105.12429363828034 -14.439371989617324 6.0
  endloop
endfacet
facet normal -0.9832296137598565 -0.18237194582951502 0.0
  outer loop
    vertex 105.12429363828034 -14.439371989617324 0.0
    vertex 104.9914819516313 -13.723338705151507 6.0
    vertex 104.9914819516313 -13.723338705151507 0.0
  endloop
endfacet
facet normal 0.4774739075783305 -0.8786459284500667 0.0
  outer loop
    vertex 110.74144129652294 -12.421374089380995 6.0
    vertex 109.78531667799939 -12.94095147881201 0.0
    vertex 110.74144129652294 -12.421374089380995 0.0
  endloop
endfacet
facet normal 0.4774739075783305 -0.8786459284500667 0.0
  outer loop
    vertex 109.78531667799939 -12.94095147881201 0.0
    vertex 110.74144129652294 -12.421374089380995 6.0
    vertex 109.78531667799939 -12.94095147881201 6.0
  endloop
endfacet
facet normal 0.6212904644580678 0.7835803460867805 0.0
  outer loop
    vertex 108.93891563545264 -8.584599944938663 6.0
    vertex 109.15716145340599 -8.75764415958676 0.0
    vertex 108.93891563545264 -8.584599944938663 0.0
  endloop
endfacet
facet normal 0.6212904644580678 0.7835803460867805 0.0
  outer loop
    vertex 109.15716145340599 -8.75764415958676 0.0
    vertex 108.93891563545264 -8.584599944938663 6.0
    vertex 109.15716145340599 -8.75764415958676 6.0
  endloop
endfacet
facet normal -0.9916506631906375 0.12895333339456175 0.0
  outer loop
    vertex 105.49821253759397 -9.183116183687796 6.0
    vertex 105.24115312084577 -11.159902160346403 0.0
    vertex 105.24115312084577 -11.159902160346403 6.0
  endloop
endfacet
facet normal -0.9916506631906375 0.12895333339456175 0.0
  outer loop
    vertex 105.24115312084577 -11.159902160346403 0.0
    vertex 105.49821253759397 -9.183116183687796 6.0
    vertex 105.49821253759397 -9.183116183687796 0.0
  endloop
endfacet
facet normal -0.999969350918769 0.007829254312896198 0.0
  outer loop
    vertex 104.99379558367012 -13.42783660039523 6.0
    vertex 104.9914819516313 -13.723338705151507 0.0
    vertex 104.9914819516313 -13.723338705151507 6.0
  endloop
endfacet
facet normal -0.999969350918769 0.007829254312896198 0.0
  outer loop
    vertex 104.9914819516313 -13.723338705151507 0.0
    vertex 104.99379558367012 -13.42783660039523 6.0
    vertex 104.99379558367012 -13.42783660039523 0.0
  endloop
endfacet
facet normal 0.9971447151010886 -0.07551435059622044 0.0
  outer loop
    vertex 110.96679001261079 -11.561719283872685 0.0
    vertex 110.91701500112671 -12.218983621757816 6.0
    vertex 110.91701500112671 -12.218983621757816 0.0
  endloop
endfacet
facet normal 0.9971447151010886 -0.07551435059622044 0.0
  outer loop
    vertex 110.91701500112671 -12.218983621757816 6.0
    vertex 110.96679001261079 -11.561719283872685 0.0
    vertex 110.96679001261079 -11.561719283872685 6.0
  endloop
endfacet
facet normal 0.25543599283428664 0.9668259686028102 0.0
  outer loop
    vertex 108.18819220302292 -8.314938247875451 6.0
    vertex 108.62196064146698 -8.429540125909671 0.0
    vertex 108.18819220302292 -8.314938247875451 0.0
  endloop
endfacet
facet normal 0.25543599283428664 0.9668259686028102 0.0
  outer loop
    vertex 108.62196064146698 -8.429540125909671 0.0
    vertex 108.18819220302292 -8.314938247875451 6.0
    vertex 108.62196064146698 -8.429540125909671 6.0
  endloop
endfacet
facet normal -1.0 0.0 0.0
  outer loop
    vertex 103.97385259373328 -11.159902160346403 6.0
    vertex 103.97385259373328 -12.208702356951605 0.0
    vertex 103.97385259373328 -12.208702356951605 6.0
  endloop
endfacet
facet normal -1.0 0.0 0.0
  outer loop
    vertex 103.97385259373328 -12.208702356951605 0.0
    vertex 103.97385259373328 -11.159902160346403 6.0
    vertex 103.97385259373328 -11.159902160346403 0.0
  endloop
endfacet
facet normal -0.9470524203529257 -0.32107898265639445 0.0
  outer loop
    vertex 105.12429363828034 -14.439371989617324 6.0
    vertex 105.35657326108405 -15.124502411904558 0.0
    vertex 105.35657326108405 -15.124502411904558 6.0
  endloop
endfacet
facet normal -0.9470524203529257 -0.32107898265639445 0.0
  outer loop
    vertex 105.35657326108405 -15.124502411904558 0.0
    vertex 105.12429363828034 -14.439371989617324 6.0
    vertex 105.12429363828034 -14.439371989617324 0.0
  endloop
endfacet
facet normal -0.9135320799840164 -0.4067666884592158 0.0
  outer loop
    vertex 105.35657326108405 -15.124502411904558 6.0
    vertex 105.67558259701521 -15.840945696115941 0.0
    vertex 105.67558259701521 -15.840945696115941 6.0
  endloop
endfacet
facet normal -0.9135320799840164 -0.4067666884592158 0.0
  outer loop
    vertex 105.67558259701521 -15.840945696115941 0.0
    vertex 105.35657326108405 -15.124502411904558 6.0
    vertex 105.35657326108405 -15.124502411904558 0.0
  endloop
endfacet
facet normal -0.37764024314151085 0.9259523998349055 0.0
  outer loop
    vertex 103.77649461239392 -16.372847399932773 6.0
    vertex 104.70379503270313 -15.99465738038832 0.0
    vertex 103.77649461239392 -16.372847399932773 0.0
  endloop
endfacet
facet normal -0.37764024314151085 0.9259523998349055 0.0
  outer loop
    vertex 104.70379503270313 -15.99465738038832 0.0
    vertex 103.77649461239392 -16.372847399932773 6.0
    vertex 104.70379503270313 -15.99465738038832 6.0
  endloop
endfacet
facet normal -0.5484747501060634 0.8361671175644803 0.0
  outer loop
    vertex 103.2203151905922 -16.7376672582828 6.0
    vertex 103.77649461239392 -16.372847399932773 0.0
    vertex 103.2203151905922 -16.7376672582828 0.0
  endloop
endfacet
facet normal -0.5484747501060634 0.8361671175644803 0.0
  outer loop
    vertex 103.77649461239392 -16.372847399932773 0.0
    vertex 103.2203151905922 -16.7376672582828 6.0
    vertex 103.77649461239392 -16.372847399932773 6.0
  endloop
endfacet
facet normal -0.7975214623042725 0.6032905744034586 0.0
  outer loop
    vertex 98.23233752260037 -16.764018428370772 6.0
    vertex 98.10928271151728 -16.92669103928567 0.0
    vertex 98.10928271151728 -16.92669103928567 6.0
  endloop
endfacet
facet normal -0.7975214623042725 0.6032905744034586 0.0
  outer loop
    vertex 98.10928271151728 -16.92669103928567 0.0
    vertex 98.23233752260037 -16.764018428370772 6.0
    vertex 98.23233752260037 -16.764018428370772 0.0
  endloop
endfacet
facet normal 0.0 1.0 0.0
  outer loop
    vertex 98.46765025859068 -16.576134307677613 6.0
    vertex 101.70659308970633 -16.576134307677613 0.0
    vertex 98.46765025859068 -16.576134307677613 0.0
  endloop
endfacet
facet normal 0.0 1.0 0.0
  outer loop
    vertex 101.70659308970633 -16.576134307677613 0.0
    vertex 98.46765025859068 -16.576134307677613 6.0
    vertex 101.70659308970633 -16.576134307677613 6.0
  endloop
endfacet
facet normal -0.6693672334096541 0.7429316972895326 0.0
  outer loop
    vertex 102.73482858509027 -17.175081393617006 6.0
    vertex 103.2203151905922 -16.7376672582828 0.0
    vertex 102.73482858509027 -17.175081393617006 0.0
  endloop
endfacet
facet normal -0.6693672334096541 0.7429316972895326 0.0
  outer loop
    vertex 103.2203151905922 -16.7376672582828 0.0
    vertex 102.73482858509027 -17.175081393617006 6.0
    vertex 103.2203151905922 -16.7376672582828 6.0
  endloop
endfacet
facet normal 0.5033336121516784 0.8640921680459461 0.0
  outer loop
    vertex 101.70659308970633 -16.576134307677613 6.0
    vertex 102.73482858509027 -17.175081393617006 0.0
    vertex 101.70659308970633 -16.576134307677613 0.0
  endloop
endfacet
facet normal 0.5033336121516784 0.8640921680459461 0.0
  outer loop
    vertex 102.73482858509027 -17.175081393617006 0.0
    vertex 101.70659308970633 -16.576134307677613 6.0
    vertex 102.73482858509027 -17.175081393617006 6.0
  endloop
endfacet
facet normal -0.6239534896715014 0.7814614787222436 0.0
  outer loop
    vertex 98.23233752260037 -16.764018428370772 6.0
    vertex 98.46765025859068 -16.576134307677613 0.0
    vertex 98.23233752260037 -16.764018428370772 0.0
  endloop
endfacet
facet normal -0.6239534896715014 0.7814614787222436 0.0
  outer loop
    vertex 98.46765025859068 -16.576134307677613 0.0
    vertex 98.23233752260037 -16.764018428370772 6.0
    vertex 98.46765025859068 -16.576134307677613 6.0
  endloop
endfacet
endsolid meeples la villa y colt expresa
