solid OpenSCAD_Model
  facet normal -0.358378 -0.933577 0
    outer loop
      vertex -1.19987 -2.69496 20.7
      vertex -0.9116 -2.80562 35.7
      vertex -1.19987 -2.69496 35.7
    endloop
  endfacet
  facet normal -0.358378 -0.933577 -0
    outer loop
      vertex -0.9116 -2.80562 35.7
      vertex -1.19987 -2.69496 20.7
      vertex -0.9116 -2.80562 20.7
    endloop
  endfacet
  facet normal 0.544623 0.838681 -0
    outer loop
      vertex 1.73397 2.3866 20.7
      vertex 1.475 2.55477 35.7
      vertex 1.73397 2.3866 35.7
    endloop
  endfacet
  facet normal 0.544623 0.838681 0
    outer loop
      vertex 1.475 2.55477 35.7
      vertex 1.73397 2.3866 20.7
      vertex 1.475 2.55477 20.7
    endloop
  endfacet
  facet normal -0.258823 0.965925 0
    outer loop
      vertex -0.613339 2.88554 20.7
      vertex -0.9116 2.80562 35.7
      vertex -0.613339 2.88554 35.7
    endloop
  endfacet
  facet normal -0.258823 0.965925 0
    outer loop
      vertex -0.9116 2.80562 35.7
      vertex -0.613339 2.88554 20.7
      vertex -0.9116 2.80562 20.7
    endloop
  endfacet
  facet normal -0.891001 0.454001 0
    outer loop
      vertex -2.69496 1.19987 20.7
      vertex -2.55477 1.475 35.7
      vertex -2.55477 1.475 20.7
    endloop
  endfacet
  facet normal -0.891001 0.454001 0
    outer loop
      vertex -2.55477 1.475 35.7
      vertex -2.69496 1.19987 20.7
      vertex -2.69496 1.19987 35.7
    endloop
  endfacet
  facet normal -0.933577 -0.358378 0
    outer loop
      vertex -2.69496 -1.19987 20.7
      vertex -2.80562 -0.9116 35.7
      vertex -2.80562 -0.9116 20.7
    endloop
  endfacet
  facet normal -0.933577 -0.358378 0
    outer loop
      vertex -2.80562 -0.9116 35.7
      vertex -2.69496 -1.19987 20.7
      vertex -2.69496 -1.19987 35.7
    endloop
  endfacet
  facet normal 0.965925 0.258823 0
    outer loop
      vertex 2.88554 0.613339 35.7
      vertex 2.80562 0.9116 20.7
      vertex 2.80562 0.9116 35.7
    endloop
  endfacet
  facet normal 0.965925 0.258823 0
    outer loop
      vertex 2.80562 0.9116 20.7
      vertex 2.88554 0.613339 35.7
      vertex 2.88554 0.613339 20.7
    endloop
  endfacet
  facet normal 0.777152 0.629313 0
    outer loop
      vertex 2.3866 1.73397 35.7
      vertex 2.19228 1.97394 20.7
      vertex 2.19228 1.97394 35.7
    endloop
  endfacet
  facet normal 0.777152 0.629313 0
    outer loop
      vertex 2.19228 1.97394 20.7
      vertex 2.3866 1.73397 35.7
      vertex 2.3866 1.73397 20.7
    endloop
  endfacet
  facet normal 0.454001 0.891001 -0
    outer loop
      vertex 1.475 2.55477 20.7
      vertex 1.19987 2.69496 35.7
      vertex 1.475 2.55477 35.7
    endloop
  endfacet
  facet normal 0.454001 0.891001 0
    outer loop
      vertex 1.19987 2.69496 35.7
      vertex 1.475 2.55477 20.7
      vertex 1.19987 2.69496 20.7
    endloop
  endfacet
  facet normal 0.258823 0.965925 -0
    outer loop
      vertex 0.9116 2.80562 20.7
      vertex 0.613339 2.88554 35.7
      vertex 0.9116 2.80562 35.7
    endloop
  endfacet
  facet normal 0.258823 0.965925 0
    outer loop
      vertex 0.613339 2.88554 35.7
      vertex 0.9116 2.80562 20.7
      vertex 0.613339 2.88554 20.7
    endloop
  endfacet
  facet normal -0.544623 0.838681 0
    outer loop
      vertex -1.475 2.55477 20.7
      vertex -1.73397 2.3866 35.7
      vertex -1.475 2.55477 35.7
    endloop
  endfacet
  facet normal -0.544623 0.838681 0
    outer loop
      vertex -1.73397 2.3866 35.7
      vertex -1.475 2.55477 20.7
      vertex -1.73397 2.3866 20.7
    endloop
  endfacet
  facet normal 0.933577 -0.358378 0
    outer loop
      vertex 2.69496 -1.19987 35.7
      vertex 2.80562 -0.9116 20.7
      vertex 2.80562 -0.9116 35.7
    endloop
  endfacet
  facet normal 0.933577 -0.358378 0
    outer loop
      vertex 2.80562 -0.9116 20.7
      vertex 2.69496 -1.19987 35.7
      vertex 2.69496 -1.19987 20.7
    endloop
  endfacet
  facet normal 0.258823 -0.965925 0
    outer loop
      vertex 0.613339 -2.88554 20.7
      vertex 0.9116 -2.80562 35.7
      vertex 0.613339 -2.88554 35.7
    endloop
  endfacet
  facet normal 0.258823 -0.965925 0
    outer loop
      vertex 0.9116 -2.80562 35.7
      vertex 0.613339 -2.88554 20.7
      vertex 0.9116 -2.80562 20.7
    endloop
  endfacet
  facet normal 0.707107 -0.707107 0
    outer loop
      vertex 1.97394 -2.19228 35.7
      vertex 2.19228 -1.97394 20.7
      vertex 2.19228 -1.97394 35.7
    endloop
  endfacet
  facet normal 0.707107 -0.707107 0
    outer loop
      vertex 2.19228 -1.97394 20.7
      vertex 1.97394 -2.19228 35.7
      vertex 1.97394 -2.19228 20.7
    endloop
  endfacet
  facet normal 0.98769 0.156421 0
    outer loop
      vertex 2.93384 0.308358 35.7
      vertex 2.88554 0.613339 20.7
      vertex 2.88554 0.613339 35.7
    endloop
  endfacet
  facet normal 0.98769 0.156421 0
    outer loop
      vertex 2.88554 0.613339 20.7
      vertex 2.93384 0.308358 35.7
      vertex 2.93384 0.308358 20.7
    endloop
  endfacet
  facet normal 0.933577 0.358378 0
    outer loop
      vertex 2.80562 0.9116 35.7
      vertex 2.69496 1.19987 20.7
      vertex 2.69496 1.19987 35.7
    endloop
  endfacet
  facet normal 0.933577 0.358378 0
    outer loop
      vertex 2.69496 1.19987 20.7
      vertex 2.80562 0.9116 35.7
      vertex 2.80562 0.9116 20.7
    endloop
  endfacet
  facet normal 0.891001 0.454001 0
    outer loop
      vertex 2.69496 1.19987 35.7
      vertex 2.55477 1.475 20.7
      vertex 2.55477 1.475 35.7
    endloop
  endfacet
  facet normal 0.891001 0.454001 0
    outer loop
      vertex 2.55477 1.475 20.7
      vertex 2.69496 1.19987 35.7
      vertex 2.69496 1.19987 20.7
    endloop
  endfacet
  facet normal 0.838681 0.544623 0
    outer loop
      vertex 2.55477 1.475 35.7
      vertex 2.3866 1.73397 20.7
      vertex 2.3866 1.73397 35.7
    endloop
  endfacet
  facet normal 0.838681 0.544623 0
    outer loop
      vertex 2.3866 1.73397 20.7
      vertex 2.55477 1.475 35.7
      vertex 2.55477 1.475 20.7
    endloop
  endfacet
  facet normal 0.707107 0.707107 0
    outer loop
      vertex 2.19228 1.97394 35.7
      vertex 1.97394 2.19228 20.7
      vertex 1.97394 2.19228 35.7
    endloop
  endfacet
  facet normal 0.707107 0.707107 0
    outer loop
      vertex 1.97394 2.19228 20.7
      vertex 2.19228 1.97394 35.7
      vertex 2.19228 1.97394 20.7
    endloop
  endfacet
  facet normal 0.0523348 0.99863 -0
    outer loop
      vertex 0.308358 2.93384 20.7
      vertex 0 2.95 35.7
      vertex 0.308358 2.93384 35.7
    endloop
  endfacet
  facet normal 0.0523348 0.99863 0
    outer loop
      vertex 0 2.95 35.7
      vertex 0.308358 2.93384 20.7
      vertex 0 2.95 20.7
    endloop
  endfacet
  facet normal 0.358378 0.933577 -0
    outer loop
      vertex 1.19987 2.69496 20.7
      vertex 0.9116 2.80562 35.7
      vertex 1.19987 2.69496 35.7
    endloop
  endfacet
  facet normal 0.358378 0.933577 0
    outer loop
      vertex 0.9116 2.80562 35.7
      vertex 1.19987 2.69496 20.7
      vertex 0.9116 2.80562 20.7
    endloop
  endfacet
  facet normal 0.156421 0.98769 -0
    outer loop
      vertex 0.613339 2.88554 20.7
      vertex 0.308358 2.93384 35.7
      vertex 0.613339 2.88554 35.7
    endloop
  endfacet
  facet normal 0.156421 0.98769 0
    outer loop
      vertex 0.308358 2.93384 35.7
      vertex 0.613339 2.88554 20.7
      vertex 0.308358 2.93384 20.7
    endloop
  endfacet
  facet normal -0.99863 0.0523348 0
    outer loop
      vertex -2.95 0 20.7
      vertex -2.93384 0.308358 35.7
      vertex -2.93384 0.308358 20.7
    endloop
  endfacet
  facet normal -0.99863 0.0523348 0
    outer loop
      vertex -2.93384 0.308358 35.7
      vertex -2.95 0 20.7
      vertex -2.95 0 35.7
    endloop
  endfacet
  facet normal -0.933577 0.358378 0
    outer loop
      vertex -2.80562 0.9116 20.7
      vertex -2.69496 1.19987 35.7
      vertex -2.69496 1.19987 20.7
    endloop
  endfacet
  facet normal -0.933577 0.358378 0
    outer loop
      vertex -2.69496 1.19987 35.7
      vertex -2.80562 0.9116 20.7
      vertex -2.80562 0.9116 35.7
    endloop
  endfacet
  facet normal -0.965925 0.258823 0
    outer loop
      vertex -2.88554 0.613339 20.7
      vertex -2.80562 0.9116 35.7
      vertex -2.80562 0.9116 20.7
    endloop
  endfacet
  facet normal -0.965925 0.258823 0
    outer loop
      vertex -2.80562 0.9116 35.7
      vertex -2.88554 0.613339 20.7
      vertex -2.88554 0.613339 35.7
    endloop
  endfacet
  facet normal -0.98769 0.156421 0
    outer loop
      vertex -2.93384 0.308358 20.7
      vertex -2.88554 0.613339 35.7
      vertex -2.88554 0.613339 20.7
    endloop
  endfacet
  facet normal -0.98769 0.156421 0
    outer loop
      vertex -2.88554 0.613339 35.7
      vertex -2.93384 0.308358 20.7
      vertex -2.93384 0.308358 35.7
    endloop
  endfacet
  facet normal -0.707107 0.707107 0
    outer loop
      vertex -2.19228 1.97394 20.7
      vertex -1.97394 2.19228 35.7
      vertex -1.97394 2.19228 20.7
    endloop
  endfacet
  facet normal -0.707107 0.707107 0
    outer loop
      vertex -1.97394 2.19228 35.7
      vertex -2.19228 1.97394 20.7
      vertex -2.19228 1.97394 35.7
    endloop
  endfacet
  facet normal -0.838681 0.544623 0
    outer loop
      vertex -2.55477 1.475 20.7
      vertex -2.3866 1.73397 35.7
      vertex -2.3866 1.73397 20.7
    endloop
  endfacet
  facet normal -0.838681 0.544623 0
    outer loop
      vertex -2.3866 1.73397 35.7
      vertex -2.55477 1.475 20.7
      vertex -2.55477 1.475 35.7
    endloop
  endfacet
  facet normal -0.777152 0.629313 0
    outer loop
      vertex -2.3866 1.73397 20.7
      vertex -2.19228 1.97394 35.7
      vertex -2.19228 1.97394 20.7
    endloop
  endfacet
  facet normal -0.777152 0.629313 0
    outer loop
      vertex -2.19228 1.97394 35.7
      vertex -2.3866 1.73397 20.7
      vertex -2.3866 1.73397 35.7
    endloop
  endfacet
  facet normal -0.0523348 0.99863 0
    outer loop
      vertex 0 2.95 20.7
      vertex -0.308358 2.93384 35.7
      vertex 0 2.95 35.7
    endloop
  endfacet
  facet normal -0.0523348 0.99863 0
    outer loop
      vertex -0.308358 2.93384 35.7
      vertex 0 2.95 20.7
      vertex -0.308358 2.93384 20.7
    endloop
  endfacet
  facet normal -0.156421 0.98769 0
    outer loop
      vertex -0.308358 2.93384 20.7
      vertex -0.613339 2.88554 35.7
      vertex -0.308358 2.93384 35.7
    endloop
  endfacet
  facet normal -0.156421 0.98769 0
    outer loop
      vertex -0.613339 2.88554 35.7
      vertex -0.308358 2.93384 20.7
      vertex -0.613339 2.88554 20.7
    endloop
  endfacet
  facet normal -0.358378 0.933577 0
    outer loop
      vertex -0.9116 2.80562 20.7
      vertex -1.19987 2.69496 35.7
      vertex -0.9116 2.80562 35.7
    endloop
  endfacet
  facet normal -0.358378 0.933577 0
    outer loop
      vertex -1.19987 2.69496 35.7
      vertex -0.9116 2.80562 20.7
      vertex -1.19987 2.69496 20.7
    endloop
  endfacet
  facet normal -0.454001 0.891001 0
    outer loop
      vertex -1.19987 2.69496 20.7
      vertex -1.475 2.55477 35.7
      vertex -1.19987 2.69496 35.7
    endloop
  endfacet
  facet normal -0.454001 0.891001 0
    outer loop
      vertex -1.475 2.55477 35.7
      vertex -1.19987 2.69496 20.7
      vertex -1.475 2.55477 20.7
    endloop
  endfacet
  facet normal -0.629313 0.777152 0
    outer loop
      vertex -1.73397 2.3866 20.7
      vertex -1.97394 2.19228 35.7
      vertex -1.73397 2.3866 35.7
    endloop
  endfacet
  facet normal -0.629313 0.777152 0
    outer loop
      vertex -1.97394 2.19228 35.7
      vertex -1.73397 2.3866 20.7
      vertex -1.97394 2.19228 20.7
    endloop
  endfacet
  facet normal 0.99863 0.0523348 0
    outer loop
      vertex 2.95 0 35.7
      vertex 2.93384 0.308358 20.7
      vertex 2.93384 0.308358 35.7
    endloop
  endfacet
  facet normal 0.99863 0.0523348 0
    outer loop
      vertex 2.93384 0.308358 20.7
      vertex 2.95 0 35.7
      vertex 2.95 0 20.7
    endloop
  endfacet
  facet normal 0.0523348 -0.99863 0
    outer loop
      vertex 0 -2.95 20.7
      vertex 0.308358 -2.93384 35.7
      vertex 0 -2.95 35.7
    endloop
  endfacet
  facet normal 0.0523348 -0.99863 0
    outer loop
      vertex 0.308358 -2.93384 35.7
      vertex 0 -2.95 20.7
      vertex 0.308358 -2.93384 20.7
    endloop
  endfacet
  facet normal 0.965925 -0.258823 0
    outer loop
      vertex 2.80562 -0.9116 35.7
      vertex 2.88554 -0.613339 20.7
      vertex 2.88554 -0.613339 35.7
    endloop
  endfacet
  facet normal 0.965925 -0.258823 0
    outer loop
      vertex 2.88554 -0.613339 20.7
      vertex 2.80562 -0.9116 35.7
      vertex 2.80562 -0.9116 20.7
    endloop
  endfacet
  facet normal 0.156421 -0.98769 0
    outer loop
      vertex 0.308358 -2.93384 20.7
      vertex 0.613339 -2.88554 35.7
      vertex 0.308358 -2.93384 35.7
    endloop
  endfacet
  facet normal 0.156421 -0.98769 0
    outer loop
      vertex 0.613339 -2.88554 35.7
      vertex 0.308358 -2.93384 20.7
      vertex 0.613339 -2.88554 20.7
    endloop
  endfacet
  facet normal 0.454001 -0.891001 0
    outer loop
      vertex 1.19987 -2.69496 20.7
      vertex 1.475 -2.55477 35.7
      vertex 1.19987 -2.69496 35.7
    endloop
  endfacet
  facet normal 0.454001 -0.891001 0
    outer loop
      vertex 1.475 -2.55477 35.7
      vertex 1.19987 -2.69496 20.7
      vertex 1.475 -2.55477 20.7
    endloop
  endfacet
  facet normal 0.629313 -0.777152 0
    outer loop
      vertex 1.73397 -2.3866 20.7
      vertex 1.97394 -2.19228 35.7
      vertex 1.73397 -2.3866 35.7
    endloop
  endfacet
  facet normal 0.629313 -0.777152 0
    outer loop
      vertex 1.97394 -2.19228 35.7
      vertex 1.73397 -2.3866 20.7
      vertex 1.97394 -2.19228 20.7
    endloop
  endfacet
  facet normal 0.544623 -0.838681 0
    outer loop
      vertex 1.475 -2.55477 20.7
      vertex 1.73397 -2.3866 35.7
      vertex 1.475 -2.55477 35.7
    endloop
  endfacet
  facet normal 0.544623 -0.838681 0
    outer loop
      vertex 1.73397 -2.3866 35.7
      vertex 1.475 -2.55477 20.7
      vertex 1.73397 -2.3866 20.7
    endloop
  endfacet
  facet normal 0.777152 -0.629313 0
    outer loop
      vertex 2.19228 -1.97394 35.7
      vertex 2.3866 -1.73397 20.7
      vertex 2.3866 -1.73397 35.7
    endloop
  endfacet
  facet normal 0.777152 -0.629313 0
    outer loop
      vertex 2.3866 -1.73397 20.7
      vertex 2.19228 -1.97394 35.7
      vertex 2.19228 -1.97394 20.7
    endloop
  endfacet
  facet normal 0.891001 -0.454001 0
    outer loop
      vertex 2.55477 -1.475 35.7
      vertex 2.69496 -1.19987 20.7
      vertex 2.69496 -1.19987 35.7
    endloop
  endfacet
  facet normal 0.891001 -0.454001 0
    outer loop
      vertex 2.69496 -1.19987 20.7
      vertex 2.55477 -1.475 35.7
      vertex 2.55477 -1.475 20.7
    endloop
  endfacet
  facet normal 0.838681 -0.544623 0
    outer loop
      vertex 2.3866 -1.73397 35.7
      vertex 2.55477 -1.475 20.7
      vertex 2.55477 -1.475 35.7
    endloop
  endfacet
  facet normal 0.838681 -0.544623 0
    outer loop
      vertex 2.55477 -1.475 20.7
      vertex 2.3866 -1.73397 35.7
      vertex 2.3866 -1.73397 20.7
    endloop
  endfacet
  facet normal -0.156421 -0.98769 0
    outer loop
      vertex -0.613339 -2.88554 20.7
      vertex -0.308358 -2.93384 35.7
      vertex -0.613339 -2.88554 35.7
    endloop
  endfacet
  facet normal -0.156421 -0.98769 -0
    outer loop
      vertex -0.308358 -2.93384 35.7
      vertex -0.613339 -2.88554 20.7
      vertex -0.308358 -2.93384 20.7
    endloop
  endfacet
  facet normal -0.0523348 -0.99863 0
    outer loop
      vertex -0.308358 -2.93384 20.7
      vertex 0 -2.95 35.7
      vertex -0.308358 -2.93384 35.7
    endloop
  endfacet
  facet normal -0.0523348 -0.99863 -0
    outer loop
      vertex 0 -2.95 35.7
      vertex -0.308358 -2.93384 20.7
      vertex 0 -2.95 20.7
    endloop
  endfacet
  facet normal -0.544623 -0.838681 0
    outer loop
      vertex -1.73397 -2.3866 20.7
      vertex -1.475 -2.55477 35.7
      vertex -1.73397 -2.3866 35.7
    endloop
  endfacet
  facet normal -0.544623 -0.838681 -0
    outer loop
      vertex -1.475 -2.55477 35.7
      vertex -1.73397 -2.3866 20.7
      vertex -1.475 -2.55477 20.7
    endloop
  endfacet
  facet normal -0.707107 -0.707107 0
    outer loop
      vertex -1.97394 -2.19228 20.7
      vertex -2.19228 -1.97394 35.7
      vertex -2.19228 -1.97394 20.7
    endloop
  endfacet
  facet normal -0.707107 -0.707107 0
    outer loop
      vertex -2.19228 -1.97394 35.7
      vertex -1.97394 -2.19228 20.7
      vertex -1.97394 -2.19228 35.7
    endloop
  endfacet
  facet normal -0.454001 -0.891001 0
    outer loop
      vertex -1.475 -2.55477 20.7
      vertex -1.19987 -2.69496 35.7
      vertex -1.475 -2.55477 35.7
    endloop
  endfacet
  facet normal -0.454001 -0.891001 -0
    outer loop
      vertex -1.19987 -2.69496 35.7
      vertex -1.475 -2.55477 20.7
      vertex -1.19987 -2.69496 20.7
    endloop
  endfacet
  facet normal -0.965925 -0.258823 0
    outer loop
      vertex -2.80562 -0.9116 20.7
      vertex -2.88554 -0.613339 35.7
      vertex -2.88554 -0.613339 20.7
    endloop
  endfacet
  facet normal -0.965925 -0.258823 0
    outer loop
      vertex -2.88554 -0.613339 35.7
      vertex -2.80562 -0.9116 20.7
      vertex -2.80562 -0.9116 35.7
    endloop
  endfacet
  facet normal -0.99863 -0.0523348 0
    outer loop
      vertex -2.93384 -0.308358 20.7
      vertex -2.95 0 35.7
      vertex -2.95 0 20.7
    endloop
  endfacet
  facet normal -0.99863 -0.0523348 0
    outer loop
      vertex -2.95 0 35.7
      vertex -2.93384 -0.308358 20.7
      vertex -2.93384 -0.308358 35.7
    endloop
  endfacet
  facet normal 0 0 1
    outer loop
      vertex 2.95 0 20.7
      vertex 6.25 0 20.7
      vertex 6.21576 0.653302 20.7
    endloop
  endfacet
  facet normal 0 0 1
    outer loop
      vertex 2.93384 0.308358 20.7
      vertex 6.21576 0.653302 20.7
      vertex 6.11342 1.29945 20.7
    endloop
  endfacet
  facet normal 0 0 1
    outer loop
      vertex 6.25 0 20.7
      vertex 2.95 0 20.7
      vertex 6.21576 -0.653302 20.7
    endloop
  endfacet
  facet normal 0 0 1
    outer loop
      vertex 2.88554 0.613339 20.7
      vertex 6.11342 1.29945 20.7
      vertex 5.9441 1.93136 20.7
    endloop
  endfacet
  facet normal -0 0 1
    outer loop
      vertex 2.93384 -0.308358 20.7
      vertex 6.21576 -0.653302 20.7
      vertex 2.95 0 20.7
    endloop
  endfacet
  facet normal 0 0 1
    outer loop
      vertex 2.80562 0.9116 20.7
      vertex 5.9441 1.93136 20.7
      vertex 5.70966 2.5421 20.7
    endloop
  endfacet
  facet normal 0 0 1
    outer loop
      vertex 6.21576 -0.653302 20.7
      vertex 2.93384 -0.308358 20.7
      vertex 6.11342 -1.29945 20.7
    endloop
  endfacet
  facet normal 0 0 1
    outer loop
      vertex 2.69496 1.19987 20.7
      vertex 5.70966 2.5421 20.7
      vertex 5.41266 3.125 20.7
    endloop
  endfacet
  facet normal -0 0 1
    outer loop
      vertex 2.88554 -0.613339 20.7
      vertex 6.11342 -1.29945 20.7
      vertex 2.93384 -0.308358 20.7
    endloop
  endfacet
  facet normal 0 0 1
    outer loop
      vertex 2.55477 1.475 20.7
      vertex 5.41266 3.125 20.7
      vertex 5.05636 3.67366 20.7
    endloop
  endfacet
  facet normal 0 0 1
    outer loop
      vertex 6.11342 -1.29945 20.7
      vertex 2.88554 -0.613339 20.7
      vertex 5.9441 -1.93136 20.7
    endloop
  endfacet
  facet normal 0 0 1
    outer loop
      vertex 2.3866 1.73397 20.7
      vertex 5.05636 3.67366 20.7
      vertex 4.64465 4.18207 20.7
    endloop
  endfacet
  facet normal -0 0 1
    outer loop
      vertex 2.80562 -0.9116 20.7
      vertex 5.9441 -1.93136 20.7
      vertex 2.88554 -0.613339 20.7
    endloop
  endfacet
  facet normal 0 0 1
    outer loop
      vertex 2.19228 1.97394 20.7
      vertex 4.64465 4.18207 20.7
      vertex 4.18207 4.64465 20.7
    endloop
  endfacet
  facet normal 0 0 1
    outer loop
      vertex 5.9441 -1.93136 20.7
      vertex 2.80562 -0.9116 20.7
      vertex 5.70966 -2.5421 20.7
    endloop
  endfacet
  facet normal 0 0 1
    outer loop
      vertex 1.97394 2.19228 20.7
      vertex 4.18207 4.64465 20.7
      vertex 3.67366 5.05636 20.7
    endloop
  endfacet
  facet normal -0 0 1
    outer loop
      vertex 2.69496 -1.19987 20.7
      vertex 5.70966 -2.5421 20.7
      vertex 2.80562 -0.9116 20.7
    endloop
  endfacet
  facet normal 0 0 1
    outer loop
      vertex 1.73397 2.3866 20.7
      vertex 3.67366 5.05636 20.7
      vertex 3.125 5.41266 20.7
    endloop
  endfacet
  facet normal 0 0 1
    outer loop
      vertex 5.70966 -2.5421 20.7
      vertex 2.69496 -1.19987 20.7
      vertex 5.41266 -3.125 20.7
    endloop
  endfacet
  facet normal -0 0 1
    outer loop
      vertex 2.55477 -1.475 20.7
      vertex 5.41266 -3.125 20.7
      vertex 2.69496 -1.19987 20.7
    endloop
  endfacet
  facet normal 0 0 1
    outer loop
      vertex 6.21576 0.653302 20.7
      vertex 2.93384 0.308358 20.7
      vertex 2.95 0 20.7
    endloop
  endfacet
  facet normal 0 0 1
    outer loop
      vertex 6.11342 1.29945 20.7
      vertex 2.88554 0.613339 20.7
      vertex 2.93384 0.308358 20.7
    endloop
  endfacet
  facet normal 0 0 1
    outer loop
      vertex 5.9441 1.93136 20.7
      vertex 2.80562 0.9116 20.7
      vertex 2.88554 0.613339 20.7
    endloop
  endfacet
  facet normal 0 0 1
    outer loop
      vertex 5.70966 2.5421 20.7
      vertex 2.69496 1.19987 20.7
      vertex 2.80562 0.9116 20.7
    endloop
  endfacet
  facet normal 0 0 1
    outer loop
      vertex 5.41266 3.125 20.7
      vertex 2.55477 1.475 20.7
      vertex 2.69496 1.19987 20.7
    endloop
  endfacet
  facet normal 0 0 1
    outer loop
      vertex 1.475 2.55477 20.7
      vertex 3.125 5.41266 20.7
      vertex 2.5421 5.70966 20.7
    endloop
  endfacet
  facet normal 0 0 1
    outer loop
      vertex 5.05636 3.67366 20.7
      vertex 2.3866 1.73397 20.7
      vertex 2.55477 1.475 20.7
    endloop
  endfacet
  facet normal 0 0 1
    outer loop
      vertex 4.64465 4.18207 20.7
      vertex 2.19228 1.97394 20.7
      vertex 2.3866 1.73397 20.7
    endloop
  endfacet
  facet normal 0 0 1
    outer loop
      vertex 4.18207 4.64465 20.7
      vertex 1.97394 2.19228 20.7
      vertex 2.19228 1.97394 20.7
    endloop
  endfacet
  facet normal 0 0 1
    outer loop
      vertex 1.19987 2.69496 20.7
      vertex 2.5421 5.70966 20.7
      vertex 1.93136 5.9441 20.7
    endloop
  endfacet
  facet normal 0 0 1
    outer loop
      vertex 3.67366 5.05636 20.7
      vertex 1.73397 2.3866 20.7
      vertex 1.97394 2.19228 20.7
    endloop
  endfacet
  facet normal 0 0 1
    outer loop
      vertex 3.125 5.41266 20.7
      vertex 1.475 2.55477 20.7
      vertex 1.73397 2.3866 20.7
    endloop
  endfacet
  facet normal 0 0 1
    outer loop
      vertex 0.9116 2.80562 20.7
      vertex 1.93136 5.9441 20.7
      vertex 1.29945 6.11342 20.7
    endloop
  endfacet
  facet normal 0 0 1
    outer loop
      vertex 2.5421 5.70966 20.7
      vertex 1.19987 2.69496 20.7
      vertex 1.475 2.55477 20.7
    endloop
  endfacet
  facet normal 0 0 1
    outer loop
      vertex 1.93136 5.9441 20.7
      vertex 0.9116 2.80562 20.7
      vertex 1.19987 2.69496 20.7
    endloop
  endfacet
  facet normal 0 0 1
    outer loop
      vertex 0.613339 2.88554 20.7
      vertex 1.29945 6.11342 20.7
      vertex 0.653302 6.21576 20.7
    endloop
  endfacet
  facet normal 0 0 1
    outer loop
      vertex 1.29945 6.11342 20.7
      vertex 0.613339 2.88554 20.7
      vertex 0.9116 2.80562 20.7
    endloop
  endfacet
  facet normal 0 0 1
    outer loop
      vertex 0.653302 6.21576 20.7
      vertex 0.308358 2.93384 20.7
      vertex 0.613339 2.88554 20.7
    endloop
  endfacet
  facet normal 0 0 1
    outer loop
      vertex 0 6.25 20.7
      vertex 0.308358 2.93384 20.7
      vertex 0.653302 6.21576 20.7
    endloop
  endfacet
  facet normal 0 0 1
    outer loop
      vertex 0 6.25 20.7
      vertex 0 2.95 20.7
      vertex 0.308358 2.93384 20.7
    endloop
  endfacet
  facet normal 0 0 1
    outer loop
      vertex 0 6.25 20.7
      vertex -0.308358 2.93384 20.7
      vertex 0 2.95 20.7
    endloop
  endfacet
  facet normal -0 0 1
    outer loop
      vertex -0.653302 6.21576 20.7
      vertex -0.308358 2.93384 20.7
      vertex 0 6.25 20.7
    endloop
  endfacet
  facet normal 0 0 1
    outer loop
      vertex -0.308358 2.93384 20.7
      vertex -0.653302 6.21576 20.7
      vertex -0.613339 2.88554 20.7
    endloop
  endfacet
  facet normal -0 0 1
    outer loop
      vertex -1.29945 6.11342 20.7
      vertex -0.613339 2.88554 20.7
      vertex -0.653302 6.21576 20.7
    endloop
  endfacet
  facet normal 0 0 1
    outer loop
      vertex -0.613339 2.88554 20.7
      vertex -1.29945 6.11342 20.7
      vertex -0.9116 2.80562 20.7
    endloop
  endfacet
  facet normal -0 0 1
    outer loop
      vertex -1.93136 5.9441 20.7
      vertex -0.9116 2.80562 20.7
      vertex -1.29945 6.11342 20.7
    endloop
  endfacet
  facet normal 0 0 1
    outer loop
      vertex -0.9116 2.80562 20.7
      vertex -1.93136 5.9441 20.7
      vertex -1.19987 2.69496 20.7
    endloop
  endfacet
  facet normal -0 0 1
    outer loop
      vertex -2.5421 5.70966 20.7
      vertex -1.19987 2.69496 20.7
      vertex -1.93136 5.9441 20.7
    endloop
  endfacet
  facet normal 0 0 1
    outer loop
      vertex -1.19987 2.69496 20.7
      vertex -2.5421 5.70966 20.7
      vertex -1.475 2.55477 20.7
    endloop
  endfacet
  facet normal -0 0 1
    outer loop
      vertex -3.125 5.41266 20.7
      vertex -1.475 2.55477 20.7
      vertex -2.5421 5.70966 20.7
    endloop
  endfacet
  facet normal 0 0 1
    outer loop
      vertex -1.475 2.55477 20.7
      vertex -3.125 5.41266 20.7
      vertex -1.73397 2.3866 20.7
    endloop
  endfacet
  facet normal -0 0 1
    outer loop
      vertex -3.67366 5.05636 20.7
      vertex -1.73397 2.3866 20.7
      vertex -3.125 5.41266 20.7
    endloop
  endfacet
  facet normal 0 0 1
    outer loop
      vertex -1.73397 2.3866 20.7
      vertex -3.67366 5.05636 20.7
      vertex -1.97394 2.19228 20.7
    endloop
  endfacet
  facet normal -0 0 1
    outer loop
      vertex -4.18207 4.64465 20.7
      vertex -1.97394 2.19228 20.7
      vertex -3.67366 5.05636 20.7
    endloop
  endfacet
  facet normal 0 0 1
    outer loop
      vertex -1.97394 2.19228 20.7
      vertex -4.18207 4.64465 20.7
      vertex -2.19228 1.97394 20.7
    endloop
  endfacet
  facet normal -0 0 1
    outer loop
      vertex -4.64465 4.18207 20.7
      vertex -2.19228 1.97394 20.7
      vertex -4.18207 4.64465 20.7
    endloop
  endfacet
  facet normal 0 0 1
    outer loop
      vertex -2.19228 1.97394 20.7
      vertex -4.64465 4.18207 20.7
      vertex -2.3866 1.73397 20.7
    endloop
  endfacet
  facet normal -0 0 1
    outer loop
      vertex -5.05636 3.67366 20.7
      vertex -2.3866 1.73397 20.7
      vertex -4.64465 4.18207 20.7
    endloop
  endfacet
  facet normal -0 0 1
    outer loop
      vertex -5.41266 3.125 20.7
      vertex -2.55477 1.475 20.7
      vertex -5.05636 3.67366 20.7
    endloop
  endfacet
  facet normal 0 0 1
    outer loop
      vertex -2.3866 1.73397 20.7
      vertex -5.05636 3.67366 20.7
      vertex -2.55477 1.475 20.7
    endloop
  endfacet
  facet normal 0 0 1
    outer loop
      vertex 5.41266 -3.125 20.7
      vertex 2.55477 -1.475 20.7
      vertex 5.05636 -3.67366 20.7
    endloop
  endfacet
  facet normal -0 0 1
    outer loop
      vertex 2.3866 -1.73397 20.7
      vertex 5.05636 -3.67366 20.7
      vertex 2.55477 -1.475 20.7
    endloop
  endfacet
  facet normal 0 0 1
    outer loop
      vertex 5.05636 -3.67366 20.7
      vertex 2.3866 -1.73397 20.7
      vertex 4.64465 -4.18207 20.7
    endloop
  endfacet
  facet normal -0 0 1
    outer loop
      vertex 2.19228 -1.97394 20.7
      vertex 4.64465 -4.18207 20.7
      vertex 2.3866 -1.73397 20.7
    endloop
  endfacet
  facet normal 0 0 1
    outer loop
      vertex 4.64465 -4.18207 20.7
      vertex 2.19228 -1.97394 20.7
      vertex 4.18207 -4.64465 20.7
    endloop
  endfacet
  facet normal -0 0 1
    outer loop
      vertex 1.97394 -2.19228 20.7
      vertex 4.18207 -4.64465 20.7
      vertex 2.19228 -1.97394 20.7
    endloop
  endfacet
  facet normal 0 0 1
    outer loop
      vertex 4.18207 -4.64465 20.7
      vertex 1.97394 -2.19228 20.7
      vertex 3.67366 -5.05636 20.7
    endloop
  endfacet
  facet normal -0 0 1
    outer loop
      vertex 1.73397 -2.3866 20.7
      vertex 3.67366 -5.05636 20.7
      vertex 1.97394 -2.19228 20.7
    endloop
  endfacet
  facet normal 0 0 1
    outer loop
      vertex 3.67366 -5.05636 20.7
      vertex 1.73397 -2.3866 20.7
      vertex 3.125 -5.41266 20.7
    endloop
  endfacet
  facet normal -0 0 1
    outer loop
      vertex 1.475 -2.55477 20.7
      vertex 3.125 -5.41266 20.7
      vertex 1.73397 -2.3866 20.7
    endloop
  endfacet
  facet normal 0 0 1
    outer loop
      vertex 3.125 -5.41266 20.7
      vertex 1.475 -2.55477 20.7
      vertex 2.5421 -5.70966 20.7
    endloop
  endfacet
  facet normal -0 0 1
    outer loop
      vertex 1.19987 -2.69496 20.7
      vertex 2.5421 -5.70966 20.7
      vertex 1.475 -2.55477 20.7
    endloop
  endfacet
  facet normal 0 0 1
    outer loop
      vertex 2.5421 -5.70966 20.7
      vertex 1.19987 -2.69496 20.7
      vertex 1.93136 -5.9441 20.7
    endloop
  endfacet
  facet normal -0 0 1
    outer loop
      vertex 0.9116 -2.80562 20.7
      vertex 1.93136 -5.9441 20.7
      vertex 1.19987 -2.69496 20.7
    endloop
  endfacet
  facet normal 0 0 1
    outer loop
      vertex 1.93136 -5.9441 20.7
      vertex 0.9116 -2.80562 20.7
      vertex 1.29945 -6.11342 20.7
    endloop
  endfacet
  facet normal -0 0 1
    outer loop
      vertex 0.613339 -2.88554 20.7
      vertex 1.29945 -6.11342 20.7
      vertex 0.9116 -2.80562 20.7
    endloop
  endfacet
  facet normal 0 0 1
    outer loop
      vertex 1.29945 -6.11342 20.7
      vertex 0.613339 -2.88554 20.7
      vertex 0.653302 -6.21576 20.7
    endloop
  endfacet
  facet normal -0 0 1
    outer loop
      vertex 0.308358 -2.93384 20.7
      vertex 0.653302 -6.21576 20.7
      vertex 0.613339 -2.88554 20.7
    endloop
  endfacet
  facet normal -0 0 1
    outer loop
      vertex 0 -2.95 20.7
      vertex 0.653302 -6.21576 20.7
      vertex 0.308358 -2.93384 20.7
    endloop
  endfacet
  facet normal 0 0 1
    outer loop
      vertex 0 -2.95 20.7
      vertex 0 -6.25 20.7
      vertex 0.653302 -6.21576 20.7
    endloop
  endfacet
  facet normal 0 0 1
    outer loop
      vertex -0.308358 -2.93384 20.7
      vertex 0 -6.25 20.7
      vertex 0 -2.95 20.7
    endloop
  endfacet
  facet normal 0 0 1
    outer loop
      vertex -0.653302 -6.21576 20.7
      vertex -0.308358 -2.93384 20.7
      vertex -0.613339 -2.88554 20.7
    endloop
  endfacet
  facet normal 0 0 1
    outer loop
      vertex -0.308358 -2.93384 20.7
      vertex -0.653302 -6.21576 20.7
      vertex 0 -6.25 20.7
    endloop
  endfacet
  facet normal 0 0 1
    outer loop
      vertex -1.29945 -6.11342 20.7
      vertex -0.613339 -2.88554 20.7
      vertex -0.9116 -2.80562 20.7
    endloop
  endfacet
  facet normal 0 0 1
    outer loop
      vertex -1.93136 -5.9441 20.7
      vertex -0.9116 -2.80562 20.7
      vertex -1.19987 -2.69496 20.7
    endloop
  endfacet
  facet normal 0 0 1
    outer loop
      vertex -0.613339 -2.88554 20.7
      vertex -1.29945 -6.11342 20.7
      vertex -0.653302 -6.21576 20.7
    endloop
  endfacet
  facet normal 0 0 1
    outer loop
      vertex -2.5421 -5.70966 20.7
      vertex -1.19987 -2.69496 20.7
      vertex -1.475 -2.55477 20.7
    endloop
  endfacet
  facet normal 0 0 1
    outer loop
      vertex -3.125 -5.41266 20.7
      vertex -1.475 -2.55477 20.7
      vertex -1.73397 -2.3866 20.7
    endloop
  endfacet
  facet normal 0 0 1
    outer loop
      vertex -0.9116 -2.80562 20.7
      vertex -1.93136 -5.9441 20.7
      vertex -1.29945 -6.11342 20.7
    endloop
  endfacet
  facet normal 0 0 1
    outer loop
      vertex -3.67366 -5.05636 20.7
      vertex -1.73397 -2.3866 20.7
      vertex -1.97394 -2.19228 20.7
    endloop
  endfacet
  facet normal 0 0 1
    outer loop
      vertex -4.18207 -4.64465 20.7
      vertex -1.97394 -2.19228 20.7
      vertex -2.19228 -1.97394 20.7
    endloop
  endfacet
  facet normal 0 0 1
    outer loop
      vertex -4.64465 -4.18207 20.7
      vertex -2.19228 -1.97394 20.7
      vertex -2.3866 -1.73397 20.7
    endloop
  endfacet
  facet normal 0 0 1
    outer loop
      vertex -1.19987 -2.69496 20.7
      vertex -2.5421 -5.70966 20.7
      vertex -1.93136 -5.9441 20.7
    endloop
  endfacet
  facet normal 0 0 1
    outer loop
      vertex -5.05636 -3.67366 20.7
      vertex -2.3866 -1.73397 20.7
      vertex -2.55477 -1.475 20.7
    endloop
  endfacet
  facet normal 0 0 1
    outer loop
      vertex -5.41266 -3.125 20.7
      vertex -2.55477 -1.475 20.7
      vertex -2.69496 -1.19987 20.7
    endloop
  endfacet
  facet normal 0 0 1
    outer loop
      vertex -5.70966 -2.5421 20.7
      vertex -2.69496 -1.19987 20.7
      vertex -2.80562 -0.9116 20.7
    endloop
  endfacet
  facet normal 0 0 1
    outer loop
      vertex -5.9441 -1.93136 20.7
      vertex -2.80562 -0.9116 20.7
      vertex -2.88554 -0.613339 20.7
    endloop
  endfacet
  facet normal 0 0 1
    outer loop
      vertex -6.11342 -1.29945 20.7
      vertex -2.88554 -0.613339 20.7
      vertex -2.93384 -0.308358 20.7
    endloop
  endfacet
  facet normal 0 0 1
    outer loop
      vertex -1.475 -2.55477 20.7
      vertex -3.125 -5.41266 20.7
      vertex -2.5421 -5.70966 20.7
    endloop
  endfacet
  facet normal 0 0 1
    outer loop
      vertex -6.21576 -0.653302 20.7
      vertex -2.93384 -0.308358 20.7
      vertex -2.95 0 20.7
    endloop
  endfacet
  facet normal 0 0 1
    outer loop
      vertex -2.55477 1.475 20.7
      vertex -5.41266 3.125 20.7
      vertex -2.69496 1.19987 20.7
    endloop
  endfacet
  facet normal -0 0 1
    outer loop
      vertex -5.70966 2.5421 20.7
      vertex -2.69496 1.19987 20.7
      vertex -5.41266 3.125 20.7
    endloop
  endfacet
  facet normal 0 0 1
    outer loop
      vertex -1.73397 -2.3866 20.7
      vertex -3.67366 -5.05636 20.7
      vertex -3.125 -5.41266 20.7
    endloop
  endfacet
  facet normal 0 0 1
    outer loop
      vertex -2.69496 1.19987 20.7
      vertex -5.70966 2.5421 20.7
      vertex -2.80562 0.9116 20.7
    endloop
  endfacet
  facet normal 0 0 1
    outer loop
      vertex -1.97394 -2.19228 20.7
      vertex -4.18207 -4.64465 20.7
      vertex -3.67366 -5.05636 20.7
    endloop
  endfacet
  facet normal -0 0 1
    outer loop
      vertex -5.9441 1.93136 20.7
      vertex -2.80562 0.9116 20.7
      vertex -5.70966 2.5421 20.7
    endloop
  endfacet
  facet normal 0 0 1
    outer loop
      vertex -2.19228 -1.97394 20.7
      vertex -4.64465 -4.18207 20.7
      vertex -4.18207 -4.64465 20.7
    endloop
  endfacet
  facet normal 0 0 1
    outer loop
      vertex -2.80562 0.9116 20.7
      vertex -5.9441 1.93136 20.7
      vertex -2.88554 0.613339 20.7
    endloop
  endfacet
  facet normal 0 0 1
    outer loop
      vertex -2.3866 -1.73397 20.7
      vertex -5.05636 -3.67366 20.7
      vertex -4.64465 -4.18207 20.7
    endloop
  endfacet
  facet normal -0 0 1
    outer loop
      vertex -6.11342 1.29945 20.7
      vertex -2.88554 0.613339 20.7
      vertex -5.9441 1.93136 20.7
    endloop
  endfacet
  facet normal 0 0 1
    outer loop
      vertex -2.55477 -1.475 20.7
      vertex -5.41266 -3.125 20.7
      vertex -5.05636 -3.67366 20.7
    endloop
  endfacet
  facet normal 0 0 1
    outer loop
      vertex -2.88554 0.613339 20.7
      vertex -6.11342 1.29945 20.7
      vertex -2.93384 0.308358 20.7
    endloop
  endfacet
  facet normal 0 0 1
    outer loop
      vertex -2.69496 -1.19987 20.7
      vertex -5.70966 -2.5421 20.7
      vertex -5.41266 -3.125 20.7
    endloop
  endfacet
  facet normal -0 0 1
    outer loop
      vertex -6.21576 0.653302 20.7
      vertex -2.93384 0.308358 20.7
      vertex -6.11342 1.29945 20.7
    endloop
  endfacet
  facet normal 0 0 1
    outer loop
      vertex -2.80562 -0.9116 20.7
      vertex -5.9441 -1.93136 20.7
      vertex -5.70966 -2.5421 20.7
    endloop
  endfacet
  facet normal 0 0 1
    outer loop
      vertex -2.93384 0.308358 20.7
      vertex -6.21576 0.653302 20.7
      vertex -2.95 0 20.7
    endloop
  endfacet
  facet normal 0 0 1
    outer loop
      vertex -2.88554 -0.613339 20.7
      vertex -6.11342 -1.29945 20.7
      vertex -5.9441 -1.93136 20.7
    endloop
  endfacet
  facet normal 0 0 1
    outer loop
      vertex -6.25 0 20.7
      vertex -2.95 0 20.7
      vertex -6.21576 0.653302 20.7
    endloop
  endfacet
  facet normal 0 0 1
    outer loop
      vertex -2.93384 -0.308358 20.7
      vertex -6.21576 -0.653302 20.7
      vertex -6.11342 -1.29945 20.7
    endloop
  endfacet
  facet normal 0 0 1
    outer loop
      vertex -2.95 0 20.7
      vertex -6.25 0 20.7
      vertex -6.21576 -0.653302 20.7
    endloop
  endfacet
  facet normal -0.838681 -0.544623 0
    outer loop
      vertex -2.3866 -1.73397 20.7
      vertex -2.55477 -1.475 35.7
      vertex -2.55477 -1.475 20.7
    endloop
  endfacet
  facet normal -0.838681 -0.544623 0
    outer loop
      vertex -2.55477 -1.475 35.7
      vertex -2.3866 -1.73397 20.7
      vertex -2.3866 -1.73397 35.7
    endloop
  endfacet
  facet normal 0.629313 0.777152 -0
    outer loop
      vertex 1.97394 2.19228 20.7
      vertex 1.73397 2.3866 35.7
      vertex 1.97394 2.19228 35.7
    endloop
  endfacet
  facet normal 0.629313 0.777152 0
    outer loop
      vertex 1.73397 2.3866 35.7
      vertex 1.97394 2.19228 20.7
      vertex 1.73397 2.3866 20.7
    endloop
  endfacet
  facet normal 0 0 1
    outer loop
      vertex 2.93384 0.308358 35.7
      vertex 2.93384 -0.308358 35.7
      vertex 2.95 0 35.7
    endloop
  endfacet
  facet normal 0 0 1
    outer loop
      vertex 2.88554 0.613339 35.7
      vertex 2.93384 -0.308358 35.7
      vertex 2.93384 0.308358 35.7
    endloop
  endfacet
  facet normal 0 0 1
    outer loop
      vertex 2.88554 0.613339 35.7
      vertex 2.88554 -0.613339 35.7
      vertex 2.93384 -0.308358 35.7
    endloop
  endfacet
  facet normal 0 0 1
    outer loop
      vertex 2.80562 0.9116 35.7
      vertex 2.88554 -0.613339 35.7
      vertex 2.88554 0.613339 35.7
    endloop
  endfacet
  facet normal 0 0 1
    outer loop
      vertex 2.80562 0.9116 35.7
      vertex 2.80562 -0.9116 35.7
      vertex 2.88554 -0.613339 35.7
    endloop
  endfacet
  facet normal 0 0 1
    outer loop
      vertex 2.69496 1.19987 35.7
      vertex 2.80562 -0.9116 35.7
      vertex 2.80562 0.9116 35.7
    endloop
  endfacet
  facet normal 0 0 1
    outer loop
      vertex 2.69496 1.19987 35.7
      vertex 2.69496 -1.19987 35.7
      vertex 2.80562 -0.9116 35.7
    endloop
  endfacet
  facet normal 0 0 1
    outer loop
      vertex 2.55477 1.475 35.7
      vertex 2.69496 -1.19987 35.7
      vertex 2.69496 1.19987 35.7
    endloop
  endfacet
  facet normal 0 0 1
    outer loop
      vertex 2.55477 1.475 35.7
      vertex 2.55477 -1.475 35.7
      vertex 2.69496 -1.19987 35.7
    endloop
  endfacet
  facet normal 0 0 1
    outer loop
      vertex 2.3866 1.73397 35.7
      vertex 2.55477 -1.475 35.7
      vertex 2.55477 1.475 35.7
    endloop
  endfacet
  facet normal 0 0 1
    outer loop
      vertex 2.3866 1.73397 35.7
      vertex 2.3866 -1.73397 35.7
      vertex 2.55477 -1.475 35.7
    endloop
  endfacet
  facet normal 0 0 1
    outer loop
      vertex 2.19228 1.97394 35.7
      vertex 2.3866 -1.73397 35.7
      vertex 2.3866 1.73397 35.7
    endloop
  endfacet
  facet normal 0 0 1
    outer loop
      vertex 2.19228 1.97394 35.7
      vertex 2.19228 -1.97394 35.7
      vertex 2.3866 -1.73397 35.7
    endloop
  endfacet
  facet normal 0 0 1
    outer loop
      vertex 1.97394 2.19228 35.7
      vertex 2.19228 -1.97394 35.7
      vertex 2.19228 1.97394 35.7
    endloop
  endfacet
  facet normal 0 0 1
    outer loop
      vertex 1.97394 2.19228 35.7
      vertex 1.97394 -2.19228 35.7
      vertex 2.19228 -1.97394 35.7
    endloop
  endfacet
  facet normal 0 0 1
    outer loop
      vertex 1.73397 2.3866 35.7
      vertex 1.97394 -2.19228 35.7
      vertex 1.97394 2.19228 35.7
    endloop
  endfacet
  facet normal 0 0 1
    outer loop
      vertex 1.73397 2.3866 35.7
      vertex 1.73397 -2.3866 35.7
      vertex 1.97394 -2.19228 35.7
    endloop
  endfacet
  facet normal 0 0 1
    outer loop
      vertex 1.475 2.55477 35.7
      vertex 1.73397 -2.3866 35.7
      vertex 1.73397 2.3866 35.7
    endloop
  endfacet
  facet normal 0 0 1
    outer loop
      vertex 1.475 2.55477 35.7
      vertex 1.475 -2.55477 35.7
      vertex 1.73397 -2.3866 35.7
    endloop
  endfacet
  facet normal 0 0 1
    outer loop
      vertex 1.19987 2.69496 35.7
      vertex 1.475 -2.55477 35.7
      vertex 1.475 2.55477 35.7
    endloop
  endfacet
  facet normal 0 0 1
    outer loop
      vertex 1.19987 2.69496 35.7
      vertex 1.19987 -2.69496 35.7
      vertex 1.475 -2.55477 35.7
    endloop
  endfacet
  facet normal 0 0 1
    outer loop
      vertex 0.9116 2.80562 35.7
      vertex 1.19987 -2.69496 35.7
      vertex 1.19987 2.69496 35.7
    endloop
  endfacet
  facet normal 0 0 1
    outer loop
      vertex 0.9116 2.80562 35.7
      vertex 0.9116 -2.80562 35.7
      vertex 1.19987 -2.69496 35.7
    endloop
  endfacet
  facet normal 0 0 1
    outer loop
      vertex 0.613339 2.88554 35.7
      vertex 0.9116 -2.80562 35.7
      vertex 0.9116 2.80562 35.7
    endloop
  endfacet
  facet normal 0 0 1
    outer loop
      vertex 0.613339 2.88554 35.7
      vertex 0.613339 -2.88554 35.7
      vertex 0.9116 -2.80562 35.7
    endloop
  endfacet
  facet normal 0 0 1
    outer loop
      vertex 0.308358 2.93384 35.7
      vertex 0.613339 -2.88554 35.7
      vertex 0.613339 2.88554 35.7
    endloop
  endfacet
  facet normal 0 0 1
    outer loop
      vertex 0.308358 2.93384 35.7
      vertex 0.308358 -2.93384 35.7
      vertex 0.613339 -2.88554 35.7
    endloop
  endfacet
  facet normal 0 0 1
    outer loop
      vertex 0 2.95 35.7
      vertex 0.308358 -2.93384 35.7
      vertex 0.308358 2.93384 35.7
    endloop
  endfacet
  facet normal 0 0 1
    outer loop
      vertex 0 2.95 35.7
      vertex 0 -2.95 35.7
      vertex 0.308358 -2.93384 35.7
    endloop
  endfacet
  facet normal -0 0 1
    outer loop
      vertex -0.308358 2.93384 35.7
      vertex 0 -2.95 35.7
      vertex 0 2.95 35.7
    endloop
  endfacet
  facet normal 0 0 1
    outer loop
      vertex -0.308358 2.93384 35.7
      vertex -0.308358 -2.93384 35.7
      vertex 0 -2.95 35.7
    endloop
  endfacet
  facet normal -0 0 1
    outer loop
      vertex -0.613339 2.88554 35.7
      vertex -0.308358 -2.93384 35.7
      vertex -0.308358 2.93384 35.7
    endloop
  endfacet
  facet normal 0 0 1
    outer loop
      vertex -0.613339 2.88554 35.7
      vertex -0.613339 -2.88554 35.7
      vertex -0.308358 -2.93384 35.7
    endloop
  endfacet
  facet normal -0 0 1
    outer loop
      vertex -0.9116 2.80562 35.7
      vertex -0.613339 -2.88554 35.7
      vertex -0.613339 2.88554 35.7
    endloop
  endfacet
  facet normal 0 0 1
    outer loop
      vertex -0.9116 2.80562 35.7
      vertex -0.9116 -2.80562 35.7
      vertex -0.613339 -2.88554 35.7
    endloop
  endfacet
  facet normal -0 0 1
    outer loop
      vertex -1.19987 2.69496 35.7
      vertex -0.9116 -2.80562 35.7
      vertex -0.9116 2.80562 35.7
    endloop
  endfacet
  facet normal 0 0 1
    outer loop
      vertex -1.19987 2.69496 35.7
      vertex -1.19987 -2.69496 35.7
      vertex -0.9116 -2.80562 35.7
    endloop
  endfacet
  facet normal -0 0 1
    outer loop
      vertex -1.475 2.55477 35.7
      vertex -1.19987 -2.69496 35.7
      vertex -1.19987 2.69496 35.7
    endloop
  endfacet
  facet normal 0 0 1
    outer loop
      vertex -1.475 2.55477 35.7
      vertex -1.475 -2.55477 35.7
      vertex -1.19987 -2.69496 35.7
    endloop
  endfacet
  facet normal -0 0 1
    outer loop
      vertex -1.73397 2.3866 35.7
      vertex -1.475 -2.55477 35.7
      vertex -1.475 2.55477 35.7
    endloop
  endfacet
  facet normal 0 0 1
    outer loop
      vertex -1.73397 2.3866 35.7
      vertex -1.73397 -2.3866 35.7
      vertex -1.475 -2.55477 35.7
    endloop
  endfacet
  facet normal -0 0 1
    outer loop
      vertex -1.97394 2.19228 35.7
      vertex -1.73397 -2.3866 35.7
      vertex -1.73397 2.3866 35.7
    endloop
  endfacet
  facet normal 0 0 1
    outer loop
      vertex -1.97394 2.19228 35.7
      vertex -1.97394 -2.19228 35.7
      vertex -1.73397 -2.3866 35.7
    endloop
  endfacet
  facet normal -0 0 1
    outer loop
      vertex -2.19228 1.97394 35.7
      vertex -1.97394 -2.19228 35.7
      vertex -1.97394 2.19228 35.7
    endloop
  endfacet
  facet normal 0 0 1
    outer loop
      vertex -2.19228 1.97394 35.7
      vertex -2.19228 -1.97394 35.7
      vertex -1.97394 -2.19228 35.7
    endloop
  endfacet
  facet normal -0 0 1
    outer loop
      vertex -2.3866 1.73397 35.7
      vertex -2.19228 -1.97394 35.7
      vertex -2.19228 1.97394 35.7
    endloop
  endfacet
  facet normal 0 0 1
    outer loop
      vertex -2.3866 1.73397 35.7
      vertex -2.3866 -1.73397 35.7
      vertex -2.19228 -1.97394 35.7
    endloop
  endfacet
  facet normal -0 0 1
    outer loop
      vertex -2.55477 1.475 35.7
      vertex -2.3866 -1.73397 35.7
      vertex -2.3866 1.73397 35.7
    endloop
  endfacet
  facet normal 0 0 1
    outer loop
      vertex -2.55477 1.475 35.7
      vertex -2.55477 -1.475 35.7
      vertex -2.3866 -1.73397 35.7
    endloop
  endfacet
  facet normal -0 0 1
    outer loop
      vertex -2.69496 1.19987 35.7
      vertex -2.55477 -1.475 35.7
      vertex -2.55477 1.475 35.7
    endloop
  endfacet
  facet normal 0 0 1
    outer loop
      vertex -2.69496 1.19987 35.7
      vertex -2.69496 -1.19987 35.7
      vertex -2.55477 -1.475 35.7
    endloop
  endfacet
  facet normal -0 0 1
    outer loop
      vertex -2.80562 0.9116 35.7
      vertex -2.69496 -1.19987 35.7
      vertex -2.69496 1.19987 35.7
    endloop
  endfacet
  facet normal 0 0 1
    outer loop
      vertex -2.80562 0.9116 35.7
      vertex -2.80562 -0.9116 35.7
      vertex -2.69496 -1.19987 35.7
    endloop
  endfacet
  facet normal -0 0 1
    outer loop
      vertex -2.88554 0.613339 35.7
      vertex -2.80562 -0.9116 35.7
      vertex -2.80562 0.9116 35.7
    endloop
  endfacet
  facet normal 0 0 1
    outer loop
      vertex -2.88554 0.613339 35.7
      vertex -2.88554 -0.613339 35.7
      vertex -2.80562 -0.9116 35.7
    endloop
  endfacet
  facet normal -0 0 1
    outer loop
      vertex -2.93384 0.308358 35.7
      vertex -2.88554 -0.613339 35.7
      vertex -2.88554 0.613339 35.7
    endloop
  endfacet
  facet normal 0 0 1
    outer loop
      vertex -2.93384 0.308358 35.7
      vertex -2.93384 -0.308358 35.7
      vertex -2.88554 -0.613339 35.7
    endloop
  endfacet
  facet normal 0 -0 1
    outer loop
      vertex -2.93384 -0.308358 35.7
      vertex -2.93384 0.308358 35.7
      vertex -2.95 0 35.7
    endloop
  endfacet
  facet normal 0.98769 -0.156421 0
    outer loop
      vertex 2.88554 -0.613339 35.7
      vertex 2.93384 -0.308358 20.7
      vertex 2.93384 -0.308358 35.7
    endloop
  endfacet
  facet normal 0.98769 -0.156421 0
    outer loop
      vertex 2.93384 -0.308358 20.7
      vertex 2.88554 -0.613339 35.7
      vertex 2.88554 -0.613339 20.7
    endloop
  endfacet
  facet normal 0.99863 -0.0523348 0
    outer loop
      vertex 2.93384 -0.308358 35.7
      vertex 2.95 0 20.7
      vertex 2.95 0 35.7
    endloop
  endfacet
  facet normal 0.99863 -0.0523348 0
    outer loop
      vertex 2.95 0 20.7
      vertex 2.93384 -0.308358 35.7
      vertex 2.93384 -0.308358 20.7
    endloop
  endfacet
  facet normal 0.358378 -0.933577 0
    outer loop
      vertex 0.9116 -2.80562 20.7
      vertex 1.19987 -2.69496 35.7
      vertex 0.9116 -2.80562 35.7
    endloop
  endfacet
  facet normal 0.358378 -0.933577 0
    outer loop
      vertex 1.19987 -2.69496 35.7
      vertex 0.9116 -2.80562 20.7
      vertex 1.19987 -2.69496 20.7
    endloop
  endfacet
  facet normal -0.258823 -0.965925 0
    outer loop
      vertex -0.9116 -2.80562 20.7
      vertex -0.613339 -2.88554 35.7
      vertex -0.9116 -2.80562 35.7
    endloop
  endfacet
  facet normal -0.258823 -0.965925 -0
    outer loop
      vertex -0.613339 -2.88554 35.7
      vertex -0.9116 -2.80562 20.7
      vertex -0.613339 -2.88554 20.7
    endloop
  endfacet
  facet normal -0.629313 -0.777152 0
    outer loop
      vertex -1.97394 -2.19228 20.7
      vertex -1.73397 -2.3866 35.7
      vertex -1.97394 -2.19228 35.7
    endloop
  endfacet
  facet normal -0.629313 -0.777152 -0
    outer loop
      vertex -1.73397 -2.3866 35.7
      vertex -1.97394 -2.19228 20.7
      vertex -1.73397 -2.3866 20.7
    endloop
  endfacet
  facet normal -0.98769 -0.156421 0
    outer loop
      vertex -2.88554 -0.613339 20.7
      vertex -2.93384 -0.308358 35.7
      vertex -2.93384 -0.308358 20.7
    endloop
  endfacet
  facet normal -0.98769 -0.156421 0
    outer loop
      vertex -2.93384 -0.308358 35.7
      vertex -2.88554 -0.613339 20.7
      vertex -2.88554 -0.613339 35.7
    endloop
  endfacet
  facet normal -0.891001 -0.454001 0
    outer loop
      vertex -2.55477 -1.475 20.7
      vertex -2.69496 -1.19987 35.7
      vertex -2.69496 -1.19987 20.7
    endloop
  endfacet
  facet normal -0.891001 -0.454001 0
    outer loop
      vertex -2.69496 -1.19987 35.7
      vertex -2.55477 -1.475 20.7
      vertex -2.55477 -1.475 35.7
    endloop
  endfacet
  facet normal -0.777152 -0.629313 0
    outer loop
      vertex -2.19228 -1.97394 20.7
      vertex -2.3866 -1.73397 35.7
      vertex -2.3866 -1.73397 20.7
    endloop
  endfacet
  facet normal -0.777152 -0.629313 0
    outer loop
      vertex -2.3866 -1.73397 35.7
      vertex -2.19228 -1.97394 20.7
      vertex -2.19228 -1.97394 35.7
    endloop
  endfacet
  facet normal 0.856629 0.0448844 -0.513977
    outer loop
      vertex 3.25 0 15.7
      vertex 3.2322 0.339717 15.7
      vertex 6.25 0 20.7
    endloop
  endfacet
  facet normal -0.539839 0.666634 -0.513977
    outer loop
      vertex -2.17467 2.41522 15.7
      vertex -4.18207 4.64465 20.7
      vertex -3.67366 5.05636 20.7
    endloop
  endfacet
  facet normal 0.666641 0.539829 -0.513978
    outer loop
      vertex 2.6293 1.9103 15.7
      vertex 2.41522 2.17467 15.7
      vertex 5.05636 3.67366 20.7
    endloop
  endfacet
  facet normal 0.539839 -0.666634 -0.513977
    outer loop
      vertex 3.67366 -5.05636 20.7
      vertex 2.17467 -2.41522 15.7
      vertex 4.18207 -4.64465 20.7
    endloop
  endfacet
  facet normal 0.539829 -0.666641 -0.513978
    outer loop
      vertex 3.67366 -5.05636 20.7
      vertex 1.9103 -2.6293 15.7
      vertex 2.17467 -2.41522 15.7
    endloop
  endfacet
  facet normal -0.307406 -0.80083 -0.513977
    outer loop
      vertex -1.0043 -3.09093 15.7
      vertex -2.5421 -5.70966 20.7
      vertex -1.32189 -2.96902 15.7
    endloop
  endfacet
  facet normal -0.764311 -0.38943 -0.513978
    outer loop
      vertex -2.81458 -1.625 15.7
      vertex -5.70966 -2.5421 20.7
      vertex -2.96902 -1.32189 15.7
    endloop
  endfacet
  facet normal -0.539829 0.666641 -0.513978
    outer loop
      vertex -2.17467 2.41522 15.7
      vertex -3.67366 5.05636 20.7
      vertex -1.9103 2.6293 15.7
    endloop
  endfacet
  facet normal 0.666634 0.539839 -0.513977
    outer loop
      vertex 5.05636 3.67366 20.7
      vertex 2.41522 2.17467 15.7
      vertex 4.64465 4.18207 20.7
    endloop
  endfacet
  facet normal 0.76431 -0.389432 -0.513977
    outer loop
      vertex 5.41266 -3.125 20.7
      vertex 2.81458 -1.625 15.7
      vertex 5.70966 -2.5421 20.7
    endloop
  endfacet
  facet normal 0.80083 -0.307406 -0.513977
    outer loop
      vertex 5.70966 -2.5421 20.7
      vertex 2.96902 -1.32189 15.7
      vertex 3.09093 -1.0043 15.7
    endloop
  endfacet
  facet normal 0.467189 -0.719417 -0.513978
    outer loop
      vertex 3.125 -5.41266 20.7
      vertex 1.9103 -2.6293 15.7
      vertex 3.67366 -5.05636 20.7
    endloop
  endfacet
  facet normal 0.0448844 -0.856629 -0.513977
    outer loop
      vertex 0.339717 -3.2322 15.7
      vertex 0 -6.25 20.7
      vertex 0 -3.25 15.7
    endloop
  endfacet
  facet normal -0.856629 -0.0448844 -0.513977
    outer loop
      vertex -3.2322 -0.339717 15.7
      vertex -6.25 0 20.7
      vertex -3.25 0 15.7
    endloop
  endfacet
  facet normal -0.666634 -0.539839 -0.513977
    outer loop
      vertex -4.64465 -4.18207 20.7
      vertex -5.05636 -3.67366 20.7
      vertex -2.41522 -2.17467 15.7
    endloop
  endfacet
  facet normal -0.134199 -0.847242 -0.513977
    outer loop
      vertex -0.339717 -3.2322 15.7
      vertex -1.29945 -6.11342 20.7
      vertex -0.675713 -3.17898 15.7
    endloop
  endfacet
  facet normal -0.76431 0.389432 -0.513977
    outer loop
      vertex -2.81458 1.625 15.7
      vertex -5.70966 2.5421 20.7
      vertex -5.41266 3.125 20.7
    endloop
  endfacet
  facet normal -0.80083 0.307406 -0.513977
    outer loop
      vertex -3.09093 1.0043 15.7
      vertex -5.70966 2.5421 20.7
      vertex -2.96902 1.32189 15.7
    endloop
  endfacet
  facet normal -0.467189 0.719417 -0.513978
    outer loop
      vertex -1.9103 2.6293 15.7
      vertex -3.67366 5.05636 20.7
      vertex -3.125 5.41266 20.7
    endloop
  endfacet
  facet normal -0.0448844 0.856629 -0.513977
    outer loop
      vertex 0 3.25 15.7
      vertex -0.339717 3.2322 15.7
      vertex 0 6.25 20.7
    endloop
  endfacet
  facet normal 0.389432 0.76431 -0.513977
    outer loop
      vertex 3.125 5.41266 20.7
      vertex 1.625 2.81458 15.7
      vertex 2.5421 5.70966 20.7
    endloop
  endfacet
  facet normal 0.719417 0.467189 -0.513978
    outer loop
      vertex 5.41266 3.125 20.7
      vertex 2.6293 1.9103 15.7
      vertex 5.05636 3.67366 20.7
    endloop
  endfacet
  facet normal 0.847242 0.134199 -0.513977
    outer loop
      vertex 3.2322 0.339717 15.7
      vertex 3.17898 0.675713 15.7
      vertex 6.11342 1.29945 20.7
    endloop
  endfacet
  facet normal 0.0448965 0.856629 -0.513976
    outer loop
      vertex 0.339717 3.2322 15.7
      vertex 0 6.25 20.7
      vertex 0.653302 6.21576 20.7
    endloop
  endfacet
  facet normal 0.307406 0.80083 -0.513977
    outer loop
      vertex 1.32189 2.96902 15.7
      vertex 1.0043 3.09093 15.7
      vertex 2.5421 5.70966 20.7
    endloop
  endfacet
  facet normal 0.856629 0.0448965 -0.513976
    outer loop
      vertex 6.25 0 20.7
      vertex 3.2322 0.339717 15.7
      vertex 6.21576 0.653302 20.7
    endloop
  endfacet
  facet normal 0.847243 0.13419 -0.513976
    outer loop
      vertex 6.21576 0.653302 20.7
      vertex 3.2322 0.339717 15.7
      vertex 6.11342 1.29945 20.7
    endloop
  endfacet
  facet normal 0.856629 -0.0448844 -0.513977
    outer loop
      vertex 6.25 0 20.7
      vertex 3.2322 -0.339717 15.7
      vertex 3.25 0 15.7
    endloop
  endfacet
  facet normal 0.606559 -0.606559 -0.513977
    outer loop
      vertex 4.64465 -4.18207 20.7
      vertex 2.17467 -2.41522 15.7
      vertex 2.41522 -2.17467 15.7
    endloop
  endfacet
  facet normal 0.606559 -0.606559 -0.513977
    outer loop
      vertex 2.17467 -2.41522 15.7
      vertex 4.64465 -4.18207 20.7
      vertex 4.18207 -4.64465 20.7
    endloop
  endfacet
  facet normal 0.666641 -0.539829 -0.513978
    outer loop
      vertex 5.05636 -3.67366 20.7
      vertex 2.41522 -2.17467 15.7
      vertex 2.6293 -1.9103 15.7
    endloop
  endfacet
  facet normal 0.847242 -0.134199 -0.513977
    outer loop
      vertex 6.11342 -1.29945 20.7
      vertex 3.17898 -0.675713 15.7
      vertex 3.2322 -0.339717 15.7
    endloop
  endfacet
  facet normal 0.828572 -0.222029 -0.513976
    outer loop
      vertex 6.11342 -1.29945 20.7
      vertex 3.09093 -1.0043 15.7
      vertex 3.17898 -0.675713 15.7
    endloop
  endfacet
  facet normal 0.389432 -0.76431 -0.513977
    outer loop
      vertex 2.5421 -5.70966 20.7
      vertex 1.625 -2.81458 15.7
      vertex 3.125 -5.41266 20.7
    endloop
  endfacet
  facet normal 0.13419 -0.847243 -0.513976
    outer loop
      vertex 0.653302 -6.21576 20.7
      vertex 0.339717 -3.2322 15.7
      vertex 1.29945 -6.11342 20.7
    endloop
  endfacet
  facet normal 0.38943 -0.764311 -0.513978
    outer loop
      vertex 2.5421 -5.70966 20.7
      vertex 1.32189 -2.96902 15.7
      vertex 1.625 -2.81458 15.7
    endloop
  endfacet
  facet normal 0.0448965 -0.856629 -0.513976
    outer loop
      vertex 0.653302 -6.21576 20.7
      vertex 0 -6.25 20.7
      vertex 0.339717 -3.2322 15.7
    endloop
  endfacet
  facet normal 0.222029 -0.828572 -0.513976
    outer loop
      vertex 1.29945 -6.11342 20.7
      vertex 0.675713 -3.17898 15.7
      vertex 1.0043 -3.09093 15.7
    endloop
  endfacet
  facet normal 0.307408 -0.800829 -0.513978
    outer loop
      vertex 1.93136 -5.9441 20.7
      vertex 1.0043 -3.09093 15.7
      vertex 2.5421 -5.70966 20.7
    endloop
  endfacet
  facet normal 0.222016 -0.828575 -0.513977
    outer loop
      vertex 1.29945 -6.11342 20.7
      vertex 1.0043 -3.09093 15.7
      vertex 1.93136 -5.9441 20.7
    endloop
  endfacet
  facet normal -0.847243 -0.13419 -0.513976
    outer loop
      vertex -6.11342 -1.29945 20.7
      vertex -6.21576 -0.653302 20.7
      vertex -3.2322 -0.339717 15.7
    endloop
  endfacet
  facet normal -0.856629 -0.0448965 -0.513976
    outer loop
      vertex -6.21576 -0.653302 20.7
      vertex -6.25 0 20.7
      vertex -3.2322 -0.339717 15.7
    endloop
  endfacet
  facet normal -0.828572 -0.222029 -0.513976
    outer loop
      vertex -3.09093 -1.0043 15.7
      vertex -6.11342 -1.29945 20.7
      vertex -3.17898 -0.675713 15.7
    endloop
  endfacet
  facet normal -0.800829 -0.307408 -0.513978
    outer loop
      vertex -5.70966 -2.5421 20.7
      vertex -5.9441 -1.93136 20.7
      vertex -3.09093 -1.0043 15.7
    endloop
  endfacet
  facet normal -0.828575 -0.222016 -0.513977
    outer loop
      vertex -5.9441 -1.93136 20.7
      vertex -6.11342 -1.29945 20.7
      vertex -3.09093 -1.0043 15.7
    endloop
  endfacet
  facet normal -0.76431 -0.389432 -0.513977
    outer loop
      vertex -5.41266 -3.125 20.7
      vertex -5.70966 -2.5421 20.7
      vertex -2.81458 -1.625 15.7
    endloop
  endfacet
  facet normal -0.666641 -0.539829 -0.513978
    outer loop
      vertex -2.41522 -2.17467 15.7
      vertex -5.05636 -3.67366 20.7
      vertex -2.6293 -1.9103 15.7
    endloop
  endfacet
  facet normal -0.719417 -0.467189 -0.513978
    outer loop
      vertex -5.05636 -3.67366 20.7
      vertex -5.41266 -3.125 20.7
      vertex -2.6293 -1.9103 15.7
    endloop
  endfacet
  facet normal -0.222029 -0.828572 -0.513976
    outer loop
      vertex -0.675713 -3.17898 15.7
      vertex -1.29945 -6.11342 20.7
      vertex -1.0043 -3.09093 15.7
    endloop
  endfacet
  facet normal -0.0448844 -0.856629 -0.513977
    outer loop
      vertex 0 -6.25 20.7
      vertex -0.339717 -3.2322 15.7
      vertex 0 -3.25 15.7
    endloop
  endfacet
  facet normal -0.467189 -0.719417 -0.513978
    outer loop
      vertex -3.125 -5.41266 20.7
      vertex -3.67366 -5.05636 20.7
      vertex -1.9103 -2.6293 15.7
    endloop
  endfacet
  facet normal -0.539829 -0.666641 -0.513978
    outer loop
      vertex -1.9103 -2.6293 15.7
      vertex -3.67366 -5.05636 20.7
      vertex -2.17467 -2.41522 15.7
    endloop
  endfacet
  facet normal -0.606559 -0.606559 -0.513977
    outer loop
      vertex -2.17467 -2.41522 15.7
      vertex -4.64465 -4.18207 20.7
      vertex -2.41522 -2.17467 15.7
    endloop
  endfacet
  facet normal -0.606559 -0.606559 -0.513977
    outer loop
      vertex -4.64465 -4.18207 20.7
      vertex -2.17467 -2.41522 15.7
      vertex -4.18207 -4.64465 20.7
    endloop
  endfacet
  facet normal -0.856629 0.0448844 -0.513977
    outer loop
      vertex -3.25 0 15.7
      vertex -6.25 0 20.7
      vertex -3.2322 0.339717 15.7
    endloop
  endfacet
  facet normal -0.666641 0.539829 -0.513978
    outer loop
      vertex -2.6293 1.9103 15.7
      vertex -5.05636 3.67366 20.7
      vertex -2.41522 2.17467 15.7
    endloop
  endfacet
  facet normal -0.847242 0.134199 -0.513977
    outer loop
      vertex -3.2322 0.339717 15.7
      vertex -6.11342 1.29945 20.7
      vertex -3.17898 0.675713 15.7
    endloop
  endfacet
  facet normal -0.828572 0.222029 -0.513976
    outer loop
      vertex -3.17898 0.675713 15.7
      vertex -6.11342 1.29945 20.7
      vertex -3.09093 1.0043 15.7
    endloop
  endfacet
  facet normal -0.389432 0.76431 -0.513977
    outer loop
      vertex -1.625 2.81458 15.7
      vertex -3.125 5.41266 20.7
      vertex -2.5421 5.70966 20.7
    endloop
  endfacet
  facet normal -0.13419 0.847243 -0.513976
    outer loop
      vertex -0.339717 3.2322 15.7
      vertex -1.29945 6.11342 20.7
      vertex -0.653302 6.21576 20.7
    endloop
  endfacet
  facet normal -0.38943 0.764311 -0.513978
    outer loop
      vertex -1.625 2.81458 15.7
      vertex -2.5421 5.70966 20.7
      vertex -1.32189 2.96902 15.7
    endloop
  endfacet
  facet normal -0.0448965 0.856629 -0.513976
    outer loop
      vertex -0.339717 3.2322 15.7
      vertex -0.653302 6.21576 20.7
      vertex 0 6.25 20.7
    endloop
  endfacet
  facet normal -0.222029 0.828572 -0.513976
    outer loop
      vertex -1.0043 3.09093 15.7
      vertex -1.29945 6.11342 20.7
      vertex -0.675713 3.17898 15.7
    endloop
  endfacet
  facet normal -0.307408 0.800829 -0.513978
    outer loop
      vertex -1.0043 3.09093 15.7
      vertex -2.5421 5.70966 20.7
      vertex -1.93136 5.9441 20.7
    endloop
  endfacet
  facet normal -0.222016 0.828575 -0.513977
    outer loop
      vertex -1.0043 3.09093 15.7
      vertex -1.93136 5.9441 20.7
      vertex -1.29945 6.11342 20.7
    endloop
  endfacet
  facet normal 0.13419 0.847243 -0.513976
    outer loop
      vertex 1.29945 6.11342 20.7
      vertex 0.339717 3.2322 15.7
      vertex 0.653302 6.21576 20.7
    endloop
  endfacet
  facet normal 0.134199 0.847242 -0.513977
    outer loop
      vertex 0.675713 3.17898 15.7
      vertex 0.339717 3.2322 15.7
      vertex 1.29945 6.11342 20.7
    endloop
  endfacet
  facet normal 0.76431 0.389432 -0.513977
    outer loop
      vertex 5.70966 2.5421 20.7
      vertex 2.81458 1.625 15.7
      vertex 5.41266 3.125 20.7
    endloop
  endfacet
  facet normal 0.764311 0.38943 -0.513978
    outer loop
      vertex 2.96902 1.32189 15.7
      vertex 2.81458 1.625 15.7
      vertex 5.70966 2.5421 20.7
    endloop
  endfacet
  facet normal 0.80083 0.307406 -0.513977
    outer loop
      vertex 3.09093 1.0043 15.7
      vertex 2.96902 1.32189 15.7
      vertex 5.70966 2.5421 20.7
    endloop
  endfacet
  facet normal 0.828572 0.222029 -0.513976
    outer loop
      vertex 3.17898 0.675713 15.7
      vertex 3.09093 1.0043 15.7
      vertex 6.11342 1.29945 20.7
    endloop
  endfacet
  facet normal 0.467201 0.71941 -0.513977
    outer loop
      vertex 1.9103 2.6293 15.7
      vertex 1.625 2.81458 15.7
      vertex 3.125 5.41266 20.7
    endloop
  endfacet
  facet normal 0.222029 0.828572 -0.513976
    outer loop
      vertex 1.0043 3.09093 15.7
      vertex 0.675713 3.17898 15.7
      vertex 1.29945 6.11342 20.7
    endloop
  endfacet
  facet normal 0.666634 -0.539839 -0.513977
    outer loop
      vertex 4.64465 -4.18207 20.7
      vertex 2.41522 -2.17467 15.7
      vertex 5.05636 -3.67366 20.7
    endloop
  endfacet
  facet normal 0.856629 -0.0448965 -0.513976
    outer loop
      vertex 6.21576 -0.653302 20.7
      vertex 3.2322 -0.339717 15.7
      vertex 6.25 0 20.7
    endloop
  endfacet
  facet normal 0.847243 -0.13419 -0.513976
    outer loop
      vertex 6.11342 -1.29945 20.7
      vertex 3.2322 -0.339717 15.7
      vertex 6.21576 -0.653302 20.7
    endloop
  endfacet
  facet normal 0.828575 -0.222016 -0.513977
    outer loop
      vertex 5.9441 -1.93136 20.7
      vertex 3.09093 -1.0043 15.7
      vertex 6.11342 -1.29945 20.7
    endloop
  endfacet
  facet normal 0.800829 -0.307408 -0.513978
    outer loop
      vertex 5.70966 -2.5421 20.7
      vertex 3.09093 -1.0043 15.7
      vertex 5.9441 -1.93136 20.7
    endloop
  endfacet
  facet normal 0.134199 -0.847242 -0.513977
    outer loop
      vertex 1.29945 -6.11342 20.7
      vertex 0.339717 -3.2322 15.7
      vertex 0.675713 -3.17898 15.7
    endloop
  endfacet
  facet normal 0.467201 -0.71941 -0.513977
    outer loop
      vertex 3.125 -5.41266 20.7
      vertex 1.625 -2.81458 15.7
      vertex 1.9103 -2.6293 15.7
    endloop
  endfacet
  facet normal 0.307406 -0.80083 -0.513977
    outer loop
      vertex 2.5421 -5.70966 20.7
      vertex 1.0043 -3.09093 15.7
      vertex 1.32189 -2.96902 15.7
    endloop
  endfacet
  facet normal 0 0 -1
    outer loop
      vertex 3.2322 -0.339717 15.7
      vertex 3.2322 0.339717 15.7
      vertex 3.25 0 15.7
    endloop
  endfacet
  facet normal 0 0 -1
    outer loop
      vertex 3.17898 -0.675713 15.7
      vertex 3.2322 0.339717 15.7
      vertex 3.2322 -0.339717 15.7
    endloop
  endfacet
  facet normal 0 0 -1
    outer loop
      vertex 3.17898 -0.675713 15.7
      vertex 3.17898 0.675713 15.7
      vertex 3.2322 0.339717 15.7
    endloop
  endfacet
  facet normal 0 0 -1
    outer loop
      vertex 3.09093 -1.0043 15.7
      vertex 3.17898 0.675713 15.7
      vertex 3.17898 -0.675713 15.7
    endloop
  endfacet
  facet normal 0 0 -1
    outer loop
      vertex 3.09093 -1.0043 15.7
      vertex 3.09093 1.0043 15.7
      vertex 3.17898 0.675713 15.7
    endloop
  endfacet
  facet normal 0 0 -1
    outer loop
      vertex 2.96902 -1.32189 15.7
      vertex 3.09093 1.0043 15.7
      vertex 3.09093 -1.0043 15.7
    endloop
  endfacet
  facet normal 0 0 -1
    outer loop
      vertex 2.96902 -1.32189 15.7
      vertex 2.96902 1.32189 15.7
      vertex 3.09093 1.0043 15.7
    endloop
  endfacet
  facet normal 0 0 -1
    outer loop
      vertex 2.81458 -1.625 15.7
      vertex 2.96902 1.32189 15.7
      vertex 2.96902 -1.32189 15.7
    endloop
  endfacet
  facet normal 0 0 -1
    outer loop
      vertex 2.81458 -1.625 15.7
      vertex 2.81458 1.625 15.7
      vertex 2.96902 1.32189 15.7
    endloop
  endfacet
  facet normal 0 0 -1
    outer loop
      vertex 2.6293 -1.9103 15.7
      vertex 2.81458 1.625 15.7
      vertex 2.81458 -1.625 15.7
    endloop
  endfacet
  facet normal 0 0 -1
    outer loop
      vertex 2.6293 -1.9103 15.7
      vertex 2.6293 1.9103 15.7
      vertex 2.81458 1.625 15.7
    endloop
  endfacet
  facet normal 0 0 -1
    outer loop
      vertex 2.41522 -2.17467 15.7
      vertex 2.6293 1.9103 15.7
      vertex 2.6293 -1.9103 15.7
    endloop
  endfacet
  facet normal 0 0 -1
    outer loop
      vertex 2.41522 -2.17467 15.7
      vertex 2.41522 2.17467 15.7
      vertex 2.6293 1.9103 15.7
    endloop
  endfacet
  facet normal 0 0 -1
    outer loop
      vertex 2.17467 -2.41522 15.7
      vertex 2.41522 2.17467 15.7
      vertex 2.41522 -2.17467 15.7
    endloop
  endfacet
  facet normal 0 0 -1
    outer loop
      vertex 2.17467 -2.41522 15.7
      vertex 2.17467 2.41522 15.7
      vertex 2.41522 2.17467 15.7
    endloop
  endfacet
  facet normal 0 0 -1
    outer loop
      vertex 1.9103 -2.6293 15.7
      vertex 2.17467 2.41522 15.7
      vertex 2.17467 -2.41522 15.7
    endloop
  endfacet
  facet normal 0 0 -1
    outer loop
      vertex 1.9103 -2.6293 15.7
      vertex 1.9103 2.6293 15.7
      vertex 2.17467 2.41522 15.7
    endloop
  endfacet
  facet normal 0 0 -1
    outer loop
      vertex 1.625 -2.81458 15.7
      vertex 1.9103 2.6293 15.7
      vertex 1.9103 -2.6293 15.7
    endloop
  endfacet
  facet normal 0 0 -1
    outer loop
      vertex 1.625 -2.81458 15.7
      vertex 1.625 2.81458 15.7
      vertex 1.9103 2.6293 15.7
    endloop
  endfacet
  facet normal 0 0 -1
    outer loop
      vertex 1.32189 -2.96902 15.7
      vertex 1.625 2.81458 15.7
      vertex 1.625 -2.81458 15.7
    endloop
  endfacet
  facet normal 0 0 -1
    outer loop
      vertex 1.32189 -2.96902 15.7
      vertex 1.32189 2.96902 15.7
      vertex 1.625 2.81458 15.7
    endloop
  endfacet
  facet normal 0 0 -1
    outer loop
      vertex 1.0043 -3.09093 15.7
      vertex 1.32189 2.96902 15.7
      vertex 1.32189 -2.96902 15.7
    endloop
  endfacet
  facet normal 0 0 -1
    outer loop
      vertex 1.0043 -3.09093 15.7
      vertex 1.0043 3.09093 15.7
      vertex 1.32189 2.96902 15.7
    endloop
  endfacet
  facet normal 0 0 -1
    outer loop
      vertex 0.675713 -3.17898 15.7
      vertex 1.0043 3.09093 15.7
      vertex 1.0043 -3.09093 15.7
    endloop
  endfacet
  facet normal 0 0 -1
    outer loop
      vertex 0.675713 -3.17898 15.7
      vertex 0.675713 3.17898 15.7
      vertex 1.0043 3.09093 15.7
    endloop
  endfacet
  facet normal 0 0 -1
    outer loop
      vertex 0.339717 -3.2322 15.7
      vertex 0.675713 3.17898 15.7
      vertex 0.675713 -3.17898 15.7
    endloop
  endfacet
  facet normal 0 0 -1
    outer loop
      vertex 0.339717 -3.2322 15.7
      vertex 0.339717 3.2322 15.7
      vertex 0.675713 3.17898 15.7
    endloop
  endfacet
  facet normal 0 0 -1
    outer loop
      vertex 0 -3.25 15.7
      vertex 0.339717 3.2322 15.7
      vertex 0.339717 -3.2322 15.7
    endloop
  endfacet
  facet normal 0 0 -1
    outer loop
      vertex 0 -3.25 15.7
      vertex 0 3.25 15.7
      vertex 0.339717 3.2322 15.7
    endloop
  endfacet
  facet normal 0 0 -1
    outer loop
      vertex -0.339717 -3.2322 15.7
      vertex 0 3.25 15.7
      vertex 0 -3.25 15.7
    endloop
  endfacet
  facet normal 0 0 -1
    outer loop
      vertex -0.339717 -3.2322 15.7
      vertex -0.339717 3.2322 15.7
      vertex 0 3.25 15.7
    endloop
  endfacet
  facet normal 0 0 -1
    outer loop
      vertex -0.675713 -3.17898 15.7
      vertex -0.339717 3.2322 15.7
      vertex -0.339717 -3.2322 15.7
    endloop
  endfacet
  facet normal 0 0 -1
    outer loop
      vertex -0.675713 -3.17898 15.7
      vertex -0.675713 3.17898 15.7
      vertex -0.339717 3.2322 15.7
    endloop
  endfacet
  facet normal 0 0 -1
    outer loop
      vertex -1.0043 -3.09093 15.7
      vertex -0.675713 3.17898 15.7
      vertex -0.675713 -3.17898 15.7
    endloop
  endfacet
  facet normal 0 0 -1
    outer loop
      vertex -1.0043 -3.09093 15.7
      vertex -1.0043 3.09093 15.7
      vertex -0.675713 3.17898 15.7
    endloop
  endfacet
  facet normal 0 0 -1
    outer loop
      vertex -1.32189 -2.96902 15.7
      vertex -1.0043 3.09093 15.7
      vertex -1.0043 -3.09093 15.7
    endloop
  endfacet
  facet normal 0 0 -1
    outer loop
      vertex -1.32189 -2.96902 15.7
      vertex -1.32189 2.96902 15.7
      vertex -1.0043 3.09093 15.7
    endloop
  endfacet
  facet normal 0 0 -1
    outer loop
      vertex -1.625 -2.81458 15.7
      vertex -1.32189 2.96902 15.7
      vertex -1.32189 -2.96902 15.7
    endloop
  endfacet
  facet normal 0 0 -1
    outer loop
      vertex -1.625 -2.81458 15.7
      vertex -1.625 2.81458 15.7
      vertex -1.32189 2.96902 15.7
    endloop
  endfacet
  facet normal 0 0 -1
    outer loop
      vertex -1.9103 -2.6293 15.7
      vertex -1.625 2.81458 15.7
      vertex -1.625 -2.81458 15.7
    endloop
  endfacet
  facet normal 0 0 -1
    outer loop
      vertex -1.9103 -2.6293 15.7
      vertex -1.9103 2.6293 15.7
      vertex -1.625 2.81458 15.7
    endloop
  endfacet
  facet normal 0 0 -1
    outer loop
      vertex -2.17467 -2.41522 15.7
      vertex -1.9103 2.6293 15.7
      vertex -1.9103 -2.6293 15.7
    endloop
  endfacet
  facet normal 0 0 -1
    outer loop
      vertex -2.17467 -2.41522 15.7
      vertex -2.17467 2.41522 15.7
      vertex -1.9103 2.6293 15.7
    endloop
  endfacet
  facet normal 0 0 -1
    outer loop
      vertex -2.41522 -2.17467 15.7
      vertex -2.17467 2.41522 15.7
      vertex -2.17467 -2.41522 15.7
    endloop
  endfacet
  facet normal 0 0 -1
    outer loop
      vertex -2.41522 -2.17467 15.7
      vertex -2.41522 2.17467 15.7
      vertex -2.17467 2.41522 15.7
    endloop
  endfacet
  facet normal 0 0 -1
    outer loop
      vertex -2.6293 -1.9103 15.7
      vertex -2.41522 2.17467 15.7
      vertex -2.41522 -2.17467 15.7
    endloop
  endfacet
  facet normal 0 0 -1
    outer loop
      vertex -2.6293 -1.9103 15.7
      vertex -2.6293 1.9103 15.7
      vertex -2.41522 2.17467 15.7
    endloop
  endfacet
  facet normal 0 0 -1
    outer loop
      vertex -2.81458 -1.625 15.7
      vertex -2.6293 1.9103 15.7
      vertex -2.6293 -1.9103 15.7
    endloop
  endfacet
  facet normal 0 0 -1
    outer loop
      vertex -2.81458 -1.625 15.7
      vertex -2.81458 1.625 15.7
      vertex -2.6293 1.9103 15.7
    endloop
  endfacet
  facet normal 0 0 -1
    outer loop
      vertex -2.96902 -1.32189 15.7
      vertex -2.81458 1.625 15.7
      vertex -2.81458 -1.625 15.7
    endloop
  endfacet
  facet normal 0 0 -1
    outer loop
      vertex -2.96902 -1.32189 15.7
      vertex -2.96902 1.32189 15.7
      vertex -2.81458 1.625 15.7
    endloop
  endfacet
  facet normal 0 0 -1
    outer loop
      vertex -3.09093 -1.0043 15.7
      vertex -2.96902 1.32189 15.7
      vertex -2.96902 -1.32189 15.7
    endloop
  endfacet
  facet normal 0 0 -1
    outer loop
      vertex -3.09093 -1.0043 15.7
      vertex -3.09093 1.0043 15.7
      vertex -2.96902 1.32189 15.7
    endloop
  endfacet
  facet normal 0 0 -1
    outer loop
      vertex -3.17898 -0.675713 15.7
      vertex -3.09093 1.0043 15.7
      vertex -3.09093 -1.0043 15.7
    endloop
  endfacet
  facet normal 0 0 -1
    outer loop
      vertex -3.17898 -0.675713 15.7
      vertex -3.17898 0.675713 15.7
      vertex -3.09093 1.0043 15.7
    endloop
  endfacet
  facet normal 0 0 -1
    outer loop
      vertex -3.2322 -0.339717 15.7
      vertex -3.17898 0.675713 15.7
      vertex -3.17898 -0.675713 15.7
    endloop
  endfacet
  facet normal 0 0 -1
    outer loop
      vertex -3.2322 -0.339717 15.7
      vertex -3.2322 0.339717 15.7
      vertex -3.17898 0.675713 15.7
    endloop
  endfacet
  facet normal 0 -0 -1
    outer loop
      vertex -3.2322 0.339717 15.7
      vertex -3.2322 -0.339717 15.7
      vertex -3.25 0 15.7
    endloop
  endfacet
  facet normal -0.847242 -0.134199 -0.513977
    outer loop
      vertex -3.17898 -0.675713 15.7
      vertex -6.11342 -1.29945 20.7
      vertex -3.2322 -0.339717 15.7
    endloop
  endfacet
  facet normal -0.80083 -0.307406 -0.513977
    outer loop
      vertex -2.96902 -1.32189 15.7
      vertex -5.70966 -2.5421 20.7
      vertex -3.09093 -1.0043 15.7
    endloop
  endfacet
  facet normal -0.71941 -0.467201 -0.513977
    outer loop
      vertex -2.6293 -1.9103 15.7
      vertex -5.41266 -3.125 20.7
      vertex -2.81458 -1.625 15.7
    endloop
  endfacet
  facet normal -0.222016 -0.828575 -0.513977
    outer loop
      vertex -1.29945 -6.11342 20.7
      vertex -1.93136 -5.9441 20.7
      vertex -1.0043 -3.09093 15.7
    endloop
  endfacet
  facet normal -0.307408 -0.800829 -0.513978
    outer loop
      vertex -1.93136 -5.9441 20.7
      vertex -2.5421 -5.70966 20.7
      vertex -1.0043 -3.09093 15.7
    endloop
  endfacet
  facet normal -0.0448965 -0.856629 -0.513976
    outer loop
      vertex 0 -6.25 20.7
      vertex -0.653302 -6.21576 20.7
      vertex -0.339717 -3.2322 15.7
    endloop
  endfacet
  facet normal -0.13419 -0.847243 -0.513976
    outer loop
      vertex -0.653302 -6.21576 20.7
      vertex -1.29945 -6.11342 20.7
      vertex -0.339717 -3.2322 15.7
    endloop
  endfacet
  facet normal -0.389432 -0.76431 -0.513977
    outer loop
      vertex -2.5421 -5.70966 20.7
      vertex -3.125 -5.41266 20.7
      vertex -1.625 -2.81458 15.7
    endloop
  endfacet
  facet normal -0.467201 -0.71941 -0.513977
    outer loop
      vertex -1.625 -2.81458 15.7
      vertex -3.125 -5.41266 20.7
      vertex -1.9103 -2.6293 15.7
    endloop
  endfacet
  facet normal -0.539839 -0.666634 -0.513977
    outer loop
      vertex -3.67366 -5.05636 20.7
      vertex -4.18207 -4.64465 20.7
      vertex -2.17467 -2.41522 15.7
    endloop
  endfacet
  facet normal -0.666634 0.539839 -0.513977
    outer loop
      vertex -2.41522 2.17467 15.7
      vertex -5.05636 3.67366 20.7
      vertex -4.64465 4.18207 20.7
    endloop
  endfacet
  facet normal -0.606559 0.606559 -0.513977
    outer loop
      vertex -2.17467 2.41522 15.7
      vertex -4.64465 4.18207 20.7
      vertex -4.18207 4.64465 20.7
    endloop
  endfacet
  facet normal -0.606559 0.606559 -0.513977
    outer loop
      vertex -4.64465 4.18207 20.7
      vertex -2.17467 2.41522 15.7
      vertex -2.41522 2.17467 15.7
    endloop
  endfacet
  facet normal -0.856629 0.0448965 -0.513976
    outer loop
      vertex -3.2322 0.339717 15.7
      vertex -6.25 0 20.7
      vertex -6.21576 0.653302 20.7
    endloop
  endfacet
  facet normal -0.847243 0.13419 -0.513976
    outer loop
      vertex -3.2322 0.339717 15.7
      vertex -6.21576 0.653302 20.7
      vertex -6.11342 1.29945 20.7
    endloop
  endfacet
  facet normal -0.828575 0.222016 -0.513977
    outer loop
      vertex -3.09093 1.0043 15.7
      vertex -6.11342 1.29945 20.7
      vertex -5.9441 1.93136 20.7
    endloop
  endfacet
  facet normal -0.800829 0.307408 -0.513978
    outer loop
      vertex -3.09093 1.0043 15.7
      vertex -5.9441 1.93136 20.7
      vertex -5.70966 2.5421 20.7
    endloop
  endfacet
  facet normal -0.134199 0.847242 -0.513977
    outer loop
      vertex -0.675713 3.17898 15.7
      vertex -1.29945 6.11342 20.7
      vertex -0.339717 3.2322 15.7
    endloop
  endfacet
  facet normal -0.467201 0.71941 -0.513977
    outer loop
      vertex -1.9103 2.6293 15.7
      vertex -3.125 5.41266 20.7
      vertex -1.625 2.81458 15.7
    endloop
  endfacet
  facet normal -0.307406 0.80083 -0.513977
    outer loop
      vertex -1.32189 2.96902 15.7
      vertex -2.5421 5.70966 20.7
      vertex -1.0043 3.09093 15.7
    endloop
  endfacet
  facet normal 0.539839 0.666634 -0.513977
    outer loop
      vertex 4.18207 4.64465 20.7
      vertex 2.17467 2.41522 15.7
      vertex 3.67366 5.05636 20.7
    endloop
  endfacet
  facet normal 0.606559 0.606559 -0.513977
    outer loop
      vertex 4.64465 4.18207 20.7
      vertex 2.17467 2.41522 15.7
      vertex 4.18207 4.64465 20.7
    endloop
  endfacet
  facet normal 0.606559 0.606559 -0.513977
    outer loop
      vertex 2.17467 2.41522 15.7
      vertex 4.64465 4.18207 20.7
      vertex 2.41522 2.17467 15.7
    endloop
  endfacet
  facet normal 0.71941 0.467201 -0.513977
    outer loop
      vertex 2.81458 1.625 15.7
      vertex 2.6293 1.9103 15.7
      vertex 5.41266 3.125 20.7
    endloop
  endfacet
  facet normal 0.800829 0.307408 -0.513978
    outer loop
      vertex 5.9441 1.93136 20.7
      vertex 3.09093 1.0043 15.7
      vertex 5.70966 2.5421 20.7
    endloop
  endfacet
  facet normal 0.828575 0.222016 -0.513977
    outer loop
      vertex 6.11342 1.29945 20.7
      vertex 3.09093 1.0043 15.7
      vertex 5.9441 1.93136 20.7
    endloop
  endfacet
  facet normal 0.0448844 0.856629 -0.513977
    outer loop
      vertex 0.339717 3.2322 15.7
      vertex 0 3.25 15.7
      vertex 0 6.25 20.7
    endloop
  endfacet
  facet normal 0.222016 0.828575 -0.513977
    outer loop
      vertex 1.93136 5.9441 20.7
      vertex 1.0043 3.09093 15.7
      vertex 1.29945 6.11342 20.7
    endloop
  endfacet
  facet normal 0.307408 0.800829 -0.513978
    outer loop
      vertex 2.5421 5.70966 20.7
      vertex 1.0043 3.09093 15.7
      vertex 1.93136 5.9441 20.7
    endloop
  endfacet
  facet normal 0.764311 -0.38943 -0.513978
    outer loop
      vertex 5.70966 -2.5421 20.7
      vertex 2.81458 -1.625 15.7
      vertex 2.96902 -1.32189 15.7
    endloop
  endfacet
  facet normal -0.38943 -0.764311 -0.513978
    outer loop
      vertex -1.32189 -2.96902 15.7
      vertex -2.5421 -5.70966 20.7
      vertex -1.625 -2.81458 15.7
    endloop
  endfacet
  facet normal -0.764311 0.38943 -0.513978
    outer loop
      vertex -2.96902 1.32189 15.7
      vertex -5.70966 2.5421 20.7
      vertex -2.81458 1.625 15.7
    endloop
  endfacet
  facet normal 0.38943 0.764311 -0.513978
    outer loop
      vertex 1.625 2.81458 15.7
      vertex 1.32189 2.96902 15.7
      vertex 2.5421 5.70966 20.7
    endloop
  endfacet
  facet normal 0.71941 -0.467201 -0.513977
    outer loop
      vertex 5.41266 -3.125 20.7
      vertex 2.6293 -1.9103 15.7
      vertex 2.81458 -1.625 15.7
    endloop
  endfacet
  facet normal 0.719417 -0.467189 -0.513978
    outer loop
      vertex 5.05636 -3.67366 20.7
      vertex 2.6293 -1.9103 15.7
      vertex 5.41266 -3.125 20.7
    endloop
  endfacet
  facet normal -0.71941 0.467201 -0.513977
    outer loop
      vertex -2.81458 1.625 15.7
      vertex -5.41266 3.125 20.7
      vertex -2.6293 1.9103 15.7
    endloop
  endfacet
  facet normal -0.719417 0.467189 -0.513978
    outer loop
      vertex -2.6293 1.9103 15.7
      vertex -5.41266 3.125 20.7
      vertex -5.05636 3.67366 20.7
    endloop
  endfacet
  facet normal 0.467189 0.719417 -0.513978
    outer loop
      vertex 3.67366 5.05636 20.7
      vertex 1.9103 2.6293 15.7
      vertex 3.125 5.41266 20.7
    endloop
  endfacet
  facet normal 0.539829 0.666641 -0.513978
    outer loop
      vertex 2.17467 2.41522 15.7
      vertex 1.9103 2.6293 15.7
      vertex 3.67366 5.05636 20.7
    endloop
  endfacet
endsolid OpenSCAD_Model
