solid OpenSCAD_Model
  facet normal -1 0 0
    outer loop
      vertex 5.5 94 -6.8
      vertex 5.5 133 -5.2
      vertex 5.5 133 -6.8
    endloop
  endfacet
  facet normal -1 -0 0
    outer loop
      vertex 5.5 133 -5.2
      vertex 5.5 94 -6.8
      vertex 5.5 94 -5.2
    endloop
  endfacet
  facet normal 0 0 1
    outer loop
      vertex 81 100 -5.2
      vertex 85.5 133 -5.2
      vertex 81 128 -5.2
    endloop
  endfacet
  facet normal 0 0 1
    outer loop
      vertex 85.5 133 -5.2
      vertex 52.5 131.5 -5.2
      vertex 81 128 -5.2
    endloop
  endfacet
  facet normal -0 0 1
    outer loop
      vertex 5.5 133 -5.2
      vertex 52.5 131.5 -5.2
      vertex 85.5 133 -5.2
    endloop
  endfacet
  facet normal 0 0 1
    outer loop
      vertex 9.5 131.5 -5.2
      vertex 9 128 -5.2
      vertex 9.5 128.5 -5.2
    endloop
  endfacet
  facet normal 0 0 1
    outer loop
      vertex 9 128 -5.2
      vertex 5.5 133 -5.2
      vertex 9 100 -5.2
    endloop
  endfacet
  facet normal 0 0 1
    outer loop
      vertex 9.5 131.5 -5.2
      vertex 5.5 133 -5.2
      vertex 9 128 -5.2
    endloop
  endfacet
  facet normal 0 0 1
    outer loop
      vertex 52.5 131.5 -5.2
      vertex 5.5 133 -5.2
      vertex 9.5 131.5 -5.2
    endloop
  endfacet
  facet normal 0 0 1
    outer loop
      vertex 85.5 133 -5.2
      vertex 81 100 -5.2
      vertex 85.5 94 -5.2
    endloop
  endfacet
  facet normal 0 0 1
    outer loop
      vertex 5.5 94 -5.2
      vertex 81 100 -5.2
      vertex 9 100 -5.2
    endloop
  endfacet
  facet normal 0 0 1
    outer loop
      vertex 81 100 -5.2
      vertex 5.5 94 -5.2
      vertex 85.5 94 -5.2
    endloop
  endfacet
  facet normal 0 0 1
    outer loop
      vertex 5.5 94 -5.2
      vertex 9 100 -5.2
      vertex 5.5 133 -5.2
    endloop
  endfacet
  facet normal -0 0 1
    outer loop
      vertex 52.5 128.5 -5.2
      vertex 81 128 -5.2
      vertex 52.5 131.5 -5.2
    endloop
  endfacet
  facet normal 0 0 1
    outer loop
      vertex 9 128 -5.2
      vertex 52.5 128.5 -5.2
      vertex 9.5 128.5 -5.2
    endloop
  endfacet
  facet normal 0 0 1
    outer loop
      vertex 52.5 128.5 -5.2
      vertex 9 128 -5.2
      vertex 81 128 -5.2
    endloop
  endfacet
  facet normal 1 -0 0
    outer loop
      vertex 85.5 94 -5.2
      vertex 85.5 133 -6.8
      vertex 85.5 133 -5.2
    endloop
  endfacet
  facet normal 1 0 0
    outer loop
      vertex 85.5 133 -6.8
      vertex 85.5 94 -5.2
      vertex 85.5 94 -6.8
    endloop
  endfacet
  facet normal 0 1 -0
    outer loop
      vertex 85.5 133 -6.8
      vertex 5.5 133 -5.2
      vertex 85.5 133 -5.2
    endloop
  endfacet
  facet normal 0 1 0
    outer loop
      vertex 5.5 133 -5.2
      vertex 85.5 133 -6.8
      vertex 5.5 133 -6.8
    endloop
  endfacet
  facet normal 0 0 -1
    outer loop
      vertex 9 128 -6.8
      vertex 52.5 128.5 -6.8
      vertex 81 128 -6.8
    endloop
  endfacet
  facet normal -0 0 -1
    outer loop
      vertex 9.5 128.5 -6.8
      vertex 9 128 -6.8
      vertex 9.5 131.5 -6.8
    endloop
  endfacet
  facet normal -0 0 -1
    outer loop
      vertex 52.5 128.5 -6.8
      vertex 9 128 -6.8
      vertex 9.5 128.5 -6.8
    endloop
  endfacet
  facet normal 0 0 -1
    outer loop
      vertex 85.5 94 -6.8
      vertex 81 100 -6.8
      vertex 85.5 133 -6.8
    endloop
  endfacet
  facet normal 0 0 -1
    outer loop
      vertex 5.5 94 -6.8
      vertex 81 100 -6.8
      vertex 85.5 94 -6.8
    endloop
  endfacet
  facet normal 0 0 -1
    outer loop
      vertex 5.5 133 -6.8
      vertex 9 100 -6.8
      vertex 5.5 94 -6.8
    endloop
  endfacet
  facet normal -0 0 -1
    outer loop
      vertex 81 100 -6.8
      vertex 5.5 94 -6.8
      vertex 9 100 -6.8
    endloop
  endfacet
  facet normal 0 0 -1
    outer loop
      vertex 81 128 -6.8
      vertex 85.5 133 -6.8
      vertex 81 100 -6.8
    endloop
  endfacet
  facet normal 0 0 -1
    outer loop
      vertex 52.5 131.5 -6.8
      vertex 81 128 -6.8
      vertex 52.5 128.5 -6.8
    endloop
  endfacet
  facet normal 0 0 -1
    outer loop
      vertex 81 128 -6.8
      vertex 52.5 131.5 -6.8
      vertex 85.5 133 -6.8
    endloop
  endfacet
  facet normal 0 0 -1
    outer loop
      vertex 5.5 133 -6.8
      vertex 52.5 131.5 -6.8
      vertex 9.5 131.5 -6.8
    endloop
  endfacet
  facet normal 0 0 -1
    outer loop
      vertex 52.5 131.5 -6.8
      vertex 5.5 133 -6.8
      vertex 85.5 133 -6.8
    endloop
  endfacet
  facet normal 0 0 -1
    outer loop
      vertex 9 128 -6.8
      vertex 5.5 133 -6.8
      vertex 9.5 131.5 -6.8
    endloop
  endfacet
  facet normal 0 0 -1
    outer loop
      vertex 9 100 -6.8
      vertex 5.5 133 -6.8
      vertex 9 128 -6.8
    endloop
  endfacet
  facet normal 0 -1 0
    outer loop
      vertex 5.5 94 -6.8
      vertex 85.5 94 -5.2
      vertex 5.5 94 -5.2
    endloop
  endfacet
  facet normal 0 -1 -0
    outer loop
      vertex 85.5 94 -5.2
      vertex 5.5 94 -6.8
      vertex 85.5 94 -6.8
    endloop
  endfacet
  facet normal 1 -0 0
    outer loop
      vertex 9 100 -5.2
      vertex 9 128 -6.8
      vertex 9 128 -5.2
    endloop
  endfacet
  facet normal 1 0 0
    outer loop
      vertex 9 128 -6.8
      vertex 9 100 -5.2
      vertex 9 100 -6.8
    endloop
  endfacet
  facet normal -1 0 0
    outer loop
      vertex 81 100 -6.8
      vertex 81 128 -5.2
      vertex 81 128 -6.8
    endloop
  endfacet
  facet normal -1 -0 0
    outer loop
      vertex 81 128 -5.2
      vertex 81 100 -6.8
      vertex 81 100 -5.2
    endloop
  endfacet
  facet normal 0 -1 0
    outer loop
      vertex 9 128 -6.8
      vertex 81 128 -5.2
      vertex 9 128 -5.2
    endloop
  endfacet
  facet normal 0 -1 -0
    outer loop
      vertex 81 128 -5.2
      vertex 9 128 -6.8
      vertex 81 128 -6.8
    endloop
  endfacet
  facet normal 0 1 -0
    outer loop
      vertex 81 100 -6.8
      vertex 9 100 -5.2
      vertex 81 100 -5.2
    endloop
  endfacet
  facet normal 0 1 0
    outer loop
      vertex 9 100 -5.2
      vertex 81 100 -6.8
      vertex 9 100 -6.8
    endloop
  endfacet
  facet normal 1 -0 0
    outer loop
      vertex 9.5 128.5 -5.2
      vertex 9.5 131.5 -6.8
      vertex 9.5 131.5 -5.2
    endloop
  endfacet
  facet normal 1 0 0
    outer loop
      vertex 9.5 131.5 -6.8
      vertex 9.5 128.5 -5.2
      vertex 9.5 128.5 -6.8
    endloop
  endfacet
  facet normal -1 0 0
    outer loop
      vertex 52.5 128.5 -6.8
      vertex 52.5 131.5 -5.2
      vertex 52.5 131.5 -6.8
    endloop
  endfacet
  facet normal -1 -0 0
    outer loop
      vertex 52.5 131.5 -5.2
      vertex 52.5 128.5 -6.8
      vertex 52.5 128.5 -5.2
    endloop
  endfacet
  facet normal 0 -1 0
    outer loop
      vertex 9.5 131.5 -6.8
      vertex 52.5 131.5 -5.2
      vertex 9.5 131.5 -5.2
    endloop
  endfacet
  facet normal 0 -1 -0
    outer loop
      vertex 52.5 131.5 -5.2
      vertex 9.5 131.5 -6.8
      vertex 52.5 131.5 -6.8
    endloop
  endfacet
  facet normal 0 1 -0
    outer loop
      vertex 52.5 128.5 -6.8
      vertex 9.5 128.5 -5.2
      vertex 52.5 128.5 -5.2
    endloop
  endfacet
  facet normal 0 1 0
    outer loop
      vertex 9.5 128.5 -5.2
      vertex 52.5 128.5 -6.8
      vertex 9.5 128.5 -6.8
    endloop
  endfacet
endsolid OpenSCAD_Model
