solid OpenSCAD_Model
  facet normal 0.866034 0.499985 0
    outer loop
      vertex 40.9625 61.3808 5
      vertex 39.7082 63.5534 2
      vertex 39.7082 63.5534 5
    endloop
  endfacet
  facet normal 0.866034 0.499985 0
    outer loop
      vertex 39.7082 63.5534 2
      vertex 40.9625 61.3808 5
      vertex 40.9625 61.3808 2
    endloop
  endfacet
  facet normal 0.994523 0.104519 0
    outer loop
      vertex 42 56.5 5
      vertex 41.7378 58.9949 2
      vertex 41.7378 58.9949 5
    endloop
  endfacet
  facet normal 0.994523 0.104519 0
    outer loop
      vertex 41.7378 58.9949 2
      vertex 42 56.5 5
      vertex 42 56.5 2
    endloop
  endfacet
  facet normal -0.994523 -0.104519 0
    outer loop
      vertex 18.2622 54.0051 2
      vertex 18 56.5 5
      vertex 18 56.5 2
    endloop
  endfacet
  facet normal -0.994523 -0.104519 0
    outer loop
      vertex 18 56.5 5
      vertex 18.2622 54.0051 2
      vertex 18.2622 54.0051 5
    endloop
  endfacet
  facet normal 0.743149 0.669125 0
    outer loop
      vertex 39.7082 63.5534 5
      vertex 38.0296 65.4177 2
      vertex 38.0296 65.4177 5
    endloop
  endfacet
  facet normal 0.743149 0.669125 0
    outer loop
      vertex 38.0296 65.4177 2
      vertex 39.7082 63.5534 5
      vertex 39.7082 63.5534 2
    endloop
  endfacet
  facet normal 0.207915 0.978147 -0
    outer loop
      vertex 33.7082 67.9127 2
      vertex 31.2543 68.4343 5
      vertex 33.7082 67.9127 5
    endloop
  endfacet
  facet normal 0.207915 0.978147 0
    outer loop
      vertex 31.2543 68.4343 5
      vertex 33.7082 67.9127 2
      vertex 31.2543 68.4343 2
    endloop
  endfacet
  facet normal 0 0 -1
    outer loop
      vertex 36.9563 56.0842 2
      vertex 42 56.5 2
      vertex 41.7378 54.0051 2
    endloop
  endfacet
  facet normal 0 0 -1
    outer loop
      vertex 36.618 55.3244 2
      vertex 41.7378 54.0051 2
      vertex 40.9625 51.6192 2
    endloop
  endfacet
  facet normal -0 0 -1
    outer loop
      vertex 42 56.5 2
      vertex 36.9563 56.0842 2
      vertex 37 56.5 2
    endloop
  endfacet
  facet normal 0 0 -1
    outer loop
      vertex 36 54.7679 2
      vertex 40.9625 51.6192 2
      vertex 39.7082 49.4466 2
    endloop
  endfacet
  facet normal 0 0 -1
    outer loop
      vertex 36.9563 56.9158 2
      vertex 42 56.5 2
      vertex 37 56.5 2
    endloop
  endfacet
  facet normal 0 0 -1
    outer loop
      vertex 35.618 54.5979 2
      vertex 39.7082 49.4466 2
      vertex 38.0296 47.5823 2
    endloop
  endfacet
  facet normal 0 0 -1
    outer loop
      vertex 42 56.5 2
      vertex 36.9563 56.9158 2
      vertex 41.7378 58.9949 2
    endloop
  endfacet
  facet normal 0 0 -1
    outer loop
      vertex 36.618 57.6756 2
      vertex 41.7378 58.9949 2
      vertex 36.8271 57.3135 2
    endloop
  endfacet
  facet normal 0 0 -1
    outer loop
      vertex 36.8271 57.3135 2
      vertex 41.7378 58.9949 2
      vertex 36.9563 56.9158 2
    endloop
  endfacet
  facet normal 0 0 -1
    outer loop
      vertex 41.7378 54.0051 2
      vertex 36.8271 55.6865 2
      vertex 36.9563 56.0842 2
    endloop
  endfacet
  facet normal 0 0 -1
    outer loop
      vertex 41.7378 54.0051 2
      vertex 36.618 55.3244 2
      vertex 36.8271 55.6865 2
    endloop
  endfacet
  facet normal 0 0 -1
    outer loop
      vertex 40.9625 51.6192 2
      vertex 36.3383 55.0137 2
      vertex 36.618 55.3244 2
    endloop
  endfacet
  facet normal 0 0 -1
    outer loop
      vertex 34.7909 54.511 2
      vertex 38.0296 47.5823 2
      vertex 36 46.1077 2
    endloop
  endfacet
  facet normal 0 0 -1
    outer loop
      vertex 40.9625 51.6192 2
      vertex 36 54.7679 2
      vertex 36.3383 55.0137 2
    endloop
  endfacet
  facet normal 0 0 -1
    outer loop
      vertex 39.7082 49.4466 2
      vertex 35.618 54.5979 2
      vertex 36 54.7679 2
    endloop
  endfacet
  facet normal 0 0 -1
    outer loop
      vertex 38.0296 47.5823 2
      vertex 35.2091 54.511 2
      vertex 35.618 54.5979 2
    endloop
  endfacet
  facet normal 0 0 -1
    outer loop
      vertex 38.0296 47.5823 2
      vertex 34.7909 54.511 2
      vertex 35.2091 54.511 2
    endloop
  endfacet
  facet normal 0 0 -1
    outer loop
      vertex 36 46.1077 2
      vertex 34.382 54.5979 2
      vertex 34.7909 54.511 2
    endloop
  endfacet
  facet normal 0 0 -1
    outer loop
      vertex 33.7082 45.0873 2
      vertex 34.382 54.5979 2
      vertex 36 46.1077 2
    endloop
  endfacet
  facet normal -0 0 -1
    outer loop
      vertex 34.382 54.5979 2
      vertex 33.7082 45.0873 2
      vertex 34 54.7679 2
    endloop
  endfacet
  facet normal 0 0 -1
    outer loop
      vertex 31.2543 44.5657 2
      vertex 34 54.7679 2
      vertex 33.7082 45.0873 2
    endloop
  endfacet
  facet normal -0 0 -1
    outer loop
      vertex 34 54.7679 2
      vertex 31.2543 44.5657 2
      vertex 33.6617 55.0137 2
    endloop
  endfacet
  facet normal 0 0 -1
    outer loop
      vertex 28.7457 44.5657 2
      vertex 33.6617 55.0137 2
      vertex 31.2543 44.5657 2
    endloop
  endfacet
  facet normal -0 0 -1
    outer loop
      vertex 33.6617 55.0137 2
      vertex 28.7457 44.5657 2
      vertex 33.382 55.3244 2
    endloop
  endfacet
  facet normal 0 0 -1
    outer loop
      vertex 26.2918 45.0873 2
      vertex 33.382 55.3244 2
      vertex 28.7457 44.5657 2
    endloop
  endfacet
  facet normal 0 0 -1
    outer loop
      vertex 24 46.1077 2
      vertex 33.382 55.3244 2
      vertex 26.2918 45.0873 2
    endloop
  endfacet
  facet normal -0 0 -1
    outer loop
      vertex 41.7378 58.9949 2
      vertex 36.618 57.6756 2
      vertex 40.9625 61.3808 2
    endloop
  endfacet
  facet normal 0 0 -1
    outer loop
      vertex 36.3383 57.9863 2
      vertex 40.9625 61.3808 2
      vertex 36.618 57.6756 2
    endloop
  endfacet
  facet normal 0 0 -1
    outer loop
      vertex 36 58.232 2
      vertex 40.9625 61.3808 2
      vertex 36.3383 57.9863 2
    endloop
  endfacet
  facet normal -0 0 -1
    outer loop
      vertex 40.9625 61.3808 2
      vertex 36 58.232 2
      vertex 39.7082 63.5534 2
    endloop
  endfacet
  facet normal 0 0 -1
    outer loop
      vertex 35.618 58.4021 2
      vertex 39.7082 63.5534 2
      vertex 36 58.232 2
    endloop
  endfacet
  facet normal -0 0 -1
    outer loop
      vertex 39.7082 63.5534 2
      vertex 35.618 58.4021 2
      vertex 38.0296 65.4177 2
    endloop
  endfacet
  facet normal 0 0 -1
    outer loop
      vertex 35.2091 58.489 2
      vertex 38.0296 65.4177 2
      vertex 35.618 58.4021 2
    endloop
  endfacet
  facet normal 0 0 -1
    outer loop
      vertex 34.7909 58.489 2
      vertex 38.0296 65.4177 2
      vertex 35.2091 58.489 2
    endloop
  endfacet
  facet normal -0 0 -1
    outer loop
      vertex 38.0296 65.4177 2
      vertex 34.7909 58.489 2
      vertex 36 66.8923 2
    endloop
  endfacet
  facet normal 0 0 -1
    outer loop
      vertex 34.382 58.4021 2
      vertex 36 66.8923 2
      vertex 34.7909 58.489 2
    endloop
  endfacet
  facet normal 0 0 -1
    outer loop
      vertex 33.7082 67.9127 2
      vertex 34.382 58.4021 2
      vertex 34 58.232 2
    endloop
  endfacet
  facet normal 0 0 -1
    outer loop
      vertex 34.382 58.4021 2
      vertex 33.7082 67.9127 2
      vertex 36 66.8923 2
    endloop
  endfacet
  facet normal 0 0 -1
    outer loop
      vertex 31.2543 68.4343 2
      vertex 34 58.232 2
      vertex 33.6617 57.9863 2
    endloop
  endfacet
  facet normal 0 0 -1
    outer loop
      vertex 28.7457 68.4343 2
      vertex 33.6617 57.9863 2
      vertex 33.382 57.6756 2
    endloop
  endfacet
  facet normal 0 0 -1
    outer loop
      vertex 24 66.8923 2
      vertex 33.382 57.6756 2
      vertex 33.1729 57.3135 2
    endloop
  endfacet
  facet normal 0 0 -1
    outer loop
      vertex 20.2918 63.5534 2
      vertex 33.1729 57.3135 2
      vertex 33.0437 56.9158 2
    endloop
  endfacet
  facet normal 0 0 -1
    outer loop
      vertex 18.2622 58.9949 2
      vertex 33.0437 56.9158 2
      vertex 33 56.5 2
    endloop
  endfacet
  facet normal -0 0 -1
    outer loop
      vertex 33.382 55.3244 2
      vertex 24 46.1077 2
      vertex 33.1729 55.6865 2
    endloop
  endfacet
  facet normal 0 0 -1
    outer loop
      vertex 34 58.232 2
      vertex 31.2543 68.4343 2
      vertex 33.7082 67.9127 2
    endloop
  endfacet
  facet normal 0 0 -1
    outer loop
      vertex 21.9704 47.5823 2
      vertex 33.1729 55.6865 2
      vertex 24 46.1077 2
    endloop
  endfacet
  facet normal 0 0 -1
    outer loop
      vertex 33.6617 57.9863 2
      vertex 28.7457 68.4343 2
      vertex 31.2543 68.4343 2
    endloop
  endfacet
  facet normal 0 0 -1
    outer loop
      vertex 20.2918 49.4466 2
      vertex 33.1729 55.6865 2
      vertex 21.9704 47.5823 2
    endloop
  endfacet
  facet normal 0 0 -1
    outer loop
      vertex 33.382 57.6756 2
      vertex 26.2918 67.9127 2
      vertex 28.7457 68.4343 2
    endloop
  endfacet
  facet normal -0 0 -1
    outer loop
      vertex 33.1729 55.6865 2
      vertex 20.2918 49.4466 2
      vertex 33.0437 56.0842 2
    endloop
  endfacet
  facet normal 0 0 -1
    outer loop
      vertex 33.382 57.6756 2
      vertex 24 66.8923 2
      vertex 26.2918 67.9127 2
    endloop
  endfacet
  facet normal 0 0 -1
    outer loop
      vertex 19.0375 51.6192 2
      vertex 33.0437 56.0842 2
      vertex 20.2918 49.4466 2
    endloop
  endfacet
  facet normal 0 0 -1
    outer loop
      vertex 33.1729 57.3135 2
      vertex 21.9704 65.4177 2
      vertex 24 66.8923 2
    endloop
  endfacet
  facet normal 0 0 -1
    outer loop
      vertex 18.2622 54.0051 2
      vertex 33.0437 56.0842 2
      vertex 19.0375 51.6192 2
    endloop
  endfacet
  facet normal 0 0 -1
    outer loop
      vertex 33.1729 57.3135 2
      vertex 20.2918 63.5534 2
      vertex 21.9704 65.4177 2
    endloop
  endfacet
  facet normal -0 0 -1
    outer loop
      vertex 33.0437 56.0842 2
      vertex 18.2622 54.0051 2
      vertex 33 56.5 2
    endloop
  endfacet
  facet normal 0 0 -1
    outer loop
      vertex 33.0437 56.9158 2
      vertex 19.0375 61.3808 2
      vertex 20.2918 63.5534 2
    endloop
  endfacet
  facet normal 0 0 -1
    outer loop
      vertex 18 56.5 2
      vertex 33 56.5 2
      vertex 18.2622 54.0051 2
    endloop
  endfacet
  facet normal 0 0 -1
    outer loop
      vertex 33.0437 56.9158 2
      vertex 18.2622 58.9949 2
      vertex 19.0375 61.3808 2
    endloop
  endfacet
  facet normal 0 0 -1
    outer loop
      vertex 33 56.5 2
      vertex 18 56.5 2
      vertex 18.2622 58.9949 2
    endloop
  endfacet
  facet normal -0.587788 0.809015 0
    outer loop
      vertex 24 66.8923 2
      vertex 21.9704 65.4177 5
      vertex 24 66.8923 5
    endloop
  endfacet
  facet normal -0.587788 0.809015 0
    outer loop
      vertex 21.9704 65.4177 5
      vertex 24 66.8923 2
      vertex 21.9704 65.4177 2
    endloop
  endfacet
  facet normal -0.994523 0.104519 0
    outer loop
      vertex 18 56.5 2
      vertex 18.2622 58.9949 5
      vertex 18.2622 58.9949 2
    endloop
  endfacet
  facet normal -0.994523 0.104519 0
    outer loop
      vertex 18.2622 58.9949 5
      vertex 18 56.5 2
      vertex 18 56.5 5
    endloop
  endfacet
  facet normal 0.587788 0.809015 -0
    outer loop
      vertex 38.0296 65.4177 2
      vertex 36 66.8923 5
      vertex 38.0296 65.4177 5
    endloop
  endfacet
  facet normal 0.587788 0.809015 0
    outer loop
      vertex 36 66.8923 5
      vertex 38.0296 65.4177 2
      vertex 36 66.8923 2
    endloop
  endfacet
  facet normal -0.207915 0.978147 0
    outer loop
      vertex 28.7457 68.4343 2
      vertex 26.2918 67.9127 5
      vertex 28.7457 68.4343 5
    endloop
  endfacet
  facet normal -0.207915 0.978147 0
    outer loop
      vertex 26.2918 67.9127 5
      vertex 28.7457 68.4343 2
      vertex 26.2918 67.9127 2
    endloop
  endfacet
  facet normal 0.406745 0.913542 -0
    outer loop
      vertex 36 66.8923 2
      vertex 33.7082 67.9127 5
      vertex 36 66.8923 5
    endloop
  endfacet
  facet normal 0.406745 0.913542 0
    outer loop
      vertex 33.7082 67.9127 5
      vertex 36 66.8923 2
      vertex 33.7082 67.9127 2
    endloop
  endfacet
  facet normal -0.951048 0.309044 0
    outer loop
      vertex 18.2622 58.9949 2
      vertex 19.0375 61.3808 5
      vertex 19.0375 61.3808 2
    endloop
  endfacet
  facet normal -0.951048 0.309044 0
    outer loop
      vertex 19.0375 61.3808 5
      vertex 18.2622 58.9949 2
      vertex 18.2622 58.9949 5
    endloop
  endfacet
  facet normal -0.743149 0.669125 0
    outer loop
      vertex 20.2918 63.5534 2
      vertex 21.9704 65.4177 5
      vertex 21.9704 65.4177 2
    endloop
  endfacet
  facet normal -0.743149 0.669125 0
    outer loop
      vertex 21.9704 65.4177 5
      vertex 20.2918 63.5534 2
      vertex 20.2918 63.5534 5
    endloop
  endfacet
  facet normal -0.406745 0.913542 0
    outer loop
      vertex 26.2918 67.9127 2
      vertex 24 66.8923 5
      vertex 26.2918 67.9127 5
    endloop
  endfacet
  facet normal -0.406745 0.913542 0
    outer loop
      vertex 24 66.8923 5
      vertex 26.2918 67.9127 2
      vertex 24 66.8923 2
    endloop
  endfacet
  facet normal -0.866034 0.499985 0
    outer loop
      vertex 19.0375 61.3808 2
      vertex 20.2918 63.5534 5
      vertex 20.2918 63.5534 2
    endloop
  endfacet
  facet normal -0.866034 0.499985 0
    outer loop
      vertex 20.2918 63.5534 5
      vertex 19.0375 61.3808 2
      vertex 19.0375 61.3808 5
    endloop
  endfacet
  facet normal 0.951048 -0.309044 0
    outer loop
      vertex 40.9625 51.6192 5
      vertex 41.7378 54.0051 2
      vertex 41.7378 54.0051 5
    endloop
  endfacet
  facet normal 0.951048 -0.309044 0
    outer loop
      vertex 41.7378 54.0051 2
      vertex 40.9625 51.6192 5
      vertex 40.9625 51.6192 2
    endloop
  endfacet
  facet normal 0 -1 0
    outer loop
      vertex 28.7457 44.5657 2
      vertex 31.2543 44.5657 5
      vertex 28.7457 44.5657 5
    endloop
  endfacet
  facet normal 0 -1 -0
    outer loop
      vertex 31.2543 44.5657 5
      vertex 28.7457 44.5657 2
      vertex 31.2543 44.5657 2
    endloop
  endfacet
  facet normal 0.743149 -0.669125 0
    outer loop
      vertex 38.0296 47.5823 5
      vertex 39.7082 49.4466 2
      vertex 39.7082 49.4466 5
    endloop
  endfacet
  facet normal 0.743149 -0.669125 0
    outer loop
      vertex 39.7082 49.4466 2
      vertex 38.0296 47.5823 5
      vertex 38.0296 47.5823 2
    endloop
  endfacet
  facet normal 0.994523 -0.104519 0
    outer loop
      vertex 41.7378 54.0051 5
      vertex 42 56.5 2
      vertex 42 56.5 5
    endloop
  endfacet
  facet normal 0.994523 -0.104519 0
    outer loop
      vertex 42 56.5 2
      vertex 41.7378 54.0051 5
      vertex 41.7378 54.0051 2
    endloop
  endfacet
  facet normal 0.951048 0.309044 0
    outer loop
      vertex 41.7378 58.9949 5
      vertex 40.9625 61.3808 2
      vertex 40.9625 61.3808 5
    endloop
  endfacet
  facet normal 0.951048 0.309044 0
    outer loop
      vertex 40.9625 61.3808 2
      vertex 41.7378 58.9949 5
      vertex 41.7378 58.9949 2
    endloop
  endfacet
  facet normal 0 1 -0
    outer loop
      vertex 31.2543 68.4343 2
      vertex 28.7457 68.4343 5
      vertex 31.2543 68.4343 5
    endloop
  endfacet
  facet normal 0 1 0
    outer loop
      vertex 28.7457 68.4343 5
      vertex 31.2543 68.4343 2
      vertex 28.7457 68.4343 2
    endloop
  endfacet
  facet normal 0 0 1
    outer loop
      vertex 41.7378 58.9949 5
      vertex 41.7378 54.0051 5
      vertex 42 56.5 5
    endloop
  endfacet
  facet normal 0 0 1
    outer loop
      vertex 40.9625 61.3808 5
      vertex 41.7378 54.0051 5
      vertex 41.7378 58.9949 5
    endloop
  endfacet
  facet normal 0 0 1
    outer loop
      vertex 40.9625 61.3808 5
      vertex 40.9625 51.6192 5
      vertex 41.7378 54.0051 5
    endloop
  endfacet
  facet normal 0 0 1
    outer loop
      vertex 39.7082 63.5534 5
      vertex 40.9625 51.6192 5
      vertex 40.9625 61.3808 5
    endloop
  endfacet
  facet normal 0 0 1
    outer loop
      vertex 39.7082 63.5534 5
      vertex 39.7082 49.4466 5
      vertex 40.9625 51.6192 5
    endloop
  endfacet
  facet normal 0 0 1
    outer loop
      vertex 38.0296 65.4177 5
      vertex 39.7082 49.4466 5
      vertex 39.7082 63.5534 5
    endloop
  endfacet
  facet normal 0 0 1
    outer loop
      vertex 38.0296 65.4177 5
      vertex 38.0296 47.5823 5
      vertex 39.7082 49.4466 5
    endloop
  endfacet
  facet normal 0 0 1
    outer loop
      vertex 36 66.8923 5
      vertex 38.0296 47.5823 5
      vertex 38.0296 65.4177 5
    endloop
  endfacet
  facet normal 0 0 1
    outer loop
      vertex 36 66.8923 5
      vertex 36 46.1077 5
      vertex 38.0296 47.5823 5
    endloop
  endfacet
  facet normal 0 0 1
    outer loop
      vertex 33.7082 67.9127 5
      vertex 36 46.1077 5
      vertex 36 66.8923 5
    endloop
  endfacet
  facet normal 0 0 1
    outer loop
      vertex 33.7082 67.9127 5
      vertex 33.7082 45.0873 5
      vertex 36 46.1077 5
    endloop
  endfacet
  facet normal 0 0 1
    outer loop
      vertex 31.2543 68.4343 5
      vertex 33.7082 45.0873 5
      vertex 33.7082 67.9127 5
    endloop
  endfacet
  facet normal 0 0 1
    outer loop
      vertex 31.2543 68.4343 5
      vertex 31.2543 44.5657 5
      vertex 33.7082 45.0873 5
    endloop
  endfacet
  facet normal -0 0 1
    outer loop
      vertex 28.7457 68.4343 5
      vertex 31.2543 44.5657 5
      vertex 31.2543 68.4343 5
    endloop
  endfacet
  facet normal 0 0 1
    outer loop
      vertex 28.7457 68.4343 5
      vertex 28.7457 44.5657 5
      vertex 31.2543 44.5657 5
    endloop
  endfacet
  facet normal -0 0 1
    outer loop
      vertex 26.2918 67.9127 5
      vertex 28.7457 44.5657 5
      vertex 28.7457 68.4343 5
    endloop
  endfacet
  facet normal 0 0 1
    outer loop
      vertex 26.2918 67.9127 5
      vertex 26.2918 45.0873 5
      vertex 28.7457 44.5657 5
    endloop
  endfacet
  facet normal -0 0 1
    outer loop
      vertex 24 66.8923 5
      vertex 26.2918 45.0873 5
      vertex 26.2918 67.9127 5
    endloop
  endfacet
  facet normal 0 0 1
    outer loop
      vertex 24 66.8923 5
      vertex 24 46.1077 5
      vertex 26.2918 45.0873 5
    endloop
  endfacet
  facet normal -0 0 1
    outer loop
      vertex 21.9704 65.4177 5
      vertex 24 46.1077 5
      vertex 24 66.8923 5
    endloop
  endfacet
  facet normal 0 0 1
    outer loop
      vertex 21.9704 65.4177 5
      vertex 21.9704 47.5823 5
      vertex 24 46.1077 5
    endloop
  endfacet
  facet normal -0 0 1
    outer loop
      vertex 20.2918 63.5534 5
      vertex 21.9704 47.5823 5
      vertex 21.9704 65.4177 5
    endloop
  endfacet
  facet normal 0 0 1
    outer loop
      vertex 20.2918 63.5534 5
      vertex 20.2918 49.4466 5
      vertex 21.9704 47.5823 5
    endloop
  endfacet
  facet normal -0 0 1
    outer loop
      vertex 19.0375 61.3808 5
      vertex 20.2918 49.4466 5
      vertex 20.2918 63.5534 5
    endloop
  endfacet
  facet normal 0 0 1
    outer loop
      vertex 19.0375 61.3808 5
      vertex 19.0375 51.6192 5
      vertex 20.2918 49.4466 5
    endloop
  endfacet
  facet normal -0 0 1
    outer loop
      vertex 18.2622 58.9949 5
      vertex 19.0375 51.6192 5
      vertex 19.0375 61.3808 5
    endloop
  endfacet
  facet normal 0 0 1
    outer loop
      vertex 18.2622 58.9949 5
      vertex 18.2622 54.0051 5
      vertex 19.0375 51.6192 5
    endloop
  endfacet
  facet normal 0 -0 1
    outer loop
      vertex 18.2622 54.0051 5
      vertex 18.2622 58.9949 5
      vertex 18 56.5 5
    endloop
  endfacet
  facet normal -0.951048 -0.309044 0
    outer loop
      vertex 19.0375 51.6192 2
      vertex 18.2622 54.0051 5
      vertex 18.2622 54.0051 2
    endloop
  endfacet
  facet normal -0.951048 -0.309044 0
    outer loop
      vertex 18.2622 54.0051 5
      vertex 19.0375 51.6192 2
      vertex 19.0375 51.6192 5
    endloop
  endfacet
  facet normal -0.743149 -0.669125 0
    outer loop
      vertex 21.9704 47.5823 2
      vertex 20.2918 49.4466 5
      vertex 20.2918 49.4466 2
    endloop
  endfacet
  facet normal -0.743149 -0.669125 0
    outer loop
      vertex 20.2918 49.4466 5
      vertex 21.9704 47.5823 2
      vertex 21.9704 47.5823 5
    endloop
  endfacet
  facet normal 0.406745 -0.913542 0
    outer loop
      vertex 33.7082 45.0873 2
      vertex 36 46.1077 5
      vertex 33.7082 45.0873 5
    endloop
  endfacet
  facet normal 0.406745 -0.913542 0
    outer loop
      vertex 36 46.1077 5
      vertex 33.7082 45.0873 2
      vertex 36 46.1077 2
    endloop
  endfacet
  facet normal 0.587788 -0.809015 0
    outer loop
      vertex 36 46.1077 2
      vertex 38.0296 47.5823 5
      vertex 36 46.1077 5
    endloop
  endfacet
  facet normal 0.587788 -0.809015 0
    outer loop
      vertex 38.0296 47.5823 5
      vertex 36 46.1077 2
      vertex 38.0296 47.5823 2
    endloop
  endfacet
  facet normal 0.866034 -0.499985 0
    outer loop
      vertex 39.7082 49.4466 5
      vertex 40.9625 51.6192 2
      vertex 40.9625 51.6192 5
    endloop
  endfacet
  facet normal 0.866034 -0.499985 0
    outer loop
      vertex 40.9625 51.6192 2
      vertex 39.7082 49.4466 5
      vertex 39.7082 49.4466 2
    endloop
  endfacet
  facet normal -0.406745 -0.913542 0
    outer loop
      vertex 24 46.1077 2
      vertex 26.2918 45.0873 5
      vertex 24 46.1077 5
    endloop
  endfacet
  facet normal -0.406745 -0.913542 -0
    outer loop
      vertex 26.2918 45.0873 5
      vertex 24 46.1077 2
      vertex 26.2918 45.0873 2
    endloop
  endfacet
  facet normal 0.207915 -0.978147 0
    outer loop
      vertex 31.2543 44.5657 2
      vertex 33.7082 45.0873 5
      vertex 31.2543 44.5657 5
    endloop
  endfacet
  facet normal 0.207915 -0.978147 0
    outer loop
      vertex 33.7082 45.0873 5
      vertex 31.2543 44.5657 2
      vertex 33.7082 45.0873 2
    endloop
  endfacet
  facet normal -0.866034 -0.499985 0
    outer loop
      vertex 20.2918 49.4466 2
      vertex 19.0375 51.6192 5
      vertex 19.0375 51.6192 2
    endloop
  endfacet
  facet normal -0.866034 -0.499985 0
    outer loop
      vertex 19.0375 51.6192 5
      vertex 20.2918 49.4466 2
      vertex 20.2918 49.4466 5
    endloop
  endfacet
  facet normal -0.587788 -0.809015 0
    outer loop
      vertex 21.9704 47.5823 2
      vertex 24 46.1077 5
      vertex 21.9704 47.5823 5
    endloop
  endfacet
  facet normal -0.587788 -0.809015 -0
    outer loop
      vertex 24 46.1077 5
      vertex 21.9704 47.5823 2
      vertex 24 46.1077 2
    endloop
  endfacet
  facet normal -0.207915 -0.978147 0
    outer loop
      vertex 26.2918 45.0873 2
      vertex 28.7457 44.5657 5
      vertex 26.2918 45.0873 5
    endloop
  endfacet
  facet normal -0.207915 -0.978147 -0
    outer loop
      vertex 28.7457 44.5657 5
      vertex 26.2918 45.0873 2
      vertex 28.7457 44.5657 2
    endloop
  endfacet
  facet normal 0.865982 0.500074 0
    outer loop
      vertex 36.8271 57.3135 2
      vertex 36.618 57.6756 0
      vertex 36.618 57.6756 2
    endloop
  endfacet
  facet normal 0.865982 0.500074 0
    outer loop
      vertex 36.618 57.6756 0
      vertex 36.8271 57.3135 2
      vertex 36.8271 57.3135 0
    endloop
  endfacet
  facet normal 0 0 -1
    outer loop
      vertex 36.9563 56.0842 0
      vertex 36.9563 56.9158 0
      vertex 37 56.5 0
    endloop
  endfacet
  facet normal 0 0 -1
    outer loop
      vertex 36.8271 55.6865 0
      vertex 36.9563 56.9158 0
      vertex 36.9563 56.0842 0
    endloop
  endfacet
  facet normal 0 0 -1
    outer loop
      vertex 36.8271 55.6865 0
      vertex 36.8271 57.3135 0
      vertex 36.9563 56.9158 0
    endloop
  endfacet
  facet normal 0 0 -1
    outer loop
      vertex 36.618 55.3244 0
      vertex 36.8271 57.3135 0
      vertex 36.8271 55.6865 0
    endloop
  endfacet
  facet normal 0 0 -1
    outer loop
      vertex 36.618 55.3244 0
      vertex 36.618 57.6756 0
      vertex 36.8271 57.3135 0
    endloop
  endfacet
  facet normal 0 0 -1
    outer loop
      vertex 36.3383 55.0137 0
      vertex 36.618 57.6756 0
      vertex 36.618 55.3244 0
    endloop
  endfacet
  facet normal 0 0 -1
    outer loop
      vertex 36.3383 55.0137 0
      vertex 36.3383 57.9863 0
      vertex 36.618 57.6756 0
    endloop
  endfacet
  facet normal 0 0 -1
    outer loop
      vertex 36 54.7679 0
      vertex 36.3383 57.9863 0
      vertex 36.3383 55.0137 0
    endloop
  endfacet
  facet normal 0 0 -1
    outer loop
      vertex 36 54.7679 0
      vertex 36 58.232 0
      vertex 36.3383 57.9863 0
    endloop
  endfacet
  facet normal 0 0 -1
    outer loop
      vertex 35.618 54.5979 0
      vertex 36 58.232 0
      vertex 36 54.7679 0
    endloop
  endfacet
  facet normal 0 0 -1
    outer loop
      vertex 35.618 54.5979 0
      vertex 35.618 58.4021 0
      vertex 36 58.232 0
    endloop
  endfacet
  facet normal 0 0 -1
    outer loop
      vertex 35.2091 54.511 0
      vertex 35.618 58.4021 0
      vertex 35.618 54.5979 0
    endloop
  endfacet
  facet normal 0 0 -1
    outer loop
      vertex 35.2091 54.511 0
      vertex 35.2091 58.489 0
      vertex 35.618 58.4021 0
    endloop
  endfacet
  facet normal 0 0 -1
    outer loop
      vertex 34.7909 54.511 0
      vertex 35.2091 58.489 0
      vertex 35.2091 54.511 0
    endloop
  endfacet
  facet normal 0 0 -1
    outer loop
      vertex 34.7909 54.511 0
      vertex 34.7909 58.489 0
      vertex 35.2091 58.489 0
    endloop
  endfacet
  facet normal 0 0 -1
    outer loop
      vertex 34.382 54.5979 0
      vertex 34.7909 58.489 0
      vertex 34.7909 54.511 0
    endloop
  endfacet
  facet normal 0 0 -1
    outer loop
      vertex 34.382 54.5979 0
      vertex 34.382 58.4021 0
      vertex 34.7909 58.489 0
    endloop
  endfacet
  facet normal 0 0 -1
    outer loop
      vertex 34 54.7679 0
      vertex 34.382 58.4021 0
      vertex 34.382 54.5979 0
    endloop
  endfacet
  facet normal 0 0 -1
    outer loop
      vertex 34 54.7679 0
      vertex 34 58.232 0
      vertex 34.382 58.4021 0
    endloop
  endfacet
  facet normal 0 0 -1
    outer loop
      vertex 33.6617 55.0137 0
      vertex 34 58.232 0
      vertex 34 54.7679 0
    endloop
  endfacet
  facet normal 0 0 -1
    outer loop
      vertex 33.6617 55.0137 0
      vertex 33.6617 57.9863 0
      vertex 34 58.232 0
    endloop
  endfacet
  facet normal 0 0 -1
    outer loop
      vertex 33.382 55.3244 0
      vertex 33.6617 57.9863 0
      vertex 33.6617 55.0137 0
    endloop
  endfacet
  facet normal 0 0 -1
    outer loop
      vertex 33.382 55.3244 0
      vertex 33.382 57.6756 0
      vertex 33.6617 57.9863 0
    endloop
  endfacet
  facet normal 0 0 -1
    outer loop
      vertex 33.1729 55.6865 0
      vertex 33.382 57.6756 0
      vertex 33.382 55.3244 0
    endloop
  endfacet
  facet normal 0 0 -1
    outer loop
      vertex 33.1729 55.6865 0
      vertex 33.1729 57.3135 0
      vertex 33.382 57.6756 0
    endloop
  endfacet
  facet normal 0 0 -1
    outer loop
      vertex 33.0437 56.0842 0
      vertex 33.1729 57.3135 0
      vertex 33.1729 55.6865 0
    endloop
  endfacet
  facet normal 0 0 -1
    outer loop
      vertex 33.0437 56.0842 0
      vertex 33.0437 56.9158 0
      vertex 33.1729 57.3135 0
    endloop
  endfacet
  facet normal 0 -0 -1
    outer loop
      vertex 33.0437 56.9158 0
      vertex 33.0437 56.0842 0
      vertex 33 56.5 0
    endloop
  endfacet
  facet normal -0.994522 0.104523 0
    outer loop
      vertex 33 56.5 0
      vertex 33.0437 56.9158 2
      vertex 33.0437 56.9158 0
    endloop
  endfacet
  facet normal -0.994522 0.104523 0
    outer loop
      vertex 33.0437 56.9158 2
      vertex 33 56.5 0
      vertex 33 56.5 2
    endloop
  endfacet
  facet normal 0.743211 0.669057 0
    outer loop
      vertex 36.618 57.6756 2
      vertex 36.3383 57.9863 0
      vertex 36.3383 57.9863 2
    endloop
  endfacet
  facet normal 0.743211 0.669057 0
    outer loop
      vertex 36.3383 57.9863 0
      vertex 36.618 57.6756 2
      vertex 36.618 57.6756 0
    endloop
  endfacet
  facet normal 0 1 -0
    outer loop
      vertex 35.2091 58.489 0
      vertex 34.7909 58.489 2
      vertex 35.2091 58.489 2
    endloop
  endfacet
  facet normal 0 1 0
    outer loop
      vertex 34.7909 58.489 2
      vertex 35.2091 58.489 0
      vertex 34.7909 58.489 0
    endloop
  endfacet
  facet normal 0.207879 0.978155 -0
    outer loop
      vertex 35.618 58.4021 0
      vertex 35.2091 58.489 2
      vertex 35.618 58.4021 2
    endloop
  endfacet
  facet normal 0.207879 0.978155 0
    outer loop
      vertex 35.2091 58.489 2
      vertex 35.618 58.4021 0
      vertex 35.2091 58.489 0
    endloop
  endfacet
  facet normal -0.587645 0.809119 0
    outer loop
      vertex 34 58.232 0
      vertex 33.6617 57.9863 2
      vertex 34 58.232 2
    endloop
  endfacet
  facet normal -0.587645 0.809119 0
    outer loop
      vertex 33.6617 57.9863 2
      vertex 34 58.232 0
      vertex 33.6617 57.9863 0
    endloop
  endfacet
  facet normal -0.951071 0.308973 0
    outer loop
      vertex 33.0437 56.9158 0
      vertex 33.1729 57.3135 2
      vertex 33.1729 57.3135 0
    endloop
  endfacet
  facet normal -0.951071 0.308973 0
    outer loop
      vertex 33.1729 57.3135 2
      vertex 33.0437 56.9158 0
      vertex 33.0437 56.9158 2
    endloop
  endfacet
  facet normal -0.743211 0.669057 0
    outer loop
      vertex 33.382 57.6756 0
      vertex 33.6617 57.9863 2
      vertex 33.6617 57.9863 0
    endloop
  endfacet
  facet normal -0.743211 0.669057 0
    outer loop
      vertex 33.6617 57.9863 2
      vertex 33.382 57.6756 0
      vertex 33.382 57.6756 2
    endloop
  endfacet
  facet normal 0.994522 -0.104523 0
    outer loop
      vertex 36.9563 56.0842 2
      vertex 37 56.5 0
      vertex 37 56.5 2
    endloop
  endfacet
  facet normal 0.994522 -0.104523 0
    outer loop
      vertex 37 56.5 0
      vertex 36.9563 56.0842 2
      vertex 36.9563 56.0842 0
    endloop
  endfacet
  facet normal 0.951071 0.308973 0
    outer loop
      vertex 36.9563 56.9158 2
      vertex 36.8271 57.3135 0
      vertex 36.8271 57.3135 2
    endloop
  endfacet
  facet normal 0.951071 0.308973 0
    outer loop
      vertex 36.8271 57.3135 0
      vertex 36.9563 56.9158 2
      vertex 36.9563 56.9158 0
    endloop
  endfacet
  facet normal 0.587645 0.809119 -0
    outer loop
      vertex 36.3383 57.9863 0
      vertex 36 58.232 2
      vertex 36.3383 57.9863 2
    endloop
  endfacet
  facet normal 0.587645 0.809119 0
    outer loop
      vertex 36 58.232 2
      vertex 36.3383 57.9863 0
      vertex 36 58.232 0
    endloop
  endfacet
  facet normal -0.207879 0.978155 0
    outer loop
      vertex 34.7909 58.489 0
      vertex 34.382 58.4021 2
      vertex 34.7909 58.489 2
    endloop
  endfacet
  facet normal -0.207879 0.978155 0
    outer loop
      vertex 34.382 58.4021 2
      vertex 34.7909 58.489 0
      vertex 34.382 58.4021 0
    endloop
  endfacet
  facet normal 0.406782 0.913525 -0
    outer loop
      vertex 36 58.232 0
      vertex 35.618 58.4021 2
      vertex 36 58.232 2
    endloop
  endfacet
  facet normal 0.406782 0.913525 0
    outer loop
      vertex 35.618 58.4021 2
      vertex 36 58.232 0
      vertex 35.618 58.4021 0
    endloop
  endfacet
  facet normal -0.994522 -0.104523 0
    outer loop
      vertex 33.0437 56.0842 0
      vertex 33 56.5 2
      vertex 33 56.5 0
    endloop
  endfacet
  facet normal -0.994522 -0.104523 0
    outer loop
      vertex 33 56.5 2
      vertex 33.0437 56.0842 0
      vertex 33.0437 56.0842 2
    endloop
  endfacet
  facet normal -0.865982 0.500074 0
    outer loop
      vertex 33.1729 57.3135 0
      vertex 33.382 57.6756 2
      vertex 33.382 57.6756 0
    endloop
  endfacet
  facet normal -0.865982 0.500074 0
    outer loop
      vertex 33.382 57.6756 2
      vertex 33.1729 57.3135 0
      vertex 33.1729 57.3135 2
    endloop
  endfacet
  facet normal -0.406782 0.913525 0
    outer loop
      vertex 34.382 58.4021 0
      vertex 34 58.232 2
      vertex 34.382 58.4021 2
    endloop
  endfacet
  facet normal -0.406782 0.913525 0
    outer loop
      vertex 34 58.232 2
      vertex 34.382 58.4021 0
      vertex 34 58.232 0
    endloop
  endfacet
  facet normal 0.994522 0.104523 0
    outer loop
      vertex 37 56.5 2
      vertex 36.9563 56.9158 0
      vertex 36.9563 56.9158 2
    endloop
  endfacet
  facet normal 0.994522 0.104523 0
    outer loop
      vertex 36.9563 56.9158 0
      vertex 37 56.5 2
      vertex 37 56.5 0
    endloop
  endfacet
  facet normal 0.587802 -0.809005 0
    outer loop
      vertex 36 54.7679 0
      vertex 36.3383 55.0137 2
      vertex 36 54.7679 2
    endloop
  endfacet
  facet normal 0.587802 -0.809005 0
    outer loop
      vertex 36.3383 55.0137 2
      vertex 36 54.7679 0
      vertex 36.3383 55.0137 0
    endloop
  endfacet
  facet normal 0.865982 -0.500074 0
    outer loop
      vertex 36.618 55.3244 2
      vertex 36.8271 55.6865 0
      vertex 36.8271 55.6865 2
    endloop
  endfacet
  facet normal 0.865982 -0.500074 0
    outer loop
      vertex 36.8271 55.6865 0
      vertex 36.618 55.3244 2
      vertex 36.618 55.3244 0
    endloop
  endfacet
  facet normal 0 -1 0
    outer loop
      vertex 34.7909 54.511 0
      vertex 35.2091 54.511 2
      vertex 34.7909 54.511 2
    endloop
  endfacet
  facet normal 0 -1 -0
    outer loop
      vertex 35.2091 54.511 2
      vertex 34.7909 54.511 0
      vertex 35.2091 54.511 0
    endloop
  endfacet
  facet normal 0.406582 -0.913614 0
    outer loop
      vertex 35.618 54.5979 0
      vertex 36 54.7679 2
      vertex 35.618 54.5979 2
    endloop
  endfacet
  facet normal 0.406582 -0.913614 0
    outer loop
      vertex 36 54.7679 2
      vertex 35.618 54.5979 0
      vertex 36 54.7679 0
    endloop
  endfacet
  facet normal -0.951071 -0.308973 0
    outer loop
      vertex 33.1729 55.6865 0
      vertex 33.0437 56.0842 2
      vertex 33.0437 56.0842 0
    endloop
  endfacet
  facet normal -0.951071 -0.308973 0
    outer loop
      vertex 33.0437 56.0842 2
      vertex 33.1729 55.6865 0
      vertex 33.1729 55.6865 2
    endloop
  endfacet
  facet normal 0.743211 -0.669057 0
    outer loop
      vertex 36.3383 55.0137 2
      vertex 36.618 55.3244 0
      vertex 36.618 55.3244 2
    endloop
  endfacet
  facet normal 0.743211 -0.669057 0
    outer loop
      vertex 36.618 55.3244 0
      vertex 36.3383 55.0137 2
      vertex 36.3383 55.0137 0
    endloop
  endfacet
  facet normal 0.951071 -0.308973 0
    outer loop
      vertex 36.8271 55.6865 2
      vertex 36.9563 56.0842 0
      vertex 36.9563 56.0842 2
    endloop
  endfacet
  facet normal 0.951071 -0.308973 0
    outer loop
      vertex 36.9563 56.0842 0
      vertex 36.8271 55.6865 2
      vertex 36.8271 55.6865 0
    endloop
  endfacet
  facet normal -0.207879 -0.978155 0
    outer loop
      vertex 34.382 54.5979 0
      vertex 34.7909 54.511 2
      vertex 34.382 54.5979 2
    endloop
  endfacet
  facet normal -0.207879 -0.978155 -0
    outer loop
      vertex 34.7909 54.511 2
      vertex 34.382 54.5979 0
      vertex 34.7909 54.511 0
    endloop
  endfacet
  facet normal 0.207879 -0.978155 0
    outer loop
      vertex 35.2091 54.511 0
      vertex 35.618 54.5979 2
      vertex 35.2091 54.511 2
    endloop
  endfacet
  facet normal 0.207879 -0.978155 0
    outer loop
      vertex 35.618 54.5979 2
      vertex 35.2091 54.511 0
      vertex 35.618 54.5979 0
    endloop
  endfacet
  facet normal -0.865982 -0.500074 0
    outer loop
      vertex 33.382 55.3244 0
      vertex 33.1729 55.6865 2
      vertex 33.1729 55.6865 0
    endloop
  endfacet
  facet normal -0.865982 -0.500074 0
    outer loop
      vertex 33.1729 55.6865 2
      vertex 33.382 55.3244 0
      vertex 33.382 55.3244 2
    endloop
  endfacet
  facet normal -0.587802 -0.809005 0
    outer loop
      vertex 33.6617 55.0137 0
      vertex 34 54.7679 2
      vertex 33.6617 55.0137 2
    endloop
  endfacet
  facet normal -0.587802 -0.809005 -0
    outer loop
      vertex 34 54.7679 2
      vertex 33.6617 55.0137 0
      vertex 34 54.7679 0
    endloop
  endfacet
  facet normal -0.743211 -0.669057 0
    outer loop
      vertex 33.6617 55.0137 0
      vertex 33.382 55.3244 2
      vertex 33.382 55.3244 0
    endloop
  endfacet
  facet normal -0.743211 -0.669057 0
    outer loop
      vertex 33.382 55.3244 2
      vertex 33.6617 55.0137 0
      vertex 33.6617 55.0137 2
    endloop
  endfacet
  facet normal -0.406582 -0.913614 0
    outer loop
      vertex 34 54.7679 0
      vertex 34.382 54.5979 2
      vertex 34 54.7679 2
    endloop
  endfacet
  facet normal -0.406582 -0.913614 -0
    outer loop
      vertex 34.382 54.5979 2
      vertex 34 54.7679 0
      vertex 34.382 54.5979 0
    endloop
  endfacet
endsolid OpenSCAD_Model
