solid OpenSCAD_Model
  facet normal -1 0 0
    outer loop
      vertex 32.4265 0.280729 0
      vertex 32.4265 3.28073 44
      vertex 32.4265 3.28073 0
    endloop
  endfacet
  facet normal -1 -0 0
    outer loop
      vertex 32.4265 3.28073 44
      vertex 32.4265 0.280729 0
      vertex 32.4265 0.280729 44
    endloop
  endfacet
  facet normal 0 1 0
    outer loop
      vertex 52.4265 3.28073 44
      vertex 45.2912 3.28073 41.0132
      vertex 32.4265 3.28073 44
    endloop
  endfacet
  facet normal 0 1 0
    outer loop
      vertex 52.4265 3.28073 44
      vertex 47.0546 3.28073 40.4403
      vertex 45.2912 3.28073 41.0132
    endloop
  endfacet
  facet normal 0 1 0
    outer loop
      vertex 52.4265 3.28073 44
      vertex 48.1444 3.28073 38.9403
      vertex 47.0546 3.28073 40.4403
    endloop
  endfacet
  facet normal 0 1 0
    outer loop
      vertex 52.4265 3.28073 44
      vertex 48.1444 3.28073 37.0862
      vertex 48.1444 3.28073 38.9403
    endloop
  endfacet
  facet normal 0 1 0
    outer loop
      vertex 45.2912 3.28073 35.0132
      vertex 45.2912 3.28073 9.01321
      vertex 39.5739 3.28073 35
    endloop
  endfacet
  facet normal 0 1 0
    outer loop
      vertex 47.0546 3.28073 35.5862
      vertex 45.2912 3.28073 9.01321
      vertex 45.2912 3.28073 35.0132
    endloop
  endfacet
  facet normal 0 1 0
    outer loop
      vertex 47.0546 3.28073 8.44026
      vertex 47.0546 3.28073 35.5862
      vertex 48.1444 3.28073 37.0862
    endloop
  endfacet
  facet normal 0 1 0
    outer loop
      vertex 48.1444 3.28073 6.94026
      vertex 48.1444 3.28073 37.0862
      vertex 52.4265 3.28073 44
    endloop
  endfacet
  facet normal 0 1 0
    outer loop
      vertex 47.0546 3.28073 35.5862
      vertex 47.0546 3.28073 8.44026
      vertex 45.2912 3.28073 9.01321
    endloop
  endfacet
  facet normal 0 1 0
    outer loop
      vertex 48.1444 3.28073 37.0862
      vertex 48.1444 3.28073 6.94026
      vertex 47.0546 3.28073 8.44026
    endloop
  endfacet
  facet normal 0 1 -0
    outer loop
      vertex 52.4265 3.28073 0
      vertex 48.1444 3.28073 6.94026
      vertex 52.4265 3.28073 44
    endloop
  endfacet
  facet normal 0 1 0
    outer loop
      vertex 45.2912 3.28073 3.01321
      vertex 52.4265 3.28073 0
      vertex 39.5739 3.28073 3
    endloop
  endfacet
  facet normal 0 1 0
    outer loop
      vertex 47.0546 3.28073 3.58616
      vertex 52.4265 3.28073 0
      vertex 45.2912 3.28073 3.01321
    endloop
  endfacet
  facet normal 0 1 0
    outer loop
      vertex 48.1444 3.28073 5.08616
      vertex 52.4265 3.28073 0
      vertex 47.0546 3.28073 3.58616
    endloop
  endfacet
  facet normal 0 1 0
    outer loop
      vertex 48.1444 3.28073 6.94026
      vertex 52.4265 3.28073 0
      vertex 48.1444 3.28073 5.08616
    endloop
  endfacet
  facet normal 0 1 -0
    outer loop
      vertex 39.5739 3.28073 41
      vertex 32.4265 3.28073 44
      vertex 45.2912 3.28073 41.0132
    endloop
  endfacet
  facet normal 0 1 -0
    outer loop
      vertex 37.8105 3.28073 40.4271
      vertex 32.4265 3.28073 44
      vertex 39.5739 3.28073 41
    endloop
  endfacet
  facet normal 0 1 -0
    outer loop
      vertex 36.7207 3.28073 38.9271
      vertex 32.4265 3.28073 44
      vertex 37.8105 3.28073 40.4271
    endloop
  endfacet
  facet normal 0 1 -0
    outer loop
      vertex 36.7207 3.28073 37.0729
      vertex 32.4265 3.28073 44
      vertex 36.7207 3.28073 38.9271
    endloop
  endfacet
  facet normal 0 1 0
    outer loop
      vertex 39.5739 3.28073 9
      vertex 39.5739 3.28073 35
      vertex 45.2912 3.28073 9.01321
    endloop
  endfacet
  facet normal 0 1 0
    outer loop
      vertex 39.5739 3.28073 35
      vertex 39.5739 3.28073 9
      vertex 37.8105 3.28073 35.5729
    endloop
  endfacet
  facet normal 0 1 0
    outer loop
      vertex 37.8105 3.28073 8.42705
      vertex 37.8105 3.28073 35.5729
      vertex 39.5739 3.28073 9
    endloop
  endfacet
  facet normal 0 1 0
    outer loop
      vertex 37.8105 3.28073 35.5729
      vertex 37.8105 3.28073 8.42705
      vertex 36.7207 3.28073 37.0729
    endloop
  endfacet
  facet normal 0 1 0
    outer loop
      vertex 36.7207 3.28073 6.92705
      vertex 36.7207 3.28073 37.0729
      vertex 37.8105 3.28073 8.42705
    endloop
  endfacet
  facet normal 0 1 0
    outer loop
      vertex 36.7207 3.28073 37.0729
      vertex 36.7207 3.28073 6.92705
      vertex 32.4265 3.28073 44
    endloop
  endfacet
  facet normal 0 1 0
    outer loop
      vertex 32.4265 3.28073 0
      vertex 36.7207 3.28073 6.92705
      vertex 36.7207 3.28073 5.07295
    endloop
  endfacet
  facet normal 0 1 0
    outer loop
      vertex 36.7207 3.28073 6.92705
      vertex 32.4265 3.28073 0
      vertex 32.4265 3.28073 44
    endloop
  endfacet
  facet normal 0 1 0
    outer loop
      vertex 37.8105 3.28073 3.57295
      vertex 32.4265 3.28073 0
      vertex 36.7207 3.28073 5.07295
    endloop
  endfacet
  facet normal 0 1 0
    outer loop
      vertex 39.5739 3.28073 3
      vertex 32.4265 3.28073 0
      vertex 37.8105 3.28073 3.57295
    endloop
  endfacet
  facet normal 0 1 0
    outer loop
      vertex 32.4265 3.28073 0
      vertex 39.5739 3.28073 3
      vertex 52.4265 3.28073 0
    endloop
  endfacet
  facet normal 0 1 0
    outer loop
      vertex 289.427 3.28073 44
      vertex 282.279 3.28073 41.0264
      vertex 269.427 3.28073 44
    endloop
  endfacet
  facet normal 0 1 0
    outer loop
      vertex 289.427 3.28073 44
      vertex 284.043 3.28073 40.4535
      vertex 282.279 3.28073 41.0264
    endloop
  endfacet
  facet normal 0 1 0
    outer loop
      vertex 289.427 3.28073 44
      vertex 285.132 3.28073 38.9535
      vertex 284.043 3.28073 40.4535
    endloop
  endfacet
  facet normal 0 1 0
    outer loop
      vertex 289.427 3.28073 44
      vertex 285.132 3.28073 37.0994
      vertex 285.132 3.28073 38.9535
    endloop
  endfacet
  facet normal 0 1 0
    outer loop
      vertex 282.279 3.28073 35.0264
      vertex 282.268 3.28073 9.02546
      vertex 276.562 3.28073 35.0132
    endloop
  endfacet
  facet normal 0 1 0
    outer loop
      vertex 284.043 3.28073 35.5994
      vertex 282.268 3.28073 9.02546
      vertex 282.279 3.28073 35.0264
    endloop
  endfacet
  facet normal 0 1 0
    outer loop
      vertex 284.031 3.28073 8.45251
      vertex 284.043 3.28073 35.5994
      vertex 285.132 3.28073 37.0994
    endloop
  endfacet
  facet normal 0 1 0
    outer loop
      vertex 285.121 3.28073 6.95251
      vertex 285.132 3.28073 37.0994
      vertex 289.427 3.28073 44
    endloop
  endfacet
  facet normal 0 1 0
    outer loop
      vertex 284.043 3.28073 35.5994
      vertex 284.031 3.28073 8.45251
      vertex 282.268 3.28073 9.02546
    endloop
  endfacet
  facet normal 0 1 0
    outer loop
      vertex 285.132 3.28073 37.0994
      vertex 285.121 3.28073 6.95251
      vertex 284.031 3.28073 8.45251
    endloop
  endfacet
  facet normal 0 1 -0
    outer loop
      vertex 289.427 3.28073 0
      vertex 285.121 3.28073 6.95251
      vertex 289.427 3.28073 44
    endloop
  endfacet
  facet normal 0 1 0
    outer loop
      vertex 282.268 3.28073 3.02546
      vertex 289.427 3.28073 0
      vertex 276.55 3.28073 3.01225
    endloop
  endfacet
  facet normal 0 1 0
    outer loop
      vertex 284.031 3.28073 3.59841
      vertex 289.427 3.28073 0
      vertex 282.268 3.28073 3.02546
    endloop
  endfacet
  facet normal 0 1 0
    outer loop
      vertex 285.121 3.28073 5.09841
      vertex 289.427 3.28073 0
      vertex 284.031 3.28073 3.59841
    endloop
  endfacet
  facet normal 0 1 0
    outer loop
      vertex 285.121 3.28073 6.95251
      vertex 289.427 3.28073 0
      vertex 285.121 3.28073 5.09841
    endloop
  endfacet
  facet normal 0 1 -0
    outer loop
      vertex 276.562 3.28073 41.0132
      vertex 269.427 3.28073 44
      vertex 282.279 3.28073 41.0264
    endloop
  endfacet
  facet normal 0 1 -0
    outer loop
      vertex 274.798 3.28073 40.4403
      vertex 269.427 3.28073 44
      vertex 276.562 3.28073 41.0132
    endloop
  endfacet
  facet normal 0 1 -0
    outer loop
      vertex 273.709 3.28073 38.9403
      vertex 269.427 3.28073 44
      vertex 274.798 3.28073 40.4403
    endloop
  endfacet
  facet normal 0 1 -0
    outer loop
      vertex 273.709 3.28073 37.0862
      vertex 269.427 3.28073 44
      vertex 273.709 3.28073 38.9403
    endloop
  endfacet
  facet normal 0 1 0
    outer loop
      vertex 276.55 3.28073 9.01225
      vertex 276.562 3.28073 35.0132
      vertex 282.268 3.28073 9.02546
    endloop
  endfacet
  facet normal 0 1 0
    outer loop
      vertex 276.562 3.28073 35.0132
      vertex 276.55 3.28073 9.01225
      vertex 274.798 3.28073 35.5862
    endloop
  endfacet
  facet normal 0 1 0
    outer loop
      vertex 274.787 3.28073 8.4393
      vertex 274.798 3.28073 35.5862
      vertex 276.55 3.28073 9.01225
    endloop
  endfacet
  facet normal 0 1 0
    outer loop
      vertex 274.798 3.28073 35.5862
      vertex 274.787 3.28073 8.4393
      vertex 273.709 3.28073 37.0862
    endloop
  endfacet
  facet normal 0 1 0
    outer loop
      vertex 273.697 3.28073 6.9393
      vertex 273.709 3.28073 37.0862
      vertex 274.787 3.28073 8.4393
    endloop
  endfacet
  facet normal 0 1 0
    outer loop
      vertex 273.709 3.28073 37.0862
      vertex 273.697 3.28073 6.9393
      vertex 269.427 3.28073 44
    endloop
  endfacet
  facet normal 0 1 0
    outer loop
      vertex 269.427 3.28073 0
      vertex 273.697 3.28073 6.9393
      vertex 273.697 3.28073 5.0852
    endloop
  endfacet
  facet normal 0 1 0
    outer loop
      vertex 273.697 3.28073 6.9393
      vertex 269.427 3.28073 0
      vertex 269.427 3.28073 44
    endloop
  endfacet
  facet normal 0 1 0
    outer loop
      vertex 274.787 3.28073 3.5852
      vertex 269.427 3.28073 0
      vertex 273.697 3.28073 5.0852
    endloop
  endfacet
  facet normal 0 1 0
    outer loop
      vertex 276.55 3.28073 3.01225
      vertex 269.427 3.28073 0
      vertex 274.787 3.28073 3.5852
    endloop
  endfacet
  facet normal 0 1 0
    outer loop
      vertex 269.427 3.28073 0
      vertex 276.55 3.28073 3.01225
      vertex 289.427 3.28073 0
    endloop
  endfacet
  facet normal 1 -0 0
    outer loop
      vertex 289.427 0.280729 44
      vertex 289.427 3.28073 0
      vertex 289.427 3.28073 44
    endloop
  endfacet
  facet normal 1 0 0
    outer loop
      vertex 289.427 3.28073 0
      vertex 289.427 0.280729 44
      vertex 289.427 0.280729 0
    endloop
  endfacet
  facet normal 0 0 1
    outer loop
      vertex 193.42 100.281 3
      vertex 266.427 0.280729 3
      vertex 266.427 27.2741 3
    endloop
  endfacet
  facet normal 0 0 1
    outer loop
      vertex 55.4265 0.280729 3
      vertex 193.42 100.281 3
      vertex 125.281 100.281 3
    endloop
  endfacet
  facet normal 0 0 1
    outer loop
      vertex 55.4265 0.280729 3
      vertex 125.281 100.281 3
      vertex 55.4265 30.4265 3
    endloop
  endfacet
  facet normal 0 0 1
    outer loop
      vertex 193.42 100.281 3
      vertex 55.4265 0.280729 3
      vertex 266.427 0.280729 3
    endloop
  endfacet
  facet normal -8.27727e-05 0.201936 0.979399
    outer loop
      vertex 269.427 3.28073 44
      vertex 269.427 24.2741 39.6715
      vertex 268.757 24.9441 39.5333
    endloop
  endfacet
  facet normal -0.192449 0.192451 0.96225
    outer loop
      vertex 266.427 0.280729 44
      vertex 268.757 24.9441 39.5333
      vertex 266.427 27.2741 38.6013
    endloop
  endfacet
  facet normal -0.192451 0.192451 0.96225
    outer loop
      vertex 268.757 24.9441 39.5333
      vertex 266.427 0.280729 44
      vertex 269.427 3.28073 44
    endloop
  endfacet
  facet normal -0 0 1
    outer loop
      vertex 269.427 3.28073 44
      vertex 289.427 0.280729 44
      vertex 289.427 3.28073 44
    endloop
  endfacet
  facet normal 0 0 1
    outer loop
      vertex 289.427 0.280729 44
      vertex 269.427 3.28073 44
      vertex 266.427 0.280729 44
    endloop
  endfacet
  facet normal 1 0 0
    outer loop
      vertex 269.427 3.28073 0
      vertex 269.427 24.2741 39.6715
      vertex 269.427 3.28073 44
    endloop
  endfacet
  facet normal 1 0 0
    outer loop
      vertex 269.427 24.2741 39.6715
      vertex 269.427 3.28073 0
      vertex 269.427 24.2741 0
    endloop
  endfacet
  facet normal -1 0 0
    outer loop
      vertex 266.427 0.280729 3
      vertex 266.427 27.2741 38.6013
      vertex 266.427 27.2741 3
    endloop
  endfacet
  facet normal -1 -0 0
    outer loop
      vertex 266.427 27.2741 38.6013
      vertex 266.427 0.280729 3
      vertex 266.427 0.280729 44
    endloop
  endfacet
  facet normal 0 0 1
    outer loop
      vertex 32.4265 0.280729 44
      vertex 52.4265 3.28073 44
      vertex 32.4265 3.28073 44
    endloop
  endfacet
  facet normal 0 0 1
    outer loop
      vertex 52.4265 3.28073 44
      vertex 32.4265 0.280729 44
      vertex 55.4265 0.280729 44
    endloop
  endfacet
  facet normal 0.19792 0.197943 0.960024
    outer loop
      vertex 52.4265 3.28073 44
      vertex 54.5485 29.5485 38.1465
      vertex 52.4265 27.4265 39.0215
    endloop
  endfacet
  facet normal 0.19794 0.19794 0.96002
    outer loop
      vertex 54.5485 29.5485 38.1465
      vertex 52.4265 3.28073 44
      vertex 55.4265 0.280729 44
    endloop
  endfacet
  facet normal 0.000110194 0.196118 0.98058
    outer loop
      vertex 55.4265 0.280729 44
      vertex 55.4265 30.4265 37.9708
      vertex 54.5485 29.5485 38.1465
    endloop
  endfacet
  facet normal 1 0 0
    outer loop
      vertex 55.4265 0.280729 3
      vertex 55.4265 30.4265 37.9708
      vertex 55.4265 0.280729 44
    endloop
  endfacet
  facet normal 1 0 0
    outer loop
      vertex 55.4265 30.4265 37.9708
      vertex 55.4265 0.280729 3
      vertex 55.4265 30.4265 3
    endloop
  endfacet
  facet normal -1 0 0
    outer loop
      vertex 52.4265 3.28073 44
      vertex 52.4265 27.4265 5.97422
      vertex 52.4265 3.28073 0
    endloop
  endfacet
  facet normal -1 0 0
    outer loop
      vertex 52.4265 27.4265 5.97422
      vertex 52.4265 3.28073 44
      vertex 52.4265 27.4265 39.0215
    endloop
  endfacet
  facet normal -0.99998 0.0015176 -0.00613362
    outer loop
      vertex 52.4265 27.4265 5.97422
      vertex 52.4632 27.4632 0
      vertex 52.4265 3.28073 0
    endloop
  endfacet
  facet normal 0 0 -1
    outer loop
      vertex 289.427 0.280729 0
      vertex 269.427 3.28073 0
      vertex 289.427 3.28073 0
    endloop
  endfacet
  facet normal 0 0 -1
    outer loop
      vertex 269.427 3.28073 0
      vertex 193.42 100.281 0
      vertex 269.427 24.2741 0
    endloop
  endfacet
  facet normal 0 0 -1
    outer loop
      vertex 52.4265 3.28073 0
      vertex 193.42 100.281 0
      vertex 269.427 3.28073 0
    endloop
  endfacet
  facet normal -0 0 -1
    outer loop
      vertex 193.42 100.281 0
      vertex 52.4265 3.28073 0
      vertex 125.281 100.281 0
    endloop
  endfacet
  facet normal 0 0 -1
    outer loop
      vertex 52.4265 3.28073 0
      vertex 269.427 3.28073 0
      vertex 289.427 0.280729 0
    endloop
  endfacet
  facet normal 0 0 -1
    outer loop
      vertex 125.281 100.281 0
      vertex 52.4265 3.28073 0
      vertex 52.4632 27.4632 0
    endloop
  endfacet
  facet normal 0 0 -1
    outer loop
      vertex 32.4265 0.280729 0
      vertex 52.4265 3.28073 0
      vertex 289.427 0.280729 0
    endloop
  endfacet
  facet normal -0 0 -1
    outer loop
      vertex 52.4265 3.28073 0
      vertex 32.4265 0.280729 0
      vertex 32.4265 3.28073 0
    endloop
  endfacet
  facet normal 0 1 -0
    outer loop
      vertex 193.42 100.281 0
      vertex 125.281 100.281 3
      vertex 193.42 100.281 3
    endloop
  endfacet
  facet normal 0 1 0
    outer loop
      vertex 125.281 100.281 3
      vertex 193.42 100.281 0
      vertex 125.281 100.281 0
    endloop
  endfacet
  facet normal 0 -1 0
    outer loop
      vertex 32.4265 0.280729 44
      vertex 45.2912 0.280729 41.0132
      vertex 55.4265 0.280729 44
    endloop
  endfacet
  facet normal 0 -1 0
    outer loop
      vertex 32.4265 0.280729 44
      vertex 39.5739 0.280729 41
      vertex 45.2912 0.280729 41.0132
    endloop
  endfacet
  facet normal 0 -1 0
    outer loop
      vertex 32.4265 0.280729 44
      vertex 37.8105 0.280729 40.4271
      vertex 39.5739 0.280729 41
    endloop
  endfacet
  facet normal 0 -1 0
    outer loop
      vertex 32.4265 0.280729 44
      vertex 36.7207 0.280729 38.9271
      vertex 37.8105 0.280729 40.4271
    endloop
  endfacet
  facet normal 0 -1 0
    outer loop
      vertex 32.4265 0.280729 44
      vertex 36.7207 0.280729 37.0729
      vertex 36.7207 0.280729 38.9271
    endloop
  endfacet
  facet normal 0 -1 0
    outer loop
      vertex 39.5739 0.280729 9
      vertex 39.5739 0.280729 35
      vertex 37.8105 0.280729 35.5729
    endloop
  endfacet
  facet normal 0 -1 0
    outer loop
      vertex 37.8105 0.280729 8.42705
      vertex 37.8105 0.280729 35.5729
      vertex 36.7207 0.280729 37.0729
    endloop
  endfacet
  facet normal 0 -1 0
    outer loop
      vertex 36.7207 0.280729 6.92705
      vertex 36.7207 0.280729 37.0729
      vertex 32.4265 0.280729 44
    endloop
  endfacet
  facet normal 0 -1 0
    outer loop
      vertex 39.5739 0.280729 35
      vertex 39.5739 0.280729 9
      vertex 45.2912 0.280729 9.01321
    endloop
  endfacet
  facet normal 0 -1 0
    outer loop
      vertex 37.8105 0.280729 35.5729
      vertex 37.8105 0.280729 8.42705
      vertex 39.5739 0.280729 9
    endloop
  endfacet
  facet normal 0 -1 0
    outer loop
      vertex 36.7207 0.280729 37.0729
      vertex 36.7207 0.280729 6.92705
      vertex 37.8105 0.280729 8.42705
    endloop
  endfacet
  facet normal 0 -1 0
    outer loop
      vertex 32.4265 0.280729 0
      vertex 36.7207 0.280729 6.92705
      vertex 32.4265 0.280729 44
    endloop
  endfacet
  facet normal 0 -1 -0
    outer loop
      vertex 45.2912 0.280729 3.01321
      vertex 32.4265 0.280729 0
      vertex 55.4265 0.280729 3
    endloop
  endfacet
  facet normal 0 -1 -0
    outer loop
      vertex 55.4265 0.280729 3
      vertex 32.4265 0.280729 0
      vertex 266.427 0.280729 3
    endloop
  endfacet
  facet normal 0 -1 -0
    outer loop
      vertex 37.8105 0.280729 3.57295
      vertex 32.4265 0.280729 0
      vertex 39.5739 0.280729 3
    endloop
  endfacet
  facet normal 0 -1 -0
    outer loop
      vertex 36.7207 0.280729 5.07295
      vertex 32.4265 0.280729 0
      vertex 37.8105 0.280729 3.57295
    endloop
  endfacet
  facet normal 0 -1 -0
    outer loop
      vertex 36.7207 0.280729 6.92705
      vertex 32.4265 0.280729 0
      vertex 36.7207 0.280729 5.07295
    endloop
  endfacet
  facet normal 0 -1 0
    outer loop
      vertex 47.0546 0.280729 40.4403
      vertex 55.4265 0.280729 44
      vertex 45.2912 0.280729 41.0132
    endloop
  endfacet
  facet normal 0 -1 0
    outer loop
      vertex 48.1444 0.280729 38.9403
      vertex 55.4265 0.280729 44
      vertex 47.0546 0.280729 40.4403
    endloop
  endfacet
  facet normal 0 -1 0
    outer loop
      vertex 48.1444 0.280729 37.0862
      vertex 55.4265 0.280729 44
      vertex 48.1444 0.280729 38.9403
    endloop
  endfacet
  facet normal 0 -1 0
    outer loop
      vertex 55.4265 0.280729 3
      vertex 48.1444 0.280729 37.0862
      vertex 47.0546 0.280729 35.5862
    endloop
  endfacet
  facet normal 0 -1 0
    outer loop
      vertex 45.2912 0.280729 9.01321
      vertex 45.2912 0.280729 35.0132
      vertex 39.5739 0.280729 35
    endloop
  endfacet
  facet normal 0 -1 0
    outer loop
      vertex 45.2912 0.280729 9.01321
      vertex 47.0546 0.280729 35.5862
      vertex 45.2912 0.280729 35.0132
    endloop
  endfacet
  facet normal 0 -1 0
    outer loop
      vertex 47.0546 0.280729 8.44026
      vertex 47.0546 0.280729 35.5862
      vertex 45.2912 0.280729 9.01321
    endloop
  endfacet
  facet normal 0 -1 0
    outer loop
      vertex 55.4265 0.280729 3
      vertex 47.0546 0.280729 35.5862
      vertex 47.0546 0.280729 8.44026
    endloop
  endfacet
  facet normal 0 -1 0
    outer loop
      vertex 55.4265 0.280729 3
      vertex 47.0546 0.280729 8.44026
      vertex 48.1444 0.280729 6.94026
    endloop
  endfacet
  facet normal 0 -1 0
    outer loop
      vertex 55.4265 0.280729 3
      vertex 48.1444 0.280729 6.94026
      vertex 48.1444 0.280729 5.08616
    endloop
  endfacet
  facet normal 0 -1 0
    outer loop
      vertex 48.1444 0.280729 37.0862
      vertex 55.4265 0.280729 3
      vertex 55.4265 0.280729 44
    endloop
  endfacet
  facet normal 0 -1 0
    outer loop
      vertex 47.0546 0.280729 3.58616
      vertex 55.4265 0.280729 3
      vertex 48.1444 0.280729 5.08616
    endloop
  endfacet
  facet normal 0 -1 0
    outer loop
      vertex 45.2912 0.280729 3.01321
      vertex 55.4265 0.280729 3
      vertex 47.0546 0.280729 3.58616
    endloop
  endfacet
  facet normal 0 -1 0
    outer loop
      vertex 32.4265 0.280729 0
      vertex 45.2912 0.280729 3.01321
      vertex 39.5739 0.280729 3
    endloop
  endfacet
  facet normal 0 -1 0
    outer loop
      vertex 276.562 0.280729 41.0132
      vertex 289.427 0.280729 44
      vertex 266.427 0.280729 44
    endloop
  endfacet
  facet normal 0 -1 0
    outer loop
      vertex 289.427 0.280729 44
      vertex 276.562 0.280729 41.0132
      vertex 282.279 0.280729 41.0264
    endloop
  endfacet
  facet normal 0 -1 0
    outer loop
      vertex 266.427 0.280729 44
      vertex 274.798 0.280729 40.4403
      vertex 276.562 0.280729 41.0132
    endloop
  endfacet
  facet normal 0 -1 0
    outer loop
      vertex 266.427 0.280729 44
      vertex 273.709 0.280729 38.9403
      vertex 274.798 0.280729 40.4403
    endloop
  endfacet
  facet normal 0 -1 0
    outer loop
      vertex 266.427 0.280729 44
      vertex 273.709 0.280729 37.0862
      vertex 273.709 0.280729 38.9403
    endloop
  endfacet
  facet normal 0 -1 0
    outer loop
      vertex 266.427 0.280729 3
      vertex 273.709 0.280729 37.0862
      vertex 266.427 0.280729 44
    endloop
  endfacet
  facet normal 0 -1 0
    outer loop
      vertex 276.55 0.280729 9.01225
      vertex 276.562 0.280729 35.0132
      vertex 274.798 0.280729 35.5862
    endloop
  endfacet
  facet normal 0 -1 -0
    outer loop
      vertex 273.709 0.280729 37.0862
      vertex 266.427 0.280729 3
      vertex 274.798 0.280729 35.5862
    endloop
  endfacet
  facet normal 0 -1 -0
    outer loop
      vertex 276.562 0.280729 35.0132
      vertex 276.55 0.280729 9.01225
      vertex 282.268 0.280729 9.02546
    endloop
  endfacet
  facet normal 0 -1 -0
    outer loop
      vertex 274.798 0.280729 35.5862
      vertex 274.787 0.280729 8.4393
      vertex 276.55 0.280729 9.01225
    endloop
  endfacet
  facet normal 0 -1 0
    outer loop
      vertex 274.798 0.280729 35.5862
      vertex 266.427 0.280729 3
      vertex 274.787 0.280729 8.4393
    endloop
  endfacet
  facet normal 0 -1 0
    outer loop
      vertex 274.787 0.280729 8.4393
      vertex 266.427 0.280729 3
      vertex 273.697 0.280729 6.9393
    endloop
  endfacet
  facet normal 0 -1 -0
    outer loop
      vertex 274.787 0.280729 3.5852
      vertex 266.427 0.280729 3
      vertex 276.55 0.280729 3.01225
    endloop
  endfacet
  facet normal 0 -1 -0
    outer loop
      vertex 273.697 0.280729 5.0852
      vertex 266.427 0.280729 3
      vertex 274.787 0.280729 3.5852
    endloop
  endfacet
  facet normal 0 -1 -0
    outer loop
      vertex 273.697 0.280729 6.9393
      vertex 266.427 0.280729 3
      vertex 273.697 0.280729 5.0852
    endloop
  endfacet
  facet normal 0 -1 0
    outer loop
      vertex 284.043 0.280729 40.4535
      vertex 289.427 0.280729 44
      vertex 282.279 0.280729 41.0264
    endloop
  endfacet
  facet normal 0 -1 0
    outer loop
      vertex 285.132 0.280729 38.9535
      vertex 289.427 0.280729 44
      vertex 284.043 0.280729 40.4535
    endloop
  endfacet
  facet normal 0 -1 0
    outer loop
      vertex 285.132 0.280729 37.0994
      vertex 289.427 0.280729 44
      vertex 285.132 0.280729 38.9535
    endloop
  endfacet
  facet normal 0 -1 0
    outer loop
      vertex 282.268 0.280729 9.02546
      vertex 282.279 0.280729 35.0264
      vertex 276.562 0.280729 35.0132
    endloop
  endfacet
  facet normal 0 -1 0
    outer loop
      vertex 282.268 0.280729 9.02546
      vertex 284.043 0.280729 35.5994
      vertex 282.279 0.280729 35.0264
    endloop
  endfacet
  facet normal 0 -1 0
    outer loop
      vertex 284.031 0.280729 8.45251
      vertex 284.043 0.280729 35.5994
      vertex 282.268 0.280729 9.02546
    endloop
  endfacet
  facet normal 0 -1 -0
    outer loop
      vertex 284.043 0.280729 35.5994
      vertex 284.031 0.280729 8.45251
      vertex 285.132 0.280729 37.0994
    endloop
  endfacet
  facet normal 0 -1 0
    outer loop
      vertex 285.121 0.280729 6.95251
      vertex 285.132 0.280729 37.0994
      vertex 284.031 0.280729 8.45251
    endloop
  endfacet
  facet normal 0 -1 -0
    outer loop
      vertex 285.132 0.280729 37.0994
      vertex 285.121 0.280729 6.95251
      vertex 289.427 0.280729 44
    endloop
  endfacet
  facet normal 0 -1 0
    outer loop
      vertex 289.427 0.280729 0
      vertex 285.121 0.280729 6.95251
      vertex 285.121 0.280729 5.09841
    endloop
  endfacet
  facet normal 0 -1 0
    outer loop
      vertex 289.427 0.280729 0
      vertex 266.427 0.280729 3
      vertex 32.4265 0.280729 0
    endloop
  endfacet
  facet normal 0 -1 0
    outer loop
      vertex 266.427 0.280729 3
      vertex 289.427 0.280729 0
      vertex 276.55 0.280729 3.01225
    endloop
  endfacet
  facet normal 0 -1 0
    outer loop
      vertex 285.121 0.280729 6.95251
      vertex 289.427 0.280729 0
      vertex 289.427 0.280729 44
    endloop
  endfacet
  facet normal 0 -1 0
    outer loop
      vertex 284.031 0.280729 3.59841
      vertex 289.427 0.280729 0
      vertex 285.121 0.280729 5.09841
    endloop
  endfacet
  facet normal 0 -1 0
    outer loop
      vertex 282.268 0.280729 3.02546
      vertex 289.427 0.280729 0
      vertex 284.031 0.280729 3.59841
    endloop
  endfacet
  facet normal 0 -1 0
    outer loop
      vertex 276.55 0.280729 3.01225
      vertex 289.427 0.280729 0
      vertex 282.268 0.280729 3.02546
    endloop
  endfacet
  facet normal -0.00231053 0 0.999997
    outer loop
      vertex 39.5739 3.28073 3
      vertex 45.2912 0.280729 3.01321
      vertex 45.2912 3.28073 3.01321
    endloop
  endfacet
  facet normal -0.00231053 0 0.999997
    outer loop
      vertex 45.2912 0.280729 3.01321
      vertex 39.5739 3.28073 3
      vertex 39.5739 0.280729 3
    endloop
  endfacet
  facet normal -0.30901 0 0.951059
    outer loop
      vertex 45.2912 3.28073 3.01321
      vertex 47.0546 0.280729 3.58616
      vertex 47.0546 3.28073 3.58616
    endloop
  endfacet
  facet normal -0.30901 0 0.951059
    outer loop
      vertex 47.0546 0.280729 3.58616
      vertex 45.2912 3.28073 3.01321
      vertex 45.2912 0.280729 3.01321
    endloop
  endfacet
  facet normal -0.809021 0 0.58778
    outer loop
      vertex 47.0546 0.280729 3.58616
      vertex 48.1444 3.28073 5.08616
      vertex 47.0546 3.28073 3.58616
    endloop
  endfacet
  facet normal -0.809021 0 0.58778
    outer loop
      vertex 48.1444 3.28073 5.08616
      vertex 47.0546 0.280729 3.58616
      vertex 48.1444 0.280729 5.08616
    endloop
  endfacet
  facet normal -1 0 0
    outer loop
      vertex 48.1444 0.280729 5.08616
      vertex 48.1444 3.28073 6.94026
      vertex 48.1444 3.28073 5.08616
    endloop
  endfacet
  facet normal -1 -0 0
    outer loop
      vertex 48.1444 3.28073 6.94026
      vertex 48.1444 0.280729 5.08616
      vertex 48.1444 0.280729 6.94026
    endloop
  endfacet
  facet normal -0.809021 0 -0.58778
    outer loop
      vertex 48.1444 0.280729 6.94026
      vertex 47.0546 3.28073 8.44026
      vertex 48.1444 3.28073 6.94026
    endloop
  endfacet
  facet normal -0.809021 -0 -0.58778
    outer loop
      vertex 47.0546 3.28073 8.44026
      vertex 48.1444 0.280729 6.94026
      vertex 47.0546 0.280729 8.44026
    endloop
  endfacet
  facet normal -0.30901 0 -0.951059
    outer loop
      vertex 45.2912 0.280729 9.01321
      vertex 47.0546 3.28073 8.44026
      vertex 47.0546 0.280729 8.44026
    endloop
  endfacet
  facet normal -0.30901 0 -0.951059
    outer loop
      vertex 47.0546 3.28073 8.44026
      vertex 45.2912 0.280729 9.01321
      vertex 45.2912 3.28073 9.01321
    endloop
  endfacet
  facet normal 0.00231053 0 -0.999997
    outer loop
      vertex 39.5739 0.280729 9
      vertex 45.2912 3.28073 9.01321
      vertex 45.2912 0.280729 9.01321
    endloop
  endfacet
  facet normal 0.00231053 0 -0.999997
    outer loop
      vertex 45.2912 3.28073 9.01321
      vertex 39.5739 0.280729 9
      vertex 39.5739 3.28073 9
    endloop
  endfacet
  facet normal 0.30901 0 -0.951059
    outer loop
      vertex 37.8105 0.280729 8.42705
      vertex 39.5739 3.28073 9
      vertex 39.5739 0.280729 9
    endloop
  endfacet
  facet normal 0.30901 0 -0.951059
    outer loop
      vertex 39.5739 3.28073 9
      vertex 37.8105 0.280729 8.42705
      vertex 37.8105 3.28073 8.42705
    endloop
  endfacet
  facet normal 0.809021 0 -0.58778
    outer loop
      vertex 37.8105 0.280729 8.42705
      vertex 36.7207 3.28073 6.92705
      vertex 37.8105 3.28073 8.42705
    endloop
  endfacet
  facet normal 0.809021 0 -0.58778
    outer loop
      vertex 36.7207 3.28073 6.92705
      vertex 37.8105 0.280729 8.42705
      vertex 36.7207 0.280729 6.92705
    endloop
  endfacet
  facet normal 1 -0 0
    outer loop
      vertex 36.7207 0.280729 6.92705
      vertex 36.7207 3.28073 5.07295
      vertex 36.7207 3.28073 6.92705
    endloop
  endfacet
  facet normal 1 0 0
    outer loop
      vertex 36.7207 3.28073 5.07295
      vertex 36.7207 0.280729 6.92705
      vertex 36.7207 0.280729 5.07295
    endloop
  endfacet
  facet normal 0.809021 -0 0.58778
    outer loop
      vertex 36.7207 0.280729 5.07295
      vertex 37.8105 3.28073 3.57295
      vertex 36.7207 3.28073 5.07295
    endloop
  endfacet
  facet normal 0.809021 0 0.58778
    outer loop
      vertex 37.8105 3.28073 3.57295
      vertex 36.7207 0.280729 5.07295
      vertex 37.8105 0.280729 3.57295
    endloop
  endfacet
  facet normal 0.30901 0 0.951059
    outer loop
      vertex 37.8105 3.28073 3.57295
      vertex 39.5739 0.280729 3
      vertex 39.5739 3.28073 3
    endloop
  endfacet
  facet normal 0.30901 0 0.951059
    outer loop
      vertex 39.5739 0.280729 3
      vertex 37.8105 3.28073 3.57295
      vertex 37.8105 0.280729 3.57295
    endloop
  endfacet
  facet normal 0.809021 -0 0.58778
    outer loop
      vertex 36.7207 0.280729 37.0729
      vertex 37.8105 3.28073 35.5729
      vertex 36.7207 3.28073 37.0729
    endloop
  endfacet
  facet normal 0.809021 0 0.58778
    outer loop
      vertex 37.8105 3.28073 35.5729
      vertex 36.7207 0.280729 37.0729
      vertex 37.8105 0.280729 35.5729
    endloop
  endfacet
  facet normal 0.308986 0 0.951067
    outer loop
      vertex 37.8105 3.28073 35.5729
      vertex 39.5739 0.280729 35
      vertex 39.5739 3.28073 35
    endloop
  endfacet
  facet normal 0.308986 0 0.951067
    outer loop
      vertex 39.5739 0.280729 35
      vertex 37.8105 3.28073 35.5729
      vertex 37.8105 0.280729 35.5729
    endloop
  endfacet
  facet normal -0.00230878 0 0.999997
    outer loop
      vertex 39.5739 3.28073 35
      vertex 45.2912 0.280729 35.0132
      vertex 45.2912 3.28073 35.0132
    endloop
  endfacet
  facet normal -0.00230878 0 0.999997
    outer loop
      vertex 45.2912 0.280729 35.0132
      vertex 39.5739 3.28073 35
      vertex 39.5739 0.280729 35
    endloop
  endfacet
  facet normal -0.309035 0 0.951051
    outer loop
      vertex 45.2912 3.28073 35.0132
      vertex 47.0546 0.280729 35.5862
      vertex 47.0546 3.28073 35.5862
    endloop
  endfacet
  facet normal -0.309035 0 0.951051
    outer loop
      vertex 47.0546 0.280729 35.5862
      vertex 45.2912 3.28073 35.0132
      vertex 45.2912 0.280729 35.0132
    endloop
  endfacet
  facet normal -0.809021 0 0.58778
    outer loop
      vertex 47.0546 0.280729 35.5862
      vertex 48.1444 3.28073 37.0862
      vertex 47.0546 3.28073 35.5862
    endloop
  endfacet
  facet normal -0.809021 0 0.58778
    outer loop
      vertex 48.1444 3.28073 37.0862
      vertex 47.0546 0.280729 35.5862
      vertex 48.1444 0.280729 37.0862
    endloop
  endfacet
  facet normal -1 0 0
    outer loop
      vertex 48.1444 0.280729 37.0862
      vertex 48.1444 3.28073 38.9403
      vertex 48.1444 3.28073 37.0862
    endloop
  endfacet
  facet normal -1 -0 0
    outer loop
      vertex 48.1444 3.28073 38.9403
      vertex 48.1444 0.280729 37.0862
      vertex 48.1444 0.280729 38.9403
    endloop
  endfacet
  facet normal -0.809021 0 -0.58778
    outer loop
      vertex 48.1444 0.280729 38.9403
      vertex 47.0546 3.28073 40.4403
      vertex 48.1444 3.28073 38.9403
    endloop
  endfacet
  facet normal -0.809021 -0 -0.58778
    outer loop
      vertex 47.0546 3.28073 40.4403
      vertex 48.1444 0.280729 38.9403
      vertex 47.0546 0.280729 40.4403
    endloop
  endfacet
  facet normal -0.308986 0 -0.951067
    outer loop
      vertex 45.2912 0.280729 41.0132
      vertex 47.0546 3.28073 40.4403
      vertex 47.0546 0.280729 40.4403
    endloop
  endfacet
  facet normal -0.308986 0 -0.951067
    outer loop
      vertex 47.0546 3.28073 40.4403
      vertex 45.2912 0.280729 41.0132
      vertex 45.2912 3.28073 41.0132
    endloop
  endfacet
  facet normal 0.00230878 0 -0.999997
    outer loop
      vertex 39.5739 0.280729 41
      vertex 45.2912 3.28073 41.0132
      vertex 45.2912 0.280729 41.0132
    endloop
  endfacet
  facet normal 0.00230878 0 -0.999997
    outer loop
      vertex 45.2912 3.28073 41.0132
      vertex 39.5739 0.280729 41
      vertex 39.5739 3.28073 41
    endloop
  endfacet
  facet normal 0.308986 0 -0.951067
    outer loop
      vertex 37.8105 0.280729 40.4271
      vertex 39.5739 3.28073 41
      vertex 39.5739 0.280729 41
    endloop
  endfacet
  facet normal 0.308986 0 -0.951067
    outer loop
      vertex 39.5739 3.28073 41
      vertex 37.8105 0.280729 40.4271
      vertex 37.8105 3.28073 40.4271
    endloop
  endfacet
  facet normal 0.809021 0 -0.58778
    outer loop
      vertex 37.8105 0.280729 40.4271
      vertex 36.7207 3.28073 38.9271
      vertex 37.8105 3.28073 40.4271
    endloop
  endfacet
  facet normal 0.809021 0 -0.58778
    outer loop
      vertex 36.7207 3.28073 38.9271
      vertex 37.8105 0.280729 40.4271
      vertex 36.7207 0.280729 38.9271
    endloop
  endfacet
  facet normal 1 -0 0
    outer loop
      vertex 36.7207 0.280729 38.9271
      vertex 36.7207 3.28073 37.0729
      vertex 36.7207 3.28073 38.9271
    endloop
  endfacet
  facet normal 1 0 0
    outer loop
      vertex 36.7207 3.28073 37.0729
      vertex 36.7207 0.280729 38.9271
      vertex 36.7207 0.280729 37.0729
    endloop
  endfacet
  facet normal 0.808969 0 -0.587851
    outer loop
      vertex 274.787 0.280729 8.4393
      vertex 273.697 3.28073 6.9393
      vertex 274.787 3.28073 8.4393
    endloop
  endfacet
  facet normal 0.808969 0 -0.587851
    outer loop
      vertex 273.697 3.28073 6.9393
      vertex 274.787 0.280729 8.4393
      vertex 273.697 0.280729 6.9393
    endloop
  endfacet
  facet normal 1 -0 0
    outer loop
      vertex 273.697 0.280729 6.9393
      vertex 273.697 3.28073 5.0852
      vertex 273.697 3.28073 6.9393
    endloop
  endfacet
  facet normal 1 0 0
    outer loop
      vertex 273.697 3.28073 5.0852
      vertex 273.697 0.280729 6.9393
      vertex 273.697 0.280729 5.0852
    endloop
  endfacet
  facet normal 0.309074 0 -0.951038
    outer loop
      vertex 274.787 0.280729 8.4393
      vertex 276.55 3.28073 9.01225
      vertex 276.55 0.280729 9.01225
    endloop
  endfacet
  facet normal 0.309074 0 -0.951038
    outer loop
      vertex 276.55 3.28073 9.01225
      vertex 274.787 0.280729 8.4393
      vertex 274.787 3.28073 8.4393
    endloop
  endfacet
  facet normal 0.808969 -0 0.587851
    outer loop
      vertex 273.697 0.280729 5.0852
      vertex 274.787 3.28073 3.5852
      vertex 273.697 3.28073 5.0852
    endloop
  endfacet
  facet normal 0.808969 0 0.587851
    outer loop
      vertex 274.787 3.28073 3.5852
      vertex 273.697 0.280729 5.0852
      vertex 274.787 0.280729 3.5852
    endloop
  endfacet
  facet normal 0.00231024 0 -0.999997
    outer loop
      vertex 276.55 0.280729 9.01225
      vertex 282.268 3.28073 9.02546
      vertex 282.268 0.280729 9.02546
    endloop
  endfacet
  facet normal 0.00231024 0 -0.999997
    outer loop
      vertex 282.268 3.28073 9.02546
      vertex 276.55 0.280729 9.01225
      vertex 276.55 3.28073 9.01225
    endloop
  endfacet
  facet normal -0.808969 0 0.587851
    outer loop
      vertex 284.031 0.280729 3.59841
      vertex 285.121 3.28073 5.09841
      vertex 284.031 3.28073 3.59841
    endloop
  endfacet
  facet normal -0.808969 0 0.587851
    outer loop
      vertex 285.121 3.28073 5.09841
      vertex 284.031 0.280729 3.59841
      vertex 285.121 0.280729 5.09841
    endloop
  endfacet
  facet normal 0.309074 0 0.951038
    outer loop
      vertex 274.787 3.28073 3.5852
      vertex 276.55 0.280729 3.01225
      vertex 276.55 3.28073 3.01225
    endloop
  endfacet
  facet normal 0.309074 0 0.951038
    outer loop
      vertex 276.55 0.280729 3.01225
      vertex 274.787 3.28073 3.5852
      vertex 274.787 0.280729 3.5852
    endloop
  endfacet
  facet normal -0.309074 0 -0.951038
    outer loop
      vertex 282.268 0.280729 9.02546
      vertex 284.031 3.28073 8.45251
      vertex 284.031 0.280729 8.45251
    endloop
  endfacet
  facet normal -0.309074 0 -0.951038
    outer loop
      vertex 284.031 3.28073 8.45251
      vertex 282.268 0.280729 9.02546
      vertex 282.268 3.28073 9.02546
    endloop
  endfacet
  facet normal -0.309074 0 0.951038
    outer loop
      vertex 282.268 3.28073 3.02546
      vertex 284.031 0.280729 3.59841
      vertex 284.031 3.28073 3.59841
    endloop
  endfacet
  facet normal -0.309074 0 0.951038
    outer loop
      vertex 284.031 0.280729 3.59841
      vertex 282.268 3.28073 3.02546
      vertex 282.268 0.280729 3.02546
    endloop
  endfacet
  facet normal -1 0 0
    outer loop
      vertex 285.121 0.280729 5.09841
      vertex 285.121 3.28073 6.95251
      vertex 285.121 3.28073 5.09841
    endloop
  endfacet
  facet normal -1 -0 0
    outer loop
      vertex 285.121 3.28073 6.95251
      vertex 285.121 0.280729 5.09841
      vertex 285.121 0.280729 6.95251
    endloop
  endfacet
  facet normal -0.00231024 0 0.999997
    outer loop
      vertex 276.55 3.28073 3.01225
      vertex 282.268 0.280729 3.02546
      vertex 282.268 3.28073 3.02546
    endloop
  endfacet
  facet normal -0.00231024 0 0.999997
    outer loop
      vertex 282.268 0.280729 3.02546
      vertex 276.55 3.28073 3.01225
      vertex 276.55 0.280729 3.01225
    endloop
  endfacet
  facet normal -0.808969 0 -0.587851
    outer loop
      vertex 285.121 0.280729 6.95251
      vertex 284.031 3.28073 8.45251
      vertex 285.121 3.28073 6.95251
    endloop
  endfacet
  facet normal -0.808969 -0 -0.587851
    outer loop
      vertex 284.031 3.28073 8.45251
      vertex 285.121 0.280729 6.95251
      vertex 284.031 0.280729 8.45251
    endloop
  endfacet
  facet normal 0.0023089 0 -0.999997
    outer loop
      vertex 276.562 0.280729 41.0132
      vertex 282.279 3.28073 41.0264
      vertex 282.279 0.280729 41.0264
    endloop
  endfacet
  facet normal 0.0023089 0 -0.999997
    outer loop
      vertex 282.279 3.28073 41.0264
      vertex 276.562 0.280729 41.0132
      vertex 276.562 3.28073 41.0132
    endloop
  endfacet
  facet normal 0.308891 0 -0.951097
    outer loop
      vertex 274.798 0.280729 40.4403
      vertex 276.562 3.28073 41.0132
      vertex 276.562 0.280729 41.0132
    endloop
  endfacet
  facet normal 0.308891 0 -0.951097
    outer loop
      vertex 276.562 3.28073 41.0132
      vertex 274.798 0.280729 40.4403
      vertex 274.798 3.28073 40.4403
    endloop
  endfacet
  facet normal 0.809226 0 -0.587498
    outer loop
      vertex 274.798 0.280729 40.4403
      vertex 273.709 3.28073 38.9403
      vertex 274.798 3.28073 40.4403
    endloop
  endfacet
  facet normal 0.809226 0 -0.587498
    outer loop
      vertex 273.709 3.28073 38.9403
      vertex 274.798 0.280729 40.4403
      vertex 273.709 0.280729 38.9403
    endloop
  endfacet
  facet normal 1 -0 0
    outer loop
      vertex 273.709 0.280729 38.9403
      vertex 273.709 3.28073 37.0862
      vertex 273.709 3.28073 38.9403
    endloop
  endfacet
  facet normal 1 0 0
    outer loop
      vertex 273.709 3.28073 37.0862
      vertex 273.709 0.280729 38.9403
      vertex 273.709 0.280729 37.0862
    endloop
  endfacet
  facet normal 0.809226 -0 0.587498
    outer loop
      vertex 273.709 0.280729 37.0862
      vertex 274.798 3.28073 35.5862
      vertex 273.709 3.28073 37.0862
    endloop
  endfacet
  facet normal 0.809226 0 0.587498
    outer loop
      vertex 274.798 3.28073 35.5862
      vertex 273.709 0.280729 37.0862
      vertex 274.798 0.280729 35.5862
    endloop
  endfacet
  facet normal 0.30894 0 0.951082
    outer loop
      vertex 274.798 3.28073 35.5862
      vertex 276.562 0.280729 35.0132
      vertex 276.562 3.28073 35.0132
    endloop
  endfacet
  facet normal 0.30894 0 0.951082
    outer loop
      vertex 276.562 0.280729 35.0132
      vertex 274.798 3.28073 35.5862
      vertex 274.798 0.280729 35.5862
    endloop
  endfacet
  facet normal -0.0023089 0 0.999997
    outer loop
      vertex 276.562 3.28073 35.0132
      vertex 282.279 0.280729 35.0264
      vertex 282.279 3.28073 35.0264
    endloop
  endfacet
  facet normal -0.0023089 0 0.999997
    outer loop
      vertex 282.279 0.280729 35.0264
      vertex 276.562 3.28073 35.0132
      vertex 276.562 0.280729 35.0132
    endloop
  endfacet
  facet normal -0.30894 0 0.951082
    outer loop
      vertex 282.279 3.28073 35.0264
      vertex 284.043 0.280729 35.5994
      vertex 284.043 3.28073 35.5994
    endloop
  endfacet
  facet normal -0.30894 0 0.951082
    outer loop
      vertex 284.043 0.280729 35.5994
      vertex 282.279 3.28073 35.0264
      vertex 282.279 0.280729 35.0264
    endloop
  endfacet
  facet normal -0.809226 0 0.587498
    outer loop
      vertex 284.043 0.280729 35.5994
      vertex 285.132 3.28073 37.0994
      vertex 284.043 3.28073 35.5994
    endloop
  endfacet
  facet normal -0.809226 0 0.587498
    outer loop
      vertex 285.132 3.28073 37.0994
      vertex 284.043 0.280729 35.5994
      vertex 285.132 0.280729 37.0994
    endloop
  endfacet
  facet normal -1 0 0
    outer loop
      vertex 285.132 0.280729 37.0994
      vertex 285.132 3.28073 38.9535
      vertex 285.132 3.28073 37.0994
    endloop
  endfacet
  facet normal -1 -0 0
    outer loop
      vertex 285.132 3.28073 38.9535
      vertex 285.132 0.280729 37.0994
      vertex 285.132 0.280729 38.9535
    endloop
  endfacet
  facet normal -0.809226 0 -0.587498
    outer loop
      vertex 285.132 0.280729 38.9535
      vertex 284.043 3.28073 40.4535
      vertex 285.132 3.28073 38.9535
    endloop
  endfacet
  facet normal -0.809226 -0 -0.587498
    outer loop
      vertex 284.043 3.28073 40.4535
      vertex 285.132 0.280729 38.9535
      vertex 284.043 0.280729 40.4535
    endloop
  endfacet
  facet normal -0.308891 0 -0.951097
    outer loop
      vertex 282.279 0.280729 41.0264
      vertex 284.043 3.28073 40.4535
      vertex 284.043 0.280729 40.4535
    endloop
  endfacet
  facet normal -0.308891 0 -0.951097
    outer loop
      vertex 284.043 3.28073 40.4535
      vertex 282.279 0.280729 41.0264
      vertex 282.279 3.28073 41.0264
    endloop
  endfacet
  facet normal -0.707107 0.707107 0
    outer loop
      vertex 125.281 100.281 0
      vertex 55.4265 30.4265 3
      vertex 125.281 100.281 3
    endloop
  endfacet
  facet normal -0.707107 0.707107 0
    outer loop
      vertex 52.4265 27.4265 5.97422
      vertex 55.4265 30.4265 37.9708
      vertex 55.4265 30.4265 3
    endloop
  endfacet
  facet normal -0.707107 0.707107 -8.27978e-16
    outer loop
      vertex 52.4632 27.4632 0
      vertex 55.4265 30.4265 3
      vertex 125.281 100.281 0
    endloop
  endfacet
  facet normal -0.707107 0.707107 -4.23075e-16
    outer loop
      vertex 52.4265 27.4265 5.97422
      vertex 55.4265 30.4265 3
      vertex 52.4632 27.4632 0
    endloop
  endfacet
  facet normal -0.707107 0.707107 0
    outer loop
      vertex 55.4265 30.4265 37.9708
      vertex 52.4265 27.4265 5.97422
      vertex 54.5485 29.5485 38.1465
    endloop
  endfacet
  facet normal -0.707107 0.707107 0
    outer loop
      vertex 54.5485 29.5485 38.1465
      vertex 52.4265 27.4265 5.97422
      vertex 52.4265 27.4265 39.0215
    endloop
  endfacet
  facet normal 0.707107 0.707107 1.24597e-13
    outer loop
      vertex 269.427 24.2741 39.6715
      vertex 266.427 27.2741 38.6013
      vertex 268.757 24.9441 39.5333
    endloop
  endfacet
  facet normal 0.707106 0.707107 0
    outer loop
      vertex 266.427 27.2741 3
      vertex 193.42 100.281 0
      vertex 193.42 100.281 3
    endloop
  endfacet
  facet normal 0.707107 0.707107 0
    outer loop
      vertex 266.427 27.2741 38.6013
      vertex 269.427 24.2741 39.6715
      vertex 266.427 27.2741 3
    endloop
  endfacet
  facet normal 0.707106 0.707107 -9.30319e-07
    outer loop
      vertex 266.427 27.2741 3
      vertex 269.427 24.2741 0
      vertex 193.42 100.281 0
    endloop
  endfacet
  facet normal 0.707107 0.707107 -0
    outer loop
      vertex 269.427 24.2741 0
      vertex 266.427 27.2741 3
      vertex 269.427 24.2741 39.6715
    endloop
  endfacet
endsolid OpenSCAD_Model
