solid OpenSCAD_Model
  facet normal 1 0 0
    outer loop
      vertex 50 44.45 21.59
      vertex 50 42.765 15.46
      vertex 50 44.45 2
    endloop
  endfacet
  facet normal 1 0 0
    outer loop
      vertex 50 44.45 21.59
      vertex 50 33.435 15.46
      vertex 50 42.765 15.46
    endloop
  endfacet
  facet normal 1 0 0
    outer loop
      vertex 50 33.435 15.46
      vertex 50 26.89 15.46
      vertex 50 33.435 6.13
    endloop
  endfacet
  facet normal 1 0 0
    outer loop
      vertex 50 44.45 21.59
      vertex 50 26.89 15.46
      vertex 50 33.435 15.46
    endloop
  endfacet
  facet normal 1 0 0
    outer loop
      vertex 50 44.45 21.59
      vertex 50 17.56 15.46
      vertex 50 26.89 15.46
    endloop
  endfacet
  facet normal 1 0 0
    outer loop
      vertex 50 17.56 15.46
      vertex 50 11.015 15.46
      vertex 50 17.56 6.13
    endloop
  endfacet
  facet normal 1 -0 0
    outer loop
      vertex 50 0 21.59
      vertex 50 17.56 15.46
      vertex 50 44.45 21.59
    endloop
  endfacet
  facet normal 1 0 0
    outer loop
      vertex 50 17.56 15.46
      vertex 50 0 21.59
      vertex 50 11.015 15.46
    endloop
  endfacet
  facet normal 1 0 0
    outer loop
      vertex 50 0 2
      vertex 50 1.685 15.46
      vertex 50 0 21.59
    endloop
  endfacet
  facet normal 1 0 0
    outer loop
      vertex 50 11.015 15.46
      vertex 50 0 21.59
      vertex 50 1.685 15.46
    endloop
  endfacet
  facet normal 1 -0 0
    outer loop
      vertex 50 42.765 6.13
      vertex 50 44.45 2
      vertex 50 42.765 15.46
    endloop
  endfacet
  facet normal 1 -0 0
    outer loop
      vertex 50 33.435 6.13
      vertex 50 44.45 2
      vertex 50 42.765 6.13
    endloop
  endfacet
  facet normal 1 0 0
    outer loop
      vertex 50 26.89 6.13
      vertex 50 33.435 6.13
      vertex 50 26.89 15.46
    endloop
  endfacet
  facet normal 1 -0 0
    outer loop
      vertex 50 26.89 6.13
      vertex 50 44.45 2
      vertex 50 33.435 6.13
    endloop
  endfacet
  facet normal 1 -0 0
    outer loop
      vertex 50 17.56 6.13
      vertex 50 44.45 2
      vertex 50 26.89 6.13
    endloop
  endfacet
  facet normal 1 0 0
    outer loop
      vertex 50 11.015 6.13
      vertex 50 17.56 6.13
      vertex 50 11.015 15.46
    endloop
  endfacet
  facet normal 1 0 0
    outer loop
      vertex 50 0 2
      vertex 50 17.56 6.13
      vertex 50 11.015 6.13
    endloop
  endfacet
  facet normal 1 0 0
    outer loop
      vertex 50 0 2
      vertex 50 11.015 6.13
      vertex 50 1.685 6.13
    endloop
  endfacet
  facet normal 1 0 0
    outer loop
      vertex 50 17.56 6.13
      vertex 50 0 2
      vertex 50 44.45 2
    endloop
  endfacet
  facet normal 1 0 0
    outer loop
      vertex 50 1.685 15.46
      vertex 50 0 2
      vertex 50 1.685 6.13
    endloop
  endfacet
  facet normal -0 0 1
    outer loop
      vertex 56.13 17.56 2
      vertex 65.46 11.015 2
      vertex 65.46 17.56 2
    endloop
  endfacet
  facet normal 0 0 1
    outer loop
      vertex 65.46 11.015 2
      vertex 56.13 17.56 2
      vertex 56.13 11.015 2
    endloop
  endfacet
  facet normal -0 0 1
    outer loop
      vertex 56.13 33.435 2
      vertex 65.46 26.89 2
      vertex 65.46 33.435 2
    endloop
  endfacet
  facet normal 0 0 1
    outer loop
      vertex 65.46 26.89 2
      vertex 56.13 33.435 2
      vertex 56.13 26.89 2
    endloop
  endfacet
  facet normal 0 0 1
    outer loop
      vertex 65.46 33.435 2
      vertex 71.59 44.45 2
      vertex 65.46 42.765 2
    endloop
  endfacet
  facet normal 0 0 1
    outer loop
      vertex 71.59 44.45 2
      vertex 56.13 42.765 2
      vertex 65.46 42.765 2
    endloop
  endfacet
  facet normal 0 0 1
    outer loop
      vertex 50 44.45 2
      vertex 56.13 33.435 2
      vertex 56.13 42.765 2
    endloop
  endfacet
  facet normal 0 0 1
    outer loop
      vertex 56.13 33.435 2
      vertex 50 44.45 2
      vertex 56.13 26.89 2
    endloop
  endfacet
  facet normal 0 0 1
    outer loop
      vertex 56.13 26.89 2
      vertex 50 44.45 2
      vertex 56.13 17.56 2
    endloop
  endfacet
  facet normal 0 0 1
    outer loop
      vertex 50 0 2
      vertex 56.13 17.56 2
      vertex 50 44.45 2
    endloop
  endfacet
  facet normal 0 0 1
    outer loop
      vertex 56.13 17.56 2
      vertex 50 0 2
      vertex 56.13 11.015 2
    endloop
  endfacet
  facet normal -0 0 1
    outer loop
      vertex 50 44.45 2
      vertex 56.13 42.765 2
      vertex 71.59 44.45 2
    endloop
  endfacet
  facet normal 0 0 1
    outer loop
      vertex 65.46 26.89 2
      vertex 71.59 44.45 2
      vertex 65.46 33.435 2
    endloop
  endfacet
  facet normal 0 0 1
    outer loop
      vertex 71.59 44.45 2
      vertex 65.46 26.89 2
      vertex 71.59 0 2
    endloop
  endfacet
  facet normal -0 0 1
    outer loop
      vertex 65.46 17.56 2
      vertex 71.59 0 2
      vertex 65.46 26.89 2
    endloop
  endfacet
  facet normal -0 0 1
    outer loop
      vertex 65.46 11.015 2
      vertex 71.59 0 2
      vertex 65.46 17.56 2
    endloop
  endfacet
  facet normal -0 0 1
    outer loop
      vertex 65.46 1.685 2
      vertex 71.59 0 2
      vertex 65.46 11.015 2
    endloop
  endfacet
  facet normal -0 0 1
    outer loop
      vertex 56.13 1.685 2
      vertex 71.59 0 2
      vertex 65.46 1.685 2
    endloop
  endfacet
  facet normal 0 0 1
    outer loop
      vertex 56.13 1.685 2
      vertex 50 0 2
      vertex 71.59 0 2
    endloop
  endfacet
  facet normal 0 0 1
    outer loop
      vertex 56.13 11.015 2
      vertex 50 0 2
      vertex 56.13 1.685 2
    endloop
  endfacet
  facet normal 1 -0 0
    outer loop
      vertex 71.59 0 2
      vertex 71.59 44.45 0
      vertex 71.59 44.45 2
    endloop
  endfacet
  facet normal 1 0 0
    outer loop
      vertex 71.59 44.45 0
      vertex 71.59 0 2
      vertex 71.59 0 0
    endloop
  endfacet
  facet normal 0 1 0
    outer loop
      vertex 71.59 44.45 2
      vertex 71.59 44.45 0
      vertex 50 44.45 2
    endloop
  endfacet
  facet normal 0 1 -0
    outer loop
      vertex 50 44.45 2
      vertex 48 44.45 21.59
      vertex 50 44.45 21.59
    endloop
  endfacet
  facet normal 0 1 0
    outer loop
      vertex 50 44.45 2
      vertex 48 44.45 0
      vertex 48 44.45 21.59
    endloop
  endfacet
  facet normal 0 1 0
    outer loop
      vertex 48 44.45 0
      vertex 50 44.45 2
      vertex 71.59 44.45 0
    endloop
  endfacet
  facet normal 0 0 -1
    outer loop
      vertex 56.13 26.89 0
      vertex 65.46 33.435 0
      vertex 65.46 26.89 0
    endloop
  endfacet
  facet normal -0 0 -1
    outer loop
      vertex 65.46 33.435 0
      vertex 56.13 26.89 0
      vertex 56.13 33.435 0
    endloop
  endfacet
  facet normal 0 0 -1
    outer loop
      vertex 56.13 11.015 0
      vertex 65.46 17.56 0
      vertex 65.46 11.015 0
    endloop
  endfacet
  facet normal -0 0 -1
    outer loop
      vertex 65.46 17.56 0
      vertex 56.13 11.015 0
      vertex 56.13 17.56 0
    endloop
  endfacet
  facet normal 0 0 -1
    outer loop
      vertex 65.46 11.015 0
      vertex 71.59 0 0
      vertex 65.46 1.685 0
    endloop
  endfacet
  facet normal 0 0 -1
    outer loop
      vertex 71.59 0 0
      vertex 56.13 1.685 0
      vertex 65.46 1.685 0
    endloop
  endfacet
  facet normal 0 0 -1
    outer loop
      vertex 48 0 0
      vertex 56.13 11.015 0
      vertex 56.13 1.685 0
    endloop
  endfacet
  facet normal -0 0 -1
    outer loop
      vertex 56.13 11.015 0
      vertex 48 0 0
      vertex 56.13 17.56 0
    endloop
  endfacet
  facet normal -0 0 -1
    outer loop
      vertex 56.13 17.56 0
      vertex 48 0 0
      vertex 56.13 26.89 0
    endloop
  endfacet
  facet normal 0 0 -1
    outer loop
      vertex 48 44.45 0
      vertex 56.13 26.89 0
      vertex 48 0 0
    endloop
  endfacet
  facet normal 0 0 -1
    outer loop
      vertex 56.13 26.89 0
      vertex 48 44.45 0
      vertex 56.13 33.435 0
    endloop
  endfacet
  facet normal 0 0 -1
    outer loop
      vertex 48 0 0
      vertex 56.13 1.685 0
      vertex 71.59 0 0
    endloop
  endfacet
  facet normal 0 0 -1
    outer loop
      vertex 65.46 17.56 0
      vertex 71.59 0 0
      vertex 65.46 11.015 0
    endloop
  endfacet
  facet normal 0 0 -1
    outer loop
      vertex 71.59 0 0
      vertex 65.46 17.56 0
      vertex 71.59 44.45 0
    endloop
  endfacet
  facet normal 0 0 -1
    outer loop
      vertex 65.46 26.89 0
      vertex 71.59 44.45 0
      vertex 65.46 17.56 0
    endloop
  endfacet
  facet normal 0 0 -1
    outer loop
      vertex 65.46 33.435 0
      vertex 71.59 44.45 0
      vertex 65.46 26.89 0
    endloop
  endfacet
  facet normal 0 0 -1
    outer loop
      vertex 65.46 42.765 0
      vertex 71.59 44.45 0
      vertex 65.46 33.435 0
    endloop
  endfacet
  facet normal 0 0 -1
    outer loop
      vertex 56.13 42.765 0
      vertex 71.59 44.45 0
      vertex 65.46 42.765 0
    endloop
  endfacet
  facet normal 0 0 -1
    outer loop
      vertex 56.13 42.765 0
      vertex 48 44.45 0
      vertex 71.59 44.45 0
    endloop
  endfacet
  facet normal 0 0 -1
    outer loop
      vertex 56.13 33.435 0
      vertex 48 44.45 0
      vertex 56.13 42.765 0
    endloop
  endfacet
  facet normal 0 -1 0
    outer loop
      vertex 48 0 21.59
      vertex 50 0 2
      vertex 50 0 21.59
    endloop
  endfacet
  facet normal 0 -1 0
    outer loop
      vertex 48 0 0
      vertex 50 0 2
      vertex 48 0 21.59
    endloop
  endfacet
  facet normal 0 -1 0
    outer loop
      vertex 71.59 0 0
      vertex 50 0 2
      vertex 48 0 0
    endloop
  endfacet
  facet normal 0 -1 0
    outer loop
      vertex 50 0 2
      vertex 71.59 0 0
      vertex 71.59 0 2
    endloop
  endfacet
  facet normal 1 -0 0
    outer loop
      vertex 56.13 1.685 2
      vertex 56.13 11.015 0
      vertex 56.13 11.015 2
    endloop
  endfacet
  facet normal 1 0 0
    outer loop
      vertex 56.13 11.015 0
      vertex 56.13 1.685 2
      vertex 56.13 1.685 0
    endloop
  endfacet
  facet normal -1 0 0
    outer loop
      vertex 65.46 1.685 0
      vertex 65.46 11.015 2
      vertex 65.46 11.015 0
    endloop
  endfacet
  facet normal -1 -0 0
    outer loop
      vertex 65.46 11.015 2
      vertex 65.46 1.685 0
      vertex 65.46 1.685 2
    endloop
  endfacet
  facet normal 0 1 -0
    outer loop
      vertex 65.46 1.685 0
      vertex 56.13 1.685 2
      vertex 65.46 1.685 2
    endloop
  endfacet
  facet normal 0 1 0
    outer loop
      vertex 56.13 1.685 2
      vertex 65.46 1.685 0
      vertex 56.13 1.685 0
    endloop
  endfacet
  facet normal 0 -1 0
    outer loop
      vertex 56.13 11.015 0
      vertex 65.46 11.015 2
      vertex 56.13 11.015 2
    endloop
  endfacet
  facet normal 0 -1 -0
    outer loop
      vertex 65.46 11.015 2
      vertex 56.13 11.015 0
      vertex 65.46 11.015 0
    endloop
  endfacet
  facet normal 1 -0 0
    outer loop
      vertex 56.13 17.56 2
      vertex 56.13 26.89 0
      vertex 56.13 26.89 2
    endloop
  endfacet
  facet normal 1 0 0
    outer loop
      vertex 56.13 26.89 0
      vertex 56.13 17.56 2
      vertex 56.13 17.56 0
    endloop
  endfacet
  facet normal -1 0 0
    outer loop
      vertex 65.46 17.56 0
      vertex 65.46 26.89 2
      vertex 65.46 26.89 0
    endloop
  endfacet
  facet normal -1 -0 0
    outer loop
      vertex 65.46 26.89 2
      vertex 65.46 17.56 0
      vertex 65.46 17.56 2
    endloop
  endfacet
  facet normal 0 -1 0
    outer loop
      vertex 56.13 26.89 0
      vertex 65.46 26.89 2
      vertex 56.13 26.89 2
    endloop
  endfacet
  facet normal 0 -1 -0
    outer loop
      vertex 65.46 26.89 2
      vertex 56.13 26.89 0
      vertex 65.46 26.89 0
    endloop
  endfacet
  facet normal 0 1 -0
    outer loop
      vertex 65.46 17.56 0
      vertex 56.13 17.56 2
      vertex 65.46 17.56 2
    endloop
  endfacet
  facet normal 0 1 0
    outer loop
      vertex 56.13 17.56 2
      vertex 65.46 17.56 0
      vertex 56.13 17.56 0
    endloop
  endfacet
  facet normal 1 -0 0
    outer loop
      vertex 56.13 33.435 2
      vertex 56.13 42.765 0
      vertex 56.13 42.765 2
    endloop
  endfacet
  facet normal 1 0 0
    outer loop
      vertex 56.13 42.765 0
      vertex 56.13 33.435 2
      vertex 56.13 33.435 0
    endloop
  endfacet
  facet normal -1 0 0
    outer loop
      vertex 65.46 33.435 0
      vertex 65.46 42.765 2
      vertex 65.46 42.765 0
    endloop
  endfacet
  facet normal -1 -0 0
    outer loop
      vertex 65.46 42.765 2
      vertex 65.46 33.435 0
      vertex 65.46 33.435 2
    endloop
  endfacet
  facet normal 0 1 -0
    outer loop
      vertex 65.46 33.435 0
      vertex 56.13 33.435 2
      vertex 65.46 33.435 2
    endloop
  endfacet
  facet normal 0 1 0
    outer loop
      vertex 56.13 33.435 2
      vertex 65.46 33.435 0
      vertex 56.13 33.435 0
    endloop
  endfacet
  facet normal 0 -1 0
    outer loop
      vertex 56.13 42.765 0
      vertex 65.46 42.765 2
      vertex 56.13 42.765 2
    endloop
  endfacet
  facet normal 0 -1 -0
    outer loop
      vertex 65.46 42.765 2
      vertex 56.13 42.765 0
      vertex 65.46 42.765 0
    endloop
  endfacet
  facet normal -1 0 0
    outer loop
      vertex 48 44.45 0
      vertex 48 42.765 6.13
      vertex 48 44.45 21.59
    endloop
  endfacet
  facet normal -1 0 0
    outer loop
      vertex 48 44.45 0
      vertex 48 33.435 6.13
      vertex 48 42.765 6.13
    endloop
  endfacet
  facet normal -1 0 0
    outer loop
      vertex 48 33.435 6.13
      vertex 48 26.89 6.13
      vertex 48 33.435 15.46
    endloop
  endfacet
  facet normal -1 0 0
    outer loop
      vertex 48 44.45 0
      vertex 48 26.89 6.13
      vertex 48 33.435 6.13
    endloop
  endfacet
  facet normal -1 0 0
    outer loop
      vertex 48 44.45 0
      vertex 48 17.56 6.13
      vertex 48 26.89 6.13
    endloop
  endfacet
  facet normal -1 0 0
    outer loop
      vertex 48 17.56 6.13
      vertex 48 11.015 6.13
      vertex 48 17.56 15.46
    endloop
  endfacet
  facet normal -1 0 0
    outer loop
      vertex 48 0 0
      vertex 48 17.56 6.13
      vertex 48 44.45 0
    endloop
  endfacet
  facet normal -1 -0 0
    outer loop
      vertex 48 17.56 6.13
      vertex 48 0 0
      vertex 48 11.015 6.13
    endloop
  endfacet
  facet normal -1 -0 0
    outer loop
      vertex 48 1.685 6.13
      vertex 48 0 0
      vertex 48 1.685 15.46
    endloop
  endfacet
  facet normal -1 -0 0
    outer loop
      vertex 48 11.015 6.13
      vertex 48 0 0
      vertex 48 1.685 6.13
    endloop
  endfacet
  facet normal -1 0 0
    outer loop
      vertex 48 42.765 15.46
      vertex 48 44.45 21.59
      vertex 48 42.765 6.13
    endloop
  endfacet
  facet normal -1 0 0
    outer loop
      vertex 48 33.435 15.46
      vertex 48 44.45 21.59
      vertex 48 42.765 15.46
    endloop
  endfacet
  facet normal -1 0 0
    outer loop
      vertex 48 26.89 15.46
      vertex 48 33.435 15.46
      vertex 48 26.89 6.13
    endloop
  endfacet
  facet normal -1 0 0
    outer loop
      vertex 48 26.89 15.46
      vertex 48 44.45 21.59
      vertex 48 33.435 15.46
    endloop
  endfacet
  facet normal -1 0 0
    outer loop
      vertex 48 17.56 15.46
      vertex 48 44.45 21.59
      vertex 48 26.89 15.46
    endloop
  endfacet
  facet normal -1 0 0
    outer loop
      vertex 48 11.015 15.46
      vertex 48 17.56 15.46
      vertex 48 11.015 6.13
    endloop
  endfacet
  facet normal -1 0 0
    outer loop
      vertex 48 0 21.59
      vertex 48 17.56 15.46
      vertex 48 11.015 15.46
    endloop
  endfacet
  facet normal -1 0 0
    outer loop
      vertex 48 0 21.59
      vertex 48 11.015 15.46
      vertex 48 1.685 15.46
    endloop
  endfacet
  facet normal -1 0 0
    outer loop
      vertex 48 17.56 15.46
      vertex 48 0 21.59
      vertex 48 44.45 21.59
    endloop
  endfacet
  facet normal -1 0 0
    outer loop
      vertex 48 0 21.59
      vertex 48 1.685 15.46
      vertex 48 0 0
    endloop
  endfacet
  facet normal -0 0 1
    outer loop
      vertex 48 44.45 21.59
      vertex 50 0 21.59
      vertex 50 44.45 21.59
    endloop
  endfacet
  facet normal 0 0 1
    outer loop
      vertex 50 0 21.59
      vertex 48 44.45 21.59
      vertex 48 0 21.59
    endloop
  endfacet
  facet normal -0 0 1
    outer loop
      vertex 48 11.015 6.13
      vertex 50 1.685 6.13
      vertex 50 11.015 6.13
    endloop
  endfacet
  facet normal 0 0 1
    outer loop
      vertex 50 1.685 6.13
      vertex 48 11.015 6.13
      vertex 48 1.685 6.13
    endloop
  endfacet
  facet normal 0 0 -1
    outer loop
      vertex 48 1.685 15.46
      vertex 50 11.015 15.46
      vertex 50 1.685 15.46
    endloop
  endfacet
  facet normal -0 0 -1
    outer loop
      vertex 50 11.015 15.46
      vertex 48 1.685 15.46
      vertex 48 11.015 15.46
    endloop
  endfacet
  facet normal 0 1 -0
    outer loop
      vertex 50 1.685 6.13
      vertex 48 1.685 15.46
      vertex 50 1.685 15.46
    endloop
  endfacet
  facet normal 0 1 0
    outer loop
      vertex 48 1.685 15.46
      vertex 50 1.685 6.13
      vertex 48 1.685 6.13
    endloop
  endfacet
  facet normal 0 -1 0
    outer loop
      vertex 48 11.015 6.13
      vertex 50 11.015 15.46
      vertex 48 11.015 15.46
    endloop
  endfacet
  facet normal 0 -1 -0
    outer loop
      vertex 50 11.015 15.46
      vertex 48 11.015 6.13
      vertex 50 11.015 6.13
    endloop
  endfacet
  facet normal -0 0 1
    outer loop
      vertex 48 26.89 6.13
      vertex 50 17.56 6.13
      vertex 50 26.89 6.13
    endloop
  endfacet
  facet normal 0 0 1
    outer loop
      vertex 50 17.56 6.13
      vertex 48 26.89 6.13
      vertex 48 17.56 6.13
    endloop
  endfacet
  facet normal 0 0 -1
    outer loop
      vertex 48 17.56 15.46
      vertex 50 26.89 15.46
      vertex 50 17.56 15.46
    endloop
  endfacet
  facet normal -0 0 -1
    outer loop
      vertex 50 26.89 15.46
      vertex 48 17.56 15.46
      vertex 48 26.89 15.46
    endloop
  endfacet
  facet normal 0 -1 0
    outer loop
      vertex 48 26.89 6.13
      vertex 50 26.89 15.46
      vertex 48 26.89 15.46
    endloop
  endfacet
  facet normal 0 -1 -0
    outer loop
      vertex 50 26.89 15.46
      vertex 48 26.89 6.13
      vertex 50 26.89 6.13
    endloop
  endfacet
  facet normal 0 1 -0
    outer loop
      vertex 50 17.56 6.13
      vertex 48 17.56 15.46
      vertex 50 17.56 15.46
    endloop
  endfacet
  facet normal 0 1 0
    outer loop
      vertex 48 17.56 15.46
      vertex 50 17.56 6.13
      vertex 48 17.56 6.13
    endloop
  endfacet
  facet normal -0 0 1
    outer loop
      vertex 48 42.765 6.13
      vertex 50 33.435 6.13
      vertex 50 42.765 6.13
    endloop
  endfacet
  facet normal 0 0 1
    outer loop
      vertex 50 33.435 6.13
      vertex 48 42.765 6.13
      vertex 48 33.435 6.13
    endloop
  endfacet
  facet normal 0 0 -1
    outer loop
      vertex 48 33.435 15.46
      vertex 50 42.765 15.46
      vertex 50 33.435 15.46
    endloop
  endfacet
  facet normal -0 0 -1
    outer loop
      vertex 50 42.765 15.46
      vertex 48 33.435 15.46
      vertex 48 42.765 15.46
    endloop
  endfacet
  facet normal 0 1 -0
    outer loop
      vertex 50 33.435 6.13
      vertex 48 33.435 15.46
      vertex 50 33.435 15.46
    endloop
  endfacet
  facet normal 0 1 0
    outer loop
      vertex 48 33.435 15.46
      vertex 50 33.435 6.13
      vertex 48 33.435 6.13
    endloop
  endfacet
  facet normal 0 -1 0
    outer loop
      vertex 48 42.765 6.13
      vertex 50 42.765 15.46
      vertex 48 42.765 15.46
    endloop
  endfacet
  facet normal 0 -1 -0
    outer loop
      vertex 50 42.765 15.46
      vertex 48 42.765 6.13
      vertex 50 42.765 6.13
    endloop
  endfacet
  facet normal 1 0 0
    outer loop
      vertex 50 88.9 21.59
      vertex 50 87.215 15.46
      vertex 50 88.9 2
    endloop
  endfacet
  facet normal 1 0 0
    outer loop
      vertex 50 88.9 21.59
      vertex 50 77.885 15.46
      vertex 50 87.215 15.46
    endloop
  endfacet
  facet normal 1 0 0
    outer loop
      vertex 50 77.885 15.46
      vertex 50 71.34 15.46
      vertex 50 77.885 6.13
    endloop
  endfacet
  facet normal 1 0 0
    outer loop
      vertex 50 88.9 21.59
      vertex 50 71.34 15.46
      vertex 50 77.885 15.46
    endloop
  endfacet
  facet normal 1 0 0
    outer loop
      vertex 50 88.9 21.59
      vertex 50 62.01 15.46
      vertex 50 71.34 15.46
    endloop
  endfacet
  facet normal 1 0 0
    outer loop
      vertex 50 62.01 15.46
      vertex 50 55.465 15.46
      vertex 50 62.01 6.13
    endloop
  endfacet
  facet normal 1 -0 0
    outer loop
      vertex 50 44.45 21.59
      vertex 50 62.01 15.46
      vertex 50 88.9 21.59
    endloop
  endfacet
  facet normal 1 0 0
    outer loop
      vertex 50 62.01 15.46
      vertex 50 44.45 21.59
      vertex 50 55.465 15.46
    endloop
  endfacet
  facet normal 1 0 0
    outer loop
      vertex 50 44.45 2
      vertex 50 46.135 15.46
      vertex 50 44.45 21.59
    endloop
  endfacet
  facet normal 1 0 0
    outer loop
      vertex 50 55.465 15.46
      vertex 50 44.45 21.59
      vertex 50 46.135 15.46
    endloop
  endfacet
  facet normal 1 -0 0
    outer loop
      vertex 50 87.215 6.13
      vertex 50 88.9 2
      vertex 50 87.215 15.46
    endloop
  endfacet
  facet normal 1 -0 0
    outer loop
      vertex 50 77.885 6.13
      vertex 50 88.9 2
      vertex 50 87.215 6.13
    endloop
  endfacet
  facet normal 1 0 0
    outer loop
      vertex 50 71.34 6.13
      vertex 50 77.885 6.13
      vertex 50 71.34 15.46
    endloop
  endfacet
  facet normal 1 -0 0
    outer loop
      vertex 50 71.34 6.13
      vertex 50 88.9 2
      vertex 50 77.885 6.13
    endloop
  endfacet
  facet normal 1 -0 0
    outer loop
      vertex 50 62.01 6.13
      vertex 50 88.9 2
      vertex 50 71.34 6.13
    endloop
  endfacet
  facet normal 1 0 0
    outer loop
      vertex 50 55.465 6.13
      vertex 50 62.01 6.13
      vertex 50 55.465 15.46
    endloop
  endfacet
  facet normal 1 0 0
    outer loop
      vertex 50 44.45 2
      vertex 50 62.01 6.13
      vertex 50 55.465 6.13
    endloop
  endfacet
  facet normal 1 0 0
    outer loop
      vertex 50 44.45 2
      vertex 50 55.465 6.13
      vertex 50 46.135 6.13
    endloop
  endfacet
  facet normal 1 0 0
    outer loop
      vertex 50 62.01 6.13
      vertex 50 44.45 2
      vertex 50 88.9 2
    endloop
  endfacet
  facet normal 1 0 0
    outer loop
      vertex 50 46.135 15.46
      vertex 50 44.45 2
      vertex 50 46.135 6.13
    endloop
  endfacet
  facet normal -0 0 1
    outer loop
      vertex 56.13 62.01 2
      vertex 65.46 55.465 2
      vertex 65.46 62.01 2
    endloop
  endfacet
  facet normal 0 0 1
    outer loop
      vertex 65.46 55.465 2
      vertex 56.13 62.01 2
      vertex 56.13 55.465 2
    endloop
  endfacet
  facet normal -0 0 1
    outer loop
      vertex 56.13 77.885 2
      vertex 65.46 71.34 2
      vertex 65.46 77.885 2
    endloop
  endfacet
  facet normal 0 0 1
    outer loop
      vertex 65.46 71.34 2
      vertex 56.13 77.885 2
      vertex 56.13 71.34 2
    endloop
  endfacet
  facet normal 0 0 1
    outer loop
      vertex 65.46 77.885 2
      vertex 71.59 88.9 2
      vertex 65.46 87.215 2
    endloop
  endfacet
  facet normal 0 0 1
    outer loop
      vertex 71.59 88.9 2
      vertex 56.13 87.215 2
      vertex 65.46 87.215 2
    endloop
  endfacet
  facet normal 0 0 1
    outer loop
      vertex 50 88.9 2
      vertex 56.13 77.885 2
      vertex 56.13 87.215 2
    endloop
  endfacet
  facet normal 0 0 1
    outer loop
      vertex 56.13 77.885 2
      vertex 50 88.9 2
      vertex 56.13 71.34 2
    endloop
  endfacet
  facet normal 0 0 1
    outer loop
      vertex 56.13 71.34 2
      vertex 50 88.9 2
      vertex 56.13 62.01 2
    endloop
  endfacet
  facet normal 0 0 1
    outer loop
      vertex 50 44.45 2
      vertex 56.13 62.01 2
      vertex 50 88.9 2
    endloop
  endfacet
  facet normal 0 0 1
    outer loop
      vertex 56.13 62.01 2
      vertex 50 44.45 2
      vertex 56.13 55.465 2
    endloop
  endfacet
  facet normal -0 0 1
    outer loop
      vertex 50 88.9 2
      vertex 56.13 87.215 2
      vertex 71.59 88.9 2
    endloop
  endfacet
  facet normal 0 0 1
    outer loop
      vertex 65.46 71.34 2
      vertex 71.59 88.9 2
      vertex 65.46 77.885 2
    endloop
  endfacet
  facet normal 0 0 1
    outer loop
      vertex 71.59 88.9 2
      vertex 65.46 71.34 2
      vertex 71.59 44.45 2
    endloop
  endfacet
  facet normal -0 0 1
    outer loop
      vertex 65.46 62.01 2
      vertex 71.59 44.45 2
      vertex 65.46 71.34 2
    endloop
  endfacet
  facet normal -0 0 1
    outer loop
      vertex 65.46 55.465 2
      vertex 71.59 44.45 2
      vertex 65.46 62.01 2
    endloop
  endfacet
  facet normal -0 0 1
    outer loop
      vertex 65.46 46.135 2
      vertex 71.59 44.45 2
      vertex 65.46 55.465 2
    endloop
  endfacet
  facet normal -0 0 1
    outer loop
      vertex 56.13 46.135 2
      vertex 71.59 44.45 2
      vertex 65.46 46.135 2
    endloop
  endfacet
  facet normal 0 0 1
    outer loop
      vertex 56.13 46.135 2
      vertex 50 44.45 2
      vertex 71.59 44.45 2
    endloop
  endfacet
  facet normal 0 0 1
    outer loop
      vertex 56.13 55.465 2
      vertex 50 44.45 2
      vertex 56.13 46.135 2
    endloop
  endfacet
  facet normal 1 -0 0
    outer loop
      vertex 71.59 44.45 2
      vertex 71.59 88.9 0
      vertex 71.59 88.9 2
    endloop
  endfacet
  facet normal 1 0 0
    outer loop
      vertex 71.59 88.9 0
      vertex 71.59 44.45 2
      vertex 71.59 44.45 0
    endloop
  endfacet
  facet normal 0 1 0
    outer loop
      vertex 71.59 88.9 2
      vertex 71.59 88.9 0
      vertex 50 88.9 2
    endloop
  endfacet
  facet normal 0 1 -0
    outer loop
      vertex 50 88.9 2
      vertex 48 88.9 21.59
      vertex 50 88.9 21.59
    endloop
  endfacet
  facet normal 0 1 0
    outer loop
      vertex 50 88.9 2
      vertex 48 88.9 0
      vertex 48 88.9 21.59
    endloop
  endfacet
  facet normal 0 1 0
    outer loop
      vertex 48 88.9 0
      vertex 50 88.9 2
      vertex 71.59 88.9 0
    endloop
  endfacet
  facet normal 0 0 -1
    outer loop
      vertex 56.13 71.34 0
      vertex 65.46 77.885 0
      vertex 65.46 71.34 0
    endloop
  endfacet
  facet normal -0 0 -1
    outer loop
      vertex 65.46 77.885 0
      vertex 56.13 71.34 0
      vertex 56.13 77.885 0
    endloop
  endfacet
  facet normal 0 0 -1
    outer loop
      vertex 56.13 55.465 0
      vertex 65.46 62.01 0
      vertex 65.46 55.465 0
    endloop
  endfacet
  facet normal -0 0 -1
    outer loop
      vertex 65.46 62.01 0
      vertex 56.13 55.465 0
      vertex 56.13 62.01 0
    endloop
  endfacet
  facet normal 0 0 -1
    outer loop
      vertex 65.46 55.465 0
      vertex 71.59 44.45 0
      vertex 65.46 46.135 0
    endloop
  endfacet
  facet normal 0 0 -1
    outer loop
      vertex 71.59 44.45 0
      vertex 56.13 46.135 0
      vertex 65.46 46.135 0
    endloop
  endfacet
  facet normal 0 0 -1
    outer loop
      vertex 48 44.45 0
      vertex 56.13 55.465 0
      vertex 56.13 46.135 0
    endloop
  endfacet
  facet normal -0 0 -1
    outer loop
      vertex 56.13 55.465 0
      vertex 48 44.45 0
      vertex 56.13 62.01 0
    endloop
  endfacet
  facet normal -0 0 -1
    outer loop
      vertex 56.13 62.01 0
      vertex 48 44.45 0
      vertex 56.13 71.34 0
    endloop
  endfacet
  facet normal 0 0 -1
    outer loop
      vertex 48 88.9 0
      vertex 56.13 71.34 0
      vertex 48 44.45 0
    endloop
  endfacet
  facet normal 0 0 -1
    outer loop
      vertex 56.13 71.34 0
      vertex 48 88.9 0
      vertex 56.13 77.885 0
    endloop
  endfacet
  facet normal 0 0 -1
    outer loop
      vertex 48 44.45 0
      vertex 56.13 46.135 0
      vertex 71.59 44.45 0
    endloop
  endfacet
  facet normal 0 0 -1
    outer loop
      vertex 65.46 62.01 0
      vertex 71.59 44.45 0
      vertex 65.46 55.465 0
    endloop
  endfacet
  facet normal 0 0 -1
    outer loop
      vertex 71.59 44.45 0
      vertex 65.46 62.01 0
      vertex 71.59 88.9 0
    endloop
  endfacet
  facet normal 0 0 -1
    outer loop
      vertex 65.46 71.34 0
      vertex 71.59 88.9 0
      vertex 65.46 62.01 0
    endloop
  endfacet
  facet normal 0 0 -1
    outer loop
      vertex 65.46 77.885 0
      vertex 71.59 88.9 0
      vertex 65.46 71.34 0
    endloop
  endfacet
  facet normal 0 0 -1
    outer loop
      vertex 65.46 87.215 0
      vertex 71.59 88.9 0
      vertex 65.46 77.885 0
    endloop
  endfacet
  facet normal 0 0 -1
    outer loop
      vertex 56.13 87.215 0
      vertex 71.59 88.9 0
      vertex 65.46 87.215 0
    endloop
  endfacet
  facet normal 0 0 -1
    outer loop
      vertex 56.13 87.215 0
      vertex 48 88.9 0
      vertex 71.59 88.9 0
    endloop
  endfacet
  facet normal 0 0 -1
    outer loop
      vertex 56.13 77.885 0
      vertex 48 88.9 0
      vertex 56.13 87.215 0
    endloop
  endfacet
  facet normal 0 -1 0
    outer loop
      vertex 48 44.45 21.59
      vertex 50 44.45 2
      vertex 50 44.45 21.59
    endloop
  endfacet
  facet normal 0 -1 0
    outer loop
      vertex 48 44.45 0
      vertex 50 44.45 2
      vertex 48 44.45 21.59
    endloop
  endfacet
  facet normal 0 -1 0
    outer loop
      vertex 71.59 44.45 0
      vertex 50 44.45 2
      vertex 48 44.45 0
    endloop
  endfacet
  facet normal 0 -1 0
    outer loop
      vertex 50 44.45 2
      vertex 71.59 44.45 0
      vertex 71.59 44.45 2
    endloop
  endfacet
  facet normal 1 -0 0
    outer loop
      vertex 56.13 46.135 2
      vertex 56.13 55.465 0
      vertex 56.13 55.465 2
    endloop
  endfacet
  facet normal 1 0 0
    outer loop
      vertex 56.13 55.465 0
      vertex 56.13 46.135 2
      vertex 56.13 46.135 0
    endloop
  endfacet
  facet normal -1 0 0
    outer loop
      vertex 65.46 46.135 0
      vertex 65.46 55.465 2
      vertex 65.46 55.465 0
    endloop
  endfacet
  facet normal -1 -0 0
    outer loop
      vertex 65.46 55.465 2
      vertex 65.46 46.135 0
      vertex 65.46 46.135 2
    endloop
  endfacet
  facet normal 0 1 -0
    outer loop
      vertex 65.46 46.135 0
      vertex 56.13 46.135 2
      vertex 65.46 46.135 2
    endloop
  endfacet
  facet normal 0 1 0
    outer loop
      vertex 56.13 46.135 2
      vertex 65.46 46.135 0
      vertex 56.13 46.135 0
    endloop
  endfacet
  facet normal 0 -1 0
    outer loop
      vertex 56.13 55.465 0
      vertex 65.46 55.465 2
      vertex 56.13 55.465 2
    endloop
  endfacet
  facet normal 0 -1 -0
    outer loop
      vertex 65.46 55.465 2
      vertex 56.13 55.465 0
      vertex 65.46 55.465 0
    endloop
  endfacet
  facet normal 1 -0 0
    outer loop
      vertex 56.13 62.01 2
      vertex 56.13 71.34 0
      vertex 56.13 71.34 2
    endloop
  endfacet
  facet normal 1 0 0
    outer loop
      vertex 56.13 71.34 0
      vertex 56.13 62.01 2
      vertex 56.13 62.01 0
    endloop
  endfacet
  facet normal -1 0 0
    outer loop
      vertex 65.46 62.01 0
      vertex 65.46 71.34 2
      vertex 65.46 71.34 0
    endloop
  endfacet
  facet normal -1 -0 0
    outer loop
      vertex 65.46 71.34 2
      vertex 65.46 62.01 0
      vertex 65.46 62.01 2
    endloop
  endfacet
  facet normal 0 -1 0
    outer loop
      vertex 56.13 71.34 0
      vertex 65.46 71.34 2
      vertex 56.13 71.34 2
    endloop
  endfacet
  facet normal 0 -1 -0
    outer loop
      vertex 65.46 71.34 2
      vertex 56.13 71.34 0
      vertex 65.46 71.34 0
    endloop
  endfacet
  facet normal 0 1 -0
    outer loop
      vertex 65.46 62.01 0
      vertex 56.13 62.01 2
      vertex 65.46 62.01 2
    endloop
  endfacet
  facet normal 0 1 0
    outer loop
      vertex 56.13 62.01 2
      vertex 65.46 62.01 0
      vertex 56.13 62.01 0
    endloop
  endfacet
  facet normal 1 -0 0
    outer loop
      vertex 56.13 77.885 2
      vertex 56.13 87.215 0
      vertex 56.13 87.215 2
    endloop
  endfacet
  facet normal 1 0 0
    outer loop
      vertex 56.13 87.215 0
      vertex 56.13 77.885 2
      vertex 56.13 77.885 0
    endloop
  endfacet
  facet normal -1 0 0
    outer loop
      vertex 65.46 77.885 0
      vertex 65.46 87.215 2
      vertex 65.46 87.215 0
    endloop
  endfacet
  facet normal -1 -0 0
    outer loop
      vertex 65.46 87.215 2
      vertex 65.46 77.885 0
      vertex 65.46 77.885 2
    endloop
  endfacet
  facet normal 0 1 -0
    outer loop
      vertex 65.46 77.885 0
      vertex 56.13 77.885 2
      vertex 65.46 77.885 2
    endloop
  endfacet
  facet normal 0 1 0
    outer loop
      vertex 56.13 77.885 2
      vertex 65.46 77.885 0
      vertex 56.13 77.885 0
    endloop
  endfacet
  facet normal 0 -1 0
    outer loop
      vertex 56.13 87.215 0
      vertex 65.46 87.215 2
      vertex 56.13 87.215 2
    endloop
  endfacet
  facet normal 0 -1 -0
    outer loop
      vertex 65.46 87.215 2
      vertex 56.13 87.215 0
      vertex 65.46 87.215 0
    endloop
  endfacet
  facet normal -1 0 0
    outer loop
      vertex 48 88.9 0
      vertex 48 87.215 6.13
      vertex 48 88.9 21.59
    endloop
  endfacet
  facet normal -1 0 0
    outer loop
      vertex 48 88.9 0
      vertex 48 77.885 6.13
      vertex 48 87.215 6.13
    endloop
  endfacet
  facet normal -1 0 0
    outer loop
      vertex 48 77.885 6.13
      vertex 48 71.34 6.13
      vertex 48 77.885 15.46
    endloop
  endfacet
  facet normal -1 0 0
    outer loop
      vertex 48 88.9 0
      vertex 48 71.34 6.13
      vertex 48 77.885 6.13
    endloop
  endfacet
  facet normal -1 0 0
    outer loop
      vertex 48 88.9 0
      vertex 48 62.01 6.13
      vertex 48 71.34 6.13
    endloop
  endfacet
  facet normal -1 0 0
    outer loop
      vertex 48 62.01 6.13
      vertex 48 55.465 6.13
      vertex 48 62.01 15.46
    endloop
  endfacet
  facet normal -1 0 0
    outer loop
      vertex 48 44.45 0
      vertex 48 62.01 6.13
      vertex 48 88.9 0
    endloop
  endfacet
  facet normal -1 -0 0
    outer loop
      vertex 48 62.01 6.13
      vertex 48 44.45 0
      vertex 48 55.465 6.13
    endloop
  endfacet
  facet normal -1 -0 0
    outer loop
      vertex 48 46.135 6.13
      vertex 48 44.45 0
      vertex 48 46.135 15.46
    endloop
  endfacet
  facet normal -1 -0 0
    outer loop
      vertex 48 55.465 6.13
      vertex 48 44.45 0
      vertex 48 46.135 6.13
    endloop
  endfacet
  facet normal -1 0 0
    outer loop
      vertex 48 87.215 15.46
      vertex 48 88.9 21.59
      vertex 48 87.215 6.13
    endloop
  endfacet
  facet normal -1 0 0
    outer loop
      vertex 48 77.885 15.46
      vertex 48 88.9 21.59
      vertex 48 87.215 15.46
    endloop
  endfacet
  facet normal -1 0 0
    outer loop
      vertex 48 71.34 15.46
      vertex 48 77.885 15.46
      vertex 48 71.34 6.13
    endloop
  endfacet
  facet normal -1 0 0
    outer loop
      vertex 48 71.34 15.46
      vertex 48 88.9 21.59
      vertex 48 77.885 15.46
    endloop
  endfacet
  facet normal -1 0 0
    outer loop
      vertex 48 62.01 15.46
      vertex 48 88.9 21.59
      vertex 48 71.34 15.46
    endloop
  endfacet
  facet normal -1 0 0
    outer loop
      vertex 48 55.465 15.46
      vertex 48 62.01 15.46
      vertex 48 55.465 6.13
    endloop
  endfacet
  facet normal -1 0 0
    outer loop
      vertex 48 44.45 21.59
      vertex 48 62.01 15.46
      vertex 48 55.465 15.46
    endloop
  endfacet
  facet normal -1 0 0
    outer loop
      vertex 48 44.45 21.59
      vertex 48 55.465 15.46
      vertex 48 46.135 15.46
    endloop
  endfacet
  facet normal -1 0 0
    outer loop
      vertex 48 62.01 15.46
      vertex 48 44.45 21.59
      vertex 48 88.9 21.59
    endloop
  endfacet
  facet normal -1 0 0
    outer loop
      vertex 48 44.45 21.59
      vertex 48 46.135 15.46
      vertex 48 44.45 0
    endloop
  endfacet
  facet normal -0 0 1
    outer loop
      vertex 48 88.9 21.59
      vertex 50 44.45 21.59
      vertex 50 88.9 21.59
    endloop
  endfacet
  facet normal 0 0 1
    outer loop
      vertex 50 44.45 21.59
      vertex 48 88.9 21.59
      vertex 48 44.45 21.59
    endloop
  endfacet
  facet normal -0 0 1
    outer loop
      vertex 48 55.465 6.13
      vertex 50 46.135 6.13
      vertex 50 55.465 6.13
    endloop
  endfacet
  facet normal 0 0 1
    outer loop
      vertex 50 46.135 6.13
      vertex 48 55.465 6.13
      vertex 48 46.135 6.13
    endloop
  endfacet
  facet normal 0 0 -1
    outer loop
      vertex 48 46.135 15.46
      vertex 50 55.465 15.46
      vertex 50 46.135 15.46
    endloop
  endfacet
  facet normal -0 0 -1
    outer loop
      vertex 50 55.465 15.46
      vertex 48 46.135 15.46
      vertex 48 55.465 15.46
    endloop
  endfacet
  facet normal 0 1 -0
    outer loop
      vertex 50 46.135 6.13
      vertex 48 46.135 15.46
      vertex 50 46.135 15.46
    endloop
  endfacet
  facet normal 0 1 0
    outer loop
      vertex 48 46.135 15.46
      vertex 50 46.135 6.13
      vertex 48 46.135 6.13
    endloop
  endfacet
  facet normal 0 -1 0
    outer loop
      vertex 48 55.465 6.13
      vertex 50 55.465 15.46
      vertex 48 55.465 15.46
    endloop
  endfacet
  facet normal 0 -1 -0
    outer loop
      vertex 50 55.465 15.46
      vertex 48 55.465 6.13
      vertex 50 55.465 6.13
    endloop
  endfacet
  facet normal -0 0 1
    outer loop
      vertex 48 71.34 6.13
      vertex 50 62.01 6.13
      vertex 50 71.34 6.13
    endloop
  endfacet
  facet normal 0 0 1
    outer loop
      vertex 50 62.01 6.13
      vertex 48 71.34 6.13
      vertex 48 62.01 6.13
    endloop
  endfacet
  facet normal 0 0 -1
    outer loop
      vertex 48 62.01 15.46
      vertex 50 71.34 15.46
      vertex 50 62.01 15.46
    endloop
  endfacet
  facet normal -0 0 -1
    outer loop
      vertex 50 71.34 15.46
      vertex 48 62.01 15.46
      vertex 48 71.34 15.46
    endloop
  endfacet
  facet normal 0 -1 0
    outer loop
      vertex 48 71.34 6.13
      vertex 50 71.34 15.46
      vertex 48 71.34 15.46
    endloop
  endfacet
  facet normal 0 -1 -0
    outer loop
      vertex 50 71.34 15.46
      vertex 48 71.34 6.13
      vertex 50 71.34 6.13
    endloop
  endfacet
  facet normal 0 1 -0
    outer loop
      vertex 50 62.01 6.13
      vertex 48 62.01 15.46
      vertex 50 62.01 15.46
    endloop
  endfacet
  facet normal 0 1 0
    outer loop
      vertex 48 62.01 15.46
      vertex 50 62.01 6.13
      vertex 48 62.01 6.13
    endloop
  endfacet
  facet normal -0 0 1
    outer loop
      vertex 48 87.215 6.13
      vertex 50 77.885 6.13
      vertex 50 87.215 6.13
    endloop
  endfacet
  facet normal 0 0 1
    outer loop
      vertex 50 77.885 6.13
      vertex 48 87.215 6.13
      vertex 48 77.885 6.13
    endloop
  endfacet
  facet normal 0 0 -1
    outer loop
      vertex 48 77.885 15.46
      vertex 50 87.215 15.46
      vertex 50 77.885 15.46
    endloop
  endfacet
  facet normal -0 0 -1
    outer loop
      vertex 50 87.215 15.46
      vertex 48 77.885 15.46
      vertex 48 87.215 15.46
    endloop
  endfacet
  facet normal 0 1 -0
    outer loop
      vertex 50 77.885 6.13
      vertex 48 77.885 15.46
      vertex 50 77.885 15.46
    endloop
  endfacet
  facet normal 0 1 0
    outer loop
      vertex 48 77.885 15.46
      vertex 50 77.885 6.13
      vertex 48 77.885 6.13
    endloop
  endfacet
  facet normal 0 -1 0
    outer loop
      vertex 48 87.215 6.13
      vertex 50 87.215 15.46
      vertex 48 87.215 15.46
    endloop
  endfacet
  facet normal 0 -1 -0
    outer loop
      vertex 50 87.215 15.46
      vertex 48 87.215 6.13
      vertex 50 87.215 6.13
    endloop
  endfacet
  facet normal 1 0 0
    outer loop
      vertex 50 133.35 21.59
      vertex 50 131.665 15.46
      vertex 50 133.35 2
    endloop
  endfacet
  facet normal 1 0 0
    outer loop
      vertex 50 133.35 21.59
      vertex 50 122.335 15.46
      vertex 50 131.665 15.46
    endloop
  endfacet
  facet normal 1 0 0
    outer loop
      vertex 50 122.335 15.46
      vertex 50 115.79 15.46
      vertex 50 122.335 6.13
    endloop
  endfacet
  facet normal 1 0 0
    outer loop
      vertex 50 133.35 21.59
      vertex 50 115.79 15.46
      vertex 50 122.335 15.46
    endloop
  endfacet
  facet normal 1 0 0
    outer loop
      vertex 50 133.35 21.59
      vertex 50 106.46 15.46
      vertex 50 115.79 15.46
    endloop
  endfacet
  facet normal 1 0 0
    outer loop
      vertex 50 106.46 15.46
      vertex 50 99.915 15.46
      vertex 50 106.46 6.13
    endloop
  endfacet
  facet normal 1 -0 0
    outer loop
      vertex 50 88.9 21.59
      vertex 50 106.46 15.46
      vertex 50 133.35 21.59
    endloop
  endfacet
  facet normal 1 0 0
    outer loop
      vertex 50 106.46 15.46
      vertex 50 88.9 21.59
      vertex 50 99.915 15.46
    endloop
  endfacet
  facet normal 1 0 0
    outer loop
      vertex 50 88.9 2
      vertex 50 90.585 15.46
      vertex 50 88.9 21.59
    endloop
  endfacet
  facet normal 1 0 0
    outer loop
      vertex 50 99.915 15.46
      vertex 50 88.9 21.59
      vertex 50 90.585 15.46
    endloop
  endfacet
  facet normal 1 -0 0
    outer loop
      vertex 50 131.665 6.13
      vertex 50 133.35 2
      vertex 50 131.665 15.46
    endloop
  endfacet
  facet normal 1 -0 0
    outer loop
      vertex 50 122.335 6.13
      vertex 50 133.35 2
      vertex 50 131.665 6.13
    endloop
  endfacet
  facet normal 1 0 0
    outer loop
      vertex 50 115.79 6.13
      vertex 50 122.335 6.13
      vertex 50 115.79 15.46
    endloop
  endfacet
  facet normal 1 -0 0
    outer loop
      vertex 50 115.79 6.13
      vertex 50 133.35 2
      vertex 50 122.335 6.13
    endloop
  endfacet
  facet normal 1 -0 0
    outer loop
      vertex 50 106.46 6.13
      vertex 50 133.35 2
      vertex 50 115.79 6.13
    endloop
  endfacet
  facet normal 1 0 0
    outer loop
      vertex 50 99.915 6.13
      vertex 50 106.46 6.13
      vertex 50 99.915 15.46
    endloop
  endfacet
  facet normal 1 0 0
    outer loop
      vertex 50 88.9 2
      vertex 50 106.46 6.13
      vertex 50 99.915 6.13
    endloop
  endfacet
  facet normal 1 0 0
    outer loop
      vertex 50 88.9 2
      vertex 50 99.915 6.13
      vertex 50 90.585 6.13
    endloop
  endfacet
  facet normal 1 0 0
    outer loop
      vertex 50 106.46 6.13
      vertex 50 88.9 2
      vertex 50 133.35 2
    endloop
  endfacet
  facet normal 1 0 0
    outer loop
      vertex 50 90.585 15.46
      vertex 50 88.9 2
      vertex 50 90.585 6.13
    endloop
  endfacet
  facet normal -0 0 1
    outer loop
      vertex 56.13 106.46 2
      vertex 65.46 99.915 2
      vertex 65.46 106.46 2
    endloop
  endfacet
  facet normal 0 0 1
    outer loop
      vertex 65.46 99.915 2
      vertex 56.13 106.46 2
      vertex 56.13 99.915 2
    endloop
  endfacet
  facet normal -0 0 1
    outer loop
      vertex 56.13 122.335 2
      vertex 65.46 115.79 2
      vertex 65.46 122.335 2
    endloop
  endfacet
  facet normal 0 0 1
    outer loop
      vertex 65.46 115.79 2
      vertex 56.13 122.335 2
      vertex 56.13 115.79 2
    endloop
  endfacet
  facet normal 0 0 1
    outer loop
      vertex 65.46 122.335 2
      vertex 71.59 133.35 2
      vertex 65.46 131.665 2
    endloop
  endfacet
  facet normal 0 0 1
    outer loop
      vertex 71.59 133.35 2
      vertex 56.13 131.665 2
      vertex 65.46 131.665 2
    endloop
  endfacet
  facet normal 0 0 1
    outer loop
      vertex 50 133.35 2
      vertex 56.13 122.335 2
      vertex 56.13 131.665 2
    endloop
  endfacet
  facet normal 0 0 1
    outer loop
      vertex 56.13 122.335 2
      vertex 50 133.35 2
      vertex 56.13 115.79 2
    endloop
  endfacet
  facet normal 0 0 1
    outer loop
      vertex 56.13 115.79 2
      vertex 50 133.35 2
      vertex 56.13 106.46 2
    endloop
  endfacet
  facet normal 0 0 1
    outer loop
      vertex 50 88.9 2
      vertex 56.13 106.46 2
      vertex 50 133.35 2
    endloop
  endfacet
  facet normal 0 0 1
    outer loop
      vertex 56.13 106.46 2
      vertex 50 88.9 2
      vertex 56.13 99.915 2
    endloop
  endfacet
  facet normal -0 0 1
    outer loop
      vertex 50 133.35 2
      vertex 56.13 131.665 2
      vertex 71.59 133.35 2
    endloop
  endfacet
  facet normal 0 0 1
    outer loop
      vertex 65.46 115.79 2
      vertex 71.59 133.35 2
      vertex 65.46 122.335 2
    endloop
  endfacet
  facet normal 0 0 1
    outer loop
      vertex 71.59 133.35 2
      vertex 65.46 115.79 2
      vertex 71.59 88.9 2
    endloop
  endfacet
  facet normal -0 0 1
    outer loop
      vertex 65.46 106.46 2
      vertex 71.59 88.9 2
      vertex 65.46 115.79 2
    endloop
  endfacet
  facet normal -0 0 1
    outer loop
      vertex 65.46 99.915 2
      vertex 71.59 88.9 2
      vertex 65.46 106.46 2
    endloop
  endfacet
  facet normal -0 0 1
    outer loop
      vertex 65.46 90.585 2
      vertex 71.59 88.9 2
      vertex 65.46 99.915 2
    endloop
  endfacet
  facet normal -0 0 1
    outer loop
      vertex 56.13 90.585 2
      vertex 71.59 88.9 2
      vertex 65.46 90.585 2
    endloop
  endfacet
  facet normal 0 0 1
    outer loop
      vertex 56.13 90.585 2
      vertex 50 88.9 2
      vertex 71.59 88.9 2
    endloop
  endfacet
  facet normal 0 0 1
    outer loop
      vertex 56.13 99.915 2
      vertex 50 88.9 2
      vertex 56.13 90.585 2
    endloop
  endfacet
  facet normal 1 -0 0
    outer loop
      vertex 71.59 88.9 2
      vertex 71.59 133.35 0
      vertex 71.59 133.35 2
    endloop
  endfacet
  facet normal 1 0 0
    outer loop
      vertex 71.59 133.35 0
      vertex 71.59 88.9 2
      vertex 71.59 88.9 0
    endloop
  endfacet
  facet normal 0 1 0
    outer loop
      vertex 71.59 133.35 2
      vertex 71.59 133.35 0
      vertex 50 133.35 2
    endloop
  endfacet
  facet normal 0 1 -0
    outer loop
      vertex 50 133.35 2
      vertex 48 133.35 21.59
      vertex 50 133.35 21.59
    endloop
  endfacet
  facet normal 0 1 0
    outer loop
      vertex 50 133.35 2
      vertex 48 133.35 0
      vertex 48 133.35 21.59
    endloop
  endfacet
  facet normal 0 1 0
    outer loop
      vertex 48 133.35 0
      vertex 50 133.35 2
      vertex 71.59 133.35 0
    endloop
  endfacet
  facet normal 0 0 -1
    outer loop
      vertex 56.13 115.79 0
      vertex 65.46 122.335 0
      vertex 65.46 115.79 0
    endloop
  endfacet
  facet normal -0 0 -1
    outer loop
      vertex 65.46 122.335 0
      vertex 56.13 115.79 0
      vertex 56.13 122.335 0
    endloop
  endfacet
  facet normal 0 0 -1
    outer loop
      vertex 56.13 99.915 0
      vertex 65.46 106.46 0
      vertex 65.46 99.915 0
    endloop
  endfacet
  facet normal -0 0 -1
    outer loop
      vertex 65.46 106.46 0
      vertex 56.13 99.915 0
      vertex 56.13 106.46 0
    endloop
  endfacet
  facet normal 0 0 -1
    outer loop
      vertex 65.46 99.915 0
      vertex 71.59 88.9 0
      vertex 65.46 90.585 0
    endloop
  endfacet
  facet normal 0 0 -1
    outer loop
      vertex 71.59 88.9 0
      vertex 56.13 90.585 0
      vertex 65.46 90.585 0
    endloop
  endfacet
  facet normal 0 0 -1
    outer loop
      vertex 48 88.9 0
      vertex 56.13 99.915 0
      vertex 56.13 90.585 0
    endloop
  endfacet
  facet normal -0 0 -1
    outer loop
      vertex 56.13 99.915 0
      vertex 48 88.9 0
      vertex 56.13 106.46 0
    endloop
  endfacet
  facet normal -0 0 -1
    outer loop
      vertex 56.13 106.46 0
      vertex 48 88.9 0
      vertex 56.13 115.79 0
    endloop
  endfacet
  facet normal 0 0 -1
    outer loop
      vertex 48 133.35 0
      vertex 56.13 115.79 0
      vertex 48 88.9 0
    endloop
  endfacet
  facet normal 0 0 -1
    outer loop
      vertex 56.13 115.79 0
      vertex 48 133.35 0
      vertex 56.13 122.335 0
    endloop
  endfacet
  facet normal 0 0 -1
    outer loop
      vertex 48 88.9 0
      vertex 56.13 90.585 0
      vertex 71.59 88.9 0
    endloop
  endfacet
  facet normal 0 0 -1
    outer loop
      vertex 65.46 106.46 0
      vertex 71.59 88.9 0
      vertex 65.46 99.915 0
    endloop
  endfacet
  facet normal 0 0 -1
    outer loop
      vertex 71.59 88.9 0
      vertex 65.46 106.46 0
      vertex 71.59 133.35 0
    endloop
  endfacet
  facet normal 0 0 -1
    outer loop
      vertex 65.46 115.79 0
      vertex 71.59 133.35 0
      vertex 65.46 106.46 0
    endloop
  endfacet
  facet normal 0 0 -1
    outer loop
      vertex 65.46 122.335 0
      vertex 71.59 133.35 0
      vertex 65.46 115.79 0
    endloop
  endfacet
  facet normal 0 0 -1
    outer loop
      vertex 65.46 131.665 0
      vertex 71.59 133.35 0
      vertex 65.46 122.335 0
    endloop
  endfacet
  facet normal 0 0 -1
    outer loop
      vertex 56.13 131.665 0
      vertex 71.59 133.35 0
      vertex 65.46 131.665 0
    endloop
  endfacet
  facet normal 0 0 -1
    outer loop
      vertex 56.13 131.665 0
      vertex 48 133.35 0
      vertex 71.59 133.35 0
    endloop
  endfacet
  facet normal 0 0 -1
    outer loop
      vertex 56.13 122.335 0
      vertex 48 133.35 0
      vertex 56.13 131.665 0
    endloop
  endfacet
  facet normal 0 -1 0
    outer loop
      vertex 48 88.9 21.59
      vertex 50 88.9 2
      vertex 50 88.9 21.59
    endloop
  endfacet
  facet normal 0 -1 0
    outer loop
      vertex 48 88.9 0
      vertex 50 88.9 2
      vertex 48 88.9 21.59
    endloop
  endfacet
  facet normal 0 -1 0
    outer loop
      vertex 71.59 88.9 0
      vertex 50 88.9 2
      vertex 48 88.9 0
    endloop
  endfacet
  facet normal 0 -1 0
    outer loop
      vertex 50 88.9 2
      vertex 71.59 88.9 0
      vertex 71.59 88.9 2
    endloop
  endfacet
  facet normal 1 -0 0
    outer loop
      vertex 56.13 90.585 2
      vertex 56.13 99.915 0
      vertex 56.13 99.915 2
    endloop
  endfacet
  facet normal 1 0 0
    outer loop
      vertex 56.13 99.915 0
      vertex 56.13 90.585 2
      vertex 56.13 90.585 0
    endloop
  endfacet
  facet normal -1 0 0
    outer loop
      vertex 65.46 90.585 0
      vertex 65.46 99.915 2
      vertex 65.46 99.915 0
    endloop
  endfacet
  facet normal -1 -0 0
    outer loop
      vertex 65.46 99.915 2
      vertex 65.46 90.585 0
      vertex 65.46 90.585 2
    endloop
  endfacet
  facet normal 0 1 -0
    outer loop
      vertex 65.46 90.585 0
      vertex 56.13 90.585 2
      vertex 65.46 90.585 2
    endloop
  endfacet
  facet normal 0 1 0
    outer loop
      vertex 56.13 90.585 2
      vertex 65.46 90.585 0
      vertex 56.13 90.585 0
    endloop
  endfacet
  facet normal 0 -1 0
    outer loop
      vertex 56.13 99.915 0
      vertex 65.46 99.915 2
      vertex 56.13 99.915 2
    endloop
  endfacet
  facet normal 0 -1 -0
    outer loop
      vertex 65.46 99.915 2
      vertex 56.13 99.915 0
      vertex 65.46 99.915 0
    endloop
  endfacet
  facet normal 1 -0 0
    outer loop
      vertex 56.13 106.46 2
      vertex 56.13 115.79 0
      vertex 56.13 115.79 2
    endloop
  endfacet
  facet normal 1 0 0
    outer loop
      vertex 56.13 115.79 0
      vertex 56.13 106.46 2
      vertex 56.13 106.46 0
    endloop
  endfacet
  facet normal -1 0 0
    outer loop
      vertex 65.46 106.46 0
      vertex 65.46 115.79 2
      vertex 65.46 115.79 0
    endloop
  endfacet
  facet normal -1 -0 0
    outer loop
      vertex 65.46 115.79 2
      vertex 65.46 106.46 0
      vertex 65.46 106.46 2
    endloop
  endfacet
  facet normal 0 -1 0
    outer loop
      vertex 56.13 115.79 0
      vertex 65.46 115.79 2
      vertex 56.13 115.79 2
    endloop
  endfacet
  facet normal 0 -1 -0
    outer loop
      vertex 65.46 115.79 2
      vertex 56.13 115.79 0
      vertex 65.46 115.79 0
    endloop
  endfacet
  facet normal 0 1 -0
    outer loop
      vertex 65.46 106.46 0
      vertex 56.13 106.46 2
      vertex 65.46 106.46 2
    endloop
  endfacet
  facet normal 0 1 0
    outer loop
      vertex 56.13 106.46 2
      vertex 65.46 106.46 0
      vertex 56.13 106.46 0
    endloop
  endfacet
  facet normal 1 -0 0
    outer loop
      vertex 56.13 122.335 2
      vertex 56.13 131.665 0
      vertex 56.13 131.665 2
    endloop
  endfacet
  facet normal 1 0 0
    outer loop
      vertex 56.13 131.665 0
      vertex 56.13 122.335 2
      vertex 56.13 122.335 0
    endloop
  endfacet
  facet normal -1 0 0
    outer loop
      vertex 65.46 122.335 0
      vertex 65.46 131.665 2
      vertex 65.46 131.665 0
    endloop
  endfacet
  facet normal -1 -0 0
    outer loop
      vertex 65.46 131.665 2
      vertex 65.46 122.335 0
      vertex 65.46 122.335 2
    endloop
  endfacet
  facet normal 0 1 -0
    outer loop
      vertex 65.46 122.335 0
      vertex 56.13 122.335 2
      vertex 65.46 122.335 2
    endloop
  endfacet
  facet normal 0 1 0
    outer loop
      vertex 56.13 122.335 2
      vertex 65.46 122.335 0
      vertex 56.13 122.335 0
    endloop
  endfacet
  facet normal 0 -1 0
    outer loop
      vertex 56.13 131.665 0
      vertex 65.46 131.665 2
      vertex 56.13 131.665 2
    endloop
  endfacet
  facet normal 0 -1 -0
    outer loop
      vertex 65.46 131.665 2
      vertex 56.13 131.665 0
      vertex 65.46 131.665 0
    endloop
  endfacet
  facet normal -1 0 0
    outer loop
      vertex 48 133.35 0
      vertex 48 131.665 6.13
      vertex 48 133.35 21.59
    endloop
  endfacet
  facet normal -1 0 0
    outer loop
      vertex 48 133.35 0
      vertex 48 122.335 6.13
      vertex 48 131.665 6.13
    endloop
  endfacet
  facet normal -1 0 0
    outer loop
      vertex 48 122.335 6.13
      vertex 48 115.79 6.13
      vertex 48 122.335 15.46
    endloop
  endfacet
  facet normal -1 0 0
    outer loop
      vertex 48 133.35 0
      vertex 48 115.79 6.13
      vertex 48 122.335 6.13
    endloop
  endfacet
  facet normal -1 0 0
    outer loop
      vertex 48 133.35 0
      vertex 48 106.46 6.13
      vertex 48 115.79 6.13
    endloop
  endfacet
  facet normal -1 0 0
    outer loop
      vertex 48 106.46 6.13
      vertex 48 99.915 6.13
      vertex 48 106.46 15.46
    endloop
  endfacet
  facet normal -1 0 0
    outer loop
      vertex 48 88.9 0
      vertex 48 106.46 6.13
      vertex 48 133.35 0
    endloop
  endfacet
  facet normal -1 -0 0
    outer loop
      vertex 48 106.46 6.13
      vertex 48 88.9 0
      vertex 48 99.915 6.13
    endloop
  endfacet
  facet normal -1 -0 0
    outer loop
      vertex 48 90.585 6.13
      vertex 48 88.9 0
      vertex 48 90.585 15.46
    endloop
  endfacet
  facet normal -1 -0 0
    outer loop
      vertex 48 99.915 6.13
      vertex 48 88.9 0
      vertex 48 90.585 6.13
    endloop
  endfacet
  facet normal -1 0 0
    outer loop
      vertex 48 131.665 15.46
      vertex 48 133.35 21.59
      vertex 48 131.665 6.13
    endloop
  endfacet
  facet normal -1 0 0
    outer loop
      vertex 48 122.335 15.46
      vertex 48 133.35 21.59
      vertex 48 131.665 15.46
    endloop
  endfacet
  facet normal -1 0 0
    outer loop
      vertex 48 115.79 15.46
      vertex 48 122.335 15.46
      vertex 48 115.79 6.13
    endloop
  endfacet
  facet normal -1 0 0
    outer loop
      vertex 48 115.79 15.46
      vertex 48 133.35 21.59
      vertex 48 122.335 15.46
    endloop
  endfacet
  facet normal -1 0 0
    outer loop
      vertex 48 106.46 15.46
      vertex 48 133.35 21.59
      vertex 48 115.79 15.46
    endloop
  endfacet
  facet normal -1 0 0
    outer loop
      vertex 48 99.915 15.46
      vertex 48 106.46 15.46
      vertex 48 99.915 6.13
    endloop
  endfacet
  facet normal -1 0 0
    outer loop
      vertex 48 88.9 21.59
      vertex 48 106.46 15.46
      vertex 48 99.915 15.46
    endloop
  endfacet
  facet normal -1 0 0
    outer loop
      vertex 48 88.9 21.59
      vertex 48 99.915 15.46
      vertex 48 90.585 15.46
    endloop
  endfacet
  facet normal -1 0 0
    outer loop
      vertex 48 106.46 15.46
      vertex 48 88.9 21.59
      vertex 48 133.35 21.59
    endloop
  endfacet
  facet normal -1 0 0
    outer loop
      vertex 48 88.9 21.59
      vertex 48 90.585 15.46
      vertex 48 88.9 0
    endloop
  endfacet
  facet normal -0 0 1
    outer loop
      vertex 48 133.35 21.59
      vertex 50 88.9 21.59
      vertex 50 133.35 21.59
    endloop
  endfacet
  facet normal 0 0 1
    outer loop
      vertex 50 88.9 21.59
      vertex 48 133.35 21.59
      vertex 48 88.9 21.59
    endloop
  endfacet
  facet normal -0 0 1
    outer loop
      vertex 48 99.915 6.13
      vertex 50 90.585 6.13
      vertex 50 99.915 6.13
    endloop
  endfacet
  facet normal 0 0 1
    outer loop
      vertex 50 90.585 6.13
      vertex 48 99.915 6.13
      vertex 48 90.585 6.13
    endloop
  endfacet
  facet normal 0 0 -1
    outer loop
      vertex 48 90.585 15.46
      vertex 50 99.915 15.46
      vertex 50 90.585 15.46
    endloop
  endfacet
  facet normal -0 0 -1
    outer loop
      vertex 50 99.915 15.46
      vertex 48 90.585 15.46
      vertex 48 99.915 15.46
    endloop
  endfacet
  facet normal 0 1 -0
    outer loop
      vertex 50 90.585 6.13
      vertex 48 90.585 15.46
      vertex 50 90.585 15.46
    endloop
  endfacet
  facet normal 0 1 0
    outer loop
      vertex 48 90.585 15.46
      vertex 50 90.585 6.13
      vertex 48 90.585 6.13
    endloop
  endfacet
  facet normal 0 -1 0
    outer loop
      vertex 48 99.915 6.13
      vertex 50 99.915 15.46
      vertex 48 99.915 15.46
    endloop
  endfacet
  facet normal 0 -1 -0
    outer loop
      vertex 50 99.915 15.46
      vertex 48 99.915 6.13
      vertex 50 99.915 6.13
    endloop
  endfacet
  facet normal -0 0 1
    outer loop
      vertex 48 115.79 6.13
      vertex 50 106.46 6.13
      vertex 50 115.79 6.13
    endloop
  endfacet
  facet normal 0 0 1
    outer loop
      vertex 50 106.46 6.13
      vertex 48 115.79 6.13
      vertex 48 106.46 6.13
    endloop
  endfacet
  facet normal 0 0 -1
    outer loop
      vertex 48 106.46 15.46
      vertex 50 115.79 15.46
      vertex 50 106.46 15.46
    endloop
  endfacet
  facet normal -0 0 -1
    outer loop
      vertex 50 115.79 15.46
      vertex 48 106.46 15.46
      vertex 48 115.79 15.46
    endloop
  endfacet
  facet normal 0 -1 0
    outer loop
      vertex 48 115.79 6.13
      vertex 50 115.79 15.46
      vertex 48 115.79 15.46
    endloop
  endfacet
  facet normal 0 -1 -0
    outer loop
      vertex 50 115.79 15.46
      vertex 48 115.79 6.13
      vertex 50 115.79 6.13
    endloop
  endfacet
  facet normal 0 1 -0
    outer loop
      vertex 50 106.46 6.13
      vertex 48 106.46 15.46
      vertex 50 106.46 15.46
    endloop
  endfacet
  facet normal 0 1 0
    outer loop
      vertex 48 106.46 15.46
      vertex 50 106.46 6.13
      vertex 48 106.46 6.13
    endloop
  endfacet
  facet normal -0 0 1
    outer loop
      vertex 48 131.665 6.13
      vertex 50 122.335 6.13
      vertex 50 131.665 6.13
    endloop
  endfacet
  facet normal 0 0 1
    outer loop
      vertex 50 122.335 6.13
      vertex 48 131.665 6.13
      vertex 48 122.335 6.13
    endloop
  endfacet
  facet normal 0 0 -1
    outer loop
      vertex 48 122.335 15.46
      vertex 50 131.665 15.46
      vertex 50 122.335 15.46
    endloop
  endfacet
  facet normal -0 0 -1
    outer loop
      vertex 50 131.665 15.46
      vertex 48 122.335 15.46
      vertex 48 131.665 15.46
    endloop
  endfacet
  facet normal 0 1 -0
    outer loop
      vertex 50 122.335 6.13
      vertex 48 122.335 15.46
      vertex 50 122.335 15.46
    endloop
  endfacet
  facet normal 0 1 0
    outer loop
      vertex 48 122.335 15.46
      vertex 50 122.335 6.13
      vertex 48 122.335 6.13
    endloop
  endfacet
  facet normal 0 -1 0
    outer loop
      vertex 48 131.665 6.13
      vertex 50 131.665 15.46
      vertex 48 131.665 15.46
    endloop
  endfacet
  facet normal 0 -1 -0
    outer loop
      vertex 50 131.665 15.46
      vertex 48 131.665 6.13
      vertex 50 131.665 6.13
    endloop
  endfacet
endsolid OpenSCAD_Model
