solid OpenSCAD_Model
  facet normal -1 0 0
    outer loop
      vertex 75 0 0
      vertex 75 44.45 2
      vertex 75 44.45 0
    endloop
  endfacet
  facet normal -1 -0 0
    outer loop
      vertex 75 44.45 2
      vertex 75 0 0
      vertex 75 0 2
    endloop
  endfacet
  facet normal -0 0 1
    outer loop
      vertex 81.13 17.56 2
      vertex 90.46 11.015 2
      vertex 90.46 17.56 2
    endloop
  endfacet
  facet normal 0 0 1
    outer loop
      vertex 90.46 11.015 2
      vertex 81.13 17.56 2
      vertex 81.13 11.015 2
    endloop
  endfacet
  facet normal -0 0 1
    outer loop
      vertex 81.13 33.435 2
      vertex 90.46 26.89 2
      vertex 90.46 33.435 2
    endloop
  endfacet
  facet normal 0 0 1
    outer loop
      vertex 90.46 26.89 2
      vertex 81.13 33.435 2
      vertex 81.13 26.89 2
    endloop
  endfacet
  facet normal 0 0 1
    outer loop
      vertex 90.46 33.435 2
      vertex 96.59 44.45 2
      vertex 90.46 42.765 2
    endloop
  endfacet
  facet normal 0 0 1
    outer loop
      vertex 96.59 44.45 2
      vertex 81.13 42.765 2
      vertex 90.46 42.765 2
    endloop
  endfacet
  facet normal 0 0 1
    outer loop
      vertex 75 44.45 2
      vertex 81.13 33.435 2
      vertex 81.13 42.765 2
    endloop
  endfacet
  facet normal 0 0 1
    outer loop
      vertex 81.13 33.435 2
      vertex 75 44.45 2
      vertex 81.13 26.89 2
    endloop
  endfacet
  facet normal 0 0 1
    outer loop
      vertex 81.13 26.89 2
      vertex 75 44.45 2
      vertex 81.13 17.56 2
    endloop
  endfacet
  facet normal 0 0 1
    outer loop
      vertex 75 0 2
      vertex 81.13 17.56 2
      vertex 75 44.45 2
    endloop
  endfacet
  facet normal 0 0 1
    outer loop
      vertex 81.13 17.56 2
      vertex 75 0 2
      vertex 81.13 11.015 2
    endloop
  endfacet
  facet normal -0 0 1
    outer loop
      vertex 75 44.45 2
      vertex 81.13 42.765 2
      vertex 96.59 44.45 2
    endloop
  endfacet
  facet normal 0 0 1
    outer loop
      vertex 90.46 26.89 2
      vertex 96.59 44.45 2
      vertex 90.46 33.435 2
    endloop
  endfacet
  facet normal 0 0 1
    outer loop
      vertex 96.59 44.45 2
      vertex 90.46 26.89 2
      vertex 96.59 0 2
    endloop
  endfacet
  facet normal -0 0 1
    outer loop
      vertex 90.46 17.56 2
      vertex 96.59 0 2
      vertex 90.46 26.89 2
    endloop
  endfacet
  facet normal -0 0 1
    outer loop
      vertex 90.46 11.015 2
      vertex 96.59 0 2
      vertex 90.46 17.56 2
    endloop
  endfacet
  facet normal -0 0 1
    outer loop
      vertex 90.46 1.685 2
      vertex 96.59 0 2
      vertex 90.46 11.015 2
    endloop
  endfacet
  facet normal -0 0 1
    outer loop
      vertex 81.13 1.685 2
      vertex 96.59 0 2
      vertex 90.46 1.685 2
    endloop
  endfacet
  facet normal 0 0 1
    outer loop
      vertex 81.13 1.685 2
      vertex 75 0 2
      vertex 96.59 0 2
    endloop
  endfacet
  facet normal 0 0 1
    outer loop
      vertex 81.13 11.015 2
      vertex 75 0 2
      vertex 81.13 1.685 2
    endloop
  endfacet
  facet normal 1 -0 0
    outer loop
      vertex 96.59 0 2
      vertex 96.59 44.45 0
      vertex 96.59 44.45 2
    endloop
  endfacet
  facet normal 1 0 0
    outer loop
      vertex 96.59 44.45 0
      vertex 96.59 0 2
      vertex 96.59 0 0
    endloop
  endfacet
  facet normal 0 0 -1
    outer loop
      vertex 81.13 26.89 0
      vertex 90.46 33.435 0
      vertex 90.46 26.89 0
    endloop
  endfacet
  facet normal -0 0 -1
    outer loop
      vertex 90.46 33.435 0
      vertex 81.13 26.89 0
      vertex 81.13 33.435 0
    endloop
  endfacet
  facet normal 0 0 -1
    outer loop
      vertex 81.13 11.015 0
      vertex 90.46 17.56 0
      vertex 90.46 11.015 0
    endloop
  endfacet
  facet normal -0 0 -1
    outer loop
      vertex 90.46 17.56 0
      vertex 81.13 11.015 0
      vertex 81.13 17.56 0
    endloop
  endfacet
  facet normal 0 0 -1
    outer loop
      vertex 90.46 11.015 0
      vertex 96.59 0 0
      vertex 90.46 1.685 0
    endloop
  endfacet
  facet normal 0 0 -1
    outer loop
      vertex 96.59 0 0
      vertex 81.13 1.685 0
      vertex 90.46 1.685 0
    endloop
  endfacet
  facet normal 0 0 -1
    outer loop
      vertex 75 0 0
      vertex 81.13 11.015 0
      vertex 81.13 1.685 0
    endloop
  endfacet
  facet normal -0 0 -1
    outer loop
      vertex 81.13 11.015 0
      vertex 75 0 0
      vertex 81.13 17.56 0
    endloop
  endfacet
  facet normal -0 0 -1
    outer loop
      vertex 81.13 17.56 0
      vertex 75 0 0
      vertex 81.13 26.89 0
    endloop
  endfacet
  facet normal 0 0 -1
    outer loop
      vertex 75 44.45 0
      vertex 81.13 26.89 0
      vertex 75 0 0
    endloop
  endfacet
  facet normal 0 0 -1
    outer loop
      vertex 81.13 26.89 0
      vertex 75 44.45 0
      vertex 81.13 33.435 0
    endloop
  endfacet
  facet normal 0 0 -1
    outer loop
      vertex 75 0 0
      vertex 81.13 1.685 0
      vertex 96.59 0 0
    endloop
  endfacet
  facet normal 0 0 -1
    outer loop
      vertex 90.46 17.56 0
      vertex 96.59 0 0
      vertex 90.46 11.015 0
    endloop
  endfacet
  facet normal 0 0 -1
    outer loop
      vertex 96.59 0 0
      vertex 90.46 17.56 0
      vertex 96.59 44.45 0
    endloop
  endfacet
  facet normal 0 0 -1
    outer loop
      vertex 90.46 26.89 0
      vertex 96.59 44.45 0
      vertex 90.46 17.56 0
    endloop
  endfacet
  facet normal 0 0 -1
    outer loop
      vertex 90.46 33.435 0
      vertex 96.59 44.45 0
      vertex 90.46 26.89 0
    endloop
  endfacet
  facet normal 0 0 -1
    outer loop
      vertex 90.46 42.765 0
      vertex 96.59 44.45 0
      vertex 90.46 33.435 0
    endloop
  endfacet
  facet normal 0 0 -1
    outer loop
      vertex 81.13 42.765 0
      vertex 96.59 44.45 0
      vertex 90.46 42.765 0
    endloop
  endfacet
  facet normal 0 0 -1
    outer loop
      vertex 81.13 42.765 0
      vertex 75 44.45 0
      vertex 96.59 44.45 0
    endloop
  endfacet
  facet normal 0 0 -1
    outer loop
      vertex 81.13 33.435 0
      vertex 75 44.45 0
      vertex 81.13 42.765 0
    endloop
  endfacet
  facet normal 0 -1 0
    outer loop
      vertex 75 0 0
      vertex 96.59 0 2
      vertex 75 0 2
    endloop
  endfacet
  facet normal 0 -1 -0
    outer loop
      vertex 96.59 0 2
      vertex 75 0 0
      vertex 96.59 0 0
    endloop
  endfacet
  facet normal 0 1 -0
    outer loop
      vertex 96.59 44.45 0
      vertex 75 44.45 2
      vertex 96.59 44.45 2
    endloop
  endfacet
  facet normal 0 1 0
    outer loop
      vertex 75 44.45 2
      vertex 96.59 44.45 0
      vertex 75 44.45 0
    endloop
  endfacet
  facet normal 1 -0 0
    outer loop
      vertex 81.13 1.685 2
      vertex 81.13 11.015 0
      vertex 81.13 11.015 2
    endloop
  endfacet
  facet normal 1 0 0
    outer loop
      vertex 81.13 11.015 0
      vertex 81.13 1.685 2
      vertex 81.13 1.685 0
    endloop
  endfacet
  facet normal -1 0 0
    outer loop
      vertex 90.46 1.685 0
      vertex 90.46 11.015 2
      vertex 90.46 11.015 0
    endloop
  endfacet
  facet normal -1 -0 0
    outer loop
      vertex 90.46 11.015 2
      vertex 90.46 1.685 0
      vertex 90.46 1.685 2
    endloop
  endfacet
  facet normal 0 -1 0
    outer loop
      vertex 81.13 11.015 0
      vertex 90.46 11.015 2
      vertex 81.13 11.015 2
    endloop
  endfacet
  facet normal 0 -1 -0
    outer loop
      vertex 90.46 11.015 2
      vertex 81.13 11.015 0
      vertex 90.46 11.015 0
    endloop
  endfacet
  facet normal 0 1 -0
    outer loop
      vertex 90.46 1.685 0
      vertex 81.13 1.685 2
      vertex 90.46 1.685 2
    endloop
  endfacet
  facet normal 0 1 0
    outer loop
      vertex 81.13 1.685 2
      vertex 90.46 1.685 0
      vertex 81.13 1.685 0
    endloop
  endfacet
  facet normal 1 -0 0
    outer loop
      vertex 81.13 17.56 2
      vertex 81.13 26.89 0
      vertex 81.13 26.89 2
    endloop
  endfacet
  facet normal 1 0 0
    outer loop
      vertex 81.13 26.89 0
      vertex 81.13 17.56 2
      vertex 81.13 17.56 0
    endloop
  endfacet
  facet normal -1 0 0
    outer loop
      vertex 90.46 17.56 0
      vertex 90.46 26.89 2
      vertex 90.46 26.89 0
    endloop
  endfacet
  facet normal -1 -0 0
    outer loop
      vertex 90.46 26.89 2
      vertex 90.46 17.56 0
      vertex 90.46 17.56 2
    endloop
  endfacet
  facet normal 0 -1 0
    outer loop
      vertex 81.13 26.89 0
      vertex 90.46 26.89 2
      vertex 81.13 26.89 2
    endloop
  endfacet
  facet normal 0 -1 -0
    outer loop
      vertex 90.46 26.89 2
      vertex 81.13 26.89 0
      vertex 90.46 26.89 0
    endloop
  endfacet
  facet normal 0 1 -0
    outer loop
      vertex 90.46 17.56 0
      vertex 81.13 17.56 2
      vertex 90.46 17.56 2
    endloop
  endfacet
  facet normal 0 1 0
    outer loop
      vertex 81.13 17.56 2
      vertex 90.46 17.56 0
      vertex 81.13 17.56 0
    endloop
  endfacet
  facet normal 1 -0 0
    outer loop
      vertex 81.13 33.435 2
      vertex 81.13 42.765 0
      vertex 81.13 42.765 2
    endloop
  endfacet
  facet normal 1 0 0
    outer loop
      vertex 81.13 42.765 0
      vertex 81.13 33.435 2
      vertex 81.13 33.435 0
    endloop
  endfacet
  facet normal -1 0 0
    outer loop
      vertex 90.46 33.435 0
      vertex 90.46 42.765 2
      vertex 90.46 42.765 0
    endloop
  endfacet
  facet normal -1 -0 0
    outer loop
      vertex 90.46 42.765 2
      vertex 90.46 33.435 0
      vertex 90.46 33.435 2
    endloop
  endfacet
  facet normal 0 -1 0
    outer loop
      vertex 81.13 42.765 0
      vertex 90.46 42.765 2
      vertex 81.13 42.765 2
    endloop
  endfacet
  facet normal 0 -1 -0
    outer loop
      vertex 90.46 42.765 2
      vertex 81.13 42.765 0
      vertex 90.46 42.765 0
    endloop
  endfacet
  facet normal 0 1 -0
    outer loop
      vertex 90.46 33.435 0
      vertex 81.13 33.435 2
      vertex 90.46 33.435 2
    endloop
  endfacet
  facet normal 0 1 0
    outer loop
      vertex 81.13 33.435 2
      vertex 90.46 33.435 0
      vertex 81.13 33.435 0
    endloop
  endfacet
  facet normal -1 0 0
    outer loop
      vertex 75 44.45 0
      vertex 75 88.9 2
      vertex 75 88.9 0
    endloop
  endfacet
  facet normal -1 -0 0
    outer loop
      vertex 75 88.9 2
      vertex 75 44.45 0
      vertex 75 44.45 2
    endloop
  endfacet
  facet normal -0 0 1
    outer loop
      vertex 81.13 62.01 2
      vertex 90.46 55.465 2
      vertex 90.46 62.01 2
    endloop
  endfacet
  facet normal 0 0 1
    outer loop
      vertex 90.46 55.465 2
      vertex 81.13 62.01 2
      vertex 81.13 55.465 2
    endloop
  endfacet
  facet normal -0 0 1
    outer loop
      vertex 81.13 77.885 2
      vertex 90.46 71.34 2
      vertex 90.46 77.885 2
    endloop
  endfacet
  facet normal 0 0 1
    outer loop
      vertex 90.46 71.34 2
      vertex 81.13 77.885 2
      vertex 81.13 71.34 2
    endloop
  endfacet
  facet normal 0 0 1
    outer loop
      vertex 90.46 77.885 2
      vertex 96.59 88.9 2
      vertex 90.46 87.215 2
    endloop
  endfacet
  facet normal 0 0 1
    outer loop
      vertex 96.59 88.9 2
      vertex 81.13 87.215 2
      vertex 90.46 87.215 2
    endloop
  endfacet
  facet normal 0 0 1
    outer loop
      vertex 75 88.9 2
      vertex 81.13 77.885 2
      vertex 81.13 87.215 2
    endloop
  endfacet
  facet normal 0 0 1
    outer loop
      vertex 81.13 77.885 2
      vertex 75 88.9 2
      vertex 81.13 71.34 2
    endloop
  endfacet
  facet normal 0 0 1
    outer loop
      vertex 81.13 71.34 2
      vertex 75 88.9 2
      vertex 81.13 62.01 2
    endloop
  endfacet
  facet normal 0 0 1
    outer loop
      vertex 75 44.45 2
      vertex 81.13 62.01 2
      vertex 75 88.9 2
    endloop
  endfacet
  facet normal 0 0 1
    outer loop
      vertex 81.13 62.01 2
      vertex 75 44.45 2
      vertex 81.13 55.465 2
    endloop
  endfacet
  facet normal -0 0 1
    outer loop
      vertex 75 88.9 2
      vertex 81.13 87.215 2
      vertex 96.59 88.9 2
    endloop
  endfacet
  facet normal 0 0 1
    outer loop
      vertex 90.46 71.34 2
      vertex 96.59 88.9 2
      vertex 90.46 77.885 2
    endloop
  endfacet
  facet normal 0 0 1
    outer loop
      vertex 96.59 88.9 2
      vertex 90.46 71.34 2
      vertex 96.59 44.45 2
    endloop
  endfacet
  facet normal -0 0 1
    outer loop
      vertex 90.46 62.01 2
      vertex 96.59 44.45 2
      vertex 90.46 71.34 2
    endloop
  endfacet
  facet normal -0 0 1
    outer loop
      vertex 90.46 55.465 2
      vertex 96.59 44.45 2
      vertex 90.46 62.01 2
    endloop
  endfacet
  facet normal -0 0 1
    outer loop
      vertex 90.46 46.135 2
      vertex 96.59 44.45 2
      vertex 90.46 55.465 2
    endloop
  endfacet
  facet normal -0 0 1
    outer loop
      vertex 81.13 46.135 2
      vertex 96.59 44.45 2
      vertex 90.46 46.135 2
    endloop
  endfacet
  facet normal 0 0 1
    outer loop
      vertex 81.13 46.135 2
      vertex 75 44.45 2
      vertex 96.59 44.45 2
    endloop
  endfacet
  facet normal 0 0 1
    outer loop
      vertex 81.13 55.465 2
      vertex 75 44.45 2
      vertex 81.13 46.135 2
    endloop
  endfacet
  facet normal 1 -0 0
    outer loop
      vertex 96.59 44.45 2
      vertex 96.59 88.9 0
      vertex 96.59 88.9 2
    endloop
  endfacet
  facet normal 1 0 0
    outer loop
      vertex 96.59 88.9 0
      vertex 96.59 44.45 2
      vertex 96.59 44.45 0
    endloop
  endfacet
  facet normal 0 0 -1
    outer loop
      vertex 81.13 71.34 0
      vertex 90.46 77.885 0
      vertex 90.46 71.34 0
    endloop
  endfacet
  facet normal -0 0 -1
    outer loop
      vertex 90.46 77.885 0
      vertex 81.13 71.34 0
      vertex 81.13 77.885 0
    endloop
  endfacet
  facet normal 0 0 -1
    outer loop
      vertex 81.13 55.465 0
      vertex 90.46 62.01 0
      vertex 90.46 55.465 0
    endloop
  endfacet
  facet normal -0 0 -1
    outer loop
      vertex 90.46 62.01 0
      vertex 81.13 55.465 0
      vertex 81.13 62.01 0
    endloop
  endfacet
  facet normal 0 0 -1
    outer loop
      vertex 90.46 55.465 0
      vertex 96.59 44.45 0
      vertex 90.46 46.135 0
    endloop
  endfacet
  facet normal 0 0 -1
    outer loop
      vertex 96.59 44.45 0
      vertex 81.13 46.135 0
      vertex 90.46 46.135 0
    endloop
  endfacet
  facet normal 0 0 -1
    outer loop
      vertex 75 44.45 0
      vertex 81.13 55.465 0
      vertex 81.13 46.135 0
    endloop
  endfacet
  facet normal -0 0 -1
    outer loop
      vertex 81.13 55.465 0
      vertex 75 44.45 0
      vertex 81.13 62.01 0
    endloop
  endfacet
  facet normal -0 0 -1
    outer loop
      vertex 81.13 62.01 0
      vertex 75 44.45 0
      vertex 81.13 71.34 0
    endloop
  endfacet
  facet normal 0 0 -1
    outer loop
      vertex 75 88.9 0
      vertex 81.13 71.34 0
      vertex 75 44.45 0
    endloop
  endfacet
  facet normal 0 0 -1
    outer loop
      vertex 81.13 71.34 0
      vertex 75 88.9 0
      vertex 81.13 77.885 0
    endloop
  endfacet
  facet normal 0 0 -1
    outer loop
      vertex 75 44.45 0
      vertex 81.13 46.135 0
      vertex 96.59 44.45 0
    endloop
  endfacet
  facet normal 0 0 -1
    outer loop
      vertex 90.46 62.01 0
      vertex 96.59 44.45 0
      vertex 90.46 55.465 0
    endloop
  endfacet
  facet normal 0 0 -1
    outer loop
      vertex 96.59 44.45 0
      vertex 90.46 62.01 0
      vertex 96.59 88.9 0
    endloop
  endfacet
  facet normal 0 0 -1
    outer loop
      vertex 90.46 71.34 0
      vertex 96.59 88.9 0
      vertex 90.46 62.01 0
    endloop
  endfacet
  facet normal 0 0 -1
    outer loop
      vertex 90.46 77.885 0
      vertex 96.59 88.9 0
      vertex 90.46 71.34 0
    endloop
  endfacet
  facet normal 0 0 -1
    outer loop
      vertex 90.46 87.215 0
      vertex 96.59 88.9 0
      vertex 90.46 77.885 0
    endloop
  endfacet
  facet normal 0 0 -1
    outer loop
      vertex 81.13 87.215 0
      vertex 96.59 88.9 0
      vertex 90.46 87.215 0
    endloop
  endfacet
  facet normal 0 0 -1
    outer loop
      vertex 81.13 87.215 0
      vertex 75 88.9 0
      vertex 96.59 88.9 0
    endloop
  endfacet
  facet normal 0 0 -1
    outer loop
      vertex 81.13 77.885 0
      vertex 75 88.9 0
      vertex 81.13 87.215 0
    endloop
  endfacet
  facet normal 0 -1 0
    outer loop
      vertex 75 44.45 0
      vertex 96.59 44.45 2
      vertex 75 44.45 2
    endloop
  endfacet
  facet normal 0 -1 -0
    outer loop
      vertex 96.59 44.45 2
      vertex 75 44.45 0
      vertex 96.59 44.45 0
    endloop
  endfacet
  facet normal 0 1 -0
    outer loop
      vertex 96.59 88.9 0
      vertex 75 88.9 2
      vertex 96.59 88.9 2
    endloop
  endfacet
  facet normal 0 1 0
    outer loop
      vertex 75 88.9 2
      vertex 96.59 88.9 0
      vertex 75 88.9 0
    endloop
  endfacet
  facet normal 1 -0 0
    outer loop
      vertex 81.13 46.135 2
      vertex 81.13 55.465 0
      vertex 81.13 55.465 2
    endloop
  endfacet
  facet normal 1 0 0
    outer loop
      vertex 81.13 55.465 0
      vertex 81.13 46.135 2
      vertex 81.13 46.135 0
    endloop
  endfacet
  facet normal -1 0 0
    outer loop
      vertex 90.46 46.135 0
      vertex 90.46 55.465 2
      vertex 90.46 55.465 0
    endloop
  endfacet
  facet normal -1 -0 0
    outer loop
      vertex 90.46 55.465 2
      vertex 90.46 46.135 0
      vertex 90.46 46.135 2
    endloop
  endfacet
  facet normal 0 -1 0
    outer loop
      vertex 81.13 55.465 0
      vertex 90.46 55.465 2
      vertex 81.13 55.465 2
    endloop
  endfacet
  facet normal 0 -1 -0
    outer loop
      vertex 90.46 55.465 2
      vertex 81.13 55.465 0
      vertex 90.46 55.465 0
    endloop
  endfacet
  facet normal 0 1 -0
    outer loop
      vertex 90.46 46.135 0
      vertex 81.13 46.135 2
      vertex 90.46 46.135 2
    endloop
  endfacet
  facet normal 0 1 0
    outer loop
      vertex 81.13 46.135 2
      vertex 90.46 46.135 0
      vertex 81.13 46.135 0
    endloop
  endfacet
  facet normal 1 -0 0
    outer loop
      vertex 81.13 62.01 2
      vertex 81.13 71.34 0
      vertex 81.13 71.34 2
    endloop
  endfacet
  facet normal 1 0 0
    outer loop
      vertex 81.13 71.34 0
      vertex 81.13 62.01 2
      vertex 81.13 62.01 0
    endloop
  endfacet
  facet normal -1 0 0
    outer loop
      vertex 90.46 62.01 0
      vertex 90.46 71.34 2
      vertex 90.46 71.34 0
    endloop
  endfacet
  facet normal -1 -0 0
    outer loop
      vertex 90.46 71.34 2
      vertex 90.46 62.01 0
      vertex 90.46 62.01 2
    endloop
  endfacet
  facet normal 0 -1 0
    outer loop
      vertex 81.13 71.34 0
      vertex 90.46 71.34 2
      vertex 81.13 71.34 2
    endloop
  endfacet
  facet normal 0 -1 -0
    outer loop
      vertex 90.46 71.34 2
      vertex 81.13 71.34 0
      vertex 90.46 71.34 0
    endloop
  endfacet
  facet normal 0 1 -0
    outer loop
      vertex 90.46 62.01 0
      vertex 81.13 62.01 2
      vertex 90.46 62.01 2
    endloop
  endfacet
  facet normal 0 1 0
    outer loop
      vertex 81.13 62.01 2
      vertex 90.46 62.01 0
      vertex 81.13 62.01 0
    endloop
  endfacet
  facet normal 1 -0 0
    outer loop
      vertex 81.13 77.885 2
      vertex 81.13 87.215 0
      vertex 81.13 87.215 2
    endloop
  endfacet
  facet normal 1 0 0
    outer loop
      vertex 81.13 87.215 0
      vertex 81.13 77.885 2
      vertex 81.13 77.885 0
    endloop
  endfacet
  facet normal -1 0 0
    outer loop
      vertex 90.46 77.885 0
      vertex 90.46 87.215 2
      vertex 90.46 87.215 0
    endloop
  endfacet
  facet normal -1 -0 0
    outer loop
      vertex 90.46 87.215 2
      vertex 90.46 77.885 0
      vertex 90.46 77.885 2
    endloop
  endfacet
  facet normal 0 -1 0
    outer loop
      vertex 81.13 87.215 0
      vertex 90.46 87.215 2
      vertex 81.13 87.215 2
    endloop
  endfacet
  facet normal 0 -1 -0
    outer loop
      vertex 90.46 87.215 2
      vertex 81.13 87.215 0
      vertex 90.46 87.215 0
    endloop
  endfacet
  facet normal 0 1 -0
    outer loop
      vertex 90.46 77.885 0
      vertex 81.13 77.885 2
      vertex 90.46 77.885 2
    endloop
  endfacet
  facet normal 0 1 0
    outer loop
      vertex 81.13 77.885 2
      vertex 90.46 77.885 0
      vertex 81.13 77.885 0
    endloop
  endfacet
  facet normal -1 0 0
    outer loop
      vertex 75 88.9 0
      vertex 75 133.35 2
      vertex 75 133.35 0
    endloop
  endfacet
  facet normal -1 -0 0
    outer loop
      vertex 75 133.35 2
      vertex 75 88.9 0
      vertex 75 88.9 2
    endloop
  endfacet
  facet normal -0 0 1
    outer loop
      vertex 81.13 106.46 2
      vertex 90.46 99.915 2
      vertex 90.46 106.46 2
    endloop
  endfacet
  facet normal 0 0 1
    outer loop
      vertex 90.46 99.915 2
      vertex 81.13 106.46 2
      vertex 81.13 99.915 2
    endloop
  endfacet
  facet normal -0 0 1
    outer loop
      vertex 81.13 122.335 2
      vertex 90.46 115.79 2
      vertex 90.46 122.335 2
    endloop
  endfacet
  facet normal 0 0 1
    outer loop
      vertex 90.46 115.79 2
      vertex 81.13 122.335 2
      vertex 81.13 115.79 2
    endloop
  endfacet
  facet normal 0 0 1
    outer loop
      vertex 90.46 122.335 2
      vertex 96.59 133.35 2
      vertex 90.46 131.665 2
    endloop
  endfacet
  facet normal 0 0 1
    outer loop
      vertex 96.59 133.35 2
      vertex 81.13 131.665 2
      vertex 90.46 131.665 2
    endloop
  endfacet
  facet normal 0 0 1
    outer loop
      vertex 75 133.35 2
      vertex 81.13 122.335 2
      vertex 81.13 131.665 2
    endloop
  endfacet
  facet normal 0 0 1
    outer loop
      vertex 81.13 122.335 2
      vertex 75 133.35 2
      vertex 81.13 115.79 2
    endloop
  endfacet
  facet normal 0 0 1
    outer loop
      vertex 81.13 115.79 2
      vertex 75 133.35 2
      vertex 81.13 106.46 2
    endloop
  endfacet
  facet normal 0 0 1
    outer loop
      vertex 75 88.9 2
      vertex 81.13 106.46 2
      vertex 75 133.35 2
    endloop
  endfacet
  facet normal 0 0 1
    outer loop
      vertex 81.13 106.46 2
      vertex 75 88.9 2
      vertex 81.13 99.915 2
    endloop
  endfacet
  facet normal -0 0 1
    outer loop
      vertex 75 133.35 2
      vertex 81.13 131.665 2
      vertex 96.59 133.35 2
    endloop
  endfacet
  facet normal 0 0 1
    outer loop
      vertex 90.46 115.79 2
      vertex 96.59 133.35 2
      vertex 90.46 122.335 2
    endloop
  endfacet
  facet normal 0 0 1
    outer loop
      vertex 96.59 133.35 2
      vertex 90.46 115.79 2
      vertex 96.59 88.9 2
    endloop
  endfacet
  facet normal -0 0 1
    outer loop
      vertex 90.46 106.46 2
      vertex 96.59 88.9 2
      vertex 90.46 115.79 2
    endloop
  endfacet
  facet normal -0 0 1
    outer loop
      vertex 90.46 99.915 2
      vertex 96.59 88.9 2
      vertex 90.46 106.46 2
    endloop
  endfacet
  facet normal -0 0 1
    outer loop
      vertex 90.46 90.585 2
      vertex 96.59 88.9 2
      vertex 90.46 99.915 2
    endloop
  endfacet
  facet normal -0 0 1
    outer loop
      vertex 81.13 90.585 2
      vertex 96.59 88.9 2
      vertex 90.46 90.585 2
    endloop
  endfacet
  facet normal 0 0 1
    outer loop
      vertex 81.13 90.585 2
      vertex 75 88.9 2
      vertex 96.59 88.9 2
    endloop
  endfacet
  facet normal 0 0 1
    outer loop
      vertex 81.13 99.915 2
      vertex 75 88.9 2
      vertex 81.13 90.585 2
    endloop
  endfacet
  facet normal 1 -0 0
    outer loop
      vertex 96.59 88.9 2
      vertex 96.59 133.35 0
      vertex 96.59 133.35 2
    endloop
  endfacet
  facet normal 1 0 0
    outer loop
      vertex 96.59 133.35 0
      vertex 96.59 88.9 2
      vertex 96.59 88.9 0
    endloop
  endfacet
  facet normal 0 0 -1
    outer loop
      vertex 81.13 115.79 0
      vertex 90.46 122.335 0
      vertex 90.46 115.79 0
    endloop
  endfacet
  facet normal -0 0 -1
    outer loop
      vertex 90.46 122.335 0
      vertex 81.13 115.79 0
      vertex 81.13 122.335 0
    endloop
  endfacet
  facet normal 0 0 -1
    outer loop
      vertex 81.13 99.915 0
      vertex 90.46 106.46 0
      vertex 90.46 99.915 0
    endloop
  endfacet
  facet normal -0 0 -1
    outer loop
      vertex 90.46 106.46 0
      vertex 81.13 99.915 0
      vertex 81.13 106.46 0
    endloop
  endfacet
  facet normal 0 0 -1
    outer loop
      vertex 90.46 99.915 0
      vertex 96.59 88.9 0
      vertex 90.46 90.585 0
    endloop
  endfacet
  facet normal 0 0 -1
    outer loop
      vertex 96.59 88.9 0
      vertex 81.13 90.585 0
      vertex 90.46 90.585 0
    endloop
  endfacet
  facet normal 0 0 -1
    outer loop
      vertex 75 88.9 0
      vertex 81.13 99.915 0
      vertex 81.13 90.585 0
    endloop
  endfacet
  facet normal -0 0 -1
    outer loop
      vertex 81.13 99.915 0
      vertex 75 88.9 0
      vertex 81.13 106.46 0
    endloop
  endfacet
  facet normal -0 0 -1
    outer loop
      vertex 81.13 106.46 0
      vertex 75 88.9 0
      vertex 81.13 115.79 0
    endloop
  endfacet
  facet normal 0 0 -1
    outer loop
      vertex 75 133.35 0
      vertex 81.13 115.79 0
      vertex 75 88.9 0
    endloop
  endfacet
  facet normal 0 0 -1
    outer loop
      vertex 81.13 115.79 0
      vertex 75 133.35 0
      vertex 81.13 122.335 0
    endloop
  endfacet
  facet normal 0 0 -1
    outer loop
      vertex 75 88.9 0
      vertex 81.13 90.585 0
      vertex 96.59 88.9 0
    endloop
  endfacet
  facet normal 0 0 -1
    outer loop
      vertex 90.46 106.46 0
      vertex 96.59 88.9 0
      vertex 90.46 99.915 0
    endloop
  endfacet
  facet normal 0 0 -1
    outer loop
      vertex 96.59 88.9 0
      vertex 90.46 106.46 0
      vertex 96.59 133.35 0
    endloop
  endfacet
  facet normal 0 0 -1
    outer loop
      vertex 90.46 115.79 0
      vertex 96.59 133.35 0
      vertex 90.46 106.46 0
    endloop
  endfacet
  facet normal 0 0 -1
    outer loop
      vertex 90.46 122.335 0
      vertex 96.59 133.35 0
      vertex 90.46 115.79 0
    endloop
  endfacet
  facet normal 0 0 -1
    outer loop
      vertex 90.46 131.665 0
      vertex 96.59 133.35 0
      vertex 90.46 122.335 0
    endloop
  endfacet
  facet normal 0 0 -1
    outer loop
      vertex 81.13 131.665 0
      vertex 96.59 133.35 0
      vertex 90.46 131.665 0
    endloop
  endfacet
  facet normal 0 0 -1
    outer loop
      vertex 81.13 131.665 0
      vertex 75 133.35 0
      vertex 96.59 133.35 0
    endloop
  endfacet
  facet normal 0 0 -1
    outer loop
      vertex 81.13 122.335 0
      vertex 75 133.35 0
      vertex 81.13 131.665 0
    endloop
  endfacet
  facet normal 0 -1 0
    outer loop
      vertex 75 88.9 0
      vertex 96.59 88.9 2
      vertex 75 88.9 2
    endloop
  endfacet
  facet normal 0 -1 -0
    outer loop
      vertex 96.59 88.9 2
      vertex 75 88.9 0
      vertex 96.59 88.9 0
    endloop
  endfacet
  facet normal 0 1 -0
    outer loop
      vertex 96.59 133.35 0
      vertex 75 133.35 2
      vertex 96.59 133.35 2
    endloop
  endfacet
  facet normal 0 1 0
    outer loop
      vertex 75 133.35 2
      vertex 96.59 133.35 0
      vertex 75 133.35 0
    endloop
  endfacet
  facet normal 1 -0 0
    outer loop
      vertex 81.13 90.585 2
      vertex 81.13 99.915 0
      vertex 81.13 99.915 2
    endloop
  endfacet
  facet normal 1 0 0
    outer loop
      vertex 81.13 99.915 0
      vertex 81.13 90.585 2
      vertex 81.13 90.585 0
    endloop
  endfacet
  facet normal -1 0 0
    outer loop
      vertex 90.46 90.585 0
      vertex 90.46 99.915 2
      vertex 90.46 99.915 0
    endloop
  endfacet
  facet normal -1 -0 0
    outer loop
      vertex 90.46 99.915 2
      vertex 90.46 90.585 0
      vertex 90.46 90.585 2
    endloop
  endfacet
  facet normal 0 -1 0
    outer loop
      vertex 81.13 99.915 0
      vertex 90.46 99.915 2
      vertex 81.13 99.915 2
    endloop
  endfacet
  facet normal 0 -1 -0
    outer loop
      vertex 90.46 99.915 2
      vertex 81.13 99.915 0
      vertex 90.46 99.915 0
    endloop
  endfacet
  facet normal 0 1 -0
    outer loop
      vertex 90.46 90.585 0
      vertex 81.13 90.585 2
      vertex 90.46 90.585 2
    endloop
  endfacet
  facet normal 0 1 0
    outer loop
      vertex 81.13 90.585 2
      vertex 90.46 90.585 0
      vertex 81.13 90.585 0
    endloop
  endfacet
  facet normal 1 -0 0
    outer loop
      vertex 81.13 106.46 2
      vertex 81.13 115.79 0
      vertex 81.13 115.79 2
    endloop
  endfacet
  facet normal 1 0 0
    outer loop
      vertex 81.13 115.79 0
      vertex 81.13 106.46 2
      vertex 81.13 106.46 0
    endloop
  endfacet
  facet normal -1 0 0
    outer loop
      vertex 90.46 106.46 0
      vertex 90.46 115.79 2
      vertex 90.46 115.79 0
    endloop
  endfacet
  facet normal -1 -0 0
    outer loop
      vertex 90.46 115.79 2
      vertex 90.46 106.46 0
      vertex 90.46 106.46 2
    endloop
  endfacet
  facet normal 0 -1 0
    outer loop
      vertex 81.13 115.79 0
      vertex 90.46 115.79 2
      vertex 81.13 115.79 2
    endloop
  endfacet
  facet normal 0 -1 -0
    outer loop
      vertex 90.46 115.79 2
      vertex 81.13 115.79 0
      vertex 90.46 115.79 0
    endloop
  endfacet
  facet normal 0 1 -0
    outer loop
      vertex 90.46 106.46 0
      vertex 81.13 106.46 2
      vertex 90.46 106.46 2
    endloop
  endfacet
  facet normal 0 1 0
    outer loop
      vertex 81.13 106.46 2
      vertex 90.46 106.46 0
      vertex 81.13 106.46 0
    endloop
  endfacet
  facet normal 1 -0 0
    outer loop
      vertex 81.13 122.335 2
      vertex 81.13 131.665 0
      vertex 81.13 131.665 2
    endloop
  endfacet
  facet normal 1 0 0
    outer loop
      vertex 81.13 131.665 0
      vertex 81.13 122.335 2
      vertex 81.13 122.335 0
    endloop
  endfacet
  facet normal -1 0 0
    outer loop
      vertex 90.46 122.335 0
      vertex 90.46 131.665 2
      vertex 90.46 131.665 0
    endloop
  endfacet
  facet normal -1 -0 0
    outer loop
      vertex 90.46 131.665 2
      vertex 90.46 122.335 0
      vertex 90.46 122.335 2
    endloop
  endfacet
  facet normal 0 -1 0
    outer loop
      vertex 81.13 131.665 0
      vertex 90.46 131.665 2
      vertex 81.13 131.665 2
    endloop
  endfacet
  facet normal 0 -1 -0
    outer loop
      vertex 90.46 131.665 2
      vertex 81.13 131.665 0
      vertex 90.46 131.665 0
    endloop
  endfacet
  facet normal 0 1 -0
    outer loop
      vertex 90.46 122.335 0
      vertex 81.13 122.335 2
      vertex 90.46 122.335 2
    endloop
  endfacet
  facet normal 0 1 0
    outer loop
      vertex 81.13 122.335 2
      vertex 90.46 122.335 0
      vertex 81.13 122.335 0
    endloop
  endfacet
  facet normal -1 0 0
    outer loop
      vertex 75 133.35 0
      vertex 75 177.8 2
      vertex 75 177.8 0
    endloop
  endfacet
  facet normal -1 -0 0
    outer loop
      vertex 75 177.8 2
      vertex 75 133.35 0
      vertex 75 133.35 2
    endloop
  endfacet
  facet normal -0 0 1
    outer loop
      vertex 81.13 150.91 2
      vertex 90.46 144.365 2
      vertex 90.46 150.91 2
    endloop
  endfacet
  facet normal 0 0 1
    outer loop
      vertex 90.46 144.365 2
      vertex 81.13 150.91 2
      vertex 81.13 144.365 2
    endloop
  endfacet
  facet normal -0 0 1
    outer loop
      vertex 81.13 166.785 2
      vertex 90.46 160.24 2
      vertex 90.46 166.785 2
    endloop
  endfacet
  facet normal 0 0 1
    outer loop
      vertex 90.46 160.24 2
      vertex 81.13 166.785 2
      vertex 81.13 160.24 2
    endloop
  endfacet
  facet normal 0 0 1
    outer loop
      vertex 90.46 166.785 2
      vertex 96.59 177.8 2
      vertex 90.46 176.115 2
    endloop
  endfacet
  facet normal 0 0 1
    outer loop
      vertex 96.59 177.8 2
      vertex 81.13 176.115 2
      vertex 90.46 176.115 2
    endloop
  endfacet
  facet normal 0 0 1
    outer loop
      vertex 75 177.8 2
      vertex 81.13 166.785 2
      vertex 81.13 176.115 2
    endloop
  endfacet
  facet normal 0 0 1
    outer loop
      vertex 81.13 166.785 2
      vertex 75 177.8 2
      vertex 81.13 160.24 2
    endloop
  endfacet
  facet normal 0 0 1
    outer loop
      vertex 81.13 160.24 2
      vertex 75 177.8 2
      vertex 81.13 150.91 2
    endloop
  endfacet
  facet normal 0 0 1
    outer loop
      vertex 75 133.35 2
      vertex 81.13 150.91 2
      vertex 75 177.8 2
    endloop
  endfacet
  facet normal 0 0 1
    outer loop
      vertex 81.13 150.91 2
      vertex 75 133.35 2
      vertex 81.13 144.365 2
    endloop
  endfacet
  facet normal -0 0 1
    outer loop
      vertex 75 177.8 2
      vertex 81.13 176.115 2
      vertex 96.59 177.8 2
    endloop
  endfacet
  facet normal 0 0 1
    outer loop
      vertex 90.46 160.24 2
      vertex 96.59 177.8 2
      vertex 90.46 166.785 2
    endloop
  endfacet
  facet normal 0 0 1
    outer loop
      vertex 96.59 177.8 2
      vertex 90.46 160.24 2
      vertex 96.59 133.35 2
    endloop
  endfacet
  facet normal -0 0 1
    outer loop
      vertex 90.46 150.91 2
      vertex 96.59 133.35 2
      vertex 90.46 160.24 2
    endloop
  endfacet
  facet normal -0 0 1
    outer loop
      vertex 90.46 144.365 2
      vertex 96.59 133.35 2
      vertex 90.46 150.91 2
    endloop
  endfacet
  facet normal -0 0 1
    outer loop
      vertex 90.46 135.035 2
      vertex 96.59 133.35 2
      vertex 90.46 144.365 2
    endloop
  endfacet
  facet normal -0 0 1
    outer loop
      vertex 81.13 135.035 2
      vertex 96.59 133.35 2
      vertex 90.46 135.035 2
    endloop
  endfacet
  facet normal 0 0 1
    outer loop
      vertex 81.13 135.035 2
      vertex 75 133.35 2
      vertex 96.59 133.35 2
    endloop
  endfacet
  facet normal 0 0 1
    outer loop
      vertex 81.13 144.365 2
      vertex 75 133.35 2
      vertex 81.13 135.035 2
    endloop
  endfacet
  facet normal 1 -0 0
    outer loop
      vertex 96.59 133.35 2
      vertex 96.59 177.8 0
      vertex 96.59 177.8 2
    endloop
  endfacet
  facet normal 1 0 0
    outer loop
      vertex 96.59 177.8 0
      vertex 96.59 133.35 2
      vertex 96.59 133.35 0
    endloop
  endfacet
  facet normal 0 0 -1
    outer loop
      vertex 81.13 160.24 0
      vertex 90.46 166.785 0
      vertex 90.46 160.24 0
    endloop
  endfacet
  facet normal -0 0 -1
    outer loop
      vertex 90.46 166.785 0
      vertex 81.13 160.24 0
      vertex 81.13 166.785 0
    endloop
  endfacet
  facet normal 0 0 -1
    outer loop
      vertex 81.13 144.365 0
      vertex 90.46 150.91 0
      vertex 90.46 144.365 0
    endloop
  endfacet
  facet normal -0 0 -1
    outer loop
      vertex 90.46 150.91 0
      vertex 81.13 144.365 0
      vertex 81.13 150.91 0
    endloop
  endfacet
  facet normal 0 0 -1
    outer loop
      vertex 90.46 144.365 0
      vertex 96.59 133.35 0
      vertex 90.46 135.035 0
    endloop
  endfacet
  facet normal 0 0 -1
    outer loop
      vertex 96.59 133.35 0
      vertex 81.13 135.035 0
      vertex 90.46 135.035 0
    endloop
  endfacet
  facet normal 0 0 -1
    outer loop
      vertex 75 133.35 0
      vertex 81.13 144.365 0
      vertex 81.13 135.035 0
    endloop
  endfacet
  facet normal -0 0 -1
    outer loop
      vertex 81.13 144.365 0
      vertex 75 133.35 0
      vertex 81.13 150.91 0
    endloop
  endfacet
  facet normal -0 0 -1
    outer loop
      vertex 81.13 150.91 0
      vertex 75 133.35 0
      vertex 81.13 160.24 0
    endloop
  endfacet
  facet normal 0 0 -1
    outer loop
      vertex 75 177.8 0
      vertex 81.13 160.24 0
      vertex 75 133.35 0
    endloop
  endfacet
  facet normal 0 0 -1
    outer loop
      vertex 81.13 160.24 0
      vertex 75 177.8 0
      vertex 81.13 166.785 0
    endloop
  endfacet
  facet normal 0 0 -1
    outer loop
      vertex 75 133.35 0
      vertex 81.13 135.035 0
      vertex 96.59 133.35 0
    endloop
  endfacet
  facet normal 0 0 -1
    outer loop
      vertex 90.46 150.91 0
      vertex 96.59 133.35 0
      vertex 90.46 144.365 0
    endloop
  endfacet
  facet normal 0 0 -1
    outer loop
      vertex 96.59 133.35 0
      vertex 90.46 150.91 0
      vertex 96.59 177.8 0
    endloop
  endfacet
  facet normal 0 0 -1
    outer loop
      vertex 90.46 160.24 0
      vertex 96.59 177.8 0
      vertex 90.46 150.91 0
    endloop
  endfacet
  facet normal 0 0 -1
    outer loop
      vertex 90.46 166.785 0
      vertex 96.59 177.8 0
      vertex 90.46 160.24 0
    endloop
  endfacet
  facet normal 0 0 -1
    outer loop
      vertex 90.46 176.115 0
      vertex 96.59 177.8 0
      vertex 90.46 166.785 0
    endloop
  endfacet
  facet normal 0 0 -1
    outer loop
      vertex 81.13 176.115 0
      vertex 96.59 177.8 0
      vertex 90.46 176.115 0
    endloop
  endfacet
  facet normal 0 0 -1
    outer loop
      vertex 81.13 176.115 0
      vertex 75 177.8 0
      vertex 96.59 177.8 0
    endloop
  endfacet
  facet normal 0 0 -1
    outer loop
      vertex 81.13 166.785 0
      vertex 75 177.8 0
      vertex 81.13 176.115 0
    endloop
  endfacet
  facet normal 0 -1 0
    outer loop
      vertex 75 133.35 0
      vertex 96.59 133.35 2
      vertex 75 133.35 2
    endloop
  endfacet
  facet normal 0 -1 -0
    outer loop
      vertex 96.59 133.35 2
      vertex 75 133.35 0
      vertex 96.59 133.35 0
    endloop
  endfacet
  facet normal 0 1 -0
    outer loop
      vertex 96.59 177.8 0
      vertex 75 177.8 2
      vertex 96.59 177.8 2
    endloop
  endfacet
  facet normal 0 1 0
    outer loop
      vertex 75 177.8 2
      vertex 96.59 177.8 0
      vertex 75 177.8 0
    endloop
  endfacet
  facet normal 1 -0 0
    outer loop
      vertex 81.13 135.035 2
      vertex 81.13 144.365 0
      vertex 81.13 144.365 2
    endloop
  endfacet
  facet normal 1 0 0
    outer loop
      vertex 81.13 144.365 0
      vertex 81.13 135.035 2
      vertex 81.13 135.035 0
    endloop
  endfacet
  facet normal -1 0 0
    outer loop
      vertex 90.46 135.035 0
      vertex 90.46 144.365 2
      vertex 90.46 144.365 0
    endloop
  endfacet
  facet normal -1 -0 0
    outer loop
      vertex 90.46 144.365 2
      vertex 90.46 135.035 0
      vertex 90.46 135.035 2
    endloop
  endfacet
  facet normal 0 -1 0
    outer loop
      vertex 81.13 144.365 0
      vertex 90.46 144.365 2
      vertex 81.13 144.365 2
    endloop
  endfacet
  facet normal 0 -1 -0
    outer loop
      vertex 90.46 144.365 2
      vertex 81.13 144.365 0
      vertex 90.46 144.365 0
    endloop
  endfacet
  facet normal 0 1 -0
    outer loop
      vertex 90.46 135.035 0
      vertex 81.13 135.035 2
      vertex 90.46 135.035 2
    endloop
  endfacet
  facet normal 0 1 0
    outer loop
      vertex 81.13 135.035 2
      vertex 90.46 135.035 0
      vertex 81.13 135.035 0
    endloop
  endfacet
  facet normal 1 -0 0
    outer loop
      vertex 81.13 150.91 2
      vertex 81.13 160.24 0
      vertex 81.13 160.24 2
    endloop
  endfacet
  facet normal 1 0 0
    outer loop
      vertex 81.13 160.24 0
      vertex 81.13 150.91 2
      vertex 81.13 150.91 0
    endloop
  endfacet
  facet normal -1 0 0
    outer loop
      vertex 90.46 150.91 0
      vertex 90.46 160.24 2
      vertex 90.46 160.24 0
    endloop
  endfacet
  facet normal -1 -0 0
    outer loop
      vertex 90.46 160.24 2
      vertex 90.46 150.91 0
      vertex 90.46 150.91 2
    endloop
  endfacet
  facet normal 0 -1 0
    outer loop
      vertex 81.13 160.24 0
      vertex 90.46 160.24 2
      vertex 81.13 160.24 2
    endloop
  endfacet
  facet normal 0 -1 -0
    outer loop
      vertex 90.46 160.24 2
      vertex 81.13 160.24 0
      vertex 90.46 160.24 0
    endloop
  endfacet
  facet normal 0 1 -0
    outer loop
      vertex 90.46 150.91 0
      vertex 81.13 150.91 2
      vertex 90.46 150.91 2
    endloop
  endfacet
  facet normal 0 1 0
    outer loop
      vertex 81.13 150.91 2
      vertex 90.46 150.91 0
      vertex 81.13 150.91 0
    endloop
  endfacet
  facet normal 1 -0 0
    outer loop
      vertex 81.13 166.785 2
      vertex 81.13 176.115 0
      vertex 81.13 176.115 2
    endloop
  endfacet
  facet normal 1 0 0
    outer loop
      vertex 81.13 176.115 0
      vertex 81.13 166.785 2
      vertex 81.13 166.785 0
    endloop
  endfacet
  facet normal -1 0 0
    outer loop
      vertex 90.46 166.785 0
      vertex 90.46 176.115 2
      vertex 90.46 176.115 0
    endloop
  endfacet
  facet normal -1 -0 0
    outer loop
      vertex 90.46 176.115 2
      vertex 90.46 166.785 0
      vertex 90.46 166.785 2
    endloop
  endfacet
  facet normal 0 -1 0
    outer loop
      vertex 81.13 176.115 0
      vertex 90.46 176.115 2
      vertex 81.13 176.115 2
    endloop
  endfacet
  facet normal 0 -1 -0
    outer loop
      vertex 90.46 176.115 2
      vertex 81.13 176.115 0
      vertex 90.46 176.115 0
    endloop
  endfacet
  facet normal 0 1 -0
    outer loop
      vertex 90.46 166.785 0
      vertex 81.13 166.785 2
      vertex 90.46 166.785 2
    endloop
  endfacet
  facet normal 0 1 0
    outer loop
      vertex 81.13 166.785 2
      vertex 90.46 166.785 0
      vertex 81.13 166.785 0
    endloop
  endfacet
endsolid OpenSCAD_Model
