solid OpenSCAD_Model
  facet normal 0.994513 0.104613 0
    outer loop
      vertex 16.9568 0.410686 -5
      vertex 17 0 -5
      vertex 16.9568 0.410686 -6.5
    endloop
  endfacet
  facet normal 0.99452 0.104546 -0
    outer loop
      vertex 16.9146 0.812899 -6.5
      vertex 16.6285 3.5345 -5
      vertex 16.9146 0.812899 -5
    endloop
  endfacet
  facet normal 0.99452 0.104546 0
    outer loop
      vertex 16.6285 3.5345 -5
      vertex 16.9146 0.812899 -6.5
      vertex 16.6285 3.5345 -7
    endloop
  endfacet
  facet normal 0.994541 0.104347 0.000220822
    outer loop
      vertex 17 0 -7
      vertex 16.9146 0.812899 -6.5
      vertex 16.9568 0.410686 -6.5
    endloop
  endfacet
  facet normal 0.994522 0.104531 -8.19807e-05
    outer loop
      vertex 16.9146 0.812899 -6.5
      vertex 17 0 -7
      vertex 16.6285 3.5345 -7
    endloop
  endfacet
  facet normal 0.994513 0.104613 -0
    outer loop
      vertex 17 0 -7
      vertex 16.9568 0.410686 -6.5
      vertex 17 0 -5
    endloop
  endfacet
  facet normal -0.994522 0.104531 0
    outer loop
      vertex -17 0 -7
      vertex -16.6285 3.5345 -5
      vertex -16.6285 3.5345 -7
    endloop
  endfacet
  facet normal -0.994522 0.104531 0
    outer loop
      vertex -16.6285 3.5345 -5
      vertex -17 0 -7
      vertex -17 0 -5
    endloop
  endfacet
  facet normal 0 1 -0
    outer loop
      vertex 1.77698 16.9069 -7
      vertex -1.77698 16.9069 -5
      vertex 1.77698 16.9069 -5
    endloop
  endfacet
  facet normal 0 1 0
    outer loop
      vertex -1.77698 16.9069 -5
      vertex 1.77698 16.9069 -7
      vertex -1.77698 16.9069 -7
    endloop
  endfacet
  facet normal 0 -1 0
    outer loop
      vertex -1.77698 -16.9069 -7
      vertex 1.77698 -16.9069 -5
      vertex -1.77698 -16.9069 -5
    endloop
  endfacet
  facet normal 0 -1 -0
    outer loop
      vertex 1.77698 -16.9069 -5
      vertex -1.77698 -16.9069 -7
      vertex 1.77698 -16.9069 -7
    endloop
  endfacet
  facet normal 0.743132 0.669145 0
    outer loop
      vertex 13.477 10.2992 -5
      vertex 13.7533 9.99235 -5
      vertex 13.477 10.2992 -6.5
    endloop
  endfacet
  facet normal 0.743136 0.66914 -0
    outer loop
      vertex 13.2064 10.5998 -6.5
      vertex 11.3752 12.6335 -5
      vertex 13.2064 10.5998 -5
    endloop
  endfacet
  facet normal 0.743136 0.66914 0
    outer loop
      vertex 11.3752 12.6335 -5
      vertex 13.2064 10.5998 -6.5
      vertex 11.3752 12.6335 -7
    endloop
  endfacet
  facet normal 0.74322 0.669047 0.000109629
    outer loop
      vertex 13.7533 9.99235 -7
      vertex 13.2064 10.5998 -6.5
      vertex 13.477 10.2992 -6.5
    endloop
  endfacet
  facet normal 0.743145 0.66913 -7.42315e-05
    outer loop
      vertex 13.2064 10.5998 -6.5
      vertex 13.7533 9.99235 -7
      vertex 11.3752 12.6335 -7
    endloop
  endfacet
  facet normal 0.743132 0.669145 -0
    outer loop
      vertex 13.7533 9.99235 -7
      vertex 13.477 10.2992 -6.5
      vertex 13.7533 9.99235 -5
    endloop
  endfacet
  facet normal 0.951059 0.309008 0
    outer loop
      vertex 16.6285 3.5345 -5
      vertex 15.5303 6.91452 -7
      vertex 15.5303 6.91452 -5
    endloop
  endfacet
  facet normal 0.951059 0.309008 0
    outer loop
      vertex 15.5303 6.91452 -7
      vertex 16.6285 3.5345 -5
      vertex 16.6285 3.5345 -7
    endloop
  endfacet
  facet normal -0.587775 0.809024 0
    outer loop
      vertex -8.5 14.7224 -7
      vertex -11.3752 12.6335 -5
      vertex -8.5 14.7224 -5
    endloop
  endfacet
  facet normal -0.587775 0.809024 0
    outer loop
      vertex -11.3752 12.6335 -5
      vertex -8.5 14.7224 -7
      vertex -11.3752 12.6335 -7
    endloop
  endfacet
  facet normal -0.406821 0.913508 0
    outer loop
      vertex -5.25329 16.168 -5
      vertex -5.63053 16 -6.5
      vertex -5.63053 16 -5
    endloop
  endfacet
  facet normal -0.406739 0.913544 7.40785e-05
    outer loop
      vertex -5.63053 16 -6.5
      vertex -5.25329 16.168 -7
      vertex -6 15.8355 -6.5
    endloop
  endfacet
  facet normal -0.406821 0.913508 0
    outer loop
      vertex -5.25329 16.168 -7
      vertex -5.63053 16 -6.5
      vertex -5.25329 16.168 -5
    endloop
  endfacet
  facet normal -0.406745 0.913542 0
    outer loop
      vertex -6 15.8355 -6.5
      vertex -8.5 14.7224 -5
      vertex -6 15.8355 -5
    endloop
  endfacet
  facet normal -0.406753 0.913538 4.90147e-05
    outer loop
      vertex -8.5 14.7224 -7
      vertex -6 15.8355 -6.5
      vertex -5.25329 16.168 -7
    endloop
  endfacet
  facet normal -0.406745 0.913542 0
    outer loop
      vertex -6 15.8355 -6.5
      vertex -8.5 14.7224 -7
      vertex -8.5 14.7224 -5
    endloop
  endfacet
  facet normal 0.951059 -0.309008 0
    outer loop
      vertex 15.5303 -6.91452 -5
      vertex 16.6285 -3.5345 -7
      vertex 16.6285 -3.5345 -5
    endloop
  endfacet
  facet normal 0.951059 -0.309008 0
    outer loop
      vertex 16.6285 -3.5345 -7
      vertex 15.5303 -6.91452 -5
      vertex 15.5303 -6.91452 -7
    endloop
  endfacet
  facet normal 0.866024 0.500003 0
    outer loop
      vertex 15.5303 6.91452 -5
      vertex 13.7533 9.99235 -7
      vertex 13.7533 9.99235 -5
    endloop
  endfacet
  facet normal 0.866024 0.500003 0
    outer loop
      vertex 13.7533 9.99235 -7
      vertex 15.5303 6.91452 -5
      vertex 15.5303 6.91452 -7
    endloop
  endfacet
  facet normal 0.406753 0.913538 -0
    outer loop
      vertex 8.5 14.7224 -7
      vertex 5.25329 16.168 -5
      vertex 8.5 14.7224 -5
    endloop
  endfacet
  facet normal 0.406753 0.913538 0
    outer loop
      vertex 5.25329 16.168 -5
      vertex 8.5 14.7224 -7
      vertex 5.25329 16.168 -7
    endloop
  endfacet
  facet normal 0.207777 0.978176 0
    outer loop
      vertex 5.25329 16.168 -5
      vertex 4.84936 16.2538 -6.5
      vertex 4.84936 16.2538 -5
    endloop
  endfacet
  facet normal 0.207947 0.97814 0.000142872
    outer loop
      vertex 4.84936 16.2538 -6.5
      vertex 5.25329 16.168 -7
      vertex 4.45377 16.3379 -6.5
    endloop
  endfacet
  facet normal 0.207777 0.978176 -0
    outer loop
      vertex 5.25329 16.168 -7
      vertex 4.84936 16.2538 -6.5
      vertex 5.25329 16.168 -5
    endloop
  endfacet
  facet normal 0.207922 0.978145 -0
    outer loop
      vertex 4.45377 16.3379 -6.5
      vertex 1.77698 16.9069 -5
      vertex 4.45377 16.3379 -5
    endloop
  endfacet
  facet normal 0.207908 0.978148 7.89309e-05
    outer loop
      vertex 1.77698 16.9069 -7
      vertex 4.45377 16.3379 -6.5
      vertex 5.25329 16.168 -7
    endloop
  endfacet
  facet normal 0.207922 0.978145 0
    outer loop
      vertex 4.45377 16.3379 -6.5
      vertex 1.77698 16.9069 -7
      vertex 1.77698 16.9069 -5
    endloop
  endfacet
  facet normal 0.587775 0.809024 -0
    outer loop
      vertex 11.3752 12.6335 -7
      vertex 8.5 14.7224 -5
      vertex 11.3752 12.6335 -5
    endloop
  endfacet
  facet normal 0.587775 0.809024 0
    outer loop
      vertex 8.5 14.7224 -5
      vertex 11.3752 12.6335 -7
      vertex 8.5 14.7224 -7
    endloop
  endfacet
  facet normal -0.865996 0.500051 0
    outer loop
      vertex -13.7533 9.99235 -7
      vertex -13.9598 9.63473 -6.5
      vertex -13.7533 9.99235 -5
    endloop
  endfacet
  facet normal -0.866044 0.499969 -7.84372e-05
    outer loop
      vertex -13.7533 9.99235 -7
      vertex -14.162 9.28448 -6.5
      vertex -13.9598 9.63473 -6.5
    endloop
  endfacet
  facet normal -0.866024 0.500003 -1.35797e-05
    outer loop
      vertex -15.5303 6.91452 -7
      vertex -14.162 9.28448 -6.5
      vertex -13.7533 9.99235 -7
    endloop
  endfacet
  facet normal -0.866025 0.500001 0
    outer loop
      vertex -15.5303 6.91452 -5
      vertex -14.162 9.28448 -6.5
      vertex -15.5303 6.91452 -7
    endloop
  endfacet
  facet normal -0.866025 0.500001 0
    outer loop
      vertex -14.162 9.28448 -6.5
      vertex -15.5303 6.91452 -5
      vertex -14.162 9.28448 -5
    endloop
  endfacet
  facet normal -0.865996 0.500051 0
    outer loop
      vertex -13.7533 9.99235 -5
      vertex -13.9598 9.63473 -6.5
      vertex -13.9598 9.63473 -5
    endloop
  endfacet
  facet normal -0.743145 0.66913 0
    outer loop
      vertex -13.7533 9.99235 -7
      vertex -11.3752 12.6335 -5
      vertex -11.3752 12.6335 -7
    endloop
  endfacet
  facet normal -0.743145 0.66913 0
    outer loop
      vertex -11.3752 12.6335 -5
      vertex -13.7533 9.99235 -7
      vertex -13.7533 9.99235 -5
    endloop
  endfacet
  facet normal -0.951059 0.309008 0
    outer loop
      vertex -16.6285 3.5345 -7
      vertex -15.5303 6.91452 -5
      vertex -15.5303 6.91452 -7
    endloop
  endfacet
  facet normal -0.951059 0.309008 0
    outer loop
      vertex -15.5303 6.91452 -5
      vertex -16.6285 3.5345 -7
      vertex -16.6285 3.5345 -5
    endloop
  endfacet
  facet normal -0 0 1
    outer loop
      vertex -8.5 14.7224 -5
      vertex -6 11 -5
      vertex -6 15.8355 -5
    endloop
  endfacet
  facet normal -0 0 1
    outer loop
      vertex -11.3752 12.6335 -5
      vertex -6 11 -5
      vertex -8.5 14.7224 -5
    endloop
  endfacet
  facet normal 0 0 1
    outer loop
      vertex 11.3752 12.6335 -5
      vertex 8.60752 9.10553 -5
      vertex 13.2064 10.5998 -5
    endloop
  endfacet
  facet normal 0 -0 1
    outer loop
      vertex 8.60752 9.10553 -5
      vertex 11.3752 12.6335 -5
      vertex 8.5 14.7224 -5
    endloop
  endfacet
  facet normal 0 0 1
    outer loop
      vertex 16.453 -1.14005 -5
      vertex 17 0 -5
      vertex 16.9568 0.410686 -5
    endloop
  endfacet
  facet normal 0 0 1
    outer loop
      vertex 17 0 -5
      vertex 16.453 -1.14005 -5
      vertex 16.6285 -3.5345 -5
    endloop
  endfacet
  facet normal 0 0 1
    outer loop
      vertex 11.6977 0.405039 -5
      vertex 16.6285 -3.5345 -5
      vertex 16.453 -1.14005 -5
    endloop
  endfacet
  facet normal 0 0 1
    outer loop
      vertex 16.6285 -3.5345 -5
      vertex 11.3197 -5.37247 -5
      vertex 15.5303 -6.91452 -5
    endloop
  endfacet
  facet normal 0 0 1
    outer loop
      vertex 16.6285 -3.5345 -5
      vertex 11.6977 0.405039 -5
      vertex 11.3197 -5.37247 -5
    endloop
  endfacet
  facet normal 0 0 1
    outer loop
      vertex 15.5303 -6.91452 -5
      vertex 11.3197 -5.37247 -5
      vertex 14.162 -9.28448 -5
    endloop
  endfacet
  facet normal 0 0 1
    outer loop
      vertex 13.7533 9.99235 -5
      vertex 13.9808 8.7485 -5
      vertex 15.5303 6.91452 -5
    endloop
  endfacet
  facet normal 0 0 1
    outer loop
      vertex 13.9808 8.7485 -5
      vertex 13.7533 9.99235 -5
      vertex 13.477 10.2992 -5
    endloop
  endfacet
  facet normal 0 0 1
    outer loop
      vertex 12.3157 2.30715 -5
      vertex 16.6285 3.5345 -5
      vertex 15.5303 6.91452 -5
    endloop
  endfacet
  facet normal -0 0 1
    outer loop
      vertex 9.22555 7.20341 -5
      vertex 15.5303 6.91452 -5
      vertex 13.9808 8.7485 -5
    endloop
  endfacet
  facet normal 0 0 1
    outer loop
      vertex 16.6285 3.5345 -5
      vertex 12.3157 2.30715 -5
      vertex 16.9146 0.812899 -5
    endloop
  endfacet
  facet normal 0 0 1
    outer loop
      vertex 15.5303 6.91452 -5
      vertex 9.22555 7.20341 -5
      vertex 12.3157 2.30715 -5
    endloop
  endfacet
  facet normal 0 0 1
    outer loop
      vertex 11.6977 0.405039 -5
      vertex 9.7017 -6.54805 -5
      vertex 11.3197 -5.37247 -5
    endloop
  endfacet
  facet normal 0 0 1
    outer loop
      vertex 12.3157 2.30715 -5
      vertex 9.22555 7.20341 -5
      vertex 11.6977 0.405039 -5
    endloop
  endfacet
  facet normal 0 0 1
    outer loop
      vertex 1 0 -5
      vertex 11.6977 0.405039 -5
      vertex 9.22555 7.20341 -5
    endloop
  endfacet
  facet normal 0 0 1
    outer loop
      vertex 12.6406 -10.5931 -5
      vertex 13.7533 -9.99235 -5
      vertex 13.9598 -9.63473 -5
    endloop
  endfacet
  facet normal -0 0 1
    outer loop
      vertex 12.6406 -10.5931 -5
      vertex 11.3752 -12.6335 -5
      vertex 13.7533 -9.99235 -5
    endloop
  endfacet
  facet normal 0 0 1
    outer loop
      vertex 9.7017 -6.54805 -5
      vertex 11.3752 -12.6335 -5
      vertex 12.6406 -10.5931 -5
    endloop
  endfacet
  facet normal 0 0 1
    outer loop
      vertex 3.22957 11.2503 -5
      vertex 9.22555 7.20341 -5
      vertex 8.60752 9.10553 -5
    endloop
  endfacet
  facet normal -0 0 1
    outer loop
      vertex 6 -11 -5
      vertex 11.3752 -12.6335 -5
      vertex 9.7017 -6.54805 -5
    endloop
  endfacet
  facet normal 0 0 1
    outer loop
      vertex 11.6977 0.405039 -5
      vertex 1 0 -5
      vertex 9.7017 -6.54805 -5
    endloop
  endfacet
  facet normal -0 0 1
    outer loop
      vertex 3.22957 11.2503 -5
      vertex 8.60752 9.10553 -5
      vertex 8.5 14.7224 -5
    endloop
  endfacet
  facet normal 0 0 1
    outer loop
      vertex 3.22957 11.2503 -5
      vertex 8.5 14.7224 -5
      vertex 6.1685 15.2954 -5
    endloop
  endfacet
  facet normal 0 0 1
    outer loop
      vertex 5.25329 16.168 -5
      vertex 6.1685 15.2954 -5
      vertex 8.5 14.7224 -5
    endloop
  endfacet
  facet normal 0 0 1
    outer loop
      vertex 6.1685 15.2954 -5
      vertex 5.25329 16.168 -5
      vertex 4.84936 16.2538 -5
    endloop
  endfacet
  facet normal -0 0 1
    outer loop
      vertex 0.309016 -0.951056 -5
      vertex 9.7017 -6.54805 -5
      vertex 1 0 -5
    endloop
  endfacet
  facet normal 0 -0 1
    outer loop
      vertex 4 -11 -5
      vertex 9.7017 -6.54805 -5
      vertex 0.309016 -0.951056 -5
    endloop
  endfacet
  facet normal 0 0 1
    outer loop
      vertex 9.22555 7.20341 -5
      vertex 3.22957 11.2503 -5
      vertex 0.309016 0.951056 -5
    endloop
  endfacet
  facet normal 0 0 1
    outer loop
      vertex 11.3752 -12.6335 -5
      vertex 6 -11 -5
      vertex 8.5 -14.7224 -5
    endloop
  endfacet
  facet normal 0 0 1
    outer loop
      vertex 8.5 -14.7224 -5
      vertex 6 -11 -5
      vertex 6 -15.8355 -5
    endloop
  endfacet
  facet normal -0 0 1
    outer loop
      vertex 4 -16 -5
      vertex 5.25329 -16.168 -5
      vertex 5.63053 -16 -5
    endloop
  endfacet
  facet normal 0 0 1
    outer loop
      vertex 4 -16 -5
      vertex 1.77698 -16.9069 -5
      vertex 5.25329 -16.168 -5
    endloop
  endfacet
  facet normal 0 0 1
    outer loop
      vertex 9.7017 -6.54805 -5
      vertex 4 -11 -5
      vertex 6 -11 -5
    endloop
  endfacet
  facet normal 0 0 1
    outer loop
      vertex -4 11 -5
      vertex 3.22957 11.2503 -5
      vertex 1.61154 12.4259 -5
    endloop
  endfacet
  facet normal 0 0 1
    outer loop
      vertex -3.22957 -11.2503 -5
      vertex 4 -11 -5
      vertex 0.309016 -0.951056 -5
    endloop
  endfacet
  facet normal 0 -0 1
    outer loop
      vertex 1.77698 -16.9069 -5
      vertex 4 -11 -5
      vertex -1.61154 -12.4259 -5
    endloop
  endfacet
  facet normal 0 0 1
    outer loop
      vertex -3.22957 -11.2503 -5
      vertex 0.309016 -0.951056 -5
      vertex -0.809016 -0.587785 -5
    endloop
  endfacet
  facet normal 0 0 1
    outer loop
      vertex 4 -11 -5
      vertex 1.77698 -16.9069 -5
      vertex 4 -16 -5
    endloop
  endfacet
  facet normal 0 0 1
    outer loop
      vertex -1.61154 -12.4259 -5
      vertex -1.77698 -16.9069 -5
      vertex 1.77698 -16.9069 -5
    endloop
  endfacet
  facet normal 0 -0 1
    outer loop
      vertex -1.77698 -16.9069 -5
      vertex -1.61154 -12.4259 -5
      vertex -4.45377 -16.3379 -5
    endloop
  endfacet
  facet normal 0 0 1
    outer loop
      vertex 1.77698 16.9069 -5
      vertex 1.61154 12.4259 -5
      vertex 4.45377 16.3379 -5
    endloop
  endfacet
  facet normal -0 0 1
    outer loop
      vertex -1.77698 16.9069 -5
      vertex 1.61154 12.4259 -5
      vertex 1.77698 16.9069 -5
    endloop
  endfacet
  facet normal 0 0 1
    outer loop
      vertex 9.22555 7.20341 -5
      vertex 0.309016 0.951056 -5
      vertex 1 0 -5
    endloop
  endfacet
  facet normal 0 0 1
    outer loop
      vertex 3.22957 11.2503 -5
      vertex -4 11 -5
      vertex 0.309016 0.951056 -5
    endloop
  endfacet
  facet normal 0 0 1
    outer loop
      vertex -6 11 -5
      vertex -0.809016 -0.587785 -5
      vertex -0.809016 0.587785 -5
    endloop
  endfacet
  facet normal 0 0 1
    outer loop
      vertex 1.61154 12.4259 -5
      vertex -1.77698 16.9069 -5
      vertex -4 11 -5
    endloop
  endfacet
  facet normal 0 0 1
    outer loop
      vertex 0.309016 0.951056 -5
      vertex -4 11 -5
      vertex -0.809016 0.587785 -5
    endloop
  endfacet
  facet normal -0 0 1
    outer loop
      vertex -6 11 -5
      vertex -0.809016 0.587785 -5
      vertex -4 11 -5
    endloop
  endfacet
  facet normal 0 0 1
    outer loop
      vertex -4 11 -5
      vertex -1.77698 16.9069 -5
      vertex -4 16 -5
    endloop
  endfacet
  facet normal -0 0 1
    outer loop
      vertex -5.25329 16.168 -5
      vertex -4 16 -5
      vertex -1.77698 16.9069 -5
    endloop
  endfacet
  facet normal 0 0 1
    outer loop
      vertex -4 16 -5
      vertex -5.25329 16.168 -5
      vertex -5.63053 16 -5
    endloop
  endfacet
  facet normal 0 0 1
    outer loop
      vertex 4 -11 -5
      vertex -3.22957 -11.2503 -5
      vertex -1.61154 -12.4259 -5
    endloop
  endfacet
  facet normal 0 0 1
    outer loop
      vertex -0.809016 -0.587785 -5
      vertex -6 11 -5
      vertex -3.22957 -11.2503 -5
    endloop
  endfacet
  facet normal 0 0 1
    outer loop
      vertex -3.22957 -11.2503 -5
      vertex -6 11 -5
      vertex -6.1685 -15.2954 -5
    endloop
  endfacet
  facet normal 0 0 1
    outer loop
      vertex -6.1685 -15.2954 -5
      vertex -5.25329 -16.168 -5
      vertex -4.84936 -16.2538 -5
    endloop
  endfacet
  facet normal 0 0 1
    outer loop
      vertex -6.1685 -15.2954 -5
      vertex -8.5 -14.7224 -5
      vertex -5.25329 -16.168 -5
    endloop
  endfacet
  facet normal 0 -0 1
    outer loop
      vertex -9.22555 -7.20341 -5
      vertex -6 11 -5
      vertex -9.7017 6.54805 -5
    endloop
  endfacet
  facet normal 0 0 1
    outer loop
      vertex -6.1685 -15.2954 -5
      vertex -8.60752 -9.10553 -5
      vertex -8.5 -14.7224 -5
    endloop
  endfacet
  facet normal 0 0 1
    outer loop
      vertex -6 11 -5
      vertex -8.60752 -9.10553 -5
      vertex -6.1685 -15.2954 -5
    endloop
  endfacet
  facet normal 0 0 1
    outer loop
      vertex -6 11 -5
      vertex -9.22555 -7.20341 -5
      vertex -8.60752 -9.10553 -5
    endloop
  endfacet
  facet normal 0 0 1
    outer loop
      vertex -6 11 -5
      vertex -11.3752 12.6335 -5
      vertex -9.7017 6.54805 -5
    endloop
  endfacet
  facet normal 0 0 1
    outer loop
      vertex -11.3752 12.6335 -5
      vertex -12.6406 10.5931 -5
      vertex -9.7017 6.54805 -5
    endloop
  endfacet
  facet normal 0 0 1
    outer loop
      vertex -13.7533 9.99235 -5
      vertex -12.6406 10.5931 -5
      vertex -11.3752 12.6335 -5
    endloop
  endfacet
  facet normal 0 0 1
    outer loop
      vertex -12.6406 10.5931 -5
      vertex -13.7533 9.99235 -5
      vertex -13.9598 9.63473 -5
    endloop
  endfacet
  facet normal -0 0 1
    outer loop
      vertex -15.5303 6.91452 -5
      vertex -11.3197 5.37247 -5
      vertex -14.162 9.28448 -5
    endloop
  endfacet
  facet normal 0 0 1
    outer loop
      vertex -16.6285 3.5345 -5
      vertex -11.3197 5.37247 -5
      vertex -15.5303 6.91452 -5
    endloop
  endfacet
  facet normal 0 0 1
    outer loop
      vertex -11.3197 5.37247 -5
      vertex -16.6285 3.5345 -5
      vertex -11.6977 -0.405039 -5
    endloop
  endfacet
  facet normal 0 0 1
    outer loop
      vertex -11.6977 -0.405039 -5
      vertex -16.6285 3.5345 -5
      vertex -16.453 1.14005 -5
    endloop
  endfacet
  facet normal 0 0 1
    outer loop
      vertex -17 0 -5
      vertex -16.453 1.14005 -5
      vertex -16.6285 3.5345 -5
    endloop
  endfacet
  facet normal 0 0 1
    outer loop
      vertex -16.453 1.14005 -5
      vertex -17 0 -5
      vertex -16.9568 -0.410686 -5
    endloop
  endfacet
  facet normal 0 0 1
    outer loop
      vertex -8.60752 -9.10553 -5
      vertex -11.3752 -12.6335 -5
      vertex -8.5 -14.7224 -5
    endloop
  endfacet
  facet normal 0 -0 1
    outer loop
      vertex -11.3752 -12.6335 -5
      vertex -8.60752 -9.10553 -5
      vertex -13.2064 -10.5998 -5
    endloop
  endfacet
  facet normal 0 0 1
    outer loop
      vertex -11.6977 -0.405039 -5
      vertex -9.7017 6.54805 -5
      vertex -11.3197 5.37247 -5
    endloop
  endfacet
  facet normal 0 0 1
    outer loop
      vertex -9.7017 6.54805 -5
      vertex -11.6977 -0.405039 -5
      vertex -9.22555 -7.20341 -5
    endloop
  endfacet
  facet normal -0 0 1
    outer loop
      vertex -12.3157 -2.30715 -5
      vertex -9.22555 -7.20341 -5
      vertex -11.6977 -0.405039 -5
    endloop
  endfacet
  facet normal -0 0 1
    outer loop
      vertex -15.5303 -6.91452 -5
      vertex -9.22555 -7.20341 -5
      vertex -12.3157 -2.30715 -5
    endloop
  endfacet
  facet normal 0 0 1
    outer loop
      vertex -9.22555 -7.20341 -5
      vertex -15.5303 -6.91452 -5
      vertex -13.9808 -8.7485 -5
    endloop
  endfacet
  facet normal 0 0 1
    outer loop
      vertex -12.3157 -2.30715 -5
      vertex -16.6285 -3.5345 -5
      vertex -15.5303 -6.91452 -5
    endloop
  endfacet
  facet normal 0 -0 1
    outer loop
      vertex -16.6285 -3.5345 -5
      vertex -12.3157 -2.30715 -5
      vertex -16.9146 -0.812899 -5
    endloop
  endfacet
  facet normal 0 0 1
    outer loop
      vertex -13.9808 -8.7485 -5
      vertex -13.7533 -9.99235 -5
      vertex -13.477 -10.2992 -5
    endloop
  endfacet
  facet normal 0 0 1
    outer loop
      vertex -13.7533 -9.99235 -5
      vertex -13.9808 -8.7485 -5
      vertex -15.5303 -6.91452 -5
    endloop
  endfacet
  facet normal -0.207908 0.978148 0
    outer loop
      vertex -1.77698 16.9069 -7
      vertex -5.25329 16.168 -5
      vertex -1.77698 16.9069 -5
    endloop
  endfacet
  facet normal -0.207908 0.978148 0
    outer loop
      vertex -5.25329 16.168 -5
      vertex -1.77698 16.9069 -7
      vertex -5.25329 16.168 -7
    endloop
  endfacet
  facet normal 0.994522 -0.104531 0
    outer loop
      vertex 16.6285 -3.5345 -5
      vertex 17 0 -7
      vertex 17 0 -5
    endloop
  endfacet
  facet normal 0.994522 -0.104531 0
    outer loop
      vertex 17 0 -7
      vertex 16.6285 -3.5345 -5
      vertex 16.6285 -3.5345 -7
    endloop
  endfacet
  facet normal 0 0 -1
    outer loop
      vertex 1 0 -7
      vertex 17 0 -7
      vertex 16.6285 -3.5345 -7
    endloop
  endfacet
  facet normal 0 0 -1
    outer loop
      vertex 1 0 -7
      vertex 16.6285 -3.5345 -7
      vertex 15.5303 -6.91452 -7
    endloop
  endfacet
  facet normal 0 0 -1
    outer loop
      vertex 17 0 -7
      vertex 1 0 -7
      vertex 16.6285 3.5345 -7
    endloop
  endfacet
  facet normal 0 0 -1
    outer loop
      vertex 1 0 -7
      vertex 15.5303 -6.91452 -7
      vertex 13.7533 -9.99235 -7
    endloop
  endfacet
  facet normal -0 0 -1
    outer loop
      vertex 16.6285 3.5345 -7
      vertex 1 0 -7
      vertex 15.5303 6.91452 -7
    endloop
  endfacet
  facet normal 0 0 -1
    outer loop
      vertex 0.309016 -0.951056 -7
      vertex 13.7533 -9.99235 -7
      vertex 11.3752 -12.6335 -7
    endloop
  endfacet
  facet normal -0 0 -1
    outer loop
      vertex 15.5303 6.91452 -7
      vertex 1 0 -7
      vertex 13.7533 9.99235 -7
    endloop
  endfacet
  facet normal 0 0 -1
    outer loop
      vertex 0.309016 -0.951056 -7
      vertex 11.3752 -12.6335 -7
      vertex 8.5 -14.7224 -7
    endloop
  endfacet
  facet normal 0 0 -1
    outer loop
      vertex 0.309016 0.951056 -7
      vertex 13.7533 9.99235 -7
      vertex 1 0 -7
    endloop
  endfacet
  facet normal 0 0 -1
    outer loop
      vertex 0.309016 -0.951056 -7
      vertex 8.5 -14.7224 -7
      vertex 5.25329 -16.168 -7
    endloop
  endfacet
  facet normal -0 0 -1
    outer loop
      vertex 13.7533 9.99235 -7
      vertex 0.309016 0.951056 -7
      vertex 11.3752 12.6335 -7
    endloop
  endfacet
  facet normal 0 0 -1
    outer loop
      vertex 0.309016 -0.951056 -7
      vertex 5.25329 -16.168 -7
      vertex 1.77698 -16.9069 -7
    endloop
  endfacet
  facet normal -0 0 -1
    outer loop
      vertex 11.3752 12.6335 -7
      vertex 0.309016 0.951056 -7
      vertex 8.5 14.7224 -7
    endloop
  endfacet
  facet normal -0 0 -1
    outer loop
      vertex 8.5 14.7224 -7
      vertex 0.309016 0.951056 -7
      vertex 5.25329 16.168 -7
    endloop
  endfacet
  facet normal 0 0 -1
    outer loop
      vertex 13.7533 -9.99235 -7
      vertex 0.309016 -0.951056 -7
      vertex 1 0 -7
    endloop
  endfacet
  facet normal 0 0 -1
    outer loop
      vertex -1.77698 -16.9069 -7
      vertex 0.309016 -0.951056 -7
      vertex 1.77698 -16.9069 -7
    endloop
  endfacet
  facet normal -0 0 -1
    outer loop
      vertex 0.309016 -0.951056 -7
      vertex -5.25329 -16.168 -7
      vertex -0.809016 -0.587785 -7
    endloop
  endfacet
  facet normal 0 0 -1
    outer loop
      vertex -5.25329 -16.168 -7
      vertex 0.309016 -0.951056 -7
      vertex -1.77698 -16.9069 -7
    endloop
  endfacet
  facet normal -0 0 -1
    outer loop
      vertex 5.25329 16.168 -7
      vertex 0.309016 0.951056 -7
      vertex 1.77698 16.9069 -7
    endloop
  endfacet
  facet normal 0 0 -1
    outer loop
      vertex -5.25329 16.168 -7
      vertex 0.309016 0.951056 -7
      vertex -0.809016 0.587785 -7
    endloop
  endfacet
  facet normal 0 0 -1
    outer loop
      vertex 0.309016 0.951056 -7
      vertex -1.77698 16.9069 -7
      vertex 1.77698 16.9069 -7
    endloop
  endfacet
  facet normal 0 0 -1
    outer loop
      vertex -8.5 -14.7224 -7
      vertex -0.809016 -0.587785 -7
      vertex -5.25329 -16.168 -7
    endloop
  endfacet
  facet normal 0 0 -1
    outer loop
      vertex -11.3752 -12.6335 -7
      vertex -0.809016 -0.587785 -7
      vertex -8.5 -14.7224 -7
    endloop
  endfacet
  facet normal 0 0 -1
    outer loop
      vertex 0.309016 0.951056 -7
      vertex -5.25329 16.168 -7
      vertex -1.77698 16.9069 -7
    endloop
  endfacet
  facet normal 0 0 -1
    outer loop
      vertex -13.7533 -9.99235 -7
      vertex -0.809016 -0.587785 -7
      vertex -11.3752 -12.6335 -7
    endloop
  endfacet
  facet normal 0 0 -1
    outer loop
      vertex -0.809016 0.587785 -7
      vertex -8.5 14.7224 -7
      vertex -5.25329 16.168 -7
    endloop
  endfacet
  facet normal 0 0 -1
    outer loop
      vertex -15.5303 -6.91452 -7
      vertex -0.809016 -0.587785 -7
      vertex -13.7533 -9.99235 -7
    endloop
  endfacet
  facet normal 0 0 -1
    outer loop
      vertex -0.809016 0.587785 -7
      vertex -11.3752 12.6335 -7
      vertex -8.5 14.7224 -7
    endloop
  endfacet
  facet normal 0 0 -1
    outer loop
      vertex -16.6285 -3.5345 -7
      vertex -0.809016 -0.587785 -7
      vertex -15.5303 -6.91452 -7
    endloop
  endfacet
  facet normal 0 0 -1
    outer loop
      vertex -0.809016 0.587785 -7
      vertex -13.7533 9.99235 -7
      vertex -11.3752 12.6335 -7
    endloop
  endfacet
  facet normal 0 0 -1
    outer loop
      vertex -17 0 -7
      vertex -0.809016 -0.587785 -7
      vertex -16.6285 -3.5345 -7
    endloop
  endfacet
  facet normal 0 0 -1
    outer loop
      vertex -0.809016 0.587785 -7
      vertex -15.5303 6.91452 -7
      vertex -13.7533 9.99235 -7
    endloop
  endfacet
  facet normal 0 0 -1
    outer loop
      vertex -0.809016 -0.587785 -7
      vertex -17 0 -7
      vertex -0.809016 0.587785 -7
    endloop
  endfacet
  facet normal 0 0 -1
    outer loop
      vertex -0.809016 0.587785 -7
      vertex -16.6285 3.5345 -7
      vertex -15.5303 6.91452 -7
    endloop
  endfacet
  facet normal -0 0 -1
    outer loop
      vertex -0.809016 0.587785 -7
      vertex -17 0 -7
      vertex -16.6285 3.5345 -7
    endloop
  endfacet
  facet normal 0.865996 -0.500051 0
    outer loop
      vertex 13.9598 -9.63473 -5
      vertex 13.7533 -9.99235 -5
      vertex 13.9598 -9.63473 -6.5
    endloop
  endfacet
  facet normal 0.866025 -0.500001 0
    outer loop
      vertex 14.162 -9.28448 -6.5
      vertex 15.5303 -6.91452 -5
      vertex 14.162 -9.28448 -5
    endloop
  endfacet
  facet normal 0.866025 -0.500001 0
    outer loop
      vertex 15.5303 -6.91452 -5
      vertex 14.162 -9.28448 -6.5
      vertex 15.5303 -6.91452 -7
    endloop
  endfacet
  facet normal 0.866044 -0.499969 -7.84372e-05
    outer loop
      vertex 13.7533 -9.99235 -7
      vertex 14.162 -9.28448 -6.5
      vertex 13.9598 -9.63473 -6.5
    endloop
  endfacet
  facet normal 0.866024 -0.500003 -1.35797e-05
    outer loop
      vertex 14.162 -9.28448 -6.5
      vertex 13.7533 -9.99235 -7
      vertex 15.5303 -6.91452 -7
    endloop
  endfacet
  facet normal 0.865996 -0.500051 0
    outer loop
      vertex 13.7533 -9.99235 -7
      vertex 13.9598 -9.63473 -6.5
      vertex 13.7533 -9.99235 -5
    endloop
  endfacet
  facet normal -0.866024 -0.500003 0
    outer loop
      vertex -13.7533 -9.99235 -7
      vertex -15.5303 -6.91452 -5
      vertex -15.5303 -6.91452 -7
    endloop
  endfacet
  facet normal -0.866024 -0.500003 0
    outer loop
      vertex -15.5303 -6.91452 -5
      vertex -13.7533 -9.99235 -7
      vertex -13.7533 -9.99235 -5
    endloop
  endfacet
  facet normal -0.743132 -0.669145 0
    outer loop
      vertex -13.7533 -9.99235 -7
      vertex -13.477 -10.2992 -6.5
      vertex -13.7533 -9.99235 -5
    endloop
  endfacet
  facet normal -0.74322 -0.669047 0.000109629
    outer loop
      vertex -13.7533 -9.99235 -7
      vertex -13.2064 -10.5998 -6.5
      vertex -13.477 -10.2992 -6.5
    endloop
  endfacet
  facet normal -0.743145 -0.66913 -7.42315e-05
    outer loop
      vertex -11.3752 -12.6335 -7
      vertex -13.2064 -10.5998 -6.5
      vertex -13.7533 -9.99235 -7
    endloop
  endfacet
  facet normal -0.743136 -0.66914 -0
    outer loop
      vertex -11.3752 -12.6335 -5
      vertex -13.2064 -10.5998 -6.5
      vertex -11.3752 -12.6335 -7
    endloop
  endfacet
  facet normal -0.743136 -0.66914 0
    outer loop
      vertex -13.2064 -10.5998 -6.5
      vertex -11.3752 -12.6335 -5
      vertex -13.2064 -10.5998 -5
    endloop
  endfacet
  facet normal -0.743132 -0.669145 0
    outer loop
      vertex -13.7533 -9.99235 -5
      vertex -13.477 -10.2992 -6.5
      vertex -13.477 -10.2992 -5
    endloop
  endfacet
  facet normal 0.587775 -0.809024 0
    outer loop
      vertex 8.5 -14.7224 -7
      vertex 11.3752 -12.6335 -5
      vertex 8.5 -14.7224 -5
    endloop
  endfacet
  facet normal 0.587775 -0.809024 0
    outer loop
      vertex 11.3752 -12.6335 -5
      vertex 8.5 -14.7224 -7
      vertex 11.3752 -12.6335 -7
    endloop
  endfacet
  facet normal -0.207777 -0.978176 0
    outer loop
      vertex -5.25329 -16.168 -5
      vertex -4.84936 -16.2538 -6.5
      vertex -4.84936 -16.2538 -5
    endloop
  endfacet
  facet normal -0.207947 -0.97814 0.000142872
    outer loop
      vertex -4.84936 -16.2538 -6.5
      vertex -5.25329 -16.168 -7
      vertex -4.45377 -16.3379 -6.5
    endloop
  endfacet
  facet normal -0.207777 -0.978176 0
    outer loop
      vertex -5.25329 -16.168 -7
      vertex -4.84936 -16.2538 -6.5
      vertex -5.25329 -16.168 -5
    endloop
  endfacet
  facet normal -0.207922 -0.978145 0
    outer loop
      vertex -4.45377 -16.3379 -6.5
      vertex -1.77698 -16.9069 -5
      vertex -4.45377 -16.3379 -5
    endloop
  endfacet
  facet normal -0.207908 -0.978148 7.89309e-05
    outer loop
      vertex -1.77698 -16.9069 -7
      vertex -4.45377 -16.3379 -6.5
      vertex -5.25329 -16.168 -7
    endloop
  endfacet
  facet normal -0.207922 -0.978145 0
    outer loop
      vertex -4.45377 -16.3379 -6.5
      vertex -1.77698 -16.9069 -7
      vertex -1.77698 -16.9069 -5
    endloop
  endfacet
  facet normal -0.951059 -0.309008 0
    outer loop
      vertex -15.5303 -6.91452 -7
      vertex -16.6285 -3.5345 -5
      vertex -16.6285 -3.5345 -7
    endloop
  endfacet
  facet normal -0.951059 -0.309008 0
    outer loop
      vertex -16.6285 -3.5345 -5
      vertex -15.5303 -6.91452 -7
      vertex -15.5303 -6.91452 -5
    endloop
  endfacet
  facet normal -0.994513 -0.104613 0
    outer loop
      vertex -17 0 -7
      vertex -16.9568 -0.410686 -6.5
      vertex -17 0 -5
    endloop
  endfacet
  facet normal -0.994541 -0.104347 0.000220822
    outer loop
      vertex -17 0 -7
      vertex -16.9146 -0.812899 -6.5
      vertex -16.9568 -0.410686 -6.5
    endloop
  endfacet
  facet normal -0.994522 -0.104531 -8.19807e-05
    outer loop
      vertex -16.6285 -3.5345 -7
      vertex -16.9146 -0.812899 -6.5
      vertex -17 0 -7
    endloop
  endfacet
  facet normal -0.99452 -0.104546 -0
    outer loop
      vertex -16.6285 -3.5345 -5
      vertex -16.9146 -0.812899 -6.5
      vertex -16.6285 -3.5345 -7
    endloop
  endfacet
  facet normal -0.99452 -0.104546 0
    outer loop
      vertex -16.9146 -0.812899 -6.5
      vertex -16.6285 -3.5345 -5
      vertex -16.9146 -0.812899 -5
    endloop
  endfacet
  facet normal -0.994513 -0.104613 0
    outer loop
      vertex -17 0 -5
      vertex -16.9568 -0.410686 -6.5
      vertex -16.9568 -0.410686 -5
    endloop
  endfacet
  facet normal 0.406821 -0.913508 0
    outer loop
      vertex 5.25329 -16.168 -5
      vertex 5.63053 -16 -6.5
      vertex 5.63053 -16 -5
    endloop
  endfacet
  facet normal 0.406739 -0.913544 7.40785e-05
    outer loop
      vertex 5.63053 -16 -6.5
      vertex 5.25329 -16.168 -7
      vertex 6 -15.8355 -6.5
    endloop
  endfacet
  facet normal 0.406821 -0.913508 0
    outer loop
      vertex 5.25329 -16.168 -7
      vertex 5.63053 -16 -6.5
      vertex 5.25329 -16.168 -5
    endloop
  endfacet
  facet normal 0.406745 -0.913542 0
    outer loop
      vertex 6 -15.8355 -6.5
      vertex 8.5 -14.7224 -5
      vertex 6 -15.8355 -5
    endloop
  endfacet
  facet normal 0.406753 -0.913538 4.90147e-05
    outer loop
      vertex 8.5 -14.7224 -7
      vertex 6 -15.8355 -6.5
      vertex 5.25329 -16.168 -7
    endloop
  endfacet
  facet normal 0.406745 -0.913542 0
    outer loop
      vertex 6 -15.8355 -6.5
      vertex 8.5 -14.7224 -7
      vertex 8.5 -14.7224 -5
    endloop
  endfacet
  facet normal 0.207908 -0.978148 0
    outer loop
      vertex 1.77698 -16.9069 -7
      vertex 5.25329 -16.168 -5
      vertex 1.77698 -16.9069 -5
    endloop
  endfacet
  facet normal 0.207908 -0.978148 0
    outer loop
      vertex 5.25329 -16.168 -5
      vertex 1.77698 -16.9069 -7
      vertex 5.25329 -16.168 -7
    endloop
  endfacet
  facet normal 0.743145 -0.66913 0
    outer loop
      vertex 11.3752 -12.6335 -5
      vertex 13.7533 -9.99235 -7
      vertex 13.7533 -9.99235 -5
    endloop
  endfacet
  facet normal 0.743145 -0.66913 0
    outer loop
      vertex 13.7533 -9.99235 -7
      vertex 11.3752 -12.6335 -5
      vertex 11.3752 -12.6335 -7
    endloop
  endfacet
  facet normal -0.406753 -0.913538 0
    outer loop
      vertex -8.5 -14.7224 -7
      vertex -5.25329 -16.168 -5
      vertex -8.5 -14.7224 -5
    endloop
  endfacet
  facet normal -0.406753 -0.913538 -0
    outer loop
      vertex -5.25329 -16.168 -5
      vertex -8.5 -14.7224 -7
      vertex -5.25329 -16.168 -7
    endloop
  endfacet
  facet normal -0.587775 -0.809024 0
    outer loop
      vertex -11.3752 -12.6335 -7
      vertex -8.5 -14.7224 -5
      vertex -11.3752 -12.6335 -5
    endloop
  endfacet
  facet normal -0.587775 -0.809024 -0
    outer loop
      vertex -8.5 -14.7224 -5
      vertex -11.3752 -12.6335 -7
      vertex -8.5 -14.7224 -7
    endloop
  endfacet
  facet normal -0.809016 -0.587786 0
    outer loop
      vertex 1 0 -7
      vertex 0.309016 0.951056 -5
      vertex 0.309016 0.951056 -7
    endloop
  endfacet
  facet normal -0.809016 -0.587786 0
    outer loop
      vertex 0.309016 0.951056 -5
      vertex 1 0 -7
      vertex 1 0 -5
    endloop
  endfacet
  facet normal 1 -0 0
    outer loop
      vertex -0.809016 -0.587785 -5
      vertex -0.809016 0.587785 -7
      vertex -0.809016 0.587785 -5
    endloop
  endfacet
  facet normal 1 0 0
    outer loop
      vertex -0.809016 0.587785 -7
      vertex -0.809016 -0.587785 -5
      vertex -0.809016 -0.587785 -7
    endloop
  endfacet
  facet normal 0.309017 -0.951056 0
    outer loop
      vertex -0.809016 0.587785 -7
      vertex 0.309016 0.951056 -5
      vertex -0.809016 0.587785 -5
    endloop
  endfacet
  facet normal 0.309017 -0.951056 0
    outer loop
      vertex 0.309016 0.951056 -5
      vertex -0.809016 0.587785 -7
      vertex 0.309016 0.951056 -7
    endloop
  endfacet
  facet normal 0.309017 0.951056 -0
    outer loop
      vertex 0.309016 -0.951056 -7
      vertex -0.809016 -0.587785 -5
      vertex 0.309016 -0.951056 -5
    endloop
  endfacet
  facet normal 0.309017 0.951056 0
    outer loop
      vertex -0.809016 -0.587785 -5
      vertex 0.309016 -0.951056 -7
      vertex -0.809016 -0.587785 -7
    endloop
  endfacet
  facet normal -0.809016 0.587786 0
    outer loop
      vertex 0.309016 -0.951056 -7
      vertex 1 0 -5
      vertex 1 0 -7
    endloop
  endfacet
  facet normal -0.809016 0.587786 0
    outer loop
      vertex 1 0 -5
      vertex 0.309016 -0.951056 -7
      vertex 0.309016 -0.951056 -5
    endloop
  endfacet
  facet normal -1 0 0
    outer loop
      vertex -6 15.8355 -5
      vertex -6 16 -6.5
      vertex -6 15.8355 -6.5
    endloop
  endfacet
  facet normal -1 0 0
    outer loop
      vertex -6 16 -6.5
      vertex -6 15.8355 -5
      vertex -6 16 6.5
    endloop
  endfacet
  facet normal -1 0 0
    outer loop
      vertex -6 11 6.5
      vertex -6 15.8355 -5
      vertex -6 11 -5
    endloop
  endfacet
  facet normal -1 0 0
    outer loop
      vertex -6 15.8355 -5
      vertex -6 11 6.5
      vertex -6 16 6.5
    endloop
  endfacet
  facet normal -0 0 1
    outer loop
      vertex -6 16 6.5
      vertex -4 11 6.5
      vertex -4 16 6.5
    endloop
  endfacet
  facet normal 0 0 1
    outer loop
      vertex -4 11 6.5
      vertex -6 16 6.5
      vertex -6 11 6.5
    endloop
  endfacet
  facet normal 1 -0 0
    outer loop
      vertex -4 11 6.5
      vertex -4 16 -5
      vertex -4 16 6.5
    endloop
  endfacet
  facet normal 1 0 0
    outer loop
      vertex -4 16 -5
      vertex -4 11 6.5
      vertex -4 11 -5
    endloop
  endfacet
  facet normal -0 0 -1
    outer loop
      vertex -5.63053 16 -6.5
      vertex -6 15.8355 -6.5
      vertex -6 16 -6.5
    endloop
  endfacet
  facet normal 0 -1 0
    outer loop
      vertex -6 11 -5
      vertex -4 11 6.5
      vertex -6 11 6.5
    endloop
  endfacet
  facet normal 0 -1 -0
    outer loop
      vertex -4 11 6.5
      vertex -6 11 -5
      vertex -4 11 -5
    endloop
  endfacet
  facet normal 0 1 0
    outer loop
      vertex -5.63053 16 -5
      vertex -4 16 6.5
      vertex -4 16 -5
    endloop
  endfacet
  facet normal 0 1 0
    outer loop
      vertex -4 16 6.5
      vertex -5.63053 16 -5
      vertex -6 16 6.5
    endloop
  endfacet
  facet normal 0 1 0
    outer loop
      vertex -6 16 -6.5
      vertex -5.63053 16 -5
      vertex -5.63053 16 -6.5
    endloop
  endfacet
  facet normal 0 1 0
    outer loop
      vertex -5.63053 16 -5
      vertex -6 16 -6.5
      vertex -6 16 6.5
    endloop
  endfacet
  facet normal 0.809017 0.587785 0
    outer loop
      vertex -9.7017 6.54805 6.5
      vertex -12.6406 10.5931 -5
      vertex -12.6406 10.5931 6.5
    endloop
  endfacet
  facet normal 0.809017 0.587785 0
    outer loop
      vertex -12.6406 10.5931 -5
      vertex -9.7017 6.54805 6.5
      vertex -9.7017 6.54805 -5
    endloop
  endfacet
  facet normal 0 0 1
    outer loop
      vertex -12.6406 10.5931 6.5
      vertex -11.3197 5.37247 6.5
      vertex -9.7017 6.54805 6.5
    endloop
  endfacet
  facet normal 0 0 1
    outer loop
      vertex -11.3197 5.37247 6.5
      vertex -12.6406 10.5931 6.5
      vertex -14.2587 9.41756 6.5
    endloop
  endfacet
  facet normal -0.587751 0.809042 0
    outer loop
      vertex -13.9598 9.63473 -5
      vertex -12.6406 10.5931 6.5
      vertex -12.6406 10.5931 -5
    endloop
  endfacet
  facet normal -0.58776 0.809036 1.47263e-06
    outer loop
      vertex -12.6406 10.5931 6.5
      vertex -13.9598 9.63473 -5
      vertex -14.2587 9.41756 6.5
    endloop
  endfacet
  facet normal -0.587797 0.809009 0
    outer loop
      vertex -14.2587 9.41756 -6.5
      vertex -13.9598 9.63473 -5
      vertex -13.9598 9.63473 -6.5
    endloop
  endfacet
  facet normal -0.587797 0.809009 0
    outer loop
      vertex -13.9598 9.63473 -5
      vertex -14.2587 9.41756 -6.5
      vertex -14.2587 9.41756 6.5
    endloop
  endfacet
  facet normal -0.808983 -0.587832 -0
    outer loop
      vertex -14.162 9.28448 -5
      vertex -14.2587 9.41756 -6.5
      vertex -14.162 9.28448 -6.5
    endloop
  endfacet
  facet normal -0.808983 -0.587832 0
    outer loop
      vertex -14.2587 9.41756 -6.5
      vertex -14.162 9.28448 -5
      vertex -14.2587 9.41756 6.5
    endloop
  endfacet
  facet normal -0.809011 -0.587793 -0
    outer loop
      vertex -11.3197 5.37247 6.5
      vertex -14.162 9.28448 -5
      vertex -11.3197 5.37247 -5
    endloop
  endfacet
  facet normal -0.80901 -0.587794 -6.62307e-07
    outer loop
      vertex -14.162 9.28448 -5
      vertex -11.3197 5.37247 6.5
      vertex -14.2587 9.41756 6.5
    endloop
  endfacet
  facet normal 0 0 -1
    outer loop
      vertex -14.162 9.28448 -6.5
      vertex -14.2587 9.41756 -6.5
      vertex -13.9598 9.63473 -6.5
    endloop
  endfacet
  facet normal 0.587796 -0.809009 0
    outer loop
      vertex -11.3197 5.37247 -5
      vertex -9.7017 6.54805 6.5
      vertex -11.3197 5.37247 6.5
    endloop
  endfacet
  facet normal 0.587796 -0.809009 0
    outer loop
      vertex -9.7017 6.54805 6.5
      vertex -11.3197 5.37247 -5
      vertex -9.7017 6.54805 -5
    endloop
  endfacet
  facet normal 0.309017 0.951057 -0
    outer loop
      vertex -11.6977 -0.405039 -5
      vertex -16.453 1.14005 6.5
      vertex -11.6977 -0.405039 6.5
    endloop
  endfacet
  facet normal 0.309017 0.951057 0
    outer loop
      vertex -16.453 1.14005 6.5
      vertex -11.6977 -0.405039 -5
      vertex -16.453 1.14005 -5
    endloop
  endfacet
  facet normal 0 0 1
    outer loop
      vertex -16.453 1.14005 6.5
      vertex -12.3157 -2.30715 6.5
      vertex -11.6977 -0.405039 6.5
    endloop
  endfacet
  facet normal 0 0 1
    outer loop
      vertex -12.3157 -2.30715 6.5
      vertex -16.453 1.14005 6.5
      vertex -17.071 -0.762067 6.5
    endloop
  endfacet
  facet normal -0.309016 -0.951057 1.22484e-06
    outer loop
      vertex -17.071 -0.762067 6.5
      vertex -16.9146 -0.812899 -5
      vertex -12.3157 -2.30715 6.5
    endloop
  endfacet
  facet normal -0.309097 -0.95103 0
    outer loop
      vertex -17.071 -0.762067 -6.5
      vertex -16.9146 -0.812899 -5
      vertex -17.071 -0.762067 6.5
    endloop
  endfacet
  facet normal -0.309097 -0.95103 -0
    outer loop
      vertex -16.9146 -0.812899 -5
      vertex -17.071 -0.762067 -6.5
      vertex -16.9146 -0.812899 -6.5
    endloop
  endfacet
  facet normal -0.309013 -0.951058 -0
    outer loop
      vertex -12.3157 -2.30715 6.5
      vertex -16.9146 -0.812899 -5
      vertex -12.3157 -2.30715 -5
    endloop
  endfacet
  facet normal 0 0 -1
    outer loop
      vertex -16.9146 -0.812899 -6.5
      vertex -17.071 -0.762067 -6.5
      vertex -16.9568 -0.410686 -6.5
    endloop
  endfacet
  facet normal 0.951061 -0.309002 0
    outer loop
      vertex -12.3157 -2.30715 6.5
      vertex -11.6977 -0.405039 -5
      vertex -11.6977 -0.405039 6.5
    endloop
  endfacet
  facet normal 0.951061 -0.309002 0
    outer loop
      vertex -11.6977 -0.405039 -5
      vertex -12.3157 -2.30715 6.5
      vertex -12.3157 -2.30715 -5
    endloop
  endfacet
  facet normal -0.951033 0.309089 0
    outer loop
      vertex -16.9568 -0.410686 -6.5
      vertex -17.071 -0.762067 -6.5
      vertex -16.9568 -0.410686 -5
    endloop
  endfacet
  facet normal -0.951068 0.308981 0
    outer loop
      vertex -16.9568 -0.410686 -5
      vertex -16.453 1.14005 6.5
      vertex -16.453 1.14005 -5
    endloop
  endfacet
  facet normal -0.951033 0.309089 0
    outer loop
      vertex -17.071 -0.762067 6.5
      vertex -16.9568 -0.410686 -5
      vertex -17.071 -0.762067 -6.5
    endloop
  endfacet
  facet normal -0.951062 0.309001 -2.96972e-06
    outer loop
      vertex -16.9568 -0.410686 -5
      vertex -17.071 -0.762067 6.5
      vertex -16.453 1.14005 6.5
    endloop
  endfacet
  facet normal 0 0 1
    outer loop
      vertex -9.22555 -7.20341 6.5
      vertex -13.3628 -10.6506 6.5
      vertex -8.60752 -9.10553 6.5
    endloop
  endfacet
  facet normal 0 -0 1
    outer loop
      vertex -13.3628 -10.6506 6.5
      vertex -9.22555 -7.20341 6.5
      vertex -13.9808 -8.7485 6.5
    endloop
  endfacet
  facet normal -0.30902 0.951056 0
    outer loop
      vertex -9.22555 -7.20341 -5
      vertex -13.9808 -8.7485 6.5
      vertex -9.22555 -7.20341 6.5
    endloop
  endfacet
  facet normal -0.30902 0.951056 0
    outer loop
      vertex -13.9808 -8.7485 6.5
      vertex -9.22555 -7.20341 -5
      vertex -13.9808 -8.7485 -5
    endloop
  endfacet
  facet normal 0.951057 0.309014 0
    outer loop
      vertex -8.60752 -9.10553 6.5
      vertex -9.22555 -7.20341 -5
      vertex -9.22555 -7.20341 6.5
    endloop
  endfacet
  facet normal 0.951057 0.309014 0
    outer loop
      vertex -9.22555 -7.20341 -5
      vertex -8.60752 -9.10553 6.5
      vertex -8.60752 -9.10553 -5
    endloop
  endfacet
  facet normal 0.309014 -0.951057 1.4039e-06
    outer loop
      vertex -13.3628 -10.6506 6.5
      vertex -13.2064 -10.5998 -5
      vertex -8.60752 -9.10553 6.5
    endloop
  endfacet
  facet normal 0.308921 -0.951088 0
    outer loop
      vertex -13.3628 -10.6506 -6.5
      vertex -13.2064 -10.5998 -5
      vertex -13.3628 -10.6506 6.5
    endloop
  endfacet
  facet normal 0.308921 -0.951088 0
    outer loop
      vertex -13.2064 -10.5998 -5
      vertex -13.3628 -10.6506 -6.5
      vertex -13.2064 -10.5998 -6.5
    endloop
  endfacet
  facet normal 0.309018 -0.951056 0
    outer loop
      vertex -8.60752 -9.10553 6.5
      vertex -13.2064 -10.5998 -5
      vertex -8.60752 -9.10553 -5
    endloop
  endfacet
  facet normal 0 0 -1
    outer loop
      vertex -13.3628 -10.6506 -6.5
      vertex -13.477 -10.2992 -6.5
      vertex -13.2064 -10.5998 -6.5
    endloop
  endfacet
  facet normal -0.951038 -0.309074 0
    outer loop
      vertex -13.477 -10.2992 -6.5
      vertex -13.3628 -10.6506 -6.5
      vertex -13.477 -10.2992 -5
    endloop
  endfacet
  facet normal -0.951066 -0.308988 0
    outer loop
      vertex -13.477 -10.2992 -5
      vertex -13.9808 -8.7485 6.5
      vertex -13.9808 -8.7485 -5
    endloop
  endfacet
  facet normal -0.951038 -0.309074 -0
    outer loop
      vertex -13.3628 -10.6506 6.5
      vertex -13.477 -10.2992 -5
      vertex -13.3628 -10.6506 -6.5
    endloop
  endfacet
  facet normal -0.951061 -0.309004 2.37481e-06
    outer loop
      vertex -13.477 -10.2992 -5
      vertex -13.3628 -10.6506 6.5
      vertex -13.9808 -8.7485 6.5
    endloop
  endfacet
  facet normal 0 0 1
    outer loop
      vertex -3.22957 -11.2503 6.5
      vertex -4.55046 -16.471 6.5
      vertex -1.61154 -12.4259 6.5
    endloop
  endfacet
  facet normal 0 -0 1
    outer loop
      vertex -4.55046 -16.471 6.5
      vertex -3.22957 -11.2503 6.5
      vertex -6.1685 -15.2954 6.5
    endloop
  endfacet
  facet normal -0.809018 0.587784 0
    outer loop
      vertex -6.1685 -15.2954 -5
      vertex -3.22957 -11.2503 6.5
      vertex -3.22957 -11.2503 -5
    endloop
  endfacet
  facet normal -0.809018 0.587784 0
    outer loop
      vertex -3.22957 -11.2503 6.5
      vertex -6.1685 -15.2954 -5
      vertex -6.1685 -15.2954 6.5
    endloop
  endfacet
  facet normal 0.809017 -0.587785 0
    outer loop
      vertex -1.61154 -12.4259 6.5
      vertex -4.45377 -16.3379 -5
      vertex -1.61154 -12.4259 -5
    endloop
  endfacet
  facet normal 0.809019 -0.587783 -8.61442e-07
    outer loop
      vertex -4.55046 -16.471 6.5
      vertex -4.45377 -16.3379 -5
      vertex -1.61154 -12.4259 6.5
    endloop
  endfacet
  facet normal 0.809054 -0.587734 0
    outer loop
      vertex -4.55046 -16.471 -6.5
      vertex -4.45377 -16.3379 -5
      vertex -4.55046 -16.471 6.5
    endloop
  endfacet
  facet normal 0.809054 -0.587734 0
    outer loop
      vertex -4.45377 -16.3379 -5
      vertex -4.55046 -16.471 -6.5
      vertex -4.45377 -16.3379 -6.5
    endloop
  endfacet
  facet normal 0.587796 0.809009 -0
    outer loop
      vertex -1.61154 -12.4259 -5
      vertex -3.22957 -11.2503 6.5
      vertex -1.61154 -12.4259 6.5
    endloop
  endfacet
  facet normal 0.587796 0.809009 0
    outer loop
      vertex -3.22957 -11.2503 6.5
      vertex -1.61154 -12.4259 -5
      vertex -3.22957 -11.2503 -5
    endloop
  endfacet
  facet normal 0 0 -1
    outer loop
      vertex -4.55046 -16.471 -6.5
      vertex -4.84936 -16.2538 -6.5
      vertex -4.45377 -16.3379 -6.5
    endloop
  endfacet
  facet normal -0.587781 -0.80902 0
    outer loop
      vertex -4.84936 -16.2538 -5
      vertex -6.1685 -15.2954 6.5
      vertex -6.1685 -15.2954 -5
    endloop
  endfacet
  facet normal -0.587793 -0.809011 -2.23684e-06
    outer loop
      vertex -6.1685 -15.2954 6.5
      vertex -4.84936 -16.2538 -5
      vertex -4.55046 -16.471 6.5
    endloop
  endfacet
  facet normal -0.58785 -0.80897 0
    outer loop
      vertex -4.55046 -16.471 -6.5
      vertex -4.84936 -16.2538 -5
      vertex -4.84936 -16.2538 -6.5
    endloop
  endfacet
  facet normal -0.58785 -0.80897 0
    outer loop
      vertex -4.84936 -16.2538 -5
      vertex -4.55046 -16.471 -6.5
      vertex -4.55046 -16.471 6.5
    endloop
  endfacet
  facet normal -0 0 1
    outer loop
      vertex 4 -11 6.5
      vertex 6 -16 6.5
      vertex 6 -11 6.5
    endloop
  endfacet
  facet normal 0 0 1
    outer loop
      vertex 6 -16 6.5
      vertex 4 -11 6.5
      vertex 4 -16 6.5
    endloop
  endfacet
  facet normal -1 0 0
    outer loop
      vertex 4 -16 -5
      vertex 4 -11 6.5
      vertex 4 -11 -5
    endloop
  endfacet
  facet normal -1 -0 0
    outer loop
      vertex 4 -11 6.5
      vertex 4 -16 -5
      vertex 4 -16 6.5
    endloop
  endfacet
  facet normal 0 1 -0
    outer loop
      vertex 6 -11 -5
      vertex 4 -11 6.5
      vertex 6 -11 6.5
    endloop
  endfacet
  facet normal 0 1 0
    outer loop
      vertex 4 -11 6.5
      vertex 6 -11 -5
      vertex 4 -11 -5
    endloop
  endfacet
  facet normal 1 0 0
    outer loop
      vertex 6 -11 6.5
      vertex 6 -15.8355 -5
      vertex 6 -11 -5
    endloop
  endfacet
  facet normal 1 -0 0
    outer loop
      vertex 6 -16 6.5
      vertex 6 -15.8355 -5
      vertex 6 -11 6.5
    endloop
  endfacet
  facet normal 1 0 0
    outer loop
      vertex 6 -16 -6.5
      vertex 6 -15.8355 -5
      vertex 6 -16 6.5
    endloop
  endfacet
  facet normal 1 0 0
    outer loop
      vertex 6 -15.8355 -5
      vertex 6 -16 -6.5
      vertex 6 -15.8355 -6.5
    endloop
  endfacet
  facet normal 0 0 -1
    outer loop
      vertex 6 -16 -6.5
      vertex 5.63053 -16 -6.5
      vertex 6 -15.8355 -6.5
    endloop
  endfacet
  facet normal 0 -1 0
    outer loop
      vertex 5.63053 -16 -5
      vertex 4 -16 6.5
      vertex 4 -16 -5
    endloop
  endfacet
  facet normal 0 -1 0
    outer loop
      vertex 4 -16 6.5
      vertex 5.63053 -16 -5
      vertex 6 -16 6.5
    endloop
  endfacet
  facet normal 0 -1 0
    outer loop
      vertex 6 -16 -6.5
      vertex 5.63053 -16 -5
      vertex 5.63053 -16 -6.5
    endloop
  endfacet
  facet normal 0 -1 0
    outer loop
      vertex 5.63053 -16 -5
      vertex 6 -16 -6.5
      vertex 6 -16 6.5
    endloop
  endfacet
  facet normal 0 0 1
    outer loop
      vertex 11.3197 -5.37247 6.5
      vertex 12.6406 -10.5931 6.5
      vertex 14.2587 -9.41756 6.5
    endloop
  endfacet
  facet normal 0 0 1
    outer loop
      vertex 12.6406 -10.5931 6.5
      vertex 11.3197 -5.37247 6.5
      vertex 9.7017 -6.54805 6.5
    endloop
  endfacet
  facet normal 0.809011 0.587793 0
    outer loop
      vertex 11.3197 -5.37247 6.5
      vertex 14.162 -9.28448 -5
      vertex 11.3197 -5.37247 -5
    endloop
  endfacet
  facet normal 0.80901 0.587794 -6.62307e-07
    outer loop
      vertex 14.2587 -9.41756 6.5
      vertex 14.162 -9.28448 -5
      vertex 11.3197 -5.37247 6.5
    endloop
  endfacet
  facet normal 0.808983 0.587832 -0
    outer loop
      vertex 14.2587 -9.41756 -6.5
      vertex 14.162 -9.28448 -5
      vertex 14.2587 -9.41756 6.5
    endloop
  endfacet
  facet normal 0.808983 0.587832 0
    outer loop
      vertex 14.162 -9.28448 -5
      vertex 14.2587 -9.41756 -6.5
      vertex 14.162 -9.28448 -6.5
    endloop
  endfacet
  facet normal -0.809017 -0.587785 0
    outer loop
      vertex 12.6406 -10.5931 -5
      vertex 9.7017 -6.54805 6.5
      vertex 9.7017 -6.54805 -5
    endloop
  endfacet
  facet normal -0.809017 -0.587785 0
    outer loop
      vertex 9.7017 -6.54805 6.5
      vertex 12.6406 -10.5931 -5
      vertex 12.6406 -10.5931 6.5
    endloop
  endfacet
  facet normal -0.587796 0.809009 0
    outer loop
      vertex 11.3197 -5.37247 -5
      vertex 9.7017 -6.54805 6.5
      vertex 11.3197 -5.37247 6.5
    endloop
  endfacet
  facet normal -0.587796 0.809009 0
    outer loop
      vertex 9.7017 -6.54805 6.5
      vertex 11.3197 -5.37247 -5
      vertex 9.7017 -6.54805 -5
    endloop
  endfacet
  facet normal -0 0 -1
    outer loop
      vertex 14.2587 -9.41756 -6.5
      vertex 13.9598 -9.63473 -6.5
      vertex 14.162 -9.28448 -6.5
    endloop
  endfacet
  facet normal 0.587751 -0.809042 0
    outer loop
      vertex 13.9598 -9.63473 -5
      vertex 12.6406 -10.5931 6.5
      vertex 12.6406 -10.5931 -5
    endloop
  endfacet
  facet normal 0.58776 -0.809036 1.47263e-06
    outer loop
      vertex 12.6406 -10.5931 6.5
      vertex 13.9598 -9.63473 -5
      vertex 14.2587 -9.41756 6.5
    endloop
  endfacet
  facet normal 0.587797 -0.809009 0
    outer loop
      vertex 14.2587 -9.41756 -6.5
      vertex 13.9598 -9.63473 -5
      vertex 13.9598 -9.63473 -6.5
    endloop
  endfacet
  facet normal 0.587797 -0.809009 0
    outer loop
      vertex 13.9598 -9.63473 -5
      vertex 14.2587 -9.41756 -6.5
      vertex 14.2587 -9.41756 6.5
    endloop
  endfacet
  facet normal 0 0 1
    outer loop
      vertex 12.3157 2.30715 6.5
      vertex 16.453 -1.14005 6.5
      vertex 17.071 0.762067 6.5
    endloop
  endfacet
  facet normal 0 0 1
    outer loop
      vertex 16.453 -1.14005 6.5
      vertex 12.3157 2.30715 6.5
      vertex 11.6977 0.405039 6.5
    endloop
  endfacet
  facet normal 0.309016 0.951057 1.22484e-06
    outer loop
      vertex 17.071 0.762067 6.5
      vertex 16.9146 0.812899 -5
      vertex 12.3157 2.30715 6.5
    endloop
  endfacet
  facet normal 0.309097 0.95103 -0
    outer loop
      vertex 17.071 0.762067 -6.5
      vertex 16.9146 0.812899 -5
      vertex 17.071 0.762067 6.5
    endloop
  endfacet
  facet normal 0.309097 0.95103 0
    outer loop
      vertex 16.9146 0.812899 -5
      vertex 17.071 0.762067 -6.5
      vertex 16.9146 0.812899 -6.5
    endloop
  endfacet
  facet normal 0.309013 0.951058 0
    outer loop
      vertex 12.3157 2.30715 6.5
      vertex 16.9146 0.812899 -5
      vertex 12.3157 2.30715 -5
    endloop
  endfacet
  facet normal -0.309017 -0.951057 0
    outer loop
      vertex 11.6977 0.405039 -5
      vertex 16.453 -1.14005 6.5
      vertex 11.6977 0.405039 6.5
    endloop
  endfacet
  facet normal -0.309017 -0.951057 -0
    outer loop
      vertex 16.453 -1.14005 6.5
      vertex 11.6977 0.405039 -5
      vertex 16.453 -1.14005 -5
    endloop
  endfacet
  facet normal -0.951061 0.309002 0
    outer loop
      vertex 11.6977 0.405039 -5
      vertex 12.3157 2.30715 6.5
      vertex 12.3157 2.30715 -5
    endloop
  endfacet
  facet normal -0.951061 0.309002 0
    outer loop
      vertex 12.3157 2.30715 6.5
      vertex 11.6977 0.405039 -5
      vertex 11.6977 0.405039 6.5
    endloop
  endfacet
  facet normal 0 0 -1
    outer loop
      vertex 16.9568 0.410686 -6.5
      vertex 16.9146 0.812899 -6.5
      vertex 17.071 0.762067 -6.5
    endloop
  endfacet
  facet normal 0.951033 -0.309089 0
    outer loop
      vertex 17.071 0.762067 6.5
      vertex 16.9568 0.410686 -5
      vertex 17.071 0.762067 -6.5
    endloop
  endfacet
  facet normal 0.951062 -0.309001 -2.96972e-06
    outer loop
      vertex 16.453 -1.14005 6.5
      vertex 16.9568 0.410686 -5
      vertex 17.071 0.762067 6.5
    endloop
  endfacet
  facet normal 0.951068 -0.308981 0
    outer loop
      vertex 16.9568 0.410686 -5
      vertex 16.453 -1.14005 6.5
      vertex 16.453 -1.14005 -5
    endloop
  endfacet
  facet normal 0.951033 -0.309089 0
    outer loop
      vertex 17.071 0.762067 -6.5
      vertex 16.9568 0.410686 -5
      vertex 16.9568 0.410686 -6.5
    endloop
  endfacet
  facet normal -0.309014 0.951057 1.4039e-06
    outer loop
      vertex 13.3628 10.6506 6.5
      vertex 13.2064 10.5998 -5
      vertex 8.60752 9.10553 6.5
    endloop
  endfacet
  facet normal -0.308921 0.951088 0
    outer loop
      vertex 13.3628 10.6506 -6.5
      vertex 13.2064 10.5998 -5
      vertex 13.3628 10.6506 6.5
    endloop
  endfacet
  facet normal -0.308921 0.951088 0
    outer loop
      vertex 13.2064 10.5998 -5
      vertex 13.3628 10.6506 -6.5
      vertex 13.2064 10.5998 -6.5
    endloop
  endfacet
  facet normal -0.309018 0.951056 0
    outer loop
      vertex 8.60752 9.10553 6.5
      vertex 13.2064 10.5998 -5
      vertex 8.60752 9.10553 -5
    endloop
  endfacet
  facet normal 0 0 1
    outer loop
      vertex 13.3628 10.6506 6.5
      vertex 9.22555 7.20341 6.5
      vertex 13.9808 8.7485 6.5
    endloop
  endfacet
  facet normal 0 -0 1
    outer loop
      vertex 9.22555 7.20341 6.5
      vertex 13.3628 10.6506 6.5
      vertex 8.60752 9.10553 6.5
    endloop
  endfacet
  facet normal 0.30902 -0.951056 0
    outer loop
      vertex 9.22555 7.20341 -5
      vertex 13.9808 8.7485 6.5
      vertex 9.22555 7.20341 6.5
    endloop
  endfacet
  facet normal 0.30902 -0.951056 0
    outer loop
      vertex 13.9808 8.7485 6.5
      vertex 9.22555 7.20341 -5
      vertex 13.9808 8.7485 -5
    endloop
  endfacet
  facet normal 0.951038 0.309074 0
    outer loop
      vertex 13.3628 10.6506 6.5
      vertex 13.477 10.2992 -5
      vertex 13.3628 10.6506 -6.5
    endloop
  endfacet
  facet normal 0.951061 0.309004 2.37481e-06
    outer loop
      vertex 13.9808 8.7485 6.5
      vertex 13.477 10.2992 -5
      vertex 13.3628 10.6506 6.5
    endloop
  endfacet
  facet normal 0.951066 0.308988 0
    outer loop
      vertex 13.477 10.2992 -5
      vertex 13.9808 8.7485 6.5
      vertex 13.9808 8.7485 -5
    endloop
  endfacet
  facet normal 0.951038 0.309074 0
    outer loop
      vertex 13.3628 10.6506 -6.5
      vertex 13.477 10.2992 -5
      vertex 13.477 10.2992 -6.5
    endloop
  endfacet
  facet normal 0 0 -1
    outer loop
      vertex 13.477 10.2992 -6.5
      vertex 13.2064 10.5998 -6.5
      vertex 13.3628 10.6506 -6.5
    endloop
  endfacet
  facet normal -0.951057 -0.309014 0
    outer loop
      vertex 9.22555 7.20341 -5
      vertex 8.60752 9.10553 6.5
      vertex 8.60752 9.10553 -5
    endloop
  endfacet
  facet normal -0.951057 -0.309014 0
    outer loop
      vertex 8.60752 9.10553 6.5
      vertex 9.22555 7.20341 -5
      vertex 9.22555 7.20341 6.5
    endloop
  endfacet
  facet normal -0.809054 0.587734 0
    outer loop
      vertex 4.45377 16.3379 -5
      vertex 4.55046 16.471 -6.5
      vertex 4.45377 16.3379 -6.5
    endloop
  endfacet
  facet normal -0.809054 0.587734 0
    outer loop
      vertex 4.55046 16.471 -6.5
      vertex 4.45377 16.3379 -5
      vertex 4.55046 16.471 6.5
    endloop
  endfacet
  facet normal -0.809017 0.587785 0
    outer loop
      vertex 1.61154 12.4259 6.5
      vertex 4.45377 16.3379 -5
      vertex 1.61154 12.4259 -5
    endloop
  endfacet
  facet normal -0.809019 0.587783 -8.61442e-07
    outer loop
      vertex 4.45377 16.3379 -5
      vertex 1.61154 12.4259 6.5
      vertex 4.55046 16.471 6.5
    endloop
  endfacet
  facet normal 0 0 1
    outer loop
      vertex 4.55046 16.471 6.5
      vertex 3.22957 11.2503 6.5
      vertex 6.1685 15.2954 6.5
    endloop
  endfacet
  facet normal 0 -0 1
    outer loop
      vertex 3.22957 11.2503 6.5
      vertex 4.55046 16.471 6.5
      vertex 1.61154 12.4259 6.5
    endloop
  endfacet
  facet normal 0.809018 -0.587784 0
    outer loop
      vertex 3.22957 11.2503 6.5
      vertex 6.1685 15.2954 -5
      vertex 6.1685 15.2954 6.5
    endloop
  endfacet
  facet normal 0.809018 -0.587784 0
    outer loop
      vertex 6.1685 15.2954 -5
      vertex 3.22957 11.2503 6.5
      vertex 3.22957 11.2503 -5
    endloop
  endfacet
  facet normal 0 0 -1
    outer loop
      vertex 4.84936 16.2538 -6.5
      vertex 4.45377 16.3379 -6.5
      vertex 4.55046 16.471 -6.5
    endloop
  endfacet
  facet normal -0.587796 -0.809009 0
    outer loop
      vertex 1.61154 12.4259 -5
      vertex 3.22957 11.2503 6.5
      vertex 1.61154 12.4259 6.5
    endloop
  endfacet
  facet normal -0.587796 -0.809009 -0
    outer loop
      vertex 3.22957 11.2503 6.5
      vertex 1.61154 12.4259 -5
      vertex 3.22957 11.2503 -5
    endloop
  endfacet
  facet normal 0.587781 0.80902 0
    outer loop
      vertex 4.84936 16.2538 -5
      vertex 6.1685 15.2954 6.5
      vertex 6.1685 15.2954 -5
    endloop
  endfacet
  facet normal 0.587793 0.809011 -2.23684e-06
    outer loop
      vertex 6.1685 15.2954 6.5
      vertex 4.84936 16.2538 -5
      vertex 4.55046 16.471 6.5
    endloop
  endfacet
  facet normal 0.58785 0.80897 0
    outer loop
      vertex 4.55046 16.471 -6.5
      vertex 4.84936 16.2538 -5
      vertex 4.84936 16.2538 -6.5
    endloop
  endfacet
  facet normal 0.58785 0.80897 0
    outer loop
      vertex 4.84936 16.2538 -5
      vertex 4.55046 16.471 -6.5
      vertex 4.55046 16.471 6.5
    endloop
  endfacet
endsolid OpenSCAD_Model
