<?xml version="1.0" encoding="UTF-8" standalone="no"?>
<svg
   width="819.853pt"
   height="674.778pt"
   version="1.1"
   viewBox="-372.698 455.742 819.853 674.777"
   id="svg918"
   sodipodi:docname="Hallo Herbst.svg"
   inkscape:version="1.1.1 (3bf5ae0d25, 2021-09-20)"
   xmlns:inkscape="http://www.inkscape.org/namespaces/inkscape"
   xmlns:sodipodi="http://sodipodi.sourceforge.net/DTD/sodipodi-0.dtd"
   xmlns="http://www.w3.org/2000/svg"
   xmlns:svg="http://www.w3.org/2000/svg"
   xmlns:rdf="http://www.w3.org/1999/02/22-rdf-syntax-ns#"
   xmlns:cc="http://creativecommons.org/ns#"
   xmlns:dc="http://purl.org/dc/elements/1.1/">
  <sodipodi:namedview
     id="namedview920"
     pagecolor="#ffffff"
     bordercolor="#666666"
     borderopacity="1.0"
     inkscape:pageshadow="2"
     inkscape:pageopacity="0.0"
     inkscape:pagecheckerboard="0"
     inkscape:document-units="pt"
     showgrid="false"
     inkscape:zoom="0.60281036"
     inkscape:cx="564.02482"
     inkscape:cy="362.46889"
     inkscape:window-width="1920"
     inkscape:window-height="1017"
     inkscape:window-x="-8"
     inkscape:window-y="-8"
     inkscape:window-maximized="1"
     inkscape:current-layer="svg918" />
  <!--
	Exported with Concepts: Smarter Sketching
	Version: 2100 on iOS 16.6
	https://concepts.app/
	-->
  <title
     id="title873">B7CEE7B3-D651-4238-B5A3-6DE557379617</title>
  <desc
     id="desc875">Drawing exported from Concepts: Smarter Sketching</desc>
  <defs
     id="defs877" />
  <g
     id="Stift"
     opacity="1.000"
     style="fill:#008c00;fill-opacity:1">
    <path
       id="STROKE_28d30044-b698-4bd6-aa6d-129133ae6fe1"
       style="fill:#008c00;fill-opacity:1;stroke-width:0.75"
       d="m 62.747313,465.12966 c -17.0241,-2.2785 -32.581088,14.6259 -24.4497,31.10157 -4.372231,16.35559 -35.861813,10.05282 -49.561523,18.3413 -69.719505,19.62233 -134.73391,58.41763 -183.87598,111.71485 -16.2965,17.87486 -23.13747,42.89586 -36.79248,61.71973 -8.3782,-15.45499 -20.09742,-8.49262 -19.48535,7.14841 -7.31131,5.02063 -13.67207,9.25814 -14.60888,18.65625 -9.91767,6.30274 6.91482,18.23312 0.50809,23.75537 -9.19626,-10.65461 -21.23675,0.29762 -32.69531,-6.54785 -13.19688,1.90158 3.90078,16.69444 0.0601,24.18896 1.19978,16.21983 18.13281,15.90505 14.98975,31.36524 13.48714,0.75715 30.38623,13.18102 18.49951,27.16113 -9.80391,8.05778 -10.86951,-11.36315 -19.65234,-12.6328 -14.16017,-10.374 -31.98906,4.6418 -21.62843,19.23926 1.95207,5.77902 10.53708,29.72495 -1.89697,26.02295 -12.72128,-9.47933 -0.87873,-31.3626 -18.74561,-37.61719 -16.92983,-12.21654 -31.50012,17.25177 -15.21387,26.44483 10.04799,5.01137 25.25236,9.77482 27.78809,22.00195 -14.50865,2.65151 -32.50286,-15.56624 -44.04785,0.91994 -3.91121,11.55509 -4.47924,24.93318 -4.75049,37.21875 3.02338,7.67382 26.86968,23.06692 10.84131,27.28418 -20.34304,-3.88782 -5.86076,21.30472 7.21436,12.2065 19.79568,-7.26528 44.69065,-3.72935 56.21192,15.68115 10.34068,14.67516 25.98224,26.42007 29.31738,44.94434 9.65006,21.12042 -26.49109,-2.73884 -30.99756,-11.36426 0.1271,-13.71681 -18.71235,-22.96095 -26.37159,-10.04297 -1.74565,20.08698 29.39945,18.14108 35.66895,34.93655 -12.42891,7.2789 -24.16526,-0.1495 -32.97217,-8.5225 -22.64675,-6.25091 -24.46833,28.1367 1.94238,19.8984 32.75917,-1.8754 65.745,-14.2825 98.46387,-6.3777 5.12434,2.2002 26.84002,12.3467 17.07129,16.0195 -13.77065,0.8287 -18.73652,-18.4562 -34.95118,-13.002 -14.0602,2.596 -9.16754,23.6754 5.0814,21.0073 9.02391,2.204 41.12675,-4.351 19.58643,8.0538 -10.70025,11.9112 -26.94926,9.8487 -40.02246,4.2012 -14.4703,0.6227 -10.21637,17.5415 -2.68945,24.1318 4.83595,18.0954 31.88771,18.7225 35.32324,-0.4014 0.81576,-12.656 12.93434,-24.1657 23.53418,-27.1523 -2.58776,15.0034 -17.92383,27.4804 -14.72749,43.1118 7.61567,15.4107 31.41385,5.7766 25.13089,-10.6553 -4.64577,-7.6441 4.31219,-39.697 9.27245,-20.2939 4.7608,27.7791 26.62549,51.9855 55.54687,54.334 21.56662,3.5835 42.998755,10.719 65.00098,6.0659 26.031473,1.9868 51.878475,-5.3366 74.235353,-18.2109 10.17474,-1.6998 27.013694,-0.057 29.210452,12.0131 19.598385,-4.098 40.228913,-1.7648 58.983395,5.6089 12.02788,0.71 18.10201,-14.0262 32.60742,-8.9121 12.4946,1.3379 6.72648,-14.0818 11.6836,-16.979 15.6791,-4.2082 23.20163,24.0688 38.93994,14.666 -2.82585,-10.9381 -11.87815,-26.5871 7.07227,-22.4135 11.88853,14.7299 26.1046,29.7494 46.83398,29.5136 27.99895,7.9867 16.30631,-18.4769 -1.16748,-22.6347 -18.43408,0.4018 -32.98122,-27.3536 -8.55908,-13.3712 7.36066,4.9996 23.3577,13.0827 29.14453,3.2739 -7.37022,-13.9699 -39.30036,-14.7906 -4.52637,-19.1528 15.5361,-3.1995 25.19093,17.1965 41.27637,17.6279 10.56251,-0.9568 53.35926,4.6909 46.63037,-11.981 -21.95657,-10.976 -47.26274,-18.7299 -70.78855,-20.351 19.36528,-16.4861 53.7699,-10.709 63.98437,-38.7261 9.6498,-28.87031 37.487,-43.38777 53.97658,-67.42528 23.81039,-51.33917 43.3059,-107.94998 36.92722,-165.33984 -3.05872,-35.53421 -3.7926,-75.12053 -27.05123,-104.28662 -3.26947,-16.05937 13.35338,-41.23509 -4.43369,-51.34864 -8.34855,7.05974 -19.22183,33.06268 -23.80081,8.2339 6.32213,-17.34756 27.66083,-29.50698 24.91455,-51.07911 -0.0992,-31.25664 -30.4404,-22.96761 -28.14262,4.14558 -0.1887,9.91459 -9.79059,47.66975 -14.00538,20.23389 4.1896,-10.06054 6.44449,-26.37164 -4.08692,-33.05275 -9.02445,7.35961 -8.40229,36.05974 -25.12646,19.64795 -4.36469,-16.50013 5.00658,-34.91279 -1.34469,-51.89941 -3.77863,-12.01424 -12.77544,-23.17734 -23.63673,-29.23242 -15.28517,16.85907 -18.4403,45.28833 -0.79687,62.08593 22.81529,25.80063 -24.17909,-5.03978 -16.26105,-21.93604 2.49439,-13.73518 -8.65228,-31.06695 -23.3013,-29.6499 -8.054,10.34094 26.19843,43.79455 -0.43355,28.44434 -11.63458,-3.2739 -7.15542,-18.76744 -22.50294,-19.89844 -26.80241,-9.75105 -58.03673,-9.59163 -86.27637,-17.63232 -19.67158,-8.68193 -57.53452,6.48032 -68.104977,-13.06641 4.343955,-18.41962 -11.993866,-31.45347 -28.99005,-31.18225 z m 3.943357,10.8208 c 11.915078,4.05138 -1.545802,30.68659 -10.318372,16.80176 -2.807273,-7.31953 1.885259,-16.74217 10.318372,-16.80176 z m 20.806643,42.78956 c 42.093037,1.54653 86.508557,3.30931 124.857417,22.44873 5.26019,12.4939 20.72149,22.82026 32.73194,31.90283 -2.76109,14.26063 -26.18781,4.14567 -35.07129,-1.33594 -17.07952,-10.01605 -26.08241,13.29928 -9.97412,21.24463 10.95384,8.50048 37.46369,-21.03456 40.68162,-4.4868 -18.26677,5.61429 -35.75372,16.45082 -36.98584,38.34815 -10.50851,38.94393 -2.22719,80.09726 -8.9165,119.33788 -13.71732,-6.77958 -6.29609,-42.33013 -8.39671,-58.40184 -3.15436,-27.17384 2.25429,-53.94892 3.96243,-80.74804 -1.67506,-20.52372 -25.88807,-8.49798 -24.98437,7.02102 -11.85939,42.69014 -5.08109,87.69458 -9.81161,130.88672 -16.19917,4.71361 -7.51385,-28.46869 -10.77687,-36.89649 0.35046,-15.71286 2.77561,-60.62381 -23.94871,-39.56103 -6.55915,12.04551 -13.30441,10.92638 -21.153803,1.09131 -23.292944,-10.10024 -45.455827,10.83975 -49.022467,32.8667 0.333465,-15.93029 -9.683647,-43.13728 -31.103055,-33.66213 -24.8635425,9.46333 -23.472,47.79226 -37.983397,59.31152 -9.118478,-36.70132 8.771497,-72.70849 9.6723745,-108.35595 -6.3982495,-27.73044 -33.6948825,-5.77753 -35.3320345,12.54935 -20.168558,40.0512 -15.972255,86.84803 -5.145998,128.83447 -2.650995,19.12326 32.738123,11.01922 23.52393,22.88544 -12.237525,25.00474 14.553338,64.67397 -8.093265,83.083 -13.688272,3.41797 -50.686605,13.75262 -46.407712,-10.52343 0.747705,-26.47522 6.109095,-56.4226 -6.221205,-80.74365 -14.050178,-14.29233 -34.878328,2.79285 -34.973148,19.58352 -6.56138,14.19218 7.5464,54.00551 -13.45312,55.77687 -6.69981,-10.55744 -25.17969,4.9575 -27.66504,-1.03726 9.20018,-6.27154 29.63319,-14.47735 17.42431,-27.1538 4.02293,-14.51979 -6.60442,-28.42917 -0.28125,-43.50879 -6.591,-12.74605 -17.49648,12.98494 -27.63867,9.29447 -13.67881,-5.60874 -1.29689,-15.03422 8.15332,-14.43164 14.96715,-1.09707 15.8153,-19.582 0.89795,-20.24854 -8.00747,-4.86325 11.23782,-14.11457 1.47659,-21.40869 -4.62181,-8.0595 2.59834,-33.74157 -14.43604,-22.28613 -7.70239,6.95538 -18.99586,6.54717 -26.33056,13.84719 11.03862,-24.26391 -7.62629,-15.41924 -11.41114,-25.96143 10.74525,-32.35305 33.51749,-60.41283 56.96045,-84.76465 68.45082,-56.44126 155.1410775,-95.86535 245.175593,-94.79757 z m 165.249027,41.79345 c 9.02489,5.5717 28.85894,5.51202 30.53118,12.51605 29.96184,12.28211 -0.40716,20.1517 -13.55658,7.77496 -6.0284,-4.95487 -17.5253,-12.31892 -16.9746,-20.29101 z m 12.19043,28.71094 c 11.33495,6.24479 -21.73203,9.2173 -12.72513,17.62206 22.16428,11.05947 46.9968,6.34576 69.38525,-0.97707 7.5567,-3.57147 27.84756,18.55778 13.53077,13.87791 -8.65784,-1.47336 -32.17174,-1.27297 -26.28225,11.34375 17.20214,11.92386 45.3606,-10.01086 56.72607,12.9273 -14.68177,7.13313 -37.38754,-12.30345 -54.54053,-1.40771 -6.35734,21.14146 33.42521,18.54618 47.98832,19.43698 13.24803,-4.42502 20.9411,2.8724 4.83397,7.74459 -13.70449,18.75828 -28.62986,-4.15777 -44.40674,0.84814 -9.89817,8.25016 -20.97803,4.04948 -30.41455,-2.35252 -26.13068,-10.73747 -54.14649,12.24779 -57.29443,38.53709 -11.81444,35.01218 -3.33775,-32.37629 -4.67581,-42.18164 -1.38492,-23.13665 5.50338,-45.43101 14.61475,-66.17139 6.06814,-6.10952 14.8381,-8.84149 23.26031,-9.24749 z m 120.09083,82.8208 c 16.42192,11.49389 -2.5191,14.75462 -10.86299,7.15283 -2.11156,-5.88008 13.14059,1.27829 10.86299,-7.15283 z m -104.17531,11.94581 c 24.44359,1.90602 22.29042,35.16303 19.86328,52.54831 1.14409,23.52787 -34.7395,38.83397 -38.3291,8.80225 -4.33706,-20.69684 -1.92065,-47.01462 16.5454,-60.36621 -5.52585,1.3587 -0.1196,-1.64644 1.92042,-0.98435 z m 75.5669,1.43407 c 12.44349,-2.14181 3.67395,6.59078 -3.33254,6.94045 -8.72103,0.9869 -34.48038,17.26624 -31.51175,1.72412 10.7351,-3.94153 22.99096,-8.24617 34.84429,-8.66457 z m -268.041505,1.3081 c 13.066665,-1.71888 12.154185,14.74088 12.101065,24.11574 2.08127,12.31834 -8.956345,44.31355 -21.149417,23.27784 -4.620158,-14.86544 -4.134045,-37.30457 9.048352,-47.39358 z m -64.129395,1.7212 c 4.349145,24.74693 -7.30752,55.72208 3.76029,81.57861 7.71939,23.52278 44.162168,14.20867 25.649422,-12.78072 -1.966087,-34.38 5.996431,14.42209 24.159638,8.45214 20.87805,7.31151 26.9284,-33.21662 35.87402,-28.27302 9.05027,17.51773 13.11125,47.89986 37.82959,48.06006 14.25389,0.39704 -1.53883,-23.32284 8.08008,-21.51123 32.25518,9.43188 12.23446,35.7089 11.34522,58.61426 7.91584,37.04202 -26.96011,-7.44589 -38.69398,17.3247 -13.45825,8.83695 -20.92937,44.32213 -27.54346,47.47706 -3.67212,-13.58103 8.43413,-51.00991 -14.091812,-49.585 -21.702713,16.38333 -6.851873,48.6595 -17.750978,70.76514 -4.65225,25.0924 -47.65548,34.85457 -46.229003,1.32718 -2.089949,-20.59921 30.583696,-5.45208 36.755843,-26.6543 C 76.423495,861.69885 61.897645,829.26049 34.726165,832.75414 19.521212,828.91194 1.6081075,874.2103 -2.7240275,847.80541 -8.50451,823.72213 12.949503,786.60561 -10.092193,769.76878 -11.14211,744.19085 3.179125,718.78999 15.847262,696.65697 c 2.459753,-2.91458 4.574078,-6.92828 8.401028,-8.18258 z m 359.65431,5.72022 c 32.9313,2.66279 36.7878,41.93302 38.49608,67.83984 4.20247,49.75622 -3.63038,101.14049 -30.45136,143.99854 -4.75484,29.29705 -24.77992,15.63793 -22.6318,-4.07666 -2.49693,-19.74973 4.10234,-39.12973 5.37163,-58.6875 12.1994,-2.97857 29.8892,-14.97015 5.60195,-18.9082 -15.07526,-4.78553 -5.95898,-32.18795 -23.75539,-33.09229 -18.06623,10.04946 -18.39058,42.75157 -44.03613,41.98536 -15.54976,-2.45946 -34.50897,-5.08584 -44.96191,9.87597 -10.15648,16.51794 -21.75234,-5.25527 -34.48682,-0.31201 -14.88936,9.01054 -35.21965,36.43849 -27.0558,0.52587 -3.00834,-27.18363 12.92411,-56.63154 -3.39265,-80.09912 11.25735,24.6108 52.76274,21.97894 31.66406,-5.69824 14.6887,20.30826 43.71084,34.32157 64.667,12.97999 20.95066,-8.1944 9.61593,-49.21437 33.27099,-44.53272 20.77414,1.91222 15.86025,-19.11506 20.86087,-23.86817 9.05948,-6.23489 20.12548,-7.55704 30.83928,-7.93066 z m -624.12306,4.33593 c 9.76847,8.23733 29.37068,16.86449 23.58105,31.99805 5.89324,17.0112 24.76167,1.987 36.04835,0.62109 7.8802,12.61985 -5.4198,24.38218 -6.77202,37.11475 -7.38674,8.16493 -18.95028,11.10253 -29.05077,6.23437 -15.0981,-0.47064 -29.01918,10.6584 -44.35254,4.22173 -4.11966,-9.59589 -15.66335,-15.18215 -20.10648,-24.23584 -4.17161,-16.35508 22.23537,1.17128 27.75738,-11.9927 5.30454,-8.36563 -3.30034,-18.41083 3.42345,-26.44043 -1.65782,-8.44732 5.04274,-11.73649 9.47158,-17.52102 z m 31.78271,90.56544 c 8.90041,-0.96924 28.53713,3.9939 12.54492,10.36229 -10.10649,-0.21291 -20.10598,0.19701 -22.85742,12.09229 -7.04153,6.47988 -9.69537,-9.52718 -16.89111,-10.44434 -3.28318,-11.82103 20.59567,-10.84064 27.20361,-12.01024 z m -69.5581,38.86669 c 6.58902,0.74788 20.03017,22.38778 6.77637,18.54494 -23.95716,-12.25846 -2.70173,24.04448 -16.74756,11.68506 -11.50083,-8.28545 -9.35621,-32.32219 7.57617,-30.18163 l 2.39502,-0.0484 z m 610.38574,12.31202 c 12.92298,21.3126 -6.75639,53.26054 4.96728,77.45654 -2.17147,22.91743 43.0067,20.34499 21.63429,41.85351 -12.15477,26.53532 -52.09485,19.33657 -59.15479,49.70796 -2.19536,14.398 -31.6811,41.1021 -36.80421,33.1099 9.0462,-15.7232 21.34306,-41.6696 8.80225,-58.41063 -14.79201,-1.03069 -23.86405,19.23083 -29.82715,30.61233 -1.73302,16.4715 8.92348,40.95 -16.3872,44.9502 -8.9755,-2.0738 12.33801,-27.9297 -5.4653,-30.9932 -21.37149,5.6128 -11.22916,42.3118 -37.56153,41.7481 -21.85816,1.297 23.25602,-22.6188 12.90088,-35.9136 -4.45401,-18.533 -25.04019,0.6695 -31.13525,9.8891 -10.72668,12.4877 -28.77518,6.9079 -42.83936,10.4166 -2.2134,-6.978 7.95988,-18.5359 -2.14007,-25.377 -3.12714,-7.5623 -13.62969,-9.3743 -13.66406,-19.0342 -6.334532,-15.68163 -14.722195,2.8295 -21.878912,7.1704 -9.656393,2.1933 -10.64244,13.4154 -19.599608,16.418 -4.969252,5.4023 -0.338483,22.6519 -13.05468,13.3727 -19.79328,-6.8028 -23.483647,-32.546 -42.29004,-41.7803 -10.633965,-15.46163 -29.939408,-15.82509 -47.009767,-14.16501 -17.73849,1.71907 -12.78687,-30.06744 -33.632813,-23.87545 -13.161802,0.58207 -8.679022,20.92264 -23.07129,17.64551 -12.99045,-3.85867 -29.73109,11.50153 -40.23193,4.05904 3.15795,-22.06227 27.48726,-12.96232 39.747085,-22.64649 1.666485,-10.9641 -2.15091,-16.71804 10.67286,-25.7036 12.57405,-16.12775 -10.590022,-52.24901 16.855935,-57.49659 16.454265,-0.34651 45.65967,-4.47679 45.210938,19.85009 2.517232,13.58251 -1.997131,66.36778 21.930172,38.98388 10.209555,-14.67397 28.36593,12.83362 44.2749,8.31885 20.017725,4.90316 31.520423,-32.07535 44.167972,-4.59373 32.749348,16.19742 30.214948,-40.00719 44.608888,-56.4668 5.15565,-8.2082 9.39428,-38.09718 23.67773,-27.20215 19.40144,9.90192 9.71875,39.20738 13.27003,57.26807 -5.79246,24.38106 28.01123,36.65225 43.03125,20.47998 13.01966,-5.28596 32.33269,3.69163 41.5913,-11.51224 14.05681,-7.90165 9.71876,-50.71544 21.03076,-44.10791 9.05968,14.79228 35.33997,25.42459 27.49512,45.78808 -16.03723,15.02178 -20.45126,-17.91918 -29.77881,-15.96094 -11.92141,16.5744 5.55984,39.54169 24.74563,35.79342 17.56721,-1.26221 42.67147,-14.79805 35.79931,-35.99268 -1.55764,-27.671 -43.15022,-33.66521 -37.8208,-62.94287 9.50383,-17.83215 21.79961,6.73107 29.43603,3.70606 4.27264,-3.84229 0.1726,-14.05342 7.49696,-14.42293 z M 42.101808,854.93923 c 22.772242,6.0023 0.825105,28.02263 -12.451193,29.97804 -17.153842,2.23474 5.403015,-29.61681 12.451193,-29.97804 z m -350.192878,12.07179 c 9.36627,-2.30368 51.01573,9.63391 33.57276,12.20653 -26.72539,-1.7444 4.59432,32.14578 0.22269,45.08788 2.82039,46.27484 -26.05017,-6.15734 -27.18457,-21.46581 5.26914,-12.99771 1.64706,-28.94297 -14.56497,-30.84521 -3.82594,-3.57663 5.95235,-5.49807 7.95409,-4.98339 z m 180.53467,6.77342 c 9.61338,15.97175 1.53819,38.40187 11.32471,55.59816 10.23538,10.00751 -20.0587,53.91432 -17.21777,31.8501 6.91387,-9.8423 15.07785,-26.92205 0.92867,-34.62451 -13.40848,-5.9089 -22.73618,10.05275 -12.06606,19.97753 11.93747,23.40583 -2.94602,18.10588 -10.0752,0.47462 -12.79078,-16.75857 -34.60843,-11.28239 -52.21142,-9.61809 -14.38619,-0.3606 -26.44735,-6.97526 -35.29541,-18.07032 -12.70513,-6.52071 8.05239,-32.81071 13.82666,-18.78806 7.86644,10.64727 22.01314,17.09966 33.9917,9.48191 12.76306,3.92275 32.92133,18.09866 41.15625,0.23584 -15.25195,-18.78774 1.28839,-21.81348 19.33598,-17.91357 -0.43416,-6.46254 -1.1803,-15.4077 6.30189,-18.60361 z m -204.9668,8.18702 c 2.9217,13.56017 23.5858,18.47045 20.7627,35.9707 -9.54501,6.34637 -25.71445,-12.18869 -31.41211,-21.1919 -4.65812,-8.80597 0.78901,-13.90309 9.82763,-14.77149 l 0.82178,-0.008 z m 77.18995,6.30323 c 14.64256,5.18452 -5.31837,40.25212 -10.04004,20.56347 -5.69675,-11.58322 -2.43177,-21.18957 10.04004,-20.56347 z m 481.7124,0.3955 c 9.07492,7.06007 8.39888,30.67121 -5.1167,31.21729 -12.63097,-4.88045 -5.64045,-26.19272 2.7317,-30.85789 l 2.04773,-0.30858 z m -465.48047,56.87842 c 5.06721,15.97123 30.77077,21.75355 27.75441,40.75488 -12.63601,6.96734 -20.84358,-8.66514 -23.21919,-18.69726 -4.19591,-18.16836 -29.89062,4.09905 -29.13427,-15.24902 1.56224,-12.47184 18.45449,2.94215 24.59905,-6.8086 z m 32.59717,7.50293 c 14.65313,4.8376 8.67353,39.31935 -1.8252,13.74902 -4.66375,-5.41842 -1.45053,-9.11447 1.8252,-13.74902 z m 53.47559,10.02392 c 10.29208,8.03852 7.30284,47.14294 -3.19046,23.29248 1.35915,-7.18756 -25.51612,-19.7069 -11.04201,-22.00632 4.41558,0.96514 10.73822,1.69457 14.23247,-1.28616 z m -33.38673,5.96925 c 7.68871,8.47167 28.55976,23.63682 22.83692,32.81839 -15.51083,-3.46246 -26.25416,-17.41779 -22.83692,-32.81836 z m 115.290535,8.09618 c 9.44841,9.54001 30.419265,45.27721 3.517088,36.63281 -2.571278,-10.3956 2.82327,-24.87202 -3.517088,-36.63281 z M -94.0481,992.87332 c 18.633038,6.46556 3.620805,13.10878 -5.371605,1.91601 1.790535,-0.63867 3.58107,-1.27735 5.371605,-1.91601 z m -115.77978,2.42724 c 15.80541,0.70754 32.789,6.76834 41.60009,20.70114 3.46374,2.2075 -15.77841,-7.9132 -22.43994,-7.6904 -8.4348,2.6825 -36.89251,-7.501 -19.16015,-13.01069 z m 178.877925,4.23194 c 21.94464,8.3222 -41.99193,2.2169 -1.72998,0.003 z m -82.467775,3.3472 c 29.196167,-0.8011 -0.64324,2.0709 -11.5371,9.5127 -22.22717,12.8934 -25.06743,41.2297 -26.87988,63.337 -22.10347,-26.6606 -1.76746,-75.6303 34.64497,-72.7603 l 3.77198,-0.089 z m 88.006353,5.9882 c 23.251777,-2.2758 41.774512,14.4645 47.545897,36.0674 10.758473,17.7661 -20.560995,66.8734 -8.371597,21.2578 6.993937,-25.1102 -15.323183,-54.3414 -41.36574,-52.147 0.730477,-1.726 1.460962,-3.4521 2.19144,-5.1782 z m -64.467773,3.4571 c -15.50927,15.1864 -23.1496,49.1009 -17.6909,75.7661 8.364207,30.0402 -27.32477,2.4759 -27.84228,-12.3267 -10.64951,-22.3643 0.23547,-51.3989 25.23779,-57.4922 6.59253,-2.3368 13.37457,-4.7563 20.29539,-5.9472 z m 49.504395,6.5141 c 19.989638,2.7412 47.2483575,20.5891 40.491195,46.7124 1.1145225,21.3417 -15.375382,48.0058 -39.202147,42.75 9.733965,-24.3299 13.720455,-52.5279 2.02005,-77.2309 0.01119,-5.3631 -7.12188,-11.5412 -3.309098,-12.2315 z m -25.642095,0.5933 c 28.809157,5.7376 27.249173,43.4351 18.553732,65.0244 -6.137805,11.2924 -18.50916,30.0289 -33.303217,23.9722 -14.455147,-19.3763 -21.613215,-52.5048 -5.75391,-72.5127 5.52312,-6.7487 13.851083,-11.9527 20.503395,-16.4839 z m 165.437993,5.7627 c 1.051437,9.1625 10.826657,14.9368 10.693357,25.6684 -10.14129,16.9987 12.04241,29.7651 24.92285,17.918 14.66746,-3.2475 -0.38591,16.0265 -4.53662,20.0728 1.23528,9.9223 -14.0517,15.8561 -22.07519,14.0537 -12.60061,-10.6625 -29.986247,4.6443 -41.995607,-6.1055 -11.991735,-0.9567 -14.390933,-10.9336 -15.63576,-20.0361 -6.89502,-4.8567 -6.6504,-20.7208 4.99962,-17.8257 9.576247,7.3306 27.272519,3.6718 25.02978,-11.083 2.51403,-7.2962 5.797567,-15.7836 13.642095,-18.8364 1.5015,-1.4924 3.284534,-2.5934 4.955475,-3.8262 z m -271.729983,0.2593 c 14.38526,1.1857 -15.55441,8.0148 -3.479,0.8569 l 2.12255,-0.4629 z m 328.84717,33.9887 c 14.09225,10.1816 -12.37273,22.552 3e-5,0 z" />
    <circle
       id="STROKE_9c0d986c-8ebc-4b43-8179-b12f3050e05b"
       opacity="1.000"
       fill="#171612"
       stroke="#171612"
       stroke-width="0.1"
       stroke-opacity="1.000"
       fill-opacity="1.000"
       cx="348.986"
       cy="710.169"
       r="0.850"
       style="fill:#008c00;fill-opacity:1" />
  </g>
  <metadata
     id="metadata1131">
    <rdf:RDF>
      <cc:Work
         rdf:about="">
        <dc:title>B7CEE7B3-D651-4238-B5A3-6DE557379617</dc:title>
      </cc:Work>
    </rdf:RDF>
  </metadata>
</svg>
