solid OpenSCAD_Model
  facet normal 0.707107 0.707107 0
    outer loop
      vertex 86.6206 1.76777 10
      vertex 1.76777 86.6206 -10
      vertex 1.76777 86.6206 10
    endloop
  endfacet
  facet normal 0.707107 0.707107 0
    outer loop
      vertex 1.76777 86.6206 -10
      vertex 86.6206 1.76777 10
      vertex 86.6206 1.76777 -10
    endloop
  endfacet
  facet normal 0 0 1
    outer loop
      vertex 42.4264 -81.5 10
      vertex 40.4619 -86.5 10
      vertex 42.4264 -86.5 10
    endloop
  endfacet
  facet normal 0 0 1
    outer loop
      vertex 42.4264 -81.5 10
      vertex 33.3909 -86.5 10
      vertex 40.4619 -86.5 10
    endloop
  endfacet
  facet normal 0 0 1
    outer loop
      vertex 42.4264 -81.5 10
      vertex -33.3909 -86.5 10
      vertex 33.3909 -86.5 10
    endloop
  endfacet
  facet normal -0 0 1
    outer loop
      vertex -42.4264 -81.5 10
      vertex -33.3909 -86.5 10
      vertex 42.4264 -81.5 10
    endloop
  endfacet
  facet normal 0 0 1
    outer loop
      vertex -33.3909 -86.5 10
      vertex -42.4264 -81.5 10
      vertex -40.4619 -86.5 10
    endloop
  endfacet
  facet normal 0 0 1
    outer loop
      vertex -40.4619 -86.5 10
      vertex -42.4264 -81.5 10
      vertex -42.4264 -86.5 10
    endloop
  endfacet
  facet normal 0 0 1
    outer loop
      vertex 40.4619 -86.5 10
      vertex 44.3909 -97.5 10
      vertex 51.4619 -97.5 10
    endloop
  endfacet
  facet normal 0 0 1
    outer loop
      vertex 44.3909 -97.5 10
      vertex 40.4619 -86.5 10
      vertex 33.3909 -86.5 10
    endloop
  endfacet
  facet normal 0 0 1
    outer loop
      vertex 85.3528 -100 10
      vertex 80.3528 -97.5 10
      vertex 84.8528 -100 10
    endloop
  endfacet
  facet normal 0 0 1
    outer loop
      vertex 80.3528 -97.5 10
      vertex 84.8528 0 10
      vertex 81.3173 0 10
    endloop
  endfacet
  facet normal 0 0 1
    outer loop
      vertex 86.6206 1.76777 10
      vertex 81.3173 0 10
      vertex 84.8528 0 10
    endloop
  endfacet
  facet normal 0 0 1
    outer loop
      vertex 1.76777 86.6206 10
      vertex 81.3173 0 10
      vertex 86.6206 1.76777 10
    endloop
  endfacet
  facet normal 0 0 1
    outer loop
      vertex 0 81.3173 10
      vertex 1.76777 86.6206 10
      vertex 0 84.8528 10
    endloop
  endfacet
  facet normal 0 0 1
    outer loop
      vertex 1.76777 86.6206 10
      vertex 0 81.3173 10
      vertex 81.3173 0 10
    endloop
  endfacet
  facet normal 0 0 1
    outer loop
      vertex -1.76777 86.6206 10
      vertex 0 81.3173 10
      vertex 0 84.8528 10
    endloop
  endfacet
  facet normal 0 0 1
    outer loop
      vertex -1.76777 86.6206 10
      vertex -81.3173 0 10
      vertex 0 81.3173 10
    endloop
  endfacet
  facet normal -0 0 1
    outer loop
      vertex -86.6206 1.76777 10
      vertex -81.3173 0 10
      vertex -1.76777 86.6206 10
    endloop
  endfacet
  facet normal 0 0 1
    outer loop
      vertex -81.3173 0 10
      vertex -86.6206 1.76777 10
      vertex -84.8528 0 10
    endloop
  endfacet
  facet normal 0 0 1
    outer loop
      vertex 80.3528 -97.5 10
      vertex 85.3528 0 10
      vertex 84.8528 0 10
    endloop
  endfacet
  facet normal 0 0 1
    outer loop
      vertex 85.3528 0 10
      vertex 80.3528 -97.5 10
      vertex 85.3528 -100 10
    endloop
  endfacet
  facet normal 0 0 1
    outer loop
      vertex 80.3528 -97.5 10
      vertex 81.3173 0 10
      vertex 80.3528 0 10
    endloop
  endfacet
  facet normal 0 0 1
    outer loop
      vertex 84.8528 -100 10
      vertex 80.3528 -97.5 10
      vertex 84.8528 -102.5 10
    endloop
  endfacet
  facet normal -0 0 1
    outer loop
      vertex 51.4619 -97.5 10
      vertex 84.8528 -102.5 10
      vertex 80.3528 -97.5 10
    endloop
  endfacet
  facet normal 0 0 1
    outer loop
      vertex 42.4264 -102.5 10
      vertex 51.4619 -97.5 10
      vertex 44.3909 -97.5 10
    endloop
  endfacet
  facet normal 0 0 1
    outer loop
      vertex 42.4264 -102.5 10
      vertex 44.3909 -97.5 10
      vertex 42.4264 -97.5 10
    endloop
  endfacet
  facet normal 0 0 1
    outer loop
      vertex 51.4619 -97.5 10
      vertex 42.4264 -102.5 10
      vertex 84.8528 -102.5 10
    endloop
  endfacet
  facet normal -0 0 1
    outer loop
      vertex -40.4619 -86.5 10
      vertex -44.3909 -97.5 10
      vertex -33.3909 -86.5 10
    endloop
  endfacet
  facet normal 0 -0 1
    outer loop
      vertex -44.3909 -97.5 10
      vertex -40.4619 -86.5 10
      vertex -51.4619 -97.5 10
    endloop
  endfacet
  facet normal -0 0 1
    outer loop
      vertex -44.3909 -97.5 10
      vertex -42.4264 -102.5 10
      vertex -42.4264 -97.5 10
    endloop
  endfacet
  facet normal -0 0 1
    outer loop
      vertex -51.4619 -97.5 10
      vertex -42.4264 -102.5 10
      vertex -44.3909 -97.5 10
    endloop
  endfacet
  facet normal 0 0 1
    outer loop
      vertex -84.8528 -102.5 10
      vertex -51.4619 -97.5 10
      vertex -80.3528 -97.5 10
    endloop
  endfacet
  facet normal -0 0 1
    outer loop
      vertex -84.8528 0 10
      vertex -80.3528 -97.5 10
      vertex -81.3173 0 10
    endloop
  endfacet
  facet normal -0 0 1
    outer loop
      vertex -85.3528 0 10
      vertex -80.3528 -97.5 10
      vertex -84.8528 0 10
    endloop
  endfacet
  facet normal 0 0 1
    outer loop
      vertex -84.8528 -102.5 10
      vertex -80.3528 -97.5 10
      vertex -84.8528 -100 10
    endloop
  endfacet
  facet normal 0 0 1
    outer loop
      vertex -51.4619 -97.5 10
      vertex -84.8528 -102.5 10
      vertex -42.4264 -102.5 10
    endloop
  endfacet
  facet normal 0 0 1
    outer loop
      vertex -85.3528 -100 10
      vertex -80.3528 -97.5 10
      vertex -85.3528 0 10
    endloop
  endfacet
  facet normal 0 0 1
    outer loop
      vertex -80.3528 -97.5 10
      vertex -85.3528 -100 10
      vertex -84.8528 -100 10
    endloop
  endfacet
  facet normal 0 0 1
    outer loop
      vertex -80.3528 0 10
      vertex -81.3173 0 10
      vertex -80.3528 -97.5 10
    endloop
  endfacet
  facet normal -0.707107 -0.707107 0
    outer loop
      vertex 38.8909 42.4264 -10
      vertex 81.3173 0 -10
      vertex 38.8909 42.4264 -8
    endloop
  endfacet
  facet normal -0.707107 -0.707107 0
    outer loop
      vertex 38.8909 42.4264 -8
      vertex 0 81.3173 10
      vertex 0 81.3173 -8
    endloop
  endfacet
  facet normal -0.707107 -0.707107 -0
    outer loop
      vertex 81.3173 0 10
      vertex 38.8909 42.4264 -8
      vertex 81.3173 0 -10
    endloop
  endfacet
  facet normal -0.707107 -0.707107 0
    outer loop
      vertex 38.8909 42.4264 -8
      vertex 81.3173 0 10
      vertex 0 81.3173 10
    endloop
  endfacet
  facet normal 0 0 -1
    outer loop
      vertex -85.8528 -40 -10
      vertex -85.3528 -20 -10
      vertex -85.3528 -40 -10
    endloop
  endfacet
  facet normal -0 0 -1
    outer loop
      vertex -85.3528 -20 -10
      vertex -85.8528 -40 -10
      vertex -85.8528 -20 -10
    endloop
  endfacet
  facet normal 0 0 -1
    outer loop
      vertex -80.3528 -97.5 -10
      vertex -85.3528 -40 -10
      vertex -80.3528 -40 -10
    endloop
  endfacet
  facet normal 0 0 -1
    outer loop
      vertex -85.3528 -20 -10
      vertex -80.3528 -40 -10
      vertex -85.3528 -40 -10
    endloop
  endfacet
  facet normal 0 0 -1
    outer loop
      vertex -80.3528 -40 -10
      vertex -85.3528 -20 -10
      vertex -84.8528 0 -10
    endloop
  endfacet
  facet normal -0 0 -1
    outer loop
      vertex -84.8528 0 -10
      vertex -85.3528 -20 -10
      vertex -85.3528 0 -10
    endloop
  endfacet
  facet normal 0 0 -1
    outer loop
      vertex -42.4264 -102.5 -10
      vertex -44.3909 -97.5 -10
      vertex -42.4264 -97.5 -10
    endloop
  endfacet
  facet normal 0 0 -1
    outer loop
      vertex -42.4264 -102.5 -10
      vertex -51.4619 -97.5 -10
      vertex -44.3909 -97.5 -10
    endloop
  endfacet
  facet normal 0 0 -1
    outer loop
      vertex -84.8528 -102.5 -10
      vertex -51.4619 -97.5 -10
      vertex -42.4264 -102.5 -10
    endloop
  endfacet
  facet normal 0 0 -1
    outer loop
      vertex -85.3528 -100 -10
      vertex -80.3528 -97.5 -10
      vertex -84.8528 -100 -10
    endloop
  endfacet
  facet normal 0 0 -1
    outer loop
      vertex -85.3528 -40 -10
      vertex -80.3528 -97.5 -10
      vertex -85.3528 -100 -10
    endloop
  endfacet
  facet normal 0 0 -1
    outer loop
      vertex -80.3528 -20 -10
      vertex -81.3173 0 -10
      vertex -80.3528 0 -10
    endloop
  endfacet
  facet normal 0 0 -1
    outer loop
      vertex -84.8528 -100 -10
      vertex -80.3528 -97.5 -10
      vertex -84.8528 -102.5 -10
    endloop
  endfacet
  facet normal -0 0 -1
    outer loop
      vertex -51.4619 -97.5 -10
      vertex -84.8528 -102.5 -10
      vertex -80.3528 -97.5 -10
    endloop
  endfacet
  facet normal 0 0 -1
    outer loop
      vertex -44.3909 -97.5 -10
      vertex -40.4619 -86.5 -10
      vertex -33.3909 -86.5 -10
    endloop
  endfacet
  facet normal 0 0 -1
    outer loop
      vertex -40.4619 -86.5 -10
      vertex -44.3909 -97.5 -10
      vertex -51.4619 -97.5 -10
    endloop
  endfacet
  facet normal 0 0 -1
    outer loop
      vertex -80.3528 -40 -10
      vertex 80.3528 -20 -10
      vertex 80.3528 -40 -10
    endloop
  endfacet
  facet normal -0 0 -1
    outer loop
      vertex 80.3528 -20 -10
      vertex -80.3528 -40 -10
      vertex -80.3528 -20 -10
    endloop
  endfacet
  facet normal 0 0 -1
    outer loop
      vertex 80.3528 -97.5 -10
      vertex 84.8528 -100 -10
      vertex 84.8528 -102.5 -10
    endloop
  endfacet
  facet normal 0 0 -1
    outer loop
      vertex 84.8528 -100 -10
      vertex 80.3528 -40 -10
      vertex 84.8528 0 -10
    endloop
  endfacet
  facet normal 0 0 -1
    outer loop
      vertex 84.8528 -100 -10
      vertex 80.3528 -97.5 -10
      vertex 80.3528 -40 -10
    endloop
  endfacet
  facet normal 0 0 -1
    outer loop
      vertex 84.8528 -102.5 -10
      vertex 51.4619 -97.5 -10
      vertex 80.3528 -97.5 -10
    endloop
  endfacet
  facet normal 0 0 -1
    outer loop
      vertex 42.4264 -102.5 -10
      vertex 51.4619 -97.5 -10
      vertex 84.8528 -102.5 -10
    endloop
  endfacet
  facet normal -0 0 -1
    outer loop
      vertex 51.4619 -97.5 -10
      vertex 42.4264 -102.5 -10
      vertex 44.3909 -97.5 -10
    endloop
  endfacet
  facet normal -0 0 -1
    outer loop
      vertex 44.3909 -97.5 -10
      vertex 42.4264 -102.5 -10
      vertex 42.4264 -97.5 -10
    endloop
  endfacet
  facet normal 0 0 -1
    outer loop
      vertex 84.8528 -100 -10
      vertex 85.3528 -40 -10
      vertex 85.3528 -100 -10
    endloop
  endfacet
  facet normal 0 0 -1
    outer loop
      vertex 84.8528 0 -10
      vertex 85.3528 -40 -10
      vertex 84.8528 -100 -10
    endloop
  endfacet
  facet normal 0 0 -1
    outer loop
      vertex 85.3528 -40 -10
      vertex 84.8528 0 -10
      vertex 85.3528 -20 -10
    endloop
  endfacet
  facet normal 0 0 -1
    outer loop
      vertex 85.3528 -20 -10
      vertex 84.8528 0 -10
      vertex 85.3528 0 -10
    endloop
  endfacet
  facet normal 0 0 -1
    outer loop
      vertex 85.3528 -40 -10
      vertex 85.8528 -20 -10
      vertex 85.8528 -40 -10
    endloop
  endfacet
  facet normal -0 0 -1
    outer loop
      vertex 85.8528 -20 -10
      vertex 85.3528 -40 -10
      vertex 85.3528 -20 -10
    endloop
  endfacet
  facet normal 0 0 -1
    outer loop
      vertex 81.3173 0 -10
      vertex 86.6206 1.76777 -10
      vertex 84.8528 0 -10
    endloop
  endfacet
  facet normal 0 0 -1
    outer loop
      vertex 38.8909 42.4264 -10
      vertex 86.6206 1.76777 -10
      vertex 81.3173 0 -10
    endloop
  endfacet
  facet normal 0 0 -1
    outer loop
      vertex 10.4635 58.853 -10
      vertex 38.8909 42.4264 -10
      vertex 11.5 57.4264 -10
    endloop
  endfacet
  facet normal 0 0 -1
    outer loop
      vertex 38.8909 42.4264 -10
      vertex 1.76777 86.6206 -10
      vertex 86.6206 1.76777 -10
    endloop
  endfacet
  facet normal 0 0 -1
    outer loop
      vertex 10.4635 58.853 -10
      vertex 1.76777 86.6206 -10
      vertex 38.8909 42.4264 -10
    endloop
  endfacet
  facet normal 0 0 -1
    outer loop
      vertex 0 84.8528 -10
      vertex 10.4635 58.853 -10
      vertex 8.78647 58.3081 -10
    endloop
  endfacet
  facet normal 0 0 -1
    outer loop
      vertex 80.3528 -20 -10
      vertex 84.8528 0 -10
      vertex 80.3528 -40 -10
    endloop
  endfacet
  facet normal -0 0 -1
    outer loop
      vertex 84.8528 0 -10
      vertex 80.3528 -20 -10
      vertex 81.3173 0 -10
    endloop
  endfacet
  facet normal -0 0 -1
    outer loop
      vertex 81.3173 0 -10
      vertex 80.3528 -20 -10
      vertex 80.3528 0 -10
    endloop
  endfacet
  facet normal 0 0 -1
    outer loop
      vertex 44.3909 -97.5 -10
      vertex 40.4619 -86.5 -10
      vertex 51.4619 -97.5 -10
    endloop
  endfacet
  facet normal -0 -0 -1
    outer loop
      vertex 40.4619 -86.5 -10
      vertex 44.3909 -97.5 -10
      vertex 33.3909 -86.5 -10
    endloop
  endfacet
  facet normal 0 0 -1
    outer loop
      vertex 40.4619 -86.5 -10
      vertex 42.4264 -81.5 -10
      vertex 42.4264 -86.5 -10
    endloop
  endfacet
  facet normal 0 0 -1
    outer loop
      vertex 33.3909 -86.5 -10
      vertex 42.4264 -81.5 -10
      vertex 40.4619 -86.5 -10
    endloop
  endfacet
  facet normal 0 0 -1
    outer loop
      vertex -33.3909 -86.5 -10
      vertex 42.4264 -81.5 -10
      vertex 33.3909 -86.5 -10
    endloop
  endfacet
  facet normal 0 0 -1
    outer loop
      vertex -42.4264 -81.5 -10
      vertex -33.3909 -86.5 -10
      vertex -40.4619 -86.5 -10
    endloop
  endfacet
  facet normal 0 0 -1
    outer loop
      vertex -42.4264 -81.5 -10
      vertex -40.4619 -86.5 -10
      vertex -42.4264 -86.5 -10
    endloop
  endfacet
  facet normal 0 0 -1
    outer loop
      vertex -33.3909 -86.5 -10
      vertex -42.4264 -81.5 -10
      vertex 42.4264 -81.5 -10
    endloop
  endfacet
  facet normal 0 0 -1
    outer loop
      vertex 38.8909 42.4264 -10
      vertex 10.4635 55.9998 -10
      vertex 11.5 57.4264 -10
    endloop
  endfacet
  facet normal 0 0 -1
    outer loop
      vertex -9.53647 55.9998 -10
      vertex 10.4635 55.9998 -10
      vertex 38.8909 42.4264 -10
    endloop
  endfacet
  facet normal 0 0 -1
    outer loop
      vertex -8.5 57.4264 -10
      vertex 8.78647 58.3081 -10
      vertex 8.78647 56.5447 -10
    endloop
  endfacet
  facet normal 0 0 -1
    outer loop
      vertex 10.4635 58.853 -10
      vertex 0 84.8528 -10
      vertex 1.76777 86.6206 -10
    endloop
  endfacet
  facet normal 0 0 -1
    outer loop
      vertex 8.78647 58.3081 -10
      vertex -9.53647 58.853 -10
      vertex 0 84.8528 -10
    endloop
  endfacet
  facet normal -0 0 -1
    outer loop
      vertex 8.78647 58.3081 -10
      vertex -8.5 57.4264 -10
      vertex -9.53647 58.853 -10
    endloop
  endfacet
  facet normal 0 0 -1
    outer loop
      vertex 10.4635 55.9998 -10
      vertex -9.53647 55.9998 -10
      vertex 8.78647 56.5447 -10
    endloop
  endfacet
  facet normal -0 0 -1
    outer loop
      vertex 8.78647 56.5447 -10
      vertex -9.53647 55.9998 -10
      vertex -8.5 57.4264 -10
    endloop
  endfacet
  facet normal -0 0 -1
    outer loop
      vertex -11.2135 56.5447 -10
      vertex -38.8909 42.4264 -10
      vertex -11.2135 58.3081 -10
    endloop
  endfacet
  facet normal -0 0 -1
    outer loop
      vertex -9.53647 55.9998 -10
      vertex -38.8909 42.4264 -10
      vertex -11.2135 56.5447 -10
    endloop
  endfacet
  facet normal 0 0 -1
    outer loop
      vertex -38.8909 42.4264 -10
      vertex -9.53647 55.9998 -10
      vertex 38.8909 42.4264 -10
    endloop
  endfacet
  facet normal -0 0 -1
    outer loop
      vertex 0 84.8528 -10
      vertex -9.53647 58.853 -10
      vertex -1.76777 86.6206 -10
    endloop
  endfacet
  facet normal 0 0 -1
    outer loop
      vertex -11.2135 58.3081 -10
      vertex -1.76777 86.6206 -10
      vertex -9.53647 58.853 -10
    endloop
  endfacet
  facet normal 0 0 -1
    outer loop
      vertex -38.8909 42.4264 -10
      vertex -1.76777 86.6206 -10
      vertex -11.2135 58.3081 -10
    endloop
  endfacet
  facet normal 0 0 -1
    outer loop
      vertex -86.6206 1.76777 -10
      vertex -38.8909 42.4264 -10
      vertex -81.3173 0 -10
    endloop
  endfacet
  facet normal 0 0 -1
    outer loop
      vertex -80.3528 -40 -10
      vertex -84.8528 0 -10
      vertex -80.3528 -20 -10
    endloop
  endfacet
  facet normal 0 0 -1
    outer loop
      vertex -80.3528 -20 -10
      vertex -84.8528 0 -10
      vertex -81.3173 0 -10
    endloop
  endfacet
  facet normal 0 0 -1
    outer loop
      vertex -86.6206 1.76777 -10
      vertex -81.3173 0 -10
      vertex -84.8528 0 -10
    endloop
  endfacet
  facet normal -0 0 -1
    outer loop
      vertex -38.8909 42.4264 -10
      vertex -86.6206 1.76777 -10
      vertex -1.76777 86.6206 -10
    endloop
  endfacet
  facet normal 0.707101 -0.707113 0
    outer loop
      vertex 84.8528 0 -10
      vertex 86.6206 1.76777 10
      vertex 84.8528 0 10
    endloop
  endfacet
  facet normal 0.707101 -0.707113 0
    outer loop
      vertex 86.6206 1.76777 10
      vertex 84.8528 0 -10
      vertex 86.6206 1.76777 -10
    endloop
  endfacet
  facet normal -0.707113 0.707101 0
    outer loop
      vertex 0 84.8528 -10
      vertex 1.76777 86.6206 10
      vertex 1.76777 86.6206 -10
    endloop
  endfacet
  facet normal -0.707113 0.707101 0
    outer loop
      vertex 1.76777 86.6206 10
      vertex 0 84.8528 -10
      vertex 0 84.8528 10
    endloop
  endfacet
  facet normal -0.707107 0.707107 0
    outer loop
      vertex -86.6206 1.76777 -10
      vertex -1.76777 86.6206 10
      vertex -1.76777 86.6206 -10
    endloop
  endfacet
  facet normal -0.707107 0.707107 0
    outer loop
      vertex -1.76777 86.6206 10
      vertex -86.6206 1.76777 -10
      vertex -86.6206 1.76777 10
    endloop
  endfacet
  facet normal 0.707107 -0.707107 0
    outer loop
      vertex 0 81.3173 10
      vertex -38.8909 42.4264 -8
      vertex 0 81.3173 -8
    endloop
  endfacet
  facet normal 0.707107 -0.707107 0
    outer loop
      vertex -81.3173 0 10
      vertex -38.8909 42.4264 -8
      vertex 0 81.3173 10
    endloop
  endfacet
  facet normal 0.707107 -0.707107 0
    outer loop
      vertex -81.3173 0 -10
      vertex -38.8909 42.4264 -8
      vertex -81.3173 0 10
    endloop
  endfacet
  facet normal 0.707107 -0.707107 0
    outer loop
      vertex -38.8909 42.4264 -8
      vertex -81.3173 0 -10
      vertex -38.8909 42.4264 -10
    endloop
  endfacet
  facet normal 0.707113 0.707101 0
    outer loop
      vertex 0 84.8528 10
      vertex -1.76777 86.6206 -10
      vertex -1.76777 86.6206 10
    endloop
  endfacet
  facet normal 0.707113 0.707101 0
    outer loop
      vertex -1.76777 86.6206 -10
      vertex 0 84.8528 10
      vertex 0 84.8528 -10
    endloop
  endfacet
  facet normal -0.707101 -0.707113 0
    outer loop
      vertex -86.6206 1.76777 -10
      vertex -84.8528 0 10
      vertex -86.6206 1.76777 10
    endloop
  endfacet
  facet normal -0.707101 -0.707113 -0
    outer loop
      vertex -84.8528 0 10
      vertex -86.6206 1.76777 -10
      vertex -84.8528 0 -10
    endloop
  endfacet
  facet normal 0 -1 0
    outer loop
      vertex -38.8909 42.4264 -10
      vertex 38.8909 42.4264 -8
      vertex -38.8909 42.4264 -8
    endloop
  endfacet
  facet normal 0 -1 -0
    outer loop
      vertex 38.8909 42.4264 -8
      vertex -38.8909 42.4264 -10
      vertex 38.8909 42.4264 -10
    endloop
  endfacet
  facet normal 0 0 1
    outer loop
      vertex 8.78647 58.3081 -8
      vertex -9.53647 58.853 -8
      vertex -8.5 57.4264 -8
    endloop
  endfacet
  facet normal 0 0 1
    outer loop
      vertex 0 81.3173 -8
      vertex -11.2135 58.3081 -8
      vertex -9.53647 58.853 -8
    endloop
  endfacet
  facet normal 0 0 1
    outer loop
      vertex -11.2135 58.3081 -8
      vertex -38.8909 42.4264 -8
      vertex -11.2135 56.5447 -8
    endloop
  endfacet
  facet normal 0 0 1
    outer loop
      vertex -38.8909 42.4264 -8
      vertex -11.2135 58.3081 -8
      vertex 0 81.3173 -8
    endloop
  endfacet
  facet normal 0 0 1
    outer loop
      vertex 38.8909 42.4264 -8
      vertex 10.4635 58.853 -8
      vertex 11.5 57.4264 -8
    endloop
  endfacet
  facet normal -0 0 1
    outer loop
      vertex -9.53647 58.853 -8
      vertex 8.78647 58.3081 -8
      vertex 0 81.3173 -8
    endloop
  endfacet
  facet normal 0 0 1
    outer loop
      vertex 10.4635 58.853 -8
      vertex 0 81.3173 -8
      vertex 8.78647 58.3081 -8
    endloop
  endfacet
  facet normal 0 0 1
    outer loop
      vertex 0 81.3173 -8
      vertex 10.4635 58.853 -8
      vertex 38.8909 42.4264 -8
    endloop
  endfacet
  facet normal -0 0 1
    outer loop
      vertex 10.4635 55.9998 -8
      vertex 38.8909 42.4264 -8
      vertex 11.5 57.4264 -8
    endloop
  endfacet
  facet normal 0 0 1
    outer loop
      vertex -9.53647 55.9998 -8
      vertex 10.4635 55.9998 -8
      vertex 8.78647 56.5447 -8
    endloop
  endfacet
  facet normal 0 0 1
    outer loop
      vertex 8.78647 58.3081 -8
      vertex -8.5 57.4264 -8
      vertex 8.78647 56.5447 -8
    endloop
  endfacet
  facet normal 0 0 1
    outer loop
      vertex -9.53647 55.9998 -8
      vertex 8.78647 56.5447 -8
      vertex -8.5 57.4264 -8
    endloop
  endfacet
  facet normal 0 0 1
    outer loop
      vertex 10.4635 55.9998 -8
      vertex -9.53647 55.9998 -8
      vertex 38.8909 42.4264 -8
    endloop
  endfacet
  facet normal 0 0 1
    outer loop
      vertex -9.53647 55.9998 -8
      vertex -38.8909 42.4264 -8
      vertex 38.8909 42.4264 -8
    endloop
  endfacet
  facet normal 0 0 1
    outer loop
      vertex -38.8909 42.4264 -8
      vertex -9.53647 55.9998 -8
      vertex -11.2135 56.5447 -8
    endloop
  endfacet
  facet normal -0.809021 -0.587779 0
    outer loop
      vertex -8.5 57.4264 -10
      vertex -9.53647 58.853 -8
      vertex -9.53647 58.853 -10
    endloop
  endfacet
  facet normal -0.809021 -0.587779 0
    outer loop
      vertex -9.53647 58.853 -8
      vertex -8.5 57.4264 -10
      vertex -8.5 57.4264 -8
    endloop
  endfacet
  facet normal 1 -0 0
    outer loop
      vertex -11.2135 56.5447 -8
      vertex -11.2135 58.3081 -10
      vertex -11.2135 58.3081 -8
    endloop
  endfacet
  facet normal 1 0 0
    outer loop
      vertex -11.2135 58.3081 -10
      vertex -11.2135 56.5447 -8
      vertex -11.2135 56.5447 -10
    endloop
  endfacet
  facet normal 0.309017 -0.951057 0
    outer loop
      vertex -11.2135 58.3081 -10
      vertex -9.53647 58.853 -8
      vertex -11.2135 58.3081 -8
    endloop
  endfacet
  facet normal 0.309017 -0.951057 0
    outer loop
      vertex -9.53647 58.853 -8
      vertex -11.2135 58.3081 -10
      vertex -9.53647 58.853 -10
    endloop
  endfacet
  facet normal 0.309017 0.951057 -0
    outer loop
      vertex -9.53647 55.9998 -10
      vertex -11.2135 56.5447 -8
      vertex -9.53647 55.9998 -8
    endloop
  endfacet
  facet normal 0.309017 0.951057 0
    outer loop
      vertex -11.2135 56.5447 -8
      vertex -9.53647 55.9998 -10
      vertex -11.2135 56.5447 -10
    endloop
  endfacet
  facet normal -0.809021 0.587779 0
    outer loop
      vertex -9.53647 55.9998 -10
      vertex -8.5 57.4264 -8
      vertex -8.5 57.4264 -10
    endloop
  endfacet
  facet normal -0.809021 0.587779 0
    outer loop
      vertex -8.5 57.4264 -8
      vertex -9.53647 55.9998 -10
      vertex -9.53647 55.9998 -8
    endloop
  endfacet
  facet normal -0.809013 -0.587791 0
    outer loop
      vertex 11.5 57.4264 -10
      vertex 10.4635 58.853 -8
      vertex 10.4635 58.853 -10
    endloop
  endfacet
  facet normal -0.809013 -0.587791 0
    outer loop
      vertex 10.4635 58.853 -8
      vertex 11.5 57.4264 -10
      vertex 11.5 57.4264 -8
    endloop
  endfacet
  facet normal 1 -0 0
    outer loop
      vertex 8.78647 56.5447 -8
      vertex 8.78647 58.3081 -10
      vertex 8.78647 58.3081 -8
    endloop
  endfacet
  facet normal 1 0 0
    outer loop
      vertex 8.78647 58.3081 -10
      vertex 8.78647 56.5447 -8
      vertex 8.78647 56.5447 -10
    endloop
  endfacet
  facet normal 0.309017 -0.951057 0
    outer loop
      vertex 8.78647 58.3081 -10
      vertex 10.4635 58.853 -8
      vertex 8.78647 58.3081 -8
    endloop
  endfacet
  facet normal 0.309017 -0.951057 0
    outer loop
      vertex 10.4635 58.853 -8
      vertex 8.78647 58.3081 -10
      vertex 10.4635 58.853 -10
    endloop
  endfacet
  facet normal -0.809013 0.587791 0
    outer loop
      vertex 10.4635 55.9998 -10
      vertex 11.5 57.4264 -8
      vertex 11.5 57.4264 -10
    endloop
  endfacet
  facet normal -0.809013 0.587791 0
    outer loop
      vertex 11.5 57.4264 -8
      vertex 10.4635 55.9998 -10
      vertex 10.4635 55.9998 -8
    endloop
  endfacet
  facet normal 0.309017 0.951057 -0
    outer loop
      vertex 10.4635 55.9998 -10
      vertex 8.78647 56.5447 -8
      vertex 10.4635 55.9998 -8
    endloop
  endfacet
  facet normal 0.309017 0.951057 0
    outer loop
      vertex 8.78647 56.5447 -8
      vertex 10.4635 55.9998 -10
      vertex 8.78647 56.5447 -10
    endloop
  endfacet
  facet normal -1 0 0
    outer loop
      vertex -85.3528 -40 -10
      vertex -85.3528 -100 -10
      vertex -85.3528 -40 -5
    endloop
  endfacet
  facet normal -1 0 0
    outer loop
      vertex -85.3528 -20 -5
      vertex -85.3528 0 -10
      vertex -85.3528 -20 -10
    endloop
  endfacet
  facet normal -1 0 0
    outer loop
      vertex -85.3528 0 -10
      vertex -85.3528 -20 -5
      vertex -85.3528 0 10
    endloop
  endfacet
  facet normal -1 0 0
    outer loop
      vertex -85.3528 -40 -5
      vertex -85.3528 0 10
      vertex -85.3528 -20 -5
    endloop
  endfacet
  facet normal -1 0 0
    outer loop
      vertex -85.3528 -100 10
      vertex -85.3528 -40 -5
      vertex -85.3528 -100 -10
    endloop
  endfacet
  facet normal -1 0 0
    outer loop
      vertex -85.3528 -40 -5
      vertex -85.3528 -100 10
      vertex -85.3528 0 10
    endloop
  endfacet
  facet normal 1 0 0
    outer loop
      vertex -80.3528 0 10
      vertex -80.3528 -20 -5
      vertex -80.3528 0 -10
    endloop
  endfacet
  facet normal 1 0 0
    outer loop
      vertex -80.3528 0 10
      vertex -80.3528 -40 -5
      vertex -80.3528 -20 -5
    endloop
  endfacet
  facet normal 1 -0 0
    outer loop
      vertex -80.3528 -97.5 10
      vertex -80.3528 -40 -5
      vertex -80.3528 0 10
    endloop
  endfacet
  facet normal 1 0 0
    outer loop
      vertex -80.3528 -97.5 -10
      vertex -80.3528 -40 -5
      vertex -80.3528 -97.5 10
    endloop
  endfacet
  facet normal 1 0 0
    outer loop
      vertex -80.3528 -40 -5
      vertex -80.3528 -97.5 -10
      vertex -80.3528 -40 -10
    endloop
  endfacet
  facet normal 1 0 0
    outer loop
      vertex -80.3528 0 -10
      vertex -80.3528 -20 -5
      vertex -80.3528 -20 -10
    endloop
  endfacet
  facet normal 0 1 -0
    outer loop
      vertex -80.3528 0 -10
      vertex -81.3173 0 10
      vertex -80.3528 0 10
    endloop
  endfacet
  facet normal 0 1 0
    outer loop
      vertex -81.3173 0 10
      vertex -80.3528 0 -10
      vertex -81.3173 0 -10
    endloop
  endfacet
  facet normal 0 1 -0
    outer loop
      vertex -84.8528 0 -10
      vertex -85.3528 0 10
      vertex -84.8528 0 10
    endloop
  endfacet
  facet normal 0 1 0
    outer loop
      vertex -85.3528 0 10
      vertex -84.8528 0 -10
      vertex -85.3528 0 -10
    endloop
  endfacet
  facet normal -1 0 0
    outer loop
      vertex 80.3528 -40 -10
      vertex 80.3528 -97.5 -10
      vertex 80.3528 -40 -5
    endloop
  endfacet
  facet normal -1 0 0
    outer loop
      vertex 80.3528 -20 -5
      vertex 80.3528 0 -10
      vertex 80.3528 -20 -10
    endloop
  endfacet
  facet normal -1 0 0
    outer loop
      vertex 80.3528 0 -10
      vertex 80.3528 -20 -5
      vertex 80.3528 0 10
    endloop
  endfacet
  facet normal -1 0 0
    outer loop
      vertex 80.3528 -40 -5
      vertex 80.3528 0 10
      vertex 80.3528 -20 -5
    endloop
  endfacet
  facet normal -1 0 0
    outer loop
      vertex 80.3528 -97.5 10
      vertex 80.3528 -40 -5
      vertex 80.3528 -97.5 -10
    endloop
  endfacet
  facet normal -1 0 0
    outer loop
      vertex 80.3528 -40 -5
      vertex 80.3528 -97.5 10
      vertex 80.3528 0 10
    endloop
  endfacet
  facet normal 1 0 0
    outer loop
      vertex 85.3528 0 10
      vertex 85.3528 -20 -5
      vertex 85.3528 0 -10
    endloop
  endfacet
  facet normal 1 0 0
    outer loop
      vertex 85.3528 0 10
      vertex 85.3528 -40 -5
      vertex 85.3528 -20 -5
    endloop
  endfacet
  facet normal 1 -0 0
    outer loop
      vertex 85.3528 -100 10
      vertex 85.3528 -40 -5
      vertex 85.3528 0 10
    endloop
  endfacet
  facet normal 1 0 0
    outer loop
      vertex 85.3528 -100 -10
      vertex 85.3528 -40 -5
      vertex 85.3528 -100 10
    endloop
  endfacet
  facet normal 1 0 0
    outer loop
      vertex 85.3528 -40 -5
      vertex 85.3528 -100 -10
      vertex 85.3528 -40 -10
    endloop
  endfacet
  facet normal 1 0 0
    outer loop
      vertex 85.3528 0 -10
      vertex 85.3528 -20 -5
      vertex 85.3528 -20 -10
    endloop
  endfacet
  facet normal 0 1 -0
    outer loop
      vertex 85.3528 0 -10
      vertex 84.8528 0 10
      vertex 85.3528 0 10
    endloop
  endfacet
  facet normal 0 1 0
    outer loop
      vertex 84.8528 0 10
      vertex 85.3528 0 -10
      vertex 84.8528 0 -10
    endloop
  endfacet
  facet normal 0 1 -0
    outer loop
      vertex 81.3173 0 -10
      vertex 80.3528 0 10
      vertex 81.3173 0 10
    endloop
  endfacet
  facet normal 0 1 0
    outer loop
      vertex 80.3528 0 10
      vertex 81.3173 0 -10
      vertex 80.3528 0 -10
    endloop
  endfacet
  facet normal 0 1 -0
    outer loop
      vertex 85.8528 -20 -10
      vertex 85.3528 -20 -5
      vertex 85.8528 -20 -5
    endloop
  endfacet
  facet normal 0 1 0
    outer loop
      vertex 85.3528 -20 -5
      vertex 85.8528 -20 -10
      vertex 85.3528 -20 -10
    endloop
  endfacet
  facet normal 0 1 -0
    outer loop
      vertex -85.3528 -20 -10
      vertex -85.8528 -20 -5
      vertex -85.3528 -20 -5
    endloop
  endfacet
  facet normal 0 1 0
    outer loop
      vertex -85.8528 -20 -5
      vertex -85.3528 -20 -10
      vertex -85.8528 -20 -10
    endloop
  endfacet
  facet normal 0 1 -0
    outer loop
      vertex 80.3528 -20 -10
      vertex -80.3528 -20 -5
      vertex 80.3528 -20 -5
    endloop
  endfacet
  facet normal 0 1 0
    outer loop
      vertex -80.3528 -20 -5
      vertex 80.3528 -20 -10
      vertex -80.3528 -20 -10
    endloop
  endfacet
  facet normal 1 -0 0
    outer loop
      vertex 85.8528 -40 -5
      vertex 85.8528 -20 -10
      vertex 85.8528 -20 -5
    endloop
  endfacet
  facet normal 1 0 0
    outer loop
      vertex 85.8528 -20 -10
      vertex 85.8528 -40 -5
      vertex 85.8528 -40 -10
    endloop
  endfacet
  facet normal -0 0 1
    outer loop
      vertex 85.3528 -20 -5
      vertex 85.8528 -40 -5
      vertex 85.8528 -20 -5
    endloop
  endfacet
  facet normal 0 0 1
    outer loop
      vertex 85.8528 -40 -5
      vertex 85.3528 -20 -5
      vertex 85.3528 -40 -5
    endloop
  endfacet
  facet normal -0 0 1
    outer loop
      vertex -85.8528 -20 -5
      vertex -85.3528 -40 -5
      vertex -85.3528 -20 -5
    endloop
  endfacet
  facet normal 0 0 1
    outer loop
      vertex -85.3528 -40 -5
      vertex -85.8528 -20 -5
      vertex -85.8528 -40 -5
    endloop
  endfacet
  facet normal -0 0 1
    outer loop
      vertex -80.3528 -20 -5
      vertex 80.3528 -40 -5
      vertex 80.3528 -20 -5
    endloop
  endfacet
  facet normal 0 0 1
    outer loop
      vertex 80.3528 -40 -5
      vertex -80.3528 -20 -5
      vertex -80.3528 -40 -5
    endloop
  endfacet
  facet normal 0 -1 0
    outer loop
      vertex 85.3528 -40 -10
      vertex 85.8528 -40 -5
      vertex 85.3528 -40 -5
    endloop
  endfacet
  facet normal 0 -1 -0
    outer loop
      vertex 85.8528 -40 -5
      vertex 85.3528 -40 -10
      vertex 85.8528 -40 -10
    endloop
  endfacet
  facet normal 0 -1 0
    outer loop
      vertex -85.8528 -40 -10
      vertex -85.3528 -40 -5
      vertex -85.8528 -40 -5
    endloop
  endfacet
  facet normal 0 -1 -0
    outer loop
      vertex -85.3528 -40 -5
      vertex -85.8528 -40 -10
      vertex -85.3528 -40 -10
    endloop
  endfacet
  facet normal 0 -1 0
    outer loop
      vertex -80.3528 -40 -10
      vertex 80.3528 -40 -5
      vertex -80.3528 -40 -5
    endloop
  endfacet
  facet normal 0 -1 -0
    outer loop
      vertex 80.3528 -40 -5
      vertex -80.3528 -40 -10
      vertex 80.3528 -40 -10
    endloop
  endfacet
  facet normal -1 0 0
    outer loop
      vertex -85.8528 -40 -10
      vertex -85.8528 -20 -5
      vertex -85.8528 -20 -10
    endloop
  endfacet
  facet normal -1 -0 0
    outer loop
      vertex -85.8528 -20 -5
      vertex -85.8528 -40 -10
      vertex -85.8528 -40 -5
    endloop
  endfacet
  facet normal 0 1 0
    outer loop
      vertex 42.4264 -81.5 10
      vertex 0.156793 -81.5 1.49178
      vertex -42.4264 -81.5 10
    endloop
  endfacet
  facet normal 0 1 0
    outer loop
      vertex 42.4264 -81.5 10
      vertex 0.463525 -81.5 1.42658
      vertex 0.156793 -81.5 1.49178
    endloop
  endfacet
  facet normal 0 1 0
    outer loop
      vertex 42.4264 -81.5 10
      vertex 0.75 -81.5 1.29904
      vertex 0.463525 -81.5 1.42658
    endloop
  endfacet
  facet normal 0 1 0
    outer loop
      vertex 42.4264 -81.5 10
      vertex 1.0037 -81.5 1.11472
      vertex 0.75 -81.5 1.29904
    endloop
  endfacet
  facet normal 0 1 0
    outer loop
      vertex 42.4264 -81.5 10
      vertex 1.21352 -81.5 0.881678
      vertex 1.0037 -81.5 1.11472
    endloop
  endfacet
  facet normal 0 1 0
    outer loop
      vertex 42.4264 -81.5 10
      vertex 1.37032 -81.5 0.610105
      vertex 1.21352 -81.5 0.881678
    endloop
  endfacet
  facet normal 0 1 0
    outer loop
      vertex 42.4264 -81.5 10
      vertex 1.46722 -81.5 0.311867
      vertex 1.37032 -81.5 0.610105
    endloop
  endfacet
  facet normal 0 1 0
    outer loop
      vertex 42.4264 -81.5 10
      vertex 1.5 -81.5 0
      vertex 1.46722 -81.5 0.311867
    endloop
  endfacet
  facet normal 0 1 -0
    outer loop
      vertex 42.4264 -81.5 -10
      vertex 1.5 -81.5 0
      vertex 42.4264 -81.5 10
    endloop
  endfacet
  facet normal 0 1 0
    outer loop
      vertex 1.5 -81.5 0
      vertex 42.4264 -81.5 -10
      vertex 1.46722 -81.5 -0.311867
    endloop
  endfacet
  facet normal 0 1 0
    outer loop
      vertex 1.46722 -81.5 -0.311867
      vertex 42.4264 -81.5 -10
      vertex 1.37032 -81.5 -0.610105
    endloop
  endfacet
  facet normal 0 1 0
    outer loop
      vertex 1.37032 -81.5 -0.610105
      vertex 42.4264 -81.5 -10
      vertex 1.21352 -81.5 -0.881678
    endloop
  endfacet
  facet normal 0 1 0
    outer loop
      vertex 1.21352 -81.5 -0.881678
      vertex 42.4264 -81.5 -10
      vertex 1.0037 -81.5 -1.11472
    endloop
  endfacet
  facet normal 0 1 0
    outer loop
      vertex 1.0037 -81.5 -1.11472
      vertex 42.4264 -81.5 -10
      vertex 0.75 -81.5 -1.29904
    endloop
  endfacet
  facet normal 0 1 0
    outer loop
      vertex 0.156793 -81.5 -1.49178
      vertex 42.4264 -81.5 -10
      vertex -0.156793 -81.5 -1.49178
    endloop
  endfacet
  facet normal 0 1 0
    outer loop
      vertex 0.463525 -81.5 -1.42658
      vertex 42.4264 -81.5 -10
      vertex 0.156793 -81.5 -1.49178
    endloop
  endfacet
  facet normal 0 1 0
    outer loop
      vertex 0.75 -81.5 -1.29904
      vertex 42.4264 -81.5 -10
      vertex 0.463525 -81.5 -1.42658
    endloop
  endfacet
  facet normal 0 1 -0
    outer loop
      vertex -0.156793 -81.5 1.49178
      vertex -42.4264 -81.5 10
      vertex 0.156793 -81.5 1.49178
    endloop
  endfacet
  facet normal 0 1 -0
    outer loop
      vertex -0.463525 -81.5 1.42658
      vertex -42.4264 -81.5 10
      vertex -0.156793 -81.5 1.49178
    endloop
  endfacet
  facet normal 0 1 -0
    outer loop
      vertex -0.75 -81.5 1.29904
      vertex -42.4264 -81.5 10
      vertex -0.463525 -81.5 1.42658
    endloop
  endfacet
  facet normal 0 1 -0
    outer loop
      vertex -1.0037 -81.5 1.11472
      vertex -42.4264 -81.5 10
      vertex -0.75 -81.5 1.29904
    endloop
  endfacet
  facet normal 0 1 -0
    outer loop
      vertex -1.21352 -81.5 0.881678
      vertex -42.4264 -81.5 10
      vertex -1.0037 -81.5 1.11472
    endloop
  endfacet
  facet normal 0 1 -0
    outer loop
      vertex -1.37032 -81.5 0.610105
      vertex -42.4264 -81.5 10
      vertex -1.21352 -81.5 0.881678
    endloop
  endfacet
  facet normal 0 1 -0
    outer loop
      vertex -1.46722 -81.5 0.311867
      vertex -42.4264 -81.5 10
      vertex -1.37032 -81.5 0.610105
    endloop
  endfacet
  facet normal 0 1 -0
    outer loop
      vertex -1.5 -81.5 0
      vertex -42.4264 -81.5 10
      vertex -1.46722 -81.5 0.311867
    endloop
  endfacet
  facet normal 0 1 0
    outer loop
      vertex -42.4264 -81.5 -10
      vertex -1.5 -81.5 0
      vertex -1.46722 -81.5 -0.311867
    endloop
  endfacet
  facet normal 0 1 0
    outer loop
      vertex -42.4264 -81.5 -10
      vertex -1.46722 -81.5 -0.311867
      vertex -1.37032 -81.5 -0.610105
    endloop
  endfacet
  facet normal 0 1 0
    outer loop
      vertex -42.4264 -81.5 -10
      vertex -1.37032 -81.5 -0.610105
      vertex -1.21352 -81.5 -0.881678
    endloop
  endfacet
  facet normal 0 1 0
    outer loop
      vertex -42.4264 -81.5 -10
      vertex -1.21352 -81.5 -0.881678
      vertex -1.0037 -81.5 -1.11472
    endloop
  endfacet
  facet normal 0 1 0
    outer loop
      vertex -42.4264 -81.5 -10
      vertex -1.0037 -81.5 -1.11472
      vertex -0.75 -81.5 -1.29904
    endloop
  endfacet
  facet normal 0 1 0
    outer loop
      vertex -42.4264 -81.5 -10
      vertex -0.75 -81.5 -1.29904
      vertex -0.463525 -81.5 -1.42658
    endloop
  endfacet
  facet normal 0 1 0
    outer loop
      vertex -1.5 -81.5 0
      vertex -42.4264 -81.5 -10
      vertex -42.4264 -81.5 10
    endloop
  endfacet
  facet normal 0 1 0
    outer loop
      vertex -0.156793 -81.5 -1.49178
      vertex -42.4264 -81.5 -10
      vertex -0.463525 -81.5 -1.42658
    endloop
  endfacet
  facet normal 0 1 0
    outer loop
      vertex -42.4264 -81.5 -10
      vertex -0.156793 -81.5 -1.49178
      vertex 42.4264 -81.5 -10
    endloop
  endfacet
  facet normal 0 -1 0
    outer loop
      vertex 40.4619 -86.5 -10
      vertex 42.4264 -86.5 10
      vertex 40.4619 -86.5 10
    endloop
  endfacet
  facet normal 0 -1 -0
    outer loop
      vertex 42.4264 -86.5 10
      vertex 40.4619 -86.5 -10
      vertex 42.4264 -86.5 -10
    endloop
  endfacet
  facet normal 0 -1 0
    outer loop
      vertex -42.4264 -86.5 -10
      vertex -40.4619 -86.5 10
      vertex -42.4264 -86.5 10
    endloop
  endfacet
  facet normal 0 -1 -0
    outer loop
      vertex -40.4619 -86.5 10
      vertex -42.4264 -86.5 -10
      vertex -40.4619 -86.5 -10
    endloop
  endfacet
  facet normal 0 -1 0
    outer loop
      vertex -33.3909 -86.5 10
      vertex -0.156793 -86.5 1.49178
      vertex 33.3909 -86.5 10
    endloop
  endfacet
  facet normal 0 -1 0
    outer loop
      vertex -33.3909 -86.5 10
      vertex -0.463525 -86.5 1.42658
      vertex -0.156793 -86.5 1.49178
    endloop
  endfacet
  facet normal 0 -1 0
    outer loop
      vertex -33.3909 -86.5 10
      vertex -0.75 -86.5 1.29904
      vertex -0.463525 -86.5 1.42658
    endloop
  endfacet
  facet normal 0 -1 0
    outer loop
      vertex -33.3909 -86.5 10
      vertex -1.0037 -86.5 1.11472
      vertex -0.75 -86.5 1.29904
    endloop
  endfacet
  facet normal 0 -1 0
    outer loop
      vertex -33.3909 -86.5 10
      vertex -1.21352 -86.5 0.881678
      vertex -1.0037 -86.5 1.11472
    endloop
  endfacet
  facet normal 0 -1 0
    outer loop
      vertex -33.3909 -86.5 10
      vertex -1.37032 -86.5 0.610105
      vertex -1.21352 -86.5 0.881678
    endloop
  endfacet
  facet normal 0 -1 0
    outer loop
      vertex -33.3909 -86.5 10
      vertex -1.46722 -86.5 0.311867
      vertex -1.37032 -86.5 0.610105
    endloop
  endfacet
  facet normal 0 -1 0
    outer loop
      vertex -33.3909 -86.5 10
      vertex -1.5 -86.5 0
      vertex -1.46722 -86.5 0.311867
    endloop
  endfacet
  facet normal 0 -1 0
    outer loop
      vertex -33.3909 -86.5 -10
      vertex -1.5 -86.5 0
      vertex -33.3909 -86.5 10
    endloop
  endfacet
  facet normal 0 -1 -0
    outer loop
      vertex -1.5 -86.5 0
      vertex -33.3909 -86.5 -10
      vertex -1.46722 -86.5 -0.311867
    endloop
  endfacet
  facet normal 0 -1 -0
    outer loop
      vertex -1.46722 -86.5 -0.311867
      vertex -33.3909 -86.5 -10
      vertex -1.37032 -86.5 -0.610105
    endloop
  endfacet
  facet normal 0 -1 -0
    outer loop
      vertex -1.37032 -86.5 -0.610105
      vertex -33.3909 -86.5 -10
      vertex -1.21352 -86.5 -0.881678
    endloop
  endfacet
  facet normal 0 -1 -0
    outer loop
      vertex -1.21352 -86.5 -0.881678
      vertex -33.3909 -86.5 -10
      vertex -1.0037 -86.5 -1.11472
    endloop
  endfacet
  facet normal 0 -1 -0
    outer loop
      vertex -1.0037 -86.5 -1.11472
      vertex -33.3909 -86.5 -10
      vertex -0.75 -86.5 -1.29904
    endloop
  endfacet
  facet normal 0 -1 -0
    outer loop
      vertex -0.156793 -86.5 -1.49178
      vertex -33.3909 -86.5 -10
      vertex 0.156793 -86.5 -1.49178
    endloop
  endfacet
  facet normal 0 -1 -0
    outer loop
      vertex -0.463525 -86.5 -1.42658
      vertex -33.3909 -86.5 -10
      vertex -0.156793 -86.5 -1.49178
    endloop
  endfacet
  facet normal 0 -1 -0
    outer loop
      vertex -0.75 -86.5 -1.29904
      vertex -33.3909 -86.5 -10
      vertex -0.463525 -86.5 -1.42658
    endloop
  endfacet
  facet normal 0 -1 0
    outer loop
      vertex 0.156793 -86.5 1.49178
      vertex 33.3909 -86.5 10
      vertex -0.156793 -86.5 1.49178
    endloop
  endfacet
  facet normal 0 -1 0
    outer loop
      vertex 0.463525 -86.5 1.42658
      vertex 33.3909 -86.5 10
      vertex 0.156793 -86.5 1.49178
    endloop
  endfacet
  facet normal 0 -1 0
    outer loop
      vertex 0.75 -86.5 1.29904
      vertex 33.3909 -86.5 10
      vertex 0.463525 -86.5 1.42658
    endloop
  endfacet
  facet normal 0 -1 0
    outer loop
      vertex 1.0037 -86.5 1.11472
      vertex 33.3909 -86.5 10
      vertex 0.75 -86.5 1.29904
    endloop
  endfacet
  facet normal 0 -1 0
    outer loop
      vertex 1.21352 -86.5 0.881678
      vertex 33.3909 -86.5 10
      vertex 1.0037 -86.5 1.11472
    endloop
  endfacet
  facet normal 0 -1 0
    outer loop
      vertex 1.37032 -86.5 0.610105
      vertex 33.3909 -86.5 10
      vertex 1.21352 -86.5 0.881678
    endloop
  endfacet
  facet normal 0 -1 0
    outer loop
      vertex 1.46722 -86.5 0.311867
      vertex 33.3909 -86.5 10
      vertex 1.37032 -86.5 0.610105
    endloop
  endfacet
  facet normal 0 -1 0
    outer loop
      vertex 1.5 -86.5 0
      vertex 33.3909 -86.5 10
      vertex 1.46722 -86.5 0.311867
    endloop
  endfacet
  facet normal 0 -1 0
    outer loop
      vertex 33.3909 -86.5 -10
      vertex 1.5 -86.5 0
      vertex 1.46722 -86.5 -0.311867
    endloop
  endfacet
  facet normal 0 -1 0
    outer loop
      vertex 33.3909 -86.5 -10
      vertex 1.46722 -86.5 -0.311867
      vertex 1.37032 -86.5 -0.610105
    endloop
  endfacet
  facet normal 0 -1 0
    outer loop
      vertex 33.3909 -86.5 -10
      vertex 1.37032 -86.5 -0.610105
      vertex 1.21352 -86.5 -0.881678
    endloop
  endfacet
  facet normal 0 -1 0
    outer loop
      vertex 33.3909 -86.5 -10
      vertex 1.21352 -86.5 -0.881678
      vertex 1.0037 -86.5 -1.11472
    endloop
  endfacet
  facet normal 0 -1 0
    outer loop
      vertex 33.3909 -86.5 -10
      vertex 1.0037 -86.5 -1.11472
      vertex 0.75 -86.5 -1.29904
    endloop
  endfacet
  facet normal 0 -1 0
    outer loop
      vertex 33.3909 -86.5 -10
      vertex 0.75 -86.5 -1.29904
      vertex 0.463525 -86.5 -1.42658
    endloop
  endfacet
  facet normal 0 -1 0
    outer loop
      vertex 33.3909 -86.5 -10
      vertex 0.156793 -86.5 -1.49178
      vertex -33.3909 -86.5 -10
    endloop
  endfacet
  facet normal 0 -1 0
    outer loop
      vertex 1.5 -86.5 0
      vertex 33.3909 -86.5 -10
      vertex 33.3909 -86.5 10
    endloop
  endfacet
  facet normal 0 -1 0
    outer loop
      vertex 0.156793 -86.5 -1.49178
      vertex 33.3909 -86.5 -10
      vertex 0.463525 -86.5 -1.42658
    endloop
  endfacet
  facet normal 1 -0 0
    outer loop
      vertex 42.4264 -86.5 10
      vertex 42.4264 -81.5 -10
      vertex 42.4264 -81.5 10
    endloop
  endfacet
  facet normal 1 0 0
    outer loop
      vertex 42.4264 -81.5 -10
      vertex 42.4264 -86.5 10
      vertex 42.4264 -86.5 -10
    endloop
  endfacet
  facet normal -1 0 0
    outer loop
      vertex -42.4264 -86.5 -10
      vertex -42.4264 -81.5 10
      vertex -42.4264 -81.5 -10
    endloop
  endfacet
  facet normal -1 -0 0
    outer loop
      vertex -42.4264 -81.5 10
      vertex -42.4264 -86.5 -10
      vertex -42.4264 -86.5 10
    endloop
  endfacet
  facet normal -0.994521 0 -0.104533
    outer loop
      vertex 1.5 -86.5 0
      vertex 1.46722 -81.5 0.311867
      vertex 1.5 -81.5 0
    endloop
  endfacet
  facet normal -0.994521 -0 -0.104533
    outer loop
      vertex 1.46722 -81.5 0.311867
      vertex 1.5 -86.5 0
      vertex 1.46722 -86.5 0.311867
    endloop
  endfacet
  facet normal -0.95106 0 -0.309007
    outer loop
      vertex 1.46722 -86.5 0.311867
      vertex 1.37032 -81.5 0.610105
      vertex 1.46722 -81.5 0.311867
    endloop
  endfacet
  facet normal -0.95106 -0 -0.309007
    outer loop
      vertex 1.37032 -81.5 0.610105
      vertex 1.46722 -86.5 0.311867
      vertex 1.37032 -86.5 0.610105
    endloop
  endfacet
  facet normal 0.994521 0 -0.104533
    outer loop
      vertex -1.46722 -86.5 0.311867
      vertex -1.5 -81.5 0
      vertex -1.46722 -81.5 0.311867
    endloop
  endfacet
  facet normal 0.994521 0 -0.104533
    outer loop
      vertex -1.5 -81.5 0
      vertex -1.46722 -86.5 0.311867
      vertex -1.5 -86.5 0
    endloop
  endfacet
  facet normal 0 0 -1
    outer loop
      vertex -0.156793 -86.5 1.49178
      vertex 0.156793 -81.5 1.49178
      vertex 0.156793 -86.5 1.49178
    endloop
  endfacet
  facet normal -0 0 -1
    outer loop
      vertex 0.156793 -81.5 1.49178
      vertex -0.156793 -86.5 1.49178
      vertex -0.156793 -81.5 1.49178
    endloop
  endfacet
  facet normal -0.587777 0 -0.809023
    outer loop
      vertex 0.75 -86.5 1.29904
      vertex 1.0037 -81.5 1.11472
      vertex 1.0037 -86.5 1.11472
    endloop
  endfacet
  facet normal -0.587777 0 -0.809023
    outer loop
      vertex 1.0037 -81.5 1.11472
      vertex 0.75 -86.5 1.29904
      vertex 0.75 -81.5 1.29904
    endloop
  endfacet
  facet normal 0.743164 0 -0.66911
    outer loop
      vertex -1.0037 -86.5 1.11472
      vertex -1.21352 -81.5 0.881678
      vertex -1.0037 -81.5 1.11472
    endloop
  endfacet
  facet normal 0.743164 0 -0.66911
    outer loop
      vertex -1.21352 -81.5 0.881678
      vertex -1.0037 -86.5 1.11472
      vertex -1.21352 -86.5 0.881678
    endloop
  endfacet
  facet normal 0.406718 0 -0.913554
    outer loop
      vertex -0.75 -86.5 1.29904
      vertex -0.463525 -81.5 1.42658
      vertex -0.463525 -86.5 1.42658
    endloop
  endfacet
  facet normal 0.406718 0 -0.913554
    outer loop
      vertex -0.463525 -81.5 1.42658
      vertex -0.75 -86.5 1.29904
      vertex -0.75 -81.5 1.29904
    endloop
  endfacet
  facet normal -0.866015 0 -0.500017
    outer loop
      vertex 1.37032 -86.5 0.610105
      vertex 1.21352 -81.5 0.881678
      vertex 1.37032 -81.5 0.610105
    endloop
  endfacet
  facet normal -0.866015 -0 -0.500017
    outer loop
      vertex 1.21352 -81.5 0.881678
      vertex 1.37032 -86.5 0.610105
      vertex 1.21352 -86.5 0.881678
    endloop
  endfacet
  facet normal -0.207918 0 -0.978146
    outer loop
      vertex 0.156793 -86.5 1.49178
      vertex 0.463525 -81.5 1.42658
      vertex 0.463525 -86.5 1.42658
    endloop
  endfacet
  facet normal -0.207918 0 -0.978146
    outer loop
      vertex 0.463525 -81.5 1.42658
      vertex 0.156793 -86.5 1.49178
      vertex 0.156793 -81.5 1.49178
    endloop
  endfacet
  facet normal -0.406718 0 -0.913554
    outer loop
      vertex 0.463525 -86.5 1.42658
      vertex 0.75 -81.5 1.29904
      vertex 0.75 -86.5 1.29904
    endloop
  endfacet
  facet normal -0.406718 0 -0.913554
    outer loop
      vertex 0.75 -81.5 1.29904
      vertex 0.463525 -86.5 1.42658
      vertex 0.463525 -81.5 1.42658
    endloop
  endfacet
  facet normal 0.866015 0 -0.500017
    outer loop
      vertex -1.21352 -86.5 0.881678
      vertex -1.37032 -81.5 0.610105
      vertex -1.21352 -81.5 0.881678
    endloop
  endfacet
  facet normal 0.866015 0 -0.500017
    outer loop
      vertex -1.37032 -81.5 0.610105
      vertex -1.21352 -86.5 0.881678
      vertex -1.37032 -86.5 0.610105
    endloop
  endfacet
  facet normal 0.95106 0 -0.309007
    outer loop
      vertex -1.37032 -86.5 0.610105
      vertex -1.46722 -81.5 0.311867
      vertex -1.37032 -81.5 0.610105
    endloop
  endfacet
  facet normal 0.95106 0 -0.309007
    outer loop
      vertex -1.46722 -81.5 0.311867
      vertex -1.37032 -86.5 0.610105
      vertex -1.46722 -86.5 0.311867
    endloop
  endfacet
  facet normal 0.207918 0 -0.978146
    outer loop
      vertex -0.463525 -86.5 1.42658
      vertex -0.156793 -81.5 1.49178
      vertex -0.156793 -86.5 1.49178
    endloop
  endfacet
  facet normal 0.207918 0 -0.978146
    outer loop
      vertex -0.156793 -81.5 1.49178
      vertex -0.463525 -86.5 1.42658
      vertex -0.463525 -81.5 1.42658
    endloop
  endfacet
  facet normal -0.994521 0 0.104533
    outer loop
      vertex 1.46722 -86.5 -0.311867
      vertex 1.5 -81.5 0
      vertex 1.46722 -81.5 -0.311867
    endloop
  endfacet
  facet normal -0.994521 0 0.104533
    outer loop
      vertex 1.5 -81.5 0
      vertex 1.46722 -86.5 -0.311867
      vertex 1.5 -86.5 0
    endloop
  endfacet
  facet normal 0.994521 -0 0.104533
    outer loop
      vertex -1.5 -86.5 0
      vertex -1.46722 -81.5 -0.311867
      vertex -1.5 -81.5 0
    endloop
  endfacet
  facet normal 0.994521 0 0.104533
    outer loop
      vertex -1.46722 -81.5 -0.311867
      vertex -1.5 -86.5 0
      vertex -1.46722 -86.5 -0.311867
    endloop
  endfacet
  facet normal -0 0 1
    outer loop
      vertex -0.156793 -81.5 -1.49178
      vertex 0.156793 -86.5 -1.49178
      vertex 0.156793 -81.5 -1.49178
    endloop
  endfacet
  facet normal 0 0 1
    outer loop
      vertex 0.156793 -86.5 -1.49178
      vertex -0.156793 -81.5 -1.49178
      vertex -0.156793 -86.5 -1.49178
    endloop
  endfacet
  facet normal -0.406718 0 0.913554
    outer loop
      vertex 0.463525 -81.5 -1.42658
      vertex 0.75 -86.5 -1.29904
      vertex 0.75 -81.5 -1.29904
    endloop
  endfacet
  facet normal -0.406718 0 0.913554
    outer loop
      vertex 0.75 -86.5 -1.29904
      vertex 0.463525 -81.5 -1.42658
      vertex 0.463525 -86.5 -1.42658
    endloop
  endfacet
  facet normal -0.743164 0 -0.66911
    outer loop
      vertex 1.21352 -86.5 0.881678
      vertex 1.0037 -81.5 1.11472
      vertex 1.21352 -81.5 0.881678
    endloop
  endfacet
  facet normal -0.743164 -0 -0.66911
    outer loop
      vertex 1.0037 -81.5 1.11472
      vertex 1.21352 -86.5 0.881678
      vertex 1.0037 -86.5 1.11472
    endloop
  endfacet
  facet normal 0.587777 0 -0.809023
    outer loop
      vertex -1.0037 -86.5 1.11472
      vertex -0.75 -81.5 1.29904
      vertex -0.75 -86.5 1.29904
    endloop
  endfacet
  facet normal 0.587777 0 -0.809023
    outer loop
      vertex -0.75 -81.5 1.29904
      vertex -1.0037 -86.5 1.11472
      vertex -1.0037 -81.5 1.11472
    endloop
  endfacet
  facet normal -0.743164 0 0.66911
    outer loop
      vertex 1.0037 -86.5 -1.11472
      vertex 1.21352 -81.5 -0.881678
      vertex 1.0037 -81.5 -1.11472
    endloop
  endfacet
  facet normal -0.743164 0 0.66911
    outer loop
      vertex 1.21352 -81.5 -0.881678
      vertex 1.0037 -86.5 -1.11472
      vertex 1.21352 -86.5 -0.881678
    endloop
  endfacet
  facet normal -0.95106 0 0.309007
    outer loop
      vertex 1.37032 -86.5 -0.610105
      vertex 1.46722 -81.5 -0.311867
      vertex 1.37032 -81.5 -0.610105
    endloop
  endfacet
  facet normal -0.95106 0 0.309007
    outer loop
      vertex 1.46722 -81.5 -0.311867
      vertex 1.37032 -86.5 -0.610105
      vertex 1.46722 -86.5 -0.311867
    endloop
  endfacet
  facet normal -0.866015 0 0.500017
    outer loop
      vertex 1.21352 -86.5 -0.881678
      vertex 1.37032 -81.5 -0.610105
      vertex 1.21352 -81.5 -0.881678
    endloop
  endfacet
  facet normal -0.866015 0 0.500017
    outer loop
      vertex 1.37032 -81.5 -0.610105
      vertex 1.21352 -86.5 -0.881678
      vertex 1.37032 -86.5 -0.610105
    endloop
  endfacet
  facet normal 0.866015 -0 0.500017
    outer loop
      vertex -1.37032 -86.5 -0.610105
      vertex -1.21352 -81.5 -0.881678
      vertex -1.37032 -81.5 -0.610105
    endloop
  endfacet
  facet normal 0.866015 0 0.500017
    outer loop
      vertex -1.21352 -81.5 -0.881678
      vertex -1.37032 -86.5 -0.610105
      vertex -1.21352 -86.5 -0.881678
    endloop
  endfacet
  facet normal -0.207918 0 0.978146
    outer loop
      vertex 0.156793 -81.5 -1.49178
      vertex 0.463525 -86.5 -1.42658
      vertex 0.463525 -81.5 -1.42658
    endloop
  endfacet
  facet normal -0.207918 0 0.978146
    outer loop
      vertex 0.463525 -86.5 -1.42658
      vertex 0.156793 -81.5 -1.49178
      vertex 0.156793 -86.5 -1.49178
    endloop
  endfacet
  facet normal -0.587777 0 0.809023
    outer loop
      vertex 0.75 -81.5 -1.29904
      vertex 1.0037 -86.5 -1.11472
      vertex 1.0037 -81.5 -1.11472
    endloop
  endfacet
  facet normal -0.587777 0 0.809023
    outer loop
      vertex 1.0037 -86.5 -1.11472
      vertex 0.75 -81.5 -1.29904
      vertex 0.75 -86.5 -1.29904
    endloop
  endfacet
  facet normal 0.95106 -0 0.309007
    outer loop
      vertex -1.46722 -86.5 -0.311867
      vertex -1.37032 -81.5 -0.610105
      vertex -1.46722 -81.5 -0.311867
    endloop
  endfacet
  facet normal 0.95106 0 0.309007
    outer loop
      vertex -1.37032 -81.5 -0.610105
      vertex -1.46722 -86.5 -0.311867
      vertex -1.37032 -86.5 -0.610105
    endloop
  endfacet
  facet normal 0.743164 -0 0.66911
    outer loop
      vertex -1.21352 -86.5 -0.881678
      vertex -1.0037 -81.5 -1.11472
      vertex -1.21352 -81.5 -0.881678
    endloop
  endfacet
  facet normal 0.743164 0 0.66911
    outer loop
      vertex -1.0037 -81.5 -1.11472
      vertex -1.21352 -86.5 -0.881678
      vertex -1.0037 -86.5 -1.11472
    endloop
  endfacet
  facet normal 0.587777 0 0.809023
    outer loop
      vertex -1.0037 -81.5 -1.11472
      vertex -0.75 -86.5 -1.29904
      vertex -0.75 -81.5 -1.29904
    endloop
  endfacet
  facet normal 0.587777 0 0.809023
    outer loop
      vertex -0.75 -86.5 -1.29904
      vertex -1.0037 -81.5 -1.11472
      vertex -1.0037 -86.5 -1.11472
    endloop
  endfacet
  facet normal 0.406718 0 0.913554
    outer loop
      vertex -0.75 -81.5 -1.29904
      vertex -0.463525 -86.5 -1.42658
      vertex -0.463525 -81.5 -1.42658
    endloop
  endfacet
  facet normal 0.406718 0 0.913554
    outer loop
      vertex -0.463525 -86.5 -1.42658
      vertex -0.75 -81.5 -1.29904
      vertex -0.75 -86.5 -1.29904
    endloop
  endfacet
  facet normal 0.207918 0 0.978146
    outer loop
      vertex -0.463525 -81.5 -1.42658
      vertex -0.156793 -86.5 -1.49178
      vertex -0.156793 -81.5 -1.49178
    endloop
  endfacet
  facet normal 0.207918 0 0.978146
    outer loop
      vertex -0.156793 -86.5 -1.49178
      vertex -0.463525 -81.5 -1.42658
      vertex -0.463525 -86.5 -1.42658
    endloop
  endfacet
  facet normal 0 -1 0
    outer loop
      vertex 84.8528 -100 -10
      vertex 85.3528 -100 10
      vertex 84.8528 -100 10
    endloop
  endfacet
  facet normal 0 -1 -0
    outer loop
      vertex 85.3528 -100 10
      vertex 84.8528 -100 -10
      vertex 85.3528 -100 -10
    endloop
  endfacet
  facet normal 0 -1 0
    outer loop
      vertex -85.3528 -100 -10
      vertex -84.8528 -100 10
      vertex -85.3528 -100 10
    endloop
  endfacet
  facet normal 0 -1 -0
    outer loop
      vertex -84.8528 -100 10
      vertex -85.3528 -100 -10
      vertex -84.8528 -100 -10
    endloop
  endfacet
  facet normal 0 1 -0
    outer loop
      vertex -42.4264 -97.5 -10
      vertex -44.3909 -97.5 10
      vertex -42.4264 -97.5 10
    endloop
  endfacet
  facet normal 0 1 0
    outer loop
      vertex -44.3909 -97.5 10
      vertex -42.4264 -97.5 -10
      vertex -44.3909 -97.5 -10
    endloop
  endfacet
  facet normal 0 1 -0
    outer loop
      vertex -51.4619 -97.5 -10
      vertex -80.3528 -97.5 10
      vertex -51.4619 -97.5 10
    endloop
  endfacet
  facet normal 0 1 0
    outer loop
      vertex -80.3528 -97.5 10
      vertex -51.4619 -97.5 -10
      vertex -80.3528 -97.5 -10
    endloop
  endfacet
  facet normal -1 0 0
    outer loop
      vertex -84.8528 -102.5 -10
      vertex -84.8528 -100 10
      vertex -84.8528 -100 -10
    endloop
  endfacet
  facet normal -1 -0 0
    outer loop
      vertex -84.8528 -100 10
      vertex -84.8528 -102.5 -10
      vertex -84.8528 -102.5 10
    endloop
  endfacet
  facet normal 0 -1 0
    outer loop
      vertex -84.8528 -102.5 -10
      vertex -42.4264 -102.5 10
      vertex -84.8528 -102.5 10
    endloop
  endfacet
  facet normal 0 -1 -0
    outer loop
      vertex -42.4264 -102.5 10
      vertex -84.8528 -102.5 -10
      vertex -42.4264 -102.5 -10
    endloop
  endfacet
  facet normal 1 -0 0
    outer loop
      vertex -42.4264 -102.5 10
      vertex -42.4264 -97.5 -10
      vertex -42.4264 -97.5 10
    endloop
  endfacet
  facet normal 1 0 0
    outer loop
      vertex -42.4264 -97.5 -10
      vertex -42.4264 -102.5 10
      vertex -42.4264 -102.5 -10
    endloop
  endfacet
  facet normal 0 1 -0
    outer loop
      vertex 44.3909 -97.5 -10
      vertex 42.4264 -97.5 10
      vertex 44.3909 -97.5 10
    endloop
  endfacet
  facet normal 0 1 0
    outer loop
      vertex 42.4264 -97.5 10
      vertex 44.3909 -97.5 -10
      vertex 42.4264 -97.5 -10
    endloop
  endfacet
  facet normal 0 1 -0
    outer loop
      vertex 80.3528 -97.5 -10
      vertex 51.4619 -97.5 10
      vertex 80.3528 -97.5 10
    endloop
  endfacet
  facet normal 0 1 0
    outer loop
      vertex 51.4619 -97.5 10
      vertex 80.3528 -97.5 -10
      vertex 51.4619 -97.5 -10
    endloop
  endfacet
  facet normal 0 -1 0
    outer loop
      vertex 42.4264 -102.5 -10
      vertex 84.8528 -102.5 10
      vertex 42.4264 -102.5 10
    endloop
  endfacet
  facet normal 0 -1 -0
    outer loop
      vertex 84.8528 -102.5 10
      vertex 42.4264 -102.5 -10
      vertex 84.8528 -102.5 -10
    endloop
  endfacet
  facet normal 1 -0 0
    outer loop
      vertex 84.8528 -102.5 10
      vertex 84.8528 -100 -10
      vertex 84.8528 -100 10
    endloop
  endfacet
  facet normal 1 0 0
    outer loop
      vertex 84.8528 -100 -10
      vertex 84.8528 -102.5 10
      vertex 84.8528 -102.5 -10
    endloop
  endfacet
  facet normal -1 0 0
    outer loop
      vertex 42.4264 -102.5 -10
      vertex 42.4264 -97.5 10
      vertex 42.4264 -97.5 -10
    endloop
  endfacet
  facet normal -1 -0 0
    outer loop
      vertex 42.4264 -97.5 10
      vertex 42.4264 -102.5 -10
      vertex 42.4264 -102.5 10
    endloop
  endfacet
  facet normal -0.707107 0.707107 0
    outer loop
      vertex -51.4619 -97.5 -10
      vertex -40.4619 -86.5 10
      vertex -40.4619 -86.5 -10
    endloop
  endfacet
  facet normal -0.707107 0.707107 0
    outer loop
      vertex -40.4619 -86.5 10
      vertex -51.4619 -97.5 -10
      vertex -51.4619 -97.5 10
    endloop
  endfacet
  facet normal 0.707107 -0.707107 0
    outer loop
      vertex -44.3909 -97.5 10
      vertex -33.3909 -86.5 -10
      vertex -33.3909 -86.5 10
    endloop
  endfacet
  facet normal 0.707107 -0.707107 0
    outer loop
      vertex -33.3909 -86.5 -10
      vertex -44.3909 -97.5 10
      vertex -44.3909 -97.5 -10
    endloop
  endfacet
  facet normal 0.707107 0.707107 0
    outer loop
      vertex 51.4619 -97.5 10
      vertex 40.4619 -86.5 -10
      vertex 40.4619 -86.5 10
    endloop
  endfacet
  facet normal 0.707107 0.707107 0
    outer loop
      vertex 40.4619 -86.5 -10
      vertex 51.4619 -97.5 10
      vertex 51.4619 -97.5 -10
    endloop
  endfacet
  facet normal -0.707107 -0.707107 0
    outer loop
      vertex 44.3909 -97.5 -10
      vertex 33.3909 -86.5 10
      vertex 33.3909 -86.5 -10
    endloop
  endfacet
  facet normal -0.707107 -0.707107 0
    outer loop
      vertex 33.3909 -86.5 10
      vertex 44.3909 -97.5 -10
      vertex 44.3909 -97.5 10
    endloop
  endfacet
endsolid OpenSCAD_Model
