solid OpenSCAD_Model
  facet normal 0 0 -1
    outer loop
      vertex -26.5843 47.1528 159
      vertex -33.5579 47.1528 159
      vertex -29.9099 50.4784 159
    endloop
  endfacet
  facet normal 0 0 -1
    outer loop
      vertex -1.62563 78.7627 159
      vertex 1.35786 78.4949 159
      vertex 0 77.1371 159
    endloop
  endfacet
  facet normal 0 0 -1
    outer loop
      vertex 1.35786 78.4949 159
      vertex -1.62563 78.7627 159
      vertex -0.428932 80.2817 159
    endloop
  endfacet
  facet normal 0 0 -1
    outer loop
      vertex -29.9099 50.4784 159
      vertex -0.428932 80.2817 159
      vertex -1.62563 78.7627 159
    endloop
  endfacet
  facet normal 0 0 -1
    outer loop
      vertex -0.428932 80.2817 159
      vertex -29.9099 50.4784 159
      vertex -33.5579 47.1528 159
    endloop
  endfacet
  facet normal 0 0 -1
    outer loop
      vertex 32.7 47.1528 159
      vertex 26.5843 47.1528 159
      vertex 29.6421 50.2107 159
    endloop
  endfacet
  facet normal 0 0 -1
    outer loop
      vertex 26.1645 47.1528 159
      vertex 10.4635 55.9998 159
      vertex 11.5 57.4264 159
    endloop
  endfacet
  facet normal 0 0 -1
    outer loop
      vertex -9.53647 55.9998 159
      vertex 10.4635 55.9998 159
      vertex 26.1645 47.1528 159
    endloop
  endfacet
  facet normal 0 0 -1
    outer loop
      vertex -8.5 57.4264 159
      vertex 8.78647 58.3081 159
      vertex 8.78647 56.5447 159
    endloop
  endfacet
  facet normal -0 0 -1
    outer loop
      vertex 8.78647 58.3081 159
      vertex -8.5 57.4264 159
      vertex 0 73.3173 159
    endloop
  endfacet
  facet normal 0 0 -1
    outer loop
      vertex 10.4635 55.9998 159
      vertex -9.53647 55.9998 159
      vertex 8.78647 56.5447 159
    endloop
  endfacet
  facet normal -0 0 -1
    outer loop
      vertex 8.78647 56.5447 159
      vertex -9.53647 55.9998 159
      vertex -8.5 57.4264 159
    endloop
  endfacet
  facet normal -0 0 -1
    outer loop
      vertex -11.2135 56.5447 159
      vertex -26.1645 47.1528 159
      vertex -11.2135 58.3081 159
    endloop
  endfacet
  facet normal -0 0 -1
    outer loop
      vertex -9.53647 55.9998 159
      vertex -26.1645 47.1528 159
      vertex -11.2135 56.5447 159
    endloop
  endfacet
  facet normal 0 0 -1
    outer loop
      vertex -26.1645 47.1528 159
      vertex -9.53647 55.9998 159
      vertex 26.1645 47.1528 159
    endloop
  endfacet
  facet normal 0 0 -1
    outer loop
      vertex 10.4635 58.853 159
      vertex 26.1645 47.1528 159
      vertex 11.5 57.4264 159
    endloop
  endfacet
  facet normal 0 0 -1
    outer loop
      vertex 10.4635 58.853 159
      vertex 0 73.3173 159
      vertex 26.1645 47.1528 159
    endloop
  endfacet
  facet normal 0 0 -1
    outer loop
      vertex 0 73.3173 159
      vertex 10.4635 58.853 159
      vertex 8.78647 58.3081 159
    endloop
  endfacet
  facet normal 0 0 -1
    outer loop
      vertex -9.53647 58.853 159
      vertex 0 73.3173 159
      vertex -8.5 57.4264 159
    endloop
  endfacet
  facet normal 0 0 -1
    outer loop
      vertex -11.2135 58.3081 159
      vertex 0 73.3173 159
      vertex -9.53647 58.853 159
    endloop
  endfacet
  facet normal 0 0 -1
    outer loop
      vertex 0 73.3173 159
      vertex -11.2135 58.3081 159
      vertex -26.1645 47.1528 159
    endloop
  endfacet
  facet normal -0 0 1
    outer loop
      vertex -1.62563 78.7627 161
      vertex 1.35786 78.4949 161
      vertex -0.428932 80.2817 161
    endloop
  endfacet
  facet normal 0 0 1
    outer loop
      vertex 1.35786 78.4949 161
      vertex -1.62563 78.7627 161
      vertex 0 77.1371 161
    endloop
  endfacet
  facet normal 0 0 1
    outer loop
      vertex -0.428932 80.2817 161
      vertex -29.9099 50.4784 161
      vertex -1.62563 78.7627 161
    endloop
  endfacet
  facet normal 0 -0 1
    outer loop
      vertex -29.9099 50.4784 161
      vertex -0.428932 80.2817 161
      vertex -33.5579 47.1528 161
    endloop
  endfacet
  facet normal 0 0 1
    outer loop
      vertex -26.5843 47.1528 161
      vertex -29.9099 50.4784 161
      vertex -33.5579 47.1528 161
    endloop
  endfacet
  facet normal 0 0 1
    outer loop
      vertex 29.6421 50.2107 161
      vertex 26.5843 47.1528 161
      vertex 32.7 47.1528 161
    endloop
  endfacet
  facet normal 0 0 1
    outer loop
      vertex 0 73.3173 161
      vertex -9.53647 58.853 161
      vertex -8.5 57.4264 161
    endloop
  endfacet
  facet normal 0 0 1
    outer loop
      vertex 0 73.3173 161
      vertex -11.2135 58.3081 161
      vertex -9.53647 58.853 161
    endloop
  endfacet
  facet normal 0 0 1
    outer loop
      vertex -11.2135 58.3081 161
      vertex -26.1645 47.1528 161
      vertex -11.2135 56.5447 161
    endloop
  endfacet
  facet normal 0 0 1
    outer loop
      vertex -26.1645 47.1528 161
      vertex -11.2135 58.3081 161
      vertex 0 73.3173 161
    endloop
  endfacet
  facet normal 0 0 1
    outer loop
      vertex 26.1645 47.1528 161
      vertex 10.4635 58.853 161
      vertex 11.5 57.4264 161
    endloop
  endfacet
  facet normal 0 0 1
    outer loop
      vertex -8.5 57.4264 161
      vertex 8.78647 58.3081 161
      vertex 0 73.3173 161
    endloop
  endfacet
  facet normal 0 0 1
    outer loop
      vertex 10.4635 58.853 161
      vertex 0 73.3173 161
      vertex 8.78647 58.3081 161
    endloop
  endfacet
  facet normal 0 0 1
    outer loop
      vertex 0 73.3173 161
      vertex 10.4635 58.853 161
      vertex 26.1645 47.1528 161
    endloop
  endfacet
  facet normal -0 0 1
    outer loop
      vertex 10.4635 55.9998 161
      vertex 26.1645 47.1528 161
      vertex 11.5 57.4264 161
    endloop
  endfacet
  facet normal 0 0 1
    outer loop
      vertex -9.53647 55.9998 161
      vertex 10.4635 55.9998 161
      vertex 8.78647 56.5447 161
    endloop
  endfacet
  facet normal 0 0 1
    outer loop
      vertex 8.78647 58.3081 161
      vertex -8.5 57.4264 161
      vertex 8.78647 56.5447 161
    endloop
  endfacet
  facet normal 0 0 1
    outer loop
      vertex -9.53647 55.9998 161
      vertex 8.78647 56.5447 161
      vertex -8.5 57.4264 161
    endloop
  endfacet
  facet normal 0 0 1
    outer loop
      vertex 10.4635 55.9998 161
      vertex -9.53647 55.9998 161
      vertex 26.1645 47.1528 161
    endloop
  endfacet
  facet normal 0 0 1
    outer loop
      vertex -9.53647 55.9998 161
      vertex -26.1645 47.1528 161
      vertex 26.1645 47.1528 161
    endloop
  endfacet
  facet normal 0 0 1
    outer loop
      vertex -26.1645 47.1528 161
      vertex -9.53647 55.9998 161
      vertex -11.2135 56.5447 161
    endloop
  endfacet
  facet normal -0.809021 -0.587779 0
    outer loop
      vertex -8.5 57.4264 159
      vertex -9.53647 58.853 161
      vertex -9.53647 58.853 159
    endloop
  endfacet
  facet normal -0.809021 -0.587779 0
    outer loop
      vertex -9.53647 58.853 161
      vertex -8.5 57.4264 159
      vertex -8.5 57.4264 161
    endloop
  endfacet
  facet normal 1 -0 0
    outer loop
      vertex -11.2135 56.5447 161
      vertex -11.2135 58.3081 159
      vertex -11.2135 58.3081 161
    endloop
  endfacet
  facet normal 1 0 0
    outer loop
      vertex -11.2135 58.3081 159
      vertex -11.2135 56.5447 161
      vertex -11.2135 56.5447 159
    endloop
  endfacet
  facet normal 0.309017 -0.951057 0
    outer loop
      vertex -11.2135 58.3081 159
      vertex -9.53647 58.853 161
      vertex -11.2135 58.3081 161
    endloop
  endfacet
  facet normal 0.309017 -0.951057 0
    outer loop
      vertex -9.53647 58.853 161
      vertex -11.2135 58.3081 159
      vertex -9.53647 58.853 159
    endloop
  endfacet
  facet normal 0.309017 0.951057 -0
    outer loop
      vertex -9.53647 55.9998 159
      vertex -11.2135 56.5447 161
      vertex -9.53647 55.9998 161
    endloop
  endfacet
  facet normal 0.309017 0.951057 0
    outer loop
      vertex -11.2135 56.5447 161
      vertex -9.53647 55.9998 159
      vertex -11.2135 56.5447 159
    endloop
  endfacet
  facet normal -0.809021 0.587779 0
    outer loop
      vertex -9.53647 55.9998 159
      vertex -8.5 57.4264 161
      vertex -8.5 57.4264 159
    endloop
  endfacet
  facet normal -0.809021 0.587779 0
    outer loop
      vertex -8.5 57.4264 161
      vertex -9.53647 55.9998 159
      vertex -9.53647 55.9998 161
    endloop
  endfacet
  facet normal -0.809013 -0.587791 0
    outer loop
      vertex 11.5 57.4264 159
      vertex 10.4635 58.853 161
      vertex 10.4635 58.853 159
    endloop
  endfacet
  facet normal -0.809013 -0.587791 0
    outer loop
      vertex 10.4635 58.853 161
      vertex 11.5 57.4264 159
      vertex 11.5 57.4264 161
    endloop
  endfacet
  facet normal 1 -0 0
    outer loop
      vertex 8.78647 56.5447 161
      vertex 8.78647 58.3081 159
      vertex 8.78647 58.3081 161
    endloop
  endfacet
  facet normal 1 0 0
    outer loop
      vertex 8.78647 58.3081 159
      vertex 8.78647 56.5447 161
      vertex 8.78647 56.5447 159
    endloop
  endfacet
  facet normal 0.309017 -0.951057 0
    outer loop
      vertex 8.78647 58.3081 159
      vertex 10.4635 58.853 161
      vertex 8.78647 58.3081 161
    endloop
  endfacet
  facet normal 0.309017 -0.951057 0
    outer loop
      vertex 10.4635 58.853 161
      vertex 8.78647 58.3081 159
      vertex 10.4635 58.853 159
    endloop
  endfacet
  facet normal -0.809013 0.587791 0
    outer loop
      vertex 10.4635 55.9998 159
      vertex 11.5 57.4264 161
      vertex 11.5 57.4264 159
    endloop
  endfacet
  facet normal -0.809013 0.587791 0
    outer loop
      vertex 11.5 57.4264 161
      vertex 10.4635 55.9998 159
      vertex 10.4635 55.9998 161
    endloop
  endfacet
  facet normal 0.309017 0.951057 -0
    outer loop
      vertex 10.4635 55.9998 159
      vertex 8.78647 56.5447 161
      vertex 10.4635 55.9998 161
    endloop
  endfacet
  facet normal 0.309017 0.951057 0
    outer loop
      vertex 8.78647 56.5447 161
      vertex 10.4635 55.9998 159
      vertex 8.78647 56.5447 159
    endloop
  endfacet
  facet normal 0.707108 0.707105 0
    outer loop
      vertex 1.35786 78.4949 161
      vertex -0.428932 80.2817 159
      vertex -0.428932 80.2817 161
    endloop
  endfacet
  facet normal 0.707108 0.707105 0
    outer loop
      vertex -0.428932 80.2817 159
      vertex 1.35786 78.4949 161
      vertex 1.35786 78.4949 159
    endloop
  endfacet
  facet normal 0.707107 0.707107 0
    outer loop
      vertex 32.7 47.1528 161
      vertex 29.6421 50.2107 159
      vertex 29.6421 50.2107 161
    endloop
  endfacet
  facet normal 0.707107 0.707107 0
    outer loop
      vertex 29.6421 50.2107 159
      vertex 32.7 47.1528 161
      vertex 32.7 47.1528 159
    endloop
  endfacet
  facet normal -0.707106 0.707108 0
    outer loop
      vertex -33.5579 47.1528 159
      vertex -0.428932 80.2817 161
      vertex -0.428932 80.2817 159
    endloop
  endfacet
  facet normal -0.707106 0.707108 0
    outer loop
      vertex -0.428932 80.2817 161
      vertex -33.5579 47.1528 159
      vertex -33.5579 47.1528 161
    endloop
  endfacet
  facet normal 0 -1 0
    outer loop
      vertex -33.5579 47.1528 159
      vertex -26.5843 47.1528 161
      vertex -33.5579 47.1528 161
    endloop
  endfacet
  facet normal 0 -1 -0
    outer loop
      vertex -26.5843 47.1528 161
      vertex -33.5579 47.1528 159
      vertex -26.5843 47.1528 159
    endloop
  endfacet
  facet normal 0 -1 0
    outer loop
      vertex 26.5843 47.1528 159
      vertex 32.7 47.1528 161
      vertex 26.5843 47.1528 161
    endloop
  endfacet
  facet normal 0 -1 -0
    outer loop
      vertex 32.7 47.1528 161
      vertex 26.5843 47.1528 159
      vertex 32.7 47.1528 159
    endloop
  endfacet
  facet normal 0 -1 0
    outer loop
      vertex -26.1645 47.1528 159
      vertex 26.1645 47.1528 161
      vertex -26.1645 47.1528 161
    endloop
  endfacet
  facet normal 0 -1 -0
    outer loop
      vertex 26.1645 47.1528 161
      vertex -26.1645 47.1528 159
      vertex 26.1645 47.1528 159
    endloop
  endfacet
  facet normal 0 0 -1
    outer loop
      vertex -26.5843 47.1528 323
      vertex -33.5579 47.1528 323
      vertex -29.9099 50.4784 323
    endloop
  endfacet
  facet normal 0 0 -1
    outer loop
      vertex -1.62563 78.7627 323
      vertex 1.35786 78.4949 323
      vertex 0 77.1371 323
    endloop
  endfacet
  facet normal 0 0 -1
    outer loop
      vertex 1.35786 78.4949 323
      vertex -1.62563 78.7627 323
      vertex -0.428932 80.2817 323
    endloop
  endfacet
  facet normal 0 0 -1
    outer loop
      vertex -29.9099 50.4784 323
      vertex -0.428932 80.2817 323
      vertex -1.62563 78.7627 323
    endloop
  endfacet
  facet normal 0 0 -1
    outer loop
      vertex -0.428932 80.2817 323
      vertex -29.9099 50.4784 323
      vertex -33.5579 47.1528 323
    endloop
  endfacet
  facet normal 0 0 -1
    outer loop
      vertex 32.7 47.1528 323
      vertex 26.5843 47.1528 323
      vertex 29.6421 50.2107 323
    endloop
  endfacet
  facet normal 0 0 -1
    outer loop
      vertex 26.1645 47.1528 323
      vertex 10.4635 55.9998 323
      vertex 11.5 57.4264 323
    endloop
  endfacet
  facet normal 0 0 -1
    outer loop
      vertex -9.53647 55.9998 323
      vertex 10.4635 55.9998 323
      vertex 26.1645 47.1528 323
    endloop
  endfacet
  facet normal 0 0 -1
    outer loop
      vertex -8.5 57.4264 323
      vertex 8.78647 58.3081 323
      vertex 8.78647 56.5447 323
    endloop
  endfacet
  facet normal -0 0 -1
    outer loop
      vertex 8.78647 58.3081 323
      vertex -8.5 57.4264 323
      vertex 0 73.3173 323
    endloop
  endfacet
  facet normal 0 0 -1
    outer loop
      vertex 10.4635 55.9998 323
      vertex -9.53647 55.9998 323
      vertex 8.78647 56.5447 323
    endloop
  endfacet
  facet normal -0 0 -1
    outer loop
      vertex 8.78647 56.5447 323
      vertex -9.53647 55.9998 323
      vertex -8.5 57.4264 323
    endloop
  endfacet
  facet normal -0 0 -1
    outer loop
      vertex -11.2135 56.5447 323
      vertex -26.1645 47.1528 323
      vertex -11.2135 58.3081 323
    endloop
  endfacet
  facet normal -0 0 -1
    outer loop
      vertex -9.53647 55.9998 323
      vertex -26.1645 47.1528 323
      vertex -11.2135 56.5447 323
    endloop
  endfacet
  facet normal 0 0 -1
    outer loop
      vertex -26.1645 47.1528 323
      vertex -9.53647 55.9998 323
      vertex 26.1645 47.1528 323
    endloop
  endfacet
  facet normal 0 0 -1
    outer loop
      vertex 10.4635 58.853 323
      vertex 26.1645 47.1528 323
      vertex 11.5 57.4264 323
    endloop
  endfacet
  facet normal 0 0 -1
    outer loop
      vertex 10.4635 58.853 323
      vertex 0 73.3173 323
      vertex 26.1645 47.1528 323
    endloop
  endfacet
  facet normal 0 0 -1
    outer loop
      vertex 0 73.3173 323
      vertex 10.4635 58.853 323
      vertex 8.78647 58.3081 323
    endloop
  endfacet
  facet normal 0 0 -1
    outer loop
      vertex -9.53647 58.853 323
      vertex 0 73.3173 323
      vertex -8.5 57.4264 323
    endloop
  endfacet
  facet normal 0 0 -1
    outer loop
      vertex -11.2135 58.3081 323
      vertex 0 73.3173 323
      vertex -9.53647 58.853 323
    endloop
  endfacet
  facet normal 0 0 -1
    outer loop
      vertex 0 73.3173 323
      vertex -11.2135 58.3081 323
      vertex -26.1645 47.1528 323
    endloop
  endfacet
  facet normal 0 0 1
    outer loop
      vertex 8.78647 58.3081 325
      vertex -9.53647 58.853 325
      vertex -8.5 57.4264 325
    endloop
  endfacet
  facet normal 0 0 1
    outer loop
      vertex -0.428932 80.2817 325
      vertex -11.2135 58.3081 325
      vertex -9.53647 58.853 325
    endloop
  endfacet
  facet normal 0 0 1
    outer loop
      vertex -11.2135 58.3081 325
      vertex -33.5579 47.1528 325
      vertex -11.2135 56.5447 325
    endloop
  endfacet
  facet normal 0 0 1
    outer loop
      vertex -33.5579 47.1528 325
      vertex -11.2135 58.3081 325
      vertex -0.428932 80.2817 325
    endloop
  endfacet
  facet normal 0 0 1
    outer loop
      vertex 32.7 47.1528 325
      vertex 10.4635 58.853 325
      vertex 11.5 57.4264 325
    endloop
  endfacet
  facet normal -0 0 1
    outer loop
      vertex -9.53647 58.853 325
      vertex 8.78647 58.3081 325
      vertex -0.428932 80.2817 325
    endloop
  endfacet
  facet normal 0 0 1
    outer loop
      vertex 10.4635 58.853 325
      vertex -0.428932 80.2817 325
      vertex 8.78647 58.3081 325
    endloop
  endfacet
  facet normal 0 0 1
    outer loop
      vertex -0.428932 80.2817 325
      vertex 10.4635 58.853 325
      vertex 32.7 47.1528 325
    endloop
  endfacet
  facet normal -0 0 1
    outer loop
      vertex 10.4635 55.9998 325
      vertex 32.7 47.1528 325
      vertex 11.5 57.4264 325
    endloop
  endfacet
  facet normal 0 0 1
    outer loop
      vertex -9.53647 55.9998 325
      vertex 10.4635 55.9998 325
      vertex 8.78647 56.5447 325
    endloop
  endfacet
  facet normal 0 0 1
    outer loop
      vertex 8.78647 58.3081 325
      vertex -8.5 57.4264 325
      vertex 8.78647 56.5447 325
    endloop
  endfacet
  facet normal 0 0 1
    outer loop
      vertex -9.53647 55.9998 325
      vertex 8.78647 56.5447 325
      vertex -8.5 57.4264 325
    endloop
  endfacet
  facet normal 0 0 1
    outer loop
      vertex 10.4635 55.9998 325
      vertex -9.53647 55.9998 325
      vertex 32.7 47.1528 325
    endloop
  endfacet
  facet normal 0 0 1
    outer loop
      vertex -9.53647 55.9998 325
      vertex -33.5579 47.1528 325
      vertex 32.7 47.1528 325
    endloop
  endfacet
  facet normal 0 0 1
    outer loop
      vertex -33.5579 47.1528 325
      vertex -9.53647 55.9998 325
      vertex -11.2135 56.5447 325
    endloop
  endfacet
  facet normal -0.809021 -0.587779 0
    outer loop
      vertex -8.5 57.4264 323
      vertex -9.53647 58.853 325
      vertex -9.53647 58.853 323
    endloop
  endfacet
  facet normal -0.809021 -0.587779 0
    outer loop
      vertex -9.53647 58.853 325
      vertex -8.5 57.4264 323
      vertex -8.5 57.4264 325
    endloop
  endfacet
  facet normal 1 -0 0
    outer loop
      vertex -11.2135 56.5447 325
      vertex -11.2135 58.3081 323
      vertex -11.2135 58.3081 325
    endloop
  endfacet
  facet normal 1 0 0
    outer loop
      vertex -11.2135 58.3081 323
      vertex -11.2135 56.5447 325
      vertex -11.2135 56.5447 323
    endloop
  endfacet
  facet normal 0.309017 -0.951057 0
    outer loop
      vertex -11.2135 58.3081 323
      vertex -9.53647 58.853 325
      vertex -11.2135 58.3081 325
    endloop
  endfacet
  facet normal 0.309017 -0.951057 0
    outer loop
      vertex -9.53647 58.853 325
      vertex -11.2135 58.3081 323
      vertex -9.53647 58.853 323
    endloop
  endfacet
  facet normal 0.309017 0.951057 -0
    outer loop
      vertex -9.53647 55.9998 323
      vertex -11.2135 56.5447 325
      vertex -9.53647 55.9998 325
    endloop
  endfacet
  facet normal 0.309017 0.951057 0
    outer loop
      vertex -11.2135 56.5447 325
      vertex -9.53647 55.9998 323
      vertex -11.2135 56.5447 323
    endloop
  endfacet
  facet normal -0.809021 0.587779 0
    outer loop
      vertex -9.53647 55.9998 323
      vertex -8.5 57.4264 325
      vertex -8.5 57.4264 323
    endloop
  endfacet
  facet normal -0.809021 0.587779 0
    outer loop
      vertex -8.5 57.4264 325
      vertex -9.53647 55.9998 323
      vertex -9.53647 55.9998 325
    endloop
  endfacet
  facet normal -0.809013 -0.587791 0
    outer loop
      vertex 11.5 57.4264 323
      vertex 10.4635 58.853 325
      vertex 10.4635 58.853 323
    endloop
  endfacet
  facet normal -0.809013 -0.587791 0
    outer loop
      vertex 10.4635 58.853 325
      vertex 11.5 57.4264 323
      vertex 11.5 57.4264 325
    endloop
  endfacet
  facet normal 1 -0 0
    outer loop
      vertex 8.78647 56.5447 325
      vertex 8.78647 58.3081 323
      vertex 8.78647 58.3081 325
    endloop
  endfacet
  facet normal 1 0 0
    outer loop
      vertex 8.78647 58.3081 323
      vertex 8.78647 56.5447 325
      vertex 8.78647 56.5447 323
    endloop
  endfacet
  facet normal 0.309017 -0.951057 0
    outer loop
      vertex 8.78647 58.3081 323
      vertex 10.4635 58.853 325
      vertex 8.78647 58.3081 325
    endloop
  endfacet
  facet normal 0.309017 -0.951057 0
    outer loop
      vertex 10.4635 58.853 325
      vertex 8.78647 58.3081 323
      vertex 10.4635 58.853 323
    endloop
  endfacet
  facet normal -0.809013 0.587791 0
    outer loop
      vertex 10.4635 55.9998 323
      vertex 11.5 57.4264 325
      vertex 11.5 57.4264 323
    endloop
  endfacet
  facet normal -0.809013 0.587791 0
    outer loop
      vertex 11.5 57.4264 325
      vertex 10.4635 55.9998 323
      vertex 10.4635 55.9998 325
    endloop
  endfacet
  facet normal 0.309017 0.951057 -0
    outer loop
      vertex 10.4635 55.9998 323
      vertex 8.78647 56.5447 325
      vertex 10.4635 55.9998 325
    endloop
  endfacet
  facet normal 0.309017 0.951057 0
    outer loop
      vertex 8.78647 56.5447 325
      vertex 10.4635 55.9998 323
      vertex 8.78647 56.5447 323
    endloop
  endfacet
  facet normal 0.707108 0.707105 0
    outer loop
      vertex -0.428932 80.2817 325
      vertex 1.35786 78.4949 323.5
      vertex -0.428932 80.2817 323
    endloop
  endfacet
  facet normal 0.707106 0.707107 -4.96244e-06
    outer loop
      vertex -0.428932 80.2817 325
      vertex 29.6421 50.2107 323.5
      vertex 1.35786 78.4949 323.5
    endloop
  endfacet
  facet normal 0.707106 0.707107 1.39239e-06
    outer loop
      vertex 32.7 47.1528 325
      vertex 29.6421 50.2107 323.5
      vertex -0.428932 80.2817 325
    endloop
  endfacet
  facet normal 0.707107 0.707107 -0
    outer loop
      vertex 32.7 47.1528 323
      vertex 29.6421 50.2107 323.5
      vertex 32.7 47.1528 325
    endloop
  endfacet
  facet normal 0.707107 0.707107 0
    outer loop
      vertex 29.6421 50.2107 323.5
      vertex 32.7 47.1528 323
      vertex 29.6421 50.2107 323
    endloop
  endfacet
  facet normal 0.707108 0.707105 0
    outer loop
      vertex -0.428932 80.2817 323
      vertex 1.35786 78.4949 323.5
      vertex 1.35786 78.4949 323
    endloop
  endfacet
  facet normal -0.707106 0.707108 0
    outer loop
      vertex -33.5579 47.1528 323
      vertex -0.428932 80.2817 325
      vertex -0.428932 80.2817 323
    endloop
  endfacet
  facet normal -0.707106 0.707108 0
    outer loop
      vertex -0.428932 80.2817 325
      vertex -33.5579 47.1528 323
      vertex -33.5579 47.1528 325
    endloop
  endfacet
  facet normal 0 -1 0
    outer loop
      vertex -26.1645 47.1528 323
      vertex 26.1645 47.1528 323.5
      vertex -26.1645 47.1528 323.5
    endloop
  endfacet
  facet normal 0 -1 -0
    outer loop
      vertex 26.1645 47.1528 323.5
      vertex -26.1645 47.1528 323
      vertex 26.1645 47.1528 323
    endloop
  endfacet
  facet normal 0 -1 0
    outer loop
      vertex -26.1645 47.1528 323.5
      vertex -33.5579 47.1528 325
      vertex -26.5843 47.1528 323.5
    endloop
  endfacet
  facet normal 0 -1 0
    outer loop
      vertex -33.5579 47.1528 323
      vertex -26.5843 47.1528 323.5
      vertex -33.5579 47.1528 325
    endloop
  endfacet
  facet normal 0 -1 -0
    outer loop
      vertex -26.5843 47.1528 323.5
      vertex -33.5579 47.1528 323
      vertex -26.5843 47.1528 323
    endloop
  endfacet
  facet normal 0 -1 0
    outer loop
      vertex -33.5579 47.1528 325
      vertex -26.1645 47.1528 323.5
      vertex 32.7 47.1528 325
    endloop
  endfacet
  facet normal 0 -1 0
    outer loop
      vertex 26.1645 47.1528 323.5
      vertex 32.7 47.1528 325
      vertex -26.1645 47.1528 323.5
    endloop
  endfacet
  facet normal 0 -1 0
    outer loop
      vertex 26.5843 47.1528 323.5
      vertex 32.7 47.1528 325
      vertex 26.1645 47.1528 323.5
    endloop
  endfacet
  facet normal 0 -1 0
    outer loop
      vertex 32.7 47.1528 323
      vertex 26.5843 47.1528 323.5
      vertex 26.5843 47.1528 323
    endloop
  endfacet
  facet normal 0 -1 0
    outer loop
      vertex 26.5843 47.1528 323.5
      vertex 32.7 47.1528 323
      vertex 32.7 47.1528 325
    endloop
  endfacet
  facet normal 0.707107 0.707106 0
    outer loop
      vertex 29.9099 50.4784 323.5
      vertex 1.62563 78.7627 158.5
      vertex 1.62563 78.7627 323.5
    endloop
  endfacet
  facet normal 0.707107 0.707106 0
    outer loop
      vertex 1.62563 78.7627 158.5
      vertex 29.9099 50.4784 323.5
      vertex 29.9099 50.4784 158.5
    endloop
  endfacet
  facet normal 0 0 1
    outer loop
      vertex -26.1645 47.1528 323.5
      vertex -26.5843 47.1528 323.5
      vertex -26.3744 46.9429 323.5
    endloop
  endfacet
  facet normal 0 0 1
    outer loop
      vertex 1.62563 78.7627 323.5
      vertex 29.6421 50.2107 323.5
      vertex 29.9099 50.4784 323.5
    endloop
  endfacet
  facet normal 0 0 1
    outer loop
      vertex 29.6421 50.2107 323.5
      vertex 1.62563 78.7627 323.5
      vertex 1.35786 78.4949 323.5
    endloop
  endfacet
  facet normal 0 0 1
    outer loop
      vertex 26.5843 47.1528 323.5
      vertex 26.1645 47.1528 323.5
      vertex 26.3744 46.9429 323.5
    endloop
  endfacet
  facet normal -0.707091 0.707122 0
    outer loop
      vertex 0 77.1371 161
      vertex 1.35786 78.4949 323
      vertex 1.35786 78.4949 161
    endloop
  endfacet
  facet normal -0.707091 0.707122 0
    outer loop
      vertex 1.35786 78.4949 323
      vertex 0 77.1371 161
      vertex 0 77.1371 323
    endloop
  endfacet
  facet normal -0.707146 0.707067 0
    outer loop
      vertex 1.35786 78.4949 161
      vertex 1.62563 78.7627 158.5
      vertex 1.35786 78.4949 159
    endloop
  endfacet
  facet normal -0.7071 0.707113 4.94152e-05
    outer loop
      vertex 0 77.1371 158.5
      vertex 1.35786 78.4949 159
      vertex 1.62563 78.7627 158.5
    endloop
  endfacet
  facet normal -0.707091 0.707122 0
    outer loop
      vertex 1.35786 78.4949 159
      vertex 0 77.1371 158.5
      vertex 0 77.1371 159
    endloop
  endfacet
  facet normal -0.707146 0.707067 0
    outer loop
      vertex 1.62563 78.7627 158.5
      vertex 1.35786 78.4949 161
      vertex 1.62563 78.7627 323.5
    endloop
  endfacet
  facet normal -0.707146 0.707067 0
    outer loop
      vertex 1.35786 78.4949 323
      vertex 1.62563 78.7627 323.5
      vertex 1.35786 78.4949 161
    endloop
  endfacet
  facet normal -0.707146 0.707067 0
    outer loop
      vertex 1.62563 78.7627 323.5
      vertex 1.35786 78.4949 323
      vertex 1.35786 78.4949 323.5
    endloop
  endfacet
  facet normal -0.707107 -0.707107 -0
    outer loop
      vertex 0 73.3173 159
      vertex 0 73.3173 158.5
      vertex 26.1645 47.1528 159
    endloop
  endfacet
  facet normal -0.707107 -0.707107 -0
    outer loop
      vertex 0 73.3173 323
      vertex 0 73.3173 161
      vertex 26.1645 47.1528 323
    endloop
  endfacet
  facet normal -0.707107 -0.707107 0
    outer loop
      vertex 26.1645 47.1528 323
      vertex 26.3744 46.9429 323.5
      vertex 26.1645 47.1528 323.5
    endloop
  endfacet
  facet normal -0.707107 -0.707107 0
    outer loop
      vertex 26.1645 47.1528 161
      vertex 26.1645 47.1528 323
      vertex 0 73.3173 161
    endloop
  endfacet
  facet normal -0.707107 -0.707107 -0
    outer loop
      vertex 26.1645 47.1528 323
      vertex 26.1645 47.1528 161
      vertex 26.3744 46.9429 323.5
    endloop
  endfacet
  facet normal -0.707107 -0.707107 0
    outer loop
      vertex 26.3744 46.9429 158.5
      vertex 26.1645 47.1528 161
      vertex 26.1645 47.1528 159
    endloop
  endfacet
  facet normal -0.707107 -0.707107 0
    outer loop
      vertex 26.1645 47.1528 161
      vertex 26.3744 46.9429 158.5
      vertex 26.3744 46.9429 323.5
    endloop
  endfacet
  facet normal -0.707107 -0.707107 -5.0006e-15
    outer loop
      vertex 26.3744 46.9429 158.5
      vertex 26.1645 47.1528 159
      vertex 0 73.3173 158.5
    endloop
  endfacet
  facet normal 0 0 -1
    outer loop
      vertex 0 73.3173 158.5
      vertex 29.9099 50.4784 158.5
      vertex 26.3744 46.9429 158.5
    endloop
  endfacet
  facet normal 0 0 -1
    outer loop
      vertex 29.9099 50.4784 158.5
      vertex 0 73.3173 158.5
      vertex 1.62563 78.7627 158.5
    endloop
  endfacet
  facet normal 0 0 -1
    outer loop
      vertex 0 73.3173 158.5
      vertex 0 77.1371 158.5
      vertex 1.62563 78.7627 158.5
    endloop
  endfacet
  facet normal 0 0 -1
    outer loop
      vertex 0 73.3173 158.5
      vertex -1.62563 78.7627 158.5
      vertex 0 77.1371 158.5
    endloop
  endfacet
  facet normal 0 0 -1
    outer loop
      vertex -29.9099 50.4784 158.5
      vertex 0 73.3173 158.5
      vertex -26.3744 46.9429 158.5
    endloop
  endfacet
  facet normal -0 0 -1
    outer loop
      vertex 0 73.3173 158.5
      vertex -29.9099 50.4784 158.5
      vertex -1.62563 78.7627 158.5
    endloop
  endfacet
  facet normal 0.707107 -0.707107 0
    outer loop
      vertex 26.3744 46.9429 323.5
      vertex 26.5843 47.1528 323
      vertex 26.5843 47.1528 323.5
    endloop
  endfacet
  facet normal 0.707107 -0.707107 0
    outer loop
      vertex 26.5843 47.1528 323
      vertex 26.3744 46.9429 323.5
      vertex 26.5843 47.1528 161
    endloop
  endfacet
  facet normal 0.707107 -0.707107 0
    outer loop
      vertex 26.3744 46.9429 158.5
      vertex 26.5843 47.1528 161
      vertex 26.3744 46.9429 323.5
    endloop
  endfacet
  facet normal 0.707118 -0.707095 0
    outer loop
      vertex 26.5843 47.1528 323
      vertex 29.6421 50.2107 161
      vertex 29.6421 50.2107 323
    endloop
  endfacet
  facet normal 0.707118 -0.707095 0
    outer loop
      vertex 29.6421 50.2107 161
      vertex 26.5843 47.1528 323
      vertex 26.5843 47.1528 161
    endloop
  endfacet
  facet normal 0.706975 -0.707239 0
    outer loop
      vertex 29.6421 50.2107 323
      vertex 29.9099 50.4784 323.5
      vertex 29.6421 50.2107 323.5
    endloop
  endfacet
  facet normal 0.706975 -0.707239 0
    outer loop
      vertex 29.6421 50.2107 161
      vertex 29.9099 50.4784 323.5
      vertex 29.6421 50.2107 323
    endloop
  endfacet
  facet normal 0.706975 -0.707239 0
    outer loop
      vertex 29.9099 50.4784 323.5
      vertex 29.6421 50.2107 161
      vertex 29.9099 50.4784 158.5
    endloop
  endfacet
  facet normal 0.706975 -0.707239 0
    outer loop
      vertex 29.6421 50.2107 159
      vertex 29.9099 50.4784 158.5
      vertex 29.6421 50.2107 161
    endloop
  endfacet
  facet normal 0.707118 -0.707095 -9.70759e-06
    outer loop
      vertex 26.3744 46.9429 158.5
      vertex 29.6421 50.2107 159
      vertex 26.5843 47.1528 159
    endloop
  endfacet
  facet normal 0.707107 -0.707107 0.000141421
    outer loop
      vertex 29.6421 50.2107 159
      vertex 26.3744 46.9429 158.5
      vertex 29.9099 50.4784 158.5
    endloop
  endfacet
  facet normal 0.707107 -0.707107 0
    outer loop
      vertex 26.5843 47.1528 161
      vertex 26.3744 46.9429 158.5
      vertex 26.5843 47.1528 159
    endloop
  endfacet
  facet normal -0.707107 0.707106 0
    outer loop
      vertex -29.9099 50.4784 158.5
      vertex -1.62563 78.7627 159
      vertex -1.62563 78.7627 158.5
    endloop
  endfacet
  facet normal -0.707107 0.707106 0
    outer loop
      vertex -1.62563 78.7627 159
      vertex -29.9099 50.4784 158.5
      vertex -29.9099 50.4784 159
    endloop
  endfacet
  facet normal -0.707107 0.707106 0
    outer loop
      vertex -29.9099 50.4784 161
      vertex -1.62563 78.7627 323
      vertex -1.62563 78.7627 161
    endloop
  endfacet
  facet normal -0.707107 0.707106 0
    outer loop
      vertex -1.62563 78.7627 323
      vertex -29.9099 50.4784 161
      vertex -29.9099 50.4784 323
    endloop
  endfacet
  facet normal 0.707107 -0.707107 0
    outer loop
      vertex -26.3744 46.9429 323.5
      vertex -26.1645 47.1528 323
      vertex -26.1645 47.1528 323.5
    endloop
  endfacet
  facet normal 0.707107 -0.707107 0
    outer loop
      vertex -26.1645 47.1528 323
      vertex -26.1645 47.1528 161
      vertex 0 73.3173 323
    endloop
  endfacet
  facet normal 0.707107 -0.707107 0
    outer loop
      vertex -26.3744 46.9429 323.5
      vertex -26.1645 47.1528 161
      vertex -26.1645 47.1528 323
    endloop
  endfacet
  facet normal 0.707107 -0.707107 0
    outer loop
      vertex -26.3744 46.9429 158.5
      vertex -26.1645 47.1528 161
      vertex -26.3744 46.9429 323.5
    endloop
  endfacet
  facet normal 0.707107 -0.707107 0
    outer loop
      vertex -26.1645 47.1528 161
      vertex -26.3744 46.9429 158.5
      vertex -26.1645 47.1528 159
    endloop
  endfacet
  facet normal 0.707107 -0.707107 -6.09597e-15
    outer loop
      vertex 0 73.3173 158.5
      vertex -26.1645 47.1528 159
      vertex -26.3744 46.9429 158.5
    endloop
  endfacet
  facet normal 0.707107 -0.707107 0
    outer loop
      vertex -26.1645 47.1528 159
      vertex 0 73.3173 158.5
      vertex 0 73.3173 159
    endloop
  endfacet
  facet normal 0.707107 -0.707107 0
    outer loop
      vertex 0 73.3173 323
      vertex -26.1645 47.1528 161
      vertex 0 73.3173 161
    endloop
  endfacet
  facet normal 0.7071 0.707113 0
    outer loop
      vertex 0 77.1371 159
      vertex -1.62563 78.7627 158.5
      vertex -1.62563 78.7627 159
    endloop
  endfacet
  facet normal 0.7071 0.707113 0
    outer loop
      vertex -1.62563 78.7627 158.5
      vertex 0 77.1371 159
      vertex 0 77.1371 158.5
    endloop
  endfacet
  facet normal 0.7071 0.707113 0
    outer loop
      vertex 0 77.1371 323
      vertex -1.62563 78.7627 161
      vertex -1.62563 78.7627 323
    endloop
  endfacet
  facet normal 0.7071 0.707113 0
    outer loop
      vertex -1.62563 78.7627 161
      vertex 0 77.1371 323
      vertex 0 77.1371 161
    endloop
  endfacet
  facet normal -0.707107 -0.707107 0
    outer loop
      vertex -29.9099 50.4784 158.5
      vertex -26.5843 47.1528 159
      vertex -29.9099 50.4784 159
    endloop
  endfacet
  facet normal -0.707107 -0.707107 0
    outer loop
      vertex -26.3744 46.9429 158.5
      vertex -26.5843 47.1528 161
      vertex -26.5843 47.1528 159
    endloop
  endfacet
  facet normal -0.707107 -0.707107 0
    outer loop
      vertex -26.5843 47.1528 161
      vertex -26.3744 46.9429 323.5
      vertex -26.5843 47.1528 323
    endloop
  endfacet
  facet normal -0.707107 -0.707107 0
    outer loop
      vertex -26.3744 46.9429 158.5
      vertex -26.5843 47.1528 159
      vertex -29.9099 50.4784 158.5
    endloop
  endfacet
  facet normal -0.707107 -0.707107 0
    outer loop
      vertex -26.5843 47.1528 161
      vertex -26.3744 46.9429 158.5
      vertex -26.3744 46.9429 323.5
    endloop
  endfacet
  facet normal -0.707107 -0.707107 0
    outer loop
      vertex -26.5843 47.1528 323
      vertex -26.3744 46.9429 323.5
      vertex -26.5843 47.1528 323.5
    endloop
  endfacet
  facet normal -0.707107 -0.707107 0
    outer loop
      vertex -26.5843 47.1528 161
      vertex -29.9099 50.4784 323
      vertex -29.9099 50.4784 161
    endloop
  endfacet
  facet normal -0.707107 -0.707107 0
    outer loop
      vertex -29.9099 50.4784 323
      vertex -26.5843 47.1528 161
      vertex -26.5843 47.1528 323
    endloop
  endfacet
endsolid OpenSCAD_Model
