solid OpenSCAD_Model
  facet normal 0.707107 0.707107 0
    outer loop
      vertex 80.8528 -1.08413e-08 -8
      vertex 39.4264 41.4264 -10
      vertex 39.4264 41.4264 -8
    endloop
  endfacet
  facet normal 0.707107 0.707107 0
    outer loop
      vertex 39.4264 41.4264 -10
      vertex 80.8528 -1.08413e-08 -8
      vertex 80.8528 -1.08413e-08 -10
    endloop
  endfacet
  facet normal -0.707107 0.707107 0
    outer loop
      vertex -80.8528 -1.08413e-08 -10
      vertex -39.4264 41.4264 -8
      vertex -39.4264 41.4264 -10
    endloop
  endfacet
  facet normal -0.707107 0.707107 0
    outer loop
      vertex -39.4264 41.4264 -8
      vertex -80.8528 -1.08413e-08 -10
      vertex -80.8528 -1.08413e-08 -8
    endloop
  endfacet
  facet normal 0 -1 0
    outer loop
      vertex -80.8528 -1.08413e-08 -10
      vertex 80.8528 -1.08413e-08 -8
      vertex -80.8528 -1.08413e-08 -8
    endloop
  endfacet
  facet normal 0 -1 -0
    outer loop
      vertex 80.8528 -1.08413e-08 -8
      vertex -80.8528 -1.08413e-08 -10
      vertex 80.8528 -1.08413e-08 -10
    endloop
  endfacet
  facet normal 0 0 -1
    outer loop
      vertex 80.8528 -1.08413e-08 -10
      vertex 42.4264 3 -10
      vertex 72.8528 3 -10
    endloop
  endfacet
  facet normal 0 0 -1
    outer loop
      vertex 38 3 -10
      vertex 42 32.5 -10
      vertex 42.4264 3 -10
    endloop
  endfacet
  facet normal -0 0 -1
    outer loop
      vertex 42 32.5 -10
      vertex 38 3 -10
      vertex 38 38.5 -10
    endloop
  endfacet
  facet normal 0 0 -1
    outer loop
      vertex 80.8528 -1.08413e-08 -10
      vertex 38 3 -10
      vertex 42.4264 3 -10
    endloop
  endfacet
  facet normal 0 0 -1
    outer loop
      vertex 80.8528 -1.08413e-08 -10
      vertex 2 3 -10
      vertex 38 3 -10
    endloop
  endfacet
  facet normal 0 0 -1
    outer loop
      vertex 2 3 -10
      vertex -2 3 -10
      vertex 2 38.5 -10
    endloop
  endfacet
  facet normal 0 0 -1
    outer loop
      vertex 80.8528 -1.08413e-08 -10
      vertex -2 3 -10
      vertex 2 3 -10
    endloop
  endfacet
  facet normal 0 0 -1
    outer loop
      vertex -80.8528 -1.08413e-08 -10
      vertex -2 3 -10
      vertex 80.8528 -1.08413e-08 -10
    endloop
  endfacet
  facet normal 0 0 -1
    outer loop
      vertex -42 32.5 -10
      vertex -38 38.5 -10
      vertex -38 3 -10
    endloop
  endfacet
  facet normal -0 0 -1
    outer loop
      vertex -38 38.5 -10
      vertex -42 32.5 -10
      vertex -39.4264 41.4264 -10
    endloop
  endfacet
  facet normal 0 0 -1
    outer loop
      vertex -38 3 -10
      vertex -42.4264 3 -10
      vertex -42 32.5 -10
    endloop
  endfacet
  facet normal -0 0 -1
    outer loop
      vertex -2 3 -10
      vertex -80.8528 -1.08413e-08 -10
      vertex -38 3 -10
    endloop
  endfacet
  facet normal -0 0 -1
    outer loop
      vertex -38 3 -10
      vertex -80.8528 -1.08413e-08 -10
      vertex -42.4264 3 -10
    endloop
  endfacet
  facet normal -0 0 -1
    outer loop
      vertex -42.4264 3 -10
      vertex -80.8528 -1.08413e-08 -10
      vertex -72.8528 3 -10
    endloop
  endfacet
  facet normal 0 0 -1
    outer loop
      vertex 39.4264 41.4264 -10
      vertex 72.8528 3 -10
      vertex 42 32.5 -10
    endloop
  endfacet
  facet normal 0 0 -1
    outer loop
      vertex 72.8528 3 -10
      vertex 39.4264 41.4264 -10
      vertex 80.8528 -1.08413e-08 -10
    endloop
  endfacet
  facet normal 0 0 -1
    outer loop
      vertex 42 32.5 -10
      vertex 38 38.5 -10
      vertex 39.4264 41.4264 -10
    endloop
  endfacet
  facet normal 0 0 -1
    outer loop
      vertex 2 38.5 -10
      vertex 39.4264 41.4264 -10
      vertex 38 38.5 -10
    endloop
  endfacet
  facet normal 0 0 -1
    outer loop
      vertex -2 38.5 -10
      vertex 2 38.5 -10
      vertex -2 3 -10
    endloop
  endfacet
  facet normal 0 0 -1
    outer loop
      vertex -2 38.5 -10
      vertex 39.4264 41.4264 -10
      vertex 2 38.5 -10
    endloop
  endfacet
  facet normal 0 0 -1
    outer loop
      vertex -39.4264 41.4264 -10
      vertex -2 38.5 -10
      vertex -38 38.5 -10
    endloop
  endfacet
  facet normal 0 0 -1
    outer loop
      vertex -2 38.5 -10
      vertex -39.4264 41.4264 -10
      vertex 39.4264 41.4264 -10
    endloop
  endfacet
  facet normal 0 0 -1
    outer loop
      vertex -72.8528 3 -10
      vertex -39.4264 41.4264 -10
      vertex -42 32.5 -10
    endloop
  endfacet
  facet normal 0 0 -1
    outer loop
      vertex -39.4264 41.4264 -10
      vertex -72.8528 3 -10
      vertex -80.8528 -1.08413e-08 -10
    endloop
  endfacet
  facet normal 0 0 1
    outer loop
      vertex -39.4264 41.4264 -8
      vertex -72.8528 3 -8
      vertex -42 32.5 -8
    endloop
  endfacet
  facet normal 0 -0 1
    outer loop
      vertex -72.8528 3 -8
      vertex -39.4264 41.4264 -8
      vertex -80.8528 -1.08413e-08 -8
    endloop
  endfacet
  facet normal 0 0 1
    outer loop
      vertex 39.4264 41.4264 -8
      vertex 2 38.5 -8
      vertex 38 38.5 -8
    endloop
  endfacet
  facet normal 0 0 1
    outer loop
      vertex 2 38.5 -8
      vertex -2 38.5 -8
      vertex 2 3 -8
    endloop
  endfacet
  facet normal 0 0 1
    outer loop
      vertex 39.4264 41.4264 -8
      vertex -2 38.5 -8
      vertex 2 38.5 -8
    endloop
  endfacet
  facet normal -0 0 1
    outer loop
      vertex -39.4264 41.4264 -8
      vertex -2 38.5 -8
      vertex 39.4264 41.4264 -8
    endloop
  endfacet
  facet normal 0 0 1
    outer loop
      vertex -42 32.5 -8
      vertex -38 38.5 -8
      vertex -39.4264 41.4264 -8
    endloop
  endfacet
  facet normal 0 0 1
    outer loop
      vertex -2 38.5 -8
      vertex -39.4264 41.4264 -8
      vertex -38 38.5 -8
    endloop
  endfacet
  facet normal 0 0 1
    outer loop
      vertex 39.4264 41.4264 -8
      vertex 72.8528 3 -8
      vertex 80.8528 -1.08413e-08 -8
    endloop
  endfacet
  facet normal 0 0 1
    outer loop
      vertex 72.8528 3 -8
      vertex 39.4264 41.4264 -8
      vertex 42 32.5 -8
    endloop
  endfacet
  facet normal -0 0 1
    outer loop
      vertex 42.4264 3 -8
      vertex 80.8528 -1.08413e-08 -8
      vertex 72.8528 3 -8
    endloop
  endfacet
  facet normal -0 0 1
    outer loop
      vertex 38 38.5 -8
      vertex 42 32.5 -8
      vertex 39.4264 41.4264 -8
    endloop
  endfacet
  facet normal 0 0 1
    outer loop
      vertex 38 3 -8
      vertex 42 32.5 -8
      vertex 38 38.5 -8
    endloop
  endfacet
  facet normal 0 0 1
    outer loop
      vertex 42 32.5 -8
      vertex 38 3 -8
      vertex 42.4264 3 -8
    endloop
  endfacet
  facet normal -0 0 1
    outer loop
      vertex 38 3 -8
      vertex 80.8528 -1.08413e-08 -8
      vertex 42.4264 3 -8
    endloop
  endfacet
  facet normal -0 0 1
    outer loop
      vertex 2 3 -8
      vertex 80.8528 -1.08413e-08 -8
      vertex 38 3 -8
    endloop
  endfacet
  facet normal 0 0 1
    outer loop
      vertex -2 3 -8
      vertex 2 3 -8
      vertex -2 38.5 -8
    endloop
  endfacet
  facet normal -0 0 1
    outer loop
      vertex -2 3 -8
      vertex 80.8528 -1.08413e-08 -8
      vertex 2 3 -8
    endloop
  endfacet
  facet normal 0 0 1
    outer loop
      vertex -80.8528 -1.08413e-08 -8
      vertex -2 3 -8
      vertex -38 3 -8
    endloop
  endfacet
  facet normal 0 0 1
    outer loop
      vertex -38 38.5 -8
      vertex -42 32.5 -8
      vertex -38 3 -8
    endloop
  endfacet
  facet normal 0 0 1
    outer loop
      vertex -42.4264 3 -8
      vertex -38 3 -8
      vertex -42 32.5 -8
    endloop
  endfacet
  facet normal 0 0 1
    outer loop
      vertex -80.8528 -1.08413e-08 -8
      vertex -38 3 -8
      vertex -42.4264 3 -8
    endloop
  endfacet
  facet normal 0 0 1
    outer loop
      vertex -80.8528 -1.08413e-08 -8
      vertex -42.4264 3 -8
      vertex -72.8528 3 -8
    endloop
  endfacet
  facet normal 0 0 1
    outer loop
      vertex -2 3 -8
      vertex -80.8528 -1.08413e-08 -8
      vertex 80.8528 -1.08413e-08 -8
    endloop
  endfacet
  facet normal 0 1 -0
    outer loop
      vertex 39.4264 41.4264 -10
      vertex -39.4264 41.4264 -8
      vertex 39.4264 41.4264 -8
    endloop
  endfacet
  facet normal 0 1 0
    outer loop
      vertex -39.4264 41.4264 -8
      vertex 39.4264 41.4264 -10
      vertex -39.4264 41.4264 -10
    endloop
  endfacet
  facet normal 1 -0 0
    outer loop
      vertex -38 3 -8
      vertex -38 38.5 -10
      vertex -38 38.5 -8
    endloop
  endfacet
  facet normal 1 0 0
    outer loop
      vertex -38 38.5 -10
      vertex -38 3 -8
      vertex -38 3 -10
    endloop
  endfacet
  facet normal -1 0 0
    outer loop
      vertex -2 3 -10
      vertex -2 38.5 -8
      vertex -2 38.5 -10
    endloop
  endfacet
  facet normal -1 -0 0
    outer loop
      vertex -2 38.5 -8
      vertex -2 3 -10
      vertex -2 3 -8
    endloop
  endfacet
  facet normal 0 -1 0
    outer loop
      vertex -38 38.5 -10
      vertex -2 38.5 -8
      vertex -38 38.5 -8
    endloop
  endfacet
  facet normal 0 -1 -0
    outer loop
      vertex -2 38.5 -8
      vertex -38 38.5 -10
      vertex -2 38.5 -10
    endloop
  endfacet
  facet normal 0 1 -0
    outer loop
      vertex -2 3 -10
      vertex -38 3 -8
      vertex -2 3 -8
    endloop
  endfacet
  facet normal 0 1 0
    outer loop
      vertex -38 3 -8
      vertex -2 3 -10
      vertex -38 3 -10
    endloop
  endfacet
  facet normal 1 -0 0
    outer loop
      vertex 2 3 -8
      vertex 2 38.5 -10
      vertex 2 38.5 -8
    endloop
  endfacet
  facet normal 1 0 0
    outer loop
      vertex 2 38.5 -10
      vertex 2 3 -8
      vertex 2 3 -10
    endloop
  endfacet
  facet normal -1 0 0
    outer loop
      vertex 38 3 -10
      vertex 38 38.5 -8
      vertex 38 38.5 -10
    endloop
  endfacet
  facet normal -1 -0 0
    outer loop
      vertex 38 38.5 -8
      vertex 38 3 -10
      vertex 38 3 -8
    endloop
  endfacet
  facet normal 0 -1 0
    outer loop
      vertex 2 38.5 -10
      vertex 38 38.5 -8
      vertex 2 38.5 -8
    endloop
  endfacet
  facet normal 0 -1 -0
    outer loop
      vertex 38 38.5 -8
      vertex 2 38.5 -10
      vertex 38 38.5 -10
    endloop
  endfacet
  facet normal 0 1 -0
    outer loop
      vertex 38 3 -10
      vertex 2 3 -8
      vertex 38 3 -8
    endloop
  endfacet
  facet normal 0 1 0
    outer loop
      vertex 2 3 -8
      vertex 38 3 -10
      vertex 2 3 -10
    endloop
  endfacet
  facet normal 0 1 -0
    outer loop
      vertex 72.8528 3 -10
      vertex 42.4264 3 -8
      vertex 72.8528 3 -8
    endloop
  endfacet
  facet normal 0 1 0
    outer loop
      vertex 42.4264 3 -8
      vertex 72.8528 3 -10
      vertex 42.4264 3 -10
    endloop
  endfacet
  facet normal -0.691083 -0.722775 0
    outer loop
      vertex 42 32.5 -10
      vertex 72.8528 3 -8
      vertex 42 32.5 -8
    endloop
  endfacet
  facet normal -0.691083 -0.722775 -0
    outer loop
      vertex 72.8528 3 -8
      vertex 42 32.5 -10
      vertex 72.8528 3 -10
    endloop
  endfacet
  facet normal 0.999896 0.0144527 0
    outer loop
      vertex 42.4264 3 -8
      vertex 42 32.5 -10
      vertex 42 32.5 -8
    endloop
  endfacet
  facet normal 0.999896 0.0144527 0
    outer loop
      vertex 42 32.5 -10
      vertex 42.4264 3 -8
      vertex 42.4264 3 -10
    endloop
  endfacet
  facet normal 0 1 -0
    outer loop
      vertex -42.4264 3 -10
      vertex -72.8528 3 -8
      vertex -42.4264 3 -8
    endloop
  endfacet
  facet normal 0 1 0
    outer loop
      vertex -72.8528 3 -8
      vertex -42.4264 3 -10
      vertex -72.8528 3 -10
    endloop
  endfacet
  facet normal 0.691083 -0.722775 0
    outer loop
      vertex -72.8528 3 -10
      vertex -42 32.5 -8
      vertex -72.8528 3 -8
    endloop
  endfacet
  facet normal 0.691083 -0.722775 0
    outer loop
      vertex -42 32.5 -8
      vertex -72.8528 3 -10
      vertex -42 32.5 -10
    endloop
  endfacet
  facet normal -0.999896 0.0144527 0
    outer loop
      vertex -42.4264 3 -10
      vertex -42 32.5 -8
      vertex -42 32.5 -10
    endloop
  endfacet
  facet normal -0.999896 0.0144527 0
    outer loop
      vertex -42 32.5 -8
      vertex -42.4264 3 -10
      vertex -42.4264 3 -8
    endloop
  endfacet
endsolid OpenSCAD_Model
