solid OpenSCAD_Model
  facet normal -1 0 0
    outer loop
      vertex -77.3528 -63 295
      vertex -77.3528 -33 305
      vertex -77.3528 -33 295
    endloop
  endfacet
  facet normal -1 -0 0
    outer loop
      vertex -77.3528 -33 305
      vertex -77.3528 -63 295
      vertex -77.3528 -63 305
    endloop
  endfacet
  facet normal -0 0 1
    outer loop
      vertex -78.8528 -33 295
      vertex -77.3528 -63 295
      vertex -77.3528 -33 295
    endloop
  endfacet
  facet normal 0 0 1
    outer loop
      vertex -77.3528 -63 295
      vertex -78.8528 -33 295
      vertex -78.8528 -63 295
    endloop
  endfacet
  facet normal 0 -1 0
    outer loop
      vertex -78.8528 -33 295
      vertex -77.3528 -33 305
      vertex -78.8528 -33 305
    endloop
  endfacet
  facet normal 0 -1 -0
    outer loop
      vertex -77.3528 -33 305
      vertex -78.8528 -33 295
      vertex -77.3528 -33 295
    endloop
  endfacet
  facet normal 0 0 -1
    outer loop
      vertex -78.8528 -63 305
      vertex -77.3528 -33 305
      vertex -77.3528 -63 305
    endloop
  endfacet
  facet normal -0 0 -1
    outer loop
      vertex -77.3528 -33 305
      vertex -78.8528 -63 305
      vertex -78.8528 -33 305
    endloop
  endfacet
  facet normal 0 1 -0
    outer loop
      vertex -77.3528 -63 295
      vertex -78.8528 -63 305
      vertex -77.3528 -63 305
    endloop
  endfacet
  facet normal 0 1 0
    outer loop
      vertex -78.8528 -63 305
      vertex -77.3528 -63 295
      vertex -78.8528 -63 295
    endloop
  endfacet
  facet normal -0 0 1
    outer loop
      vertex 77.3528 -33 295
      vertex 78.8528 -63 295
      vertex 78.8528 -33 295
    endloop
  endfacet
  facet normal 0 0 1
    outer loop
      vertex 78.8528 -63 295
      vertex 77.3528 -33 295
      vertex 77.3528 -63 295
    endloop
  endfacet
  facet normal 1 -0 0
    outer loop
      vertex 77.3528 -63 305
      vertex 77.3528 -33 295
      vertex 77.3528 -33 305
    endloop
  endfacet
  facet normal 1 0 0
    outer loop
      vertex 77.3528 -33 295
      vertex 77.3528 -63 305
      vertex 77.3528 -63 295
    endloop
  endfacet
  facet normal 0 -1 0
    outer loop
      vertex 77.3528 -33 295
      vertex 78.8528 -33 305
      vertex 77.3528 -33 305
    endloop
  endfacet
  facet normal 0 -1 -0
    outer loop
      vertex 78.8528 -33 305
      vertex 77.3528 -33 295
      vertex 78.8528 -33 295
    endloop
  endfacet
  facet normal 0 0 -1
    outer loop
      vertex 77.3528 -63 305
      vertex 78.8528 -33 305
      vertex 78.8528 -63 305
    endloop
  endfacet
  facet normal -0 0 -1
    outer loop
      vertex 78.8528 -33 305
      vertex 77.3528 -63 305
      vertex 77.3528 -33 305
    endloop
  endfacet
  facet normal 0 1 -0
    outer loop
      vertex 78.8528 -63 295
      vertex 77.3528 -63 305
      vertex 78.8528 -63 305
    endloop
  endfacet
  facet normal 0 1 0
    outer loop
      vertex 77.3528 -63 305
      vertex 78.8528 -63 295
      vertex 77.3528 -63 295
    endloop
  endfacet
  facet normal -1 0 0
    outer loop
      vertex -77.3528 -63 275
      vertex -77.3528 -33 285
      vertex -77.3528 -33 275
    endloop
  endfacet
  facet normal -1 -0 0
    outer loop
      vertex -77.3528 -33 285
      vertex -77.3528 -63 275
      vertex -77.3528 -63 285
    endloop
  endfacet
  facet normal -0 0 1
    outer loop
      vertex -78.8528 -33 275
      vertex -77.3528 -63 275
      vertex -77.3528 -33 275
    endloop
  endfacet
  facet normal 0 0 1
    outer loop
      vertex -77.3528 -63 275
      vertex -78.8528 -33 275
      vertex -78.8528 -63 275
    endloop
  endfacet
  facet normal 0 0 -1
    outer loop
      vertex -78.8528 -63 285
      vertex -77.3528 -33 285
      vertex -77.3528 -63 285
    endloop
  endfacet
  facet normal -0 0 -1
    outer loop
      vertex -77.3528 -33 285
      vertex -78.8528 -63 285
      vertex -78.8528 -33 285
    endloop
  endfacet
  facet normal 0 1 -0
    outer loop
      vertex -77.3528 -63 275
      vertex -78.8528 -63 285
      vertex -77.3528 -63 285
    endloop
  endfacet
  facet normal 0 1 0
    outer loop
      vertex -78.8528 -63 285
      vertex -77.3528 -63 275
      vertex -78.8528 -63 275
    endloop
  endfacet
  facet normal 0 -1 0
    outer loop
      vertex -78.8528 -33 275
      vertex -77.3528 -33 285
      vertex -78.8528 -33 285
    endloop
  endfacet
  facet normal 0 -1 -0
    outer loop
      vertex -77.3528 -33 285
      vertex -78.8528 -33 275
      vertex -77.3528 -33 275
    endloop
  endfacet
  facet normal -0 0 1
    outer loop
      vertex 77.3528 -33 275
      vertex 78.8528 -63 275
      vertex 78.8528 -33 275
    endloop
  endfacet
  facet normal 0 0 1
    outer loop
      vertex 78.8528 -63 275
      vertex 77.3528 -33 275
      vertex 77.3528 -63 275
    endloop
  endfacet
  facet normal 1 -0 0
    outer loop
      vertex 77.3528 -63 285
      vertex 77.3528 -33 275
      vertex 77.3528 -33 285
    endloop
  endfacet
  facet normal 1 0 0
    outer loop
      vertex 77.3528 -33 275
      vertex 77.3528 -63 285
      vertex 77.3528 -63 275
    endloop
  endfacet
  facet normal 0 -1 0
    outer loop
      vertex 77.3528 -33 275
      vertex 78.8528 -33 285
      vertex 77.3528 -33 285
    endloop
  endfacet
  facet normal 0 -1 -0
    outer loop
      vertex 78.8528 -33 285
      vertex 77.3528 -33 275
      vertex 78.8528 -33 275
    endloop
  endfacet
  facet normal 0 0 -1
    outer loop
      vertex 77.3528 -63 285
      vertex 78.8528 -33 285
      vertex 78.8528 -63 285
    endloop
  endfacet
  facet normal -0 0 -1
    outer loop
      vertex 78.8528 -33 285
      vertex 77.3528 -63 285
      vertex 77.3528 -33 285
    endloop
  endfacet
  facet normal 0 1 -0
    outer loop
      vertex 78.8528 -63 275
      vertex 77.3528 -63 285
      vertex 78.8528 -63 285
    endloop
  endfacet
  facet normal 0 1 0
    outer loop
      vertex 77.3528 -63 285
      vertex 78.8528 -63 275
      vertex 77.3528 -63 275
    endloop
  endfacet
  facet normal -1 0 0
    outer loop
      vertex -77.3528 -63 255
      vertex -77.3528 -33 265
      vertex -77.3528 -33 255
    endloop
  endfacet
  facet normal -1 -0 0
    outer loop
      vertex -77.3528 -33 265
      vertex -77.3528 -63 255
      vertex -77.3528 -63 265
    endloop
  endfacet
  facet normal -0 0 1
    outer loop
      vertex -78.8528 -33 255
      vertex -77.3528 -63 255
      vertex -77.3528 -33 255
    endloop
  endfacet
  facet normal 0 0 1
    outer loop
      vertex -77.3528 -63 255
      vertex -78.8528 -33 255
      vertex -78.8528 -63 255
    endloop
  endfacet
  facet normal 0 -1 0
    outer loop
      vertex -78.8528 -33 255
      vertex -77.3528 -33 265
      vertex -78.8528 -33 265
    endloop
  endfacet
  facet normal 0 -1 -0
    outer loop
      vertex -77.3528 -33 265
      vertex -78.8528 -33 255
      vertex -77.3528 -33 255
    endloop
  endfacet
  facet normal 0 0 -1
    outer loop
      vertex -78.8528 -63 265
      vertex -77.3528 -33 265
      vertex -77.3528 -63 265
    endloop
  endfacet
  facet normal -0 0 -1
    outer loop
      vertex -77.3528 -33 265
      vertex -78.8528 -63 265
      vertex -78.8528 -33 265
    endloop
  endfacet
  facet normal 0 1 -0
    outer loop
      vertex -77.3528 -63 255
      vertex -78.8528 -63 265
      vertex -77.3528 -63 265
    endloop
  endfacet
  facet normal 0 1 0
    outer loop
      vertex -78.8528 -63 265
      vertex -77.3528 -63 255
      vertex -78.8528 -63 255
    endloop
  endfacet
  facet normal -0 0 1
    outer loop
      vertex 77.3528 -33 255
      vertex 78.8528 -63 255
      vertex 78.8528 -33 255
    endloop
  endfacet
  facet normal 0 0 1
    outer loop
      vertex 78.8528 -63 255
      vertex 77.3528 -33 255
      vertex 77.3528 -63 255
    endloop
  endfacet
  facet normal 1 -0 0
    outer loop
      vertex 77.3528 -63 265
      vertex 77.3528 -33 255
      vertex 77.3528 -33 265
    endloop
  endfacet
  facet normal 1 0 0
    outer loop
      vertex 77.3528 -33 255
      vertex 77.3528 -63 265
      vertex 77.3528 -63 255
    endloop
  endfacet
  facet normal 0 0 -1
    outer loop
      vertex 77.3528 -63 265
      vertex 78.8528 -33 265
      vertex 78.8528 -63 265
    endloop
  endfacet
  facet normal -0 0 -1
    outer loop
      vertex 78.8528 -33 265
      vertex 77.3528 -63 265
      vertex 77.3528 -33 265
    endloop
  endfacet
  facet normal 0 1 -0
    outer loop
      vertex 78.8528 -63 255
      vertex 77.3528 -63 265
      vertex 78.8528 -63 265
    endloop
  endfacet
  facet normal 0 1 0
    outer loop
      vertex 77.3528 -63 265
      vertex 78.8528 -63 255
      vertex 77.3528 -63 255
    endloop
  endfacet
  facet normal 0 -1 0
    outer loop
      vertex 77.3528 -33 255
      vertex 78.8528 -33 265
      vertex 77.3528 -33 265
    endloop
  endfacet
  facet normal 0 -1 -0
    outer loop
      vertex 78.8528 -33 265
      vertex 77.3528 -33 255
      vertex 78.8528 -33 255
    endloop
  endfacet
  facet normal -1 0 0
    outer loop
      vertex -77.3528 -63 235
      vertex -77.3528 -33 245
      vertex -77.3528 -33 235
    endloop
  endfacet
  facet normal -1 -0 0
    outer loop
      vertex -77.3528 -33 245
      vertex -77.3528 -63 235
      vertex -77.3528 -63 245
    endloop
  endfacet
  facet normal -0 0 1
    outer loop
      vertex -78.8528 -33 235
      vertex -77.3528 -63 235
      vertex -77.3528 -33 235
    endloop
  endfacet
  facet normal 0 0 1
    outer loop
      vertex -77.3528 -63 235
      vertex -78.8528 -33 235
      vertex -78.8528 -63 235
    endloop
  endfacet
  facet normal 0 -1 0
    outer loop
      vertex -78.8528 -33 235
      vertex -77.3528 -33 245
      vertex -78.8528 -33 245
    endloop
  endfacet
  facet normal 0 -1 -0
    outer loop
      vertex -77.3528 -33 245
      vertex -78.8528 -33 235
      vertex -77.3528 -33 235
    endloop
  endfacet
  facet normal 0 0 -1
    outer loop
      vertex -78.8528 -63 245
      vertex -77.3528 -33 245
      vertex -77.3528 -63 245
    endloop
  endfacet
  facet normal -0 0 -1
    outer loop
      vertex -77.3528 -33 245
      vertex -78.8528 -63 245
      vertex -78.8528 -33 245
    endloop
  endfacet
  facet normal 0 1 -0
    outer loop
      vertex -77.3528 -63 235
      vertex -78.8528 -63 245
      vertex -77.3528 -63 245
    endloop
  endfacet
  facet normal 0 1 0
    outer loop
      vertex -78.8528 -63 245
      vertex -77.3528 -63 235
      vertex -78.8528 -63 235
    endloop
  endfacet
  facet normal -0 0 1
    outer loop
      vertex 77.3528 -33 235
      vertex 78.8528 -63 235
      vertex 78.8528 -33 235
    endloop
  endfacet
  facet normal 0 0 1
    outer loop
      vertex 78.8528 -63 235
      vertex 77.3528 -33 235
      vertex 77.3528 -63 235
    endloop
  endfacet
  facet normal 1 -0 0
    outer loop
      vertex 77.3528 -63 245
      vertex 77.3528 -33 235
      vertex 77.3528 -33 245
    endloop
  endfacet
  facet normal 1 0 0
    outer loop
      vertex 77.3528 -33 235
      vertex 77.3528 -63 245
      vertex 77.3528 -63 235
    endloop
  endfacet
  facet normal 0 -1 0
    outer loop
      vertex 77.3528 -33 235
      vertex 78.8528 -33 245
      vertex 77.3528 -33 245
    endloop
  endfacet
  facet normal 0 -1 -0
    outer loop
      vertex 78.8528 -33 245
      vertex 77.3528 -33 235
      vertex 78.8528 -33 235
    endloop
  endfacet
  facet normal 0 0 -1
    outer loop
      vertex 77.3528 -63 245
      vertex 78.8528 -33 245
      vertex 78.8528 -63 245
    endloop
  endfacet
  facet normal -0 0 -1
    outer loop
      vertex 78.8528 -33 245
      vertex 77.3528 -63 245
      vertex 77.3528 -33 245
    endloop
  endfacet
  facet normal 0 1 -0
    outer loop
      vertex 78.8528 -63 235
      vertex 77.3528 -63 245
      vertex 78.8528 -63 245
    endloop
  endfacet
  facet normal 0 1 0
    outer loop
      vertex 77.3528 -63 245
      vertex 78.8528 -63 235
      vertex 77.3528 -63 235
    endloop
  endfacet
  facet normal -1 0 0
    outer loop
      vertex -77.3528 -63 215
      vertex -77.3528 -33 225
      vertex -77.3528 -33 215
    endloop
  endfacet
  facet normal -1 -0 0
    outer loop
      vertex -77.3528 -33 225
      vertex -77.3528 -63 215
      vertex -77.3528 -63 225
    endloop
  endfacet
  facet normal -0 0 1
    outer loop
      vertex -78.8528 -33 215
      vertex -77.3528 -63 215
      vertex -77.3528 -33 215
    endloop
  endfacet
  facet normal 0 0 1
    outer loop
      vertex -77.3528 -63 215
      vertex -78.8528 -33 215
      vertex -78.8528 -63 215
    endloop
  endfacet
  facet normal 0 -1 0
    outer loop
      vertex -78.8528 -33 215
      vertex -77.3528 -33 225
      vertex -78.8528 -33 225
    endloop
  endfacet
  facet normal 0 -1 -0
    outer loop
      vertex -77.3528 -33 225
      vertex -78.8528 -33 215
      vertex -77.3528 -33 215
    endloop
  endfacet
  facet normal 0 0 -1
    outer loop
      vertex -78.8528 -63 225
      vertex -77.3528 -33 225
      vertex -77.3528 -63 225
    endloop
  endfacet
  facet normal -0 0 -1
    outer loop
      vertex -77.3528 -33 225
      vertex -78.8528 -63 225
      vertex -78.8528 -33 225
    endloop
  endfacet
  facet normal 0 1 -0
    outer loop
      vertex -77.3528 -63 215
      vertex -78.8528 -63 225
      vertex -77.3528 -63 225
    endloop
  endfacet
  facet normal 0 1 0
    outer loop
      vertex -78.8528 -63 225
      vertex -77.3528 -63 215
      vertex -78.8528 -63 215
    endloop
  endfacet
  facet normal -0 0 1
    outer loop
      vertex 77.3528 -33 215
      vertex 78.8528 -63 215
      vertex 78.8528 -33 215
    endloop
  endfacet
  facet normal 0 0 1
    outer loop
      vertex 78.8528 -63 215
      vertex 77.3528 -33 215
      vertex 77.3528 -63 215
    endloop
  endfacet
  facet normal 1 -0 0
    outer loop
      vertex 77.3528 -63 225
      vertex 77.3528 -33 215
      vertex 77.3528 -33 225
    endloop
  endfacet
  facet normal 1 0 0
    outer loop
      vertex 77.3528 -33 215
      vertex 77.3528 -63 225
      vertex 77.3528 -63 215
    endloop
  endfacet
  facet normal 0 -1 0
    outer loop
      vertex 77.3528 -33 215
      vertex 78.8528 -33 225
      vertex 77.3528 -33 225
    endloop
  endfacet
  facet normal 0 -1 -0
    outer loop
      vertex 78.8528 -33 225
      vertex 77.3528 -33 215
      vertex 78.8528 -33 215
    endloop
  endfacet
  facet normal 0 0 -1
    outer loop
      vertex 77.3528 -63 225
      vertex 78.8528 -33 225
      vertex 78.8528 -63 225
    endloop
  endfacet
  facet normal -0 0 -1
    outer loop
      vertex 78.8528 -33 225
      vertex 77.3528 -63 225
      vertex 77.3528 -33 225
    endloop
  endfacet
  facet normal 0 1 -0
    outer loop
      vertex 78.8528 -63 215
      vertex 77.3528 -63 225
      vertex 78.8528 -63 225
    endloop
  endfacet
  facet normal 0 1 0
    outer loop
      vertex 77.3528 -63 225
      vertex 78.8528 -63 215
      vertex 77.3528 -63 215
    endloop
  endfacet
  facet normal -1 0 0
    outer loop
      vertex -77.3528 -63 195
      vertex -77.3528 -33 205
      vertex -77.3528 -33 195
    endloop
  endfacet
  facet normal -1 -0 0
    outer loop
      vertex -77.3528 -33 205
      vertex -77.3528 -63 195
      vertex -77.3528 -63 205
    endloop
  endfacet
  facet normal -0 0 1
    outer loop
      vertex -78.8528 -33 195
      vertex -77.3528 -63 195
      vertex -77.3528 -33 195
    endloop
  endfacet
  facet normal 0 0 1
    outer loop
      vertex -77.3528 -63 195
      vertex -78.8528 -33 195
      vertex -78.8528 -63 195
    endloop
  endfacet
  facet normal 0 -1 0
    outer loop
      vertex -78.8528 -33 195
      vertex -77.3528 -33 205
      vertex -78.8528 -33 205
    endloop
  endfacet
  facet normal 0 -1 -0
    outer loop
      vertex -77.3528 -33 205
      vertex -78.8528 -33 195
      vertex -77.3528 -33 195
    endloop
  endfacet
  facet normal 0 0 -1
    outer loop
      vertex -78.8528 -63 205
      vertex -77.3528 -33 205
      vertex -77.3528 -63 205
    endloop
  endfacet
  facet normal -0 0 -1
    outer loop
      vertex -77.3528 -33 205
      vertex -78.8528 -63 205
      vertex -78.8528 -33 205
    endloop
  endfacet
  facet normal 0 1 -0
    outer loop
      vertex -77.3528 -63 195
      vertex -78.8528 -63 205
      vertex -77.3528 -63 205
    endloop
  endfacet
  facet normal 0 1 0
    outer loop
      vertex -78.8528 -63 205
      vertex -77.3528 -63 195
      vertex -78.8528 -63 195
    endloop
  endfacet
  facet normal -0 0 1
    outer loop
      vertex 77.3528 -33 195
      vertex 78.8528 -63 195
      vertex 78.8528 -33 195
    endloop
  endfacet
  facet normal 0 0 1
    outer loop
      vertex 78.8528 -63 195
      vertex 77.3528 -33 195
      vertex 77.3528 -63 195
    endloop
  endfacet
  facet normal 1 -0 0
    outer loop
      vertex 77.3528 -63 205
      vertex 77.3528 -33 195
      vertex 77.3528 -33 205
    endloop
  endfacet
  facet normal 1 0 0
    outer loop
      vertex 77.3528 -33 195
      vertex 77.3528 -63 205
      vertex 77.3528 -63 195
    endloop
  endfacet
  facet normal 0 -1 0
    outer loop
      vertex 77.3528 -33 195
      vertex 78.8528 -33 205
      vertex 77.3528 -33 205
    endloop
  endfacet
  facet normal 0 -1 -0
    outer loop
      vertex 78.8528 -33 205
      vertex 77.3528 -33 195
      vertex 78.8528 -33 195
    endloop
  endfacet
  facet normal 0 0 -1
    outer loop
      vertex 77.3528 -63 205
      vertex 78.8528 -33 205
      vertex 78.8528 -63 205
    endloop
  endfacet
  facet normal -0 0 -1
    outer loop
      vertex 78.8528 -33 205
      vertex 77.3528 -63 205
      vertex 77.3528 -33 205
    endloop
  endfacet
  facet normal 0 1 -0
    outer loop
      vertex 78.8528 -63 195
      vertex 77.3528 -63 205
      vertex 78.8528 -63 205
    endloop
  endfacet
  facet normal 0 1 0
    outer loop
      vertex 77.3528 -63 205
      vertex 78.8528 -63 195
      vertex 77.3528 -63 195
    endloop
  endfacet
  facet normal -1 0 0
    outer loop
      vertex -77.3528 -63 175
      vertex -77.3528 -33 185
      vertex -77.3528 -33 175
    endloop
  endfacet
  facet normal -1 -0 0
    outer loop
      vertex -77.3528 -33 185
      vertex -77.3528 -63 175
      vertex -77.3528 -63 185
    endloop
  endfacet
  facet normal -0 0 1
    outer loop
      vertex -78.8528 -33 175
      vertex -77.3528 -63 175
      vertex -77.3528 -33 175
    endloop
  endfacet
  facet normal 0 0 1
    outer loop
      vertex -77.3528 -63 175
      vertex -78.8528 -33 175
      vertex -78.8528 -63 175
    endloop
  endfacet
  facet normal 0 -1 0
    outer loop
      vertex -78.8528 -33 175
      vertex -77.3528 -33 185
      vertex -78.8528 -33 185
    endloop
  endfacet
  facet normal 0 -1 -0
    outer loop
      vertex -77.3528 -33 185
      vertex -78.8528 -33 175
      vertex -77.3528 -33 175
    endloop
  endfacet
  facet normal 0 0 -1
    outer loop
      vertex -78.8528 -63 185
      vertex -77.3528 -33 185
      vertex -77.3528 -63 185
    endloop
  endfacet
  facet normal -0 0 -1
    outer loop
      vertex -77.3528 -33 185
      vertex -78.8528 -63 185
      vertex -78.8528 -33 185
    endloop
  endfacet
  facet normal 0 1 -0
    outer loop
      vertex -77.3528 -63 175
      vertex -78.8528 -63 185
      vertex -77.3528 -63 185
    endloop
  endfacet
  facet normal 0 1 0
    outer loop
      vertex -78.8528 -63 185
      vertex -77.3528 -63 175
      vertex -78.8528 -63 175
    endloop
  endfacet
  facet normal -0 0 1
    outer loop
      vertex 77.3528 -33 175
      vertex 78.8528 -63 175
      vertex 78.8528 -33 175
    endloop
  endfacet
  facet normal 0 0 1
    outer loop
      vertex 78.8528 -63 175
      vertex 77.3528 -33 175
      vertex 77.3528 -63 175
    endloop
  endfacet
  facet normal 1 -0 0
    outer loop
      vertex 77.3528 -63 185
      vertex 77.3528 -33 175
      vertex 77.3528 -33 185
    endloop
  endfacet
  facet normal 1 0 0
    outer loop
      vertex 77.3528 -33 175
      vertex 77.3528 -63 185
      vertex 77.3528 -63 175
    endloop
  endfacet
  facet normal 0 -1 0
    outer loop
      vertex 77.3528 -33 175
      vertex 78.8528 -33 185
      vertex 77.3528 -33 185
    endloop
  endfacet
  facet normal 0 -1 -0
    outer loop
      vertex 78.8528 -33 185
      vertex 77.3528 -33 175
      vertex 78.8528 -33 175
    endloop
  endfacet
  facet normal 0 0 -1
    outer loop
      vertex 77.3528 -63 185
      vertex 78.8528 -33 185
      vertex 78.8528 -63 185
    endloop
  endfacet
  facet normal -0 0 -1
    outer loop
      vertex 78.8528 -33 185
      vertex 77.3528 -63 185
      vertex 77.3528 -33 185
    endloop
  endfacet
  facet normal 0 1 -0
    outer loop
      vertex 78.8528 -63 175
      vertex 77.3528 -63 185
      vertex 78.8528 -63 185
    endloop
  endfacet
  facet normal 0 1 0
    outer loop
      vertex 77.3528 -63 185
      vertex 78.8528 -63 175
      vertex 77.3528 -63 175
    endloop
  endfacet
  facet normal 1 -0 0
    outer loop
      vertex 55 -63 320
      vertex 55 -33 318.5
      vertex 55 -33 320
    endloop
  endfacet
  facet normal 1 0 0
    outer loop
      vertex 55 -33 318.5
      vertex 55 -63 320
      vertex 55 -63 318.5
    endloop
  endfacet
  facet normal -0 0 1
    outer loop
      vertex 55 -33 318.5
      vertex 65 -63 318.5
      vertex 65 -33 318.5
    endloop
  endfacet
  facet normal 0 0 1
    outer loop
      vertex 65 -63 318.5
      vertex 55 -33 318.5
      vertex 55 -63 318.5
    endloop
  endfacet
  facet normal 0 1 -0
    outer loop
      vertex 65 -63 318.5
      vertex 55 -63 320
      vertex 65 -63 320
    endloop
  endfacet
  facet normal 0 1 0
    outer loop
      vertex 55 -63 320
      vertex 65 -63 318.5
      vertex 55 -63 318.5
    endloop
  endfacet
  facet normal -1 0 0
    outer loop
      vertex 65 -63 318.5
      vertex 65 -33 320
      vertex 65 -33 318.5
    endloop
  endfacet
  facet normal -1 -0 0
    outer loop
      vertex 65 -33 320
      vertex 65 -63 318.5
      vertex 65 -63 320
    endloop
  endfacet
  facet normal 0 -1 0
    outer loop
      vertex 55 -33 318.5
      vertex 65 -33 320
      vertex 55 -33 320
    endloop
  endfacet
  facet normal 0 -1 -0
    outer loop
      vertex 65 -33 320
      vertex 55 -33 318.5
      vertex 65 -33 318.5
    endloop
  endfacet
  facet normal 1 -0 0
    outer loop
      vertex 35 -63 320
      vertex 35 -33 318.5
      vertex 35 -33 320
    endloop
  endfacet
  facet normal 1 0 0
    outer loop
      vertex 35 -33 318.5
      vertex 35 -63 320
      vertex 35 -63 318.5
    endloop
  endfacet
  facet normal -0 0 1
    outer loop
      vertex 35 -33 318.5
      vertex 45 -63 318.5
      vertex 45 -33 318.5
    endloop
  endfacet
  facet normal 0 0 1
    outer loop
      vertex 45 -63 318.5
      vertex 35 -33 318.5
      vertex 35 -63 318.5
    endloop
  endfacet
  facet normal 0 1 -0
    outer loop
      vertex 45 -63 318.5
      vertex 35 -63 320
      vertex 45 -63 320
    endloop
  endfacet
  facet normal 0 1 0
    outer loop
      vertex 35 -63 320
      vertex 45 -63 318.5
      vertex 35 -63 318.5
    endloop
  endfacet
  facet normal -1 0 0
    outer loop
      vertex 45 -63 318.5
      vertex 45 -33 320
      vertex 45 -33 318.5
    endloop
  endfacet
  facet normal -1 -0 0
    outer loop
      vertex 45 -33 320
      vertex 45 -63 318.5
      vertex 45 -63 320
    endloop
  endfacet
  facet normal 0 -1 0
    outer loop
      vertex 35 -33 318.5
      vertex 45 -33 320
      vertex 35 -33 320
    endloop
  endfacet
  facet normal 0 -1 -0
    outer loop
      vertex 45 -33 320
      vertex 35 -33 318.5
      vertex 45 -33 318.5
    endloop
  endfacet
  facet normal 1 -0 0
    outer loop
      vertex 15 -63 320
      vertex 15 -33 318.5
      vertex 15 -33 320
    endloop
  endfacet
  facet normal 1 0 0
    outer loop
      vertex 15 -33 318.5
      vertex 15 -63 320
      vertex 15 -63 318.5
    endloop
  endfacet
  facet normal -0 0 1
    outer loop
      vertex 15 -33 318.5
      vertex 25 -63 318.5
      vertex 25 -33 318.5
    endloop
  endfacet
  facet normal 0 0 1
    outer loop
      vertex 25 -63 318.5
      vertex 15 -33 318.5
      vertex 15 -63 318.5
    endloop
  endfacet
  facet normal 0 1 -0
    outer loop
      vertex 25 -63 318.5
      vertex 15 -63 320
      vertex 25 -63 320
    endloop
  endfacet
  facet normal 0 1 0
    outer loop
      vertex 15 -63 320
      vertex 25 -63 318.5
      vertex 15 -63 318.5
    endloop
  endfacet
  facet normal -1 0 0
    outer loop
      vertex 25 -63 318.5
      vertex 25 -33 320
      vertex 25 -33 318.5
    endloop
  endfacet
  facet normal -1 -0 0
    outer loop
      vertex 25 -33 320
      vertex 25 -63 318.5
      vertex 25 -63 320
    endloop
  endfacet
  facet normal 0 -1 0
    outer loop
      vertex 15 -33 318.5
      vertex 25 -33 320
      vertex 15 -33 320
    endloop
  endfacet
  facet normal 0 -1 -0
    outer loop
      vertex 25 -33 320
      vertex 15 -33 318.5
      vertex 25 -33 318.5
    endloop
  endfacet
  facet normal 1 -0 0
    outer loop
      vertex -5 -63 320
      vertex -5 -33 318.5
      vertex -5 -33 320
    endloop
  endfacet
  facet normal 1 0 0
    outer loop
      vertex -5 -33 318.5
      vertex -5 -63 320
      vertex -5 -63 318.5
    endloop
  endfacet
  facet normal -0 0 1
    outer loop
      vertex -5 -33 318.5
      vertex 5 -63 318.5
      vertex 5 -33 318.5
    endloop
  endfacet
  facet normal 0 0 1
    outer loop
      vertex 5 -63 318.5
      vertex -5 -33 318.5
      vertex -5 -63 318.5
    endloop
  endfacet
  facet normal 0 1 -0
    outer loop
      vertex 5 -63 318.5
      vertex -5 -63 320
      vertex 5 -63 320
    endloop
  endfacet
  facet normal 0 1 0
    outer loop
      vertex -5 -63 320
      vertex 5 -63 318.5
      vertex -5 -63 318.5
    endloop
  endfacet
  facet normal -1 0 0
    outer loop
      vertex 5 -63 318.5
      vertex 5 -33 320
      vertex 5 -33 318.5
    endloop
  endfacet
  facet normal -1 -0 0
    outer loop
      vertex 5 -33 320
      vertex 5 -63 318.5
      vertex 5 -63 320
    endloop
  endfacet
  facet normal 0 -1 0
    outer loop
      vertex -5 -33 318.5
      vertex 5 -33 320
      vertex -5 -33 320
    endloop
  endfacet
  facet normal 0 -1 -0
    outer loop
      vertex 5 -33 320
      vertex -5 -33 318.5
      vertex 5 -33 318.5
    endloop
  endfacet
  facet normal 1 -0 0
    outer loop
      vertex -25 -63 320
      vertex -25 -33 318.5
      vertex -25 -33 320
    endloop
  endfacet
  facet normal 1 0 0
    outer loop
      vertex -25 -33 318.5
      vertex -25 -63 320
      vertex -25 -63 318.5
    endloop
  endfacet
  facet normal -0 0 1
    outer loop
      vertex -25 -33 318.5
      vertex -15 -63 318.5
      vertex -15 -33 318.5
    endloop
  endfacet
  facet normal 0 0 1
    outer loop
      vertex -15 -63 318.5
      vertex -25 -33 318.5
      vertex -25 -63 318.5
    endloop
  endfacet
  facet normal 0 1 -0
    outer loop
      vertex -15 -63 318.5
      vertex -25 -63 320
      vertex -15 -63 320
    endloop
  endfacet
  facet normal 0 1 0
    outer loop
      vertex -25 -63 320
      vertex -15 -63 318.5
      vertex -25 -63 318.5
    endloop
  endfacet
  facet normal -1 0 0
    outer loop
      vertex -15 -63 318.5
      vertex -15 -33 320
      vertex -15 -33 318.5
    endloop
  endfacet
  facet normal -1 -0 0
    outer loop
      vertex -15 -33 320
      vertex -15 -63 318.5
      vertex -15 -63 320
    endloop
  endfacet
  facet normal 0 -1 0
    outer loop
      vertex -25 -33 318.5
      vertex -15 -33 320
      vertex -25 -33 320
    endloop
  endfacet
  facet normal 0 -1 -0
    outer loop
      vertex -15 -33 320
      vertex -25 -33 318.5
      vertex -15 -33 318.5
    endloop
  endfacet
  facet normal 1 -0 0
    outer loop
      vertex -45 -63 320
      vertex -45 -33 318.5
      vertex -45 -33 320
    endloop
  endfacet
  facet normal 1 0 0
    outer loop
      vertex -45 -33 318.5
      vertex -45 -63 320
      vertex -45 -63 318.5
    endloop
  endfacet
  facet normal -0 0 1
    outer loop
      vertex -45 -33 318.5
      vertex -35 -63 318.5
      vertex -35 -33 318.5
    endloop
  endfacet
  facet normal 0 0 1
    outer loop
      vertex -35 -63 318.5
      vertex -45 -33 318.5
      vertex -45 -63 318.5
    endloop
  endfacet
  facet normal 0 1 -0
    outer loop
      vertex -35 -63 318.5
      vertex -45 -63 320
      vertex -35 -63 320
    endloop
  endfacet
  facet normal 0 1 0
    outer loop
      vertex -45 -63 320
      vertex -35 -63 318.5
      vertex -45 -63 318.5
    endloop
  endfacet
  facet normal -1 0 0
    outer loop
      vertex -35 -63 318.5
      vertex -35 -33 320
      vertex -35 -33 318.5
    endloop
  endfacet
  facet normal -1 -0 0
    outer loop
      vertex -35 -33 320
      vertex -35 -63 318.5
      vertex -35 -63 320
    endloop
  endfacet
  facet normal 0 -1 0
    outer loop
      vertex -45 -33 318.5
      vertex -35 -33 320
      vertex -45 -33 320
    endloop
  endfacet
  facet normal 0 -1 -0
    outer loop
      vertex -35 -33 320
      vertex -45 -33 318.5
      vertex -35 -33 318.5
    endloop
  endfacet
  facet normal 1 -0 0
    outer loop
      vertex -65 -63 320
      vertex -65 -33 318.5
      vertex -65 -33 320
    endloop
  endfacet
  facet normal 1 0 0
    outer loop
      vertex -65 -33 318.5
      vertex -65 -63 320
      vertex -65 -63 318.5
    endloop
  endfacet
  facet normal -0 0 1
    outer loop
      vertex -65 -33 318.5
      vertex -55 -63 318.5
      vertex -55 -33 318.5
    endloop
  endfacet
  facet normal 0 0 1
    outer loop
      vertex -55 -63 318.5
      vertex -65 -33 318.5
      vertex -65 -63 318.5
    endloop
  endfacet
  facet normal 0 1 -0
    outer loop
      vertex -55 -63 318.5
      vertex -65 -63 320
      vertex -55 -63 320
    endloop
  endfacet
  facet normal 0 1 0
    outer loop
      vertex -65 -63 320
      vertex -55 -63 318.5
      vertex -65 -63 318.5
    endloop
  endfacet
  facet normal -1 0 0
    outer loop
      vertex -55 -63 318.5
      vertex -55 -33 320
      vertex -55 -33 318.5
    endloop
  endfacet
  facet normal -1 -0 0
    outer loop
      vertex -55 -33 320
      vertex -55 -63 318.5
      vertex -55 -63 320
    endloop
  endfacet
  facet normal 0 -1 0
    outer loop
      vertex -65 -33 318.5
      vertex -55 -33 320
      vertex -65 -33 320
    endloop
  endfacet
  facet normal 0 -1 -0
    outer loop
      vertex -55 -33 320
      vertex -65 -33 318.5
      vertex -55 -33 318.5
    endloop
  endfacet
  facet normal 1 -0 0
    outer loop
      vertex 78.8528 -63 195
      vertex 78.8528 -33 185
      vertex 78.8528 -33 195
    endloop
  endfacet
  facet normal 1 0 0
    outer loop
      vertex 78.8528 -33 185
      vertex 78.8528 -63 195
      vertex 78.8528 -63 185
    endloop
  endfacet
  facet normal 1 -0 0
    outer loop
      vertex 78.8528 -63 215
      vertex 78.8528 -33 205
      vertex 78.8528 -33 215
    endloop
  endfacet
  facet normal 1 0 0
    outer loop
      vertex 78.8528 -33 205
      vertex 78.8528 -63 215
      vertex 78.8528 -63 205
    endloop
  endfacet
  facet normal 1 -0 0
    outer loop
      vertex 78.8528 -63 235
      vertex 78.8528 -33 225
      vertex 78.8528 -33 235
    endloop
  endfacet
  facet normal 1 0 0
    outer loop
      vertex 78.8528 -33 225
      vertex 78.8528 -63 235
      vertex 78.8528 -63 225
    endloop
  endfacet
  facet normal 1 -0 0
    outer loop
      vertex 78.8528 -63 255
      vertex 78.8528 -33 245
      vertex 78.8528 -33 255
    endloop
  endfacet
  facet normal 1 0 0
    outer loop
      vertex 78.8528 -33 245
      vertex 78.8528 -63 255
      vertex 78.8528 -63 245
    endloop
  endfacet
  facet normal 1 -0 0
    outer loop
      vertex 78.8528 -63 275
      vertex 78.8528 -33 265
      vertex 78.8528 -33 275
    endloop
  endfacet
  facet normal 1 0 0
    outer loop
      vertex 78.8528 -33 265
      vertex 78.8528 -63 275
      vertex 78.8528 -63 265
    endloop
  endfacet
  facet normal 1 -0 0
    outer loop
      vertex 78.8528 -63 295
      vertex 78.8528 -33 285
      vertex 78.8528 -33 295
    endloop
  endfacet
  facet normal 1 0 0
    outer loop
      vertex 78.8528 -33 285
      vertex 78.8528 -63 295
      vertex 78.8528 -63 285
    endloop
  endfacet
  facet normal 1 0 0
    outer loop
      vertex 78.8528 -23 320
      vertex 78.8528 -63 305
      vertex 78.8528 -33 305
    endloop
  endfacet
  facet normal 1 0 0
    outer loop
      vertex 78.8528 -78 320
      vertex 78.8528 -63 295
      vertex 78.8528 -63 305
    endloop
  endfacet
  facet normal 1 0 0
    outer loop
      vertex 78.8528 -63 295
      vertex 78.8528 -78 320
      vertex 78.8528 -63 285
    endloop
  endfacet
  facet normal 1 0 0
    outer loop
      vertex 78.8528 -63 285
      vertex 78.8528 -78 320
      vertex 78.8528 -63 275
    endloop
  endfacet
  facet normal 1 0 0
    outer loop
      vertex 78.8528 -63 275
      vertex 78.8528 -78 320
      vertex 78.8528 -63 265
    endloop
  endfacet
  facet normal 1 0 0
    outer loop
      vertex 78.8528 -63 265
      vertex 78.8528 -78 320
      vertex 78.8528 -63 255
    endloop
  endfacet
  facet normal 1 0 0
    outer loop
      vertex 78.8528 -63 255
      vertex 78.8528 -78 320
      vertex 78.8528 -63 245
    endloop
  endfacet
  facet normal 1 0 0
    outer loop
      vertex 78.8528 -63 245
      vertex 78.8528 -78 320
      vertex 78.8528 -63 235
    endloop
  endfacet
  facet normal 1 0 0
    outer loop
      vertex 78.8528 -78 160
      vertex 78.8528 -63 235
      vertex 78.8528 -78 320
    endloop
  endfacet
  facet normal 1 0 0
    outer loop
      vertex 78.8528 -63 235
      vertex 78.8528 -78 160
      vertex 78.8528 -63 225
    endloop
  endfacet
  facet normal 1 0 0
    outer loop
      vertex 78.8528 -63 225
      vertex 78.8528 -78 160
      vertex 78.8528 -63 215
    endloop
  endfacet
  facet normal 1 0 0
    outer loop
      vertex 78.8528 -63 215
      vertex 78.8528 -78 160
      vertex 78.8528 -63 205
    endloop
  endfacet
  facet normal 1 0 0
    outer loop
      vertex 78.8528 -63 205
      vertex 78.8528 -78 160
      vertex 78.8528 -63 195
    endloop
  endfacet
  facet normal 1 0 0
    outer loop
      vertex 78.8528 -63 195
      vertex 78.8528 -78 160
      vertex 78.8528 -63 185
    endloop
  endfacet
  facet normal 1 -0 0
    outer loop
      vertex 78.8528 -78 320
      vertex 78.8528 -63 305
      vertex 78.8528 -23 320
    endloop
  endfacet
  facet normal 1 0 0
    outer loop
      vertex 78.8528 -23 320
      vertex 78.8528 -18 336
      vertex 78.8528 -23 331
    endloop
  endfacet
  facet normal 1 -0 0
    outer loop
      vertex 78.8528 -38 336
      vertex 78.8528 -23 331
      vertex 78.8528 -18 336
    endloop
  endfacet
  facet normal 1 0 0
    outer loop
      vertex 78.8528 -23 331
      vertex 78.8528 -38 336
      vertex 78.8528 -38 331
    endloop
  endfacet
  facet normal 1 0 0
    outer loop
      vertex 78.8528 -18 336
      vertex 78.8528 -23 320
      vertex 78.8528 -18 160
    endloop
  endfacet
  facet normal 1 0 0
    outer loop
      vertex 78.8528 -33 295
      vertex 78.8528 -23 320
      vertex 78.8528 -33 305
    endloop
  endfacet
  facet normal 1 0 0
    outer loop
      vertex 78.8528 -33 285
      vertex 78.8528 -23 320
      vertex 78.8528 -33 295
    endloop
  endfacet
  facet normal 1 0 0
    outer loop
      vertex 78.8528 -33 275
      vertex 78.8528 -23 320
      vertex 78.8528 -33 285
    endloop
  endfacet
  facet normal 1 0 0
    outer loop
      vertex 78.8528 -33 265
      vertex 78.8528 -23 320
      vertex 78.8528 -33 275
    endloop
  endfacet
  facet normal 1 0 0
    outer loop
      vertex 78.8528 -33 255
      vertex 78.8528 -23 320
      vertex 78.8528 -33 265
    endloop
  endfacet
  facet normal 1 0 0
    outer loop
      vertex 78.8528 -23 320
      vertex 78.8528 -33 255
      vertex 78.8528 -18 160
    endloop
  endfacet
  facet normal 1 -0 0
    outer loop
      vertex 78.8528 -33 245
      vertex 78.8528 -18 160
      vertex 78.8528 -33 255
    endloop
  endfacet
  facet normal 1 -0 0
    outer loop
      vertex 78.8528 -33 235
      vertex 78.8528 -18 160
      vertex 78.8528 -33 245
    endloop
  endfacet
  facet normal 1 -0 0
    outer loop
      vertex 78.8528 -33 225
      vertex 78.8528 -18 160
      vertex 78.8528 -33 235
    endloop
  endfacet
  facet normal 1 -0 0
    outer loop
      vertex 78.8528 -33 215
      vertex 78.8528 -18 160
      vertex 78.8528 -33 225
    endloop
  endfacet
  facet normal 1 -0 0
    outer loop
      vertex 78.8528 -33 205
      vertex 78.8528 -18 160
      vertex 78.8528 -33 215
    endloop
  endfacet
  facet normal 1 -0 0
    outer loop
      vertex 78.8528 -33 195
      vertex 78.8528 -18 160
      vertex 78.8528 -33 205
    endloop
  endfacet
  facet normal 1 -0 0
    outer loop
      vertex 78.8528 -33 185
      vertex 78.8528 -18 160
      vertex 78.8528 -33 195
    endloop
  endfacet
  facet normal 1 -0 0
    outer loop
      vertex 78.8528 -33 175
      vertex 78.8528 -18 160
      vertex 78.8528 -33 185
    endloop
  endfacet
  facet normal 1 -0 0
    outer loop
      vertex 78.8528 -63 175
      vertex 78.8528 -18 160
      vertex 78.8528 -33 175
    endloop
  endfacet
  facet normal 1 0 0
    outer loop
      vertex 78.8528 -63 175
      vertex 78.8528 -78 160
      vertex 78.8528 -18 160
    endloop
  endfacet
  facet normal 1 0 0
    outer loop
      vertex 78.8528 -63 185
      vertex 78.8528 -78 160
      vertex 78.8528 -63 175
    endloop
  endfacet
  facet normal 0 0 -1
    outer loop
      vertex 78.8528 -78 160
      vertex 76.8528 -74 160
      vertex 78.8528 -18 160
    endloop
  endfacet
  facet normal 0 0 -1
    outer loop
      vertex 78.8528 -78 160
      vertex -76.8528 -74 160
      vertex 76.8528 -74 160
    endloop
  endfacet
  facet normal 0 0 -1
    outer loop
      vertex -78.8528 -78 160
      vertex -76.8528 -74 160
      vertex 78.8528 -78 160
    endloop
  endfacet
  facet normal 0 0 -1
    outer loop
      vertex -78.8528 -18 160
      vertex -76.8528 -74 160
      vertex -78.8528 -78 160
    endloop
  endfacet
  facet normal 0 0 -1
    outer loop
      vertex -76.8528 -74 160
      vertex -78.8528 -18 160
      vertex -76.8528 -18 160
    endloop
  endfacet
  facet normal -0 0 -1
    outer loop
      vertex 78.8528 -18 160
      vertex 76.8528 -74 160
      vertex 76.8528 -18 160
    endloop
  endfacet
  facet normal -1 0 0
    outer loop
      vertex -78.8528 -63 285
      vertex -78.8528 -33 295
      vertex -78.8528 -33 285
    endloop
  endfacet
  facet normal -1 -0 0
    outer loop
      vertex -78.8528 -33 295
      vertex -78.8528 -63 285
      vertex -78.8528 -63 295
    endloop
  endfacet
  facet normal -1 0 0
    outer loop
      vertex -78.8528 -63 265
      vertex -78.8528 -33 275
      vertex -78.8528 -33 265
    endloop
  endfacet
  facet normal -1 -0 0
    outer loop
      vertex -78.8528 -33 275
      vertex -78.8528 -63 265
      vertex -78.8528 -63 275
    endloop
  endfacet
  facet normal -1 0 0
    outer loop
      vertex -78.8528 -63 245
      vertex -78.8528 -33 255
      vertex -78.8528 -33 245
    endloop
  endfacet
  facet normal -1 -0 0
    outer loop
      vertex -78.8528 -33 255
      vertex -78.8528 -63 245
      vertex -78.8528 -63 255
    endloop
  endfacet
  facet normal -1 0 0
    outer loop
      vertex -78.8528 -63 225
      vertex -78.8528 -33 235
      vertex -78.8528 -33 225
    endloop
  endfacet
  facet normal -1 -0 0
    outer loop
      vertex -78.8528 -33 235
      vertex -78.8528 -63 225
      vertex -78.8528 -63 235
    endloop
  endfacet
  facet normal -1 0 0
    outer loop
      vertex -78.8528 -63 205
      vertex -78.8528 -33 215
      vertex -78.8528 -33 205
    endloop
  endfacet
  facet normal -1 -0 0
    outer loop
      vertex -78.8528 -33 215
      vertex -78.8528 -63 205
      vertex -78.8528 -63 215
    endloop
  endfacet
  facet normal -1 0 0
    outer loop
      vertex -78.8528 -63 185
      vertex -78.8528 -33 195
      vertex -78.8528 -33 185
    endloop
  endfacet
  facet normal -1 -0 0
    outer loop
      vertex -78.8528 -33 195
      vertex -78.8528 -63 185
      vertex -78.8528 -63 195
    endloop
  endfacet
  facet normal -1 0 0
    outer loop
      vertex -78.8528 -18 160
      vertex -78.8528 -23 320
      vertex -78.8528 -18 336
    endloop
  endfacet
  facet normal -1 0 0
    outer loop
      vertex -78.8528 -33 185
      vertex -78.8528 -18 160
      vertex -78.8528 -33 175
    endloop
  endfacet
  facet normal -1 0 0
    outer loop
      vertex -78.8528 -18 160
      vertex -78.8528 -63 175
      vertex -78.8528 -33 175
    endloop
  endfacet
  facet normal -1 0 0
    outer loop
      vertex -78.8528 -78 160
      vertex -78.8528 -63 185
      vertex -78.8528 -63 175
    endloop
  endfacet
  facet normal -1 -0 0
    outer loop
      vertex -78.8528 -63 185
      vertex -78.8528 -78 160
      vertex -78.8528 -63 195
    endloop
  endfacet
  facet normal -1 -0 0
    outer loop
      vertex -78.8528 -63 195
      vertex -78.8528 -78 160
      vertex -78.8528 -63 205
    endloop
  endfacet
  facet normal -1 -0 0
    outer loop
      vertex -78.8528 -63 205
      vertex -78.8528 -78 160
      vertex -78.8528 -63 215
    endloop
  endfacet
  facet normal -1 -0 0
    outer loop
      vertex -78.8528 -63 215
      vertex -78.8528 -78 160
      vertex -78.8528 -63 225
    endloop
  endfacet
  facet normal -1 -0 0
    outer loop
      vertex -78.8528 -63 225
      vertex -78.8528 -78 160
      vertex -78.8528 -63 235
    endloop
  endfacet
  facet normal -1 -0 0
    outer loop
      vertex -78.8528 -63 235
      vertex -78.8528 -78 160
      vertex -78.8528 -63 245
    endloop
  endfacet
  facet normal -1 0 0
    outer loop
      vertex -78.8528 -78 320
      vertex -78.8528 -63 245
      vertex -78.8528 -78 160
    endloop
  endfacet
  facet normal -1 0 0
    outer loop
      vertex -78.8528 -63 245
      vertex -78.8528 -78 320
      vertex -78.8528 -63 255
    endloop
  endfacet
  facet normal -1 0 0
    outer loop
      vertex -78.8528 -63 255
      vertex -78.8528 -78 320
      vertex -78.8528 -63 265
    endloop
  endfacet
  facet normal -1 0 0
    outer loop
      vertex -78.8528 -63 265
      vertex -78.8528 -78 320
      vertex -78.8528 -63 275
    endloop
  endfacet
  facet normal -1 0 0
    outer loop
      vertex -78.8528 -63 275
      vertex -78.8528 -78 320
      vertex -78.8528 -63 285
    endloop
  endfacet
  facet normal -1 0 0
    outer loop
      vertex -78.8528 -63 285
      vertex -78.8528 -78 320
      vertex -78.8528 -63 295
    endloop
  endfacet
  facet normal -1 0 0
    outer loop
      vertex -78.8528 -78 160
      vertex -78.8528 -63 175
      vertex -78.8528 -18 160
    endloop
  endfacet
  facet normal -1 0 0
    outer loop
      vertex -78.8528 -23 331
      vertex -78.8528 -18 336
      vertex -78.8528 -23 320
    endloop
  endfacet
  facet normal -1 0 0
    outer loop
      vertex -78.8528 -38 336
      vertex -78.8528 -23 331
      vertex -78.8528 -38 331
    endloop
  endfacet
  facet normal -1 0 0
    outer loop
      vertex -78.8528 -23 331
      vertex -78.8528 -38 336
      vertex -78.8528 -18 336
    endloop
  endfacet
  facet normal -1 0 0
    outer loop
      vertex -78.8528 -33 195
      vertex -78.8528 -18 160
      vertex -78.8528 -33 185
    endloop
  endfacet
  facet normal -1 0 0
    outer loop
      vertex -78.8528 -33 205
      vertex -78.8528 -18 160
      vertex -78.8528 -33 195
    endloop
  endfacet
  facet normal -1 0 0
    outer loop
      vertex -78.8528 -33 215
      vertex -78.8528 -18 160
      vertex -78.8528 -33 205
    endloop
  endfacet
  facet normal -1 0 0
    outer loop
      vertex -78.8528 -33 225
      vertex -78.8528 -18 160
      vertex -78.8528 -33 215
    endloop
  endfacet
  facet normal -1 0 0
    outer loop
      vertex -78.8528 -33 235
      vertex -78.8528 -18 160
      vertex -78.8528 -33 225
    endloop
  endfacet
  facet normal -1 0 0
    outer loop
      vertex -78.8528 -33 245
      vertex -78.8528 -18 160
      vertex -78.8528 -33 235
    endloop
  endfacet
  facet normal -1 0 0
    outer loop
      vertex -78.8528 -18 160
      vertex -78.8528 -33 245
      vertex -78.8528 -23 320
    endloop
  endfacet
  facet normal -1 0 0
    outer loop
      vertex -78.8528 -33 255
      vertex -78.8528 -23 320
      vertex -78.8528 -33 245
    endloop
  endfacet
  facet normal -1 0 0
    outer loop
      vertex -78.8528 -33 265
      vertex -78.8528 -23 320
      vertex -78.8528 -33 255
    endloop
  endfacet
  facet normal -1 0 0
    outer loop
      vertex -78.8528 -33 275
      vertex -78.8528 -23 320
      vertex -78.8528 -33 265
    endloop
  endfacet
  facet normal -1 0 0
    outer loop
      vertex -78.8528 -33 285
      vertex -78.8528 -23 320
      vertex -78.8528 -33 275
    endloop
  endfacet
  facet normal -1 0 0
    outer loop
      vertex -78.8528 -33 295
      vertex -78.8528 -23 320
      vertex -78.8528 -33 285
    endloop
  endfacet
  facet normal -1 0 0
    outer loop
      vertex -78.8528 -33 305
      vertex -78.8528 -23 320
      vertex -78.8528 -33 295
    endloop
  endfacet
  facet normal -1 0 0
    outer loop
      vertex -78.8528 -63 305
      vertex -78.8528 -23 320
      vertex -78.8528 -33 305
    endloop
  endfacet
  facet normal -1 0 0
    outer loop
      vertex -78.8528 -63 305
      vertex -78.8528 -78 320
      vertex -78.8528 -23 320
    endloop
  endfacet
  facet normal -1 0 0
    outer loop
      vertex -78.8528 -63 295
      vertex -78.8528 -78 320
      vertex -78.8528 -63 305
    endloop
  endfacet
  facet normal 0 1 0
    outer loop
      vertex 78.8528 -18 336
      vertex 76.8528 -18 315
      vertex -78.8528 -18 336
    endloop
  endfacet
  facet normal 0 1 -0
    outer loop
      vertex 78.8528 -18 160
      vertex 76.8528 -18 315
      vertex 78.8528 -18 336
    endloop
  endfacet
  facet normal 0 1 0
    outer loop
      vertex 76.8528 -18 315
      vertex 78.8528 -18 160
      vertex 76.8528 -18 160
    endloop
  endfacet
  facet normal 0 1 -0
    outer loop
      vertex -76.8528 -18 315
      vertex -78.8528 -18 336
      vertex 76.8528 -18 315
    endloop
  endfacet
  facet normal 0 1 0
    outer loop
      vertex -78.8528 -18 160
      vertex -76.8528 -18 315
      vertex -76.8528 -18 160
    endloop
  endfacet
  facet normal 0 1 0
    outer loop
      vertex -76.8528 -18 315
      vertex -78.8528 -18 160
      vertex -78.8528 -18 336
    endloop
  endfacet
  facet normal 0 0 1
    outer loop
      vertex 65 -63 320
      vertex 78.8528 -23 320
      vertex 65 -33 320
    endloop
  endfacet
  facet normal 0 0 1
    outer loop
      vertex 78.8528 -23 320
      vertex 55 -33 320
      vertex 65 -33 320
    endloop
  endfacet
  facet normal 0 0 1
    outer loop
      vertex 55 -33 320
      vertex 45 -33 320
      vertex 55 -63 320
    endloop
  endfacet
  facet normal 0 0 1
    outer loop
      vertex 78.8528 -23 320
      vertex 45 -33 320
      vertex 55 -33 320
    endloop
  endfacet
  facet normal 0 0 1
    outer loop
      vertex 78.8528 -23 320
      vertex 35 -33 320
      vertex 45 -33 320
    endloop
  endfacet
  facet normal 0 0 1
    outer loop
      vertex 35 -33 320
      vertex 25 -33 320
      vertex 35 -63 320
    endloop
  endfacet
  facet normal 0 0 1
    outer loop
      vertex 78.8528 -23 320
      vertex 25 -33 320
      vertex 35 -33 320
    endloop
  endfacet
  facet normal 0 0 1
    outer loop
      vertex 78.8528 -23 320
      vertex 15 -33 320
      vertex 25 -33 320
    endloop
  endfacet
  facet normal 0 0 1
    outer loop
      vertex 15 -33 320
      vertex 5 -33 320
      vertex 15 -63 320
    endloop
  endfacet
  facet normal 0 0 1
    outer loop
      vertex 78.8528 -23 320
      vertex 5 -33 320
      vertex 15 -33 320
    endloop
  endfacet
  facet normal 0 0 1
    outer loop
      vertex 78.8528 -23 320
      vertex -5 -33 320
      vertex 5 -33 320
    endloop
  endfacet
  facet normal 0 0 1
    outer loop
      vertex -5 -33 320
      vertex -15 -33 320
      vertex -5 -63 320
    endloop
  endfacet
  facet normal -0 0 1
    outer loop
      vertex -78.8528 -23 320
      vertex -5 -33 320
      vertex 78.8528 -23 320
    endloop
  endfacet
  facet normal 0 0 1
    outer loop
      vertex -5 -33 320
      vertex -78.8528 -23 320
      vertex -15 -33 320
    endloop
  endfacet
  facet normal 0 0 1
    outer loop
      vertex -25 -33 320
      vertex -35 -33 320
      vertex -25 -63 320
    endloop
  endfacet
  facet normal 0 0 1
    outer loop
      vertex -15 -33 320
      vertex -78.8528 -23 320
      vertex -25 -33 320
    endloop
  endfacet
  facet normal 0 0 1
    outer loop
      vertex -25 -33 320
      vertex -78.8528 -23 320
      vertex -35 -33 320
    endloop
  endfacet
  facet normal 0 0 1
    outer loop
      vertex -45 -33 320
      vertex -55 -33 320
      vertex -45 -63 320
    endloop
  endfacet
  facet normal 0 0 1
    outer loop
      vertex -35 -33 320
      vertex -78.8528 -23 320
      vertex -45 -33 320
    endloop
  endfacet
  facet normal 0 0 1
    outer loop
      vertex -45 -33 320
      vertex -78.8528 -23 320
      vertex -55 -33 320
    endloop
  endfacet
  facet normal 0 0 1
    outer loop
      vertex -65 -33 320
      vertex -78.8528 -23 320
      vertex -65 -63 320
    endloop
  endfacet
  facet normal 0 0 1
    outer loop
      vertex -55 -33 320
      vertex -78.8528 -23 320
      vertex -65 -33 320
    endloop
  endfacet
  facet normal 0 0 1
    outer loop
      vertex 78.8528 -23 320
      vertex 65 -63 320
      vertex 78.8528 -78 320
    endloop
  endfacet
  facet normal -0 0 1
    outer loop
      vertex 55 -63 320
      vertex 78.8528 -78 320
      vertex 65 -63 320
    endloop
  endfacet
  facet normal 0 0 1
    outer loop
      vertex 45 -63 320
      vertex 55 -63 320
      vertex 45 -33 320
    endloop
  endfacet
  facet normal -0 0 1
    outer loop
      vertex 45 -63 320
      vertex 78.8528 -78 320
      vertex 55 -63 320
    endloop
  endfacet
  facet normal -0 0 1
    outer loop
      vertex 35 -63 320
      vertex 78.8528 -78 320
      vertex 45 -63 320
    endloop
  endfacet
  facet normal 0 0 1
    outer loop
      vertex 25 -63 320
      vertex 35 -63 320
      vertex 25 -33 320
    endloop
  endfacet
  facet normal -0 0 1
    outer loop
      vertex 25 -63 320
      vertex 78.8528 -78 320
      vertex 35 -63 320
    endloop
  endfacet
  facet normal -0 0 1
    outer loop
      vertex 15 -63 320
      vertex 78.8528 -78 320
      vertex 25 -63 320
    endloop
  endfacet
  facet normal 0 0 1
    outer loop
      vertex 5 -63 320
      vertex 15 -63 320
      vertex 5 -33 320
    endloop
  endfacet
  facet normal -0 0 1
    outer loop
      vertex 5 -63 320
      vertex 78.8528 -78 320
      vertex 15 -63 320
    endloop
  endfacet
  facet normal -0 0 1
    outer loop
      vertex -5 -63 320
      vertex 78.8528 -78 320
      vertex 5 -63 320
    endloop
  endfacet
  facet normal 0 0 1
    outer loop
      vertex -15 -63 320
      vertex -5 -63 320
      vertex -15 -33 320
    endloop
  endfacet
  facet normal 0 0 1
    outer loop
      vertex -78.8528 -78 320
      vertex -5 -63 320
      vertex -15 -63 320
    endloop
  endfacet
  facet normal 0 0 1
    outer loop
      vertex -78.8528 -78 320
      vertex -15 -63 320
      vertex -25 -63 320
    endloop
  endfacet
  facet normal 0 0 1
    outer loop
      vertex -35 -63 320
      vertex -25 -63 320
      vertex -35 -33 320
    endloop
  endfacet
  facet normal 0 0 1
    outer loop
      vertex -78.8528 -78 320
      vertex -25 -63 320
      vertex -35 -63 320
    endloop
  endfacet
  facet normal 0 0 1
    outer loop
      vertex -78.8528 -78 320
      vertex -35 -63 320
      vertex -45 -63 320
    endloop
  endfacet
  facet normal 0 0 1
    outer loop
      vertex -55 -63 320
      vertex -45 -63 320
      vertex -55 -33 320
    endloop
  endfacet
  facet normal 0 0 1
    outer loop
      vertex -78.8528 -78 320
      vertex -45 -63 320
      vertex -55 -63 320
    endloop
  endfacet
  facet normal 0 0 1
    outer loop
      vertex -78.8528 -78 320
      vertex -55 -63 320
      vertex -65 -63 320
    endloop
  endfacet
  facet normal 0 0 1
    outer loop
      vertex -5 -63 320
      vertex -78.8528 -78 320
      vertex 78.8528 -78 320
    endloop
  endfacet
  facet normal 0 0 1
    outer loop
      vertex -78.8528 -78 320
      vertex -65 -63 320
      vertex -78.8528 -23 320
    endloop
  endfacet
  facet normal 0 -1 0
    outer loop
      vertex -78.8528 -78 160
      vertex 78.8528 -78 320
      vertex -78.8528 -78 320
    endloop
  endfacet
  facet normal 0 -1 -0
    outer loop
      vertex 78.8528 -78 320
      vertex -78.8528 -78 160
      vertex 78.8528 -78 160
    endloop
  endfacet
  facet normal -1 0 0
    outer loop
      vertex 76.8528 -18 160
      vertex 76.8528 -23 315
      vertex 76.8528 -18 315
    endloop
  endfacet
  facet normal -1 0 0
    outer loop
      vertex 76.8528 -74 160
      vertex 76.8528 -23 315
      vertex 76.8528 -18 160
    endloop
  endfacet
  facet normal -1 0 0
    outer loop
      vertex 76.8528 -74 316
      vertex 76.8528 -23 315
      vertex 76.8528 -74 160
    endloop
  endfacet
  facet normal -1 0 0
    outer loop
      vertex 76.8528 -23 315
      vertex 76.8528 -74 316
      vertex 76.8528 -23 316
    endloop
  endfacet
  facet normal 1 0 0
    outer loop
      vertex -76.8528 -23 316
      vertex -76.8528 -74 316
      vertex -76.8528 -23 315
    endloop
  endfacet
  facet normal 1 -0 0
    outer loop
      vertex -76.8528 -23 315
      vertex -76.8528 -18 160
      vertex -76.8528 -18 315
    endloop
  endfacet
  facet normal 1 0 0
    outer loop
      vertex -76.8528 -74 160
      vertex -76.8528 -23 315
      vertex -76.8528 -74 316
    endloop
  endfacet
  facet normal 1 0 0
    outer loop
      vertex -76.8528 -23 315
      vertex -76.8528 -74 160
      vertex -76.8528 -18 160
    endloop
  endfacet
  facet normal 0 0 -1
    outer loop
      vertex -76.8528 -74 316
      vertex 76.8528 -23 316
      vertex 76.8528 -74 316
    endloop
  endfacet
  facet normal -0 0 -1
    outer loop
      vertex 76.8528 -23 316
      vertex -76.8528 -74 316
      vertex -76.8528 -23 316
    endloop
  endfacet
  facet normal 0 1 -0
    outer loop
      vertex 76.8528 -74 160
      vertex -76.8528 -74 316
      vertex 76.8528 -74 316
    endloop
  endfacet
  facet normal 0 1 0
    outer loop
      vertex -76.8528 -74 316
      vertex 76.8528 -74 160
      vertex -76.8528 -74 160
    endloop
  endfacet
  facet normal -0 0 1
    outer loop
      vertex -78.8528 -18 336
      vertex 78.8528 -38 336
      vertex 78.8528 -18 336
    endloop
  endfacet
  facet normal 0 0 1
    outer loop
      vertex 78.8528 -38 336
      vertex -78.8528 -18 336
      vertex -78.8528 -38 336
    endloop
  endfacet
  facet normal 0 0 -1
    outer loop
      vertex -78.8528 -38 331
      vertex 78.8528 -23 331
      vertex 78.8528 -38 331
    endloop
  endfacet
  facet normal -0 0 -1
    outer loop
      vertex 78.8528 -23 331
      vertex -78.8528 -38 331
      vertex -78.8528 -23 331
    endloop
  endfacet
  facet normal 0 -1 0
    outer loop
      vertex -78.8528 -38 331
      vertex 78.8528 -38 336
      vertex -78.8528 -38 336
    endloop
  endfacet
  facet normal 0 -1 -0
    outer loop
      vertex 78.8528 -38 336
      vertex -78.8528 -38 331
      vertex 78.8528 -38 331
    endloop
  endfacet
  facet normal 0 0 -1
    outer loop
      vertex -76.8528 -23 315
      vertex 76.8528 -18 315
      vertex 76.8528 -23 315
    endloop
  endfacet
  facet normal -0 0 -1
    outer loop
      vertex 76.8528 -18 315
      vertex -76.8528 -23 315
      vertex -76.8528 -18 315
    endloop
  endfacet
  facet normal 0 -1 0
    outer loop
      vertex -78.8528 -23 320
      vertex 78.8528 -23 331
      vertex -78.8528 -23 331
    endloop
  endfacet
  facet normal 0 -1 -0
    outer loop
      vertex 78.8528 -23 331
      vertex -78.8528 -23 320
      vertex 78.8528 -23 320
    endloop
  endfacet
  facet normal 0 -1 0
    outer loop
      vertex -76.8528 -23 315
      vertex 76.8528 -23 316
      vertex -76.8528 -23 316
    endloop
  endfacet
  facet normal 0 -1 -0
    outer loop
      vertex 76.8528 -23 316
      vertex -76.8528 -23 315
      vertex 76.8528 -23 315
    endloop
  endfacet
endsolid OpenSCAD_Model
