solid OpenSCAD_Model
  facet normal 0.0523582 0 -0.998628
    outer loop
      vertex 48 -55 -45
      vertex 48.5226 5 -44.9726
      vertex 48.5226 -55 -44.9726
    endloop
  endfacet
  facet normal 0.0523582 0 -0.998628
    outer loop
      vertex 48.5226 5 -44.9726
      vertex 48 -55 -45
      vertex 48 5 -45
    endloop
  endfacet
  facet normal 0.0523582 0 0.998628
    outer loop
      vertex 48 5 -35
      vertex 48.5226 -55 -35.0274
      vertex 48.5226 5 -35.0274
    endloop
  endfacet
  facet normal 0.0523582 0 0.998628
    outer loop
      vertex 48.5226 -55 -35.0274
      vertex 48 5 -35
      vertex 48 -55 -35
    endloop
  endfacet
  facet normal 0.998628 0 -0.0523582
    outer loop
      vertex 53 -55 -40
      vertex 52.9726 5 -40.5226
      vertex 53 5 -40
    endloop
  endfacet
  facet normal 0.998628 0 -0.0523582
    outer loop
      vertex 52.9726 5 -40.5226
      vertex 53 -55 -40
      vertex 52.9726 -55 -40.5226
    endloop
  endfacet
  facet normal 0.707107 0 -0.707107
    outer loop
      vertex 51.7157 -55 -43.3457
      vertex 51.3457 5 -43.7157
      vertex 51.7157 5 -43.3457
    endloop
  endfacet
  facet normal 0.707107 0 -0.707107
    outer loop
      vertex 51.3457 5 -43.7157
      vertex 51.7157 -55 -43.3457
      vertex 51.3457 -55 -43.7157
    endloop
  endfacet
  facet normal 0.777165 -0 0.629297
    outer loop
      vertex 51.7157 -55 -36.6543
      vertex 52.0451 5 -37.0611
      vertex 51.7157 5 -36.6543
    endloop
  endfacet
  facet normal 0.777165 0 0.629297
    outer loop
      vertex 52.0451 5 -37.0611
      vertex 51.7157 -55 -36.6543
      vertex 52.0451 -55 -37.0611
    endloop
  endfacet
  facet normal 0.965949 -0 0.258733
    outer loop
      vertex 52.7553 -55 -38.4549
      vertex 52.8907 5 -38.9604
      vertex 52.7553 5 -38.4549
    endloop
  endfacet
  facet normal 0.965949 0 0.258733
    outer loop
      vertex 52.8907 5 -38.9604
      vertex 52.7553 -55 -38.4549
      vertex 52.8907 -55 -38.9604
    endloop
  endfacet
  facet normal 0.454003 0 -0.891
    outer loop
      vertex 50.0337 -55 -44.5677
      vertex 50.5 5 -44.3301
      vertex 50.5 -55 -44.3301
    endloop
  endfacet
  facet normal 0.454003 0 -0.891
    outer loop
      vertex 50.5 5 -44.3301
      vertex 50.0337 -55 -44.5677
      vertex 50.0337 5 -44.5677
    endloop
  endfacet
  facet normal 0.933552 0 -0.358441
    outer loop
      vertex 52.7553 -55 -41.5451
      vertex 52.5677 5 -42.0337
      vertex 52.7553 5 -41.5451
    endloop
  endfacet
  facet normal 0.933552 0 -0.358441
    outer loop
      vertex 52.5677 5 -42.0337
      vertex 52.7553 -55 -41.5451
      vertex 52.5677 -55 -42.0337
    endloop
  endfacet
  facet normal 0.965949 0 -0.258733
    outer loop
      vertex 52.8907 -55 -41.0396
      vertex 52.7553 5 -41.5451
      vertex 52.8907 5 -41.0396
    endloop
  endfacet
  facet normal 0.965949 0 -0.258733
    outer loop
      vertex 52.7553 5 -41.5451
      vertex 52.8907 -55 -41.0396
      vertex 52.7553 -55 -41.5451
    endloop
  endfacet
  facet normal 0.838692 0 -0.544605
    outer loop
      vertex 52.3301 -55 -42.5
      vertex 52.0451 5 -42.9389
      vertex 52.3301 5 -42.5
    endloop
  endfacet
  facet normal 0.838692 0 -0.544605
    outer loop
      vertex 52.0451 5 -42.9389
      vertex 52.3301 -55 -42.5
      vertex 52.0451 -55 -42.9389
    endloop
  endfacet
  facet normal 0.454003 0 0.891
    outer loop
      vertex 50.0337 5 -35.4323
      vertex 50.5 -55 -35.6699
      vertex 50.5 5 -35.6699
    endloop
  endfacet
  facet normal 0.454003 0 0.891
    outer loop
      vertex 50.5 -55 -35.6699
      vertex 50.0337 5 -35.4323
      vertex 50.0337 -55 -35.4323
    endloop
  endfacet
  facet normal 0.987684 -0 0.156463
    outer loop
      vertex 52.8907 -55 -38.9604
      vertex 52.9726 5 -39.4774
      vertex 52.8907 5 -38.9604
    endloop
  endfacet
  facet normal 0.987684 0 0.156463
    outer loop
      vertex 52.9726 5 -39.4774
      vertex 52.8907 -55 -38.9604
      vertex 52.9726 -55 -39.4774
    endloop
  endfacet
  facet normal -0.258733 0 -0.965949
    outer loop
      vertex 46.4549 -55 -44.7553
      vertex 46.9604 5 -44.8907
      vertex 46.9604 -55 -44.8907
    endloop
  endfacet
  facet normal -0.258733 0 -0.965949
    outer loop
      vertex 46.9604 5 -44.8907
      vertex 46.4549 -55 -44.7553
      vertex 46.4549 5 -44.7553
    endloop
  endfacet
  facet normal 0 1 0
    outer loop
      vertex 48.5226 5 -35.0274
      vertex 48.2613 5 -37.5137
      vertex 48 5 -37.5
    endloop
  endfacet
  facet normal 0 1 0
    outer loop
      vertex 52.0451 5 -37.0611
      vertex 48.5198 5 -37.5546
      vertex 48.2613 5 -37.5137
    endloop
  endfacet
  facet normal 0 1 0
    outer loop
      vertex 52.0451 5 -37.0611
      vertex 48.7725 5 -37.6224
      vertex 48.5198 5 -37.5546
    endloop
  endfacet
  facet normal 0 1 0
    outer loop
      vertex 52.0451 5 -37.0611
      vertex 49.0168 5 -37.7161
      vertex 48.7725 5 -37.6224
    endloop
  endfacet
  facet normal 0 1 0
    outer loop
      vertex 52.0451 5 -37.0611
      vertex 49.25 5 -37.8349
      vertex 49.0168 5 -37.7161
    endloop
  endfacet
  facet normal 0 1 0
    outer loop
      vertex 50.1651 5 -38.75
      vertex 52.3301 5 -37.5
      vertex 52.5677 5 -37.9663
    endloop
  endfacet
  facet normal 0 1 0
    outer loop
      vertex 52.0451 5 -37.0611
      vertex 49.4695 5 -37.9775
      vertex 49.25 5 -37.8349
    endloop
  endfacet
  facet normal 0 1 0
    outer loop
      vertex 52.0451 5 -37.0611
      vertex 49.6728 5 -38.1421
      vertex 49.4695 5 -37.9775
    endloop
  endfacet
  facet normal 0 1 0
    outer loop
      vertex 52.0451 5 -37.0611
      vertex 49.8579 5 -38.3272
      vertex 49.6728 5 -38.1421
    endloop
  endfacet
  facet normal 0 1 0
    outer loop
      vertex 50.2839 5 -38.9832
      vertex 52.5677 5 -37.9663
      vertex 52.7553 5 -38.4549
    endloop
  endfacet
  facet normal 0 1 0
    outer loop
      vertex 52.0451 5 -37.0611
      vertex 50.0225 5 -38.5305
      vertex 49.8579 5 -38.3272
    endloop
  endfacet
  facet normal 0 1 0
    outer loop
      vertex 52.3301 5 -37.5
      vertex 50.1651 5 -38.75
      vertex 50.0225 5 -38.5305
    endloop
  endfacet
  facet normal 0 1 0
    outer loop
      vertex 50.3776 5 -39.2275
      vertex 52.7553 5 -38.4549
      vertex 52.8907 5 -38.9604
    endloop
  endfacet
  facet normal 0 1 0
    outer loop
      vertex 52.5677 5 -37.9663
      vertex 50.2839 5 -38.9832
      vertex 50.1651 5 -38.75
    endloop
  endfacet
  facet normal 0 1 0
    outer loop
      vertex 52.7553 5 -38.4549
      vertex 50.3776 5 -39.2275
      vertex 50.2839 5 -38.9832
    endloop
  endfacet
  facet normal 0 1 0
    outer loop
      vertex 50.4454 5 -39.4802
      vertex 52.8907 5 -38.9604
      vertex 52.9726 5 -39.4774
    endloop
  endfacet
  facet normal 0 1 0
    outer loop
      vertex 52.8907 5 -38.9604
      vertex 50.4454 5 -39.4802
      vertex 50.3776 5 -39.2275
    endloop
  endfacet
  facet normal 0 1 0
    outer loop
      vertex 52.9726 5 -39.4774
      vertex 50.4863 5 -39.7387
      vertex 50.4454 5 -39.4802
    endloop
  endfacet
  facet normal 0 1 0
    outer loop
      vertex 53 5 -40
      vertex 50.4863 5 -39.7387
      vertex 52.9726 5 -39.4774
    endloop
  endfacet
  facet normal 0 1 0
    outer loop
      vertex 53 5 -40
      vertex 50.5 5 -40
      vertex 50.4863 5 -39.7387
    endloop
  endfacet
  facet normal 0 1 0
    outer loop
      vertex 53 5 -40
      vertex 50.4863 5 -40.2613
      vertex 50.5 5 -40
    endloop
  endfacet
  facet normal 0 1 -0
    outer loop
      vertex 52.9726 5 -40.5226
      vertex 50.4863 5 -40.2613
      vertex 53 5 -40
    endloop
  endfacet
  facet normal 0 1 0
    outer loop
      vertex 50.4863 5 -40.2613
      vertex 52.9726 5 -40.5226
      vertex 50.4454 5 -40.5198
    endloop
  endfacet
  facet normal 0 1 -0
    outer loop
      vertex 52.8907 5 -41.0396
      vertex 50.4454 5 -40.5198
      vertex 52.9726 5 -40.5226
    endloop
  endfacet
  facet normal 0 1 0
    outer loop
      vertex 50.4454 5 -40.5198
      vertex 52.8907 5 -41.0396
      vertex 50.3776 5 -40.7725
    endloop
  endfacet
  facet normal 0 1 -0
    outer loop
      vertex 52.7553 5 -41.5451
      vertex 50.3776 5 -40.7725
      vertex 52.8907 5 -41.0396
    endloop
  endfacet
  facet normal 0 1 0
    outer loop
      vertex 50.3776 5 -40.7725
      vertex 52.7553 5 -41.5451
      vertex 50.2839 5 -41.0168
    endloop
  endfacet
  facet normal 0 1 -0
    outer loop
      vertex 52.5677 5 -42.0337
      vertex 50.2839 5 -41.0168
      vertex 52.7553 5 -41.5451
    endloop
  endfacet
  facet normal 0 1 0
    outer loop
      vertex 50.2839 5 -41.0168
      vertex 52.5677 5 -42.0337
      vertex 50.1651 5 -41.25
    endloop
  endfacet
  facet normal 0 1 -0
    outer loop
      vertex 52.3301 5 -42.5
      vertex 50.1651 5 -41.25
      vertex 52.5677 5 -42.0337
    endloop
  endfacet
  facet normal 0 1 0
    outer loop
      vertex 50.1651 5 -41.25
      vertex 52.3301 5 -42.5
      vertex 50.0225 5 -41.4695
    endloop
  endfacet
  facet normal 0 1 -0
    outer loop
      vertex 52.0451 5 -42.9389
      vertex 50.0225 5 -41.4695
      vertex 52.3301 5 -42.5
    endloop
  endfacet
  facet normal 0 1 0
    outer loop
      vertex 50.0225 5 -41.4695
      vertex 52.0451 5 -42.9389
      vertex 49.8579 5 -41.6728
    endloop
  endfacet
  facet normal 0 1 -0
    outer loop
      vertex 51.7157 5 -43.3457
      vertex 49.8579 5 -41.6728
      vertex 52.0451 5 -42.9389
    endloop
  endfacet
  facet normal 0 1 0
    outer loop
      vertex 49.8579 5 -41.6728
      vertex 51.7157 5 -43.3457
      vertex 49.6728 5 -41.8579
    endloop
  endfacet
  facet normal 0 1 -0
    outer loop
      vertex 51.3457 5 -43.7157
      vertex 49.6728 5 -41.8579
      vertex 51.7157 5 -43.3457
    endloop
  endfacet
  facet normal 0 1 0
    outer loop
      vertex 49.6728 5 -41.8579
      vertex 51.3457 5 -43.7157
      vertex 49.4695 5 -42.0225
    endloop
  endfacet
  facet normal 0 1 -0
    outer loop
      vertex 50.9389 5 -44.0451
      vertex 49.4695 5 -42.0225
      vertex 51.3457 5 -43.7157
    endloop
  endfacet
  facet normal 0 1 0
    outer loop
      vertex 49.4695 5 -42.0225
      vertex 50.9389 5 -44.0451
      vertex 49.25 5 -42.1651
    endloop
  endfacet
  facet normal 0 1 -0
    outer loop
      vertex 50.5 5 -44.3301
      vertex 49.25 5 -42.1651
      vertex 50.9389 5 -44.0451
    endloop
  endfacet
  facet normal 0 1 0
    outer loop
      vertex 49.25 5 -42.1651
      vertex 50.5 5 -44.3301
      vertex 49.0168 5 -42.2839
    endloop
  endfacet
  facet normal 0 1 -0
    outer loop
      vertex 50.0337 5 -44.5677
      vertex 49.0168 5 -42.2839
      vertex 50.5 5 -44.3301
    endloop
  endfacet
  facet normal 0 1 0
    outer loop
      vertex 48 5 -42.5
      vertex 43.9549 5 -42.9389
      vertex 43.6699 5 -42.5
    endloop
  endfacet
  facet normal 0 1 0
    outer loop
      vertex 49.0168 5 -42.2839
      vertex 50.0337 5 -44.5677
      vertex 48.7725 5 -42.3776
    endloop
  endfacet
  facet normal 0 1 0
    outer loop
      vertex 48 5 -42.5
      vertex 44.2843 5 -43.3457
      vertex 43.9549 5 -42.9389
    endloop
  endfacet
  facet normal 0 1 -0
    outer loop
      vertex 49.5451 5 -44.7553
      vertex 48.7725 5 -42.3776
      vertex 50.0337 5 -44.5677
    endloop
  endfacet
  facet normal 0 1 0
    outer loop
      vertex 48 5 -42.5
      vertex 44.6543 5 -43.7157
      vertex 44.2843 5 -43.3457
    endloop
  endfacet
  facet normal 0 1 0
    outer loop
      vertex 48.7725 5 -42.3776
      vertex 49.5451 5 -44.7553
      vertex 48.5198 5 -42.4454
    endloop
  endfacet
  facet normal 0 1 0
    outer loop
      vertex 48 5 -42.5
      vertex 45.0611 5 -44.0451
      vertex 44.6543 5 -43.7157
    endloop
  endfacet
  facet normal 0 1 -0
    outer loop
      vertex 49.0396 5 -44.8907
      vertex 48.5198 5 -42.4454
      vertex 49.5451 5 -44.7553
    endloop
  endfacet
  facet normal 0 1 0
    outer loop
      vertex 48 5 -42.5
      vertex 45.5 5 -44.3301
      vertex 45.0611 5 -44.0451
    endloop
  endfacet
  facet normal 0 1 0
    outer loop
      vertex 48.5198 5 -42.4454
      vertex 49.0396 5 -44.8907
      vertex 48.2613 5 -42.4863
    endloop
  endfacet
  facet normal 0 1 0
    outer loop
      vertex 48 5 -42.5
      vertex 45.9663 5 -44.5677
      vertex 45.5 5 -44.3301
    endloop
  endfacet
  facet normal 0 1 -0
    outer loop
      vertex 48.5226 5 -44.9726
      vertex 48.2613 5 -42.4863
      vertex 49.0396 5 -44.8907
    endloop
  endfacet
  facet normal 0 1 0
    outer loop
      vertex 48 5 -42.5
      vertex 46.4549 5 -44.7553
      vertex 45.9663 5 -44.5677
    endloop
  endfacet
  facet normal 0 1 0
    outer loop
      vertex 48.2613 5 -42.4863
      vertex 48.5226 5 -44.9726
      vertex 48 5 -42.5
    endloop
  endfacet
  facet normal 0 1 0
    outer loop
      vertex 48 5 -42.5
      vertex 46.9604 5 -44.8907
      vertex 46.4549 5 -44.7553
    endloop
  endfacet
  facet normal 0 1 0
    outer loop
      vertex 48 5 -45
      vertex 48 5 -42.5
      vertex 48.5226 5 -44.9726
    endloop
  endfacet
  facet normal 0 1 0
    outer loop
      vertex 48 5 -42.5
      vertex 47.4774 5 -44.9726
      vertex 46.9604 5 -44.8907
    endloop
  endfacet
  facet normal 0 1 0
    outer loop
      vertex 48 5 -42.5
      vertex 48 5 -45
      vertex 47.4774 5 -44.9726
    endloop
  endfacet
  facet normal 0 1 0
    outer loop
      vertex 48 5 -37.5
      vertex 48 5 -35
      vertex 48.5226 5 -35.0274
    endloop
  endfacet
  facet normal 0 1 0
    outer loop
      vertex 48.2613 5 -37.5137
      vertex 48.5226 5 -35.0274
      vertex 49.0396 5 -35.1093
    endloop
  endfacet
  facet normal 0 1 0
    outer loop
      vertex 48 5 -35
      vertex 48 5 -37.5
      vertex 47.4774 5 -35.0274
    endloop
  endfacet
  facet normal 0 1 0
    outer loop
      vertex 48.2613 5 -37.5137
      vertex 49.0396 5 -35.1093
      vertex 49.5451 5 -35.2447
    endloop
  endfacet
  facet normal 0 1 -0
    outer loop
      vertex 47.7387 5 -37.5137
      vertex 47.4774 5 -35.0274
      vertex 48 5 -37.5
    endloop
  endfacet
  facet normal 0 1 0
    outer loop
      vertex 48.2613 5 -37.5137
      vertex 49.5451 5 -35.2447
      vertex 50.0337 5 -35.4323
    endloop
  endfacet
  facet normal 0 1 0
    outer loop
      vertex 47.4774 5 -35.0274
      vertex 47.7387 5 -37.5137
      vertex 46.9604 5 -35.1093
    endloop
  endfacet
  facet normal 0 1 0
    outer loop
      vertex 48.2613 5 -37.5137
      vertex 50.0337 5 -35.4323
      vertex 50.5 5 -35.6699
    endloop
  endfacet
  facet normal 0 1 -0
    outer loop
      vertex 47.4802 5 -37.5546
      vertex 46.9604 5 -35.1093
      vertex 47.7387 5 -37.5137
    endloop
  endfacet
  facet normal 0 1 0
    outer loop
      vertex 48.2613 5 -37.5137
      vertex 50.5 5 -35.6699
      vertex 50.9389 5 -35.9549
    endloop
  endfacet
  facet normal 0 1 0
    outer loop
      vertex 46.9604 5 -35.1093
      vertex 47.4802 5 -37.5546
      vertex 46.4549 5 -35.2447
    endloop
  endfacet
  facet normal 0 1 0
    outer loop
      vertex 48.2613 5 -37.5137
      vertex 50.9389 5 -35.9549
      vertex 51.3457 5 -36.2843
    endloop
  endfacet
  facet normal 0 1 -0
    outer loop
      vertex 47.2275 5 -37.6224
      vertex 46.4549 5 -35.2447
      vertex 47.4802 5 -37.5546
    endloop
  endfacet
  facet normal 0 1 0
    outer loop
      vertex 48.2613 5 -37.5137
      vertex 51.3457 5 -36.2843
      vertex 51.7157 5 -36.6543
    endloop
  endfacet
  facet normal 0 1 0
    outer loop
      vertex 46.4549 5 -35.2447
      vertex 47.2275 5 -37.6224
      vertex 45.9663 5 -35.4323
    endloop
  endfacet
  facet normal 0 1 0
    outer loop
      vertex 48.2613 5 -37.5137
      vertex 51.7157 5 -36.6543
      vertex 52.0451 5 -37.0611
    endloop
  endfacet
  facet normal 0 1 -0
    outer loop
      vertex 46.9832 5 -37.7161
      vertex 45.9663 5 -35.4323
      vertex 47.2275 5 -37.6224
    endloop
  endfacet
  facet normal 0 1 0
    outer loop
      vertex 50.0225 5 -38.5305
      vertex 52.0451 5 -37.0611
      vertex 52.3301 5 -37.5
    endloop
  endfacet
  facet normal 0 1 0
    outer loop
      vertex 45.9663 5 -35.4323
      vertex 46.9832 5 -37.7161
      vertex 45.5 5 -35.6699
    endloop
  endfacet
  facet normal 0 1 -0
    outer loop
      vertex 46.75 5 -37.8349
      vertex 45.5 5 -35.6699
      vertex 46.9832 5 -37.7161
    endloop
  endfacet
  facet normal 0 1 0
    outer loop
      vertex 45.5 5 -35.6699
      vertex 46.75 5 -37.8349
      vertex 45.0611 5 -35.9549
    endloop
  endfacet
  facet normal 0 1 -0
    outer loop
      vertex 46.5305 5 -37.9775
      vertex 45.0611 5 -35.9549
      vertex 46.75 5 -37.8349
    endloop
  endfacet
  facet normal 0 1 0
    outer loop
      vertex 45.0611 5 -35.9549
      vertex 46.5305 5 -37.9775
      vertex 44.6543 5 -36.2843
    endloop
  endfacet
  facet normal 0 1 -0
    outer loop
      vertex 46.3272 5 -38.1421
      vertex 44.6543 5 -36.2843
      vertex 46.5305 5 -37.9775
    endloop
  endfacet
  facet normal 0 1 0
    outer loop
      vertex 44.6543 5 -36.2843
      vertex 46.3272 5 -38.1421
      vertex 44.2843 5 -36.6543
    endloop
  endfacet
  facet normal 0 1 -0
    outer loop
      vertex 46.1421 5 -38.3272
      vertex 44.2843 5 -36.6543
      vertex 46.3272 5 -38.1421
    endloop
  endfacet
  facet normal 0 1 0
    outer loop
      vertex 44.2843 5 -36.6543
      vertex 46.1421 5 -38.3272
      vertex 43.9549 5 -37.0611
    endloop
  endfacet
  facet normal 0 1 -0
    outer loop
      vertex 45.9775 5 -38.5305
      vertex 43.9549 5 -37.0611
      vertex 46.1421 5 -38.3272
    endloop
  endfacet
  facet normal 0 1 0
    outer loop
      vertex 43.9549 5 -37.0611
      vertex 45.9775 5 -38.5305
      vertex 43.6699 5 -37.5
    endloop
  endfacet
  facet normal 0 1 -0
    outer loop
      vertex 45.8349 5 -38.75
      vertex 43.6699 5 -37.5
      vertex 45.9775 5 -38.5305
    endloop
  endfacet
  facet normal 0 1 0
    outer loop
      vertex 43.6699 5 -37.5
      vertex 45.8349 5 -38.75
      vertex 43.4323 5 -37.9663
    endloop
  endfacet
  facet normal 0 1 -0
    outer loop
      vertex 45.7161 5 -38.9832
      vertex 43.4323 5 -37.9663
      vertex 45.8349 5 -38.75
    endloop
  endfacet
  facet normal 0 1 0
    outer loop
      vertex 43.4323 5 -37.9663
      vertex 45.7161 5 -38.9832
      vertex 43.2447 5 -38.4549
    endloop
  endfacet
  facet normal 0 1 -0
    outer loop
      vertex 45.6224 5 -39.2275
      vertex 43.2447 5 -38.4549
      vertex 45.7161 5 -38.9832
    endloop
  endfacet
  facet normal 0 1 0
    outer loop
      vertex 43.2447 5 -38.4549
      vertex 45.6224 5 -39.2275
      vertex 43.1093 5 -38.9604
    endloop
  endfacet
  facet normal 0 1 -0
    outer loop
      vertex 45.5546 5 -39.4802
      vertex 43.1093 5 -38.9604
      vertex 45.6224 5 -39.2275
    endloop
  endfacet
  facet normal 0 1 0
    outer loop
      vertex 43.1093 5 -38.9604
      vertex 45.5546 5 -39.4802
      vertex 43.0274 5 -39.4774
    endloop
  endfacet
  facet normal 0 1 -0
    outer loop
      vertex 45.5137 5 -39.7387
      vertex 43.0274 5 -39.4774
      vertex 45.5546 5 -39.4802
    endloop
  endfacet
  facet normal 0 1 -0
    outer loop
      vertex 45.5 5 -40
      vertex 43.0274 5 -39.4774
      vertex 45.5137 5 -39.7387
    endloop
  endfacet
  facet normal 0 1 0
    outer loop
      vertex 45.5 5 -40
      vertex 43 5 -40
      vertex 43.0274 5 -39.4774
    endloop
  endfacet
  facet normal 0 1 0
    outer loop
      vertex 45.5137 5 -40.2613
      vertex 43 5 -40
      vertex 45.5 5 -40
    endloop
  endfacet
  facet normal 0 1 0
    outer loop
      vertex 43.0274 5 -40.5226
      vertex 45.5137 5 -40.2613
      vertex 45.5546 5 -40.5198
    endloop
  endfacet
  facet normal 0 1 0
    outer loop
      vertex 45.5137 5 -40.2613
      vertex 43.0274 5 -40.5226
      vertex 43 5 -40
    endloop
  endfacet
  facet normal 0 1 0
    outer loop
      vertex 43.1093 5 -41.0396
      vertex 45.5546 5 -40.5198
      vertex 45.6224 5 -40.7725
    endloop
  endfacet
  facet normal 0 1 0
    outer loop
      vertex 43.2447 5 -41.5451
      vertex 45.6224 5 -40.7725
      vertex 45.7161 5 -41.0168
    endloop
  endfacet
  facet normal 0 1 0
    outer loop
      vertex 45.5546 5 -40.5198
      vertex 43.1093 5 -41.0396
      vertex 43.0274 5 -40.5226
    endloop
  endfacet
  facet normal 0 1 0
    outer loop
      vertex 43.4323 5 -42.0337
      vertex 45.7161 5 -41.0168
      vertex 45.8349 5 -41.25
    endloop
  endfacet
  facet normal 0 1 0
    outer loop
      vertex 43.6699 5 -42.5
      vertex 45.8349 5 -41.25
      vertex 45.9775 5 -41.4695
    endloop
  endfacet
  facet normal 0 1 0
    outer loop
      vertex 45.6224 5 -40.7725
      vertex 43.2447 5 -41.5451
      vertex 43.1093 5 -41.0396
    endloop
  endfacet
  facet normal 0 1 0
    outer loop
      vertex 43.6699 5 -42.5
      vertex 45.9775 5 -41.4695
      vertex 46.1421 5 -41.6728
    endloop
  endfacet
  facet normal 0 1 0
    outer loop
      vertex 43.6699 5 -42.5
      vertex 46.1421 5 -41.6728
      vertex 46.3272 5 -41.8579
    endloop
  endfacet
  facet normal 0 1 0
    outer loop
      vertex 43.6699 5 -42.5
      vertex 46.3272 5 -41.8579
      vertex 46.5305 5 -42.0225
    endloop
  endfacet
  facet normal 0 1 0
    outer loop
      vertex 45.7161 5 -41.0168
      vertex 43.4323 5 -42.0337
      vertex 43.2447 5 -41.5451
    endloop
  endfacet
  facet normal 0 1 0
    outer loop
      vertex 43.6699 5 -42.5
      vertex 46.5305 5 -42.0225
      vertex 46.75 5 -42.1651
    endloop
  endfacet
  facet normal 0 1 0
    outer loop
      vertex 43.6699 5 -42.5
      vertex 46.75 5 -42.1651
      vertex 46.9832 5 -42.2839
    endloop
  endfacet
  facet normal 0 1 0
    outer loop
      vertex 43.6699 5 -42.5
      vertex 46.9832 5 -42.2839
      vertex 47.2275 5 -42.3776
    endloop
  endfacet
  facet normal 0 1 0
    outer loop
      vertex 43.6699 5 -42.5
      vertex 47.2275 5 -42.3776
      vertex 47.4802 5 -42.4454
    endloop
  endfacet
  facet normal 0 1 0
    outer loop
      vertex 43.6699 5 -42.5
      vertex 47.4802 5 -42.4454
      vertex 47.7387 5 -42.4863
    endloop
  endfacet
  facet normal 0 1 0
    outer loop
      vertex 45.8349 5 -41.25
      vertex 43.6699 5 -42.5
      vertex 43.4323 5 -42.0337
    endloop
  endfacet
  facet normal 0 1 0
    outer loop
      vertex 43.6699 5 -42.5
      vertex 47.7387 5 -42.4863
      vertex 48 5 -42.5
    endloop
  endfacet
  facet normal 0.258733 0 -0.965949
    outer loop
      vertex 49.0396 -55 -44.8907
      vertex 49.5451 5 -44.7553
      vertex 49.5451 -55 -44.7553
    endloop
  endfacet
  facet normal 0.258733 0 -0.965949
    outer loop
      vertex 49.5451 5 -44.7553
      vertex 49.0396 -55 -44.8907
      vertex 49.0396 5 -44.8907
    endloop
  endfacet
  facet normal 0.156463 0 -0.987684
    outer loop
      vertex 48.5226 -55 -44.9726
      vertex 49.0396 5 -44.8907
      vertex 49.0396 -55 -44.8907
    endloop
  endfacet
  facet normal 0.156463 0 -0.987684
    outer loop
      vertex 49.0396 5 -44.8907
      vertex 48.5226 -55 -44.9726
      vertex 48.5226 5 -44.9726
    endloop
  endfacet
  facet normal 0.358441 0 -0.933552
    outer loop
      vertex 49.5451 -55 -44.7553
      vertex 50.0337 5 -44.5677
      vertex 50.0337 -55 -44.5677
    endloop
  endfacet
  facet normal 0.358441 0 -0.933552
    outer loop
      vertex 50.0337 5 -44.5677
      vertex 49.5451 -55 -44.7553
      vertex 49.5451 5 -44.7553
    endloop
  endfacet
  facet normal 0.629297 0 -0.777165
    outer loop
      vertex 50.9389 -55 -44.0451
      vertex 51.3457 5 -43.7157
      vertex 51.3457 -55 -43.7157
    endloop
  endfacet
  facet normal 0.629297 0 -0.777165
    outer loop
      vertex 51.3457 5 -43.7157
      vertex 50.9389 -55 -44.0451
      vertex 50.9389 5 -44.0451
    endloop
  endfacet
  facet normal 0.544605 0 -0.838692
    outer loop
      vertex 50.5 -55 -44.3301
      vertex 50.9389 5 -44.0451
      vertex 50.9389 -55 -44.0451
    endloop
  endfacet
  facet normal 0.544605 0 -0.838692
    outer loop
      vertex 50.9389 5 -44.0451
      vertex 50.5 -55 -44.3301
      vertex 50.5 5 -44.3301
    endloop
  endfacet
  facet normal 0.987684 0 -0.156463
    outer loop
      vertex 52.9726 -55 -40.5226
      vertex 52.8907 5 -41.0396
      vertex 52.9726 5 -40.5226
    endloop
  endfacet
  facet normal 0.987684 0 -0.156463
    outer loop
      vertex 52.8907 5 -41.0396
      vertex 52.9726 -55 -40.5226
      vertex 52.8907 -55 -41.0396
    endloop
  endfacet
  facet normal 0.891 0 -0.454003
    outer loop
      vertex 52.5677 -55 -42.0337
      vertex 52.3301 5 -42.5
      vertex 52.5677 5 -42.0337
    endloop
  endfacet
  facet normal 0.891 0 -0.454003
    outer loop
      vertex 52.3301 5 -42.5
      vertex 52.5677 -55 -42.0337
      vertex 52.3301 -55 -42.5
    endloop
  endfacet
  facet normal 0.777165 0 -0.629297
    outer loop
      vertex 52.0451 -55 -42.9389
      vertex 51.7157 5 -43.3457
      vertex 52.0451 5 -42.9389
    endloop
  endfacet
  facet normal 0.777165 0 -0.629297
    outer loop
      vertex 51.7157 5 -43.3457
      vertex 52.0451 -55 -42.9389
      vertex 51.7157 -55 -43.3457
    endloop
  endfacet
  facet normal 0.258733 0 0.965949
    outer loop
      vertex 49.0396 5 -35.1093
      vertex 49.5451 -55 -35.2447
      vertex 49.5451 5 -35.2447
    endloop
  endfacet
  facet normal 0.258733 0 0.965949
    outer loop
      vertex 49.5451 -55 -35.2447
      vertex 49.0396 5 -35.1093
      vertex 49.0396 -55 -35.1093
    endloop
  endfacet
  facet normal 0.629297 0 0.777165
    outer loop
      vertex 50.9389 5 -35.9549
      vertex 51.3457 -55 -36.2843
      vertex 51.3457 5 -36.2843
    endloop
  endfacet
  facet normal 0.629297 0 0.777165
    outer loop
      vertex 51.3457 -55 -36.2843
      vertex 50.9389 5 -35.9549
      vertex 50.9389 -55 -35.9549
    endloop
  endfacet
  facet normal 0.707107 -0 0.707107
    outer loop
      vertex 51.3457 -55 -36.2843
      vertex 51.7157 5 -36.6543
      vertex 51.3457 5 -36.2843
    endloop
  endfacet
  facet normal 0.707107 0 0.707107
    outer loop
      vertex 51.7157 5 -36.6543
      vertex 51.3457 -55 -36.2843
      vertex 51.7157 -55 -36.6543
    endloop
  endfacet
  facet normal 0.544605 0 0.838692
    outer loop
      vertex 50.5 5 -35.6699
      vertex 50.9389 -55 -35.9549
      vertex 50.9389 5 -35.9549
    endloop
  endfacet
  facet normal 0.544605 0 0.838692
    outer loop
      vertex 50.9389 -55 -35.9549
      vertex 50.5 5 -35.6699
      vertex 50.5 -55 -35.6699
    endloop
  endfacet
  facet normal 0.358441 0 0.933552
    outer loop
      vertex 49.5451 5 -35.2447
      vertex 50.0337 -55 -35.4323
      vertex 50.0337 5 -35.4323
    endloop
  endfacet
  facet normal 0.358441 0 0.933552
    outer loop
      vertex 50.0337 -55 -35.4323
      vertex 49.5451 5 -35.2447
      vertex 49.5451 -55 -35.2447
    endloop
  endfacet
  facet normal 0.156463 0 0.987684
    outer loop
      vertex 48.5226 5 -35.0274
      vertex 49.0396 -55 -35.1093
      vertex 49.0396 5 -35.1093
    endloop
  endfacet
  facet normal 0.156463 0 0.987684
    outer loop
      vertex 49.0396 -55 -35.1093
      vertex 48.5226 5 -35.0274
      vertex 48.5226 -55 -35.0274
    endloop
  endfacet
  facet normal 0 -1 0
    outer loop
      vertex 47.4774 -55 -35.0274
      vertex 47.7387 -55 -37.5137
      vertex 48 -55 -37.5
    endloop
  endfacet
  facet normal 0 -1 0
    outer loop
      vertex 43.9549 -55 -37.0611
      vertex 47.4802 -55 -37.5546
      vertex 47.7387 -55 -37.5137
    endloop
  endfacet
  facet normal 0 -1 0
    outer loop
      vertex 43.9549 -55 -37.0611
      vertex 47.2275 -55 -37.6224
      vertex 47.4802 -55 -37.5546
    endloop
  endfacet
  facet normal 0 -1 0
    outer loop
      vertex 43.9549 -55 -37.0611
      vertex 46.9832 -55 -37.7161
      vertex 47.2275 -55 -37.6224
    endloop
  endfacet
  facet normal 0 -1 0
    outer loop
      vertex 43.9549 -55 -37.0611
      vertex 46.75 -55 -37.8349
      vertex 46.9832 -55 -37.7161
    endloop
  endfacet
  facet normal 0 -1 0
    outer loop
      vertex 45.8349 -55 -38.75
      vertex 43.6699 -55 -37.5
      vertex 43.4323 -55 -37.9663
    endloop
  endfacet
  facet normal 0 -1 0
    outer loop
      vertex 43.9549 -55 -37.0611
      vertex 46.5305 -55 -37.9775
      vertex 46.75 -55 -37.8349
    endloop
  endfacet
  facet normal 0 -1 0
    outer loop
      vertex 43.9549 -55 -37.0611
      vertex 46.3272 -55 -38.1421
      vertex 46.5305 -55 -37.9775
    endloop
  endfacet
  facet normal 0 -1 0
    outer loop
      vertex 43.9549 -55 -37.0611
      vertex 46.1421 -55 -38.3272
      vertex 46.3272 -55 -38.1421
    endloop
  endfacet
  facet normal 0 -1 0
    outer loop
      vertex 45.7161 -55 -38.9832
      vertex 43.4323 -55 -37.9663
      vertex 43.2447 -55 -38.4549
    endloop
  endfacet
  facet normal 0 -1 0
    outer loop
      vertex 43.9549 -55 -37.0611
      vertex 45.9775 -55 -38.5305
      vertex 46.1421 -55 -38.3272
    endloop
  endfacet
  facet normal 0 -1 0
    outer loop
      vertex 43.6699 -55 -37.5
      vertex 45.8349 -55 -38.75
      vertex 45.9775 -55 -38.5305
    endloop
  endfacet
  facet normal 0 -1 0
    outer loop
      vertex 45.6224 -55 -39.2275
      vertex 43.2447 -55 -38.4549
      vertex 43.1093 -55 -38.9604
    endloop
  endfacet
  facet normal 0 -1 0
    outer loop
      vertex 43.4323 -55 -37.9663
      vertex 45.7161 -55 -38.9832
      vertex 45.8349 -55 -38.75
    endloop
  endfacet
  facet normal 0 -1 0
    outer loop
      vertex 43.2447 -55 -38.4549
      vertex 45.6224 -55 -39.2275
      vertex 45.7161 -55 -38.9832
    endloop
  endfacet
  facet normal 0 -1 0
    outer loop
      vertex 45.5546 -55 -39.4802
      vertex 43.1093 -55 -38.9604
      vertex 43.0274 -55 -39.4774
    endloop
  endfacet
  facet normal 0 -1 0
    outer loop
      vertex 43.1093 -55 -38.9604
      vertex 45.5546 -55 -39.4802
      vertex 45.6224 -55 -39.2275
    endloop
  endfacet
  facet normal 0 -1 0
    outer loop
      vertex 43.0274 -55 -39.4774
      vertex 45.5137 -55 -39.7387
      vertex 45.5546 -55 -39.4802
    endloop
  endfacet
  facet normal 0 -1 0
    outer loop
      vertex 43 -55 -40
      vertex 45.5137 -55 -39.7387
      vertex 43.0274 -55 -39.4774
    endloop
  endfacet
  facet normal 0 -1 0
    outer loop
      vertex 43 -55 -40
      vertex 45.5 -55 -40
      vertex 45.5137 -55 -39.7387
    endloop
  endfacet
  facet normal 0 -1 0
    outer loop
      vertex 43 -55 -40
      vertex 45.5137 -55 -40.2613
      vertex 45.5 -55 -40
    endloop
  endfacet
  facet normal 0 -1 0
    outer loop
      vertex 43.0274 -55 -40.5226
      vertex 45.5137 -55 -40.2613
      vertex 43 -55 -40
    endloop
  endfacet
  facet normal 0 -1 -0
    outer loop
      vertex 45.5137 -55 -40.2613
      vertex 43.0274 -55 -40.5226
      vertex 45.5546 -55 -40.5198
    endloop
  endfacet
  facet normal 0 -1 0
    outer loop
      vertex 43.1093 -55 -41.0396
      vertex 45.5546 -55 -40.5198
      vertex 43.0274 -55 -40.5226
    endloop
  endfacet
  facet normal 0 -1 -0
    outer loop
      vertex 45.5546 -55 -40.5198
      vertex 43.1093 -55 -41.0396
      vertex 45.6224 -55 -40.7725
    endloop
  endfacet
  facet normal 0 -1 0
    outer loop
      vertex 43.2447 -55 -41.5451
      vertex 45.6224 -55 -40.7725
      vertex 43.1093 -55 -41.0396
    endloop
  endfacet
  facet normal 0 -1 -0
    outer loop
      vertex 45.6224 -55 -40.7725
      vertex 43.2447 -55 -41.5451
      vertex 45.7161 -55 -41.0168
    endloop
  endfacet
  facet normal 0 -1 0
    outer loop
      vertex 43.4323 -55 -42.0337
      vertex 45.7161 -55 -41.0168
      vertex 43.2447 -55 -41.5451
    endloop
  endfacet
  facet normal 0 -1 -0
    outer loop
      vertex 45.7161 -55 -41.0168
      vertex 43.4323 -55 -42.0337
      vertex 45.8349 -55 -41.25
    endloop
  endfacet
  facet normal 0 -1 0
    outer loop
      vertex 43.6699 -55 -42.5
      vertex 45.8349 -55 -41.25
      vertex 43.4323 -55 -42.0337
    endloop
  endfacet
  facet normal 0 -1 -0
    outer loop
      vertex 45.8349 -55 -41.25
      vertex 43.6699 -55 -42.5
      vertex 45.9775 -55 -41.4695
    endloop
  endfacet
  facet normal 0 -1 0
    outer loop
      vertex 43.9549 -55 -42.9389
      vertex 45.9775 -55 -41.4695
      vertex 43.6699 -55 -42.5
    endloop
  endfacet
  facet normal 0 -1 -0
    outer loop
      vertex 45.9775 -55 -41.4695
      vertex 43.9549 -55 -42.9389
      vertex 46.1421 -55 -41.6728
    endloop
  endfacet
  facet normal 0 -1 0
    outer loop
      vertex 44.2843 -55 -43.3457
      vertex 46.1421 -55 -41.6728
      vertex 43.9549 -55 -42.9389
    endloop
  endfacet
  facet normal 0 -1 -0
    outer loop
      vertex 46.1421 -55 -41.6728
      vertex 44.2843 -55 -43.3457
      vertex 46.3272 -55 -41.8579
    endloop
  endfacet
  facet normal 0 -1 0
    outer loop
      vertex 44.6543 -55 -43.7157
      vertex 46.3272 -55 -41.8579
      vertex 44.2843 -55 -43.3457
    endloop
  endfacet
  facet normal 0 -1 -0
    outer loop
      vertex 46.3272 -55 -41.8579
      vertex 44.6543 -55 -43.7157
      vertex 46.5305 -55 -42.0225
    endloop
  endfacet
  facet normal 0 -1 0
    outer loop
      vertex 45.0611 -55 -44.0451
      vertex 46.5305 -55 -42.0225
      vertex 44.6543 -55 -43.7157
    endloop
  endfacet
  facet normal 0 -1 -0
    outer loop
      vertex 46.5305 -55 -42.0225
      vertex 45.0611 -55 -44.0451
      vertex 46.75 -55 -42.1651
    endloop
  endfacet
  facet normal 0 -1 0
    outer loop
      vertex 45.5 -55 -44.3301
      vertex 46.75 -55 -42.1651
      vertex 45.0611 -55 -44.0451
    endloop
  endfacet
  facet normal 0 -1 -0
    outer loop
      vertex 46.75 -55 -42.1651
      vertex 45.5 -55 -44.3301
      vertex 46.9832 -55 -42.2839
    endloop
  endfacet
  facet normal 0 -1 0
    outer loop
      vertex 45.9663 -55 -44.5677
      vertex 46.9832 -55 -42.2839
      vertex 45.5 -55 -44.3301
    endloop
  endfacet
  facet normal 0 -1 0
    outer loop
      vertex 48 -55 -42.5
      vertex 52.0451 -55 -42.9389
      vertex 52.3301 -55 -42.5
    endloop
  endfacet
  facet normal 0 -1 -0
    outer loop
      vertex 46.9832 -55 -42.2839
      vertex 45.9663 -55 -44.5677
      vertex 47.2275 -55 -42.3776
    endloop
  endfacet
  facet normal 0 -1 0
    outer loop
      vertex 48 -55 -42.5
      vertex 51.7157 -55 -43.3457
      vertex 52.0451 -55 -42.9389
    endloop
  endfacet
  facet normal 0 -1 0
    outer loop
      vertex 46.4549 -55 -44.7553
      vertex 47.2275 -55 -42.3776
      vertex 45.9663 -55 -44.5677
    endloop
  endfacet
  facet normal 0 -1 0
    outer loop
      vertex 48 -55 -42.5
      vertex 51.3457 -55 -43.7157
      vertex 51.7157 -55 -43.3457
    endloop
  endfacet
  facet normal 0 -1 -0
    outer loop
      vertex 47.2275 -55 -42.3776
      vertex 46.4549 -55 -44.7553
      vertex 47.4802 -55 -42.4454
    endloop
  endfacet
  facet normal 0 -1 0
    outer loop
      vertex 48 -55 -42.5
      vertex 50.9389 -55 -44.0451
      vertex 51.3457 -55 -43.7157
    endloop
  endfacet
  facet normal 0 -1 0
    outer loop
      vertex 46.9604 -55 -44.8907
      vertex 47.4802 -55 -42.4454
      vertex 46.4549 -55 -44.7553
    endloop
  endfacet
  facet normal 0 -1 0
    outer loop
      vertex 48 -55 -42.5
      vertex 50.5 -55 -44.3301
      vertex 50.9389 -55 -44.0451
    endloop
  endfacet
  facet normal 0 -1 -0
    outer loop
      vertex 47.4802 -55 -42.4454
      vertex 46.9604 -55 -44.8907
      vertex 47.7387 -55 -42.4863
    endloop
  endfacet
  facet normal 0 -1 0
    outer loop
      vertex 48 -55 -42.5
      vertex 50.0337 -55 -44.5677
      vertex 50.5 -55 -44.3301
    endloop
  endfacet
  facet normal 0 -1 0
    outer loop
      vertex 47.4774 -55 -44.9726
      vertex 47.7387 -55 -42.4863
      vertex 46.9604 -55 -44.8907
    endloop
  endfacet
  facet normal 0 -1 0
    outer loop
      vertex 48 -55 -42.5
      vertex 49.5451 -55 -44.7553
      vertex 50.0337 -55 -44.5677
    endloop
  endfacet
  facet normal 0 -1 -0
    outer loop
      vertex 47.7387 -55 -42.4863
      vertex 47.4774 -55 -44.9726
      vertex 48 -55 -42.5
    endloop
  endfacet
  facet normal 0 -1 0
    outer loop
      vertex 48 -55 -42.5
      vertex 49.0396 -55 -44.8907
      vertex 49.5451 -55 -44.7553
    endloop
  endfacet
  facet normal 0 -1 0
    outer loop
      vertex 48 -55 -45
      vertex 48 -55 -42.5
      vertex 47.4774 -55 -44.9726
    endloop
  endfacet
  facet normal 0 -1 0
    outer loop
      vertex 48 -55 -42.5
      vertex 48.5226 -55 -44.9726
      vertex 49.0396 -55 -44.8907
    endloop
  endfacet
  facet normal 0 -1 0
    outer loop
      vertex 48 -55 -42.5
      vertex 48 -55 -45
      vertex 48.5226 -55 -44.9726
    endloop
  endfacet
  facet normal 0 -1 0
    outer loop
      vertex 48 -55 -37.5
      vertex 48 -55 -35
      vertex 47.4774 -55 -35.0274
    endloop
  endfacet
  facet normal 0 -1 0
    outer loop
      vertex 47.7387 -55 -37.5137
      vertex 47.4774 -55 -35.0274
      vertex 46.9604 -55 -35.1093
    endloop
  endfacet
  facet normal 0 -1 0
    outer loop
      vertex 48 -55 -35
      vertex 48 -55 -37.5
      vertex 48.5226 -55 -35.0274
    endloop
  endfacet
  facet normal 0 -1 0
    outer loop
      vertex 47.7387 -55 -37.5137
      vertex 46.9604 -55 -35.1093
      vertex 46.4549 -55 -35.2447
    endloop
  endfacet
  facet normal 0 -1 0
    outer loop
      vertex 48.2613 -55 -37.5137
      vertex 48.5226 -55 -35.0274
      vertex 48 -55 -37.5
    endloop
  endfacet
  facet normal 0 -1 0
    outer loop
      vertex 47.7387 -55 -37.5137
      vertex 46.4549 -55 -35.2447
      vertex 45.9663 -55 -35.4323
    endloop
  endfacet
  facet normal 0 -1 -0
    outer loop
      vertex 48.5226 -55 -35.0274
      vertex 48.2613 -55 -37.5137
      vertex 49.0396 -55 -35.1093
    endloop
  endfacet
  facet normal 0 -1 0
    outer loop
      vertex 47.7387 -55 -37.5137
      vertex 45.9663 -55 -35.4323
      vertex 45.5 -55 -35.6699
    endloop
  endfacet
  facet normal 0 -1 0
    outer loop
      vertex 48.5198 -55 -37.5546
      vertex 49.0396 -55 -35.1093
      vertex 48.2613 -55 -37.5137
    endloop
  endfacet
  facet normal 0 -1 0
    outer loop
      vertex 47.7387 -55 -37.5137
      vertex 45.5 -55 -35.6699
      vertex 45.0611 -55 -35.9549
    endloop
  endfacet
  facet normal 0 -1 -0
    outer loop
      vertex 49.0396 -55 -35.1093
      vertex 48.5198 -55 -37.5546
      vertex 49.5451 -55 -35.2447
    endloop
  endfacet
  facet normal 0 -1 0
    outer loop
      vertex 47.7387 -55 -37.5137
      vertex 45.0611 -55 -35.9549
      vertex 44.6543 -55 -36.2843
    endloop
  endfacet
  facet normal 0 -1 0
    outer loop
      vertex 48.7725 -55 -37.6224
      vertex 49.5451 -55 -35.2447
      vertex 48.5198 -55 -37.5546
    endloop
  endfacet
  facet normal 0 -1 0
    outer loop
      vertex 47.7387 -55 -37.5137
      vertex 44.6543 -55 -36.2843
      vertex 44.2843 -55 -36.6543
    endloop
  endfacet
  facet normal 0 -1 -0
    outer loop
      vertex 49.5451 -55 -35.2447
      vertex 48.7725 -55 -37.6224
      vertex 50.0337 -55 -35.4323
    endloop
  endfacet
  facet normal 0 -1 0
    outer loop
      vertex 47.7387 -55 -37.5137
      vertex 44.2843 -55 -36.6543
      vertex 43.9549 -55 -37.0611
    endloop
  endfacet
  facet normal 0 -1 0
    outer loop
      vertex 49.0168 -55 -37.7161
      vertex 50.0337 -55 -35.4323
      vertex 48.7725 -55 -37.6224
    endloop
  endfacet
  facet normal 0 -1 0
    outer loop
      vertex 45.9775 -55 -38.5305
      vertex 43.9549 -55 -37.0611
      vertex 43.6699 -55 -37.5
    endloop
  endfacet
  facet normal 0 -1 -0
    outer loop
      vertex 50.0337 -55 -35.4323
      vertex 49.0168 -55 -37.7161
      vertex 50.5 -55 -35.6699
    endloop
  endfacet
  facet normal 0 -1 0
    outer loop
      vertex 49.25 -55 -37.8349
      vertex 50.5 -55 -35.6699
      vertex 49.0168 -55 -37.7161
    endloop
  endfacet
  facet normal 0 -1 -0
    outer loop
      vertex 50.5 -55 -35.6699
      vertex 49.25 -55 -37.8349
      vertex 50.9389 -55 -35.9549
    endloop
  endfacet
  facet normal 0 -1 0
    outer loop
      vertex 49.4695 -55 -37.9775
      vertex 50.9389 -55 -35.9549
      vertex 49.25 -55 -37.8349
    endloop
  endfacet
  facet normal 0 -1 -0
    outer loop
      vertex 50.9389 -55 -35.9549
      vertex 49.4695 -55 -37.9775
      vertex 51.3457 -55 -36.2843
    endloop
  endfacet
  facet normal 0 -1 0
    outer loop
      vertex 49.6728 -55 -38.1421
      vertex 51.3457 -55 -36.2843
      vertex 49.4695 -55 -37.9775
    endloop
  endfacet
  facet normal 0 -1 -0
    outer loop
      vertex 51.3457 -55 -36.2843
      vertex 49.6728 -55 -38.1421
      vertex 51.7157 -55 -36.6543
    endloop
  endfacet
  facet normal 0 -1 0
    outer loop
      vertex 49.8579 -55 -38.3272
      vertex 51.7157 -55 -36.6543
      vertex 49.6728 -55 -38.1421
    endloop
  endfacet
  facet normal 0 -1 -0
    outer loop
      vertex 51.7157 -55 -36.6543
      vertex 49.8579 -55 -38.3272
      vertex 52.0451 -55 -37.0611
    endloop
  endfacet
  facet normal 0 -1 0
    outer loop
      vertex 50.0225 -55 -38.5305
      vertex 52.0451 -55 -37.0611
      vertex 49.8579 -55 -38.3272
    endloop
  endfacet
  facet normal 0 -1 -0
    outer loop
      vertex 52.0451 -55 -37.0611
      vertex 50.0225 -55 -38.5305
      vertex 52.3301 -55 -37.5
    endloop
  endfacet
  facet normal 0 -1 0
    outer loop
      vertex 50.1651 -55 -38.75
      vertex 52.3301 -55 -37.5
      vertex 50.0225 -55 -38.5305
    endloop
  endfacet
  facet normal 0 -1 -0
    outer loop
      vertex 52.3301 -55 -37.5
      vertex 50.1651 -55 -38.75
      vertex 52.5677 -55 -37.9663
    endloop
  endfacet
  facet normal 0 -1 0
    outer loop
      vertex 50.2839 -55 -38.9832
      vertex 52.5677 -55 -37.9663
      vertex 50.1651 -55 -38.75
    endloop
  endfacet
  facet normal 0 -1 -0
    outer loop
      vertex 52.5677 -55 -37.9663
      vertex 50.2839 -55 -38.9832
      vertex 52.7553 -55 -38.4549
    endloop
  endfacet
  facet normal 0 -1 0
    outer loop
      vertex 50.3776 -55 -39.2275
      vertex 52.7553 -55 -38.4549
      vertex 50.2839 -55 -38.9832
    endloop
  endfacet
  facet normal 0 -1 -0
    outer loop
      vertex 52.7553 -55 -38.4549
      vertex 50.3776 -55 -39.2275
      vertex 52.8907 -55 -38.9604
    endloop
  endfacet
  facet normal 0 -1 0
    outer loop
      vertex 50.4454 -55 -39.4802
      vertex 52.8907 -55 -38.9604
      vertex 50.3776 -55 -39.2275
    endloop
  endfacet
  facet normal 0 -1 -0
    outer loop
      vertex 52.8907 -55 -38.9604
      vertex 50.4454 -55 -39.4802
      vertex 52.9726 -55 -39.4774
    endloop
  endfacet
  facet normal 0 -1 0
    outer loop
      vertex 50.4863 -55 -39.7387
      vertex 52.9726 -55 -39.4774
      vertex 50.4454 -55 -39.4802
    endloop
  endfacet
  facet normal 0 -1 0
    outer loop
      vertex 50.5 -55 -40
      vertex 52.9726 -55 -39.4774
      vertex 50.4863 -55 -39.7387
    endloop
  endfacet
  facet normal 0 -1 0
    outer loop
      vertex 50.5 -55 -40
      vertex 53 -55 -40
      vertex 52.9726 -55 -39.4774
    endloop
  endfacet
  facet normal 0 -1 0
    outer loop
      vertex 50.4863 -55 -40.2613
      vertex 53 -55 -40
      vertex 50.5 -55 -40
    endloop
  endfacet
  facet normal 0 -1 0
    outer loop
      vertex 52.9726 -55 -40.5226
      vertex 50.4863 -55 -40.2613
      vertex 50.4454 -55 -40.5198
    endloop
  endfacet
  facet normal 0 -1 0
    outer loop
      vertex 50.4863 -55 -40.2613
      vertex 52.9726 -55 -40.5226
      vertex 53 -55 -40
    endloop
  endfacet
  facet normal 0 -1 0
    outer loop
      vertex 52.8907 -55 -41.0396
      vertex 50.4454 -55 -40.5198
      vertex 50.3776 -55 -40.7725
    endloop
  endfacet
  facet normal 0 -1 0
    outer loop
      vertex 52.7553 -55 -41.5451
      vertex 50.3776 -55 -40.7725
      vertex 50.2839 -55 -41.0168
    endloop
  endfacet
  facet normal 0 -1 0
    outer loop
      vertex 50.4454 -55 -40.5198
      vertex 52.8907 -55 -41.0396
      vertex 52.9726 -55 -40.5226
    endloop
  endfacet
  facet normal 0 -1 0
    outer loop
      vertex 52.5677 -55 -42.0337
      vertex 50.2839 -55 -41.0168
      vertex 50.1651 -55 -41.25
    endloop
  endfacet
  facet normal 0 -1 0
    outer loop
      vertex 52.3301 -55 -42.5
      vertex 50.1651 -55 -41.25
      vertex 50.0225 -55 -41.4695
    endloop
  endfacet
  facet normal 0 -1 0
    outer loop
      vertex 50.3776 -55 -40.7725
      vertex 52.7553 -55 -41.5451
      vertex 52.8907 -55 -41.0396
    endloop
  endfacet
  facet normal 0 -1 0
    outer loop
      vertex 52.3301 -55 -42.5
      vertex 50.0225 -55 -41.4695
      vertex 49.8579 -55 -41.6728
    endloop
  endfacet
  facet normal 0 -1 0
    outer loop
      vertex 52.3301 -55 -42.5
      vertex 49.8579 -55 -41.6728
      vertex 49.6728 -55 -41.8579
    endloop
  endfacet
  facet normal 0 -1 0
    outer loop
      vertex 52.3301 -55 -42.5
      vertex 49.6728 -55 -41.8579
      vertex 49.4695 -55 -42.0225
    endloop
  endfacet
  facet normal 0 -1 0
    outer loop
      vertex 50.2839 -55 -41.0168
      vertex 52.5677 -55 -42.0337
      vertex 52.7553 -55 -41.5451
    endloop
  endfacet
  facet normal 0 -1 0
    outer loop
      vertex 52.3301 -55 -42.5
      vertex 49.4695 -55 -42.0225
      vertex 49.25 -55 -42.1651
    endloop
  endfacet
  facet normal 0 -1 0
    outer loop
      vertex 52.3301 -55 -42.5
      vertex 49.25 -55 -42.1651
      vertex 49.0168 -55 -42.2839
    endloop
  endfacet
  facet normal 0 -1 0
    outer loop
      vertex 52.3301 -55 -42.5
      vertex 49.0168 -55 -42.2839
      vertex 48.7725 -55 -42.3776
    endloop
  endfacet
  facet normal 0 -1 0
    outer loop
      vertex 52.3301 -55 -42.5
      vertex 48.7725 -55 -42.3776
      vertex 48.5198 -55 -42.4454
    endloop
  endfacet
  facet normal 0 -1 0
    outer loop
      vertex 52.3301 -55 -42.5
      vertex 48.5198 -55 -42.4454
      vertex 48.2613 -55 -42.4863
    endloop
  endfacet
  facet normal 0 -1 0
    outer loop
      vertex 50.1651 -55 -41.25
      vertex 52.3301 -55 -42.5
      vertex 52.5677 -55 -42.0337
    endloop
  endfacet
  facet normal 0 -1 0
    outer loop
      vertex 52.3301 -55 -42.5
      vertex 48.2613 -55 -42.4863
      vertex 48 -55 -42.5
    endloop
  endfacet
  facet normal 0.891 -0 0.454003
    outer loop
      vertex 52.3301 -55 -37.5
      vertex 52.5677 5 -37.9663
      vertex 52.3301 5 -37.5
    endloop
  endfacet
  facet normal 0.891 0 0.454003
    outer loop
      vertex 52.5677 5 -37.9663
      vertex 52.3301 -55 -37.5
      vertex 52.5677 -55 -37.9663
    endloop
  endfacet
  facet normal 0.933552 -0 0.358441
    outer loop
      vertex 52.5677 -55 -37.9663
      vertex 52.7553 5 -38.4549
      vertex 52.5677 5 -37.9663
    endloop
  endfacet
  facet normal 0.933552 0 0.358441
    outer loop
      vertex 52.7553 5 -38.4549
      vertex 52.5677 -55 -37.9663
      vertex 52.7553 -55 -38.4549
    endloop
  endfacet
  facet normal 0.838692 -0 0.544605
    outer loop
      vertex 52.0451 -55 -37.0611
      vertex 52.3301 5 -37.5
      vertex 52.0451 5 -37.0611
    endloop
  endfacet
  facet normal 0.838692 0 0.544605
    outer loop
      vertex 52.3301 5 -37.5
      vertex 52.0451 -55 -37.0611
      vertex 52.3301 -55 -37.5
    endloop
  endfacet
  facet normal 0.998628 -0 0.0523582
    outer loop
      vertex 52.9726 -55 -39.4774
      vertex 53 5 -40
      vertex 52.9726 5 -39.4774
    endloop
  endfacet
  facet normal 0.998628 0 0.0523582
    outer loop
      vertex 53 5 -40
      vertex 52.9726 -55 -39.4774
      vertex 53 -55 -40
    endloop
  endfacet
  facet normal -0.998628 0 -0.0523582
    outer loop
      vertex 43.0274 -55 -40.5226
      vertex 43 5 -40
      vertex 43.0274 5 -40.5226
    endloop
  endfacet
  facet normal -0.998628 -0 -0.0523582
    outer loop
      vertex 43 5 -40
      vertex 43.0274 -55 -40.5226
      vertex 43 -55 -40
    endloop
  endfacet
  facet normal -0.965949 0 -0.258733
    outer loop
      vertex 43.2447 -55 -41.5451
      vertex 43.1093 5 -41.0396
      vertex 43.2447 5 -41.5451
    endloop
  endfacet
  facet normal -0.965949 -0 -0.258733
    outer loop
      vertex 43.1093 5 -41.0396
      vertex 43.2447 -55 -41.5451
      vertex 43.1093 -55 -41.0396
    endloop
  endfacet
  facet normal -0.777165 0 -0.629297
    outer loop
      vertex 44.2843 -55 -43.3457
      vertex 43.9549 5 -42.9389
      vertex 44.2843 5 -43.3457
    endloop
  endfacet
  facet normal -0.777165 -0 -0.629297
    outer loop
      vertex 43.9549 5 -42.9389
      vertex 44.2843 -55 -43.3457
      vertex 43.9549 -55 -42.9389
    endloop
  endfacet
  facet normal -0.891 0 -0.454003
    outer loop
      vertex 43.6699 -55 -42.5
      vertex 43.4323 5 -42.0337
      vertex 43.6699 5 -42.5
    endloop
  endfacet
  facet normal -0.891 -0 -0.454003
    outer loop
      vertex 43.4323 5 -42.0337
      vertex 43.6699 -55 -42.5
      vertex 43.4323 -55 -42.0337
    endloop
  endfacet
  facet normal -0.629297 0 -0.777165
    outer loop
      vertex 44.6543 -55 -43.7157
      vertex 45.0611 5 -44.0451
      vertex 45.0611 -55 -44.0451
    endloop
  endfacet
  facet normal -0.629297 0 -0.777165
    outer loop
      vertex 45.0611 5 -44.0451
      vertex 44.6543 -55 -43.7157
      vertex 44.6543 5 -43.7157
    endloop
  endfacet
  facet normal -0.454003 0 -0.891
    outer loop
      vertex 45.5 -55 -44.3301
      vertex 45.9663 5 -44.5677
      vertex 45.9663 -55 -44.5677
    endloop
  endfacet
  facet normal -0.454003 0 -0.891
    outer loop
      vertex 45.9663 5 -44.5677
      vertex 45.5 -55 -44.3301
      vertex 45.5 5 -44.3301
    endloop
  endfacet
  facet normal -0.707107 0 0.707107
    outer loop
      vertex 44.2843 -55 -36.6543
      vertex 44.6543 5 -36.2843
      vertex 44.2843 5 -36.6543
    endloop
  endfacet
  facet normal -0.707107 0 0.707107
    outer loop
      vertex 44.6543 5 -36.2843
      vertex 44.2843 -55 -36.6543
      vertex 44.6543 -55 -36.2843
    endloop
  endfacet
  facet normal -0.838692 0 0.544605
    outer loop
      vertex 43.6699 -55 -37.5
      vertex 43.9549 5 -37.0611
      vertex 43.6699 5 -37.5
    endloop
  endfacet
  facet normal -0.838692 0 0.544605
    outer loop
      vertex 43.9549 5 -37.0611
      vertex 43.6699 -55 -37.5
      vertex 43.9549 -55 -37.0611
    endloop
  endfacet
  facet normal -0.933552 0 0.358441
    outer loop
      vertex 43.2447 -55 -38.4549
      vertex 43.4323 5 -37.9663
      vertex 43.2447 5 -38.4549
    endloop
  endfacet
  facet normal -0.933552 0 0.358441
    outer loop
      vertex 43.4323 5 -37.9663
      vertex 43.2447 -55 -38.4549
      vertex 43.4323 -55 -37.9663
    endloop
  endfacet
  facet normal -0.987684 0 0.156463
    outer loop
      vertex 43.0274 -55 -39.4774
      vertex 43.1093 5 -38.9604
      vertex 43.0274 5 -39.4774
    endloop
  endfacet
  facet normal -0.987684 0 0.156463
    outer loop
      vertex 43.1093 5 -38.9604
      vertex 43.0274 -55 -39.4774
      vertex 43.1093 -55 -38.9604
    endloop
  endfacet
  facet normal -0.358441 0 0.933552
    outer loop
      vertex 45.9663 5 -35.4323
      vertex 46.4549 -55 -35.2447
      vertex 46.4549 5 -35.2447
    endloop
  endfacet
  facet normal -0.358441 0 0.933552
    outer loop
      vertex 46.4549 -55 -35.2447
      vertex 45.9663 5 -35.4323
      vertex 45.9663 -55 -35.4323
    endloop
  endfacet
  facet normal -0.544605 0 0.838692
    outer loop
      vertex 45.0611 5 -35.9549
      vertex 45.5 -55 -35.6699
      vertex 45.5 5 -35.6699
    endloop
  endfacet
  facet normal -0.544605 0 0.838692
    outer loop
      vertex 45.5 -55 -35.6699
      vertex 45.0611 5 -35.9549
      vertex 45.0611 -55 -35.9549
    endloop
  endfacet
  facet normal -0.258733 0 0.965949
    outer loop
      vertex 46.4549 5 -35.2447
      vertex 46.9604 -55 -35.1093
      vertex 46.9604 5 -35.1093
    endloop
  endfacet
  facet normal -0.258733 0 0.965949
    outer loop
      vertex 46.9604 -55 -35.1093
      vertex 46.4549 5 -35.2447
      vertex 46.4549 -55 -35.2447
    endloop
  endfacet
  facet normal -0.0523582 0 0.998628
    outer loop
      vertex 47.4774 5 -35.0274
      vertex 48 -55 -35
      vertex 48 5 -35
    endloop
  endfacet
  facet normal -0.0523582 0 0.998628
    outer loop
      vertex 48 -55 -35
      vertex 47.4774 5 -35.0274
      vertex 47.4774 -55 -35.0274
    endloop
  endfacet
  facet normal -0.987684 0 -0.156463
    outer loop
      vertex 43.1093 -55 -41.0396
      vertex 43.0274 5 -40.5226
      vertex 43.1093 5 -41.0396
    endloop
  endfacet
  facet normal -0.987684 -0 -0.156463
    outer loop
      vertex 43.0274 5 -40.5226
      vertex 43.1093 -55 -41.0396
      vertex 43.0274 -55 -40.5226
    endloop
  endfacet
  facet normal -0.933552 0 -0.358441
    outer loop
      vertex 43.4323 -55 -42.0337
      vertex 43.2447 5 -41.5451
      vertex 43.4323 5 -42.0337
    endloop
  endfacet
  facet normal -0.933552 -0 -0.358441
    outer loop
      vertex 43.2447 5 -41.5451
      vertex 43.4323 -55 -42.0337
      vertex 43.2447 -55 -41.5451
    endloop
  endfacet
  facet normal -0.707107 0 -0.707107
    outer loop
      vertex 44.6543 -55 -43.7157
      vertex 44.2843 5 -43.3457
      vertex 44.6543 5 -43.7157
    endloop
  endfacet
  facet normal -0.707107 -0 -0.707107
    outer loop
      vertex 44.2843 5 -43.3457
      vertex 44.6543 -55 -43.7157
      vertex 44.2843 -55 -43.3457
    endloop
  endfacet
  facet normal -0.838692 0 -0.544605
    outer loop
      vertex 43.9549 -55 -42.9389
      vertex 43.6699 5 -42.5
      vertex 43.9549 5 -42.9389
    endloop
  endfacet
  facet normal -0.838692 -0 -0.544605
    outer loop
      vertex 43.6699 5 -42.5
      vertex 43.9549 -55 -42.9389
      vertex 43.6699 -55 -42.5
    endloop
  endfacet
  facet normal -0.544605 0 -0.838692
    outer loop
      vertex 45.0611 -55 -44.0451
      vertex 45.5 5 -44.3301
      vertex 45.5 -55 -44.3301
    endloop
  endfacet
  facet normal -0.544605 0 -0.838692
    outer loop
      vertex 45.5 5 -44.3301
      vertex 45.0611 -55 -44.0451
      vertex 45.0611 5 -44.0451
    endloop
  endfacet
  facet normal -0.358441 0 -0.933552
    outer loop
      vertex 45.9663 -55 -44.5677
      vertex 46.4549 5 -44.7553
      vertex 46.4549 -55 -44.7553
    endloop
  endfacet
  facet normal -0.358441 0 -0.933552
    outer loop
      vertex 46.4549 5 -44.7553
      vertex 45.9663 -55 -44.5677
      vertex 45.9663 5 -44.5677
    endloop
  endfacet
  facet normal -0.156463 0 -0.987684
    outer loop
      vertex 46.9604 -55 -44.8907
      vertex 47.4774 5 -44.9726
      vertex 47.4774 -55 -44.9726
    endloop
  endfacet
  facet normal -0.156463 0 -0.987684
    outer loop
      vertex 47.4774 5 -44.9726
      vertex 46.9604 -55 -44.8907
      vertex 46.9604 5 -44.8907
    endloop
  endfacet
  facet normal -0.0523582 0 -0.998628
    outer loop
      vertex 47.4774 -55 -44.9726
      vertex 48 5 -45
      vertex 48 -55 -45
    endloop
  endfacet
  facet normal -0.0523582 0 -0.998628
    outer loop
      vertex 48 5 -45
      vertex 47.4774 -55 -44.9726
      vertex 47.4774 5 -44.9726
    endloop
  endfacet
  facet normal -0.777165 0 0.629297
    outer loop
      vertex 43.9549 -55 -37.0611
      vertex 44.2843 5 -36.6543
      vertex 43.9549 5 -37.0611
    endloop
  endfacet
  facet normal -0.777165 0 0.629297
    outer loop
      vertex 44.2843 5 -36.6543
      vertex 43.9549 -55 -37.0611
      vertex 44.2843 -55 -36.6543
    endloop
  endfacet
  facet normal -0.891 0 0.454003
    outer loop
      vertex 43.4323 -55 -37.9663
      vertex 43.6699 5 -37.5
      vertex 43.4323 5 -37.9663
    endloop
  endfacet
  facet normal -0.891 0 0.454003
    outer loop
      vertex 43.6699 5 -37.5
      vertex 43.4323 -55 -37.9663
      vertex 43.6699 -55 -37.5
    endloop
  endfacet
  facet normal -0.965949 0 0.258733
    outer loop
      vertex 43.1093 -55 -38.9604
      vertex 43.2447 5 -38.4549
      vertex 43.1093 5 -38.9604
    endloop
  endfacet
  facet normal -0.965949 0 0.258733
    outer loop
      vertex 43.2447 5 -38.4549
      vertex 43.1093 -55 -38.9604
      vertex 43.2447 -55 -38.4549
    endloop
  endfacet
  facet normal -0.998628 0 0.0523582
    outer loop
      vertex 43 -55 -40
      vertex 43.0274 5 -39.4774
      vertex 43 5 -40
    endloop
  endfacet
  facet normal -0.998628 0 0.0523582
    outer loop
      vertex 43.0274 5 -39.4774
      vertex 43 -55 -40
      vertex 43.0274 -55 -39.4774
    endloop
  endfacet
  facet normal -0.454003 0 0.891
    outer loop
      vertex 45.5 5 -35.6699
      vertex 45.9663 -55 -35.4323
      vertex 45.9663 5 -35.4323
    endloop
  endfacet
  facet normal -0.454003 0 0.891
    outer loop
      vertex 45.9663 -55 -35.4323
      vertex 45.5 5 -35.6699
      vertex 45.5 -55 -35.6699
    endloop
  endfacet
  facet normal -0.629297 0 0.777165
    outer loop
      vertex 44.6543 5 -36.2843
      vertex 45.0611 -55 -35.9549
      vertex 45.0611 5 -35.9549
    endloop
  endfacet
  facet normal -0.629297 0 0.777165
    outer loop
      vertex 45.0611 -55 -35.9549
      vertex 44.6543 5 -36.2843
      vertex 44.6543 -55 -36.2843
    endloop
  endfacet
  facet normal -0.156463 0 0.987684
    outer loop
      vertex 46.9604 5 -35.1093
      vertex 47.4774 -55 -35.0274
      vertex 47.4774 5 -35.0274
    endloop
  endfacet
  facet normal -0.156463 0 0.987684
    outer loop
      vertex 47.4774 -55 -35.0274
      vertex 46.9604 5 -35.1093
      vertex 46.9604 -55 -35.1093
    endloop
  endfacet
  facet normal -0.0523582 0 0.998628
    outer loop
      vertex 48 5 -42.5
      vertex 48.2613 -55 -42.4863
      vertex 48.2613 5 -42.4863
    endloop
  endfacet
  facet normal -0.0523582 0 0.998628
    outer loop
      vertex 48.2613 -55 -42.4863
      vertex 48 5 -42.5
      vertex 48 -55 -42.5
    endloop
  endfacet
  facet normal -0.0523582 0 -0.998628
    outer loop
      vertex 48 -55 -37.5
      vertex 48.2613 5 -37.5137
      vertex 48.2613 -55 -37.5137
    endloop
  endfacet
  facet normal -0.0523582 0 -0.998628
    outer loop
      vertex 48.2613 5 -37.5137
      vertex 48 -55 -37.5
      vertex 48 5 -37.5
    endloop
  endfacet
  facet normal -0.998628 0 0.0523582
    outer loop
      vertex 50.4863 -55 -40.2613
      vertex 50.5 5 -40
      vertex 50.4863 5 -40.2613
    endloop
  endfacet
  facet normal -0.998628 0 0.0523582
    outer loop
      vertex 50.5 5 -40
      vertex 50.4863 -55 -40.2613
      vertex 50.5 -55 -40
    endloop
  endfacet
  facet normal 0.998628 0 -0.0523582
    outer loop
      vertex 45.5137 -55 -39.7387
      vertex 45.5 5 -40
      vertex 45.5137 5 -39.7387
    endloop
  endfacet
  facet normal 0.998628 0 -0.0523582
    outer loop
      vertex 45.5 5 -40
      vertex 45.5137 -55 -39.7387
      vertex 45.5 -55 -40
    endloop
  endfacet
  facet normal 0.629253 0 -0.7772
    outer loop
      vertex 46.3272 -55 -38.1421
      vertex 46.5305 5 -37.9775
      vertex 46.5305 -55 -37.9775
    endloop
  endfacet
  facet normal 0.629253 0 -0.7772
    outer loop
      vertex 46.5305 5 -37.9775
      vertex 46.3272 -55 -38.1421
      vertex 46.3272 5 -38.1421
    endloop
  endfacet
  facet normal -0.707107 0 0.707107
    outer loop
      vertex 49.6728 -55 -41.8579
      vertex 49.8579 5 -41.6728
      vertex 49.6728 5 -41.8579
    endloop
  endfacet
  facet normal -0.707107 0 0.707107
    outer loop
      vertex 49.8579 5 -41.6728
      vertex 49.6728 -55 -41.8579
      vertex 49.8579 -55 -41.6728
    endloop
  endfacet
  facet normal -0.7772 0 -0.629253
    outer loop
      vertex 50.0225 -55 -38.5305
      vertex 49.8579 5 -38.3272
      vertex 50.0225 5 -38.5305
    endloop
  endfacet
  facet normal -0.7772 -0 -0.629253
    outer loop
      vertex 49.8579 5 -38.3272
      vertex 50.0225 -55 -38.5305
      vertex 49.8579 -55 -38.3272
    endloop
  endfacet
  facet normal -0.93368 0 -0.358108
    outer loop
      vertex 50.3776 -55 -39.2275
      vertex 50.2839 5 -38.9832
      vertex 50.3776 5 -39.2275
    endloop
  endfacet
  facet normal -0.93368 -0 -0.358108
    outer loop
      vertex 50.2839 5 -38.9832
      vertex 50.3776 -55 -39.2275
      vertex 50.2839 -55 -38.9832
    endloop
  endfacet
  facet normal -0.453926 0 0.891039
    outer loop
      vertex 49.0168 5 -42.2839
      vertex 49.25 -55 -42.1651
      vertex 49.25 5 -42.1651
    endloop
  endfacet
  facet normal -0.453926 0 0.891039
    outer loop
      vertex 49.25 -55 -42.1651
      vertex 49.0168 5 -42.2839
      vertex 49.0168 -55 -42.2839
    endloop
  endfacet
  facet normal -0.891039 0 0.453926
    outer loop
      vertex 50.1651 -55 -41.25
      vertex 50.2839 5 -41.0168
      vertex 50.1651 5 -41.25
    endloop
  endfacet
  facet normal -0.891039 0 0.453926
    outer loop
      vertex 50.2839 5 -41.0168
      vertex 50.1651 -55 -41.25
      vertex 50.2839 -55 -41.0168
    endloop
  endfacet
  facet normal -0.838575 0 0.544787
    outer loop
      vertex 50.0225 -55 -41.4695
      vertex 50.1651 5 -41.25
      vertex 50.0225 5 -41.4695
    endloop
  endfacet
  facet normal -0.838575 0 0.544787
    outer loop
      vertex 50.1651 5 -41.25
      vertex 50.0225 -55 -41.4695
      vertex 50.1651 -55 -41.25
    endloop
  endfacet
  facet normal -0.453926 0 -0.891039
    outer loop
      vertex 49.0168 -55 -37.7161
      vertex 49.25 5 -37.8349
      vertex 49.25 -55 -37.8349
    endloop
  endfacet
  facet normal -0.453926 0 -0.891039
    outer loop
      vertex 49.25 5 -37.8349
      vertex 49.0168 -55 -37.7161
      vertex 49.0168 5 -37.7161
    endloop
  endfacet
  facet normal -0.891039 0 -0.453926
    outer loop
      vertex 50.2839 -55 -38.9832
      vertex 50.1651 5 -38.75
      vertex 50.2839 5 -38.9832
    endloop
  endfacet
  facet normal -0.891039 -0 -0.453926
    outer loop
      vertex 50.1651 5 -38.75
      vertex 50.2839 -55 -38.9832
      vertex 50.1651 -55 -38.75
    endloop
  endfacet
  facet normal -0.987713 0 -0.156277
    outer loop
      vertex 50.4863 -55 -39.7387
      vertex 50.4454 5 -39.4802
      vertex 50.4863 5 -39.7387
    endloop
  endfacet
  facet normal -0.987713 -0 -0.156277
    outer loop
      vertex 50.4454 5 -39.4802
      vertex 50.4863 -55 -39.7387
      vertex 50.4454 -55 -39.4802
    endloop
  endfacet
  facet normal 0.259137 0 0.965841
    outer loop
      vertex 47.2275 5 -42.3776
      vertex 47.4802 -55 -42.4454
      vertex 47.4802 5 -42.4454
    endloop
  endfacet
  facet normal 0.259137 0 0.965841
    outer loop
      vertex 47.4802 -55 -42.4454
      vertex 47.2275 5 -42.3776
      vertex 47.2275 -55 -42.3776
    endloop
  endfacet
  facet normal 0.453926 0 -0.891039
    outer loop
      vertex 46.75 -55 -37.8349
      vertex 46.9832 5 -37.7161
      vertex 46.9832 -55 -37.7161
    endloop
  endfacet
  facet normal 0.453926 0 -0.891039
    outer loop
      vertex 46.9832 5 -37.7161
      vertex 46.75 -55 -37.8349
      vertex 46.75 5 -37.8349
    endloop
  endfacet
  facet normal -0.259137 0 0.965841
    outer loop
      vertex 48.5198 5 -42.4454
      vertex 48.7725 -55 -42.3776
      vertex 48.7725 5 -42.3776
    endloop
  endfacet
  facet normal -0.259137 0 0.965841
    outer loop
      vertex 48.7725 -55 -42.3776
      vertex 48.5198 5 -42.4454
      vertex 48.5198 -55 -42.4454
    endloop
  endfacet
  facet normal -0.156277 0 0.987713
    outer loop
      vertex 48.2613 5 -42.4863
      vertex 48.5198 -55 -42.4454
      vertex 48.5198 5 -42.4454
    endloop
  endfacet
  facet normal -0.156277 0 0.987713
    outer loop
      vertex 48.5198 -55 -42.4454
      vertex 48.2613 5 -42.4863
      vertex 48.2613 -55 -42.4863
    endloop
  endfacet
  facet normal -0.358108 0 0.93368
    outer loop
      vertex 48.7725 5 -42.3776
      vertex 49.0168 -55 -42.2839
      vertex 49.0168 5 -42.2839
    endloop
  endfacet
  facet normal -0.358108 0 0.93368
    outer loop
      vertex 49.0168 -55 -42.2839
      vertex 48.7725 5 -42.3776
      vertex 48.7725 -55 -42.3776
    endloop
  endfacet
  facet normal -0.629253 0 0.7772
    outer loop
      vertex 49.4695 5 -42.0225
      vertex 49.6728 -55 -41.8579
      vertex 49.6728 5 -41.8579
    endloop
  endfacet
  facet normal -0.629253 0 0.7772
    outer loop
      vertex 49.6728 -55 -41.8579
      vertex 49.4695 5 -42.0225
      vertex 49.4695 -55 -42.0225
    endloop
  endfacet
  facet normal -0.544787 0 0.838575
    outer loop
      vertex 49.25 5 -42.1651
      vertex 49.4695 -55 -42.0225
      vertex 49.4695 5 -42.0225
    endloop
  endfacet
  facet normal -0.544787 0 0.838575
    outer loop
      vertex 49.4695 -55 -42.0225
      vertex 49.25 5 -42.1651
      vertex 49.25 -55 -42.1651
    endloop
  endfacet
  facet normal -0.965841 0 0.259137
    outer loop
      vertex 50.3776 -55 -40.7725
      vertex 50.4454 5 -40.5198
      vertex 50.3776 5 -40.7725
    endloop
  endfacet
  facet normal -0.965841 0 0.259137
    outer loop
      vertex 50.4454 5 -40.5198
      vertex 50.3776 -55 -40.7725
      vertex 50.4454 -55 -40.5198
    endloop
  endfacet
  facet normal -0.93368 0 0.358108
    outer loop
      vertex 50.2839 -55 -41.0168
      vertex 50.3776 5 -40.7725
      vertex 50.2839 5 -41.0168
    endloop
  endfacet
  facet normal -0.93368 0 0.358108
    outer loop
      vertex 50.3776 5 -40.7725
      vertex 50.2839 -55 -41.0168
      vertex 50.3776 -55 -40.7725
    endloop
  endfacet
  facet normal -0.987713 0 0.156277
    outer loop
      vertex 50.4454 -55 -40.5198
      vertex 50.4863 5 -40.2613
      vertex 50.4454 5 -40.5198
    endloop
  endfacet
  facet normal -0.987713 0 0.156277
    outer loop
      vertex 50.4863 5 -40.2613
      vertex 50.4454 -55 -40.5198
      vertex 50.4863 -55 -40.2613
    endloop
  endfacet
  facet normal -0.7772 0 0.629253
    outer loop
      vertex 49.8579 -55 -41.6728
      vertex 50.0225 5 -41.4695
      vertex 49.8579 5 -41.6728
    endloop
  endfacet
  facet normal -0.7772 0 0.629253
    outer loop
      vertex 50.0225 5 -41.4695
      vertex 49.8579 -55 -41.6728
      vertex 50.0225 -55 -41.4695
    endloop
  endfacet
  facet normal -0.259137 0 -0.965841
    outer loop
      vertex 48.5198 -55 -37.5546
      vertex 48.7725 5 -37.6224
      vertex 48.7725 -55 -37.6224
    endloop
  endfacet
  facet normal -0.259137 0 -0.965841
    outer loop
      vertex 48.7725 5 -37.6224
      vertex 48.5198 -55 -37.5546
      vertex 48.5198 5 -37.5546
    endloop
  endfacet
  facet normal -0.629253 0 -0.7772
    outer loop
      vertex 49.4695 -55 -37.9775
      vertex 49.6728 5 -38.1421
      vertex 49.6728 -55 -38.1421
    endloop
  endfacet
  facet normal -0.629253 0 -0.7772
    outer loop
      vertex 49.6728 5 -38.1421
      vertex 49.4695 -55 -37.9775
      vertex 49.4695 5 -37.9775
    endloop
  endfacet
  facet normal -0.707107 0 -0.707107
    outer loop
      vertex 49.8579 -55 -38.3272
      vertex 49.6728 5 -38.1421
      vertex 49.8579 5 -38.3272
    endloop
  endfacet
  facet normal -0.707107 -0 -0.707107
    outer loop
      vertex 49.6728 5 -38.1421
      vertex 49.8579 -55 -38.3272
      vertex 49.6728 -55 -38.1421
    endloop
  endfacet
  facet normal -0.544787 0 -0.838575
    outer loop
      vertex 49.25 -55 -37.8349
      vertex 49.4695 5 -37.9775
      vertex 49.4695 -55 -37.9775
    endloop
  endfacet
  facet normal -0.544787 0 -0.838575
    outer loop
      vertex 49.4695 5 -37.9775
      vertex 49.25 -55 -37.8349
      vertex 49.25 5 -37.8349
    endloop
  endfacet
  facet normal -0.358108 0 -0.93368
    outer loop
      vertex 48.7725 -55 -37.6224
      vertex 49.0168 5 -37.7161
      vertex 49.0168 -55 -37.7161
    endloop
  endfacet
  facet normal -0.358108 0 -0.93368
    outer loop
      vertex 49.0168 5 -37.7161
      vertex 48.7725 -55 -37.6224
      vertex 48.7725 5 -37.6224
    endloop
  endfacet
  facet normal -0.156277 0 -0.987713
    outer loop
      vertex 48.2613 -55 -37.5137
      vertex 48.5198 5 -37.5546
      vertex 48.5198 -55 -37.5546
    endloop
  endfacet
  facet normal -0.156277 0 -0.987713
    outer loop
      vertex 48.5198 5 -37.5546
      vertex 48.2613 -55 -37.5137
      vertex 48.2613 5 -37.5137
    endloop
  endfacet
  facet normal -0.838575 0 -0.544787
    outer loop
      vertex 50.1651 -55 -38.75
      vertex 50.0225 5 -38.5305
      vertex 50.1651 5 -38.75
    endloop
  endfacet
  facet normal -0.838575 -0 -0.544787
    outer loop
      vertex 50.0225 5 -38.5305
      vertex 50.1651 -55 -38.75
      vertex 50.0225 -55 -38.5305
    endloop
  endfacet
  facet normal -0.965841 0 -0.259137
    outer loop
      vertex 50.4454 -55 -39.4802
      vertex 50.3776 5 -39.2275
      vertex 50.4454 5 -39.4802
    endloop
  endfacet
  facet normal -0.965841 -0 -0.259137
    outer loop
      vertex 50.3776 5 -39.2275
      vertex 50.4454 -55 -39.4802
      vertex 50.3776 -55 -39.2275
    endloop
  endfacet
  facet normal -0.998628 0 -0.0523582
    outer loop
      vertex 50.5 -55 -40
      vertex 50.4863 5 -39.7387
      vertex 50.5 5 -40
    endloop
  endfacet
  facet normal -0.998628 -0 -0.0523582
    outer loop
      vertex 50.4863 5 -39.7387
      vertex 50.5 -55 -40
      vertex 50.4863 -55 -39.7387
    endloop
  endfacet
  facet normal 0.998628 -0 0.0523582
    outer loop
      vertex 45.5 -55 -40
      vertex 45.5137 5 -40.2613
      vertex 45.5 5 -40
    endloop
  endfacet
  facet normal 0.998628 0 0.0523582
    outer loop
      vertex 45.5137 5 -40.2613
      vertex 45.5 -55 -40
      vertex 45.5137 -55 -40.2613
    endloop
  endfacet
  facet normal 0.965841 -0 0.259137
    outer loop
      vertex 45.5546 -55 -40.5198
      vertex 45.6224 5 -40.7725
      vertex 45.5546 5 -40.5198
    endloop
  endfacet
  facet normal 0.965841 0 0.259137
    outer loop
      vertex 45.6224 5 -40.7725
      vertex 45.5546 -55 -40.5198
      vertex 45.6224 -55 -40.7725
    endloop
  endfacet
  facet normal 0.7772 -0 0.629253
    outer loop
      vertex 45.9775 -55 -41.4695
      vertex 46.1421 5 -41.6728
      vertex 45.9775 5 -41.4695
    endloop
  endfacet
  facet normal 0.7772 0 0.629253
    outer loop
      vertex 46.1421 5 -41.6728
      vertex 45.9775 -55 -41.4695
      vertex 46.1421 -55 -41.6728
    endloop
  endfacet
  facet normal 0.891039 -0 0.453926
    outer loop
      vertex 45.7161 -55 -41.0168
      vertex 45.8349 5 -41.25
      vertex 45.7161 5 -41.0168
    endloop
  endfacet
  facet normal 0.891039 0 0.453926
    outer loop
      vertex 45.8349 5 -41.25
      vertex 45.7161 -55 -41.0168
      vertex 45.8349 -55 -41.25
    endloop
  endfacet
  facet normal 0.629253 0 0.7772
    outer loop
      vertex 46.3272 5 -41.8579
      vertex 46.5305 -55 -42.0225
      vertex 46.5305 5 -42.0225
    endloop
  endfacet
  facet normal 0.629253 0 0.7772
    outer loop
      vertex 46.5305 -55 -42.0225
      vertex 46.3272 5 -41.8579
      vertex 46.3272 -55 -41.8579
    endloop
  endfacet
  facet normal 0.453926 0 0.891039
    outer loop
      vertex 46.75 5 -42.1651
      vertex 46.9832 -55 -42.2839
      vertex 46.9832 5 -42.2839
    endloop
  endfacet
  facet normal 0.453926 0 0.891039
    outer loop
      vertex 46.9832 -55 -42.2839
      vertex 46.75 5 -42.1651
      vertex 46.75 -55 -42.1651
    endloop
  endfacet
  facet normal 0.707107 0 -0.707107
    outer loop
      vertex 46.3272 -55 -38.1421
      vertex 46.1421 5 -38.3272
      vertex 46.3272 5 -38.1421
    endloop
  endfacet
  facet normal 0.707107 0 -0.707107
    outer loop
      vertex 46.1421 5 -38.3272
      vertex 46.3272 -55 -38.1421
      vertex 46.1421 -55 -38.3272
    endloop
  endfacet
  facet normal 0.838575 0 -0.544787
    outer loop
      vertex 45.9775 -55 -38.5305
      vertex 45.8349 5 -38.75
      vertex 45.9775 5 -38.5305
    endloop
  endfacet
  facet normal 0.838575 0 -0.544787
    outer loop
      vertex 45.8349 5 -38.75
      vertex 45.9775 -55 -38.5305
      vertex 45.8349 -55 -38.75
    endloop
  endfacet
  facet normal 0.93368 0 -0.358108
    outer loop
      vertex 45.7161 -55 -38.9832
      vertex 45.6224 5 -39.2275
      vertex 45.7161 5 -38.9832
    endloop
  endfacet
  facet normal 0.93368 0 -0.358108
    outer loop
      vertex 45.6224 5 -39.2275
      vertex 45.7161 -55 -38.9832
      vertex 45.6224 -55 -39.2275
    endloop
  endfacet
  facet normal 0.987713 0 -0.156277
    outer loop
      vertex 45.5546 -55 -39.4802
      vertex 45.5137 5 -39.7387
      vertex 45.5546 5 -39.4802
    endloop
  endfacet
  facet normal 0.987713 0 -0.156277
    outer loop
      vertex 45.5137 5 -39.7387
      vertex 45.5546 -55 -39.4802
      vertex 45.5137 -55 -39.7387
    endloop
  endfacet
  facet normal 0.544787 0 -0.838575
    outer loop
      vertex 46.5305 -55 -37.9775
      vertex 46.75 5 -37.8349
      vertex 46.75 -55 -37.8349
    endloop
  endfacet
  facet normal 0.544787 0 -0.838575
    outer loop
      vertex 46.75 5 -37.8349
      vertex 46.5305 -55 -37.9775
      vertex 46.5305 5 -37.9775
    endloop
  endfacet
  facet normal 0.259137 0 -0.965841
    outer loop
      vertex 47.2275 -55 -37.6224
      vertex 47.4802 5 -37.5546
      vertex 47.4802 -55 -37.5546
    endloop
  endfacet
  facet normal 0.259137 0 -0.965841
    outer loop
      vertex 47.4802 5 -37.5546
      vertex 47.2275 -55 -37.6224
      vertex 47.2275 5 -37.6224
    endloop
  endfacet
  facet normal 0.0523582 0 -0.998628
    outer loop
      vertex 47.7387 -55 -37.5137
      vertex 48 5 -37.5
      vertex 48 -55 -37.5
    endloop
  endfacet
  facet normal 0.0523582 0 -0.998628
    outer loop
      vertex 48 5 -37.5
      vertex 47.7387 -55 -37.5137
      vertex 47.7387 5 -37.5137
    endloop
  endfacet
  facet normal 0.987713 -0 0.156277
    outer loop
      vertex 45.5137 -55 -40.2613
      vertex 45.5546 5 -40.5198
      vertex 45.5137 5 -40.2613
    endloop
  endfacet
  facet normal 0.987713 0 0.156277
    outer loop
      vertex 45.5546 5 -40.5198
      vertex 45.5137 -55 -40.2613
      vertex 45.5546 -55 -40.5198
    endloop
  endfacet
  facet normal 0.93368 -0 0.358108
    outer loop
      vertex 45.6224 -55 -40.7725
      vertex 45.7161 5 -41.0168
      vertex 45.6224 5 -40.7725
    endloop
  endfacet
  facet normal 0.93368 0 0.358108
    outer loop
      vertex 45.7161 5 -41.0168
      vertex 45.6224 -55 -40.7725
      vertex 45.7161 -55 -41.0168
    endloop
  endfacet
  facet normal 0.707107 -0 0.707107
    outer loop
      vertex 46.1421 -55 -41.6728
      vertex 46.3272 5 -41.8579
      vertex 46.1421 5 -41.6728
    endloop
  endfacet
  facet normal 0.707107 0 0.707107
    outer loop
      vertex 46.3272 5 -41.8579
      vertex 46.1421 -55 -41.6728
      vertex 46.3272 -55 -41.8579
    endloop
  endfacet
  facet normal 0.838575 -0 0.544787
    outer loop
      vertex 45.8349 -55 -41.25
      vertex 45.9775 5 -41.4695
      vertex 45.8349 5 -41.25
    endloop
  endfacet
  facet normal 0.838575 0 0.544787
    outer loop
      vertex 45.9775 5 -41.4695
      vertex 45.8349 -55 -41.25
      vertex 45.9775 -55 -41.4695
    endloop
  endfacet
  facet normal 0.544787 0 0.838575
    outer loop
      vertex 46.5305 5 -42.0225
      vertex 46.75 -55 -42.1651
      vertex 46.75 5 -42.1651
    endloop
  endfacet
  facet normal 0.544787 0 0.838575
    outer loop
      vertex 46.75 -55 -42.1651
      vertex 46.5305 5 -42.0225
      vertex 46.5305 -55 -42.0225
    endloop
  endfacet
  facet normal 0.358108 0 0.93368
    outer loop
      vertex 46.9832 5 -42.2839
      vertex 47.2275 -55 -42.3776
      vertex 47.2275 5 -42.3776
    endloop
  endfacet
  facet normal 0.358108 0 0.93368
    outer loop
      vertex 47.2275 -55 -42.3776
      vertex 46.9832 5 -42.2839
      vertex 46.9832 -55 -42.2839
    endloop
  endfacet
  facet normal 0.156277 0 0.987713
    outer loop
      vertex 47.4802 5 -42.4454
      vertex 47.7387 -55 -42.4863
      vertex 47.7387 5 -42.4863
    endloop
  endfacet
  facet normal 0.156277 0 0.987713
    outer loop
      vertex 47.7387 -55 -42.4863
      vertex 47.4802 5 -42.4454
      vertex 47.4802 -55 -42.4454
    endloop
  endfacet
  facet normal 0.0523582 0 0.998628
    outer loop
      vertex 47.7387 5 -42.4863
      vertex 48 -55 -42.5
      vertex 48 5 -42.5
    endloop
  endfacet
  facet normal 0.0523582 0 0.998628
    outer loop
      vertex 48 -55 -42.5
      vertex 47.7387 5 -42.4863
      vertex 47.7387 -55 -42.4863
    endloop
  endfacet
  facet normal 0.7772 0 -0.629253
    outer loop
      vertex 46.1421 -55 -38.3272
      vertex 45.9775 5 -38.5305
      vertex 46.1421 5 -38.3272
    endloop
  endfacet
  facet normal 0.7772 0 -0.629253
    outer loop
      vertex 45.9775 5 -38.5305
      vertex 46.1421 -55 -38.3272
      vertex 45.9775 -55 -38.5305
    endloop
  endfacet
  facet normal 0.891039 0 -0.453926
    outer loop
      vertex 45.8349 -55 -38.75
      vertex 45.7161 5 -38.9832
      vertex 45.8349 5 -38.75
    endloop
  endfacet
  facet normal 0.891039 0 -0.453926
    outer loop
      vertex 45.7161 5 -38.9832
      vertex 45.8349 -55 -38.75
      vertex 45.7161 -55 -38.9832
    endloop
  endfacet
  facet normal 0.965841 0 -0.259137
    outer loop
      vertex 45.6224 -55 -39.2275
      vertex 45.5546 5 -39.4802
      vertex 45.6224 5 -39.2275
    endloop
  endfacet
  facet normal 0.965841 0 -0.259137
    outer loop
      vertex 45.5546 5 -39.4802
      vertex 45.6224 -55 -39.2275
      vertex 45.5546 -55 -39.4802
    endloop
  endfacet
  facet normal 0.358108 0 -0.93368
    outer loop
      vertex 46.9832 -55 -37.7161
      vertex 47.2275 5 -37.6224
      vertex 47.2275 -55 -37.6224
    endloop
  endfacet
  facet normal 0.358108 0 -0.93368
    outer loop
      vertex 47.2275 5 -37.6224
      vertex 46.9832 -55 -37.7161
      vertex 46.9832 5 -37.7161
    endloop
  endfacet
  facet normal 0.156277 0 -0.987713
    outer loop
      vertex 47.4802 -55 -37.5546
      vertex 47.7387 5 -37.5137
      vertex 47.7387 -55 -37.5137
    endloop
  endfacet
  facet normal 0.156277 0 -0.987713
    outer loop
      vertex 47.7387 5 -37.5137
      vertex 47.4802 -55 -37.5546
      vertex 47.4802 5 -37.5546
    endloop
  endfacet
endsolid OpenSCAD_Model
