solid OpenSCAD_Model
  facet normal 0.998628 0.0523582 0
    outer loop
      vertex 53 25 116
      vertex 52.9726 25.5226 114
      vertex 52.9726 25.5226 116
    endloop
  endfacet
  facet normal 0.998628 0.0523582 0
    outer loop
      vertex 52.9726 25.5226 114
      vertex 53 25 116
      vertex 53 25 114
    endloop
  endfacet
  facet normal -0.998628 0.0523582 0
    outer loop
      vertex 43 25 114
      vertex 43.0274 25.5226 116
      vertex 43.0274 25.5226 114
    endloop
  endfacet
  facet normal -0.998628 0.0523582 0
    outer loop
      vertex 43.0274 25.5226 116
      vertex 43 25 114
      vertex 43 25 116
    endloop
  endfacet
  facet normal 0.0523582 0.998628 -0
    outer loop
      vertex 48.5226 29.9726 114
      vertex 48 30 116
      vertex 48.5226 29.9726 116
    endloop
  endfacet
  facet normal 0.0523582 0.998628 0
    outer loop
      vertex 48 30 116
      vertex 48.5226 29.9726 114
      vertex 48 30 114
    endloop
  endfacet
  facet normal 0.707107 0.707107 0
    outer loop
      vertex 51.7157 28.3457 116
      vertex 51.3457 28.7157 114
      vertex 51.3457 28.7157 116
    endloop
  endfacet
  facet normal 0.707107 0.707107 0
    outer loop
      vertex 51.3457 28.7157 114
      vertex 51.7157 28.3457 116
      vertex 51.7157 28.3457 114
    endloop
  endfacet
  facet normal -0.629297 0.777165 0
    outer loop
      vertex 45.0611 29.0451 114
      vertex 44.6543 28.7157 116
      vertex 45.0611 29.0451 116
    endloop
  endfacet
  facet normal -0.629297 0.777165 0
    outer loop
      vertex 44.6543 28.7157 116
      vertex 45.0611 29.0451 114
      vertex 44.6543 28.7157 114
    endloop
  endfacet
  facet normal -0.258733 0.965949 0
    outer loop
      vertex 46.9604 29.8907 114
      vertex 46.4549 29.7553 116
      vertex 46.9604 29.8907 116
    endloop
  endfacet
  facet normal -0.258733 0.965949 0
    outer loop
      vertex 46.4549 29.7553 116
      vertex 46.9604 29.8907 114
      vertex 46.4549 29.7553 114
    endloop
  endfacet
  facet normal 0.891 0.454003 0
    outer loop
      vertex 52.5677 27.0337 116
      vertex 52.3301 27.5 114
      vertex 52.3301 27.5 116
    endloop
  endfacet
  facet normal 0.891 0.454003 0
    outer loop
      vertex 52.3301 27.5 114
      vertex 52.5677 27.0337 116
      vertex 52.5677 27.0337 114
    endloop
  endfacet
  facet normal 0.358441 0.933552 -0
    outer loop
      vertex 50.0337 29.5677 114
      vertex 49.5451 29.7553 116
      vertex 50.0337 29.5677 116
    endloop
  endfacet
  facet normal 0.358441 0.933552 0
    outer loop
      vertex 49.5451 29.7553 116
      vertex 50.0337 29.5677 114
      vertex 49.5451 29.7553 114
    endloop
  endfacet
  facet normal 0.258733 0.965949 -0
    outer loop
      vertex 49.5451 29.7553 114
      vertex 49.0396 29.8907 116
      vertex 49.5451 29.7553 116
    endloop
  endfacet
  facet normal 0.258733 0.965949 0
    outer loop
      vertex 49.0396 29.8907 116
      vertex 49.5451 29.7553 114
      vertex 49.0396 29.8907 114
    endloop
  endfacet
  facet normal 0.544605 0.838692 -0
    outer loop
      vertex 50.9389 29.0451 114
      vertex 50.5 29.3301 116
      vertex 50.9389 29.0451 116
    endloop
  endfacet
  facet normal 0.544605 0.838692 0
    outer loop
      vertex 50.5 29.3301 116
      vertex 50.9389 29.0451 114
      vertex 50.5 29.3301 114
    endloop
  endfacet
  facet normal -0.891 0.454003 0
    outer loop
      vertex 43.4323 27.0337 114
      vertex 43.6699 27.5 116
      vertex 43.6699 27.5 114
    endloop
  endfacet
  facet normal -0.891 0.454003 0
    outer loop
      vertex 43.6699 27.5 116
      vertex 43.4323 27.0337 114
      vertex 43.4323 27.0337 116
    endloop
  endfacet
  facet normal -0.156463 0.987684 0
    outer loop
      vertex 47.4774 29.9726 114
      vertex 46.9604 29.8907 116
      vertex 47.4774 29.9726 116
    endloop
  endfacet
  facet normal -0.156463 0.987684 0
    outer loop
      vertex 46.9604 29.8907 116
      vertex 47.4774 29.9726 114
      vertex 46.9604 29.8907 114
    endloop
  endfacet
  facet normal 0.933552 -0.358441 0
    outer loop
      vertex 52.5677 22.9663 116
      vertex 52.7553 23.4549 114
      vertex 52.7553 23.4549 116
    endloop
  endfacet
  facet normal 0.933552 -0.358441 0
    outer loop
      vertex 52.7553 23.4549 114
      vertex 52.5677 22.9663 116
      vertex 52.5677 22.9663 114
    endloop
  endfacet
  facet normal 0.965949 -0.258733 0
    outer loop
      vertex 52.7553 23.4549 116
      vertex 52.8907 23.9604 114
      vertex 52.8907 23.9604 116
    endloop
  endfacet
  facet normal 0.965949 -0.258733 0
    outer loop
      vertex 52.8907 23.9604 114
      vertex 52.7553 23.4549 116
      vertex 52.7553 23.4549 114
    endloop
  endfacet
  facet normal -0.998628 -0.0523582 0
    outer loop
      vertex 43.0274 24.4774 114
      vertex 43 25 116
      vertex 43 25 114
    endloop
  endfacet
  facet normal -0.998628 -0.0523582 0
    outer loop
      vertex 43 25 116
      vertex 43.0274 24.4774 114
      vertex 43.0274 24.4774 116
    endloop
  endfacet
  facet normal 0.965949 0.258733 0
    outer loop
      vertex 52.8907 26.0396 116
      vertex 52.7553 26.5451 114
      vertex 52.7553 26.5451 116
    endloop
  endfacet
  facet normal 0.965949 0.258733 0
    outer loop
      vertex 52.7553 26.5451 114
      vertex 52.8907 26.0396 116
      vertex 52.8907 26.0396 114
    endloop
  endfacet
  facet normal 0.987684 0.156463 0
    outer loop
      vertex 52.9726 25.5226 116
      vertex 52.8907 26.0396 114
      vertex 52.8907 26.0396 116
    endloop
  endfacet
  facet normal 0.987684 0.156463 0
    outer loop
      vertex 52.8907 26.0396 114
      vertex 52.9726 25.5226 116
      vertex 52.9726 25.5226 114
    endloop
  endfacet
  facet normal 0.933552 0.358441 0
    outer loop
      vertex 52.7553 26.5451 116
      vertex 52.5677 27.0337 114
      vertex 52.5677 27.0337 116
    endloop
  endfacet
  facet normal 0.933552 0.358441 0
    outer loop
      vertex 52.5677 27.0337 114
      vertex 52.7553 26.5451 116
      vertex 52.7553 26.5451 114
    endloop
  endfacet
  facet normal 0.777165 0.629297 0
    outer loop
      vertex 52.0451 27.9389 116
      vertex 51.7157 28.3457 114
      vertex 51.7157 28.3457 116
    endloop
  endfacet
  facet normal 0.777165 0.629297 0
    outer loop
      vertex 51.7157 28.3457 114
      vertex 52.0451 27.9389 116
      vertex 52.0451 27.9389 114
    endloop
  endfacet
  facet normal 0.838692 0.544605 0
    outer loop
      vertex 52.3301 27.5 116
      vertex 52.0451 27.9389 114
      vertex 52.0451 27.9389 116
    endloop
  endfacet
  facet normal 0.838692 0.544605 0
    outer loop
      vertex 52.0451 27.9389 114
      vertex 52.3301 27.5 116
      vertex 52.3301 27.5 114
    endloop
  endfacet
  facet normal 0.156463 0.987684 -0
    outer loop
      vertex 49.0396 29.8907 114
      vertex 48.5226 29.9726 116
      vertex 49.0396 29.8907 116
    endloop
  endfacet
  facet normal 0.156463 0.987684 0
    outer loop
      vertex 48.5226 29.9726 116
      vertex 49.0396 29.8907 114
      vertex 48.5226 29.9726 114
    endloop
  endfacet
  facet normal 0.454003 0.891 -0
    outer loop
      vertex 50.5 29.3301 114
      vertex 50.0337 29.5677 116
      vertex 50.5 29.3301 116
    endloop
  endfacet
  facet normal 0.454003 0.891 0
    outer loop
      vertex 50.0337 29.5677 116
      vertex 50.5 29.3301 114
      vertex 50.0337 29.5677 114
    endloop
  endfacet
  facet normal 0.629297 0.777165 -0
    outer loop
      vertex 51.3457 28.7157 114
      vertex 50.9389 29.0451 116
      vertex 51.3457 28.7157 116
    endloop
  endfacet
  facet normal 0.629297 0.777165 0
    outer loop
      vertex 50.9389 29.0451 116
      vertex 51.3457 28.7157 114
      vertex 50.9389 29.0451 114
    endloop
  endfacet
  facet normal -0.965949 0.258733 0
    outer loop
      vertex 43.1093 26.0396 114
      vertex 43.2447 26.5451 116
      vertex 43.2447 26.5451 114
    endloop
  endfacet
  facet normal -0.965949 0.258733 0
    outer loop
      vertex 43.2447 26.5451 116
      vertex 43.1093 26.0396 114
      vertex 43.1093 26.0396 116
    endloop
  endfacet
  facet normal -0.777165 0.629297 0
    outer loop
      vertex 43.9549 27.9389 114
      vertex 44.2843 28.3457 116
      vertex 44.2843 28.3457 114
    endloop
  endfacet
  facet normal -0.777165 0.629297 0
    outer loop
      vertex 44.2843 28.3457 116
      vertex 43.9549 27.9389 114
      vertex 43.9549 27.9389 116
    endloop
  endfacet
  facet normal -0.707107 0.707107 0
    outer loop
      vertex 44.2843 28.3457 114
      vertex 44.6543 28.7157 116
      vertex 44.6543 28.7157 114
    endloop
  endfacet
  facet normal -0.707107 0.707107 0
    outer loop
      vertex 44.6543 28.7157 116
      vertex 44.2843 28.3457 114
      vertex 44.2843 28.3457 116
    endloop
  endfacet
  facet normal -0.838692 0.544605 0
    outer loop
      vertex 43.6699 27.5 114
      vertex 43.9549 27.9389 116
      vertex 43.9549 27.9389 114
    endloop
  endfacet
  facet normal -0.838692 0.544605 0
    outer loop
      vertex 43.9549 27.9389 116
      vertex 43.6699 27.5 114
      vertex 43.6699 27.5 116
    endloop
  endfacet
  facet normal -0.933552 0.358441 0
    outer loop
      vertex 43.2447 26.5451 114
      vertex 43.4323 27.0337 116
      vertex 43.4323 27.0337 114
    endloop
  endfacet
  facet normal -0.933552 0.358441 0
    outer loop
      vertex 43.4323 27.0337 116
      vertex 43.2447 26.5451 114
      vertex 43.2447 26.5451 116
    endloop
  endfacet
  facet normal -0.987684 0.156463 0
    outer loop
      vertex 43.0274 25.5226 114
      vertex 43.1093 26.0396 116
      vertex 43.1093 26.0396 114
    endloop
  endfacet
  facet normal -0.987684 0.156463 0
    outer loop
      vertex 43.1093 26.0396 116
      vertex 43.0274 25.5226 114
      vertex 43.0274 25.5226 116
    endloop
  endfacet
  facet normal 0 0 1
    outer loop
      vertex 52.9726 25.5226 116
      vertex 52.9726 24.4774 116
      vertex 53 25 116
    endloop
  endfacet
  facet normal 0 0 1
    outer loop
      vertex 52.8907 26.0396 116
      vertex 52.9726 24.4774 116
      vertex 52.9726 25.5226 116
    endloop
  endfacet
  facet normal 0 0 1
    outer loop
      vertex 52.8907 26.0396 116
      vertex 52.8907 23.9604 116
      vertex 52.9726 24.4774 116
    endloop
  endfacet
  facet normal 0 0 1
    outer loop
      vertex 52.7553 26.5451 116
      vertex 52.8907 23.9604 116
      vertex 52.8907 26.0396 116
    endloop
  endfacet
  facet normal 0 0 1
    outer loop
      vertex 52.7553 26.5451 116
      vertex 52.7553 23.4549 116
      vertex 52.8907 23.9604 116
    endloop
  endfacet
  facet normal 0 0 1
    outer loop
      vertex 52.5677 27.0337 116
      vertex 52.7553 23.4549 116
      vertex 52.7553 26.5451 116
    endloop
  endfacet
  facet normal 0 0 1
    outer loop
      vertex 52.5677 27.0337 116
      vertex 52.5677 22.9663 116
      vertex 52.7553 23.4549 116
    endloop
  endfacet
  facet normal 0 0 1
    outer loop
      vertex 52.3301 27.5 116
      vertex 52.5677 22.9663 116
      vertex 52.5677 27.0337 116
    endloop
  endfacet
  facet normal 0 0 1
    outer loop
      vertex 52.3301 27.5 116
      vertex 52.3301 22.5 116
      vertex 52.5677 22.9663 116
    endloop
  endfacet
  facet normal 0 0 1
    outer loop
      vertex 52.0451 27.9389 116
      vertex 52.3301 22.5 116
      vertex 52.3301 27.5 116
    endloop
  endfacet
  facet normal 0 0 1
    outer loop
      vertex 52.0451 27.9389 116
      vertex 52.0451 22.0611 116
      vertex 52.3301 22.5 116
    endloop
  endfacet
  facet normal 0 0 1
    outer loop
      vertex 51.7157 28.3457 116
      vertex 52.0451 22.0611 116
      vertex 52.0451 27.9389 116
    endloop
  endfacet
  facet normal 0 0 1
    outer loop
      vertex 51.7157 28.3457 116
      vertex 51.7157 21.6543 116
      vertex 52.0451 22.0611 116
    endloop
  endfacet
  facet normal 0 0 1
    outer loop
      vertex 51.3457 28.7157 116
      vertex 51.7157 21.6543 116
      vertex 51.7157 28.3457 116
    endloop
  endfacet
  facet normal 0 0 1
    outer loop
      vertex 51.3457 28.7157 116
      vertex 51.3457 21.2843 116
      vertex 51.7157 21.6543 116
    endloop
  endfacet
  facet normal 0 0 1
    outer loop
      vertex 50.9389 29.0451 116
      vertex 51.3457 21.2843 116
      vertex 51.3457 28.7157 116
    endloop
  endfacet
  facet normal 0 0 1
    outer loop
      vertex 50.9389 29.0451 116
      vertex 50.9389 20.9549 116
      vertex 51.3457 21.2843 116
    endloop
  endfacet
  facet normal 0 0 1
    outer loop
      vertex 50.5 29.3301 116
      vertex 50.9389 20.9549 116
      vertex 50.9389 29.0451 116
    endloop
  endfacet
  facet normal 0 0 1
    outer loop
      vertex 50.5 29.3301 116
      vertex 50.5 20.6699 116
      vertex 50.9389 20.9549 116
    endloop
  endfacet
  facet normal 0 0 1
    outer loop
      vertex 50.0337 29.5677 116
      vertex 50.5 20.6699 116
      vertex 50.5 29.3301 116
    endloop
  endfacet
  facet normal 0 0 1
    outer loop
      vertex 50.0337 29.5677 116
      vertex 50.0337 20.4323 116
      vertex 50.5 20.6699 116
    endloop
  endfacet
  facet normal 0 0 1
    outer loop
      vertex 49.5451 29.7553 116
      vertex 50.0337 20.4323 116
      vertex 50.0337 29.5677 116
    endloop
  endfacet
  facet normal 0 0 1
    outer loop
      vertex 49.5451 29.7553 116
      vertex 49.5451 20.2447 116
      vertex 50.0337 20.4323 116
    endloop
  endfacet
  facet normal 0 0 1
    outer loop
      vertex 49.0396 29.8907 116
      vertex 49.5451 20.2447 116
      vertex 49.5451 29.7553 116
    endloop
  endfacet
  facet normal 0 0 1
    outer loop
      vertex 49.0396 29.8907 116
      vertex 49.0396 20.1093 116
      vertex 49.5451 20.2447 116
    endloop
  endfacet
  facet normal 0 0 1
    outer loop
      vertex 48.5226 29.9726 116
      vertex 49.0396 20.1093 116
      vertex 49.0396 29.8907 116
    endloop
  endfacet
  facet normal 0 0 1
    outer loop
      vertex 48.5226 29.9726 116
      vertex 48.5226 20.0274 116
      vertex 49.0396 20.1093 116
    endloop
  endfacet
  facet normal 0 0 1
    outer loop
      vertex 48 30 116
      vertex 48.5226 20.0274 116
      vertex 48.5226 29.9726 116
    endloop
  endfacet
  facet normal 0 0 1
    outer loop
      vertex 48 30 116
      vertex 48 20 116
      vertex 48.5226 20.0274 116
    endloop
  endfacet
  facet normal -0 0 1
    outer loop
      vertex 47.4774 29.9726 116
      vertex 48 20 116
      vertex 48 30 116
    endloop
  endfacet
  facet normal 0 0 1
    outer loop
      vertex 47.4774 29.9726 116
      vertex 47.4774 20.0274 116
      vertex 48 20 116
    endloop
  endfacet
  facet normal -0 0 1
    outer loop
      vertex 46.9604 29.8907 116
      vertex 47.4774 20.0274 116
      vertex 47.4774 29.9726 116
    endloop
  endfacet
  facet normal 0 0 1
    outer loop
      vertex 46.9604 29.8907 116
      vertex 46.9604 20.1093 116
      vertex 47.4774 20.0274 116
    endloop
  endfacet
  facet normal -0 0 1
    outer loop
      vertex 46.4549 29.7553 116
      vertex 46.9604 20.1093 116
      vertex 46.9604 29.8907 116
    endloop
  endfacet
  facet normal 0 0 1
    outer loop
      vertex 46.4549 29.7553 116
      vertex 46.4549 20.2447 116
      vertex 46.9604 20.1093 116
    endloop
  endfacet
  facet normal -0 0 1
    outer loop
      vertex 45.9663 29.5677 116
      vertex 46.4549 20.2447 116
      vertex 46.4549 29.7553 116
    endloop
  endfacet
  facet normal 0 0 1
    outer loop
      vertex 45.9663 29.5677 116
      vertex 45.9663 20.4323 116
      vertex 46.4549 20.2447 116
    endloop
  endfacet
  facet normal -0 0 1
    outer loop
      vertex 45.5 29.3301 116
      vertex 45.9663 20.4323 116
      vertex 45.9663 29.5677 116
    endloop
  endfacet
  facet normal 0 0 1
    outer loop
      vertex 45.5 29.3301 116
      vertex 45.5 20.6699 116
      vertex 45.9663 20.4323 116
    endloop
  endfacet
  facet normal -0 0 1
    outer loop
      vertex 45.0611 29.0451 116
      vertex 45.5 20.6699 116
      vertex 45.5 29.3301 116
    endloop
  endfacet
  facet normal 0 0 1
    outer loop
      vertex 45.0611 29.0451 116
      vertex 45.0611 20.9549 116
      vertex 45.5 20.6699 116
    endloop
  endfacet
  facet normal -0 0 1
    outer loop
      vertex 44.6543 28.7157 116
      vertex 45.0611 20.9549 116
      vertex 45.0611 29.0451 116
    endloop
  endfacet
  facet normal 0 0 1
    outer loop
      vertex 44.6543 28.7157 116
      vertex 44.6543 21.2843 116
      vertex 45.0611 20.9549 116
    endloop
  endfacet
  facet normal -0 0 1
    outer loop
      vertex 44.2843 28.3457 116
      vertex 44.6543 21.2843 116
      vertex 44.6543 28.7157 116
    endloop
  endfacet
  facet normal 0 0 1
    outer loop
      vertex 44.2843 28.3457 116
      vertex 44.2843 21.6543 116
      vertex 44.6543 21.2843 116
    endloop
  endfacet
  facet normal -0 0 1
    outer loop
      vertex 43.9549 27.9389 116
      vertex 44.2843 21.6543 116
      vertex 44.2843 28.3457 116
    endloop
  endfacet
  facet normal 0 0 1
    outer loop
      vertex 43.9549 27.9389 116
      vertex 43.9549 22.0611 116
      vertex 44.2843 21.6543 116
    endloop
  endfacet
  facet normal -0 0 1
    outer loop
      vertex 43.6699 27.5 116
      vertex 43.9549 22.0611 116
      vertex 43.9549 27.9389 116
    endloop
  endfacet
  facet normal 0 0 1
    outer loop
      vertex 43.6699 27.5 116
      vertex 43.6699 22.5 116
      vertex 43.9549 22.0611 116
    endloop
  endfacet
  facet normal -0 0 1
    outer loop
      vertex 43.4323 27.0337 116
      vertex 43.6699 22.5 116
      vertex 43.6699 27.5 116
    endloop
  endfacet
  facet normal 0 0 1
    outer loop
      vertex 43.4323 27.0337 116
      vertex 43.4323 22.9663 116
      vertex 43.6699 22.5 116
    endloop
  endfacet
  facet normal -0 0 1
    outer loop
      vertex 43.2447 26.5451 116
      vertex 43.4323 22.9663 116
      vertex 43.4323 27.0337 116
    endloop
  endfacet
  facet normal 0 0 1
    outer loop
      vertex 43.2447 26.5451 116
      vertex 43.2447 23.4549 116
      vertex 43.4323 22.9663 116
    endloop
  endfacet
  facet normal -0 0 1
    outer loop
      vertex 43.1093 26.0396 116
      vertex 43.2447 23.4549 116
      vertex 43.2447 26.5451 116
    endloop
  endfacet
  facet normal 0 0 1
    outer loop
      vertex 43.1093 26.0396 116
      vertex 43.1093 23.9604 116
      vertex 43.2447 23.4549 116
    endloop
  endfacet
  facet normal -0 0 1
    outer loop
      vertex 43.0274 25.5226 116
      vertex 43.1093 23.9604 116
      vertex 43.1093 26.0396 116
    endloop
  endfacet
  facet normal 0 0 1
    outer loop
      vertex 43.0274 25.5226 116
      vertex 43.0274 24.4774 116
      vertex 43.1093 23.9604 116
    endloop
  endfacet
  facet normal 0 -0 1
    outer loop
      vertex 43.0274 24.4774 116
      vertex 43.0274 25.5226 116
      vertex 43 25 116
    endloop
  endfacet
  facet normal -0.454003 0.891 0
    outer loop
      vertex 45.9663 29.5677 114
      vertex 45.5 29.3301 116
      vertex 45.9663 29.5677 116
    endloop
  endfacet
  facet normal -0.454003 0.891 0
    outer loop
      vertex 45.5 29.3301 116
      vertex 45.9663 29.5677 114
      vertex 45.5 29.3301 114
    endloop
  endfacet
  facet normal -0.358441 0.933552 0
    outer loop
      vertex 46.4549 29.7553 114
      vertex 45.9663 29.5677 116
      vertex 46.4549 29.7553 116
    endloop
  endfacet
  facet normal -0.358441 0.933552 0
    outer loop
      vertex 45.9663 29.5677 116
      vertex 46.4549 29.7553 114
      vertex 45.9663 29.5677 114
    endloop
  endfacet
  facet normal -0.544605 0.838692 0
    outer loop
      vertex 45.5 29.3301 114
      vertex 45.0611 29.0451 116
      vertex 45.5 29.3301 116
    endloop
  endfacet
  facet normal -0.544605 0.838692 0
    outer loop
      vertex 45.0611 29.0451 116
      vertex 45.5 29.3301 114
      vertex 45.0611 29.0451 114
    endloop
  endfacet
  facet normal -0.0523582 0.998628 0
    outer loop
      vertex 48 30 114
      vertex 47.4774 29.9726 116
      vertex 48 30 116
    endloop
  endfacet
  facet normal -0.0523582 0.998628 0
    outer loop
      vertex 47.4774 29.9726 116
      vertex 48 30 114
      vertex 47.4774 29.9726 114
    endloop
  endfacet
  facet normal 0.0523582 -0.998628 0
    outer loop
      vertex 48 20 114
      vertex 48.5226 20.0274 116
      vertex 48 20 116
    endloop
  endfacet
  facet normal 0.0523582 -0.998628 0
    outer loop
      vertex 48.5226 20.0274 116
      vertex 48 20 114
      vertex 48.5226 20.0274 114
    endloop
  endfacet
  facet normal 0.258733 -0.965949 0
    outer loop
      vertex 49.0396 20.1093 114
      vertex 49.5451 20.2447 116
      vertex 49.0396 20.1093 116
    endloop
  endfacet
  facet normal 0.258733 -0.965949 0
    outer loop
      vertex 49.5451 20.2447 116
      vertex 49.0396 20.1093 114
      vertex 49.5451 20.2447 114
    endloop
  endfacet
  facet normal 0.629297 -0.777165 0
    outer loop
      vertex 50.9389 20.9549 114
      vertex 51.3457 21.2843 116
      vertex 50.9389 20.9549 116
    endloop
  endfacet
  facet normal 0.629297 -0.777165 0
    outer loop
      vertex 51.3457 21.2843 116
      vertex 50.9389 20.9549 114
      vertex 51.3457 21.2843 114
    endloop
  endfacet
  facet normal 0.454003 -0.891 0
    outer loop
      vertex 50.0337 20.4323 114
      vertex 50.5 20.6699 116
      vertex 50.0337 20.4323 116
    endloop
  endfacet
  facet normal 0.454003 -0.891 0
    outer loop
      vertex 50.5 20.6699 116
      vertex 50.0337 20.4323 114
      vertex 50.5 20.6699 114
    endloop
  endfacet
  facet normal 0.777165 -0.629297 0
    outer loop
      vertex 51.7157 21.6543 116
      vertex 52.0451 22.0611 114
      vertex 52.0451 22.0611 116
    endloop
  endfacet
  facet normal 0.777165 -0.629297 0
    outer loop
      vertex 52.0451 22.0611 114
      vertex 51.7157 21.6543 116
      vertex 51.7157 21.6543 114
    endloop
  endfacet
  facet normal 0.891 -0.454003 0
    outer loop
      vertex 52.3301 22.5 116
      vertex 52.5677 22.9663 114
      vertex 52.5677 22.9663 116
    endloop
  endfacet
  facet normal 0.891 -0.454003 0
    outer loop
      vertex 52.5677 22.9663 114
      vertex 52.3301 22.5 116
      vertex 52.3301 22.5 114
    endloop
  endfacet
  facet normal -0.707107 -0.707107 0
    outer loop
      vertex 44.6543 21.2843 114
      vertex 44.2843 21.6543 116
      vertex 44.2843 21.6543 114
    endloop
  endfacet
  facet normal -0.707107 -0.707107 0
    outer loop
      vertex 44.2843 21.6543 116
      vertex 44.6543 21.2843 114
      vertex 44.6543 21.2843 116
    endloop
  endfacet
  facet normal -0.544605 -0.838692 0
    outer loop
      vertex 45.0611 20.9549 114
      vertex 45.5 20.6699 116
      vertex 45.0611 20.9549 116
    endloop
  endfacet
  facet normal -0.544605 -0.838692 -0
    outer loop
      vertex 45.5 20.6699 116
      vertex 45.0611 20.9549 114
      vertex 45.5 20.6699 114
    endloop
  endfacet
  facet normal -0.358441 -0.933552 0
    outer loop
      vertex 45.9663 20.4323 114
      vertex 46.4549 20.2447 116
      vertex 45.9663 20.4323 116
    endloop
  endfacet
  facet normal -0.358441 -0.933552 -0
    outer loop
      vertex 46.4549 20.2447 116
      vertex 45.9663 20.4323 114
      vertex 46.4549 20.2447 114
    endloop
  endfacet
  facet normal -0.156463 -0.987684 0
    outer loop
      vertex 46.9604 20.1093 114
      vertex 47.4774 20.0274 116
      vertex 46.9604 20.1093 116
    endloop
  endfacet
  facet normal -0.156463 -0.987684 -0
    outer loop
      vertex 47.4774 20.0274 116
      vertex 46.9604 20.1093 114
      vertex 47.4774 20.0274 114
    endloop
  endfacet
  facet normal -0.933552 -0.358441 0
    outer loop
      vertex 43.4323 22.9663 114
      vertex 43.2447 23.4549 116
      vertex 43.2447 23.4549 114
    endloop
  endfacet
  facet normal -0.933552 -0.358441 0
    outer loop
      vertex 43.2447 23.4549 116
      vertex 43.4323 22.9663 114
      vertex 43.4323 22.9663 116
    endloop
  endfacet
  facet normal -0.838692 -0.544605 0
    outer loop
      vertex 43.9549 22.0611 114
      vertex 43.6699 22.5 116
      vertex 43.6699 22.5 114
    endloop
  endfacet
  facet normal -0.838692 -0.544605 0
    outer loop
      vertex 43.6699 22.5 116
      vertex 43.9549 22.0611 114
      vertex 43.9549 22.0611 116
    endloop
  endfacet
  facet normal -0.965949 -0.258733 0
    outer loop
      vertex 43.2447 23.4549 114
      vertex 43.1093 23.9604 116
      vertex 43.1093 23.9604 114
    endloop
  endfacet
  facet normal -0.965949 -0.258733 0
    outer loop
      vertex 43.1093 23.9604 116
      vertex 43.2447 23.4549 114
      vertex 43.2447 23.4549 116
    endloop
  endfacet
  facet normal 0 0 -1
    outer loop
      vertex 52.9726 24.4774 114
      vertex 52.9726 25.5226 114
      vertex 53 25 114
    endloop
  endfacet
  facet normal 0 0 -1
    outer loop
      vertex 52.8907 23.9604 114
      vertex 52.9726 25.5226 114
      vertex 52.9726 24.4774 114
    endloop
  endfacet
  facet normal 0 0 -1
    outer loop
      vertex 52.8907 23.9604 114
      vertex 52.8907 26.0396 114
      vertex 52.9726 25.5226 114
    endloop
  endfacet
  facet normal 0 0 -1
    outer loop
      vertex 52.7553 23.4549 114
      vertex 52.8907 26.0396 114
      vertex 52.8907 23.9604 114
    endloop
  endfacet
  facet normal 0 0 -1
    outer loop
      vertex 52.7553 23.4549 114
      vertex 52.7553 26.5451 114
      vertex 52.8907 26.0396 114
    endloop
  endfacet
  facet normal 0 0 -1
    outer loop
      vertex 52.5677 22.9663 114
      vertex 52.7553 26.5451 114
      vertex 52.7553 23.4549 114
    endloop
  endfacet
  facet normal 0 0 -1
    outer loop
      vertex 52.5677 22.9663 114
      vertex 52.5677 27.0337 114
      vertex 52.7553 26.5451 114
    endloop
  endfacet
  facet normal 0 0 -1
    outer loop
      vertex 52.3301 22.5 114
      vertex 52.5677 27.0337 114
      vertex 52.5677 22.9663 114
    endloop
  endfacet
  facet normal 0 0 -1
    outer loop
      vertex 52.3301 22.5 114
      vertex 52.3301 27.5 114
      vertex 52.5677 27.0337 114
    endloop
  endfacet
  facet normal 0 0 -1
    outer loop
      vertex 52.0451 22.0611 114
      vertex 52.3301 27.5 114
      vertex 52.3301 22.5 114
    endloop
  endfacet
  facet normal 0 0 -1
    outer loop
      vertex 52.0451 22.0611 114
      vertex 52.0451 27.9389 114
      vertex 52.3301 27.5 114
    endloop
  endfacet
  facet normal 0 0 -1
    outer loop
      vertex 51.7157 21.6543 114
      vertex 52.0451 27.9389 114
      vertex 52.0451 22.0611 114
    endloop
  endfacet
  facet normal 0 0 -1
    outer loop
      vertex 51.7157 21.6543 114
      vertex 51.7157 28.3457 114
      vertex 52.0451 27.9389 114
    endloop
  endfacet
  facet normal 0 0 -1
    outer loop
      vertex 51.3457 21.2843 114
      vertex 51.7157 28.3457 114
      vertex 51.7157 21.6543 114
    endloop
  endfacet
  facet normal 0 0 -1
    outer loop
      vertex 51.3457 21.2843 114
      vertex 51.3457 28.7157 114
      vertex 51.7157 28.3457 114
    endloop
  endfacet
  facet normal 0 0 -1
    outer loop
      vertex 50.9389 20.9549 114
      vertex 51.3457 28.7157 114
      vertex 51.3457 21.2843 114
    endloop
  endfacet
  facet normal 0 0 -1
    outer loop
      vertex 50.9389 20.9549 114
      vertex 50.9389 29.0451 114
      vertex 51.3457 28.7157 114
    endloop
  endfacet
  facet normal 0 0 -1
    outer loop
      vertex 50.5 20.6699 114
      vertex 50.9389 29.0451 114
      vertex 50.9389 20.9549 114
    endloop
  endfacet
  facet normal 0 0 -1
    outer loop
      vertex 50.5 20.6699 114
      vertex 50.5 29.3301 114
      vertex 50.9389 29.0451 114
    endloop
  endfacet
  facet normal 0 0 -1
    outer loop
      vertex 50.0337 20.4323 114
      vertex 50.5 29.3301 114
      vertex 50.5 20.6699 114
    endloop
  endfacet
  facet normal 0 0 -1
    outer loop
      vertex 50.0337 20.4323 114
      vertex 50.0337 29.5677 114
      vertex 50.5 29.3301 114
    endloop
  endfacet
  facet normal 0 0 -1
    outer loop
      vertex 49.5451 20.2447 114
      vertex 50.0337 29.5677 114
      vertex 50.0337 20.4323 114
    endloop
  endfacet
  facet normal 0 0 -1
    outer loop
      vertex 49.5451 20.2447 114
      vertex 49.5451 29.7553 114
      vertex 50.0337 29.5677 114
    endloop
  endfacet
  facet normal 0 0 -1
    outer loop
      vertex 49.0396 20.1093 114
      vertex 49.5451 29.7553 114
      vertex 49.5451 20.2447 114
    endloop
  endfacet
  facet normal 0 0 -1
    outer loop
      vertex 49.0396 20.1093 114
      vertex 49.0396 29.8907 114
      vertex 49.5451 29.7553 114
    endloop
  endfacet
  facet normal 0 0 -1
    outer loop
      vertex 48.5226 20.0274 114
      vertex 49.0396 29.8907 114
      vertex 49.0396 20.1093 114
    endloop
  endfacet
  facet normal 0 0 -1
    outer loop
      vertex 48.5226 20.0274 114
      vertex 48.5226 29.9726 114
      vertex 49.0396 29.8907 114
    endloop
  endfacet
  facet normal 0 0 -1
    outer loop
      vertex 48 20 114
      vertex 48.5226 29.9726 114
      vertex 48.5226 20.0274 114
    endloop
  endfacet
  facet normal 0 0 -1
    outer loop
      vertex 48 20 114
      vertex 48 30 114
      vertex 48.5226 29.9726 114
    endloop
  endfacet
  facet normal 0 0 -1
    outer loop
      vertex 47.4774 20.0274 114
      vertex 48 30 114
      vertex 48 20 114
    endloop
  endfacet
  facet normal 0 0 -1
    outer loop
      vertex 47.4774 20.0274 114
      vertex 47.4774 29.9726 114
      vertex 48 30 114
    endloop
  endfacet
  facet normal 0 0 -1
    outer loop
      vertex 46.9604 20.1093 114
      vertex 47.4774 29.9726 114
      vertex 47.4774 20.0274 114
    endloop
  endfacet
  facet normal 0 0 -1
    outer loop
      vertex 46.9604 20.1093 114
      vertex 46.9604 29.8907 114
      vertex 47.4774 29.9726 114
    endloop
  endfacet
  facet normal 0 0 -1
    outer loop
      vertex 46.4549 20.2447 114
      vertex 46.9604 29.8907 114
      vertex 46.9604 20.1093 114
    endloop
  endfacet
  facet normal 0 0 -1
    outer loop
      vertex 46.4549 20.2447 114
      vertex 46.4549 29.7553 114
      vertex 46.9604 29.8907 114
    endloop
  endfacet
  facet normal 0 0 -1
    outer loop
      vertex 45.9663 20.4323 114
      vertex 46.4549 29.7553 114
      vertex 46.4549 20.2447 114
    endloop
  endfacet
  facet normal 0 0 -1
    outer loop
      vertex 45.9663 20.4323 114
      vertex 45.9663 29.5677 114
      vertex 46.4549 29.7553 114
    endloop
  endfacet
  facet normal 0 0 -1
    outer loop
      vertex 45.5 20.6699 114
      vertex 45.9663 29.5677 114
      vertex 45.9663 20.4323 114
    endloop
  endfacet
  facet normal 0 0 -1
    outer loop
      vertex 45.5 20.6699 114
      vertex 45.5 29.3301 114
      vertex 45.9663 29.5677 114
    endloop
  endfacet
  facet normal 0 0 -1
    outer loop
      vertex 45.0611 20.9549 114
      vertex 45.5 29.3301 114
      vertex 45.5 20.6699 114
    endloop
  endfacet
  facet normal 0 0 -1
    outer loop
      vertex 45.0611 20.9549 114
      vertex 45.0611 29.0451 114
      vertex 45.5 29.3301 114
    endloop
  endfacet
  facet normal 0 0 -1
    outer loop
      vertex 44.6543 21.2843 114
      vertex 45.0611 29.0451 114
      vertex 45.0611 20.9549 114
    endloop
  endfacet
  facet normal 0 0 -1
    outer loop
      vertex 44.6543 21.2843 114
      vertex 44.6543 28.7157 114
      vertex 45.0611 29.0451 114
    endloop
  endfacet
  facet normal 0 0 -1
    outer loop
      vertex 44.2843 21.6543 114
      vertex 44.6543 28.7157 114
      vertex 44.6543 21.2843 114
    endloop
  endfacet
  facet normal 0 0 -1
    outer loop
      vertex 44.2843 21.6543 114
      vertex 44.2843 28.3457 114
      vertex 44.6543 28.7157 114
    endloop
  endfacet
  facet normal 0 0 -1
    outer loop
      vertex 43.9549 22.0611 114
      vertex 44.2843 28.3457 114
      vertex 44.2843 21.6543 114
    endloop
  endfacet
  facet normal 0 0 -1
    outer loop
      vertex 43.9549 22.0611 114
      vertex 43.9549 27.9389 114
      vertex 44.2843 28.3457 114
    endloop
  endfacet
  facet normal 0 0 -1
    outer loop
      vertex 43.6699 22.5 114
      vertex 43.9549 27.9389 114
      vertex 43.9549 22.0611 114
    endloop
  endfacet
  facet normal 0 0 -1
    outer loop
      vertex 43.6699 22.5 114
      vertex 43.6699 27.5 114
      vertex 43.9549 27.9389 114
    endloop
  endfacet
  facet normal 0 0 -1
    outer loop
      vertex 43.4323 22.9663 114
      vertex 43.6699 27.5 114
      vertex 43.6699 22.5 114
    endloop
  endfacet
  facet normal 0 0 -1
    outer loop
      vertex 43.4323 22.9663 114
      vertex 43.4323 27.0337 114
      vertex 43.6699 27.5 114
    endloop
  endfacet
  facet normal 0 0 -1
    outer loop
      vertex 43.2447 23.4549 114
      vertex 43.4323 27.0337 114
      vertex 43.4323 22.9663 114
    endloop
  endfacet
  facet normal 0 0 -1
    outer loop
      vertex 43.2447 23.4549 114
      vertex 43.2447 26.5451 114
      vertex 43.4323 27.0337 114
    endloop
  endfacet
  facet normal 0 0 -1
    outer loop
      vertex 43.1093 23.9604 114
      vertex 43.2447 26.5451 114
      vertex 43.2447 23.4549 114
    endloop
  endfacet
  facet normal 0 0 -1
    outer loop
      vertex 43.1093 23.9604 114
      vertex 43.1093 26.0396 114
      vertex 43.2447 26.5451 114
    endloop
  endfacet
  facet normal 0 0 -1
    outer loop
      vertex 43.0274 24.4774 114
      vertex 43.1093 26.0396 114
      vertex 43.1093 23.9604 114
    endloop
  endfacet
  facet normal 0 0 -1
    outer loop
      vertex 43.0274 24.4774 114
      vertex 43.0274 25.5226 114
      vertex 43.1093 26.0396 114
    endloop
  endfacet
  facet normal 0 -0 -1
    outer loop
      vertex 43.0274 25.5226 114
      vertex 43.0274 24.4774 114
      vertex 43 25 114
    endloop
  endfacet
  facet normal -0.987684 -0.156463 0
    outer loop
      vertex 43.1093 23.9604 114
      vertex 43.0274 24.4774 116
      vertex 43.0274 24.4774 114
    endloop
  endfacet
  facet normal -0.987684 -0.156463 0
    outer loop
      vertex 43.0274 24.4774 116
      vertex 43.1093 23.9604 114
      vertex 43.1093 23.9604 116
    endloop
  endfacet
  facet normal 0.156463 -0.987684 0
    outer loop
      vertex 48.5226 20.0274 114
      vertex 49.0396 20.1093 116
      vertex 48.5226 20.0274 116
    endloop
  endfacet
  facet normal 0.156463 -0.987684 0
    outer loop
      vertex 49.0396 20.1093 116
      vertex 48.5226 20.0274 114
      vertex 49.0396 20.1093 114
    endloop
  endfacet
  facet normal 0.358441 -0.933552 0
    outer loop
      vertex 49.5451 20.2447 114
      vertex 50.0337 20.4323 116
      vertex 49.5451 20.2447 116
    endloop
  endfacet
  facet normal 0.358441 -0.933552 0
    outer loop
      vertex 50.0337 20.4323 116
      vertex 49.5451 20.2447 114
      vertex 50.0337 20.4323 114
    endloop
  endfacet
  facet normal 0.707107 -0.707107 0
    outer loop
      vertex 51.3457 21.2843 116
      vertex 51.7157 21.6543 114
      vertex 51.7157 21.6543 116
    endloop
  endfacet
  facet normal 0.707107 -0.707107 0
    outer loop
      vertex 51.7157 21.6543 114
      vertex 51.3457 21.2843 116
      vertex 51.3457 21.2843 114
    endloop
  endfacet
  facet normal 0.544605 -0.838692 0
    outer loop
      vertex 50.5 20.6699 114
      vertex 50.9389 20.9549 116
      vertex 50.5 20.6699 116
    endloop
  endfacet
  facet normal 0.544605 -0.838692 0
    outer loop
      vertex 50.9389 20.9549 116
      vertex 50.5 20.6699 114
      vertex 50.9389 20.9549 114
    endloop
  endfacet
  facet normal 0.838692 -0.544605 0
    outer loop
      vertex 52.0451 22.0611 116
      vertex 52.3301 22.5 114
      vertex 52.3301 22.5 116
    endloop
  endfacet
  facet normal 0.838692 -0.544605 0
    outer loop
      vertex 52.3301 22.5 114
      vertex 52.0451 22.0611 116
      vertex 52.0451 22.0611 114
    endloop
  endfacet
  facet normal 0.987684 -0.156463 0
    outer loop
      vertex 52.8907 23.9604 116
      vertex 52.9726 24.4774 114
      vertex 52.9726 24.4774 116
    endloop
  endfacet
  facet normal 0.987684 -0.156463 0
    outer loop
      vertex 52.9726 24.4774 114
      vertex 52.8907 23.9604 116
      vertex 52.8907 23.9604 114
    endloop
  endfacet
  facet normal 0.998628 -0.0523582 0
    outer loop
      vertex 52.9726 24.4774 116
      vertex 53 25 114
      vertex 53 25 116
    endloop
  endfacet
  facet normal 0.998628 -0.0523582 0
    outer loop
      vertex 53 25 114
      vertex 52.9726 24.4774 116
      vertex 52.9726 24.4774 114
    endloop
  endfacet
  facet normal -0.629297 -0.777165 0
    outer loop
      vertex 44.6543 21.2843 114
      vertex 45.0611 20.9549 116
      vertex 44.6543 21.2843 116
    endloop
  endfacet
  facet normal -0.629297 -0.777165 -0
    outer loop
      vertex 45.0611 20.9549 116
      vertex 44.6543 21.2843 114
      vertex 45.0611 20.9549 114
    endloop
  endfacet
  facet normal -0.454003 -0.891 0
    outer loop
      vertex 45.5 20.6699 114
      vertex 45.9663 20.4323 116
      vertex 45.5 20.6699 116
    endloop
  endfacet
  facet normal -0.454003 -0.891 -0
    outer loop
      vertex 45.9663 20.4323 116
      vertex 45.5 20.6699 114
      vertex 45.9663 20.4323 114
    endloop
  endfacet
  facet normal -0.258733 -0.965949 0
    outer loop
      vertex 46.4549 20.2447 114
      vertex 46.9604 20.1093 116
      vertex 46.4549 20.2447 116
    endloop
  endfacet
  facet normal -0.258733 -0.965949 -0
    outer loop
      vertex 46.9604 20.1093 116
      vertex 46.4549 20.2447 114
      vertex 46.9604 20.1093 114
    endloop
  endfacet
  facet normal -0.0523582 -0.998628 0
    outer loop
      vertex 47.4774 20.0274 114
      vertex 48 20 116
      vertex 47.4774 20.0274 116
    endloop
  endfacet
  facet normal -0.0523582 -0.998628 -0
    outer loop
      vertex 48 20 116
      vertex 47.4774 20.0274 114
      vertex 48 20 114
    endloop
  endfacet
  facet normal -0.891 -0.454003 0
    outer loop
      vertex 43.6699 22.5 114
      vertex 43.4323 22.9663 116
      vertex 43.4323 22.9663 114
    endloop
  endfacet
  facet normal -0.891 -0.454003 0
    outer loop
      vertex 43.4323 22.9663 116
      vertex 43.6699 22.5 114
      vertex 43.6699 22.5 116
    endloop
  endfacet
  facet normal -0.777165 -0.629297 0
    outer loop
      vertex 44.2843 21.6543 114
      vertex 43.9549 22.0611 116
      vertex 43.9549 22.0611 114
    endloop
  endfacet
  facet normal -0.777165 -0.629297 0
    outer loop
      vertex 43.9549 22.0611 116
      vertex 44.2843 21.6543 114
      vertex 44.2843 21.6543 116
    endloop
  endfacet
  facet normal 0.0521518 -0.992956 -0.106388
    outer loop
      vertex 48.2875 22.2651 113.5
      vertex 48 22.25 113.5
      vertex 48 23 106.5
    endloop
  endfacet
  facet normal 0.992956 0.0521518 -0.106388
    outer loop
      vertex 50.75 25 113.5
      vertex 50 25 106.5
      vertex 50.7349 25.2875 113.5
    endloop
  endfacet
  facet normal 0.992951 0.0522356 -0.106391
    outer loop
      vertex 50 25 106.5
      vertex 49.989 25.2091 106.5
      vertex 50.7349 25.2875 113.5
    endloop
  endfacet
  facet normal 0.992951 -0.0522356 -0.106391
    outer loop
      vertex 50.7349 24.7125 113.5
      vertex 49.989 24.7909 106.5
      vertex 50 25 106.5
    endloop
  endfacet
  facet normal -0.992951 -0.0522356 -0.106391
    outer loop
      vertex 46.011 24.7909 106.5
      vertex 45.2651 24.7125 113.5
      vertex 46 25 106.5
    endloop
  endfacet
  facet normal -0.992951 0.0522356 -0.106391
    outer loop
      vertex 46 25 106.5
      vertex 45.2651 25.2875 113.5
      vertex 46.011 25.2091 106.5
    endloop
  endfacet
  facet normal 0.703094 -0.703094 -0.106378
    outer loop
      vertex 50.0436 23.1599 113.5
      vertex 49.3383 23.5137 106.5
      vertex 49.4863 23.6617 106.5
    endloop
  endfacet
  facet normal 0.703094 -0.703094 -0.106378
    outer loop
      vertex 49.3383 23.5137 106.5
      vertex 50.0436 23.1599 113.5
      vertex 49.8401 22.9564 113.5
    endloop
  endfacet
  facet normal 0.982098 -0.15545 -0.106388
    outer loop
      vertex 50.6899 24.4282 113.5
      vertex 49.9563 24.5842 106.5
      vertex 50.7349 24.7125 113.5
    endloop
  endfacet
  facet normal 0.833989 -0.541428 -0.106389
    outer loop
      vertex 50.2248 23.3836 113.5
      vertex 49.618 23.8244 106.5
      vertex 49.732 24 106.5
    endloop
  endfacet
  facet normal 0.625856 -0.772649 -0.106389
    outer loop
      vertex 49.6164 22.7752 113.5
      vertex 49.1756 23.382 106.5
      vertex 49.8401 22.9564 113.5
    endloop
  endfacet
  facet normal 0.356502 -0.928217 -0.106391
    outer loop
      vertex 48.8498 22.3846 113.5
      vertex 48.618 23.0979 106.5
      vertex 49.1185 22.4878 113.5
    endloop
  endfacet
  facet normal 0.451158 -0.886079 -0.106397
    outer loop
      vertex 49.1185 22.4878 113.5
      vertex 49 23.268 106.5
      vertex 49.375 22.6184 113.5
    endloop
  endfacet
  facet normal 0.541428 -0.833989 -0.106389
    outer loop
      vertex 49.6164 22.7752 113.5
      vertex 49 23.268 106.5
      vertex 49.1756 23.382 106.5
    endloop
  endfacet
  facet normal -0.0522356 -0.992951 -0.106391
    outer loop
      vertex 48 23 106.5
      vertex 47.7125 22.2651 113.5
      vertex 47.7909 23.011 106.5
    endloop
  endfacet
  facet normal -0.982098 -0.15545 -0.106388
    outer loop
      vertex 45.3101 24.4282 113.5
      vertex 45.2651 24.7125 113.5
      vertex 46.0437 24.5842 106.5
    endloop
  endfacet
  facet normal -0.625856 -0.772649 -0.106389
    outer loop
      vertex 46.3836 22.7752 113.5
      vertex 46.1599 22.9564 113.5
      vertex 46.8244 23.382 106.5
    endloop
  endfacet
  facet normal -0.0522356 0.992951 -0.106391
    outer loop
      vertex 47.7909 26.989 106.5
      vertex 47.7125 27.7349 113.5
      vertex 48 27 106.5
    endloop
  endfacet
  facet normal -0.833858 0.541628 -0.106398
    outer loop
      vertex 46.268 26 106.5
      vertex 45.6184 26.375 113.5
      vertex 45.7752 26.6164 113.5
    endloop
  endfacet
  facet normal 0.928355 -0.356147 -0.106377
    outer loop
      vertex 50.5122 23.8815 113.5
      vertex 49.8271 24.1865 106.5
      vertex 49.9021 24.382 106.5
    endloop
  endfacet
  facet normal 0.992956 -0.0521518 -0.106388
    outer loop
      vertex 50.7349 24.7125 113.5
      vertex 50 25 106.5
      vertex 50.75 25 113.5
    endloop
  endfacet
  facet normal 0.88581 -0.451692 -0.106376
    outer loop
      vertex 50.5122 23.8815 113.5
      vertex 49.732 24 106.5
      vertex 49.8271 24.1865 106.5
    endloop
  endfacet
  facet normal 0.257383 -0.960435 -0.10639
    outer loop
      vertex 48.5718 22.3101 113.5
      vertex 48.4158 23.0437 106.5
      vertex 48.8498 22.3846 113.5
    endloop
  endfacet
  facet normal 0.257442 -0.960419 -0.106392
    outer loop
      vertex 48.8498 22.3846 113.5
      vertex 48.4158 23.0437 106.5
      vertex 48.618 23.0979 106.5
    endloop
  endfacet
  facet normal 0.541628 -0.833858 -0.106398
    outer loop
      vertex 49.375 22.6184 113.5
      vertex 49 23.268 106.5
      vertex 49.6164 22.7752 113.5
    endloop
  endfacet
  facet normal -0.886079 -0.451158 -0.106397
    outer loop
      vertex 45.6184 23.625 113.5
      vertex 45.4878 23.8815 113.5
      vertex 46.268 24 106.5
    endloop
  endfacet
  facet normal -0.833858 -0.541628 -0.106398
    outer loop
      vertex 45.7752 23.3836 113.5
      vertex 45.6184 23.625 113.5
      vertex 46.268 24 106.5
    endloop
  endfacet
  facet normal -0.356502 -0.928217 -0.106391
    outer loop
      vertex 47.1502 22.3846 113.5
      vertex 46.8815 22.4878 113.5
      vertex 47.382 23.0979 106.5
    endloop
  endfacet
  facet normal 0.541628 0.833858 -0.106398
    outer loop
      vertex 49.6164 27.2248 113.5
      vertex 49 26.732 106.5
      vertex 49.375 27.3816 113.5
    endloop
  endfacet
  facet normal -0.541428 0.833989 -0.106389
    outer loop
      vertex 46.8244 26.618 106.5
      vertex 46.3836 27.2248 113.5
      vertex 47 26.732 106.5
    endloop
  endfacet
  facet normal -0.257442 0.960419 -0.106392
    outer loop
      vertex 47.382 26.9021 106.5
      vertex 47.1502 27.6154 113.5
      vertex 47.5842 26.9563 106.5
    endloop
  endfacet
  facet normal -0.960435 0.257383 -0.10639
    outer loop
      vertex 46.0437 25.4158 106.5
      vertex 45.3101 25.5718 113.5
      vertex 45.3846 25.8498 113.5
    endloop
  endfacet
  facet normal 0 0 1
    outer loop
      vertex 50.7349 25.2875 113.5
      vertex 50.7349 24.7125 113.5
      vertex 50.75 25 113.5
    endloop
  endfacet
  facet normal 0 0 1
    outer loop
      vertex 50.6899 25.5718 113.5
      vertex 50.7349 24.7125 113.5
      vertex 50.7349 25.2875 113.5
    endloop
  endfacet
  facet normal 0 0 1
    outer loop
      vertex 50.6899 25.5718 113.5
      vertex 50.6899 24.4282 113.5
      vertex 50.7349 24.7125 113.5
    endloop
  endfacet
  facet normal 0 0 1
    outer loop
      vertex 50.6154 25.8498 113.5
      vertex 50.6899 24.4282 113.5
      vertex 50.6899 25.5718 113.5
    endloop
  endfacet
  facet normal 0 0 1
    outer loop
      vertex 50.6154 25.8498 113.5
      vertex 50.6154 24.1502 113.5
      vertex 50.6899 24.4282 113.5
    endloop
  endfacet
  facet normal 0 0 1
    outer loop
      vertex 50.5122 26.1185 113.5
      vertex 50.6154 24.1502 113.5
      vertex 50.6154 25.8498 113.5
    endloop
  endfacet
  facet normal 0 0 1
    outer loop
      vertex 50.5122 26.1185 113.5
      vertex 50.5122 23.8815 113.5
      vertex 50.6154 24.1502 113.5
    endloop
  endfacet
  facet normal 0 0 1
    outer loop
      vertex 50.3816 26.375 113.5
      vertex 50.5122 23.8815 113.5
      vertex 50.5122 26.1185 113.5
    endloop
  endfacet
  facet normal 0 0 1
    outer loop
      vertex 50.3816 26.375 113.5
      vertex 50.3816 23.625 113.5
      vertex 50.5122 23.8815 113.5
    endloop
  endfacet
  facet normal 0 0 1
    outer loop
      vertex 50.2248 26.6164 113.5
      vertex 50.3816 23.625 113.5
      vertex 50.3816 26.375 113.5
    endloop
  endfacet
  facet normal 0 0 1
    outer loop
      vertex 50.2248 26.6164 113.5
      vertex 50.2248 23.3836 113.5
      vertex 50.3816 23.625 113.5
    endloop
  endfacet
  facet normal 0 0 1
    outer loop
      vertex 50.0436 26.8401 113.5
      vertex 50.2248 23.3836 113.5
      vertex 50.2248 26.6164 113.5
    endloop
  endfacet
  facet normal 0 0 1
    outer loop
      vertex 50.0436 26.8401 113.5
      vertex 50.0436 23.1599 113.5
      vertex 50.2248 23.3836 113.5
    endloop
  endfacet
  facet normal 0 0 1
    outer loop
      vertex 49.8401 27.0436 113.5
      vertex 50.0436 23.1599 113.5
      vertex 50.0436 26.8401 113.5
    endloop
  endfacet
  facet normal 0 0 1
    outer loop
      vertex 49.8401 27.0436 113.5
      vertex 49.8401 22.9564 113.5
      vertex 50.0436 23.1599 113.5
    endloop
  endfacet
  facet normal 0 0 1
    outer loop
      vertex 49.6164 27.2248 113.5
      vertex 49.8401 22.9564 113.5
      vertex 49.8401 27.0436 113.5
    endloop
  endfacet
  facet normal 0 0 1
    outer loop
      vertex 49.6164 27.2248 113.5
      vertex 49.6164 22.7752 113.5
      vertex 49.8401 22.9564 113.5
    endloop
  endfacet
  facet normal 0 0 1
    outer loop
      vertex 49.375 27.3816 113.5
      vertex 49.6164 22.7752 113.5
      vertex 49.6164 27.2248 113.5
    endloop
  endfacet
  facet normal 0 0 1
    outer loop
      vertex 49.375 27.3816 113.5
      vertex 49.375 22.6184 113.5
      vertex 49.6164 22.7752 113.5
    endloop
  endfacet
  facet normal 0 0 1
    outer loop
      vertex 49.1185 27.5122 113.5
      vertex 49.375 22.6184 113.5
      vertex 49.375 27.3816 113.5
    endloop
  endfacet
  facet normal 0 0 1
    outer loop
      vertex 49.1185 27.5122 113.5
      vertex 49.1185 22.4878 113.5
      vertex 49.375 22.6184 113.5
    endloop
  endfacet
  facet normal 0 0 1
    outer loop
      vertex 48.8498 27.6154 113.5
      vertex 49.1185 22.4878 113.5
      vertex 49.1185 27.5122 113.5
    endloop
  endfacet
  facet normal 0 0 1
    outer loop
      vertex 48.8498 27.6154 113.5
      vertex 48.8498 22.3846 113.5
      vertex 49.1185 22.4878 113.5
    endloop
  endfacet
  facet normal 0 0 1
    outer loop
      vertex 48.5718 27.6899 113.5
      vertex 48.8498 22.3846 113.5
      vertex 48.8498 27.6154 113.5
    endloop
  endfacet
  facet normal 0 0 1
    outer loop
      vertex 48.5718 27.6899 113.5
      vertex 48.5718 22.3101 113.5
      vertex 48.8498 22.3846 113.5
    endloop
  endfacet
  facet normal 0 0 1
    outer loop
      vertex 48.2875 27.7349 113.5
      vertex 48.5718 22.3101 113.5
      vertex 48.5718 27.6899 113.5
    endloop
  endfacet
  facet normal 0 0 1
    outer loop
      vertex 48.2875 27.7349 113.5
      vertex 48.2875 22.2651 113.5
      vertex 48.5718 22.3101 113.5
    endloop
  endfacet
  facet normal 0 0 1
    outer loop
      vertex 48 27.75 113.5
      vertex 48.2875 22.2651 113.5
      vertex 48.2875 27.7349 113.5
    endloop
  endfacet
  facet normal 0 0 1
    outer loop
      vertex 48 27.75 113.5
      vertex 48 22.25 113.5
      vertex 48.2875 22.2651 113.5
    endloop
  endfacet
  facet normal -0 0 1
    outer loop
      vertex 47.7125 27.7349 113.5
      vertex 48 22.25 113.5
      vertex 48 27.75 113.5
    endloop
  endfacet
  facet normal 0 0 1
    outer loop
      vertex 47.7125 27.7349 113.5
      vertex 47.7125 22.2651 113.5
      vertex 48 22.25 113.5
    endloop
  endfacet
  facet normal -0 0 1
    outer loop
      vertex 47.4282 27.6899 113.5
      vertex 47.7125 22.2651 113.5
      vertex 47.7125 27.7349 113.5
    endloop
  endfacet
  facet normal 0 0 1
    outer loop
      vertex 47.4282 27.6899 113.5
      vertex 47.4282 22.3101 113.5
      vertex 47.7125 22.2651 113.5
    endloop
  endfacet
  facet normal -0 0 1
    outer loop
      vertex 47.1502 27.6154 113.5
      vertex 47.4282 22.3101 113.5
      vertex 47.4282 27.6899 113.5
    endloop
  endfacet
  facet normal 0 0 1
    outer loop
      vertex 47.1502 27.6154 113.5
      vertex 47.1502 22.3846 113.5
      vertex 47.4282 22.3101 113.5
    endloop
  endfacet
  facet normal -0 0 1
    outer loop
      vertex 46.8815 27.5122 113.5
      vertex 47.1502 22.3846 113.5
      vertex 47.1502 27.6154 113.5
    endloop
  endfacet
  facet normal 0 0 1
    outer loop
      vertex 46.8815 27.5122 113.5
      vertex 46.8815 22.4878 113.5
      vertex 47.1502 22.3846 113.5
    endloop
  endfacet
  facet normal -0 0 1
    outer loop
      vertex 46.625 27.3816 113.5
      vertex 46.8815 22.4878 113.5
      vertex 46.8815 27.5122 113.5
    endloop
  endfacet
  facet normal 0 0 1
    outer loop
      vertex 46.625 27.3816 113.5
      vertex 46.625 22.6184 113.5
      vertex 46.8815 22.4878 113.5
    endloop
  endfacet
  facet normal -0 0 1
    outer loop
      vertex 46.3836 27.2248 113.5
      vertex 46.625 22.6184 113.5
      vertex 46.625 27.3816 113.5
    endloop
  endfacet
  facet normal 0 0 1
    outer loop
      vertex 46.3836 27.2248 113.5
      vertex 46.3836 22.7752 113.5
      vertex 46.625 22.6184 113.5
    endloop
  endfacet
  facet normal -0 0 1
    outer loop
      vertex 46.1599 27.0436 113.5
      vertex 46.3836 22.7752 113.5
      vertex 46.3836 27.2248 113.5
    endloop
  endfacet
  facet normal 0 0 1
    outer loop
      vertex 46.1599 27.0436 113.5
      vertex 46.1599 22.9564 113.5
      vertex 46.3836 22.7752 113.5
    endloop
  endfacet
  facet normal -0 0 1
    outer loop
      vertex 45.9564 26.8401 113.5
      vertex 46.1599 22.9564 113.5
      vertex 46.1599 27.0436 113.5
    endloop
  endfacet
  facet normal 0 0 1
    outer loop
      vertex 45.9564 26.8401 113.5
      vertex 45.9564 23.1599 113.5
      vertex 46.1599 22.9564 113.5
    endloop
  endfacet
  facet normal -0 0 1
    outer loop
      vertex 45.7752 26.6164 113.5
      vertex 45.9564 23.1599 113.5
      vertex 45.9564 26.8401 113.5
    endloop
  endfacet
  facet normal 0 0 1
    outer loop
      vertex 45.7752 26.6164 113.5
      vertex 45.7752 23.3836 113.5
      vertex 45.9564 23.1599 113.5
    endloop
  endfacet
  facet normal -0 0 1
    outer loop
      vertex 45.6184 26.375 113.5
      vertex 45.7752 23.3836 113.5
      vertex 45.7752 26.6164 113.5
    endloop
  endfacet
  facet normal 0 0 1
    outer loop
      vertex 45.6184 26.375 113.5
      vertex 45.6184 23.625 113.5
      vertex 45.7752 23.3836 113.5
    endloop
  endfacet
  facet normal -0 0 1
    outer loop
      vertex 45.4878 26.1185 113.5
      vertex 45.6184 23.625 113.5
      vertex 45.6184 26.375 113.5
    endloop
  endfacet
  facet normal 0 0 1
    outer loop
      vertex 45.4878 26.1185 113.5
      vertex 45.4878 23.8815 113.5
      vertex 45.6184 23.625 113.5
    endloop
  endfacet
  facet normal -0 0 1
    outer loop
      vertex 45.3846 25.8498 113.5
      vertex 45.4878 23.8815 113.5
      vertex 45.4878 26.1185 113.5
    endloop
  endfacet
  facet normal 0 0 1
    outer loop
      vertex 45.3846 25.8498 113.5
      vertex 45.3846 24.1502 113.5
      vertex 45.4878 23.8815 113.5
    endloop
  endfacet
  facet normal -0 0 1
    outer loop
      vertex 45.3101 25.5718 113.5
      vertex 45.3846 24.1502 113.5
      vertex 45.3846 25.8498 113.5
    endloop
  endfacet
  facet normal 0 0 1
    outer loop
      vertex 45.3101 25.5718 113.5
      vertex 45.3101 24.4282 113.5
      vertex 45.3846 24.1502 113.5
    endloop
  endfacet
  facet normal -0 0 1
    outer loop
      vertex 45.2651 25.2875 113.5
      vertex 45.3101 24.4282 113.5
      vertex 45.3101 25.5718 113.5
    endloop
  endfacet
  facet normal 0 0 1
    outer loop
      vertex 45.2651 25.2875 113.5
      vertex 45.2651 24.7125 113.5
      vertex 45.3101 24.4282 113.5
    endloop
  endfacet
  facet normal 0 -0 1
    outer loop
      vertex 45.2651 24.7125 113.5
      vertex 45.2651 25.2875 113.5
      vertex 45.25 25 113.5
    endloop
  endfacet
  facet normal 0.982111 -0.15537 -0.106391
    outer loop
      vertex 50.7349 24.7125 113.5
      vertex 49.9563 24.5842 106.5
      vertex 49.989 24.7909 106.5
    endloop
  endfacet
  facet normal 0.960435 -0.257383 -0.10639
    outer loop
      vertex 50.6154 24.1502 113.5
      vertex 49.9563 24.5842 106.5
      vertex 50.6899 24.4282 113.5
    endloop
  endfacet
  facet normal 0.772649 -0.625856 -0.106389
    outer loop
      vertex 50.0436 23.1599 113.5
      vertex 49.618 23.8244 106.5
      vertex 50.2248 23.3836 113.5
    endloop
  endfacet
  facet normal 0.833858 -0.541628 -0.106398
    outer loop
      vertex 50.2248 23.3836 113.5
      vertex 49.732 24 106.5
      vertex 50.3816 23.625 113.5
    endloop
  endfacet
  facet normal 0.886079 -0.451158 -0.106397
    outer loop
      vertex 50.3816 23.625 113.5
      vertex 49.732 24 106.5
      vertex 50.5122 23.8815 113.5
    endloop
  endfacet
  facet normal 0.15545 -0.982098 -0.106388
    outer loop
      vertex 48.5718 22.3101 113.5
      vertex 48.2875 22.2651 113.5
      vertex 48.4158 23.0437 106.5
    endloop
  endfacet
  facet normal 0.451692 -0.88581 -0.106376
    outer loop
      vertex 49.1185 22.4878 113.5
      vertex 48.8135 23.1729 106.5
      vertex 49 23.268 106.5
    endloop
  endfacet
  facet normal -0.960419 -0.257442 -0.106392
    outer loop
      vertex 46.0979 24.382 106.5
      vertex 45.3846 24.1502 113.5
      vertex 46.0437 24.5842 106.5
    endloop
  endfacet
  facet normal -0.928217 -0.356502 -0.106391
    outer loop
      vertex 45.4878 23.8815 113.5
      vertex 45.3846 24.1502 113.5
      vertex 46.0979 24.382 106.5
    endloop
  endfacet
  facet normal -0.772649 -0.625856 -0.106389
    outer loop
      vertex 45.9564 23.1599 113.5
      vertex 45.7752 23.3836 113.5
      vertex 46.382 23.8244 106.5
    endloop
  endfacet
  facet normal -0.541428 -0.833989 -0.106389
    outer loop
      vertex 47 23.268 106.5
      vertex 46.3836 22.7752 113.5
      vertex 46.8244 23.382 106.5
    endloop
  endfacet
  facet normal -0.15545 -0.982098 -0.106388
    outer loop
      vertex 47.7125 22.2651 113.5
      vertex 47.4282 22.3101 113.5
      vertex 47.5842 23.0437 106.5
    endloop
  endfacet
  facet normal -0.0521518 -0.992956 -0.106388
    outer loop
      vertex 48 22.25 113.5
      vertex 47.7125 22.2651 113.5
      vertex 48 23 106.5
    endloop
  endfacet
  facet normal 0.15545 0.982098 -0.106388
    outer loop
      vertex 48.4158 26.9563 106.5
      vertex 48.2875 27.7349 113.5
      vertex 48.5718 27.6899 113.5
    endloop
  endfacet
  facet normal -0.928217 0.356502 -0.106391
    outer loop
      vertex 46.0979 25.618 106.5
      vertex 45.3846 25.8498 113.5
      vertex 45.4878 26.1185 113.5
    endloop
  endfacet
  facet normal -0.451692 0.88581 -0.106376
    outer loop
      vertex 47 26.732 106.5
      vertex 46.8815 27.5122 113.5
      vertex 47.1865 26.8271 106.5
    endloop
  endfacet
  facet normal -0.451158 0.886079 -0.106397
    outer loop
      vertex 47 26.732 106.5
      vertex 46.625 27.3816 113.5
      vertex 46.8815 27.5122 113.5
    endloop
  endfacet
  facet normal -0.992956 0.0521518 -0.106388
    outer loop
      vertex 46 25 106.5
      vertex 45.25 25 113.5
      vertex 45.2651 25.2875 113.5
    endloop
  endfacet
  facet normal -0.992956 -0.0521518 -0.106388
    outer loop
      vertex 45.2651 24.7125 113.5
      vertex 45.25 25 113.5
      vertex 46 25 106.5
    endloop
  endfacet
  facet normal 0.960419 -0.257442 -0.106392
    outer loop
      vertex 50.6154 24.1502 113.5
      vertex 49.9021 24.382 106.5
      vertex 49.9563 24.5842 106.5
    endloop
  endfacet
  facet normal 0.928217 -0.356502 -0.106391
    outer loop
      vertex 50.5122 23.8815 113.5
      vertex 49.9021 24.382 106.5
      vertex 50.6154 24.1502 113.5
    endloop
  endfacet
  facet normal 0.772857 -0.625601 -0.106377
    outer loop
      vertex 50.0436 23.1599 113.5
      vertex 49.4863 23.6617 106.5
      vertex 49.618 23.8244 106.5
    endloop
  endfacet
  facet normal 0.356147 -0.928355 -0.106377
    outer loop
      vertex 49.1185 22.4878 113.5
      vertex 48.618 23.0979 106.5
      vertex 48.8135 23.1729 106.5
    endloop
  endfacet
  facet normal 0.15537 -0.982111 -0.106391
    outer loop
      vertex 48.2875 22.2651 113.5
      vertex 48.2091 23.011 106.5
      vertex 48.4158 23.0437 106.5
    endloop
  endfacet
  facet normal 0.0522356 -0.992951 -0.106391
    outer loop
      vertex 48.2875 22.2651 113.5
      vertex 48 23 106.5
      vertex 48.2091 23.011 106.5
    endloop
  endfacet
  facet normal 0.625601 -0.772857 -0.106377
    outer loop
      vertex 49.8401 22.9564 113.5
      vertex 49.1756 23.382 106.5
      vertex 49.3383 23.5137 106.5
    endloop
  endfacet
  facet normal 0 0 -1
    outer loop
      vertex 49.989 24.7909 106.5
      vertex 49.989 25.2091 106.5
      vertex 50 25 106.5
    endloop
  endfacet
  facet normal 0 0 -1
    outer loop
      vertex 49.9563 24.5842 106.5
      vertex 49.989 25.2091 106.5
      vertex 49.989 24.7909 106.5
    endloop
  endfacet
  facet normal 0 0 -1
    outer loop
      vertex 49.9563 24.5842 106.5
      vertex 49.9563 25.4158 106.5
      vertex 49.989 25.2091 106.5
    endloop
  endfacet
  facet normal 0 0 -1
    outer loop
      vertex 49.9021 24.382 106.5
      vertex 49.9563 25.4158 106.5
      vertex 49.9563 24.5842 106.5
    endloop
  endfacet
  facet normal 0 0 -1
    outer loop
      vertex 49.9021 24.382 106.5
      vertex 49.9021 25.618 106.5
      vertex 49.9563 25.4158 106.5
    endloop
  endfacet
  facet normal 0 0 -1
    outer loop
      vertex 49.8271 24.1865 106.5
      vertex 49.9021 25.618 106.5
      vertex 49.9021 24.382 106.5
    endloop
  endfacet
  facet normal 0 0 -1
    outer loop
      vertex 49.8271 24.1865 106.5
      vertex 49.8271 25.8135 106.5
      vertex 49.9021 25.618 106.5
    endloop
  endfacet
  facet normal 0 0 -1
    outer loop
      vertex 49.732 24 106.5
      vertex 49.8271 25.8135 106.5
      vertex 49.8271 24.1865 106.5
    endloop
  endfacet
  facet normal 0 0 -1
    outer loop
      vertex 49.732 24 106.5
      vertex 49.732 26 106.5
      vertex 49.8271 25.8135 106.5
    endloop
  endfacet
  facet normal 0 0 -1
    outer loop
      vertex 49.618 23.8244 106.5
      vertex 49.732 26 106.5
      vertex 49.732 24 106.5
    endloop
  endfacet
  facet normal 0 0 -1
    outer loop
      vertex 49.618 23.8244 106.5
      vertex 49.618 26.1756 106.5
      vertex 49.732 26 106.5
    endloop
  endfacet
  facet normal 0 0 -1
    outer loop
      vertex 49.4863 23.6617 106.5
      vertex 49.618 26.1756 106.5
      vertex 49.618 23.8244 106.5
    endloop
  endfacet
  facet normal 0 0 -1
    outer loop
      vertex 49.4863 23.6617 106.5
      vertex 49.4863 26.3383 106.5
      vertex 49.618 26.1756 106.5
    endloop
  endfacet
  facet normal 0 0 -1
    outer loop
      vertex 49.3383 23.5137 106.5
      vertex 49.4863 26.3383 106.5
      vertex 49.4863 23.6617 106.5
    endloop
  endfacet
  facet normal 0 0 -1
    outer loop
      vertex 49.3383 23.5137 106.5
      vertex 49.3383 26.4863 106.5
      vertex 49.4863 26.3383 106.5
    endloop
  endfacet
  facet normal 0 0 -1
    outer loop
      vertex 49.1756 23.382 106.5
      vertex 49.3383 26.4863 106.5
      vertex 49.3383 23.5137 106.5
    endloop
  endfacet
  facet normal 0 0 -1
    outer loop
      vertex 49.1756 23.382 106.5
      vertex 49.1756 26.618 106.5
      vertex 49.3383 26.4863 106.5
    endloop
  endfacet
  facet normal 0 0 -1
    outer loop
      vertex 49 23.268 106.5
      vertex 49.1756 26.618 106.5
      vertex 49.1756 23.382 106.5
    endloop
  endfacet
  facet normal 0 0 -1
    outer loop
      vertex 49 23.268 106.5
      vertex 49 26.732 106.5
      vertex 49.1756 26.618 106.5
    endloop
  endfacet
  facet normal 0 0 -1
    outer loop
      vertex 48.8135 23.1729 106.5
      vertex 49 26.732 106.5
      vertex 49 23.268 106.5
    endloop
  endfacet
  facet normal 0 0 -1
    outer loop
      vertex 48.8135 23.1729 106.5
      vertex 48.8135 26.8271 106.5
      vertex 49 26.732 106.5
    endloop
  endfacet
  facet normal 0 0 -1
    outer loop
      vertex 48.618 23.0979 106.5
      vertex 48.8135 26.8271 106.5
      vertex 48.8135 23.1729 106.5
    endloop
  endfacet
  facet normal 0 0 -1
    outer loop
      vertex 48.618 23.0979 106.5
      vertex 48.618 26.9021 106.5
      vertex 48.8135 26.8271 106.5
    endloop
  endfacet
  facet normal 0 0 -1
    outer loop
      vertex 48.4158 23.0437 106.5
      vertex 48.618 26.9021 106.5
      vertex 48.618 23.0979 106.5
    endloop
  endfacet
  facet normal 0 0 -1
    outer loop
      vertex 48.4158 23.0437 106.5
      vertex 48.4158 26.9563 106.5
      vertex 48.618 26.9021 106.5
    endloop
  endfacet
  facet normal 0 0 -1
    outer loop
      vertex 48.2091 23.011 106.5
      vertex 48.4158 26.9563 106.5
      vertex 48.4158 23.0437 106.5
    endloop
  endfacet
  facet normal 0 0 -1
    outer loop
      vertex 48.2091 23.011 106.5
      vertex 48.2091 26.989 106.5
      vertex 48.4158 26.9563 106.5
    endloop
  endfacet
  facet normal 0 0 -1
    outer loop
      vertex 48 23 106.5
      vertex 48.2091 26.989 106.5
      vertex 48.2091 23.011 106.5
    endloop
  endfacet
  facet normal 0 0 -1
    outer loop
      vertex 48 23 106.5
      vertex 48 27 106.5
      vertex 48.2091 26.989 106.5
    endloop
  endfacet
  facet normal 0 0 -1
    outer loop
      vertex 47.7909 23.011 106.5
      vertex 48 27 106.5
      vertex 48 23 106.5
    endloop
  endfacet
  facet normal 0 0 -1
    outer loop
      vertex 47.7909 23.011 106.5
      vertex 47.7909 26.989 106.5
      vertex 48 27 106.5
    endloop
  endfacet
  facet normal 0 0 -1
    outer loop
      vertex 47.5842 23.0437 106.5
      vertex 47.7909 26.989 106.5
      vertex 47.7909 23.011 106.5
    endloop
  endfacet
  facet normal 0 0 -1
    outer loop
      vertex 47.5842 23.0437 106.5
      vertex 47.5842 26.9563 106.5
      vertex 47.7909 26.989 106.5
    endloop
  endfacet
  facet normal 0 0 -1
    outer loop
      vertex 47.382 23.0979 106.5
      vertex 47.5842 26.9563 106.5
      vertex 47.5842 23.0437 106.5
    endloop
  endfacet
  facet normal 0 0 -1
    outer loop
      vertex 47.382 23.0979 106.5
      vertex 47.382 26.9021 106.5
      vertex 47.5842 26.9563 106.5
    endloop
  endfacet
  facet normal 0 0 -1
    outer loop
      vertex 47.1865 23.1729 106.5
      vertex 47.382 26.9021 106.5
      vertex 47.382 23.0979 106.5
    endloop
  endfacet
  facet normal 0 0 -1
    outer loop
      vertex 47.1865 23.1729 106.5
      vertex 47.1865 26.8271 106.5
      vertex 47.382 26.9021 106.5
    endloop
  endfacet
  facet normal 0 0 -1
    outer loop
      vertex 47 23.268 106.5
      vertex 47.1865 26.8271 106.5
      vertex 47.1865 23.1729 106.5
    endloop
  endfacet
  facet normal 0 0 -1
    outer loop
      vertex 47 23.268 106.5
      vertex 47 26.732 106.5
      vertex 47.1865 26.8271 106.5
    endloop
  endfacet
  facet normal 0 0 -1
    outer loop
      vertex 46.8244 23.382 106.5
      vertex 47 26.732 106.5
      vertex 47 23.268 106.5
    endloop
  endfacet
  facet normal 0 0 -1
    outer loop
      vertex 46.8244 23.382 106.5
      vertex 46.8244 26.618 106.5
      vertex 47 26.732 106.5
    endloop
  endfacet
  facet normal 0 0 -1
    outer loop
      vertex 46.6617 23.5137 106.5
      vertex 46.8244 26.618 106.5
      vertex 46.8244 23.382 106.5
    endloop
  endfacet
  facet normal 0 0 -1
    outer loop
      vertex 46.6617 23.5137 106.5
      vertex 46.6617 26.4863 106.5
      vertex 46.8244 26.618 106.5
    endloop
  endfacet
  facet normal 0 0 -1
    outer loop
      vertex 46.5137 23.6617 106.5
      vertex 46.6617 26.4863 106.5
      vertex 46.6617 23.5137 106.5
    endloop
  endfacet
  facet normal 0 0 -1
    outer loop
      vertex 46.5137 23.6617 106.5
      vertex 46.5137 26.3383 106.5
      vertex 46.6617 26.4863 106.5
    endloop
  endfacet
  facet normal 0 0 -1
    outer loop
      vertex 46.382 23.8244 106.5
      vertex 46.5137 26.3383 106.5
      vertex 46.5137 23.6617 106.5
    endloop
  endfacet
  facet normal 0 0 -1
    outer loop
      vertex 46.382 23.8244 106.5
      vertex 46.382 26.1756 106.5
      vertex 46.5137 26.3383 106.5
    endloop
  endfacet
  facet normal 0 0 -1
    outer loop
      vertex 46.268 24 106.5
      vertex 46.382 26.1756 106.5
      vertex 46.382 23.8244 106.5
    endloop
  endfacet
  facet normal 0 0 -1
    outer loop
      vertex 46.268 24 106.5
      vertex 46.268 26 106.5
      vertex 46.382 26.1756 106.5
    endloop
  endfacet
  facet normal 0 0 -1
    outer loop
      vertex 46.1729 24.1865 106.5
      vertex 46.268 26 106.5
      vertex 46.268 24 106.5
    endloop
  endfacet
  facet normal 0 0 -1
    outer loop
      vertex 46.1729 24.1865 106.5
      vertex 46.1729 25.8135 106.5
      vertex 46.268 26 106.5
    endloop
  endfacet
  facet normal 0 0 -1
    outer loop
      vertex 46.0979 24.382 106.5
      vertex 46.1729 25.8135 106.5
      vertex 46.1729 24.1865 106.5
    endloop
  endfacet
  facet normal 0 0 -1
    outer loop
      vertex 46.0979 24.382 106.5
      vertex 46.0979 25.618 106.5
      vertex 46.1729 25.8135 106.5
    endloop
  endfacet
  facet normal 0 0 -1
    outer loop
      vertex 46.0437 24.5842 106.5
      vertex 46.0979 25.618 106.5
      vertex 46.0979 24.382 106.5
    endloop
  endfacet
  facet normal 0 0 -1
    outer loop
      vertex 46.0437 24.5842 106.5
      vertex 46.0437 25.4158 106.5
      vertex 46.0979 25.618 106.5
    endloop
  endfacet
  facet normal 0 0 -1
    outer loop
      vertex 46.011 24.7909 106.5
      vertex 46.0437 25.4158 106.5
      vertex 46.0437 24.5842 106.5
    endloop
  endfacet
  facet normal 0 0 -1
    outer loop
      vertex 46.011 24.7909 106.5
      vertex 46.011 25.2091 106.5
      vertex 46.0437 25.4158 106.5
    endloop
  endfacet
  facet normal 0 -0 -1
    outer loop
      vertex 46.011 25.2091 106.5
      vertex 46.011 24.7909 106.5
      vertex 46 25 106.5
    endloop
  endfacet
  facet normal -0.982111 -0.15537 -0.106391
    outer loop
      vertex 46.0437 24.5842 106.5
      vertex 45.2651 24.7125 113.5
      vertex 46.011 24.7909 106.5
    endloop
  endfacet
  facet normal -0.960435 -0.257383 -0.10639
    outer loop
      vertex 45.3846 24.1502 113.5
      vertex 45.3101 24.4282 113.5
      vertex 46.0437 24.5842 106.5
    endloop
  endfacet
  facet normal -0.928355 -0.356147 -0.106377
    outer loop
      vertex 46.1729 24.1865 106.5
      vertex 45.4878 23.8815 113.5
      vertex 46.0979 24.382 106.5
    endloop
  endfacet
  facet normal -0.88581 -0.451692 -0.106376
    outer loop
      vertex 46.268 24 106.5
      vertex 45.4878 23.8815 113.5
      vertex 46.1729 24.1865 106.5
    endloop
  endfacet
  facet normal -0.257383 -0.960435 -0.10639
    outer loop
      vertex 47.4282 22.3101 113.5
      vertex 47.1502 22.3846 113.5
      vertex 47.5842 23.0437 106.5
    endloop
  endfacet
  facet normal -0.451692 -0.88581 -0.106376
    outer loop
      vertex 47.1865 23.1729 106.5
      vertex 46.8815 22.4878 113.5
      vertex 47 23.268 106.5
    endloop
  endfacet
  facet normal -0.257442 -0.960419 -0.106392
    outer loop
      vertex 47.5842 23.0437 106.5
      vertex 47.1502 22.3846 113.5
      vertex 47.382 23.0979 106.5
    endloop
  endfacet
  facet normal 0.833989 0.541428 -0.106389
    outer loop
      vertex 49.732 26 106.5
      vertex 49.618 26.1756 106.5
      vertex 50.2248 26.6164 113.5
    endloop
  endfacet
  facet normal 0.886079 0.451158 -0.106397
    outer loop
      vertex 50.5122 26.1185 113.5
      vertex 49.732 26 106.5
      vertex 50.3816 26.375 113.5
    endloop
  endfacet
  facet normal 0.356502 0.928217 -0.106391
    outer loop
      vertex 49.1185 27.5122 113.5
      vertex 48.618 26.9021 106.5
      vertex 48.8498 27.6154 113.5
    endloop
  endfacet
  facet normal 0.541428 0.833989 -0.106389
    outer loop
      vertex 49.1756 26.618 106.5
      vertex 49 26.732 106.5
      vertex 49.6164 27.2248 113.5
    endloop
  endfacet
  facet normal 0.0521518 0.992956 -0.106388
    outer loop
      vertex 48.2875 27.7349 113.5
      vertex 48 27 106.5
      vertex 48 27.75 113.5
    endloop
  endfacet
  facet normal -0.0521518 0.992956 -0.106388
    outer loop
      vertex 48 27 106.5
      vertex 47.7125 27.7349 113.5
      vertex 48 27.75 113.5
    endloop
  endfacet
  facet normal -0.960419 0.257442 -0.106392
    outer loop
      vertex 46.0437 25.4158 106.5
      vertex 45.3846 25.8498 113.5
      vertex 46.0979 25.618 106.5
    endloop
  endfacet
  facet normal -0.886079 0.451158 -0.106397
    outer loop
      vertex 46.268 26 106.5
      vertex 45.4878 26.1185 113.5
      vertex 45.6184 26.375 113.5
    endloop
  endfacet
  facet normal -0.928355 0.356147 -0.106377
    outer loop
      vertex 46.0979 25.618 106.5
      vertex 45.4878 26.1185 113.5
      vertex 46.1729 25.8135 106.5
    endloop
  endfacet
  facet normal -0.88581 0.451692 -0.106376
    outer loop
      vertex 46.1729 25.8135 106.5
      vertex 45.4878 26.1185 113.5
      vertex 46.268 26 106.5
    endloop
  endfacet
  facet normal -0.833989 0.541428 -0.106389
    outer loop
      vertex 46.268 26 106.5
      vertex 45.7752 26.6164 113.5
      vertex 46.382 26.1756 106.5
    endloop
  endfacet
  facet normal -0.15537 0.982111 -0.106391
    outer loop
      vertex 47.7909 26.989 106.5
      vertex 47.5842 26.9563 106.5
      vertex 47.7125 27.7349 113.5
    endloop
  endfacet
  facet normal -0.356502 0.928217 -0.106391
    outer loop
      vertex 47.382 26.9021 106.5
      vertex 46.8815 27.5122 113.5
      vertex 47.1502 27.6154 113.5
    endloop
  endfacet
  facet normal -0.356147 0.928355 -0.106377
    outer loop
      vertex 47.1865 26.8271 106.5
      vertex 46.8815 27.5122 113.5
      vertex 47.382 26.9021 106.5
    endloop
  endfacet
  facet normal -0.833989 -0.541428 -0.106389
    outer loop
      vertex 46.382 23.8244 106.5
      vertex 45.7752 23.3836 113.5
      vertex 46.268 24 106.5
    endloop
  endfacet
  facet normal -0.703094 -0.703094 -0.106378
    outer loop
      vertex 46.6617 23.5137 106.5
      vertex 45.9564 23.1599 113.5
      vertex 46.5137 23.6617 106.5
    endloop
  endfacet
  facet normal -0.703094 -0.703094 -0.106378
    outer loop
      vertex 45.9564 23.1599 113.5
      vertex 46.6617 23.5137 106.5
      vertex 46.1599 22.9564 113.5
    endloop
  endfacet
  facet normal -0.772857 -0.625601 -0.106377
    outer loop
      vertex 46.5137 23.6617 106.5
      vertex 45.9564 23.1599 113.5
      vertex 46.382 23.8244 106.5
    endloop
  endfacet
  facet normal -0.625601 -0.772857 -0.106377
    outer loop
      vertex 46.8244 23.382 106.5
      vertex 46.1599 22.9564 113.5
      vertex 46.6617 23.5137 106.5
    endloop
  endfacet
  facet normal -0.541628 -0.833858 -0.106398
    outer loop
      vertex 46.625 22.6184 113.5
      vertex 46.3836 22.7752 113.5
      vertex 47 23.268 106.5
    endloop
  endfacet
  facet normal -0.451158 -0.886079 -0.106397
    outer loop
      vertex 46.8815 22.4878 113.5
      vertex 46.625 22.6184 113.5
      vertex 47 23.268 106.5
    endloop
  endfacet
  facet normal -0.356147 -0.928355 -0.106377
    outer loop
      vertex 47.382 23.0979 106.5
      vertex 46.8815 22.4878 113.5
      vertex 47.1865 23.1729 106.5
    endloop
  endfacet
  facet normal -0.15537 -0.982111 -0.106391
    outer loop
      vertex 47.7125 22.2651 113.5
      vertex 47.5842 23.0437 106.5
      vertex 47.7909 23.011 106.5
    endloop
  endfacet
  facet normal 0.833858 0.541628 -0.106398
    outer loop
      vertex 50.3816 26.375 113.5
      vertex 49.732 26 106.5
      vertex 50.2248 26.6164 113.5
    endloop
  endfacet
  facet normal 0.625601 0.772857 -0.106377
    outer loop
      vertex 49.3383 26.4863 106.5
      vertex 49.1756 26.618 106.5
      vertex 49.8401 27.0436 113.5
    endloop
  endfacet
  facet normal 0.625856 0.772649 -0.106389
    outer loop
      vertex 49.8401 27.0436 113.5
      vertex 49.1756 26.618 106.5
      vertex 49.6164 27.2248 113.5
    endloop
  endfacet
  facet normal 0.960419 0.257442 -0.106392
    outer loop
      vertex 49.9563 25.4158 106.5
      vertex 49.9021 25.618 106.5
      vertex 50.6154 25.8498 113.5
    endloop
  endfacet
  facet normal 0.257442 0.960419 -0.106392
    outer loop
      vertex 48.618 26.9021 106.5
      vertex 48.4158 26.9563 106.5
      vertex 48.8498 27.6154 113.5
    endloop
  endfacet
  facet normal 0.451158 0.886079 -0.106397
    outer loop
      vertex 49.375 27.3816 113.5
      vertex 49 26.732 106.5
      vertex 49.1185 27.5122 113.5
    endloop
  endfacet
  facet normal 0.356147 0.928355 -0.106377
    outer loop
      vertex 48.8135 26.8271 106.5
      vertex 48.618 26.9021 106.5
      vertex 49.1185 27.5122 113.5
    endloop
  endfacet
  facet normal 0.451692 0.88581 -0.106376
    outer loop
      vertex 49 26.732 106.5
      vertex 48.8135 26.8271 106.5
      vertex 49.1185 27.5122 113.5
    endloop
  endfacet
  facet normal -0.982111 0.15537 -0.106391
    outer loop
      vertex 46.011 25.2091 106.5
      vertex 45.2651 25.2875 113.5
      vertex 46.0437 25.4158 106.5
    endloop
  endfacet
  facet normal -0.982098 0.15545 -0.106388
    outer loop
      vertex 46.0437 25.4158 106.5
      vertex 45.2651 25.2875 113.5
      vertex 45.3101 25.5718 113.5
    endloop
  endfacet
  facet normal -0.541628 0.833858 -0.106398
    outer loop
      vertex 47 26.732 106.5
      vertex 46.3836 27.2248 113.5
      vertex 46.625 27.3816 113.5
    endloop
  endfacet
  facet normal -0.703094 0.703094 -0.106378
    outer loop
      vertex 46.6617 26.4863 106.5
      vertex 45.9564 26.8401 113.5
      vertex 46.1599 27.0436 113.5
    endloop
  endfacet
  facet normal -0.703094 0.703094 -0.106378
    outer loop
      vertex 45.9564 26.8401 113.5
      vertex 46.6617 26.4863 106.5
      vertex 46.5137 26.3383 106.5
    endloop
  endfacet
  facet normal -0.772649 0.625856 -0.106389
    outer loop
      vertex 46.382 26.1756 106.5
      vertex 45.7752 26.6164 113.5
      vertex 45.9564 26.8401 113.5
    endloop
  endfacet
  facet normal -0.15545 0.982098 -0.106388
    outer loop
      vertex 47.5842 26.9563 106.5
      vertex 47.4282 27.6899 113.5
      vertex 47.7125 27.7349 113.5
    endloop
  endfacet
  facet normal -0.257383 0.960435 -0.10639
    outer loop
      vertex 47.5842 26.9563 106.5
      vertex 47.1502 27.6154 113.5
      vertex 47.4282 27.6899 113.5
    endloop
  endfacet
  facet normal 0.772649 0.625856 -0.106389
    outer loop
      vertex 50.2248 26.6164 113.5
      vertex 49.618 26.1756 106.5
      vertex 50.0436 26.8401 113.5
    endloop
  endfacet
  facet normal 0.928217 0.356502 -0.106391
    outer loop
      vertex 50.6154 25.8498 113.5
      vertex 49.9021 25.618 106.5
      vertex 50.5122 26.1185 113.5
    endloop
  endfacet
  facet normal 0.982098 0.15545 -0.106388
    outer loop
      vertex 50.7349 25.2875 113.5
      vertex 49.9563 25.4158 106.5
      vertex 50.6899 25.5718 113.5
    endloop
  endfacet
  facet normal 0.960435 0.257383 -0.10639
    outer loop
      vertex 50.6899 25.5718 113.5
      vertex 49.9563 25.4158 106.5
      vertex 50.6154 25.8498 113.5
    endloop
  endfacet
  facet normal 0.0522356 0.992951 -0.106391
    outer loop
      vertex 48.2091 26.989 106.5
      vertex 48 27 106.5
      vertex 48.2875 27.7349 113.5
    endloop
  endfacet
  facet normal 0.15537 0.982111 -0.106391
    outer loop
      vertex 48.4158 26.9563 106.5
      vertex 48.2091 26.989 106.5
      vertex 48.2875 27.7349 113.5
    endloop
  endfacet
  facet normal 0.257383 0.960435 -0.10639
    outer loop
      vertex 48.8498 27.6154 113.5
      vertex 48.4158 26.9563 106.5
      vertex 48.5718 27.6899 113.5
    endloop
  endfacet
  facet normal -0.625601 0.772857 -0.106377
    outer loop
      vertex 46.6617 26.4863 106.5
      vertex 46.1599 27.0436 113.5
      vertex 46.8244 26.618 106.5
    endloop
  endfacet
  facet normal -0.625856 0.772649 -0.106389
    outer loop
      vertex 46.8244 26.618 106.5
      vertex 46.1599 27.0436 113.5
      vertex 46.3836 27.2248 113.5
    endloop
  endfacet
  facet normal -0.772857 0.625601 -0.106377
    outer loop
      vertex 46.382 26.1756 106.5
      vertex 45.9564 26.8401 113.5
      vertex 46.5137 26.3383 106.5
    endloop
  endfacet
  facet normal 0.703094 0.703094 -0.106378
    outer loop
      vertex 50.0436 26.8401 113.5
      vertex 49.3383 26.4863 106.5
      vertex 49.8401 27.0436 113.5
    endloop
  endfacet
  facet normal 0.703094 0.703094 -0.106378
    outer loop
      vertex 49.3383 26.4863 106.5
      vertex 50.0436 26.8401 113.5
      vertex 49.4863 26.3383 106.5
    endloop
  endfacet
  facet normal 0.772857 0.625601 -0.106377
    outer loop
      vertex 49.618 26.1756 106.5
      vertex 49.4863 26.3383 106.5
      vertex 50.0436 26.8401 113.5
    endloop
  endfacet
  facet normal 0.88581 0.451692 -0.106376
    outer loop
      vertex 49.8271 25.8135 106.5
      vertex 49.732 26 106.5
      vertex 50.5122 26.1185 113.5
    endloop
  endfacet
  facet normal 0.928355 0.356147 -0.106377
    outer loop
      vertex 49.9021 25.618 106.5
      vertex 49.8271 25.8135 106.5
      vertex 50.5122 26.1185 113.5
    endloop
  endfacet
  facet normal 0.982111 0.15537 -0.106391
    outer loop
      vertex 49.989 25.2091 106.5
      vertex 49.9563 25.4158 106.5
      vertex 50.7349 25.2875 113.5
    endloop
  endfacet
endsolid OpenSCAD_Model
