999
"DXF R12 Output" (www.mydxf.blogspot.com)
 0 
SECTION
 2 
HEADER
 9 
$ACADVER
 1 
AC1009
 9 
$EXTMIN
 10 
 0 
 20 
 0 
 9 
$EXTMAX
 10 
 8.5 
 20 
 11 
 0 
ENDSEC
 0 
SECTION
 2 
ENTITIES
0
LINE
8
Layer 1
10
141.111000
20
641.209000
11
205.279000
21
590.409000
0
LINE
8
Layer 1
10
205.279000
20
590.409000
11
221.322000
21
567.832000
0
LINE
8
Layer 1
10
221.322000
20
567.832000
11
237.364000
21
539.609000
0
LINE
8
Layer 1
10
237.364000
20
539.609000
11
242.711000
21
505.743000
0
LINE
8
Layer 1
10
242.711000
20
505.743000
11
242.711000
21
466.232000
0
LINE
8
Layer 1
10
242.711000
20
466.232000
11
232.016000
21
432.365000
0
LINE
8
Layer 1
10
232.016000
20
432.365000
11
237.364000
21
398.498000
0
LINE
8
Layer 1
10
237.364000
20
398.498000
11
242.711000
21
358.987000
0
LINE
8
Layer 1
10
242.711000
20
358.987000
11
242.711000
21
336.410000
0
LINE
8
Layer 1
10
242.711000
20
336.410000
11
141.111000
21
336.410000
0
LINE
8
Layer 1
10
141.111000
20
336.410000
11
141.111000
21
641.209000
0
LINE
8
Layer 1
10
141.111000
20
641.209000
11
141.111000
21
641.209000
0
LINE
8
Layer 1
10
437.757000
20
573.476000
11
392.602000
21
562.187000
0
LINE
8
Layer 1
10
392.602000
20
562.187000
11
397.620000
21
517.032000
0
LINE
8
Layer 1
10
397.620000
20
517.032000
11
402.638000
21
488.809000
0
LINE
8
Layer 1
10
402.638000
20
488.809000
11
387.584000
21
477.521000
0
LINE
8
Layer 1
10
387.584000
20
477.521000
11
372.533000
21
336.410000
0
LINE
8
Layer 1
10
372.533000
20
336.410000
11
462.844000
21
336.410000
0
LINE
8
Layer 1
10
462.844000
20
336.410000
11
427.724000
21
528.320000
0
LINE
8
Layer 1
10
427.724000
20
528.320000
11
437.757000
21
573.476000
0
LINE
8
Layer 1
10
437.757000
20
573.476000
11
437.757000
21
573.476000
0
LINE
8
Layer 1
10
705.555000
20
641.209000
11
630.126000
21
573.476000
0
LINE
8
Layer 1
10
630.126000
20
573.476000
11
619.350000
21
556.543000
0
LINE
8
Layer 1
10
619.350000
20
556.543000
11
592.409000
21
517.032000
0
LINE
8
Layer 1
10
592.409000
20
517.032000
11
587.022000
21
477.521000
0
LINE
8
Layer 1
10
587.022000
20
477.521000
11
592.409000
21
415.432000
0
LINE
8
Layer 1
10
592.409000
20
415.432000
11
603.185000
21
336.410000
0
LINE
8
Layer 1
10
603.185000
20
336.410000
11
705.555000
21
336.410000
0
LINE
8
Layer 1
10
705.555000
20
336.410000
11
705.555000
21
641.209000
0
LINE
8
Layer 1
10
705.555000
20
641.209000
11
705.555000
21
641.209000
 0 
ENDSEC
 0 
EOF