solid OpenSCAD_Model
  facet normal -1 0 0
    outer loop
      vertex -10 -22.25 -5
      vertex -10 -27.75 -5
      vertex -10 -22.25 -2.5
    endloop
  endfacet
  facet normal -1 0 0
    outer loop
      vertex -10 27.75 -5
      vertex -10 22.25 -5
      vertex -10 27.75 -2.5
    endloop
  endfacet
  facet normal -1 0 0
    outer loop
      vertex -10 27.75 -2.5
      vertex -10 35 2.5
      vertex -10 35 -2.5
    endloop
  endfacet
  facet normal -1 0 0
    outer loop
      vertex -10 22.25 -2.5
      vertex -10 27.75 -2.5
      vertex -10 22.25 -5
    endloop
  endfacet
  facet normal -1 0 0
    outer loop
      vertex -10 27.75 -2.5
      vertex -10 22.25 -2.5
      vertex -10 35 2.5
    endloop
  endfacet
  facet normal -1 0 0
    outer loop
      vertex -10 -22.25 -2.5
      vertex -10 35 2.5
      vertex -10 22.25 -2.5
    endloop
  endfacet
  facet normal -1 0 0
    outer loop
      vertex -10 -27.75 -2.5
      vertex -10 -22.25 -2.5
      vertex -10 -27.75 -5
    endloop
  endfacet
  facet normal -1 0 0
    outer loop
      vertex -10 -35 2.5
      vertex -10 -22.25 -2.5
      vertex -10 -27.75 -2.5
    endloop
  endfacet
  facet normal -1 0 0
    outer loop
      vertex -10 -35 2.5
      vertex -10 -27.75 -2.5
      vertex -10 -35 -2.5
    endloop
  endfacet
  facet normal -1 0 0
    outer loop
      vertex -10 -22.25 -2.5
      vertex -10 -35 2.5
      vertex -10 35 2.5
    endloop
  endfacet
  facet normal -0 0 1
    outer loop
      vertex -10 35 2.5
      vertex 10 -35 2.5
      vertex 10 35 2.5
    endloop
  endfacet
  facet normal 0 0 1
    outer loop
      vertex 10 -35 2.5
      vertex -10 35 2.5
      vertex -10 -35 2.5
    endloop
  endfacet
  facet normal 1 0 0
    outer loop
      vertex 10 35 2.5
      vertex 10 27.75 -2.5
      vertex 10 35 -2.5
    endloop
  endfacet
  facet normal 1 0 0
    outer loop
      vertex 10 27.75 -2.5
      vertex 10 22.25 -2.5
      vertex 10 27.75 -5
    endloop
  endfacet
  facet normal 1 0 0
    outer loop
      vertex 10 35 2.5
      vertex 10 22.25 -2.5
      vertex 10 27.75 -2.5
    endloop
  endfacet
  facet normal 1 0 0
    outer loop
      vertex 10 35 2.5
      vertex 10 -22.25 -2.5
      vertex 10 22.25 -2.5
    endloop
  endfacet
  facet normal 1 0 0
    outer loop
      vertex 10 -22.25 -2.5
      vertex 10 -27.75 -2.5
      vertex 10 -22.25 -5
    endloop
  endfacet
  facet normal 1 -0 0
    outer loop
      vertex 10 -35 2.5
      vertex 10 -22.25 -2.5
      vertex 10 35 2.5
    endloop
  endfacet
  facet normal 1 0 0
    outer loop
      vertex 10 -22.25 -2.5
      vertex 10 -35 2.5
      vertex 10 -27.75 -2.5
    endloop
  endfacet
  facet normal 1 0 0
    outer loop
      vertex 10 -27.75 -2.5
      vertex 10 -35 2.5
      vertex 10 -35 -2.5
    endloop
  endfacet
  facet normal 1 0 0
    outer loop
      vertex 10 27.75 -5
      vertex 10 22.25 -2.5
      vertex 10 22.25 -5
    endloop
  endfacet
  facet normal 1 0 0
    outer loop
      vertex 10 -22.25 -5
      vertex 10 -27.75 -2.5
      vertex 10 -27.75 -5
    endloop
  endfacet
  facet normal 0 1 -0
    outer loop
      vertex 10 35 -2.5
      vertex -10 35 2.5
      vertex 10 35 2.5
    endloop
  endfacet
  facet normal 0 1 0
    outer loop
      vertex -10 35 2.5
      vertex 10 35 -2.5
      vertex -10 35 -2.5
    endloop
  endfacet
  facet normal 0 0 -1
    outer loop
      vertex -10 -35 -2.5
      vertex 10 -27.75 -2.5
      vertex 10 -35 -2.5
    endloop
  endfacet
  facet normal -0 0 -1
    outer loop
      vertex 10 -27.75 -2.5
      vertex -10 -35 -2.5
      vertex -10 -27.75 -2.5
    endloop
  endfacet
  facet normal 0 0 -1
    outer loop
      vertex -10 -22.25 -2.5
      vertex 10 22.25 -2.5
      vertex 10 -22.25 -2.5
    endloop
  endfacet
  facet normal -0 0 -1
    outer loop
      vertex 10 22.25 -2.5
      vertex -10 -22.25 -2.5
      vertex -10 22.25 -2.5
    endloop
  endfacet
  facet normal 0 0 -1
    outer loop
      vertex -10 27.75 -2.5
      vertex 10 35 -2.5
      vertex 10 27.75 -2.5
    endloop
  endfacet
  facet normal -0 0 -1
    outer loop
      vertex 10 35 -2.5
      vertex -10 27.75 -2.5
      vertex -10 35 -2.5
    endloop
  endfacet
  facet normal 0 -1 0
    outer loop
      vertex -10 -35 -2.5
      vertex 10 -35 2.5
      vertex -10 -35 2.5
    endloop
  endfacet
  facet normal 0 -1 -0
    outer loop
      vertex 10 -35 2.5
      vertex -10 -35 -2.5
      vertex 10 -35 -2.5
    endloop
  endfacet
  facet normal 0 1 -0
    outer loop
      vertex 10 27.75 -5
      vertex -10 27.75 -2.5
      vertex 10 27.75 -2.5
    endloop
  endfacet
  facet normal 0 1 0
    outer loop
      vertex -10 27.75 -2.5
      vertex 10 27.75 -5
      vertex -10 27.75 -5
    endloop
  endfacet
  facet normal 0 0 -1
    outer loop
      vertex -10 22.25 -5
      vertex 10 27.75 -5
      vertex 10 22.25 -5
    endloop
  endfacet
  facet normal -0 0 -1
    outer loop
      vertex 10 27.75 -5
      vertex -10 22.25 -5
      vertex -10 27.75 -5
    endloop
  endfacet
  facet normal 0 -1 0
    outer loop
      vertex -10 22.25 -5
      vertex 10 22.25 -2.5
      vertex -10 22.25 -2.5
    endloop
  endfacet
  facet normal 0 -1 -0
    outer loop
      vertex 10 22.25 -2.5
      vertex -10 22.25 -5
      vertex 10 22.25 -5
    endloop
  endfacet
  facet normal 0 0 -1
    outer loop
      vertex -10 -27.75 -5
      vertex 10 -22.25 -5
      vertex 10 -27.75 -5
    endloop
  endfacet
  facet normal -0 0 -1
    outer loop
      vertex 10 -22.25 -5
      vertex -10 -27.75 -5
      vertex -10 -22.25 -5
    endloop
  endfacet
  facet normal 0 -1 0
    outer loop
      vertex -10 -27.75 -5
      vertex 10 -27.75 -2.5
      vertex -10 -27.75 -2.5
    endloop
  endfacet
  facet normal 0 -1 -0
    outer loop
      vertex 10 -27.75 -2.5
      vertex -10 -27.75 -5
      vertex 10 -27.75 -5
    endloop
  endfacet
  facet normal 0 1 -0
    outer loop
      vertex 10 -22.25 -5
      vertex -10 -22.25 -2.5
      vertex 10 -22.25 -2.5
    endloop
  endfacet
  facet normal 0 1 0
    outer loop
      vertex -10 -22.25 -2.5
      vertex 10 -22.25 -5
      vertex -10 -22.25 -5
    endloop
  endfacet
endsolid OpenSCAD_Model
