solid OpenSCAD_Model
  facet normal 0.998629 0.0523381 0
    outer loop
      vertex 6 0 2.5
      vertex 5.96713 0.627171 -2.5
      vertex 5.96713 0.627171 2.5
    endloop
  endfacet
  facet normal 0.998629 0.0523381 0
    outer loop
      vertex 5.96713 0.627171 -2.5
      vertex 6 0 2.5
      vertex 6 0 -2.5
    endloop
  endfacet
  facet normal -0.998629 0.0523381 0
    outer loop
      vertex -6 0 -2.5
      vertex -5.96713 0.627171 2.5
      vertex -5.96713 0.627171 -2.5
    endloop
  endfacet
  facet normal -0.998629 0.0523381 0
    outer loop
      vertex -5.96713 0.627171 2.5
      vertex -6 0 -2.5
      vertex -6 0 2.5
    endloop
  endfacet
  facet normal 0.0523381 0.998629 -0
    outer loop
      vertex 0.627171 5.96713 -2.5
      vertex 0 6 2.5
      vertex 0.627171 5.96713 2.5
    endloop
  endfacet
  facet normal 0.0523381 0.998629 0
    outer loop
      vertex 0 6 2.5
      vertex 0.627171 5.96713 -2.5
      vertex 0 6 -2.5
    endloop
  endfacet
  facet normal -0.0523381 -0.998629 0
    outer loop
      vertex -0.627171 -5.96713 -2.5
      vertex 0 -6 2.5
      vertex -0.627171 -5.96713 2.5
    endloop
  endfacet
  facet normal -0.0523381 -0.998629 -0
    outer loop
      vertex 0 -6 2.5
      vertex -0.627171 -5.96713 -2.5
      vertex 0 -6 -2.5
    endloop
  endfacet
  facet normal 0.707107 0.707107 0
    outer loop
      vertex 4.45887 4.01478 2.5
      vertex 4.01478 4.45887 -2.5
      vertex 4.01478 4.45887 2.5
    endloop
  endfacet
  facet normal 0.707107 0.707107 0
    outer loop
      vertex 4.01478 4.45887 -2.5
      vertex 4.45887 4.01478 2.5
      vertex 4.45887 4.01478 -2.5
    endloop
  endfacet
  facet normal -0.629319 0.777147 0
    outer loop
      vertex -3.52671 4.8541 -2.5
      vertex -4.01478 4.45887 2.5
      vertex -3.52671 4.8541 2.5
    endloop
  endfacet
  facet normal -0.629319 0.777147 0
    outer loop
      vertex -4.01478 4.45887 2.5
      vertex -3.52671 4.8541 -2.5
      vertex -4.01478 4.45887 -2.5
    endloop
  endfacet
  facet normal -0.358372 0.933579 0
    outer loop
      vertex -1.8541 5.70634 -2.5
      vertex -2.44042 5.48127 2.5
      vertex -1.8541 5.70634 2.5
    endloop
  endfacet
  facet normal -0.358372 0.933579 0
    outer loop
      vertex -2.44042 5.48127 2.5
      vertex -1.8541 5.70634 -2.5
      vertex -2.44042 5.48127 -2.5
    endloop
  endfacet
  facet normal 0.933579 0.358372 0
    outer loop
      vertex 5.70634 1.8541 2.5
      vertex 5.48127 2.44042 -2.5
      vertex 5.48127 2.44042 2.5
    endloop
  endfacet
  facet normal 0.933579 0.358372 0
    outer loop
      vertex 5.48127 2.44042 -2.5
      vertex 5.70634 1.8541 2.5
      vertex 5.70634 1.8541 -2.5
    endloop
  endfacet
  facet normal 0.45399 0.891007 -0
    outer loop
      vertex 3 5.19615 -2.5
      vertex 2.44042 5.48127 2.5
      vertex 3 5.19615 2.5
    endloop
  endfacet
  facet normal 0.45399 0.891007 0
    outer loop
      vertex 2.44042 5.48127 2.5
      vertex 3 5.19615 -2.5
      vertex 2.44042 5.48127 -2.5
    endloop
  endfacet
  facet normal 0.629319 0.777147 -0
    outer loop
      vertex 4.01478 4.45887 -2.5
      vertex 3.52671 4.8541 2.5
      vertex 4.01478 4.45887 2.5
    endloop
  endfacet
  facet normal 0.629319 0.777147 0
    outer loop
      vertex 3.52671 4.8541 2.5
      vertex 4.01478 4.45887 -2.5
      vertex 3.52671 4.8541 -2.5
    endloop
  endfacet
  facet normal -0.891007 0.45399 0
    outer loop
      vertex -5.48127 2.44042 -2.5
      vertex -5.19615 3 2.5
      vertex -5.19615 3 -2.5
    endloop
  endfacet
  facet normal -0.891007 0.45399 0
    outer loop
      vertex -5.19615 3 2.5
      vertex -5.48127 2.44042 -2.5
      vertex -5.48127 2.44042 2.5
    endloop
  endfacet
  facet normal -0.156426 0.98769 0
    outer loop
      vertex -0.627171 5.96713 -2.5
      vertex -1.24747 5.86889 2.5
      vertex -0.627171 5.96713 2.5
    endloop
  endfacet
  facet normal -0.156426 0.98769 0
    outer loop
      vertex -1.24747 5.86889 2.5
      vertex -0.627171 5.96713 -2.5
      vertex -1.24747 5.86889 -2.5
    endloop
  endfacet
  facet normal 0.965924 -0.258825 0
    outer loop
      vertex 5.70634 -1.8541 2.5
      vertex 5.86889 -1.24747 -2.5
      vertex 5.86889 -1.24747 2.5
    endloop
  endfacet
  facet normal 0.965924 -0.258825 0
    outer loop
      vertex 5.86889 -1.24747 -2.5
      vertex 5.70634 -1.8541 2.5
      vertex 5.70634 -1.8541 -2.5
    endloop
  endfacet
  facet normal 0 0 -1
    outer loop
      vertex 2.46 0 -2.5
      vertex 6 0 -2.5
      vertex 5.96713 -0.627171 -2.5
    endloop
  endfacet
  facet normal 0 0 -1
    outer loop
      vertex 2.44652 -0.257139 -2.5
      vertex 5.96713 -0.627171 -2.5
      vertex 5.86889 -1.24747 -2.5
    endloop
  endfacet
  facet normal 0 0 -1
    outer loop
      vertex 6 0 -2.5
      vertex 2.46 0 -2.5
      vertex 5.96713 0.627171 -2.5
    endloop
  endfacet
  facet normal 0 0 -1
    outer loop
      vertex 2.40624 -0.511462 -2.5
      vertex 5.86889 -1.24747 -2.5
      vertex 5.70634 -1.8541 -2.5
    endloop
  endfacet
  facet normal 0 0 -1
    outer loop
      vertex 2.44652 0.257139 -2.5
      vertex 5.96713 0.627171 -2.5
      vertex 2.46 0 -2.5
    endloop
  endfacet
  facet normal 0 0 -1
    outer loop
      vertex 2.3396 -0.760181 -2.5
      vertex 5.70634 -1.8541 -2.5
      vertex 5.48127 -2.44042 -2.5
    endloop
  endfacet
  facet normal -0 0 -1
    outer loop
      vertex 5.96713 0.627171 -2.5
      vertex 2.44652 0.257139 -2.5
      vertex 5.86889 1.24747 -2.5
    endloop
  endfacet
  facet normal 0 0 -1
    outer loop
      vertex 2.24732 -1.00057 -2.5
      vertex 5.48127 -2.44042 -2.5
      vertex 5.19615 -3 -2.5
    endloop
  endfacet
  facet normal 0 0 -1
    outer loop
      vertex 2.40624 0.511462 -2.5
      vertex 5.86889 1.24747 -2.5
      vertex 2.44652 0.257139 -2.5
    endloop
  endfacet
  facet normal 0 0 -1
    outer loop
      vertex 2.13042 -1.23 -2.5
      vertex 5.19615 -3 -2.5
      vertex 4.8541 -3.52671 -2.5
    endloop
  endfacet
  facet normal -0 0 -1
    outer loop
      vertex 5.86889 1.24747 -2.5
      vertex 2.40624 0.511462 -2.5
      vertex 5.70634 1.8541 -2.5
    endloop
  endfacet
  facet normal 0 0 -1
    outer loop
      vertex 1.99018 -1.44595 -2.5
      vertex 4.8541 -3.52671 -2.5
      vertex 4.45887 -4.01478 -2.5
    endloop
  endfacet
  facet normal 0 0 -1
    outer loop
      vertex 2.3396 0.760181 -2.5
      vertex 5.70634 1.8541 -2.5
      vertex 2.40624 0.511462 -2.5
    endloop
  endfacet
  facet normal 0 0 -1
    outer loop
      vertex 1.82814 -1.64606 -2.5
      vertex 4.45887 -4.01478 -2.5
      vertex 4.01478 -4.45887 -2.5
    endloop
  endfacet
  facet normal -0 0 -1
    outer loop
      vertex 5.70634 1.8541 -2.5
      vertex 2.3396 0.760181 -2.5
      vertex 5.48127 2.44042 -2.5
    endloop
  endfacet
  facet normal 0 0 -1
    outer loop
      vertex 1.64606 -1.82814 -2.5
      vertex 4.01478 -4.45887 -2.5
      vertex 3.52671 -4.8541 -2.5
    endloop
  endfacet
  facet normal 0 0 -1
    outer loop
      vertex 2.24732 1.00057 -2.5
      vertex 5.48127 2.44042 -2.5
      vertex 2.3396 0.760181 -2.5
    endloop
  endfacet
  facet normal 0 0 -1
    outer loop
      vertex 1.44595 -1.99018 -2.5
      vertex 3.52671 -4.8541 -2.5
      vertex 3 -5.19615 -2.5
    endloop
  endfacet
  facet normal -0 0 -1
    outer loop
      vertex 5.48127 2.44042 -2.5
      vertex 2.24732 1.00057 -2.5
      vertex 5.19615 3 -2.5
    endloop
  endfacet
  facet normal 0 0 -1
    outer loop
      vertex 2.13042 1.23 -2.5
      vertex 5.19615 3 -2.5
      vertex 2.24732 1.00057 -2.5
    endloop
  endfacet
  facet normal 0 0 -1
    outer loop
      vertex 5.96713 -0.627171 -2.5
      vertex 2.44652 -0.257139 -2.5
      vertex 2.46 0 -2.5
    endloop
  endfacet
  facet normal 0 0 -1
    outer loop
      vertex 1.23 -2.13042 -2.5
      vertex 3 -5.19615 -2.5
      vertex 2.44042 -5.48127 -2.5
    endloop
  endfacet
  facet normal 0 0 -1
    outer loop
      vertex 5.86889 -1.24747 -2.5
      vertex 2.40624 -0.511462 -2.5
      vertex 2.44652 -0.257139 -2.5
    endloop
  endfacet
  facet normal 0 0 -1
    outer loop
      vertex 5.70634 -1.8541 -2.5
      vertex 2.3396 -0.760181 -2.5
      vertex 2.40624 -0.511462 -2.5
    endloop
  endfacet
  facet normal 0 0 -1
    outer loop
      vertex 5.48127 -2.44042 -2.5
      vertex 2.24732 -1.00057 -2.5
      vertex 2.3396 -0.760181 -2.5
    endloop
  endfacet
  facet normal 0 0 -1
    outer loop
      vertex 5.19615 -3 -2.5
      vertex 2.13042 -1.23 -2.5
      vertex 2.24732 -1.00057 -2.5
    endloop
  endfacet
  facet normal 0 0 -1
    outer loop
      vertex 4.8541 -3.52671 -2.5
      vertex 1.99018 -1.44595 -2.5
      vertex 2.13042 -1.23 -2.5
    endloop
  endfacet
  facet normal 0 0 -1
    outer loop
      vertex 1.00057 -2.24732 -2.5
      vertex 2.44042 -5.48127 -2.5
      vertex 1.8541 -5.70634 -2.5
    endloop
  endfacet
  facet normal 0 0 -1
    outer loop
      vertex 4.45887 -4.01478 -2.5
      vertex 1.82814 -1.64606 -2.5
      vertex 1.99018 -1.44595 -2.5
    endloop
  endfacet
  facet normal 0 0 -1
    outer loop
      vertex 4.01478 -4.45887 -2.5
      vertex 1.64606 -1.82814 -2.5
      vertex 1.82814 -1.64606 -2.5
    endloop
  endfacet
  facet normal 0 0 -1
    outer loop
      vertex 3.52671 -4.8541 -2.5
      vertex 1.44595 -1.99018 -2.5
      vertex 1.64606 -1.82814 -2.5
    endloop
  endfacet
  facet normal 0 0 -1
    outer loop
      vertex 0.760181 -2.3396 -2.5
      vertex 1.8541 -5.70634 -2.5
      vertex 1.24747 -5.86889 -2.5
    endloop
  endfacet
  facet normal 0 0 -1
    outer loop
      vertex 3 -5.19615 -2.5
      vertex 1.23 -2.13042 -2.5
      vertex 1.44595 -1.99018 -2.5
    endloop
  endfacet
  facet normal 0 0 -1
    outer loop
      vertex 2.44042 -5.48127 -2.5
      vertex 1.00057 -2.24732 -2.5
      vertex 1.23 -2.13042 -2.5
    endloop
  endfacet
  facet normal 0 0 -1
    outer loop
      vertex 1.8541 -5.70634 -2.5
      vertex 0.760181 -2.3396 -2.5
      vertex 1.00057 -2.24732 -2.5
    endloop
  endfacet
  facet normal 0 0 -1
    outer loop
      vertex 0.511462 -2.40624 -2.5
      vertex 1.24747 -5.86889 -2.5
      vertex 0.627171 -5.96713 -2.5
    endloop
  endfacet
  facet normal 0 0 -1
    outer loop
      vertex 1.24747 -5.86889 -2.5
      vertex 0.511462 -2.40624 -2.5
      vertex 0.760181 -2.3396 -2.5
    endloop
  endfacet
  facet normal 0 0 -1
    outer loop
      vertex 0.627171 -5.96713 -2.5
      vertex 0.257139 -2.44652 -2.5
      vertex 0.511462 -2.40624 -2.5
    endloop
  endfacet
  facet normal 0 0 -1
    outer loop
      vertex 0 -6 -2.5
      vertex 0.257139 -2.44652 -2.5
      vertex 0.627171 -5.96713 -2.5
    endloop
  endfacet
  facet normal 0 0 -1
    outer loop
      vertex 0 -6 -2.5
      vertex 0 -2.46 -2.5
      vertex 0.257139 -2.44652 -2.5
    endloop
  endfacet
  facet normal 0 0 -1
    outer loop
      vertex 0 -6 -2.5
      vertex -0.257139 -2.44652 -2.5
      vertex 0 -2.46 -2.5
    endloop
  endfacet
  facet normal 0 0 -1
    outer loop
      vertex -0.627171 -5.96713 -2.5
      vertex -0.257139 -2.44652 -2.5
      vertex 0 -6 -2.5
    endloop
  endfacet
  facet normal -0 0 -1
    outer loop
      vertex -0.257139 -2.44652 -2.5
      vertex -0.627171 -5.96713 -2.5
      vertex -0.511462 -2.40624 -2.5
    endloop
  endfacet
  facet normal 0 0 -1
    outer loop
      vertex -1.24747 -5.86889 -2.5
      vertex -0.511462 -2.40624 -2.5
      vertex -0.627171 -5.96713 -2.5
    endloop
  endfacet
  facet normal -0 0 -1
    outer loop
      vertex -0.511462 -2.40624 -2.5
      vertex -1.24747 -5.86889 -2.5
      vertex -0.760181 -2.3396 -2.5
    endloop
  endfacet
  facet normal 0 0 -1
    outer loop
      vertex -1.8541 -5.70634 -2.5
      vertex -0.760181 -2.3396 -2.5
      vertex -1.24747 -5.86889 -2.5
    endloop
  endfacet
  facet normal -0 0 -1
    outer loop
      vertex -0.760181 -2.3396 -2.5
      vertex -1.8541 -5.70634 -2.5
      vertex -1.00057 -2.24732 -2.5
    endloop
  endfacet
  facet normal 0 0 -1
    outer loop
      vertex -2.44042 -5.48127 -2.5
      vertex -1.00057 -2.24732 -2.5
      vertex -1.8541 -5.70634 -2.5
    endloop
  endfacet
  facet normal -0 0 -1
    outer loop
      vertex -1.00057 -2.24732 -2.5
      vertex -2.44042 -5.48127 -2.5
      vertex -1.23 -2.13042 -2.5
    endloop
  endfacet
  facet normal 0 0 -1
    outer loop
      vertex -3 -5.19615 -2.5
      vertex -1.23 -2.13042 -2.5
      vertex -2.44042 -5.48127 -2.5
    endloop
  endfacet
  facet normal -0 0 -1
    outer loop
      vertex -1.23 -2.13042 -2.5
      vertex -3 -5.19615 -2.5
      vertex -1.44595 -1.99018 -2.5
    endloop
  endfacet
  facet normal 0 0 -1
    outer loop
      vertex -3.52671 -4.8541 -2.5
      vertex -1.44595 -1.99018 -2.5
      vertex -3 -5.19615 -2.5
    endloop
  endfacet
  facet normal -0 0 -1
    outer loop
      vertex -1.44595 -1.99018 -2.5
      vertex -3.52671 -4.8541 -2.5
      vertex -1.64606 -1.82814 -2.5
    endloop
  endfacet
  facet normal 0 0 -1
    outer loop
      vertex -4.01478 -4.45887 -2.5
      vertex -1.64606 -1.82814 -2.5
      vertex -3.52671 -4.8541 -2.5
    endloop
  endfacet
  facet normal -0 0 -1
    outer loop
      vertex -1.64606 -1.82814 -2.5
      vertex -4.01478 -4.45887 -2.5
      vertex -1.82814 -1.64606 -2.5
    endloop
  endfacet
  facet normal 0 0 -1
    outer loop
      vertex -4.45887 -4.01478 -2.5
      vertex -1.82814 -1.64606 -2.5
      vertex -4.01478 -4.45887 -2.5
    endloop
  endfacet
  facet normal -0 0 -1
    outer loop
      vertex -1.82814 -1.64606 -2.5
      vertex -4.45887 -4.01478 -2.5
      vertex -1.99018 -1.44595 -2.5
    endloop
  endfacet
  facet normal 0 0 -1
    outer loop
      vertex -4.8541 -3.52671 -2.5
      vertex -1.99018 -1.44595 -2.5
      vertex -4.45887 -4.01478 -2.5
    endloop
  endfacet
  facet normal -0 0 -1
    outer loop
      vertex -1.99018 -1.44595 -2.5
      vertex -4.8541 -3.52671 -2.5
      vertex -2.13042 -1.23 -2.5
    endloop
  endfacet
  facet normal 0 0 -1
    outer loop
      vertex -5.19615 -3 -2.5
      vertex -2.13042 -1.23 -2.5
      vertex -4.8541 -3.52671 -2.5
    endloop
  endfacet
  facet normal -0 0 -1
    outer loop
      vertex 5.19615 3 -2.5
      vertex 2.13042 1.23 -2.5
      vertex 4.8541 3.52671 -2.5
    endloop
  endfacet
  facet normal 0 0 -1
    outer loop
      vertex 1.99018 1.44595 -2.5
      vertex 4.8541 3.52671 -2.5
      vertex 2.13042 1.23 -2.5
    endloop
  endfacet
  facet normal -0 0 -1
    outer loop
      vertex 4.8541 3.52671 -2.5
      vertex 1.99018 1.44595 -2.5
      vertex 4.45887 4.01478 -2.5
    endloop
  endfacet
  facet normal 0 0 -1
    outer loop
      vertex 1.82814 1.64606 -2.5
      vertex 4.45887 4.01478 -2.5
      vertex 1.99018 1.44595 -2.5
    endloop
  endfacet
  facet normal -0 0 -1
    outer loop
      vertex 4.45887 4.01478 -2.5
      vertex 1.82814 1.64606 -2.5
      vertex 4.01478 4.45887 -2.5
    endloop
  endfacet
  facet normal 0 0 -1
    outer loop
      vertex 1.64606 1.82814 -2.5
      vertex 4.01478 4.45887 -2.5
      vertex 1.82814 1.64606 -2.5
    endloop
  endfacet
  facet normal -0 0 -1
    outer loop
      vertex 4.01478 4.45887 -2.5
      vertex 1.64606 1.82814 -2.5
      vertex 3.52671 4.8541 -2.5
    endloop
  endfacet
  facet normal 0 0 -1
    outer loop
      vertex 1.44595 1.99018 -2.5
      vertex 3.52671 4.8541 -2.5
      vertex 1.64606 1.82814 -2.5
    endloop
  endfacet
  facet normal -0 0 -1
    outer loop
      vertex 3.52671 4.8541 -2.5
      vertex 1.44595 1.99018 -2.5
      vertex 3 5.19615 -2.5
    endloop
  endfacet
  facet normal 0 0 -1
    outer loop
      vertex 1.23 2.13042 -2.5
      vertex 3 5.19615 -2.5
      vertex 1.44595 1.99018 -2.5
    endloop
  endfacet
  facet normal -0 0 -1
    outer loop
      vertex 3 5.19615 -2.5
      vertex 1.23 2.13042 -2.5
      vertex 2.44042 5.48127 -2.5
    endloop
  endfacet
  facet normal 0 0 -1
    outer loop
      vertex 1.00057 2.24732 -2.5
      vertex 2.44042 5.48127 -2.5
      vertex 1.23 2.13042 -2.5
    endloop
  endfacet
  facet normal -0 0 -1
    outer loop
      vertex 2.44042 5.48127 -2.5
      vertex 1.00057 2.24732 -2.5
      vertex 1.8541 5.70634 -2.5
    endloop
  endfacet
  facet normal 0 0 -1
    outer loop
      vertex 0.760181 2.3396 -2.5
      vertex 1.8541 5.70634 -2.5
      vertex 1.00057 2.24732 -2.5
    endloop
  endfacet
  facet normal -0 0 -1
    outer loop
      vertex 1.8541 5.70634 -2.5
      vertex 0.760181 2.3396 -2.5
      vertex 1.24747 5.86889 -2.5
    endloop
  endfacet
  facet normal 0 0 -1
    outer loop
      vertex 0.511462 2.40624 -2.5
      vertex 1.24747 5.86889 -2.5
      vertex 0.760181 2.3396 -2.5
    endloop
  endfacet
  facet normal -0 0 -1
    outer loop
      vertex 1.24747 5.86889 -2.5
      vertex 0.511462 2.40624 -2.5
      vertex 0.627171 5.96713 -2.5
    endloop
  endfacet
  facet normal 0 0 -1
    outer loop
      vertex 0.257139 2.44652 -2.5
      vertex 0.627171 5.96713 -2.5
      vertex 0.511462 2.40624 -2.5
    endloop
  endfacet
  facet normal 0 0 -1
    outer loop
      vertex 0 2.46 -2.5
      vertex 0.627171 5.96713 -2.5
      vertex 0.257139 2.44652 -2.5
    endloop
  endfacet
  facet normal 0 0 -1
    outer loop
      vertex 0 2.46 -2.5
      vertex 0 6 -2.5
      vertex 0.627171 5.96713 -2.5
    endloop
  endfacet
  facet normal 0 0 -1
    outer loop
      vertex -0.257139 2.44652 -2.5
      vertex 0 6 -2.5
      vertex 0 2.46 -2.5
    endloop
  endfacet
  facet normal 0 0 -1
    outer loop
      vertex -0.627171 5.96713 -2.5
      vertex -0.257139 2.44652 -2.5
      vertex -0.511462 2.40624 -2.5
    endloop
  endfacet
  facet normal 0 0 -1
    outer loop
      vertex -0.257139 2.44652 -2.5
      vertex -0.627171 5.96713 -2.5
      vertex 0 6 -2.5
    endloop
  endfacet
  facet normal 0 0 -1
    outer loop
      vertex -1.24747 5.86889 -2.5
      vertex -0.511462 2.40624 -2.5
      vertex -0.760181 2.3396 -2.5
    endloop
  endfacet
  facet normal 0 0 -1
    outer loop
      vertex -1.8541 5.70634 -2.5
      vertex -0.760181 2.3396 -2.5
      vertex -1.00057 2.24732 -2.5
    endloop
  endfacet
  facet normal 0 0 -1
    outer loop
      vertex -2.44042 5.48127 -2.5
      vertex -1.00057 2.24732 -2.5
      vertex -1.23 2.13042 -2.5
    endloop
  endfacet
  facet normal 0 0 -1
    outer loop
      vertex -0.511462 2.40624 -2.5
      vertex -1.24747 5.86889 -2.5
      vertex -0.627171 5.96713 -2.5
    endloop
  endfacet
  facet normal 0 0 -1
    outer loop
      vertex -3 5.19615 -2.5
      vertex -1.23 2.13042 -2.5
      vertex -1.44595 1.99018 -2.5
    endloop
  endfacet
  facet normal 0 0 -1
    outer loop
      vertex -3.52671 4.8541 -2.5
      vertex -1.44595 1.99018 -2.5
      vertex -1.64606 1.82814 -2.5
    endloop
  endfacet
  facet normal 0 0 -1
    outer loop
      vertex -4.01478 4.45887 -2.5
      vertex -1.64606 1.82814 -2.5
      vertex -1.82814 1.64606 -2.5
    endloop
  endfacet
  facet normal 0 0 -1
    outer loop
      vertex -0.760181 2.3396 -2.5
      vertex -1.8541 5.70634 -2.5
      vertex -1.24747 5.86889 -2.5
    endloop
  endfacet
  facet normal 0 0 -1
    outer loop
      vertex -4.45887 4.01478 -2.5
      vertex -1.82814 1.64606 -2.5
      vertex -1.99018 1.44595 -2.5
    endloop
  endfacet
  facet normal 0 0 -1
    outer loop
      vertex -4.8541 3.52671 -2.5
      vertex -1.99018 1.44595 -2.5
      vertex -2.13042 1.23 -2.5
    endloop
  endfacet
  facet normal 0 0 -1
    outer loop
      vertex -5.19615 3 -2.5
      vertex -2.13042 1.23 -2.5
      vertex -2.24732 1.00057 -2.5
    endloop
  endfacet
  facet normal 0 0 -1
    outer loop
      vertex -5.48127 2.44042 -2.5
      vertex -2.24732 1.00057 -2.5
      vertex -2.3396 0.760181 -2.5
    endloop
  endfacet
  facet normal 0 0 -1
    outer loop
      vertex -5.70634 1.8541 -2.5
      vertex -2.3396 0.760181 -2.5
      vertex -2.40624 0.511462 -2.5
    endloop
  endfacet
  facet normal 0 0 -1
    outer loop
      vertex -1.00057 2.24732 -2.5
      vertex -2.44042 5.48127 -2.5
      vertex -1.8541 5.70634 -2.5
    endloop
  endfacet
  facet normal 0 0 -1
    outer loop
      vertex -5.86889 1.24747 -2.5
      vertex -2.40624 0.511462 -2.5
      vertex -2.44652 0.257139 -2.5
    endloop
  endfacet
  facet normal 0 0 -1
    outer loop
      vertex -5.96713 0.627171 -2.5
      vertex -2.44652 0.257139 -2.5
      vertex -2.46 0 -2.5
    endloop
  endfacet
  facet normal -0 0 -1
    outer loop
      vertex -2.13042 -1.23 -2.5
      vertex -5.19615 -3 -2.5
      vertex -2.24732 -1.00057 -2.5
    endloop
  endfacet
  facet normal 0 0 -1
    outer loop
      vertex -1.23 2.13042 -2.5
      vertex -3 5.19615 -2.5
      vertex -2.44042 5.48127 -2.5
    endloop
  endfacet
  facet normal 0 0 -1
    outer loop
      vertex -5.48127 -2.44042 -2.5
      vertex -2.24732 -1.00057 -2.5
      vertex -5.19615 -3 -2.5
    endloop
  endfacet
  facet normal 0 0 -1
    outer loop
      vertex -1.44595 1.99018 -2.5
      vertex -3.52671 4.8541 -2.5
      vertex -3 5.19615 -2.5
    endloop
  endfacet
  facet normal -0 0 -1
    outer loop
      vertex -2.24732 -1.00057 -2.5
      vertex -5.48127 -2.44042 -2.5
      vertex -2.3396 -0.760181 -2.5
    endloop
  endfacet
  facet normal 0 0 -1
    outer loop
      vertex -1.64606 1.82814 -2.5
      vertex -4.01478 4.45887 -2.5
      vertex -3.52671 4.8541 -2.5
    endloop
  endfacet
  facet normal 0 0 -1
    outer loop
      vertex -5.70634 -1.8541 -2.5
      vertex -2.3396 -0.760181 -2.5
      vertex -5.48127 -2.44042 -2.5
    endloop
  endfacet
  facet normal 0 0 -1
    outer loop
      vertex -1.82814 1.64606 -2.5
      vertex -4.45887 4.01478 -2.5
      vertex -4.01478 4.45887 -2.5
    endloop
  endfacet
  facet normal -0 0 -1
    outer loop
      vertex -2.3396 -0.760181 -2.5
      vertex -5.70634 -1.8541 -2.5
      vertex -2.40624 -0.511462 -2.5
    endloop
  endfacet
  facet normal 0 0 -1
    outer loop
      vertex -1.99018 1.44595 -2.5
      vertex -4.8541 3.52671 -2.5
      vertex -4.45887 4.01478 -2.5
    endloop
  endfacet
  facet normal 0 0 -1
    outer loop
      vertex -5.86889 -1.24747 -2.5
      vertex -2.40624 -0.511462 -2.5
      vertex -5.70634 -1.8541 -2.5
    endloop
  endfacet
  facet normal 0 0 -1
    outer loop
      vertex -2.13042 1.23 -2.5
      vertex -5.19615 3 -2.5
      vertex -4.8541 3.52671 -2.5
    endloop
  endfacet
  facet normal -0 0 -1
    outer loop
      vertex -2.40624 -0.511462 -2.5
      vertex -5.86889 -1.24747 -2.5
      vertex -2.44652 -0.257139 -2.5
    endloop
  endfacet
  facet normal 0 0 -1
    outer loop
      vertex -2.24732 1.00057 -2.5
      vertex -5.48127 2.44042 -2.5
      vertex -5.19615 3 -2.5
    endloop
  endfacet
  facet normal 0 0 -1
    outer loop
      vertex -5.96713 -0.627171 -2.5
      vertex -2.44652 -0.257139 -2.5
      vertex -5.86889 -1.24747 -2.5
    endloop
  endfacet
  facet normal 0 0 -1
    outer loop
      vertex -2.3396 0.760181 -2.5
      vertex -5.70634 1.8541 -2.5
      vertex -5.48127 2.44042 -2.5
    endloop
  endfacet
  facet normal -0 0 -1
    outer loop
      vertex -2.44652 -0.257139 -2.5
      vertex -5.96713 -0.627171 -2.5
      vertex -2.46 0 -2.5
    endloop
  endfacet
  facet normal 0 0 -1
    outer loop
      vertex -2.40624 0.511462 -2.5
      vertex -5.86889 1.24747 -2.5
      vertex -5.70634 1.8541 -2.5
    endloop
  endfacet
  facet normal 0 0 -1
    outer loop
      vertex -6 0 -2.5
      vertex -2.46 0 -2.5
      vertex -5.96713 -0.627171 -2.5
    endloop
  endfacet
  facet normal 0 0 -1
    outer loop
      vertex -2.44652 0.257139 -2.5
      vertex -5.96713 0.627171 -2.5
      vertex -5.86889 1.24747 -2.5
    endloop
  endfacet
  facet normal 0 0 -1
    outer loop
      vertex -2.46 0 -2.5
      vertex -6 0 -2.5
      vertex -5.96713 0.627171 -2.5
    endloop
  endfacet
  facet normal 0.965924 0.258825 0
    outer loop
      vertex 5.86889 1.24747 2.5
      vertex 5.70634 1.8541 -2.5
      vertex 5.70634 1.8541 2.5
    endloop
  endfacet
  facet normal 0.965924 0.258825 0
    outer loop
      vertex 5.70634 1.8541 -2.5
      vertex 5.86889 1.24747 2.5
      vertex 5.86889 1.24747 -2.5
    endloop
  endfacet
  facet normal 0.98769 0.156426 0
    outer loop
      vertex 5.96713 0.627171 2.5
      vertex 5.86889 1.24747 -2.5
      vertex 5.86889 1.24747 2.5
    endloop
  endfacet
  facet normal 0.98769 0.156426 0
    outer loop
      vertex 5.86889 1.24747 -2.5
      vertex 5.96713 0.627171 2.5
      vertex 5.96713 0.627171 -2.5
    endloop
  endfacet
  facet normal 0.83867 0.54464 0
    outer loop
      vertex 5.19615 3 2.5
      vertex 4.8541 3.52671 -2.5
      vertex 4.8541 3.52671 2.5
    endloop
  endfacet
  facet normal 0.83867 0.54464 0
    outer loop
      vertex 4.8541 3.52671 -2.5
      vertex 5.19615 3 2.5
      vertex 5.19615 3 -2.5
    endloop
  endfacet
  facet normal 0.777147 0.629319 0
    outer loop
      vertex 4.8541 3.52671 2.5
      vertex 4.45887 4.01478 -2.5
      vertex 4.45887 4.01478 2.5
    endloop
  endfacet
  facet normal 0.777147 0.629319 0
    outer loop
      vertex 4.45887 4.01478 -2.5
      vertex 4.8541 3.52671 2.5
      vertex 4.8541 3.52671 -2.5
    endloop
  endfacet
  facet normal 0.891007 0.45399 0
    outer loop
      vertex 5.48127 2.44042 2.5
      vertex 5.19615 3 -2.5
      vertex 5.19615 3 2.5
    endloop
  endfacet
  facet normal 0.891007 0.45399 0
    outer loop
      vertex 5.19615 3 -2.5
      vertex 5.48127 2.44042 2.5
      vertex 5.48127 2.44042 -2.5
    endloop
  endfacet
  facet normal 0.258825 0.965924 -0
    outer loop
      vertex 1.8541 5.70634 -2.5
      vertex 1.24747 5.86889 2.5
      vertex 1.8541 5.70634 2.5
    endloop
  endfacet
  facet normal 0.258825 0.965924 0
    outer loop
      vertex 1.24747 5.86889 2.5
      vertex 1.8541 5.70634 -2.5
      vertex 1.24747 5.86889 -2.5
    endloop
  endfacet
  facet normal 0.358372 0.933579 -0
    outer loop
      vertex 2.44042 5.48127 -2.5
      vertex 1.8541 5.70634 2.5
      vertex 2.44042 5.48127 2.5
    endloop
  endfacet
  facet normal 0.358372 0.933579 0
    outer loop
      vertex 1.8541 5.70634 2.5
      vertex 2.44042 5.48127 -2.5
      vertex 1.8541 5.70634 -2.5
    endloop
  endfacet
  facet normal 0.156426 0.98769 -0
    outer loop
      vertex 1.24747 5.86889 -2.5
      vertex 0.627171 5.96713 2.5
      vertex 1.24747 5.86889 2.5
    endloop
  endfacet
  facet normal 0.156426 0.98769 0
    outer loop
      vertex 0.627171 5.96713 2.5
      vertex 1.24747 5.86889 -2.5
      vertex 0.627171 5.96713 -2.5
    endloop
  endfacet
  facet normal 0.54464 0.83867 -0
    outer loop
      vertex 3.52671 4.8541 -2.5
      vertex 3 5.19615 2.5
      vertex 3.52671 4.8541 2.5
    endloop
  endfacet
  facet normal 0.54464 0.83867 0
    outer loop
      vertex 3 5.19615 2.5
      vertex 3.52671 4.8541 -2.5
      vertex 3 5.19615 -2.5
    endloop
  endfacet
  facet normal -0.965924 0.258825 0
    outer loop
      vertex -5.86889 1.24747 -2.5
      vertex -5.70634 1.8541 2.5
      vertex -5.70634 1.8541 -2.5
    endloop
  endfacet
  facet normal -0.965924 0.258825 0
    outer loop
      vertex -5.70634 1.8541 2.5
      vertex -5.86889 1.24747 -2.5
      vertex -5.86889 1.24747 2.5
    endloop
  endfacet
  facet normal -0.777147 0.629319 0
    outer loop
      vertex -4.8541 3.52671 -2.5
      vertex -4.45887 4.01478 2.5
      vertex -4.45887 4.01478 -2.5
    endloop
  endfacet
  facet normal -0.777147 0.629319 0
    outer loop
      vertex -4.45887 4.01478 2.5
      vertex -4.8541 3.52671 -2.5
      vertex -4.8541 3.52671 2.5
    endloop
  endfacet
  facet normal -0.707107 0.707107 0
    outer loop
      vertex -4.45887 4.01478 -2.5
      vertex -4.01478 4.45887 2.5
      vertex -4.01478 4.45887 -2.5
    endloop
  endfacet
  facet normal -0.707107 0.707107 0
    outer loop
      vertex -4.01478 4.45887 2.5
      vertex -4.45887 4.01478 -2.5
      vertex -4.45887 4.01478 2.5
    endloop
  endfacet
  facet normal -0.83867 0.54464 0
    outer loop
      vertex -5.19615 3 -2.5
      vertex -4.8541 3.52671 2.5
      vertex -4.8541 3.52671 -2.5
    endloop
  endfacet
  facet normal -0.83867 0.54464 0
    outer loop
      vertex -4.8541 3.52671 2.5
      vertex -5.19615 3 -2.5
      vertex -5.19615 3 2.5
    endloop
  endfacet
  facet normal -0.933579 0.358372 0
    outer loop
      vertex -5.70634 1.8541 -2.5
      vertex -5.48127 2.44042 2.5
      vertex -5.48127 2.44042 -2.5
    endloop
  endfacet
  facet normal -0.933579 0.358372 0
    outer loop
      vertex -5.48127 2.44042 2.5
      vertex -5.70634 1.8541 -2.5
      vertex -5.70634 1.8541 2.5
    endloop
  endfacet
  facet normal -0.98769 0.156426 0
    outer loop
      vertex -5.96713 0.627171 -2.5
      vertex -5.86889 1.24747 2.5
      vertex -5.86889 1.24747 -2.5
    endloop
  endfacet
  facet normal -0.98769 0.156426 0
    outer loop
      vertex -5.86889 1.24747 2.5
      vertex -5.96713 0.627171 -2.5
      vertex -5.96713 0.627171 2.5
    endloop
  endfacet
  facet normal 0 0 1
    outer loop
      vertex 2.46 0 2.5
      vertex 6 0 2.5
      vertex 5.96713 0.627171 2.5
    endloop
  endfacet
  facet normal 0 0 1
    outer loop
      vertex 2.44652 0.257139 2.5
      vertex 5.96713 0.627171 2.5
      vertex 5.86889 1.24747 2.5
    endloop
  endfacet
  facet normal 0 0 1
    outer loop
      vertex 6 0 2.5
      vertex 2.46 0 2.5
      vertex 5.96713 -0.627171 2.5
    endloop
  endfacet
  facet normal 0 0 1
    outer loop
      vertex 2.40624 0.511462 2.5
      vertex 5.86889 1.24747 2.5
      vertex 5.70634 1.8541 2.5
    endloop
  endfacet
  facet normal -0 0 1
    outer loop
      vertex 2.44652 -0.257139 2.5
      vertex 5.96713 -0.627171 2.5
      vertex 2.46 0 2.5
    endloop
  endfacet
  facet normal 0 0 1
    outer loop
      vertex 2.3396 0.760181 2.5
      vertex 5.70634 1.8541 2.5
      vertex 5.48127 2.44042 2.5
    endloop
  endfacet
  facet normal 0 0 1
    outer loop
      vertex 5.96713 -0.627171 2.5
      vertex 2.44652 -0.257139 2.5
      vertex 5.86889 -1.24747 2.5
    endloop
  endfacet
  facet normal 0 0 1
    outer loop
      vertex 2.24732 1.00057 2.5
      vertex 5.48127 2.44042 2.5
      vertex 5.19615 3 2.5
    endloop
  endfacet
  facet normal -0 0 1
    outer loop
      vertex 2.40624 -0.511462 2.5
      vertex 5.86889 -1.24747 2.5
      vertex 2.44652 -0.257139 2.5
    endloop
  endfacet
  facet normal 0 0 1
    outer loop
      vertex 2.13042 1.23 2.5
      vertex 5.19615 3 2.5
      vertex 4.8541 3.52671 2.5
    endloop
  endfacet
  facet normal 0 0 1
    outer loop
      vertex 5.86889 -1.24747 2.5
      vertex 2.40624 -0.511462 2.5
      vertex 5.70634 -1.8541 2.5
    endloop
  endfacet
  facet normal 0 0 1
    outer loop
      vertex 1.99018 1.44595 2.5
      vertex 4.8541 3.52671 2.5
      vertex 4.45887 4.01478 2.5
    endloop
  endfacet
  facet normal -0 0 1
    outer loop
      vertex 2.3396 -0.760181 2.5
      vertex 5.70634 -1.8541 2.5
      vertex 2.40624 -0.511462 2.5
    endloop
  endfacet
  facet normal 0 0 1
    outer loop
      vertex 1.82814 1.64606 2.5
      vertex 4.45887 4.01478 2.5
      vertex 4.01478 4.45887 2.5
    endloop
  endfacet
  facet normal 0 0 1
    outer loop
      vertex 5.70634 -1.8541 2.5
      vertex 2.3396 -0.760181 2.5
      vertex 5.48127 -2.44042 2.5
    endloop
  endfacet
  facet normal 0 0 1
    outer loop
      vertex 1.64606 1.82814 2.5
      vertex 4.01478 4.45887 2.5
      vertex 3.52671 4.8541 2.5
    endloop
  endfacet
  facet normal -0 0 1
    outer loop
      vertex 2.24732 -1.00057 2.5
      vertex 5.48127 -2.44042 2.5
      vertex 2.3396 -0.760181 2.5
    endloop
  endfacet
  facet normal 0 0 1
    outer loop
      vertex 1.44595 1.99018 2.5
      vertex 3.52671 4.8541 2.5
      vertex 3 5.19615 2.5
    endloop
  endfacet
  facet normal 0 0 1
    outer loop
      vertex 5.48127 -2.44042 2.5
      vertex 2.24732 -1.00057 2.5
      vertex 5.19615 -3 2.5
    endloop
  endfacet
  facet normal -0 0 1
    outer loop
      vertex 2.13042 -1.23 2.5
      vertex 5.19615 -3 2.5
      vertex 2.24732 -1.00057 2.5
    endloop
  endfacet
  facet normal 0 0 1
    outer loop
      vertex 5.96713 0.627171 2.5
      vertex 2.44652 0.257139 2.5
      vertex 2.46 0 2.5
    endloop
  endfacet
  facet normal 0 0 1
    outer loop
      vertex 1.23 2.13042 2.5
      vertex 3 5.19615 2.5
      vertex 2.44042 5.48127 2.5
    endloop
  endfacet
  facet normal 0 0 1
    outer loop
      vertex 5.86889 1.24747 2.5
      vertex 2.40624 0.511462 2.5
      vertex 2.44652 0.257139 2.5
    endloop
  endfacet
  facet normal 0 0 1
    outer loop
      vertex 5.70634 1.8541 2.5
      vertex 2.3396 0.760181 2.5
      vertex 2.40624 0.511462 2.5
    endloop
  endfacet
  facet normal 0 0 1
    outer loop
      vertex 5.48127 2.44042 2.5
      vertex 2.24732 1.00057 2.5
      vertex 2.3396 0.760181 2.5
    endloop
  endfacet
  facet normal 0 0 1
    outer loop
      vertex 5.19615 3 2.5
      vertex 2.13042 1.23 2.5
      vertex 2.24732 1.00057 2.5
    endloop
  endfacet
  facet normal 0 0 1
    outer loop
      vertex 4.8541 3.52671 2.5
      vertex 1.99018 1.44595 2.5
      vertex 2.13042 1.23 2.5
    endloop
  endfacet
  facet normal 0 0 1
    outer loop
      vertex 1.00057 2.24732 2.5
      vertex 2.44042 5.48127 2.5
      vertex 1.8541 5.70634 2.5
    endloop
  endfacet
  facet normal 0 0 1
    outer loop
      vertex 4.45887 4.01478 2.5
      vertex 1.82814 1.64606 2.5
      vertex 1.99018 1.44595 2.5
    endloop
  endfacet
  facet normal 0 0 1
    outer loop
      vertex 4.01478 4.45887 2.5
      vertex 1.64606 1.82814 2.5
      vertex 1.82814 1.64606 2.5
    endloop
  endfacet
  facet normal 0 0 1
    outer loop
      vertex 3.52671 4.8541 2.5
      vertex 1.44595 1.99018 2.5
      vertex 1.64606 1.82814 2.5
    endloop
  endfacet
  facet normal 0 0 1
    outer loop
      vertex 0.760181 2.3396 2.5
      vertex 1.8541 5.70634 2.5
      vertex 1.24747 5.86889 2.5
    endloop
  endfacet
  facet normal 0 0 1
    outer loop
      vertex 3 5.19615 2.5
      vertex 1.23 2.13042 2.5
      vertex 1.44595 1.99018 2.5
    endloop
  endfacet
  facet normal 0 0 1
    outer loop
      vertex 2.44042 5.48127 2.5
      vertex 1.00057 2.24732 2.5
      vertex 1.23 2.13042 2.5
    endloop
  endfacet
  facet normal 0 0 1
    outer loop
      vertex 1.8541 5.70634 2.5
      vertex 0.760181 2.3396 2.5
      vertex 1.00057 2.24732 2.5
    endloop
  endfacet
  facet normal 0 0 1
    outer loop
      vertex 0.511462 2.40624 2.5
      vertex 1.24747 5.86889 2.5
      vertex 0.627171 5.96713 2.5
    endloop
  endfacet
  facet normal 0 0 1
    outer loop
      vertex 1.24747 5.86889 2.5
      vertex 0.511462 2.40624 2.5
      vertex 0.760181 2.3396 2.5
    endloop
  endfacet
  facet normal 0 0 1
    outer loop
      vertex 0.627171 5.96713 2.5
      vertex 0.257139 2.44652 2.5
      vertex 0.511462 2.40624 2.5
    endloop
  endfacet
  facet normal 0 0 1
    outer loop
      vertex 0 6 2.5
      vertex 0.257139 2.44652 2.5
      vertex 0.627171 5.96713 2.5
    endloop
  endfacet
  facet normal 0 0 1
    outer loop
      vertex 0 6 2.5
      vertex 0 2.46 2.5
      vertex 0.257139 2.44652 2.5
    endloop
  endfacet
  facet normal 0 0 1
    outer loop
      vertex 0 6 2.5
      vertex -0.257139 2.44652 2.5
      vertex 0 2.46 2.5
    endloop
  endfacet
  facet normal -0 0 1
    outer loop
      vertex -0.627171 5.96713 2.5
      vertex -0.257139 2.44652 2.5
      vertex 0 6 2.5
    endloop
  endfacet
  facet normal 0 0 1
    outer loop
      vertex -0.257139 2.44652 2.5
      vertex -0.627171 5.96713 2.5
      vertex -0.511462 2.40624 2.5
    endloop
  endfacet
  facet normal -0 0 1
    outer loop
      vertex -1.24747 5.86889 2.5
      vertex -0.511462 2.40624 2.5
      vertex -0.627171 5.96713 2.5
    endloop
  endfacet
  facet normal 0 0 1
    outer loop
      vertex -0.511462 2.40624 2.5
      vertex -1.24747 5.86889 2.5
      vertex -0.760181 2.3396 2.5
    endloop
  endfacet
  facet normal -0 0 1
    outer loop
      vertex -1.8541 5.70634 2.5
      vertex -0.760181 2.3396 2.5
      vertex -1.24747 5.86889 2.5
    endloop
  endfacet
  facet normal 0 0 1
    outer loop
      vertex -0.760181 2.3396 2.5
      vertex -1.8541 5.70634 2.5
      vertex -1.00057 2.24732 2.5
    endloop
  endfacet
  facet normal -0 0 1
    outer loop
      vertex -2.44042 5.48127 2.5
      vertex -1.00057 2.24732 2.5
      vertex -1.8541 5.70634 2.5
    endloop
  endfacet
  facet normal 0 0 1
    outer loop
      vertex -1.00057 2.24732 2.5
      vertex -2.44042 5.48127 2.5
      vertex -1.23 2.13042 2.5
    endloop
  endfacet
  facet normal -0 0 1
    outer loop
      vertex -3 5.19615 2.5
      vertex -1.23 2.13042 2.5
      vertex -2.44042 5.48127 2.5
    endloop
  endfacet
  facet normal 0 0 1
    outer loop
      vertex -1.23 2.13042 2.5
      vertex -3 5.19615 2.5
      vertex -1.44595 1.99018 2.5
    endloop
  endfacet
  facet normal -0 0 1
    outer loop
      vertex -3.52671 4.8541 2.5
      vertex -1.44595 1.99018 2.5
      vertex -3 5.19615 2.5
    endloop
  endfacet
  facet normal 0 0 1
    outer loop
      vertex -1.44595 1.99018 2.5
      vertex -3.52671 4.8541 2.5
      vertex -1.64606 1.82814 2.5
    endloop
  endfacet
  facet normal -0 0 1
    outer loop
      vertex -4.01478 4.45887 2.5
      vertex -1.64606 1.82814 2.5
      vertex -3.52671 4.8541 2.5
    endloop
  endfacet
  facet normal 0 0 1
    outer loop
      vertex -1.64606 1.82814 2.5
      vertex -4.01478 4.45887 2.5
      vertex -1.82814 1.64606 2.5
    endloop
  endfacet
  facet normal -0 0 1
    outer loop
      vertex -4.45887 4.01478 2.5
      vertex -1.82814 1.64606 2.5
      vertex -4.01478 4.45887 2.5
    endloop
  endfacet
  facet normal 0 0 1
    outer loop
      vertex -1.82814 1.64606 2.5
      vertex -4.45887 4.01478 2.5
      vertex -1.99018 1.44595 2.5
    endloop
  endfacet
  facet normal -0 0 1
    outer loop
      vertex -4.8541 3.52671 2.5
      vertex -1.99018 1.44595 2.5
      vertex -4.45887 4.01478 2.5
    endloop
  endfacet
  facet normal 0 0 1
    outer loop
      vertex -1.99018 1.44595 2.5
      vertex -4.8541 3.52671 2.5
      vertex -2.13042 1.23 2.5
    endloop
  endfacet
  facet normal -0 0 1
    outer loop
      vertex -5.19615 3 2.5
      vertex -2.13042 1.23 2.5
      vertex -4.8541 3.52671 2.5
    endloop
  endfacet
  facet normal 0 0 1
    outer loop
      vertex 5.19615 -3 2.5
      vertex 2.13042 -1.23 2.5
      vertex 4.8541 -3.52671 2.5
    endloop
  endfacet
  facet normal -0 0 1
    outer loop
      vertex 1.99018 -1.44595 2.5
      vertex 4.8541 -3.52671 2.5
      vertex 2.13042 -1.23 2.5
    endloop
  endfacet
  facet normal 0 0 1
    outer loop
      vertex 4.8541 -3.52671 2.5
      vertex 1.99018 -1.44595 2.5
      vertex 4.45887 -4.01478 2.5
    endloop
  endfacet
  facet normal -0 0 1
    outer loop
      vertex 1.82814 -1.64606 2.5
      vertex 4.45887 -4.01478 2.5
      vertex 1.99018 -1.44595 2.5
    endloop
  endfacet
  facet normal 0 0 1
    outer loop
      vertex 4.45887 -4.01478 2.5
      vertex 1.82814 -1.64606 2.5
      vertex 4.01478 -4.45887 2.5
    endloop
  endfacet
  facet normal -0 0 1
    outer loop
      vertex 1.64606 -1.82814 2.5
      vertex 4.01478 -4.45887 2.5
      vertex 1.82814 -1.64606 2.5
    endloop
  endfacet
  facet normal 0 0 1
    outer loop
      vertex 4.01478 -4.45887 2.5
      vertex 1.64606 -1.82814 2.5
      vertex 3.52671 -4.8541 2.5
    endloop
  endfacet
  facet normal -0 0 1
    outer loop
      vertex 1.44595 -1.99018 2.5
      vertex 3.52671 -4.8541 2.5
      vertex 1.64606 -1.82814 2.5
    endloop
  endfacet
  facet normal 0 0 1
    outer loop
      vertex 3.52671 -4.8541 2.5
      vertex 1.44595 -1.99018 2.5
      vertex 3 -5.19615 2.5
    endloop
  endfacet
  facet normal -0 0 1
    outer loop
      vertex 1.23 -2.13042 2.5
      vertex 3 -5.19615 2.5
      vertex 1.44595 -1.99018 2.5
    endloop
  endfacet
  facet normal 0 0 1
    outer loop
      vertex 3 -5.19615 2.5
      vertex 1.23 -2.13042 2.5
      vertex 2.44042 -5.48127 2.5
    endloop
  endfacet
  facet normal -0 0 1
    outer loop
      vertex 1.00057 -2.24732 2.5
      vertex 2.44042 -5.48127 2.5
      vertex 1.23 -2.13042 2.5
    endloop
  endfacet
  facet normal 0 0 1
    outer loop
      vertex 2.44042 -5.48127 2.5
      vertex 1.00057 -2.24732 2.5
      vertex 1.8541 -5.70634 2.5
    endloop
  endfacet
  facet normal -0 0 1
    outer loop
      vertex 0.760181 -2.3396 2.5
      vertex 1.8541 -5.70634 2.5
      vertex 1.00057 -2.24732 2.5
    endloop
  endfacet
  facet normal 0 0 1
    outer loop
      vertex 1.8541 -5.70634 2.5
      vertex 0.760181 -2.3396 2.5
      vertex 1.24747 -5.86889 2.5
    endloop
  endfacet
  facet normal -0 0 1
    outer loop
      vertex 0.511462 -2.40624 2.5
      vertex 1.24747 -5.86889 2.5
      vertex 0.760181 -2.3396 2.5
    endloop
  endfacet
  facet normal 0 0 1
    outer loop
      vertex 1.24747 -5.86889 2.5
      vertex 0.511462 -2.40624 2.5
      vertex 0.627171 -5.96713 2.5
    endloop
  endfacet
  facet normal -0 0 1
    outer loop
      vertex 0.257139 -2.44652 2.5
      vertex 0.627171 -5.96713 2.5
      vertex 0.511462 -2.40624 2.5
    endloop
  endfacet
  facet normal -0 0 1
    outer loop
      vertex 0 -2.46 2.5
      vertex 0.627171 -5.96713 2.5
      vertex 0.257139 -2.44652 2.5
    endloop
  endfacet
  facet normal 0 0 1
    outer loop
      vertex 0 -2.46 2.5
      vertex 0 -6 2.5
      vertex 0.627171 -5.96713 2.5
    endloop
  endfacet
  facet normal 0 0 1
    outer loop
      vertex -0.257139 -2.44652 2.5
      vertex 0 -6 2.5
      vertex 0 -2.46 2.5
    endloop
  endfacet
  facet normal 0 0 1
    outer loop
      vertex -0.627171 -5.96713 2.5
      vertex -0.257139 -2.44652 2.5
      vertex -0.511462 -2.40624 2.5
    endloop
  endfacet
  facet normal 0 0 1
    outer loop
      vertex -0.257139 -2.44652 2.5
      vertex -0.627171 -5.96713 2.5
      vertex 0 -6 2.5
    endloop
  endfacet
  facet normal 0 0 1
    outer loop
      vertex -1.24747 -5.86889 2.5
      vertex -0.511462 -2.40624 2.5
      vertex -0.760181 -2.3396 2.5
    endloop
  endfacet
  facet normal 0 0 1
    outer loop
      vertex -1.8541 -5.70634 2.5
      vertex -0.760181 -2.3396 2.5
      vertex -1.00057 -2.24732 2.5
    endloop
  endfacet
  facet normal 0 0 1
    outer loop
      vertex -2.44042 -5.48127 2.5
      vertex -1.00057 -2.24732 2.5
      vertex -1.23 -2.13042 2.5
    endloop
  endfacet
  facet normal 0 0 1
    outer loop
      vertex -0.511462 -2.40624 2.5
      vertex -1.24747 -5.86889 2.5
      vertex -0.627171 -5.96713 2.5
    endloop
  endfacet
  facet normal 0 0 1
    outer loop
      vertex -3 -5.19615 2.5
      vertex -1.23 -2.13042 2.5
      vertex -1.44595 -1.99018 2.5
    endloop
  endfacet
  facet normal 0 0 1
    outer loop
      vertex -3.52671 -4.8541 2.5
      vertex -1.44595 -1.99018 2.5
      vertex -1.64606 -1.82814 2.5
    endloop
  endfacet
  facet normal 0 0 1
    outer loop
      vertex -4.01478 -4.45887 2.5
      vertex -1.64606 -1.82814 2.5
      vertex -1.82814 -1.64606 2.5
    endloop
  endfacet
  facet normal 0 0 1
    outer loop
      vertex -0.760181 -2.3396 2.5
      vertex -1.8541 -5.70634 2.5
      vertex -1.24747 -5.86889 2.5
    endloop
  endfacet
  facet normal 0 0 1
    outer loop
      vertex -4.45887 -4.01478 2.5
      vertex -1.82814 -1.64606 2.5
      vertex -1.99018 -1.44595 2.5
    endloop
  endfacet
  facet normal 0 0 1
    outer loop
      vertex -4.8541 -3.52671 2.5
      vertex -1.99018 -1.44595 2.5
      vertex -2.13042 -1.23 2.5
    endloop
  endfacet
  facet normal 0 0 1
    outer loop
      vertex -5.19615 -3 2.5
      vertex -2.13042 -1.23 2.5
      vertex -2.24732 -1.00057 2.5
    endloop
  endfacet
  facet normal 0 0 1
    outer loop
      vertex -5.48127 -2.44042 2.5
      vertex -2.24732 -1.00057 2.5
      vertex -2.3396 -0.760181 2.5
    endloop
  endfacet
  facet normal 0 0 1
    outer loop
      vertex -5.70634 -1.8541 2.5
      vertex -2.3396 -0.760181 2.5
      vertex -2.40624 -0.511462 2.5
    endloop
  endfacet
  facet normal 0 0 1
    outer loop
      vertex -1.00057 -2.24732 2.5
      vertex -2.44042 -5.48127 2.5
      vertex -1.8541 -5.70634 2.5
    endloop
  endfacet
  facet normal 0 0 1
    outer loop
      vertex -5.86889 -1.24747 2.5
      vertex -2.40624 -0.511462 2.5
      vertex -2.44652 -0.257139 2.5
    endloop
  endfacet
  facet normal 0 0 1
    outer loop
      vertex -5.96713 -0.627171 2.5
      vertex -2.44652 -0.257139 2.5
      vertex -2.46 0 2.5
    endloop
  endfacet
  facet normal 0 0 1
    outer loop
      vertex -2.13042 1.23 2.5
      vertex -5.19615 3 2.5
      vertex -2.24732 1.00057 2.5
    endloop
  endfacet
  facet normal 0 0 1
    outer loop
      vertex -1.23 -2.13042 2.5
      vertex -3 -5.19615 2.5
      vertex -2.44042 -5.48127 2.5
    endloop
  endfacet
  facet normal -0 0 1
    outer loop
      vertex -5.48127 2.44042 2.5
      vertex -2.24732 1.00057 2.5
      vertex -5.19615 3 2.5
    endloop
  endfacet
  facet normal 0 0 1
    outer loop
      vertex -1.44595 -1.99018 2.5
      vertex -3.52671 -4.8541 2.5
      vertex -3 -5.19615 2.5
    endloop
  endfacet
  facet normal 0 0 1
    outer loop
      vertex -2.24732 1.00057 2.5
      vertex -5.48127 2.44042 2.5
      vertex -2.3396 0.760181 2.5
    endloop
  endfacet
  facet normal 0 0 1
    outer loop
      vertex -1.64606 -1.82814 2.5
      vertex -4.01478 -4.45887 2.5
      vertex -3.52671 -4.8541 2.5
    endloop
  endfacet
  facet normal -0 0 1
    outer loop
      vertex -5.70634 1.8541 2.5
      vertex -2.3396 0.760181 2.5
      vertex -5.48127 2.44042 2.5
    endloop
  endfacet
  facet normal 0 0 1
    outer loop
      vertex -1.82814 -1.64606 2.5
      vertex -4.45887 -4.01478 2.5
      vertex -4.01478 -4.45887 2.5
    endloop
  endfacet
  facet normal 0 0 1
    outer loop
      vertex -2.3396 0.760181 2.5
      vertex -5.70634 1.8541 2.5
      vertex -2.40624 0.511462 2.5
    endloop
  endfacet
  facet normal 0 0 1
    outer loop
      vertex -1.99018 -1.44595 2.5
      vertex -4.8541 -3.52671 2.5
      vertex -4.45887 -4.01478 2.5
    endloop
  endfacet
  facet normal -0 0 1
    outer loop
      vertex -5.86889 1.24747 2.5
      vertex -2.40624 0.511462 2.5
      vertex -5.70634 1.8541 2.5
    endloop
  endfacet
  facet normal 0 0 1
    outer loop
      vertex -2.13042 -1.23 2.5
      vertex -5.19615 -3 2.5
      vertex -4.8541 -3.52671 2.5
    endloop
  endfacet
  facet normal 0 0 1
    outer loop
      vertex -2.40624 0.511462 2.5
      vertex -5.86889 1.24747 2.5
      vertex -2.44652 0.257139 2.5
    endloop
  endfacet
  facet normal 0 0 1
    outer loop
      vertex -2.24732 -1.00057 2.5
      vertex -5.48127 -2.44042 2.5
      vertex -5.19615 -3 2.5
    endloop
  endfacet
  facet normal -0 0 1
    outer loop
      vertex -5.96713 0.627171 2.5
      vertex -2.44652 0.257139 2.5
      vertex -5.86889 1.24747 2.5
    endloop
  endfacet
  facet normal 0 0 1
    outer loop
      vertex -2.3396 -0.760181 2.5
      vertex -5.70634 -1.8541 2.5
      vertex -5.48127 -2.44042 2.5
    endloop
  endfacet
  facet normal 0 0 1
    outer loop
      vertex -2.44652 0.257139 2.5
      vertex -5.96713 0.627171 2.5
      vertex -2.46 0 2.5
    endloop
  endfacet
  facet normal 0 0 1
    outer loop
      vertex -2.40624 -0.511462 2.5
      vertex -5.86889 -1.24747 2.5
      vertex -5.70634 -1.8541 2.5
    endloop
  endfacet
  facet normal 0 0 1
    outer loop
      vertex -6 0 2.5
      vertex -2.46 0 2.5
      vertex -5.96713 0.627171 2.5
    endloop
  endfacet
  facet normal 0 0 1
    outer loop
      vertex -2.44652 -0.257139 2.5
      vertex -5.96713 -0.627171 2.5
      vertex -5.86889 -1.24747 2.5
    endloop
  endfacet
  facet normal 0 0 1
    outer loop
      vertex -2.46 0 2.5
      vertex -6 0 2.5
      vertex -5.96713 -0.627171 2.5
    endloop
  endfacet
  facet normal -0.45399 0.891007 0
    outer loop
      vertex -2.44042 5.48127 -2.5
      vertex -3 5.19615 2.5
      vertex -2.44042 5.48127 2.5
    endloop
  endfacet
  facet normal -0.45399 0.891007 0
    outer loop
      vertex -3 5.19615 2.5
      vertex -2.44042 5.48127 -2.5
      vertex -3 5.19615 -2.5
    endloop
  endfacet
  facet normal -0.54464 0.83867 0
    outer loop
      vertex -3 5.19615 -2.5
      vertex -3.52671 4.8541 2.5
      vertex -3 5.19615 2.5
    endloop
  endfacet
  facet normal -0.54464 0.83867 0
    outer loop
      vertex -3.52671 4.8541 2.5
      vertex -3 5.19615 -2.5
      vertex -3.52671 4.8541 -2.5
    endloop
  endfacet
  facet normal -0.258825 0.965924 0
    outer loop
      vertex -1.24747 5.86889 -2.5
      vertex -1.8541 5.70634 2.5
      vertex -1.24747 5.86889 2.5
    endloop
  endfacet
  facet normal -0.258825 0.965924 0
    outer loop
      vertex -1.8541 5.70634 2.5
      vertex -1.24747 5.86889 -2.5
      vertex -1.8541 5.70634 -2.5
    endloop
  endfacet
  facet normal -0.0523381 0.998629 0
    outer loop
      vertex 0 6 -2.5
      vertex -0.627171 5.96713 2.5
      vertex 0 6 2.5
    endloop
  endfacet
  facet normal -0.0523381 0.998629 0
    outer loop
      vertex -0.627171 5.96713 2.5
      vertex 0 6 -2.5
      vertex -0.627171 5.96713 -2.5
    endloop
  endfacet
  facet normal 0.0523381 -0.998629 0
    outer loop
      vertex 0 -6 -2.5
      vertex 0.627171 -5.96713 2.5
      vertex 0 -6 2.5
    endloop
  endfacet
  facet normal 0.0523381 -0.998629 0
    outer loop
      vertex 0.627171 -5.96713 2.5
      vertex 0 -6 -2.5
      vertex 0.627171 -5.96713 -2.5
    endloop
  endfacet
  facet normal 0.258825 -0.965924 0
    outer loop
      vertex 1.24747 -5.86889 -2.5
      vertex 1.8541 -5.70634 2.5
      vertex 1.24747 -5.86889 2.5
    endloop
  endfacet
  facet normal 0.258825 -0.965924 0
    outer loop
      vertex 1.8541 -5.70634 2.5
      vertex 1.24747 -5.86889 -2.5
      vertex 1.8541 -5.70634 -2.5
    endloop
  endfacet
  facet normal 0.629319 -0.777147 0
    outer loop
      vertex 3.52671 -4.8541 -2.5
      vertex 4.01478 -4.45887 2.5
      vertex 3.52671 -4.8541 2.5
    endloop
  endfacet
  facet normal 0.629319 -0.777147 0
    outer loop
      vertex 4.01478 -4.45887 2.5
      vertex 3.52671 -4.8541 -2.5
      vertex 4.01478 -4.45887 -2.5
    endloop
  endfacet
  facet normal 0.45399 -0.891007 0
    outer loop
      vertex 2.44042 -5.48127 -2.5
      vertex 3 -5.19615 2.5
      vertex 2.44042 -5.48127 2.5
    endloop
  endfacet
  facet normal 0.45399 -0.891007 0
    outer loop
      vertex 3 -5.19615 2.5
      vertex 2.44042 -5.48127 -2.5
      vertex 3 -5.19615 -2.5
    endloop
  endfacet
  facet normal 0.777147 -0.629319 0
    outer loop
      vertex 4.45887 -4.01478 2.5
      vertex 4.8541 -3.52671 -2.5
      vertex 4.8541 -3.52671 2.5
    endloop
  endfacet
  facet normal 0.777147 -0.629319 0
    outer loop
      vertex 4.8541 -3.52671 -2.5
      vertex 4.45887 -4.01478 2.5
      vertex 4.45887 -4.01478 -2.5
    endloop
  endfacet
  facet normal 0.891007 -0.45399 0
    outer loop
      vertex 5.19615 -3 2.5
      vertex 5.48127 -2.44042 -2.5
      vertex 5.48127 -2.44042 2.5
    endloop
  endfacet
  facet normal 0.891007 -0.45399 0
    outer loop
      vertex 5.48127 -2.44042 -2.5
      vertex 5.19615 -3 2.5
      vertex 5.19615 -3 -2.5
    endloop
  endfacet
  facet normal -0.707107 -0.707107 0
    outer loop
      vertex -4.01478 -4.45887 -2.5
      vertex -4.45887 -4.01478 2.5
      vertex -4.45887 -4.01478 -2.5
    endloop
  endfacet
  facet normal -0.707107 -0.707107 0
    outer loop
      vertex -4.45887 -4.01478 2.5
      vertex -4.01478 -4.45887 -2.5
      vertex -4.01478 -4.45887 2.5
    endloop
  endfacet
  facet normal -0.54464 -0.83867 0
    outer loop
      vertex -3.52671 -4.8541 -2.5
      vertex -3 -5.19615 2.5
      vertex -3.52671 -4.8541 2.5
    endloop
  endfacet
  facet normal -0.54464 -0.83867 -0
    outer loop
      vertex -3 -5.19615 2.5
      vertex -3.52671 -4.8541 -2.5
      vertex -3 -5.19615 -2.5
    endloop
  endfacet
  facet normal -0.358372 -0.933579 0
    outer loop
      vertex -2.44042 -5.48127 -2.5
      vertex -1.8541 -5.70634 2.5
      vertex -2.44042 -5.48127 2.5
    endloop
  endfacet
  facet normal -0.358372 -0.933579 -0
    outer loop
      vertex -1.8541 -5.70634 2.5
      vertex -2.44042 -5.48127 -2.5
      vertex -1.8541 -5.70634 -2.5
    endloop
  endfacet
  facet normal -0.156426 -0.98769 0
    outer loop
      vertex -1.24747 -5.86889 -2.5
      vertex -0.627171 -5.96713 2.5
      vertex -1.24747 -5.86889 2.5
    endloop
  endfacet
  facet normal -0.156426 -0.98769 -0
    outer loop
      vertex -0.627171 -5.96713 2.5
      vertex -1.24747 -5.86889 -2.5
      vertex -0.627171 -5.96713 -2.5
    endloop
  endfacet
  facet normal -0.891007 -0.45399 0
    outer loop
      vertex -5.19615 -3 -2.5
      vertex -5.48127 -2.44042 2.5
      vertex -5.48127 -2.44042 -2.5
    endloop
  endfacet
  facet normal -0.891007 -0.45399 0
    outer loop
      vertex -5.48127 -2.44042 2.5
      vertex -5.19615 -3 -2.5
      vertex -5.19615 -3 2.5
    endloop
  endfacet
  facet normal -0.777147 -0.629319 0
    outer loop
      vertex -4.45887 -4.01478 -2.5
      vertex -4.8541 -3.52671 2.5
      vertex -4.8541 -3.52671 -2.5
    endloop
  endfacet
  facet normal -0.777147 -0.629319 0
    outer loop
      vertex -4.8541 -3.52671 2.5
      vertex -4.45887 -4.01478 -2.5
      vertex -4.45887 -4.01478 2.5
    endloop
  endfacet
  facet normal -0.965924 -0.258825 0
    outer loop
      vertex -5.70634 -1.8541 -2.5
      vertex -5.86889 -1.24747 2.5
      vertex -5.86889 -1.24747 -2.5
    endloop
  endfacet
  facet normal -0.965924 -0.258825 0
    outer loop
      vertex -5.86889 -1.24747 2.5
      vertex -5.70634 -1.8541 -2.5
      vertex -5.70634 -1.8541 2.5
    endloop
  endfacet
  facet normal -0.998629 -0.0523381 0
    outer loop
      vertex -5.96713 -0.627171 -2.5
      vertex -6 0 2.5
      vertex -6 0 -2.5
    endloop
  endfacet
  facet normal -0.998629 -0.0523381 0
    outer loop
      vertex -6 0 2.5
      vertex -5.96713 -0.627171 -2.5
      vertex -5.96713 -0.627171 2.5
    endloop
  endfacet
  facet normal 0.156426 -0.98769 0
    outer loop
      vertex 0.627171 -5.96713 -2.5
      vertex 1.24747 -5.86889 2.5
      vertex 0.627171 -5.96713 2.5
    endloop
  endfacet
  facet normal 0.156426 -0.98769 0
    outer loop
      vertex 1.24747 -5.86889 2.5
      vertex 0.627171 -5.96713 -2.5
      vertex 1.24747 -5.86889 -2.5
    endloop
  endfacet
  facet normal 0.358372 -0.933579 0
    outer loop
      vertex 1.8541 -5.70634 -2.5
      vertex 2.44042 -5.48127 2.5
      vertex 1.8541 -5.70634 2.5
    endloop
  endfacet
  facet normal 0.358372 -0.933579 0
    outer loop
      vertex 2.44042 -5.48127 2.5
      vertex 1.8541 -5.70634 -2.5
      vertex 2.44042 -5.48127 -2.5
    endloop
  endfacet
  facet normal 0.707107 -0.707107 0
    outer loop
      vertex 4.01478 -4.45887 2.5
      vertex 4.45887 -4.01478 -2.5
      vertex 4.45887 -4.01478 2.5
    endloop
  endfacet
  facet normal 0.707107 -0.707107 0
    outer loop
      vertex 4.45887 -4.01478 -2.5
      vertex 4.01478 -4.45887 2.5
      vertex 4.01478 -4.45887 -2.5
    endloop
  endfacet
  facet normal 0.54464 -0.83867 0
    outer loop
      vertex 3 -5.19615 -2.5
      vertex 3.52671 -4.8541 2.5
      vertex 3 -5.19615 2.5
    endloop
  endfacet
  facet normal 0.54464 -0.83867 0
    outer loop
      vertex 3.52671 -4.8541 2.5
      vertex 3 -5.19615 -2.5
      vertex 3.52671 -4.8541 -2.5
    endloop
  endfacet
  facet normal 0.83867 -0.54464 0
    outer loop
      vertex 4.8541 -3.52671 2.5
      vertex 5.19615 -3 -2.5
      vertex 5.19615 -3 2.5
    endloop
  endfacet
  facet normal 0.83867 -0.54464 0
    outer loop
      vertex 5.19615 -3 -2.5
      vertex 4.8541 -3.52671 2.5
      vertex 4.8541 -3.52671 -2.5
    endloop
  endfacet
  facet normal 0.933579 -0.358372 0
    outer loop
      vertex 5.48127 -2.44042 2.5
      vertex 5.70634 -1.8541 -2.5
      vertex 5.70634 -1.8541 2.5
    endloop
  endfacet
  facet normal 0.933579 -0.358372 0
    outer loop
      vertex 5.70634 -1.8541 -2.5
      vertex 5.48127 -2.44042 2.5
      vertex 5.48127 -2.44042 -2.5
    endloop
  endfacet
  facet normal 0.98769 -0.156426 0
    outer loop
      vertex 5.86889 -1.24747 2.5
      vertex 5.96713 -0.627171 -2.5
      vertex 5.96713 -0.627171 2.5
    endloop
  endfacet
  facet normal 0.98769 -0.156426 0
    outer loop
      vertex 5.96713 -0.627171 -2.5
      vertex 5.86889 -1.24747 2.5
      vertex 5.86889 -1.24747 -2.5
    endloop
  endfacet
  facet normal 0.998629 -0.0523381 0
    outer loop
      vertex 5.96713 -0.627171 2.5
      vertex 6 0 -2.5
      vertex 6 0 2.5
    endloop
  endfacet
  facet normal 0.998629 -0.0523381 0
    outer loop
      vertex 6 0 -2.5
      vertex 5.96713 -0.627171 2.5
      vertex 5.96713 -0.627171 -2.5
    endloop
  endfacet
  facet normal -0.629319 -0.777147 0
    outer loop
      vertex -4.01478 -4.45887 -2.5
      vertex -3.52671 -4.8541 2.5
      vertex -4.01478 -4.45887 2.5
    endloop
  endfacet
  facet normal -0.629319 -0.777147 -0
    outer loop
      vertex -3.52671 -4.8541 2.5
      vertex -4.01478 -4.45887 -2.5
      vertex -3.52671 -4.8541 -2.5
    endloop
  endfacet
  facet normal -0.45399 -0.891007 0
    outer loop
      vertex -3 -5.19615 -2.5
      vertex -2.44042 -5.48127 2.5
      vertex -3 -5.19615 2.5
    endloop
  endfacet
  facet normal -0.45399 -0.891007 -0
    outer loop
      vertex -2.44042 -5.48127 2.5
      vertex -3 -5.19615 -2.5
      vertex -2.44042 -5.48127 -2.5
    endloop
  endfacet
  facet normal -0.258825 -0.965924 0
    outer loop
      vertex -1.8541 -5.70634 -2.5
      vertex -1.24747 -5.86889 2.5
      vertex -1.8541 -5.70634 2.5
    endloop
  endfacet
  facet normal -0.258825 -0.965924 -0
    outer loop
      vertex -1.24747 -5.86889 2.5
      vertex -1.8541 -5.70634 -2.5
      vertex -1.24747 -5.86889 -2.5
    endloop
  endfacet
  facet normal -0.83867 -0.54464 0
    outer loop
      vertex -4.8541 -3.52671 -2.5
      vertex -5.19615 -3 2.5
      vertex -5.19615 -3 -2.5
    endloop
  endfacet
  facet normal -0.83867 -0.54464 0
    outer loop
      vertex -5.19615 -3 2.5
      vertex -4.8541 -3.52671 -2.5
      vertex -4.8541 -3.52671 2.5
    endloop
  endfacet
  facet normal -0.933579 -0.358372 0
    outer loop
      vertex -5.48127 -2.44042 -2.5
      vertex -5.70634 -1.8541 2.5
      vertex -5.70634 -1.8541 -2.5
    endloop
  endfacet
  facet normal -0.933579 -0.358372 0
    outer loop
      vertex -5.70634 -1.8541 2.5
      vertex -5.48127 -2.44042 -2.5
      vertex -5.48127 -2.44042 2.5
    endloop
  endfacet
  facet normal -0.98769 -0.156426 0
    outer loop
      vertex -5.86889 -1.24747 -2.5
      vertex -5.96713 -0.627171 2.5
      vertex -5.96713 -0.627171 -2.5
    endloop
  endfacet
  facet normal -0.98769 -0.156426 0
    outer loop
      vertex -5.96713 -0.627171 2.5
      vertex -5.86889 -1.24747 -2.5
      vertex -5.86889 -1.24747 2.5
    endloop
  endfacet
  facet normal -0.998629 -0.0523511 0
    outer loop
      vertex 2.46 0 -2.5
      vertex 2.44652 0.257139 2.5
      vertex 2.44652 0.257139 -2.5
    endloop
  endfacet
  facet normal -0.998629 -0.0523511 0
    outer loop
      vertex 2.44652 0.257139 2.5
      vertex 2.46 0 -2.5
      vertex 2.46 0 2.5
    endloop
  endfacet
  facet normal 0.998629 -0.0523511 0
    outer loop
      vertex -2.46 0 2.5
      vertex -2.44652 0.257139 -2.5
      vertex -2.44652 0.257139 2.5
    endloop
  endfacet
  facet normal 0.998629 -0.0523511 0
    outer loop
      vertex -2.44652 0.257139 -2.5
      vertex -2.46 0 2.5
      vertex -2.46 0 -2.5
    endloop
  endfacet
  facet normal 0.0523511 -0.998629 0
    outer loop
      vertex -0.257139 2.44652 -2.5
      vertex 0 2.46 2.5
      vertex -0.257139 2.44652 2.5
    endloop
  endfacet
  facet normal 0.0523511 -0.998629 0
    outer loop
      vertex 0 2.46 2.5
      vertex -0.257139 2.44652 -2.5
      vertex 0 2.46 -2.5
    endloop
  endfacet
  facet normal -0.0523511 0.998629 0
    outer loop
      vertex 0.257139 -2.44652 -2.5
      vertex 0 -2.46 2.5
      vertex 0.257139 -2.44652 2.5
    endloop
  endfacet
  facet normal -0.0523511 0.998629 0
    outer loop
      vertex 0 -2.46 2.5
      vertex 0.257139 -2.44652 -2.5
      vertex 0 -2.46 -2.5
    endloop
  endfacet
  facet normal -0.707107 -0.707107 0
    outer loop
      vertex 1.82814 1.64606 -2.5
      vertex 1.64606 1.82814 2.5
      vertex 1.64606 1.82814 -2.5
    endloop
  endfacet
  facet normal -0.707107 -0.707107 0
    outer loop
      vertex 1.64606 1.82814 2.5
      vertex 1.82814 1.64606 -2.5
      vertex 1.82814 1.64606 2.5
    endloop
  endfacet
  facet normal 0.707107 -0.707107 0
    outer loop
      vertex -1.82814 1.64606 2.5
      vertex -1.64606 1.82814 -2.5
      vertex -1.64606 1.82814 2.5
    endloop
  endfacet
  facet normal 0.707107 -0.707107 0
    outer loop
      vertex -1.64606 1.82814 -2.5
      vertex -1.82814 1.64606 2.5
      vertex -1.82814 1.64606 -2.5
    endloop
  endfacet
  facet normal 0.453989 -0.891007 0
    outer loop
      vertex -1.23 2.13042 -2.5
      vertex -1.00057 2.24732 2.5
      vertex -1.23 2.13042 2.5
    endloop
  endfacet
  facet normal 0.453989 -0.891007 0
    outer loop
      vertex -1.00057 2.24732 2.5
      vertex -1.23 2.13042 -2.5
      vertex -1.00057 2.24732 -2.5
    endloop
  endfacet
  facet normal -0.891007 -0.453989 0
    outer loop
      vertex 2.24732 1.00057 -2.5
      vertex 2.13042 1.23 2.5
      vertex 2.13042 1.23 -2.5
    endloop
  endfacet
  facet normal -0.891007 -0.453989 0
    outer loop
      vertex 2.13042 1.23 2.5
      vertex 2.24732 1.00057 -2.5
      vertex 2.24732 1.00057 2.5
    endloop
  endfacet
  facet normal -0.83867 -0.54464 0
    outer loop
      vertex 2.13042 1.23 -2.5
      vertex 1.99018 1.44595 2.5
      vertex 1.99018 1.44595 -2.5
    endloop
  endfacet
  facet normal -0.83867 -0.54464 0
    outer loop
      vertex 1.99018 1.44595 2.5
      vertex 2.13042 1.23 -2.5
      vertex 2.13042 1.23 2.5
    endloop
  endfacet
  facet normal -0.358379 -0.933576 0
    outer loop
      vertex 0.760181 2.3396 -2.5
      vertex 1.00057 2.24732 2.5
      vertex 0.760181 2.3396 2.5
    endloop
  endfacet
  facet normal -0.358379 -0.933576 -0
    outer loop
      vertex 1.00057 2.24732 2.5
      vertex 0.760181 2.3396 -2.5
      vertex 1.00057 2.24732 -2.5
    endloop
  endfacet
  facet normal -0.54464 -0.83867 0
    outer loop
      vertex 1.23 2.13042 -2.5
      vertex 1.44595 1.99018 2.5
      vertex 1.23 2.13042 2.5
    endloop
  endfacet
  facet normal -0.54464 -0.83867 -0
    outer loop
      vertex 1.44595 1.99018 2.5
      vertex 1.23 2.13042 -2.5
      vertex 1.44595 1.99018 -2.5
    endloop
  endfacet
  facet normal 0.933576 -0.358379 0
    outer loop
      vertex -2.3396 0.760181 2.5
      vertex -2.24732 1.00057 -2.5
      vertex -2.24732 1.00057 2.5
    endloop
  endfacet
  facet normal 0.933576 -0.358379 0
    outer loop
      vertex -2.24732 1.00057 -2.5
      vertex -2.3396 0.760181 2.5
      vertex -2.3396 0.760181 -2.5
    endloop
  endfacet
  facet normal 0.54464 -0.83867 0
    outer loop
      vertex -1.44595 1.99018 -2.5
      vertex -1.23 2.13042 2.5
      vertex -1.44595 1.99018 2.5
    endloop
  endfacet
  facet normal 0.54464 -0.83867 0
    outer loop
      vertex -1.23 2.13042 2.5
      vertex -1.44595 1.99018 -2.5
      vertex -1.23 2.13042 -2.5
    endloop
  endfacet
  facet normal 0.258804 -0.96593 0
    outer loop
      vertex -0.760181 2.3396 -2.5
      vertex -0.511462 2.40624 2.5
      vertex -0.760181 2.3396 2.5
    endloop
  endfacet
  facet normal 0.258804 -0.96593 0
    outer loop
      vertex -0.511462 2.40624 2.5
      vertex -0.760181 2.3396 -2.5
      vertex -0.511462 2.40624 -2.5
    endloop
  endfacet
  facet normal -0.358379 0.933576 0
    outer loop
      vertex 1.00057 -2.24732 -2.5
      vertex 0.760181 -2.3396 2.5
      vertex 1.00057 -2.24732 2.5
    endloop
  endfacet
  facet normal -0.358379 0.933576 0
    outer loop
      vertex 0.760181 -2.3396 2.5
      vertex 1.00057 -2.24732 -2.5
      vertex 0.760181 -2.3396 -2.5
    endloop
  endfacet
  facet normal -0.96593 0.258804 0
    outer loop
      vertex 2.3396 -0.760181 -2.5
      vertex 2.40624 -0.511462 2.5
      vertex 2.40624 -0.511462 -2.5
    endloop
  endfacet
  facet normal -0.96593 0.258804 0
    outer loop
      vertex 2.40624 -0.511462 2.5
      vertex 2.3396 -0.760181 -2.5
      vertex 2.3396 -0.760181 2.5
    endloop
  endfacet
  facet normal -0.96593 -0.258804 0
    outer loop
      vertex 2.40624 0.511462 -2.5
      vertex 2.3396 0.760181 2.5
      vertex 2.3396 0.760181 -2.5
    endloop
  endfacet
  facet normal -0.96593 -0.258804 0
    outer loop
      vertex 2.3396 0.760181 2.5
      vertex 2.40624 0.511462 -2.5
      vertex 2.40624 0.511462 2.5
    endloop
  endfacet
  facet normal -0.987689 -0.156431 0
    outer loop
      vertex 2.44652 0.257139 -2.5
      vertex 2.40624 0.511462 2.5
      vertex 2.40624 0.511462 -2.5
    endloop
  endfacet
  facet normal -0.987689 -0.156431 0
    outer loop
      vertex 2.40624 0.511462 2.5
      vertex 2.44652 0.257139 -2.5
      vertex 2.44652 0.257139 2.5
    endloop
  endfacet
  facet normal -0.933576 -0.358379 0
    outer loop
      vertex 2.3396 0.760181 -2.5
      vertex 2.24732 1.00057 2.5
      vertex 2.24732 1.00057 -2.5
    endloop
  endfacet
  facet normal -0.933576 -0.358379 0
    outer loop
      vertex 2.24732 1.00057 2.5
      vertex 2.3396 0.760181 -2.5
      vertex 2.3396 0.760181 2.5
    endloop
  endfacet
  facet normal -0.777157 -0.629307 0
    outer loop
      vertex 1.99018 1.44595 -2.5
      vertex 1.82814 1.64606 2.5
      vertex 1.82814 1.64606 -2.5
    endloop
  endfacet
  facet normal -0.777157 -0.629307 0
    outer loop
      vertex 1.82814 1.64606 2.5
      vertex 1.99018 1.44595 -2.5
      vertex 1.99018 1.44595 2.5
    endloop
  endfacet
  facet normal -0.156431 -0.987689 0
    outer loop
      vertex 0.257139 2.44652 -2.5
      vertex 0.511462 2.40624 2.5
      vertex 0.257139 2.44652 2.5
    endloop
  endfacet
  facet normal -0.156431 -0.987689 -0
    outer loop
      vertex 0.511462 2.40624 2.5
      vertex 0.257139 2.44652 -2.5
      vertex 0.511462 2.40624 -2.5
    endloop
  endfacet
  facet normal -0.258804 -0.96593 0
    outer loop
      vertex 0.511462 2.40624 -2.5
      vertex 0.760181 2.3396 2.5
      vertex 0.511462 2.40624 2.5
    endloop
  endfacet
  facet normal -0.258804 -0.96593 -0
    outer loop
      vertex 0.760181 2.3396 2.5
      vertex 0.511462 2.40624 -2.5
      vertex 0.760181 2.3396 -2.5
    endloop
  endfacet
  facet normal -0.0523511 -0.998629 0
    outer loop
      vertex 0 2.46 -2.5
      vertex 0.257139 2.44652 2.5
      vertex 0 2.46 2.5
    endloop
  endfacet
  facet normal -0.0523511 -0.998629 -0
    outer loop
      vertex 0.257139 2.44652 2.5
      vertex 0 2.46 -2.5
      vertex 0.257139 2.44652 -2.5
    endloop
  endfacet
  facet normal -0.453989 -0.891007 0
    outer loop
      vertex 1.00057 2.24732 -2.5
      vertex 1.23 2.13042 2.5
      vertex 1.00057 2.24732 2.5
    endloop
  endfacet
  facet normal -0.453989 -0.891007 -0
    outer loop
      vertex 1.23 2.13042 2.5
      vertex 1.00057 2.24732 -2.5
      vertex 1.23 2.13042 -2.5
    endloop
  endfacet
  facet normal -0.629307 -0.777157 0
    outer loop
      vertex 1.44595 1.99018 -2.5
      vertex 1.64606 1.82814 2.5
      vertex 1.44595 1.99018 2.5
    endloop
  endfacet
  facet normal -0.629307 -0.777157 -0
    outer loop
      vertex 1.64606 1.82814 2.5
      vertex 1.44595 1.99018 -2.5
      vertex 1.64606 1.82814 -2.5
    endloop
  endfacet
  facet normal 0.83867 -0.54464 0
    outer loop
      vertex -2.13042 1.23 2.5
      vertex -1.99018 1.44595 -2.5
      vertex -1.99018 1.44595 2.5
    endloop
  endfacet
  facet normal 0.83867 -0.54464 0
    outer loop
      vertex -1.99018 1.44595 -2.5
      vertex -2.13042 1.23 2.5
      vertex -2.13042 1.23 -2.5
    endloop
  endfacet
  facet normal 0.777157 -0.629307 0
    outer loop
      vertex -1.99018 1.44595 2.5
      vertex -1.82814 1.64606 -2.5
      vertex -1.82814 1.64606 2.5
    endloop
  endfacet
  facet normal 0.777157 -0.629307 0
    outer loop
      vertex -1.82814 1.64606 -2.5
      vertex -1.99018 1.44595 2.5
      vertex -1.99018 1.44595 -2.5
    endloop
  endfacet
  facet normal 0.891007 -0.453989 0
    outer loop
      vertex -2.24732 1.00057 2.5
      vertex -2.13042 1.23 -2.5
      vertex -2.13042 1.23 2.5
    endloop
  endfacet
  facet normal 0.891007 -0.453989 0
    outer loop
      vertex -2.13042 1.23 -2.5
      vertex -2.24732 1.00057 2.5
      vertex -2.24732 1.00057 -2.5
    endloop
  endfacet
  facet normal 0.96593 -0.258804 0
    outer loop
      vertex -2.40624 0.511462 2.5
      vertex -2.3396 0.760181 -2.5
      vertex -2.3396 0.760181 2.5
    endloop
  endfacet
  facet normal 0.96593 -0.258804 0
    outer loop
      vertex -2.3396 0.760181 -2.5
      vertex -2.40624 0.511462 2.5
      vertex -2.40624 0.511462 -2.5
    endloop
  endfacet
  facet normal 0.987689 -0.156431 0
    outer loop
      vertex -2.44652 0.257139 2.5
      vertex -2.40624 0.511462 -2.5
      vertex -2.40624 0.511462 2.5
    endloop
  endfacet
  facet normal 0.987689 -0.156431 0
    outer loop
      vertex -2.40624 0.511462 -2.5
      vertex -2.44652 0.257139 2.5
      vertex -2.44652 0.257139 -2.5
    endloop
  endfacet
  facet normal 0.629307 -0.777157 0
    outer loop
      vertex -1.64606 1.82814 -2.5
      vertex -1.44595 1.99018 2.5
      vertex -1.64606 1.82814 2.5
    endloop
  endfacet
  facet normal 0.629307 -0.777157 0
    outer loop
      vertex -1.44595 1.99018 2.5
      vertex -1.64606 1.82814 -2.5
      vertex -1.44595 1.99018 -2.5
    endloop
  endfacet
  facet normal 0.358379 -0.933576 0
    outer loop
      vertex -1.00057 2.24732 -2.5
      vertex -0.760181 2.3396 2.5
      vertex -1.00057 2.24732 2.5
    endloop
  endfacet
  facet normal 0.358379 -0.933576 0
    outer loop
      vertex -0.760181 2.3396 2.5
      vertex -1.00057 2.24732 -2.5
      vertex -0.760181 2.3396 -2.5
    endloop
  endfacet
  facet normal 0.156431 -0.987689 0
    outer loop
      vertex -0.511462 2.40624 -2.5
      vertex -0.257139 2.44652 2.5
      vertex -0.511462 2.40624 2.5
    endloop
  endfacet
  facet normal 0.156431 -0.987689 0
    outer loop
      vertex -0.257139 2.44652 2.5
      vertex -0.511462 2.40624 -2.5
      vertex -0.257139 2.44652 -2.5
    endloop
  endfacet
  facet normal 0.998629 0.0523511 0
    outer loop
      vertex -2.44652 -0.257139 2.5
      vertex -2.46 0 -2.5
      vertex -2.46 0 2.5
    endloop
  endfacet
  facet normal 0.998629 0.0523511 0
    outer loop
      vertex -2.46 0 -2.5
      vertex -2.44652 -0.257139 2.5
      vertex -2.44652 -0.257139 -2.5
    endloop
  endfacet
  facet normal -0.54464 0.83867 0
    outer loop
      vertex 1.44595 -1.99018 -2.5
      vertex 1.23 -2.13042 2.5
      vertex 1.44595 -1.99018 2.5
    endloop
  endfacet
  facet normal -0.54464 0.83867 0
    outer loop
      vertex 1.23 -2.13042 2.5
      vertex 1.44595 -1.99018 -2.5
      vertex 1.23 -2.13042 -2.5
    endloop
  endfacet
  facet normal -0.707107 0.707107 0
    outer loop
      vertex 1.64606 -1.82814 -2.5
      vertex 1.82814 -1.64606 2.5
      vertex 1.82814 -1.64606 -2.5
    endloop
  endfacet
  facet normal -0.707107 0.707107 0
    outer loop
      vertex 1.82814 -1.64606 2.5
      vertex 1.64606 -1.82814 -2.5
      vertex 1.64606 -1.82814 2.5
    endloop
  endfacet
  facet normal -0.933576 0.358379 0
    outer loop
      vertex 2.24732 -1.00057 -2.5
      vertex 2.3396 -0.760181 2.5
      vertex 2.3396 -0.760181 -2.5
    endloop
  endfacet
  facet normal -0.933576 0.358379 0
    outer loop
      vertex 2.3396 -0.760181 2.5
      vertex 2.24732 -1.00057 -2.5
      vertex 2.24732 -1.00057 2.5
    endloop
  endfacet
  facet normal -0.987689 0.156431 0
    outer loop
      vertex 2.40624 -0.511462 -2.5
      vertex 2.44652 -0.257139 2.5
      vertex 2.44652 -0.257139 -2.5
    endloop
  endfacet
  facet normal -0.987689 0.156431 0
    outer loop
      vertex 2.44652 -0.257139 2.5
      vertex 2.40624 -0.511462 -2.5
      vertex 2.40624 -0.511462 2.5
    endloop
  endfacet
  facet normal -0.998629 0.0523511 0
    outer loop
      vertex 2.44652 -0.257139 -2.5
      vertex 2.46 0 2.5
      vertex 2.46 0 -2.5
    endloop
  endfacet
  facet normal -0.998629 0.0523511 0
    outer loop
      vertex 2.46 0 2.5
      vertex 2.44652 -0.257139 -2.5
      vertex 2.44652 -0.257139 2.5
    endloop
  endfacet
  facet normal -0.453989 0.891007 0
    outer loop
      vertex 1.23 -2.13042 -2.5
      vertex 1.00057 -2.24732 2.5
      vertex 1.23 -2.13042 2.5
    endloop
  endfacet
  facet normal -0.453989 0.891007 0
    outer loop
      vertex 1.00057 -2.24732 2.5
      vertex 1.23 -2.13042 -2.5
      vertex 1.00057 -2.24732 -2.5
    endloop
  endfacet
  facet normal -0.777157 0.629307 0
    outer loop
      vertex 1.82814 -1.64606 -2.5
      vertex 1.99018 -1.44595 2.5
      vertex 1.99018 -1.44595 -2.5
    endloop
  endfacet
  facet normal -0.777157 0.629307 0
    outer loop
      vertex 1.99018 -1.44595 2.5
      vertex 1.82814 -1.64606 -2.5
      vertex 1.82814 -1.64606 2.5
    endloop
  endfacet
  facet normal -0.629307 0.777157 0
    outer loop
      vertex 1.64606 -1.82814 -2.5
      vertex 1.44595 -1.99018 2.5
      vertex 1.64606 -1.82814 2.5
    endloop
  endfacet
  facet normal -0.629307 0.777157 0
    outer loop
      vertex 1.44595 -1.99018 2.5
      vertex 1.64606 -1.82814 -2.5
      vertex 1.44595 -1.99018 -2.5
    endloop
  endfacet
  facet normal -0.891007 0.453989 0
    outer loop
      vertex 2.13042 -1.23 -2.5
      vertex 2.24732 -1.00057 2.5
      vertex 2.24732 -1.00057 -2.5
    endloop
  endfacet
  facet normal -0.891007 0.453989 0
    outer loop
      vertex 2.24732 -1.00057 2.5
      vertex 2.13042 -1.23 -2.5
      vertex 2.13042 -1.23 2.5
    endloop
  endfacet
  facet normal 0.707107 0.707107 0
    outer loop
      vertex -1.64606 -1.82814 2.5
      vertex -1.82814 -1.64606 -2.5
      vertex -1.82814 -1.64606 2.5
    endloop
  endfacet
  facet normal 0.707107 0.707107 0
    outer loop
      vertex -1.82814 -1.64606 -2.5
      vertex -1.64606 -1.82814 2.5
      vertex -1.64606 -1.82814 -2.5
    endloop
  endfacet
  facet normal 0.933576 0.358379 0
    outer loop
      vertex -2.24732 -1.00057 2.5
      vertex -2.3396 -0.760181 -2.5
      vertex -2.3396 -0.760181 2.5
    endloop
  endfacet
  facet normal 0.933576 0.358379 0
    outer loop
      vertex -2.3396 -0.760181 -2.5
      vertex -2.24732 -1.00057 2.5
      vertex -2.24732 -1.00057 -2.5
    endloop
  endfacet
  facet normal 0.96593 0.258804 0
    outer loop
      vertex -2.3396 -0.760181 2.5
      vertex -2.40624 -0.511462 -2.5
      vertex -2.40624 -0.511462 2.5
    endloop
  endfacet
  facet normal 0.96593 0.258804 0
    outer loop
      vertex -2.40624 -0.511462 -2.5
      vertex -2.3396 -0.760181 2.5
      vertex -2.3396 -0.760181 -2.5
    endloop
  endfacet
  facet normal 0.987689 0.156431 0
    outer loop
      vertex -2.40624 -0.511462 2.5
      vertex -2.44652 -0.257139 -2.5
      vertex -2.44652 -0.257139 2.5
    endloop
  endfacet
  facet normal 0.987689 0.156431 0
    outer loop
      vertex -2.44652 -0.257139 -2.5
      vertex -2.40624 -0.511462 2.5
      vertex -2.40624 -0.511462 -2.5
    endloop
  endfacet
  facet normal -0.258804 0.96593 0
    outer loop
      vertex 0.760181 -2.3396 -2.5
      vertex 0.511462 -2.40624 2.5
      vertex 0.760181 -2.3396 2.5
    endloop
  endfacet
  facet normal -0.258804 0.96593 0
    outer loop
      vertex 0.511462 -2.40624 2.5
      vertex 0.760181 -2.3396 -2.5
      vertex 0.511462 -2.40624 -2.5
    endloop
  endfacet
  facet normal -0.156431 0.987689 0
    outer loop
      vertex 0.511462 -2.40624 -2.5
      vertex 0.257139 -2.44652 2.5
      vertex 0.511462 -2.40624 2.5
    endloop
  endfacet
  facet normal -0.156431 0.987689 0
    outer loop
      vertex 0.257139 -2.44652 2.5
      vertex 0.511462 -2.40624 -2.5
      vertex 0.257139 -2.44652 -2.5
    endloop
  endfacet
  facet normal -0.83867 0.54464 0
    outer loop
      vertex 1.99018 -1.44595 -2.5
      vertex 2.13042 -1.23 2.5
      vertex 2.13042 -1.23 -2.5
    endloop
  endfacet
  facet normal -0.83867 0.54464 0
    outer loop
      vertex 2.13042 -1.23 2.5
      vertex 1.99018 -1.44595 -2.5
      vertex 1.99018 -1.44595 2.5
    endloop
  endfacet
  facet normal 0.629307 0.777157 -0
    outer loop
      vertex -1.44595 -1.99018 -2.5
      vertex -1.64606 -1.82814 2.5
      vertex -1.44595 -1.99018 2.5
    endloop
  endfacet
  facet normal 0.629307 0.777157 0
    outer loop
      vertex -1.64606 -1.82814 2.5
      vertex -1.44595 -1.99018 -2.5
      vertex -1.64606 -1.82814 -2.5
    endloop
  endfacet
  facet normal 0.258804 0.96593 -0
    outer loop
      vertex -0.511462 -2.40624 -2.5
      vertex -0.760181 -2.3396 2.5
      vertex -0.511462 -2.40624 2.5
    endloop
  endfacet
  facet normal 0.258804 0.96593 0
    outer loop
      vertex -0.760181 -2.3396 2.5
      vertex -0.511462 -2.40624 -2.5
      vertex -0.760181 -2.3396 -2.5
    endloop
  endfacet
  facet normal 0.156431 0.987689 -0
    outer loop
      vertex -0.257139 -2.44652 -2.5
      vertex -0.511462 -2.40624 2.5
      vertex -0.257139 -2.44652 2.5
    endloop
  endfacet
  facet normal 0.156431 0.987689 0
    outer loop
      vertex -0.511462 -2.40624 2.5
      vertex -0.257139 -2.44652 -2.5
      vertex -0.511462 -2.40624 -2.5
    endloop
  endfacet
  facet normal 0.0523511 0.998629 -0
    outer loop
      vertex 0 -2.46 -2.5
      vertex -0.257139 -2.44652 2.5
      vertex 0 -2.46 2.5
    endloop
  endfacet
  facet normal 0.0523511 0.998629 0
    outer loop
      vertex -0.257139 -2.44652 2.5
      vertex 0 -2.46 -2.5
      vertex -0.257139 -2.44652 -2.5
    endloop
  endfacet
  facet normal 0.891007 0.453989 0
    outer loop
      vertex -2.13042 -1.23 2.5
      vertex -2.24732 -1.00057 -2.5
      vertex -2.24732 -1.00057 2.5
    endloop
  endfacet
  facet normal 0.891007 0.453989 0
    outer loop
      vertex -2.24732 -1.00057 -2.5
      vertex -2.13042 -1.23 2.5
      vertex -2.13042 -1.23 -2.5
    endloop
  endfacet
  facet normal 0.83867 0.54464 0
    outer loop
      vertex -1.99018 -1.44595 2.5
      vertex -2.13042 -1.23 -2.5
      vertex -2.13042 -1.23 2.5
    endloop
  endfacet
  facet normal 0.83867 0.54464 0
    outer loop
      vertex -2.13042 -1.23 -2.5
      vertex -1.99018 -1.44595 2.5
      vertex -1.99018 -1.44595 -2.5
    endloop
  endfacet
  facet normal 0.777157 0.629307 0
    outer loop
      vertex -1.82814 -1.64606 2.5
      vertex -1.99018 -1.44595 -2.5
      vertex -1.99018 -1.44595 2.5
    endloop
  endfacet
  facet normal 0.777157 0.629307 0
    outer loop
      vertex -1.99018 -1.44595 -2.5
      vertex -1.82814 -1.64606 2.5
      vertex -1.82814 -1.64606 -2.5
    endloop
  endfacet
  facet normal 0.54464 0.83867 -0
    outer loop
      vertex -1.23 -2.13042 -2.5
      vertex -1.44595 -1.99018 2.5
      vertex -1.23 -2.13042 2.5
    endloop
  endfacet
  facet normal 0.54464 0.83867 0
    outer loop
      vertex -1.44595 -1.99018 2.5
      vertex -1.23 -2.13042 -2.5
      vertex -1.44595 -1.99018 -2.5
    endloop
  endfacet
  facet normal 0.358379 0.933576 -0
    outer loop
      vertex -0.760181 -2.3396 -2.5
      vertex -1.00057 -2.24732 2.5
      vertex -0.760181 -2.3396 2.5
    endloop
  endfacet
  facet normal 0.358379 0.933576 0
    outer loop
      vertex -1.00057 -2.24732 2.5
      vertex -0.760181 -2.3396 -2.5
      vertex -1.00057 -2.24732 -2.5
    endloop
  endfacet
  facet normal 0.453989 0.891007 -0
    outer loop
      vertex -1.00057 -2.24732 -2.5
      vertex -1.23 -2.13042 2.5
      vertex -1.00057 -2.24732 2.5
    endloop
  endfacet
  facet normal 0.453989 0.891007 0
    outer loop
      vertex -1.23 -2.13042 2.5
      vertex -1.00057 -2.24732 -2.5
      vertex -1.23 -2.13042 -2.5
    endloop
  endfacet
endsolid OpenSCAD_Model
