solid OpenSCAD_Model
  facet normal -0 0 -1
    outer loop
      vertex 5.69757 -0.597646 -2.5
      vertex 5.60194 -1.10764 -2.5
      vertex 4.98039 1.17139 -2.5
    endloop
  endfacet
  facet normal -0 0 -1
    outer loop
      vertex 4.04009 -3.06792 -2.5
      vertex 2.79699 -3.54604 -2.5
      vertex 2.12762 -2.1595 -2.5
    endloop
  endfacet
  facet normal 0 0 -1
    outer loop
      vertex 5.34695 0.916391 -2.5
      vertex 5.90475 0.613583 -2.5
      vertex 5.69757 -0.597646 -2.5
    endloop
  endfacet
  facet normal 0 0 -1
    outer loop
      vertex 4.98039 1.17139 -2.5
      vertex 3.41854 1.74513 -2.5
      vertex 4.16759 1.64951 -2.5
    endloop
  endfacet
  facet normal 0 0 -1
    outer loop
      vertex 6.49443 -0.613583 -2.5
      vertex 6.44662 -0.772955 -2.5
      vertex 6.20756 -0.820767 -2.5
    endloop
  endfacet
  facet normal -0 -0 -1
    outer loop
      vertex 5.34695 0.916391 -2.5
      vertex 5.69757 -0.597646 -2.5
      vertex 4.98039 1.17139 -2.5
    endloop
  endfacet
  facet normal 0 0 -1
    outer loop
      vertex -4.99633 4.02416 -2.5
      vertex -5.47445 3.37073 -2.5
      vertex -5.25132 3.89666 -2.5
    endloop
  endfacet
  facet normal 0 -0 -1
    outer loop
      vertex 6.47849 -0.247026 -2.5
      vertex 6.49443 -0.613583 -2.5
      vertex 6.20756 -0.820767 -2.5
    endloop
  endfacet
  facet normal 0 0 -1
    outer loop
      vertex 5.69757 -0.597646 -2.5
      vertex 6.47849 -0.247026 -2.5
      vertex 6.20756 -0.820767 -2.5
    endloop
  endfacet
  facet normal 0 0 -1
    outer loop
      vertex 5.69757 -0.597646 -2.5
      vertex 6.27131 0.215152 -2.5
      vertex 6.47849 -0.247026 -2.5
    endloop
  endfacet
  facet normal 0 0 -1
    outer loop
      vertex 5.69757 -0.597646 -2.5
      vertex 5.90475 0.613583 -2.5
      vertex 6.27131 0.215152 -2.5
    endloop
  endfacet
  facet normal 0 0 -1
    outer loop
      vertex 4.98039 1.17139 -2.5
      vertex 4.16759 1.64951 -2.5
      vertex 4.61384 1.50607 -2.5
    endloop
  endfacet
  facet normal 0 0 -1
    outer loop
      vertex 2.12762 -2.1595 -2.5
      vertex 3.41854 1.74513 -2.5
      vertex 4.98039 1.17139 -2.5
    endloop
  endfacet
  facet normal -0 0 -1
    outer loop
      vertex 5.60194 -1.10764 -2.5
      vertex 2.12762 -2.1595 -2.5
      vertex 4.98039 1.17139 -2.5
    endloop
  endfacet
  facet normal 0 0 -1
    outer loop
      vertex 2.12762 -2.1595 -2.5
      vertex 1.20326 1.56982 -2.5
      vertex 2.04794 1.64951 -2.5
    endloop
  endfacet
  facet normal 0 -0 -1
    outer loop
      vertex -4.99633 4.02416 -2.5
      vertex -4.64571 2.12762 -2.5
      vertex -5.47445 3.37073 -2.5
    endloop
  endfacet
  facet normal 0 0 -1
    outer loop
      vertex 3.41854 1.74513 -2.5
      vertex 2.12762 -2.1595 -2.5
      vertex 2.04794 1.64951 -2.5
    endloop
  endfacet
  facet normal 0 0 -1
    outer loop
      vertex -2.89261 3.54604 -2.5
      vertex -3.86478 4.24728 -2.5
      vertex -2.94042 3.97634 -2.5
    endloop
  endfacet
  facet normal -0 0 -1
    outer loop
      vertex 1.20326 1.56982 -2.5
      vertex 0.932329 -2.19137 -2.5
      vertex 0.725145 1.56982 -2.5
    endloop
  endfacet
  facet normal 0 -0 -1
    outer loop
      vertex -4.61384 4.26322 -2.5
      vertex -3.86478 4.24728 -2.5
      vertex -4.99633 4.02416 -2.5
    endloop
  endfacet
  facet normal 0 0 -1
    outer loop
      vertex -0.16734 -1.93638 -2.5
      vertex -0.135466 1.777 -2.5
      vertex 0.262964 1.68138 -2.5
    endloop
  endfacet
  facet normal 0 0 -1
    outer loop
      vertex -0.16734 -1.93638 -2.5
      vertex -0.613583 1.82482 -2.5
      vertex -0.135466 1.777 -2.5
    endloop
  endfacet
  facet normal 0 0 -1
    outer loop
      vertex -2.12762 -1.87263 -2.5
      vertex -2.82886 -1.23514 -2.5
      vertex -1.07576 1.84075 -2.5
    endloop
  endfacet
  facet normal 0 0 -1
    outer loop
      vertex -0.16734 -1.93638 -2.5
      vertex -2.12762 -1.87263 -2.5
      vertex -1.07576 1.84075 -2.5
    endloop
  endfacet
  facet normal 0 0 -1
    outer loop
      vertex -1.07576 1.84075 -2.5
      vertex -1.9045 1.71325 -2.5
      vertex -1.777 1.76107 -2.5
    endloop
  endfacet
  facet normal 0 0 -1
    outer loop
      vertex -2.82886 -1.23514 -2.5
      vertex -3.75322 -0.103592 -2.5
      vertex -1.9045 1.71325 -2.5
    endloop
  endfacet
  facet normal 0 0 -1
    outer loop
      vertex -1.07576 1.84075 -2.5
      vertex -2.82886 -1.23514 -2.5
      vertex -1.9045 1.71325 -2.5
    endloop
  endfacet
  facet normal 0 0 -1
    outer loop
      vertex -0.16734 -1.93638 -2.5
      vertex -1.07576 1.84075 -2.5
      vertex -0.613583 1.82482 -2.5
    endloop
  endfacet
  facet normal 0 0 -1
    outer loop
      vertex -1.53794 5.69757 -2.5
      vertex -1.58576 6.15975 -2.5
      vertex -0.900455 6.20756 -2.5
    endloop
  endfacet
  facet normal 0 0 -1
    outer loop
      vertex -3.86478 4.24728 -2.5
      vertex -2.8448 4.61384 -2.5
      vertex -2.8448 4.23134 -2.5
    endloop
  endfacet
  facet normal 0 0 -1
    outer loop
      vertex -2.94042 3.97634 -2.5
      vertex -3.86478 4.24728 -2.5
      vertex -2.8448 4.23134 -2.5
    endloop
  endfacet
  facet normal 0 0 -1
    outer loop
      vertex -3.84885 5.50632 -2.5
      vertex -3.11573 5.69757 -2.5
      vertex -3.51416 4.9007 -2.5
    endloop
  endfacet
  facet normal 0 0 -1
    outer loop
      vertex -1.53794 5.69757 -2.5
      vertex -2.31887 5.90475 -2.5
      vertex -1.58576 6.15975 -2.5
    endloop
  endfacet
  facet normal 0 0 -1
    outer loop
      vertex -2.04794 5.34695 -2.5
      vertex -2.31887 5.90475 -2.5
      vertex -1.53794 5.69757 -2.5
    endloop
  endfacet
  facet normal 0 0 -1
    outer loop
      vertex -0.645457 6.44662 -2.5
      vertex -0.900455 6.20756 -2.5
      vertex -1.58576 6.15975 -2.5
    endloop
  endfacet
  facet normal -0 0 -1
    outer loop
      vertex -2.04794 5.34695 -2.5
      vertex -2.57387 5.17164 -2.5
      vertex -2.31887 5.90475 -2.5
    endloop
  endfacet
  facet normal 0 0 -1
    outer loop
      vertex -2.31887 5.90475 -2.5
      vertex -2.57387 5.17164 -2.5
      vertex -3.11573 5.69757 -2.5
    endloop
  endfacet
  facet normal 0 0 -1
    outer loop
      vertex -3.11573 5.69757 -2.5
      vertex -2.57387 5.17164 -2.5
      vertex -3.02011 5.0282 -2.5
    endloop
  endfacet
  facet normal 0 0 -1
    outer loop
      vertex -3.51416 4.9007 -2.5
      vertex -3.11573 5.69757 -2.5
      vertex -3.02011 5.0282 -2.5
    endloop
  endfacet
  facet normal 0 0 -1
    outer loop
      vertex -4.32696 5.13976 -2.5
      vertex -3.84885 5.50632 -2.5
      vertex -3.51416 4.9007 -2.5
    endloop
  endfacet
  facet normal 0 0 -1
    outer loop
      vertex -3.86478 4.24728 -2.5
      vertex -4.32696 5.13976 -2.5
      vertex -3.51416 4.9007 -2.5
    endloop
  endfacet
  facet normal 0 0 -1
    outer loop
      vertex -3.86478 4.24728 -2.5
      vertex -4.61384 4.26322 -2.5
      vertex -4.32696 5.13976 -2.5
    endloop
  endfacet
  facet normal 0 0 -1
    outer loop
      vertex -3.86478 4.24728 -2.5
      vertex -4.64571 2.12762 -2.5
      vertex -4.99633 4.02416 -2.5
    endloop
  endfacet
  facet normal 0 -0 -1
    outer loop
      vertex -5.47445 3.37073 -2.5
      vertex -4.64571 2.12762 -2.5
      vertex -6.15975 2.12762 -2.5
    endloop
  endfacet
  facet normal 0 -0 -1
    outer loop
      vertex -6.14381 3.02011 -2.5
      vertex -5.47445 3.37073 -2.5
      vertex -6.15975 2.12762 -2.5
    endloop
  endfacet
  facet normal 0 0 -1
    outer loop
      vertex -6.49443 2.92449 -2.5
      vertex -6.14381 3.02011 -2.5
      vertex -6.15975 2.12762 -2.5
    endloop
  endfacet
  facet normal 0 -0 -1
    outer loop
      vertex -3.86478 4.24728 -2.5
      vertex -2.89261 3.54604 -2.5
      vertex -4.64571 2.12762 -2.5
    endloop
  endfacet
  facet normal 0 0 -1
    outer loop
      vertex -3.75322 -0.103592 -2.5
      vertex -4.64571 2.12762 -2.5
      vertex -1.9045 1.71325 -2.5
    endloop
  endfacet
  facet normal 0 0 -1
    outer loop
      vertex -4.64571 2.12762 -2.5
      vertex -2.89261 3.54604 -2.5
      vertex -1.9045 1.71325 -2.5
    endloop
  endfacet
  facet normal -0 0 -1
    outer loop
      vertex -0.16734 -1.93638 -2.5
      vertex -0.645457 -3.33885 -2.5
      vertex -2.12762 -1.87263 -2.5
    endloop
  endfacet
  facet normal 0 -0 -1
    outer loop
      vertex 0.725145 1.56982 -2.5
      vertex 0.932329 -2.19137 -2.5
      vertex -0.16734 -1.93638 -2.5
    endloop
  endfacet
  facet normal 0 0 -1
    outer loop
      vertex -2.09575 -6.41474 -2.5
      vertex -2.12762 -1.87263 -2.5
      vertex -0.645457 -3.33885 -2.5
    endloop
  endfacet
  facet normal 0 0 -1
    outer loop
      vertex -0.661395 -6.43068 -2.5
      vertex -2.09575 -6.41474 -2.5
      vertex -0.645457 -3.33885 -2.5
    endloop
  endfacet
  facet normal 0 0 -1
    outer loop
      vertex 5.4107 -1.76107 -2.5
      vertex 5.10789 -2.43043 -2.5
      vertex 4.04009 -3.06792 -2.5
    endloop
  endfacet
  facet normal 0 -0 -1
    outer loop
      vertex 1.20326 1.56982 -2.5
      vertex 2.12762 -2.1595 -2.5
      vertex 0.932329 -2.19137 -2.5
    endloop
  endfacet
  facet normal -0 0 -1
    outer loop
      vertex 0.725145 1.56982 -2.5
      vertex -0.16734 -1.93638 -2.5
      vertex 0.262964 1.68138 -2.5
    endloop
  endfacet
  facet normal 0 0 -1
    outer loop
      vertex 5.4107 -1.76107 -2.5
      vertex 4.04009 -3.06792 -2.5
      vertex 2.12762 -2.1595 -2.5
    endloop
  endfacet
  facet normal -0 0 -1
    outer loop
      vertex 5.4107 -1.76107 -2.5
      vertex 2.12762 -2.1595 -2.5
      vertex 5.60194 -1.10764 -2.5
    endloop
  endfacet
  facet normal 0 0 -1
    outer loop
      vertex 5.10789 -2.43043 -2.5
      vertex 4.61384 -3.75322 -2.5
      vertex 4.04009 -3.06792 -2.5
    endloop
  endfacet
  facet normal 0 0 -1
    outer loop
      vertex 2.11169 -6.43068 -2.5
      vertex 2.79699 -3.54604 -2.5
      vertex 3.00417 -6.44662 -2.5
    endloop
  endfacet
  facet normal 0 0 -1
    outer loop
      vertex 2.79699 -3.54604 -2.5
      vertex 3.54604 -3.81697 -2.5
      vertex 3.00417 -6.44662 -2.5
    endloop
  endfacet
  facet normal 0 -0 -1
    outer loop
      vertex 5.10789 -2.43043 -2.5
      vertex 5.64976 -3.4026 -2.5
      vertex 4.61384 -3.75322 -2.5
    endloop
  endfacet
  facet normal 0 0 -1
    outer loop
      vertex 2.79699 -3.54604 -2.5
      vertex 4.04009 -3.06792 -2.5
      vertex 3.54604 -3.81697 -2.5
    endloop
  endfacet
  facet normal 0 0 -1
    outer loop
      vertex 4.61384 -3.75322 -2.5
      vertex 5.64976 -3.4026 -2.5
      vertex 4.62977 -6.44662 -2.5
    endloop
  endfacet
  facet normal 0 0 -1
    outer loop
      vertex 4.62977 -6.44662 -2.5
      vertex 3.76916 -6.44662 -2.5
      vertex 4.61384 -3.75322 -2.5
    endloop
  endfacet
  facet normal 0 0 1
    outer loop
      vertex 4.98039 1.17139 2.5
      vertex 5.60194 -1.10764 2.5
      vertex 5.69757 -0.597646 2.5
    endloop
  endfacet
  facet normal 0 0 1
    outer loop
      vertex 2.12762 -2.1595 2.5
      vertex 2.79699 -3.54604 2.5
      vertex 4.04009 -3.06792 2.5
    endloop
  endfacet
  facet normal 0 -0 1
    outer loop
      vertex 5.69757 -0.597646 2.5
      vertex 5.90475 0.613583 2.5
      vertex 5.34695 0.916391 2.5
    endloop
  endfacet
  facet normal 0 0 1
    outer loop
      vertex 4.16759 1.64951 2.5
      vertex 3.41854 1.74513 2.5
      vertex 4.98039 1.17139 2.5
    endloop
  endfacet
  facet normal 0 0 1
    outer loop
      vertex 6.20756 -0.820767 2.5
      vertex 6.44662 -0.772955 2.5
      vertex 6.49443 -0.613583 2.5
    endloop
  endfacet
  facet normal 0 0 1
    outer loop
      vertex 4.98039 1.17139 2.5
      vertex 5.69757 -0.597646 2.5
      vertex 5.34695 0.916391 2.5
    endloop
  endfacet
  facet normal -0 0 1
    outer loop
      vertex -5.25132 3.89666 2.5
      vertex -5.47445 3.37073 2.5
      vertex -4.99633 4.02416 2.5
    endloop
  endfacet
  facet normal 0 0 1
    outer loop
      vertex 6.20756 -0.820767 2.5
      vertex 6.49443 -0.613583 2.5
      vertex 6.47849 -0.247026 2.5
    endloop
  endfacet
  facet normal 0 -0 1
    outer loop
      vertex 6.20756 -0.820767 2.5
      vertex 6.47849 -0.247026 2.5
      vertex 5.69757 -0.597646 2.5
    endloop
  endfacet
  facet normal 0 0 1
    outer loop
      vertex 6.47849 -0.247026 2.5
      vertex 6.27131 0.215152 2.5
      vertex 5.69757 -0.597646 2.5
    endloop
  endfacet
  facet normal 0 0 1
    outer loop
      vertex 6.27131 0.215152 2.5
      vertex 5.90475 0.613583 2.5
      vertex 5.69757 -0.597646 2.5
    endloop
  endfacet
  facet normal 0 0 1
    outer loop
      vertex 4.61384 1.50607 2.5
      vertex 4.16759 1.64951 2.5
      vertex 4.98039 1.17139 2.5
    endloop
  endfacet
  facet normal 0 0 1
    outer loop
      vertex 4.98039 1.17139 2.5
      vertex 3.41854 1.74513 2.5
      vertex 2.12762 -2.1595 2.5
    endloop
  endfacet
  facet normal 0 0 1
    outer loop
      vertex 4.98039 1.17139 2.5
      vertex 2.12762 -2.1595 2.5
      vertex 5.60194 -1.10764 2.5
    endloop
  endfacet
  facet normal 0 0 1
    outer loop
      vertex 2.04794 1.64951 2.5
      vertex 1.20326 1.56982 2.5
      vertex 2.12762 -2.1595 2.5
    endloop
  endfacet
  facet normal -0 0 1
    outer loop
      vertex -5.47445 3.37073 2.5
      vertex -4.64571 2.12762 2.5
      vertex -4.99633 4.02416 2.5
    endloop
  endfacet
  facet normal -0 0 1
    outer loop
      vertex 2.04794 1.64951 2.5
      vertex 2.12762 -2.1595 2.5
      vertex 3.41854 1.74513 2.5
    endloop
  endfacet
  facet normal 0 0 1
    outer loop
      vertex -2.94042 3.97634 2.5
      vertex -3.86478 4.24728 2.5
      vertex -2.89261 3.54604 2.5
    endloop
  endfacet
  facet normal -0 0 1
    outer loop
      vertex 0.725145 1.56982 2.5
      vertex 0.932329 -2.19137 2.5
      vertex 1.20326 1.56982 2.5
    endloop
  endfacet
  facet normal 0 0 1
    outer loop
      vertex -4.99633 4.02416 2.5
      vertex -3.86478 4.24728 2.5
      vertex -4.61384 4.26322 2.5
    endloop
  endfacet
  facet normal 0 0 1
    outer loop
      vertex 0.262964 1.68138 2.5
      vertex -0.135466 1.777 2.5
      vertex -0.16734 -1.93638 2.5
    endloop
  endfacet
  facet normal 0 0 1
    outer loop
      vertex -0.135466 1.777 2.5
      vertex -0.613583 1.82482 2.5
      vertex -0.16734 -1.93638 2.5
    endloop
  endfacet
  facet normal 0 0 1
    outer loop
      vertex -1.07576 1.84075 2.5
      vertex -2.82886 -1.23514 2.5
      vertex -2.12762 -1.87263 2.5
    endloop
  endfacet
  facet normal 0 0 1
    outer loop
      vertex -1.07576 1.84075 2.5
      vertex -2.12762 -1.87263 2.5
      vertex -0.16734 -1.93638 2.5
    endloop
  endfacet
  facet normal -0 0 1
    outer loop
      vertex -1.777 1.76107 2.5
      vertex -1.9045 1.71325 2.5
      vertex -1.07576 1.84075 2.5
    endloop
  endfacet
  facet normal 0 0 1
    outer loop
      vertex -1.9045 1.71325 2.5
      vertex -3.75322 -0.103592 2.5
      vertex -2.82886 -1.23514 2.5
    endloop
  endfacet
  facet normal -0 0 1
    outer loop
      vertex -1.9045 1.71325 2.5
      vertex -2.82886 -1.23514 2.5
      vertex -1.07576 1.84075 2.5
    endloop
  endfacet
  facet normal 0 0 1
    outer loop
      vertex -0.613583 1.82482 2.5
      vertex -1.07576 1.84075 2.5
      vertex -0.16734 -1.93638 2.5
    endloop
  endfacet
  facet normal 0 0 1
    outer loop
      vertex -0.900455 6.20756 2.5
      vertex -1.58576 6.15975 2.5
      vertex -1.53794 5.69757 2.5
    endloop
  endfacet
  facet normal 0 -0 1
    outer loop
      vertex -2.8448 4.23134 2.5
      vertex -2.8448 4.61384 2.5
      vertex -3.86478 4.24728 2.5
    endloop
  endfacet
  facet normal 0 0 1
    outer loop
      vertex -2.8448 4.23134 2.5
      vertex -3.86478 4.24728 2.5
      vertex -2.94042 3.97634 2.5
    endloop
  endfacet
  facet normal 0 -0 1
    outer loop
      vertex -3.51416 4.9007 2.5
      vertex -3.11573 5.69757 2.5
      vertex -3.84885 5.50632 2.5
    endloop
  endfacet
  facet normal 0 0 1
    outer loop
      vertex -1.58576 6.15975 2.5
      vertex -2.31887 5.90475 2.5
      vertex -1.53794 5.69757 2.5
    endloop
  endfacet
  facet normal 0 0 1
    outer loop
      vertex -1.53794 5.69757 2.5
      vertex -2.31887 5.90475 2.5
      vertex -2.04794 5.34695 2.5
    endloop
  endfacet
  facet normal 0 0 1
    outer loop
      vertex -1.58576 6.15975 2.5
      vertex -0.900455 6.20756 2.5
      vertex -0.645457 6.44662 2.5
    endloop
  endfacet
  facet normal 0 0 1
    outer loop
      vertex -2.31887 5.90475 2.5
      vertex -2.57387 5.17164 2.5
      vertex -2.04794 5.34695 2.5
    endloop
  endfacet
  facet normal -0 0 1
    outer loop
      vertex -3.11573 5.69757 2.5
      vertex -2.57387 5.17164 2.5
      vertex -2.31887 5.90475 2.5
    endloop
  endfacet
  facet normal 0 -0 1
    outer loop
      vertex -3.02011 5.0282 2.5
      vertex -2.57387 5.17164 2.5
      vertex -3.11573 5.69757 2.5
    endloop
  endfacet
  facet normal 0 0 1
    outer loop
      vertex -3.02011 5.0282 2.5
      vertex -3.11573 5.69757 2.5
      vertex -3.51416 4.9007 2.5
    endloop
  endfacet
  facet normal 0 0 1
    outer loop
      vertex -3.51416 4.9007 2.5
      vertex -3.84885 5.50632 2.5
      vertex -4.32696 5.13976 2.5
    endloop
  endfacet
  facet normal 0 0 1
    outer loop
      vertex -3.51416 4.9007 2.5
      vertex -4.32696 5.13976 2.5
      vertex -3.86478 4.24728 2.5
    endloop
  endfacet
  facet normal 0 0 1
    outer loop
      vertex -4.32696 5.13976 2.5
      vertex -4.61384 4.26322 2.5
      vertex -3.86478 4.24728 2.5
    endloop
  endfacet
  facet normal -0 0 1
    outer loop
      vertex -4.99633 4.02416 2.5
      vertex -4.64571 2.12762 2.5
      vertex -3.86478 4.24728 2.5
    endloop
  endfacet
  facet normal 0 0 1
    outer loop
      vertex -6.15975 2.12762 2.5
      vertex -4.64571 2.12762 2.5
      vertex -5.47445 3.37073 2.5
    endloop
  endfacet
  facet normal 0 0 1
    outer loop
      vertex -6.15975 2.12762 2.5
      vertex -5.47445 3.37073 2.5
      vertex -6.14381 3.02011 2.5
    endloop
  endfacet
  facet normal 0 -0 1
    outer loop
      vertex -6.15975 2.12762 2.5
      vertex -6.14381 3.02011 2.5
      vertex -6.49443 2.92449 2.5
    endloop
  endfacet
  facet normal 0 0 1
    outer loop
      vertex -4.64571 2.12762 2.5
      vertex -2.89261 3.54604 2.5
      vertex -3.86478 4.24728 2.5
    endloop
  endfacet
  facet normal 0 0 1
    outer loop
      vertex -1.9045 1.71325 2.5
      vertex -4.64571 2.12762 2.5
      vertex -3.75322 -0.103592 2.5
    endloop
  endfacet
  facet normal 0 0 1
    outer loop
      vertex -1.9045 1.71325 2.5
      vertex -2.89261 3.54604 2.5
      vertex -4.64571 2.12762 2.5
    endloop
  endfacet
  facet normal 0 0 1
    outer loop
      vertex -2.12762 -1.87263 2.5
      vertex -0.645457 -3.33885 2.5
      vertex -0.16734 -1.93638 2.5
    endloop
  endfacet
  facet normal -0 0 1
    outer loop
      vertex -0.16734 -1.93638 2.5
      vertex 0.932329 -2.19137 2.5
      vertex 0.725145 1.56982 2.5
    endloop
  endfacet
  facet normal 0 0 1
    outer loop
      vertex -0.645457 -3.33885 2.5
      vertex -2.12762 -1.87263 2.5
      vertex -2.09575 -6.41474 2.5
    endloop
  endfacet
  facet normal 0 0 1
    outer loop
      vertex -0.645457 -3.33885 2.5
      vertex -2.09575 -6.41474 2.5
      vertex -0.661395 -6.43068 2.5
    endloop
  endfacet
  facet normal 0 0 1
    outer loop
      vertex 4.04009 -3.06792 2.5
      vertex 5.10789 -2.43043 2.5
      vertex 5.4107 -1.76107 2.5
    endloop
  endfacet
  facet normal 0 0 1
    outer loop
      vertex 0.932329 -2.19137 2.5
      vertex 2.12762 -2.1595 2.5
      vertex 1.20326 1.56982 2.5
    endloop
  endfacet
  facet normal 0 0 1
    outer loop
      vertex 0.262964 1.68138 2.5
      vertex -0.16734 -1.93638 2.5
      vertex 0.725145 1.56982 2.5
    endloop
  endfacet
  facet normal -0 0 1
    outer loop
      vertex 2.12762 -2.1595 2.5
      vertex 4.04009 -3.06792 2.5
      vertex 5.4107 -1.76107 2.5
    endloop
  endfacet
  facet normal 0 0 1
    outer loop
      vertex 5.60194 -1.10764 2.5
      vertex 2.12762 -2.1595 2.5
      vertex 5.4107 -1.76107 2.5
    endloop
  endfacet
  facet normal -0 0 1
    outer loop
      vertex 4.04009 -3.06792 2.5
      vertex 4.61384 -3.75322 2.5
      vertex 5.10789 -2.43043 2.5
    endloop
  endfacet
  facet normal 0 0 1
    outer loop
      vertex 3.00417 -6.44662 2.5
      vertex 2.79699 -3.54604 2.5
      vertex 2.11169 -6.43068 2.5
    endloop
  endfacet
  facet normal 0 -0 1
    outer loop
      vertex 3.00417 -6.44662 2.5
      vertex 3.54604 -3.81697 2.5
      vertex 2.79699 -3.54604 2.5
    endloop
  endfacet
  facet normal 0 0 1
    outer loop
      vertex 4.61384 -3.75322 2.5
      vertex 5.64976 -3.4026 2.5
      vertex 5.10789 -2.43043 2.5
    endloop
  endfacet
  facet normal 0 -0 1
    outer loop
      vertex 3.54604 -3.81697 2.5
      vertex 4.04009 -3.06792 2.5
      vertex 2.79699 -3.54604 2.5
    endloop
  endfacet
  facet normal 0 -0 1
    outer loop
      vertex 4.62977 -6.44662 2.5
      vertex 5.64976 -3.4026 2.5
      vertex 4.61384 -3.75322 2.5
    endloop
  endfacet
  facet normal 0 0 1
    outer loop
      vertex 4.61384 -3.75322 2.5
      vertex 3.76916 -6.44662 2.5
      vertex 4.62977 -6.44662 2.5
    endloop
  endfacet
  facet normal 0.873479 0.486862 0
    outer loop
      vertex 5.10789 -2.43043 -2.5
      vertex 5.64976 -3.4026 2.5
      vertex 5.64976 -3.4026 -2.5
    endloop
  endfacet
  facet normal 0.873479 0.486862 -0
    outer loop
      vertex 5.10789 -2.43043 -2.5
      vertex 5.10789 -2.43043 2.5
      vertex 5.64976 -3.4026 2.5
    endloop
  endfacet
  facet normal 0.911106 -0.412173 0
    outer loop
      vertex 5.4107 -1.76107 -2.5
      vertex 5.10789 -2.43043 2.5
      vertex 5.10789 -2.43043 -2.5
    endloop
  endfacet
  facet normal 0.911106 -0.412173 0
    outer loop
      vertex 5.4107 -1.76107 -2.5
      vertex 5.4107 -1.76107 2.5
      vertex 5.10789 -2.43043 2.5
    endloop
  endfacet
  facet normal 0.95974 -0.280888 0
    outer loop
      vertex 5.60194 -1.10764 -2.5
      vertex 5.4107 -1.76107 2.5
      vertex 5.4107 -1.76107 -2.5
    endloop
  endfacet
  facet normal 0.95974 -0.280888 0
    outer loop
      vertex 5.60194 -1.10764 -2.5
      vertex 5.60194 -1.10764 2.5
      vertex 5.4107 -1.76107 2.5
    endloop
  endfacet
  facet normal 0.98287 -0.1843 0
    outer loop
      vertex 5.69757 -0.597646 -2.5
      vertex 5.60194 -1.10764 2.5
      vertex 5.60194 -1.10764 -2.5
    endloop
  endfacet
  facet normal 0.98287 -0.1843 0
    outer loop
      vertex 5.69757 -0.597646 -2.5
      vertex 5.69757 -0.597646 2.5
      vertex 5.60194 -1.10764 2.5
    endloop
  endfacet
  facet normal -0.400819 -0.916157 0
    outer loop
      vertex 6.20756 -0.820767 -2.5
      vertex 5.69757 -0.597646 2.5
      vertex 5.69757 -0.597646 -2.5
    endloop
  endfacet
  facet normal -0.400819 -0.916157 0
    outer loop
      vertex 6.20756 -0.820767 -2.5
      vertex 6.20756 -0.820767 2.5
      vertex 5.69757 -0.597646 2.5
    endloop
  endfacet
  facet normal 0.196116 -0.980581 0
    outer loop
      vertex 6.44662 -0.772955 -2.5
      vertex 6.20756 -0.820767 2.5
      vertex 6.20756 -0.820767 -2.5
    endloop
  endfacet
  facet normal 0.196116 -0.980581 0
    outer loop
      vertex 6.44662 -0.772955 -2.5
      vertex 6.44662 -0.772955 2.5
      vertex 6.20756 -0.820767 2.5
    endloop
  endfacet
  facet normal 0.957829 -0.287339 0
    outer loop
      vertex 6.49443 -0.613583 -2.5
      vertex 6.44662 -0.772955 2.5
      vertex 6.44662 -0.772955 -2.5
    endloop
  endfacet
  facet normal 0.957829 -0.287339 0
    outer loop
      vertex 6.49443 -0.613583 -2.5
      vertex 6.49443 -0.613583 2.5
      vertex 6.44662 -0.772955 2.5
    endloop
  endfacet
  facet normal 0.999056 0.0434447 0
    outer loop
      vertex 6.47849 -0.247026 -2.5
      vertex 6.49443 -0.613583 2.5
      vertex 6.49443 -0.613583 -2.5
    endloop
  endfacet
  facet normal 0.999056 0.0434447 -0
    outer loop
      vertex 6.47849 -0.247026 -2.5
      vertex 6.47849 -0.247026 2.5
      vertex 6.49443 -0.613583 2.5
    endloop
  endfacet
  facet normal 0.912512 0.409051 0
    outer loop
      vertex 6.27131 0.215152 -2.5
      vertex 6.47849 -0.247026 2.5
      vertex 6.47849 -0.247026 -2.5
    endloop
  endfacet
  facet normal 0.912512 0.409051 -0
    outer loop
      vertex 6.27131 0.215152 -2.5
      vertex 6.27131 0.215152 2.5
      vertex 6.47849 -0.247026 2.5
    endloop
  endfacet
  facet normal 0.735928 0.67706 0
    outer loop
      vertex 5.90475 0.613583 -2.5
      vertex 6.27131 0.215152 2.5
      vertex 6.27131 0.215152 -2.5
    endloop
  endfacet
  facet normal 0.735928 0.67706 -0
    outer loop
      vertex 5.90475 0.613583 -2.5
      vertex 5.90475 0.613583 2.5
      vertex 6.27131 0.215152 2.5
    endloop
  endfacet
  facet normal 0.477095 0.878852 0
    outer loop
      vertex 5.34695 0.916391 -2.5
      vertex 5.90475 0.613583 2.5
      vertex 5.90475 0.613583 -2.5
    endloop
  endfacet
  facet normal 0.477095 0.878852 -0
    outer loop
      vertex 5.34695 0.916391 -2.5
      vertex 5.34695 0.916391 2.5
      vertex 5.90475 0.613583 2.5
    endloop
  endfacet
  facet normal 0.571066 0.820904 0
    outer loop
      vertex 4.98039 1.17139 -2.5
      vertex 5.34695 0.916391 2.5
      vertex 5.34695 0.916391 -2.5
    endloop
  endfacet
  facet normal 0.571066 0.820904 -0
    outer loop
      vertex 4.98039 1.17139 -2.5
      vertex 4.98039 1.17139 2.5
      vertex 5.34695 0.916391 2.5
    endloop
  endfacet
  facet normal 0.674274 0.738482 0
    outer loop
      vertex 4.61384 1.50607 -2.5
      vertex 4.98039 1.17139 2.5
      vertex 4.98039 1.17139 -2.5
    endloop
  endfacet
  facet normal 0.674274 0.738482 -0
    outer loop
      vertex 4.61384 1.50607 -2.5
      vertex 4.61384 1.50607 2.5
      vertex 4.98039 1.17139 2.5
    endloop
  endfacet
  facet normal 0.306014 0.952027 0
    outer loop
      vertex 4.16759 1.64951 -2.5
      vertex 4.61384 1.50607 2.5
      vertex 4.61384 1.50607 -2.5
    endloop
  endfacet
  facet normal 0.306014 0.952027 -0
    outer loop
      vertex 4.16759 1.64951 -2.5
      vertex 4.16759 1.64951 2.5
      vertex 4.61384 1.50607 2.5
    endloop
  endfacet
  facet normal 0.126627 0.99195 0
    outer loop
      vertex 3.41854 1.74513 -2.5
      vertex 4.16759 1.64951 2.5
      vertex 4.16759 1.64951 -2.5
    endloop
  endfacet
  facet normal 0.126627 0.99195 -0
    outer loop
      vertex 3.41854 1.74513 -2.5
      vertex 3.41854 1.74513 2.5
      vertex 4.16759 1.64951 2.5
    endloop
  endfacet
  facet normal -0.0695959 0.997575 0
    outer loop
      vertex 2.04794 1.64951 -2.5
      vertex 3.41854 1.74513 2.5
      vertex 3.41854 1.74513 -2.5
    endloop
  endfacet
  facet normal -0.0695959 0.997575 0
    outer loop
      vertex 2.04794 1.64951 -2.5
      vertex 2.04794 1.64951 2.5
      vertex 3.41854 1.74513 2.5
    endloop
  endfacet
  facet normal -0.0939263 0.995579 0
    outer loop
      vertex 1.20326 1.56982 -2.5
      vertex 2.04794 1.64951 2.5
      vertex 2.04794 1.64951 -2.5
    endloop
  endfacet
  facet normal -0.0939263 0.995579 0
    outer loop
      vertex 1.20326 1.56982 -2.5
      vertex 1.20326 1.56982 2.5
      vertex 2.04794 1.64951 2.5
    endloop
  endfacet
  facet normal 0 1 0
    outer loop
      vertex 0.725145 1.56982 -2.5
      vertex 1.20326 1.56982 2.5
      vertex 1.20326 1.56982 -2.5
    endloop
  endfacet
  facet normal 0 1 0
    outer loop
      vertex 0.725145 1.56982 -2.5
      vertex 0.725145 1.56982 2.5
      vertex 1.20326 1.56982 2.5
    endloop
  endfacet
  facet normal 0.234639 0.972083 0
    outer loop
      vertex 0.262964 1.68138 -2.5
      vertex 0.725145 1.56982 2.5
      vertex 0.725145 1.56982 -2.5
    endloop
  endfacet
  facet normal 0.234639 0.972083 -0
    outer loop
      vertex 0.262964 1.68138 -2.5
      vertex 0.262964 1.68138 2.5
      vertex 0.725145 1.56982 2.5
    endloop
  endfacet
  facet normal 0.233366 0.972389 0
    outer loop
      vertex -0.135466 1.777 -2.5
      vertex 0.262964 1.68138 2.5
      vertex 0.262964 1.68138 -2.5
    endloop
  endfacet
  facet normal 0.233366 0.972389 -0
    outer loop
      vertex -0.135466 1.777 -2.5
      vertex -0.135466 1.777 2.5
      vertex 0.262964 1.68138 2.5
    endloop
  endfacet
  facet normal 0.0995208 0.995035 0
    outer loop
      vertex -0.613583 1.82482 -2.5
      vertex -0.135466 1.777 2.5
      vertex -0.135466 1.777 -2.5
    endloop
  endfacet
  facet normal 0.0995208 0.995035 -0
    outer loop
      vertex -0.613583 1.82482 -2.5
      vertex -0.613583 1.82482 2.5
      vertex -0.135466 1.777 2.5
    endloop
  endfacet
  facet normal 0.0344469 0.999407 0
    outer loop
      vertex -1.07576 1.84075 -2.5
      vertex -0.613583 1.82482 2.5
      vertex -0.613583 1.82482 -2.5
    endloop
  endfacet
  facet normal 0.0344469 0.999407 -0
    outer loop
      vertex -1.07576 1.84075 -2.5
      vertex -1.07576 1.84075 2.5
      vertex -0.613583 1.82482 2.5
    endloop
  endfacet
  facet normal -0.112901 0.993606 0
    outer loop
      vertex -1.777 1.76107 -2.5
      vertex -1.07576 1.84075 2.5
      vertex -1.07576 1.84075 -2.5
    endloop
  endfacet
  facet normal -0.112901 0.993606 0
    outer loop
      vertex -1.777 1.76107 -2.5
      vertex -1.777 1.76107 2.5
      vertex -1.07576 1.84075 2.5
    endloop
  endfacet
  facet normal -0.351172 0.936311 0
    outer loop
      vertex -1.9045 1.71325 -2.5
      vertex -1.777 1.76107 2.5
      vertex -1.777 1.76107 -2.5
    endloop
  endfacet
  facet normal -0.351172 0.936311 0
    outer loop
      vertex -1.9045 1.71325 -2.5
      vertex -1.9045 1.71325 2.5
      vertex -1.777 1.76107 2.5
    endloop
  endfacet
  facet normal 0.880226 0.474555 0
    outer loop
      vertex -2.89261 3.54604 -2.5
      vertex -1.9045 1.71325 2.5
      vertex -1.9045 1.71325 -2.5
    endloop
  endfacet
  facet normal 0.880226 0.474555 -0
    outer loop
      vertex -2.89261 3.54604 -2.5
      vertex -2.89261 3.54604 2.5
      vertex -1.9045 1.71325 2.5
    endloop
  endfacet
  facet normal 0.993884 0.110429 0
    outer loop
      vertex -2.94042 3.97634 -2.5
      vertex -2.89261 3.54604 2.5
      vertex -2.89261 3.54604 -2.5
    endloop
  endfacet
  facet normal 0.993884 0.110429 -0
    outer loop
      vertex -2.94042 3.97634 -2.5
      vertex -2.94042 3.97634 2.5
      vertex -2.89261 3.54604 2.5
    endloop
  endfacet
  facet normal 0.936335 -0.351107 0
    outer loop
      vertex -2.8448 4.23134 -2.5
      vertex -2.94042 3.97634 2.5
      vertex -2.94042 3.97634 -2.5
    endloop
  endfacet
  facet normal 0.936335 -0.351107 0
    outer loop
      vertex -2.8448 4.23134 -2.5
      vertex -2.8448 4.23134 2.5
      vertex -2.94042 3.97634 2.5
    endloop
  endfacet
  facet normal 1 0 0
    outer loop
      vertex -2.8448 4.61384 -2.5
      vertex -2.8448 4.23134 2.5
      vertex -2.8448 4.23134 -2.5
    endloop
  endfacet
  facet normal 1 0 -0
    outer loop
      vertex -2.8448 4.61384 -2.5
      vertex -2.8448 4.61384 2.5
      vertex -2.8448 4.23134 2.5
    endloop
  endfacet
  facet normal -0.338203 0.941073 0
    outer loop
      vertex -3.86478 4.24728 -2.5
      vertex -2.8448 4.61384 2.5
      vertex -2.8448 4.61384 -2.5
    endloop
  endfacet
  facet normal -0.338203 0.941073 0
    outer loop
      vertex -3.86478 4.24728 -2.5
      vertex -3.86478 4.24728 2.5
      vertex -2.8448 4.61384 2.5
    endloop
  endfacet
  facet normal 0.881158 -0.472822 0
    outer loop
      vertex -3.51416 4.9007 -2.5
      vertex -3.86478 4.24728 2.5
      vertex -3.86478 4.24728 -2.5
    endloop
  endfacet
  facet normal 0.881158 -0.472822 0
    outer loop
      vertex -3.51416 4.9007 -2.5
      vertex -3.51416 4.9007 2.5
      vertex -3.86478 4.24728 2.5
    endloop
  endfacet
  facet normal 0.249884 -0.968276 0
    outer loop
      vertex -3.02011 5.0282 -2.5
      vertex -3.51416 4.9007 2.5
      vertex -3.51416 4.9007 -2.5
    endloop
  endfacet
  facet normal 0.249884 -0.968276 0
    outer loop
      vertex -3.02011 5.0282 -2.5
      vertex -3.02011 5.0282 2.5
      vertex -3.51416 4.9007 2.5
    endloop
  endfacet
  facet normal 0.30602 -0.952025 0
    outer loop
      vertex -2.57387 5.17164 -2.5
      vertex -3.02011 5.0282 2.5
      vertex -3.02011 5.0282 -2.5
    endloop
  endfacet
  facet normal 0.30602 -0.952025 0
    outer loop
      vertex -2.57387 5.17164 -2.5
      vertex -2.57387 5.17164 2.5
      vertex -3.02011 5.0282 2.5
    endloop
  endfacet
  facet normal 0.316228 -0.948683 0
    outer loop
      vertex -2.04794 5.34695 -2.5
      vertex -2.57387 5.17164 2.5
      vertex -2.57387 5.17164 -2.5
    endloop
  endfacet
  facet normal 0.316228 -0.948683 0
    outer loop
      vertex -2.04794 5.34695 -2.5
      vertex -2.04794 5.34695 2.5
      vertex -2.57387 5.17164 2.5
    endloop
  endfacet
  facet normal 0.566523 -0.824046 0
    outer loop
      vertex -1.53794 5.69757 -2.5
      vertex -2.04794 5.34695 2.5
      vertex -2.04794 5.34695 -2.5
    endloop
  endfacet
  facet normal 0.566523 -0.824046 0
    outer loop
      vertex -1.53794 5.69757 -2.5
      vertex -1.53794 5.69757 2.5
      vertex -2.04794 5.34695 2.5
    endloop
  endfacet
  facet normal 0.624697 -0.780868 0
    outer loop
      vertex -0.900455 6.20756 -2.5
      vertex -1.53794 5.69757 2.5
      vertex -1.53794 5.69757 -2.5
    endloop
  endfacet
  facet normal 0.624697 -0.780868 0
    outer loop
      vertex -0.900455 6.20756 -2.5
      vertex -0.900455 6.20756 2.5
      vertex -1.53794 5.69757 2.5
    endloop
  endfacet
  facet normal 0.68394 -0.729538 0
    outer loop
      vertex -0.645457 6.44662 -2.5
      vertex -0.900455 6.20756 2.5
      vertex -0.900455 6.20756 -2.5
    endloop
  endfacet
  facet normal 0.68394 -0.729538 0
    outer loop
      vertex -0.645457 6.44662 -2.5
      vertex -0.645457 6.44662 2.5
      vertex -0.900455 6.20756 2.5
    endloop
  endfacet
  facet normal -0.291805 0.956478 0
    outer loop
      vertex -1.58576 6.15975 -2.5
      vertex -0.645457 6.44662 2.5
      vertex -0.645457 6.44662 -2.5
    endloop
  endfacet
  facet normal -0.291805 0.956478 0
    outer loop
      vertex -1.58576 6.15975 -2.5
      vertex -1.58576 6.15975 2.5
      vertex -0.645457 6.44662 2.5
    endloop
  endfacet
  facet normal -0.328527 0.944495 0
    outer loop
      vertex -2.31887 5.90475 -2.5
      vertex -1.58576 6.15975 2.5
      vertex -1.58576 6.15975 -2.5
    endloop
  endfacet
  facet normal -0.328527 0.944495 0
    outer loop
      vertex -2.31887 5.90475 -2.5
      vertex -2.31887 5.90475 2.5
      vertex -1.58576 6.15975 2.5
    endloop
  endfacet
  facet normal -0.25163 0.967824 0
    outer loop
      vertex -3.11573 5.69757 -2.5
      vertex -2.31887 5.90475 2.5
      vertex -2.31887 5.90475 -2.5
    endloop
  endfacet
  facet normal -0.25163 0.967824 0
    outer loop
      vertex -3.11573 5.69757 -2.5
      vertex -3.11573 5.69757 2.5
      vertex -2.31887 5.90475 2.5
    endloop
  endfacet
  facet normal -0.252424 0.967617 0
    outer loop
      vertex -3.84885 5.50632 -2.5
      vertex -3.11573 5.69757 2.5
      vertex -3.11573 5.69757 -2.5
    endloop
  endfacet
  facet normal -0.252424 0.967617 0
    outer loop
      vertex -3.84885 5.50632 -2.5
      vertex -3.84885 5.50632 2.5
      vertex -3.11573 5.69757 2.5
    endloop
  endfacet
  facet normal -0.608441 0.793599 0
    outer loop
      vertex -4.32696 5.13976 -2.5
      vertex -3.84885 5.50632 2.5
      vertex -3.84885 5.50632 -2.5
    endloop
  endfacet
  facet normal -0.608441 0.793599 0
    outer loop
      vertex -4.32696 5.13976 -2.5
      vertex -4.32696 5.13976 2.5
      vertex -3.84885 5.50632 2.5
    endloop
  endfacet
  facet normal -0.950393 0.311051 0
    outer loop
      vertex -4.61384 4.26322 -2.5
      vertex -4.32696 5.13976 2.5
      vertex -4.32696 5.13976 -2.5
    endloop
  endfacet
  facet normal -0.950393 0.311051 0
    outer loop
      vertex -4.61384 4.26322 -2.5
      vertex -4.61384 4.26322 2.5
      vertex -4.32696 5.13976 2.5
    endloop
  endfacet
  facet normal -0.530005 0.847995 0
    outer loop
      vertex -4.99633 4.02416 -2.5
      vertex -4.61384 4.26322 2.5
      vertex -4.61384 4.26322 -2.5
    endloop
  endfacet
  facet normal -0.530005 0.847995 0
    outer loop
      vertex -4.99633 4.02416 -2.5
      vertex -4.99633 4.02416 2.5
      vertex -4.61384 4.26322 2.5
    endloop
  endfacet
  facet normal -0.447228 0.89442 0
    outer loop
      vertex -5.25132 3.89666 -2.5
      vertex -4.99633 4.02416 2.5
      vertex -4.99633 4.02416 -2.5
    endloop
  endfacet
  facet normal -0.447228 0.89442 0
    outer loop
      vertex -5.25132 3.89666 -2.5
      vertex -5.25132 3.89666 2.5
      vertex -4.99633 4.02416 2.5
    endloop
  endfacet
  facet normal -0.920577 0.390562 0
    outer loop
      vertex -5.47445 3.37073 -2.5
      vertex -5.25132 3.89666 2.5
      vertex -5.25132 3.89666 -2.5
    endloop
  endfacet
  facet normal -0.920577 0.390562 0
    outer loop
      vertex -5.47445 3.37073 -2.5
      vertex -5.47445 3.37073 2.5
      vertex -5.25132 3.89666 2.5
    endloop
  endfacet
  facet normal -0.46401 0.88583 0
    outer loop
      vertex -6.14381 3.02011 -2.5
      vertex -5.47445 3.37073 2.5
      vertex -5.47445 3.37073 -2.5
    endloop
  endfacet
  facet normal -0.46401 0.88583 0
    outer loop
      vertex -6.14381 3.02011 -2.5
      vertex -6.14381 3.02011 2.5
      vertex -5.47445 3.37073 2.5
    endloop
  endfacet
  facet normal -0.263108 0.964766 0
    outer loop
      vertex -6.49443 2.92449 -2.5
      vertex -6.14381 3.02011 2.5
      vertex -6.14381 3.02011 -2.5
    endloop
  endfacet
  facet normal -0.263108 0.964766 0
    outer loop
      vertex -6.49443 2.92449 -2.5
      vertex -6.49443 2.92449 2.5
      vertex -6.14381 3.02011 2.5
    endloop
  endfacet
  facet normal -0.921984 -0.387227 0
    outer loop
      vertex -6.15975 2.12762 -2.5
      vertex -6.49443 2.92449 2.5
      vertex -6.49443 2.92449 -2.5
    endloop
  endfacet
  facet normal -0.921984 -0.387227 0
    outer loop
      vertex -6.15975 2.12762 -2.5
      vertex -6.15975 2.12762 2.5
      vertex -6.49443 2.92449 2.5
    endloop
  endfacet
  facet normal 0 -1 0
    outer loop
      vertex -4.64571 2.12762 -2.5
      vertex -6.15975 2.12762 2.5
      vertex -6.15975 2.12762 -2.5
    endloop
  endfacet
  facet normal 0 -1 0
    outer loop
      vertex -4.64571 2.12762 -2.5
      vertex -4.64571 2.12762 2.5
      vertex -6.15975 2.12762 2.5
    endloop
  endfacet
  facet normal -0.928476 -0.371393 0
    outer loop
      vertex -3.75322 -0.103592 -2.5
      vertex -4.64571 2.12762 2.5
      vertex -4.64571 2.12762 -2.5
    endloop
  endfacet
  facet normal -0.928476 -0.371393 0
    outer loop
      vertex -3.75322 -0.103592 -2.5
      vertex -3.75322 -0.103592 2.5
      vertex -4.64571 2.12762 2.5
    endloop
  endfacet
  facet normal -0.774444 -0.632642 0
    outer loop
      vertex -2.82886 -1.23514 -2.5
      vertex -3.75322 -0.103592 2.5
      vertex -3.75322 -0.103592 -2.5
    endloop
  endfacet
  facet normal -0.774444 -0.632642 0
    outer loop
      vertex -2.82886 -1.23514 -2.5
      vertex -2.82886 -1.23514 2.5
      vertex -3.75322 -0.103592 2.5
    endloop
  endfacet
  facet normal -0.672672 -0.739941 0
    outer loop
      vertex -2.12762 -1.87263 -2.5
      vertex -2.82886 -1.23514 2.5
      vertex -2.82886 -1.23514 -2.5
    endloop
  endfacet
  facet normal -0.672672 -0.739941 0
    outer loop
      vertex -2.12762 -1.87263 -2.5
      vertex -2.12762 -1.87263 2.5
      vertex -2.82886 -1.23514 2.5
    endloop
  endfacet
  facet normal -0.999975 -0.00701639 0
    outer loop
      vertex -2.09575 -6.41474 -2.5
      vertex -2.12762 -1.87263 2.5
      vertex -2.12762 -1.87263 -2.5
    endloop
  endfacet
  facet normal -0.999975 -0.00701639 0
    outer loop
      vertex -2.09575 -6.41474 -2.5
      vertex -2.09575 -6.41474 2.5
      vertex -2.12762 -1.87263 2.5
    endloop
  endfacet
  facet normal -0.0111123 -0.999938 0
    outer loop
      vertex -0.661395 -6.43068 -2.5
      vertex -2.09575 -6.41474 2.5
      vertex -2.09575 -6.41474 -2.5
    endloop
  endfacet
  facet normal -0.0111123 -0.999938 0
    outer loop
      vertex -0.661395 -6.43068 -2.5
      vertex -0.661395 -6.43068 2.5
      vertex -2.09575 -6.41474 2.5
    endloop
  endfacet
  facet normal 0.999987 -0.00515481 0
    outer loop
      vertex -0.645457 -3.33885 -2.5
      vertex -0.661395 -6.43068 2.5
      vertex -0.661395 -6.43068 -2.5
    endloop
  endfacet
  facet normal 0.999987 -0.00515481 0
    outer loop
      vertex -0.645457 -3.33885 -2.5
      vertex -0.645457 -3.33885 2.5
      vertex -0.661395 -6.43068 2.5
    endloop
  endfacet
  facet normal 0.94651 -0.322675 0
    outer loop
      vertex -0.16734 -1.93638 -2.5
      vertex -0.645457 -3.33885 2.5
      vertex -0.645457 -3.33885 -2.5
    endloop
  endfacet
  facet normal 0.94651 -0.322675 0
    outer loop
      vertex -0.16734 -1.93638 -2.5
      vertex -0.16734 -1.93638 2.5
      vertex -0.645457 -3.33885 2.5
    endloop
  endfacet
  facet normal -0.225886 -0.974154 0
    outer loop
      vertex 0.932329 -2.19137 -2.5
      vertex -0.16734 -1.93638 2.5
      vertex -0.16734 -1.93638 -2.5
    endloop
  endfacet
  facet normal -0.225886 -0.974154 0
    outer loop
      vertex 0.932329 -2.19137 -2.5
      vertex 0.932329 -2.19137 2.5
      vertex -0.16734 -1.93638 2.5
    endloop
  endfacet
  facet normal 0.0266535 -0.999645 0
    outer loop
      vertex 2.12762 -2.1595 -2.5
      vertex 0.932329 -2.19137 2.5
      vertex 0.932329 -2.19137 -2.5
    endloop
  endfacet
  facet normal 0.0266535 -0.999645 0
    outer loop
      vertex 2.12762 -2.1595 -2.5
      vertex 2.12762 -2.1595 2.5
      vertex 0.932329 -2.19137 2.5
    endloop
  endfacet
  facet normal -0.90055 -0.434752 0
    outer loop
      vertex 2.79699 -3.54604 -2.5
      vertex 2.12762 -2.1595 2.5
      vertex 2.12762 -2.1595 -2.5
    endloop
  endfacet
  facet normal -0.90055 -0.434752 0
    outer loop
      vertex 2.79699 -3.54604 -2.5
      vertex 2.79699 -3.54604 2.5
      vertex 2.12762 -2.1595 2.5
    endloop
  endfacet
  facet normal -0.972922 0.231136 0
    outer loop
      vertex 2.11169 -6.43068 -2.5
      vertex 2.79699 -3.54604 2.5
      vertex 2.79699 -3.54604 -2.5
    endloop
  endfacet
  facet normal -0.972922 0.231136 0
    outer loop
      vertex 2.11169 -6.43068 -2.5
      vertex 2.11169 -6.43068 2.5
      vertex 2.79699 -3.54604 2.5
    endloop
  endfacet
  facet normal -0.0178575 -0.999841 0
    outer loop
      vertex 3.00417 -6.44662 -2.5
      vertex 2.11169 -6.43068 2.5
      vertex 2.11169 -6.43068 -2.5
    endloop
  endfacet
  facet normal -0.0178575 -0.999841 0
    outer loop
      vertex 3.00417 -6.44662 -2.5
      vertex 3.00417 -6.44662 2.5
      vertex 2.11169 -6.43068 2.5
    endloop
  endfacet
  facet normal 0.979422 -0.201821 0
    outer loop
      vertex 3.54604 -3.81697 -2.5
      vertex 3.00417 -6.44662 2.5
      vertex 3.00417 -6.44662 -2.5
    endloop
  endfacet
  facet normal 0.979422 -0.201821 0
    outer loop
      vertex 3.54604 -3.81697 -2.5
      vertex 3.54604 -3.81697 2.5
      vertex 3.00417 -6.44662 2.5
    endloop
  endfacet
  facet normal 0.834775 -0.550591 0
    outer loop
      vertex 4.04009 -3.06792 -2.5
      vertex 3.54604 -3.81697 2.5
      vertex 3.54604 -3.81697 -2.5
    endloop
  endfacet
  facet normal 0.834775 -0.550591 0
    outer loop
      vertex 4.04009 -3.06792 -2.5
      vertex 4.04009 -3.06792 2.5
      vertex 3.54604 -3.81697 2.5
    endloop
  endfacet
  facet normal -0.766752 -0.641944 0
    outer loop
      vertex 4.61384 -3.75322 -2.5
      vertex 4.04009 -3.06792 2.5
      vertex 4.04009 -3.06792 -2.5
    endloop
  endfacet
  facet normal -0.766752 -0.641944 0
    outer loop
      vertex 4.61384 -3.75322 -2.5
      vertex 4.61384 -3.75322 2.5
      vertex 4.04009 -3.06792 2.5
    endloop
  endfacet
  facet normal -0.954178 0.299241 0
    outer loop
      vertex 3.76916 -6.44662 -2.5
      vertex 4.61384 -3.75322 2.5
      vertex 4.61384 -3.75322 -2.5
    endloop
  endfacet
  facet normal -0.954178 0.299241 0
    outer loop
      vertex 3.76916 -6.44662 -2.5
      vertex 3.76916 -6.44662 2.5
      vertex 4.61384 -3.75322 2.5
    endloop
  endfacet
  facet normal 0 -1 0
    outer loop
      vertex 4.62977 -6.44662 -2.5
      vertex 3.76916 -6.44662 2.5
      vertex 3.76916 -6.44662 -2.5
    endloop
  endfacet
  facet normal 0 -1 0
    outer loop
      vertex 4.62977 -6.44662 -2.5
      vertex 4.62977 -6.44662 2.5
      vertex 3.76916 -6.44662 2.5
    endloop
  endfacet
  facet normal 0.948185 -0.317718 0
    outer loop
      vertex 5.64976 -3.4026 -2.5
      vertex 4.62977 -6.44662 2.5
      vertex 4.62977 -6.44662 -2.5
    endloop
  endfacet
  facet normal 0.948185 -0.317718 0
    outer loop
      vertex 5.64976 -3.4026 -2.5
      vertex 5.64976 -3.4026 2.5
      vertex 4.62977 -6.44662 2.5
    endloop
  endfacet
endsolid OpenSCAD_Model
