solid OpenSCAD_Model
  facet normal 0 0 -1
    outer loop
      vertex 0.774666 0.0276642 -0.5
      vertex 0.857666 0.829997 -0.5
      vertex 0.912999 0.0829971 -0.5
    endloop
  endfacet
  facet normal -0 -0 -1
    outer loop
      vertex -0.0553329 -1.411 -0.5
      vertex 0.481667 -1.70762 -0.5
      vertex -0.387332 -1.411 -0.5
    endloop
  endfacet
  facet normal 0 0 -1
    outer loop
      vertex 1.13433 0.691664 -0.5
      vertex 0.857666 0.829997 -0.5
      vertex 1.10667 0.857664 -0.5
    endloop
  endfacet
  facet normal 0 0 -1
    outer loop
      vertex -0.193666 -0.746999 -0.5
      vertex -0.221333 -0.497998 -0.5
      vertex 0 -0.664001 -0.5
    endloop
  endfacet
  facet normal 0 0 -1
    outer loop
      vertex 0.829999 -0.166 -0.5
      vertex 0.774666 -0.332001 -0.5
      vertex 0.581 -0.304334 -0.5
    endloop
  endfacet
  facet normal 0 0 -1
    outer loop
      vertex 1.079 -0.138333 -0.5
      vertex 0.940665 -0.304334 -0.5
      vertex 0.829999 -0.166 -0.5
    endloop
  endfacet
  facet normal 0 0 -1
    outer loop
      vertex 0.331999 -0.359668 -0.5
      vertex 0.498 -0.498001 -0.5
      vertex 0.359666 -0.553334 -0.5
    endloop
  endfacet
  facet normal 0 0 -1
    outer loop
      vertex 0.331999 -0.359668 -0.5
      vertex 0.581 -0.304334 -0.5
      vertex 0.498 -0.498001 -0.5
    endloop
  endfacet
  facet normal -0 0 -1
    outer loop
      vertex 1.18967 0.138332 -0.5
      vertex 0.912999 0.0829971 -0.5
      vertex 1.13433 0.691664 -0.5
    endloop
  endfacet
  facet normal 0 0 -1
    outer loop
      vertex 0.581 -0.304334 -0.5
      vertex 0.774666 -0.332001 -0.5
      vertex 0.746999 -0.470334 -0.5
    endloop
  endfacet
  facet normal 0 -0 -1
    outer loop
      vertex 0.829999 -0.166 -0.5
      vertex 0.940665 -0.304334 -0.5
      vertex 0.774666 -0.332001 -0.5
    endloop
  endfacet
  facet normal 0 0 -1
    outer loop
      vertex 0.940665 -0.304334 -0.5
      vertex 1.079 -0.138333 -0.5
      vertex 1.18967 -0.304334 -0.5
    endloop
  endfacet
  facet normal 0 -0 -1
    outer loop
      vertex 1.411 0.331998 -0.5
      vertex 1.43867 0.193665 -0.5
      vertex 1.18967 0.138332 -0.5
    endloop
  endfacet
  facet normal -0 0 -1
    outer loop
      vertex 0.857666 -0.0553345 -0.5
      vertex 0.829999 -0.166 -0.5
      vertex 0.774666 0.0276642 -0.5
    endloop
  endfacet
  facet normal -0 0 -1
    outer loop
      vertex 1.52167 0.580998 -0.5
      vertex 1.411 0.331998 -0.5
      vertex 1.38333 0.580998 -0.5
    endloop
  endfacet
  facet normal 0 -0 -1
    outer loop
      vertex 0.774666 0.0276642 -0.5
      vertex 0.829999 -0.166 -0.5
      vertex 0.581 -0.304334 -0.5
    endloop
  endfacet
  facet normal 0 0 -1
    outer loop
      vertex 0.331999 -0.359668 -0.5
      vertex 0.774666 0.0276642 -0.5
      vertex 0.581 -0.304334 -0.5
    endloop
  endfacet
  facet normal 0 0 -1
    outer loop
      vertex 0.912999 0.0829971 -0.5
      vertex 1.18967 0.138332 -0.5
      vertex 1.13433 0.0276642 -0.5
    endloop
  endfacet
  facet normal 0 0 -1
    outer loop
      vertex 1.38333 0.580998 -0.5
      vertex 1.13433 0.691664 -0.5
      vertex 1.27267 0.774664 -0.5
    endloop
  endfacet
  facet normal -0 -0 -1
    outer loop
      vertex 1.38333 0.580998 -0.5
      vertex 1.411 0.331998 -0.5
      vertex 1.13433 0.691664 -0.5
    endloop
  endfacet
  facet normal -0 0 -1
    outer loop
      vertex 0.940665 1.245 -0.5
      vertex 0.912999 0.912997 -0.5
      vertex 0.581 1.30033 -0.5
    endloop
  endfacet
  facet normal 0 0 -1
    outer loop
      vertex 1.411 0.331998 -0.5
      vertex 1.52167 0.580998 -0.5
      vertex 1.54933 0.359665 -0.5
    endloop
  endfacet
  facet normal -0 0 -1
    outer loop
      vertex 1.411 0.331998 -0.5
      vertex 1.18967 0.138332 -0.5
      vertex 1.13433 0.691664 -0.5
    endloop
  endfacet
  facet normal -0 0 -1
    outer loop
      vertex 1.13433 0.691664 -0.5
      vertex 0.912999 0.0829971 -0.5
      vertex 0.857666 0.829997 -0.5
    endloop
  endfacet
  facet normal 0 -0 -1
    outer loop
      vertex -0.138333 1.328 -0.5
      vertex 0.581 1.30033 -0.5
      vertex -0.331999 0.995999 -0.5
    endloop
  endfacet
  facet normal 0 0 -1
    outer loop
      vertex -0.138333 1.328 -0.5
      vertex 0.0276657 1.43867 -0.5
      vertex 0.581 1.30033 -0.5
    endloop
  endfacet
  facet normal 0 0 -1
    outer loop
      vertex 0.940665 1.245 -0.5
      vertex 0.581 1.30033 -0.5
      vertex 0.857666 1.411 -0.5
    endloop
  endfacet
  facet normal -0 0 -1
    outer loop
      vertex 0.912999 0.912997 -0.5
      vertex 0.857666 0.829997 -0.5
      vertex 0.581 1.30033 -0.5
    endloop
  endfacet
  facet normal 0 -0 -1
    outer loop
      vertex 0.498 1.60466 -0.5
      vertex 0.608665 1.494 -0.5
      vertex 0.359666 1.52166 -0.5
    endloop
  endfacet
  facet normal 0 0 -1
    outer loop
      vertex 0.912999 0.912997 -0.5
      vertex 0.940665 1.245 -0.5
      vertex 1.10667 1.162 -0.5
    endloop
  endfacet
  facet normal 0 0 -1
    outer loop
      vertex 0.581 1.30033 -0.5
      vertex 0.0276657 1.43867 -0.5
      vertex 0.359666 1.52166 -0.5
    endloop
  endfacet
  facet normal -0 0 -1
    outer loop
      vertex 0.608665 1.494 -0.5
      vertex 0.581 1.30033 -0.5
      vertex 0.359666 1.52166 -0.5
    endloop
  endfacet
  facet normal 0 0 -1
    outer loop
      vertex 0.581 1.30033 -0.5
      vertex 0.608665 1.494 -0.5
      vertex 0.746999 1.46633 -0.5
    endloop
  endfacet
  facet normal -0 0 -1
    outer loop
      vertex 0.359666 1.52166 -0.5
      vertex 0.0276657 1.43867 -0.5
      vertex 0.165999 1.66 -0.5
    endloop
  endfacet
  facet normal 0 -0 -1
    outer loop
      vertex 0.248999 1.71533 -0.5
      vertex 0.359666 1.52166 -0.5
      vertex 0.165999 1.66 -0.5
    endloop
  endfacet
  facet normal 0 -0 -1
    outer loop
      vertex -0.331999 1.245 -0.5
      vertex -0.331999 0.995999 -0.5
      vertex -0.414999 1.162 -0.5
    endloop
  endfacet
  facet normal -0 0 -1
    outer loop
      vertex 0.0276657 1.43867 -0.5
      vertex -0.138333 1.328 -0.5
      vertex -0.0829987 1.46633 -0.5
    endloop
  endfacet
  facet normal 0 0 -1
    outer loop
      vertex -0.331999 1.245 -0.5
      vertex -0.138333 1.328 -0.5
      vertex -0.331999 0.995999 -0.5
    endloop
  endfacet
  facet normal -0 0 -1
    outer loop
      vertex -0.138333 1.328 -0.5
      vertex -0.331999 1.245 -0.5
      vertex -0.387332 1.38333 -0.5
    endloop
  endfacet
  facet normal 0 0 -1
    outer loop
      vertex -0.331999 0.995999 -0.5
      vertex 0.581 1.30033 -0.5
      vertex 0.857666 0.829997 -0.5
    endloop
  endfacet
  facet normal 0 0 -1
    outer loop
      vertex -0.885333 -0.276665 -0.5
      vertex -1.079 0 -0.5
      vertex -0.525667 -0.248999 -0.5
    endloop
  endfacet
  facet normal -0 0 -1
    outer loop
      vertex 0.774666 0.0276642 -0.5
      vertex 0.331999 -0.359668 -0.5
      vertex -0.331999 0.995999 -0.5
    endloop
  endfacet
  facet normal -0 0 -1
    outer loop
      vertex -0.331999 0.995999 -0.5
      vertex -0.746999 0.940666 -0.5
      vertex -0.470334 1.02367 -0.5
    endloop
  endfacet
  facet normal 0 0 -1
    outer loop
      vertex 0.774666 0.0276642 -0.5
      vertex -0.331999 0.995999 -0.5
      vertex 0.857666 0.829997 -0.5
    endloop
  endfacet
  facet normal 0 0 -1
    outer loop
      vertex -0.746999 1.13433 -0.5
      vertex -0.470334 1.02367 -0.5
      vertex -0.746999 0.940666 -0.5
    endloop
  endfacet
  facet normal 0 -0 -1
    outer loop
      vertex -0.995999 0.968333 -0.5
      vertex -0.746999 0.940666 -0.5
      vertex -1.05133 0.636334 -0.5
    endloop
  endfacet
  facet normal 0 -0 -1
    outer loop
      vertex -0.746999 0.940666 -0.5
      vertex -0.525667 -0.248999 -0.5
      vertex -1.05133 0.636334 -0.5
    endloop
  endfacet
  facet normal 0 0 -1
    outer loop
      vertex -0.664 -0.331999 -0.5
      vertex -0.885333 -0.276665 -0.5
      vertex -0.525667 -0.248999 -0.5
    endloop
  endfacet
  facet normal 0 0 -1
    outer loop
      vertex -1.245 0.553334 -0.5
      vertex -1.05133 0.636334 -0.5
      vertex -1.21733 0.387332 -0.5
    endloop
  endfacet
  facet normal 0 0 -1
    outer loop
      vertex -1.52167 0.276666 -0.5
      vertex -1.21733 0.387332 -0.5
      vertex -1.35567 0.193666 -0.5
    endloop
  endfacet
  facet normal 0 0 -1
    outer loop
      vertex -1.21733 0.387332 -0.5
      vertex -1.05133 0.636334 -0.5
      vertex -1.079 0 -0.5
    endloop
  endfacet
  facet normal 0 0 -1
    outer loop
      vertex -1.54933 0.0830002 -0.5
      vertex -1.35567 0.193666 -0.5
      vertex -1.38333 0 -0.5
    endloop
  endfacet
  facet normal 0 -0 -1
    outer loop
      vertex -1.35567 0.193666 -0.5
      vertex -1.079 0 -0.5
      vertex -1.38333 0 -0.5
    endloop
  endfacet
  facet normal 0 0 -1
    outer loop
      vertex -1.10667 -0.165999 -0.5
      vertex -0.885333 -0.276665 -0.5
      vertex -1.02367 -0.359666 -0.5
    endloop
  endfacet
  facet normal 0 0 -1
    outer loop
      vertex -1.35567 0.193666 -0.5
      vertex -1.21733 0.387332 -0.5
      vertex -1.079 0 -0.5
    endloop
  endfacet
  facet normal 0 0 -1
    outer loop
      vertex -0.525667 -0.248999 -0.5
      vertex -1.079 0 -0.5
      vertex -1.05133 0.636334 -0.5
    endloop
  endfacet
  facet normal 0 0 -1
    outer loop
      vertex -0.193666 -0.746999 -0.5
      vertex -0.331999 -1.02366 -0.5
      vertex -0.304332 -0.774666 -0.5
    endloop
  endfacet
  facet normal 0 -0 -1
    outer loop
      vertex -1.10667 -0.165999 -0.5
      vertex -1.02367 -0.359666 -0.5
      vertex -1.18967 -0.387332 -0.5
    endloop
  endfacet
  facet normal 0 -0 -1
    outer loop
      vertex -1.079 0 -0.5
      vertex -0.885333 -0.276665 -0.5
      vertex -1.10667 -0.165999 -0.5
    endloop
  endfacet
  facet normal 0 0 -1
    outer loop
      vertex -0.331999 -1.02366 -0.5
      vertex -0.387332 -0.802332 -0.5
      vertex -0.304332 -0.774666 -0.5
    endloop
  endfacet
  facet normal 0 0 -1
    outer loop
      vertex -0.304332 -0.359666 -0.5
      vertex -0.525667 -0.248999 -0.5
      vertex -0.331999 0.995999 -0.5
    endloop
  endfacet
  facet normal 0 0 -1
    outer loop
      vertex -0.525667 -0.248999 -0.5
      vertex -0.746999 0.940666 -0.5
      vertex -0.331999 0.995999 -0.5
    endloop
  endfacet
  facet normal 0 0 -1
    outer loop
      vertex -0.221333 -0.497998 -0.5
      vertex -0.304332 -0.359666 -0.5
      vertex 0.331999 -0.359668 -0.5
    endloop
  endfacet
  facet normal 0 0 -1
    outer loop
      vertex 0.331999 -0.359668 -0.5
      vertex -0.304332 -0.359666 -0.5
      vertex -0.331999 0.995999 -0.5
    endloop
  endfacet
  facet normal 0 0 -1
    outer loop
      vertex -0.304332 -0.359666 -0.5
      vertex -0.470334 -0.359666 -0.5
      vertex -0.525667 -0.248999 -0.5
    endloop
  endfacet
  facet normal 0 0 -1
    outer loop
      vertex 0 -0.664001 -0.5
      vertex -0.221333 -0.497998 -0.5
      vertex 0.331999 -0.359668 -0.5
    endloop
  endfacet
  facet normal 0 0 -1
    outer loop
      vertex -0.331999 -1.02366 -0.5
      vertex -0.193666 -0.746999 -0.5
      vertex 0 -0.664001 -0.5
    endloop
  endfacet
  facet normal -0 0 -1
    outer loop
      vertex -0.304332 -0.774666 -0.5
      vertex -0.387332 -0.802332 -0.5
      vertex -0.498 -0.636331 -0.5
    endloop
  endfacet
  facet normal -0 0 -1
    outer loop
      vertex 0.481667 -1.70762 -0.5
      vertex -0.973318 -1.71533 -0.5
      vertex -0.387332 -1.411 -0.5
    endloop
  endfacet
  facet normal 0 0 -1
    outer loop
      vertex -0.0553329 -1.411 -0.5
      vertex -0.331999 -1.02366 -0.5
      vertex 0 -0.664001 -0.5
    endloop
  endfacet
  facet normal 0 0 -1
    outer loop
      vertex -0.331999 -1.02366 -0.5
      vertex -0.498 -0.829999 -0.5
      vertex -0.387332 -0.802332 -0.5
    endloop
  endfacet
  facet normal 0 0 -1
    outer loop
      vertex -0.0553329 -1.411 -0.5
      vertex -0.387332 -1.411 -0.5
      vertex -0.331999 -1.02366 -0.5
    endloop
  endfacet
  facet normal 0 0 1
    outer loop
      vertex 0.912999 0.0829971 0.5
      vertex 0.857666 0.829997 0.5
      vertex 0.774666 0.0276642 0.5
    endloop
  endfacet
  facet normal -0 0 1
    outer loop
      vertex -0.387332 -1.411 0.5
      vertex 0.481667 -1.70762 0.5
      vertex -0.0553329 -1.411 0.5
    endloop
  endfacet
  facet normal 0 0 1
    outer loop
      vertex 1.10667 0.857664 0.5
      vertex 0.857666 0.829997 0.5
      vertex 1.13433 0.691664 0.5
    endloop
  endfacet
  facet normal 0 0 1
    outer loop
      vertex 0 -0.664001 0.5
      vertex -0.221333 -0.497998 0.5
      vertex -0.193666 -0.746999 0.5
    endloop
  endfacet
  facet normal -0 0 1
    outer loop
      vertex 0.581 -0.304334 0.5
      vertex 0.774666 -0.332001 0.5
      vertex 0.829999 -0.166 0.5
    endloop
  endfacet
  facet normal -0 0 1
    outer loop
      vertex 0.829999 -0.166 0.5
      vertex 0.940665 -0.304334 0.5
      vertex 1.079 -0.138333 0.5
    endloop
  endfacet
  facet normal 0 -0 1
    outer loop
      vertex 0.359666 -0.553334 0.5
      vertex 0.498 -0.498001 0.5
      vertex 0.331999 -0.359668 0.5
    endloop
  endfacet
  facet normal 0 -0 1
    outer loop
      vertex 0.498 -0.498001 0.5
      vertex 0.581 -0.304334 0.5
      vertex 0.331999 -0.359668 0.5
    endloop
  endfacet
  facet normal 0 0 1
    outer loop
      vertex 1.13433 0.691664 0.5
      vertex 0.912999 0.0829971 0.5
      vertex 1.18967 0.138332 0.5
    endloop
  endfacet
  facet normal 0 -0 1
    outer loop
      vertex 0.746999 -0.470334 0.5
      vertex 0.774666 -0.332001 0.5
      vertex 0.581 -0.304334 0.5
    endloop
  endfacet
  facet normal 0 0 1
    outer loop
      vertex 0.774666 -0.332001 0.5
      vertex 0.940665 -0.304334 0.5
      vertex 0.829999 -0.166 0.5
    endloop
  endfacet
  facet normal 0 0 1
    outer loop
      vertex 1.18967 -0.304334 0.5
      vertex 1.079 -0.138333 0.5
      vertex 0.940665 -0.304334 0.5
    endloop
  endfacet
  facet normal 0 0 1
    outer loop
      vertex 1.18967 0.138332 0.5
      vertex 1.43867 0.193665 0.5
      vertex 1.411 0.331998 0.5
    endloop
  endfacet
  facet normal 0 0 1
    outer loop
      vertex 0.774666 0.0276642 0.5
      vertex 0.829999 -0.166 0.5
      vertex 0.857666 -0.0553345 0.5
    endloop
  endfacet
  facet normal -0 0 1
    outer loop
      vertex 1.38333 0.580998 0.5
      vertex 1.411 0.331998 0.5
      vertex 1.52167 0.580998 0.5
    endloop
  endfacet
  facet normal 0 0 1
    outer loop
      vertex 0.581 -0.304334 0.5
      vertex 0.829999 -0.166 0.5
      vertex 0.774666 0.0276642 0.5
    endloop
  endfacet
  facet normal 0 -0 1
    outer loop
      vertex 0.581 -0.304334 0.5
      vertex 0.774666 0.0276642 0.5
      vertex 0.331999 -0.359668 0.5
    endloop
  endfacet
  facet normal 0 -0 1
    outer loop
      vertex 1.13433 0.0276642 0.5
      vertex 1.18967 0.138332 0.5
      vertex 0.912999 0.0829971 0.5
    endloop
  endfacet
  facet normal 0 0 1
    outer loop
      vertex 1.27267 0.774664 0.5
      vertex 1.13433 0.691664 0.5
      vertex 1.38333 0.580998 0.5
    endloop
  endfacet
  facet normal 0 0 1
    outer loop
      vertex 1.13433 0.691664 0.5
      vertex 1.411 0.331998 0.5
      vertex 1.38333 0.580998 0.5
    endloop
  endfacet
  facet normal 0 0 1
    outer loop
      vertex 0.581 1.30033 0.5
      vertex 0.912999 0.912997 0.5
      vertex 0.940665 1.245 0.5
    endloop
  endfacet
  facet normal 0 0 1
    outer loop
      vertex 1.54933 0.359665 0.5
      vertex 1.52167 0.580998 0.5
      vertex 1.411 0.331998 0.5
    endloop
  endfacet
  facet normal 0 0 1
    outer loop
      vertex 1.13433 0.691664 0.5
      vertex 1.18967 0.138332 0.5
      vertex 1.411 0.331998 0.5
    endloop
  endfacet
  facet normal 0 0 1
    outer loop
      vertex 0.857666 0.829997 0.5
      vertex 0.912999 0.0829971 0.5
      vertex 1.13433 0.691664 0.5
    endloop
  endfacet
  facet normal 0 0 1
    outer loop
      vertex -0.331999 0.995999 0.5
      vertex 0.581 1.30033 0.5
      vertex -0.138333 1.328 0.5
    endloop
  endfacet
  facet normal 0 0 1
    outer loop
      vertex 0.581 1.30033 0.5
      vertex 0.0276657 1.43867 0.5
      vertex -0.138333 1.328 0.5
    endloop
  endfacet
  facet normal 0 0 1
    outer loop
      vertex 0.857666 1.411 0.5
      vertex 0.581 1.30033 0.5
      vertex 0.940665 1.245 0.5
    endloop
  endfacet
  facet normal 0 0 1
    outer loop
      vertex 0.581 1.30033 0.5
      vertex 0.857666 0.829997 0.5
      vertex 0.912999 0.912997 0.5
    endloop
  endfacet
  facet normal -0 0 1
    outer loop
      vertex 0.359666 1.52166 0.5
      vertex 0.608665 1.494 0.5
      vertex 0.498 1.60466 0.5
    endloop
  endfacet
  facet normal 0 0 1
    outer loop
      vertex 1.10667 1.162 0.5
      vertex 0.940665 1.245 0.5
      vertex 0.912999 0.912997 0.5
    endloop
  endfacet
  facet normal 0 0 1
    outer loop
      vertex 0.359666 1.52166 0.5
      vertex 0.0276657 1.43867 0.5
      vertex 0.581 1.30033 0.5
    endloop
  endfacet
  facet normal 0 0 1
    outer loop
      vertex 0.359666 1.52166 0.5
      vertex 0.581 1.30033 0.5
      vertex 0.608665 1.494 0.5
    endloop
  endfacet
  facet normal 0 0 1
    outer loop
      vertex 0.746999 1.46633 0.5
      vertex 0.608665 1.494 0.5
      vertex 0.581 1.30033 0.5
    endloop
  endfacet
  facet normal 0 0 1
    outer loop
      vertex 0.165999 1.66 0.5
      vertex 0.0276657 1.43867 0.5
      vertex 0.359666 1.52166 0.5
    endloop
  endfacet
  facet normal -0 0 1
    outer loop
      vertex 0.165999 1.66 0.5
      vertex 0.359666 1.52166 0.5
      vertex 0.248999 1.71533 0.5
    endloop
  endfacet
  facet normal -0 0 1
    outer loop
      vertex -0.414999 1.162 0.5
      vertex -0.331999 0.995999 0.5
      vertex -0.331999 1.245 0.5
    endloop
  endfacet
  facet normal 0 0 1
    outer loop
      vertex -0.0829987 1.46633 0.5
      vertex -0.138333 1.328 0.5
      vertex 0.0276657 1.43867 0.5
    endloop
  endfacet
  facet normal 0 0 1
    outer loop
      vertex -0.331999 0.995999 0.5
      vertex -0.138333 1.328 0.5
      vertex -0.331999 1.245 0.5
    endloop
  endfacet
  facet normal 0 0 1
    outer loop
      vertex -0.387332 1.38333 0.5
      vertex -0.331999 1.245 0.5
      vertex -0.138333 1.328 0.5
    endloop
  endfacet
  facet normal 0 0 1
    outer loop
      vertex 0.857666 0.829997 0.5
      vertex 0.581 1.30033 0.5
      vertex -0.331999 0.995999 0.5
    endloop
  endfacet
  facet normal 0 0 1
    outer loop
      vertex -0.525667 -0.248999 0.5
      vertex -1.079 0 0.5
      vertex -0.885333 -0.276665 0.5
    endloop
  endfacet
  facet normal 0 0 1
    outer loop
      vertex -0.331999 0.995999 0.5
      vertex 0.331999 -0.359668 0.5
      vertex 0.774666 0.0276642 0.5
    endloop
  endfacet
  facet normal 0 0 1
    outer loop
      vertex -0.470334 1.02367 0.5
      vertex -0.746999 0.940666 0.5
      vertex -0.331999 0.995999 0.5
    endloop
  endfacet
  facet normal 0 0 1
    outer loop
      vertex 0.857666 0.829997 0.5
      vertex -0.331999 0.995999 0.5
      vertex 0.774666 0.0276642 0.5
    endloop
  endfacet
  facet normal 0 0 1
    outer loop
      vertex -0.746999 0.940666 0.5
      vertex -0.470334 1.02367 0.5
      vertex -0.746999 1.13433 0.5
    endloop
  endfacet
  facet normal 0 0 1
    outer loop
      vertex -1.05133 0.636334 0.5
      vertex -0.746999 0.940666 0.5
      vertex -0.995999 0.968333 0.5
    endloop
  endfacet
  facet normal -0 0 1
    outer loop
      vertex -1.05133 0.636334 0.5
      vertex -0.525667 -0.248999 0.5
      vertex -0.746999 0.940666 0.5
    endloop
  endfacet
  facet normal 0 0 1
    outer loop
      vertex -0.525667 -0.248999 0.5
      vertex -0.885333 -0.276665 0.5
      vertex -0.664 -0.331999 0.5
    endloop
  endfacet
  facet normal 0 -0 1
    outer loop
      vertex -1.21733 0.387332 0.5
      vertex -1.05133 0.636334 0.5
      vertex -1.245 0.553334 0.5
    endloop
  endfacet
  facet normal 0 -0 1
    outer loop
      vertex -1.35567 0.193666 0.5
      vertex -1.21733 0.387332 0.5
      vertex -1.52167 0.276666 0.5
    endloop
  endfacet
  facet normal 0 -0 1
    outer loop
      vertex -1.079 0 0.5
      vertex -1.05133 0.636334 0.5
      vertex -1.21733 0.387332 0.5
    endloop
  endfacet
  facet normal 0 -0 1
    outer loop
      vertex -1.38333 0 0.5
      vertex -1.35567 0.193666 0.5
      vertex -1.54933 0.0830002 0.5
    endloop
  endfacet
  facet normal 0 0 1
    outer loop
      vertex -1.38333 0 0.5
      vertex -1.079 0 0.5
      vertex -1.35567 0.193666 0.5
    endloop
  endfacet
  facet normal 0 -0 1
    outer loop
      vertex -1.02367 -0.359666 0.5
      vertex -0.885333 -0.276665 0.5
      vertex -1.10667 -0.165999 0.5
    endloop
  endfacet
  facet normal 0 0 1
    outer loop
      vertex -1.079 0 0.5
      vertex -1.21733 0.387332 0.5
      vertex -1.35567 0.193666 0.5
    endloop
  endfacet
  facet normal 0 0 1
    outer loop
      vertex -1.05133 0.636334 0.5
      vertex -1.079 0 0.5
      vertex -0.525667 -0.248999 0.5
    endloop
  endfacet
  facet normal -0 0 1
    outer loop
      vertex -0.304332 -0.774666 0.5
      vertex -0.331999 -1.02366 0.5
      vertex -0.193666 -0.746999 0.5
    endloop
  endfacet
  facet normal 0 0 1
    outer loop
      vertex -1.18967 -0.387332 0.5
      vertex -1.02367 -0.359666 0.5
      vertex -1.10667 -0.165999 0.5
    endloop
  endfacet
  facet normal -0 0 1
    outer loop
      vertex -1.10667 -0.165999 0.5
      vertex -0.885333 -0.276665 0.5
      vertex -1.079 0 0.5
    endloop
  endfacet
  facet normal 0 0 1
    outer loop
      vertex -0.304332 -0.774666 0.5
      vertex -0.387332 -0.802332 0.5
      vertex -0.331999 -1.02366 0.5
    endloop
  endfacet
  facet normal 0 0 1
    outer loop
      vertex -0.331999 0.995999 0.5
      vertex -0.525667 -0.248999 0.5
      vertex -0.304332 -0.359666 0.5
    endloop
  endfacet
  facet normal 0 0 1
    outer loop
      vertex -0.331999 0.995999 0.5
      vertex -0.746999 0.940666 0.5
      vertex -0.525667 -0.248999 0.5
    endloop
  endfacet
  facet normal 0 0 1
    outer loop
      vertex 0.331999 -0.359668 0.5
      vertex -0.304332 -0.359666 0.5
      vertex -0.221333 -0.497998 0.5
    endloop
  endfacet
  facet normal 0 0 1
    outer loop
      vertex -0.331999 0.995999 0.5
      vertex -0.304332 -0.359666 0.5
      vertex 0.331999 -0.359668 0.5
    endloop
  endfacet
  facet normal 0 0 1
    outer loop
      vertex -0.525667 -0.248999 0.5
      vertex -0.470334 -0.359666 0.5
      vertex -0.304332 -0.359666 0.5
    endloop
  endfacet
  facet normal 0 0 1
    outer loop
      vertex 0.331999 -0.359668 0.5
      vertex -0.221333 -0.497998 0.5
      vertex 0 -0.664001 0.5
    endloop
  endfacet
  facet normal 0 0 1
    outer loop
      vertex 0 -0.664001 0.5
      vertex -0.193666 -0.746999 0.5
      vertex -0.331999 -1.02366 0.5
    endloop
  endfacet
  facet normal 0 0 1
    outer loop
      vertex -0.498 -0.636331 0.5
      vertex -0.387332 -0.802332 0.5
      vertex -0.304332 -0.774666 0.5
    endloop
  endfacet
  facet normal 0 0 1
    outer loop
      vertex -0.387332 -1.411 0.5
      vertex -0.973318 -1.71533 0.5
      vertex 0.481667 -1.70762 0.5
    endloop
  endfacet
  facet normal 0 0 1
    outer loop
      vertex 0 -0.664001 0.5
      vertex -0.331999 -1.02366 0.5
      vertex -0.0553329 -1.411 0.5
    endloop
  endfacet
  facet normal 0 0 1
    outer loop
      vertex -0.387332 -0.802332 0.5
      vertex -0.498 -0.829999 0.5
      vertex -0.331999 -1.02366 0.5
    endloop
  endfacet
  facet normal 0 0 1
    outer loop
      vertex -0.331999 -1.02366 0.5
      vertex -0.387332 -1.411 0.5
      vertex -0.0553329 -1.411 0.5
    endloop
  endfacet
  facet normal 0.483507 0.87534 0
    outer loop
      vertex -0.0553329 -1.411 -0.5
      vertex 0.481667 -1.70762 0.5
      vertex 0.481667 -1.70762 -0.5
    endloop
  endfacet
  facet normal 0.483507 0.87534 -0
    outer loop
      vertex -0.0553329 -1.411 -0.5
      vertex -0.0553329 -1.411 0.5
      vertex 0.481667 -1.70762 0.5
    endloop
  endfacet
  facet normal 0.997268 -0.0738712 0
    outer loop
      vertex 0 -0.664001 -0.5
      vertex -0.0553329 -1.411 0.5
      vertex -0.0553329 -1.411 -0.5
    endloop
  endfacet
  facet normal 0.997268 -0.0738712 0
    outer loop
      vertex 0 -0.664001 -0.5
      vertex 0 -0.664001 0.5
      vertex -0.0553329 -1.411 0.5
    endloop
  endfacet
  facet normal 0.675725 -0.737153 0
    outer loop
      vertex 0.331999 -0.359668 -0.5
      vertex 0 -0.664001 0.5
      vertex 0 -0.664001 -0.5
    endloop
  endfacet
  facet normal 0.675725 -0.737153 0
    outer loop
      vertex 0.331999 -0.359668 -0.5
      vertex 0.331999 -0.359668 0.5
      vertex 0 -0.664001 0.5
    endloop
  endfacet
  facet normal -0.989949 -0.141424 0
    outer loop
      vertex 0.359666 -0.553334 -0.5
      vertex 0.331999 -0.359668 0.5
      vertex 0.331999 -0.359668 -0.5
    endloop
  endfacet
  facet normal -0.989949 -0.141424 0
    outer loop
      vertex 0.359666 -0.553334 -0.5
      vertex 0.359666 -0.553334 0.5
      vertex 0.331999 -0.359668 0.5
    endloop
  endfacet
  facet normal 0.371387 -0.928478 0
    outer loop
      vertex 0.498 -0.498001 -0.5
      vertex 0.359666 -0.553334 0.5
      vertex 0.359666 -0.553334 -0.5
    endloop
  endfacet
  facet normal 0.371387 -0.928478 0
    outer loop
      vertex 0.498 -0.498001 -0.5
      vertex 0.498 -0.498001 0.5
      vertex 0.359666 -0.553334 0.5
    endloop
  endfacet
  facet normal 0.919145 -0.393919 0
    outer loop
      vertex 0.581 -0.304334 -0.5
      vertex 0.498 -0.498001 0.5
      vertex 0.498 -0.498001 -0.5
    endloop
  endfacet
  facet normal 0.919145 -0.393919 0
    outer loop
      vertex 0.581 -0.304334 -0.5
      vertex 0.581 -0.304334 0.5
      vertex 0.498 -0.498001 0.5
    endloop
  endfacet
  facet normal -0.707109 -0.707105 0
    outer loop
      vertex 0.746999 -0.470334 -0.5
      vertex 0.581 -0.304334 0.5
      vertex 0.581 -0.304334 -0.5
    endloop
  endfacet
  facet normal -0.707109 -0.707105 0
    outer loop
      vertex 0.746999 -0.470334 -0.5
      vertex 0.746999 -0.470334 0.5
      vertex 0.581 -0.304334 0.5
    endloop
  endfacet
  facet normal 0.98058 -0.196119 0
    outer loop
      vertex 0.774666 -0.332001 -0.5
      vertex 0.746999 -0.470334 0.5
      vertex 0.746999 -0.470334 -0.5
    endloop
  endfacet
  facet normal 0.98058 -0.196119 0
    outer loop
      vertex 0.774666 -0.332001 -0.5
      vertex 0.774666 -0.332001 0.5
      vertex 0.746999 -0.470334 0.5
    endloop
  endfacet
  facet normal 0.164402 -0.986393 0
    outer loop
      vertex 0.940665 -0.304334 -0.5
      vertex 0.774666 -0.332001 0.5
      vertex 0.774666 -0.332001 -0.5
    endloop
  endfacet
  facet normal 0.164402 -0.986393 0
    outer loop
      vertex 0.940665 -0.304334 -0.5
      vertex 0.940665 -0.304334 0.5
      vertex 0.774666 -0.332001 0.5
    endloop
  endfacet
  facet normal 0 -1 0
    outer loop
      vertex 1.18967 -0.304334 -0.5
      vertex 0.940665 -0.304334 0.5
      vertex 0.940665 -0.304334 -0.5
    endloop
  endfacet
  facet normal 0 -1 0
    outer loop
      vertex 1.18967 -0.304334 -0.5
      vertex 1.18967 -0.304334 0.5
      vertex 0.940665 -0.304334 0.5
    endloop
  endfacet
  facet normal 0.832044 0.554709 0
    outer loop
      vertex 1.079 -0.138333 -0.5
      vertex 1.18967 -0.304334 0.5
      vertex 1.18967 -0.304334 -0.5
    endloop
  endfacet
  facet normal 0.832044 0.554709 -0
    outer loop
      vertex 1.079 -0.138333 -0.5
      vertex 1.079 -0.138333 0.5
      vertex 1.18967 -0.304334 0.5
    endloop
  endfacet
  facet normal -0.110432 0.993884 0
    outer loop
      vertex 0.829999 -0.166 -0.5
      vertex 1.079 -0.138333 0.5
      vertex 1.079 -0.138333 -0.5
    endloop
  endfacet
  facet normal -0.110432 0.993884 0
    outer loop
      vertex 0.829999 -0.166 -0.5
      vertex 0.829999 -0.166 0.5
      vertex 1.079 -0.138333 0.5
    endloop
  endfacet
  facet normal 0.970141 -0.242541 0
    outer loop
      vertex 0.857666 -0.0553345 -0.5
      vertex 0.829999 -0.166 0.5
      vertex 0.829999 -0.166 -0.5
    endloop
  endfacet
  facet normal 0.970141 -0.242541 0
    outer loop
      vertex 0.857666 -0.0553345 -0.5
      vertex 0.857666 -0.0553345 0.5
      vertex 0.829999 -0.166 0.5
    endloop
  endfacet
  facet normal 0.707101 0.707112 0
    outer loop
      vertex 0.774666 0.0276642 -0.5
      vertex 0.857666 -0.0553345 0.5
      vertex 0.857666 -0.0553345 -0.5
    endloop
  endfacet
  facet normal 0.707101 0.707112 -0
    outer loop
      vertex 0.774666 0.0276642 -0.5
      vertex 0.774666 0.0276642 0.5
      vertex 0.857666 -0.0553345 0.5
    endloop
  endfacet
  facet normal 0.371389 -0.928477 0
    outer loop
      vertex 0.912999 0.0829971 -0.5
      vertex 0.774666 0.0276642 0.5
      vertex 0.774666 0.0276642 -0.5
    endloop
  endfacet
  facet normal 0.371389 -0.928477 0
    outer loop
      vertex 0.912999 0.0829971 -0.5
      vertex 0.912999 0.0829971 0.5
      vertex 0.774666 0.0276642 0.5
    endloop
  endfacet
  facet normal -0.242536 -0.970142 0
    outer loop
      vertex 1.13433 0.0276642 -0.5
      vertex 0.912999 0.0829971 0.5
      vertex 0.912999 0.0829971 -0.5
    endloop
  endfacet
  facet normal -0.242536 -0.970142 0
    outer loop
      vertex 1.13433 0.0276642 -0.5
      vertex 1.13433 0.0276642 0.5
      vertex 0.912999 0.0829971 0.5
    endloop
  endfacet
  facet normal 0.894407 -0.447253 0
    outer loop
      vertex 1.18967 0.138332 -0.5
      vertex 1.13433 0.0276642 0.5
      vertex 1.13433 0.0276642 -0.5
    endloop
  endfacet
  facet normal 0.894407 -0.447253 0
    outer loop
      vertex 1.18967 0.138332 -0.5
      vertex 1.18967 0.138332 0.5
      vertex 1.13433 0.0276642 0.5
    endloop
  endfacet
  facet normal 0.216929 -0.976187 0
    outer loop
      vertex 1.43867 0.193665 -0.5
      vertex 1.18967 0.138332 0.5
      vertex 1.18967 0.138332 -0.5
    endloop
  endfacet
  facet normal 0.216929 -0.976187 0
    outer loop
      vertex 1.43867 0.193665 -0.5
      vertex 1.43867 0.193665 0.5
      vertex 1.18967 0.138332 0.5
    endloop
  endfacet
  facet normal 0.980576 0.196139 0
    outer loop
      vertex 1.411 0.331998 -0.5
      vertex 1.43867 0.193665 0.5
      vertex 1.43867 0.193665 -0.5
    endloop
  endfacet
  facet normal 0.980576 0.196139 -0
    outer loop
      vertex 1.411 0.331998 -0.5
      vertex 1.411 0.331998 0.5
      vertex 1.43867 0.193665 0.5
    endloop
  endfacet
  facet normal 0.196123 -0.980579 0
    outer loop
      vertex 1.54933 0.359665 -0.5
      vertex 1.411 0.331998 0.5
      vertex 1.411 0.331998 -0.5
    endloop
  endfacet
  facet normal 0.196123 -0.980579 0
    outer loop
      vertex 1.54933 0.359665 -0.5
      vertex 1.54933 0.359665 0.5
      vertex 1.411 0.331998 0.5
    endloop
  endfacet
  facet normal 0.992282 0.124005 0
    outer loop
      vertex 1.52167 0.580998 -0.5
      vertex 1.54933 0.359665 0.5
      vertex 1.54933 0.359665 -0.5
    endloop
  endfacet
  facet normal 0.992282 0.124005 -0
    outer loop
      vertex 1.52167 0.580998 -0.5
      vertex 1.52167 0.580998 0.5
      vertex 1.54933 0.359665 0.5
    endloop
  endfacet
  facet normal 0 1 0
    outer loop
      vertex 1.38333 0.580998 -0.5
      vertex 1.52167 0.580998 0.5
      vertex 1.52167 0.580998 -0.5
    endloop
  endfacet
  facet normal 0 1 0
    outer loop
      vertex 1.38333 0.580998 -0.5
      vertex 1.38333 0.580998 0.5
      vertex 1.52167 0.580998 0.5
    endloop
  endfacet
  facet normal 0.868255 0.496118 0
    outer loop
      vertex 1.27267 0.774664 -0.5
      vertex 1.38333 0.580998 0.5
      vertex 1.38333 0.580998 -0.5
    endloop
  endfacet
  facet normal 0.868255 0.496118 -0
    outer loop
      vertex 1.27267 0.774664 -0.5
      vertex 1.27267 0.774664 0.5
      vertex 1.38333 0.580998 0.5
    endloop
  endfacet
  facet normal -0.514478 0.857504 0
    outer loop
      vertex 1.13433 0.691664 -0.5
      vertex 1.27267 0.774664 0.5
      vertex 1.27267 0.774664 -0.5
    endloop
  endfacet
  facet normal -0.514478 0.857504 0
    outer loop
      vertex 1.13433 0.691664 -0.5
      vertex 1.13433 0.691664 0.5
      vertex 1.27267 0.774664 0.5
    endloop
  endfacet
  facet normal 0.9864 0.16436 0
    outer loop
      vertex 1.10667 0.857664 -0.5
      vertex 1.13433 0.691664 0.5
      vertex 1.13433 0.691664 -0.5
    endloop
  endfacet
  facet normal 0.9864 0.16436 -0
    outer loop
      vertex 1.10667 0.857664 -0.5
      vertex 1.10667 0.857664 0.5
      vertex 1.13433 0.691664 0.5
    endloop
  endfacet
  facet normal -0.110431 0.993884 0
    outer loop
      vertex 0.857666 0.829997 -0.5
      vertex 1.10667 0.857664 0.5
      vertex 1.10667 0.857664 -0.5
    endloop
  endfacet
  facet normal -0.110431 0.993884 0
    outer loop
      vertex 0.857666 0.829997 -0.5
      vertex 0.857666 0.829997 0.5
      vertex 1.10667 0.857664 0.5
    endloop
  endfacet
  facet normal 0.832052 -0.554698 0
    outer loop
      vertex 0.912999 0.912997 -0.5
      vertex 0.857666 0.829997 0.5
      vertex 0.857666 0.829997 -0.5
    endloop
  endfacet
  facet normal 0.832052 -0.554698 0
    outer loop
      vertex 0.912999 0.912997 -0.5
      vertex 0.912999 0.912997 0.5
      vertex 0.857666 0.829997 0.5
    endloop
  endfacet
  facet normal 0.789349 -0.613945 0
    outer loop
      vertex 1.10667 1.162 -0.5
      vertex 0.912999 0.912997 0.5
      vertex 0.912999 0.912997 -0.5
    endloop
  endfacet
  facet normal 0.789349 -0.613945 0
    outer loop
      vertex 1.10667 1.162 -0.5
      vertex 1.10667 1.162 0.5
      vertex 0.912999 0.912997 0.5
    endloop
  endfacet
  facet normal 0.447203 0.894433 0
    outer loop
      vertex 0.940665 1.245 -0.5
      vertex 1.10667 1.162 0.5
      vertex 1.10667 1.162 -0.5
    endloop
  endfacet
  facet normal 0.447203 0.894433 -0
    outer loop
      vertex 0.940665 1.245 -0.5
      vertex 0.940665 1.245 0.5
      vertex 1.10667 1.162 0.5
    endloop
  endfacet
  facet normal 0.894429 0.447209 0
    outer loop
      vertex 0.857666 1.411 -0.5
      vertex 0.940665 1.245 0.5
      vertex 0.940665 1.245 -0.5
    endloop
  endfacet
  facet normal 0.894429 0.447209 -0
    outer loop
      vertex 0.857666 1.411 -0.5
      vertex 0.857666 1.411 0.5
      vertex 0.940665 1.245 0.5
    endloop
  endfacet
  facet normal -0.371401 0.928473 0
    outer loop
      vertex 0.581 1.30033 -0.5
      vertex 0.857666 1.411 0.5
      vertex 0.857666 1.411 -0.5
    endloop
  endfacet
  facet normal -0.371401 0.928473 0
    outer loop
      vertex 0.581 1.30033 -0.5
      vertex 0.581 1.30033 0.5
      vertex 0.857666 1.411 0.5
    endloop
  endfacet
  facet normal 0.707109 -0.707105 0
    outer loop
      vertex 0.746999 1.46633 -0.5
      vertex 0.581 1.30033 0.5
      vertex 0.581 1.30033 -0.5
    endloop
  endfacet
  facet normal 0.707109 -0.707105 0
    outer loop
      vertex 0.746999 1.46633 -0.5
      vertex 0.746999 1.46633 0.5
      vertex 0.581 1.30033 0.5
    endloop
  endfacet
  facet normal 0.196138 0.980576 0
    outer loop
      vertex 0.608665 1.494 -0.5
      vertex 0.746999 1.46633 0.5
      vertex 0.746999 1.46633 -0.5
    endloop
  endfacet
  facet normal 0.196138 0.980576 -0
    outer loop
      vertex 0.608665 1.494 -0.5
      vertex 0.608665 1.494 0.5
      vertex 0.746999 1.46633 0.5
    endloop
  endfacet
  facet normal 0.707091 0.707123 0
    outer loop
      vertex 0.498 1.60466 -0.5
      vertex 0.608665 1.494 0.5
      vertex 0.608665 1.494 -0.5
    endloop
  endfacet
  facet normal 0.707091 0.707123 -0
    outer loop
      vertex 0.498 1.60466 -0.5
      vertex 0.498 1.60466 0.5
      vertex 0.608665 1.494 0.5
    endloop
  endfacet
  facet normal -0.514494 0.857494 0
    outer loop
      vertex 0.359666 1.52166 -0.5
      vertex 0.498 1.60466 0.5
      vertex 0.498 1.60466 -0.5
    endloop
  endfacet
  facet normal -0.514494 0.857494 0
    outer loop
      vertex 0.359666 1.52166 -0.5
      vertex 0.359666 1.52166 0.5
      vertex 0.498 1.60466 0.5
    endloop
  endfacet
  facet normal 0.868246 0.496134 0
    outer loop
      vertex 0.248999 1.71533 -0.5
      vertex 0.359666 1.52166 0.5
      vertex 0.359666 1.52166 -0.5
    endloop
  endfacet
  facet normal 0.868246 0.496134 -0
    outer loop
      vertex 0.248999 1.71533 -0.5
      vertex 0.248999 1.71533 0.5
      vertex 0.359666 1.52166 0.5
    endloop
  endfacet
  facet normal -0.554677 0.832066 0
    outer loop
      vertex 0.165999 1.66 -0.5
      vertex 0.248999 1.71533 0.5
      vertex 0.248999 1.71533 -0.5
    endloop
  endfacet
  facet normal -0.554677 0.832066 0
    outer loop
      vertex 0.165999 1.66 -0.5
      vertex 0.165999 1.66 0.5
      vertex 0.248999 1.71533 0.5
    endloop
  endfacet
  facet normal -0.847995 0.530005 0
    outer loop
      vertex 0.0276657 1.43867 -0.5
      vertex 0.165999 1.66 0.5
      vertex 0.165999 1.66 -0.5
    endloop
  endfacet
  facet normal -0.847995 0.530005 0
    outer loop
      vertex 0.0276657 1.43867 -0.5
      vertex 0.0276657 1.43867 0.5
      vertex 0.165999 1.66 0.5
    endloop
  endfacet
  facet normal 0.242485 0.970155 0
    outer loop
      vertex -0.0829987 1.46633 -0.5
      vertex 0.0276657 1.43867 0.5
      vertex 0.0276657 1.43867 -0.5
    endloop
  endfacet
  facet normal 0.242485 0.970155 -0
    outer loop
      vertex -0.0829987 1.46633 -0.5
      vertex -0.0829987 1.46633 0.5
      vertex 0.0276657 1.43867 0.5
    endloop
  endfacet
  facet normal -0.928471 0.371404 0
    outer loop
      vertex -0.138333 1.328 -0.5
      vertex -0.0829987 1.46633 0.5
      vertex -0.0829987 1.46633 -0.5
    endloop
  endfacet
  facet normal -0.928471 0.371404 0
    outer loop
      vertex -0.138333 1.328 -0.5
      vertex -0.138333 1.328 0.5
      vertex -0.0829987 1.46633 0.5
    endloop
  endfacet
  facet normal 0.216919 0.97619 0
    outer loop
      vertex -0.387332 1.38333 -0.5
      vertex -0.138333 1.328 0.5
      vertex -0.138333 1.328 -0.5
    endloop
  endfacet
  facet normal 0.216919 0.97619 -0
    outer loop
      vertex -0.387332 1.38333 -0.5
      vertex -0.387332 1.38333 0.5
      vertex -0.138333 1.328 0.5
    endloop
  endfacet
  facet normal -0.928474 -0.371396 0
    outer loop
      vertex -0.331999 1.245 -0.5
      vertex -0.387332 1.38333 0.5
      vertex -0.387332 1.38333 -0.5
    endloop
  endfacet
  facet normal -0.928474 -0.371396 0
    outer loop
      vertex -0.331999 1.245 -0.5
      vertex -0.331999 1.245 0.5
      vertex -0.387332 1.38333 0.5
    endloop
  endfacet
  facet normal -0.707107 0.707107 0
    outer loop
      vertex -0.414999 1.162 -0.5
      vertex -0.331999 1.245 0.5
      vertex -0.331999 1.245 -0.5
    endloop
  endfacet
  facet normal -0.707107 0.707107 0
    outer loop
      vertex -0.414999 1.162 -0.5
      vertex -0.414999 1.162 0.5
      vertex -0.331999 1.245 0.5
    endloop
  endfacet
  facet normal -0.894428 -0.447211 0
    outer loop
      vertex -0.331999 0.995999 -0.5
      vertex -0.414999 1.162 0.5
      vertex -0.414999 1.162 -0.5
    endloop
  endfacet
  facet normal -0.894428 -0.447211 0
    outer loop
      vertex -0.331999 0.995999 -0.5
      vertex -0.331999 0.995999 0.5
      vertex -0.414999 1.162 0.5
    endloop
  endfacet
  facet normal 0.196143 0.980575 0
    outer loop
      vertex -0.470334 1.02367 -0.5
      vertex -0.331999 0.995999 0.5
      vertex -0.331999 0.995999 -0.5
    endloop
  endfacet
  facet normal 0.196143 0.980575 -0
    outer loop
      vertex -0.470334 1.02367 -0.5
      vertex -0.470334 1.02367 0.5
      vertex -0.331999 0.995999 0.5
    endloop
  endfacet
  facet normal 0.371373 0.928484 0
    outer loop
      vertex -0.746999 1.13433 -0.5
      vertex -0.470334 1.02367 0.5
      vertex -0.470334 1.02367 -0.5
    endloop
  endfacet
  facet normal 0.371373 0.928484 -0
    outer loop
      vertex -0.746999 1.13433 -0.5
      vertex -0.746999 1.13433 0.5
      vertex -0.470334 1.02367 0.5
    endloop
  endfacet
  facet normal -1 0 0
    outer loop
      vertex -0.746999 0.940666 -0.5
      vertex -0.746999 1.13433 0.5
      vertex -0.746999 1.13433 -0.5
    endloop
  endfacet
  facet normal -1 0 0
    outer loop
      vertex -0.746999 0.940666 -0.5
      vertex -0.746999 0.940666 0.5
      vertex -0.746999 1.13433 0.5
    endloop
  endfacet
  facet normal 0.110433 0.993884 0
    outer loop
      vertex -0.995999 0.968333 -0.5
      vertex -0.746999 0.940666 0.5
      vertex -0.746999 0.940666 -0.5
    endloop
  endfacet
  facet normal 0.110433 0.993884 -0
    outer loop
      vertex -0.995999 0.968333 -0.5
      vertex -0.995999 0.968333 0.5
      vertex -0.746999 0.940666 0.5
    endloop
  endfacet
  facet normal -0.986395 0.164393 0
    outer loop
      vertex -1.05133 0.636334 -0.5
      vertex -0.995999 0.968333 0.5
      vertex -0.995999 0.968333 -0.5
    endloop
  endfacet
  facet normal -0.986395 0.164393 0
    outer loop
      vertex -1.05133 0.636334 -0.5
      vertex -1.05133 0.636334 0.5
      vertex -0.995999 0.968333 0.5
    endloop
  endfacet
  facet normal -0.393914 0.919147 0
    outer loop
      vertex -1.245 0.553334 -0.5
      vertex -1.05133 0.636334 0.5
      vertex -1.05133 0.636334 -0.5
    endloop
  endfacet
  facet normal -0.393914 0.919147 0
    outer loop
      vertex -1.245 0.553334 -0.5
      vertex -1.245 0.553334 0.5
      vertex -1.05133 0.636334 0.5
    endloop
  endfacet
  facet normal -0.986391 -0.164416 0
    outer loop
      vertex -1.21733 0.387332 -0.5
      vertex -1.245 0.553334 0.5
      vertex -1.245 0.553334 -0.5
    endloop
  endfacet
  facet normal -0.986391 -0.164416 0
    outer loop
      vertex -1.21733 0.387332 -0.5
      vertex -1.21733 0.387332 0.5
      vertex -1.245 0.553334 0.5
    endloop
  endfacet
  facet normal -0.341735 0.939796 0
    outer loop
      vertex -1.52167 0.276666 -0.5
      vertex -1.21733 0.387332 0.5
      vertex -1.21733 0.387332 -0.5
    endloop
  endfacet
  facet normal -0.341735 0.939796 0
    outer loop
      vertex -1.52167 0.276666 -0.5
      vertex -1.52167 0.276666 0.5
      vertex -1.21733 0.387332 0.5
    endloop
  endfacet
  facet normal -0.447214 -0.894427 0
    outer loop
      vertex -1.35567 0.193666 -0.5
      vertex -1.52167 0.276666 0.5
      vertex -1.52167 0.276666 -0.5
    endloop
  endfacet
  facet normal -0.447214 -0.894427 0
    outer loop
      vertex -1.35567 0.193666 -0.5
      vertex -1.35567 0.193666 0.5
      vertex -1.52167 0.276666 0.5
    endloop
  endfacet
  facet normal -0.496149 0.868237 0
    outer loop
      vertex -1.54933 0.0830002 -0.5
      vertex -1.35567 0.193666 0.5
      vertex -1.35567 0.193666 -0.5
    endloop
  endfacet
  facet normal -0.496149 0.868237 0
    outer loop
      vertex -1.54933 0.0830002 -0.5
      vertex -1.54933 0.0830002 0.5
      vertex -1.35567 0.193666 0.5
    endloop
  endfacet
  facet normal -0.447214 -0.894427 0
    outer loop
      vertex -1.38333 0 -0.5
      vertex -1.54933 0.0830002 0.5
      vertex -1.54933 0.0830002 -0.5
    endloop
  endfacet
  facet normal -0.447214 -0.894427 0
    outer loop
      vertex -1.38333 0 -0.5
      vertex -1.38333 0 0.5
      vertex -1.54933 0.0830002 0.5
    endloop
  endfacet
  facet normal 0 -1 0
    outer loop
      vertex -1.079 0 -0.5
      vertex -1.38333 0 0.5
      vertex -1.38333 0 -0.5
    endloop
  endfacet
  facet normal 0 -1 0
    outer loop
      vertex -1.079 0 -0.5
      vertex -1.079 0 0.5
      vertex -1.38333 0 0.5
    endloop
  endfacet
  facet normal -0.986391 0.164419 0
    outer loop
      vertex -1.10667 -0.165999 -0.5
      vertex -1.079 0 0.5
      vertex -1.079 0 -0.5
    endloop
  endfacet
  facet normal -0.986391 0.164419 0
    outer loop
      vertex -1.10667 -0.165999 -0.5
      vertex -1.10667 -0.165999 0.5
      vertex -1.079 0 0.5
    endloop
  endfacet
  facet normal -0.936329 0.351124 0
    outer loop
      vertex -1.18967 -0.387332 -0.5
      vertex -1.10667 -0.165999 0.5
      vertex -1.10667 -0.165999 -0.5
    endloop
  endfacet
  facet normal -0.936329 0.351124 0
    outer loop
      vertex -1.18967 -0.387332 -0.5
      vertex -1.18967 -0.387332 0.5
      vertex -1.10667 -0.165999 0.5
    endloop
  endfacet
  facet normal 0.164395 -0.986395 0
    outer loop
      vertex -1.02367 -0.359666 -0.5
      vertex -1.18967 -0.387332 0.5
      vertex -1.18967 -0.387332 -0.5
    endloop
  endfacet
  facet normal 0.164395 -0.986395 0
    outer loop
      vertex -1.02367 -0.359666 -0.5
      vertex -1.02367 -0.359666 0.5
      vertex -1.18967 -0.387332 0.5
    endloop
  endfacet
  facet normal 0.51449 -0.857496 0
    outer loop
      vertex -0.885333 -0.276665 -0.5
      vertex -1.02367 -0.359666 0.5
      vertex -1.02367 -0.359666 -0.5
    endloop
  endfacet
  facet normal 0.51449 -0.857496 0
    outer loop
      vertex -0.885333 -0.276665 -0.5
      vertex -0.885333 -0.276665 0.5
      vertex -1.02367 -0.359666 0.5
    endloop
  endfacet
  facet normal -0.242539 -0.970142 0
    outer loop
      vertex -0.664 -0.331999 -0.5
      vertex -0.885333 -0.276665 0.5
      vertex -0.885333 -0.276665 -0.5
    endloop
  endfacet
  facet normal -0.242539 -0.970142 0
    outer loop
      vertex -0.664 -0.331999 -0.5
      vertex -0.664 -0.331999 0.5
      vertex -0.885333 -0.276665 0.5
    endloop
  endfacet
  facet normal 0.514497 -0.857492 0
    outer loop
      vertex -0.525667 -0.248999 -0.5
      vertex -0.664 -0.331999 0.5
      vertex -0.664 -0.331999 -0.5
    endloop
  endfacet
  facet normal 0.514497 -0.857492 0
    outer loop
      vertex -0.525667 -0.248999 -0.5
      vertex -0.525667 -0.248999 0.5
      vertex -0.664 -0.331999 0.5
    endloop
  endfacet
  facet normal -0.894429 -0.44721 0
    outer loop
      vertex -0.470334 -0.359666 -0.5
      vertex -0.525667 -0.248999 0.5
      vertex -0.525667 -0.248999 -0.5
    endloop
  endfacet
  facet normal -0.894429 -0.44721 0
    outer loop
      vertex -0.470334 -0.359666 -0.5
      vertex -0.470334 -0.359666 0.5
      vertex -0.525667 -0.248999 0.5
    endloop
  endfacet
  facet normal 0 -1 0
    outer loop
      vertex -0.304332 -0.359666 -0.5
      vertex -0.470334 -0.359666 0.5
      vertex -0.470334 -0.359666 -0.5
    endloop
  endfacet
  facet normal 0 -1 0
    outer loop
      vertex -0.304332 -0.359666 -0.5
      vertex -0.304332 -0.359666 0.5
      vertex -0.470334 -0.359666 0.5
    endloop
  endfacet
  facet normal -0.857493 -0.514495 0
    outer loop
      vertex -0.221333 -0.497998 -0.5
      vertex -0.304332 -0.359666 0.5
      vertex -0.304332 -0.359666 -0.5
    endloop
  endfacet
  facet normal -0.857493 -0.514495 0
    outer loop
      vertex -0.221333 -0.497998 -0.5
      vertex -0.221333 -0.497998 0.5
      vertex -0.304332 -0.359666 0.5
    endloop
  endfacet
  facet normal -0.993884 -0.110432 0
    outer loop
      vertex -0.193666 -0.746999 -0.5
      vertex -0.221333 -0.497998 0.5
      vertex -0.221333 -0.497998 -0.5
    endloop
  endfacet
  facet normal -0.993884 -0.110432 0
    outer loop
      vertex -0.193666 -0.746999 -0.5
      vertex -0.193666 -0.746999 0.5
      vertex -0.221333 -0.497998 0.5
    endloop
  endfacet
  facet normal -0.24254 0.970141 0
    outer loop
      vertex -0.304332 -0.774666 -0.5
      vertex -0.193666 -0.746999 0.5
      vertex -0.193666 -0.746999 -0.5
    endloop
  endfacet
  facet normal -0.24254 0.970141 0
    outer loop
      vertex -0.304332 -0.774666 -0.5
      vertex -0.304332 -0.774666 0.5
      vertex -0.193666 -0.746999 0.5
    endloop
  endfacet
  facet normal 0.58124 0.813732 0
    outer loop
      vertex -0.498 -0.636331 -0.5
      vertex -0.304332 -0.774666 0.5
      vertex -0.304332 -0.774666 -0.5
    endloop
  endfacet
  facet normal 0.58124 0.813732 -0
    outer loop
      vertex -0.498 -0.636331 -0.5
      vertex -0.498 -0.636331 0.5
      vertex -0.304332 -0.774666 0.5
    endloop
  endfacet
  facet normal -0.832049 -0.554703 0
    outer loop
      vertex -0.387332 -0.802332 -0.5
      vertex -0.498 -0.636331 0.5
      vertex -0.498 -0.636331 -0.5
    endloop
  endfacet
  facet normal -0.832049 -0.554703 0
    outer loop
      vertex -0.387332 -0.802332 -0.5
      vertex -0.387332 -0.802332 0.5
      vertex -0.498 -0.636331 0.5
    endloop
  endfacet
  facet normal -0.242536 0.970143 0
    outer loop
      vertex -0.498 -0.829999 -0.5
      vertex -0.387332 -0.802332 0.5
      vertex -0.387332 -0.802332 -0.5
    endloop
  endfacet
  facet normal -0.242536 0.970143 0
    outer loop
      vertex -0.498 -0.829999 -0.5
      vertex -0.498 -0.829999 0.5
      vertex -0.387332 -0.802332 0.5
    endloop
  endfacet
  facet normal -0.759245 -0.650805 0
    outer loop
      vertex -0.331999 -1.02366 -0.5
      vertex -0.498 -0.829999 0.5
      vertex -0.498 -0.829999 -0.5
    endloop
  endfacet
  facet normal -0.759245 -0.650805 0
    outer loop
      vertex -0.331999 -1.02366 -0.5
      vertex -0.331999 -1.02366 0.5
      vertex -0.498 -0.829999 0.5
    endloop
  endfacet
  facet normal -0.98995 0.141418 0
    outer loop
      vertex -0.387332 -1.411 -0.5
      vertex -0.331999 -1.02366 0.5
      vertex -0.331999 -1.02366 -0.5
    endloop
  endfacet
  facet normal -0.98995 0.141418 0
    outer loop
      vertex -0.387332 -1.411 -0.5
      vertex -0.387332 -1.411 0.5
      vertex -0.331999 -1.02366 0.5
    endloop
  endfacet
  facet normal -0.460896 0.887454 0
    outer loop
      vertex -0.973318 -1.71533 -0.5
      vertex -0.387332 -1.411 0.5
      vertex -0.387332 -1.411 -0.5
    endloop
  endfacet
  facet normal -0.460896 0.887454 0
    outer loop
      vertex -0.973318 -1.71533 -0.5
      vertex -0.973318 -1.71533 0.5
      vertex -0.387332 -1.411 0.5
    endloop
  endfacet
  facet normal 0.00529895 -0.999986 0
    outer loop
      vertex 0.481667 -1.70762 -0.5
      vertex -0.973318 -1.71533 0.5
      vertex -0.973318 -1.71533 -0.5
    endloop
  endfacet
  facet normal 0.00529895 -0.999986 0
    outer loop
      vertex 0.481667 -1.70762 -0.5
      vertex 0.481667 -1.70762 0.5
      vertex -0.973318 -1.71533 0.5
    endloop
  endfacet
endsolid OpenSCAD_Model
