<?xml version="1.0" encoding="utf-8"?>
<!-- Svg Vector Icons : http://www.onlinewebfonts.com/icon -->
<!DOCTYPE svg PUBLIC "-//W3C//DTD SVG 1.1//EN" "http://www.w3.org/Graphics/SVG/1.1/DTD/svg11.dtd">
<svg version="1.1" xmlns="http://www.w3.org/2000/svg" xmlns:xlink="http://www.w3.org/1999/xlink" x="0px" y="0px" viewBox="0 0 1000 1000" enable-background="new 0 0 1000 1000" xml:space="preserve">
<metadata> Svg Vector Icons : http://www.onlinewebfonts.com/icon </metadata>
<g><g><path d="M817.8,565.7c-30.1-28.3-57-35.4-88.9-35.4c0,0-12.9,0.3-2.6,13.3c13.6,17.1,112.7,146.4,111.1,252.2c-1.8,122.5-123,115.5-123,115.5c51-97,25.3-188.7,17.4-220.8c-15-59.3-44.6-116.7-89.1-172.1c-54.8-69-110.1-101.8-165.9-98.2c-23.9-41.1-45-74.2-63.6-101.2c101-90.1,35.2-133.7-22-308.9c-13.3,37.2-23.9,64.6-31.9,82.3c-40.4-5-130.2-5-170.6,0c-8-17.7-18.6-45.1-31.9-82.3C99.4,185.6,33.5,227.9,135.6,318.6c10.9,206,53.4,260.8,122.1,360.3c56.6,81.9,42.5,111.1,69,224.3c-200.9,126.6,139.7,78.1,192.5,75.5c136-6.6,419.7,74.7,397.1-214.8C909.9,680,871.9,617.1,817.8,565.7z M200.1,201.8c-62.3-4.7-53.4-39.4-22.6-38.5c17.6,0.6,39.4,12.8,54.4,38.5H200.1z M347.5,201.8h-31.8c15.1-25.6,36.9-37.9,54.4-38.5C400.9,162.3,409.7,197.1,347.5,201.8z"/></g><g></g><g></g><g></g><g></g><g></g><g></g><g></g><g></g><g></g><g></g><g></g><g></g><g></g><g></g><g></g></g>
</svg>