<?xml version="1.0" encoding="UTF-8" standalone="no"?>
<svg
   xmlns:dc="http://purl.org/dc/elements/1.1/"
   xmlns:cc="http://creativecommons.org/ns#"
   xmlns:rdf="http://www.w3.org/1999/02/22-rdf-syntax-ns#"
   xmlns:svg="http://www.w3.org/2000/svg"
   xmlns="http://www.w3.org/2000/svg"
   xmlns:sodipodi="http://sodipodi.sourceforge.net/DTD/sodipodi-0.dtd"
   xmlns:inkscape="http://www.inkscape.org/namespaces/inkscape"
   version="1.0"
   width="31.26mm"
   height="39.32mm"
   id="svg946"
   sodipodi:docname="Horst.svg"
   inkscape:version="1.0.1 (3bc2e813f5, 2020-09-07)">
  <metadata
     id="metadata950">
    <rdf:RDF>
      <cc:Work
         rdf:about="">
        <dc:format>image/svg+xml</dc:format>
        <dc:type
           rdf:resource="http://purl.org/dc/dcmitype/StillImage" />
        <dc:title></dc:title>
      </cc:Work>
    </rdf:RDF>
  </metadata>
  <sodipodi:namedview
     pagecolor="#ffffff"
     bordercolor="#666666"
     borderopacity="1"
     objecttolerance="10"
     gridtolerance="10"
     guidetolerance="10"
     inkscape:pageopacity="0"
     inkscape:pageshadow="2"
     inkscape:window-width="1920"
     inkscape:window-height="1017"
     id="namedview948"
     showgrid="false"
     inkscape:zoom="5.7196296"
     inkscape:cx="59.074016"
     inkscape:cy="74.305511"
     inkscape:window-x="-8"
     inkscape:window-y="-8"
     inkscape:window-maximized="1"
     inkscape:current-layer="svg946" />
  <defs
     id="defs942">
    <pattern
       id="EMFhbasepattern"
       patternUnits="userSpaceOnUse"
       width="6"
       height="6"
       x="0"
       y="0" />
  </defs>
  <path
     style="fill:#fefefe;fill-rule:nonzero;fill-opacity:1;stroke:#000000;stroke-width:2.0913386px;stroke-linecap:round;stroke-linejoin:round;stroke-miterlimit:4;stroke-dasharray:none;stroke-opacity:1;"
     d="  M 93.064567,2.0913386   C 93.064567,2.0913386 77.379528,6.2740157 77.379528,6.2740157   C 77.379528,6.2740157 62.740157,10.456693 62.740157,10.456693   C 62.740157,10.456693 52.283465,18.822047 52.283465,18.822047   C 52.283465,18.822047 37.644094,31.370079 37.644094,31.370079   C 37.644094,31.370079 31.370079,40.781102 31.370079,40.781102   C 31.370079,40.781102 23.004724,48.100787 23.004724,48.100787   C 23.004724,48.100787 9.4110236,52.283465 9.4110236,52.283465   C 9.4110236,52.283465 2.0913386,56.466142 2.0913386,56.466142   C 2.0913386,56.466142 2.0913386,62.740157 2.0913386,62.740157   C 2.0913386,62.740157 12.548031,67.968504 12.548031,67.968504   C 12.548031,67.968504 20.913386,73.19685 20.913386,73.19685   C 20.913386,73.19685 24.050394,82.607874 24.050394,82.607874   C 24.050394,82.607874 23.004724,93.064567 23.004724,93.064567   C 23.004724,93.064567 18.822047,107.70394 18.822047,107.70394   C 18.822047,107.70394 15.685039,122.34331 15.685039,122.34331   C 15.685039,122.34331 13.593701,132.8 13.593701,132.8   C 13.593701,132.8 12.548031,144.30236 12.548031,144.30236   C 12.548031,144.30236 17.776378,146.3937 17.776378,146.3937   C 17.776378,146.3937 112.93228,146.3937 112.93228,146.3937   C 112.93228,146.3937 116.06929,142.21102 116.06929,142.21102   C 116.06929,142.21102 113.97795,121.29764 113.97795,121.29764   C 113.97795,121.29764 110.84094,102.47559 110.84094,102.47559   C 110.84094,102.47559 104.56693,82.607874 104.56693,82.607874   C 104.56693,82.607874 102.47559,40.781102 102.47559,40.781102   C 102.47559,40.781102 96.201575,9.4110236 96.201575,9.4110236   C 96.201575,9.4110236 93.064567,2.0913386 93.064567,2.0913386   z "
     id="path944" />
</svg>
