<?xml version="1.0" encoding="UTF-8" standalone="no"?>
<svg
   xmlns:dc="http://purl.org/dc/elements/1.1/"
   xmlns:cc="http://creativecommons.org/ns#"
   xmlns:rdf="http://www.w3.org/1999/02/22-rdf-syntax-ns#"
   xmlns:svg="http://www.w3.org/2000/svg"
   xmlns="http://www.w3.org/2000/svg"
   xmlns:sodipodi="http://sodipodi.sourceforge.net/DTD/sodipodi-0.dtd"
   xmlns:inkscape="http://www.inkscape.org/namespaces/inkscape"
   width="210mm"
   height="297mm"
   viewBox="0 0 210 297"
   version="1.1"
   id="svg8"
   inkscape:version="1.0.1 (3bc2e813f5, 2020-09-07)"
   sodipodi:docname="Seitenwand.svg">
  <defs
     id="defs2" />
  <sodipodi:namedview
     id="base"
     pagecolor="#ffffff"
     bordercolor="#666666"
     borderopacity="1.0"
     inkscape:pageopacity="0.0"
     inkscape:pageshadow="2"
     inkscape:zoom="0.98994949"
     inkscape:cx="449.77608"
     inkscape:cy="283.07499"
     inkscape:document-units="mm"
     inkscape:current-layer="layer1"
     inkscape:document-rotation="0"
     showgrid="true"
     inkscape:window-width="1920"
     inkscape:window-height="1017"
     inkscape:window-x="-8"
     inkscape:window-y="-8"
     inkscape:window-maximized="1"
     inkscape:pagecheckerboard="false"
     inkscape:snap-grids="true">
    <inkscape:grid
       type="xygrid"
       id="grid2759" />
  </sodipodi:namedview>
  <metadata
     id="metadata5">
    <rdf:RDF>
      <cc:Work
         rdf:about="">
        <dc:format>image/svg+xml</dc:format>
        <dc:type
           rdf:resource="http://purl.org/dc/dcmitype/StillImage" />
        <dc:title></dc:title>
      </cc:Work>
    </rdf:RDF>
  </metadata>
  <g
     inkscape:label="Ebene 1"
     inkscape:groupmode="layer"
     id="layer1"
     transform="translate(-25.570015,-31.239619)">
    <path
       id="rect2786"
       style="fill:#c40000;fill-opacity:1;fill-rule:evenodd;stroke:#000000;stroke-width:0;stroke-miterlimit:4;stroke-dasharray:none"
       d="M 0 0 L 0 283.46484 L 566.92969 283.46484 L 566.92969 0 L 0 0 z M 56.693359 94.488281 L 94.488281 94.488281 L 94.488281 132.2832 L 56.693359 132.2832 L 56.693359 94.488281 z M 113.38672 94.488281 L 151.18164 94.488281 L 151.18164 132.2832 L 113.38672 132.2832 L 113.38672 94.488281 z M 245.66992 94.488281 L 283.46484 94.488281 L 283.46484 132.2832 L 245.66992 132.2832 L 245.66992 94.488281 z M 302.36133 94.488281 L 340.1582 94.488281 L 340.1582 132.2832 L 302.36133 132.2832 L 302.36133 94.488281 z M 415.74805 94.488281 L 453.54297 94.488281 L 453.54297 132.2832 L 415.74805 132.2832 L 415.74805 94.488281 z M 472.44141 94.488281 L 510.23633 94.488281 L 510.23633 132.2832 L 472.44141 132.2832 L 472.44141 94.488281 z M 56.693359 151.18164 L 94.488281 151.18164 L 94.488281 188.97656 L 56.693359 188.97656 L 56.693359 151.18164 z M 113.38672 151.18164 L 151.18164 151.18164 L 151.18164 188.97656 L 113.38672 188.97656 L 113.38672 151.18164 z M 245.66992 151.18164 L 283.46484 151.18164 L 283.46484 188.97656 L 245.66992 188.97656 L 245.66992 151.18164 z M 302.36133 151.18164 L 340.1582 151.18164 L 340.1582 188.97656 L 302.36133 188.97656 L 302.36133 151.18164 z M 415.74805 151.18164 L 453.54297 151.18164 L 453.54297 188.97656 L 415.74805 188.97656 L 415.74805 151.18164 z M 472.44141 151.18164 L 510.23633 151.18164 L 510.23633 188.97656 L 472.44141 188.97656 L 472.44141 151.18164 z "
       transform="matrix(0.26458333,0,0,0.26458333,25.570015,31.239619)" />
  </g>
</svg>
