solid OpenSCAD_Model
  facet normal 0 0 -1
    outer loop
      vertex 2.40312 -1.22799 -0.05
      vertex 2.49566 -1.12807 -0.05
      vertex 2.48465 -1.15698 -0.05
    endloop
  endfacet
  facet normal 0 0 -1
    outer loop
      vertex -2.50859 1.05369 -0.05
      vertex -2.33651 1.24305 -0.05
      vertex -2.29518 1.24706 -0.05
    endloop
  endfacet
  facet normal 0 0 -1
    outer loop
      vertex -2.24833 1.24933 -0.05
      vertex -2.51086 1.00732 -0.05
      vertex -2.29518 1.24706 -0.05
    endloop
  endfacet
  facet normal 0 -0 -1
    outer loop
      vertex -2.50372 1.09379 -0.05
      vertex -2.33651 1.24305 -0.05
      vertex -2.50859 1.05369 -0.05
    endloop
  endfacet
  facet normal 0 0 -1
    outer loop
      vertex 2.1366 -1.25043 -0.05
      vertex 2.5052 -0.826006 -0.05
      vertex 2.50889 -0.893925 -0.05
    endloop
  endfacet
  facet normal 0 0 -1
    outer loop
      vertex 2.42971 -1.21602 -0.05
      vertex 2.48465 -1.15698 -0.05
      vertex 2.47018 -1.18097 -0.05
    endloop
  endfacet
  facet normal -0 0 -1
    outer loop
      vertex 2.45196 -1.2005 -0.05
      vertex 2.42971 -1.21602 -0.05
      vertex 2.47018 -1.18097 -0.05
    endloop
  endfacet
  facet normal -0 0 -1
    outer loop
      vertex 2.42971 -1.21602 -0.05
      vertex 2.40312 -1.22799 -0.05
      vertex 2.48465 -1.15698 -0.05
    endloop
  endfacet
  facet normal -0 0 -1
    outer loop
      vertex 2.40312 -1.22799 -0.05
      vertex 2.37192 -1.23685 -0.05
      vertex 2.49566 -1.12807 -0.05
    endloop
  endfacet
  facet normal -0 0 -1
    outer loop
      vertex 2.49566 -1.12807 -0.05
      vertex 2.37192 -1.23685 -0.05
      vertex 2.5035 -1.09379 -0.05
    endloop
  endfacet
  facet normal 0 0 -1
    outer loop
      vertex 2.5035 -1.09379 -0.05
      vertex 2.37192 -1.23685 -0.05
      vertex 2.33582 -1.24305 -0.05
    endloop
  endfacet
  facet normal 0 0 -1
    outer loop
      vertex 2.50845 -1.05369 -0.05
      vertex 2.5035 -1.09379 -0.05
      vertex 2.33582 -1.24305 -0.05
    endloop
  endfacet
  facet normal 0 0 -1
    outer loop
      vertex 2.29453 -1.24706 -0.05
      vertex 2.50845 -1.05369 -0.05
      vertex 2.33582 -1.24305 -0.05
    endloop
  endfacet
  facet normal 0 0 -1
    outer loop
      vertex 2.29453 -1.24706 -0.05
      vertex 2.51081 -1.00732 -0.05
      vertex 2.50845 -1.05369 -0.05
    endloop
  endfacet
  facet normal -0 0 -1
    outer loop
      vertex 2.29453 -1.24706 -0.05
      vertex 2.24775 -1.24933 -0.05
      vertex 2.51081 -1.00732 -0.05
    endloop
  endfacet
  facet normal -0 0 -1
    outer loop
      vertex 2.51081 -1.00732 -0.05
      vertex 2.24775 -1.24933 -0.05
      vertex 2.51086 -0.954211 -0.05
    endloop
  endfacet
  facet normal 0 0 -1
    outer loop
      vertex 2.51086 -0.954211 -0.05
      vertex 2.24775 -1.24933 -0.05
      vertex 2.1952 -1.2503 -0.05
    endloop
  endfacet
  facet normal 0 -0 -1
    outer loop
      vertex 2.50889 -0.893925 -0.05
      vertex 2.51086 -0.954211 -0.05
      vertex 2.1952 -1.2503 -0.05
    endloop
  endfacet
  facet normal 0 0 -1
    outer loop
      vertex 2.1366 -1.25043 -0.05
      vertex 2.50889 -0.893925 -0.05
      vertex 2.1952 -1.2503 -0.05
    endloop
  endfacet
  facet normal 0 0 -1
    outer loop
      vertex 2.07165 -1.25018 -0.05
      vertex 2.5052 -0.826006 -0.05
      vertex 2.1366 -1.25043 -0.05
    endloop
  endfacet
  facet normal 0 0 -1
    outer loop
      vertex 2.07165 -1.25018 -0.05
      vertex 2.50006 -0.749998 -0.05
      vertex 2.5052 -0.826006 -0.05
    endloop
  endfacet
  facet normal 0 0 -1
    outer loop
      vertex 2.07165 -1.25018 -0.05
      vertex 2.00006 -1.25 -0.05
      vertex 2.50006 -0.749998 -0.05
    endloop
  endfacet
  facet normal 0 0 -1
    outer loop
      vertex 2.50006 -0.749998 -0.05
      vertex 2.00006 1.25 -0.05
      vertex 2.50006 0.75 -0.05
    endloop
  endfacet
  facet normal 0 0 -1
    outer loop
      vertex 2.50036 0.94574 -0.05
      vertex 2.14399 1.25888 -0.05
      vertex 2.20427 1.2609 -0.05
    endloop
  endfacet
  facet normal -0 -0 -1
    outer loop
      vertex 2.34386 1.25379 -0.05
      vertex 2.49312 1.08657 -0.05
      vertex 2.30376 1.25865 -0.05
    endloop
  endfacet
  facet normal -0 -0 -1
    outer loop
      vertex 2.47805 1.15386 -0.05
      vertex 2.48691 1.12268 -0.05
      vertex 2.37813 1.24604 -0.05
    endloop
  endfacet
  facet normal 0 0 -1
    outer loop
      vertex 2.46609 1.1804 -0.05
      vertex 2.40704 1.23512 -0.05
      vertex 2.43104 1.22074 -0.05
    endloop
  endfacet
  facet normal -0 -0 -1
    outer loop
      vertex 2.45057 1.20259 -0.05
      vertex 2.46609 1.1804 -0.05
      vertex 2.43104 1.22074 -0.05
    endloop
  endfacet
  facet normal -0 -0 -1
    outer loop
      vertex 2.46609 1.1804 -0.05
      vertex 2.47805 1.15386 -0.05
      vertex 2.40704 1.23512 -0.05
    endloop
  endfacet
  facet normal -0 -0 -1
    outer loop
      vertex 2.40704 1.23512 -0.05
      vertex 2.47805 1.15386 -0.05
      vertex 2.37813 1.24604 -0.05
    endloop
  endfacet
  facet normal -0 -0 -1
    outer loop
      vertex 2.37813 1.24604 -0.05
      vertex 2.48691 1.12268 -0.05
      vertex 2.34386 1.25379 -0.05
    endloop
  endfacet
  facet normal 0 0 -1
    outer loop
      vertex 2.34386 1.25379 -0.05
      vertex 2.48691 1.12268 -0.05
      vertex 2.49312 1.08657 -0.05
    endloop
  endfacet
  facet normal 0 0 -1
    outer loop
      vertex 2.30376 1.25865 -0.05
      vertex 2.49312 1.08657 -0.05
      vertex 2.49713 1.04524 -0.05
    endloop
  endfacet
  facet normal 0 0 -1
    outer loop
      vertex 2.25738 1.26092 -0.05
      vertex 2.30376 1.25865 -0.05
      vertex 2.49713 1.04524 -0.05
    endloop
  endfacet
  facet normal 0 0 -1
    outer loop
      vertex 2.49939 0.998395 -0.05
      vertex 2.25738 1.26092 -0.05
      vertex 2.49713 1.04524 -0.05
    endloop
  endfacet
  facet normal 0 0 -1
    outer loop
      vertex 2.49939 0.998395 -0.05
      vertex 2.20427 1.2609 -0.05
      vertex 2.25738 1.26092 -0.05
    endloop
  endfacet
  facet normal -0 -0 -1
    outer loop
      vertex 2.49939 0.998395 -0.05
      vertex 2.50036 0.94574 -0.05
      vertex 2.20427 1.2609 -0.05
    endloop
  endfacet
  facet normal -0 -0 -1
    outer loop
      vertex 2.50036 0.94574 -0.05
      vertex 2.5005 0.886984 -0.05
      vertex 2.14399 1.25888 -0.05
    endloop
  endfacet
  facet normal 0 -0 -1
    outer loop
      vertex 2.14399 1.25888 -0.05
      vertex 2.5005 0.886984 -0.05
      vertex 2.07607 1.25515 -0.05
    endloop
  endfacet
  facet normal 0 0 -1
    outer loop
      vertex 2.07607 1.25515 -0.05
      vertex 2.5005 0.886984 -0.05
      vertex 2.50025 0.821835 -0.05
    endloop
  endfacet
  facet normal 0 0 -1
    outer loop
      vertex 2.00006 1.25 -0.05
      vertex 2.07607 1.25515 -0.05
      vertex 2.50025 0.821835 -0.05
    endloop
  endfacet
  facet normal 0 0 -1
    outer loop
      vertex 2.50006 0.75 -0.05
      vertex 2.00006 1.25 -0.05
      vertex 2.50025 0.821835 -0.05
    endloop
  endfacet
  facet normal -0 0 -1
    outer loop
      vertex 2.50006 -0.749998 -0.05
      vertex 2.00006 -1.25 -0.05
      vertex 2.00006 1.25 -0.05
    endloop
  endfacet
  facet normal -0 -0 -1
    outer loop
      vertex 2.00006 1.25 -0.05
      vertex 2.00006 -1.25 -0.05
      vertex -1.99994 1.25 -0.05
    endloop
  endfacet
  facet normal 0 0 -1
    outer loop
      vertex -1.99994 1.25 -0.05
      vertex 2.00006 -1.25 -0.05
      vertex -1.99994 -1.25 -0.05
    endloop
  endfacet
  facet normal 0 0 -1
    outer loop
      vertex -2.37262 1.23685 -0.05
      vertex -2.50372 1.09379 -0.05
      vertex -2.49598 1.12807 -0.05
    endloop
  endfacet
  facet normal 0 -0 -1
    outer loop
      vertex -2.40379 1.22799 -0.05
      vertex -2.37262 1.23685 -0.05
      vertex -2.49598 1.12807 -0.05
    endloop
  endfacet
  facet normal 0 -0 -1
    outer loop
      vertex -2.43033 1.21602 -0.05
      vertex -2.40379 1.22799 -0.05
      vertex -2.48506 1.15698 -0.05
    endloop
  endfacet
  facet normal 0 -0 -1
    outer loop
      vertex -2.45253 1.2005 -0.05
      vertex -2.43033 1.21602 -0.05
      vertex -2.47067 1.18097 -0.05
    endloop
  endfacet
  facet normal 0 -0 -1
    outer loop
      vertex -2.47067 1.18097 -0.05
      vertex -2.43033 1.21602 -0.05
      vertex -2.48506 1.15698 -0.05
    endloop
  endfacet
  facet normal 0 -0 -1
    outer loop
      vertex -2.48506 1.15698 -0.05
      vertex -2.40379 1.22799 -0.05
      vertex -2.49598 1.12807 -0.05
    endloop
  endfacet
  facet normal 0 -0 -1
    outer loop
      vertex -2.37262 1.23685 -0.05
      vertex -2.33651 1.24305 -0.05
      vertex -2.50372 1.09379 -0.05
    endloop
  endfacet
  facet normal 0 0 -1
    outer loop
      vertex -2.29518 1.24706 -0.05
      vertex -2.51086 1.00732 -0.05
      vertex -2.50859 1.05369 -0.05
    endloop
  endfacet
  facet normal 0 0 -1
    outer loop
      vertex -2.24833 1.24933 -0.05
      vertex -2.51084 0.954211 -0.05
      vertex -2.51086 1.00732 -0.05
    endloop
  endfacet
  facet normal 0 -0 -1
    outer loop
      vertex -2.24833 1.24933 -0.05
      vertex -2.19568 1.2503 -0.05
      vertex -2.51084 0.954211 -0.05
    endloop
  endfacet
  facet normal 0 0 -1
    outer loop
      vertex -2.51084 0.954211 -0.05
      vertex -2.19568 1.2503 -0.05
      vertex -2.50882 0.893925 -0.05
    endloop
  endfacet
  facet normal 0 0 -1
    outer loop
      vertex -2.50882 0.893925 -0.05
      vertex -2.19568 1.2503 -0.05
      vertex -2.13692 1.25043 -0.05
    endloop
  endfacet
  facet normal 0 0 -1
    outer loop
      vertex -2.50509 0.826006 -0.05
      vertex -2.50882 0.893925 -0.05
      vertex -2.13692 1.25043 -0.05
    endloop
  endfacet
  facet normal -0 0 -1
    outer loop
      vertex -2.07177 1.25018 -0.05
      vertex -2.50509 0.826006 -0.05
      vertex -2.13692 1.25043 -0.05
    endloop
  endfacet
  facet normal 0 0 -1
    outer loop
      vertex -2.07177 1.25018 -0.05
      vertex -2.49994 0.75 -0.05
      vertex -2.50509 0.826006 -0.05
    endloop
  endfacet
  facet normal 0 -0 -1
    outer loop
      vertex -2.07177 1.25018 -0.05
      vertex -1.99994 1.25 -0.05
      vertex -2.49994 0.75 -0.05
    endloop
  endfacet
  facet normal 0 0 -1
    outer loop
      vertex -2.49994 0.75 -0.05
      vertex -1.99994 1.25 -0.05
      vertex -1.99994 -1.25 -0.05
    endloop
  endfacet
  facet normal 0 0 -1
    outer loop
      vertex -2.49994 -0.749998 -0.05
      vertex -2.49994 0.75 -0.05
      vertex -1.99994 -1.25 -0.05
    endloop
  endfacet
  facet normal 0 0 -1
    outer loop
      vertex -2.50012 -0.821835 -0.05
      vertex -2.49994 -0.749998 -0.05
      vertex -1.99994 -1.25 -0.05
    endloop
  endfacet
  facet normal 0 0 -1
    outer loop
      vertex -2.07594 -1.25515 -0.05
      vertex -2.50012 -0.821835 -0.05
      vertex -1.99994 -1.25 -0.05
    endloop
  endfacet
  facet normal 0 0 -1
    outer loop
      vertex -2.07594 -1.25515 -0.05
      vertex -2.50037 -0.886984 -0.05
      vertex -2.50012 -0.821835 -0.05
    endloop
  endfacet
  facet normal -0 0 -1
    outer loop
      vertex -2.07594 -1.25515 -0.05
      vertex -2.14386 -1.25888 -0.05
      vertex -2.50037 -0.886984 -0.05
    endloop
  endfacet
  facet normal 0 0 -1
    outer loop
      vertex -2.50037 -0.886984 -0.05
      vertex -2.14386 -1.25888 -0.05
      vertex -2.50024 -0.94574 -0.05
    endloop
  endfacet
  facet normal 0 0 -1
    outer loop
      vertex -2.50024 -0.94574 -0.05
      vertex -2.14386 -1.25888 -0.05
      vertex -2.20415 -1.2609 -0.05
    endloop
  endfacet
  facet normal 0 0 -1
    outer loop
      vertex -2.49927 -0.998395 -0.05
      vertex -2.50024 -0.94574 -0.05
      vertex -2.20415 -1.2609 -0.05
    endloop
  endfacet
  facet normal 0 0 -1
    outer loop
      vertex -2.25725 -1.26092 -0.05
      vertex -2.49927 -0.998395 -0.05
      vertex -2.20415 -1.2609 -0.05
    endloop
  endfacet
  facet normal 0 0 -1
    outer loop
      vertex -2.25725 -1.26092 -0.05
      vertex -2.497 -1.04524 -0.05
      vertex -2.49927 -0.998395 -0.05
    endloop
  endfacet
  facet normal 0 0 -1
    outer loop
      vertex -2.30363 -1.25865 -0.05
      vertex -2.49299 -1.08657 -0.05
      vertex -2.497 -1.04524 -0.05
    endloop
  endfacet
  facet normal 0 0 -1
    outer loop
      vertex -2.37801 -1.24604 -0.05
      vertex -2.48678 -1.12268 -0.05
      vertex -2.34373 -1.25379 -0.05
    endloop
  endfacet
  facet normal 0 0 -1
    outer loop
      vertex -2.46596 -1.1804 -0.05
      vertex -2.47792 -1.15386 -0.05
      vertex -2.40692 -1.23512 -0.05
    endloop
  endfacet
  facet normal 0 0 -1
    outer loop
      vertex -2.45044 -1.20259 -0.05
      vertex -2.46596 -1.1804 -0.05
      vertex -2.43091 -1.22074 -0.05
    endloop
  endfacet
  facet normal 0 0 -1
    outer loop
      vertex -2.43091 -1.22074 -0.05
      vertex -2.46596 -1.1804 -0.05
      vertex -2.40692 -1.23512 -0.05
    endloop
  endfacet
  facet normal 0 0 -1
    outer loop
      vertex -2.40692 -1.23512 -0.05
      vertex -2.47792 -1.15386 -0.05
      vertex -2.37801 -1.24604 -0.05
    endloop
  endfacet
  facet normal 0 0 -1
    outer loop
      vertex -2.37801 -1.24604 -0.05
      vertex -2.47792 -1.15386 -0.05
      vertex -2.48678 -1.12268 -0.05
    endloop
  endfacet
  facet normal 0 0 -1
    outer loop
      vertex -2.34373 -1.25379 -0.05
      vertex -2.48678 -1.12268 -0.05
      vertex -2.49299 -1.08657 -0.05
    endloop
  endfacet
  facet normal 0 0 -1
    outer loop
      vertex -2.30363 -1.25865 -0.05
      vertex -2.34373 -1.25379 -0.05
      vertex -2.49299 -1.08657 -0.05
    endloop
  endfacet
  facet normal 0 0 -1
    outer loop
      vertex -2.25725 -1.26092 -0.05
      vertex -2.30363 -1.25865 -0.05
      vertex -2.497 -1.04524 -0.05
    endloop
  endfacet
  facet normal 0 -0 1
    outer loop
      vertex 2.48465 -1.15698 0.05
      vertex 2.49566 -1.12807 0.05
      vertex 2.40312 -1.22799 0.05
    endloop
  endfacet
  facet normal 0 0 1
    outer loop
      vertex -2.29518 1.24706 0.05
      vertex -2.33651 1.24305 0.05
      vertex -2.50859 1.05369 0.05
    endloop
  endfacet
  facet normal -0 0 1
    outer loop
      vertex -2.29518 1.24706 0.05
      vertex -2.51086 1.00732 0.05
      vertex -2.24833 1.24933 0.05
    endloop
  endfacet
  facet normal 0 0 1
    outer loop
      vertex -2.50859 1.05369 0.05
      vertex -2.33651 1.24305 0.05
      vertex -2.50372 1.09379 0.05
    endloop
  endfacet
  facet normal 0 0 1
    outer loop
      vertex 2.50889 -0.893925 0.05
      vertex 2.5052 -0.826006 0.05
      vertex 2.1366 -1.25043 0.05
    endloop
  endfacet
  facet normal 0 -0 1
    outer loop
      vertex 2.47018 -1.18097 0.05
      vertex 2.48465 -1.15698 0.05
      vertex 2.42971 -1.21602 0.05
    endloop
  endfacet
  facet normal 0 0 1
    outer loop
      vertex 2.47018 -1.18097 0.05
      vertex 2.42971 -1.21602 0.05
      vertex 2.45196 -1.2005 0.05
    endloop
  endfacet
  facet normal 0 0 1
    outer loop
      vertex 2.48465 -1.15698 0.05
      vertex 2.40312 -1.22799 0.05
      vertex 2.42971 -1.21602 0.05
    endloop
  endfacet
  facet normal 0 0 1
    outer loop
      vertex 2.49566 -1.12807 0.05
      vertex 2.37192 -1.23685 0.05
      vertex 2.40312 -1.22799 0.05
    endloop
  endfacet
  facet normal 0 0 1
    outer loop
      vertex 2.5035 -1.09379 0.05
      vertex 2.37192 -1.23685 0.05
      vertex 2.49566 -1.12807 0.05
    endloop
  endfacet
  facet normal 0 0 1
    outer loop
      vertex 2.33582 -1.24305 0.05
      vertex 2.37192 -1.23685 0.05
      vertex 2.5035 -1.09379 0.05
    endloop
  endfacet
  facet normal 0 0 1
    outer loop
      vertex 2.33582 -1.24305 0.05
      vertex 2.5035 -1.09379 0.05
      vertex 2.50845 -1.05369 0.05
    endloop
  endfacet
  facet normal 0 -0 1
    outer loop
      vertex 2.33582 -1.24305 0.05
      vertex 2.50845 -1.05369 0.05
      vertex 2.29453 -1.24706 0.05
    endloop
  endfacet
  facet normal 0 -0 1
    outer loop
      vertex 2.50845 -1.05369 0.05
      vertex 2.51081 -1.00732 0.05
      vertex 2.29453 -1.24706 0.05
    endloop
  endfacet
  facet normal 0 0 1
    outer loop
      vertex 2.51081 -1.00732 0.05
      vertex 2.24775 -1.24933 0.05
      vertex 2.29453 -1.24706 0.05
    endloop
  endfacet
  facet normal 0 0 1
    outer loop
      vertex 2.51086 -0.954211 0.05
      vertex 2.24775 -1.24933 0.05
      vertex 2.51081 -1.00732 0.05
    endloop
  endfacet
  facet normal 0 0 1
    outer loop
      vertex 2.1952 -1.2503 0.05
      vertex 2.24775 -1.24933 0.05
      vertex 2.51086 -0.954211 0.05
    endloop
  endfacet
  facet normal 0 0 1
    outer loop
      vertex 2.1952 -1.2503 0.05
      vertex 2.51086 -0.954211 0.05
      vertex 2.50889 -0.893925 0.05
    endloop
  endfacet
  facet normal 0 -0 1
    outer loop
      vertex 2.1952 -1.2503 0.05
      vertex 2.50889 -0.893925 0.05
      vertex 2.1366 -1.25043 0.05
    endloop
  endfacet
  facet normal 0 -0 1
    outer loop
      vertex 2.1366 -1.25043 0.05
      vertex 2.5052 -0.826006 0.05
      vertex 2.07165 -1.25018 0.05
    endloop
  endfacet
  facet normal 0 0 1
    outer loop
      vertex 2.5052 -0.826006 0.05
      vertex 2.50006 -0.749998 0.05
      vertex 2.07165 -1.25018 0.05
    endloop
  endfacet
  facet normal 0 0 1
    outer loop
      vertex 2.50006 -0.749998 0.05
      vertex 2.00006 -1.25 0.05
      vertex 2.07165 -1.25018 0.05
    endloop
  endfacet
  facet normal 0 0 1
    outer loop
      vertex 2.50006 0.75 0.05
      vertex 2.00006 1.25 0.05
      vertex 2.50006 -0.749998 0.05
    endloop
  endfacet
  facet normal 0 0 1
    outer loop
      vertex 2.20427 1.2609 0.05
      vertex 2.14399 1.25888 0.05
      vertex 2.50036 0.94574 0.05
    endloop
  endfacet
  facet normal 0 0 1
    outer loop
      vertex 2.30376 1.25865 0.05
      vertex 2.49312 1.08657 0.05
      vertex 2.34386 1.25379 0.05
    endloop
  endfacet
  facet normal 0 0 1
    outer loop
      vertex 2.37813 1.24604 0.05
      vertex 2.48691 1.12268 0.05
      vertex 2.47805 1.15386 0.05
    endloop
  endfacet
  facet normal 0 0 1
    outer loop
      vertex 2.43104 1.22074 0.05
      vertex 2.40704 1.23512 0.05
      vertex 2.46609 1.1804 0.05
    endloop
  endfacet
  facet normal 0 0 1
    outer loop
      vertex 2.43104 1.22074 0.05
      vertex 2.46609 1.1804 0.05
      vertex 2.45057 1.20259 0.05
    endloop
  endfacet
  facet normal 0 0 1
    outer loop
      vertex 2.40704 1.23512 0.05
      vertex 2.47805 1.15386 0.05
      vertex 2.46609 1.1804 0.05
    endloop
  endfacet
  facet normal 0 0 1
    outer loop
      vertex 2.37813 1.24604 0.05
      vertex 2.47805 1.15386 0.05
      vertex 2.40704 1.23512 0.05
    endloop
  endfacet
  facet normal 0 0 1
    outer loop
      vertex 2.34386 1.25379 0.05
      vertex 2.48691 1.12268 0.05
      vertex 2.37813 1.24604 0.05
    endloop
  endfacet
  facet normal 0 0 1
    outer loop
      vertex 2.49312 1.08657 0.05
      vertex 2.48691 1.12268 0.05
      vertex 2.34386 1.25379 0.05
    endloop
  endfacet
  facet normal 0 0 1
    outer loop
      vertex 2.49713 1.04524 0.05
      vertex 2.49312 1.08657 0.05
      vertex 2.30376 1.25865 0.05
    endloop
  endfacet
  facet normal 0 0 1
    outer loop
      vertex 2.49713 1.04524 0.05
      vertex 2.30376 1.25865 0.05
      vertex 2.25738 1.26092 0.05
    endloop
  endfacet
  facet normal 0 0 1
    outer loop
      vertex 2.49713 1.04524 0.05
      vertex 2.25738 1.26092 0.05
      vertex 2.49939 0.998395 0.05
    endloop
  endfacet
  facet normal 0 0 1
    outer loop
      vertex 2.25738 1.26092 0.05
      vertex 2.20427 1.2609 0.05
      vertex 2.49939 0.998395 0.05
    endloop
  endfacet
  facet normal 0 0 1
    outer loop
      vertex 2.20427 1.2609 0.05
      vertex 2.50036 0.94574 0.05
      vertex 2.49939 0.998395 0.05
    endloop
  endfacet
  facet normal 0 0 1
    outer loop
      vertex 2.14399 1.25888 0.05
      vertex 2.5005 0.886984 0.05
      vertex 2.50036 0.94574 0.05
    endloop
  endfacet
  facet normal -0 0 1
    outer loop
      vertex 2.07607 1.25515 0.05
      vertex 2.5005 0.886984 0.05
      vertex 2.14399 1.25888 0.05
    endloop
  endfacet
  facet normal 0 -0 1
    outer loop
      vertex 2.50025 0.821835 0.05
      vertex 2.5005 0.886984 0.05
      vertex 2.07607 1.25515 0.05
    endloop
  endfacet
  facet normal 0 0 1
    outer loop
      vertex 2.50025 0.821835 0.05
      vertex 2.07607 1.25515 0.05
      vertex 2.00006 1.25 0.05
    endloop
  endfacet
  facet normal 0 0 1
    outer loop
      vertex 2.50025 0.821835 0.05
      vertex 2.00006 1.25 0.05
      vertex 2.50006 0.75 0.05
    endloop
  endfacet
  facet normal 0 0 1
    outer loop
      vertex 2.00006 1.25 0.05
      vertex 2.00006 -1.25 0.05
      vertex 2.50006 -0.749998 0.05
    endloop
  endfacet
  facet normal -0 0 1
    outer loop
      vertex -1.99994 1.25 0.05
      vertex 2.00006 -1.25 0.05
      vertex 2.00006 1.25 0.05
    endloop
  endfacet
  facet normal 0 0 1
    outer loop
      vertex -1.99994 -1.25 0.05
      vertex 2.00006 -1.25 0.05
      vertex -1.99994 1.25 0.05
    endloop
  endfacet
  facet normal -0 0 1
    outer loop
      vertex -2.49598 1.12807 0.05
      vertex -2.50372 1.09379 0.05
      vertex -2.37262 1.23685 0.05
    endloop
  endfacet
  facet normal 0 0 1
    outer loop
      vertex -2.49598 1.12807 0.05
      vertex -2.37262 1.23685 0.05
      vertex -2.40379 1.22799 0.05
    endloop
  endfacet
  facet normal 0 0 1
    outer loop
      vertex -2.48506 1.15698 0.05
      vertex -2.40379 1.22799 0.05
      vertex -2.43033 1.21602 0.05
    endloop
  endfacet
  facet normal 0 0 1
    outer loop
      vertex -2.47067 1.18097 0.05
      vertex -2.43033 1.21602 0.05
      vertex -2.45253 1.2005 0.05
    endloop
  endfacet
  facet normal 0 0 1
    outer loop
      vertex -2.48506 1.15698 0.05
      vertex -2.43033 1.21602 0.05
      vertex -2.47067 1.18097 0.05
    endloop
  endfacet
  facet normal 0 0 1
    outer loop
      vertex -2.49598 1.12807 0.05
      vertex -2.40379 1.22799 0.05
      vertex -2.48506 1.15698 0.05
    endloop
  endfacet
  facet normal 0 0 1
    outer loop
      vertex -2.50372 1.09379 0.05
      vertex -2.33651 1.24305 0.05
      vertex -2.37262 1.23685 0.05
    endloop
  endfacet
  facet normal -0 0 1
    outer loop
      vertex -2.50859 1.05369 0.05
      vertex -2.51086 1.00732 0.05
      vertex -2.29518 1.24706 0.05
    endloop
  endfacet
  facet normal -0 0 1
    outer loop
      vertex -2.51086 1.00732 0.05
      vertex -2.51084 0.954211 0.05
      vertex -2.24833 1.24933 0.05
    endloop
  endfacet
  facet normal 0 0 1
    outer loop
      vertex -2.51084 0.954211 0.05
      vertex -2.19568 1.2503 0.05
      vertex -2.24833 1.24933 0.05
    endloop
  endfacet
  facet normal 0 -0 1
    outer loop
      vertex -2.50882 0.893925 0.05
      vertex -2.19568 1.2503 0.05
      vertex -2.51084 0.954211 0.05
    endloop
  endfacet
  facet normal 0 0 1
    outer loop
      vertex -2.13692 1.25043 0.05
      vertex -2.19568 1.2503 0.05
      vertex -2.50882 0.893925 0.05
    endloop
  endfacet
  facet normal 0 0 1
    outer loop
      vertex -2.13692 1.25043 0.05
      vertex -2.50882 0.893925 0.05
      vertex -2.50509 0.826006 0.05
    endloop
  endfacet
  facet normal 0 0 1
    outer loop
      vertex -2.13692 1.25043 0.05
      vertex -2.50509 0.826006 0.05
      vertex -2.07177 1.25018 0.05
    endloop
  endfacet
  facet normal -0 0 1
    outer loop
      vertex -2.50509 0.826006 0.05
      vertex -2.49994 0.75 0.05
      vertex -2.07177 1.25018 0.05
    endloop
  endfacet
  facet normal 0 0 1
    outer loop
      vertex -2.49994 0.75 0.05
      vertex -1.99994 1.25 0.05
      vertex -2.07177 1.25018 0.05
    endloop
  endfacet
  facet normal 0 -0 1
    outer loop
      vertex -1.99994 -1.25 0.05
      vertex -1.99994 1.25 0.05
      vertex -2.49994 0.75 0.05
    endloop
  endfacet
  facet normal 0 0 1
    outer loop
      vertex -1.99994 -1.25 0.05
      vertex -2.49994 0.75 0.05
      vertex -2.49994 -0.749998 0.05
    endloop
  endfacet
  facet normal 0 0 1
    outer loop
      vertex -1.99994 -1.25 0.05
      vertex -2.49994 -0.749998 0.05
      vertex -2.50012 -0.821835 0.05
    endloop
  endfacet
  facet normal 0 0 1
    outer loop
      vertex -1.99994 -1.25 0.05
      vertex -2.50012 -0.821835 0.05
      vertex -2.07594 -1.25515 0.05
    endloop
  endfacet
  facet normal 0 0 1
    outer loop
      vertex -2.50012 -0.821835 0.05
      vertex -2.50037 -0.886984 0.05
      vertex -2.07594 -1.25515 0.05
    endloop
  endfacet
  facet normal 0 0 1
    outer loop
      vertex -2.50037 -0.886984 0.05
      vertex -2.14386 -1.25888 0.05
      vertex -2.07594 -1.25515 0.05
    endloop
  endfacet
  facet normal -0 -0 1
    outer loop
      vertex -2.50024 -0.94574 0.05
      vertex -2.14386 -1.25888 0.05
      vertex -2.50037 -0.886984 0.05
    endloop
  endfacet
  facet normal 0 -0 1
    outer loop
      vertex -2.20415 -1.2609 0.05
      vertex -2.14386 -1.25888 0.05
      vertex -2.50024 -0.94574 0.05
    endloop
  endfacet
  facet normal 0 0 1
    outer loop
      vertex -2.20415 -1.2609 0.05
      vertex -2.50024 -0.94574 0.05
      vertex -2.49927 -0.998395 0.05
    endloop
  endfacet
  facet normal 0 0 1
    outer loop
      vertex -2.20415 -1.2609 0.05
      vertex -2.49927 -0.998395 0.05
      vertex -2.25725 -1.26092 0.05
    endloop
  endfacet
  facet normal 0 0 1
    outer loop
      vertex -2.49927 -0.998395 0.05
      vertex -2.497 -1.04524 0.05
      vertex -2.25725 -1.26092 0.05
    endloop
  endfacet
  facet normal 0 0 1
    outer loop
      vertex -2.497 -1.04524 0.05
      vertex -2.49299 -1.08657 0.05
      vertex -2.30363 -1.25865 0.05
    endloop
  endfacet
  facet normal 0 0 1
    outer loop
      vertex -2.34373 -1.25379 0.05
      vertex -2.48678 -1.12268 0.05
      vertex -2.37801 -1.24604 0.05
    endloop
  endfacet
  facet normal 0 0 1
    outer loop
      vertex -2.40692 -1.23512 0.05
      vertex -2.47792 -1.15386 0.05
      vertex -2.46596 -1.1804 0.05
    endloop
  endfacet
  facet normal 0 0 1
    outer loop
      vertex -2.43091 -1.22074 0.05
      vertex -2.46596 -1.1804 0.05
      vertex -2.45044 -1.20259 0.05
    endloop
  endfacet
  facet normal 0 0 1
    outer loop
      vertex -2.40692 -1.23512 0.05
      vertex -2.46596 -1.1804 0.05
      vertex -2.43091 -1.22074 0.05
    endloop
  endfacet
  facet normal 0 0 1
    outer loop
      vertex -2.37801 -1.24604 0.05
      vertex -2.47792 -1.15386 0.05
      vertex -2.40692 -1.23512 0.05
    endloop
  endfacet
  facet normal 0 0 1
    outer loop
      vertex -2.48678 -1.12268 0.05
      vertex -2.47792 -1.15386 0.05
      vertex -2.37801 -1.24604 0.05
    endloop
  endfacet
  facet normal 0 0 1
    outer loop
      vertex -2.49299 -1.08657 0.05
      vertex -2.48678 -1.12268 0.05
      vertex -2.34373 -1.25379 0.05
    endloop
  endfacet
  facet normal 0 0 1
    outer loop
      vertex -2.49299 -1.08657 0.05
      vertex -2.34373 -1.25379 0.05
      vertex -2.30363 -1.25865 0.05
    endloop
  endfacet
  facet normal 0 0 1
    outer loop
      vertex -2.497 -1.04524 0.05
      vertex -2.30363 -1.25865 0.05
      vertex -2.25725 -1.26092 0.05
    endloop
  endfacet
  facet normal 0.0334859 -0.999439 0
    outer loop
      vertex -2.14386 -1.25888 -0.05
      vertex -2.20415 -1.2609 0.05
      vertex -2.20415 -1.2609 -0.05
    endloop
  endfacet
  facet normal 0.0334859 -0.999439 0
    outer loop
      vertex -2.14386 -1.25888 -0.05
      vertex -2.14386 -1.25888 0.05
      vertex -2.20415 -1.2609 0.05
    endloop
  endfacet
  facet normal 0.0548349 -0.998495 0
    outer loop
      vertex -2.07594 -1.25515 -0.05
      vertex -2.14386 -1.25888 0.05
      vertex -2.14386 -1.25888 -0.05
    endloop
  endfacet
  facet normal 0.0548349 -0.998495 0
    outer loop
      vertex -2.07594 -1.25515 -0.05
      vertex -2.07594 -1.25515 0.05
      vertex -2.14386 -1.25888 0.05
    endloop
  endfacet
  facet normal 0.0676081 -0.997712 0
    outer loop
      vertex -1.99994 -1.25 -0.05
      vertex -2.07594 -1.25515 0.05
      vertex -2.07594 -1.25515 -0.05
    endloop
  endfacet
  facet normal 0.0676081 -0.997712 0
    outer loop
      vertex -1.99994 -1.25 -0.05
      vertex -1.99994 -1.25 0.05
      vertex -2.07594 -1.25515 0.05
    endloop
  endfacet
  facet normal 0 -1 0
    outer loop
      vertex 2.00006 -1.25 -0.05
      vertex -1.99994 -1.25 0.05
      vertex -1.99994 -1.25 -0.05
    endloop
  endfacet
  facet normal 0 -1 0
    outer loop
      vertex 2.00006 -1.25 -0.05
      vertex 2.00006 -1.25 0.05
      vertex -1.99994 -1.25 0.05
    endloop
  endfacet
  facet normal -0.00251431 -0.999997 0
    outer loop
      vertex 2.07165 -1.25018 -0.05
      vertex 2.00006 -1.25 0.05
      vertex 2.00006 -1.25 -0.05
    endloop
  endfacet
  facet normal -0.00251431 -0.999997 0
    outer loop
      vertex 2.07165 -1.25018 -0.05
      vertex 2.07165 -1.25018 0.05
      vertex 2.00006 -1.25 0.05
    endloop
  endfacet
  facet normal -0.00384909 -0.999993 0
    outer loop
      vertex 2.1366 -1.25043 -0.05
      vertex 2.07165 -1.25018 0.05
      vertex 2.07165 -1.25018 -0.05
    endloop
  endfacet
  facet normal -0.00384909 -0.999993 0
    outer loop
      vertex 2.1366 -1.25043 -0.05
      vertex 2.1366 -1.25043 0.05
      vertex 2.07165 -1.25018 0.05
    endloop
  endfacet
  facet normal 0.00221842 -0.999998 0
    outer loop
      vertex 2.1952 -1.2503 -0.05
      vertex 2.1366 -1.25043 0.05
      vertex 2.1366 -1.25043 -0.05
    endloop
  endfacet
  facet normal 0.00221842 -0.999998 0
    outer loop
      vertex 2.1952 -1.2503 -0.05
      vertex 2.1952 -1.2503 0.05
      vertex 2.1366 -1.25043 0.05
    endloop
  endfacet
  facet normal 0.0184555 -0.99983 0
    outer loop
      vertex 2.24775 -1.24933 -0.05
      vertex 2.1952 -1.2503 0.05
      vertex 2.1952 -1.2503 -0.05
    endloop
  endfacet
  facet normal 0.0184555 -0.99983 0
    outer loop
      vertex 2.24775 -1.24933 -0.05
      vertex 2.24775 -1.24933 0.05
      vertex 2.1952 -1.2503 0.05
    endloop
  endfacet
  facet normal 0.048468 -0.998825 0
    outer loop
      vertex 2.29453 -1.24706 -0.05
      vertex 2.24775 -1.24933 0.05
      vertex 2.24775 -1.24933 -0.05
    endloop
  endfacet
  facet normal 0.048468 -0.998825 0
    outer loop
      vertex 2.29453 -1.24706 -0.05
      vertex 2.29453 -1.24706 0.05
      vertex 2.24775 -1.24933 0.05
    endloop
  endfacet
  facet normal 0.0966632 -0.995317 0
    outer loop
      vertex 2.33582 -1.24305 -0.05
      vertex 2.29453 -1.24706 0.05
      vertex 2.29453 -1.24706 -0.05
    endloop
  endfacet
  facet normal 0.0966632 -0.995317 0
    outer loop
      vertex 2.33582 -1.24305 -0.05
      vertex 2.33582 -1.24305 0.05
      vertex 2.29453 -1.24706 0.05
    endloop
  endfacet
  facet normal 0.169267 -0.98557 0
    outer loop
      vertex 2.37192 -1.23685 -0.05
      vertex 2.33582 -1.24305 0.05
      vertex 2.33582 -1.24305 -0.05
    endloop
  endfacet
  facet normal 0.169267 -0.98557 0
    outer loop
      vertex 2.37192 -1.23685 -0.05
      vertex 2.37192 -1.23685 0.05
      vertex 2.33582 -1.24305 0.05
    endloop
  endfacet
  facet normal 0.273173 -0.961965 0
    outer loop
      vertex 2.40312 -1.22799 -0.05
      vertex 2.37192 -1.23685 0.05
      vertex 2.37192 -1.23685 -0.05
    endloop
  endfacet
  facet normal 0.273173 -0.961965 0
    outer loop
      vertex 2.40312 -1.22799 -0.05
      vertex 2.40312 -1.22799 0.05
      vertex 2.37192 -1.23685 0.05
    endloop
  endfacet
  facet normal 0.410493 -0.911864 0
    outer loop
      vertex 2.42971 -1.21602 -0.05
      vertex 2.40312 -1.22799 0.05
      vertex 2.40312 -1.22799 -0.05
    endloop
  endfacet
  facet normal 0.410493 -0.911864 0
    outer loop
      vertex 2.42971 -1.21602 -0.05
      vertex 2.42971 -1.21602 0.05
      vertex 2.40312 -1.22799 0.05
    endloop
  endfacet
  facet normal 0.572101 -0.820183 0
    outer loop
      vertex 2.45196 -1.2005 -0.05
      vertex 2.42971 -1.21602 0.05
      vertex 2.42971 -1.21602 -0.05
    endloop
  endfacet
  facet normal 0.572101 -0.820183 0
    outer loop
      vertex 2.45196 -1.2005 -0.05
      vertex 2.45196 -1.2005 0.05
      vertex 2.42971 -1.21602 0.05
    endloop
  endfacet
  facet normal 0.731205 -0.682158 0
    outer loop
      vertex 2.47018 -1.18097 -0.05
      vertex 2.45196 -1.2005 0.05
      vertex 2.45196 -1.2005 -0.05
    endloop
  endfacet
  facet normal 0.731205 -0.682158 0
    outer loop
      vertex 2.47018 -1.18097 -0.05
      vertex 2.47018 -1.18097 0.05
      vertex 2.45196 -1.2005 0.05
    endloop
  endfacet
  facet normal 0.856294 -0.516489 0
    outer loop
      vertex 2.48465 -1.15698 -0.05
      vertex 2.47018 -1.18097 0.05
      vertex 2.47018 -1.18097 -0.05
    endloop
  endfacet
  facet normal 0.856294 -0.516489 0
    outer loop
      vertex 2.48465 -1.15698 -0.05
      vertex 2.48465 -1.15698 0.05
      vertex 2.47018 -1.18097 0.05
    endloop
  endfacet
  facet normal 0.934524 -0.355901 0
    outer loop
      vertex 2.49566 -1.12807 -0.05
      vertex 2.48465 -1.15698 0.05
      vertex 2.48465 -1.15698 -0.05
    endloop
  endfacet
  facet normal 0.934524 -0.355901 0
    outer loop
      vertex 2.49566 -1.12807 -0.05
      vertex 2.49566 -1.12807 0.05
      vertex 2.48465 -1.15698 0.05
    endloop
  endfacet
  facet normal 0.97483 -0.222948 0
    outer loop
      vertex 2.5035 -1.09379 -0.05
      vertex 2.49566 -1.12807 0.05
      vertex 2.49566 -1.12807 -0.05
    endloop
  endfacet
  facet normal 0.97483 -0.222948 0
    outer loop
      vertex 2.5035 -1.09379 -0.05
      vertex 2.5035 -1.09379 0.05
      vertex 2.49566 -1.12807 0.05
    endloop
  endfacet
  facet normal 0.992467 -0.122512 0
    outer loop
      vertex 2.50845 -1.05369 -0.05
      vertex 2.5035 -1.09379 0.05
      vertex 2.5035 -1.09379 -0.05
    endloop
  endfacet
  facet normal 0.992467 -0.122512 0
    outer loop
      vertex 2.50845 -1.05369 -0.05
      vertex 2.50845 -1.05369 0.05
      vertex 2.5035 -1.09379 0.05
    endloop
  endfacet
  facet normal 0.998707 -0.0508292 0
    outer loop
      vertex 2.51081 -1.00732 -0.05
      vertex 2.50845 -1.05369 0.05
      vertex 2.50845 -1.05369 -0.05
    endloop
  endfacet
  facet normal 0.998707 -0.0508292 0
    outer loop
      vertex 2.51081 -1.00732 -0.05
      vertex 2.51081 -1.00732 0.05
      vertex 2.50845 -1.05369 0.05
    endloop
  endfacet
  facet normal 1 -0.00094146 0
    outer loop
      vertex 2.51086 -0.954211 -0.05
      vertex 2.51081 -1.00732 0.05
      vertex 2.51081 -1.00732 -0.05
    endloop
  endfacet
  facet normal 1 -0.00094146 0
    outer loop
      vertex 2.51086 -0.954211 -0.05
      vertex 2.51086 -0.954211 0.05
      vertex 2.51081 -1.00732 0.05
    endloop
  endfacet
  facet normal 0.999467 0.0326601 0
    outer loop
      vertex 2.50889 -0.893925 -0.05
      vertex 2.51086 -0.954211 0.05
      vertex 2.51086 -0.954211 -0.05
    endloop
  endfacet
  facet normal 0.999467 0.0326601 -0
    outer loop
      vertex 2.50889 -0.893925 -0.05
      vertex 2.50889 -0.893925 0.05
      vertex 2.51086 -0.954211 0.05
    endloop
  endfacet
  facet normal 0.998527 0.0542494 0
    outer loop
      vertex 2.5052 -0.826006 -0.05
      vertex 2.50889 -0.893925 0.05
      vertex 2.50889 -0.893925 -0.05
    endloop
  endfacet
  facet normal 0.998527 0.0542494 -0
    outer loop
      vertex 2.5052 -0.826006 -0.05
      vertex 2.5052 -0.826006 0.05
      vertex 2.50889 -0.893925 0.05
    endloop
  endfacet
  facet normal 0.997721 0.0674704 0
    outer loop
      vertex 2.50006 -0.749998 -0.05
      vertex 2.5052 -0.826006 0.05
      vertex 2.5052 -0.826006 -0.05
    endloop
  endfacet
  facet normal 0.997721 0.0674704 -0
    outer loop
      vertex 2.50006 -0.749998 -0.05
      vertex 2.50006 -0.749998 0.05
      vertex 2.5052 -0.826006 0.05
    endloop
  endfacet
  facet normal 1 0 0
    outer loop
      vertex 2.50006 0.75 -0.05
      vertex 2.50006 -0.749998 0.05
      vertex 2.50006 -0.749998 -0.05
    endloop
  endfacet
  facet normal 1 0 -0
    outer loop
      vertex 2.50006 0.75 -0.05
      vertex 2.50006 0.75 0.05
      vertex 2.50006 -0.749998 0.05
    endloop
  endfacet
  facet normal 0.999997 -0.00264494 0
    outer loop
      vertex 2.50025 0.821835 -0.05
      vertex 2.50006 0.75 0.05
      vertex 2.50006 0.75 -0.05
    endloop
  endfacet
  facet normal 0.999997 -0.00264494 0
    outer loop
      vertex 2.50025 0.821835 -0.05
      vertex 2.50025 0.821835 0.05
      vertex 2.50006 0.75 0.05
    endloop
  endfacet
  facet normal 0.999993 -0.00383733 0
    outer loop
      vertex 2.5005 0.886984 -0.05
      vertex 2.50025 0.821835 0.05
      vertex 2.50025 0.821835 -0.05
    endloop
  endfacet
  facet normal 0.999993 -0.00383733 0
    outer loop
      vertex 2.5005 0.886984 -0.05
      vertex 2.5005 0.886984 0.05
      vertex 2.50025 0.821835 0.05
    endloop
  endfacet
  facet normal 0.999997 0.00238273 0
    outer loop
      vertex 2.50036 0.94574 -0.05
      vertex 2.5005 0.886984 0.05
      vertex 2.5005 0.886984 -0.05
    endloop
  endfacet
  facet normal 0.999997 0.00238273 -0
    outer loop
      vertex 2.50036 0.94574 -0.05
      vertex 2.50036 0.94574 0.05
      vertex 2.5005 0.886984 0.05
    endloop
  endfacet
  facet normal 0.99983 0.0184187 0
    outer loop
      vertex 2.49939 0.998395 -0.05
      vertex 2.50036 0.94574 0.05
      vertex 2.50036 0.94574 -0.05
    endloop
  endfacet
  facet normal 0.99983 0.0184187 -0
    outer loop
      vertex 2.49939 0.998395 -0.05
      vertex 2.49939 0.998395 0.05
      vertex 2.50036 0.94574 0.05
    endloop
  endfacet
  facet normal 0.998838 0.0481882 0
    outer loop
      vertex 2.49713 1.04524 -0.05
      vertex 2.49939 0.998395 0.05
      vertex 2.49939 0.998395 -0.05
    endloop
  endfacet
  facet normal 0.998838 0.0481882 -0
    outer loop
      vertex 2.49713 1.04524 -0.05
      vertex 2.49713 1.04524 0.05
      vertex 2.49939 0.998395 0.05
    endloop
  endfacet
  facet normal 0.995326 0.0965705 0
    outer loop
      vertex 2.49312 1.08657 -0.05
      vertex 2.49713 1.04524 0.05
      vertex 2.49713 1.04524 -0.05
    endloop
  endfacet
  facet normal 0.995326 0.0965705 -0
    outer loop
      vertex 2.49312 1.08657 -0.05
      vertex 2.49312 1.08657 0.05
      vertex 2.49713 1.04524 0.05
    endloop
  endfacet
  facet normal 0.985533 0.169486 0
    outer loop
      vertex 2.48691 1.12268 -0.05
      vertex 2.49312 1.08657 0.05
      vertex 2.49312 1.08657 -0.05
    endloop
  endfacet
  facet normal 0.985533 0.169486 -0
    outer loop
      vertex 2.48691 1.12268 -0.05
      vertex 2.48691 1.12268 0.05
      vertex 2.49312 1.08657 0.05
    endloop
  endfacet
  facet normal 0.961919 0.273335 0
    outer loop
      vertex 2.47805 1.15386 -0.05
      vertex 2.48691 1.12268 0.05
      vertex 2.48691 1.12268 -0.05
    endloop
  endfacet
  facet normal 0.961919 0.273335 -0
    outer loop
      vertex 2.47805 1.15386 -0.05
      vertex 2.47805 1.15386 0.05
      vertex 2.48691 1.12268 0.05
    endloop
  endfacet
  facet normal 0.911703 0.41085 0
    outer loop
      vertex 2.46609 1.1804 -0.05
      vertex 2.47805 1.15386 0.05
      vertex 2.47805 1.15386 -0.05
    endloop
  endfacet
  facet normal 0.911703 0.41085 -0
    outer loop
      vertex 2.46609 1.1804 -0.05
      vertex 2.46609 1.1804 0.05
      vertex 2.47805 1.15386 0.05
    endloop
  endfacet
  facet normal 0.819457 0.57314 0
    outer loop
      vertex 2.45057 1.20259 -0.05
      vertex 2.46609 1.1804 0.05
      vertex 2.46609 1.1804 -0.05
    endloop
  endfacet
  facet normal 0.819457 0.57314 -0
    outer loop
      vertex 2.45057 1.20259 -0.05
      vertex 2.45057 1.20259 0.05
      vertex 2.46609 1.1804 0.05
    endloop
  endfacet
  facet normal 0.680753 0.732513 0
    outer loop
      vertex 2.43104 1.22074 -0.05
      vertex 2.45057 1.20259 0.05
      vertex 2.45057 1.20259 -0.05
    endloop
  endfacet
  facet normal 0.680753 0.732513 -0
    outer loop
      vertex 2.43104 1.22074 -0.05
      vertex 2.43104 1.22074 0.05
      vertex 2.45057 1.20259 0.05
    endloop
  endfacet
  facet normal 0.51397 0.857808 0
    outer loop
      vertex 2.40704 1.23512 -0.05
      vertex 2.43104 1.22074 0.05
      vertex 2.43104 1.22074 -0.05
    endloop
  endfacet
  facet normal 0.51397 0.857808 -0
    outer loop
      vertex 2.40704 1.23512 -0.05
      vertex 2.40704 1.23512 0.05
      vertex 2.43104 1.22074 0.05
    endloop
  endfacet
  facet normal 0.353357 0.935489 0
    outer loop
      vertex 2.37813 1.24604 -0.05
      vertex 2.40704 1.23512 0.05
      vertex 2.40704 1.23512 -0.05
    endloop
  endfacet
  facet normal 0.353357 0.935489 -0
    outer loop
      vertex 2.37813 1.24604 -0.05
      vertex 2.37813 1.24604 0.05
      vertex 2.40704 1.23512 0.05
    endloop
  endfacet
  facet normal 0.220575 0.97537 0
    outer loop
      vertex 2.34386 1.25379 -0.05
      vertex 2.37813 1.24604 0.05
      vertex 2.37813 1.24604 -0.05
    endloop
  endfacet
  facet normal 0.220575 0.97537 -0
    outer loop
      vertex 2.34386 1.25379 -0.05
      vertex 2.34386 1.25379 0.05
      vertex 2.37813 1.24604 0.05
    endloop
  endfacet
  facet normal 0.120317 0.992736 0
    outer loop
      vertex 2.30376 1.25865 -0.05
      vertex 2.34386 1.25379 0.05
      vertex 2.34386 1.25379 -0.05
    endloop
  endfacet
  facet normal 0.120317 0.992736 -0
    outer loop
      vertex 2.30376 1.25865 -0.05
      vertex 2.30376 1.25865 0.05
      vertex 2.34386 1.25379 0.05
    endloop
  endfacet
  facet normal 0.048885 0.998804 0
    outer loop
      vertex 2.25738 1.26092 -0.05
      vertex 2.30376 1.25865 0.05
      vertex 2.30376 1.25865 -0.05
    endloop
  endfacet
  facet normal 0.048885 0.998804 -0
    outer loop
      vertex 2.25738 1.26092 -0.05
      vertex 2.25738 1.26092 0.05
      vertex 2.30376 1.25865 0.05
    endloop
  endfacet
  facet normal -0.000376577 1 0
    outer loop
      vertex 2.20427 1.2609 -0.05
      vertex 2.25738 1.26092 0.05
      vertex 2.25738 1.26092 -0.05
    endloop
  endfacet
  facet normal -0.000376577 1 0
    outer loop
      vertex 2.20427 1.2609 -0.05
      vertex 2.20427 1.2609 0.05
      vertex 2.25738 1.26092 0.05
    endloop
  endfacet
  facet normal -0.0334915 0.999439 0
    outer loop
      vertex 2.14399 1.25888 -0.05
      vertex 2.20427 1.2609 0.05
      vertex 2.20427 1.2609 -0.05
    endloop
  endfacet
  facet normal -0.0334915 0.999439 0
    outer loop
      vertex 2.14399 1.25888 -0.05
      vertex 2.14399 1.25888 0.05
      vertex 2.20427 1.2609 0.05
    endloop
  endfacet
  facet normal -0.0548349 0.998495 0
    outer loop
      vertex 2.07607 1.25515 -0.05
      vertex 2.14399 1.25888 0.05
      vertex 2.14399 1.25888 -0.05
    endloop
  endfacet
  facet normal -0.0548349 0.998495 0
    outer loop
      vertex 2.07607 1.25515 -0.05
      vertex 2.07607 1.25515 0.05
      vertex 2.14399 1.25888 0.05
    endloop
  endfacet
  facet normal -0.0675993 0.997713 0
    outer loop
      vertex 2.00006 1.25 -0.05
      vertex 2.07607 1.25515 0.05
      vertex 2.07607 1.25515 -0.05
    endloop
  endfacet
  facet normal -0.0675993 0.997713 0
    outer loop
      vertex 2.00006 1.25 -0.05
      vertex 2.00006 1.25 0.05
      vertex 2.07607 1.25515 0.05
    endloop
  endfacet
  facet normal 0 1 0
    outer loop
      vertex -1.99994 1.25 -0.05
      vertex 2.00006 1.25 0.05
      vertex 2.00006 1.25 -0.05
    endloop
  endfacet
  facet normal 0 1 0
    outer loop
      vertex -1.99994 1.25 -0.05
      vertex -1.99994 1.25 0.05
      vertex 2.00006 1.25 0.05
    endloop
  endfacet
  facet normal 0.00250591 0.999997 0
    outer loop
      vertex -2.07177 1.25018 -0.05
      vertex -1.99994 1.25 0.05
      vertex -1.99994 1.25 -0.05
    endloop
  endfacet
  facet normal 0.00250591 0.999997 -0
    outer loop
      vertex -2.07177 1.25018 -0.05
      vertex -2.07177 1.25018 0.05
      vertex -1.99994 1.25 0.05
    endloop
  endfacet
  facet normal 0.00383727 0.999993 0
    outer loop
      vertex -2.13692 1.25043 -0.05
      vertex -2.07177 1.25018 0.05
      vertex -2.07177 1.25018 -0.05
    endloop
  endfacet
  facet normal 0.00383727 0.999993 -0
    outer loop
      vertex -2.13692 1.25043 -0.05
      vertex -2.13692 1.25043 0.05
      vertex -2.07177 1.25018 0.05
    endloop
  endfacet
  facet normal -0.00221238 0.999998 0
    outer loop
      vertex -2.19568 1.2503 -0.05
      vertex -2.13692 1.25043 0.05
      vertex -2.13692 1.25043 -0.05
    endloop
  endfacet
  facet normal -0.00221238 0.999998 0
    outer loop
      vertex -2.19568 1.2503 -0.05
      vertex -2.19568 1.2503 0.05
      vertex -2.13692 1.25043 0.05
    endloop
  endfacet
  facet normal -0.0184204 0.99983 0
    outer loop
      vertex -2.24833 1.24933 -0.05
      vertex -2.19568 1.2503 0.05
      vertex -2.19568 1.2503 -0.05
    endloop
  endfacet
  facet normal -0.0184204 0.99983 0
    outer loop
      vertex -2.24833 1.24933 -0.05
      vertex -2.24833 1.24933 0.05
      vertex -2.19568 1.2503 0.05
    endloop
  endfacet
  facet normal -0.0483957 0.998828 0
    outer loop
      vertex -2.29518 1.24706 -0.05
      vertex -2.24833 1.24933 0.05
      vertex -2.24833 1.24933 -0.05
    endloop
  endfacet
  facet normal -0.0483957 0.998828 0
    outer loop
      vertex -2.29518 1.24706 -0.05
      vertex -2.29518 1.24706 0.05
      vertex -2.24833 1.24933 0.05
    endloop
  endfacet
  facet normal -0.0965705 0.995326 0
    outer loop
      vertex -2.33651 1.24305 -0.05
      vertex -2.29518 1.24706 0.05
      vertex -2.29518 1.24706 -0.05
    endloop
  endfacet
  facet normal -0.0965705 0.995326 0
    outer loop
      vertex -2.33651 1.24305 -0.05
      vertex -2.33651 1.24305 0.05
      vertex -2.29518 1.24706 0.05
    endloop
  endfacet
  facet normal -0.169221 0.985578 0
    outer loop
      vertex -2.37262 1.23685 -0.05
      vertex -2.33651 1.24305 0.05
      vertex -2.33651 1.24305 -0.05
    endloop
  endfacet
  facet normal -0.169221 0.985578 0
    outer loop
      vertex -2.37262 1.23685 -0.05
      vertex -2.37262 1.23685 0.05
      vertex -2.33651 1.24305 0.05
    endloop
  endfacet
  facet normal -0.273417 0.961896 0
    outer loop
      vertex -2.40379 1.22799 -0.05
      vertex -2.37262 1.23685 0.05
      vertex -2.37262 1.23685 -0.05
    endloop
  endfacet
  facet normal -0.273417 0.961896 0
    outer loop
      vertex -2.40379 1.22799 -0.05
      vertex -2.40379 1.22799 0.05
      vertex -2.37262 1.23685 0.05
    endloop
  endfacet
  facet normal -0.411136 0.911574 0
    outer loop
      vertex -2.43033 1.21602 -0.05
      vertex -2.40379 1.22799 0.05
      vertex -2.40379 1.22799 -0.05
    endloop
  endfacet
  facet normal -0.411136 0.911574 0
    outer loop
      vertex -2.43033 1.21602 -0.05
      vertex -2.43033 1.21602 0.05
      vertex -2.40379 1.22799 0.05
    endloop
  endfacet
  facet normal -0.572967 0.819579 0
    outer loop
      vertex -2.45253 1.2005 -0.05
      vertex -2.43033 1.21602 0.05
      vertex -2.43033 1.21602 -0.05
    endloop
  endfacet
  facet normal -0.572967 0.819579 0
    outer loop
      vertex -2.45253 1.2005 -0.05
      vertex -2.45253 1.2005 0.05
      vertex -2.43033 1.21602 0.05
    endloop
  endfacet
  facet normal -0.7327 0.680552 0
    outer loop
      vertex -2.47067 1.18097 -0.05
      vertex -2.45253 1.2005 0.05
      vertex -2.45253 1.2005 -0.05
    endloop
  endfacet
  facet normal -0.7327 0.680552 0
    outer loop
      vertex -2.47067 1.18097 -0.05
      vertex -2.47067 1.18097 0.05
      vertex -2.45253 1.2005 0.05
    endloop
  endfacet
  facet normal -0.857556 0.514391 0
    outer loop
      vertex -2.48506 1.15698 -0.05
      vertex -2.47067 1.18097 0.05
      vertex -2.47067 1.18097 -0.05
    endloop
  endfacet
  facet normal -0.857556 0.514391 0
    outer loop
      vertex -2.48506 1.15698 -0.05
      vertex -2.48506 1.15698 0.05
      vertex -2.47067 1.18097 0.05
    endloop
  endfacet
  facet normal -0.935489 0.353357 0
    outer loop
      vertex -2.49598 1.12807 -0.05
      vertex -2.48506 1.15698 0.05
      vertex -2.48506 1.15698 -0.05
    endloop
  endfacet
  facet normal -0.935489 0.353357 0
    outer loop
      vertex -2.49598 1.12807 -0.05
      vertex -2.49598 1.12807 0.05
      vertex -2.48506 1.15698 0.05
    endloop
  endfacet
  facet normal -0.975445 0.220243 0
    outer loop
      vertex -2.50372 1.09379 -0.05
      vertex -2.49598 1.12807 0.05
      vertex -2.49598 1.12807 -0.05
    endloop
  endfacet
  facet normal -0.975445 0.220243 0
    outer loop
      vertex -2.50372 1.09379 -0.05
      vertex -2.50372 1.09379 0.05
      vertex -2.49598 1.12807 0.05
    endloop
  endfacet
  facet normal -0.992706 0.120561 0
    outer loop
      vertex -2.50859 1.05369 -0.05
      vertex -2.50372 1.09379 0.05
      vertex -2.50372 1.09379 -0.05
    endloop
  endfacet
  facet normal -0.992706 0.120561 0
    outer loop
      vertex -2.50859 1.05369 -0.05
      vertex -2.50859 1.05369 0.05
      vertex -2.50372 1.09379 0.05
    endloop
  endfacet
  facet normal -0.998804 0.0488955 0
    outer loop
      vertex -2.51086 1.00732 -0.05
      vertex -2.50859 1.05369 0.05
      vertex -2.50859 1.05369 -0.05
    endloop
  endfacet
  facet normal -0.998804 0.0488955 0
    outer loop
      vertex -2.51086 1.00732 -0.05
      vertex -2.51086 1.00732 0.05
      vertex -2.50859 1.05369 0.05
    endloop
  endfacet
  facet normal -1 -0.000376584 0
    outer loop
      vertex -2.51084 0.954211 -0.05
      vertex -2.51086 1.00732 0.05
      vertex -2.51086 1.00732 -0.05
    endloop
  endfacet
  facet normal -1 -0.000376584 0
    outer loop
      vertex -2.51084 0.954211 -0.05
      vertex -2.51084 0.954211 0.05
      vertex -2.51086 1.00732 0.05
    endloop
  endfacet
  facet normal -0.999439 -0.0334882 0
    outer loop
      vertex -2.50882 0.893925 -0.05
      vertex -2.51084 0.954211 0.05
      vertex -2.51084 0.954211 -0.05
    endloop
  endfacet
  facet normal -0.999439 -0.0334882 0
    outer loop
      vertex -2.50882 0.893925 -0.05
      vertex -2.50882 0.893925 0.05
      vertex -2.51084 0.954211 0.05
    endloop
  endfacet
  facet normal -0.998495 -0.0548357 0
    outer loop
      vertex -2.50509 0.826006 -0.05
      vertex -2.50882 0.893925 0.05
      vertex -2.50882 0.893925 -0.05
    endloop
  endfacet
  facet normal -0.998495 -0.0548357 0
    outer loop
      vertex -2.50509 0.826006 -0.05
      vertex -2.50509 0.826006 0.05
      vertex -2.50882 0.893925 0.05
    endloop
  endfacet
  facet normal -0.997712 -0.0676028 0
    outer loop
      vertex -2.49994 0.75 -0.05
      vertex -2.50509 0.826006 0.05
      vertex -2.50509 0.826006 -0.05
    endloop
  endfacet
  facet normal -0.997712 -0.0676028 0
    outer loop
      vertex -2.49994 0.75 -0.05
      vertex -2.49994 0.75 0.05
      vertex -2.50509 0.826006 0.05
    endloop
  endfacet
  facet normal -1 0 0
    outer loop
      vertex -2.49994 -0.749998 -0.05
      vertex -2.49994 0.75 0.05
      vertex -2.49994 0.75 -0.05
    endloop
  endfacet
  facet normal -1 0 0
    outer loop
      vertex -2.49994 -0.749998 -0.05
      vertex -2.49994 -0.749998 0.05
      vertex -2.49994 0.75 0.05
    endloop
  endfacet
  facet normal -0.999997 0.00250566 0
    outer loop
      vertex -2.50012 -0.821835 -0.05
      vertex -2.49994 -0.749998 0.05
      vertex -2.49994 -0.749998 -0.05
    endloop
  endfacet
  facet normal -0.999997 0.00250566 0
    outer loop
      vertex -2.50012 -0.821835 -0.05
      vertex -2.50012 -0.821835 0.05
      vertex -2.49994 -0.749998 0.05
    endloop
  endfacet
  facet normal -0.999993 0.00383733 0
    outer loop
      vertex -2.50037 -0.886984 -0.05
      vertex -2.50012 -0.821835 0.05
      vertex -2.50012 -0.821835 -0.05
    endloop
  endfacet
  facet normal -0.999993 0.00383733 0
    outer loop
      vertex -2.50037 -0.886984 -0.05
      vertex -2.50037 -0.886984 0.05
      vertex -2.50012 -0.821835 0.05
    endloop
  endfacet
  facet normal -0.999998 -0.00221253 0
    outer loop
      vertex -2.50024 -0.94574 -0.05
      vertex -2.50037 -0.886984 0.05
      vertex -2.50037 -0.886984 -0.05
    endloop
  endfacet
  facet normal -0.999998 -0.00221253 0
    outer loop
      vertex -2.50024 -0.94574 -0.05
      vertex -2.50024 -0.94574 0.05
      vertex -2.50037 -0.886984 0.05
    endloop
  endfacet
  facet normal -0.99983 -0.0184187 0
    outer loop
      vertex -2.49927 -0.998395 -0.05
      vertex -2.50024 -0.94574 0.05
      vertex -2.50024 -0.94574 -0.05
    endloop
  endfacet
  facet normal -0.99983 -0.0184187 0
    outer loop
      vertex -2.49927 -0.998395 -0.05
      vertex -2.49927 -0.998395 0.05
      vertex -2.50024 -0.94574 0.05
    endloop
  endfacet
  facet normal -0.998828 -0.0484009 0
    outer loop
      vertex -2.497 -1.04524 -0.05
      vertex -2.49927 -0.998395 0.05
      vertex -2.49927 -0.998395 -0.05
    endloop
  endfacet
  facet normal -0.998828 -0.0484009 0
    outer loop
      vertex -2.497 -1.04524 -0.05
      vertex -2.497 -1.04524 0.05
      vertex -2.49927 -0.998395 0.05
    endloop
  endfacet
  facet normal -0.995326 -0.0965705 0
    outer loop
      vertex -2.49299 -1.08657 -0.05
      vertex -2.497 -1.04524 0.05
      vertex -2.497 -1.04524 -0.05
    endloop
  endfacet
  facet normal -0.995326 -0.0965705 0
    outer loop
      vertex -2.49299 -1.08657 -0.05
      vertex -2.49299 -1.08657 0.05
      vertex -2.497 -1.04524 0.05
    endloop
  endfacet
  facet normal -0.985533 -0.169486 0
    outer loop
      vertex -2.48678 -1.12268 -0.05
      vertex -2.49299 -1.08657 0.05
      vertex -2.49299 -1.08657 -0.05
    endloop
  endfacet
  facet normal -0.985533 -0.169486 0
    outer loop
      vertex -2.48678 -1.12268 -0.05
      vertex -2.48678 -1.12268 0.05
      vertex -2.49299 -1.08657 0.05
    endloop
  endfacet
  facet normal -0.961919 -0.273335 0
    outer loop
      vertex -2.47792 -1.15386 -0.05
      vertex -2.48678 -1.12268 0.05
      vertex -2.48678 -1.12268 -0.05
    endloop
  endfacet
  facet normal -0.961919 -0.273335 0
    outer loop
      vertex -2.47792 -1.15386 -0.05
      vertex -2.47792 -1.15386 0.05
      vertex -2.48678 -1.12268 0.05
    endloop
  endfacet
  facet normal -0.911703 -0.41085 0
    outer loop
      vertex -2.46596 -1.1804 -0.05
      vertex -2.47792 -1.15386 0.05
      vertex -2.47792 -1.15386 -0.05
    endloop
  endfacet
  facet normal -0.911703 -0.41085 0
    outer loop
      vertex -2.46596 -1.1804 -0.05
      vertex -2.46596 -1.1804 0.05
      vertex -2.47792 -1.15386 0.05
    endloop
  endfacet
  facet normal -0.819457 -0.57314 0
    outer loop
      vertex -2.45044 -1.20259 -0.05
      vertex -2.46596 -1.1804 0.05
      vertex -2.46596 -1.1804 -0.05
    endloop
  endfacet
  facet normal -0.819457 -0.57314 0
    outer loop
      vertex -2.45044 -1.20259 -0.05
      vertex -2.45044 -1.20259 0.05
      vertex -2.46596 -1.1804 0.05
    endloop
  endfacet
  facet normal -0.680753 -0.732513 0
    outer loop
      vertex -2.43091 -1.22074 -0.05
      vertex -2.45044 -1.20259 0.05
      vertex -2.45044 -1.20259 -0.05
    endloop
  endfacet
  facet normal -0.680753 -0.732513 0
    outer loop
      vertex -2.43091 -1.22074 -0.05
      vertex -2.43091 -1.22074 0.05
      vertex -2.45044 -1.20259 0.05
    endloop
  endfacet
  facet normal -0.514128 -0.857714 0
    outer loop
      vertex -2.40692 -1.23512 -0.05
      vertex -2.43091 -1.22074 0.05
      vertex -2.43091 -1.22074 -0.05
    endloop
  endfacet
  facet normal -0.514128 -0.857714 0
    outer loop
      vertex -2.40692 -1.23512 -0.05
      vertex -2.40692 -1.23512 0.05
      vertex -2.43091 -1.22074 0.05
    endloop
  endfacet
  facet normal -0.353357 -0.935489 0
    outer loop
      vertex -2.37801 -1.24604 -0.05
      vertex -2.40692 -1.23512 0.05
      vertex -2.40692 -1.23512 -0.05
    endloop
  endfacet
  facet normal -0.353357 -0.935489 0
    outer loop
      vertex -2.37801 -1.24604 -0.05
      vertex -2.37801 -1.24604 0.05
      vertex -2.40692 -1.23512 0.05
    endloop
  endfacet
  facet normal -0.220514 -0.975384 0
    outer loop
      vertex -2.34373 -1.25379 -0.05
      vertex -2.37801 -1.24604 0.05
      vertex -2.37801 -1.24604 -0.05
    endloop
  endfacet
  facet normal -0.220514 -0.975384 0
    outer loop
      vertex -2.34373 -1.25379 -0.05
      vertex -2.34373 -1.25379 0.05
      vertex -2.37801 -1.24604 0.05
    endloop
  endfacet
  facet normal -0.120317 -0.992736 0
    outer loop
      vertex -2.30363 -1.25865 -0.05
      vertex -2.34373 -1.25379 0.05
      vertex -2.34373 -1.25379 -0.05
    endloop
  endfacet
  facet normal -0.120317 -0.992736 0
    outer loop
      vertex -2.30363 -1.25865 -0.05
      vertex -2.30363 -1.25865 0.05
      vertex -2.34373 -1.25379 0.05
    endloop
  endfacet
  facet normal -0.048885 -0.998804 0
    outer loop
      vertex -2.25725 -1.26092 -0.05
      vertex -2.30363 -1.25865 0.05
      vertex -2.30363 -1.25865 -0.05
    endloop
  endfacet
  facet normal -0.048885 -0.998804 0
    outer loop
      vertex -2.25725 -1.26092 -0.05
      vertex -2.25725 -1.26092 0.05
      vertex -2.30363 -1.25865 0.05
    endloop
  endfacet
  facet normal 0.000376648 -1 0
    outer loop
      vertex -2.20415 -1.2609 -0.05
      vertex -2.25725 -1.26092 0.05
      vertex -2.25725 -1.26092 -0.05
    endloop
  endfacet
  facet normal 0.000376648 -1 0
    outer loop
      vertex -2.20415 -1.2609 -0.05
      vertex -2.20415 -1.2609 0.05
      vertex -2.25725 -1.26092 0.05
    endloop
  endfacet
endsolid OpenSCAD_Model
