solid OpenSCAD_Model
  facet normal 0 0 -1
    outer loop
      vertex 2.45732 6.90142 -2.5
      vertex 2.98016 7.21512 -2.5
      vertex 3.50299 6.16945 -2.5
    endloop
  endfacet
  facet normal 0 0 -1
    outer loop
      vertex -5.3852 -0.941101 -2.5
      vertex -6.3263 0 -2.5
      vertex -5.80346 2.30047 -2.5
    endloop
  endfacet
  facet normal 0 0 -1
    outer loop
      vertex 1.20252 5.75118 -2.5
      vertex 1.82992 6.16945 -2.5
      vertex 3.81669 5.43748 -2.5
    endloop
  endfacet
  facet normal 0 0 -1
    outer loop
      vertex 1.82992 6.16945 -2.5
      vertex 2.45732 6.90142 -2.5
      vertex 3.50299 6.16945 -2.5
    endloop
  endfacet
  facet normal -0 -0 -1
    outer loop
      vertex 4.86236 3.24157 -2.5
      vertex 5.0715 -0.6274 -2.5
      vertex 4.33953 3.55527 -2.5
    endloop
  endfacet
  facet normal 0 0 -1
    outer loop
      vertex 4.86236 3.24157 -2.5
      vertex 5.48976 2.82331 -2.5
      vertex 5.0715 -0.6274 -2.5
    endloop
  endfacet
  facet normal -0 0 -1
    outer loop
      vertex 6.64 1.67307 -2.5
      vertex 6.11716 0.209134 -2.5
      vertex 6.22173 2.1959 -2.5
    endloop
  endfacet
  facet normal 0 0 -1
    outer loop
      vertex 6.53543 0.418266 -2.5
      vertex 6.64 1.67307 -2.5
      vertex 6.84913 1.2548 -2.5
    endloop
  endfacet
  facet normal -0 0 -1
    outer loop
      vertex 6.84913 0.6274 -2.5
      vertex 6.53543 0.418266 -2.5
      vertex 6.84913 1.2548 -2.5
    endloop
  endfacet
  facet normal -0 0 -1
    outer loop
      vertex 6.53543 0.418266 -2.5
      vertex 6.11716 0.209134 -2.5
      vertex 6.64 1.67307 -2.5
    endloop
  endfacet
  facet normal 0 0 -1
    outer loop
      vertex 6.11716 0.209134 -2.5
      vertex 5.48976 2.82331 -2.5
      vertex 6.22173 2.1959 -2.5
    endloop
  endfacet
  facet normal -0 0 -1
    outer loop
      vertex 6.11716 0.209134 -2.5
      vertex 5.59433 -0.313699 -2.5
      vertex 5.48976 2.82331 -2.5
    endloop
  endfacet
  facet normal 0 -0 -1
    outer loop
      vertex 5.48976 2.82331 -2.5
      vertex 5.59433 -0.313699 -2.5
      vertex 5.0715 -0.6274 -2.5
    endloop
  endfacet
  facet normal 0 0 -1
    outer loop
      vertex 0.784251 5.33291 -2.5
      vertex 4.02583 4.49638 -2.5
      vertex 4.33953 3.55527 -2.5
    endloop
  endfacet
  facet normal 0 0 -1
    outer loop
      vertex 0.784251 5.33291 -2.5
      vertex 1.20252 5.75118 -2.5
      vertex 4.02583 4.49638 -2.5
    endloop
  endfacet
  facet normal 0 0 -1
    outer loop
      vertex 4.02583 4.49638 -2.5
      vertex 1.20252 5.75118 -2.5
      vertex 3.81669 5.43748 -2.5
    endloop
  endfacet
  facet normal 0 0 -1
    outer loop
      vertex 3.81669 5.43748 -2.5
      vertex 1.82992 6.16945 -2.5
      vertex 3.50299 6.16945 -2.5
    endloop
  endfacet
  facet normal 0 0 -1
    outer loop
      vertex 5.0715 -0.6274 -2.5
      vertex 0.784251 5.33291 -2.5
      vertex 4.33953 3.55527 -2.5
    endloop
  endfacet
  facet normal 0 0 -1
    outer loop
      vertex 5.0715 -0.6274 -2.5
      vertex 0.15685 5.33291 -2.5
      vertex 0.784251 5.33291 -2.5
    endloop
  endfacet
  facet normal -0 0 -1
    outer loop
      vertex 5.0715 -0.6274 -2.5
      vertex -4.96693 -1.46394 -2.5
      vertex 0.15685 5.33291 -2.5
    endloop
  endfacet
  facet normal 0 -0 -1
    outer loop
      vertex -0.679684 5.43748 -2.5
      vertex 0.15685 5.33291 -2.5
      vertex -4.02583 3.76441 -2.5
    endloop
  endfacet
  facet normal 0 0 -1
    outer loop
      vertex -4.96693 -1.46394 -2.5
      vertex -4.86236 3.03244 -2.5
      vertex -4.02583 3.76441 -2.5
    endloop
  endfacet
  facet normal 0 0 -1
    outer loop
      vertex -3.81669 4.81008 -2.5
      vertex -1.09795 5.85575 -2.5
      vertex -0.679684 5.43748 -2.5
    endloop
  endfacet
  facet normal 0 -0 -1
    outer loop
      vertex -3.81669 4.81008 -2.5
      vertex -0.679684 5.43748 -2.5
      vertex -4.02583 3.76441 -2.5
    endloop
  endfacet
  facet normal 0 0 -1
    outer loop
      vertex 0.15685 5.33291 -2.5
      vertex -4.96693 -1.46394 -2.5
      vertex -4.02583 3.76441 -2.5
    endloop
  endfacet
  facet normal -0 0 -1
    outer loop
      vertex -1.09795 5.85575 -2.5
      vertex -3.81669 4.81008 -2.5
      vertex -3.39843 5.96031 -2.5
    endloop
  endfacet
  facet normal -0 0 -1
    outer loop
      vertex -1.62079 6.48315 -2.5
      vertex -3.39843 5.96031 -2.5
      vertex -2.24819 7.00598 -2.5
    endloop
  endfacet
  facet normal -0 0 -1
    outer loop
      vertex -2.24819 7.00598 -2.5
      vertex -3.39843 5.96031 -2.5
      vertex -2.77102 7.31968 -2.5
    endloop
  endfacet
  facet normal 0 -0 -1
    outer loop
      vertex -1.62079 6.48315 -2.5
      vertex -1.09795 5.85575 -2.5
      vertex -3.39843 5.96031 -2.5
    endloop
  endfacet
  facet normal 0 0 -1
    outer loop
      vertex -4.86236 3.03244 -2.5
      vertex -5.3852 -0.941101 -2.5
      vertex -5.80346 2.30047 -2.5
    endloop
  endfacet
  facet normal 0 0 -1
    outer loop
      vertex -6.74457 0.522833 -2.5
      vertex -6.84913 0.941101 -2.5
      vertex -6.53543 1.46394 -2.5
    endloop
  endfacet
  facet normal 0 0 -1
    outer loop
      vertex -6.3263 0 -2.5
      vertex -6.74457 0.522833 -2.5
      vertex -6.53543 1.46394 -2.5
    endloop
  endfacet
  facet normal 0 0 -1
    outer loop
      vertex -4.96693 -1.46394 -2.5
      vertex -5.3852 -0.941101 -2.5
      vertex -4.86236 3.03244 -2.5
    endloop
  endfacet
  facet normal 0 0 -1
    outer loop
      vertex -5.80346 2.30047 -2.5
      vertex -6.3263 0 -2.5
      vertex -6.53543 1.46394 -2.5
    endloop
  endfacet
  facet normal -0 0 -1
    outer loop
      vertex 4.96693 -1.15023 -2.5
      vertex -4.96693 -1.46394 -2.5
      vertex 5.0715 -0.6274 -2.5
    endloop
  endfacet
  facet normal 0 0 -1
    outer loop
      vertex 4.96693 -1.15023 -2.5
      vertex -4.86236 -1.8822 -2.5
      vertex -4.96693 -1.46394 -2.5
    endloop
  endfacet
  facet normal 0 0 -1
    outer loop
      vertex 4.96693 -1.15023 -2.5
      vertex 4.86236 -1.77764 -2.5
      vertex -4.86236 -1.8822 -2.5
    endloop
  endfacet
  facet normal 0 0 -1
    outer loop
      vertex -4.86236 -1.8822 -2.5
      vertex 4.86236 -1.77764 -2.5
      vertex 4.86236 -2.61417 -2.5
    endloop
  endfacet
  facet normal 0 0 -1
    outer loop
      vertex -5.3852 -3.13701 -2.5
      vertex -5.0715 -2.1959 -2.5
      vertex -4.86236 -1.8822 -2.5
    endloop
  endfacet
  facet normal 0 0 -1
    outer loop
      vertex 4.96693 -4.49638 -2.5
      vertex -4.86236 -1.8822 -2.5
      vertex 4.86236 -2.61417 -2.5
    endloop
  endfacet
  facet normal 0 0 -1
    outer loop
      vertex -5.48976 -4.39181 -2.5
      vertex -5.3852 -3.13701 -2.5
      vertex -4.86236 -1.8822 -2.5
    endloop
  endfacet
  facet normal 0 0 -1
    outer loop
      vertex 4.96693 -4.49638 -2.5
      vertex -5.48976 -4.39181 -2.5
      vertex -4.86236 -1.8822 -2.5
    endloop
  endfacet
  facet normal -0 0 -1
    outer loop
      vertex 4.96693 -4.49638 -2.5
      vertex -5.48976 -7.31968 -2.5
      vertex -5.48976 -4.39181 -2.5
    endloop
  endfacet
  facet normal 0 -0 -1
    outer loop
      vertex 4.96693 -4.49638 -2.5
      vertex 5.17606 -6.27402 -2.5
      vertex -5.48976 -7.31968 -2.5
    endloop
  endfacet
  facet normal 0 0 -1
    outer loop
      vertex -5.48976 -7.31968 -2.5
      vertex 5.17606 -6.27402 -2.5
      vertex 5.17606 -7.31968 -2.5
    endloop
  endfacet
  facet normal 0 0 1
    outer loop
      vertex 3.50299 6.16945 2.5
      vertex 2.98016 7.21512 2.5
      vertex 2.45732 6.90142 2.5
    endloop
  endfacet
  facet normal 0 0 1
    outer loop
      vertex -5.80346 2.30047 2.5
      vertex -6.3263 0 2.5
      vertex -5.3852 -0.941101 2.5
    endloop
  endfacet
  facet normal 0 0 1
    outer loop
      vertex 3.81669 5.43748 2.5
      vertex 1.82992 6.16945 2.5
      vertex 1.20252 5.75118 2.5
    endloop
  endfacet
  facet normal 0 0 1
    outer loop
      vertex 3.50299 6.16945 2.5
      vertex 2.45732 6.90142 2.5
      vertex 1.82992 6.16945 2.5
    endloop
  endfacet
  facet normal 0 0 1
    outer loop
      vertex 4.33953 3.55527 2.5
      vertex 5.0715 -0.6274 2.5
      vertex 4.86236 3.24157 2.5
    endloop
  endfacet
  facet normal 0 -0 1
    outer loop
      vertex 5.0715 -0.6274 2.5
      vertex 5.48976 2.82331 2.5
      vertex 4.86236 3.24157 2.5
    endloop
  endfacet
  facet normal 0 0 1
    outer loop
      vertex 6.22173 2.1959 2.5
      vertex 6.11716 0.209134 2.5
      vertex 6.64 1.67307 2.5
    endloop
  endfacet
  facet normal 0 0 1
    outer loop
      vertex 6.84913 1.2548 2.5
      vertex 6.64 1.67307 2.5
      vertex 6.53543 0.418266 2.5
    endloop
  endfacet
  facet normal 0 0 1
    outer loop
      vertex 6.84913 1.2548 2.5
      vertex 6.53543 0.418266 2.5
      vertex 6.84913 0.6274 2.5
    endloop
  endfacet
  facet normal 0 0 1
    outer loop
      vertex 6.64 1.67307 2.5
      vertex 6.11716 0.209134 2.5
      vertex 6.53543 0.418266 2.5
    endloop
  endfacet
  facet normal 0 0 1
    outer loop
      vertex 6.22173 2.1959 2.5
      vertex 5.48976 2.82331 2.5
      vertex 6.11716 0.209134 2.5
    endloop
  endfacet
  facet normal 0 0 1
    outer loop
      vertex 5.48976 2.82331 2.5
      vertex 5.59433 -0.313699 2.5
      vertex 6.11716 0.209134 2.5
    endloop
  endfacet
  facet normal 0 0 1
    outer loop
      vertex 5.0715 -0.6274 2.5
      vertex 5.59433 -0.313699 2.5
      vertex 5.48976 2.82331 2.5
    endloop
  endfacet
  facet normal 0 0 1
    outer loop
      vertex 4.33953 3.55527 2.5
      vertex 4.02583 4.49638 2.5
      vertex 0.784251 5.33291 2.5
    endloop
  endfacet
  facet normal 0 0 1
    outer loop
      vertex 4.02583 4.49638 2.5
      vertex 1.20252 5.75118 2.5
      vertex 0.784251 5.33291 2.5
    endloop
  endfacet
  facet normal 0 0 1
    outer loop
      vertex 3.81669 5.43748 2.5
      vertex 1.20252 5.75118 2.5
      vertex 4.02583 4.49638 2.5
    endloop
  endfacet
  facet normal 0 0 1
    outer loop
      vertex 3.50299 6.16945 2.5
      vertex 1.82992 6.16945 2.5
      vertex 3.81669 5.43748 2.5
    endloop
  endfacet
  facet normal 0 0 1
    outer loop
      vertex 4.33953 3.55527 2.5
      vertex 0.784251 5.33291 2.5
      vertex 5.0715 -0.6274 2.5
    endloop
  endfacet
  facet normal 0 0 1
    outer loop
      vertex 0.784251 5.33291 2.5
      vertex 0.15685 5.33291 2.5
      vertex 5.0715 -0.6274 2.5
    endloop
  endfacet
  facet normal 0 0 1
    outer loop
      vertex 0.15685 5.33291 2.5
      vertex -4.96693 -1.46394 2.5
      vertex 5.0715 -0.6274 2.5
    endloop
  endfacet
  facet normal 0 0 1
    outer loop
      vertex -4.02583 3.76441 2.5
      vertex 0.15685 5.33291 2.5
      vertex -0.679684 5.43748 2.5
    endloop
  endfacet
  facet normal 0 0 1
    outer loop
      vertex -4.02583 3.76441 2.5
      vertex -4.86236 3.03244 2.5
      vertex -4.96693 -1.46394 2.5
    endloop
  endfacet
  facet normal 0 0 1
    outer loop
      vertex -0.679684 5.43748 2.5
      vertex -1.09795 5.85575 2.5
      vertex -3.81669 4.81008 2.5
    endloop
  endfacet
  facet normal 0 0 1
    outer loop
      vertex -4.02583 3.76441 2.5
      vertex -0.679684 5.43748 2.5
      vertex -3.81669 4.81008 2.5
    endloop
  endfacet
  facet normal -0 0 1
    outer loop
      vertex -4.02583 3.76441 2.5
      vertex -4.96693 -1.46394 2.5
      vertex 0.15685 5.33291 2.5
    endloop
  endfacet
  facet normal 0 0 1
    outer loop
      vertex -3.39843 5.96031 2.5
      vertex -3.81669 4.81008 2.5
      vertex -1.09795 5.85575 2.5
    endloop
  endfacet
  facet normal 0 0 1
    outer loop
      vertex -2.24819 7.00598 2.5
      vertex -3.39843 5.96031 2.5
      vertex -1.62079 6.48315 2.5
    endloop
  endfacet
  facet normal 0 0 1
    outer loop
      vertex -2.77102 7.31968 2.5
      vertex -3.39843 5.96031 2.5
      vertex -2.24819 7.00598 2.5
    endloop
  endfacet
  facet normal -0 0 1
    outer loop
      vertex -3.39843 5.96031 2.5
      vertex -1.09795 5.85575 2.5
      vertex -1.62079 6.48315 2.5
    endloop
  endfacet
  facet normal -0 0 1
    outer loop
      vertex -5.80346 2.30047 2.5
      vertex -5.3852 -0.941101 2.5
      vertex -4.86236 3.03244 2.5
    endloop
  endfacet
  facet normal 0 0 1
    outer loop
      vertex -6.53543 1.46394 2.5
      vertex -6.84913 0.941101 2.5
      vertex -6.74457 0.522833 2.5
    endloop
  endfacet
  facet normal 0 0 1
    outer loop
      vertex -6.53543 1.46394 2.5
      vertex -6.74457 0.522833 2.5
      vertex -6.3263 0 2.5
    endloop
  endfacet
  facet normal 0 0 1
    outer loop
      vertex -4.86236 3.03244 2.5
      vertex -5.3852 -0.941101 2.5
      vertex -4.96693 -1.46394 2.5
    endloop
  endfacet
  facet normal -0 0 1
    outer loop
      vertex -6.53543 1.46394 2.5
      vertex -6.3263 0 2.5
      vertex -5.80346 2.30047 2.5
    endloop
  endfacet
  facet normal 0 0 1
    outer loop
      vertex 5.0715 -0.6274 2.5
      vertex -4.96693 -1.46394 2.5
      vertex 4.96693 -1.15023 2.5
    endloop
  endfacet
  facet normal -0 0 1
    outer loop
      vertex -4.96693 -1.46394 2.5
      vertex -4.86236 -1.8822 2.5
      vertex 4.96693 -1.15023 2.5
    endloop
  endfacet
  facet normal 0 0 1
    outer loop
      vertex -4.86236 -1.8822 2.5
      vertex 4.86236 -1.77764 2.5
      vertex 4.96693 -1.15023 2.5
    endloop
  endfacet
  facet normal 0 -0 1
    outer loop
      vertex 4.86236 -2.61417 2.5
      vertex 4.86236 -1.77764 2.5
      vertex -4.86236 -1.8822 2.5
    endloop
  endfacet
  facet normal 0 0 1
    outer loop
      vertex -4.86236 -1.8822 2.5
      vertex -5.0715 -2.1959 2.5
      vertex -5.3852 -3.13701 2.5
    endloop
  endfacet
  facet normal 0 0 1
    outer loop
      vertex 4.86236 -2.61417 2.5
      vertex -4.86236 -1.8822 2.5
      vertex 4.96693 -4.49638 2.5
    endloop
  endfacet
  facet normal 0 0 1
    outer loop
      vertex -4.86236 -1.8822 2.5
      vertex -5.3852 -3.13701 2.5
      vertex -5.48976 -4.39181 2.5
    endloop
  endfacet
  facet normal 0 0 1
    outer loop
      vertex -4.86236 -1.8822 2.5
      vertex -5.48976 -4.39181 2.5
      vertex 4.96693 -4.49638 2.5
    endloop
  endfacet
  facet normal 0 0 1
    outer loop
      vertex -5.48976 -4.39181 2.5
      vertex -5.48976 -7.31968 2.5
      vertex 4.96693 -4.49638 2.5
    endloop
  endfacet
  facet normal 0 0 1
    outer loop
      vertex -5.48976 -7.31968 2.5
      vertex 5.17606 -6.27402 2.5
      vertex 4.96693 -4.49638 2.5
    endloop
  endfacet
  facet normal 0 -0 1
    outer loop
      vertex 5.17606 -7.31968 2.5
      vertex 5.17606 -6.27402 2.5
      vertex -5.48976 -7.31968 2.5
    endloop
  endfacet
  facet normal 0.993151 0.116839 0
    outer loop
      vertex 4.96693 -4.49638 -2.5
      vertex 5.17606 -6.27402 2.5
      vertex 5.17606 -6.27402 -2.5
    endloop
  endfacet
  facet normal 0.993151 0.116839 -0
    outer loop
      vertex 4.96693 -4.49638 -2.5
      vertex 4.96693 -4.49638 2.5
      vertex 5.17606 -6.27402 2.5
    endloop
  endfacet
  facet normal 0.99846 0.0554715 0
    outer loop
      vertex 4.86236 -2.61417 -2.5
      vertex 4.96693 -4.49638 2.5
      vertex 4.96693 -4.49638 -2.5
    endloop
  endfacet
  facet normal 0.99846 0.0554715 -0
    outer loop
      vertex 4.86236 -2.61417 -2.5
      vertex 4.86236 -2.61417 2.5
      vertex 4.96693 -4.49638 2.5
    endloop
  endfacet
  facet normal 1 0 0
    outer loop
      vertex 4.86236 -1.77764 -2.5
      vertex 4.86236 -2.61417 2.5
      vertex 4.86236 -2.61417 -2.5
    endloop
  endfacet
  facet normal 1 0 -0
    outer loop
      vertex 4.86236 -1.77764 -2.5
      vertex 4.86236 -1.77764 2.5
      vertex 4.86236 -2.61417 2.5
    endloop
  endfacet
  facet normal 0.986393 -0.164402 0
    outer loop
      vertex 4.96693 -1.15023 -2.5
      vertex 4.86236 -1.77764 2.5
      vertex 4.86236 -1.77764 -2.5
    endloop
  endfacet
  facet normal 0.986393 -0.164402 0
    outer loop
      vertex 4.96693 -1.15023 -2.5
      vertex 4.96693 -1.15023 2.5
      vertex 4.86236 -1.77764 2.5
    endloop
  endfacet
  facet normal 0.980579 -0.196123 0
    outer loop
      vertex 5.0715 -0.6274 -2.5
      vertex 4.96693 -1.15023 2.5
      vertex 4.96693 -1.15023 -2.5
    endloop
  endfacet
  facet normal 0.980579 -0.196123 0
    outer loop
      vertex 5.0715 -0.6274 -2.5
      vertex 5.0715 -0.6274 2.5
      vertex 4.96693 -1.15023 2.5
    endloop
  endfacet
  facet normal 0.514499 -0.857491 0
    outer loop
      vertex 5.59433 -0.313699 -2.5
      vertex 5.0715 -0.6274 2.5
      vertex 5.0715 -0.6274 -2.5
    endloop
  endfacet
  facet normal 0.514499 -0.857491 0
    outer loop
      vertex 5.59433 -0.313699 -2.5
      vertex 5.59433 -0.313699 2.5
      vertex 5.0715 -0.6274 2.5
    endloop
  endfacet
  facet normal 0.707109 -0.707105 0
    outer loop
      vertex 6.11716 0.209134 -2.5
      vertex 5.59433 -0.313699 2.5
      vertex 5.59433 -0.313699 -2.5
    endloop
  endfacet
  facet normal 0.707109 -0.707105 0
    outer loop
      vertex 6.11716 0.209134 -2.5
      vertex 6.11716 0.209134 2.5
      vertex 5.59433 -0.313699 2.5
    endloop
  endfacet
  facet normal 0.447208 -0.89443 0
    outer loop
      vertex 6.53543 0.418266 -2.5
      vertex 6.11716 0.209134 2.5
      vertex 6.11716 0.209134 -2.5
    endloop
  endfacet
  facet normal 0.447208 -0.89443 0
    outer loop
      vertex 6.53543 0.418266 -2.5
      vertex 6.53543 0.418266 2.5
      vertex 6.11716 0.209134 2.5
    endloop
  endfacet
  facet normal 0.554701 -0.832049 0
    outer loop
      vertex 6.84913 0.6274 -2.5
      vertex 6.53543 0.418266 2.5
      vertex 6.53543 0.418266 -2.5
    endloop
  endfacet
  facet normal 0.554701 -0.832049 0
    outer loop
      vertex 6.84913 0.6274 -2.5
      vertex 6.84913 0.6274 2.5
      vertex 6.53543 0.418266 2.5
    endloop
  endfacet
  facet normal 1 0 0
    outer loop
      vertex 6.84913 1.2548 -2.5
      vertex 6.84913 0.6274 2.5
      vertex 6.84913 0.6274 -2.5
    endloop
  endfacet
  facet normal 1 0 -0
    outer loop
      vertex 6.84913 1.2548 -2.5
      vertex 6.84913 1.2548 2.5
      vertex 6.84913 0.6274 2.5
    endloop
  endfacet
  facet normal 0.894431 0.447205 0
    outer loop
      vertex 6.64 1.67307 -2.5
      vertex 6.84913 1.2548 2.5
      vertex 6.84913 1.2548 -2.5
    endloop
  endfacet
  facet normal 0.894431 0.447205 -0
    outer loop
      vertex 6.64 1.67307 -2.5
      vertex 6.64 1.67307 2.5
      vertex 6.84913 1.2548 2.5
    endloop
  endfacet
  facet normal 0.780864 0.624701 0
    outer loop
      vertex 6.22173 2.1959 -2.5
      vertex 6.64 1.67307 2.5
      vertex 6.64 1.67307 -2.5
    endloop
  endfacet
  facet normal 0.780864 0.624701 -0
    outer loop
      vertex 6.22173 2.1959 -2.5
      vertex 6.22173 2.1959 2.5
      vertex 6.64 1.67307 2.5
    endloop
  endfacet
  facet normal 0.650796 0.759253 0
    outer loop
      vertex 5.48976 2.82331 -2.5
      vertex 6.22173 2.1959 2.5
      vertex 6.22173 2.1959 -2.5
    endloop
  endfacet
  facet normal 0.650796 0.759253 -0
    outer loop
      vertex 5.48976 2.82331 -2.5
      vertex 5.48976 2.82331 2.5
      vertex 6.22173 2.1959 2.5
    endloop
  endfacet
  facet normal 0.554694 0.832054 0
    outer loop
      vertex 4.86236 3.24157 -2.5
      vertex 5.48976 2.82331 2.5
      vertex 5.48976 2.82331 -2.5
    endloop
  endfacet
  facet normal 0.554694 0.832054 -0
    outer loop
      vertex 4.86236 3.24157 -2.5
      vertex 4.86236 3.24157 2.5
      vertex 5.48976 2.82331 2.5
    endloop
  endfacet
  facet normal 0.514498 0.857491 0
    outer loop
      vertex 4.33953 3.55527 -2.5
      vertex 4.86236 3.24157 2.5
      vertex 4.86236 3.24157 -2.5
    endloop
  endfacet
  facet normal 0.514498 0.857491 -0
    outer loop
      vertex 4.33953 3.55527 -2.5
      vertex 4.33953 3.55527 2.5
      vertex 4.86236 3.24157 2.5
    endloop
  endfacet
  facet normal 0.948684 0.316225 0
    outer loop
      vertex 4.02583 4.49638 -2.5
      vertex 4.33953 3.55527 2.5
      vertex 4.33953 3.55527 -2.5
    endloop
  endfacet
  facet normal 0.948684 0.316225 -0
    outer loop
      vertex 4.02583 4.49638 -2.5
      vertex 4.02583 4.49638 2.5
      vertex 4.33953 3.55527 2.5
    endloop
  endfacet
  facet normal 0.976186 0.216937 0
    outer loop
      vertex 3.81669 5.43748 -2.5
      vertex 4.02583 4.49638 2.5
      vertex 4.02583 4.49638 -2.5
    endloop
  endfacet
  facet normal 0.976186 0.216937 -0
    outer loop
      vertex 3.81669 5.43748 -2.5
      vertex 3.81669 5.43748 2.5
      vertex 4.02583 4.49638 2.5
    endloop
  endfacet
  facet normal 0.919146 0.393918 0
    outer loop
      vertex 3.50299 6.16945 -2.5
      vertex 3.81669 5.43748 2.5
      vertex 3.81669 5.43748 -2.5
    endloop
  endfacet
  facet normal 0.919146 0.393918 -0
    outer loop
      vertex 3.50299 6.16945 -2.5
      vertex 3.50299 6.16945 2.5
      vertex 3.81669 5.43748 2.5
    endloop
  endfacet
  facet normal 0.894429 0.44721 0
    outer loop
      vertex 2.98016 7.21512 -2.5
      vertex 3.50299 6.16945 2.5
      vertex 3.50299 6.16945 -2.5
    endloop
  endfacet
  facet normal 0.894429 0.44721 -0
    outer loop
      vertex 2.98016 7.21512 -2.5
      vertex 2.98016 7.21512 2.5
      vertex 3.50299 6.16945 2.5
    endloop
  endfacet
  facet normal -0.514491 0.857496 0
    outer loop
      vertex 2.45732 6.90142 -2.5
      vertex 2.98016 7.21512 2.5
      vertex 2.98016 7.21512 -2.5
    endloop
  endfacet
  facet normal -0.514491 0.857496 0
    outer loop
      vertex 2.45732 6.90142 -2.5
      vertex 2.45732 6.90142 2.5
      vertex 2.98016 7.21512 2.5
    endloop
  endfacet
  facet normal -0.759258 0.65079 0
    outer loop
      vertex 1.82992 6.16945 -2.5
      vertex 2.45732 6.90142 2.5
      vertex 2.45732 6.90142 -2.5
    endloop
  endfacet
  facet normal -0.759258 0.65079 0
    outer loop
      vertex 1.82992 6.16945 -2.5
      vertex 1.82992 6.16945 2.5
      vertex 2.45732 6.90142 2.5
    endloop
  endfacet
  facet normal -0.554703 0.832048 0
    outer loop
      vertex 1.20252 5.75118 -2.5
      vertex 1.82992 6.16945 2.5
      vertex 1.82992 6.16945 -2.5
    endloop
  endfacet
  facet normal -0.554703 0.832048 0
    outer loop
      vertex 1.20252 5.75118 -2.5
      vertex 1.20252 5.75118 2.5
      vertex 1.82992 6.16945 2.5
    endloop
  endfacet
  facet normal -0.707108 0.707106 0
    outer loop
      vertex 0.784251 5.33291 -2.5
      vertex 1.20252 5.75118 2.5
      vertex 1.20252 5.75118 -2.5
    endloop
  endfacet
  facet normal -0.707108 0.707106 0
    outer loop
      vertex 0.784251 5.33291 -2.5
      vertex 0.784251 5.33291 2.5
      vertex 1.20252 5.75118 2.5
    endloop
  endfacet
  facet normal 0 1 0
    outer loop
      vertex 0.15685 5.33291 -2.5
      vertex 0.784251 5.33291 2.5
      vertex 0.784251 5.33291 -2.5
    endloop
  endfacet
  facet normal 0 1 0
    outer loop
      vertex 0.15685 5.33291 -2.5
      vertex 0.15685 5.33291 2.5
      vertex 0.784251 5.33291 2.5
    endloop
  endfacet
  facet normal 0.124039 0.992277 0
    outer loop
      vertex -0.679684 5.43748 -2.5
      vertex 0.15685 5.33291 2.5
      vertex 0.15685 5.33291 -2.5
    endloop
  endfacet
  facet normal 0.124039 0.992277 -0
    outer loop
      vertex -0.679684 5.43748 -2.5
      vertex -0.679684 5.43748 2.5
      vertex 0.15685 5.33291 2.5
    endloop
  endfacet
  facet normal 0.70711 0.707103 0
    outer loop
      vertex -1.09795 5.85575 -2.5
      vertex -0.679684 5.43748 2.5
      vertex -0.679684 5.43748 -2.5
    endloop
  endfacet
  facet normal 0.70711 0.707103 -0
    outer loop
      vertex -1.09795 5.85575 -2.5
      vertex -1.09795 5.85575 2.5
      vertex -0.679684 5.43748 2.5
    endloop
  endfacet
  facet normal 0.768217 0.640189 0
    outer loop
      vertex -1.62079 6.48315 -2.5
      vertex -1.09795 5.85575 2.5
      vertex -1.09795 5.85575 -2.5
    endloop
  endfacet
  facet normal 0.768217 0.640189 -0
    outer loop
      vertex -1.62079 6.48315 -2.5
      vertex -1.62079 6.48315 2.5
      vertex -1.09795 5.85575 2.5
    endloop
  endfacet
  facet normal 0.640182 0.768223 0
    outer loop
      vertex -2.24819 7.00598 -2.5
      vertex -1.62079 6.48315 2.5
      vertex -1.62079 6.48315 -2.5
    endloop
  endfacet
  facet normal 0.640182 0.768223 -0
    outer loop
      vertex -2.24819 7.00598 -2.5
      vertex -2.24819 7.00598 2.5
      vertex -1.62079 6.48315 2.5
    endloop
  endfacet
  facet normal 0.514498 0.857491 0
    outer loop
      vertex -2.77102 7.31968 -2.5
      vertex -2.24819 7.00598 2.5
      vertex -2.24819 7.00598 -2.5
    endloop
  endfacet
  facet normal 0.514498 0.857491 -0
    outer loop
      vertex -2.77102 7.31968 -2.5
      vertex -2.77102 7.31968 2.5
      vertex -2.24819 7.00598 2.5
    endloop
  endfacet
  facet normal -0.907957 0.419063 0
    outer loop
      vertex -3.39843 5.96031 -2.5
      vertex -2.77102 7.31968 2.5
      vertex -2.77102 7.31968 -2.5
    endloop
  endfacet
  facet normal -0.907957 0.419063 0
    outer loop
      vertex -3.39843 5.96031 -2.5
      vertex -3.39843 5.96031 2.5
      vertex -2.77102 7.31968 2.5
    endloop
  endfacet
  facet normal -0.939795 0.341739 0
    outer loop
      vertex -3.81669 4.81008 -2.5
      vertex -3.39843 5.96031 2.5
      vertex -3.39843 5.96031 -2.5
    endloop
  endfacet
  facet normal -0.939795 0.341739 0
    outer loop
      vertex -3.81669 4.81008 -2.5
      vertex -3.81669 4.81008 2.5
      vertex -3.39843 5.96031 2.5
    endloop
  endfacet
  facet normal -0.98058 0.196122 0
    outer loop
      vertex -4.02583 3.76441 -2.5
      vertex -3.81669 4.81008 2.5
      vertex -3.81669 4.81008 -2.5
    endloop
  endfacet
  facet normal -0.98058 0.196122 0
    outer loop
      vertex -4.02583 3.76441 -2.5
      vertex -4.02583 3.76441 2.5
      vertex -3.81669 4.81008 2.5
    endloop
  endfacet
  facet normal -0.658508 0.752574 0
    outer loop
      vertex -4.86236 3.03244 -2.5
      vertex -4.02583 3.76441 2.5
      vertex -4.02583 3.76441 -2.5
    endloop
  endfacet
  facet normal -0.658508 0.752574 0
    outer loop
      vertex -4.86236 3.03244 -2.5
      vertex -4.86236 3.03244 2.5
      vertex -4.02583 3.76441 2.5
    endloop
  endfacet
  facet normal -0.613942 0.789351 0
    outer loop
      vertex -5.80346 2.30047 -2.5
      vertex -4.86236 3.03244 2.5
      vertex -4.86236 3.03244 -2.5
    endloop
  endfacet
  facet normal -0.613942 0.789351 0
    outer loop
      vertex -5.80346 2.30047 -2.5
      vertex -5.80346 2.30047 2.5
      vertex -4.86236 3.03244 2.5
    endloop
  endfacet
  facet normal -0.752574 0.658508 0
    outer loop
      vertex -6.53543 1.46394 -2.5
      vertex -5.80346 2.30047 2.5
      vertex -5.80346 2.30047 -2.5
    endloop
  endfacet
  facet normal -0.752574 0.658508 0
    outer loop
      vertex -6.53543 1.46394 -2.5
      vertex -6.53543 1.46394 2.5
      vertex -5.80346 2.30047 2.5
    endloop
  endfacet
  facet normal -0.857495 0.514492 0
    outer loop
      vertex -6.84913 0.941101 -2.5
      vertex -6.53543 1.46394 2.5
      vertex -6.53543 1.46394 -2.5
    endloop
  endfacet
  facet normal -0.857495 0.514492 0
    outer loop
      vertex -6.84913 0.941101 -2.5
      vertex -6.84913 0.941101 2.5
      vertex -6.53543 1.46394 2.5
    endloop
  endfacet
  facet normal -0.970146 -0.24252 0
    outer loop
      vertex -6.74457 0.522833 -2.5
      vertex -6.84913 0.941101 2.5
      vertex -6.84913 0.941101 -2.5
    endloop
  endfacet
  facet normal -0.970146 -0.24252 0
    outer loop
      vertex -6.74457 0.522833 -2.5
      vertex -6.74457 0.522833 2.5
      vertex -6.84913 0.941101 2.5
    endloop
  endfacet
  facet normal -0.780866 -0.624698 0
    outer loop
      vertex -6.3263 0 -2.5
      vertex -6.74457 0.522833 2.5
      vertex -6.74457 0.522833 -2.5
    endloop
  endfacet
  facet normal -0.780866 -0.624698 0
    outer loop
      vertex -6.3263 0 -2.5
      vertex -6.3263 0 2.5
      vertex -6.74457 0.522833 2.5
    endloop
  endfacet
  facet normal -0.707107 -0.707106 0
    outer loop
      vertex -5.3852 -0.941101 -2.5
      vertex -6.3263 0 2.5
      vertex -6.3263 0 -2.5
    endloop
  endfacet
  facet normal -0.707107 -0.707106 0
    outer loop
      vertex -5.3852 -0.941101 -2.5
      vertex -5.3852 -0.941101 2.5
      vertex -6.3263 0 2.5
    endloop
  endfacet
  facet normal -0.78087 -0.624694 0
    outer loop
      vertex -4.96693 -1.46394 -2.5
      vertex -5.3852 -0.941101 2.5
      vertex -5.3852 -0.941101 -2.5
    endloop
  endfacet
  facet normal -0.78087 -0.624694 0
    outer loop
      vertex -4.96693 -1.46394 -2.5
      vertex -4.96693 -1.46394 2.5
      vertex -5.3852 -0.941101 2.5
    endloop
  endfacet
  facet normal -0.97014 -0.242547 0
    outer loop
      vertex -4.86236 -1.8822 -2.5
      vertex -4.96693 -1.46394 2.5
      vertex -4.96693 -1.46394 -2.5
    endloop
  endfacet
  facet normal -0.97014 -0.242547 0
    outer loop
      vertex -4.86236 -1.8822 -2.5
      vertex -4.86236 -1.8822 2.5
      vertex -4.96693 -1.46394 2.5
    endloop
  endfacet
  facet normal -0.832042 0.554712 0
    outer loop
      vertex -5.0715 -2.1959 -2.5
      vertex -4.86236 -1.8822 2.5
      vertex -4.86236 -1.8822 -2.5
    endloop
  endfacet
  facet normal -0.832042 0.554712 0
    outer loop
      vertex -5.0715 -2.1959 -2.5
      vertex -5.0715 -2.1959 2.5
      vertex -4.86236 -1.8822 2.5
    endloop
  endfacet
  facet normal -0.948684 0.316225 0
    outer loop
      vertex -5.3852 -3.13701 -2.5
      vertex -5.0715 -2.1959 2.5
      vertex -5.0715 -2.1959 -2.5
    endloop
  endfacet
  facet normal -0.948684 0.316225 0
    outer loop
      vertex -5.3852 -3.13701 -2.5
      vertex -5.3852 -3.13701 2.5
      vertex -5.0715 -2.1959 2.5
    endloop
  endfacet
  facet normal -0.996546 0.0830402 0
    outer loop
      vertex -5.48976 -4.39181 -2.5
      vertex -5.3852 -3.13701 2.5
      vertex -5.3852 -3.13701 -2.5
    endloop
  endfacet
  facet normal -0.996546 0.0830402 0
    outer loop
      vertex -5.48976 -4.39181 -2.5
      vertex -5.48976 -4.39181 2.5
      vertex -5.3852 -3.13701 2.5
    endloop
  endfacet
  facet normal -1 0 0
    outer loop
      vertex -5.48976 -7.31968 -2.5
      vertex -5.48976 -4.39181 2.5
      vertex -5.48976 -4.39181 -2.5
    endloop
  endfacet
  facet normal -1 0 0
    outer loop
      vertex -5.48976 -7.31968 -2.5
      vertex -5.48976 -7.31968 2.5
      vertex -5.48976 -4.39181 2.5
    endloop
  endfacet
  facet normal 0 -1 0
    outer loop
      vertex 5.17606 -7.31968 -2.5
      vertex -5.48976 -7.31968 2.5
      vertex -5.48976 -7.31968 -2.5
    endloop
  endfacet
  facet normal 0 -1 0
    outer loop
      vertex 5.17606 -7.31968 -2.5
      vertex 5.17606 -7.31968 2.5
      vertex -5.48976 -7.31968 2.5
    endloop
  endfacet
  facet normal 1 0 0
    outer loop
      vertex 5.17606 -6.27402 -2.5
      vertex 5.17606 -7.31968 2.5
      vertex 5.17606 -7.31968 -2.5
    endloop
  endfacet
  facet normal 1 0 -0
    outer loop
      vertex 5.17606 -6.27402 -2.5
      vertex 5.17606 -6.27402 2.5
      vertex 5.17606 -7.31968 2.5
    endloop
  endfacet
endsolid OpenSCAD_Model
