<?xml version="1.0" encoding="UTF-8" standalone="no"?>
<svg
   xmlns:dc="http://purl.org/dc/elements/1.1/"
   xmlns:cc="http://creativecommons.org/ns#"
   xmlns:rdf="http://www.w3.org/1999/02/22-rdf-syntax-ns#"
   xmlns:svg="http://www.w3.org/2000/svg"
   xmlns="http://www.w3.org/2000/svg"
   xmlns:sodipodi="http://sodipodi.sourceforge.net/DTD/sodipodi-0.dtd"
   xmlns:inkscape="http://www.inkscape.org/namespaces/inkscape"
   version="1.0"
   width="36.790001mm"
   height="39.32mm"
   id="svg112"
   sodipodi:docname="Vagabund.svg"
   inkscape:version="1.0.1 (3bc2e813f5, 2020-09-07)">
  <metadata
     id="metadata116">
    <rdf:RDF>
      <cc:Work
         rdf:about="">
        <dc:format>image/svg+xml</dc:format>
        <dc:type
           rdf:resource="http://purl.org/dc/dcmitype/StillImage" />
        <dc:title></dc:title>
      </cc:Work>
    </rdf:RDF>
  </metadata>
  <sodipodi:namedview
     pagecolor="#ffffff"
     bordercolor="#666666"
     borderopacity="1"
     objecttolerance="10"
     gridtolerance="10"
     guidetolerance="10"
     inkscape:pageopacity="0"
     inkscape:pageshadow="2"
     inkscape:window-width="1920"
     inkscape:window-height="1017"
     id="namedview114"
     showgrid="false"
     inkscape:zoom="5.7196296"
     inkscape:cx="34.906785"
     inkscape:cy="67.312051"
     inkscape:window-x="-8"
     inkscape:window-y="-8"
     inkscape:window-maximized="1"
     inkscape:current-layer="svg112" />
  <defs
     id="defs106">
    <pattern
       id="EMFhbasepattern"
       patternUnits="userSpaceOnUse"
       width="6"
       height="6"
       x="0"
       y="0" />
  </defs>
  <path
     style="fill:#fefefe;fill-rule:nonzero;fill-opacity:1;stroke:none;"
     d="  M 42.872441,2.0913386   L 36.598425,15.685039   L 32.415748,27.187402   L 30.324409,37.644094   L 21.959055,44.96378   L 12.548031,52.283465   L 5.2283465,60.648819   L 2.0913386,65.877165   L 3.1370079,70.059843   L 7.319685,75.288189   L 11.502362,79.470866   L 16.730709,84.699213   L 20.913386,89.927559   L 21.959055,94.110236   L 19.867717,97.247244   L 16.730709,106.65827   L 15.685039,119.2063   L 15.685039,129.66299   L 15.685039,148.48504   L 122.34331,148.48504   L 122.34331,138.02835   L 120.25197,120.25197   L 119.2063,101.42992   L 119.2063,93.064567   L 120.25197,86.790551   L 121.29764,81.562205   L 126.52598,78.425197   L 131.75433,73.19685   L 135.93701,71.105512   L 139.07402,69.014173   L 139.07402,65.877165   L 139.07402,62.740157   L 136.98268,58.55748   L 132.8,53.329134   L 125.48031,47.055118   L 119.2063,42.872441   L 113.97795,39.735433   L 110.84094,30.324409   L 108.74961,20.913386   L 105.6126,13.593701   L 102.47559,7.319685   L 100.38425,3.1370079   L 95.155906,6.2740157   L 88.88189,13.593701   L 82.607874,17.776378   L 78.425197,21.959055   L 72.151181,21.959055   L 63.785827,20.913386   L 59.60315,16.730709   L 54.374803,10.456693   L 48.100787,5.2283465   L 42.872441,2.0913386  z    M 42.872441,3.1370079   L 42.872441,3.1370079  z   "
     id="path108" />
  <path
     style="fill:none;stroke:#000000;stroke-width:2.09134px;stroke-linecap:round;stroke-linejoin:round;stroke-miterlimit:4;stroke-dasharray:none;stroke-opacity:1"
     d="m 36.598425,15.685039 -4.182677,11.502363 -2.091339,10.456692 -8.365354,7.319686 -9.411024,7.319685 -7.3196845,8.365354 -3.1370079,5.228346 1.0456693,4.182678 4.1826771,5.228346 4.182677,4.182677 5.228347,5.228347 4.182677,5.228346 1.045669,4.182677 -2.091338,3.137008 -3.137008,9.411026 -1.04567,12.54803 v 10.45669 18.82205 H 122.34331 v -10.45669 l -2.09134,-17.77638 -1.04567,-18.82205 v -8.365353 l 1.04567,-6.274016 1.04567,-5.228346 5.22834,-3.137008 5.22835,-5.228347 4.18268,-2.091338 3.13701,-2.091339 V 65.877165 62.740157 L 136.98268,58.55748 132.8,53.329134 l -7.31969,-6.274016 -6.27401,-4.182677 -5.22835,-3.137008 -3.13701,-9.411024 -2.09133,-9.411023 -3.13701,-7.319685 -3.13701,-6.274016 -2.09134,-4.1826771 -5.228344,3.1370078 -6.274016,7.3196853 -6.274016,4.182677 -4.182677,4.182677 H 72.151181 L 63.785827,20.913386 59.60315,16.730709 54.374803,10.456693 42.872441,2.0913386 Z"
     id="path110"
     sodipodi:nodetypes="ccccccccccccccccccccccccccccccccccccccccccccccccccc" />
</svg>
