<?xml version="1.0" encoding="UTF-8" standalone="no"?><!DOCTYPE svg PUBLIC "-//W3C//DTD SVG 1.1//EN" "http://www.w3.org/Graphics/SVG/1.1/DTD/svg11.dtd"><svg width="100%" height="100%" viewBox="0 0 325 152" version="1.1" xmlns="http://www.w3.org/2000/svg" xmlns:xlink="http://www.w3.org/1999/xlink" xml:space="preserve" xmlns:serif="http://www.serif.com/" style="fill-rule:evenodd;clip-rule:evenodd;stroke-linecap:round;stroke-linejoin:round;"><g id="Neue_Ebene_2"><path id="STROKE_5040dc30-82e8-41f0-9a0d-33f82a931a51" d="M89.45,111.567c0.26,-0.349 0.549,-0.712 0.868,-1.091c0.505,-0.6 0.785,-0.924 0.84,-0.971c0.056,-0.047 0.295,-0.323 0.717,-0.827c0.423,-0.505 0.743,-0.934 0.96,-1.287c0.218,-0.353 0.552,-0.944 1.002,-1.775c0.449,-0.83 1.044,-2.108 1.783,-3.833c0.74,-1.725 1.137,-2.68 1.191,-2.865c0.054,-0.185 0.246,-0.813 0.576,-1.882c0.33,-1.069 0.621,-2.061 0.873,-2.977c0.252,-0.916 0.471,-1.871 0.657,-2.866c0.187,-0.994 0.396,-2.368 0.628,-4.123c0.231,-1.755 0.457,-3.666 0.678,-5.735c0.221,-2.069 0.358,-3.661 0.413,-4.776c0.054,-1.115 0.171,-2.589 0.351,-4.422c0.181,-1.833 0.394,-3.742 0.64,-5.729c0.247,-1.987 0.645,-4.751 1.194,-8.294c0.55,-3.543 0.985,-6.093 1.304,-7.648c0.32,-1.556 0.972,-3.974 1.956,-7.253c0.984,-3.279 1.812,-5.672 2.483,-7.177c0.671,-1.505 1.644,-3.382 2.919,-5.63c1.275,-2.247 2.496,-4.073 3.663,-5.477c1.167,-1.404 2.138,-2.424 2.912,-3.061c0.775,-0.636 1.332,-1.058 1.671,-1.266c0.34,-0.208 1.019,-0.54 2.037,-0.995c1.018,-0.455 2.472,-0.88 4.362,-1.274c1.889,-0.394 4.118,-0.691 6.687,-0.89c2.568,-0.199 5.912,-0.417 10.033,-0.654c4.12,-0.237 7.759,-0.297 10.916,-0.18c3.158,0.117 4.75,0.182 4.776,0.195c0.026,0.013 0.423,0.113 1.192,0.3c0.769,0.187 1.521,0.435 2.256,0.743c0.735,0.308 1.187,0.504 1.357,0.588c0.171,0.085 0.437,0.256 0.798,0.515c0.362,0.259 0.75,0.643 1.164,1.152c0.413,0.51 0.71,0.965 0.891,1.364c0.181,0.4 0.375,0.955 0.582,1.664c0.208,0.709 0.375,1.366 0.501,1.969c0.126,0.603 0.217,1.229 0.274,1.878c0.057,0.649 0.099,1.295 0.128,1.939c0.029,0.644 0.024,1.744 -0.015,3.299c-0.039,1.555 -0.157,3.896 -0.355,7.021c-0.198,3.126 -0.166,5.882 0.095,8.268c0.261,2.387 0.514,4.016 0.759,4.888c0.245,0.872 0.584,1.924 1.017,3.155c0.433,1.231 0.84,2.761 1.222,4.588c0.383,1.827 0.665,3.609 0.848,5.347c0.183,1.737 0.333,3.511 0.45,5.32c0.117,1.81 0.464,3.992 1.039,6.547c0.576,2.555 1.006,4.024 1.291,4.407c0.285,0.382 0.539,0.625 0.763,0.728c0.225,0.103 0.46,0.175 0.705,0.218c0.245,0.042 0.597,0.068 1.054,0.078c0.457,0.01 0.834,-0.007 1.129,-0.05c0.295,-0.043 0.544,-0.104 0.747,-0.182c0.203,-0.078 0.444,-0.222 0.725,-0.433c0.281,-0.21 0.644,-0.527 1.091,-0.951c0.447,-0.423 1.098,-1.243 1.954,-2.46c0.855,-1.217 1.315,-1.893 1.379,-2.03c0.063,-0.136 0.227,-0.484 0.491,-1.044c0.263,-0.56 0.773,-1.816 1.53,-3.769c0.756,-1.953 1.327,-3.573 1.712,-4.86c0.385,-1.287 0.683,-2.528 0.894,-3.725c0.211,-1.197 0.467,-2.944 0.767,-5.241c0.299,-2.297 0.449,-4.592 0.448,-6.885c-0.001,-2.293 -0.091,-4.321 -0.27,-6.083c-0.18,-1.761 -0.289,-3.054 -0.328,-3.879c-0.039,-0.824 -0.005,-1.98 0.1,-3.467c0.106,-1.487 0.277,-3.444 0.514,-5.869c0.237,-2.425 0.514,-4.47 0.83,-6.135c0.317,-1.665 0.673,-2.951 1.068,-3.856c0.791,-1.81 1.27,-2.806 1.437,-2.987c0.167,-0.181 0.372,-0.412 0.616,-0.692c0.244,-0.281 0.498,-0.532 0.762,-0.754c0.264,-0.221 0.57,-0.507 0.918,-0.856c0.347,-0.349 0.995,-0.902 1.943,-1.659c0.947,-0.757 2.044,-1.487 3.29,-2.19c1.245,-0.703 2.714,-1.287 4.406,-1.754c1.691,-0.467 2.944,-0.762 3.757,-0.884c0.813,-0.123 1.793,-0.184 2.94,-0.184c1.146,-0.001 2.111,0.104 2.894,0.315c0.784,0.211 1.614,0.471 2.49,0.781c0.876,0.31 1.666,0.649 2.371,1.018c0.704,0.369 1.196,0.663 1.476,0.882c0.279,0.219 0.583,0.531 0.911,0.935c0.329,0.403 0.75,1.03 1.263,1.881c0.514,0.851 0.781,1.343 0.802,1.477c0.021,0.134 0.082,0.409 0.182,0.825c0.099,0.417 0.181,1.228 0.245,2.433c0.064,1.205 0.069,2.276 0.015,3.214c-0.055,0.939 -0.138,2.056 -0.249,3.352c-0.112,1.296 -0.27,2.466 -0.475,3.51c-0.205,1.044 -0.365,1.795 -0.48,2.252c-0.115,0.458 -0.29,1.2 -0.523,2.226c-0.233,1.025 -0.419,1.963 -0.558,2.813c-0.139,0.849 -0.281,1.832 -0.426,2.949c-0.145,1.117 -0.345,2.788 -0.602,5.015c-0.257,2.227 -0.417,4.397 -0.479,6.509c-0.061,2.112 -0.108,4.992 -0.141,8.641c-0.033,3.648 -0.033,5.801 -0,6.459c0.033,0.658 0.053,1.03 0.062,1.115c0.009,0.085 0.027,0.468 0.055,1.147c0.029,0.679 0.03,1.252 0.004,1.719c-0.025,0.467 -0.062,1.105 -0.109,1.914c-0.047,0.81 -0.163,1.831 -0.348,3.064c-0.185,1.233 -0.338,2.123 -0.457,2.67c-0.119,0.546 -0.26,1.125 -0.422,1.736c-0.162,0.611 -0.378,1.414 -0.649,2.408c-0.27,0.993 -0.427,1.633 -0.472,1.92c-0.045,0.286 -0.145,0.856 -0.3,1.71c-0.155,0.853 -0.358,1.919 -0.608,3.196c-0.249,1.277 -0.448,2.333 -0.596,3.166c-0.148,0.833 -0.26,1.743 -0.335,2.732c-0.075,0.989 -0.034,2 0.121,3.034c0.156,1.034 0.379,1.964 0.669,2.791c0.29,0.827 0.538,1.461 0.743,1.9c0.205,0.439 0.442,0.843 0.711,1.214c0.269,0.37 0.581,0.645 0.938,0.825c0.357,0.18 0.749,0.352 1.178,0.516c0.428,0.164 0.933,0.283 1.516,0.356c0.583,0.073 1.187,0.119 1.812,0.139c0.624,0.019 1.313,0.033 2.066,0.042c0.753,0.009 1.572,-0.076 2.458,-0.253c0.886,-0.177 2.571,-0.608 5.054,-1.292c2.484,-0.683 4.324,-1.239 5.521,-1.668c1.197,-0.429 2.144,-0.785 2.84,-1.068c0.695,-0.283 1.201,-0.48 1.517,-0.591c0.316,-0.11 1.206,-0.515 2.671,-1.216c1.464,-0.701 2.556,-1.269 3.277,-1.705c0.721,-0.435 1.495,-0.92 2.321,-1.453c0.827,-0.533 1.548,-1.042 2.165,-1.526c0.617,-0.483 1.074,-0.868 1.373,-1.155c0.298,-0.287 0.875,-0.916 1.73,-1.889c0.855,-0.972 1.35,-1.564 1.485,-1.776c0.135,-0.213 0.478,-0.85 1.027,-1.912c0.549,-1.063 0.939,-1.941 1.169,-2.635c0.23,-0.694 0.423,-1.418 0.58,-2.173c0.156,-0.755 0.345,-1.753 0.566,-2.996c0.222,-1.243 0.353,-1.948 0.393,-2.117c0.039,-0.169 0.106,-0.773 0.201,-1.812c0.095,-1.039 0.147,-2.244 0.158,-3.614c0.011,-1.371 0.051,-3.672 0.121,-6.904c0.071,-3.232 0.199,-6.11 0.386,-8.634c0.187,-2.523 0.333,-4.764 0.439,-6.723c0.106,-1.959 0.175,-4.077 0.206,-6.352c0.032,-2.276 -0.023,-4.5 -0.164,-6.671c-0.141,-2.172 -0.347,-4.275 -0.618,-6.309c-0.655,-4.147 -1.062,-7.745 -1.222,-10.793c-0.16,-3.048 -0.087,-5.164 0.219,-6.347c0.305,-1.183 0.948,-2.44 1.928,-3.773c0.979,-1.333 1.777,-2.173 2.392,-2.521c0.616,-0.347 1.514,-0.701 2.693,-1.061c1.18,-0.36 2.48,-0.581 3.9,-0.663c1.421,-0.082 3.526,-0.019 6.316,0.19c2.791,0.209 5.235,0.496 7.332,0.859c2.097,0.363 3.18,0.574 3.248,0.633c0.067,0.059 0.831,0.48 2.29,1.262c1.071,1.679 1.748,3.307 2.031,4.882c0.283,1.575 0.422,3.093 0.416,4.555c-0.005,1.463 -0.116,2.82 -0.332,4.071c-0.216,1.251 -0.562,3.109 -1.037,5.573c-0.476,2.464 -0.79,4.608 -0.943,6.432c-0.153,1.823 -0.299,3.569 -0.44,5.238c-0.141,1.669 -0.301,4.043 -0.479,7.124c-0.178,3.08 -0.324,5.851 -0.437,8.314c-0.114,2.463 -0.226,5.13 -0.335,8.001c-0.109,2.871 -0.206,5.368 -0.289,7.489c-0.084,2.121 -0.156,3.865 -0.216,5.232c-0.098,2.79 -0.188,5.448 -0.27,7.975c-0.082,2.527 -0.052,5.364 0.09,8.511c0.142,3.147 0.276,5.146 0.402,5.995c0.126,0.849 0.243,1.473 0.351,1.872c0.107,0.399 0.247,0.734 0.419,1.007c0.242,0.166 0.486,0.31 0.732,0.432c0.245,0.123 0.666,0.29 1.262,0.501c0.595,0.212 1.285,0.416 2.069,0.613c0.784,0.196 2.032,0.265 3.745,0.208c1.713,-0.057 3.417,-0.269 5.112,-0.636c1.695,-0.366 3.347,-0.658 4.954,-0.877c1.607,-0.219 2.75,-0.309 3.43,-0.27c0.68,0.039 1.194,0.099 1.541,0.181c0.347,0.082 0.779,0.233 1.296,0.454c0.517,0.221 0.8,0.343 0.848,0.367c0.048,0.023 0.208,0.105 0.481,0.245c0.272,0.14 0.524,0.28 0.757,0.419c0.232,0.139 0.366,0.255 0.403,0.35c0.401,1.511 0.6,3.324 0.596,5.441c-0.004,2.116 -0.163,3.824 -0.478,5.123c-0.315,1.299 -0.698,2.436 -1.147,3.411c-0.449,0.975 -0.775,1.653 -0.977,2.032c-0.202,0.379 -0.461,0.88 -0.776,1.502l-0.615,0.817c-0.741,0.657 -1.416,1.137 -2.024,1.44c-0.608,0.303 -1.627,0.688 -3.056,1.157c-1.43,0.468 -2.984,0.879 -4.661,1.233c-1.677,0.354 -3.759,0.724 -6.245,1.109c-2.487,0.386 -4.544,0.687 -6.171,0.903c-1.628,0.216 -3.907,0.409 -6.838,0.578c-2.931,0.169 -4.751,0.264 -5.461,0.285c-0.71,0.021 -1.553,0.021 -2.528,0.002c-0.975,-0.019 -2.274,-0.126 -3.897,-0.322c-1.623,-0.195 -3.303,-0.553 -5.04,-1.074c-1.737,-0.521 -2.982,-0.99 -3.733,-1.409c-0.751,-0.419 -1.292,-0.804 -1.622,-1.153c-0.329,-0.349 -0.696,-0.804 -1.101,-1.367c-0.405,-0.563 -0.67,-1.051 -0.796,-1.464c-0.125,-0.413 -0.189,-0.929 -0.19,-1.546c-0.001,-0.617 0.083,-1.396 0.25,-2.337c0.168,-0.941 0.403,-1.92 0.705,-2.937c0.303,-1.016 0.687,-2.179 1.153,-3.49c0.466,-1.311 0.836,-2.475 1.109,-3.494c0.273,-1.019 0.404,-2.009 0.391,-2.97c-0.013,-0.961 -0.055,-1.468 -0.126,-1.523c-0.305,-0.059 -0.584,-0.061 -0.838,-0.004c-0.254,0.056 -0.487,0.122 -0.698,0.198c-0.211,0.075 -0.533,0.187 -0.965,0.334c-0.431,0.148 -0.741,0.282 -0.928,0.403c-0.188,0.121 -0.705,0.541 -1.55,1.26c-0.845,0.719 -1.542,1.319 -2.09,1.8c-0.549,0.481 -1.329,1.174 -2.341,2.079c-1.012,0.905 -2.152,1.982 -3.42,3.232c-1.269,1.25 -1.98,1.941 -2.133,2.072c-0.153,0.131 -0.593,0.521 -1.319,1.169c-0.727,0.648 -1.207,1.097 -1.44,1.347c-0.233,0.25 -0.663,0.743 -1.288,1.48c-0.625,0.737 -1.354,1.608 -2.186,2.614c-0.831,1.005 -1.496,1.764 -1.994,2.276c-0.498,0.513 -1.092,1.124 -1.782,1.833c-0.69,0.709 -1.266,1.304 -1.727,1.785c-0.462,0.48 -0.747,0.743 -0.856,0.788c-1.319,0.64 -2.206,1.069 -2.66,1.286c-0.453,0.218 -1.002,0.435 -1.645,0.651l-1.033,0.137c-3.96,0.873 -6.945,1.345 -8.954,1.416c-2.009,0.071 -3.556,0.121 -4.642,0.148c-1.087,0.027 -2.358,0.015 -3.813,-0.037c-1.456,-0.052 -2.852,-0.182 -4.189,-0.389c-1.337,-0.207 -2.693,-0.432 -4.067,-0.673c-1.373,-0.241 -2.626,-0.429 -3.758,-0.562c-1.132,-0.133 -2.69,-0.424 -4.675,-0.875c-1.985,-0.451 -3.099,-0.732 -3.343,-0.841c-0.244,-0.109 -0.785,-0.359 -1.624,-0.749c-0.839,-0.39 -1.791,-1.006 -2.856,-1.848c-1.065,-0.842 -1.62,-1.304 -1.667,-1.385c-0.657,-3.001 -0.957,-5.718 -0.9,-8.15c0.057,-2.432 0.196,-4.545 0.415,-6.34c0.219,-1.795 0.375,-3.145 0.468,-4.05c0.093,-0.906 0.14,-1.582 0.142,-2.028c0.002,-0.447 -0.155,-1.818 -0.472,-4.115l-0.468,-0.948c-2.013,-0.641 -3.406,-0.984 -4.178,-1.027c-0.771,-0.043 -1.797,0.069 -3.078,0.336c-1.28,0.267 -2.011,0.435 -2.193,0.502c-0.182,0.067 -0.395,0.166 -0.64,0.297c-0.245,0.13 -0.467,0.267 -0.667,0.41c-0.2,0.143 -0.551,0.466 -1.054,0.969c-0.502,0.503 -0.81,0.855 -0.924,1.056c-0.114,0.201 -0.245,0.486 -0.392,0.855c-0.147,0.369 -0.354,0.91 -0.623,1.623c-0.269,0.713 -0.62,1.985 -1.055,3.815c-0.435,1.83 -0.863,3.734 -1.285,5.712c-0.422,1.977 -0.813,3.462 -1.174,4.453c-0.361,0.991 -0.97,2.483 -1.828,4.475c-0.858,1.992 -1.731,3.803 -2.619,5.432c-0.887,1.629 -1.806,2.935 -2.756,3.918c-0.949,0.983 -1.609,1.562 -1.978,1.737c-0.369,0.175 -0.836,0.356 -1.403,0.545c-0.566,0.188 -0.98,0.282 -1.243,0.282c-0.262,0.001 -0.71,-0.132 -1.344,-0.399c-0.633,-0.266 -1.18,-0.544 -1.639,-0.833c-0.459,-0.289 -1.027,-0.796 -1.704,-1.519c-0.676,-0.723 -1.243,-1.439 -1.7,-2.148c-0.457,-0.708 -0.878,-1.453 -1.263,-2.235c-0.385,-0.783 -1.091,-2.484 -2.118,-5.103c-1.027,-2.619 -1.961,-4.871 -2.8,-6.755c-0.839,-1.884 -1.359,-3.036 -1.559,-3.457c-0.2,-0.421 -0.832,-1.491 -1.897,-3.211c-1.065,-1.721 -1.751,-2.709 -2.056,-2.965c-0.306,-0.257 -0.783,-0.555 -1.432,-0.894c-0.648,-0.339 -1.498,-0.602 -2.549,-0.788c-1.051,-0.187 -1.866,-0.24 -2.445,-0.161c-0.579,0.079 -1.089,0.195 -1.532,0.346c-0.442,0.151 -1.007,0.412 -1.696,0.781c-0.688,0.369 -1.694,1.642 -3.019,3.818c-1.324,2.176 -2.286,3.931 -2.887,5.266c-0.601,1.335 -1.359,2.978 -2.276,4.93c-0.917,1.952 -1.936,3.999 -3.057,6.14c-1.121,2.141 -1.836,3.451 -2.144,3.928c-0.308,0.477 -0.808,1.184 -1.501,2.119c-0.693,0.935 -1.318,1.622 -1.876,2.062c-0.558,0.44 -0.961,0.728 -1.208,0.864c-0.247,0.136 -0.707,0.338 -1.378,0.605c-0.671,0.267 -1.48,0.46 -2.426,0.579c-0.946,0.119 -1.71,0.124 -2.293,0.015c-0.583,-0.109 -1.057,-0.23 -1.422,-0.364c-0.365,-0.134 -1.197,-0.697 -2.494,-1.688c-1.297,-0.992 -1.978,-1.524 -2.042,-1.595c-0.063,-0.071 -0.192,-0.187 -0.387,-0.347c-0.195,-0.16 -0.317,-0.255 -0.367,-0.286c-0.05,-0.03 -0.11,-0.075 -0.181,-0.135c-0.071,-0.059 -0.17,-0.156 -0.296,-0.289c-0.126,-0.133 -0.358,-0.419 -0.696,-0.86c-0.337,-0.441 -0.552,-0.742 -0.645,-0.904c-0.092,-0.162 -0.223,-0.364 -0.393,-0.607c-0.169,-0.243 -0.389,-0.541 -0.66,-0.892c-0.27,-0.351 -0.557,-0.753 -0.862,-1.205c-0.305,-0.451 -0.598,-0.844 -0.878,-1.179c-0.28,-0.334 -0.668,-0.678 -1.164,-1.032c-0.496,-0.354 -0.877,-0.565 -1.144,-0.632c-0.267,-0.067 -0.685,-0.122 -1.254,-0.165c-0.569,-0.043 -1.314,0.052 -2.235,0.283c-0.921,0.231 -1.825,0.598 -2.713,1.102c-0.889,0.505 -1.683,1.023 -2.384,1.556c-0.701,0.533 -1.641,1.275 -2.818,2.224c-1.178,0.949 -2.345,1.841 -3.5,2.675c-1.155,0.834 -2.276,1.626 -3.362,2.376c-1.085,0.75 -2.129,1.384 -3.131,1.901c-1.001,0.517 -2.365,1.083 -4.09,1.697c-1.725,0.614 -3.184,1.046 -4.378,1.297c-1.194,0.251 -2,0.39 -2.419,0.416c-0.419,0.027 -0.944,0.023 -1.573,-0.011c-0.629,-0.034 -1.382,-0.161 -2.261,-0.38c-0.878,-0.219 -1.505,-0.434 -1.882,-0.643c-0.376,-0.21 -0.857,-0.564 -1.442,-1.062c-0.586,-0.499 -0.992,-0.895 -1.219,-1.189c-0.226,-0.295 -0.46,-0.751 -0.703,-1.369c-0.242,-0.617 -0.436,-1.588 -0.582,-2.912c-0.145,-1.323 -0.102,-3.349 0.129,-6.076c0.232,-2.728 0.432,-4.682 0.601,-5.862c0.168,-1.181 0.339,-2.627 0.514,-4.34c0.175,-1.713 0.288,-3.658 0.339,-5.837c0.051,-2.178 0.051,-3.816 -0,-4.915c-0.051,-1.099 -0.135,-2.001 -0.25,-2.706c-0.115,-0.706 -0.367,-1.566 -0.755,-2.579c-0.387,-1.014 -0.602,-1.537 -0.645,-1.569c-0.043,-0.033 -0.17,-0.187 -0.379,-0.462c-0.21,-0.276 -0.465,-0.535 -0.764,-0.776c-0.299,-0.242 -0.579,-0.432 -0.84,-0.57c-0.26,-0.139 -0.55,-0.258 -0.869,-0.358c-0.319,-0.1 -0.967,-0.146 -1.942,-0.139c-0.975,0.007 -1.746,0.124 -2.313,0.35c-0.567,0.226 -0.922,0.389 -1.064,0.49c-0.143,0.101 -0.309,0.284 -0.498,0.551c-0.189,0.266 -0.42,0.681 -0.692,1.244c-0.273,0.563 -0.546,1.28 -0.82,2.152c-0.275,0.871 -0.433,1.419 -0.474,1.644c-0.042,0.225 -0.095,0.663 -0.158,1.312c-0.063,0.65 -0.119,1.461 -0.166,2.434c-0.047,0.973 -0.124,2.17 -0.23,3.591c-0.105,1.421 -0.194,2.538 -0.267,3.35c-0.072,0.812 -0.148,1.534 -0.229,2.166c-0.081,0.633 -0.207,1.713 -0.38,3.24c-0.173,1.527 -0.508,3.675 -1.007,6.443c-0.499,2.768 -1.091,5.054 -1.776,6.858c-0.685,1.803 -1.858,3.9 -3.519,6.291c-1.661,2.39 -2.971,3.901 -3.929,4.534c-0.958,0.633 -2.277,1.196 -3.958,1.687c-1.681,0.492 -3.108,0.793 -4.283,0.902c-1.174,0.109 -1.963,0.143 -2.368,0.103c-0.405,-0.041 -1.009,-0.168 -1.812,-0.383c-0.803,-0.215 -1.57,-0.498 -2.301,-0.847c-0.732,-0.35 -1.422,-0.776 -2.071,-1.278c-0.648,-0.502 -1.126,-1.04 -1.433,-1.614c-0.307,-0.573 -0.668,-1.422 -1.084,-2.547c-0.416,-1.125 -0.732,-2.409 -0.948,-3.852c-0.215,-1.443 -0.358,-2.905 -0.428,-4.386c-0.07,-1.481 -0.053,-3.424 0.05,-5.828c0.103,-2.404 0.445,-5.685 1.025,-9.842c0.58,-4.158 1.204,-7.691 1.872,-10.598c0.669,-2.907 1.11,-4.985 1.324,-6.234c0.214,-1.249 0.437,-2.633 0.668,-4.154c0.232,-1.521 0.497,-3.199 0.796,-5.036c0.299,-1.836 0.576,-4.273 0.831,-7.311c0.255,-3.038 0.391,-5.367 0.407,-6.987c0.016,-1.62 0.021,-3.172 0.014,-4.655c-0.007,-1.483 -0.066,-3.316 -0.178,-5.497c-0.111,-2.182 -0.401,-5.034 -0.87,-8.555c-0.469,-3.521 -0.963,-6.459 -1.483,-8.812c-0.52,-2.354 -0.894,-4.347 -1.122,-5.98c-0.228,-1.632 -0.407,-3.505 -0.536,-5.618c-0.129,-2.113 -0.186,-3.697 -0.169,-4.752c0.017,-1.055 0.143,-2.251 0.378,-3.588c0.235,-1.337 0.516,-2.452 0.843,-3.347c0.327,-0.895 0.664,-1.636 1.011,-2.223c0.347,-0.587 0.709,-1.093 1.084,-1.516c0.375,-0.424 0.996,-0.964 1.861,-1.619c0.866,-0.656 2.216,-1.387 4.051,-2.194c1.834,-0.807 3.228,-1.344 4.183,-1.61c0.954,-0.267 2.36,-0.506 4.218,-0.719c1.857,-0.213 3.643,-0.242 5.358,-0.085c1.715,0.156 3.467,0.577 5.256,1.263c1.789,0.686 2.829,1.153 3.12,1.401c0.291,0.248 0.602,0.579 0.932,0.994c0.329,0.414 0.572,0.755 0.728,1.023c0.156,0.268 0.303,0.516 0.44,0.743c0.137,0.227 0.325,0.682 0.564,1.365c0.239,0.683 0.424,1.433 0.556,2.248c0.132,0.815 0.187,2.28 0.164,4.394c-0.023,2.114 -0.178,4.028 -0.466,5.741c-0.288,1.714 -0.637,3.578 -1.047,5.593c-0.41,2.015 -0.763,3.811 -1.059,5.389c-0.297,1.577 -0.532,2.693 -0.705,3.346c-0.174,0.653 -0.452,2.06 -0.833,4.222c-0.381,2.161 -0.593,3.661 -0.636,4.5c-0.043,0.838 -0.015,1.665 0.083,2.481c0.098,0.816 0.169,1.262 0.212,1.338c0.043,0.076 0.141,0.267 0.292,0.573c0.151,0.306 0.334,0.577 0.547,0.814c0.213,0.237 0.435,0.47 0.664,0.699c0.23,0.228 0.509,0.482 0.836,0.761c0.327,0.28 0.639,0.499 0.935,0.658c0.295,0.16 0.621,0.285 0.976,0.376c0.356,0.091 0.988,0.124 1.897,0.097c0.908,-0.027 1.621,-0.085 2.14,-0.175c0.519,-0.091 0.967,-0.225 1.342,-0.403c0.375,-0.178 0.804,-0.498 1.285,-0.96c0.481,-0.462 0.997,-1.152 1.549,-2.07c0.552,-0.918 1.053,-2.049 1.504,-3.393c0.451,-1.345 0.789,-2.841 1.014,-4.488c0.226,-1.647 0.347,-2.709 0.363,-3.184c0.016,-0.475 0.022,-1.146 0.019,-2.012c-0.003,-0.866 0.004,-2.016 0.021,-3.45c0.017,-1.434 0.009,-3.44 -0.026,-6.019c-0.035,-2.579 -0.029,-4.454 0.017,-5.625c0.046,-1.171 0.274,-2.903 0.684,-5.195c0.409,-2.292 0.647,-3.491 0.714,-3.598c0.067,-0.107 0.216,-0.443 0.446,-1.009c0.231,-0.565 0.514,-1.138 0.85,-1.719c0.336,-0.58 0.871,-1.29 1.605,-2.13c0.734,-0.84 1.455,-1.553 2.163,-2.138c0.708,-0.585 1.332,-1.017 1.871,-1.298c0.539,-0.28 1.092,-0.508 1.659,-0.684c0.566,-0.176 1.432,-0.372 2.597,-0.588c1.165,-0.217 2.221,-0.356 3.166,-0.419c0.945,-0.062 1.895,-0.055 2.85,0.02c0.954,0.076 1.711,0.185 2.272,0.326c0.56,0.142 1.299,0.358 2.218,0.649c0.918,0.291 1.773,0.58 2.565,0.865c0.792,0.285 1.355,0.534 1.688,0.747c0.333,0.213 0.826,0.556 1.478,1.03c0.652,0.475 1.117,0.859 1.395,1.152c0.277,0.294 0.787,0.892 1.528,1.793c0.741,0.901 1.169,1.46 1.284,1.675c0.115,0.216 0.244,0.522 0.387,0.919c0.144,0.396 0.254,0.752 0.33,1.069c0.077,0.317 0.224,1.207 0.443,2.67c0.219,1.464 0.334,2.397 0.343,2.8c0.009,0.403 -0.007,0.943 -0.05,1.621c-0.043,0.677 -0.145,1.717 -0.306,3.119c-0.161,1.402 -0.278,2.407 -0.349,3.015c-0.071,0.608 -0.164,1.26 -0.277,1.955c-0.114,0.695 -0.272,1.52 -0.473,2.474c-0.202,0.955 -0.41,2.043 -0.623,3.264c-0.213,1.221 -0.452,2.722 -0.717,4.504c-0.264,1.782 -0.533,3.562 -0.807,5.339c-0.273,1.778 -0.458,3.134 -0.555,4.068c-0.096,0.934 -0.285,2.46 -0.568,4.578c-0.282,2.118 -0.504,3.618 -0.667,4.501c-0.163,0.883 -0.336,1.893 -0.519,3.03c-0.182,1.136 -0.434,2.559 -0.757,4.269c-0.322,1.709 -0.63,3.082 -0.923,4.117c-0.293,1.035 -0.638,2.37 -1.035,4.006c-0.397,1.637 -0.731,3.175 -1.004,4.615c-0.273,1.441 -0.568,2.968 -0.886,4.583c-0.318,1.615 -0.535,3.034 -0.65,4.256c-0.115,1.223 -0.137,2.783 -0.067,4.68c0.07,1.897 0.123,2.964 0.158,3.2c0.035,0.236 0.275,0.995 0.722,2.276c0.447,1.281 0.86,2.295 1.239,3.042c0.379,0.748 0.677,1.238 0.895,1.469c0.218,0.232 0.564,0.488 1.038,0.767c0.473,0.279 0.886,0.51 1.239,0.693c0.353,0.183 0.598,0.293 0.735,0.332c0.137,0.039 0.349,0.071 0.634,0.096c0.286,0.025 0.552,0.029 0.797,0.011c0.246,-0.018 0.469,-0.044 0.668,-0.079c0.2,-0.035 0.543,-0.108 1.028,-0.221l1.569,-0.395Zm50.7,-63.651c-0.024,0.006 -0.26,-0.13 -0.708,-0.41c-0.075,-0.006 -0.307,-0.016 -0.695,-0.028c-0.388,-0.012 -0.709,-0.006 -0.961,0.02c-0.252,0.025 -0.474,0.089 -0.666,0.193c-0.192,0.103 -0.403,0.293 -0.633,0.571c-0.229,0.277 -0.459,0.595 -0.691,0.954c-0.231,0.358 -0.493,0.907 -0.787,1.646c-0.292,0.738 -0.53,1.668 -0.714,2.792c-0.182,1.122 -0.3,2.428 -0.352,3.917c-0.051,1.488 -0.089,2.754 -0.114,3.799c-0.024,1.044 -0.048,2.011 -0.074,2.902c-0.025,0.89 -0.087,1.775 -0.185,2.654c-0.098,0.879 -0.151,1.364 -0.159,1.455c-0.008,0.09 -0.086,0.501 -0.236,1.233c-0.15,0.731 -0.308,1.37 -0.476,1.916c-0.167,0.545 -0.291,0.928 -0.373,1.148c-0.08,0.22 -0.251,0.644 -0.512,1.273c-0.26,0.628 -0.783,2.287 -1.571,4.975c0.007,0.075 0.129,0.265 0.366,0.57c0.238,0.305 0.602,0.633 1.091,0.983c0.49,0.35 0.832,0.56 1.028,0.632c0.196,0.071 0.761,0.205 1.695,0.402c0.934,0.196 1.729,0.34 2.384,0.432c0.656,0.092 1.426,0.119 2.31,0.081c0.885,-0.038 1.682,-0.093 2.39,-0.163c0.709,-0.07 1.298,-0.143 1.768,-0.219c0.47,-0.076 0.986,-0.215 1.546,-0.417c0.56,-0.202 0.93,-0.338 1.109,-0.406c0.18,-0.068 0.497,-0.197 0.951,-0.387c0.456,-0.19 0.73,-0.321 0.823,-0.393c0.094,-0.073 0.256,-0.2 0.488,-0.382c0.233,-0.182 0.582,-0.475 1.047,-0.878l0.619,-1.614c0.098,-0.414 0.124,-1.123 0.079,-2.128c-0.044,-1.006 -0.175,-1.882 -0.391,-2.63c-0.216,-0.749 -0.444,-1.342 -0.686,-1.778c-0.241,-0.438 -0.458,-0.806 -0.651,-1.106c-0.192,-0.3 -0.395,-0.611 -0.609,-0.933c-0.213,-0.322 -0.423,-0.662 -0.631,-1.02c-0.207,-0.359 -0.393,-0.718 -0.559,-1.077c-0.164,-0.36 -0.266,-0.997 -0.305,-1.912c-0.038,-0.916 0.008,-1.75 0.139,-2.503c0.132,-0.754 0.438,-1.905 0.919,-3.453c0.482,-1.549 0.757,-2.486 0.825,-2.812c0.068,-0.327 0.119,-0.924 0.155,-1.79c0.036,-0.867 0.041,-1.493 0.014,-1.879c-0.026,-0.386 -0.106,-0.836 -0.241,-1.351c-0.135,-0.516 -0.227,-0.819 -0.275,-0.908c-0.047,-0.089 -0.271,-0.336 -0.673,-0.74c-0.401,-0.404 -0.762,-0.693 -1.084,-0.865c-0.322,-0.173 -0.58,-0.28 -0.776,-0.32c-0.195,-0.042 -0.477,-0.071 -0.847,-0.088c-0.37,-0.018 -1.479,0.161 -3.329,0.536l-0.782,-0.494Z" style="fill:#ff5f00;fill-rule:nonzero;stroke:#149265;stroke-width:5.1px;"/></g></svg>