<?xml version="1.0" encoding="UTF-8" standalone="no"?>
<!DOCTYPE svg PUBLIC "-//W3C//DTD SVG 1.1//EN" "http://www.w3.org/Graphics/SVG/1.1/DTD/svg11.dtd">
<svg width="100%" height="100%" viewBox="0 0 1330 953" version="1.1" xmlns="http://www.w3.org/2000/svg" xmlns:xlink="http://www.w3.org/1999/xlink" xml:space="preserve" xmlns:serif="http://www.serif.com/" style="fill-rule:evenodd;clip-rule:evenodd;stroke-linecap:round;stroke-linejoin:round;">
    <g id="Neue_Ebene_1">
        <path id="STROKE_df9b7951-ab35-420a-bc40-cf7d66527de8" d="M713.176,552.507L715.728,550.059L717.148,536.111L717.517,532.757L717.681,529.687C717.592,528.248 717.428,526.612 717.187,524.779C716.947,522.945 716.629,520.516 716.233,517.492C715.839,514.467 715.563,511.977 715.407,510.023C715.249,508.067 715.145,506.956 715.095,506.691C715.044,506.425 715.066,505.118 715.161,502.769C715.256,500.42 715.321,497.67 715.355,494.519C715.388,491.368 715.423,489.572 715.459,489.128C715.493,488.684 715.497,488.402 715.471,488.28C715.445,488.158 715.416,487.96 715.385,487.687C715.355,487.413 715.321,486.965 715.284,486.343C715.247,485.721 715.225,484.944 715.219,484.011C715.212,483.078 715.22,481.959 715.244,480.653C715.268,479.348 715.332,477.724 715.437,475.781C715.541,473.838 715.697,471.595 715.905,469.051C716.114,466.507 716.297,464.196 716.453,462.12C716.61,460.044 716.76,457.867 716.903,455.589C717.046,453.312 717.114,451.658 717.108,450.628C717.102,449.597 717.054,448.598 716.964,447.632C716.874,446.666 716.815,445.932 716.787,445.429C716.758,444.927 716.743,444.42 716.74,443.908C716.736,443.396 716.768,442.516 716.836,441.267C716.903,440.018 716.964,438.991 717.02,438.185C717.076,437.38 717.141,436.258 717.216,434.82C717.291,433.381 717.349,431.891 717.392,430.349C717.436,428.809 717.492,427.534 717.563,426.525C717.634,425.516 717.784,424.353 718.013,423.035C718.243,421.716 718.406,420.572 718.503,419.6C718.599,418.628 718.768,417.351 719.011,415.767C719.254,414.183 719.864,411.766 720.839,408.517C721.814,405.268 722.595,403.067 723.181,401.912C723.767,400.757 724.412,399.66 725.115,398.619C725.818,397.579 726.488,396.693 727.127,395.961C727.765,395.23 728.324,394.639 728.803,394.188C729.283,393.736 730.17,393.055 731.464,392.144C732.758,391.232 734.316,390.437 736.137,389.76C737.96,389.083 739.302,388.676 740.164,388.541C741.026,388.407 743.052,388.6 746.24,389.121C749.428,389.641 751.32,390.027 751.915,390.277C752.508,390.528 753.662,391.163 755.375,392.181C757.088,393.2 758.719,394.444 760.268,395.913C761.817,397.383 762.843,398.467 763.344,399.165C763.845,399.864 764.34,400.687 764.829,401.635C765.319,402.582 765.595,403.145 765.656,403.323C765.717,403.5 765.89,404.21 766.175,405.452C766.46,406.694 766.612,407.69 766.631,408.441C766.649,409.193 766.618,410.078 766.536,411.095C766.454,412.111 766.335,413.15 766.179,414.213C766.022,415.277 765.92,416.04 765.873,416.501C765.827,416.964 765.795,417.359 765.776,417.688C765.758,418.018 765.751,418.35 765.753,418.685C765.756,419.021 765.802,419.692 765.891,420.699C765.98,421.705 766.086,422.731 766.208,423.777C766.331,424.825 766.412,425.617 766.451,426.153C766.49,426.69 766.489,428.356 766.448,431.149C766.407,433.943 766.132,436.329 765.621,438.307C765.111,440.284 764.712,441.79 764.424,442.827C764.136,443.864 763.84,444.923 763.537,446.004C763.235,447.086 762.817,448.611 762.283,450.58C761.749,452.548 761.248,454.598 760.779,456.729C760.31,458.86 759.999,460.344 759.844,461.18C759.69,462.017 759.524,462.907 759.345,463.849C759.166,464.792 759.037,465.488 758.959,465.939C758.88,466.388 758.817,466.853 758.772,467.332C758.727,467.811 758.672,468.339 758.609,468.916C758.547,469.493 758.509,470.566 758.495,472.136C758.481,473.706 758.501,474.975 758.555,475.944C758.609,476.913 758.703,478.217 758.837,479.856C758.972,481.496 759.104,482.613 759.236,483.208C759.368,483.803 759.518,484.531 759.688,485.392C759.857,486.253 760.136,488.278 760.527,491.467C760.533,494.479 760.523,496.375 760.497,497.155C760.472,497.934 760.393,498.936 760.263,500.16C760.133,501.384 759.956,502.541 759.731,503.632C759.506,504.724 759.236,505.856 758.923,507.028C758.608,508.201 758.125,509.907 757.475,512.145C756.825,514.384 756.406,515.866 756.219,516.591C756.031,517.316 755.819,518.227 755.583,519.323C755.346,520.42 755.128,521.793 754.927,523.444C754.726,525.096 754.609,526.645 754.576,528.093C754.543,529.541 754.54,530.678 754.565,531.503C754.59,532.328 754.806,535.617 755.213,541.372C755.784,544.891 756.114,546.904 756.203,547.412C756.292,547.92 756.362,548.344 756.413,548.685C756.465,549.027 756.625,549.914 756.893,551.347C757.162,552.779 757.561,554.256 758.092,555.777C759.858,558.384 761.031,559.968 761.609,560.532C762.188,561.096 762.71,561.558 763.176,561.919C763.643,562.28 764.562,562.835 765.933,563.581C767.305,564.329 768.514,564.906 769.561,565.313C770.608,565.721 772.043,566.13 773.868,566.54C775.692,566.951 777.628,567.236 779.676,567.395C781.724,567.553 783.592,567.668 785.28,567.739C786.967,567.811 788.455,567.874 789.744,567.929C791.032,567.984 792.772,568.104 794.964,568.288C797.155,568.472 799.077,568.692 800.731,568.948C802.383,569.203 803.716,569.428 804.729,569.623C805.744,569.816 807.539,570.204 810.115,570.785L811.203,571.571C811.288,568.543 811.36,566.053 811.42,564.1C811.48,562.147 811.475,559.964 811.404,557.549C811.332,555.135 811.257,553.437 811.18,552.455C811.103,551.472 810.829,549.41 810.36,546.269C809.892,543.129 809.48,540.526 809.127,538.461C808.773,536.396 808.286,533.89 807.665,530.944C807.045,527.998 806.388,524.867 805.695,521.551C805.001,518.234 804.56,515.1 804.369,512.148C804.178,509.195 804.436,506.024 805.141,502.633C805.847,499.243 806.821,496.569 808.064,494.612C809.307,492.655 810.512,490.939 811.681,489.465C812.851,487.991 814.044,486.416 815.259,484.74C816.475,483.064 817.306,481.705 817.752,480.661C818.198,479.617 818.45,478.738 818.507,478.024C818.564,477.309 818.538,476.774 818.431,476.417C818.322,476.06 818.184,475.721 818.015,475.401C817.845,475.082 817.652,474.758 817.436,474.429C817.22,474.1 816.887,473.45 816.437,472.479C815.988,471.507 815.688,470.799 815.536,470.353C815.384,469.908 815.242,469.297 815.111,468.521C814.978,467.745 814.896,466.881 814.863,465.929C814.829,464.977 814.857,464.072 814.947,463.213C815.036,462.354 815.257,461.188 815.609,459.716C815.962,458.244 816.573,456.329 817.441,453.971C818.31,451.612 819.197,449.5 820.104,447.633C821.011,445.767 822.112,443.772 823.409,441.648C824.707,439.524 825.844,437.789 826.821,436.445C827.798,435.101 829.142,433.381 830.853,431.285C832.565,429.188 833.994,427.598 835.14,426.513C836.287,425.429 837.142,424.685 837.705,424.281C838.268,423.878 838.809,423.524 839.329,423.221C839.848,422.919 840.786,422.44 842.143,421.783C843.499,421.125 844.698,420.616 845.739,420.257C846.78,419.897 847.68,419.636 848.439,419.473C849.198,419.311 849.96,419.179 850.727,419.079C851.494,418.978 854.008,418.842 858.268,418.671L861.443,418.888C861.546,418.918 862.06,418.963 862.987,419.021C863.912,419.079 865.135,419.175 866.655,419.309C868.174,419.444 869.971,419.625 872.045,419.853C874.12,420.082 875.363,420.228 875.775,420.292C876.187,420.357 877.252,420.572 878.969,420.939C880.687,421.305 882.854,421.934 885.471,422.827C888.087,423.718 891.882,425.54 896.856,428.292C901.829,431.044 904.751,432.81 905.621,433.589C906.491,434.369 907.291,435.162 908.021,435.969C908.752,436.777 909.684,437.924 910.817,439.411C911.19,439.934 912.439,441.324 914.564,443.581C915.811,445 916.612,445.903 916.965,446.289C917.318,446.675 918.91,448.386 921.741,451.423C921.903,451.824 922.009,452.286 922.059,452.807C922.108,453.327 922.119,454.194 922.093,455.409C922.068,456.624 922.055,457.54 922.052,458.157C922.049,458.774 922.132,459.271 922.301,459.648C922.471,460.025 922.732,460.611 923.084,461.407C923.436,462.201 923.68,462.769 923.816,463.109C923.953,463.449 924.225,464.184 924.633,465.313C925.093,467.311 925.416,468.988 925.601,470.344C925.787,471.7 925.896,472.639 925.927,473.161C925.958,473.683 925.946,475.12 925.892,477.471C925.839,479.822 925.691,482.42 925.449,485.267C925.207,488.114 925.002,490.307 924.835,491.847C924.668,493.386 924.544,494.531 924.465,495.28C924.387,496.028 924.29,496.971 924.173,498.107C924.058,499.243 923.939,500.269 923.816,501.187C923.694,502.104 923.566,502.977 923.432,503.807C923.298,504.636 923.12,505.716 922.9,507.048C922.68,508.38 922.447,510.016 922.201,511.959C921.955,513.901 921.806,515.53 921.755,516.845C921.703,518.161 921.686,519.054 921.704,519.524C921.721,519.994 921.816,520.875 921.989,522.165C922.162,523.456 922.356,524.665 922.573,525.792C922.79,526.92 922.972,527.85 923.12,528.583C923.267,529.316 923.663,531.098 924.308,533.929C924.952,536.76 925.517,538.949 926.001,540.495C926.486,542.041 927.04,543.698 927.665,545.464C928.29,547.229 928.699,548.343 928.891,548.804C929.083,549.265 929.592,550.447 930.42,552.348C931.248,554.249 931.819,555.622 932.133,556.467C932.448,557.312 932.682,557.981 932.836,558.473C932.99,558.965 933.165,559.636 933.363,560.487C933.559,561.336 933.732,562.327 933.88,563.457C934.028,564.589 934.102,565.966 934.104,567.588C934.107,569.21 933.958,571.427 933.657,574.239L933.288,577.987C933.211,578.502 932.956,579.641 932.524,581.404C932.092,583.166 931.756,584.477 931.516,585.337C931.275,586.198 931.041,587.052 930.813,587.901C930.587,588.75 930.348,589.666 930.099,590.648C929.85,591.63 929.636,592.426 929.456,593.035C929.276,593.644 928.678,595.147 927.66,597.543C926.641,599.939 925.87,601.548 925.345,602.369C924.82,603.191 924.42,603.778 924.147,604.132C923.874,604.486 923.377,605.025 922.656,605.751C921.936,606.475 921.086,607.202 920.107,607.931C919.127,608.659 917.68,609.596 915.767,610.744C913.853,611.891 911.558,613.222 908.883,614.737C906.208,616.252 903.329,618.101 900.245,620.285C898.964,621.609 898.241,622.365 898.079,622.553C897.916,622.743 897.419,623.4 896.587,624.525C895.754,625.651 895.206,626.361 894.944,626.656C894.681,626.952 894.396,627.238 894.091,627.513C893.784,627.79 893.436,628.063 893.045,628.332C892.654,628.601 892.246,628.844 891.821,629.059C891.396,629.273 890.924,629.463 890.404,629.628C889.884,629.794 889.361,629.929 888.836,630.032C888.312,630.135 887.47,630.191 886.311,630.199C885.151,630.208 883.566,630.064 881.557,629.768C879.549,629.473 878.157,629.269 877.381,629.157C876.605,629.045 875.524,628.923 874.139,628.789C872.754,628.656 871.32,628.481 869.836,628.264C868.353,628.047 866.657,627.72 864.747,627.283C862.836,626.844 860.732,626.154 858.433,625.211C856.135,624.268 853.671,622.892 851.041,621.085C848.411,619.278 846.61,617.856 845.637,616.819C844.666,615.781 843.987,614.996 843.6,614.464C843.213,613.932 842.612,612.939 841.797,611.483C841.424,610.794 840.487,608.812 838.987,605.537C838.905,605.389 838.626,604.988 838.149,604.336C837.673,603.683 837.098,602.963 836.424,602.176C835.751,601.388 834.97,600.535 834.08,599.616C833.189,598.696 832.696,598.194 832.6,598.109C832.505,598.025 831.159,596.675 828.561,594.06L827.063,592.617L827.289,593.239C826.328,594.679 825.372,596.139 824.424,597.619L822.553,600.572C821.229,602.586 820.238,603.975 819.58,604.739C818.921,605.501 818.268,606.157 817.62,606.707C816.972,607.256 816.443,607.651 816.033,607.892C815.624,608.132 815.141,608.354 814.587,608.559C814.032,608.762 813.318,608.926 812.444,609.051C811.571,609.175 810.724,609.204 809.903,609.139C809.081,609.073 808.006,608.83 806.677,608.411C805.348,607.991 804.341,607.671 803.656,607.451C802.97,607.23 802.289,607.026 801.613,606.837C800.939,606.65 800.48,606.532 800.239,606.483C799.998,606.434 799.648,606.38 799.189,606.32C798.73,606.26 798.18,606.201 797.54,606.144C796.899,606.088 796.172,606.02 795.359,605.941C794.545,605.863 793.979,605.806 793.66,605.769C793.341,605.734 792.893,605.668 792.317,605.573C791.74,605.478 790.928,605.328 789.881,605.121C788.834,604.915 787.46,604.651 785.757,604.328C784.055,604.005 782.816,603.774 782.04,603.633C781.264,603.494 780.41,603.331 779.477,603.145C778.544,602.96 777.802,602.805 777.252,602.683C776.701,602.561 775.896,602.388 774.836,602.164C773.776,601.941 772.768,601.725 771.809,601.517C770.85,601.309 769.826,601.087 768.736,600.849C767.645,600.612 766.841,600.443 766.323,600.341C765.804,600.241 764.952,600.1 763.767,599.92C762.581,599.74 761.281,599.585 759.868,599.453C758.455,599.322 757.45,599.229 756.855,599.176C756.259,599.123 755.581,599.05 754.821,598.959C754.062,598.867 753.519,598.795 753.192,598.743C752.865,598.689 752.371,598.567 751.711,598.376C751.05,598.185 750.491,597.966 750.032,597.719C749.573,597.471 749.103,597.089 748.62,596.575C748.137,596.059 747.821,595.667 747.672,595.397C747.523,595.129 747.333,594.531 747.104,593.603C746.874,592.676 746.729,592.098 746.669,591.869C746.611,591.642 746.525,591.32 746.413,590.903C746.301,590.486 746.171,590.035 746.023,589.549C745.874,589.065 745.717,588.615 745.552,588.2C745.388,587.784 745.244,587.454 745.121,587.211C744.999,586.966 744.756,586.56 744.395,585.993C744.033,585.426 743.42,584.659 742.555,583.691C741.689,582.723 740.265,581.562 738.284,580.209C736.805,579.863 735.922,579.693 735.636,579.7C735.35,579.707 734.898,579.784 734.281,579.929C733.664,580.075 733.196,580.211 732.875,580.337C732.554,580.463 731.543,581.026 729.843,582.028L728.832,581.547C728.896,581.63 729.012,581.782 729.18,582.003C729.349,582.223 729.412,582.343 729.371,582.363C729.329,582.383 729.281,582.418 729.228,582.468C729.174,582.518 729.123,582.565 729.076,582.609C729.029,582.654 728.968,582.712 728.892,582.784C728.816,582.855 728.468,583.16 727.845,583.697C727.223,584.235 726.43,584.892 725.465,585.667C724.501,586.441 722.137,587.978 718.373,590.279L717.915,590.433L717.295,590.745C716.989,590.853 716.332,591.193 715.323,591.767C714.315,592.339 713.506,592.754 712.896,593.012C712.285,593.271 711.806,593.447 711.457,593.541C711.109,593.636 710.838,593.703 710.644,593.74C710.449,593.777 710.172,593.805 709.813,593.824C709.453,593.843 709.22,593.864 709.113,593.887C709.007,593.911 708.737,593.933 708.304,593.953C707.871,593.975 707.396,594.006 706.88,594.047C706.363,594.088 705.608,594.144 704.615,594.216C703.621,594.288 703.056,594.327 702.92,594.332C702.783,594.336 702.528,594.304 702.156,594.235C701.783,594.166 701.544,594.114 701.44,594.077C701.335,594.041 701.079,593.977 700.671,593.887C700.263,593.796 699.713,593.702 699.023,593.605C698.331,593.508 697.775,593.453 697.353,593.441C696.932,593.43 696.626,593.424 696.436,593.423C696.247,593.423 695.937,593.388 695.508,593.317C695.08,593.248 694.716,593.135 694.419,592.977C694.121,592.82 693.754,592.631 693.319,592.409C692.883,592.187 692.514,592.02 692.211,591.907C691.908,591.794 691.653,591.709 691.448,591.652C691.244,591.595 690.857,591.512 690.289,591.404C689.721,591.295 689.03,591.121 688.215,590.883C687.4,590.644 686.795,590.445 686.4,590.284C686.005,590.124 685.354,589.896 684.447,589.599C683.539,589.302 682.701,589.092 681.932,588.968C681.164,588.844 680.279,588.665 679.277,588.431C678.276,588.196 677.53,588.046 677.039,587.981C676.546,587.916 676.044,587.863 675.533,587.82C675.021,587.777 674.457,587.771 673.841,587.801C673.225,587.831 671.7,588.025 669.264,588.384C666.828,588.742 664.978,588.923 663.713,588.925C662.449,588.928 661.016,588.797 659.415,588.532C657.813,588.266 656.768,588.042 656.281,587.859C655.794,587.675 655.303,587.456 654.807,587.204C654.311,586.951 653.579,586.544 652.612,585.984C651.644,585.423 650.832,584.94 650.177,584.533C649.523,584.128 648.904,583.668 648.321,583.155C647.739,582.641 647.244,582.128 646.837,581.617C646.431,581.107 646.01,580.528 645.573,579.881C645.138,579.234 644.779,578.693 644.496,578.259C644.276,577.992 644.076,577.793 643.896,577.661C643.716,577.53 643.528,577.416 643.331,577.319C643.134,577.221 642.97,577.134 642.837,577.057C642.705,576.981 642.532,576.851 642.317,576.667C642.102,576.482 641.873,576.248 641.631,575.965C641.388,575.683 641.213,575.446 641.105,575.255C640.998,575.064 640.927,574.85 640.893,574.611C640.859,574.372 640.838,574.046 640.832,573.635C640.825,573.224 641.089,571.892 641.624,569.64C642.159,567.388 642.661,565.104 643.129,562.789C643.597,560.476 643.873,558.847 643.957,557.903C644.043,556.959 643.957,555.334 643.701,553.029C643.445,550.725 643.194,549.015 642.948,547.897C642.701,546.78 642.405,545.419 642.06,543.813C641.715,542.207 641.24,539.908 640.635,536.915C640.029,533.923 639.617,531.736 639.399,530.356C639.18,528.976 638.988,527.474 638.824,525.851C638.66,524.228 638.488,522.253 638.305,519.927C638.123,517.601 637.984,515.428 637.889,513.407C637.794,511.385 637.741,509.087 637.729,506.512C637.718,503.937 637.743,502.117 637.805,501.052C637.868,499.987 637.906,498.811 637.921,497.523C637.936,496.235 637.916,495.231 637.859,494.512C637.802,493.793 637.671,492.945 637.467,491.969C637.263,490.993 637.118,490.328 637.032,489.973C636.945,489.619 636.798,489.071 636.591,488.329C636.383,487.587 636.072,486.824 635.659,486.04C635.245,485.257 634.837,484.53 634.435,483.86C634.033,483.189 633.77,482.755 633.645,482.559C633.522,482.362 632.986,481.735 632.039,480.677C631.091,479.62 630.467,478.985 630.167,478.775C629.867,478.563 629.63,478.415 629.455,478.331C629.28,478.246 629.175,478.185 629.14,478.147C629.105,478.108 628.968,478.051 628.728,477.976C628.489,477.9 627.829,477.801 626.749,477.677C626.743,477.652 626.628,477.263 626.403,476.509L625.764,479.103C625.283,478.853 624.893,478.678 624.593,478.579C624.295,478.479 624.068,478.408 623.912,478.364C623.396,478.773 623.064,479.217 622.913,479.696C622.762,480.175 622.666,480.625 622.625,481.047C622.584,481.469 622.473,482.653 622.292,484.6C622.111,486.547 621.975,488.81 621.884,491.391C621.792,493.971 621.67,495.991 621.516,497.451C621.361,498.909 621.224,500.131 621.103,501.116C620.982,502.101 620.829,503.186 620.644,504.371C620.459,505.556 620.222,506.809 619.932,508.129C619.642,509.448 619.364,510.614 619.097,511.627C618.831,512.639 618.651,513.383 618.557,513.859C618.465,514.333 618.291,515.193 618.035,516.437C617.778,517.682 617.591,518.6 617.475,519.191C617.357,519.781 617.258,520.405 617.176,521.063C617.095,521.72 617.049,522.221 617.037,522.565C617.027,522.909 616.998,523.529 616.952,524.425C616.907,525.32 616.868,526.274 616.837,527.287C616.806,528.299 616.801,529.514 616.823,530.931C616.844,532.347 616.914,534.235 617.032,536.596C617.149,538.957 617.265,541.37 617.379,543.836C617.492,546.303 617.592,548.693 617.676,551.007C617.761,553.32 617.936,556.129 618.201,559.432C618.467,562.735 618.775,565.915 619.124,568.972C619.473,572.029 619.783,575.311 620.052,578.817C620.322,582.324 620.107,584.976 619.405,586.772C618.704,588.568 618.084,589.79 617.544,590.437C617.004,591.085 616.64,591.472 616.453,591.596C616.267,591.72 616.005,591.861 615.668,592.019C615.331,592.177 615.109,592.281 615.003,592.332C614.895,592.383 614.575,592.514 614.043,592.725C613.509,592.938 613.067,593.072 612.715,593.128C611.992,592.938 611.447,592.762 611.079,592.601C610.712,592.44 610.343,592.312 609.972,592.22C609.601,592.128 609.061,591.935 608.351,591.643C607.64,591.349 607.071,591.069 606.643,590.803C606.214,590.537 605.741,590.12 605.223,589.551C604.704,588.982 604.27,588.44 603.921,587.924C603.573,587.408 603.173,586.801 602.723,586.103C602.272,585.404 601.976,584.997 601.836,584.883C600.257,583.652 599.458,583.021 599.439,582.991C599.418,582.961 599.239,582.762 598.9,582.392C598.56,582.023 598.231,581.601 597.911,581.127C597.591,580.652 597.254,580.188 596.901,579.733C596.549,579.279 596.271,578.952 596.067,578.751C595.862,578.55 595.641,578.096 595.403,577.388C595.164,576.68 595.032,576.236 595.007,576.055L595.004,575.703C594.712,574.692 594.512,573.822 594.404,573.093C594.296,572.365 594.248,571.975 594.257,571.923C594.268,571.87 594.284,571.628 594.305,571.196C594.327,570.763 594.455,569.883 594.691,568.556C594.925,567.229 595.143,566.225 595.344,565.545C595.544,564.865 595.772,564.008 596.027,562.975C596.282,561.942 596.598,560.5 596.976,558.651C597.354,556.801 597.35,555.281 596.964,554.092C596.577,552.903 596.159,552.15 595.709,551.835C595.259,551.519 594.671,551.224 593.945,550.949C593.22,550.676 592.248,550.474 591.029,550.345C589.811,550.216 587.966,550.31 585.495,550.625C583.024,550.942 580.977,551.432 579.355,552.097C577.733,552.763 576.703,553.232 576.263,553.503C575.824,553.775 575.554,553.954 575.455,554.04C575.356,554.125 575.227,554.256 575.067,554.433C574.907,554.609 574.612,555.058 574.181,555.779C573.75,556.5 573.417,557.065 573.183,557.473C572.947,557.882 572.653,558.484 572.301,559.28C571.95,560.076 571.658,560.838 571.425,561.567C571.192,562.296 570.937,563.3 570.66,564.58C570.383,565.86 570.061,567.276 569.696,568.827C569.331,570.379 569.074,571.385 568.927,571.845C568.78,572.306 568.596,572.912 568.373,573.663C568.151,574.414 567.868,575.627 567.524,577.301C567.179,578.977 566.92,580.489 566.747,581.837C566.573,583.186 566.564,584.719 566.72,586.437C566.876,588.156 566.999,589.202 567.087,589.576C567.175,589.95 567.327,590.576 567.544,591.452C567.76,592.328 567.875,593.664 567.888,595.459C567.9,597.252 567.657,598.661 567.159,599.684C566.659,600.706 565.434,602.202 563.484,604.172C561.534,606.142 559.66,607.899 557.863,609.443C556.066,610.986 554.102,612.46 551.971,613.867C549.839,615.272 548.15,616.352 546.904,617.108C545.659,617.864 544.708,618.407 544.052,618.735C543.396,619.064 542.778,619.247 542.199,619.285C541.619,619.324 541.204,619.316 540.953,619.263C540.703,619.21 540.412,619.097 540.083,618.924C539.753,618.752 539.377,618.495 538.955,618.153C538.532,617.813 538.158,617.436 537.831,617.023C537.504,616.609 537.24,616.189 537.04,615.763C536.841,615.336 536.543,614.775 536.147,614.08C535.751,613.386 535.528,612.004 535.476,609.936C535.424,607.868 535.46,606.472 535.584,605.748C535.708,605.024 535.868,604.031 536.065,602.768C536.264,601.504 536.437,600.153 536.587,598.716C536.735,597.278 536.867,596.232 536.983,595.577C537.097,594.923 537.211,593.972 537.324,592.724C537.437,591.476 537.489,590.32 537.48,589.257C537.472,588.195 537.299,586.959 536.961,585.549C536.624,584.14 536.401,583.376 536.292,583.259C536.182,583.141 536.077,582.972 535.977,582.751C535.877,582.528 535.673,582.24 535.367,581.887C535.06,581.532 534.618,581.122 534.04,580.657C533.462,580.193 532.744,579.714 531.885,579.219C531.026,578.724 530.227,578.301 529.488,577.948C528.748,577.594 527.71,577.076 526.372,576.392C525.034,575.708 524.057,575.218 523.441,574.92C522.826,574.622 522.412,574.416 522.197,574.303C521.983,574.189 521.558,573.944 520.923,573.567C520.287,573.19 519.776,572.897 519.391,572.689C519.006,572.481 518.772,572.372 518.688,572.361C517.984,572.596 517.466,572.754 517.135,572.835C516.862,573.367 516.705,573.806 516.665,574.151C516.492,577.679 516.415,580.105 516.433,581.429C516.452,582.754 516.442,584.217 516.403,585.82C516.363,587.424 516.321,588.31 516.277,588.48L516.345,588.896C516.349,589.64 516.307,590.624 516.22,591.849C516.132,593.074 515.987,594.286 515.785,595.485C515.584,596.684 515.273,598.344 514.853,600.464C514.434,602.583 514.018,604.446 513.605,606.052C513.193,607.658 512.688,609.214 512.091,610.719C511.494,612.223 510.77,613.842 509.919,615.577C509.067,617.312 508.457,618.436 508.089,618.948C507.72,619.461 507.386,619.926 507.085,620.343C506.784,620.759 506.504,621.16 506.245,621.545C505.986,621.931 505.524,622.479 504.859,623.189C504.193,623.9 503.628,624.523 503.165,625.06C502.701,625.598 502.256,626.092 501.829,626.544C501.403,626.995 500.979,627.394 500.559,627.743C500.139,628.091 499.671,628.453 499.153,628.828C498.636,629.203 498.071,629.648 497.459,630.161C496.846,630.675 496.496,630.973 496.408,631.055C494.316,632.117 492.955,632.912 492.323,633.439C491.691,633.966 491.019,634.505 490.308,635.057C489.598,635.609 488.799,636.14 487.912,636.651C487.025,637.161 486.337,637.435 485.848,637.473C485.358,637.512 484.96,637.553 484.655,637.595C483.948,637.156 483.526,636.817 483.389,636.576C483.252,636.336 482.984,635.569 482.584,634.276C482.183,632.983 481.892,631.304 481.711,629.239C481.529,627.174 481.456,624.469 481.489,621.124C481.524,617.78 481.557,615.627 481.588,614.665C481.62,613.704 481.668,612.436 481.731,610.861C481.795,609.286 481.932,607.091 482.144,604.275C482.356,601.459 482.533,599.202 482.675,597.505C482.816,595.808 482.901,594.446 482.929,593.42C482.957,592.393 483.008,590.903 483.084,588.949C483.16,586.995 483.158,585.451 483.079,584.317C483,583.184 482.42,581.27 481.339,578.575C481.119,578.506 480.758,578.467 480.256,578.457C479.755,578.448 479.155,578.52 478.456,578.673C477.757,578.827 477.156,579.023 476.651,579.261C476.145,579.5 475.523,579.843 474.784,580.291C474.045,580.739 473.652,581.013 473.605,581.113C473.558,581.213 473.426,581.437 473.208,581.785C472.991,582.134 472.609,582.82 472.063,583.844C471.516,584.869 471.105,585.724 470.831,586.408C470.557,587.092 470.194,588.204 469.743,589.745C469.292,591.286 468.666,595.662 467.864,602.873C467.062,610.085 466.633,614.632 466.577,616.515C466.52,618.398 466.397,620.925 466.208,624.095C466.019,627.265 465.86,629.42 465.731,630.559C465.601,631.698 465.376,633.053 465.057,634.624C464.738,636.195 464.398,637.511 464.037,638.573C463.676,639.636 463.359,640.344 463.085,640.695C462.811,641.046 462.56,641.405 462.332,641.772C462.104,642.138 461.857,642.541 461.593,642.981C461.329,643.42 460.884,644.025 460.257,644.795C459.631,645.564 459.164,646.055 458.857,646.268C458.552,646.482 458.316,646.624 458.151,646.693C457.986,646.763 457.778,646.88 457.525,647.044C457.273,647.208 456.62,647.619 455.565,648.275C454.676,648.444 454.051,648.528 453.691,648.525C453.332,648.523 452.716,648.526 451.843,648.536C450.97,648.547 450.252,648.488 449.689,648.361C449.126,648.234 448.676,648.094 448.34,647.941C448.003,647.788 447.299,647.562 446.228,647.263C445.156,646.964 444.505,646.773 444.276,646.691C444.047,646.607 443.437,646.377 442.448,646C441.402,644.754 440.733,643.975 440.441,643.663C440.15,643.352 439.873,642.972 439.612,642.523C439.351,642.074 439.098,641.689 438.855,641.368L438.063,640.441C437.039,637.76 436.456,635.505 436.316,633.675C436.175,631.844 436.133,630.732 436.191,630.339C436.248,629.945 436.289,629.605 436.316,629.32C436.342,629.035 436.4,628.622 436.491,628.083C436.582,627.543 436.681,627.048 436.788,626.597C436.895,626.146 436.979,625.724 437.041,625.333C437.103,624.941 437.149,624.536 437.18,624.119C437.21,623.7 437.242,623.206 437.276,622.636C437.309,622.067 437.318,621.297 437.303,620.327C437.288,619.357 437.263,618.742 437.229,618.481C437.196,618.22 437.156,617.755 437.107,617.087C437.059,616.417 437.034,615.658 437.033,614.809C437.033,613.96 437.03,612.916 437.024,611.68C437.019,610.444 437.022,609.255 437.033,608.111C437.044,606.968 437.044,605.639 437.035,604.124C437.025,602.608 437.019,601.4 437.017,600.497C437.016,599.594 437.013,598.728 437.009,597.9C437.006,597.071 436.994,596.488 436.975,596.153C436.956,595.818 436.963,595.128 436.996,594.083C437.029,593.036 437.12,591.452 437.271,589.328C437.42,587.204 437.699,584.736 438.108,581.924C438.516,579.112 438.766,577.448 438.859,576.932C438.951,576.417 439.064,575.839 439.196,575.196C439.329,574.554 439.469,573.64 439.616,572.452C439.763,571.264 439.903,569.58 440.037,567.403C440.172,565.224 440.182,562.673 440.069,559.751C439.956,556.827 439.865,555.077 439.795,554.501C439.724,553.925 439.604,553.27 439.435,552.536C439.266,551.802 439.136,551.099 439.047,550.428C438.958,549.757 438.868,548.972 438.776,548.073C438.685,547.175 438.615,546.566 438.565,546.248C438.516,545.93 438.429,545.125 438.303,543.835C438.176,542.544 438.038,540.887 437.888,538.864C437.738,536.842 437.576,534.26 437.403,531.119C437.229,527.978 437.115,525.864 437.06,524.777C437.005,523.69 436.947,522.75 436.887,521.957C436.826,521.165 436.726,519.929 436.587,518.249C436.447,516.57 436.338,514.518 436.259,512.092C436.18,509.666 436.155,508.123 436.183,507.463C436.21,506.802 436.405,504.521 436.768,500.619C437.131,496.717 437.661,493.356 438.359,490.536C439.056,487.716 439.669,485.662 440.196,484.373C440.724,483.084 441.233,481.945 441.724,480.955C442.216,479.964 442.726,479.07 443.256,478.275C443.787,477.479 444.129,476.996 444.283,476.827C444.437,476.656 444.688,476.38 445.036,476C445.384,475.619 446.184,475.056 447.436,474.313C448.689,473.57 449.539,473.139 449.985,473.02C450.432,472.901 450.833,472.838 451.188,472.831C451.543,472.823 451.847,472.824 452.1,472.835C452.354,472.846 452.74,472.832 453.257,472.791C453.775,472.749 454.075,472.709 454.159,472.671C454.241,472.632 454.59,472.589 455.205,472.54C455.82,472.491 456.29,472.481 456.617,472.511C456.944,472.539 457.232,472.576 457.479,472.621C457.727,472.667 458.021,472.643 458.363,472.551C458.703,472.459 458.936,472.389 459.061,472.34C459.186,472.292 459.455,472.227 459.869,472.144C460.283,472.061 460.628,471.975 460.904,471.885C461.181,471.796 461.551,471.686 462.012,471.553C462.473,471.422 462.813,471.36 463.032,471.367C463.251,471.375 463.466,471.367 463.679,471.344C463.891,471.32 464.176,471.275 464.533,471.209C464.891,471.144 465.361,471.044 465.944,470.907C466.526,470.771 466.913,470.704 467.105,470.708C467.297,470.712 467.548,470.736 467.857,470.783C468.167,470.828 468.492,470.884 468.832,470.951C470.778,470.91 471.787,470.88 471.86,470.863L472.537,471.735C472.083,474.087 471.821,475.612 471.751,476.309C471.68,477.007 471.612,477.665 471.547,478.284C471.482,478.902 471.414,479.579 471.343,480.315C471.272,481.051 471.221,481.868 471.191,482.765C471.16,483.663 471.135,484.678 471.116,485.811C471.097,486.943 471.088,488.587 471.087,490.741C471.086,492.896 471.062,496.121 471.016,500.416C470.97,504.71 471.008,508.592 471.129,512.06C471.251,515.528 471.55,518.6 472.025,521.277C472.501,523.954 472.975,525.826 473.447,526.893C473.92,527.961 474.349,528.722 474.736,529.177C475.123,529.633 475.667,530.095 476.369,530.563C477.24,530.483 478.045,530.245 478.784,529.849C479.523,529.454 479.996,529.192 480.205,529.063C480.414,528.935 480.663,528.72 480.951,528.42C481.239,528.12 481.598,527.649 482.028,527.007C482.458,526.363 483.065,525.218 483.849,523.571C484.633,521.924 485.118,520.631 485.304,519.693C485.49,518.755 485.795,517.097 486.219,514.721C486.643,512.346 486.922,510.244 487.057,508.413C487.192,506.582 487.264,505.489 487.271,505.133C487.278,504.778 487.309,504.003 487.364,502.809C487.418,501.616 487.448,500.256 487.453,498.729C487.459,497.202 487.449,495.994 487.424,495.105C487.399,494.217 487.338,492.79 487.24,490.823C487.141,488.856 487.089,487.07 487.084,485.467C487.078,483.864 487.122,482.201 487.217,480.479C487.312,478.756 487.401,477.47 487.484,476.621C487.566,475.773 487.692,474.837 487.864,473.813C488.036,472.789 488.394,471.43 488.94,469.735C489.485,468.04 489.917,466.762 490.236,465.901C490.556,465.042 490.821,464.427 491.031,464.057C491.241,463.688 491.541,463.223 491.931,462.661C492.32,462.1 492.764,461.534 493.261,460.965C493.759,460.397 494.547,459.522 495.624,458.339C496.7,457.156 498.026,455.762 499.601,454.156C501.176,452.551 502.471,451.324 503.487,450.477C504.503,449.63 505.368,448.944 506.084,448.417C506.8,447.892 507.549,447.379 508.332,446.879C509.115,446.377 509.898,445.922 510.68,445.513C511.463,445.104 512.373,444.731 513.409,444.396C514.446,444.061 515.179,443.838 515.609,443.727C516.04,443.616 516.538,443.512 517.104,443.415C517.67,443.318 518.33,443.328 519.084,443.447L519.425,443.649L519.88,443.801C521.368,445.873 522.155,446.972 522.24,447.097C522.324,447.223 522.427,447.417 522.547,447.68C522.666,447.944 522.777,448.267 522.88,448.648C522.983,449.03 523.082,449.631 523.176,450.449C523.271,451.268 523.343,451.981 523.392,452.589C523.441,453.196 523.488,453.924 523.533,454.771C523.58,455.618 523.602,456.602 523.601,457.724C523.601,458.845 523.583,459.748 523.547,460.433C523.51,461.119 523.477,461.869 523.447,462.685C523.416,463.501 523.363,464.667 523.287,466.183C523.21,467.697 523.138,468.861 523.069,469.673C523.002,470.486 522.859,471.643 522.641,473.145C522.424,474.647 522.124,476.554 521.739,478.868C521.355,481.181 520.984,483.551 520.627,485.979C520.27,488.405 519.984,490.153 519.768,491.223C519.552,492.292 519.229,493.77 518.8,495.657C518.371,497.545 517.871,500.007 517.3,503.041C516.728,506.076 516.269,508.748 515.921,511.059C515.573,513.368 515.241,515.821 514.927,518.417C514.612,521.014 514.366,523.176 514.188,524.903C514.01,526.63 513.891,528.137 513.829,529.424C513.769,530.711 513.675,532.445 513.547,534.627C513.419,536.807 513.298,539.872 513.184,543.82C513.071,547.768 513.397,551.252 514.163,554.275C514.929,557.296 515.398,558.879 515.571,559.023C516.758,558.912 517.505,558.828 517.812,558.769C518.118,558.711 518.422,558.607 518.725,558.459C519.029,558.31 519.487,557.984 520.099,557.481C520.711,556.977 521.549,556.115 522.612,554.893C523.675,553.672 524.579,552.586 525.323,551.635C526.066,550.684 526.625,549.956 527,549.453C527.374,548.95 527.667,548.537 527.877,548.215C528.089,547.892 528.398,547.38 528.805,546.679C529.213,545.978 529.675,545.09 530.191,544.015C530.706,542.94 531.087,542.193 531.332,541.773C531.577,541.354 531.92,540.66 532.359,539.693C532.798,538.726 533.204,537.638 533.579,536.428C533.953,535.219 534.28,534.144 534.561,533.201C534.842,532.258 535.292,530.508 535.911,527.951C536.529,525.393 536.918,523.595 537.076,522.556C537.234,521.517 537.336,520.384 537.381,519.156C537.428,517.928 537.479,515.947 537.535,513.215C537.591,510.481 537.709,507.648 537.889,504.716C538.069,501.784 538.25,499.754 538.433,498.627C538.616,497.499 538.885,496.177 539.24,494.663C539.596,493.148 540.147,491.19 540.895,488.789C541.643,486.388 542.161,484.709 542.448,483.753C542.735,482.798 543.199,480.872 543.84,477.975C544.48,475.078 544.961,472.091 545.283,469.013C545.604,465.937 545.881,463.356 546.112,461.271C546.343,459.184 546.678,456.844 547.117,454.251C547.556,451.658 547.922,449.608 548.215,448.103C548.508,446.598 548.936,444.907 549.499,443.029C550.061,441.153 550.759,439.174 551.591,437.093C552.423,435.013 553.069,433.376 553.531,432.18C553.992,430.984 554.428,429.864 554.84,428.821C555.251,427.779 555.528,427.106 555.671,426.804C555.813,426.503 556.096,425.89 556.521,424.967C556.946,424.042 557.606,422.8 558.5,421.241C559.393,419.681 560.416,418.106 561.569,416.516C562.722,414.926 563.393,414.02 563.583,413.797C563.771,413.575 563.967,413.366 564.169,413.169C564.373,412.974 565.08,412.224 566.289,410.92C567.498,409.616 568.456,408.659 569.164,408.048C569.872,407.437 570.61,406.863 571.379,406.324C572.148,405.785 573.084,405.176 574.187,404.497C575.29,403.818 576.214,403.205 576.96,402.659C577.706,402.113 578.664,401.441 579.835,400.644C581.004,399.847 582.049,399.128 582.969,398.489C583.89,397.851 584.41,397.492 584.528,397.413C584.646,397.335 584.989,397.067 585.557,396.608C586.125,396.149 586.819,395.532 587.639,394.755C588.458,393.978 588.89,393.568 588.935,393.527C588.979,393.485 589.55,392.93 590.648,391.861C591.746,390.794 592.743,389.9 593.64,389.18C594.537,388.46 595.254,387.868 595.792,387.405C596.331,386.942 597.124,386.39 598.172,385.749C599.22,385.109 599.915,384.742 600.257,384.647C600.6,384.552 601.198,384.428 602.053,384.277C602.908,384.127 604.09,384.17 605.597,384.405C607.104,384.64 607.893,384.8 607.965,384.884C608.037,384.968 608.439,385.293 609.169,385.857C609.835,386.805 610.416,388.017 610.912,389.493C611.408,390.971 611.735,392.216 611.892,393.228C612.049,394.24 612.186,395.467 612.301,396.908C612.417,398.349 612.505,399.508 612.565,400.384C612.627,401.26 612.675,401.948 612.711,402.447C612.746,402.946 612.8,403.914 612.872,405.349C612.944,406.785 613.028,408.37 613.123,410.105C613.217,411.84 613.416,414.65 613.719,418.533C614.023,422.417 614.237,424.8 614.363,425.681C614.488,426.564 614.665,427.58 614.893,428.728C615.123,429.877 615.385,431.32 615.681,433.055C615.977,434.79 616.268,436.601 616.555,438.489C616.841,440.378 617.214,442.658 617.675,445.328C618.135,447.999 618.473,450.101 618.688,451.635C618.902,453.169 619.16,454.664 619.461,456.119C619.763,457.573 620.026,458.66 620.251,459.379C620.476,460.098 620.785,460.818 621.176,461.54C621.567,462.262 622.364,463.327 623.568,464.736L624.567,464.031C625.528,462.29 626.249,460.953 626.728,460.019C627.206,459.085 627.524,458.444 627.683,458.093C627.841,457.743 628.263,456.639 628.948,454.781C629.35,453.319 629.623,452.23 629.767,451.513C629.912,450.796 630.031,450.063 630.125,449.315C630.22,448.566 630.326,447.552 630.443,446.273C630.559,444.995 630.708,442.66 630.888,439.267C631.068,435.874 631.189,433.673 631.251,432.664C631.312,431.654 631.497,429.357 631.805,425.772C632.114,422.186 632.306,419.942 632.383,419.039C632.459,418.136 632.579,416.672 632.741,414.647C632.903,412.622 633.074,410.6 633.255,408.583C633.434,406.566 633.621,404.646 633.816,402.824C634.011,401.003 634.276,398.908 634.612,396.54C634.948,394.172 635.212,392.513 635.405,391.564C635.598,390.615 635.877,389.454 636.243,388.083C636.609,386.711 636.938,385.618 637.229,384.803C637.521,383.988 637.871,383.136 638.28,382.244C638.689,381.353 639.048,380.637 639.359,380.095C639.669,379.553 640.494,378.525 641.833,377.009C643.172,375.494 644.326,374.432 645.295,373.823C646.263,373.214 647.137,372.765 647.919,372.477C648.7,372.189 649.652,371.956 650.775,371.776C651.898,371.596 652.839,371.509 653.596,371.517C654.353,371.524 655.399,371.639 656.733,371.861C658.068,372.083 659.372,372.391 660.645,372.785C661.919,373.181 663.303,373.705 664.797,374.357C666.292,375.01 667.488,375.574 668.385,376.051C669.283,376.527 670.525,377.282 672.111,378.316C673.696,379.349 674.967,380.316 675.921,381.217C676.876,382.119 677.52,382.78 677.852,383.203C678.184,383.624 678.406,383.938 678.519,384.145C678.631,384.353 678.781,384.735 678.971,385.289C679.161,385.844 679.303,386.395 679.396,386.943C679.49,387.49 679.546,388.018 679.563,388.527C679.58,389.035 679.458,390.273 679.196,392.241C678.933,394.208 678.671,395.829 678.409,397.103C678.147,398.376 677.89,399.608 677.637,400.8C677.385,401.992 677.141,403.084 676.907,404.077C676.671,405.071 676.297,406.444 675.784,408.197C675.27,409.95 674.796,411.419 674.363,412.603C673.929,413.788 673.259,415.491 672.352,417.712C671.445,419.932 670.862,421.396 670.601,422.103C670.34,422.808 670.012,423.769 669.619,424.985C669.225,426.201 668.9,427.32 668.643,428.343C668.386,429.365 668.192,430.3 668.06,431.148C667.928,431.996 667.78,433.382 667.617,435.305C667.454,437.229 667.324,438.621 667.228,439.483C667.132,440.343 666.978,441.481 666.765,442.897C666.553,444.313 666.31,445.845 666.036,447.492C665.762,449.139 665.573,450.324 665.469,451.047C665.364,451.769 665.261,452.552 665.16,453.395C665.059,454.236 664.958,455.218 664.857,456.339C664.758,457.459 664.676,458.612 664.613,459.8C664.549,460.987 664.5,461.937 664.467,462.651C664.433,463.364 664.382,464.929 664.315,467.345C664.247,469.761 664.209,471.464 664.201,472.455C664.193,473.444 664.212,474.821 664.259,476.587C664.306,478.351 664.438,480.576 664.656,483.263C665.036,485.648 665.328,487.517 665.529,488.868C665.73,490.219 665.899,491.479 666.035,492.647C666.171,493.815 666.266,494.744 666.321,495.435C666.376,496.124 666.418,496.77 666.447,497.372C666.475,497.974 666.501,498.728 666.524,499.636C666.547,500.544 666.536,502.55 666.492,505.656C666.432,507.025 666.412,508.008 666.429,508.604C666.446,509.201 666.463,509.639 666.48,509.917C666.496,510.196 666.534,510.68 666.595,511.368C666.656,512.056 666.744,513.154 666.857,514.661C666.972,516.168 667.12,518.023 667.303,520.227C667.485,522.431 667.722,525.304 668.013,528.844C668.482,532.077 668.886,534.43 669.227,535.903C669.567,537.376 669.966,538.933 670.423,540.573C670.879,542.212 671.145,543.132 671.221,543.333C671.297,543.534 671.442,543.856 671.656,544.3C671.871,544.743 672.121,545.208 672.405,545.695C672.69,546.181 673.01,546.657 673.367,547.123C673.723,547.588 674.337,548.227 675.209,549.039C676.082,549.849 676.78,550.421 677.303,550.753C677.824,551.087 678.312,551.367 678.767,551.593C679.221,551.82 679.95,552.131 680.953,552.527C681.958,552.922 682.872,553.246 683.697,553.499C684.521,553.751 685.079,553.923 685.371,554.015C685.663,554.106 686.145,554.214 686.817,554.339C687.49,554.463 688.264,554.559 689.139,554.625C690.012,554.693 690.736,554.751 691.311,554.8C691.886,554.85 692.437,554.903 692.965,554.959C693.493,555.015 694.164,555.084 694.977,555.165C695.791,555.246 696.585,555.299 697.361,555.324C698.137,555.348 698.991,555.339 699.923,555.296C700.854,555.254 701.595,555.202 702.145,555.14C702.696,555.078 703.328,554.986 704.041,554.864C704.756,554.742 706.364,554.372 708.867,553.753L713.176,552.507ZM581.149,485.576L579.899,485.465C578.982,485.271 578.48,485.16 578.393,485.135L577.805,484.971C577.187,484.773 575.717,484.878 573.396,485.285C571.143,494.69 569.984,499.786 569.92,500.573C569.856,501.361 569.768,502.246 569.655,503.228C569.542,504.21 569.447,504.953 569.371,505.457C569.293,505.962 569.136,507.104 568.9,508.884C568.663,510.664 568.393,512.96 568.091,515.772C567.788,518.584 567.618,520.64 567.579,521.939C567.539,523.237 567.529,524.51 567.551,525.757C567.573,527.004 567.645,527.995 567.767,528.729C567.889,529.464 567.996,529.957 568.085,530.209C568.176,530.462 568.35,530.921 568.607,531.587L569.144,531.921L570.433,532.603C570.684,532.644 571.521,532.687 572.945,532.733C574.369,532.78 575.982,532.626 577.783,532.269C579.583,531.914 580.967,531.547 581.936,531.169C582.905,530.792 584.858,529.794 587.796,528.176C587.967,528.048 588.242,527.42 588.623,526.291C589.002,525.163 589.217,523.768 589.267,522.108C589.317,520.448 589.336,519.504 589.324,519.276C589.312,519.048 589.185,517.631 588.941,515.025C588.698,512.419 588.489,510.618 588.316,509.623C588.142,508.627 587.942,507.653 587.716,506.7C587.49,505.747 587.251,504.926 586.997,504.236C586.743,503.547 586.5,502.939 586.267,502.411C586.033,501.882 585.765,501.28 585.464,500.607C585.163,499.933 584.753,498.95 584.236,497.659C583.719,496.366 583.28,495.315 582.919,494.505C582.557,493.696 582.243,493.057 581.976,492.588C581.709,492.119 581.461,491.692 581.232,491.307C581.004,490.922 580.777,490.548 580.553,490.185C580.33,489.822 580.127,489.38 579.944,488.859L579.555,486.799L581.149,485.576ZM860.805,502.589C859.833,503.881 859.111,504.868 858.64,505.549C858.168,506.232 857.287,507.671 855.996,509.867C855.34,511.287 854.847,512.388 854.517,513.168C854.187,513.948 853.414,516.844 852.2,521.853C852.139,523.017 852.14,524.69 852.205,526.873C852.269,529.056 852.462,531.143 852.784,533.136C853.272,535.658 853.622,537.226 853.833,537.841C854.045,538.457 854.674,539.639 855.72,541.385C856.766,543.133 857.456,544.176 857.788,544.516C858.121,544.856 858.443,545.14 858.753,545.368C859.064,545.596 859.421,545.829 859.825,546.068C860.23,546.308 861.369,546.769 863.244,547.451C864.241,547.666 864.931,547.784 865.312,547.804C865.693,547.825 866.164,547.811 866.724,547.761C867.284,547.712 868.107,547.563 869.192,547.312L870.133,547.043C871.039,546.628 872.009,545.996 873.043,545.149C874.077,544.303 874.769,543.656 875.119,543.208C875.468,542.759 875.823,542.208 876.184,541.553C876.546,540.898 876.795,540.407 876.932,540.079C877.068,539.751 877.311,538.993 877.66,537.807C878.009,536.62 878.294,535.564 878.513,534.639C878.734,533.713 878.884,533.088 878.964,532.763C879.044,532.437 879.157,531.993 879.303,531.431C879.449,530.869 879.68,529.884 879.995,528.477C880.31,527.071 880.509,526.118 880.592,525.619C880.675,525.12 880.735,524.686 880.773,524.317C880.812,523.948 880.84,523.034 880.86,521.575C880.88,520.115 880.851,518.975 880.773,518.153C880.696,517.331 880.577,516.516 880.417,515.707C880.258,514.897 880.056,514.035 879.809,513.12C879.563,512.206 879.007,510.848 878.14,509.045C877.221,507.96 876.638,507.305 876.391,507.08C876.144,506.855 875.619,506.529 874.813,506.103C874.008,505.676 873.167,505.36 872.289,505.153C871.411,504.946 869.428,504.884 866.341,504.967L860.805,502.589Z" style="fill:rgb(255,89,0);stroke:rgb(20,146,101);stroke-width:6.8px;"/>
    </g>
</svg>
