999
"DXF R12 Output" (www.mydxf.blogspot.com)
 0 
SECTION
 2 
HEADER
 9 
$ACADVER
 1 
AC1009
 9 
$EXTMIN
 10 
 0 
 20 
 0 
 9 
$EXTMAX
 10 
 8.5 
 20 
 11 
 0 
ENDSEC
 0 
SECTION
 2 
ENTITIES
0
LINE
8
Layer 1
10
25.244800
20
11.411100
11
25.489769
21
11.719004
0
LINE
8
Layer 1
10
25.489769
20
11.719004
11
25.726835
21
11.993042
0
LINE
8
Layer 1
10
25.726835
20
11.993042
11
25.929188
21
12.226440
0
LINE
8
Layer 1
10
25.929188
20
12.226440
11
26.200121
21
12.589660
0
LINE
8
Layer 1
10
26.200121
20
12.589660
11
26.482907
21
13.090604
0
LINE
8
Layer 1
10
26.482907
20
13.090604
11
26.986109
21
14.172364
0
LINE
8
Layer 1
10
26.986109
20
14.172364
11
27.322235
21
14.980930
0
LINE
8
Layer 1
10
27.322235
20
14.980930
11
27.484795
21
15.512072
0
LINE
8
Layer 1
10
27.484795
20
15.512072
11
27.731175
21
16.352247
0
LINE
8
Layer 1
10
27.731175
20
16.352247
11
27.916595
21
17.161095
0
LINE
8
Layer 1
10
27.916595
20
17.161095
11
28.093830
21
18.324695
0
LINE
8
Layer 1
10
28.093830
20
18.324695
11
28.285177
21
19.943235
0
LINE
8
Layer 1
10
28.285177
20
19.943235
11
28.401735
21
21.291125
0
LINE
8
Layer 1
10
28.401735
20
21.291125
11
28.500795
21
22.539115
0
LINE
8
Layer 1
10
28.500795
20
22.539115
11
28.681417
21
24.155965
0
LINE
8
Layer 1
10
28.681417
20
24.155965
11
29.018390
21
26.496715
0
LINE
8
Layer 1
10
29.018390
20
26.496715
11
29.386407
21
28.655145
0
LINE
8
Layer 1
10
29.386407
20
28.655145
11
29.938433
21
30.702105
0
LINE
8
Layer 1
10
29.938433
20
30.702105
11
30.639190
21
32.727615
0
LINE
8
Layer 1
10
30.639190
20
32.727615
11
31.462996
21
34.316525
0
LINE
8
Layer 1
10
31.462996
20
34.316525
11
32.496776
21
35.862255
0
LINE
8
Layer 1
10
32.496776
20
35.862255
11
33.318606
21
36.726137
0
LINE
8
Layer 1
10
33.318606
20
36.726137
11
33.790199
21
37.083430
0
LINE
8
Layer 1
10
33.790199
20
37.083430
11
34.365085
21
37.364241
0
LINE
8
Layer 1
10
34.365085
20
37.364241
11
35.596135
21
37.723792
0
LINE
8
Layer 1
10
35.596135
20
37.723792
11
37.483355
21
37.974970
0
LINE
8
Layer 1
10
37.483355
20
37.974970
11
40.314885
21
38.159543
0
LINE
8
Layer 1
10
40.314885
20
38.159543
11
43.395625
21
38.210343
0
LINE
8
Layer 1
10
43.395625
20
38.210343
11
44.743515
21
38.155310
0
LINE
8
Layer 1
10
44.743515
20
38.155310
11
45.079924
21
38.070643
0
LINE
8
Layer 1
10
45.079924
20
38.070643
11
45.716617
21
37.860952
0
LINE
8
Layer 1
10
45.716617
20
37.860952
11
46.099592
21
37.695005
0
LINE
8
Layer 1
10
46.099592
20
37.695005
11
46.324805
21
37.549661
0
LINE
8
Layer 1
10
46.324805
20
37.549661
11
46.653311
21
37.224541
0
LINE
8
Layer 1
10
46.653311
20
37.224541
11
46.904771
21
36.839590
0
LINE
8
Layer 1
10
46.904771
20
36.839590
11
47.069024
21
36.369973
0
LINE
8
Layer 1
10
47.069024
20
36.369973
11
47.210417
21
35.814278
0
LINE
8
Layer 1
10
47.210417
20
35.814278
11
47.287746
21
35.284265
0
LINE
8
Layer 1
10
47.287746
20
35.284265
11
47.323870
21
34.737037
0
LINE
8
Layer 1
10
47.323870
20
34.737037
11
47.319637
21
33.805987
0
LINE
8
Layer 1
10
47.319637
20
33.805987
11
47.219448
21
31.824507
0
LINE
8
Layer 1
10
47.219448
20
31.824507
11
47.246259
21
29.491097
0
LINE
8
Layer 1
10
47.246259
20
29.491097
11
47.460465
21
28.111597
0
LINE
8
Layer 1
10
47.460465
20
28.111597
11
47.747485
21
27.221187
0
LINE
8
Layer 1
10
47.747485
20
27.221187
11
48.092360
21
25.926357
0
LINE
8
Layer 1
10
48.092360
20
25.926357
11
48.331684
21
24.417317
0
LINE
8
Layer 1
10
48.331684
20
24.417317
11
48.458684
21
22.915897
0
LINE
8
Layer 1
10
48.458684
20
22.915897
11
48.751913
21
21.068187
0
LINE
8
Layer 1
10
48.751913
20
21.068187
11
49.116262
21
19.824437
0
LINE
8
Layer 1
10
49.116262
20
19.824437
11
49.331597
21
19.618979
0
LINE
8
Layer 1
10
49.331597
20
19.618979
11
49.530564
21
19.557455
0
LINE
8
Layer 1
10
49.530564
20
19.557455
11
49.828026
21
19.535441
0
LINE
8
Layer 1
10
49.828026
20
19.535441
11
50.146655
21
19.549553
0
LINE
8
Layer 1
10
50.146655
20
19.549553
11
50.357475
21
19.600917
0
LINE
8
Layer 1
10
50.357475
20
19.600917
11
50.562086
21
19.723119
0
LINE
8
Layer 1
10
50.562086
20
19.723119
11
50.869990
21
19.991512
0
LINE
8
Layer 1
10
50.869990
20
19.991512
11
51.421452
21
20.685778
0
LINE
8
Layer 1
10
51.421452
20
20.685778
11
51.810636
21
21.258689
0
LINE
8
Layer 1
10
51.810636
20
21.258689
11
51.949207
21
21.553329
0
LINE
8
Layer 1
10
51.949207
20
21.553329
11
52.381007
21
22.617019
0
LINE
8
Layer 1
10
52.381007
20
22.617019
11
52.864171
21
23.988619
0
LINE
8
Layer 1
10
52.864171
20
23.988619
11
53.116477
21
25.039899
0
LINE
8
Layer 1
10
53.116477
20
25.039899
11
53.332941
21
26.519029
0
LINE
8
Layer 1
10
53.332941
20
26.519029
11
53.459376
21
28.462129
0
LINE
8
Layer 1
10
53.459376
20
28.462129
11
53.383176
21
30.178889
0
LINE
8
Layer 1
10
53.383176
20
30.178889
11
53.290607
21
31.273629
0
LINE
8
Layer 1
10
53.290607
20
31.273629
11
53.318829
21
32.252093
0
LINE
8
Layer 1
10
53.318829
20
32.252093
11
53.463891
21
33.908453
0
LINE
8
Layer 1
10
53.463891
20
33.908453
11
53.698135
21
35.639883
0
LINE
8
Layer 1
10
53.698135
20
35.639883
11
53.999548
21
36.728133
0
LINE
8
Layer 1
10
53.999548
20
36.728133
11
54.405101
21
37.571130
0
LINE
8
Layer 1
10
54.405101
20
37.571130
11
54.578950
21
37.766428
0
LINE
8
Layer 1
10
54.578950
20
37.766428
11
54.794003
21
37.979223
0
LINE
8
Layer 1
10
54.794003
20
37.979223
11
55.053083
21
38.220805
0
LINE
8
Layer 1
10
55.053083
20
38.220805
11
55.601440
21
38.689011
0
LINE
8
Layer 1
10
55.601440
20
38.689011
11
56.529950
21
39.307077
0
LINE
8
Layer 1
10
56.529950
20
39.307077
11
57.773420
21
39.802094
0
LINE
8
Layer 1
10
57.773420
20
39.802094
11
58.833730
21
40.051578
0
LINE
8
Layer 1
10
58.833730
20
40.051578
11
59.663463
21
40.103507
0
LINE
8
Layer 1
10
59.663463
20
40.103507
11
60.480213
21
40.014607
0
LINE
8
Layer 1
10
60.480213
20
40.014607
11
61.182946
21
39.794192
0
LINE
8
Layer 1
10
61.182946
20
39.794192
11
61.852094
21
39.506890
0
LINE
8
Layer 1
10
61.852094
20
39.506890
11
62.268654
21
39.257970
0
LINE
8
Layer 1
10
62.268654
20
39.257970
11
62.525758
21
38.994092
0
LINE
8
Layer 1
10
62.525758
20
38.994092
11
62.882204
21
38.463232
0
LINE
8
Layer 1
10
62.882204
20
38.463232
11
63.108546
21
38.046390
0
LINE
8
Layer 1
10
63.108546
20
38.046390
11
63.159911
21
37.813557
0
LINE
8
Layer 1
10
63.159911
20
37.813557
11
63.229055
21
37.126911
0
LINE
8
Layer 1
10
63.229055
20
37.126911
11
63.233289
21
36.219849
0
LINE
8
Layer 1
10
63.233289
20
36.219849
11
63.163015
21
35.273841
0
LINE
8
Layer 1
10
63.163015
20
35.273841
11
63.028960
21
34.283242
0
LINE
8
Layer 1
10
63.028960
20
34.283242
11
62.893493
21
33.647678
0
LINE
8
Layer 1
10
62.893493
20
33.647678
11
62.745891
21
33.019452
0
LINE
8
Layer 1
10
62.745891
20
33.019452
11
62.588411
21
32.225562
0
LINE
8
Layer 1
10
62.588411
20
32.225562
11
62.468184
21
31.393289
0
LINE
8
Layer 1
10
62.468184
20
31.393289
11
62.298286
21
29.977949
0
LINE
8
Layer 1
10
62.298286
20
29.977949
11
62.163102
21
28.140969
0
LINE
8
Layer 1
10
62.163102
20
28.140969
11
62.123309
21
25.702289
0
LINE
8
Layer 1
10
62.123309
20
25.702289
11
62.123309
21
23.879419
0
LINE
8
Layer 1
10
62.123309
20
23.879419
11
62.140807
21
23.564741
0
LINE
8
Layer 1
10
62.140807
20
23.564741
11
62.156329
21
23.241032
0
LINE
8
Layer 1
10
62.156329
20
23.241032
11
62.157458
21
22.755892
0
LINE
8
Layer 1
10
62.157458
20
22.755892
11
62.126696
21
22.215719
0
LINE
8
Layer 1
10
62.126696
20
22.215719
11
62.028482
21
21.350991
0
LINE
8
Layer 1
10
62.028482
20
21.350991
11
61.899507
21
20.597458
0
LINE
8
Layer 1
10
61.899507
20
20.597458
11
61.780409
21
20.107521
0
LINE
8
Layer 1
10
61.780409
20
20.107521
11
61.597247
21
19.427930
0
LINE
8
Layer 1
10
61.597247
20
19.427930
11
61.464038
21
18.886064
0
LINE
8
Layer 1
10
61.464038
20
18.886064
11
61.379372
21
18.403464
0
LINE
8
Layer 1
10
61.379372
20
18.403464
11
61.207781
21
17.501482
0
LINE
8
Layer 1
10
61.207781
20
17.501482
11
61.039577
21
16.607967
0
LINE
8
Layer 1
10
61.039577
20
16.607967
11
60.945032
21
15.836936
0
LINE
8
Layer 1
10
60.945032
20
15.836936
11
60.979181
21
14.980674
0
LINE
8
Layer 1
10
60.979181
20
14.980674
11
61.167988
21
14.192992
0
LINE
8
Layer 1
10
61.167988
20
14.192992
11
61.377679
21
13.656770
0
LINE
8
Layer 1
10
61.377679
20
13.656770
11
61.578339
21
13.314152
0
LINE
8
Layer 1
10
61.578339
20
13.314152
11
61.843063
21
13.081319
0
LINE
8
Layer 1
10
61.843063
20
13.081319
11
62.175521
21
12.935692
0
LINE
8
Layer 1
10
62.175521
20
12.935692
11
62.603370
21
12.835221
0
LINE
8
Layer 1
10
62.603370
20
12.835221
11
63.114756
21
12.795992
0
LINE
8
Layer 1
10
63.114756
20
12.795992
11
63.697827
21
12.784139
0
LINE
8
Layer 1
10
63.697827
20
12.784139
11
64.391529
21
12.855541
0
LINE
8
Layer 1
10
64.391529
20
12.855541
11
65.817879
21
13.220172
0
LINE
8
Layer 1
10
65.817879
20
13.220172
11
67.376029
21
13.690918
0
LINE
8
Layer 1
10
67.376029
20
13.690918
11
68.177539
21
13.992331
0
LINE
8
Layer 1
10
68.177539
20
13.992331
11
68.605670
21
14.159124
0
LINE
8
Layer 1
10
68.605670
20
14.159124
11
69.359485
21
14.502306
0
LINE
8
Layer 1
10
69.359485
20
14.502306
11
70.284326
21
14.983495
0
LINE
8
Layer 1
10
70.284326
20
14.983495
11
70.939363
21
15.393564
0
LINE
8
Layer 1
10
70.939363
20
15.393564
11
71.550374
21
15.824235
0
LINE
8
Layer 1
10
71.550374
20
15.824235
11
71.937865
21
16.150201
0
LINE
8
Layer 1
10
71.937865
20
16.150201
11
72.426109
21
16.683318
0
LINE
8
Layer 1
10
72.426109
20
16.683318
11
72.845209
21
17.184544
0
LINE
8
Layer 1
10
72.845209
20
17.184544
11
73.135051
21
17.724152
0
LINE
8
Layer 1
10
73.135051
20
17.724152
11
73.464969
21
18.467807
0
LINE
8
Layer 1
10
73.464969
20
18.467807
11
73.628658
21
19.081075
0
LINE
8
Layer 1
10
73.628658
20
19.081075
11
73.788396
21
19.926612
0
LINE
8
Layer 1
10
73.788396
20
19.926612
11
73.899309
21
20.524076
0
LINE
8
Layer 1
10
73.899309
20
20.524076
11
73.956036
21
21.035462
0
LINE
8
Layer 1
10
73.956036
20
21.035462
11
74.000627
21
22.055412
0
LINE
8
Layer 1
10
74.000627
20
22.055412
11
74.034776
21
24.003872
0
LINE
8
Layer 1
10
74.034776
20
24.003872
11
74.143714
21
26.440572
0
LINE
8
Layer 1
10
74.143714
20
26.440572
11
74.267609
21
28.337952
0
LINE
8
Layer 1
10
74.267609
20
28.337952
11
74.325746
21
30.130622
0
LINE
8
Layer 1
10
74.325746
20
30.130622
11
74.279462
21
32.013322
0
LINE
8
Layer 1
10
74.279462
20
32.013322
11
74.105049
21
33.793862
0
LINE
8
Layer 1
10
74.105049
20
33.793862
11
73.760174
21
36.839882
0
LINE
8
Layer 1
10
73.760174
20
36.839882
11
73.821981
21
38.631142
0
LINE
8
Layer 1
10
73.821981
20
38.631142
11
74.366105
21
39.695962
0
LINE
8
Layer 1
10
74.366105
20
39.695962
11
75.041180
21
40.407444
0
LINE
8
Layer 1
10
75.041180
20
40.407444
11
75.801204
21
40.706882
0
LINE
8
Layer 1
10
75.801204
20
40.706882
11
76.901874
21
40.893995
0
LINE
8
Layer 1
10
76.901874
20
40.893995
11
78.684384
21
40.840373
0
LINE
8
Layer 1
10
78.684384
20
40.840373
11
80.753634
21
40.597944
0
LINE
8
Layer 1
10
80.753634
20
40.597944
11
81.670291
21
40.419297
0
LINE
8
Layer 1
10
81.670291
20
40.419297
11
82.316579
21
40.063133
0
LINE
8
Layer 1
10
82.316579
20
40.063133
11
82.889772
21
38.685323
0
LINE
8
Layer 1
10
82.889772
20
38.685323
11
83.007176
21
37.399803
0
LINE
8
Layer 1
10
83.007176
20
37.399803
11
82.913478
21
36.250873
0
LINE
8
Layer 1
10
82.913478
20
36.250873
11
82.620814
21
34.678053
0
LINE
8
Layer 1
10
82.620814
20
34.678053
11
82.354679
21
32.862803
0
LINE
8
Layer 1
10
82.354679
20
32.862803
11
82.230501
21
31.384523
0
LINE
8
Layer 1
10
82.230501
20
31.384523
11
82.095317
21
29.373973
0
LINE
8
Layer 1
10
82.095317
20
29.373973
11
81.971986
21
27.027583
0
LINE
8
Layer 1
10
81.971986
20
27.027583
11
81.877442
21
24.769523
0
LINE
8
Layer 1
10
81.877442
20
24.769523
11
81.795879
21
22.655963
0
LINE
8
Layer 1
10
81.795879
20
22.655963
11
81.734919
21
21.179373
0
LINE
8
Layer 1
10
81.734919
20
21.179373
11
81.658719
21
18.928653
0
LINE
8
Layer 1
10
81.658719
20
18.928653
11
81.684119
21
16.526663
0
LINE
8
Layer 1
10
81.684119
20
16.526663
11
81.797572
21
14.834743
0
LINE
8
Layer 1
10
81.797572
20
14.834743
11
81.896632
21
14.306423
0
LINE
8
Layer 1
10
81.896632
20
14.306423
11
82.014883
21
14.022225
0
LINE
8
Layer 1
10
82.014883
20
14.022225
11
82.221470
21
13.900305
0
LINE
8
Layer 1
10
82.221470
20
13.900305
11
82.577634
21
13.758912
0
LINE
8
Layer 1
10
82.577634
20
13.758912
11
83.161551
21
13.585910
0
LINE
8
Layer 1
10
83.161551
20
13.585910
11
84.218471
21
13.527207
0
LINE
8
Layer 1
10
84.218471
20
13.527207
11
85.661191
21
13.706700
0
LINE
8
Layer 1
10
85.661191
20
13.706700
11
87.059321
21
13.954209
0
LINE
8
Layer 1
10
87.059321
20
13.954209
11
88.027342
21
14.030409
0
LINE
8
Layer 1
10
88.027342
20
14.030409
11
88.462246
21
13.979327
0
LINE
8
Layer 1
10
88.462246
20
13.979327
11
88.828006
21
13.851198
0
LINE
8
Layer 1
10
88.828006
20
13.851198
11
89.067330
21
13.747623
0
LINE
8
Layer 1
10
89.067330
20
13.747623
11
89.203079
21
13.678479
0
LINE
8
Layer 1
10
89.203079
20
13.678479
11
89.416721
21
13.560228
0
LINE
8
Layer 1
10
89.416721
20
13.560228
11
89.530456
21
13.461450
0
LINE
8
Layer 1
10
89.530456
20
13.461450
11
89.698660
21
11.925880
0
LINE
8
Layer 1
10
89.698660
20
11.925880
11
89.563758
21
10.480060
0
LINE
8
Layer 1
10
89.563758
20
10.480060
11
89.240049
21
9.517401
0
LINE
8
Layer 1
10
89.240049
20
9.517401
11
88.964318
21
8.943926
0
LINE
8
Layer 1
10
88.964318
20
8.943926
11
88.745314
21
8.520029
0
LINE
8
Layer 1
10
88.745314
20
8.520029
11
88.571747
21
8.289454
0
LINE
8
Layer 1
10
88.571747
20
8.289454
11
88.000530
21
7.883054
0
LINE
8
Layer 1
10
88.000530
20
7.883054
11
87.138060
21
7.556523
0
LINE
8
Layer 1
10
87.138060
20
7.556523
11
85.822620
21
7.208543
0
LINE
8
Layer 1
10
85.822620
20
7.208543
11
84.060140
21
6.895559
0
LINE
8
Layer 1
10
84.060140
20
6.895559
11
82.318550
21
6.640713
0
LINE
8
Layer 1
10
82.318550
20
6.640713
11
80.388720
21
6.477589
0
LINE
8
Layer 1
10
80.388720
20
6.477589
11
78.847510
21
6.397156
0
LINE
8
Layer 1
10
78.847510
20
6.397156
11
78.134053
21
6.396591
0
LINE
8
Layer 1
10
78.134053
20
6.396591
11
77.034233
21
6.487467
0
LINE
8
Layer 1
10
77.034233
20
6.487467
11
75.611833
21
6.790573
0
LINE
8
Layer 1
10
75.611833
20
6.790573
11
74.558303
21
7.188224
0
LINE
8
Layer 1
10
74.558303
20
7.188224
11
74.100539
21
7.513626
0
LINE
8
Layer 1
10
74.100539
20
7.513626
11
73.789813
21
7.899423
0
LINE
8
Layer 1
10
73.789813
20
7.899423
11
73.565164
21
8.312596
0
LINE
8
Layer 1
10
73.565164
20
8.312596
11
73.511542
21
8.748911
0
LINE
8
Layer 1
10
73.511542
20
8.748911
11
73.582098
21
9.408464
0
LINE
8
Layer 1
10
73.582098
20
9.408464
11
73.781065
21
10.237350
0
LINE
8
Layer 1
10
73.781065
20
10.237350
11
74.106467
21
11.222305
0
LINE
8
Layer 1
10
74.106467
20
11.222305
11
74.419451
21
12.208389
0
LINE
8
Layer 1
10
74.419451
20
12.208389
11
74.529800
21
13.046588
0
LINE
8
Layer 1
10
74.529800
20
13.046588
11
74.494240
21
13.476412
0
LINE
8
Layer 1
10
74.494240
20
13.476412
11
74.257738
21
13.477541
0
LINE
8
Layer 1
10
74.257738
20
13.477541
11
74.060747
21
13.421661
0
LINE
8
Layer 1
10
74.060747
20
13.421661
11
73.788403
21
13.327399
0
LINE
8
Layer 1
10
73.788403
20
13.327399
11
73.526501
21
13.213664
0
LINE
8
Layer 1
10
73.526501
20
13.213664
11
73.089057
21
12.858064
0
LINE
8
Layer 1
10
73.089057
20
12.858064
11
72.499213
21
12.350064
0
LINE
8
Layer 1
10
72.499213
20
12.350064
11
71.838531
21
11.763324
0
LINE
8
Layer 1
10
71.838531
20
11.763324
11
70.873332
21
10.851182
0
LINE
8
Layer 1
10
70.873332
20
10.851182
11
70.271352
21
10.266418
0
LINE
8
Layer 1
10
70.271352
20
10.266418
11
69.899101
21
9.936500
0
LINE
8
Layer 1
10
69.899101
20
9.936500
11
69.492701
21
9.556347
0
LINE
8
Layer 1
10
69.492701
20
9.556347
11
69.129199
21
9.138658
0
LINE
8
Layer 1
10
69.129199
20
9.138658
11
68.512262
21
8.400930
0
LINE
8
Layer 1
10
68.512262
20
8.400930
11
67.949511
21
7.758593
0
LINE
8
Layer 1
10
67.949511
20
7.758593
11
67.446591
21
7.241280
0
LINE
8
Layer 1
10
67.446591
20
7.241280
11
66.959194
21
6.737514
0
LINE
8
Layer 1
10
66.959194
20
6.737514
11
66.717612
21
6.515123
0
LINE
8
Layer 1
10
66.717612
20
6.515123
11
65.966901
21
6.152186
0
LINE
8
Layer 1
10
65.966901
20
6.152186
11
65.502646
21
5.968459
0
LINE
8
Layer 1
10
65.502646
20
5.968459
11
65.211111
21
5.929794
0
LINE
8
Layer 1
10
65.211111
20
5.929794
11
62.684091
21
5.530168
0
LINE
8
Layer 1
10
62.684091
20
5.530168
11
61.374021
21
5.488399
0
LINE
8
Layer 1
10
61.374021
20
5.488399
11
60.297911
21
5.498841
0
LINE
8
Layer 1
10
60.297911
20
5.498841
11
59.115681
21
5.608625
0
LINE
8
Layer 1
10
59.115681
20
5.608625
11
57.967881
21
5.798560
0
LINE
8
Layer 1
10
57.967881
20
5.798560
11
56.907291
21
5.957169
0
LINE
8
Layer 1
10
56.907291
20
5.957169
11
55.587901
21
6.204113
0
LINE
8
Layer 1
10
55.587901
20
6.204113
11
54.644433
21
6.441462
0
LINE
8
Layer 1
10
54.644433
20
6.441462
11
54.186104
21
6.652846
0
LINE
8
Layer 1
10
54.186104
20
6.652846
11
53.380078
21
7.174392
0
LINE
8
Layer 1
10
53.380078
20
7.174392
11
52.909614
21
7.565269
0
LINE
8
Layer 1
10
52.909614
20
7.565269
11
52.655614
21
9.865379
0
LINE
8
Layer 1
10
52.655614
20
9.865379
11
52.772736
21
11.654669
0
LINE
8
Layer 1
10
52.772736
20
11.654669
11
52.904816
21
12.797669
0
LINE
8
Layer 1
10
52.904816
20
12.797669
11
52.944891
21
13.370015
0
LINE
8
Layer 1
10
52.944891
20
13.370015
11
52.811682
21
14.531355
0
LINE
8
Layer 1
10
52.811682
20
14.531355
11
52.679602
21
14.798901
0
LINE
8
Layer 1
10
52.679602
20
14.798901
11
51.500482
21
15.088743
0
LINE
8
Layer 1
10
51.500482
20
15.088743
11
50.631803
21
14.993917
0
LINE
8
Layer 1
10
50.631803
20
14.993917
11
50.012890
21
14.852242
0
LINE
8
Layer 1
10
50.012890
20
14.852242
11
49.832268
21
14.768422
0
LINE
8
Layer 1
10
49.832268
20
14.768422
11
49.644026
21
14.652711
0
LINE
8
Layer 1
10
49.644026
20
14.652711
11
49.346564
21
14.379238
0
LINE
8
Layer 1
10
49.346564
20
14.379238
11
49.085791
21
14.081212
0
LINE
8
Layer 1
10
49.085791
20
14.081212
11
48.975160
21
13.839912
0
LINE
8
Layer 1
10
48.975160
20
13.839912
11
48.799336
21
13.381866
0
LINE
8
Layer 1
10
48.799336
20
13.381866
11
48.501592
21
12.305186
0
LINE
8
Layer 1
10
48.501592
20
12.305186
11
48.138937
21
10.693136
0
LINE
8
Layer 1
10
48.138937
20
10.693136
11
47.807608
21
9.436406
0
LINE
8
Layer 1
10
47.807608
20
9.436406
11
47.291706
21
8.173466
0
LINE
8
Layer 1
10
47.291706
20
8.173466
11
46.552567
21
6.640436
0
LINE
8
Layer 1
10
46.552567
20
6.640436
11
45.774763
21
5.534686
0
LINE
8
Layer 1
10
45.774763
20
5.534686
11
45.216528
21
5.044466
0
LINE
8
Layer 1
10
45.216528
20
5.044466
11
44.820571
21
4.890655
0
LINE
8
Layer 1
10
44.820571
20
4.890655
11
44.469769
21
4.811068
0
LINE
8
Layer 1
10
44.469769
20
4.811068
11
44.090463
21
4.923675
0
LINE
8
Layer 1
10
44.090463
20
4.923675
11
43.627901
21
5.158766
0
LINE
8
Layer 1
10
43.627901
20
5.158766
11
43.146995
21
5.587461
0
LINE
8
Layer 1
10
43.146995
20
5.587461
11
42.667218
21
6.193674
0
LINE
8
Layer 1
10
42.667218
20
6.193674
11
42.310772
21
6.824440
0
LINE
8
Layer 1
10
42.310772
20
6.824440
11
41.713026
21
8.264620
0
LINE
8
Layer 1
10
41.713026
20
8.264620
11
40.922804
21
10.171030
0
LINE
8
Layer 1
10
40.922804
20
10.171030
11
40.482820
21
11.146671
0
LINE
8
Layer 1
10
40.482820
20
11.146671
11
39.947445
21
12.052886
0
LINE
8
Layer 1
10
39.947445
20
12.052886
11
39.367197
21
12.889674
0
LINE
8
Layer 1
10
39.367197
20
12.889674
11
38.963055
21
13.141980
0
LINE
8
Layer 1
10
38.963055
20
13.141980
11
38.243671
21
13.364371
0
LINE
8
Layer 1
10
38.243671
20
13.364371
11
37.553638
21
13.409809
0
LINE
8
Layer 1
10
37.553638
20
13.409809
11
37.121274
21
13.312160
0
LINE
8
Layer 1
10
37.121274
20
13.312160
11
36.642625
21
13.091745
0
LINE
8
Layer 1
10
36.642625
20
13.091745
11
35.790597
21
12.014225
0
LINE
8
Layer 1
10
35.790597
20
12.014225
11
34.975822
21
10.528045
0
LINE
8
Layer 1
10
34.975822
20
10.528045
11
34.333485
21
9.136695
0
LINE
8
Layer 1
10
34.333485
20
9.136695
11
33.470732
21
7.403855
0
LINE
8
Layer 1
10
33.470732
20
7.403855
11
32.865648
21
6.295285
0
LINE
8
Layer 1
10
32.865648
20
6.295285
11
32.442033
21
5.697257
0
LINE
8
Layer 1
10
32.442033
20
5.697257
11
31.912585
21
5.115315
0
LINE
8
Layer 1
10
31.912585
20
5.115315
11
31.571661
21
4.871475
0
LINE
8
Layer 1
10
31.571661
20
4.871475
11
31.182759
21
4.700731
0
LINE
8
Layer 1
10
31.182759
20
4.700731
11
30.498088
21
4.537324
0
LINE
8
Layer 1
10
30.498088
20
4.537324
11
29.850953
21
4.533091
0
LINE
8
Layer 1
10
29.850953
20
4.533091
11
29.449633
21
4.635820
0
LINE
8
Layer 1
10
29.449633
20
4.635820
11
28.745771
21
5.112211
0
LINE
8
Layer 1
10
28.745771
20
5.112211
11
28.169474
21
5.562355
0
LINE
8
Layer 1
10
28.169474
20
5.562355
11
28.060254
21
5.660286
0
LINE
8
Layer 1
10
28.060254
20
5.660286
11
27.956679
21
5.741001
0
LINE
8
Layer 1
10
27.956679
20
5.741001
11
27.905597
21
5.779101
0
LINE
8
Layer 1
10
27.905597
20
5.779101
11
27.822059
21
5.860664
0
LINE
8
Layer 1
10
27.822059
20
5.860664
11
27.625632
21
6.103375
0
LINE
8
Layer 1
10
27.625632
20
6.103375
11
27.443599
21
6.358504
0
LINE
8
Layer 1
10
27.443599
20
6.358504
11
27.332686
21
6.529813
0
LINE
8
Layer 1
10
27.332686
20
6.529813
11
27.146419
21
6.781555
0
LINE
8
Layer 1
10
27.146419
20
6.781555
11
26.903144
21
7.121633
0
LINE
8
Layer 1
10
26.903144
20
7.121633
11
26.655353
21
7.454373
0
LINE
8
Layer 1
10
26.655353
20
7.454373
11
26.326847
21
7.745626
0
LINE
8
Layer 1
10
26.326847
20
7.745626
11
26.003985
21
7.923990
0
LINE
8
Layer 1
10
26.003985
20
7.923990
11
25.650079
21
7.970556
0
LINE
8
Layer 1
10
25.650079
20
7.970556
11
25.019313
21
7.890687
0
LINE
8
Layer 1
10
25.019313
20
7.890687
11
24.253645
21
7.579678
0
LINE
8
Layer 1
10
24.253645
20
7.579678
11
23.580828
21
7.140541
0
LINE
8
Layer 1
10
23.580828
20
7.140541
11
22.785526
21
6.512879
0
LINE
8
Layer 1
10
22.785526
20
6.512879
11
21.797749
21
5.757935
0
LINE
8
Layer 1
10
21.797749
20
5.757935
11
20.848919
21
5.087376
0
LINE
8
Layer 1
10
20.848919
20
5.087376
11
19.965282
21
4.550872
0
LINE
8
Layer 1
10
19.965282
20
4.550872
11
18.810992
21
4.071941
0
LINE
8
Layer 1
10
18.810992
20
4.071941
11
17.575422
21
3.705899
0
LINE
8
Layer 1
10
17.575422
20
3.705899
11
16.892727
21
3.588495
0
LINE
8
Layer 1
10
16.892727
20
3.588495
11
16.448792
21
3.591600
0
LINE
8
Layer 1
10
16.448792
20
3.591600
11
15.810688
21
3.698844
0
LINE
8
Layer 1
10
15.810688
20
3.698844
11
15.279546
21
3.880313
0
LINE
8
Layer 1
10
15.279546
20
3.880313
11
14.872582
21
4.180033
0
LINE
8
Layer 1
10
14.872582
20
4.180033
11
14.528553
21
4.515595
0
LINE
8
Layer 1
10
14.528553
20
4.515595
11
14.330151
21
4.901957
0
LINE
8
Layer 1
10
14.330151
20
4.901957
11
14.165898
21
5.723787
0
LINE
8
Layer 1
10
14.165898
20
5.723787
11
14.202305
21
7.438567
0
LINE
8
Layer 1
10
14.202305
20
7.438567
11
14.371920
21
9.092957
0
LINE
8
Layer 1
10
14.371920
20
9.092957
11
14.516982
21
10.317797
0
LINE
8
Layer 1
10
14.516982
20
10.317797
11
14.612655
21
11.965127
0
LINE
8
Layer 1
10
14.612655
20
11.965127
11
14.612655
21
13.352247
0
LINE
8
Layer 1
10
14.612655
20
13.352247
11
14.542100
21
14.115940
0
LINE
8
Layer 1
10
14.542100
20
14.115940
11
14.329022
21
14.843791
0
LINE
8
Layer 1
10
14.329022
20
14.843791
11
14.146989
21
15.286597
0
LINE
8
Layer 1
10
14.146989
20
15.286597
11
14.040027
21
15.416984
0
LINE
8
Layer 1
10
14.040027
20
15.416984
11
13.824409
21
15.635988
0
LINE
8
Layer 1
10
13.824409
20
15.635988
11
13.587343
21
15.796855
0
LINE
8
Layer 1
10
13.587343
20
15.796855
11
13.342092
21
15.897890
0
LINE
8
Layer 1
10
13.342092
20
15.897890
11
12.794017
21
15.937119
0
LINE
8
Layer 1
10
12.794017
20
15.937119
11
12.141238
21
15.838341
0
LINE
8
Layer 1
10
12.141238
20
15.838341
11
11.840954
21
15.700052
0
LINE
8
Layer 1
10
11.840954
20
15.700052
11
11.700407
21
15.544548
0
LINE
8
Layer 1
10
11.700407
20
15.544548
11
11.505109
21
15.193464
0
LINE
8
Layer 1
10
11.505109
20
15.193464
11
11.273687
21
14.586122
0
LINE
8
Layer 1
10
11.273687
20
14.586122
11
11.139914
21
14.122149
0
LINE
8
Layer 1
10
11.139914
20
14.122149
11
11.095323
21
13.751874
0
LINE
8
Layer 1
10
11.095323
20
13.751874
11
11.048474
21
13.064946
0
LINE
8
Layer 1
10
11.048474
20
13.064946
11
10.983563
21
12.051486
0
LINE
8
Layer 1
10
10.983563
20
12.051486
11
10.908209
21
11.106042
0
LINE
8
Layer 1
10
10.908209
20
11.106042
11
10.843580
21
10.494749
0
LINE
8
Layer 1
10
10.843580
20
10.494749
11
10.736336
21
9.580350
0
LINE
8
Layer 1
10
10.736336
20
9.580350
11
10.452138
21
7.761990
0
LINE
8
Layer 1
10
10.452138
20
7.761990
11
9.950912
21
5.826510
0
LINE
8
Layer 1
10
9.950912
20
5.826510
11
8.957773
21
4.051050
0
LINE
8
Layer 1
10
8.957773
20
4.051050
11
7.848923
21
2.771460
0
LINE
8
Layer 1
10
7.848923
20
2.771460
11
6.731893
21
2.295351
0
LINE
8
Layer 1
10
6.731893
20
2.295351
11
5.523133
21
2.040787
0
LINE
8
Layer 1
10
5.523133
20
2.040787
11
4.854831
21
2.011718
0
LINE
8
Layer 1
10
4.854831
20
2.011718
11
4.343445
21
2.119809
0
LINE
8
Layer 1
10
4.343445
20
2.119809
11
3.694052
21
2.358851
0
LINE
8
Layer 1
10
3.694052
20
2.358851
11
3.109570
21
2.719531
0
LINE
8
Layer 1
10
3.109570
20
2.719531
11
2.705146
21
3.175037
0
LINE
8
Layer 1
10
2.705146
20
3.175037
11
2.399217
21
3.893856
0
LINE
8
Layer 1
10
2.399217
20
3.893856
11
2.131671
21
4.980976
0
LINE
8
Layer 1
10
2.131671
20
4.980976
11
2.010880
21
6.218806
0
LINE
8
Layer 1
10
2.010880
20
6.218806
11
2.024992
21
7.863596
0
LINE
8
Layer 1
10
2.024992
20
7.863596
11
2.314270
21
10.641226
0
LINE
8
Layer 1
10
2.314270
20
10.641226
11
2.842590
21
13.632216
0
LINE
8
Layer 1
10
2.842590
20
13.632216
11
3.216252
21
15.391586
0
LINE
8
Layer 1
10
3.216252
20
15.391586
11
3.404776
21
16.563936
0
LINE
8
Layer 1
10
3.404776
20
16.563936
11
3.629425
21
17.985206
0
LINE
8
Layer 1
10
3.629425
20
17.985206
11
3.863951
21
20.048536
0
LINE
8
Layer 1
10
3.863951
20
20.048536
11
3.978815
21
22.020426
0
LINE
8
Layer 1
10
3.978815
20
22.020426
11
3.982766
21
23.334166
0
LINE
8
Layer 1
10
3.982766
20
23.334166
11
3.932530
21
24.885536
0
LINE
8
Layer 1
10
3.932530
20
24.885536
11
3.686997
21
27.299946
0
LINE
8
Layer 1
10
3.686997
20
27.299946
11
3.268462
21
29.786886
0
LINE
8
Layer 1
10
3.268462
20
29.786886
11
2.951809
21
31.474576
0
LINE
8
Layer 1
10
2.951809
20
31.474576
11
2.800538
21
33.060096
0
LINE
8
Layer 1
10
2.800538
20
33.060096
11
2.752843
21
34.401216
0
LINE
8
Layer 1
10
2.752843
20
34.401216
11
2.859523
21
35.413826
0
LINE
8
Layer 1
10
2.859523
20
35.413826
11
3.097436
21
36.358423
0
LINE
8
Layer 1
10
3.097436
20
36.358423
11
3.382762
21
36.985803
0
LINE
8
Layer 1
10
3.382762
20
36.985803
11
3.688691
21
37.413652
0
LINE
8
Layer 1
10
3.688691
20
37.413652
11
4.213906
21
37.870569
0
LINE
8
Layer 1
10
4.213906
20
37.870569
11
5.357186
21
38.489764
0
LINE
8
Layer 1
10
5.357186
20
38.489764
11
6.537716
21
38.944141
0
LINE
8
Layer 1
10
6.537716
20
38.944141
11
7.728126
21
39.147059
0
LINE
8
Layer 1
10
7.728126
20
39.147059
11
9.240276
21
39.171048
0
LINE
8
Layer 1
10
9.240276
20
39.171048
11
10.723636
21
38.814602
0
LINE
8
Layer 1
10
10.723636
20
38.814602
11
11.604169
21
38.419209
0
LINE
8
Layer 1
10
11.604169
20
38.419209
11
11.867200
21
38.138680
0
LINE
8
Layer 1
10
11.867200
20
38.138680
11
12.072658
21
37.849967
0
LINE
8
Layer 1
10
12.072658
20
37.849967
11
12.196836
21
37.640276
0
LINE
8
Layer 1
10
12.196836
20
37.640276
11
12.356009
21
37.255043
0
LINE
8
Layer 1
10
12.356009
20
37.255043
11
12.512924
21
36.620608
0
LINE
8
Layer 1
10
12.512924
20
36.620608
11
12.559208
21
35.380528
0
LINE
8
Layer 1
10
12.559208
20
35.380528
11
12.427693
21
33.760288
0
LINE
8
Layer 1
10
12.427693
20
33.760288
11
12.132207
21
32.181818
0
LINE
8
Layer 1
10
12.132207
20
32.181818
11
11.833334
21
30.660928
0
LINE
8
Layer 1
10
11.833334
20
30.660928
11
11.634367
21
29.716613
0
LINE
8
Layer 1
10
11.634367
20
29.716613
11
11.399276
21
28.525073
0
LINE
8
Layer 1
10
11.399276
20
28.525073
11
11.219783
21
27.255073
0
LINE
8
Layer 1
10
11.219783
20
27.255073
11
11.243208
21
26.554880
0
LINE
8
Layer 1
10
11.243208
20
26.554880
11
11.303039
21
26.177267
0
LINE
8
Layer 1
10
11.303039
20
26.177267
11
11.385447
21
26.015554
0
LINE
8
Layer 1
10
11.385447
20
26.015554
11
11.539822
21
25.785825
0
LINE
8
Layer 1
10
11.539822
20
25.785825
11
11.727217
21
25.588552
0
LINE
8
Layer 1
10
11.727217
20
25.588552
11
11.963155
21
25.373781
0
LINE
8
Layer 1
10
11.963155
20
25.373781
11
12.227033
21
25.188079
0
LINE
8
Layer 1
10
12.227033
20
25.188079
11
12.502482
21
25.081964
0
LINE
8
Layer 1
10
12.502482
20
25.081964
11
13.037857
21
25.054589
0
LINE
8
Layer 1
10
13.037857
20
25.054589
11
13.641812
21
25.103977
0
LINE
8
Layer 1
10
13.641812
20
25.103977
11
14.020554
21
25.217712
0
LINE
8
Layer 1
10
14.020554
20
25.217712
11
14.383209
21
25.488645
0
LINE
8
Layer 1
10
14.383209
20
25.488645
11
14.820371
21
26.072845
0
LINE
8
Layer 1
10
14.820371
20
26.072845
11
15.244833
21
27.030424
0
LINE
8
Layer 1
10
15.244833
20
27.030424
11
15.531006
21
28.297034
0
LINE
8
Layer 1
10
15.531006
20
28.297034
11
15.633453
21
29.195629
0
LINE
8
Layer 1
10
15.633453
20
29.195629
11
15.638816
21
29.763460
0
LINE
8
Layer 1
10
15.638816
20
29.763460
11
15.644742
21
30.737126
0
LINE
8
Layer 1
10
15.644742
20
30.737126
11
15.637405
21
32.435816
0
LINE
8
Layer 1
10
15.637405
20
32.435816
11
15.642202
21
34.023316
0
LINE
8
Layer 1
10
15.642202
20
34.023316
11
15.835242
21
35.489456
0
LINE
8
Layer 1
10
15.835242
20
35.489456
11
16.036749
21
36.504886
0
LINE
8
Layer 1
10
16.036749
20
36.504886
11
16.162620
21
36.789648
0
LINE
8
Layer 1
10
16.162620
20
36.789648
11
16.402509
21
37.274788
0
LINE
8
Layer 1
10
16.402509
20
37.274788
11
16.855475
21
37.875921
0
LINE
8
Layer 1
10
16.855475
20
37.875921
11
17.465921
21
38.479312
0
LINE
8
Layer 1
10
17.465921
20
38.479312
11
17.993958
21
38.845636
0
LINE
8
Layer 1
10
17.993958
20
38.845636
11
18.462164
21
39.038676
0
LINE
8
Layer 1
10
18.462164
20
39.038676
11
19.195095
21
39.204623
0
LINE
8
Layer 1
10
19.195095
20
39.204623
11
20.088610
21
39.322874
0
LINE
8
Layer 1
10
20.088610
20
39.322874
11
20.892943
21
39.317230
0
LINE
8
Layer 1
10
20.892943
20
39.317230
11
21.534151
21
39.225226
0
LINE
8
Layer 1
10
21.534151
20
39.225226
11
22.160119
21
39.042064
0
LINE
8
Layer 1
10
22.160119
20
39.042064
11
22.884018
21
38.797942
0
LINE
8
Layer 1
10
22.884018
20
38.797942
11
23.360409
21
38.587122
0
LINE
8
Layer 1
10
23.360409
20
38.587122
11
23.777533
21
38.296433
0
LINE
8
Layer 1
10
23.777533
20
38.296433
11
24.171233
21
37.971313
0
LINE
8
Layer 1
10
24.171233
20
37.971313
11
24.602468
21
37.465289
0
LINE
8
Layer 1
10
24.602468
20
37.465289
11
24.964841
21
36.992567
0
LINE
8
Layer 1
10
24.964841
20
36.992567
11
25.074061
21
36.733205
0
LINE
8
Layer 1
10
25.074061
20
36.733205
11
25.167195
21
36.431510
0
LINE
8
Layer 1
10
25.167195
20
36.431510
11
25.292219
21
35.677977
0
LINE
8
Layer 1
10
25.292219
20
35.677977
11
25.389021
21
34.887755
0
LINE
8
Layer 1
10
25.389021
20
34.887755
11
25.374910
21
34.430273
0
LINE
8
Layer 1
10
25.374910
20
34.430273
11
25.288550
21
33.550023
0
LINE
8
Layer 1
10
25.288550
20
33.550023
11
25.190054
21
32.699124
0
LINE
8
Layer 1
10
25.190054
20
32.699124
11
25.111879
21
32.147380
0
LINE
8
Layer 1
10
25.111879
20
32.147380
11
24.978388
21
31.449163
0
LINE
8
Layer 1
10
24.978388
20
31.449163
11
24.802564
21
30.527990
0
LINE
8
Layer 1
10
24.802564
20
30.527990
11
24.600211
21
29.256860
0
LINE
8
Layer 1
10
24.600211
20
29.256860
11
24.372458
21
27.750080
0
LINE
8
Layer 1
10
24.372458
20
27.750080
11
24.215825
21
26.602000
0
LINE
8
Layer 1
10
24.215825
20
26.602000
11
24.055523
21
25.309990
0
LINE
8
Layer 1
10
24.055523
20
25.309990
11
23.867281
21
24.039710
0
LINE
8
Layer 1
10
23.867281
20
24.039710
11
23.720808
21
23.184577
0
LINE
8
Layer 1
10
23.720808
20
23.184577
11
23.507166
21
21.979767
0
LINE
8
Layer 1
10
23.507166
20
21.979767
11
23.246675
21
20.817857
0
LINE
8
Layer 1
10
23.246675
20
20.817857
11
22.954575
21
19.687277
0
LINE
8
Layer 1
10
22.954575
20
19.687277
11
22.671224
21
18.384827
0
LINE
8
Layer 1
10
22.671224
20
18.384827
11
22.421175
21
17.091407
0
LINE
8
Layer 1
10
22.421175
20
17.091407
11
22.237731
21
15.890267
0
LINE
8
Layer 1
10
22.237731
20
15.890267
11
22.218822
21
14.569467
0
LINE
8
Layer 1
10
22.218822
20
14.569467
11
22.263413
21
13.666357
0
LINE
8
Layer 1
10
22.263413
20
13.666357
11
22.467177
21
13.024020
0
LINE
8
Layer 1
10
22.467177
20
13.024020
11
22.816850
21
12.165501
0
LINE
8
Layer 1
10
22.816850
20
12.165501
11
23.069439
21
11.750917
0
LINE
8
Layer 1
10
23.069439
20
11.750917
11
23.362385
21
11.534453
0
LINE
8
Layer 1
10
23.362385
20
11.534453
11
23.712058
21
11.338873
0
LINE
8
Layer 1
10
23.712058
20
11.338873
11
23.919491
21
11.245175
0
LINE
8
Layer 1
10
23.919491
20
11.245175
11
24.098420
21
11.218082
0
LINE
8
Layer 1
10
24.098420
20
11.218082
11
24.323351
21
11.214977
0
LINE
8
Layer 1
10
24.323351
20
11.214977
11
24.511875
21
11.237273
0
LINE
8
Layer 1
10
24.511875
20
11.237273
11
24.801999
21
11.299644
0
LINE
8
Layer 1
10
24.801999
20
11.299644
11
25.244805
21
11.411122
0
LINE
8
Layer 1
10
25.244805
20
11.411122
11
25.244800
21
11.411100
0
LINE
8
Layer 1
10
39.553500
20
29.374800
11
39.353687
21
29.490511
0
LINE
8
Layer 1
10
39.353687
20
29.490511
11
39.157543
21
29.498413
0
LINE
8
Layer 1
10
39.157543
20
29.498413
11
38.886328
21
29.492769
0
LINE
8
Layer 1
10
38.886328
20
29.492769
11
38.698368
21
29.438300
0
LINE
8
Layer 1
10
38.698368
20
29.438300
11
38.519721
21
29.277151
0
LINE
8
Layer 1
10
38.519721
20
29.277151
11
38.324706
21
29.007911
0
LINE
8
Layer 1
10
38.324706
20
29.007911
11
38.102597
21
28.543374
0
LINE
8
Layer 1
10
38.102597
20
28.543374
11
37.901090
21
27.755410
0
LINE
8
Layer 1
10
37.901090
20
27.755410
11
37.801748
21
26.649950
0
LINE
8
Layer 1
10
37.801748
20
26.649950
11
37.769575
21
25.577790
0
LINE
8
Layer 1
10
37.769575
20
25.577790
11
37.748690
21
24.758782
0
LINE
8
Layer 1
10
37.748690
20
24.758782
11
37.696479
21
24.009765
0
LINE
8
Layer 1
10
37.696479
20
24.009765
11
37.651606
21
23.599132
0
LINE
8
Layer 1
10
37.651606
20
23.599132
11
37.585001
21
23.251152
0
LINE
8
Layer 1
10
37.585001
20
23.251152
11
37.450663
21
22.710415
0
LINE
8
Layer 1
10
37.450663
20
22.710415
11
37.345394
21
22.386424
0
LINE
8
Layer 1
10
37.345394
20
22.386424
11
37.200896
21
22.027155
0
LINE
8
Layer 1
10
37.200896
20
22.027155
11
36.757525
21
20.623105
0
LINE
8
Layer 1
10
36.757525
20
20.623105
11
36.860818
21
20.462238
0
LINE
8
Layer 1
10
36.860818
20
20.462238
11
37.168722
21
20.184814
0
LINE
8
Layer 1
10
37.168722
20
20.184814
11
37.458846
21
20.006450
0
LINE
8
Layer 1
10
37.458846
20
20.006450
11
37.937212
21
19.892997
0
LINE
8
Layer 1
10
37.937212
20
19.892997
11
38.610029
21
19.771077
0
LINE
8
Layer 1
10
38.610029
20
19.771077
11
39.261962
21
19.748217
0
LINE
8
Layer 1
10
39.261962
20
19.748217
11
39.936473
21
19.794219
0
LINE
8
Layer 1
10
39.936473
20
19.794219
11
40.435441
21
19.856026
0
LINE
8
Layer 1
10
40.435441
20
19.856026
11
40.871756
21
19.973713
0
LINE
8
Layer 1
10
40.871756
20
19.973713
11
41.184740
21
20.088295
0
LINE
8
Layer 1
10
41.184740
20
20.088295
11
41.453133
21
20.197515
0
LINE
8
Layer 1
10
41.453133
20
20.197515
11
41.685402
21
20.308428
0
LINE
8
Layer 1
10
41.685402
20
20.308428
11
41.823126
21
20.416237
0
LINE
8
Layer 1
10
41.823126
20
20.416237
11
42.118612
21
20.664028
0
LINE
8
Layer 1
10
42.118612
20
20.664028
11
42.293307
21
21.119534
0
LINE
8
Layer 1
10
42.293307
20
21.119534
11
42.315603
21
21.720102
0
LINE
8
Layer 1
10
42.315603
20
21.720102
11
42.205254
21
22.462346
0
LINE
8
Layer 1
10
42.205254
20
22.462346
11
42.011650
21
22.964137
0
LINE
8
Layer 1
10
42.011650
20
22.964137
11
41.827923
21
23.276275
0
LINE
8
Layer 1
10
41.827923
20
23.276275
11
41.656050
21
23.539588
0
LINE
8
Layer 1
10
41.656050
20
23.539588
11
41.477968
21
23.827454
0
LINE
8
Layer 1
10
41.477968
20
23.827454
11
41.320206
21
24.131407
0
LINE
8
Layer 1
10
41.320206
20
24.131407
11
41.234128
21
24.671015
0
LINE
8
Layer 1
10
41.234128
20
24.671015
11
41.273357
21
25.377417
0
LINE
8
Layer 1
10
41.273357
20
25.377417
11
41.532719
21
26.351930
0
LINE
8
Layer 1
10
41.532719
20
26.351930
11
41.765552
21
27.145538
0
LINE
8
Layer 1
10
41.765552
20
27.145538
11
41.809297
21
27.650715
0
LINE
8
Layer 1
10
41.809297
20
27.650715
11
41.813248
21
28.181010
0
LINE
8
Layer 1
10
41.813248
20
28.181010
11
41.745232
21
28.562292
0
LINE
8
Layer 1
10
41.745232
20
28.562292
11
41.667621
21
28.818550
0
LINE
8
Layer 1
10
41.667621
20
28.818550
11
41.477686
21
29.027394
0
LINE
8
Layer 1
10
41.477686
20
29.027394
11
41.171757
21
29.271516
0
LINE
8
Layer 1
10
41.171757
20
29.271516
11
40.952753
21
29.361827
0
LINE
8
Layer 1
10
40.952753
20
29.361827
11
40.713711
21
29.386662
0
LINE
8
Layer 1
10
40.713711
20
29.386662
11
39.774194
21
29.235391
0
LINE
8
Layer 1
10
39.774194
20
29.235391
11
39.553496
21
29.374809
0
LINE
8
Layer 1
10
39.553496
20
29.374809
11
39.553500
21
29.374800
 0 
ENDSEC
 0 
EOF