999
"DXF R12 Output" (www.mydxf.blogspot.com)
 0 
SECTION
 2 
HEADER
 9 
$ACADVER
 1 
AC1009
 9 
$EXTMIN
 10 
 0 
 20 
 0 
 9 
$EXTMAX
 10 
 8.5 
 20 
 11 
 0 
ENDSEC
 0 
SECTION
 2 
ENTITIES
0
LINE
8
Layer 1
10
201.274000
20
113.028000
11
201.994000
21
113.719000
0
LINE
8
Layer 1
10
201.994000
20
113.719000
11
202.395000
21
117.656000
0
LINE
8
Layer 1
10
202.395000
20
117.656000
11
202.499000
21
118.602000
0
LINE
8
Layer 1
10
202.499000
20
118.602000
11
202.545000
21
119.469000
0
LINE
8
Layer 1
10
202.545000
20
119.469000
11
202.406000
21
120.854000
0
LINE
8
Layer 1
10
202.406000
20
120.854000
11
202.137000
21
122.910000
0
LINE
8
Layer 1
10
202.137000
20
122.910000
11
201.904000
21
125.018000
0
LINE
8
Layer 1
10
201.904000
20
125.018000
11
201.816000
21
125.959000
0
LINE
8
Layer 1
10
201.816000
20
125.959000
11
201.834000
21
127.066000
0
LINE
8
Layer 1
10
201.834000
20
127.066000
11
201.889000
21
129.394000
0
LINE
8
Layer 1
10
201.889000
20
129.394000
11
201.918000
21
130.915000
0
LINE
8
Layer 1
10
201.918000
20
130.915000
11
201.922000
21
131.155000
0
LINE
8
Layer 1
10
201.922000
20
131.155000
11
201.897000
21
131.322000
0
LINE
8
Layer 1
10
201.897000
20
131.322000
11
201.869000
21
131.701000
0
LINE
8
Layer 1
10
201.869000
20
131.701000
11
201.851000
21
132.359000
0
LINE
8
Layer 1
10
201.851000
20
132.359000
11
201.858000
21
133.307000
0
LINE
8
Layer 1
10
201.858000
20
133.307000
11
201.912000
21
134.682000
0
LINE
8
Layer 1
10
201.912000
20
134.682000
11
202.044000
21
136.581000
0
LINE
8
Layer 1
10
202.044000
20
136.581000
11
202.199000
21
138.538000
0
LINE
8
Layer 1
10
202.199000
20
138.538000
11
202.326000
21
140.381000
0
LINE
8
Layer 1
10
202.326000
20
140.381000
11
202.384000
21
141.781000
0
LINE
8
Layer 1
10
202.384000
20
141.781000
11
202.343000
21
142.626000
0
LINE
8
Layer 1
10
202.343000
20
142.626000
11
202.293000
21
143.248000
0
LINE
8
Layer 1
10
202.293000
20
143.248000
11
202.280000
21
143.677000
0
LINE
8
Layer 1
10
202.280000
20
143.677000
11
202.307000
21
144.423000
0
LINE
8
Layer 1
10
202.307000
20
144.423000
11
202.359000
21
145.293000
0
LINE
8
Layer 1
10
202.359000
20
145.293000
11
202.414000
21
146.242000
0
LINE
8
Layer 1
10
202.414000
20
146.242000
11
202.464000
21
147.504000
0
LINE
8
Layer 1
10
202.464000
20
147.504000
11
202.512000
21
148.583000
0
LINE
8
Layer 1
10
202.512000
20
148.583000
11
202.639000
21
149.568000
0
LINE
8
Layer 1
10
202.639000
20
149.568000
11
202.777000
21
150.538000
0
LINE
8
Layer 1
10
202.777000
20
150.538000
11
202.921000
21
151.619000
0
LINE
8
Layer 1
10
202.921000
20
151.619000
11
203.437000
21
153.666000
0
LINE
8
Layer 1
10
203.437000
20
153.666000
11
204.098000
21
155.530000
0
LINE
8
Layer 1
10
204.098000
20
155.530000
11
204.643000
21
156.459000
0
LINE
8
Layer 1
10
204.643000
20
156.459000
11
205.211000
21
157.209000
0
LINE
8
Layer 1
10
205.211000
20
157.209000
11
205.684000
21
157.709000
0
LINE
8
Layer 1
10
205.684000
20
157.709000
11
206.435000
21
158.286000
0
LINE
8
Layer 1
10
206.435000
20
158.286000
11
207.754000
21
158.959000
0
LINE
8
Layer 1
10
207.754000
20
158.959000
11
208.891000
21
159.303000
0
LINE
8
Layer 1
10
208.891000
20
159.303000
11
210.605000
21
159.139000
0
LINE
8
Layer 1
10
210.605000
20
159.139000
11
212.207000
21
158.813000
0
LINE
8
Layer 1
10
212.207000
20
158.813000
11
213.183000
21
158.276000
0
LINE
8
Layer 1
10
213.183000
20
158.276000
11
214.564000
21
157.223000
0
LINE
8
Layer 1
10
214.564000
20
157.223000
11
215.432000
21
156.305000
0
LINE
8
Layer 1
10
215.432000
20
156.305000
11
215.852000
21
155.608000
0
LINE
8
Layer 1
10
215.852000
20
155.608000
11
216.085000
21
155.131000
0
LINE
8
Layer 1
10
216.085000
20
155.131000
11
216.231000
21
154.531000
0
LINE
8
Layer 1
10
216.231000
20
154.531000
11
216.360000
21
153.687000
0
LINE
8
Layer 1
10
216.360000
20
153.687000
11
216.333000
21
152.938000
0
LINE
8
Layer 1
10
216.333000
20
152.938000
11
216.233000
21
152.058000
0
LINE
8
Layer 1
10
216.233000
20
152.058000
11
216.146000
21
151.412000
0
LINE
8
Layer 1
10
216.146000
20
151.412000
11
216.119000
21
151.077000
0
LINE
8
Layer 1
10
216.119000
20
151.077000
11
216.112000
21
150.796000
0
LINE
8
Layer 1
10
216.112000
20
150.796000
11
216.151000
21
150.227000
0
LINE
8
Layer 1
10
216.151000
20
150.227000
11
216.241000
21
149.359000
0
LINE
8
Layer 1
10
216.241000
20
149.359000
11
216.309000
21
148.688000
0
LINE
8
Layer 1
10
216.309000
20
148.688000
11
216.308000
21
147.278000
0
LINE
8
Layer 1
10
216.308000
20
147.278000
11
216.075000
21
145.258000
0
LINE
8
Layer 1
10
216.075000
20
145.258000
11
215.737000
21
143.982000
0
LINE
8
Layer 1
10
215.737000
20
143.982000
11
215.487000
21
143.086000
0
LINE
8
Layer 1
10
215.487000
20
143.086000
11
215.133000
21
141.794000
0
LINE
8
Layer 1
10
215.133000
20
141.794000
11
214.709000
21
140.059000
0
LINE
8
Layer 1
10
214.709000
20
140.059000
11
214.445000
21
138.803000
0
LINE
8
Layer 1
10
214.445000
20
138.803000
11
214.304000
21
138.050000
0
LINE
8
Layer 1
10
214.304000
20
138.050000
11
214.195000
21
137.460000
0
LINE
8
Layer 1
10
214.195000
20
137.460000
11
214.142000
21
137.067000
0
LINE
8
Layer 1
10
214.142000
20
137.067000
11
214.096000
21
136.620000
0
LINE
8
Layer 1
10
214.096000
20
136.620000
11
214.064000
21
135.711000
0
LINE
8
Layer 1
10
214.064000
20
135.711000
11
214.081000
21
134.636000
0
LINE
8
Layer 1
10
214.081000
20
134.636000
11
214.160000
21
133.532000
0
LINE
8
Layer 1
10
214.160000
20
133.532000
11
214.273000
21
132.586000
0
LINE
8
Layer 1
10
214.273000
20
132.586000
11
214.401000
21
131.970000
0
LINE
8
Layer 1
10
214.401000
20
131.970000
11
214.637000
21
130.255000
0
LINE
8
Layer 1
10
214.637000
20
130.255000
11
214.629000
21
128.650000
0
LINE
8
Layer 1
10
214.629000
20
128.650000
11
214.563000
21
127.802000
0
LINE
8
Layer 1
10
214.563000
20
127.802000
11
214.413000
21
126.822000
0
LINE
8
Layer 1
10
214.413000
20
126.822000
11
214.185000
21
125.864000
0
LINE
8
Layer 1
10
214.185000
20
125.864000
11
213.776000
21
124.419000
0
LINE
8
Layer 1
10
213.776000
20
124.419000
11
213.422000
21
123.165000
0
LINE
8
Layer 1
10
213.422000
20
123.165000
11
213.242000
21
122.394000
0
LINE
8
Layer 1
10
213.242000
20
122.394000
11
213.057000
21
121.231000
0
LINE
8
Layer 1
10
213.057000
20
121.231000
11
212.958000
21
119.919000
0
LINE
8
Layer 1
10
212.958000
20
119.919000
11
212.955000
21
118.956000
0
LINE
8
Layer 1
10
212.955000
20
118.956000
11
213.138000
21
116.171000
0
LINE
8
Layer 1
10
213.138000
20
116.171000
11
213.417000
21
114.466000
0
LINE
8
Layer 1
10
213.417000
20
114.466000
11
213.476000
21
114.107000
0
LINE
8
Layer 1
10
213.476000
20
114.107000
11
213.612000
21
113.356000
0
LINE
8
Layer 1
10
213.612000
20
113.356000
11
213.950000
21
112.106000
0
LINE
8
Layer 1
10
213.950000
20
112.106000
11
214.943000
21
110.764000
0
LINE
8
Layer 1
10
214.943000
20
110.764000
11
215.385000
21
110.372000
0
LINE
8
Layer 1
10
215.385000
20
110.372000
11
216.163000
21
109.903000
0
LINE
8
Layer 1
10
216.163000
20
109.903000
11
217.187000
21
109.414000
0
LINE
8
Layer 1
10
217.187000
20
109.414000
11
218.403000
21
109.068000
0
LINE
8
Layer 1
10
218.403000
20
109.068000
11
220.042000
21
108.827000
0
LINE
8
Layer 1
10
220.042000
20
108.827000
11
221.623000
21
108.730000
0
LINE
8
Layer 1
10
221.623000
20
108.730000
11
222.883000
21
108.676000
0
LINE
8
Layer 1
10
222.883000
20
108.676000
11
224.356000
21
108.575000
0
LINE
8
Layer 1
10
224.356000
20
108.575000
11
225.984000
21
108.388000
0
LINE
8
Layer 1
10
225.984000
20
108.388000
11
227.112000
21
108.198000
0
LINE
8
Layer 1
10
227.112000
20
108.198000
11
228.632000
21
107.870000
0
LINE
8
Layer 1
10
228.632000
20
107.870000
11
228.939000
21
107.648000
0
LINE
8
Layer 1
10
228.939000
20
107.648000
11
229.001000
21
109.757000
0
LINE
8
Layer 1
10
229.001000
20
109.757000
11
228.996000
21
111.605000
0
LINE
8
Layer 1
10
228.996000
20
111.605000
11
228.933000
21
113.043000
0
LINE
8
Layer 1
10
228.933000
20
113.043000
11
228.701000
21
114.789000
0
LINE
8
Layer 1
10
228.701000
20
114.789000
11
228.353000
21
116.992000
0
LINE
8
Layer 1
10
228.353000
20
116.992000
11
227.941000
21
119.114000
0
LINE
8
Layer 1
10
227.941000
20
119.114000
11
227.385000
21
121.765000
0
LINE
8
Layer 1
10
227.385000
20
121.765000
11
227.011000
21
124.419000
0
LINE
8
Layer 1
10
227.011000
20
124.419000
11
227.025125
21
125.715000
0
LINE
8
Layer 1
10
227.025125
20
125.715000
11
227.229000
21
127.104000
0
LINE
8
Layer 1
10
227.229000
20
127.104000
11
227.584375
21
128.387500
0
LINE
8
Layer 1
10
227.584375
20
128.387500
11
228.053000
21
129.368000
0
LINE
8
Layer 1
10
228.053000
20
129.368000
11
229.074000
21
130.820000
0
LINE
8
Layer 1
10
229.074000
20
130.820000
11
230.084000
21
132.154000
0
LINE
8
Layer 1
10
230.084000
20
132.154000
11
230.788000
21
133.305000
0
LINE
8
Layer 1
10
230.788000
20
133.305000
11
231.001000
21
134.049000
0
LINE
8
Layer 1
10
231.001000
20
134.049000
11
230.979000
21
134.503000
0
LINE
8
Layer 1
10
230.979000
20
134.503000
11
230.862000
21
134.789000
0
LINE
8
Layer 1
10
230.862000
20
134.789000
11
230.698000
21
135.064000
0
LINE
8
Layer 1
10
230.698000
20
135.064000
11
230.416000
21
135.614000
0
LINE
8
Layer 1
10
230.416000
20
135.614000
11
230.162000
21
136.214000
0
LINE
8
Layer 1
10
230.162000
20
136.214000
11
230.042000
21
136.731000
0
LINE
8
Layer 1
10
230.042000
20
136.731000
11
229.972000
21
137.463000
0
LINE
8
Layer 1
10
229.972000
20
137.463000
11
229.996000
21
138.229000
0
LINE
8
Layer 1
10
229.996000
20
138.229000
11
230.183000
21
139.216000
0
LINE
8
Layer 1
10
230.183000
20
139.216000
11
230.700000
21
140.837000
0
LINE
8
Layer 1
10
230.700000
20
140.837000
11
231.451000
21
142.626000
0
LINE
8
Layer 1
10
231.451000
20
142.626000
11
232.384000
21
144.315000
0
LINE
8
Layer 1
10
232.384000
20
144.315000
11
233.347000
21
145.784000
0
LINE
8
Layer 1
10
233.347000
20
145.784000
11
234.485000
21
147.240000
0
LINE
8
Layer 1
10
234.485000
20
147.240000
11
235.695000
21
148.587000
0
LINE
8
Layer 1
10
235.695000
20
148.587000
11
236.419000
21
149.217000
0
LINE
8
Layer 1
10
236.419000
20
149.217000
11
236.877000
21
149.516000
0
LINE
8
Layer 1
10
236.877000
20
149.516000
11
237.671000
21
149.922000
0
LINE
8
Layer 1
10
237.671000
20
149.922000
11
238.686000
21
150.352000
0
LINE
8
Layer 1
10
238.686000
20
150.352000
11
239.448000
21
150.573000
0
LINE
8
Layer 1
10
239.448000
20
150.573000
11
240.094000
21
150.685000
0
LINE
8
Layer 1
10
240.094000
20
150.685000
11
242.222000
21
150.800000
0
LINE
8
Layer 1
10
242.222000
20
150.800000
11
243.118000
21
150.739000
0
LINE
8
Layer 1
10
243.118000
20
150.739000
11
243.554000
21
150.701000
0
LINE
8
Layer 1
10
243.554000
20
150.701000
11
244.589000
21
150.620000
0
LINE
8
Layer 1
10
244.589000
20
150.620000
11
246.110000
21
150.466000
0
LINE
8
Layer 1
10
246.110000
20
150.466000
11
247.163000
21
150.342000
0
LINE
8
Layer 1
10
247.163000
20
150.342000
11
248.064000
21
150.160000
0
LINE
8
Layer 1
10
248.064000
20
150.160000
11
249.899000
21
149.627000
0
LINE
8
Layer 1
10
249.899000
20
149.627000
11
253.112000
21
148.085000
0
LINE
8
Layer 1
10
253.112000
20
148.085000
11
255.586000
21
146.590000
0
LINE
8
Layer 1
10
255.586000
20
146.590000
11
256.264000
21
145.918000
0
LINE
8
Layer 1
10
256.264000
20
145.918000
11
257.053000
21
144.947000
0
LINE
8
Layer 1
10
257.053000
20
144.947000
11
258.110000
21
143.770000
0
LINE
8
Layer 1
10
258.110000
20
143.770000
11
258.788000
21
143.005000
0
LINE
8
Layer 1
10
258.788000
20
143.005000
11
260.136000
21
141.556000
0
LINE
8
Layer 1
10
260.136000
20
141.556000
11
260.225000
21
141.166000
0
LINE
8
Layer 1
10
260.225000
20
141.166000
11
260.235000
21
140.432000
0
LINE
8
Layer 1
10
260.235000
20
140.432000
11
260.223000
21
139.656000
0
LINE
8
Layer 1
10
260.223000
20
139.656000
11
260.294000
21
139.235000
0
LINE
8
Layer 1
10
260.294000
20
139.235000
11
260.515000
21
138.739000
0
LINE
8
Layer 1
10
260.515000
20
138.739000
11
260.721000
21
138.258000
0
LINE
8
Layer 1
10
260.721000
20
138.258000
11
260.952000
21
137.636000
0
LINE
8
Layer 1
10
260.952000
20
137.636000
11
261.225000
21
136.217000
0
LINE
8
Layer 1
10
261.225000
20
136.217000
11
261.317000
21
135.422000
0
LINE
8
Layer 1
10
261.317000
20
135.422000
11
261.307000
21
134.205000
0
LINE
8
Layer 1
10
261.307000
20
134.205000
11
261.182000
21
132.005000
0
LINE
8
Layer 1
10
261.182000
20
132.005000
11
261.009000
21
130.148000
0
LINE
8
Layer 1
10
261.009000
20
130.148000
11
260.904000
21
129.179000
0
LINE
8
Layer 1
10
260.904000
20
129.179000
11
260.822000
21
128.381000
0
LINE
8
Layer 1
10
260.822000
20
128.381000
11
260.721000
21
127.512000
0
LINE
8
Layer 1
10
260.721000
20
127.512000
11
260.613000
21
126.773000
0
LINE
8
Layer 1
10
260.613000
20
126.773000
11
260.463000
21
125.858000
0
LINE
8
Layer 1
10
260.463000
20
125.858000
11
260.265000
21
124.472000
0
LINE
8
Layer 1
10
260.265000
20
124.472000
11
260.140000
21
123.093000
0
LINE
8
Layer 1
10
260.140000
20
123.093000
11
260.125000
21
122.337000
0
LINE
8
Layer 1
10
260.125000
20
122.337000
11
260.206000
21
121.592000
0
LINE
8
Layer 1
10
260.206000
20
121.592000
11
260.370000
21
120.568000
0
LINE
8
Layer 1
10
260.370000
20
120.568000
11
260.525000
21
119.780000
0
LINE
8
Layer 1
10
260.525000
20
119.780000
11
260.860000
21
118.271000
0
LINE
8
Layer 1
10
260.860000
20
118.271000
11
261.338000
21
116.418000
0
LINE
8
Layer 1
10
261.338000
20
116.418000
11
261.807000
21
115.016000
0
LINE
8
Layer 1
10
261.807000
20
115.016000
11
262.153000
21
114.073000
0
LINE
8
Layer 1
10
262.153000
20
114.073000
11
262.585000
21
113.073000
0
LINE
8
Layer 1
10
262.585000
20
113.073000
11
263.068000
21
111.911000
0
LINE
8
Layer 1
10
263.068000
20
111.911000
11
263.267000
21
111.345000
0
LINE
8
Layer 1
10
263.267000
20
111.345000
11
263.416000
21
110.776000
0
LINE
8
Layer 1
10
263.416000
20
110.776000
11
263.561000
21
109.938000
0
LINE
8
Layer 1
10
263.561000
20
109.938000
11
263.625000
21
108.772000
0
LINE
8
Layer 1
10
263.625000
20
108.772000
11
263.499000
21
106.895000
0
LINE
8
Layer 1
10
263.499000
20
106.895000
11
263.394000
21
105.837000
0
LINE
8
Layer 1
10
263.394000
20
105.837000
11
263.179000
21
104.873000
0
LINE
8
Layer 1
10
263.179000
20
104.873000
11
262.894000
21
103.763000
0
LINE
8
Layer 1
10
262.894000
20
103.763000
11
262.696000
21
103.039000
0
LINE
8
Layer 1
10
262.696000
20
103.039000
11
262.494000
21
102.264000
0
LINE
8
Layer 1
10
262.494000
20
102.264000
11
262.313000
21
101.590000
0
LINE
8
Layer 1
10
262.313000
20
101.590000
11
261.806000
21
100.318000
0
LINE
8
Layer 1
10
261.806000
20
100.318000
11
261.153000
21
98.956200
0
LINE
8
Layer 1
10
261.153000
20
98.956200
11
260.815000
21
98.458700
0
LINE
8
Layer 1
10
260.815000
20
98.458700
11
260.394000
21
98.001700
0
LINE
8
Layer 1
10
260.394000
20
98.001700
11
259.674000
21
97.386500
0
LINE
8
Layer 1
10
259.674000
20
97.386500
11
258.450000
21
96.592600
0
LINE
8
Layer 1
10
258.450000
20
96.592600
11
256.507000
21
95.465700
0
LINE
8
Layer 1
10
256.507000
20
95.465700
11
254.069000
21
93.899900
0
LINE
8
Layer 1
10
254.069000
20
93.899900
11
253.458000
21
93.259800
0
LINE
8
Layer 1
10
253.458000
20
93.259800
11
253.037000
21
92.703300
0
LINE
8
Layer 1
10
253.037000
20
92.703300
11
252.573000
21
92.101900
0
LINE
8
Layer 1
10
252.573000
20
92.101900
11
252.332000
21
91.860000
0
LINE
8
Layer 1
10
252.332000
20
91.860000
11
252.037000
21
91.628900
0
LINE
8
Layer 1
10
252.037000
20
91.628900
11
251.692000
21
91.423700
0
LINE
8
Layer 1
10
251.692000
20
91.423700
11
251.292000
21
91.263100
0
LINE
8
Layer 1
10
251.292000
20
91.263100
11
250.849000
21
91.149100
0
LINE
8
Layer 1
10
250.849000
20
91.149100
11
250.136000
21
91.102000
0
LINE
8
Layer 1
10
250.136000
20
91.102000
11
248.795000
21
91.223600
0
LINE
8
Layer 1
10
248.795000
20
91.223600
11
247.616000
21
91.396100
0
LINE
8
Layer 1
10
247.616000
20
91.396100
11
246.701000
21
91.499900
0
LINE
8
Layer 1
10
246.701000
20
91.499900
11
245.487000
21
91.648100
0
LINE
8
Layer 1
10
245.487000
20
91.648100
11
244.051000
21
91.924900
0
LINE
8
Layer 1
10
244.051000
20
91.924900
11
242.269000
21
92.509700
0
LINE
8
Layer 1
10
242.269000
20
92.509700
11
240.182000
21
93.674100
0
LINE
8
Layer 1
10
240.182000
20
93.674100
11
238.657000
21
94.878100
0
LINE
8
Layer 1
10
238.657000
20
94.878100
11
238.082000
21
95.542700
0
LINE
8
Layer 1
10
238.082000
20
95.542700
11
237.574000
21
96.384000
0
LINE
8
Layer 1
10
237.574000
20
96.384000
11
236.781000
21
98.062100
0
LINE
8
Layer 1
10
236.781000
20
98.062100
11
236.544000
21
98.401100
0
LINE
8
Layer 1
10
236.544000
20
98.401100
11
236.057000
21
99.010700
0
LINE
8
Layer 1
10
236.057000
20
99.010700
11
235.396000
21
99.733200
0
LINE
8
Layer 1
10
235.396000
20
99.733200
11
234.978000
21
100.158000
0
LINE
8
Layer 1
10
234.978000
20
100.158000
11
233.838000
21
101.301000
0
LINE
8
Layer 1
10
233.838000
20
101.301000
11
233.415000
21
101.708000
0
LINE
8
Layer 1
10
233.415000
20
101.708000
11
233.479000
21
101.533000
0
LINE
8
Layer 1
10
233.479000
20
101.533000
11
232.671000
21
100.297000
0
LINE
8
Layer 1
10
232.671000
20
100.297000
11
232.143000
21
99.463400
0
LINE
8
Layer 1
10
232.143000
20
99.463400
11
231.304000
21
98.287300
0
LINE
8
Layer 1
10
231.304000
20
98.287300
11
230.750000
21
97.731900
0
LINE
8
Layer 1
10
230.750000
20
97.731900
11
230.302000
21
97.397500
0
LINE
8
Layer 1
10
230.302000
20
97.397500
11
229.894000
21
97.209300
0
LINE
8
Layer 1
10
229.894000
20
97.209300
11
229.290000
21
97.070400
0
LINE
8
Layer 1
10
229.290000
20
97.070400
11
228.572000
21
97.045600
0
LINE
8
Layer 1
10
228.572000
20
97.045600
11
227.662000
21
97.251000
0
LINE
8
Layer 1
10
227.662000
20
97.251000
11
226.809000
21
97.522000
0
LINE
8
Layer 1
10
226.809000
20
97.522000
11
226.233000
21
97.695200
0
LINE
8
Layer 1
10
226.233000
20
97.695200
11
225.845000
21
97.795200
0
LINE
8
Layer 1
10
225.845000
20
97.795200
11
225.549000
21
97.841200
0
LINE
8
Layer 1
10
225.549000
20
97.841200
11
225.083000
21
97.890800
0
LINE
8
Layer 1
10
225.083000
20
97.890800
11
224.468000
21
97.948100
0
LINE
8
Layer 1
10
224.468000
20
97.948100
11
223.988000
21
97.996700
0
LINE
8
Layer 1
10
223.988000
20
97.996700
11
223.609000
21
98.052000
0
LINE
8
Layer 1
10
223.609000
20
98.052000
11
222.922000
21
98.179500
0
LINE
8
Layer 1
10
222.922000
20
98.179500
11
221.758000
21
98.403300
0
LINE
8
Layer 1
10
221.758000
20
98.403300
11
220.709000
21
98.599500
0
LINE
8
Layer 1
10
220.709000
20
98.599500
11
219.986000
21
98.737200
0
LINE
8
Layer 1
10
219.986000
20
98.737200
11
219.358000
21
98.867600
0
LINE
8
Layer 1
10
219.358000
20
98.867600
11
218.676000
21
99.014100
0
LINE
8
Layer 1
10
218.676000
20
99.014100
11
217.821000
21
99.196700
0
LINE
8
Layer 1
10
217.821000
20
99.196700
11
216.954000
21
99.385200
0
LINE
8
Layer 1
10
216.954000
20
99.385200
11
216.273000
21
99.528600
0
LINE
8
Layer 1
10
216.273000
20
99.528600
11
215.552000
21
99.647400
0
LINE
8
Layer 1
10
215.552000
20
99.647400
11
214.451000
21
99.779200
0
LINE
8
Layer 1
10
214.451000
20
99.779200
11
213.601000
21
99.857400
0
LINE
8
Layer 1
10
213.601000
20
99.857400
11
213.027000
21
99.918600
0
LINE
8
Layer 1
10
213.027000
20
99.918600
11
212.567000
21
99.979600
0
LINE
8
Layer 1
10
212.567000
20
99.979600
11
212.149000
21
100.083000
0
LINE
8
Layer 1
10
212.149000
20
100.083000
11
211.676000
21
100.269000
0
LINE
8
Layer 1
10
211.676000
20
100.269000
11
211.277000
21
100.591000
0
LINE
8
Layer 1
10
211.277000
20
100.591000
11
211.009000
21
100.924000
0
LINE
8
Layer 1
10
211.009000
20
100.924000
11
210.849000
21
101.430000
0
LINE
8
Layer 1
10
210.849000
20
101.430000
11
210.726000
21
101.920000
0
LINE
8
Layer 1
10
210.726000
20
101.920000
11
210.654000
21
102.192000
0
LINE
8
Layer 1
10
210.654000
20
102.192000
11
210.544000
21
102.574000
0
LINE
8
Layer 1
10
210.544000
20
102.574000
11
210.411000
21
102.955000
0
LINE
8
Layer 1
10
210.411000
20
102.955000
11
210.290000
21
103.234000
0
LINE
8
Layer 1
10
210.290000
20
103.234000
11
210.085000
21
103.578000
0
LINE
8
Layer 1
10
210.085000
20
103.578000
11
209.565000
21
104.228000
0
LINE
8
Layer 1
10
209.565000
20
104.228000
11
208.360000
21
105.210000
0
LINE
8
Layer 1
10
208.360000
20
105.210000
11
207.613000
21
105.354000
0
LINE
8
Layer 1
10
207.613000
20
105.354000
11
207.230000
21
105.289000
0
LINE
8
Layer 1
10
207.230000
20
105.289000
11
206.833000
21
105.174000
0
LINE
8
Layer 1
10
206.833000
20
105.174000
11
205.978000
21
104.697000
0
LINE
8
Layer 1
10
205.978000
20
104.697000
11
205.692000
21
104.833000
0
LINE
8
Layer 1
10
205.692000
20
104.833000
11
205.791000
21
104.704000
0
LINE
8
Layer 1
10
205.791000
20
104.704000
11
205.845000
21
104.602000
0
LINE
8
Layer 1
10
205.845000
20
104.602000
11
205.804000
21
104.573000
0
LINE
8
Layer 1
10
205.804000
20
104.573000
11
205.761000
21
104.533000
0
LINE
8
Layer 1
10
205.761000
20
104.533000
11
205.709000
21
104.484000
0
LINE
8
Layer 1
10
205.709000
20
104.484000
11
205.414000
21
104.226000
0
LINE
8
Layer 1
10
205.414000
20
104.226000
11
204.742000
21
103.670000
0
LINE
8
Layer 1
10
204.742000
20
103.670000
11
202.741000
21
102.368000
0
LINE
8
Layer 1
10
202.741000
20
102.368000
11
202.611000
21
102.325000
0
LINE
8
Layer 1
10
202.611000
20
102.325000
11
202.436000
21
102.237000
0
LINE
8
Layer 1
10
202.436000
20
102.237000
11
201.880000
21
101.948000
0
LINE
8
Layer 1
10
201.880000
20
101.948000
11
201.195000
21
101.597000
0
LINE
8
Layer 1
10
201.195000
20
101.597000
11
200.789000
21
101.448000
0
LINE
8
Layer 1
10
200.789000
20
101.448000
11
200.559000
21
101.392000
0
LINE
8
Layer 1
10
200.559000
20
101.392000
11
200.325000
21
101.368000
0
LINE
8
Layer 1
10
200.325000
20
101.368000
11
200.127000
21
101.350000
0
LINE
8
Layer 1
10
200.127000
20
101.350000
11
199.899000
21
101.331000
0
LINE
8
Layer 1
10
199.899000
20
101.331000
11
199.497000
21
101.305000
0
LINE
8
Layer 1
10
199.497000
20
101.305000
11
198.858000
21
101.257000
0
LINE
8
Layer 1
10
198.858000
20
101.257000
11
198.379000
21
101.224000
0
LINE
8
Layer 1
10
198.379000
20
101.224000
11
198.164000
21
101.252000
0
LINE
8
Layer 1
10
198.164000
20
101.252000
11
197.962000
21
101.296000
0
LINE
8
Layer 1
10
197.962000
20
101.296000
11
197.745000
21
101.350000
0
LINE
8
Layer 1
10
197.745000
20
101.350000
11
197.280000
21
101.430000
0
LINE
8
Layer 1
10
197.280000
20
101.430000
11
196.808000
21
101.476000
0
LINE
8
Layer 1
10
196.808000
20
101.476000
11
196.550000
21
101.481000
0
LINE
8
Layer 1
10
196.550000
20
101.481000
11
196.288000
21
101.511000
0
LINE
8
Layer 1
10
196.288000
20
101.511000
11
195.980000
21
101.607000
0
LINE
8
Layer 1
10
195.980000
20
101.607000
11
195.670000
21
101.767000
0
LINE
8
Layer 1
10
195.670000
20
101.767000
11
195.357000
21
101.909000
0
LINE
8
Layer 1
10
195.357000
20
101.909000
11
195.142000
21
101.981000
0
LINE
8
Layer 1
10
195.142000
20
101.981000
11
194.815000
21
102.051000
0
LINE
8
Layer 1
10
194.815000
20
102.051000
11
194.229000
21
102.198000
0
LINE
8
Layer 1
10
194.229000
20
102.198000
11
193.717000
21
102.367000
0
LINE
8
Layer 1
10
193.717000
20
102.367000
11
193.166000
21
102.560000
0
LINE
8
Layer 1
10
193.166000
20
102.560000
11
192.456000
21
102.738000
0
LINE
8
Layer 1
10
192.456000
20
102.738000
11
191.707000
21
102.890000
0
LINE
8
Layer 1
10
191.707000
20
102.890000
11
191.075000
21
103.017000
0
LINE
8
Layer 1
10
191.075000
20
103.017000
11
190.650000
21
103.062000
0
LINE
8
Layer 1
10
190.650000
20
103.062000
11
190.173000
21
103.068000
0
LINE
8
Layer 1
10
190.173000
20
103.068000
11
188.881000
21
102.903000
0
LINE
8
Layer 1
10
188.881000
20
102.903000
11
187.314000
21
102.750000
0
LINE
8
Layer 1
10
187.314000
20
102.750000
11
186.101000
21
102.861000
0
LINE
8
Layer 1
10
186.101000
20
102.861000
11
185.217000
21
103.051000
0
LINE
8
Layer 1
10
185.217000
20
103.051000
11
184.801000
21
103.236000
0
LINE
8
Layer 1
10
184.801000
20
103.236000
11
184.181000
21
103.580000
0
LINE
8
Layer 1
10
184.181000
20
103.580000
11
183.494000
21
103.990000
0
LINE
8
Layer 1
10
183.494000
20
103.990000
11
182.970000
21
104.379000
0
LINE
8
Layer 1
10
182.970000
20
104.379000
11
182.552000
21
104.813000
0
LINE
8
Layer 1
10
182.552000
20
104.813000
11
182.195000
21
105.303000
0
LINE
8
Layer 1
10
182.195000
20
105.303000
11
181.891000
21
105.761000
0
LINE
8
Layer 1
10
181.891000
20
105.761000
11
181.722000
21
105.929000
0
LINE
8
Layer 1
10
181.722000
20
105.929000
11
181.562000
21
106.026000
0
LINE
8
Layer 1
10
181.562000
20
106.026000
11
181.423000
21
106.100000
0
LINE
8
Layer 1
10
181.423000
20
106.100000
11
181.276000
21
106.210000
0
LINE
8
Layer 1
10
181.276000
20
106.210000
11
181.082000
21
106.408000
0
LINE
8
Layer 1
10
181.082000
20
106.408000
11
180.934000
21
106.608000
0
LINE
8
Layer 1
10
180.934000
20
106.608000
11
180.874000
21
106.790000
0
LINE
8
Layer 1
10
180.874000
20
106.790000
11
180.857000
21
107.066000
0
LINE
8
Layer 1
10
180.857000
20
107.066000
11
181.080000
21
108.193000
0
LINE
8
Layer 1
10
181.080000
20
108.193000
11
181.505000
21
110.127000
0
LINE
8
Layer 1
10
181.505000
20
110.127000
11
181.739000
21
111.505000
0
LINE
8
Layer 1
10
181.739000
20
111.505000
11
181.667000
21
112.881000
0
LINE
8
Layer 1
10
181.667000
20
112.881000
11
181.454000
21
114.329000
0
LINE
8
Layer 1
10
181.454000
20
114.329000
11
181.203000
21
115.482000
0
LINE
8
Layer 1
10
181.203000
20
115.482000
11
180.801000
21
117.429000
0
LINE
8
Layer 1
10
180.801000
20
117.429000
11
180.452000
21
119.280000
0
LINE
8
Layer 1
10
180.452000
20
119.280000
11
180.290000
21
120.551000
0
LINE
8
Layer 1
10
180.290000
20
120.551000
11
180.144000
21
122.223000
0
LINE
8
Layer 1
10
180.144000
20
122.223000
11
180.026000
21
124.063000
0
LINE
8
Layer 1
10
180.026000
20
124.063000
11
179.981000
21
126.009000
0
LINE
8
Layer 1
10
179.981000
20
126.009000
11
180.003000
21
127.550000
0
LINE
8
Layer 1
10
180.003000
20
127.550000
11
180.035000
21
128.546000
0
LINE
8
Layer 1
10
180.035000
20
128.546000
11
180.018000
21
129.396000
0
LINE
8
Layer 1
10
180.018000
20
129.396000
11
179.907000
21
130.114000
0
LINE
8
Layer 1
10
179.907000
20
130.114000
11
179.784000
21
130.677000
0
LINE
8
Layer 1
10
179.784000
20
130.677000
11
179.660000
21
131.141000
0
LINE
8
Layer 1
10
179.660000
20
131.141000
11
179.397000
21
131.787000
0
LINE
8
Layer 1
10
179.397000
20
131.787000
11
179.052000
21
132.402000
0
LINE
8
Layer 1
10
179.052000
20
132.402000
11
178.829000
21
132.769000
0
LINE
8
Layer 1
10
178.829000
20
132.769000
11
178.375000
21
133.300000
0
LINE
8
Layer 1
10
178.375000
20
133.300000
11
177.847000
21
133.837000
0
LINE
8
Layer 1
10
177.847000
20
133.837000
11
177.646000
21
133.962000
0
LINE
8
Layer 1
10
177.646000
20
133.962000
11
177.557000
21
134.014000
0
LINE
8
Layer 1
10
177.557000
20
134.014000
11
177.441000
21
134.063000
0
LINE
8
Layer 1
10
177.441000
20
134.063000
11
176.882000
21
134.147000
0
LINE
8
Layer 1
10
176.882000
20
134.147000
11
176.785000
21
134.477000
0
LINE
8
Layer 1
10
176.785000
20
134.477000
11
176.604000
21
133.745000
0
LINE
8
Layer 1
10
176.604000
20
133.745000
11
176.274000
21
133.892000
0
LINE
8
Layer 1
10
176.274000
20
133.892000
11
176.082000
21
133.953000
0
LINE
8
Layer 1
10
176.082000
20
133.953000
11
175.800000
21
133.577000
0
LINE
8
Layer 1
10
175.800000
20
133.577000
11
175.718000
21
133.196000
0
LINE
8
Layer 1
10
175.718000
20
133.196000
11
175.624000
21
132.193000
0
LINE
8
Layer 1
10
175.624000
20
132.193000
11
175.509000
21
130.277000
0
LINE
8
Layer 1
10
175.509000
20
130.277000
11
175.405000
21
128.566000
0
LINE
8
Layer 1
10
175.405000
20
128.566000
11
175.289000
21
127.532000
0
LINE
8
Layer 1
10
175.289000
20
127.532000
11
175.159000
21
126.613000
0
LINE
8
Layer 1
10
175.159000
20
126.613000
11
174.958000
21
125.553000
0
LINE
8
Layer 1
10
174.958000
20
125.553000
11
174.723000
21
124.566000
0
LINE
8
Layer 1
10
174.723000
20
124.566000
11
174.570000
21
123.936000
0
LINE
8
Layer 1
10
174.570000
20
123.936000
11
174.423000
21
123.208000
0
LINE
8
Layer 1
10
174.423000
20
123.208000
11
174.265000
21
122.431000
0
LINE
8
Layer 1
10
174.265000
20
122.431000
11
174.181000
21
121.903000
0
LINE
8
Layer 1
10
174.181000
20
121.903000
11
174.141000
21
121.479000
0
LINE
8
Layer 1
10
174.141000
20
121.479000
11
174.117000
21
120.954000
0
LINE
8
Layer 1
10
174.117000
20
120.954000
11
174.085000
21
120.146000
0
LINE
8
Layer 1
10
174.085000
20
120.146000
11
174.081000
21
119.118000
0
LINE
8
Layer 1
10
174.081000
20
119.118000
11
174.140000
21
117.519000
0
LINE
8
Layer 1
10
174.140000
20
117.519000
11
174.238000
21
115.476000
0
LINE
8
Layer 1
10
174.238000
20
115.476000
11
174.322000
21
113.452000
0
LINE
8
Layer 1
10
174.322000
20
113.452000
11
174.470000
21
111.074000
0
LINE
8
Layer 1
10
174.470000
20
111.074000
11
174.730000
21
108.382000
0
LINE
8
Layer 1
10
174.730000
20
108.382000
11
174.992000
21
105.603000
0
LINE
8
Layer 1
10
174.992000
20
105.603000
11
175.004125
21
104.299375
0
LINE
8
Layer 1
10
175.004125
20
104.299375
11
174.810000
21
103.358000
0
LINE
8
Layer 1
10
174.810000
20
103.358000
11
174.285000
21
102.324000
0
LINE
8
Layer 1
10
174.285000
20
102.324000
11
173.977000
21
101.997000
0
LINE
8
Layer 1
10
173.977000
20
101.997000
11
173.755000
21
101.877000
0
LINE
8
Layer 1
10
173.755000
20
101.877000
11
173.567000
21
101.789000
0
LINE
8
Layer 1
10
173.567000
20
101.789000
11
173.296000
21
101.678000
0
LINE
8
Layer 1
10
173.296000
20
101.678000
11
172.922000
21
101.564000
0
LINE
8
Layer 1
10
172.922000
20
101.564000
11
172.460000
21
101.713000
0
LINE
8
Layer 1
10
172.460000
20
101.713000
11
172.148000
21
101.820000
0
LINE
8
Layer 1
10
172.148000
20
101.820000
11
171.690000
21
101.983000
0
LINE
8
Layer 1
10
171.690000
20
101.983000
11
171.208000
21
102.220000
0
LINE
8
Layer 1
10
171.208000
20
102.220000
11
170.807000
21
102.574000
0
LINE
8
Layer 1
10
170.807000
20
102.574000
11
170.440000
21
103.033000
0
LINE
8
Layer 1
10
170.440000
20
103.033000
11
170.102000
21
103.547000
0
LINE
8
Layer 1
10
170.102000
20
103.547000
11
169.851000
21
103.891000
0
LINE
8
Layer 1
10
169.851000
20
103.891000
11
169.175000
21
104.425000
0
LINE
8
Layer 1
10
169.175000
20
104.425000
11
169.023000
21
104.594000
0
LINE
8
Layer 1
10
169.023000
20
104.594000
11
168.744000
21
104.951000
0
LINE
8
Layer 1
10
168.744000
20
104.951000
11
168.459000
21
105.345000
0
LINE
8
Layer 1
10
168.459000
20
105.345000
11
168.223000
21
105.622000
0
LINE
8
Layer 1
10
168.223000
20
105.622000
11
168.036000
21
106.006000
0
LINE
8
Layer 1
10
168.036000
20
106.006000
11
167.924000
21
106.383000
0
LINE
8
Layer 1
10
167.924000
20
106.383000
11
167.923000
21
106.482000
0
LINE
8
Layer 1
10
167.923000
20
106.482000
11
167.754000
21
107.219000
0
LINE
8
Layer 1
10
167.754000
20
107.219000
11
167.712000
21
107.549000
0
LINE
8
Layer 1
10
167.712000
20
107.549000
11
167.726000
21
107.754000
0
LINE
8
Layer 1
10
167.726000
20
107.754000
11
167.835000
21
108.499000
0
LINE
8
Layer 1
10
167.835000
20
108.499000
11
168.019000
21
109.349000
0
LINE
8
Layer 1
10
168.019000
20
109.349000
11
168.212000
21
110.074000
0
LINE
8
Layer 1
10
168.212000
20
110.074000
11
168.480000
21
111.294000
0
LINE
8
Layer 1
10
168.480000
20
111.294000
11
168.558625
21
112.007625
0
LINE
8
Layer 1
10
168.558625
20
112.007625
11
168.476000
21
112.581000
0
LINE
8
Layer 1
10
168.476000
20
112.581000
11
168.122000
21
113.218000
0
LINE
8
Layer 1
10
168.122000
20
113.218000
11
167.624000
21
113.468000
0
LINE
8
Layer 1
10
167.624000
20
113.468000
11
166.801000
21
113.639000
0
LINE
8
Layer 1
10
166.801000
20
113.639000
11
165.240000
21
113.560000
0
LINE
8
Layer 1
10
165.240000
20
113.560000
11
163.507000
21
113.144000
0
LINE
8
Layer 1
10
163.507000
20
113.144000
11
162.634000
21
112.747000
0
LINE
8
Layer 1
10
162.634000
20
112.747000
11
162.406000
21
112.596000
0
LINE
8
Layer 1
10
162.406000
20
112.596000
11
162.297000
21
112.485000
0
LINE
8
Layer 1
10
162.297000
20
112.485000
11
162.047000
21
112.105000
0
LINE
8
Layer 1
10
162.047000
20
112.105000
11
161.765000
21
111.627000
0
LINE
8
Layer 1
10
161.765000
20
111.627000
11
161.516000
21
111.117000
0
LINE
8
Layer 1
10
161.516000
20
111.117000
11
161.269000
21
110.471000
0
LINE
8
Layer 1
10
161.269000
20
110.471000
11
161.053000
21
109.621000
0
LINE
8
Layer 1
10
161.053000
20
109.621000
11
160.781000
21
108.423000
0
LINE
8
Layer 1
10
160.781000
20
108.423000
11
160.564000
21
107.571000
0
LINE
8
Layer 1
10
160.564000
20
107.571000
11
160.407000
21
107.058000
0
LINE
8
Layer 1
10
160.407000
20
107.058000
11
160.168000
21
106.031000
0
LINE
8
Layer 1
10
160.168000
20
106.031000
11
159.948000
21
104.751000
0
LINE
8
Layer 1
10
159.948000
20
104.751000
11
159.941000
21
103.453000
0
LINE
8
Layer 1
10
159.941000
20
103.453000
11
160.044000
21
102.567000
0
LINE
8
Layer 1
10
160.044000
20
102.567000
11
160.173000
21
102.037000
0
LINE
8
Layer 1
10
160.173000
20
102.037000
11
160.270000
21
100.906000
0
LINE
8
Layer 1
10
160.270000
20
100.906000
11
160.065000
21
99.714000
0
LINE
8
Layer 1
10
160.065000
20
99.714000
11
159.028000
21
98.447400
0
LINE
8
Layer 1
10
159.028000
20
98.447400
11
157.441000
21
96.959800
0
LINE
8
Layer 1
10
157.441000
20
96.959800
11
155.778000
21
95.711200
0
LINE
8
Layer 1
10
155.778000
20
95.711200
11
154.348000
21
94.796500
0
LINE
8
Layer 1
10
154.348000
20
94.796500
11
153.543000
21
94.337400
0
LINE
8
Layer 1
10
153.543000
20
94.337400
11
153.020000
21
94.182100
0
LINE
8
Layer 1
10
153.020000
20
94.182100
11
152.669000
21
94.188400
0
LINE
8
Layer 1
10
152.669000
20
94.188400
11
152.423000
21
94.284000
0
LINE
8
Layer 1
10
152.423000
20
94.284000
11
152.105000
21
94.501600
0
LINE
8
Layer 1
10
152.105000
20
94.501600
11
151.788000
21
94.820500
0
LINE
8
Layer 1
10
151.788000
20
94.820500
11
151.565000
21
95.176100
0
LINE
8
Layer 1
10
151.565000
20
95.176100
11
151.312000
21
95.651100
0
LINE
8
Layer 1
10
151.312000
20
95.651100
11
151.123000
21
96.820600
0
LINE
8
Layer 1
10
151.123000
20
96.820600
11
151.154000
21
98.002600
0
LINE
8
Layer 1
10
151.154000
20
98.002600
11
151.289000
21
98.843600
0
LINE
8
Layer 1
10
151.289000
20
98.843600
11
151.437000
21
99.987200
0
LINE
8
Layer 1
10
151.437000
20
99.987200
11
151.548000
21
100.873000
0
LINE
8
Layer 1
10
151.548000
20
100.873000
11
151.645000
21
101.678000
0
LINE
8
Layer 1
10
151.645000
20
101.678000
11
151.689000
21
102.657000
0
LINE
8
Layer 1
10
151.689000
20
102.657000
11
151.542000
21
103.703000
0
LINE
8
Layer 1
10
151.542000
20
103.703000
11
151.353000
21
104.349000
0
LINE
8
Layer 1
10
151.353000
20
104.349000
11
151.265000
21
104.493000
0
LINE
8
Layer 1
10
151.265000
20
104.493000
11
151.092000
21
104.737000
0
LINE
8
Layer 1
10
151.092000
20
104.737000
11
150.718000
21
105.084000
0
LINE
8
Layer 1
10
150.718000
20
105.084000
11
150.110000
21
105.490000
0
LINE
8
Layer 1
10
150.110000
20
105.490000
11
149.433000
21
105.848000
0
LINE
8
Layer 1
10
149.433000
20
105.848000
11
148.554000
21
106.287000
0
LINE
8
Layer 1
10
148.554000
20
106.287000
11
147.727000
21
106.703000
0
LINE
8
Layer 1
10
147.727000
20
106.703000
11
147.375000
21
106.877000
0
LINE
8
Layer 1
10
147.375000
20
106.877000
11
147.016000
21
107.085000
0
LINE
8
Layer 1
10
147.016000
20
107.085000
11
146.584000
21
107.333000
0
LINE
8
Layer 1
10
146.584000
20
107.333000
11
146.385000
21
107.425000
0
LINE
8
Layer 1
10
146.385000
20
107.425000
11
145.947000
21
107.291000
0
LINE
8
Layer 1
10
145.947000
20
107.291000
11
145.814000
21
106.920000
0
LINE
8
Layer 1
10
145.814000
20
106.920000
11
145.749000
21
104.866000
0
LINE
8
Layer 1
10
145.749000
20
104.866000
11
145.740000
21
103.627000
0
LINE
8
Layer 1
10
145.740000
20
103.627000
11
145.705000
21
102.876000
0
LINE
8
Layer 1
10
145.705000
20
102.876000
11
145.724000
21
102.759000
0
LINE
8
Layer 1
10
145.724000
20
102.759000
11
145.689000
21
101.925000
0
LINE
8
Layer 1
10
145.689000
20
101.925000
11
145.566000
21
100.899000
0
LINE
8
Layer 1
10
145.566000
20
100.899000
11
145.303000
21
99.493800
0
LINE
8
Layer 1
10
145.303000
20
99.493800
11
144.951000
21
97.916800
0
LINE
8
Layer 1
10
144.951000
20
97.916800
11
144.523000
21
96.599700
0
LINE
8
Layer 1
10
144.523000
20
96.599700
11
143.910000
21
95.228600
0
LINE
8
Layer 1
10
143.910000
20
95.228600
11
143.394000
21
94.277300
0
LINE
8
Layer 1
10
143.394000
20
94.277300
11
143.111000
21
93.883600
0
LINE
8
Layer 1
10
143.111000
20
93.883600
11
142.873000
21
93.544300
0
LINE
8
Layer 1
10
142.873000
20
93.544300
11
142.482000
21
93.080400
0
LINE
8
Layer 1
10
142.482000
20
93.080400
11
142.004000
21
92.552300
0
LINE
8
Layer 1
10
142.004000
20
92.552300
11
141.627000
21
92.133500
0
LINE
8
Layer 1
10
141.627000
20
92.133500
11
141.269000
21
91.795100
0
LINE
8
Layer 1
10
141.269000
20
91.795100
11
140.872000
21
91.488900
0
LINE
8
Layer 1
10
140.872000
20
91.488900
11
140.394000
21
91.112700
0
LINE
8
Layer 1
10
140.394000
20
91.112700
11
140.097000
21
90.860400
0
LINE
8
Layer 1
10
140.097000
20
90.860400
11
138.944000
21
90.187600
0
LINE
8
Layer 1
10
138.944000
20
90.187600
11
138.376000
21
89.730900
0
LINE
8
Layer 1
10
138.376000
20
89.730900
11
137.700000
21
89.281100
0
LINE
8
Layer 1
10
137.700000
20
89.281100
11
137.117000
21
89.049100
0
LINE
8
Layer 1
10
137.117000
20
89.049100
11
136.780000
21
89.014700
0
LINE
8
Layer 1
10
136.780000
20
89.014700
11
136.423000
21
89.302200
0
LINE
8
Layer 1
10
136.423000
20
89.302200
11
136.196000
21
89.951400
0
LINE
8
Layer 1
10
136.196000
20
89.951400
11
135.949000
21
91.372900
0
LINE
8
Layer 1
10
135.949000
20
91.372900
11
135.887000
21
93.663100
0
LINE
8
Layer 1
10
135.887000
20
93.663100
11
135.915000
21
95.486000
0
LINE
8
Layer 1
10
135.915000
20
95.486000
11
135.955000
21
96.559600
0
LINE
8
Layer 1
10
135.955000
20
96.559600
11
136.072000
21
98.418300
0
LINE
8
Layer 1
10
136.072000
20
98.418300
11
136.222000
21
100.329000
0
LINE
8
Layer 1
10
136.222000
20
100.329000
11
136.293000
21
101.482000
0
LINE
8
Layer 1
10
136.293000
20
101.482000
11
136.337000
21
102.744000
0
LINE
8
Layer 1
10
136.337000
20
102.744000
11
136.336000
21
104.051000
0
LINE
8
Layer 1
10
136.336000
20
104.051000
11
135.844000
21
105.671000
0
LINE
8
Layer 1
10
135.844000
20
105.671000
11
135.539000
21
105.705000
0
LINE
8
Layer 1
10
135.539000
20
105.705000
11
135.031000
21
105.644000
0
LINE
8
Layer 1
10
135.031000
20
105.644000
11
134.521000
21
105.478000
0
LINE
8
Layer 1
10
134.521000
20
105.478000
11
133.994000
21
105.187000
0
LINE
8
Layer 1
10
133.994000
20
105.187000
11
133.662000
21
104.955000
0
LINE
8
Layer 1
10
133.662000
20
104.955000
11
133.550000
21
104.765000
0
LINE
8
Layer 1
10
133.550000
20
104.765000
11
133.227000
21
104.184000
0
LINE
8
Layer 1
10
133.227000
20
104.184000
11
132.879000
21
103.461000
0
LINE
8
Layer 1
10
132.879000
20
103.461000
11
132.572000
21
102.519000
0
LINE
8
Layer 1
10
132.572000
20
102.519000
11
132.042000
21
98.814000
0
LINE
8
Layer 1
10
132.042000
20
98.814000
11
131.678000
21
94.963900
0
LINE
8
Layer 1
10
131.678000
20
94.963900
11
131.574000
21
92.824700
0
LINE
8
Layer 1
10
131.574000
20
92.824700
11
131.440000
21
91.000400
0
LINE
8
Layer 1
10
131.440000
20
91.000400
11
131.249000
21
89.853100
0
LINE
8
Layer 1
10
131.249000
20
89.853100
11
130.961000
21
88.738700
0
LINE
8
Layer 1
10
130.961000
20
88.738700
11
130.693000
21
88.139800
0
LINE
8
Layer 1
10
130.693000
20
88.139800
11
130.480000
21
87.835800
0
LINE
8
Layer 1
10
130.480000
20
87.835800
11
130.272000
21
87.494600
0
LINE
8
Layer 1
10
130.272000
20
87.494600
11
129.895000
21
86.982700
0
LINE
8
Layer 1
10
129.895000
20
86.982700
11
129.500000
21
86.567000
0
LINE
8
Layer 1
10
129.500000
20
86.567000
11
129.300000
21
86.447000
0
LINE
8
Layer 1
10
129.300000
20
86.447000
11
129.124000
21
86.347900
0
LINE
8
Layer 1
10
129.124000
20
86.347900
11
128.570000
21
86.000500
0
LINE
8
Layer 1
10
128.570000
20
86.000500
11
128.042000
21
85.930000
0
LINE
8
Layer 1
10
128.042000
20
85.930000
11
127.520000
21
85.926900
0
LINE
8
Layer 1
10
127.520000
20
85.926900
11
126.912000
21
85.976300
0
LINE
8
Layer 1
10
126.912000
20
85.976300
11
126.531000
21
86.094800
0
LINE
8
Layer 1
10
126.531000
20
86.094800
11
125.935000
21
86.286100
0
LINE
8
Layer 1
10
125.935000
20
86.286100
11
125.384000
21
86.447600
0
LINE
8
Layer 1
10
125.384000
20
86.447600
11
124.869000
21
86.642600
0
LINE
8
Layer 1
10
124.869000
20
86.642600
11
124.302000
21
87.302100
0
LINE
8
Layer 1
10
124.302000
20
87.302100
11
124.068000
21
87.623900
0
LINE
8
Layer 1
10
124.068000
20
87.623900
11
123.855000
21
87.949800
0
LINE
8
Layer 1
10
123.855000
20
87.949800
11
123.631000
21
88.211500
0
LINE
8
Layer 1
10
123.631000
20
88.211500
11
123.138000
21
90.121000
0
LINE
8
Layer 1
10
123.138000
20
90.121000
11
123.103000
21
91.062500
0
LINE
8
Layer 1
10
123.103000
20
91.062500
11
123.138000
21
91.350100
0
LINE
8
Layer 1
10
123.138000
20
91.350100
11
123.187000
21
91.699200
0
LINE
8
Layer 1
10
123.187000
20
91.699200
11
123.271000
21
92.118500
0
LINE
8
Layer 1
10
123.271000
20
92.118500
11
123.343000
21
92.475300
0
LINE
8
Layer 1
10
123.343000
20
92.475300
11
123.382000
21
92.817900
0
LINE
8
Layer 1
10
123.382000
20
92.817900
11
123.409000
21
93.236400
0
LINE
8
Layer 1
10
123.409000
20
93.236400
11
123.417000
21
93.888100
0
LINE
8
Layer 1
10
123.417000
20
93.888100
11
123.396000
21
94.409100
0
LINE
8
Layer 1
10
123.396000
20
94.409100
11
123.361000
21
94.802500
0
LINE
8
Layer 1
10
123.361000
20
94.802500
11
123.340000
21
95.445400
0
LINE
8
Layer 1
10
123.340000
20
95.445400
11
123.338000
21
96.328400
0
LINE
8
Layer 1
10
123.338000
20
96.328400
11
123.340000
21
97.335700
0
LINE
8
Layer 1
10
123.340000
20
97.335700
11
123.341000
21
98.460900
0
LINE
8
Layer 1
10
123.341000
20
98.460900
11
123.336000
21
99.484500
0
LINE
8
Layer 1
10
123.336000
20
99.484500
11
123.334000
21
100.217000
0
LINE
8
Layer 1
10
123.334000
20
100.217000
11
123.324000
21
100.711000
0
LINE
8
Layer 1
10
123.324000
20
100.711000
11
123.330000
21
101.295000
0
LINE
8
Layer 1
10
123.330000
20
101.295000
11
123.407000
21
102.637000
0
LINE
8
Layer 1
10
123.407000
20
102.637000
11
123.644000
21
104.726000
0
LINE
8
Layer 1
10
123.644000
20
104.726000
11
123.856000
21
106.135000
0
LINE
8
Layer 1
10
123.856000
20
106.135000
11
123.951000
21
106.625000
0
LINE
8
Layer 1
10
123.951000
20
106.625000
11
124.069000
21
107.399000
0
LINE
8
Layer 1
10
124.069000
20
107.399000
11
124.188000
21
108.824000
0
LINE
8
Layer 1
10
124.188000
20
108.824000
11
124.197000
21
110.984000
0
LINE
8
Layer 1
10
124.197000
20
110.984000
11
124.120000
21
112.466000
0
LINE
8
Layer 1
10
124.120000
20
112.466000
11
124.018000
21
113.020000
0
LINE
8
Layer 1
10
124.018000
20
113.020000
11
123.909000
21
113.615000
0
LINE
8
Layer 1
10
123.909000
20
113.615000
11
123.832000
21
114.280000
0
LINE
8
Layer 1
10
123.832000
20
114.280000
11
123.773000
21
114.795000
0
LINE
8
Layer 1
10
123.773000
20
114.795000
11
123.699000
21
115.476000
0
LINE
8
Layer 1
10
123.699000
20
115.476000
11
123.582000
21
116.879000
0
LINE
8
Layer 1
10
123.582000
20
116.879000
11
123.445000
21
119.065000
0
LINE
8
Layer 1
10
123.445000
20
119.065000
11
123.348000
21
120.854000
0
LINE
8
Layer 1
10
123.348000
20
120.854000
11
123.299000
21
121.650000
0
LINE
8
Layer 1
10
123.299000
20
121.650000
11
123.214000
21
122.697000
0
LINE
8
Layer 1
10
123.214000
20
122.697000
11
123.122000
21
124.434000
0
LINE
8
Layer 1
10
123.122000
20
124.434000
11
123.100000
21
125.741000
0
LINE
8
Layer 1
10
123.100000
20
125.741000
11
123.266000
21
127.672000
0
LINE
8
Layer 1
10
123.266000
20
127.672000
11
123.715000
21
130.518000
0
LINE
8
Layer 1
10
123.715000
20
130.518000
11
124.233000
21
132.257000
0
LINE
8
Layer 1
10
124.233000
20
132.257000
11
124.664000
21
133.222000
0
LINE
8
Layer 1
10
124.664000
20
133.222000
11
125.097000
21
133.978000
0
LINE
8
Layer 1
10
125.097000
20
133.978000
11
125.386000
21
134.387000
0
LINE
8
Layer 1
10
125.386000
20
134.387000
11
125.599000
21
134.620000
0
LINE
8
Layer 1
10
125.599000
20
134.620000
11
126.276000
21
135.096000
0
LINE
8
Layer 1
10
126.276000
20
135.096000
11
126.996000
21
135.461000
0
LINE
8
Layer 1
10
126.996000
20
135.461000
11
127.335000
21
135.515000
0
LINE
8
Layer 1
10
127.335000
20
135.515000
11
127.593000
21
135.514000
0
LINE
8
Layer 1
10
127.593000
20
135.514000
11
127.919000
21
135.526000
0
LINE
8
Layer 1
10
127.919000
20
135.526000
11
128.174000
21
135.560000
0
LINE
8
Layer 1
10
128.174000
20
135.560000
11
128.469000
21
135.597000
0
LINE
8
Layer 1
10
128.469000
20
135.597000
11
128.867000
21
135.605000
0
LINE
8
Layer 1
10
128.867000
20
135.605000
11
129.111000
21
135.574000
0
LINE
8
Layer 1
10
129.111000
20
135.574000
11
129.360000
21
135.594000
0
LINE
8
Layer 1
10
129.360000
20
135.594000
11
129.557000
21
135.653000
0
LINE
8
Layer 1
10
129.557000
20
135.653000
11
129.785000
21
135.709000
0
LINE
8
Layer 1
10
129.785000
20
135.709000
11
130.077000
21
135.782000
0
LINE
8
Layer 1
10
130.077000
20
135.782000
11
130.390000
21
135.875000
0
LINE
8
Layer 1
10
130.390000
20
135.875000
11
130.678000
21
135.928000
0
LINE
8
Layer 1
10
130.678000
20
135.928000
11
130.860000
21
135.934000
0
LINE
8
Layer 1
10
130.860000
20
135.934000
11
131.101000
21
135.972000
0
LINE
8
Layer 1
10
131.101000
20
135.972000
11
131.500000
21
136.058000
0
LINE
8
Layer 1
10
131.500000
20
136.058000
11
131.827000
21
136.114000
0
LINE
8
Layer 1
10
131.827000
20
136.114000
11
132.040000
21
136.093000
0
LINE
8
Layer 1
10
132.040000
20
136.093000
11
132.315000
21
136.045000
0
LINE
8
Layer 1
10
132.315000
20
136.045000
11
133.169000
21
136.070000
0
LINE
8
Layer 1
10
133.169000
20
136.070000
11
133.360000
21
135.824000
0
LINE
8
Layer 1
10
133.360000
20
135.824000
11
133.139000
21
134.533000
0
LINE
8
Layer 1
10
133.139000
20
134.533000
11
133.081000
21
133.976000
0
LINE
8
Layer 1
10
133.081000
20
133.976000
11
133.023000
21
133.403000
0
LINE
8
Layer 1
10
133.023000
20
133.403000
11
132.980000
21
132.711000
0
LINE
8
Layer 1
10
132.980000
20
132.711000
11
132.959000
21
131.851000
0
LINE
8
Layer 1
10
132.959000
20
131.851000
11
132.951000
21
130.460000
0
LINE
8
Layer 1
10
132.951000
20
130.460000
11
132.931000
21
127.730000
0
LINE
8
Layer 1
10
132.931000
20
127.730000
11
132.963000
21
124.443000
0
LINE
8
Layer 1
10
132.963000
20
124.443000
11
133.216000
21
121.842000
0
LINE
8
Layer 1
10
133.216000
20
121.842000
11
133.617000
21
120.257000
0
LINE
8
Layer 1
10
133.617000
20
120.257000
11
133.981000
21
119.613000
0
LINE
8
Layer 1
10
133.981000
20
119.613000
11
134.442000
21
119.221000
0
LINE
8
Layer 1
10
134.442000
20
119.221000
11
135.123000
21
119.423000
0
LINE
8
Layer 1
10
135.123000
20
119.423000
11
135.524000
21
119.645000
0
LINE
8
Layer 1
10
135.524000
20
119.645000
11
135.735000
21
119.826000
0
LINE
8
Layer 1
10
135.735000
20
119.826000
11
136.039000
21
120.225000
0
LINE
8
Layer 1
10
136.039000
20
120.225000
11
136.553000
21
121.195000
0
LINE
8
Layer 1
10
136.553000
20
121.195000
11
136.963000
21
122.289000
0
LINE
8
Layer 1
10
136.963000
20
122.289000
11
137.222000
21
123.692000
0
LINE
8
Layer 1
10
137.222000
20
123.692000
11
137.458000
21
125.473000
0
LINE
8
Layer 1
10
137.458000
20
125.473000
11
137.519000
21
126.398000
0
LINE
8
Layer 1
10
137.519000
20
126.398000
11
137.545000
21
127.054000
0
LINE
8
Layer 1
10
137.545000
20
127.054000
11
137.570000
21
128.206000
0
LINE
8
Layer 1
10
137.570000
20
128.206000
11
137.562000
21
129.228000
0
LINE
8
Layer 1
10
137.562000
20
129.228000
11
137.510000
21
130.437000
0
LINE
8
Layer 1
10
137.510000
20
130.437000
11
137.466000
21
131.949000
0
LINE
8
Layer 1
10
137.466000
20
131.949000
11
137.503000
21
133.356000
0
LINE
8
Layer 1
10
137.503000
20
133.356000
11
137.579000
21
134.445000
0
LINE
8
Layer 1
10
137.579000
20
134.445000
11
137.686000
21
135.238000
0
LINE
8
Layer 1
10
137.686000
20
135.238000
11
137.990000
21
136.388000
0
LINE
8
Layer 1
10
137.990000
20
136.388000
11
138.355000
21
137.470000
0
LINE
8
Layer 1
10
138.355000
20
137.470000
11
138.580000
21
137.991000
0
LINE
8
Layer 1
10
138.580000
20
137.991000
11
138.834000
21
138.385000
0
LINE
8
Layer 1
10
138.834000
20
138.385000
11
139.209000
21
138.864000
0
LINE
8
Layer 1
10
139.209000
20
138.864000
11
139.876000
21
139.605000
0
LINE
8
Layer 1
10
139.876000
20
139.605000
11
140.998000
21
140.785000
0
LINE
8
Layer 1
10
140.998000
20
140.785000
11
142.095000
21
141.823000
0
LINE
8
Layer 1
10
142.095000
20
141.823000
11
142.828000
21
142.405000
0
LINE
8
Layer 1
10
142.828000
20
142.405000
11
143.462000
21
142.839000
0
LINE
8
Layer 1
10
143.462000
20
142.839000
11
144.125000
21
143.224000
0
LINE
8
Layer 1
10
144.125000
20
143.224000
11
144.895000
21
143.540000
0
LINE
8
Layer 1
10
144.895000
20
143.540000
11
145.516000
21
143.728000
0
LINE
8
Layer 1
10
145.516000
20
143.728000
11
145.938000
21
143.817000
0
LINE
8
Layer 1
10
145.938000
20
143.817000
11
146.497000
21
143.808000
0
LINE
8
Layer 1
10
146.497000
20
143.808000
11
146.593000
21
143.750000
0
LINE
8
Layer 1
10
146.593000
20
143.750000
11
146.722000
21
143.708000
0
LINE
8
Layer 1
10
146.722000
20
143.708000
11
147.388000
21
142.777000
0
LINE
8
Layer 1
10
147.388000
20
142.777000
11
147.474000
21
142.613000
0
LINE
8
Layer 1
10
147.474000
20
142.613000
11
147.568000
21
142.340000
0
LINE
8
Layer 1
10
147.568000
20
142.340000
11
147.652000
21
141.831000
0
LINE
8
Layer 1
10
147.652000
20
141.831000
11
147.713000
21
141.227000
0
LINE
8
Layer 1
10
147.713000
20
141.227000
11
147.753000
21
140.612000
0
LINE
8
Layer 1
10
147.753000
20
140.612000
11
147.772000
21
139.778000
0
LINE
8
Layer 1
10
147.772000
20
139.778000
11
147.756000
21
139.014000
0
LINE
8
Layer 1
10
147.756000
20
139.014000
11
147.728000
21
138.378000
0
LINE
8
Layer 1
10
147.728000
20
138.378000
11
147.683000
21
137.391000
0
LINE
8
Layer 1
10
147.683000
20
137.391000
11
147.622000
21
136.406000
0
LINE
8
Layer 1
10
147.622000
20
136.406000
11
147.501000
21
135.426000
0
LINE
8
Layer 1
10
147.501000
20
135.426000
11
147.246000
21
133.811000
0
LINE
8
Layer 1
10
147.246000
20
133.811000
11
146.932000
21
131.804000
0
LINE
8
Layer 1
10
146.932000
20
131.804000
11
146.690000
21
130.324000
0
LINE
8
Layer 1
10
146.690000
20
130.324000
11
146.417000
21
129.073000
0
LINE
8
Layer 1
10
146.417000
20
129.073000
11
145.993000
21
126.989000
0
LINE
8
Layer 1
10
145.993000
20
126.989000
11
145.604000
21
124.726000
0
LINE
8
Layer 1
10
145.604000
20
124.726000
11
145.324000
21
122.649000
0
LINE
8
Layer 1
10
145.324000
20
122.649000
11
145.115000
21
120.819000
0
LINE
8
Layer 1
10
145.115000
20
120.819000
11
145.014000
21
119.543000
0
LINE
8
Layer 1
10
145.014000
20
119.543000
11
144.934000
21
118.074000
0
LINE
8
Layer 1
10
144.934000
20
118.074000
11
144.832000
21
115.480000
0
LINE
8
Layer 1
10
144.832000
20
115.480000
11
144.877000
21
113.907000
0
LINE
8
Layer 1
10
144.877000
20
113.907000
11
145.108000
21
112.529000
0
LINE
8
Layer 1
10
145.108000
20
112.529000
11
145.505000
21
111.189000
0
LINE
8
Layer 1
10
145.505000
20
111.189000
11
146.138000
21
111.261000
0
LINE
8
Layer 1
10
146.138000
20
111.261000
11
146.396000
21
111.349000
0
LINE
8
Layer 1
10
146.396000
20
111.349000
11
146.783000
21
111.625000
0
LINE
8
Layer 1
10
146.783000
20
111.625000
11
147.493000
21
112.355000
0
LINE
8
Layer 1
10
147.493000
20
112.355000
11
148.258000
21
113.274000
0
LINE
8
Layer 1
10
148.258000
20
113.274000
11
148.731000
21
113.890000
0
LINE
8
Layer 1
10
148.731000
20
113.890000
11
148.979000
21
114.240000
0
LINE
8
Layer 1
10
148.979000
20
114.240000
11
149.240000
21
114.673000
0
LINE
8
Layer 1
10
149.240000
20
114.673000
11
149.632000
21
115.425000
0
LINE
8
Layer 1
10
149.632000
20
115.425000
11
149.954000
21
116.058000
0
LINE
8
Layer 1
10
149.954000
20
116.058000
11
150.243000
21
116.645000
0
LINE
8
Layer 1
10
150.243000
20
116.645000
11
150.588000
21
117.566000
0
LINE
8
Layer 1
10
150.588000
20
117.566000
11
150.865000
21
118.477000
0
LINE
8
Layer 1
10
150.865000
20
118.477000
11
151.246000
21
119.959000
0
LINE
8
Layer 1
10
151.246000
20
119.959000
11
151.575000
21
121.481000
0
LINE
8
Layer 1
10
151.575000
20
121.481000
11
151.661000
21
122.441000
0
LINE
8
Layer 1
10
151.661000
20
122.441000
11
151.704000
21
124.117000
0
LINE
8
Layer 1
10
151.704000
20
124.117000
11
151.804000
21
126.516000
0
LINE
8
Layer 1
10
151.804000
20
126.516000
11
151.958000
21
128.234000
0
LINE
8
Layer 1
10
151.958000
20
128.234000
11
152.185000
21
129.353000
0
LINE
8
Layer 1
10
152.185000
20
129.353000
11
152.652000
21
131.011000
0
LINE
8
Layer 1
10
152.652000
20
131.011000
11
153.091000
21
132.432000
0
LINE
8
Layer 1
10
153.091000
20
132.432000
11
153.484000
21
134.063000
0
LINE
8
Layer 1
10
153.484000
20
134.063000
11
153.891000
21
136.592000
0
LINE
8
Layer 1
10
153.891000
20
136.592000
11
154.125000
21
138.777000
0
LINE
8
Layer 1
10
154.125000
20
138.777000
11
154.408000
21
140.758000
0
LINE
8
Layer 1
10
154.408000
20
140.758000
11
154.718000
21
142.493000
0
LINE
8
Layer 1
10
154.718000
20
142.493000
11
155.081000
21
143.925000
0
LINE
8
Layer 1
10
155.081000
20
143.925000
11
155.671000
21
145.601000
0
LINE
8
Layer 1
10
155.671000
20
145.601000
11
156.219000
21
146.987000
0
LINE
8
Layer 1
10
156.219000
20
146.987000
11
156.588000
21
147.935000
0
LINE
8
Layer 1
10
156.588000
20
147.935000
11
156.823000
21
148.505000
0
LINE
8
Layer 1
10
156.823000
20
148.505000
11
157.062000
21
149.023000
0
LINE
8
Layer 1
10
157.062000
20
149.023000
11
157.621000
21
150.075000
0
LINE
8
Layer 1
10
157.621000
20
150.075000
11
158.487000
21
151.408000
0
LINE
8
Layer 1
10
158.487000
20
151.408000
11
159.056000
21
152.175000
0
LINE
8
Layer 1
10
159.056000
20
152.175000
11
159.221000
21
152.353000
0
LINE
8
Layer 1
10
159.221000
20
152.353000
11
159.819000
21
152.987000
0
LINE
8
Layer 1
10
159.819000
20
152.987000
11
160.631000
21
153.798000
0
LINE
8
Layer 1
10
160.631000
20
153.798000
11
161.256000
21
154.284000
0
LINE
8
Layer 1
10
161.256000
20
154.284000
11
162.048000
21
154.800000
0
LINE
8
Layer 1
10
162.048000
20
154.800000
11
162.831000
21
155.319000
0
LINE
8
Layer 1
10
162.831000
20
155.319000
11
163.642000
21
155.887000
0
LINE
8
Layer 1
10
163.642000
20
155.887000
11
164.527000
21
156.496000
0
LINE
8
Layer 1
10
164.527000
20
156.496000
11
164.967000
21
156.799000
0
LINE
8
Layer 1
10
164.967000
20
156.799000
11
165.257000
21
157.026000
0
LINE
8
Layer 1
10
165.257000
20
157.026000
11
165.845000
21
157.549000
0
LINE
8
Layer 1
10
165.845000
20
157.549000
11
166.210000
21
157.896000
0
LINE
8
Layer 1
10
166.210000
20
157.896000
11
166.694000
21
158.366000
0
LINE
8
Layer 1
10
166.694000
20
158.366000
11
167.538000
21
159.123000
0
LINE
8
Layer 1
10
167.538000
20
159.123000
11
168.146000
21
159.624000
0
LINE
8
Layer 1
10
168.146000
20
159.624000
11
168.817000
21
160.091000
0
LINE
8
Layer 1
10
168.817000
20
160.091000
11
169.406000
21
160.402000
0
LINE
8
Layer 1
10
169.406000
20
160.402000
11
169.913000
21
160.507000
0
LINE
8
Layer 1
10
169.913000
20
160.507000
11
170.913000
21
160.470000
0
LINE
8
Layer 1
10
170.913000
20
160.470000
11
171.581000
21
160.335000
0
LINE
8
Layer 1
10
171.581000
20
160.335000
11
171.921000
21
160.061000
0
LINE
8
Layer 1
10
171.921000
20
160.061000
11
172.413000
21
159.035000
0
LINE
8
Layer 1
10
172.413000
20
159.035000
11
172.689000
21
157.980000
0
LINE
8
Layer 1
10
172.689000
20
157.980000
11
172.805000
21
156.942000
0
LINE
8
Layer 1
10
172.805000
20
156.942000
11
172.879000
21
155.961000
0
LINE
8
Layer 1
10
172.879000
20
155.961000
11
172.921000
21
155.379000
0
LINE
8
Layer 1
10
172.921000
20
155.379000
11
172.966000
21
154.560000
0
LINE
8
Layer 1
10
172.966000
20
154.560000
11
173.037000
21
153.217000
0
LINE
8
Layer 1
10
173.037000
20
153.217000
11
173.205000
21
150.839000
0
LINE
8
Layer 1
10
173.205000
20
150.839000
11
173.387000
21
148.821000
0
LINE
8
Layer 1
10
173.387000
20
148.821000
11
173.536000
21
147.962000
0
LINE
8
Layer 1
10
173.536000
20
147.962000
11
173.759000
21
146.740000
0
LINE
8
Layer 1
10
173.759000
20
146.740000
11
174.005000
21
145.207000
0
LINE
8
Layer 1
10
174.005000
20
145.207000
11
174.321000
21
143.277000
0
LINE
8
Layer 1
10
174.321000
20
143.277000
11
174.607000
21
141.497000
0
LINE
8
Layer 1
10
174.607000
20
141.497000
11
174.826000
21
140.231000
0
LINE
8
Layer 1
10
174.826000
20
140.231000
11
175.048000
21
139.311000
0
LINE
8
Layer 1
10
175.048000
20
139.311000
11
175.310000
21
138.701000
0
LINE
8
Layer 1
10
175.310000
20
138.701000
11
175.985000
21
137.799000
0
LINE
8
Layer 1
10
175.985000
20
137.799000
11
176.267000
21
137.998000
0
LINE
8
Layer 1
10
176.267000
20
137.998000
11
176.876000
21
139.131000
0
LINE
8
Layer 1
10
176.876000
20
139.131000
11
177.146000
21
139.674000
0
LINE
8
Layer 1
10
177.146000
20
139.674000
11
177.503000
21
140.609000
0
LINE
8
Layer 1
10
177.503000
20
140.609000
11
177.734000
21
141.531000
0
LINE
8
Layer 1
10
177.734000
20
141.531000
11
177.835000
21
142.151000
0
LINE
8
Layer 1
10
177.835000
20
142.151000
11
177.925000
21
143.010000
0
LINE
8
Layer 1
10
177.925000
20
143.010000
11
178.050000
21
144.987000
0
LINE
8
Layer 1
10
178.050000
20
144.987000
11
178.153000
21
146.851000
0
LINE
8
Layer 1
10
178.153000
20
146.851000
11
178.309000
21
148.796000
0
LINE
8
Layer 1
10
178.309000
20
148.796000
11
178.472000
21
150.696000
0
LINE
8
Layer 1
10
178.472000
20
150.696000
11
178.573000
21
151.935000
0
LINE
8
Layer 1
10
178.573000
20
151.935000
11
178.718000
21
153.647000
0
LINE
8
Layer 1
10
178.718000
20
153.647000
11
178.877000
21
155.272000
0
LINE
8
Layer 1
10
178.877000
20
155.272000
11
179.101000
21
157.046000
0
LINE
8
Layer 1
10
179.101000
20
157.046000
11
179.325000
21
158.450000
0
LINE
8
Layer 1
10
179.325000
20
158.450000
11
179.562000
21
159.432000
0
LINE
8
Layer 1
10
179.562000
20
159.432000
11
179.840000
21
160.358000
0
LINE
8
Layer 1
10
179.840000
20
160.358000
11
180.137000
21
161.080000
0
LINE
8
Layer 1
10
180.137000
20
161.080000
11
180.441000
21
161.687000
0
LINE
8
Layer 1
10
180.441000
20
161.687000
11
181.139000
21
162.558000
0
LINE
8
Layer 1
10
181.139000
20
162.558000
11
182.116000
21
163.457000
0
LINE
8
Layer 1
10
182.116000
20
163.457000
11
182.857000
21
163.837000
0
LINE
8
Layer 1
10
182.857000
20
163.837000
11
183.663000
21
164.035000
0
LINE
8
Layer 1
10
183.663000
20
164.035000
11
184.459000
21
164.108000
0
LINE
8
Layer 1
10
184.459000
20
164.108000
11
185.345000
21
164.011000
0
LINE
8
Layer 1
10
185.345000
20
164.011000
11
186.449000
21
163.750000
0
LINE
8
Layer 1
10
186.449000
20
163.750000
11
187.620000
21
163.306000
0
LINE
8
Layer 1
10
187.620000
20
163.306000
11
188.633000
21
162.828000
0
LINE
8
Layer 1
10
188.633000
20
162.828000
11
189.685000
21
162.189000
0
LINE
8
Layer 1
10
189.685000
20
162.189000
11
190.760000
21
161.370000
0
LINE
8
Layer 1
10
190.760000
20
161.370000
11
191.305000
21
160.810000
0
LINE
8
Layer 1
10
191.305000
20
160.810000
11
191.493000
21
160.544000
0
LINE
8
Layer 1
10
191.493000
20
160.544000
11
191.621000
21
160.221000
0
LINE
8
Layer 1
10
191.621000
20
160.221000
11
191.740000
21
159.754000
0
LINE
8
Layer 1
10
191.740000
20
159.754000
11
191.788000
21
159.307000
0
LINE
8
Layer 1
10
191.788000
20
159.307000
11
191.684000
21
158.259000
0
LINE
8
Layer 1
10
191.684000
20
158.259000
11
191.462000
21
156.887000
0
LINE
8
Layer 1
10
191.462000
20
156.887000
11
191.244000
21
155.843000
0
LINE
8
Layer 1
10
191.244000
20
155.843000
11
191.038000
21
154.919000
0
LINE
8
Layer 1
10
191.038000
20
154.919000
11
190.721000
21
153.756000
0
LINE
8
Layer 1
10
190.721000
20
153.756000
11
190.320000
21
152.512000
0
LINE
8
Layer 1
10
190.320000
20
152.512000
11
189.753000
21
151.070000
0
LINE
8
Layer 1
10
189.753000
20
151.070000
11
189.258000
21
149.831000
0
LINE
8
Layer 1
10
189.258000
20
149.831000
11
188.981000
21
149.018000
0
LINE
8
Layer 1
10
188.981000
20
149.018000
11
188.706000
21
148.070000
0
LINE
8
Layer 1
10
188.706000
20
148.070000
11
188.541000
21
147.279000
0
LINE
8
Layer 1
10
188.541000
20
147.279000
11
188.416000
21
146.105000
0
LINE
8
Layer 1
10
188.416000
20
146.105000
11
188.306000
21
144.926000
0
LINE
8
Layer 1
10
188.306000
20
144.926000
11
188.176000
21
143.963000
0
LINE
8
Layer 1
10
188.176000
20
143.963000
11
187.970000
21
142.666000
0
LINE
8
Layer 1
10
187.970000
20
142.666000
11
187.810000
21
141.663000
0
LINE
8
Layer 1
10
187.810000
20
141.663000
11
187.723000
21
141.000000
0
LINE
8
Layer 1
10
187.723000
20
141.000000
11
187.637000
21
140.169000
0
LINE
8
Layer 1
10
187.637000
20
140.169000
11
187.568000
21
139.192000
0
LINE
8
Layer 1
10
187.568000
20
139.192000
11
187.527000
21
138.388000
0
LINE
8
Layer 1
10
187.527000
20
138.388000
11
187.484000
21
137.063000
0
LINE
8
Layer 1
10
187.484000
20
137.063000
11
187.452000
21
135.621000
0
LINE
8
Layer 1
10
187.452000
20
135.621000
11
187.469000
21
134.455000
0
LINE
8
Layer 1
10
187.469000
20
134.455000
11
187.581000
21
132.571000
0
LINE
8
Layer 1
10
187.581000
20
132.571000
11
187.827000
21
130.989000
0
LINE
8
Layer 1
10
187.827000
20
130.989000
11
187.970000
21
129.922000
0
LINE
8
Layer 1
10
187.970000
20
129.922000
11
188.050000
21
129.135000
0
LINE
8
Layer 1
10
188.050000
20
129.135000
11
188.086000
21
128.589000
0
LINE
8
Layer 1
10
188.086000
20
128.589000
11
188.108000
21
127.950000
0
LINE
8
Layer 1
10
188.108000
20
127.950000
11
188.099000
21
126.251000
0
LINE
8
Layer 1
10
188.099000
20
126.251000
11
188.081000
21
125.419000
0
LINE
8
Layer 1
10
188.081000
20
125.419000
11
188.095000
21
125.048000
0
LINE
8
Layer 1
10
188.095000
20
125.048000
11
188.128000
21
124.639000
0
LINE
8
Layer 1
10
188.128000
20
124.639000
11
188.202000
21
123.709000
0
LINE
8
Layer 1
10
188.202000
20
123.709000
11
188.328000
21
122.138000
0
LINE
8
Layer 1
10
188.328000
20
122.138000
11
188.528000
21
119.707000
0
LINE
8
Layer 1
10
188.528000
20
119.707000
11
188.871000
21
117.714000
0
LINE
8
Layer 1
10
188.871000
20
117.714000
11
189.208000
21
116.396000
0
LINE
8
Layer 1
10
189.208000
20
116.396000
11
189.433000
21
115.617000
0
LINE
8
Layer 1
10
189.433000
20
115.617000
11
189.556000
21
115.345000
0
LINE
8
Layer 1
10
189.556000
20
115.345000
11
189.767000
21
114.951000
0
LINE
8
Layer 1
10
189.767000
20
114.951000
11
190.039000
21
114.548000
0
LINE
8
Layer 1
10
190.039000
20
114.548000
11
190.559000
21
114.007000
0
LINE
8
Layer 1
10
190.559000
20
114.007000
11
191.150000
21
113.523000
0
LINE
8
Layer 1
10
191.150000
20
113.523000
11
191.563000
21
113.286000
0
LINE
8
Layer 1
10
191.563000
20
113.286000
11
192.180000
21
113.023000
0
LINE
8
Layer 1
10
192.180000
20
113.023000
11
192.954000
21
112.748000
0
LINE
8
Layer 1
10
192.954000
20
112.748000
11
193.427000
21
112.603000
0
LINE
8
Layer 1
10
193.427000
20
112.603000
11
193.835000
21
112.511000
0
LINE
8
Layer 1
10
193.835000
20
112.511000
11
194.490000
21
112.431000
0
LINE
8
Layer 1
10
194.490000
20
112.431000
11
195.103000
21
112.381000
0
LINE
8
Layer 1
10
195.103000
20
112.381000
11
195.570000
21
112.336000
0
LINE
8
Layer 1
10
195.570000
20
112.336000
11
196.138000
21
112.278000
0
LINE
8
Layer 1
10
196.138000
20
112.278000
11
196.811000
21
112.233000
0
LINE
8
Layer 1
10
196.811000
20
112.233000
11
197.534000
21
112.241000
0
LINE
8
Layer 1
10
197.534000
20
112.241000
11
198.161000
21
112.285000
0
LINE
8
Layer 1
10
198.161000
20
112.285000
11
198.696000
21
112.363000
0
LINE
8
Layer 1
10
198.696000
20
112.363000
11
200.058000
21
112.677000
0
LINE
8
Layer 1
10
200.058000
20
112.677000
11
201.274000
21
113.028000
0
LINE
8
Layer 1
10
201.274000
20
113.028000
11
201.274000
21
113.028000
0
LINE
8
Layer 1
10
164.013000
20
131.918000
11
163.660000
21
131.949000
0
LINE
8
Layer 1
10
163.660000
20
131.949000
11
163.235000
21
132.042000
0
LINE
8
Layer 1
10
163.235000
20
132.042000
11
163.069000
21
132.089000
0
LINE
8
Layer 1
10
163.069000
20
132.089000
11
161.825000
21
132.000000
0
LINE
8
Layer 1
10
161.825000
20
132.000000
11
160.844000
21
127.685000
0
LINE
8
Layer 1
10
160.844000
20
127.685000
11
160.769000
21
126.936000
0
LINE
8
Layer 1
10
160.769000
20
126.936000
11
160.689000
21
126.307000
0
LINE
8
Layer 1
10
160.689000
20
126.307000
11
160.556000
21
125.340000
0
LINE
8
Layer 1
10
160.556000
20
125.340000
11
160.328000
21
123.396000
0
LINE
8
Layer 1
10
160.328000
20
123.396000
11
160.183000
21
121.655000
0
LINE
8
Layer 1
10
160.183000
20
121.655000
11
160.175000
21
120.578000
0
LINE
8
Layer 1
10
160.175000
20
120.578000
11
160.236000
21
119.739000
0
LINE
8
Layer 1
10
160.236000
20
119.739000
11
160.326000
21
119.321000
0
LINE
8
Layer 1
10
160.326000
20
119.321000
11
160.473000
21
118.932000
0
LINE
8
Layer 1
10
160.473000
20
118.932000
11
160.625000
21
118.838000
0
LINE
8
Layer 1
10
160.625000
20
118.838000
11
160.989000
21
118.646000
0
LINE
8
Layer 1
10
160.989000
20
118.646000
11
161.698000
21
118.609000
0
LINE
8
Layer 1
10
161.698000
20
118.609000
11
163.063000
21
118.740000
0
LINE
8
Layer 1
10
163.063000
20
118.740000
11
164.235000
21
119.050000
0
LINE
8
Layer 1
10
164.235000
20
119.050000
11
165.889000
21
119.895000
0
LINE
8
Layer 1
10
165.889000
20
119.895000
11
166.122000
21
120.427000
0
LINE
8
Layer 1
10
166.122000
20
120.427000
11
166.304000
21
121.608000
0
LINE
8
Layer 1
10
166.304000
20
121.608000
11
166.320000
21
122.407000
0
LINE
8
Layer 1
10
166.320000
20
122.407000
11
166.212000
21
123.607000
0
LINE
8
Layer 1
10
166.212000
20
123.607000
11
166.036000
21
125.131000
0
LINE
8
Layer 1
10
166.036000
20
125.131000
11
165.866000
21
125.956000
0
LINE
8
Layer 1
10
165.866000
20
125.956000
11
165.663000
21
126.652000
0
LINE
8
Layer 1
10
165.663000
20
126.652000
11
165.457000
21
127.167000
0
LINE
8
Layer 1
10
165.457000
20
127.167000
11
165.231000
21
127.676000
0
LINE
8
Layer 1
10
165.231000
20
127.676000
11
164.884000
21
128.508000
0
LINE
8
Layer 1
10
164.884000
20
128.508000
11
164.513000
21
129.398000
0
LINE
8
Layer 1
10
164.513000
20
129.398000
11
164.246000
21
129.939000
0
LINE
8
Layer 1
10
164.246000
20
129.939000
11
164.036000
21
130.300000
0
LINE
8
Layer 1
10
164.036000
20
130.300000
11
163.845000
21
130.617000
0
LINE
8
Layer 1
10
163.845000
20
130.617000
11
163.673000
21
130.991000
0
LINE
8
Layer 1
10
163.673000
20
130.991000
11
163.563000
21
131.573000
0
LINE
8
Layer 1
10
163.563000
20
131.573000
11
164.013000
21
131.918000
0
LINE
8
Layer 1
10
164.013000
20
131.918000
11
164.013000
21
131.918000
0
LINE
8
Layer 1
10
242.938000
20
127.116000
11
242.327000
21
126.281000
0
LINE
8
Layer 1
10
242.327000
20
126.281000
11
241.581000
21
125.062000
0
LINE
8
Layer 1
10
241.581000
20
125.062000
11
241.163000
21
124.131000
0
LINE
8
Layer 1
10
241.163000
20
124.131000
11
240.510000
21
121.680000
0
LINE
8
Layer 1
10
240.510000
20
121.680000
11
240.511000
21
120.263000
0
LINE
8
Layer 1
10
240.511000
20
120.263000
11
240.674000
21
118.495000
0
LINE
8
Layer 1
10
240.674000
20
118.495000
11
240.970000
21
117.167000
0
LINE
8
Layer 1
10
240.970000
20
117.167000
11
241.503000
21
116.167000
0
LINE
8
Layer 1
10
241.503000
20
116.167000
11
242.087000
21
115.284000
0
LINE
8
Layer 1
10
242.087000
20
115.284000
11
242.359000
21
115.043000
0
LINE
8
Layer 1
10
242.359000
20
115.043000
11
242.662000
21
114.846000
0
LINE
8
Layer 1
10
242.662000
20
114.846000
11
243.626000
21
114.455000
0
LINE
8
Layer 1
10
243.626000
20
114.455000
11
244.210000
21
114.356000
0
LINE
8
Layer 1
10
244.210000
20
114.356000
11
244.609000
21
114.368000
0
LINE
8
Layer 1
10
244.609000
20
114.368000
11
245.305000
21
114.495000
0
LINE
8
Layer 1
10
245.305000
20
114.495000
11
245.571000
21
114.570000
0
LINE
8
Layer 1
10
245.571000
20
114.570000
11
246.392000
21
115.105000
0
LINE
8
Layer 1
10
246.392000
20
115.105000
11
246.978000
21
115.653000
0
LINE
8
Layer 1
10
246.978000
20
115.653000
11
247.278000
21
116.120000
0
LINE
8
Layer 1
10
247.278000
20
116.120000
11
247.490000
21
116.536000
0
LINE
8
Layer 1
10
247.490000
20
116.536000
11
247.695000
21
117.177000
0
LINE
8
Layer 1
10
247.695000
20
117.177000
11
247.936000
21
118.071000
0
LINE
8
Layer 1
10
247.936000
20
118.071000
11
248.063000
21
118.601000
0
LINE
8
Layer 1
10
248.063000
20
118.601000
11
248.159000
21
118.976000
0
LINE
8
Layer 1
10
248.159000
20
118.976000
11
248.354000
21
119.810000
0
LINE
8
Layer 1
10
248.354000
20
119.810000
11
248.522000
21
120.617000
0
LINE
8
Layer 1
10
248.522000
20
120.617000
11
248.574000
21
120.984000
0
LINE
8
Layer 1
10
248.574000
20
120.984000
11
248.598000
21
121.758000
0
LINE
8
Layer 1
10
248.598000
20
121.758000
11
248.574000
21
122.724000
0
LINE
8
Layer 1
10
248.574000
20
122.724000
11
248.473000
21
123.414000
0
LINE
8
Layer 1
10
248.473000
20
123.414000
11
248.301000
21
124.144000
0
LINE
8
Layer 1
10
248.301000
20
124.144000
11
247.830000
21
125.294000
0
LINE
8
Layer 1
10
247.830000
20
125.294000
11
247.337000
21
125.849000
0
LINE
8
Layer 1
10
247.337000
20
125.849000
11
246.891000
21
126.125000
0
LINE
8
Layer 1
10
246.891000
20
126.125000
11
246.179000
21
126.393000
0
LINE
8
Layer 1
10
246.179000
20
126.393000
11
244.500000
21
126.445000
0
LINE
8
Layer 1
10
244.500000
20
126.445000
11
242.938000
21
127.116000
0
LINE
8
Layer 1
10
242.938000
20
127.116000
11
242.938000
21
127.116000
 0 
ENDSEC
 0 
EOF