999
"DXF R12 Output" (www.mydxf.blogspot.com)
 0 
SECTION
 2 
HEADER
 9 
$ACADVER
 1 
AC1009
 9 
$EXTMIN
 10 
 0 
 20 
 0 
 9 
$EXTMAX
 10 
 8.5 
 20 
 11 
 0 
ENDSEC
 0 
SECTION
 2 
ENTITIES
0
LINE
8
Layer 1
10
34.715300
20
96.051600
11
34.697800
21
95.885000
0
LINE
8
Layer 1
10
34.697800
20
95.885000
11
34.680600
21
95.806900
0
LINE
8
Layer 1
10
34.680600
20
95.806900
11
34.654600
21
95.709800
0
LINE
8
Layer 1
10
34.654600
20
95.709800
11
34.573000
21
95.538200
0
LINE
8
Layer 1
10
34.573000
20
95.538200
11
34.469200
21
95.370800
0
LINE
8
Layer 1
10
34.469200
20
95.370800
11
34.308000
21
95.177000
0
LINE
8
Layer 1
10
34.308000
20
95.177000
11
34.144300
21
94.931100
0
LINE
8
Layer 1
10
34.144300
20
94.931100
11
34.059700
21
94.699100
0
LINE
8
Layer 1
10
34.059700
20
94.699100
11
34.060200
21
94.403900
0
LINE
8
Layer 1
10
34.060200
20
94.403900
11
34.108800
21
94.156200
0
LINE
8
Layer 1
10
34.108800
20
94.156200
11
34.141800
21
94.073700
0
LINE
8
Layer 1
10
34.141800
20
94.073700
11
34.253600
21
93.895100
0
LINE
8
Layer 1
10
34.253600
20
93.895100
11
34.524800
21
93.574500
0
LINE
8
Layer 1
10
34.524800
20
93.574500
11
34.746000
21
93.364000
0
LINE
8
Layer 1
10
34.746000
20
93.364000
11
34.839200
21
93.303000
0
LINE
8
Layer 1
10
34.839200
20
93.303000
11
35.062100
21
93.150000
0
LINE
8
Layer 1
10
35.062100
20
93.150000
11
35.342700
21
92.958400
0
LINE
8
Layer 1
10
35.342700
20
92.958400
11
35.512800
21
92.844400
0
LINE
8
Layer 1
10
35.512800
20
92.844400
11
35.598600
21
92.784800
0
LINE
8
Layer 1
10
35.598600
20
92.784800
11
35.713200
21
92.697900
0
LINE
8
Layer 1
10
35.713200
20
92.697900
11
35.909600
21
92.507700
0
LINE
8
Layer 1
10
35.909600
20
92.507700
11
36.091700
21
92.255700
0
LINE
8
Layer 1
10
36.091700
20
92.255700
11
36.257900
21
91.981400
0
LINE
8
Layer 1
10
36.257900
20
91.981400
11
36.405800
21
91.658800
0
LINE
8
Layer 1
10
36.405800
20
91.658800
11
36.506300
21
91.385600
0
LINE
8
Layer 1
10
36.506300
20
91.385600
11
36.572900
21
91.052600
0
LINE
8
Layer 1
10
36.572900
20
91.052600
11
36.660400
21
89.925900
0
LINE
8
Layer 1
10
36.660400
20
89.925900
11
36.713400
21
88.799900
0
LINE
8
Layer 1
10
36.713400
20
88.799900
11
36.682900
21
88.182400
0
LINE
8
Layer 1
10
36.682900
20
88.182400
11
36.620300
21
87.590800
0
LINE
8
Layer 1
10
36.620300
20
87.590800
11
36.502900
21
87.076300
0
LINE
8
Layer 1
10
36.502900
20
87.076300
11
36.277900
21
86.520600
0
LINE
8
Layer 1
10
36.277900
20
86.520600
11
35.990400
21
86.069900
0
LINE
8
Layer 1
10
35.990400
20
86.069900
11
35.732100
21
85.783200
0
LINE
8
Layer 1
10
35.732100
20
85.783200
11
35.353700
21
85.512300
0
LINE
8
Layer 1
10
35.353700
20
85.512300
11
34.522200
21
85.117100
0
LINE
8
Layer 1
10
34.522200
20
85.117100
11
33.559300
21
84.807800
0
LINE
8
Layer 1
10
33.559300
20
84.807800
11
32.756100
21
84.668700
0
LINE
8
Layer 1
10
32.756100
20
84.668700
11
31.852700
21
84.555500
0
LINE
8
Layer 1
10
31.852700
20
84.555500
11
30.750900
21
84.439300
0
LINE
8
Layer 1
10
30.750900
20
84.439300
11
29.878600
21
84.369500
0
LINE
8
Layer 1
10
29.878600
20
84.369500
11
28.964400
21
84.313900
0
LINE
8
Layer 1
10
28.964400
20
84.313900
11
27.660600
21
84.208400
0
LINE
8
Layer 1
10
27.660600
20
84.208400
11
26.475800
21
84.096900
0
LINE
8
Layer 1
10
26.475800
20
84.096900
11
25.744300
21
84.034800
0
LINE
8
Layer 1
10
25.744300
20
84.034800
11
25.013600
21
83.942800
0
LINE
8
Layer 1
10
25.013600
20
83.942800
11
24.101500
21
83.807900
0
LINE
8
Layer 1
10
24.101500
20
83.807900
11
23.396200
21
83.719600
0
LINE
8
Layer 1
10
23.396200
20
83.719600
11
22.791400
21
83.656400
0
LINE
8
Layer 1
10
22.791400
20
83.656400
11
22.331900
21
83.602200
0
LINE
8
Layer 1
10
22.331900
20
83.602200
11
21.989900
21
83.552500
0
LINE
8
Layer 1
10
21.989900
20
83.552500
11
21.536600
21
83.483400
0
LINE
8
Layer 1
10
21.536600
20
83.483400
11
20.655800
21
83.382000
0
LINE
8
Layer 1
10
20.655800
20
83.382000
11
19.714900
21
83.292300
0
LINE
8
Layer 1
10
19.714900
20
83.292300
11
19.246100
21
83.240400
0
LINE
8
Layer 1
10
19.246100
20
83.240400
11
18.654300
21
83.161900
0
LINE
8
Layer 1
10
18.654300
20
83.161900
11
17.207400
21
82.980200
0
LINE
8
Layer 1
10
17.207400
20
82.980200
11
16.068600
21
82.824400
0
LINE
8
Layer 1
10
16.068600
20
82.824400
11
15.701400
21
82.740000
0
LINE
8
Layer 1
10
15.701400
20
82.740000
11
14.744100
21
82.448200
0
LINE
8
Layer 1
10
14.744100
20
82.448200
11
13.476700
21
81.975200
0
LINE
8
Layer 1
10
13.476700
20
81.975200
11
12.673700
21
81.592200
0
LINE
8
Layer 1
10
12.673700
20
81.592200
11
11.979500
21
81.225000
0
LINE
8
Layer 1
10
11.979500
20
81.225000
11
11.230200
21
80.792100
0
LINE
8
Layer 1
10
11.230200
20
80.792100
11
10.616100
21
80.384600
0
LINE
8
Layer 1
10
10.616100
20
80.384600
11
10.326800
21
80.185300
0
LINE
8
Layer 1
10
10.326800
20
80.185300
11
9.673160
21
79.702200
0
LINE
8
Layer 1
10
9.673160
20
79.702200
11
8.481620
21
78.760700
0
LINE
8
Layer 1
10
8.481620
20
78.760700
11
7.518960
21
77.939400
0
LINE
8
Layer 1
10
7.518960
20
77.939400
11
6.613870
21
77.069900
0
LINE
8
Layer 1
10
6.613870
20
77.069900
11
5.937390
21
76.332100
0
LINE
8
Layer 1
10
5.937390
20
76.332100
11
5.466080
21
75.676000
0
LINE
8
Layer 1
10
5.466080
20
75.676000
11
4.868050
21
74.709900
0
LINE
8
Layer 1
10
4.868050
20
74.709900
11
4.531070
21
74.129400
0
LINE
8
Layer 1
10
4.531070
20
74.129400
11
4.209340
21
73.416500
0
LINE
8
Layer 1
10
4.209340
20
73.416500
11
3.689210
21
72.012700
0
LINE
8
Layer 1
10
3.689210
20
72.012700
11
3.365780
21
70.925900
0
LINE
8
Layer 1
10
3.365780
20
70.925900
11
3.214790
21
70.395300
0
LINE
8
Layer 1
10
3.214790
20
70.395300
11
2.981960
21
69.536800
0
LINE
8
Layer 1
10
2.981960
20
69.536800
11
2.717800
21
68.409600
0
LINE
8
Layer 1
10
2.717800
20
68.409600
11
2.498510
21
67.102900
0
LINE
8
Layer 1
10
2.498510
20
67.102900
11
2.300110
21
65.772800
0
LINE
8
Layer 1
10
2.300110
20
65.772800
11
2.206130
21
64.937400
0
LINE
8
Layer 1
10
2.206130
20
64.937400
11
2.155610
21
64.353500
0
LINE
8
Layer 1
10
2.155610
20
64.353500
11
2.080260
21
63.628800
0
LINE
8
Layer 1
10
2.080260
20
63.628800
11
1.997570
21
62.630000
0
LINE
8
Layer 1
10
1.997570
20
62.630000
11
1.926170
21
60.999600
0
LINE
8
Layer 1
10
1.926170
20
60.999600
11
1.871980
21
59.099900
0
LINE
8
Layer 1
10
1.871980
20
59.099900
11
1.872830
21
57.487900
0
LINE
8
Layer 1
10
1.872830
20
57.487900
11
1.948180
21
55.485000
0
LINE
8
Layer 1
10
1.948180
20
55.485000
11
2.072640
21
53.718300
0
LINE
8
Layer 1
10
2.072640
20
53.718300
11
2.171130
21
52.881500
0
LINE
8
Layer 1
10
2.171130
20
52.881500
11
2.251850
21
52.485500
0
LINE
8
Layer 1
10
2.251850
20
52.485500
11
2.325230
21
52.168900
0
LINE
8
Layer 1
10
2.325230
20
52.168900
11
2.444610
21
51.641100
0
LINE
8
Layer 1
10
2.444610
20
51.641100
11
2.749410
21
50.512200
0
LINE
8
Layer 1
10
2.749410
20
50.512200
11
3.065780
21
49.431600
0
LINE
8
Layer 1
10
3.065780
20
49.431600
11
3.586480
21
47.971700
0
LINE
8
Layer 1
10
3.586480
20
47.971700
11
4.194100
21
46.220700
0
LINE
8
Layer 1
10
4.194100
20
46.220700
11
4.639730
21
44.690000
0
LINE
8
Layer 1
10
4.639730
20
44.690000
11
5.011420
21
43.461200
0
LINE
8
Layer 1
10
5.011420
20
43.461200
11
5.188650
21
42.982300
0
LINE
8
Layer 1
10
5.188650
20
42.982300
11
5.502760
21
42.252400
0
LINE
8
Layer 1
10
5.502760
20
42.252400
11
6.025440
21
41.157700
0
LINE
8
Layer 1
10
6.025440
20
41.157700
11
6.749060
21
39.951500
0
LINE
8
Layer 1
10
6.749060
20
39.951500
11
7.863270
21
38.280400
0
LINE
8
Layer 1
10
7.863270
20
38.280400
11
8.886040
21
36.798200
0
LINE
8
Layer 1
10
8.886040
20
36.798200
11
9.430730
21
36.107300
0
LINE
8
Layer 1
10
9.430730
20
36.107300
11
9.833180
21
35.645300
0
LINE
8
Layer 1
10
9.833180
20
35.645300
11
10.162200
21
35.253900
0
LINE
8
Layer 1
10
10.162200
20
35.253900
11
10.472400
21
34.920300
0
LINE
8
Layer 1
10
10.472400
20
34.920300
11
10.961200
21
34.504000
0
LINE
8
Layer 1
10
10.961200
20
34.504000
11
12.034200
21
33.453600
0
LINE
8
Layer 1
10
12.034200
20
33.453600
11
13.374200
21
32.162700
0
LINE
8
Layer 1
10
13.374200
20
32.162700
11
14.675300
21
31.257300
0
LINE
8
Layer 1
10
14.675300
20
31.257300
11
15.545100
21
30.697700
0
LINE
8
Layer 1
10
15.545100
20
30.697700
11
16.254000
21
30.337300
0
LINE
8
Layer 1
10
16.254000
20
30.337300
11
17.170700
21
29.880100
0
LINE
8
Layer 1
10
17.170700
20
29.880100
11
17.739100
21
29.559800
0
LINE
8
Layer 1
10
17.739100
20
29.559800
11
18.450500
21
29.199400
0
LINE
8
Layer 1
10
18.450500
20
29.199400
11
19.241900
21
28.814700
0
LINE
8
Layer 1
10
19.241900
20
28.814700
11
19.726500
21
28.592000
0
LINE
8
Layer 1
10
19.726500
20
28.592000
11
20.213000
21
28.401300
0
LINE
8
Layer 1
10
20.213000
20
28.401300
11
21.185000
21
28.064800
0
LINE
8
Layer 1
10
21.185000
20
28.064800
11
22.429300
21
27.691700
0
LINE
8
Layer 1
10
22.429300
20
27.691700
11
23.300500
21
27.493300
0
LINE
8
Layer 1
10
23.300500
20
27.493300
11
23.738300
21
27.420200
0
LINE
8
Layer 1
10
23.738300
20
27.420200
11
24.601300
21
27.312700
0
LINE
8
Layer 1
10
24.601300
20
27.312700
11
25.576400
21
27.201500
0
LINE
8
Layer 1
10
25.576400
20
27.201500
11
26.730400
21
27.108700
0
LINE
8
Layer 1
10
26.730400
20
27.108700
11
28.047200
21
26.985600
0
LINE
8
Layer 1
10
28.047200
20
26.985600
11
28.832100
21
26.893300
0
LINE
8
Layer 1
10
28.832100
20
26.893300
11
29.613300
21
26.835500
0
LINE
8
Layer 1
10
29.613300
20
26.835500
11
30.306100
21
26.788100
0
LINE
8
Layer 1
10
30.306100
20
26.788100
11
31.124900
21
26.738700
0
LINE
8
Layer 1
10
31.124900
20
26.738700
11
32.484300
21
26.667000
0
LINE
8
Layer 1
10
32.484300
20
26.667000
11
33.623100
21
26.610300
0
LINE
8
Layer 1
10
33.623100
20
26.610300
11
34.444600
21
26.558100
0
LINE
8
Layer 1
10
34.444600
20
26.558100
11
35.142000
21
26.503000
0
LINE
8
Layer 1
10
35.142000
20
26.503000
11
36.283900
21
26.415000
0
LINE
8
Layer 1
10
36.283900
20
26.415000
11
37.879800
21
26.350300
0
LINE
8
Layer 1
10
37.879800
20
26.350300
11
39.067400
21
26.382500
0
LINE
8
Layer 1
10
39.067400
20
26.382500
11
40.102600
21
26.458700
0
LINE
8
Layer 1
10
40.102600
20
26.458700
11
41.311700
21
26.598700
0
LINE
8
Layer 1
10
41.311700
20
26.598700
11
42.564200
21
26.727100
0
LINE
8
Layer 1
10
42.564200
20
26.727100
11
44.061100
21
26.850400
0
LINE
8
Layer 1
10
44.061100
20
26.850400
11
45.918400
21
27.034200
0
LINE
8
Layer 1
10
45.918400
20
27.034200
11
47.124900
21
27.198400
0
LINE
8
Layer 1
10
47.124900
20
27.198400
11
48.085300
21
27.372600
0
LINE
8
Layer 1
10
48.085300
20
27.372600
11
49.065400
21
27.517000
0
LINE
8
Layer 1
10
49.065400
20
27.517000
11
49.845200
21
27.709500
0
LINE
8
Layer 1
10
49.845200
20
27.709500
11
50.364800
21
27.885100
0
LINE
8
Layer 1
10
50.364800
20
27.885100
11
50.565200
21
27.937800
0
LINE
8
Layer 1
10
50.565200
20
27.937800
11
50.787800
21
27.991200
0
LINE
8
Layer 1
10
50.787800
20
27.991200
11
50.957700
21
28.028700
0
LINE
8
Layer 1
10
50.957700
20
28.028700
11
51.159800
21
28.078400
0
LINE
8
Layer 1
10
51.159800
20
28.078400
11
51.369500
21
28.132300
0
LINE
8
Layer 1
10
51.369500
20
28.132300
11
51.629700
21
28.176000
0
LINE
8
Layer 1
10
51.629700
20
28.176000
11
52.277700
21
28.281000
0
LINE
8
Layer 1
10
52.277700
20
28.281000
11
53.182200
21
28.454300
0
LINE
8
Layer 1
10
53.182200
20
28.454300
11
53.873100
21
28.607000
0
LINE
8
Layer 1
10
53.873100
20
28.607000
11
54.402000
21
28.743300
0
LINE
8
Layer 1
10
54.402000
20
28.743300
11
54.913900
21
28.901600
0
LINE
8
Layer 1
10
54.913900
20
28.901600
11
55.953300
21
29.321300
0
LINE
8
Layer 1
10
55.953300
20
29.321300
11
57.971200
21
30.252100
0
LINE
8
Layer 1
10
57.971200
20
30.252100
11
59.598200
21
31.028700
0
LINE
8
Layer 1
10
59.598200
20
31.028700
11
60.214000
21
31.318600
0
LINE
8
Layer 1
10
60.214000
20
31.318600
11
60.978600
21
31.639500
0
LINE
8
Layer 1
10
60.978600
20
31.639500
11
62.138500
21
32.132200
0
LINE
8
Layer 1
10
62.138500
20
32.132200
11
63.086500
21
32.601600
0
LINE
8
Layer 1
10
63.086500
20
32.601600
11
63.865400
21
33.101400
0
LINE
8
Layer 1
10
63.865400
20
33.101400
11
64.703600
21
33.736400
0
LINE
8
Layer 1
10
64.703600
20
33.736400
11
65.468200
21
34.430900
0
LINE
8
Layer 1
10
65.468200
20
34.430900
11
66.425700
21
35.503900
0
LINE
8
Layer 1
10
66.425700
20
35.503900
11
67.284800
21
36.555800
0
LINE
8
Layer 1
10
67.284800
20
36.555800
11
67.874100
21
37.324000
0
LINE
8
Layer 1
10
67.874100
20
37.324000
11
68.650200
21
38.385100
0
LINE
8
Layer 1
10
68.650200
20
38.385100
11
69.459600
21
39.546500
0
LINE
8
Layer 1
10
69.459600
20
39.546500
11
70.095500
21
40.580300
0
LINE
8
Layer 1
10
70.095500
20
40.580300
11
70.726200
21
41.648200
0
LINE
8
Layer 1
10
70.726200
20
41.648200
11
71.450100
21
42.829300
0
LINE
8
Layer 1
10
71.450100
20
42.829300
11
72.205900
21
44.117600
0
LINE
8
Layer 1
10
72.205900
20
44.117600
11
72.745300
21
45.091600
0
LINE
8
Layer 1
10
72.745300
20
45.091600
11
73.155300
21
45.956000
0
LINE
8
Layer 1
10
73.155300
20
45.956000
11
73.720900
21
47.327600
0
LINE
8
Layer 1
10
73.720900
20
47.327600
11
74.157200
21
48.466400
0
LINE
8
Layer 1
10
74.157200
20
48.466400
11
74.320900
21
48.937100
0
LINE
8
Layer 1
10
74.320900
20
48.937100
11
74.541000
21
49.827000
0
LINE
8
Layer 1
10
74.541000
20
49.827000
11
74.793300
21
50.929600
0
LINE
8
Layer 1
10
74.793300
20
50.929600
11
74.970600
21
51.737900
0
LINE
8
Layer 1
10
74.970600
20
51.737900
11
75.171200
21
52.804700
0
LINE
8
Layer 1
10
75.171200
20
52.804700
11
75.448900
21
54.263800
0
LINE
8
Layer 1
10
75.448900
20
54.263800
11
75.732600
21
55.670400
0
LINE
8
Layer 1
10
75.732600
20
55.670400
11
75.910700
21
56.551500
0
LINE
8
Layer 1
10
75.910700
20
56.551500
11
76.061100
21
57.637500
0
LINE
8
Layer 1
10
76.061100
20
57.637500
11
76.214100
21
59.157800
0
LINE
8
Layer 1
10
76.214100
20
59.157800
11
76.298700
21
60.223200
0
LINE
8
Layer 1
10
76.298700
20
60.223200
11
76.321000
21
60.915200
0
LINE
8
Layer 1
10
76.321000
20
60.915200
11
76.304400
21
61.800000
0
LINE
8
Layer 1
10
76.304400
20
61.800000
11
76.267700
21
62.591000
0
LINE
8
Layer 1
10
76.267700
20
62.591000
11
76.199100
21
63.356100
0
LINE
8
Layer 1
10
76.199100
20
63.356100
11
76.055700
21
64.654900
0
LINE
8
Layer 1
10
76.055700
20
64.654900
11
75.894600
21
66.006200
0
LINE
8
Layer 1
10
75.894600
20
66.006200
11
75.755200
21
66.980700
0
LINE
8
Layer 1
10
75.755200
20
66.980700
11
75.555600
21
67.973900
0
LINE
8
Layer 1
10
75.555600
20
67.973900
11
75.394500
21
68.678300
0
LINE
8
Layer 1
10
75.394500
20
68.678300
11
75.305300
21
69.038700
0
LINE
8
Layer 1
10
75.305300
20
69.038700
11
75.165900
21
69.528900
0
LINE
8
Layer 1
10
75.165900
20
69.528900
11
75.026200
21
69.951700
0
LINE
8
Layer 1
10
75.026200
20
69.951700
11
74.889000
21
70.346500
0
LINE
8
Layer 1
10
74.889000
20
70.346500
11
74.785700
21
70.683200
0
LINE
8
Layer 1
10
74.785700
20
70.683200
11
74.589000
21
71.295000
0
LINE
8
Layer 1
10
74.589000
20
71.295000
11
74.330200
21
72.048000
0
LINE
8
Layer 1
10
74.330200
20
72.048000
11
74.153500
21
72.489100
0
LINE
8
Layer 1
10
74.153500
20
72.489100
11
74.013000
21
72.790300
0
LINE
8
Layer 1
10
74.013000
20
72.790300
11
73.840800
21
73.169300
0
LINE
8
Layer 1
10
73.840800
20
73.169300
11
73.576700
21
73.791600
0
LINE
8
Layer 1
10
73.576700
20
73.791600
11
73.347800
21
74.331800
0
LINE
8
Layer 1
10
73.347800
20
74.331800
11
73.165800
21
74.719000
0
LINE
8
Layer 1
10
73.165800
20
74.719000
11
73.061100
21
74.917600
0
LINE
8
Layer 1
10
73.061100
20
74.917600
11
72.598200
21
75.688700
0
LINE
8
Layer 1
10
72.598200
20
75.688700
11
71.911900
21
76.816200
0
LINE
8
Layer 1
10
71.911900
20
76.816200
11
71.460300
21
77.495700
0
LINE
8
Layer 1
10
71.460300
20
77.495700
11
71.157200
21
77.914000
0
LINE
8
Layer 1
10
71.157200
20
77.914000
11
70.864500
21
78.287900
0
LINE
8
Layer 1
10
70.864500
20
78.287900
11
70.375200
21
78.854400
0
LINE
8
Layer 1
10
70.375200
20
78.854400
11
69.916800
21
79.318100
0
LINE
8
Layer 1
10
69.916800
20
79.318100
11
69.625900
21
79.574600
0
LINE
8
Layer 1
10
69.625900
20
79.574600
11
69.381700
21
79.775300
0
LINE
8
Layer 1
10
69.381700
20
79.775300
11
69.035500
21
80.026400
0
LINE
8
Layer 1
10
69.035500
20
80.026400
11
68.579700
21
80.274800
0
LINE
8
Layer 1
10
68.579700
20
80.274800
11
67.841100
21
80.650400
0
LINE
8
Layer 1
10
67.841100
20
80.650400
11
66.872500
21
81.166300
0
LINE
8
Layer 1
10
66.872500
20
81.166300
11
65.821800
21
81.712100
0
LINE
8
Layer 1
10
65.821800
20
81.712100
11
64.387000
21
82.408900
0
LINE
8
Layer 1
10
64.387000
20
82.408900
11
63.049000
21
82.979900
0
LINE
8
Layer 1
10
63.049000
20
82.979900
11
61.653700
21
83.482800
0
LINE
8
Layer 1
10
61.653700
20
83.482800
11
60.331200
21
83.947600
0
LINE
8
Layer 1
10
60.331200
20
83.947600
11
59.263800
21
84.198200
0
LINE
8
Layer 1
10
59.263800
20
84.198200
11
58.002300
21
84.354600
0
LINE
8
Layer 1
10
58.002300
20
84.354600
11
57.183300
21
84.407400
0
LINE
8
Layer 1
10
57.183300
20
84.407400
11
56.822000
21
84.407900
0
LINE
8
Layer 1
10
56.822000
20
84.407900
11
56.517800
21
84.371000
0
LINE
8
Layer 1
10
56.517800
20
84.371000
11
56.189800
21
84.321300
0
LINE
8
Layer 1
10
56.189800
20
84.321300
11
55.692600
21
84.257200
0
LINE
8
Layer 1
10
55.692600
20
84.257200
11
55.031600
21
84.160400
0
LINE
8
Layer 1
10
55.031600
20
84.160400
11
54.440100
21
84.084500
0
LINE
8
Layer 1
10
54.440100
20
84.084500
11
53.975200
21
84.058000
0
LINE
8
Layer 1
10
53.975200
20
84.058000
11
53.605000
21
84.067600
0
LINE
8
Layer 1
10
53.605000
20
84.067600
11
53.197200
21
84.090100
0
LINE
8
Layer 1
10
53.197200
20
84.090100
11
52.671400
21
84.107600
0
LINE
8
Layer 1
10
52.671400
20
84.107600
11
51.974000
21
84.156500
0
LINE
8
Layer 1
10
51.974000
20
84.156500
11
50.941100
21
84.198200
0
LINE
8
Layer 1
10
50.941100
20
84.198200
11
50.116400
21
84.196000
0
LINE
8
Layer 1
10
50.116400
20
84.196000
11
49.622200
21
84.189800
0
LINE
8
Layer 1
10
49.622200
20
84.189800
11
49.271400
21
84.188900
0
LINE
8
Layer 1
10
49.271400
20
84.188900
11
48.864800
21
84.153900
0
LINE
8
Layer 1
10
48.864800
20
84.153900
11
48.246100
21
84.075700
0
LINE
8
Layer 1
10
48.246100
20
84.075700
11
47.749700
21
83.993600
0
LINE
8
Layer 1
10
47.749700
20
83.993600
11
47.122300
21
83.866100
0
LINE
8
Layer 1
10
47.122300
20
83.866100
11
46.687700
21
83.775500
0
LINE
8
Layer 1
10
46.687700
20
83.775500
11
46.465600
21
83.753500
0
LINE
8
Layer 1
10
46.465600
20
83.753500
11
46.051600
21
83.744100
0
LINE
8
Layer 1
10
46.051600
20
83.744100
11
45.648800
21
83.784800
0
LINE
8
Layer 1
10
45.648800
20
83.784800
11
45.177800
21
83.887800
0
LINE
8
Layer 1
10
45.177800
20
83.887800
11
44.693200
21
84.024900
0
LINE
8
Layer 1
10
44.693200
20
84.024900
11
44.245100
21
84.188100
0
LINE
8
Layer 1
10
44.245100
20
84.188100
11
43.827400
21
84.346700
0
LINE
8
Layer 1
10
43.827400
20
84.346700
11
43.564100
21
84.437300
0
LINE
8
Layer 1
10
43.564100
20
84.437300
11
43.361200
21
84.509500
0
LINE
8
Layer 1
10
43.361200
20
84.509500
11
43.022200
21
84.648100
0
LINE
8
Layer 1
10
43.022200
20
84.648100
11
42.782300
21
84.750500
0
LINE
8
Layer 1
10
42.782300
20
84.750500
11
42.615000
21
84.813800
0
LINE
8
Layer 1
10
42.615000
20
84.813800
11
42.304200
21
84.911400
0
LINE
8
Layer 1
10
42.304200
20
84.911400
11
42.025100
21
84.984200
0
LINE
8
Layer 1
10
42.025100
20
84.984200
11
41.805000
21
85.049700
0
LINE
8
Layer 1
10
41.805000
20
85.049700
11
41.648100
21
85.096800
0
LINE
8
Layer 1
10
41.648100
20
85.096800
11
41.565400
21
85.130700
0
LINE
8
Layer 1
10
41.565400
20
85.130700
11
41.440100
21
85.174200
0
LINE
8
Layer 1
10
41.440100
20
85.174200
11
41.332000
21
85.249200
0
LINE
8
Layer 1
10
41.332000
20
85.249200
11
41.413800
21
85.572400
0
LINE
8
Layer 1
10
41.413800
20
85.572400
11
41.608800
21
86.101000
0
LINE
8
Layer 1
10
41.608800
20
86.101000
11
41.800500
21
86.636600
0
LINE
8
Layer 1
10
41.800500
20
86.636600
11
41.969800
21
87.490600
0
LINE
8
Layer 1
10
41.969800
20
87.490600
11
42.063200
21
88.422800
0
LINE
8
Layer 1
10
42.063200
20
88.422800
11
42.050200
21
88.974800
0
LINE
8
Layer 1
10
42.050200
20
88.974800
11
41.877800
21
89.948500
0
LINE
8
Layer 1
10
41.877800
20
89.948500
11
41.685300
21
90.872500
0
LINE
8
Layer 1
10
41.685300
20
90.872500
11
41.510600
21
91.750800
0
LINE
8
Layer 1
10
41.510600
20
91.750800
11
41.316500
21
92.814800
0
LINE
8
Layer 1
10
41.316500
20
92.814800
11
41.107000
21
93.607200
0
LINE
8
Layer 1
10
41.107000
20
93.607200
11
40.813300
21
94.404800
0
LINE
8
Layer 1
10
40.813300
20
94.404800
11
40.595400
21
94.904600
0
LINE
8
Layer 1
10
40.595400
20
94.904600
11
40.433700
21
95.213100
0
LINE
8
Layer 1
10
40.433700
20
95.213100
11
40.243400
21
95.482600
0
LINE
8
Layer 1
10
40.243400
20
95.482600
11
39.864700
21
95.821500
0
LINE
8
Layer 1
10
39.864700
20
95.821500
11
39.472400
21
96.110800
0
LINE
8
Layer 1
10
39.472400
20
96.110800
11
39.197000
21
96.267700
0
LINE
8
Layer 1
10
39.197000
20
96.267700
11
38.906300
21
96.399300
0
LINE
8
Layer 1
10
38.906300
20
96.399300
11
38.586200
21
96.499700
0
LINE
8
Layer 1
10
38.586200
20
96.499700
11
37.963700
21
96.599100
0
LINE
8
Layer 1
10
37.963700
20
96.599100
11
36.986600
21
96.616300
0
LINE
8
Layer 1
10
36.986600
20
96.616300
11
36.026500
21
96.477100
0
LINE
8
Layer 1
10
36.026500
20
96.477100
11
35.365500
21
96.262400
0
LINE
8
Layer 1
10
35.365500
20
96.262400
11
34.933400
21
96.025000
0
LINE
8
Layer 1
10
34.933400
20
96.025000
11
34.595100
21
95.843000
0
LINE
8
Layer 1
10
20.441900
20
70.217800
11
20.949300
21
69.308500
0
LINE
8
Layer 1
10
20.949300
20
69.308500
11
22.568400
21
67.244600
0
LINE
8
Layer 1
10
22.568400
20
67.244600
11
23.279100
21
66.583100
0
LINE
8
Layer 1
10
23.279100
20
66.583100
11
23.456000
21
66.421400
0
LINE
8
Layer 1
10
23.456000
20
66.421400
11
23.601700
21
66.297200
0
LINE
8
Layer 1
10
23.601700
20
66.297200
11
23.768700
21
66.102400
0
LINE
8
Layer 1
10
23.768700
20
66.102400
11
23.931600
21
65.913600
0
LINE
8
Layer 1
10
23.931600
20
65.913600
11
24.062500
21
65.829800
0
LINE
8
Layer 1
10
24.062500
20
65.829800
11
24.583500
21
65.466000
0
LINE
8
Layer 1
10
24.583500
20
65.466000
11
25.211500
21
65.018700
0
LINE
8
Layer 1
10
25.211500
20
65.018700
11
25.950000
21
64.452900
0
LINE
8
Layer 1
10
25.950000
20
64.452900
11
26.982700
21
63.668000
0
LINE
8
Layer 1
10
26.982700
20
63.668000
11
28.060500
21
62.974900
0
LINE
8
Layer 1
10
28.060500
20
62.974900
11
29.046000
21
62.420000
0
LINE
8
Layer 1
10
29.046000
20
62.420000
11
29.743700
21
62.079600
0
LINE
8
Layer 1
10
29.743700
20
62.079600
11
30.367700
21
61.810700
0
LINE
8
Layer 1
10
30.367700
20
61.810700
11
30.875400
21
61.601000
0
LINE
8
Layer 1
10
30.875400
20
61.601000
11
31.337100
21
61.394100
0
LINE
8
Layer 1
10
31.337100
20
61.394100
11
31.863100
21
61.152500
0
LINE
8
Layer 1
10
31.863100
20
61.152500
11
32.294900
21
60.969400
0
LINE
8
Layer 1
10
32.294900
20
60.969400
11
32.802400
21
60.743000
0
LINE
8
Layer 1
10
32.802400
20
60.743000
11
33.329600
21
60.446100
0
LINE
8
Layer 1
10
33.329600
20
60.446100
11
33.700700
21
60.068500
0
LINE
8
Layer 1
10
33.700700
20
60.068500
11
33.894600
21
59.801300
0
LINE
8
Layer 1
10
33.894600
20
59.801300
11
33.951900
21
59.674800
0
LINE
8
Layer 1
10
33.951900
20
59.674800
11
33.723300
21
59.367500
0
LINE
8
Layer 1
10
33.723300
20
59.367500
11
33.331000
21
59.097700
0
LINE
8
Layer 1
10
33.331000
20
59.097700
11
32.914400
21
58.911400
0
LINE
8
Layer 1
10
32.914400
20
58.911400
11
32.463700
21
58.774000
0
LINE
8
Layer 1
10
32.463700
20
58.774000
11
32.009300
21
58.638500
0
LINE
8
Layer 1
10
32.009300
20
58.638500
11
31.662800
21
58.556400
0
LINE
8
Layer 1
10
31.662800
20
58.556400
11
30.584400
21
58.458500
0
LINE
8
Layer 1
10
30.584400
20
58.458500
11
29.437400
21
58.421500
0
LINE
8
Layer 1
10
29.437400
20
58.421500
11
28.988200
21
58.468100
0
LINE
8
Layer 1
10
28.988200
20
58.468100
11
28.417500
21
58.536100
0
LINE
8
Layer 1
10
28.417500
20
58.536100
11
27.075000
21
58.753700
0
LINE
8
Layer 1
10
27.075000
20
58.753700
11
25.585400
21
59.044600
0
LINE
8
Layer 1
10
25.585400
20
59.044600
11
24.718700
21
59.272100
0
LINE
8
Layer 1
10
24.718700
20
59.272100
11
23.419900
21
59.698000
0
LINE
8
Layer 1
10
23.419900
20
59.698000
11
22.291900
21
60.081000
0
LINE
8
Layer 1
10
22.291900
20
60.081000
11
21.792100
21
60.248900
0
LINE
8
Layer 1
10
21.792100
20
60.248900
11
21.268000
21
60.407800
0
LINE
8
Layer 1
10
21.268000
20
60.407800
11
20.717400
21
60.551400
0
LINE
8
Layer 1
10
20.717400
20
60.551400
11
19.884500
21
60.757700
0
LINE
8
Layer 1
10
19.884500
20
60.757700
11
19.139200
21
60.946200
0
LINE
8
Layer 1
10
19.139200
20
60.946200
11
18.760700
21
61.048100
0
LINE
8
Layer 1
10
18.760700
20
61.048100
11
17.736200
21
61.283500
0
LINE
8
Layer 1
10
17.736200
20
61.283500
11
16.376800
21
61.600200
0
LINE
8
Layer 1
10
16.376800
20
61.600200
11
15.723200
21
61.790700
0
LINE
8
Layer 1
10
15.723200
20
61.790700
11
15.358200
21
61.935700
0
LINE
8
Layer 1
10
15.358200
20
61.935700
11
15.105700
21
62.040100
0
LINE
8
Layer 1
10
15.105700
20
62.040100
11
14.942000
21
62.118000
0
LINE
8
Layer 1
10
14.942000
20
62.118000
11
14.813600
21
62.197300
0
LINE
8
Layer 1
10
14.813600
20
62.197300
11
14.662800
21
62.330800
0
LINE
8
Layer 1
10
14.662800
20
62.330800
11
14.761900
21
62.874400
0
LINE
8
Layer 1
10
14.761900
20
62.874400
11
15.094600
21
63.670800
0
LINE
8
Layer 1
10
15.094600
20
63.670800
11
15.770600
21
64.589700
0
LINE
8
Layer 1
10
15.770600
20
64.589700
11
16.726200
21
65.782400
0
LINE
8
Layer 1
10
16.726200
20
65.782400
11
17.586700
21
66.961500
0
LINE
8
Layer 1
10
17.586700
20
66.961500
11
18.159300
21
67.843200
0
LINE
8
Layer 1
10
18.159300
20
67.843200
11
18.548800
21
68.466600
0
LINE
8
Layer 1
10
18.548800
20
68.466600
11
18.878400
21
69.003400
0
LINE
8
Layer 1
10
18.878400
20
69.003400
11
19.283900
21
69.794200
0
LINE
8
Layer 1
10
19.283900
20
69.794200
11
19.607900
21
70.461600
0
LINE
8
Layer 1
10
19.607900
20
70.461600
11
19.705900
21
70.620000
0
LINE
8
Layer 1
10
19.705900
20
70.620000
11
19.781800
21
70.684300
0
LINE
8
Layer 1
10
19.781800
20
70.684300
11
19.967800
21
70.859300
0
LINE
8
Layer 1
10
40.163600
20
57.539300
11
39.541000
21
56.839900
0
LINE
8
Layer 1
10
39.541000
20
56.839900
11
38.682800
21
55.768000
0
LINE
8
Layer 1
10
38.682800
20
55.768000
11
38.025500
21
54.880400
0
LINE
8
Layer 1
10
38.025500
20
54.880400
11
37.604100
21
54.263800
0
LINE
8
Layer 1
10
37.604100
20
54.263800
11
37.394700
21
53.928800
0
LINE
8
Layer 1
10
37.394700
20
53.928800
11
36.842100
21
52.900900
0
LINE
8
Layer 1
10
36.842100
20
52.900900
11
35.903700
21
51.113600
0
LINE
8
Layer 1
10
35.903700
20
51.113600
11
34.852200
21
48.193500
0
LINE
8
Layer 1
10
34.852200
20
48.193500
11
35.000900
21
48.165000
0
LINE
8
Layer 1
10
35.000900
20
48.165000
11
35.127300
21
48.161600
0
LINE
8
Layer 1
10
35.127300
20
48.161600
11
35.301700
21
48.199700
0
LINE
8
Layer 1
10
35.301700
20
48.199700
11
35.990400
21
48.455100
0
LINE
8
Layer 1
10
35.990400
20
48.455100
11
36.824000
21
48.860900
0
LINE
8
Layer 1
10
36.824000
20
48.860900
11
37.815200
21
49.414700
0
LINE
8
Layer 1
10
37.815200
20
49.414700
11
38.817700
21
49.934200
0
LINE
8
Layer 1
10
38.817700
20
49.934200
11
39.342000
21
50.177200
0
LINE
8
Layer 1
10
39.342000
20
50.177200
11
39.756600
21
50.352500
0
LINE
8
Layer 1
10
39.756600
20
50.352500
11
40.300500
21
50.506000
0
LINE
8
Layer 1
10
40.300500
20
50.506000
11
41.030800
21
50.542100
0
LINE
8
Layer 1
10
41.030800
20
50.542100
11
41.723100
21
50.177200
0
LINE
8
Layer 1
10
41.723100
20
50.177200
11
42.179500
21
49.908800
0
LINE
8
Layer 1
10
42.179500
20
49.908800
11
42.805200
21
49.549300
0
LINE
8
Layer 1
10
42.805200
20
49.549300
11
43.264100
21
49.285700
0
LINE
8
Layer 1
10
43.264100
20
49.285700
11
43.673600
21
49.076800
0
LINE
8
Layer 1
10
43.673600
20
49.076800
11
44.090700
21
48.886900
0
LINE
8
Layer 1
10
44.090700
20
48.886900
11
44.496000
21
48.751700
0
LINE
8
Layer 1
10
44.496000
20
48.751700
11
44.954600
21
48.677200
0
LINE
8
Layer 1
10
44.954600
20
48.677200
11
45.231200
21
48.709100
0
LINE
8
Layer 1
10
45.231200
20
48.709100
11
45.246400
21
49.098300
0
LINE
8
Layer 1
10
45.246400
20
49.098300
11
45.181800
21
49.390900
0
LINE
8
Layer 1
10
45.181800
20
49.390900
11
44.848500
21
50.103800
0
LINE
8
Layer 1
10
44.848500
20
50.103800
11
44.160700
21
51.396100
0
LINE
8
Layer 1
10
44.160700
20
51.396100
11
43.539800
21
52.393200
0
LINE
8
Layer 1
10
43.539800
20
52.393200
11
43.123200
21
52.989800
0
LINE
8
Layer 1
10
43.123200
20
52.989800
11
42.562500
21
53.844700
0
LINE
8
Layer 1
10
42.562500
20
53.844700
11
41.896100
21
54.911800
0
LINE
8
Layer 1
10
41.896100
20
54.911800
11
41.441500
21
55.564000
0
LINE
8
Layer 1
10
41.441500
20
55.564000
11
41.125700
21
55.915900
0
LINE
8
Layer 1
10
41.125700
20
55.915900
11
40.857800
21
56.239600
0
LINE
8
Layer 1
10
40.857800
20
56.239600
11
40.621100
21
56.603700
0
LINE
8
Layer 1
10
40.621100
20
56.603700
11
40.472900
21
56.865000
0
LINE
8
Layer 1
10
40.472900
20
56.865000
11
40.348400
21
57.068500
0
LINE
8
Layer 1
10
40.348400
20
57.068500
11
40.243700
21
57.222000
0
LINE
8
Layer 1
10
40.243700
20
57.222000
11
40.043600
21
57.544900
0
LINE
8
Layer 1
10
59.776300
20
71.498500
11
59.709400
21
71.430500
0
LINE
8
Layer 1
10
59.709400
20
71.430500
11
59.352100
21
70.949600
0
LINE
8
Layer 1
10
59.352100
20
70.949600
11
58.674500
21
69.971100
0
LINE
8
Layer 1
10
58.674500
20
69.971100
11
57.986500
21
69.027700
0
LINE
8
Layer 1
10
57.986500
20
69.027700
11
57.638200
21
68.558100
0
LINE
8
Layer 1
10
57.638200
20
68.558100
11
57.020400
21
67.775700
0
LINE
8
Layer 1
10
57.020400
20
67.775700
11
56.112800
21
66.715400
0
LINE
8
Layer 1
10
56.112800
20
66.715400
11
55.506900
21
66.069100
0
LINE
8
Layer 1
10
55.506900
20
66.069100
11
54.683300
21
65.256300
0
LINE
8
Layer 1
10
54.683300
20
65.256300
11
53.345600
21
64.033800
0
LINE
8
Layer 1
10
53.345600
20
64.033800
11
51.970100
21
62.839100
0
LINE
8
Layer 1
10
51.970100
20
62.839100
11
51.077100
21
62.076500
0
LINE
8
Layer 1
10
51.077100
20
62.076500
11
50.350700
21
61.475400
0
LINE
8
Layer 1
10
50.350700
20
61.475400
11
49.463600
21
60.720500
0
LINE
8
Layer 1
10
49.463600
20
60.720500
11
48.464900
21
59.918100
0
LINE
8
Layer 1
10
48.464900
20
59.918100
11
47.614500
21
59.282000
0
LINE
8
Layer 1
10
47.614500
20
59.282000
11
47.118900
21
58.892200
0
LINE
8
Layer 1
10
47.118900
20
58.892200
11
46.818900
21
58.574700
0
LINE
8
Layer 1
10
46.818900
20
58.574700
11
46.700700
21
58.312500
0
LINE
8
Layer 1
10
46.700700
20
58.312500
11
47.361400
21
58.127400
0
LINE
8
Layer 1
10
47.361400
20
58.127400
11
48.155300
21
58.147400
0
LINE
8
Layer 1
10
48.155300
20
58.147400
11
49.122700
21
58.259200
0
LINE
8
Layer 1
10
49.122700
20
58.259200
11
50.142900
21
58.443500
0
LINE
8
Layer 1
10
50.142900
20
58.443500
11
51.370600
21
58.622400
0
LINE
8
Layer 1
10
51.370600
20
58.622400
11
52.534500
21
58.721200
0
LINE
8
Layer 1
10
52.534500
20
58.721200
11
53.400100
21
58.783000
0
LINE
8
Layer 1
10
53.400100
20
58.783000
11
54.048900
21
58.869400
0
LINE
8
Layer 1
10
54.048900
20
58.869400
11
54.971800
21
58.996900
0
LINE
8
Layer 1
10
54.971800
20
58.996900
11
56.108300
21
59.118000
0
LINE
8
Layer 1
10
56.108300
20
59.118000
11
56.706000
21
59.187700
0
LINE
8
Layer 1
10
56.706000
20
59.187700
11
57.294200
21
59.315600
0
LINE
8
Layer 1
10
57.294200
20
59.315600
11
58.069200
21
59.498400
0
LINE
8
Layer 1
10
58.069200
20
59.498400
11
58.744800
21
59.643800
0
LINE
8
Layer 1
10
58.744800
20
59.643800
11
59.378900
21
59.788000
0
LINE
8
Layer 1
10
59.378900
20
59.788000
11
60.346700
21
60.067700
0
LINE
8
Layer 1
10
60.346700
20
60.067700
11
61.400800
21
60.375300
0
LINE
8
Layer 1
10
61.400800
20
60.375300
11
62.117100
21
60.565000
0
LINE
8
Layer 1
10
62.117100
20
60.565000
11
62.556200
21
60.677900
0
LINE
8
Layer 1
10
62.556200
20
60.677900
11
63.216000
21
60.888700
0
LINE
8
Layer 1
10
63.216000
20
60.888700
11
63.940200
21
61.147200
0
LINE
8
Layer 1
10
63.940200
20
61.147200
11
64.229500
21
61.261200
0
LINE
8
Layer 1
10
64.229500
20
61.261200
11
64.548100
21
61.396700
0
LINE
8
Layer 1
10
64.548100
20
61.396700
11
64.911600
21
61.572500
0
LINE
8
Layer 1
10
64.911600
20
61.572500
11
65.314900
21
61.903500
0
LINE
8
Layer 1
10
65.314900
20
61.903500
11
65.349100
21
62.090100
0
LINE
8
Layer 1
10
65.349100
20
62.090100
11
65.250600
21
62.455600
0
LINE
8
Layer 1
10
65.250600
20
62.455600
11
65.020300
21
62.916400
0
LINE
8
Layer 1
10
65.020300
20
62.916400
11
64.735800
21
63.352500
0
LINE
8
Layer 1
10
64.735800
20
63.352500
11
64.356500
21
63.837600
0
LINE
8
Layer 1
10
64.356500
20
63.837600
11
63.712700
21
64.721000
0
LINE
8
Layer 1
10
63.712700
20
64.721000
11
63.108200
21
65.596400
0
LINE
8
Layer 1
10
63.108200
20
65.596400
11
62.877700
21
65.924600
0
LINE
8
Layer 1
10
62.877700
20
65.924600
11
62.526300
21
66.487100
0
LINE
8
Layer 1
10
62.526300
20
66.487100
11
61.869300
21
67.558400
0
LINE
8
Layer 1
10
61.869300
20
67.558400
11
61.263900
21
68.619600
0
LINE
8
Layer 1
10
61.263900
20
68.619600
11
60.852100
21
69.443100
0
LINE
8
Layer 1
10
60.852100
20
69.443100
11
60.584900
21
70.055000
0
LINE
8
Layer 1
10
60.584900
20
70.055000
11
60.170900
21
71.372900
0
LINE
8
Layer 1
10
14.604100
20
52.418600
11
14.654900
21
52.200500
0
LINE
8
Layer 1
10
14.654900
20
52.200500
11
14.837800
21
51.786400
0
LINE
8
Layer 1
10
14.837800
20
51.786400
11
15.087000
21
51.235300
0
LINE
8
Layer 1
10
15.087000
20
51.235300
11
15.212000
21
50.932700
0
LINE
8
Layer 1
10
15.212000
20
50.932700
11
15.418900
21
50.419900
0
LINE
8
Layer 1
10
15.418900
20
50.419900
11
15.948600
21
49.123100
0
LINE
8
Layer 1
10
15.948600
20
49.123100
11
16.578600
21
47.462500
0
LINE
8
Layer 1
10
16.578600
20
47.462500
11
17.018300
21
46.118900
0
LINE
8
Layer 1
10
17.018300
20
46.118900
11
17.309000
21
45.184400
0
LINE
8
Layer 1
10
17.309000
20
45.184400
11
17.643700
21
44.246600
0
LINE
8
Layer 1
10
17.643700
20
44.246600
11
18.157900
21
42.967600
0
LINE
8
Layer 1
10
18.157900
20
42.967600
11
18.675800
21
41.786500
0
LINE
8
Layer 1
10
18.675800
20
41.786500
11
19.132700
21
40.885600
0
LINE
8
Layer 1
10
19.132700
20
40.885600
11
19.615000
21
40.082700
0
LINE
8
Layer 1
10
19.615000
20
40.082700
11
20.039700
21
39.489200
0
LINE
8
Layer 1
10
20.039700
20
39.489200
11
20.358400
21
39.121200
0
LINE
8
Layer 1
10
20.358400
20
39.121200
11
20.557600
21
38.926700
0
LINE
8
Layer 1
10
20.557600
20
38.926700
11
20.777500
21
38.809600
0
LINE
8
Layer 1
10
20.777500
20
38.809600
11
21.083100
21
38.728600
0
LINE
8
Layer 1
10
21.083100
20
38.728600
11
21.319900
21
38.697000
0
LINE
8
Layer 1
10
21.319900
20
38.697000
11
21.728300
21
38.709700
0
LINE
8
Layer 1
10
21.728300
20
38.709700
11
22.301200
21
38.748100
0
LINE
8
Layer 1
10
22.301200
20
38.748100
11
22.696300
21
38.769000
0
LINE
8
Layer 1
10
22.696300
20
38.769000
11
23.098700
21
38.736200
0
LINE
8
Layer 1
10
23.098700
20
38.736200
11
23.624800
21
38.387700
0
LINE
8
Layer 1
10
23.624800
20
38.387700
11
23.857400
21
38.130900
0
LINE
8
Layer 1
10
23.857400
20
38.130900
11
24.013400
21
37.928500
0
LINE
8
Layer 1
10
24.013400
20
37.928500
11
24.214600
21
37.670300
0
LINE
8
Layer 1
10
24.214600
20
37.670300
11
24.433100
21
37.375900
0
LINE
8
Layer 1
10
24.433100
20
37.375900
11
24.700400
21
36.957400
0
LINE
8
Layer 1
10
24.700400
20
36.957400
11
24.976100
21
36.536900
0
LINE
8
Layer 1
10
24.976100
20
36.536900
11
25.290200
21
36.191400
0
LINE
8
Layer 1
10
25.290200
20
36.191400
11
25.582900
21
35.935700
0
LINE
8
Layer 1
10
25.582900
20
35.935700
11
25.768300
21
35.839500
0
LINE
8
Layer 1
10
25.768300
20
35.839500
11
25.888200
21
35.786200
0
LINE
8
Layer 1
10
25.888200
20
35.786200
11
26.049100
21
35.752600
0
LINE
8
Layer 1
10
26.049100
20
35.752600
11
26.548300
21
35.775700
0
LINE
8
Layer 1
10
26.548300
20
35.775700
11
27.283200
21
35.907200
0
LINE
8
Layer 1
10
27.283200
20
35.907200
11
27.699500
21
36.003500
0
LINE
8
Layer 1
10
27.699500
20
36.003500
11
27.949300
21
36.075100
0
LINE
8
Layer 1
10
27.949300
20
36.075100
11
28.321300
21
36.194500
0
LINE
8
Layer 1
10
28.321300
20
36.194500
11
28.687600
21
36.313600
0
LINE
8
Layer 1
10
28.687600
20
36.313600
11
29.011000
21
36.408500
0
LINE
8
Layer 1
10
29.011000
20
36.408500
11
29.231100
21
36.473100
0
LINE
8
Layer 1
10
29.231100
20
36.473100
11
29.537400
21
36.563700
0
LINE
8
Layer 1
10
29.537400
20
36.563700
11
29.961300
21
36.682500
0
LINE
8
Layer 1
10
29.961300
20
36.682500
11
30.463300
21
36.818800
0
LINE
8
Layer 1
10
30.463300
20
36.818800
11
31.024400
21
36.928300
0
LINE
8
Layer 1
10
31.024400
20
36.928300
11
31.721500
21
36.990700
0
LINE
8
Layer 1
10
31.721500
20
36.990700
11
32.195900
21
37.017800
0
LINE
8
Layer 1
10
32.195900
20
37.017800
11
32.463700
21
36.991500
0
LINE
8
Layer 1
10
32.463700
20
36.991500
11
32.828900
21
36.929400
0
LINE
8
Layer 1
10
32.828900
20
36.929400
11
33.139100
21
36.833800
0
LINE
8
Layer 1
10
33.139100
20
36.833800
11
33.606700
21
36.453600
0
LINE
8
Layer 1
10
33.606700
20
36.453600
11
33.916300
21
36.207200
0
LINE
8
Layer 1
10
33.916300
20
36.207200
11
34.181600
21
36.002900
0
LINE
8
Layer 1
10
34.181600
20
36.002900
11
34.317600
21
35.897100
0
LINE
8
Layer 1
10
34.317600
20
35.897100
11
34.595100
21
35.725800
0
LINE
8
Layer 1
10
34.595100
20
35.725800
11
35.039300
21
35.479400
0
LINE
8
Layer 1
10
35.039300
20
35.479400
11
35.360700
21
35.319600
0
LINE
8
Layer 1
10
35.360700
20
35.319600
11
35.947200
21
34.996500
0
LINE
8
Layer 1
10
35.947200
20
34.996500
11
36.760500
21
34.578800
0
LINE
8
Layer 1
10
36.760500
20
34.578800
11
37.431700
21
34.287300
0
LINE
8
Layer 1
10
37.431700
20
34.287300
11
37.987600
21
34.043700
0
LINE
8
Layer 1
10
37.987600
20
34.043700
11
38.385600
21
33.876600
0
LINE
8
Layer 1
10
38.385600
20
33.876600
11
38.867300
21
33.745400
0
LINE
8
Layer 1
10
38.867300
20
33.745400
11
39.276800
21
33.661900
0
LINE
8
Layer 1
10
39.276800
20
33.661900
11
39.702100
21
33.601200
0
LINE
8
Layer 1
10
39.702100
20
33.601200
11
39.897400
21
33.574400
0
LINE
8
Layer 1
10
39.897400
20
33.574400
11
40.115300
21
33.608500
0
LINE
8
Layer 1
10
40.115300
20
33.608500
11
40.537000
21
33.701100
0
LINE
8
Layer 1
10
40.537000
20
33.701100
11
40.818300
21
33.761800
0
LINE
8
Layer 1
10
40.818300
20
33.761800
11
41.628000
21
34.143900
0
LINE
8
Layer 1
10
41.628000
20
34.143900
11
42.832000
21
34.748100
0
LINE
8
Layer 1
10
42.832000
20
34.748100
11
43.570000
21
35.098700
0
LINE
8
Layer 1
10
43.570000
20
35.098700
11
44.094400
21
35.302100
0
LINE
8
Layer 1
10
44.094400
20
35.302100
11
44.550700
21
35.435400
0
LINE
8
Layer 1
10
44.550700
20
35.435400
11
45.151900
21
35.522300
0
LINE
8
Layer 1
10
45.151900
20
35.522300
11
45.711800
21
35.544600
0
LINE
8
Layer 1
10
45.711800
20
35.544600
11
46.253900
21
35.530200
0
LINE
8
Layer 1
10
46.253900
20
35.530200
11
46.860400
21
35.401200
0
LINE
8
Layer 1
10
46.860400
20
35.401200
11
47.212100
21
35.364500
0
LINE
8
Layer 1
10
47.212100
20
35.364500
11
47.757000
21
35.303000
0
LINE
8
Layer 1
10
47.757000
20
35.303000
11
48.346000
21
35.234400
0
LINE
8
Layer 1
10
48.346000
20
35.234400
11
48.842200
21
35.234100
0
LINE
8
Layer 1
10
48.842200
20
35.234100
11
49.195200
21
35.276200
0
LINE
8
Layer 1
10
49.195200
20
35.276200
11
49.358900
21
35.301600
0
LINE
8
Layer 1
10
49.358900
20
35.301600
11
49.780900
21
35.402900
0
LINE
8
Layer 1
10
49.780900
20
35.402900
11
50.369300
21
35.599000
0
LINE
8
Layer 1
10
50.369300
20
35.599000
11
50.743800
21
35.755400
0
LINE
8
Layer 1
10
50.743800
20
35.755400
11
51.098800
21
35.906400
0
LINE
8
Layer 1
10
51.098800
20
35.906400
11
51.367800
21
36.018700
0
LINE
8
Layer 1
10
51.367800
20
36.018700
11
51.983300
21
36.328300
0
LINE
8
Layer 1
10
51.983300
20
36.328300
11
53.152000
21
37.112300
0
LINE
8
Layer 1
10
53.152000
20
37.112300
11
54.081900
21
37.919500
0
LINE
8
Layer 1
10
54.081900
20
37.919500
11
54.522500
21
38.349600
0
LINE
8
Layer 1
10
54.522500
20
38.349600
11
54.799900
21
38.636600
0
LINE
8
Layer 1
10
54.799900
20
38.636600
11
55.120800
21
38.961200
0
LINE
8
Layer 1
10
55.120800
20
38.961200
11
55.378200
21
39.204100
0
LINE
8
Layer 1
10
55.378200
20
39.204100
11
55.668000
21
39.421700
0
LINE
8
Layer 1
10
55.668000
20
39.421700
11
56.062300
21
39.668700
0
LINE
8
Layer 1
10
56.062300
20
39.668700
11
56.318500
21
39.806100
0
LINE
8
Layer 1
10
56.318500
20
39.806100
11
56.447500
21
39.834600
0
LINE
8
Layer 1
10
56.447500
20
39.834600
11
56.953200
21
39.952300
0
LINE
8
Layer 1
10
56.953200
20
39.952300
11
57.311700
21
40.022600
0
LINE
8
Layer 1
10
57.311700
20
40.022600
11
57.500800
21
40.068900
0
LINE
8
Layer 1
10
57.500800
20
40.068900
11
57.609400
21
40.110900
0
LINE
8
Layer 1
10
57.609400
20
40.110900
11
57.831500
21
40.274900
0
LINE
8
Layer 1
10
57.831500
20
40.274900
11
58.158600
21
40.582000
0
LINE
8
Layer 1
10
58.158600
20
40.582000
11
58.469300
21
41.000800
0
LINE
8
Layer 1
10
58.469300
20
41.000800
11
59.222900
21
42.668700
0
LINE
8
Layer 1
10
59.222900
20
42.668700
11
60.262000
21
45.181000
0
LINE
8
Layer 1
10
60.262000
20
45.181000
11
60.988500
21
46.850400
0
LINE
8
Layer 1
10
60.988500
20
46.850400
11
61.450500
21
47.765900
0
LINE
8
Layer 1
10
61.450500
20
47.765900
11
62.083500
21
48.995300
0
LINE
8
Layer 1
10
62.083500
20
48.995300
11
62.911800
21
50.696200
0
LINE
8
Layer 1
10
62.911800
20
50.696200
11
63.425200
21
51.861000
0
LINE
8
Layer 1
10
63.425200
20
51.861000
11
63.585700
21
52.329200
0
LINE
8
Layer 1
10
63.585700
20
52.329200
11
63.628400
21
52.556100
0
LINE
8
Layer 1
10
63.628400
20
52.556100
11
63.640500
21
52.696000
0
LINE
8
Layer 1
10
63.640500
20
52.696000
11
63.505000
21
53.532000
0
LINE
8
Layer 1
10
63.505000
20
53.532000
11
63.449400
21
53.551500
0
LINE
8
Layer 1
10
63.449400
20
53.551500
11
63.003200
21
53.466500
0
LINE
8
Layer 1
10
63.003200
20
53.466500
11
62.713100
21
53.299200
0
LINE
8
Layer 1
10
62.713100
20
53.299200
11
62.181400
21
52.913600
0
LINE
8
Layer 1
10
62.181400
20
52.913600
11
61.623200
21
52.413300
0
LINE
8
Layer 1
10
61.623200
20
52.413300
11
61.164000
21
51.916600
0
LINE
8
Layer 1
10
61.164000
20
51.916600
11
60.837700
21
51.512400
0
LINE
8
Layer 1
10
60.837700
20
51.512400
11
60.589100
21
51.168900
0
LINE
8
Layer 1
10
60.589100
20
51.168900
11
60.253000
21
50.702400
0
LINE
8
Layer 1
10
60.253000
20
50.702400
11
59.598800
21
49.910000
0
LINE
8
Layer 1
10
59.598800
20
49.910000
11
58.766500
21
49.008300
0
LINE
8
Layer 1
10
58.766500
20
49.008300
11
58.143700
21
48.428600
0
LINE
8
Layer 1
10
58.143700
20
48.428600
11
57.775600
21
48.154500
0
LINE
8
Layer 1
10
57.775600
20
48.154500
11
57.554100
21
48.031200
0
LINE
8
Layer 1
10
57.554100
20
48.031200
11
57.276700
21
47.961800
0
LINE
8
Layer 1
10
57.276700
20
47.961800
11
57.047500
21
47.918000
0
LINE
8
Layer 1
10
57.047500
20
47.918000
11
56.518900
21
47.949900
0
LINE
8
Layer 1
10
56.518900
20
47.949900
11
55.707000
21
48.076600
0
LINE
8
Layer 1
10
55.707000
20
48.076600
11
55.276000
21
48.212400
0
LINE
8
Layer 1
10
55.276000
20
48.212400
11
54.980000
21
48.351000
0
LINE
8
Layer 1
10
54.980000
20
48.351000
11
54.176500
21
48.692700
0
LINE
8
Layer 1
10
54.176500
20
48.692700
11
53.834400
21
48.579000
0
LINE
8
Layer 1
10
53.834400
20
48.579000
11
53.559800
21
48.455100
0
LINE
8
Layer 1
10
53.559800
20
48.455100
11
52.986100
21
48.006900
0
LINE
8
Layer 1
10
52.986100
20
48.006900
11
52.072800
21
47.105500
0
LINE
8
Layer 1
10
52.072800
20
47.105500
11
51.296400
21
46.173100
0
LINE
8
Layer 1
10
51.296400
20
46.173100
11
50.814600
21
45.547600
0
LINE
8
Layer 1
10
50.814600
20
45.547600
11
50.500000
21
45.081400
0
LINE
8
Layer 1
10
50.500000
20
45.081400
11
50.179600
21
44.577400
0
LINE
8
Layer 1
10
50.179600
20
44.577400
11
49.918300
21
44.188700
0
LINE
8
Layer 1
10
49.918300
20
44.188700
11
49.564700
21
43.727900
0
LINE
8
Layer 1
10
49.564700
20
43.727900
11
49.084100
21
43.158600
0
LINE
8
Layer 1
10
49.084100
20
43.158600
11
48.704200
21
42.782200
0
LINE
8
Layer 1
10
48.704200
20
42.782200
11
48.385300
21
42.557500
0
LINE
8
Layer 1
10
48.385300
20
42.557500
11
48.179200
21
42.430200
0
LINE
8
Layer 1
10
48.179200
20
42.430200
11
47.725200
21
42.290200
0
LINE
8
Layer 1
10
47.725200
20
42.290200
11
47.512400
21
42.382200
0
LINE
8
Layer 1
10
47.512400
20
42.382200
11
47.251900
21
42.504400
0
LINE
8
Layer 1
10
47.251900
20
42.504400
11
47.117200
21
42.573900
0
LINE
8
Layer 1
10
47.117200
20
42.573900
11
46.894000
21
42.693000
0
LINE
8
Layer 1
10
46.894000
20
42.693000
11
46.374400
21
43.094600
0
LINE
8
Layer 1
10
46.374400
20
43.094600
11
45.865300
21
43.580300
0
LINE
8
Layer 1
10
45.865300
20
43.580300
11
45.455800
21
43.960400
0
LINE
8
Layer 1
10
45.455800
20
43.960400
11
45.121700
21
44.232800
0
LINE
8
Layer 1
10
45.121700
20
44.232800
11
44.781900
21
44.451200
0
LINE
8
Layer 1
10
44.781900
20
44.451200
11
44.199600
21
44.785400
0
LINE
8
Layer 1
10
44.199600
20
44.785400
11
43.671900
21
45.046100
0
LINE
8
Layer 1
10
43.671900
20
45.046100
11
43.459600
21
45.120400
0
LINE
8
Layer 1
10
43.459600
20
45.120400
11
43.041700
21
45.211500
0
LINE
8
Layer 1
10
43.041700
20
45.211500
11
41.043800
21
44.107500
0
LINE
8
Layer 1
10
41.043800
20
44.107500
11
40.149700
21
43.369200
0
LINE
8
Layer 1
10
40.149700
20
43.369200
11
39.397600
21
42.690700
0
LINE
8
Layer 1
10
39.397600
20
42.690700
11
38.821600
21
42.204700
0
LINE
8
Layer 1
10
38.821600
20
42.204700
11
37.833800
21
41.644800
0
LINE
8
Layer 1
10
37.833800
20
41.644800
11
37.381400
21
41.688500
0
LINE
8
Layer 1
10
37.381400
20
41.688500
11
36.702700
21
42.042700
0
LINE
8
Layer 1
10
36.702700
20
42.042700
11
35.525500
21
42.842000
0
LINE
8
Layer 1
10
35.525500
20
42.842000
11
34.617600
21
43.635000
0
LINE
8
Layer 1
10
34.617600
20
43.635000
11
33.992200
21
44.202300
0
LINE
8
Layer 1
10
33.992200
20
44.202300
11
33.456000
21
44.714800
0
LINE
8
Layer 1
10
33.456000
20
44.714800
11
33.068200
21
45.090700
0
LINE
8
Layer 1
10
33.068200
20
45.090700
11
32.882000
21
45.229300
0
LINE
8
Layer 1
10
32.882000
20
45.229300
11
32.689200
21
45.282900
0
LINE
8
Layer 1
10
32.689200
20
45.282900
11
32.568400
21
45.278100
0
LINE
8
Layer 1
10
32.568400
20
45.278100
11
32.383300
21
45.164100
0
LINE
8
Layer 1
10
32.383300
20
45.164100
11
32.070600
21
44.939200
0
LINE
8
Layer 1
10
32.070600
20
44.939200
11
31.838300
21
44.743000
0
LINE
8
Layer 1
10
31.838300
20
44.743000
11
31.613400
21
44.515000
0
LINE
8
Layer 1
10
31.613400
20
44.515000
11
31.240800
21
44.071600
0
LINE
8
Layer 1
10
31.240800
20
44.071600
11
30.700100
21
43.395700
0
LINE
8
Layer 1
10
30.700100
20
43.395700
11
30.066500
21
42.624100
0
LINE
8
Layer 1
10
30.066500
20
42.624100
11
29.529500
21
42.045600
0
LINE
8
Layer 1
10
29.529500
20
42.045600
11
28.941300
21
41.705500
0
LINE
8
Layer 1
10
28.941300
20
41.705500
11
28.754800
21
41.823400
0
LINE
8
Layer 1
10
28.754800
20
41.823400
11
28.421400
21
42.151400
0
LINE
8
Layer 1
10
28.421400
20
42.151400
11
27.861200
21
43.086400
0
LINE
8
Layer 1
10
27.861200
20
43.086400
11
27.347300
21
44.188200
0
LINE
8
Layer 1
10
27.347300
20
44.188200
11
27.060900
21
44.872600
0
LINE
8
Layer 1
10
27.060900
20
44.872600
11
26.508000
21
46.103900
0
LINE
8
Layer 1
10
26.508000
20
46.103900
11
25.819400
21
47.485400
0
LINE
8
Layer 1
10
25.819400
20
47.485400
11
25.374900
21
48.146300
0
LINE
8
Layer 1
10
25.374900
20
48.146300
11
25.056800
21
48.489200
0
LINE
8
Layer 1
10
25.056800
20
48.489200
11
24.813000
21
48.639100
0
LINE
8
Layer 1
10
24.813000
20
48.639100
11
24.647900
21
48.698100
0
LINE
8
Layer 1
10
24.647900
20
48.698100
11
24.538900
21
48.690500
0
LINE
8
Layer 1
10
24.538900
20
48.690500
11
24.053800
21
48.467000
0
LINE
8
Layer 1
10
24.053800
20
48.467000
11
23.617700
21
48.243400
0
LINE
8
Layer 1
10
23.617700
20
48.243400
11
23.396800
21
48.061700
0
LINE
8
Layer 1
10
23.396800
20
48.061700
11
22.946600
21
47.681800
0
LINE
8
Layer 1
10
22.946600
20
47.681800
11
22.532600
21
47.350200
0
LINE
8
Layer 1
10
22.532600
20
47.350200
11
22.267600
21
47.189900
0
LINE
8
Layer 1
10
22.267600
20
47.189900
11
22.019500
21
47.091100
0
LINE
8
Layer 1
10
22.019500
20
47.091100
11
21.735300
21
47.026500
0
LINE
8
Layer 1
10
21.735300
20
47.026500
11
21.289100
21
47.226300
0
LINE
8
Layer 1
10
21.289100
20
47.226300
11
21.029800
21
47.346200
0
LINE
8
Layer 1
10
21.029800
20
47.346200
11
20.536400
21
47.642000
0
LINE
8
Layer 1
10
20.536400
20
47.642000
11
20.005600
21
48.033200
0
LINE
8
Layer 1
10
20.005600
20
48.033200
11
19.413800
21
48.486400
0
LINE
8
Layer 1
10
19.413800
20
48.486400
11
18.694400
21
49.034800
0
LINE
8
Layer 1
10
18.694400
20
49.034800
11
18.161000
21
49.489200
0
LINE
8
Layer 1
10
18.161000
20
49.489200
11
17.671300
21
49.910500
0
LINE
8
Layer 1
10
17.671300
20
49.910500
11
17.075300
21
50.456600
0
LINE
8
Layer 1
10
17.075300
20
50.456600
11
16.548100
21
50.948000
0
LINE
8
Layer 1
10
16.548100
20
50.948000
11
16.253200
21
51.191000
0
LINE
8
Layer 1
10
16.253200
20
51.191000
11
16.037000
21
51.441000
0
LINE
8
Layer 1
10
16.037000
20
51.441000
11
15.803900
21
51.736500
0
LINE
8
Layer 1
10
15.803900
20
51.736500
11
15.553800
21
52.062500
0
LINE
8
Layer 1
10
15.553800
20
52.062500
11
15.275800
21
52.386700
0
LINE
8
Layer 1
10
15.275800
20
52.386700
11
15.107300
21
52.547300
 0 
ENDSEC
 0 
EOF