<?xml version="1.0" encoding="UTF-8" standalone="no"?>
<svg
   width="100%"
   height="100%"
   viewBox="0 0 369 349"
   version="1.1"
   xml:space="preserve"
   style="fill-rule:evenodd;clip-rule:evenodd;stroke-linecap:round;stroke-linejoin:round;"
   id="svg856"
   sodipodi:docname="Kürbis_concept.svg"
   inkscape:version="1.1.1 (3bf5ae0d25, 2021-09-20)"
   xmlns:inkscape="http://www.inkscape.org/namespaces/inkscape"
   xmlns:sodipodi="http://sodipodi.sourceforge.net/DTD/sodipodi-0.dtd"
   xmlns="http://www.w3.org/2000/svg"
   xmlns:svg="http://www.w3.org/2000/svg"><defs
   id="defs860" /><sodipodi:namedview
   id="namedview858"
   pagecolor="#ffffff"
   bordercolor="#666666"
   borderopacity="1.0"
   inkscape:pageshadow="2"
   inkscape:pageopacity="0.0"
   inkscape:pagecheckerboard="0"
   showgrid="false"
   inkscape:zoom="1.0988539"
   inkscape:cx="-225.68969"
   inkscape:cy="155.16166"
   inkscape:window-width="1920"
   inkscape:window-height="1017"
   inkscape:window-x="-8"
   inkscape:window-y="-8"
   inkscape:window-maximized="1"
   inkscape:current-layer="svg856" />
    <g
   transform="matrix(1.33333,0,0,1.33333,0,0)"
   id="g854">
        <g
   id="Neue_Ebene_4">
            <path
   id="STROKE_47bcacae-744e-4ccd-992e-623e68ec4549"
   d="M123.007,8.66L122.945,9.25L122.884,9.527L122.792,9.871C122.707,10.069 122.611,10.272 122.503,10.479C122.396,10.686 122.273,10.884 122.135,11.072C121.996,11.261 121.806,11.49 121.564,11.759C121.322,12.027 121.129,12.318 120.984,12.63C120.839,12.942 120.739,13.216 120.684,13.452C120.629,13.688 120.63,14.037 120.686,14.498C120.741,14.957 120.799,15.25 120.858,15.376C120.917,15.502 120.956,15.599 120.975,15.668C120.994,15.738 121.126,15.949 121.371,16.301C121.616,16.652 121.937,17.03 122.332,17.437C122.727,17.842 122.989,18.091 123.116,18.183C123.243,18.274 123.353,18.347 123.446,18.399C123.54,18.452 123.803,18.632 124.236,18.941C124.669,19.249 125,19.475 125.23,19.62C125.459,19.766 125.66,19.9 125.833,20.024C126.005,20.147 126.106,20.217 126.137,20.235C126.168,20.252 126.303,20.356 126.543,20.543C126.783,20.731 127.015,20.956 127.239,21.217C127.463,21.479 127.678,21.776 127.884,22.11C128.09,22.443 128.286,22.767 128.473,23.082C128.66,23.398 128.835,23.779 128.997,24.225C129.16,24.671 129.278,24.994 129.353,25.193C129.428,25.394 129.506,25.787 129.589,26.373C129.672,26.958 129.776,28.289 129.899,30.365C130.022,32.442 130.085,33.771 130.087,34.355C130.088,34.938 130.052,35.667 129.979,36.543C129.906,37.418 129.832,38.116 129.757,38.639C129.682,39.161 129.543,39.769 129.341,40.462C129.138,41.157 128.873,41.813 128.544,42.431C128.215,43.048 127.876,43.581 127.525,44.028C127.174,44.474 126.869,44.813 126.61,45.044C126.351,45.277 125.904,45.596 125.269,46.004C124.634,46.411 123.652,46.878 122.323,47.404C120.994,47.931 119.856,48.296 118.911,48.5C117.966,48.703 117.017,48.867 116.065,48.993C115.112,49.118 114.045,49.252 112.864,49.394C111.683,49.537 110.381,49.674 108.96,49.806C107.539,49.937 106.509,50.019 105.869,50.053C105.23,50.087 104.15,50.153 102.63,50.25C101.11,50.347 99.57,50.471 98.01,50.624C96.449,50.775 95.05,50.907 93.812,51.019C92.574,51.129 91.71,51.202 91.22,51.239C90.731,51.274 89.868,51.383 88.631,51.565C87.395,51.747 86.318,51.907 85.399,52.043C84.481,52.179 83.648,52.284 82.9,52.356C82.153,52.43 81.438,52.504 80.757,52.58C80.076,52.655 79.533,52.719 79.129,52.772C78.724,52.824 78.32,52.883 77.917,52.948C77.513,53.014 76.978,53.096 76.311,53.193C75.644,53.291 74.604,53.41 73.19,53.552C71.776,53.693 70.665,53.799 69.856,53.87C69.047,53.942 68.493,54.003 68.195,54.054C67.897,54.106 67.198,54.198 66.098,54.332C64.998,54.466 63.289,54.681 60.971,54.976C58.652,55.272 57.307,55.456 56.936,55.528C56.564,55.6 56.13,55.699 55.635,55.827C55.139,55.955 54.008,56.299 52.243,56.861C50.477,57.423 48.98,57.982 47.752,58.537C46.524,59.092 45.576,59.544 44.907,59.894C44.238,60.245 43.418,60.679 42.447,61.195C41.476,61.711 40.591,62.222 39.792,62.729C38.993,63.235 38.268,63.716 37.616,64.173C36.964,64.63 36.622,64.865 36.591,64.879C36.56,64.892 35.788,65.462 34.275,66.591C32.762,67.719 31.355,68.831 30.053,69.927C28.75,71.022 27.613,71.992 26.642,72.837C25.671,73.681 24.602,74.708 23.435,75.918C22.268,77.127 21.469,77.998 21.038,78.532C20.607,79.064 20.05,79.84 19.368,80.857C18.686,81.875 17.98,83.016 17.249,84.28C16.518,85.544 16.12,86.23 16.055,86.337C15.989,86.443 15.609,87.285 14.915,88.863C14.221,90.439 13.607,92.097 13.072,93.837C12.538,95.575 12.156,96.859 11.926,97.688C11.696,98.519 11.518,99.145 11.391,99.568C11.265,99.993 10.99,101.006 10.566,102.61C10.143,104.213 9.831,105.544 9.63,106.604C9.429,107.663 9.17,109.206 8.853,111.234C8.536,113.261 8.301,114.832 8.15,115.947C7.999,117.061 7.888,118.048 7.817,118.907C7.746,119.765 7.687,120.455 7.638,120.976C7.589,121.495 7.5,122.352 7.371,123.544C7.242,124.738 7.144,125.918 7.078,127.083C7.013,128.25 6.928,130.175 6.825,132.86C6.721,135.544 6.657,137.788 6.633,139.591C6.609,141.393 6.61,143.297 6.636,145.303C6.661,147.308 6.75,149.674 6.903,152.4C7.056,155.126 7.203,157.212 7.344,158.66C7.485,160.108 7.601,161.096 7.693,161.625C7.785,162.154 7.88,162.621 7.979,163.028C8.078,163.433 8.164,163.808 8.239,164.15C8.314,164.492 8.455,165.116 8.662,166.02C8.869,166.925 9.229,168.259 9.742,170.02C10.255,171.783 10.628,173.058 10.863,173.849C11.098,174.639 11.713,176.363 12.708,179.022C13.703,181.681 14.421,183.749 14.861,185.226C15.301,186.704 15.827,188.512 16.44,190.65C17.052,192.789 17.491,194.24 17.757,195.004C18.022,195.767 18.232,196.332 18.385,196.701C18.539,197.069 18.91,197.931 19.498,199.287C20.086,200.643 20.703,201.936 21.35,203.166C21.997,204.395 22.851,205.82 23.914,207.44C24.976,209.06 26.292,211.034 27.862,213.361C29.432,215.688 30.64,217.439 31.486,218.613C32.331,219.787 32.975,220.603 33.416,221.061C33.857,221.52 34.333,222.066 34.842,222.698C35.352,223.329 35.741,223.792 36.008,224.085C36.275,224.376 36.642,224.77 37.107,225.267C37.572,225.762 38.15,226.254 38.839,226.742C39.529,227.231 40.796,228.471 42.641,230.464C44.486,232.458 46.068,233.982 47.389,235.038C48.709,236.094 50.246,237.163 51.999,238.246C53.752,239.328 54.779,239.989 55.081,240.229C55.383,240.467 56.22,240.893 57.593,241.506C58.966,242.118 60.048,242.658 60.841,243.126C61.634,243.594 62.305,243.972 62.855,244.261C63.405,244.551 64.245,244.976 65.376,245.538C66.506,246.099 67.441,246.553 68.18,246.901C68.919,247.248 69.492,247.511 69.897,247.69C70.302,247.869 70.876,248.095 71.621,248.366C72.366,248.639 73.514,249.036 75.065,249.558C76.616,250.082 78.086,250.522 79.474,250.88C80.861,251.236 81.89,251.471 82.561,251.583C83.231,251.694 83.748,251.781 84.112,251.842C84.476,251.902 85.495,252.029 87.17,252.223C88.845,252.418 89.996,252.549 90.625,252.617C91.254,252.685 92.617,252.795 94.714,252.946C96.81,253.098 98.365,253.243 99.38,253.382C100.395,253.52 101.322,253.629 102.161,253.709C103,253.788 103.923,253.856 104.929,253.914C105.934,253.972 106.753,254.028 107.384,254.082C108.015,254.134 108.982,254.193 110.285,254.257C111.588,254.321 113.193,254.406 115.102,254.511C117.01,254.617 118.355,254.683 119.137,254.712C119.918,254.74 120.889,254.802 122.048,254.897C123.208,254.993 124.032,255.058 124.519,255.092C125.006,255.125 126.355,255.23 128.565,255.404C130.774,255.577 132.659,255.654 134.22,255.633C135.781,255.61 137.183,255.572 138.428,255.519C139.673,255.465 140.895,255.375 142.096,255.249C143.296,255.122 144.724,254.957 146.38,254.753C148.036,254.549 149.515,254.398 150.818,254.298C152.121,254.198 153.889,254.052 156.122,253.861C158.355,253.669 160.548,253.452 162.703,253.21C164.858,252.968 166.283,252.774 166.978,252.628C167.673,252.483 168.808,252.278 170.381,252.011C171.954,251.746 173.112,251.575 173.854,251.499C174.596,251.421 175.517,251.194 176.617,250.817C177.717,250.439 178.331,250.232 178.458,250.195C178.585,250.159 178.822,250.096 179.168,250.008C179.514,249.919 179.777,249.856 179.957,249.819C180.137,249.782 180.338,249.738 180.559,249.686C180.78,249.635 181.019,249.576 181.275,249.51C181.53,249.445 181.778,249.382 182.018,249.319C182.258,249.258 182.565,249.206 182.94,249.164C183.315,249.123 184.08,248.999 185.236,248.792C186.393,248.585 187.461,248.38 188.441,248.178C189.422,247.974 190.238,247.794 190.889,247.637C191.541,247.48 192.166,247.319 192.763,247.154C193.36,246.99 193.964,246.802 194.577,246.593C195.19,246.382 196.417,245.886 198.26,245.106C200.102,244.326 202.485,243.226 205.41,241.808C208.335,240.391 210.256,239.473 211.175,239.056C212.094,238.639 212.821,238.297 213.357,238.029C213.893,237.76 214.796,237.382 216.066,236.892C217.336,236.401 218.706,235.819 220.176,235.146C221.646,234.474 222.766,233.919 223.535,233.483C224.304,233.048 225.224,232.458 226.295,231.712C227.365,230.967 228.355,230.217 229.265,229.462C230.175,228.709 231.078,227.889 231.974,227.001C232.871,226.115 234.002,224.847 235.367,223.199C236.733,221.549 237.748,220.307 238.411,219.472C239.075,218.638 239.771,217.731 240.499,216.75C241.228,215.768 242.144,214.514 243.249,212.99C244.354,211.465 245.31,210.093 246.117,208.875C246.924,207.656 247.675,206.436 248.37,205.212C249.064,203.989 249.809,202.728 250.605,201.428C251.401,200.129 252.256,198.734 253.17,197.243C254.085,195.751 254.977,194.23 255.848,192.678C256.719,191.126 257.356,189.976 257.759,189.227C258.162,188.479 258.646,187.458 259.212,186.164C259.777,184.871 260.445,183.251 261.216,181.304C261.986,179.358 262.501,178.013 262.762,177.269C263.023,176.524 263.216,175.969 263.342,175.601C263.467,175.232 263.727,174.182 264.122,172.448C264.516,170.714 264.814,169.412 265.016,168.541C265.217,167.669 265.427,166.714 265.644,165.677C265.861,164.639 266.098,163.379 266.355,161.897C266.612,160.415 266.94,158.692 267.339,156.727C267.738,154.763 268.073,153.101 268.344,151.743C268.615,150.384 268.825,149.343 268.975,148.621C269.125,147.898 269.303,146.615 269.508,144.773C269.714,142.929 269.895,141.134 270.05,139.386C270.205,137.639 270.305,136.381 270.35,135.611C270.395,134.842 270.421,134.024 270.429,133.159C270.436,132.295 270.417,131.25 270.37,130.024C270.323,128.798 270.279,127.864 270.24,127.221C270.2,126.58 270.119,125.676 269.997,124.51C269.876,123.344 269.706,121.81 269.489,119.908C269.272,118.005 269.082,116.409 268.918,115.12C268.755,113.831 268.59,112.68 268.424,111.667C268.259,110.653 268.023,109.48 267.717,108.148C267.411,106.815 267.221,105.983 267.146,105.652C267.071,105.32 266.966,104.895 266.83,104.375C266.694,103.856 266.529,103.277 266.336,102.638C266.143,101.999 265.978,101.5 265.841,101.14C265.704,100.779 265.542,100.313 265.355,99.741C265.168,99.167 265.046,98.77 264.989,98.548C264.932,98.327 264.7,97.605 264.292,96.38C263.883,95.156 263.578,94.266 263.375,93.712C263.172,93.157 262.964,92.636 262.749,92.149C262.534,91.662 262.368,91.306 262.251,91.082C262.135,90.857 261.932,90.409 261.641,89.739C261.351,89.068 261.039,88.333 260.705,87.534C260.372,86.734 260.101,86.096 259.894,85.62C259.686,85.142 259.471,84.685 259.249,84.248C259.028,83.811 258.904,83.576 258.878,83.544C258.852,83.511 258.305,82.6 257.238,80.812C256.171,79.024 255.36,77.692 254.806,76.817C254.253,75.941 253.719,75.139 253.206,74.409C252.692,73.68 252.334,73.185 252.132,72.927C251.93,72.669 251.584,72.227 251.095,71.602C250.606,70.979 250.028,70.309 249.361,69.595C248.694,68.88 248.153,68.332 247.737,67.952C247.321,67.571 246.977,67.268 246.706,67.043C246.434,66.817 246.146,66.579 245.841,66.332C245.536,66.084 245.127,65.787 244.614,65.442C244.101,65.096 243.562,64.803 242.999,64.562C242.436,64.321 241.564,63.878 240.382,63.231C239.2,62.586 238.056,61.976 236.95,61.403C235.845,60.829 234.604,60.184 233.227,59.469C231.85,58.753 230.156,57.93 228.143,57C226.13,56.068 224.55,55.394 223.402,54.977C222.254,54.561 220.606,53.966 218.458,53.195C216.309,52.422 214.747,51.873 213.772,51.548C212.797,51.222 211.537,50.926 209.99,50.66C208.443,50.394 206.953,50.209 205.52,50.106C204.086,50.002 203.119,49.94 202.618,49.919C202.117,49.899 201.691,49.898 201.338,49.917C200.986,49.934 200.627,49.978 200.26,50.048C199.894,50.119 199.507,50.177 199.098,50.224C198.689,50.27 198.101,50.346 197.336,50.451C196.571,50.554 195.79,50.669 194.994,50.794C194.198,50.921 193.499,51.01 192.898,51.063C192.297,51.115 191.748,51.146 191.251,51.157C190.754,51.167 190.316,51.156 189.939,51.123C189.562,51.089 189.08,51.062 188.494,51.043C187.907,51.023 187.286,51.002 186.631,50.981C185.975,50.959 185.151,50.902 184.16,50.808C183.168,50.716 181.948,50.666 180.5,50.66C179.052,50.655 178.078,50.658 177.578,50.668C177.079,50.679 176.495,50.686 175.827,50.69C175.158,50.693 174.744,50.694 174.584,50.693C174.423,50.693 173.943,50.734 173.143,50.817C172.342,50.9 171.612,50.992 170.951,51.094C170.29,51.195 169.704,51.292 169.192,51.385C168.681,51.479 167.94,51.629 166.969,51.837C165.999,52.044 165.486,52.152 165.429,52.158C165.373,52.164 165.111,52.19 164.642,52.236C164.173,52.281 163.684,52.293 163.175,52.269C162.666,52.245 162.19,52.197 161.748,52.125C161.306,52.053 160.75,51.931 160.079,51.76C159.408,51.591 158.835,51.428 158.362,51.274C157.889,51.119 157.36,50.926 156.774,50.696C156.187,50.464 155.694,50.277 155.294,50.134C154.893,49.99 154.582,49.883 154.361,49.813C154.14,49.742 153.9,49.657 153.642,49.557C153.385,49.457 152.984,49.293 152.441,49.066C151.897,48.838 151.614,48.717 151.591,48.703C151.568,48.69 151.371,48.615 150.998,48.479C150.625,48.342 150.258,48.227 149.897,48.133C149.535,48.039 149.205,47.952 148.908,47.875C148.611,47.796 148.351,47.718 148.128,47.643C147.905,47.567 147.72,47.511 147.572,47.476C147.424,47.44 147.326,47.4 147.279,47.356C147.232,47.312 147.084,47.26 146.835,47.202C146.586,47.144 146.459,47.056 146.452,46.936C146.446,46.816 146.543,46.434 146.742,45.791C146.942,45.147 147.172,44.523 147.433,43.918C147.694,43.315 147.92,42.682 148.112,42.02C148.303,41.36 148.503,40.351 148.712,38.994C148.921,37.637 149.032,36.536 149.043,35.691C149.055,34.846 149.04,34.194 148.997,33.735C148.954,33.276 148.751,32.126 148.386,30.285C148.021,28.445 147.794,27.353 147.704,27.011C147.614,26.669 147.408,25.632 147.085,23.899C146.763,22.165 146.534,20.909 146.397,20.129C146.26,19.348 146.013,18.413 145.655,17.321C145.296,16.228 144.949,15.286 144.614,14.495C144.279,13.704 144.021,13.114 143.842,12.724C143.662,12.334 143.471,11.97 143.269,11.631C143.067,11.293 142.842,10.975 142.595,10.676C142.347,10.377 141.9,9.976 141.253,9.475C140.607,8.972 140.144,8.63 139.863,8.45C139.582,8.268 139.257,8.083 138.887,7.894C138.517,7.704 138.174,7.549 137.857,7.428C137.541,7.308 137.163,7.189 136.723,7.072C136.283,6.956 135.548,6.838 134.517,6.72C133.486,6.601 132.332,6.581 131.055,6.659C129.778,6.736 128.644,6.9 127.653,7.152C126.662,7.403 125.882,7.657 125.311,7.913C124.74,8.17 124.23,8.45 123.78,8.754C123.746,8.789 123.346,9.005 122.581,9.399"
   style="fill:none;fill-rule:nonzero;stroke:rgb(255,27,88);stroke-width:6.8px;" />
            
            
            
            
            
            <path
   id="STROKE_e99fae4b-ef6c-4228-b754-99dfe7eefa47"
   d="M72.432,100.197L74.23,103.419C76.6,106.955 78.512,109.392 79.967,110.732C81.421,112.073 82.26,112.854 82.485,113.076C82.71,113.297 82.919,113.488 83.112,113.649C83.305,113.812 83.477,113.958 83.628,114.089C83.779,114.22 83.976,114.45 84.22,114.779C84.464,115.106 84.656,115.33 84.797,115.448C84.938,115.567 85.093,115.666 85.261,115.745C85.43,115.825 86.045,116.255 87.107,117.034C88.17,117.815 88.911,118.343 89.332,118.619C89.753,118.893 90.625,119.562 91.949,120.624C93.274,121.686 94.493,122.613 95.608,123.405C96.723,124.199 97.996,125.017 99.427,125.861C100.858,126.704 102.022,127.36 102.919,127.827C103.815,128.293 104.639,128.694 105.391,129.033C106.143,129.37 106.88,129.688 107.602,129.986C108.324,130.283 108.924,130.531 109.401,130.729C109.878,130.927 110.424,131.172 111.037,131.462C111.651,131.752 112.272,132.037 112.901,132.318C113.53,132.6 114.04,132.816 114.431,132.967C114.822,133.12 115.421,133.387 116.229,133.769C117.036,134.151 117.659,134.502 118.097,134.821C118.534,135.139 118.973,135.585 119.412,136.159C119.851,136.733 120.08,137.049 120.099,137.106C120.118,137.164 120.185,137.314 120.302,137.554C120.077,137.968 119.807,138.331 119.492,138.643C119.177,138.955 118.713,139.274 118.102,139.599C117.491,139.923 116.999,140.143 116.626,140.259C116.253,140.374 115.72,140.537 115.029,140.746C114.338,140.957 113.801,141.116 113.419,141.226C113.036,141.334 112.627,141.431 112.191,141.517C111.754,141.602 110.481,141.717 108.37,141.864C106.259,142.01 104.905,142.053 104.306,141.995C103.708,141.935 103.177,141.88 102.714,141.83C102.251,141.778 101.577,141.698 100.692,141.589C99.807,141.479 98.221,141.222 95.935,140.818C93.65,140.414 91.89,140.07 90.657,139.787C89.424,139.503 88.401,139.235 87.586,138.981C86.771,138.726 85.237,138.224 82.984,137.472C80.731,136.722 79.399,136.269 78.987,136.115C78.575,135.96 77.985,135.762 77.216,135.52C76.447,135.28 75.828,135.092 75.359,134.957C74.889,134.823 74.239,134.654 73.408,134.448C72.578,134.244 71.594,134 70.457,133.717C69.32,133.434 68.439,133.211 67.816,133.049C67.192,132.886 66.745,132.765 66.475,132.688C66.204,132.61 64.994,132.332 62.845,131.854C60.696,131.375 59.09,131.002 58.028,130.732C56.966,130.462 56.194,130.237 55.712,130.057C55.23,129.875 54.799,129.704 54.419,129.543C54.039,129.381 53.741,129.258 53.524,129.173C53.307,129.089 53.113,128.997 52.944,128.897C52.775,128.797 52.623,128.704 52.489,128.616C52.355,128.528 52.177,128.37 51.955,128.143C51.896,127.912 52.013,127.27 52.306,126.217C52.598,125.165 52.991,124.225 53.485,123.395C53.978,122.567 54.777,121.481 55.88,120.139C56.983,118.796 58.111,117.387 59.266,115.913C60.42,114.438 61.436,113.046 62.315,111.735C63.194,110.423 63.87,109.381 64.344,108.611C64.819,107.839 65.279,107.103 65.724,106.402C66.169,105.701 66.559,105.067 66.892,104.5C67.225,103.935 67.704,103 68.329,101.698C68.954,100.396 69.336,99.608 69.477,99.333C69.618,99.059 69.733,98.872 69.824,98.772C69.915,98.672 70.004,98.596 70.093,98.544C70.182,98.492 70.402,98.286 70.752,97.924"
   style="fill:none;fill-rule:nonzero;stroke:rgb(255,27,88);stroke-width:6.8px;" />
            <path
   id="STROKE_3bc2f0a2-562e-4c27-acc4-37664cce19c6"
   d="M142.312,145.121C141.967,145.41 141.231,146.236 140.106,147.599C138.981,148.961 137.968,150.227 137.065,151.397C136.163,152.566 135.387,153.614 134.736,154.542C134.085,155.47 133.588,156.198 133.243,156.727C132.898,157.257 132.651,157.652 132.501,157.914C132.352,158.175 131.699,159.389 130.543,161.556C129.388,163.722 128.279,165.832 127.218,167.889C126.156,169.944 124.914,173.394 123.492,178.236C123.565,178.286 123.741,178.32 124.019,178.337C124.297,178.356 124.446,178.359 124.467,178.349C124.488,178.338 124.694,178.293 125.085,178.214C125.476,178.134 126.289,177.833 127.525,177.309C128.761,176.785 129.746,176.306 130.479,175.871C131.212,175.434 132.383,174.781 133.991,173.909C135.599,173.038 136.783,172.424 137.543,172.068C138.304,171.71 138.923,171.423 139.401,171.207C139.879,170.99 140.369,170.783 140.87,170.586C141.372,170.388 142.014,170.207 142.797,170.042C143.579,169.876 144.442,169.833 145.385,169.914C146.656,170.557 147.473,170.988 147.838,171.207C148.203,171.424 148.742,171.741 149.455,172.158C150.168,172.573 150.907,172.997 151.672,173.432C152.437,173.866 152.979,174.177 153.298,174.366C153.617,174.555 154.101,174.802 154.749,175.106C155.397,175.411 155.89,175.635 156.227,175.779C156.565,175.921 157.044,176.081 157.663,176.258C158.283,176.434 158.825,176.522 159.288,176.522C159.752,176.52 160.079,176.482 160.268,176.409C160.392,176.033 160.41,175.573 160.322,175.03C160.234,174.488 160.158,174.142 160.093,173.993C160.028,173.844 159.634,173.002 158.912,171.467C158.189,169.931 157.377,168.404 156.475,166.888C155.572,165.37 154.839,164.193 154.275,163.355C153.71,162.517 153.218,161.813 152.799,161.241C152.38,160.669 151.718,159.659 150.812,158.212C149.906,156.766 149.119,155.506 148.451,154.431C147.782,153.355 147.245,152.585 146.84,152.12C146.434,151.654 146.061,151.238 145.721,150.873C145.38,150.508 145.064,150.126 144.772,149.726C144.48,149.327 144.2,148.897 143.933,148.436C143.666,147.974 143.491,147.665 143.408,147.51C143.326,147.354 143.179,147.114 142.967,146.789C142.755,146.465 142.631,146.283 142.596,146.245C142.561,146.207 142.324,145.825 141.887,145.101"
   style="fill:none;fill-rule:nonzero;stroke:rgb(255,27,88);stroke-width:6.8px;" />
            <path
   id="STROKE_62cf2594-1653-4d39-9212-ae97016ced59"
   d="M211.806,95.659L211.569,95.9C211.302,96.162 210.88,96.73 210.303,97.604C209.726,98.477 208.925,99.633 207.902,101.071C206.878,102.509 206.065,103.623 205.464,104.414C204.862,105.206 204.451,105.76 204.23,106.078C204.009,106.396 203.279,107.319 202.041,108.85C200.803,110.38 199.731,111.632 198.825,112.607C197.92,113.583 197.204,114.346 196.678,114.897C196.152,115.447 195.179,116.407 193.76,117.777C192.341,119.146 190.761,120.59 189.02,122.109C187.279,123.627 185.654,125.038 184.146,126.342C182.637,127.645 181.583,128.547 180.982,129.044C180.381,129.543 179.523,130.253 178.408,131.174C177.293,132.097 176.245,132.988 175.265,133.849C174.285,134.709 173.105,135.657 171.726,136.692C170.347,137.727 169.343,138.478 168.713,138.946C168.084,139.412 167.498,139.873 166.957,140.327C166.415,140.782 166.061,141.157 165.894,141.452C165.728,141.746 165.588,142.056 165.475,142.381C166.146,142.803 166.927,143.022 167.816,143.037C168.705,143.051 169.643,143.028 170.629,142.966C171.614,142.904 172.757,142.772 174.057,142.57C175.357,142.368 176.562,142.15 177.672,141.917C178.781,141.683 180.231,141.472 182.022,141.283C183.813,141.093 185.187,140.977 186.146,140.933C187.105,140.89 188.128,140.816 189.213,140.714C190.298,140.611 191.064,140.509 191.512,140.408C191.96,140.307 193.05,140.156 194.782,139.956C196.515,139.754 197.857,139.611 198.809,139.527C199.762,139.441 200.468,139.359 200.927,139.28C201.386,139.202 202.08,139.051 203.011,138.827C203.942,138.602 204.858,138.387 205.757,138.179C206.656,137.972 207.454,137.8 208.151,137.664C208.849,137.527 209.598,137.356 210.398,137.153C211.198,136.948 212.341,136.618 213.827,136.162C215.312,135.706 216.557,135.342 217.562,135.072C218.567,134.801 219.413,134.577 220.1,134.4C220.787,134.222 221.305,134.089 221.656,134C222.007,133.913 222.786,133.663 223.994,133.253C225.202,132.841 226.057,132.536 226.56,132.337C227.062,132.138 227.404,132.004 227.585,131.933C227.767,131.863 228.143,131.703 228.714,131.453C229.284,131.203 229.713,130.995 230.002,130.83C230.29,130.663 230.766,130.272 231.431,129.657L231.552,128.996C231.563,128.702 231.446,128.27 231.203,127.701C230.96,127.132 230.688,126.587 230.387,126.068C230.087,125.548 229.751,125.033 229.379,124.523C229.006,124.013 228.558,123.44 228.035,122.804C227.512,122.169 226.751,121.126 225.754,119.674C224.757,118.223 224.043,117.189 223.612,116.572C223.181,115.954 222.909,115.567 222.795,115.409C222.681,115.25 222.266,114.586 221.55,113.416C220.834,112.245 220.058,110.98 219.222,109.62C218.387,108.26 217.672,107.006 217.077,105.86C216.483,104.713 215.997,103.74 215.618,102.942C215.24,102.143 214.924,101.421 214.671,100.774C214.418,100.128 213.929,98.571 213.204,96.104"
   style="fill:none;fill-rule:nonzero;stroke:rgb(255,27,88);stroke-width:6.8px;" />
            <path
   id="STROKE_728aecaf-41be-47d0-b03d-db4c7be029c8"
   d="M51.747,163.265C51.804,163.586 51.864,163.843 51.927,164.038C51.99,164.231 52.206,164.72 52.575,165.505C52.945,166.291 53.239,166.943 53.458,167.458C53.677,167.974 53.824,168.332 53.901,168.53C53.977,168.73 54.221,169.335 54.634,170.347C55.047,171.358 55.672,172.89 56.511,174.942C57.35,176.994 58.094,178.956 58.743,180.826C59.393,182.696 59.912,184.283 60.301,185.587C60.69,186.892 61.033,187.996 61.331,188.898C61.629,189.799 62.024,190.907 62.517,192.221C63.01,193.534 63.617,195.045 64.339,196.753C65.061,198.459 65.673,199.854 66.174,200.938C66.675,202.02 67.215,203.085 67.793,204.13C68.372,205.176 68.941,206.124 69.502,206.975C70.063,207.825 70.564,208.527 71.007,209.078C71.45,209.63 71.826,210.064 72.136,210.382C72.445,210.699 72.681,210.929 72.842,211.071C73.003,211.214 73.262,211.352 73.621,211.486C73.98,211.619 74.341,211.715 74.704,211.773C75.068,211.832 75.348,211.869 75.543,211.885C75.739,211.9 76.221,211.885 76.99,211.84C77.759,211.796 78.436,211.75 79.02,211.704C79.604,211.658 80.071,211.634 80.42,211.63C80.769,211.625 81.245,211.664 81.846,211.746C82.713,212.185 83.335,212.597 83.71,212.981C84.085,213.367 84.36,213.67 84.534,213.891C84.709,214.111 84.893,214.35 85.087,214.608C85.28,214.866 85.518,215.172 85.8,215.523C86.082,215.875 86.34,216.223 86.574,216.566C86.809,216.907 87.124,217.402 87.521,218.049C87.917,218.695 88.243,219.192 88.498,219.539C88.753,219.885 89.124,220.293 89.611,220.763C90.098,221.233 90.444,221.535 90.648,221.669C90.852,221.801 91.071,221.915 91.305,222.01C91.54,222.104 91.681,222.167 91.73,222.199C91.779,222.23 91.969,222.27 92.3,222.318C92.631,222.366 93.22,222.339 94.069,222.236C94.918,222.132 95.786,221.977 96.673,221.77C97.56,221.563 98.051,221.449 98.148,221.429C98.244,221.408 98.539,221.323 99.033,221.175C99.528,221.027 99.967,220.886 100.351,220.752C100.736,220.619 101.168,220.479 101.649,220.33C102.13,220.182 102.512,220.07 102.795,219.994C103.078,219.92 103.338,219.843 103.575,219.765C103.813,219.686 104.175,219.579 104.66,219.444C105.146,219.31 105.647,219.17 106.162,219.023C106.677,218.877 107.27,218.716 107.941,218.54C108.612,218.365 109.275,218.236 109.929,218.152C110.583,218.068 111.406,217.994 112.399,217.931C113.392,217.867 113.953,217.835 114.08,217.835C114.207,217.834 114.524,217.865 115.029,217.928C115.534,217.991 115.965,218.064 116.323,218.148C116.681,218.233 117.047,218.346 117.422,218.487C118.158,219.088 118.71,219.537 119.079,219.834C119.448,220.131 119.813,220.422 120.176,220.707C120.539,220.991 120.853,221.232 121.116,221.431C121.379,221.629 121.54,221.754 121.598,221.806C121.655,221.857 121.983,222.059 122.581,222.413C123.178,222.767 123.703,223.058 124.155,223.286C124.606,223.513 124.986,223.702 125.294,223.852C125.602,224.001 126.295,224.383 127.372,224.997C128.45,225.61 129.411,226.103 130.254,226.477C131.098,226.849 131.891,227.193 132.632,227.51C133.373,227.826 134.03,228.113 134.602,228.373C135.175,228.632 135.645,228.829 136.012,228.965C136.38,229.101 136.949,229.256 137.719,229.43C138.489,229.604 138.973,229.702 139.17,229.726C139.367,229.748 139.87,229.82 140.677,229.941C141.052,230.002 141.282,230.033 141.369,230.036C141.456,230.037 141.713,229.997 142.141,229.915C142.569,229.833 143.067,229.724 143.635,229.587C144.203,229.449 144.535,229.377 144.632,229.372C144.728,229.366 145.684,228.914 147.501,228.018C149.317,227.122 150.739,226.408 151.767,225.877C152.795,225.347 153.667,224.933 154.382,224.635C155.097,224.337 155.717,224.096 156.24,223.914C156.763,223.73 157.302,223.573 157.857,223.442C158.412,223.309 159.122,223.207 159.987,223.134C160.852,223.059 161.514,223.033 161.971,223.055C162.428,223.076 163.069,223.093 163.892,223.106C164.941,223.36 165.657,223.513 166.041,223.563C166.425,223.613 166.84,223.656 167.287,223.693C167.734,223.73 168.377,223.803 169.218,223.911C170.059,224.019 170.755,224.1 171.305,224.154C171.854,224.209 172.44,224.209 173.063,224.155C173.686,224.102 174.103,224.052 174.314,224.006C174.525,223.959 174.718,223.929 174.894,223.916C175.07,223.904 175.568,223.784 176.389,223.557C177.21,223.328 177.905,223.096 178.474,222.862C179.043,222.627 179.486,222.442 179.801,222.308C180.116,222.173 180.536,221.995 181.059,221.773C181.583,221.553 181.901,221.42 182.012,221.375C182.124,221.33 182.851,220.964 184.193,220.278C185.536,219.59 186.916,218.664 188.334,217.5C189.753,216.337 190.851,215.383 191.629,214.64C192.407,213.896 192.927,213.389 193.19,213.116C193.453,212.845 193.781,212.506 194.173,212.099C194.565,211.694 194.944,211.31 195.31,210.949C195.677,210.587 195.981,210.3 196.222,210.088C196.464,209.878 196.806,209.62 197.249,209.317C197.692,209.013 198.157,208.722 198.646,208.442C199.135,208.162 199.437,208 199.554,207.955L200.011,207.854C200.645,207.683 201.242,207.545 201.803,207.437C202.364,207.328 202.787,207.245 203.073,207.188C203.36,207.13 203.583,207.076 203.743,207.024C203.902,206.973 204.031,206.923 204.128,206.875C204.225,206.826 204.487,206.632 204.915,206.294C205.344,205.955 205.73,205.592 206.074,205.206C206.417,204.819 206.784,204.325 207.175,203.722C207.565,203.118 208.455,201.148 209.845,197.812C211.236,194.476 212.463,191.509 213.527,188.91C214.591,186.313 215.449,184.341 216.101,182.995C216.753,181.649 217.299,180.568 217.738,179.751C218.177,178.936 218.924,177.484 219.981,175.395C221.038,173.308 222.016,171.298 222.916,169.368C223.816,167.438 224.422,166.062 224.735,165.241C225.048,164.419 225.238,163.866 225.304,163.582C225.371,163.299 225.421,163.03 225.455,162.778C225.49,162.525 225.504,162.36 225.498,162.282C225.492,162.203 225.332,161.216 225.018,159.32L224.821,159.251C223.901,159.396 223.374,159.496 223.24,159.552C223.106,159.607 222.763,159.805 222.212,160.145C221.661,160.486 221.033,160.942 220.328,161.511C219.623,162.081 218.964,162.672 218.35,163.284C217.736,163.895 217.194,164.481 216.723,165.044C216.252,165.605 215.867,166.082 215.567,166.476C215.266,166.869 214.973,167.275 214.686,167.693C214.399,168.111 214.002,168.662 213.495,169.346C212.989,170.029 212.216,170.965 211.177,172.154C210.138,173.344 209.155,174.409 208.228,175.349C207.302,176.289 206.566,176.974 206.021,177.403C205.476,177.831 205.041,178.155 204.717,178.374C204.393,178.592 204.131,178.737 203.932,178.811C203.733,178.883 203.405,178.965 202.949,179.057C202.493,179.149 202.222,179.2 202.137,179.212C202.052,179.223 201.427,179.185 200.264,179.099C199.1,179.013 198.141,178.863 197.387,178.65C196.633,178.438 196.124,178.277 195.86,178.169C195.596,178.059 195.246,177.895 194.811,177.678C194.376,177.459 193.427,177.056 191.964,176.467C191.589,176.55 191.185,176.684 190.752,176.87C190.319,177.056 189.994,177.202 189.779,177.309C189.564,177.417 188.886,177.946 187.746,178.897C186.606,179.848 185.527,180.913 184.51,182.091C183.492,183.268 182.575,184.369 181.759,185.395C180.943,186.42 180.374,187.159 180.052,187.611C179.73,188.065 179.358,188.615 178.937,189.263C178.515,189.91 178.137,190.505 177.802,191.049C177.467,191.593 177.159,192.052 176.876,192.426C176.593,192.799 176.176,193.344 175.623,194.059C175.07,194.775 174.503,195.448 173.92,196.076C173.337,196.704 172.889,197.149 172.574,197.41C172.259,197.673 171.883,197.938 171.444,198.206C171.005,198.473 170.762,198.624 170.714,198.657C170.665,198.69 170.129,198.855 169.105,199.153C168.988,199.109 168.736,199 168.351,198.827C167.966,198.654 167.658,198.51 167.428,198.394C167.197,198.277 167.038,198.195 166.951,198.148C166.864,198.1 166.6,197.96 166.16,197.726C165.719,197.491 165.106,197.017 164.319,196.303C163.532,195.588 162.93,195.015 162.515,194.582C162.099,194.15 161.615,193.701 161.064,193.235C160.513,192.768 160.118,192.446 159.88,192.27C159.641,192.093 159.24,191.835 158.676,191.496C158.112,191.158 157.424,190.763 156.613,190.312C155.801,189.86 155.178,189.552 154.743,189.388C154.308,189.223 154.058,189.135 153.991,189.125C153.924,189.116 153.431,189.008 152.51,188.802C148.828,190.607 146.468,191.911 145.431,192.714C144.394,193.516 143.338,194.388 142.263,195.33C141.189,196.272 140.301,197.073 139.598,197.734C138.896,198.394 138.216,198.968 137.557,199.456C136.898,199.942 135.731,200.604 134.057,201.44C133.061,201.348 132.527,201.296 132.454,201.285C132.382,201.275 131.58,200.856 130.049,200.03C128.518,199.205 127.128,198.26 125.878,197.198C124.629,196.135 123.556,195.198 122.661,194.388C121.766,193.577 121.027,192.907 120.445,192.378C119.863,191.848 119.23,191.243 118.545,190.562C117.86,189.88 117.402,189.436 117.171,189.23C116.94,189.022 116.72,188.859 116.511,188.739C116.302,188.618 116.074,188.555 115.828,188.549C115.582,188.544 115.439,188.55 115.4,188.566C115.361,188.582 115.143,188.716 114.744,188.97C114.346,189.224 113.977,189.489 113.636,189.767C113.295,190.044 113.021,190.276 112.813,190.462C112.605,190.648 112.339,190.917 112.016,191.27C111.693,191.624 111.253,192.147 110.696,192.841C110.14,193.534 109.501,194.333 108.78,195.236C108.059,196.138 107.31,197.05 106.535,197.97C105.76,198.89 105.126,199.573 104.632,200.02C104.138,200.466 103.443,200.868 102.548,201.225C102.373,201.13 102.152,200.991 101.887,200.807C101.622,200.623 101.228,200.236 100.706,199.645C100.183,199.055 99.522,197.951 98.721,196.332C97.92,194.714 97.313,193.413 96.9,192.428C96.487,191.444 96.148,190.635 95.885,190.003C95.622,189.369 94.969,187.915 93.926,185.64C92.884,183.366 92.071,181.734 91.486,180.745C90.901,179.755 90.376,178.975 89.911,178.403C89.445,177.831 89.069,177.426 88.784,177.188C88.499,176.951 88.211,176.774 87.92,176.657C87.629,176.539 87.434,176.469 87.335,176.448C87.236,176.426 87.107,176.435 86.949,176.475C86.79,176.513 86.217,176.777 85.23,177.267C84.242,177.756 83.727,178.02 83.685,178.059C83.642,178.1 83.381,178.314 82.902,178.703C82.423,179.093 81.891,179.542 81.307,180.049C80.724,180.556 80.235,180.948 79.84,181.224C79.445,181.5 79.132,181.689 78.901,181.792C78.67,181.894 78.377,182.011 78.022,182.142C77.667,182.272 77.331,182.348 77.015,182.371C76.243,182.047 75.716,181.811 75.434,181.663C75.152,181.515 74.846,181.374 74.515,181.238C74.184,181.102 73.602,180.753 72.767,180.19C71.933,179.627 71.306,179.165 70.886,178.804C70.466,178.443 69.767,177.908 68.789,177.198C67.811,176.487 66.961,175.839 66.24,175.255C65.519,174.672 64.889,174.135 64.35,173.645C63.812,173.157 63.234,172.659 62.615,172.152C61.996,171.645 61.292,171 60.503,170.217C59.715,169.433 59.092,168.853 58.635,168.476C58.178,168.101 57.829,167.814 57.59,167.615C57.351,167.416 57.095,167.121 56.824,166.729C56.553,166.337 56.278,165.988 55.998,165.682C55.717,165.374 55.422,164.989 55.112,164.527C54.801,164.063 54.473,163.68 54.127,163.378C53.996,163.33 53.797,163.141 53.53,162.809"
   style="fill:none;fill-rule:nonzero;stroke:rgb(255,27,88);stroke-width:6.8px;" />
        </g>
    </g>
</svg>
