999
"DXF R12 Output" (www.mydxf.blogspot.com)
 0 
SECTION
 2 
HEADER
 9 
$ACADVER
 1 
AC1009
 9 
$EXTMIN
 10 
 0 
 20 
 0 
 9 
$EXTMAX
 10 
 8.5 
 20 
 11 
 0 
ENDSEC
 0 
SECTION
 2 
ENTITIES
0
LINE
8
Layer 1
10
166.425000
20
190.213000
11
162.655865
21
187.786771
0
LINE
8
Layer 1
10
162.655865
20
187.786771
11
158.972734
21
185.151047
0
LINE
8
Layer 1
10
158.972734
20
185.151047
11
151.602125
21
179.798375
0
LINE
8
Layer 1
10
151.602125
20
179.798375
11
147.783467
21
177.355061
0
LINE
8
Layer 1
10
147.783467
20
177.355061
11
143.788453
21
175.249516
0
LINE
8
Layer 1
10
143.788453
20
175.249516
11
141.704316
21
174.366162
0
LINE
8
Layer 1
10
141.704316
20
174.366162
11
139.551494
21
173.618557
0
LINE
8
Layer 1
10
139.551494
20
173.618557
11
137.321788
21
173.023802
0
LINE
8
Layer 1
10
137.321788
20
173.023802
11
135.007000
21
172.599000
0
LINE
8
Layer 1
10
135.007000
20
172.599000
11
132.461268
21
171.874767
0
LINE
8
Layer 1
10
132.461268
20
171.874767
11
129.899287
21
171.302320
0
LINE
8
Layer 1
10
129.899287
20
171.302320
11
124.737608
21
170.579813
0
LINE
8
Layer 1
10
124.737608
20
170.579813
11
119.544028
21
170.365523
0
LINE
8
Layer 1
10
119.544028
20
170.365523
11
114.340612
21
170.593500
0
LINE
8
Layer 1
10
114.340612
20
170.593500
11
109.149427
21
171.197789
0
LINE
8
Layer 1
10
109.149427
20
171.197789
11
103.992536
21
172.112437
0
LINE
8
Layer 1
10
103.992536
20
172.112437
11
98.892005
21
173.271492
0
LINE
8
Layer 1
10
98.892005
20
173.271492
11
93.869900
21
174.609000
0
LINE
8
Layer 1
10
93.869900
20
174.609000
11
92.521083
21
173.313388
0
LINE
8
Layer 1
10
92.521083
20
173.313388
11
91.311097
21
171.845074
0
LINE
8
Layer 1
10
91.311097
20
171.845074
11
90.216153
21
170.228465
0
LINE
8
Layer 1
10
90.216153
20
170.228465
11
89.212459
21
168.487969
0
LINE
8
Layer 1
10
89.212459
20
168.487969
11
87.383667
21
164.732941
0
LINE
8
Layer 1
10
87.383667
20
164.732941
11
85.634400
21
160.775250
0
LINE
8
Layer 1
10
85.634400
20
160.775250
11
83.774339
21
156.810152
0
LINE
8
Layer 1
10
83.774339
20
156.810152
11
81.613166
21
153.032906
0
LINE
8
Layer 1
10
81.613166
20
153.032906
11
80.360186
21
151.275746
0
LINE
8
Layer 1
10
80.360186
20
151.275746
11
78.960559
21
149.638770
0
LINE
8
Layer 1
10
78.960559
20
149.638770
11
77.390494
21
148.146385
0
LINE
8
Layer 1
10
77.390494
20
148.146385
11
75.626200
21
146.823000
0
LINE
8
Layer 1
10
75.626200
20
146.823000
11
73.386877
21
144.664554
0
LINE
8
Layer 1
10
73.386877
20
144.664554
11
71.009347
21
142.742121
0
LINE
8
Layer 1
10
71.009347
20
142.742121
11
68.509474
21
141.028745
0
LINE
8
Layer 1
10
68.509474
20
141.028745
11
65.903122
21
139.497469
0
LINE
8
Layer 1
10
65.903122
20
139.497469
11
63.206154
21
138.121337
0
LINE
8
Layer 1
10
63.206154
20
138.121337
11
60.434436
21
136.873395
0
LINE
8
Layer 1
10
60.434436
20
136.873395
11
54.730200
21
134.654250
0
LINE
8
Layer 1
10
54.730200
20
134.654250
11
43.122728
21
130.568156
0
LINE
8
Layer 1
10
43.122728
20
130.568156
11
37.473315
21
128.269910
0
LINE
8
Layer 1
10
37.473315
20
128.269910
11
34.742713
21
126.962641
0
LINE
8
Layer 1
10
34.742713
20
126.962641
11
32.096000
21
125.514000
0
LINE
8
Layer 1
10
32.096000
20
125.514000
11
32.792841
21
117.032902
0
LINE
8
Layer 1
10
32.792841
20
117.032902
11
32.943628
21
112.687894
0
LINE
8
Layer 1
10
32.943628
20
112.687894
11
32.902075
21
108.310462
0
LINE
8
Layer 1
10
32.902075
20
108.310462
11
32.622744
21
103.928517
0
LINE
8
Layer 1
10
32.622744
20
103.928517
11
32.060197
21
99.569967
0
LINE
8
Layer 1
10
32.060197
20
99.569967
11
31.168995
21
95.262725
0
LINE
8
Layer 1
10
31.168995
20
95.262725
11
29.903700
21
91.034700
0
LINE
8
Layer 1
10
29.903700
20
91.034700
11
29.110858
21
88.244509
0
LINE
8
Layer 1
10
29.110858
20
88.244509
11
28.165817
21
85.521331
0
LINE
8
Layer 1
10
28.165817
20
85.521331
11
27.078043
21
82.863767
0
LINE
8
Layer 1
10
27.078043
20
82.863767
11
25.857002
21
80.270422
0
LINE
8
Layer 1
10
25.857002
20
80.270422
11
23.052985
21
75.270796
0
LINE
8
Layer 1
10
23.052985
20
75.270796
11
19.829493
21
70.511275
0
LINE
8
Layer 1
10
19.829493
20
70.511275
11
16.262254
21
65.980682
0
LINE
8
Layer 1
10
16.262254
20
65.980682
11
12.426997
21
61.667841
0
LINE
8
Layer 1
10
12.426997
20
61.667841
11
8.399449
21
57.561572
0
LINE
8
Layer 1
10
8.399449
20
57.561572
11
4.255340
21
53.650700
0
LINE
8
Layer 1
10
4.255340
20
53.650700
11
12.643779
21
53.273867
0
LINE
8
Layer 1
10
12.643779
20
53.273867
11
21.370930
21
53.210938
0
LINE
8
Layer 1
10
21.370930
20
53.210938
11
38.918700
21
53.432000
0
LINE
8
Layer 1
10
38.918700
20
53.432000
11
52.199495
21
54.057053
0
LINE
8
Layer 1
10
52.199495
20
54.057053
11
65.483881
21
54.278320
0
LINE
8
Layer 1
10
65.483881
20
54.278320
11
78.770883
21
54.212706
0
LINE
8
Layer 1
10
78.770883
20
54.212706
11
92.059525
21
53.977113
0
LINE
8
Layer 1
10
92.059525
20
53.977113
11
118.637831
21
53.463598
0
LINE
8
Layer 1
10
118.637831
20
53.463598
11
131.925545
21
53.419483
0
LINE
8
Layer 1
10
131.925545
20
53.419483
11
145.211000
21
53.673000
0
LINE
8
Layer 1
10
145.211000
20
53.673000
11
169.989250
21
54.008000
0
LINE
8
Layer 1
10
169.989250
20
54.008000
11
182.384375
21
54.018431
0
LINE
8
Layer 1
10
182.384375
20
54.018431
11
194.787000
21
53.785600
0
LINE
8
Layer 1
10
194.787000
20
53.785600
11
212.954266
21
53.764564
0
LINE
8
Layer 1
10
212.954266
20
53.764564
11
231.111125
21
53.946413
0
LINE
8
Layer 1
10
231.111125
20
53.946413
11
249.264422
21
53.997705
0
LINE
8
Layer 1
10
249.264422
20
53.997705
11
258.341873
21
53.870192
0
LINE
8
Layer 1
10
258.341873
20
53.870192
11
267.421000
21
53.585000
0
LINE
8
Layer 1
10
267.421000
20
53.585000
11
272.213064
21
53.650151
0
LINE
8
Layer 1
10
272.213064
20
53.650151
11
277.002516
21
53.576839
0
LINE
8
Layer 1
10
277.002516
20
53.576839
11
286.581125
21
53.200437
0
LINE
8
Layer 1
10
286.581125
20
53.200437
11
296.171922
21
52.827017
0
LINE
8
Layer 1
10
296.171922
20
52.827017
11
300.976607
21
52.757432
0
LINE
8
Layer 1
10
300.976607
20
52.757432
11
305.790000
21
52.827800
0
LINE
8
Layer 1
10
305.790000
20
52.827800
11
310.345438
21
52.442353
0
LINE
8
Layer 1
10
310.345438
20
52.442353
11
312.457453
21
52.466418
0
LINE
8
Layer 1
10
312.457453
20
52.466418
11
314.139250
21
52.730875
0
LINE
8
Layer 1
10
314.139250
20
52.730875
11
314.743875
21
52.975719
0
LINE
8
Layer 1
10
314.743875
20
52.975719
11
315.151016
21
53.307622
0
LINE
8
Layer 1
10
315.151016
20
53.307622
11
315.330695
21
53.735573
0
LINE
8
Layer 1
10
315.330695
20
53.735573
11
315.252938
21
54.268559
0
LINE
8
Layer 1
10
315.252938
20
54.268559
11
314.887766
21
54.915568
0
LINE
8
Layer 1
10
314.887766
20
54.915568
11
314.205203
21
55.685586
0
LINE
8
Layer 1
10
314.205203
20
55.685586
11
311.768000
21
57.630600
0
LINE
8
Layer 1
10
311.768000
20
57.630600
11
304.218703
21
65.265008
0
LINE
8
Layer 1
10
304.218703
20
65.265008
11
300.446475
21
69.175967
0
LINE
8
Layer 1
10
300.446475
20
69.175967
11
296.867875
21
73.235013
0
LINE
8
Layer 1
10
296.867875
20
73.235013
11
293.626916
21
77.506331
0
LINE
8
Layer 1
10
293.626916
20
77.506331
11
292.178055
21
79.741652
0
LINE
8
Layer 1
10
292.178055
20
79.741652
11
290.867609
21
82.054111
0
LINE
8
Layer 1
10
290.867609
20
82.054111
11
289.713579
21
84.451732
0
LINE
8
Layer 1
10
289.713579
20
84.451732
11
288.733967
21
86.942538
0
LINE
8
Layer 1
10
288.733967
20
86.942538
11
287.946773
21
89.534553
0
LINE
8
Layer 1
10
287.946773
20
89.534553
11
287.370000
21
92.235800
0
LINE
8
Layer 1
10
287.370000
20
92.235800
11
286.994594
21
96.820905
0
LINE
8
Layer 1
10
286.994594
20
96.820905
11
286.983313
21
101.407353
0
LINE
8
Layer 1
10
286.983313
20
101.407353
11
287.268188
21
105.989568
0
LINE
8
Layer 1
10
287.268188
20
105.989568
11
287.781250
21
110.561975
0
LINE
8
Layer 1
10
287.781250
20
110.561975
11
289.220062
21
119.655059
0
LINE
8
Layer 1
10
289.220062
20
119.655059
11
290.756000
21
128.642000
0
LINE
8
Layer 1
10
290.756000
20
128.642000
11
287.584898
21
128.586168
0
LINE
8
Layer 1
10
287.584898
20
128.586168
11
284.349250
21
128.295094
0
LINE
8
Layer 1
10
284.349250
20
128.295094
11
281.087539
21
127.941160
0
LINE
8
Layer 1
10
281.087539
20
127.941160
11
277.838250
21
127.696750
0
LINE
8
Layer 1
10
277.838250
20
127.696750
11
274.639867
21
127.734246
0
LINE
8
Layer 1
10
274.639867
20
127.734246
11
271.530875
21
128.226031
0
LINE
8
Layer 1
10
271.530875
20
128.226031
11
270.021927
21
128.696152
0
LINE
8
Layer 1
10
270.021927
20
128.696152
11
268.549758
21
129.344488
0
LINE
8
Layer 1
10
268.549758
20
129.344488
11
267.119179
21
130.192588
0
LINE
8
Layer 1
10
267.119179
20
130.192588
11
265.735000
21
131.262000
0
LINE
8
Layer 1
10
265.735000
20
131.262000
11
261.880730
21
134.132898
0
LINE
8
Layer 1
10
261.880730
20
134.132898
11
258.289781
21
137.323625
0
LINE
8
Layer 1
10
258.289781
20
137.323625
11
254.945441
21
140.788852
0
LINE
8
Layer 1
10
254.945441
20
140.788852
11
251.831000
21
144.483250
0
LINE
8
Layer 1
10
251.831000
20
144.483250
11
248.929746
21
148.361492
0
LINE
8
Layer 1
10
248.929746
20
148.361492
11
246.224969
21
152.378250
0
LINE
8
Layer 1
10
246.224969
20
152.378250
11
243.699957
21
156.488195
0
LINE
8
Layer 1
10
243.699957
20
156.488195
11
241.338000
21
160.646000
0
LINE
8
Layer 1
10
241.338000
20
160.646000
11
240.751373
21
161.398213
0
LINE
8
Layer 1
10
240.751373
20
161.398213
11
240.252299
21
162.329221
0
LINE
8
Layer 1
10
240.252299
20
162.329221
11
239.440641
21
164.570078
0
LINE
8
Layer 1
10
239.440641
20
164.570078
11
238.030125
21
169.464375
0
LINE
8
Layer 1
10
238.030125
20
169.464375
11
237.126604
21
171.487650
0
LINE
8
Layer 1
10
237.126604
20
171.487650
11
236.558632
21
172.255471
0
LINE
8
Layer 1
10
236.558632
20
172.255471
11
235.887797
21
172.808234
0
LINE
8
Layer 1
10
235.887797
20
172.808234
11
235.095058
21
173.106554
0
LINE
8
Layer 1
10
235.095058
20
173.106554
11
234.161373
21
173.111045
0
LINE
8
Layer 1
10
234.161373
20
173.111045
11
233.067701
21
172.782322
0
LINE
8
Layer 1
10
233.067701
20
172.782322
11
231.795000
21
172.081000
0
LINE
8
Layer 1
10
231.795000
20
172.081000
11
227.297793
21
170.047590
0
LINE
8
Layer 1
10
227.297793
20
170.047590
11
222.607156
21
168.395719
0
LINE
8
Layer 1
10
222.607156
20
168.395719
11
217.784566
21
167.197551
0
LINE
8
Layer 1
10
217.784566
20
167.197551
11
212.891500
21
166.525250
0
LINE
8
Layer 1
10
212.891500
20
166.525250
11
210.437750
21
166.408851
0
LINE
8
Layer 1
10
210.437750
20
166.408851
11
207.989434
21
166.450980
0
LINE
8
Layer 1
10
207.989434
20
166.450980
11
205.554237
21
166.660659
0
LINE
8
Layer 1
10
205.554237
20
166.660659
11
203.139844
21
167.046906
0
LINE
8
Layer 1
10
203.139844
20
167.046906
11
200.753939
21
167.618744
0
LINE
8
Layer 1
10
200.753939
20
167.618744
11
198.404207
21
168.385191
0
LINE
8
Layer 1
10
198.404207
20
168.385191
11
196.098333
21
169.355270
0
LINE
8
Layer 1
10
196.098333
20
169.355270
11
193.844000
21
170.538000
0
LINE
8
Layer 1
10
193.844000
20
170.538000
11
189.818535
21
172.120953
0
LINE
8
Layer 1
10
189.818535
20
172.120953
11
185.979469
21
174.027625
0
LINE
8
Layer 1
10
185.979469
20
174.027625
11
182.319043
21
176.221359
0
LINE
8
Layer 1
10
182.319043
20
176.221359
11
178.829500
21
178.665500
0
LINE
8
Layer 1
10
178.829500
20
178.665500
11
175.503082
21
181.323391
0
LINE
8
Layer 1
10
175.503082
20
181.323391
11
172.332031
21
184.158375
0
LINE
8
Layer 1
10
172.332031
20
184.158375
11
169.308590
21
187.133797
0
LINE
8
Layer 1
10
169.308590
20
187.133797
11
166.425000
21
190.213000
0
LINE
8
Layer 1
10
166.425000
20
190.213000
11
166.425000
21
190.213000
0
LINE
8
Layer 1
10
166.425000
20
190.213000
11
166.425000
21
190.213000
0
LINE
8
Layer 1
10
166.692000
20
186.807000
11
167.296291
21
185.361598
0
LINE
8
Layer 1
10
167.296291
20
185.361598
11
167.743889
21
183.896818
0
LINE
8
Layer 1
10
167.743889
20
183.896818
11
168.183109
21
180.947672
0
LINE
8
Layer 1
10
168.183109
20
180.947672
11
168.037869
21
178.036658
0
LINE
8
Layer 1
10
168.037869
20
178.036658
11
167.336375
21
175.240875
0
LINE
8
Layer 1
10
167.336375
20
175.240875
11
166.106834
21
172.637420
0
LINE
8
Layer 1
10
166.106834
20
172.637420
11
164.377453
21
170.303391
0
LINE
8
Layer 1
10
164.377453
20
170.303391
11
162.176439
21
168.315885
0
LINE
8
Layer 1
10
162.176439
20
168.315885
11
160.907885
21
167.476171
0
LINE
8
Layer 1
10
160.907885
20
167.476171
11
159.532000
21
166.752000
0
LINE
8
Layer 1
10
159.532000
20
166.752000
11
154.793250
21
164.119898
0
LINE
8
Layer 1
10
154.793250
20
164.119898
11
149.820125
21
161.947875
0
LINE
8
Layer 1
10
149.820125
20
161.947875
11
144.658937
21
160.231852
0
LINE
8
Layer 1
10
144.658937
20
160.231852
11
139.356000
21
158.967750
0
LINE
8
Layer 1
10
139.356000
20
158.967750
11
133.957625
21
158.151492
0
LINE
8
Layer 1
10
133.957625
20
158.151492
11
128.510125
21
157.779000
0
LINE
8
Layer 1
10
128.510125
20
157.779000
11
123.059813
21
157.846195
0
LINE
8
Layer 1
10
123.059813
20
157.846195
11
117.653000
21
158.349000
0
LINE
8
Layer 1
10
117.653000
20
158.349000
11
116.536482
21
157.973412
0
LINE
8
Layer 1
10
116.536482
20
157.973412
11
115.230964
21
157.935121
0
LINE
8
Layer 1
10
115.230964
20
157.935121
11
113.785251
21
158.192278
0
LINE
8
Layer 1
10
113.785251
20
158.192278
11
112.248145
21
158.703031
0
LINE
8
Layer 1
10
112.248145
20
158.703031
11
110.668452
21
159.425531
0
LINE
8
Layer 1
10
110.668452
20
159.425531
11
109.094976
21
160.317926
0
LINE
8
Layer 1
10
109.094976
20
160.317926
11
106.161888
21
162.445000
0
LINE
8
Layer 1
10
106.161888
20
162.445000
11
103.839313
21
164.749449
0
LINE
8
Layer 1
10
103.839313
20
164.749449
11
103.028979
21
165.863563
0
LINE
8
Layer 1
10
103.028979
20
165.863563
11
102.517686
21
166.896469
0
LINE
8
Layer 1
10
102.517686
20
166.896469
11
102.354237
21
167.806316
0
LINE
8
Layer 1
10
102.354237
20
167.806316
11
102.587437
21
168.551254
0
LINE
8
Layer 1
10
102.587437
20
168.551254
11
103.266090
21
169.089432
0
LINE
8
Layer 1
10
103.266090
20
169.089432
11
104.439000
21
169.379000
0
LINE
8
Layer 1
10
104.439000
20
169.379000
11
111.999937
21
167.682812
0
LINE
8
Layer 1
10
111.999937
20
167.682812
11
115.819570
21
167.008273
0
LINE
8
Layer 1
10
115.819570
20
167.008273
11
119.652000
21
166.543500
0
LINE
8
Layer 1
10
119.652000
20
166.543500
11
123.487242
21
166.359039
0
LINE
8
Layer 1
10
123.487242
20
166.359039
11
127.315313
21
166.525438
0
LINE
8
Layer 1
10
127.315313
20
166.525438
11
131.126227
21
167.113242
0
LINE
8
Layer 1
10
131.126227
20
167.113242
11
134.910000
21
168.193000
0
LINE
8
Layer 1
10
134.910000
20
168.193000
11
138.174654
21
169.719445
0
LINE
8
Layer 1
10
138.174654
20
169.719445
11
141.579922
21
171.026938
0
LINE
8
Layer 1
10
141.579922
20
171.026938
11
148.505125
21
173.460000
0
LINE
8
Layer 1
10
148.505125
20
173.460000
11
151.871475
21
174.823039
0
LINE
8
Layer 1
10
151.871475
20
174.823039
11
155.071266
21
176.442062
0
LINE
8
Layer 1
10
155.071266
20
176.442062
11
158.027705
21
178.435805
0
LINE
8
Layer 1
10
158.027705
20
178.435805
11
159.390670
21
179.610300
0
LINE
8
Layer 1
10
159.390670
20
179.610300
11
160.664000
21
180.923000
0
LINE
8
Layer 1
10
160.664000
20
180.923000
11
162.088078
21
182.461125
0
LINE
8
Layer 1
10
162.088078
20
182.461125
11
163.478875
21
184.145500
0
LINE
8
Layer 1
10
163.478875
20
184.145500
11
164.969234
21
185.689625
0
LINE
8
Layer 1
10
164.969234
20
185.689625
11
165.793264
21
186.319562
0
LINE
8
Layer 1
10
165.793264
20
186.319562
11
166.692000
21
186.807000
0
LINE
8
Layer 1
10
166.692000
20
186.807000
11
166.692000
21
186.807000
0
LINE
8
Layer 1
10
172.748000
20
178.917000
11
179.718984
21
173.668094
0
LINE
8
Layer 1
10
179.718984
20
173.668094
11
183.361830
21
171.188496
0
LINE
8
Layer 1
10
183.361830
20
171.188496
11
187.127125
21
168.914000
0
LINE
8
Layer 1
10
187.127125
20
168.914000
11
191.028029
21
166.926004
0
LINE
8
Layer 1
10
191.028029
20
166.926004
11
195.077703
21
165.305906
0
LINE
8
Layer 1
10
195.077703
20
165.305906
11
199.289307
21
164.135105
0
LINE
8
Layer 1
10
199.289307
20
164.135105
11
201.459945
21
163.743628
0
LINE
8
Layer 1
10
201.459945
20
163.743628
11
203.676000
21
163.495000
0
LINE
8
Layer 1
10
203.676000
20
163.495000
11
207.584145
21
162.839980
0
LINE
8
Layer 1
10
207.584145
20
162.839980
11
211.529156
21
162.672344
0
LINE
8
Layer 1
10
211.529156
20
162.672344
11
215.466527
21
162.938723
0
LINE
8
Layer 1
10
215.466527
20
162.938723
11
219.351750
21
163.585750
0
LINE
8
Layer 1
10
219.351750
20
163.585750
11
223.140316
21
164.560059
0
LINE
8
Layer 1
10
223.140316
20
164.560059
11
226.787719
21
165.808281
0
LINE
8
Layer 1
10
226.787719
20
165.808281
11
230.249449
21
167.277051
0
LINE
8
Layer 1
10
230.249449
20
167.277051
11
233.481000
21
168.913000
0
LINE
8
Layer 1
10
233.481000
20
168.913000
11
233.448338
21
166.214287
0
LINE
8
Layer 1
10
233.448338
20
166.214287
11
233.072328
21
163.292672
0
LINE
8
Layer 1
10
233.072328
20
163.292672
11
232.327436
21
160.339814
0
LINE
8
Layer 1
10
232.327436
20
160.339814
11
231.188125
21
157.547375
0
LINE
8
Layer 1
10
231.188125
20
157.547375
11
230.462583
21
156.271206
0
LINE
8
Layer 1
10
230.462583
20
156.271206
11
229.628861
21
155.107014
0
LINE
8
Layer 1
10
229.628861
20
155.107014
11
228.683767
21
154.078756
0
LINE
8
Layer 1
10
228.683767
20
154.078756
11
227.624109
21
153.210391
0
LINE
8
Layer 1
10
227.624109
20
153.210391
11
226.446696
21
152.525875
0
LINE
8
Layer 1
10
226.446696
20
152.525875
11
225.148334
21
152.049166
0
LINE
8
Layer 1
10
225.148334
20
152.049166
11
223.725833
21
151.804222
0
LINE
8
Layer 1
10
223.725833
20
151.804222
11
222.176000
21
151.815000
0
LINE
8
Layer 1
10
222.176000
20
151.815000
11
212.519391
21
152.821125
0
LINE
8
Layer 1
10
212.519391
20
152.821125
11
207.658420
21
153.398297
0
LINE
8
Layer 1
10
207.658420
20
153.398297
11
202.838875
21
154.164000
0
LINE
8
Layer 1
10
202.838875
20
154.164000
11
198.108158
21
155.222578
0
LINE
8
Layer 1
10
198.108158
20
155.222578
11
193.513672
21
156.678375
0
LINE
8
Layer 1
10
193.513672
20
156.678375
11
191.282328
21
157.587838
0
LINE
8
Layer 1
10
191.282328
20
157.587838
11
189.102818
21
158.635734
0
LINE
8
Layer 1
10
189.102818
20
158.635734
11
186.981067
21
159.835107
0
LINE
8
Layer 1
10
186.981067
20
159.835107
11
184.923000
21
161.199000
0
LINE
8
Layer 1
10
184.923000
20
161.199000
11
182.190098
21
162.538600
0
LINE
8
Layer 1
10
182.190098
20
162.538600
11
179.547781
21
164.086547
0
LINE
8
Layer 1
10
179.547781
20
164.086547
11
177.123762
21
165.863689
0
LINE
8
Layer 1
10
177.123762
20
165.863689
11
175.045750
21
167.890875
0
LINE
8
Layer 1
10
175.045750
20
167.890875
11
174.176407
21
169.004749
0
LINE
8
Layer 1
10
174.176407
20
169.004749
11
173.441457
21
170.188951
0
LINE
8
Layer 1
10
173.441457
20
170.188951
11
172.856865
21
171.446088
0
LINE
8
Layer 1
10
172.856865
20
171.446088
11
172.438594
21
172.778766
0
LINE
8
Layer 1
10
172.438594
20
172.778766
11
172.202608
21
174.189590
0
LINE
8
Layer 1
10
172.202608
20
174.189590
11
172.164871
21
175.681166
0
LINE
8
Layer 1
10
172.164871
20
175.681166
11
172.341347
21
177.256101
0
LINE
8
Layer 1
10
172.341347
20
177.256101
11
172.748000
21
178.917000
0
LINE
8
Layer 1
10
172.748000
20
178.917000
11
172.748000
21
178.917000
0
LINE
8
Layer 1
10
168.606000
20
170.378000
11
169.362283
21
167.952451
0
LINE
8
Layer 1
10
169.362283
20
167.952451
11
169.794016
21
165.223422
0
LINE
8
Layer 1
10
169.794016
20
165.223422
11
169.897271
21
162.296088
0
LINE
8
Layer 1
10
169.897271
20
162.296088
11
169.668125
21
159.275625
0
LINE
8
Layer 1
10
169.668125
20
159.275625
11
169.102650
21
156.267209
0
LINE
8
Layer 1
10
169.102650
20
156.267209
11
168.196922
21
153.376016
0
LINE
8
Layer 1
10
168.196922
20
153.376016
11
166.947014
21
150.707221
0
LINE
8
Layer 1
10
166.947014
20
150.707221
11
165.349000
21
148.366000
0
LINE
8
Layer 1
10
165.349000
20
148.366000
11
160.602232
21
146.153346
0
LINE
8
Layer 1
10
160.602232
20
146.153346
11
155.734047
21
144.175266
0
LINE
8
Layer 1
10
155.734047
20
144.175266
11
150.759244
21
142.461209
0
LINE
8
Layer 1
10
150.759244
20
142.461209
11
145.692625
21
141.040625
0
LINE
8
Layer 1
10
145.692625
20
141.040625
11
140.548990
21
139.942963
0
LINE
8
Layer 1
10
140.548990
20
139.942963
11
135.343141
21
139.197672
0
LINE
8
Layer 1
10
135.343141
20
139.197672
11
130.089877
21
138.834201
0
LINE
8
Layer 1
10
130.089877
20
138.834201
11
124.804000
21
138.882000
0
LINE
8
Layer 1
10
124.804000
20
138.882000
11
123.704632
21
139.076382
0
LINE
8
Layer 1
10
123.704632
20
139.076382
11
122.530211
21
139.554916
0
LINE
8
Layer 1
10
122.530211
20
139.554916
11
121.310638
21
140.279371
0
LINE
8
Layer 1
10
121.310638
20
140.279371
11
120.075812
21
141.211516
0
LINE
8
Layer 1
10
120.075812
20
141.211516
11
117.680008
21
143.545951
0
LINE
8
Layer 1
10
117.680008
20
143.545951
11
115.582000
21
146.252375
0
LINE
8
Layer 1
10
115.582000
20
146.252375
11
114.020992
21
149.024939
0
LINE
8
Layer 1
10
114.020992
20
149.024939
11
113.516614
21
150.340447
0
LINE
8
Layer 1
10
113.516614
20
150.340447
11
113.236187
21
151.557797
0
LINE
8
Layer 1
10
113.236187
20
151.557797
11
113.209612
21
152.638758
0
LINE
8
Layer 1
10
113.209612
20
152.638758
11
113.466789
21
153.545100
0
LINE
8
Layer 1
10
113.466789
20
153.545100
11
114.037618
21
154.238591
0
LINE
8
Layer 1
10
114.037618
20
154.238591
11
114.952000
21
154.681000
0
LINE
8
Layer 1
10
114.952000
20
154.681000
11
122.877250
21
154.425125
0
LINE
8
Layer 1
10
122.877250
20
154.425125
11
130.810750
21
154.109250
0
LINE
8
Layer 1
10
130.810750
20
154.109250
11
134.756336
21
154.172211
0
LINE
8
Layer 1
10
134.756336
20
154.172211
11
138.674875
21
154.512250
0
LINE
8
Layer 1
10
138.674875
20
154.512250
11
142.556664
21
155.226727
0
LINE
8
Layer 1
10
142.556664
20
155.226727
11
146.392000
21
156.413000
0
LINE
8
Layer 1
10
146.392000
20
156.413000
11
152.659688
21
158.721313
0
LINE
8
Layer 1
10
152.659688
20
158.721313
11
155.706508
21
160.096672
0
LINE
8
Layer 1
10
155.706508
20
160.096672
11
158.646500
21
161.659250
0
LINE
8
Layer 1
10
158.646500
20
161.659250
11
161.443055
21
163.438859
0
LINE
8
Layer 1
10
161.443055
20
163.438859
11
164.059562
21
165.465312
0
LINE
8
Layer 1
10
164.059562
20
165.465312
11
166.459414
21
167.768422
0
LINE
8
Layer 1
10
166.459414
20
167.768422
11
168.606000
21
170.378000
0
LINE
8
Layer 1
10
168.606000
20
170.378000
11
168.606000
21
170.378000
0
LINE
8
Layer 1
10
95.015100
20
169.811000
11
98.880845
21
166.319828
0
LINE
8
Layer 1
10
98.880845
20
166.319828
11
100.791601
21
164.308186
0
LINE
8
Layer 1
10
100.791601
20
164.308186
11
102.449337
21
162.148125
0
LINE
8
Layer 1
10
102.449337
20
162.148125
11
103.675351
21
159.861361
0
LINE
8
Layer 1
10
103.675351
20
159.861361
11
104.070616
21
158.677252
0
LINE
8
Layer 1
10
104.070616
20
158.677252
11
104.290936
21
157.469609
0
LINE
8
Layer 1
10
104.290936
20
157.469609
11
104.313972
21
156.241149
0
LINE
8
Layer 1
10
104.313972
20
156.241149
11
104.117387
21
154.994584
0
LINE
8
Layer 1
10
104.117387
20
154.994584
11
103.678843
21
153.732630
0
LINE
8
Layer 1
10
103.678843
20
153.732630
11
102.976000
21
152.458000
0
LINE
8
Layer 1
10
102.976000
20
152.458000
11
98.793488
21
146.776303
0
LINE
8
Layer 1
10
98.793488
20
146.776303
11
94.307345
21
141.229922
0
LINE
8
Layer 1
10
94.307345
20
141.229922
11
89.486883
21
135.954549
0
LINE
8
Layer 1
10
89.486883
20
135.954549
11
86.941691
21
133.460894
0
LINE
8
Layer 1
10
86.941691
20
133.460894
11
84.301412
21
131.085875
0
LINE
8
Layer 1
10
84.301412
20
131.085875
11
81.562210
21
128.846454
0
LINE
8
Layer 1
10
81.562210
20
128.846454
11
78.720247
21
126.759592
0
LINE
8
Layer 1
10
78.720247
20
126.759592
11
75.771689
21
124.842250
0
LINE
8
Layer 1
10
75.771689
20
124.842250
11
72.712698
21
123.111391
0
LINE
8
Layer 1
10
72.712698
20
123.111391
11
69.539440
21
121.583974
0
LINE
8
Layer 1
10
69.539440
20
121.583974
11
66.248079
21
120.276963
0
LINE
8
Layer 1
10
66.248079
20
120.276963
11
62.834777
21
119.207318
0
LINE
8
Layer 1
10
62.834777
20
119.207318
11
59.295700
21
118.392000
0
LINE
8
Layer 1
10
59.295700
20
118.392000
11
58.226133
21
117.739541
0
LINE
8
Layer 1
10
58.226133
20
117.739541
11
56.951962
21
117.357188
0
LINE
8
Layer 1
10
56.951962
20
117.357188
11
55.524009
21
117.220787
0
LINE
8
Layer 1
10
55.524009
20
117.220787
11
53.993092
21
117.306187
0
LINE
8
Layer 1
10
53.993092
20
117.306187
11
52.410034
21
117.589236
0
LINE
8
Layer 1
10
52.410034
20
117.589236
11
50.825654
21
118.045781
0
LINE
8
Layer 1
10
50.825654
20
118.045781
11
49.290773
21
118.651670
0
LINE
8
Layer 1
10
49.290773
20
118.651670
11
47.856212
21
119.382750
0
LINE
8
Layer 1
10
47.856212
20
119.382750
11
46.572792
21
120.214869
0
LINE
8
Layer 1
10
46.572792
20
120.214869
11
45.491332
21
121.123875
0
LINE
8
Layer 1
10
45.491332
20
121.123875
11
44.662653
21
122.085615
0
LINE
8
Layer 1
10
44.662653
20
122.085615
11
44.137577
21
123.075937
0
LINE
8
Layer 1
10
44.137577
20
123.075937
11
43.966922
21
124.070689
0
LINE
8
Layer 1
10
43.966922
20
124.070689
11
44.201511
21
125.045719
0
LINE
8
Layer 1
10
44.201511
20
125.045719
11
44.892164
21
125.976873
0
LINE
8
Layer 1
10
44.892164
20
125.976873
11
46.089700
21
126.840000
0
LINE
8
Layer 1
10
46.089700
20
126.840000
11
50.819898
21
128.030662
0
LINE
8
Layer 1
10
50.819898
20
128.030662
11
55.471522
21
129.541609
0
LINE
8
Layer 1
10
55.471522
20
129.541609
11
60.016641
21
131.367158
0
LINE
8
Layer 1
10
60.016641
20
131.367158
11
64.427325
21
133.501625
0
LINE
8
Layer 1
10
64.427325
20
133.501625
11
68.675643
21
135.939326
0
LINE
8
Layer 1
10
68.675643
20
135.939326
11
72.733666
21
138.674578
0
LINE
8
Layer 1
10
72.733666
20
138.674578
11
76.573461
21
141.701697
0
LINE
8
Layer 1
10
76.573461
20
141.701697
11
80.167100
21
145.015000
0
LINE
8
Layer 1
10
80.167100
20
145.015000
11
82.615956
21
147.733014
0
LINE
8
Layer 1
10
82.615956
20
147.733014
11
84.868894
21
150.588547
0
LINE
8
Layer 1
10
84.868894
20
150.588547
11
86.939178
21
153.567338
0
LINE
8
Layer 1
10
86.939178
20
153.567338
11
88.840075
21
156.655125
0
LINE
8
Layer 1
10
88.840075
20
156.655125
11
90.584850
21
159.837646
0
LINE
8
Layer 1
10
90.584850
20
159.837646
11
92.186769
21
163.100641
0
LINE
8
Layer 1
10
92.186769
20
163.100641
11
95.015100
21
169.811000
0
LINE
8
Layer 1
10
95.015100
20
169.811000
11
95.015100
21
169.811000
0
LINE
8
Layer 1
10
173.838000
20
164.771000
11
176.336873
21
162.872766
0
LINE
8
Layer 1
10
176.336873
20
162.872766
11
178.767297
21
160.833250
0
LINE
8
Layer 1
10
178.767297
20
160.833250
11
183.634625
21
156.711000
0
LINE
8
Layer 1
10
183.634625
20
156.711000
11
186.177443
21
154.818578
0
LINE
8
Layer 1
10
186.177443
20
154.818578
11
188.863641
21
153.165500
0
LINE
8
Layer 1
10
188.863641
20
153.165500
11
191.746174
21
151.846922
0
LINE
8
Layer 1
10
191.746174
20
151.846922
11
194.878000
21
150.958000
0
LINE
8
Layer 1
10
194.878000
20
150.958000
11
196.461199
21
150.104279
0
LINE
8
Layer 1
10
196.461199
20
150.104279
11
198.160861
21
149.476010
0
LINE
8
Layer 1
10
198.160861
20
149.476010
11
199.956643
21
149.041349
0
LINE
8
Layer 1
10
199.956643
20
149.041349
11
201.828203
21
148.768453
0
LINE
8
Layer 1
10
201.828203
20
148.768453
11
205.717287
21
148.580576
0
LINE
8
Layer 1
10
205.717287
20
148.580576
11
209.665375
21
148.657625
0
LINE
8
Layer 1
10
209.665375
20
148.657625
11
213.509729
21
148.744846
0
LINE
8
Layer 1
10
213.509729
20
148.744846
11
217.087609
21
148.587484
0
LINE
8
Layer 1
10
217.087609
20
148.587484
11
218.725767
21
148.337475
0
LINE
8
Layer 1
10
218.725767
20
148.337475
11
220.236279
21
147.930787
0
LINE
8
Layer 1
10
220.236279
20
147.930787
11
221.598804
21
147.335577
0
LINE
8
Layer 1
10
221.598804
20
147.335577
11
222.793000
21
146.520000
0
LINE
8
Layer 1
10
222.793000
20
146.520000
11
222.556045
21
144.559205
0
LINE
8
Layer 1
10
222.556045
20
144.559205
11
222.073547
21
142.545078
0
LINE
8
Layer 1
10
222.073547
20
142.545078
11
221.332557
21
140.603256
0
LINE
8
Layer 1
10
221.332557
20
140.603256
11
220.320125
21
138.859375
0
LINE
8
Layer 1
10
220.320125
20
138.859375
11
219.023303
21
137.439072
0
LINE
8
Layer 1
10
219.023303
20
137.439072
11
218.264198
21
136.889524
0
LINE
8
Layer 1
10
218.264198
20
136.889524
11
217.429141
21
136.467984
0
LINE
8
Layer 1
10
217.429141
20
136.467984
11
216.516510
21
136.190157
0
LINE
8
Layer 1
10
216.516510
20
136.190157
11
215.524689
21
136.071748
0
LINE
8
Layer 1
10
215.524689
20
136.071748
11
214.452059
21
136.128461
0
LINE
8
Layer 1
10
214.452059
20
136.128461
11
213.297000
21
136.376000
0
LINE
8
Layer 1
10
213.297000
20
136.376000
11
208.075920
21
136.862484
0
LINE
8
Layer 1
10
208.075920
20
136.862484
11
202.804297
21
137.557562
0
LINE
8
Layer 1
10
202.804297
20
137.557562
11
197.560307
21
138.540922
0
LINE
8
Layer 1
10
197.560307
20
138.540922
11
192.422125
21
139.892250
0
LINE
8
Layer 1
10
192.422125
20
139.892250
11
187.467928
21
141.691234
0
LINE
8
Layer 1
10
187.467928
20
141.691234
11
185.084253
21
142.783500
0
LINE
8
Layer 1
10
185.084253
20
142.783500
11
182.775891
21
144.017563
0
LINE
8
Layer 1
10
182.775891
20
144.017563
11
180.552612
21
145.403383
0
LINE
8
Layer 1
10
180.552612
20
145.403383
11
178.424189
21
146.950922
0
LINE
8
Layer 1
10
178.424189
20
146.950922
11
176.400395
21
148.670141
0
LINE
8
Layer 1
10
176.400395
20
148.670141
11
174.491000
21
150.571000
0
LINE
8
Layer 1
10
174.491000
20
150.571000
11
173.803164
21
152.212248
0
LINE
8
Layer 1
10
173.803164
20
152.212248
11
173.300812
21
153.952859
0
LINE
8
Layer 1
10
173.300812
20
153.952859
11
172.977805
21
155.762260
0
LINE
8
Layer 1
10
172.977805
20
155.762260
11
172.828000
21
157.609875
0
LINE
8
Layer 1
10
172.828000
20
157.609875
11
172.845258
21
159.465131
0
LINE
8
Layer 1
10
172.845258
20
159.465131
11
173.023438
21
161.297453
0
LINE
8
Layer 1
10
173.023438
20
161.297453
11
173.356398
21
163.076268
0
LINE
8
Layer 1
10
173.356398
20
163.076268
11
173.838000
21
164.771000
0
LINE
8
Layer 1
10
173.838000
20
164.771000
11
173.838000
21
164.771000
0
LINE
8
Layer 1
10
236.840000
20
160.073000
11
239.004902
21
156.730600
0
LINE
8
Layer 1
10
239.004902
20
156.730600
11
241.051844
21
153.245359
0
LINE
8
Layer 1
10
241.051844
20
153.245359
11
245.177250
21
146.222625
0
LINE
8
Layer 1
10
245.177250
20
146.222625
11
247.448418
21
142.873264
0
LINE
8
Layer 1
10
247.448418
20
142.873264
11
249.987031
21
139.757328
0
LINE
8
Layer 1
10
249.987031
20
139.757328
11
252.889441
21
136.968885
0
LINE
8
Layer 1
10
252.889441
20
136.968885
11
254.507180
21
135.726868
0
LINE
8
Layer 1
10
254.507180
20
135.726868
11
256.252000
21
134.602000
0
LINE
8
Layer 1
10
256.252000
20
134.602000
11
257.010214
21
133.751586
0
LINE
8
Layer 1
10
257.010214
20
133.751586
11
258.023771
21
132.926578
0
LINE
8
Layer 1
10
258.023771
20
132.926578
11
260.632672
21
131.346688
0
LINE
8
Layer 1
10
260.632672
20
131.346688
11
263.710205
21
129.850141
0
LINE
8
Layer 1
10
263.710205
20
129.850141
11
266.887875
21
128.424750
0
LINE
8
Layer 1
10
266.887875
20
128.424750
11
269.797186
21
127.058328
0
LINE
8
Layer 1
10
269.797186
20
127.058328
11
272.069641
21
125.738688
0
LINE
8
Layer 1
10
272.069641
20
125.738688
11
272.851892
21
125.092602
0
LINE
8
Layer 1
10
272.851892
20
125.092602
11
273.336744
21
124.453641
0
LINE
8
Layer 1
10
273.336744
20
124.453641
11
273.478134
21
123.820281
0
LINE
8
Layer 1
10
273.478134
20
123.820281
11
273.230000
21
123.191000
0
LINE
8
Layer 1
10
273.230000
20
123.191000
11
272.022594
21
121.931923
0
LINE
8
Layer 1
10
272.022594
20
121.931923
11
270.774078
21
120.923590
0
LINE
8
Layer 1
10
270.774078
20
120.923590
11
269.491695
21
120.153469
0
LINE
8
Layer 1
10
269.491695
20
120.153469
11
268.182687
21
119.609031
0
LINE
8
Layer 1
10
268.182687
20
119.609031
11
266.854297
21
119.277746
0
LINE
8
Layer 1
10
266.854297
20
119.277746
11
265.513766
21
119.147082
0
LINE
8
Layer 1
10
265.513766
20
119.147082
11
264.168336
21
119.204510
0
LINE
8
Layer 1
10
264.168336
20
119.204510
11
262.825250
21
119.437500
0
LINE
8
Layer 1
10
262.825250
20
119.437500
11
261.491750
21
119.833521
0
LINE
8
Layer 1
10
261.491750
20
119.833521
11
260.175078
21
120.380043
0
LINE
8
Layer 1
10
260.175078
20
120.380043
11
257.621187
21
121.874469
0
LINE
8
Layer 1
10
257.621187
20
121.874469
11
255.221516
21
123.820535
0
LINE
8
Layer 1
10
255.221516
20
123.820535
11
253.034000
21
126.118000
0
LINE
8
Layer 1
10
253.034000
20
126.118000
11
249.761047
21
128.826824
0
LINE
8
Layer 1
10
249.761047
20
128.826824
11
246.516687
21
131.748906
0
LINE
8
Layer 1
10
246.516687
20
131.748906
11
243.393172
21
134.878410
0
LINE
8
Layer 1
10
243.393172
20
134.878410
11
240.482750
21
138.209500
0
LINE
8
Layer 1
10
240.482750
20
138.209500
11
237.877672
21
141.736340
0
LINE
8
Layer 1
10
237.877672
20
141.736340
11
235.670187
21
145.453094
0
LINE
8
Layer 1
10
235.670187
20
145.453094
11
233.952547
21
149.353926
0
LINE
8
Layer 1
10
233.952547
20
149.353926
11
233.306246
21
151.371547
0
LINE
8
Layer 1
10
233.306246
20
151.371547
11
232.817000
21
153.433000
0
LINE
8
Layer 1
10
232.817000
20
153.433000
11
233.321281
21
155.312281
0
LINE
8
Layer 1
10
233.321281
20
155.312281
11
234.245000
21
157.095750
0
LINE
8
Layer 1
10
234.245000
20
157.095750
11
235.460469
21
158.707844
0
LINE
8
Layer 1
10
235.460469
20
158.707844
11
236.840000
21
160.073000
0
LINE
8
Layer 1
10
236.840000
20
160.073000
11
236.840000
21
160.073000
0
LINE
8
Layer 1
10
107.765000
20
151.322000
11
110.696391
21
146.991109
0
LINE
8
Layer 1
10
110.696391
20
146.991109
11
111.995967
21
144.614768
0
LINE
8
Layer 1
10
111.995967
20
144.614768
11
112.987375
21
142.157625
0
LINE
8
Layer 1
10
112.987375
20
142.157625
11
113.522549
21
139.664529
0
LINE
8
Layer 1
10
113.522549
20
139.664529
11
113.572777
21
138.418514
0
LINE
8
Layer 1
10
113.572777
20
138.418514
11
113.453422
21
137.180328
0
LINE
8
Layer 1
10
113.453422
20
137.180328
11
113.145975
21
135.955578
0
LINE
8
Layer 1
10
113.145975
20
135.955578
11
112.631928
21
134.749869
0
LINE
8
Layer 1
10
112.631928
20
134.749869
11
111.892772
21
133.568808
0
LINE
8
Layer 1
10
111.892772
20
133.568808
11
110.910000
21
132.418000
0
LINE
8
Layer 1
10
110.910000
20
132.418000
11
109.826308
21
130.204813
0
LINE
8
Layer 1
10
109.826308
20
130.204813
11
108.615505
21
128.107924
0
LINE
8
Layer 1
10
108.615505
20
128.107924
11
107.284188
21
126.124968
0
LINE
8
Layer 1
10
107.284188
20
126.124968
11
105.838956
21
124.253578
0
LINE
8
Layer 1
10
105.838956
20
124.253578
11
102.633136
21
120.836037
0
LINE
8
Layer 1
10
102.633136
20
120.836037
11
99.050825
21
117.836375
0
LINE
8
Layer 1
10
99.050825
20
117.836375
11
95.144805
21
115.235666
0
LINE
8
Layer 1
10
95.144805
20
115.235666
11
90.967856
21
113.014984
0
LINE
8
Layer 1
10
90.967856
20
113.014984
11
86.572761
21
111.155404
0
LINE
8
Layer 1
10
86.572761
20
111.155404
11
82.012300
21
109.638000
0
LINE
8
Layer 1
10
82.012300
20
109.638000
11
80.529400
21
108.664296
0
LINE
8
Layer 1
10
80.529400
20
108.664296
11
79.013474
21
107.899605
0
LINE
8
Layer 1
10
79.013474
20
107.899605
11
77.470619
21
107.332370
0
LINE
8
Layer 1
10
77.470619
20
107.332370
11
75.906927
21
106.951031
0
LINE
8
Layer 1
10
75.906927
20
106.951031
11
74.328493
21
106.744033
0
LINE
8
Layer 1
10
74.328493
20
106.744033
11
72.741412
21
106.699816
0
LINE
8
Layer 1
10
72.741412
20
106.699816
11
69.565687
21
107.053500
0
LINE
8
Layer 1
10
69.565687
20
107.053500
11
66.428508
21
107.919621
0
LINE
8
Layer 1
10
66.428508
20
107.919621
11
63.378630
21
109.205719
0
LINE
8
Layer 1
10
63.378630
20
109.205719
11
60.464808
21
110.819332
0
LINE
8
Layer 1
10
60.464808
20
110.819332
11
57.735800
21
112.668000
0
LINE
8
Layer 1
10
57.735800
20
112.668000
11
58.116650
21
113.767261
0
LINE
8
Layer 1
10
58.116650
20
113.767261
11
58.806982
21
114.686637
0
LINE
8
Layer 1
10
58.806982
20
114.686637
11
59.769377
21
115.450639
0
LINE
8
Layer 1
10
59.769377
20
115.450639
11
60.966417
21
116.083781
0
LINE
8
Layer 1
10
60.966417
20
116.083781
11
63.914766
21
117.055535
0
LINE
8
Layer 1
10
63.914766
20
117.055535
11
67.352688
21
117.798000
0
LINE
8
Layer 1
10
67.352688
20
117.798000
11
70.980842
21
118.507277
0
LINE
8
Layer 1
10
70.980842
20
118.507277
11
74.499889
21
119.379469
0
LINE
8
Layer 1
10
74.499889
20
119.379469
11
76.124953
21
119.937939
0
LINE
8
Layer 1
10
76.124953
20
119.937939
11
77.610488
21
120.610676
0
LINE
8
Layer 1
10
77.610488
20
120.610676
11
78.919076
21
121.422192
0
LINE
8
Layer 1
10
78.919076
20
121.422192
11
80.013300
21
122.397000
0
LINE
8
Layer 1
10
80.013300
20
122.397000
11
83.812864
21
124.759236
0
LINE
8
Layer 1
10
83.812864
20
124.759236
11
87.395928
21
127.375453
0
LINE
8
Layer 1
10
87.395928
20
127.375453
11
90.767854
21
130.226912
0
LINE
8
Layer 1
10
90.767854
20
130.226912
11
93.934000
21
133.294875
0
LINE
8
Layer 1
10
93.934000
20
133.294875
11
96.899728
21
136.560604
0
LINE
8
Layer 1
10
96.899728
20
136.560604
11
99.670397
21
140.005359
0
LINE
8
Layer 1
10
99.670397
20
140.005359
11
102.251368
21
143.610404
0
LINE
8
Layer 1
10
102.251368
20
143.610404
11
104.648000
21
147.357000
0
LINE
8
Layer 1
10
104.648000
20
147.357000
11
105.393359
21
148.355656
0
LINE
8
Layer 1
10
105.393359
20
148.355656
11
106.326875
21
149.356750
0
LINE
8
Layer 1
10
106.326875
20
149.356750
11
107.200203
21
150.349219
0
LINE
8
Layer 1
10
107.200203
20
150.349219
11
107.765000
21
151.322000
0
LINE
8
Layer 1
10
107.765000
20
151.322000
11
107.765000
21
151.322000
0
LINE
8
Layer 1
10
171.273000
20
147.321000
11
174.885580
21
145.114729
0
LINE
8
Layer 1
10
174.885580
20
145.114729
11
178.445391
21
142.691391
0
LINE
8
Layer 1
10
178.445391
20
142.691391
11
182.014412
21
140.225326
0
LINE
8
Layer 1
10
182.014412
20
140.225326
11
185.654625
21
137.890875
0
LINE
8
Layer 1
10
185.654625
20
137.890875
11
189.428010
21
135.862377
0
LINE
8
Layer 1
10
189.428010
20
135.862377
11
191.384010
21
135.017342
0
LINE
8
Layer 1
10
191.384010
20
135.017342
11
193.396547
21
134.314172
0
LINE
8
Layer 1
10
193.396547
20
134.314172
11
195.473366
21
133.774660
0
LINE
8
Layer 1
10
195.473366
20
133.774660
11
197.622217
21
133.420600
0
LINE
8
Layer 1
10
197.622217
20
133.420600
11
199.850845
21
133.273782
0
LINE
8
Layer 1
10
199.850845
20
133.273782
11
202.167000
21
133.356000
0
LINE
8
Layer 1
10
202.167000
20
133.356000
11
208.744906
21
133.345438
0
LINE
8
Layer 1
10
208.744906
20
133.345438
11
212.010293
21
133.127344
0
LINE
8
Layer 1
10
212.010293
20
133.127344
11
214.824250
21
132.556750
0
LINE
8
Layer 1
10
214.824250
20
132.556750
11
215.959821
21
132.089900
0
LINE
8
Layer 1
10
215.959821
20
132.089900
11
216.859988
21
131.475687
0
LINE
8
Layer 1
10
216.859988
20
131.475687
11
217.483904
21
130.694365
0
LINE
8
Layer 1
10
217.483904
20
130.694365
11
217.790719
21
129.726188
0
LINE
8
Layer 1
10
217.790719
20
129.726188
11
217.739584
21
128.551408
0
LINE
8
Layer 1
10
217.739584
20
128.551408
11
217.289652
21
127.150281
0
LINE
8
Layer 1
10
217.289652
20
127.150281
11
216.400074
21
125.503061
0
LINE
8
Layer 1
10
216.400074
20
125.503061
11
215.030000
21
123.590000
0
LINE
8
Layer 1
10
215.030000
20
123.590000
11
213.411370
21
122.921472
0
LINE
8
Layer 1
10
213.411370
20
122.921472
11
211.759191
21
122.460342
0
LINE
8
Layer 1
10
211.759191
20
122.460342
11
210.078660
21
122.188911
0
LINE
8
Layer 1
10
210.078660
20
122.188911
11
208.374969
21
122.089484
0
LINE
8
Layer 1
10
208.374969
20
122.089484
11
204.918887
21
122.335854
0
LINE
8
Layer 1
10
204.918887
20
122.335854
11
201.432500
21
123.057875
0
LINE
8
Layer 1
10
201.432500
20
123.057875
11
197.957363
21
124.113975
0
LINE
8
Layer 1
10
197.957363
20
124.113975
11
194.535031
21
125.362578
0
LINE
8
Layer 1
10
194.535031
20
125.362578
11
188.015000
21
127.871000
0
LINE
8
Layer 1
10
188.015000
20
127.871000
11
184.972451
21
129.296779
0
LINE
8
Layer 1
10
184.972451
20
129.296779
11
181.651922
21
130.693109
0
LINE
8
Layer 1
10
181.651922
20
130.693109
11
178.310838
21
132.186729
0
LINE
8
Layer 1
10
178.310838
20
132.186729
11
175.206625
21
133.904375
0
LINE
8
Layer 1
10
175.206625
20
133.904375
11
173.823791
21
134.886814
0
LINE
8
Layer 1
10
173.823791
20
134.886814
11
172.596709
21
135.972787
0
LINE
8
Layer 1
10
172.596709
20
135.972787
11
171.557558
21
137.178136
0
LINE
8
Layer 1
10
171.557558
20
137.178136
11
170.738516
21
138.518703
0
LINE
8
Layer 1
10
170.738516
20
138.518703
11
170.171760
21
140.010331
0
LINE
8
Layer 1
10
170.171760
20
140.010331
11
169.889471
21
141.668861
0
LINE
8
Layer 1
10
169.889471
20
141.668861
11
169.923824
21
143.510137
0
LINE
8
Layer 1
10
169.923824
20
143.510137
11
170.307000
21
145.550000
0
LINE
8
Layer 1
10
170.307000
20
145.550000
11
170.583375
21
146.637250
0
LINE
8
Layer 1
10
170.583375
20
146.637250
11
170.861203
21
147.131188
0
LINE
8
Layer 1
10
170.861203
20
147.131188
11
171.273000
21
147.321000
0
LINE
8
Layer 1
10
171.273000
20
147.321000
11
171.273000
21
147.321000
0
LINE
8
Layer 1
10
230.073000
20
146.390000
11
231.929937
21
143.919598
0
LINE
8
Layer 1
10
231.929937
20
143.919598
11
233.653750
21
141.334469
0
LINE
8
Layer 1
10
233.653750
20
141.334469
11
236.966000
21
136.035000
0
LINE
8
Layer 1
10
236.966000
20
136.035000
11
238.686438
21
133.428145
0
LINE
8
Layer 1
10
238.686438
20
133.428145
11
240.537750
21
130.921531
0
LINE
8
Layer 1
10
240.537750
20
130.921531
11
242.585938
21
128.568902
0
LINE
8
Layer 1
10
242.585938
20
128.568902
11
244.897000
21
126.424000
0
LINE
8
Layer 1
10
244.897000
20
126.424000
11
245.362030
21
125.400492
0
LINE
8
Layer 1
10
245.362030
20
125.400492
11
246.151945
21
124.457705
0
LINE
8
Layer 1
10
246.151945
20
124.457705
11
247.210606
21
123.585491
0
LINE
8
Layer 1
10
247.210606
20
123.585491
11
248.481875
21
122.773703
0
LINE
8
Layer 1
10
248.481875
20
122.773703
11
251.437680
21
121.290818
0
LINE
8
Layer 1
10
251.437680
20
121.290818
11
254.570250
21
119.927875
0
LINE
8
Layer 1
10
254.570250
20
119.927875
11
257.430477
21
118.603697
0
LINE
8
Layer 1
10
257.430477
20
118.603697
11
258.618114
21
117.930778
0
LINE
8
Layer 1
10
258.618114
20
117.930778
11
259.569250
21
117.237109
0
LINE
8
Layer 1
10
259.569250
20
117.237109
11
260.227745
21
116.512544
0
LINE
8
Layer 1
10
260.227745
20
116.512544
11
260.537461
21
115.746936
0
LINE
8
Layer 1
10
260.537461
20
115.746936
11
260.442259
21
114.930136
0
LINE
8
Layer 1
10
260.442259
20
114.930136
11
259.886000
21
114.052000
0
LINE
8
Layer 1
10
259.886000
20
114.052000
11
258.210904
21
112.380115
0
LINE
8
Layer 1
10
258.210904
20
112.380115
11
256.320922
21
111.142422
0
LINE
8
Layer 1
10
256.320922
20
111.142422
11
254.280635
21
110.352736
0
LINE
8
Layer 1
10
254.280635
20
110.352736
11
252.154625
21
110.024875
0
LINE
8
Layer 1
10
252.154625
20
110.024875
11
250.007475
21
110.172654
0
LINE
8
Layer 1
10
250.007475
20
110.172654
11
247.903766
21
110.809891
0
LINE
8
Layer 1
10
247.903766
20
110.809891
11
245.908080
21
111.950400
0
LINE
8
Layer 1
10
245.908080
20
111.950400
11
244.085000
21
113.608000
0
LINE
8
Layer 1
10
244.085000
20
113.608000
11
241.124346
21
115.777324
0
LINE
8
Layer 1
10
241.124346
20
115.777324
11
238.303203
21
118.137781
0
LINE
8
Layer 1
10
238.303203
20
118.137781
11
235.623928
21
120.670223
0
LINE
8
Layer 1
10
235.623928
20
120.670223
11
233.088875
21
123.355500
0
LINE
8
Layer 1
10
233.088875
20
123.355500
11
230.700400
21
126.174465
0
LINE
8
Layer 1
10
230.700400
20
126.174465
11
228.460859
21
129.107969
0
LINE
8
Layer 1
10
228.460859
20
129.107969
11
226.372607
21
132.136863
0
LINE
8
Layer 1
10
226.372607
20
132.136863
11
224.438000
21
135.242000
0
LINE
8
Layer 1
10
224.438000
20
135.242000
11
224.275141
21
136.876057
0
LINE
8
Layer 1
10
224.275141
20
136.876057
11
224.430562
21
138.507266
0
LINE
8
Layer 1
10
224.430562
20
138.507266
11
224.869016
21
140.102686
0
LINE
8
Layer 1
10
224.869016
20
140.102686
11
225.555250
21
141.629375
0
LINE
8
Layer 1
10
225.555250
20
141.629375
11
226.454016
21
143.054393
0
LINE
8
Layer 1
10
226.454016
20
143.054393
11
227.530063
21
144.344797
0
LINE
8
Layer 1
10
227.530063
20
144.344797
11
228.748141
21
145.467646
0
LINE
8
Layer 1
10
228.748141
20
145.467646
11
230.073000
21
146.390000
0
LINE
8
Layer 1
10
230.073000
20
146.390000
11
230.073000
21
146.390000
0
LINE
8
Layer 1
10
165.028000
20
145.098000
11
165.777448
21
144.376288
0
LINE
8
Layer 1
10
165.777448
20
144.376288
11
166.346584
21
143.503021
0
LINE
8
Layer 1
10
166.346584
20
143.503021
11
166.742783
21
142.503506
0
LINE
8
Layer 1
10
166.742783
20
142.503506
11
166.973422
21
141.403047
0
LINE
8
Layer 1
10
166.973422
20
141.403047
11
167.045875
21
140.226949
0
LINE
8
Layer 1
10
167.045875
20
140.226949
11
166.967518
21
139.000518
0
LINE
8
Layer 1
10
166.967518
20
139.000518
11
166.387875
21
136.497875
0
LINE
8
Layer 1
10
166.387875
20
136.497875
11
165.293498
21
134.097561
0
LINE
8
Layer 1
10
165.293498
20
134.097561
11
163.743391
21
132.002016
0
LINE
8
Layer 1
10
163.743391
20
132.002016
11
162.815877
21
131.131795
0
LINE
8
Layer 1
10
162.815877
20
131.131795
11
161.796557
21
130.413682
0
LINE
8
Layer 1
10
161.796557
20
130.413682
11
160.692806
21
129.872982
0
LINE
8
Layer 1
10
160.692806
20
129.872982
11
159.512000
21
129.535000
0
LINE
8
Layer 1
10
159.512000
20
129.535000
11
155.949533
21
128.056330
0
LINE
8
Layer 1
10
155.949533
20
128.056330
11
152.223203
21
126.673016
0
LINE
8
Layer 1
10
152.223203
20
126.673016
11
148.384115
21
125.501225
0
LINE
8
Layer 1
10
148.384115
20
125.501225
11
144.483375
21
124.657125
0
LINE
8
Layer 1
10
144.483375
20
124.657125
11
140.572088
21
124.256885
0
LINE
8
Layer 1
10
140.572088
20
124.256885
11
138.628460
21
124.259514
0
LINE
8
Layer 1
10
138.628460
20
124.259514
11
136.701359
21
124.416672
0
LINE
8
Layer 1
10
136.701359
20
124.416672
11
134.797175
21
124.742878
0
LINE
8
Layer 1
10
134.797175
20
124.742878
11
132.922295
21
125.252654
0
LINE
8
Layer 1
10
132.922295
20
125.252654
11
131.083107
21
125.960521
0
LINE
8
Layer 1
10
131.083107
20
125.960521
11
129.286000
21
126.881000
0
LINE
8
Layer 1
10
129.286000
20
126.881000
11
128.093066
21
128.214660
0
LINE
8
Layer 1
10
128.093066
20
128.214660
11
127.237277
21
129.439359
0
LINE
8
Layer 1
10
127.237277
20
129.439359
11
126.695217
21
130.554863
0
LINE
8
Layer 1
10
126.695217
20
130.554863
11
126.443469
21
131.560937
0
LINE
8
Layer 1
10
126.443469
20
131.560937
11
126.458615
21
132.457348
0
LINE
8
Layer 1
10
126.458615
20
132.457348
11
126.717238
21
133.243859
0
LINE
8
Layer 1
10
126.717238
20
133.243859
11
127.195922
21
133.920238
0
LINE
8
Layer 1
10
127.195922
20
133.920238
11
127.871250
21
134.486250
0
LINE
8
Layer 1
10
127.871250
20
134.486250
11
128.719804
21
134.941660
0
LINE
8
Layer 1
10
128.719804
20
134.941660
11
129.718168
21
135.286234
0
LINE
8
Layer 1
10
129.718168
20
135.286234
11
132.070656
21
135.641938
0
LINE
8
Layer 1
10
132.070656
20
135.641938
11
134.741379
21
135.551484
0
LINE
8
Layer 1
10
134.741379
20
135.551484
11
137.543000
21
135.013000
0
LINE
8
Layer 1
10
137.543000
20
135.013000
11
141.310277
21
135.287937
0
LINE
8
Layer 1
10
141.310277
20
135.287937
11
144.959406
21
135.928125
0
LINE
8
Layer 1
10
144.959406
20
135.928125
11
148.502082
21
136.891750
0
LINE
8
Layer 1
10
148.502082
20
136.891750
11
151.950000
21
138.137000
0
LINE
8
Layer 1
10
151.950000
20
138.137000
11
155.314855
21
139.622063
0
LINE
8
Layer 1
10
155.314855
20
139.622063
11
158.608344
21
141.305125
0
LINE
8
Layer 1
10
158.608344
20
141.305125
11
165.028000
21
145.098000
0
LINE
8
Layer 1
10
165.028000
20
145.098000
11
165.028000
21
145.098000
0
LINE
8
Layer 1
10
118.231000
20
136.912000
11
119.272920
21
135.675389
0
LINE
8
Layer 1
10
119.272920
20
135.675389
11
120.182361
21
134.365781
0
LINE
8
Layer 1
10
120.182361
20
134.365781
11
121.594391
21
131.571687
0
LINE
8
Layer 1
10
121.594391
20
131.571687
11
122.448256
21
128.617937
0
LINE
8
Layer 1
10
122.448256
20
128.617937
11
122.725125
21
125.592750
0
LINE
8
Layer 1
10
122.725125
20
125.592750
11
122.641301
21
124.080936
0
LINE
8
Layer 1
10
122.641301
20
124.080936
11
122.406166
21
122.584344
0
LINE
8
Layer 1
10
122.406166
20
122.584344
11
122.017366
21
121.114002
0
LINE
8
Layer 1
10
122.017366
20
121.114002
11
121.472547
21
119.680937
0
LINE
8
Layer 1
10
121.472547
20
119.680937
11
120.769355
21
118.296178
0
LINE
8
Layer 1
10
120.769355
20
118.296178
11
119.905436
21
116.970750
0
LINE
8
Layer 1
10
119.905436
20
116.970750
11
118.878435
21
115.715682
0
LINE
8
Layer 1
10
118.878435
20
115.715682
11
117.686000
21
114.542000
0
LINE
8
Layer 1
10
117.686000
20
114.542000
11
114.351735
21
111.328844
0
LINE
8
Layer 1
10
114.351735
20
111.328844
11
110.718916
21
108.213470
0
LINE
8
Layer 1
10
110.718916
20
108.213470
11
106.820507
21
105.343021
0
LINE
8
Layer 1
10
106.820507
20
105.343021
11
102.689475
21
102.864638
0
LINE
8
Layer 1
10
102.689475
20
102.864638
11
100.547026
21
101.818452
0
LINE
8
Layer 1
10
100.547026
20
101.818452
11
98.358783
21
100.925462
0
LINE
8
Layer 1
10
98.358783
20
100.925462
11
96.128867
21
100.204059
0
LINE
8
Layer 1
10
96.128867
20
100.204059
11
93.861397
21
99.672636
0
LINE
8
Layer 1
10
93.861397
20
99.672636
11
91.560495
21
99.349586
0
LINE
8
Layer 1
10
91.560495
20
99.349586
11
89.230281
21
99.253301
0
LINE
8
Layer 1
10
89.230281
20
99.253301
11
86.874876
21
99.402175
0
LINE
8
Layer 1
10
86.874876
20
99.402175
11
84.498400
21
99.814600
0
LINE
8
Layer 1
10
84.498400
20
99.814600
11
82.216863
21
100.800568
0
LINE
8
Layer 1
10
82.216863
20
100.800568
11
80.659809
21
101.743211
0
LINE
8
Layer 1
10
80.659809
20
101.743211
11
79.756789
21
102.642172
0
LINE
8
Layer 1
10
79.756789
20
102.642172
11
79.437350
21
103.497097
0
LINE
8
Layer 1
10
79.437350
20
103.497097
11
79.631043
21
104.307630
0
LINE
8
Layer 1
10
79.631043
20
104.307630
11
80.267416
21
105.073416
0
LINE
8
Layer 1
10
80.267416
20
105.073416
11
81.276018
21
105.794099
0
LINE
8
Layer 1
10
81.276018
20
105.794099
11
82.586400
21
106.469325
0
LINE
8
Layer 1
10
82.586400
20
106.469325
11
85.830697
21
107.681981
0
LINE
8
Layer 1
10
85.830697
20
107.681981
11
89.436700
21
108.708541
0
LINE
8
Layer 1
10
89.436700
20
108.708541
11
95.479400
21
110.192000
0
LINE
8
Layer 1
10
95.479400
20
110.192000
11
97.444812
21
111.260407
0
LINE
8
Layer 1
10
97.444812
20
111.260407
11
99.313426
21
112.458006
0
LINE
8
Layer 1
10
99.313426
20
112.458006
11
102.781122
21
115.198797
0
LINE
8
Layer 1
10
102.781122
20
115.198797
11
105.924213
21
118.330408
0
LINE
8
Layer 1
10
105.924213
20
118.330408
11
108.784425
21
121.768875
0
LINE
8
Layer 1
10
108.784425
20
121.768875
11
111.403484
21
125.430232
0
LINE
8
Layer 1
10
111.403484
20
125.430232
11
113.823116
21
129.230516
0
LINE
8
Layer 1
10
113.823116
20
129.230516
11
118.231000
21
136.912000
0
LINE
8
Layer 1
10
118.231000
20
136.912000
11
118.231000
21
136.912000
0
LINE
8
Layer 1
10
172.149000
20
131.404000
11
176.367629
21
129.323908
0
LINE
8
Layer 1
10
176.367629
20
129.323908
11
180.554031
21
127.083141
0
LINE
8
Layer 1
10
180.554031
20
127.083141
11
184.747980
21
124.820834
0
LINE
8
Layer 1
10
184.747980
20
124.820834
11
188.989250
21
122.676125
0
LINE
8
Layer 1
10
188.989250
20
122.676125
11
193.317613
21
120.788150
0
LINE
8
Layer 1
10
193.317613
20
120.788150
11
197.772844
21
119.296047
0
LINE
8
Layer 1
10
197.772844
20
119.296047
11
200.060463
21
118.741927
0
LINE
8
Layer 1
10
200.060463
20
118.741927
11
202.394715
21
118.338951
0
LINE
8
Layer 1
10
202.394715
20
118.338951
11
204.780570
21
118.104511
0
LINE
8
Layer 1
10
204.780570
20
118.104511
11
207.223000
21
118.056000
0
LINE
8
Layer 1
10
207.223000
20
118.056000
11
209.048978
21
118.386136
0
LINE
8
Layer 1
10
209.048978
20
118.386136
11
210.523170
21
118.388494
0
LINE
8
Layer 1
10
210.523170
20
118.388494
11
211.665460
21
118.108750
0
LINE
8
Layer 1
10
211.665460
20
118.108750
11
212.495734
21
117.592578
0
LINE
8
Layer 1
10
212.495734
20
117.592578
11
213.033878
21
116.885655
0
LINE
8
Layer 1
10
213.033878
20
116.885655
11
213.299775
21
116.033654
0
LINE
8
Layer 1
10
213.299775
20
116.033654
11
213.313313
21
115.082253
0
LINE
8
Layer 1
10
213.313313
20
115.082253
11
213.094375
21
114.077125
0
LINE
8
Layer 1
10
213.094375
20
114.077125
11
212.662847
21
113.063947
0
LINE
8
Layer 1
10
212.662847
20
113.063947
11
212.038615
21
112.088393
0
LINE
8
Layer 1
10
212.038615
20
112.088393
11
211.241564
21
111.196138
0
LINE
8
Layer 1
10
211.241564
20
111.196138
11
210.291578
21
110.432859
0
LINE
8
Layer 1
10
210.291578
20
110.432859
11
209.208544
21
109.844231
0
LINE
8
Layer 1
10
209.208544
20
109.844231
11
208.012346
21
109.475928
0
LINE
8
Layer 1
10
208.012346
20
109.475928
11
206.722869
21
109.373626
0
LINE
8
Layer 1
10
206.722869
20
109.373626
11
205.360000
21
109.583000
0
LINE
8
Layer 1
10
205.360000
20
109.583000
11
196.833984
21
111.191469
0
LINE
8
Layer 1
10
196.833984
20
111.191469
11
192.450150
21
112.174191
0
LINE
8
Layer 1
10
192.450150
20
112.174191
11
188.136875
21
113.404250
0
LINE
8
Layer 1
10
188.136875
20
113.404250
11
184.007490
21
114.977902
0
LINE
8
Layer 1
10
184.007490
20
114.977902
11
182.047173
21
115.923657
0
LINE
8
Layer 1
10
182.047173
20
115.923657
11
180.175328
21
116.991406
0
LINE
8
Layer 1
10
180.175328
20
116.991406
11
178.406122
21
118.193183
0
LINE
8
Layer 1
10
178.406122
20
118.193183
11
176.753721
21
119.541020
0
LINE
8
Layer 1
10
176.753721
20
119.541020
11
175.232291
21
121.046948
0
LINE
8
Layer 1
10
175.232291
20
121.046948
11
173.856000
21
122.723000
0
LINE
8
Layer 1
10
173.856000
20
122.723000
11
172.186500
21
127.001625
0
LINE
8
Layer 1
10
172.186500
20
127.001625
11
171.887719
21
128.126506
0
LINE
8
Layer 1
10
171.887719
20
128.126506
11
171.745500
21
129.244766
0
LINE
8
Layer 1
10
171.745500
20
129.244766
11
171.814406
21
130.342049
0
LINE
8
Layer 1
10
171.814406
20
130.342049
11
172.149000
21
131.404000
0
LINE
8
Layer 1
10
172.149000
20
131.404000
11
172.149000
21
131.404000
0
LINE
8
Layer 1
10
222.807000
20
131.006000
11
224.902752
21
128.268842
0
LINE
8
Layer 1
10
224.902752
20
128.268842
11
226.884891
21
125.401172
0
LINE
8
Layer 1
10
226.884891
20
125.401172
11
230.867625
21
119.639125
0
LINE
8
Layer 1
10
230.867625
20
119.639125
11
233.047869
21
116.927162
0
LINE
8
Layer 1
10
233.047869
20
116.927162
11
235.473797
21
114.449516
0
LINE
8
Layer 1
10
235.473797
20
114.449516
11
238.235232
21
112.297393
0
LINE
8
Layer 1
10
238.235232
20
112.297393
11
239.769836
21
111.371905
0
LINE
8
Layer 1
10
239.769836
20
111.371905
11
241.422000
21
110.562000
0
LINE
8
Layer 1
10
241.422000
20
110.562000
11
244.323699
21
109.562027
0
LINE
8
Layer 1
10
244.323699
20
109.562027
11
246.560406
21
108.302531
0
LINE
8
Layer 1
10
246.560406
20
108.302531
11
247.409517
21
107.606949
0
LINE
8
Layer 1
10
247.409517
20
107.606949
11
248.068535
21
106.884270
0
LINE
8
Layer 1
10
248.068535
20
106.884270
11
248.529512
21
106.147088
0
LINE
8
Layer 1
10
248.529512
20
106.147088
11
248.784500
21
105.408000
0
LINE
8
Layer 1
10
248.784500
20
105.408000
11
248.825550
21
104.679599
0
LINE
8
Layer 1
10
248.825550
20
104.679599
11
248.644715
21
103.974480
0
LINE
8
Layer 1
10
248.644715
20
103.974480
11
248.234045
21
103.305239
0
LINE
8
Layer 1
10
248.234045
20
103.305239
11
247.585594
21
102.684469
0
LINE
8
Layer 1
10
247.585594
20
102.684469
11
246.691412
21
102.124765
0
LINE
8
Layer 1
10
246.691412
20
102.124765
11
245.543551
21
101.638723
0
LINE
8
Layer 1
10
245.543551
20
101.638723
11
244.134063
21
101.238936
0
LINE
8
Layer 1
10
244.134063
20
101.238936
11
242.455000
21
100.938000
0
LINE
8
Layer 1
10
242.455000
20
100.938000
11
240.508440
21
101.498623
0
LINE
8
Layer 1
10
240.508440
20
101.498623
11
238.637408
21
102.234736
0
LINE
8
Layer 1
10
238.637408
20
102.234736
11
236.839692
21
103.131704
0
LINE
8
Layer 1
10
236.839692
20
103.131704
11
235.113078
21
104.174891
0
LINE
8
Layer 1
10
235.113078
20
104.174891
11
231.864303
21
106.641381
0
LINE
8
Layer 1
10
231.864303
20
106.641381
11
228.873375
21
109.517125
0
LINE
8
Layer 1
10
228.873375
20
109.517125
11
226.122588
21
112.685041
0
LINE
8
Layer 1
10
226.122588
20
112.685041
11
223.594234
21
116.028047
0
LINE
8
Layer 1
10
223.594234
20
116.028047
11
219.134000
21
122.771000
0
LINE
8
Layer 1
10
219.134000
20
122.771000
11
218.815264
21
123.922314
0
LINE
8
Layer 1
10
218.815264
20
123.922314
11
218.779359
21
125.134203
0
LINE
8
Layer 1
10
218.779359
20
125.134203
11
218.995994
21
126.358959
0
LINE
8
Layer 1
10
218.995994
20
126.358959
11
219.434875
21
127.548875
0
LINE
8
Layer 1
10
219.434875
20
127.548875
11
220.065709
21
128.656244
0
LINE
8
Layer 1
10
220.065709
20
128.656244
11
220.858203
21
129.633359
0
LINE
8
Layer 1
10
220.858203
20
129.633359
11
221.782064
21
130.432514
0
LINE
8
Layer 1
10
221.782064
20
130.432514
11
222.807000
21
131.006000
0
LINE
8
Layer 1
10
222.807000
20
131.006000
11
222.807000
21
131.006000
0
LINE
8
Layer 1
10
168.170000
20
129.306000
11
168.815081
21
127.860187
0
LINE
8
Layer 1
10
168.815081
20
127.860187
11
169.225428
21
126.438416
0
LINE
8
Layer 1
10
169.225428
20
126.438416
11
169.414323
21
125.049191
0
LINE
8
Layer 1
10
169.414323
20
125.049191
11
169.395047
21
123.701016
0
LINE
8
Layer 1
10
169.395047
20
123.701016
11
169.180883
21
122.402393
0
LINE
8
Layer 1
10
169.180883
20
122.402393
11
168.785111
21
121.161826
0
LINE
8
Layer 1
10
168.785111
20
121.161826
11
168.221015
21
119.987819
0
LINE
8
Layer 1
10
168.221015
20
119.987819
11
167.501875
21
118.888875
0
LINE
8
Layer 1
10
167.501875
20
118.888875
11
166.640973
21
117.873497
0
LINE
8
Layer 1
10
166.640973
20
117.873497
11
165.651592
21
116.950189
0
LINE
8
Layer 1
10
165.651592
20
116.950189
11
163.340516
21
115.413797
0
LINE
8
Layer 1
10
163.340516
20
115.413797
11
160.674900
21
114.347725
0
LINE
8
Layer 1
10
160.674900
20
114.347725
11
159.242345
21
114.012317
0
LINE
8
Layer 1
10
159.242345
20
114.012317
11
157.761000
21
113.820000
0
LINE
8
Layer 1
10
157.761000
20
113.820000
11
154.434248
21
112.807535
0
LINE
8
Layer 1
10
154.434248
20
112.807535
11
150.886047
21
112.183031
0
LINE
8
Layer 1
10
150.886047
20
112.183031
11
147.275104
21
112.026574
0
LINE
8
Layer 1
10
147.275104
20
112.026574
11
145.495699
21
112.148890
0
LINE
8
Layer 1
10
145.495699
20
112.148890
11
143.760125
21
112.418250
0
LINE
8
Layer 1
10
143.760125
20
112.418250
11
142.088219
21
112.844665
0
LINE
8
Layer 1
10
142.088219
20
112.844665
11
140.499818
21
113.438145
0
LINE
8
Layer 1
10
140.499818
20
113.438145
11
139.014763
21
114.208701
0
LINE
8
Layer 1
10
139.014763
20
114.208701
11
137.652891
21
115.166344
0
LINE
8
Layer 1
10
137.652891
20
115.166344
11
136.434040
21
116.321084
0
LINE
8
Layer 1
10
136.434040
20
116.321084
11
135.378049
21
117.682934
0
LINE
8
Layer 1
10
135.378049
20
117.682934
11
134.504756
21
119.261902
0
LINE
8
Layer 1
10
134.504756
20
119.261902
11
133.834000
21
121.068000
0
LINE
8
Layer 1
10
133.834000
20
121.068000
11
138.103268
21
121.189771
0
LINE
8
Layer 1
10
138.103268
20
121.189771
11
142.476328
21
121.193359
0
LINE
8
Layer 1
10
142.476328
20
121.193359
11
146.879693
21
121.252799
0
LINE
8
Layer 1
10
146.879693
20
121.252799
11
151.239875
21
121.542125
0
LINE
8
Layer 1
10
151.239875
20
121.542125
11
155.483385
21
122.235373
0
LINE
8
Layer 1
10
155.483385
20
122.235373
11
157.538423
21
122.787854
0
LINE
8
Layer 1
10
157.538423
20
122.787854
11
159.536734
21
123.506578
0
LINE
8
Layer 1
10
159.536734
20
123.506578
11
161.469134
21
124.413301
0
LINE
8
Layer 1
10
161.469134
20
124.413301
11
163.326436
21
125.529775
0
LINE
8
Layer 1
10
163.326436
20
125.529775
11
165.099453
21
126.877757
0
LINE
8
Layer 1
10
165.099453
20
126.877757
11
166.779000
21
128.479000
0
LINE
8
Layer 1
10
166.779000
20
128.479000
11
167.404750
21
129.021125
0
LINE
8
Layer 1
10
167.404750
20
129.021125
11
167.754094
21
129.247797
0
LINE
8
Layer 1
10
167.754094
20
129.247797
11
168.170000
21
129.306000
0
LINE
8
Layer 1
10
168.170000
20
129.306000
11
168.170000
21
129.306000
0
LINE
8
Layer 1
10
283.478000
20
125.055000
11
284.228503
21
123.402225
0
LINE
8
Layer 1
10
284.228503
20
123.402225
11
284.728992
21
121.697038
0
LINE
8
Layer 1
10
284.728992
20
121.697038
11
285.011876
21
119.945078
0
LINE
8
Layer 1
10
285.011876
20
119.945078
11
285.109563
21
118.151989
0
LINE
8
Layer 1
10
285.109563
20
118.151989
11
284.878977
21
114.464987
0
LINE
8
Layer 1
10
284.878977
20
114.464987
11
284.296500
21
110.681162
0
LINE
8
Layer 1
10
284.296500
20
110.681162
11
283.621398
21
106.845649
0
LINE
8
Layer 1
10
283.621398
20
106.845649
11
283.112937
21
103.003580
0
LINE
8
Layer 1
10
283.112937
20
103.003580
11
283.030383
21
99.200086
0
LINE
8
Layer 1
10
283.030383
20
99.200086
11
283.229841
21
97.326909
0
LINE
8
Layer 1
10
283.229841
20
97.326909
11
283.633000
21
95.480300
0
LINE
8
Layer 1
10
283.633000
20
95.480300
11
284.334721
21
91.738503
0
LINE
8
Layer 1
10
284.334721
20
91.738503
11
285.372828
21
88.085203
0
LINE
8
Layer 1
10
285.372828
20
88.085203
11
286.686865
21
84.510414
0
LINE
8
Layer 1
10
286.686865
20
84.510414
11
288.216375
21
81.004150
0
LINE
8
Layer 1
10
288.216375
20
81.004150
11
291.679984
21
74.157247
0
LINE
8
Layer 1
10
291.679984
20
74.157247
11
295.280000
21
67.464600
0
LINE
8
Layer 1
10
295.280000
20
67.464600
11
296.110383
21
66.328184
0
LINE
8
Layer 1
10
296.110383
20
66.328184
11
297.153205
21
65.231058
0
LINE
8
Layer 1
10
297.153205
20
65.231058
11
299.632703
21
63.165394
0
LINE
8
Layer 1
10
299.632703
20
63.165394
11
304.462875
21
59.623425
0
LINE
8
Layer 1
10
304.462875
20
59.623425
11
305.288530
21
58.876343
0
LINE
8
Layer 1
10
305.288530
20
58.876343
11
305.839697
21
58.189983
0
LINE
8
Layer 1
10
305.839697
20
58.189983
11
306.055512
21
57.567023
0
LINE
8
Layer 1
10
306.055512
20
57.567023
11
305.875109
21
57.010144
0
LINE
8
Layer 1
10
305.875109
20
57.010144
11
305.237622
21
56.522023
0
LINE
8
Layer 1
10
305.237622
20
56.522023
11
304.082186
21
56.105339
0
LINE
8
Layer 1
10
304.082186
20
56.105339
11
302.347933
21
55.762772
0
LINE
8
Layer 1
10
302.347933
20
55.762772
11
299.974000
21
55.497000
0
LINE
8
Layer 1
10
299.974000
20
55.497000
11
298.204846
21
55.746270
0
LINE
8
Layer 1
10
298.204846
20
55.746270
11
296.542068
21
56.218071
0
LINE
8
Layer 1
10
296.542068
20
56.218071
11
294.981815
21
56.893036
0
LINE
8
Layer 1
10
294.981815
20
56.893036
11
293.520234
21
57.751798
0
LINE
8
Layer 1
10
293.520234
20
57.751798
11
292.153476
21
58.774994
0
LINE
8
Layer 1
10
292.153476
20
58.774994
11
290.877689
21
59.943255
0
LINE
8
Layer 1
10
290.877689
20
59.943255
11
288.583625
21
62.637512
0
LINE
8
Layer 1
10
288.583625
20
62.637512
11
286.607232
21
65.679644
0
LINE
8
Layer 1
10
286.607232
20
65.679644
11
284.917703
21
68.914720
0
LINE
8
Layer 1
10
284.917703
20
68.914720
11
283.484229
21
72.187815
0
LINE
8
Layer 1
10
283.484229
20
72.187815
11
282.276000
21
75.344000
0
LINE
8
Layer 1
10
282.276000
20
75.344000
11
280.550787
21
79.498876
0
LINE
8
Layer 1
10
280.550787
20
79.498876
11
279.273922
21
83.775334
0
LINE
8
Layer 1
10
279.273922
20
83.775334
11
278.271439
21
88.122119
0
LINE
8
Layer 1
10
278.271439
20
88.122119
11
277.369375
21
92.487975
0
LINE
8
Layer 1
10
277.369375
20
92.487975
11
276.393764
21
96.821646
0
LINE
8
Layer 1
10
276.393764
20
96.821646
11
275.170641
21
101.071878
0
LINE
8
Layer 1
10
275.170641
20
101.071878
11
273.526041
21
105.187414
0
LINE
8
Layer 1
10
273.526041
20
105.187414
11
272.491323
21
107.178655
0
LINE
8
Layer 1
10
272.491323
20
107.178655
11
271.286000
21
109.117000
0
LINE
8
Layer 1
10
271.286000
20
109.117000
11
269.852788
21
110.601738
0
LINE
8
Layer 1
10
269.852788
20
110.601738
11
268.958586
21
111.985344
0
LINE
8
Layer 1
10
268.958586
20
111.985344
11
268.550606
21
113.275527
0
LINE
8
Layer 1
10
268.550606
20
113.275527
11
268.576062
21
114.480000
0
LINE
8
Layer 1
10
268.576062
20
114.480000
11
268.982167
21
115.606473
0
LINE
8
Layer 1
10
268.982167
20
115.606473
11
269.716133
21
116.662656
0
LINE
8
Layer 1
10
269.716133
20
116.662656
11
270.725173
21
117.656262
0
LINE
8
Layer 1
10
270.725173
20
117.656262
11
271.956500
21
118.595000
0
LINE
8
Layer 1
10
271.956500
20
118.595000
11
274.874867
21
120.338719
0
LINE
8
Layer 1
10
274.874867
20
120.338719
11
278.048938
21
121.955500
0
LINE
8
Layer 1
10
278.048938
20
121.955500
11
281.056414
21
123.507031
0
LINE
8
Layer 1
10
281.056414
20
123.507031
11
283.475000
21
125.055000
0
LINE
8
Layer 1
10
283.475000
20
125.055000
11
283.478000
21
125.055000
0
LINE
8
Layer 1
10
283.478000
20
125.055000
11
283.478000
21
125.055000
0
LINE
8
Layer 1
10
127.363000
20
120.882000
11
128.524976
21
119.781938
0
LINE
8
Layer 1
10
128.524976
20
119.781938
11
129.461527
21
118.614002
0
LINE
8
Layer 1
10
129.461527
20
118.614002
11
130.184276
21
117.388319
0
LINE
8
Layer 1
10
130.184276
20
117.388319
11
130.704844
21
116.115016
0
LINE
8
Layer 1
10
130.704844
20
116.115016
11
131.034853
21
114.804218
0
LINE
8
Layer 1
10
131.034853
20
114.804218
11
131.185926
21
113.466053
0
LINE
8
Layer 1
10
131.185926
20
113.466053
11
131.169684
21
112.110646
0
LINE
8
Layer 1
10
131.169684
20
112.110646
11
130.997750
21
110.748125
0
LINE
8
Layer 1
10
130.997750
20
110.748125
11
130.233293
21
108.042244
0
LINE
8
Layer 1
10
130.233293
20
108.042244
11
128.985531
21
105.429422
0
LINE
8
Layer 1
10
128.985531
20
105.429422
11
127.347441
21
102.990670
0
LINE
8
Layer 1
10
127.347441
20
102.990670
11
125.412000
21
100.807000
0
LINE
8
Layer 1
10
125.412000
20
100.807000
11
123.954295
21
99.187627
0
LINE
8
Layer 1
10
123.954295
20
99.187627
11
122.333450
21
97.691549
0
LINE
8
Layer 1
10
122.333450
20
97.691549
11
120.569375
21
96.329701
0
LINE
8
Layer 1
10
120.569375
20
96.329701
11
118.681977
21
95.113017
0
LINE
8
Layer 1
10
118.681977
20
95.113017
11
116.691163
21
94.052434
0
LINE
8
Layer 1
10
116.691163
20
94.052434
11
114.616843
21
93.158886
0
LINE
8
Layer 1
10
114.616843
20
93.158886
11
112.478923
21
92.443309
0
LINE
8
Layer 1
10
112.478923
20
92.443309
11
110.297313
21
91.916638
0
LINE
8
Layer 1
10
110.297313
20
91.916638
11
108.091919
21
91.589807
0
LINE
8
Layer 1
10
108.091919
20
91.589807
11
105.882649
21
91.473753
0
LINE
8
Layer 1
10
105.882649
20
91.473753
11
103.689413
21
91.579410
0
LINE
8
Layer 1
10
103.689413
20
91.579410
11
101.532117
21
91.917714
0
LINE
8
Layer 1
10
101.532117
20
91.917714
11
99.430670
21
92.499600
0
LINE
8
Layer 1
10
99.430670
20
92.499600
11
97.404979
21
93.336003
0
LINE
8
Layer 1
10
97.404979
20
93.336003
11
95.474953
21
94.437858
0
LINE
8
Layer 1
10
95.474953
20
94.437858
11
93.660500
21
95.816100
0
LINE
8
Layer 1
10
93.660500
20
95.816100
11
100.760086
21
98.123706
0
LINE
8
Layer 1
10
100.760086
20
98.123706
11
104.302481
21
99.393445
0
LINE
8
Layer 1
10
104.302481
20
99.393445
11
107.766063
21
100.834325
0
LINE
8
Layer 1
10
107.766063
20
100.834325
11
111.095417
21
102.516733
0
LINE
8
Layer 1
10
111.095417
20
102.516733
11
114.235133
21
104.511056
0
LINE
8
Layer 1
10
114.235133
20
104.511056
11
117.129798
21
106.887683
0
LINE
8
Layer 1
10
117.129798
20
106.887683
11
119.724000
21
109.717000
0
LINE
8
Layer 1
10
119.724000
20
109.717000
11
120.958232
21
110.915053
0
LINE
8
Layer 1
10
120.958232
20
110.915053
11
122.041047
21
112.229484
0
LINE
8
Layer 1
10
122.041047
20
112.229484
11
123.895625
21
115.087625
0
LINE
8
Layer 1
10
123.895625
20
115.087625
11
125.574141
21
118.051703
0
LINE
8
Layer 1
10
125.574141
20
118.051703
11
127.363000
21
120.882000
0
LINE
8
Layer 1
10
127.363000
20
120.882000
11
127.363000
21
120.882000
0
LINE
8
Layer 1
10
37.225100
20
120.368000
11
39.613549
21
118.763789
0
LINE
8
Layer 1
10
39.613549
20
118.763789
11
42.214489
21
117.191313
0
LINE
8
Layer 1
10
42.214489
20
117.191313
11
44.805306
21
115.558555
0
LINE
8
Layer 1
10
44.805306
20
115.558555
11
47.163387
21
113.773500
0
LINE
8
Layer 1
10
47.163387
20
113.773500
11
48.185586
21
112.795106
0
LINE
8
Layer 1
10
48.185586
20
112.795106
11
49.066121
21
111.744133
0
LINE
8
Layer 1
10
49.066121
20
111.744133
11
49.777165
21
110.609077
0
LINE
8
Layer 1
10
49.777165
20
110.609077
11
50.290892
21
109.378437
0
LINE
8
Layer 1
10
50.290892
20
109.378437
11
50.579476
21
108.040712
0
LINE
8
Layer 1
10
50.579476
20
108.040712
11
50.615090
21
106.584398
0
LINE
8
Layer 1
10
50.615090
20
106.584398
11
50.369907
21
104.997995
0
LINE
8
Layer 1
10
50.369907
20
104.997995
11
49.816100
21
103.270000
0
LINE
8
Layer 1
10
49.816100
20
103.270000
11
48.565448
21
94.228281
0
LINE
8
Layer 1
10
48.565448
20
94.228281
11
47.790849
21
89.713975
0
LINE
8
Layer 1
10
47.790849
20
89.713975
11
46.778912
21
85.276525
0
LINE
8
Layer 1
10
46.778912
20
85.276525
11
45.426275
21
80.970297
0
LINE
8
Layer 1
10
45.426275
20
80.970297
11
43.629570
21
76.849656
0
LINE
8
Layer 1
10
43.629570
20
76.849656
11
42.532391
21
74.875921
0
LINE
8
Layer 1
10
42.532391
20
74.875921
11
41.285434
21
72.968969
0
LINE
8
Layer 1
10
41.285434
20
72.968969
11
39.875777
21
71.135597
0
LINE
8
Layer 1
10
39.875777
20
71.135597
11
38.290500
21
69.382600
0
LINE
8
Layer 1
10
38.290500
20
69.382600
11
36.287487
21
66.571753
0
LINE
8
Layer 1
10
36.287487
20
66.571753
11
33.983158
21
63.875711
0
LINE
8
Layer 1
10
33.983158
20
63.875711
11
31.405315
21
61.403560
0
LINE
8
Layer 1
10
31.405315
20
61.403560
11
28.581762
21
59.264387
0
LINE
8
Layer 1
10
28.581762
20
59.264387
11
25.540302
21
57.567279
0
LINE
8
Layer 1
10
25.540302
20
57.567279
11
23.946544
21
56.918588
0
LINE
8
Layer 1
10
23.946544
20
56.918588
11
22.308736
21
56.421320
0
LINE
8
Layer 1
10
22.308736
20
56.421320
11
20.630352
21
56.089112
0
LINE
8
Layer 1
10
20.630352
20
56.089112
11
18.914868
21
55.935599
0
LINE
8
Layer 1
10
18.914868
20
55.935599
11
17.165759
21
55.974416
0
LINE
8
Layer 1
10
17.165759
20
55.974416
11
15.386500
21
56.219200
0
LINE
8
Layer 1
10
15.386500
20
56.219200
11
21.792777
21
65.169414
0
LINE
8
Layer 1
10
21.792777
20
65.169414
11
24.984921
21
69.721153
0
LINE
8
Layer 1
10
24.984921
20
69.721153
11
27.986963
21
74.382437
0
LINE
8
Layer 1
10
27.986963
20
74.382437
11
30.661821
21
79.197111
0
LINE
8
Layer 1
10
30.661821
20
79.197111
11
32.872417
21
84.209017
0
LINE
8
Layer 1
10
32.872417
20
84.209017
11
33.760779
21
86.802633
0
LINE
8
Layer 1
10
33.760779
20
86.802633
11
34.481670
21
89.461999
0
LINE
8
Layer 1
10
34.481670
20
89.461999
11
35.017955
21
92.192594
0
LINE
8
Layer 1
10
35.017955
20
92.192594
11
35.352500
21
94.999900
0
LINE
8
Layer 1
10
35.352500
20
94.999900
11
36.250583
21
101.313270
0
LINE
8
Layer 1
10
36.250583
20
101.313270
11
36.956187
21
107.660738
0
LINE
8
Layer 1
10
36.956187
20
107.660738
11
37.328098
21
114.019811
0
LINE
8
Layer 1
10
37.328098
20
114.019811
11
37.225100
21
120.368000
0
LINE
8
Layer 1
10
37.225100
20
120.368000
11
37.225100
21
120.368000
0
LINE
8
Layer 1
10
217.903000
20
116.377000
11
222.497844
21
110.636244
0
LINE
8
Layer 1
10
222.497844
20
110.636244
11
224.845551
21
107.753952
0
LINE
8
Layer 1
10
224.845551
20
107.753952
11
227.306250
21
104.991300
0
LINE
8
Layer 1
10
227.306250
20
104.991300
11
229.939543
21
102.443973
0
LINE
8
Layer 1
10
229.939543
20
102.443973
11
232.805031
21
100.207656
0
LINE
8
Layer 1
10
232.805031
20
100.207656
11
235.962316
21
98.378037
0
LINE
8
Layer 1
10
235.962316
20
98.378037
11
237.669008
21
97.645640
0
LINE
8
Layer 1
10
237.669008
20
97.645640
11
239.471000
21
97.050800
0
LINE
8
Layer 1
10
239.471000
20
97.050800
11
238.455972
21
95.716632
0
LINE
8
Layer 1
10
238.455972
20
95.716632
11
237.362117
21
94.690117
0
LINE
8
Layer 1
10
237.362117
20
94.690117
11
236.202532
21
93.950878
0
LINE
8
Layer 1
10
236.202532
20
93.950878
11
234.990313
21
93.478537
0
LINE
8
Layer 1
10
234.990313
20
93.478537
11
233.738554
21
93.252717
0
LINE
8
Layer 1
10
233.738554
20
93.252717
11
232.460352
21
93.253039
0
LINE
8
Layer 1
10
232.460352
20
93.253039
11
231.168802
21
93.459126
0
LINE
8
Layer 1
10
231.168802
20
93.459126
11
229.877000
21
93.850600
0
LINE
8
Layer 1
10
229.877000
20
93.850600
11
227.345023
21
95.108198
0
LINE
8
Layer 1
10
227.345023
20
95.108198
11
224.969188
21
96.862813
0
LINE
8
Layer 1
10
224.969188
20
96.862813
11
222.854258
21
98.951420
0
LINE
8
Layer 1
10
222.854258
20
98.951420
11
221.105000
21
101.211000
0
LINE
8
Layer 1
10
221.105000
20
101.211000
11
219.519070
21
102.749217
0
LINE
8
Layer 1
10
219.519070
20
102.749217
11
217.993562
21
104.513734
0
LINE
8
Layer 1
10
217.993562
20
104.513734
11
216.667648
21
106.442479
0
LINE
8
Layer 1
10
216.667648
20
106.442479
11
215.680500
21
108.473375
0
LINE
8
Layer 1
10
215.680500
20
108.473375
11
215.171289
21
110.544350
0
LINE
8
Layer 1
10
215.171289
20
110.544350
11
215.139401
21
111.575468
0
LINE
8
Layer 1
10
215.139401
20
111.575468
11
215.279187
21
112.593328
0
LINE
8
Layer 1
10
215.279187
20
112.593328
11
215.608044
21
113.590171
0
LINE
8
Layer 1
10
215.608044
20
113.590171
11
216.143367
21
114.558236
0
LINE
8
Layer 1
10
216.143367
20
114.558236
11
216.902554
21
115.489766
0
LINE
8
Layer 1
10
216.902554
20
115.489766
11
217.903000
21
116.377000
0
LINE
8
Layer 1
10
217.903000
20
116.377000
11
217.903000
21
116.377000
0
LINE
8
Layer 1
10
171.938000
20
115.432000
11
172.632533
21
113.921247
0
LINE
8
Layer 1
10
172.632533
20
113.921247
11
173.051971
21
112.433730
0
LINE
8
Layer 1
10
173.051971
20
112.433730
11
173.215005
21
110.978064
0
LINE
8
Layer 1
10
173.215005
20
110.978064
11
173.140328
21
109.562861
0
LINE
8
Layer 1
10
173.140328
20
109.562861
11
172.846634
21
108.196736
0
LINE
8
Layer 1
10
172.846634
20
108.196736
11
172.352615
21
106.888302
0
LINE
8
Layer 1
10
172.352615
20
106.888302
11
171.676965
21
105.646173
0
LINE
8
Layer 1
10
171.676965
20
105.646173
11
170.838375
21
104.478962
0
LINE
8
Layer 1
10
170.838375
20
104.478962
11
169.855539
21
103.395285
0
LINE
8
Layer 1
10
169.855539
20
103.395285
11
168.747150
21
102.403753
0
LINE
8
Layer 1
10
168.747150
20
102.403753
11
166.228484
21
100.731583
0
LINE
8
Layer 1
10
166.228484
20
100.731583
11
163.431920
21
99.531362
0
LINE
8
Layer 1
10
163.431920
20
99.531362
11
160.507000
21
98.872000
0
LINE
8
Layer 1
10
160.507000
20
98.872000
11
158.602762
21
98.056044
0
LINE
8
Layer 1
10
158.602762
20
98.056044
11
156.716879
21
97.729321
0
LINE
8
Layer 1
10
156.716879
20
97.729321
11
154.891470
21
97.826969
0
LINE
8
Layer 1
10
154.891470
20
97.826969
11
153.168656
21
98.284127
0
LINE
8
Layer 1
10
153.168656
20
98.284127
11
151.590557
21
99.035932
0
LINE
8
Layer 1
10
151.590557
20
99.035932
11
150.199293
21
100.017522
0
LINE
8
Layer 1
10
150.199293
20
100.017522
11
149.036984
21
101.164037
0
LINE
8
Layer 1
10
149.036984
20
101.164037
11
148.145750
21
102.410612
0
LINE
8
Layer 1
10
148.145750
20
102.410612
11
147.567711
21
103.692388
0
LINE
8
Layer 1
10
147.567711
20
103.692388
11
147.344988
21
104.944501
0
LINE
8
Layer 1
10
147.344988
20
104.944501
11
147.519701
21
106.102090
0
LINE
8
Layer 1
10
147.519701
20
106.102090
11
148.133969
21
107.100292
0
LINE
8
Layer 1
10
148.133969
20
107.100292
11
149.229913
21
107.874246
0
LINE
8
Layer 1
10
149.229913
20
107.874246
11
150.849652
21
108.359090
0
LINE
8
Layer 1
10
150.849652
20
108.359090
11
153.035308
21
108.489962
0
LINE
8
Layer 1
10
153.035308
20
108.489962
11
155.829000
21
108.202000
0
LINE
8
Layer 1
10
155.829000
20
108.202000
11
158.031092
21
108.602242
0
LINE
8
Layer 1
10
158.031092
20
108.602242
11
160.172047
21
109.199500
0
LINE
8
Layer 1
10
160.172047
20
109.199500
11
162.255510
21
109.967195
0
LINE
8
Layer 1
10
162.255510
20
109.967195
11
164.285125
21
110.878750
0
LINE
8
Layer 1
10
164.285125
20
110.878750
11
168.197391
21
113.027125
0
LINE
8
Layer 1
10
168.197391
20
113.027125
11
171.938000
21
115.432000
0
LINE
8
Layer 1
10
171.938000
20
115.432000
11
171.938000
21
115.432000
0
LINE
8
Layer 1
10
178.635000
20
114.297000
11
182.171195
21
112.420258
0
LINE
8
Layer 1
10
182.171195
20
112.420258
11
185.809250
21
110.792937
0
LINE
8
Layer 1
10
185.809250
20
110.792937
11
189.537867
21
109.409648
0
LINE
8
Layer 1
10
189.537867
20
109.409648
11
193.345750
21
108.265000
0
LINE
8
Layer 1
10
193.345750
20
108.265000
11
197.221602
21
107.353602
0
LINE
8
Layer 1
10
197.221602
20
107.353602
11
201.154125
21
106.670063
0
LINE
8
Layer 1
10
201.154125
20
106.670063
11
205.132023
21
106.208992
0
LINE
8
Layer 1
10
205.132023
20
106.208992
11
209.144000
21
105.965000
0
LINE
8
Layer 1
10
209.144000
20
105.965000
11
209.099714
21
104.570275
0
LINE
8
Layer 1
10
209.099714
20
104.570275
11
208.791963
21
103.301786
0
LINE
8
Layer 1
10
208.791963
20
103.301786
11
208.246969
21
102.160021
0
LINE
8
Layer 1
10
208.246969
20
102.160021
11
207.490953
21
101.145467
0
LINE
8
Layer 1
10
207.490953
20
101.145467
11
206.550139
21
100.258612
0
LINE
8
Layer 1
10
206.550139
20
100.258612
11
205.450748
21
99.499943
0
LINE
8
Layer 1
10
205.450748
20
99.499943
11
204.219003
21
98.869947
0
LINE
8
Layer 1
10
204.219003
20
98.869947
11
202.881125
21
98.369112
0
LINE
8
Layer 1
10
202.881125
20
98.369112
11
199.991861
21
97.756874
0
LINE
8
Layer 1
10
199.991861
20
97.756874
11
196.992734
21
97.667127
0
LINE
8
Layer 1
10
196.992734
20
97.667127
11
194.093521
21
98.103769
0
LINE
8
Layer 1
10
194.093521
20
98.103769
11
192.746938
21
98.520705
0
LINE
8
Layer 1
10
192.746938
20
98.520705
11
191.504000
21
99.070700
0
LINE
8
Layer 1
10
191.504000
20
99.070700
11
188.982982
21
99.824504
0
LINE
8
Layer 1
10
188.982982
20
99.824504
11
186.162797
21
100.973639
0
LINE
8
Layer 1
10
186.162797
20
100.973639
11
183.323369
21
102.484651
0
LINE
8
Layer 1
10
183.323369
20
102.484651
11
180.744625
21
104.324087
0
LINE
8
Layer 1
10
180.744625
20
104.324087
11
179.640486
21
105.356510
0
LINE
8
Layer 1
10
179.640486
20
105.356510
11
178.706490
21
106.458494
0
LINE
8
Layer 1
10
178.706490
20
106.458494
11
177.977628
21
107.625857
0
LINE
8
Layer 1
10
177.977628
20
107.625857
11
177.488891
21
108.854417
0
LINE
8
Layer 1
10
177.488891
20
108.854417
11
177.275268
21
110.139993
0
LINE
8
Layer 1
10
177.275268
20
110.139993
11
177.371752
21
111.478404
0
LINE
8
Layer 1
10
177.371752
20
111.478404
11
177.813332
21
112.865466
0
LINE
8
Layer 1
10
177.813332
20
112.865466
11
178.635000
21
114.297000
0
LINE
8
Layer 1
10
178.635000
20
114.297000
11
178.635000
21
114.297000
0
LINE
8
Layer 1
10
264.242000
20
111.697000
11
266.113561
21
110.073231
0
LINE
8
Layer 1
10
266.113561
20
110.073231
11
267.693412
21
108.299472
0
LINE
8
Layer 1
10
267.693412
20
108.299472
11
269.013865
21
106.392111
0
LINE
8
Layer 1
10
269.013865
20
106.392111
11
270.107234
21
104.367534
0
LINE
8
Layer 1
10
270.107234
20
104.367534
11
271.005832
21
102.242128
0
LINE
8
Layer 1
10
271.005832
20
102.242128
11
271.741971
21
100.032279
0
LINE
8
Layer 1
10
271.741971
20
100.032279
11
272.856125
21
95.424800
0
LINE
8
Layer 1
10
272.856125
20
95.424800
11
274.556703
21
85.917541
0
LINE
8
Layer 1
10
274.556703
20
85.917541
11
275.660135
21
81.279946
0
LINE
8
Layer 1
10
275.660135
20
81.279946
11
276.388232
21
79.047511
0
LINE
8
Layer 1
10
276.388232
20
79.047511
11
277.277000
21
76.894500
0
LINE
8
Layer 1
10
277.277000
20
76.894500
11
277.863957
21
74.253029
0
LINE
8
Layer 1
10
277.863957
20
74.253029
11
278.916219
21
71.587487
0
LINE
8
Layer 1
10
278.916219
20
71.587487
11
280.273121
21
68.944259
0
LINE
8
Layer 1
10
280.273121
20
68.944259
11
281.774000
21
66.369725
0
LINE
8
Layer 1
10
281.774000
20
66.369725
11
284.565031
21
61.612275
0
LINE
8
Layer 1
10
284.565031
20
61.612275
11
285.533855
21
59.522124
0
LINE
8
Layer 1
10
285.533855
20
59.522124
11
286.004000
21
57.686200
0
LINE
8
Layer 1
10
286.004000
20
57.686200
11
284.860627
21
56.760585
0
LINE
8
Layer 1
10
284.860627
20
56.760585
11
283.761986
21
56.137785
0
LINE
8
Layer 1
10
283.761986
20
56.137785
11
282.708794
21
55.793563
0
LINE
8
Layer 1
10
282.708794
20
55.793563
11
281.701766
21
55.703684
0
LINE
8
Layer 1
10
281.701766
20
55.703684
11
280.741618
21
55.843914
0
LINE
8
Layer 1
10
280.741618
20
55.843914
11
279.829068
21
56.190017
0
LINE
8
Layer 1
10
279.829068
20
56.190017
11
278.964832
21
56.717757
0
LINE
8
Layer 1
10
278.964832
20
56.717757
11
278.149625
21
57.402900
0
LINE
8
Layer 1
10
278.149625
20
57.402900
11
276.669166
21
59.148452
0
LINE
8
Layer 1
10
276.669166
20
59.148452
11
275.393422
21
61.232791
0
LINE
8
Layer 1
10
275.393422
20
61.232791
11
274.328123
21
63.462034
0
LINE
8
Layer 1
10
274.328123
20
63.462034
11
273.479000
21
65.642300
0
LINE
8
Layer 1
10
273.479000
20
65.642300
11
272.157870
21
68.101642
0
LINE
8
Layer 1
10
272.157870
20
68.101642
11
270.980619
21
70.620376
0
LINE
8
Layer 1
10
270.980619
20
70.620376
11
268.964828
21
75.796384
0
LINE
8
Layer 1
10
268.964828
20
75.796384
11
267.245779
21
81.091057
0
LINE
8
Layer 1
10
267.245779
20
81.091057
11
265.637625
21
86.425125
0
LINE
8
Layer 1
10
265.637625
20
86.425125
11
263.954518
21
91.719321
0
LINE
8
Layer 1
10
263.954518
20
91.719321
11
262.010609
21
96.894378
0
LINE
8
Layer 1
10
262.010609
20
96.894378
11
260.882778
21
99.412458
0
LINE
8
Layer 1
10
260.882778
20
99.412458
11
259.620053
21
101.871027
0
LINE
8
Layer 1
10
259.620053
20
101.871027
11
258.199204
21
104.260177
0
LINE
8
Layer 1
10
258.199204
20
104.260177
11
256.597000
21
106.570000
0
LINE
8
Layer 1
10
256.597000
20
106.570000
11
256.790350
21
107.845961
0
LINE
8
Layer 1
10
256.790350
20
107.845961
11
257.350672
21
108.918250
0
LINE
8
Layer 1
10
257.350672
20
108.918250
11
258.203377
21
109.797977
0
LINE
8
Layer 1
10
258.203377
20
109.797977
11
259.273875
21
110.496250
0
LINE
8
Layer 1
10
259.273875
20
110.496250
11
260.487576
21
111.024180
0
LINE
8
Layer 1
10
260.487576
20
111.024180
11
261.769891
21
111.392875
0
LINE
8
Layer 1
10
261.769891
20
111.392875
11
264.242000
21
111.697000
0
LINE
8
Layer 1
10
264.242000
20
111.697000
11
264.242000
21
111.697000
0
LINE
8
Layer 1
10
136.119000
20
109.855000
11
137.316425
21
108.759542
0
LINE
8
Layer 1
10
137.316425
20
108.759542
11
138.301807
21
107.548651
0
LINE
8
Layer 1
10
138.301807
20
107.548651
11
139.080367
21
106.242365
0
LINE
8
Layer 1
10
139.080367
20
106.242365
11
139.657328
21
104.860723
0
LINE
8
Layer 1
10
139.657328
20
104.860723
11
140.037912
21
103.423764
0
LINE
8
Layer 1
10
140.037912
20
103.423764
11
140.227342
21
101.951525
0
LINE
8
Layer 1
10
140.227342
20
101.951525
11
140.230839
21
100.464045
0
LINE
8
Layer 1
10
140.230839
20
100.464045
11
140.053625
21
98.981363
0
LINE
8
Layer 1
10
140.053625
20
98.981363
11
139.700923
21
97.523515
0
LINE
8
Layer 1
10
139.700923
20
97.523515
11
139.177955
21
96.110542
0
LINE
8
Layer 1
10
139.177955
20
96.110542
11
138.489943
21
94.762481
0
LINE
8
Layer 1
10
138.489943
20
94.762481
11
137.642109
21
93.499370
0
LINE
8
Layer 1
10
137.642109
20
93.499370
11
136.639676
21
92.341249
0
LINE
8
Layer 1
10
136.639676
20
92.341249
11
135.487865
21
91.308154
0
LINE
8
Layer 1
10
135.487865
20
91.308154
11
134.191899
21
90.420125
0
LINE
8
Layer 1
10
134.191899
20
90.420125
11
132.757000
21
89.697200
0
LINE
8
Layer 1
10
132.757000
20
89.697200
11
131.672479
21
88.746689
0
LINE
8
Layer 1
10
131.672479
20
88.746689
11
130.366162
21
87.853054
0
LINE
8
Layer 1
10
130.366162
20
87.853054
11
127.242609
21
86.291678
0
LINE
8
Layer 1
10
127.242609
20
86.291678
11
123.695283
21
85.123607
0
LINE
8
Layer 1
10
123.695283
20
85.123607
11
120.033125
21
84.459375
0
LINE
8
Layer 1
10
120.033125
20
84.459375
11
118.255528
21
84.350740
0
LINE
8
Layer 1
10
118.255528
20
84.350740
11
116.565076
21
84.409514
0
LINE
8
Layer 1
10
116.565076
20
84.409514
11
115.000387
21
84.649515
0
LINE
8
Layer 1
10
115.000387
20
84.649515
11
113.600078
21
85.084559
0
LINE
8
Layer 1
10
113.600078
20
85.084559
11
112.402767
21
85.728463
0
LINE
8
Layer 1
10
112.402767
20
85.728463
11
111.447072
21
86.595043
0
LINE
8
Layer 1
10
111.447072
20
86.595043
11
110.771611
21
87.698117
0
LINE
8
Layer 1
10
110.771611
20
87.698117
11
110.415000
21
89.051500
0
LINE
8
Layer 1
10
110.415000
20
89.051500
11
112.593577
21
89.340784
0
LINE
8
Layer 1
10
112.593577
20
89.340784
11
114.711869
21
89.774467
0
LINE
8
Layer 1
10
114.711869
20
89.774467
11
116.765465
21
90.348672
0
LINE
8
Layer 1
10
116.765465
20
90.348672
11
118.749953
21
91.059527
0
LINE
8
Layer 1
10
118.749953
20
91.059527
11
120.660924
21
91.903155
0
LINE
8
Layer 1
10
120.660924
20
91.903155
11
122.493967
21
92.875683
0
LINE
8
Layer 1
10
122.493967
20
92.875683
11
125.908625
21
95.191937
0
LINE
8
Layer 1
10
125.908625
20
95.191937
11
128.958643
21
97.977294
0
LINE
8
Layer 1
10
128.958643
20
97.977294
11
131.608734
21
101.200755
0
LINE
8
Layer 1
10
131.608734
20
101.200755
11
133.823615
21
104.831322
0
LINE
8
Layer 1
10
133.823615
20
104.831322
11
135.568000
21
108.838000
0
LINE
8
Layer 1
10
135.568000
20
108.838000
11
135.893000
21
109.437000
0
LINE
8
Layer 1
10
135.893000
20
109.437000
11
136.119000
21
109.855000
0
LINE
8
Layer 1
10
136.119000
20
109.855000
11
136.119000
21
109.855000
0
LINE
8
Layer 1
10
55.063500
20
108.838000
11
59.804344
21
106.639630
0
LINE
8
Layer 1
10
59.804344
20
106.639630
11
62.165224
21
105.295672
0
LINE
8
Layer 1
10
62.165224
20
105.295672
11
64.316400
21
103.731037
0
LINE
8
Layer 1
10
64.316400
20
103.731037
11
66.105363
21
101.902604
0
LINE
8
Layer 1
10
66.105363
20
101.902604
11
66.816357
21
100.875988
0
LINE
8
Layer 1
10
66.816357
20
100.875988
11
67.379606
21
99.767252
0
LINE
8
Layer 1
10
67.379606
20
99.767252
11
67.776049
21
98.571005
0
LINE
8
Layer 1
10
67.776049
20
98.571005
11
67.986621
21
97.281857
0
LINE
8
Layer 1
10
67.986621
20
97.281857
11
67.992259
21
95.894419
0
LINE
8
Layer 1
10
67.992259
20
95.894419
11
67.773900
21
94.403300
0
LINE
8
Layer 1
10
67.773900
20
94.403300
11
67.658525
21
89.324640
0
LINE
8
Layer 1
10
67.658525
20
89.324640
11
67.149886
21
84.115642
0
LINE
8
Layer 1
10
67.149886
20
84.115642
11
66.173751
21
78.926058
0
LINE
8
Layer 1
10
66.173751
20
78.926058
11
65.487175
21
76.385343
0
LINE
8
Layer 1
10
65.487175
20
76.385343
11
64.655888
21
73.905637
0
LINE
8
Layer 1
10
64.655888
20
73.905637
11
63.670610
21
71.505661
0
LINE
8
Layer 1
10
63.670610
20
71.505661
11
62.522063
21
69.204131
0
LINE
8
Layer 1
10
62.522063
20
69.204131
11
61.200968
21
67.019768
0
LINE
8
Layer 1
10
61.200968
20
67.019768
11
59.698045
21
64.971289
0
LINE
8
Layer 1
10
59.698045
20
64.971289
11
58.004016
21
63.077414
0
LINE
8
Layer 1
10
58.004016
20
63.077414
11
56.109602
21
61.356862
0
LINE
8
Layer 1
10
56.109602
20
61.356862
11
54.005523
21
59.828351
0
LINE
8
Layer 1
10
54.005523
20
59.828351
11
51.682500
21
58.510600
0
LINE
8
Layer 1
10
51.682500
20
58.510600
11
49.769515
21
58.477483
0
LINE
8
Layer 1
10
49.769515
20
58.477483
11
47.066867
21
58.147398
0
LINE
8
Layer 1
10
47.066867
20
58.147398
11
40.900038
21
57.339062
0
LINE
8
Layer 1
10
40.900038
20
57.339062
11
38.239581
21
57.232181
0
LINE
8
Layer 1
10
38.239581
20
57.232181
11
37.190907
21
57.334299
0
LINE
8
Layer 1
10
37.190907
20
57.334299
11
36.396914
21
57.571070
0
LINE
8
Layer 1
10
36.396914
20
57.571070
11
35.907834
21
57.965705
0
LINE
8
Layer 1
10
35.907834
20
57.965705
11
35.773899
21
58.541415
0
LINE
8
Layer 1
10
35.773899
20
58.541415
11
36.045344
21
59.321410
0
LINE
8
Layer 1
10
36.045344
20
59.321410
11
36.772400
21
60.328900
0
LINE
8
Layer 1
10
36.772400
20
60.328900
11
38.824620
21
62.413687
0
LINE
8
Layer 1
10
38.824620
20
62.413687
11
40.753380
21
64.606769
0
LINE
8
Layer 1
10
40.753380
20
64.606769
11
42.557441
21
66.900511
0
LINE
8
Layer 1
10
42.557441
20
66.900511
11
44.235564
21
69.287278
0
LINE
8
Layer 1
10
44.235564
20
69.287278
11
45.786511
21
71.759433
0
LINE
8
Layer 1
10
45.786511
20
71.759433
11
47.209044
21
74.309342
0
LINE
8
Layer 1
10
47.209044
20
74.309342
11
49.663913
21
79.611875
0
LINE
8
Layer 1
10
49.663913
20
79.611875
11
51.590260
21
85.133793
0
LINE
8
Layer 1
10
51.590260
20
85.133793
11
52.978180
21
90.814009
0
LINE
8
Layer 1
10
52.978180
20
90.814009
11
53.817762
21
96.591440
0
LINE
8
Layer 1
10
53.817762
20
96.591440
11
54.099100
21
102.405000
0
LINE
8
Layer 1
10
54.099100
20
102.405000
11
54.302845
21
104.014703
0
LINE
8
Layer 1
10
54.302845
20
104.014703
11
54.656263
21
105.702875
0
LINE
8
Layer 1
10
54.656263
20
105.702875
11
54.972198
21
107.350359
0
LINE
8
Layer 1
10
54.972198
20
107.350359
11
55.063500
21
108.838000
0
LINE
8
Layer 1
10
55.063500
20
108.838000
11
55.063500
21
108.838000
0
LINE
8
Layer 1
10
213.654000
20
103.653000
11
215.354855
21
101.338839
0
LINE
8
Layer 1
10
215.354855
20
101.338839
11
217.371156
21
99.070850
0
LINE
8
Layer 1
10
217.371156
20
99.070850
11
219.602754
21
96.876886
0
LINE
8
Layer 1
10
219.602754
20
96.876886
11
221.949500
21
94.784800
0
LINE
8
Layer 1
10
221.949500
20
94.784800
11
226.587844
21
91.017675
0
LINE
8
Layer 1
10
226.587844
20
91.017675
11
230.485000
21
87.992300
0
LINE
8
Layer 1
10
230.485000
20
87.992300
11
229.407548
21
86.727469
0
LINE
8
Layer 1
10
229.407548
20
86.727469
11
228.243666
21
85.787791
0
LINE
8
Layer 1
10
228.243666
20
85.787791
11
227.009064
21
85.149610
0
LINE
8
Layer 1
10
227.009064
20
85.149610
11
225.719453
21
84.789267
0
LINE
8
Layer 1
10
225.719453
20
84.789267
11
224.390543
21
84.683106
0
LINE
8
Layer 1
10
224.390543
20
84.683106
11
223.038045
21
84.807469
0
LINE
8
Layer 1
10
223.038045
20
84.807469
11
221.677669
21
85.138699
0
LINE
8
Layer 1
10
221.677669
20
85.138699
11
220.325125
21
85.653137
0
LINE
8
Layer 1
10
220.325125
20
85.653137
11
217.706377
21
87.137014
0
LINE
8
Layer 1
10
217.706377
20
87.137014
11
215.307484
21
89.069839
0
LINE
8
Layer 1
10
215.307484
20
89.069839
11
213.254131
21
91.262354
0
LINE
8
Layer 1
10
213.254131
20
91.262354
11
211.672000
21
93.525300
0
LINE
8
Layer 1
10
211.672000
20
93.525300
11
210.818234
21
94.743828
0
LINE
8
Layer 1
10
210.818234
20
94.743828
11
210.275062
21
96.160767
0
LINE
8
Layer 1
10
210.275062
20
96.160767
11
210.044547
21
97.683688
0
LINE
8
Layer 1
10
210.044547
20
97.683688
11
210.128750
21
99.220163
0
LINE
8
Layer 1
10
210.128750
20
99.220163
11
210.529734
21
100.677760
0
LINE
8
Layer 1
10
210.529734
20
100.677760
11
211.249562
21
101.964052
0
LINE
8
Layer 1
10
211.249562
20
101.964052
11
212.290297
21
102.986608
0
LINE
8
Layer 1
10
212.290297
20
102.986608
11
213.654000
21
103.653000
0
LINE
8
Layer 1
10
213.654000
20
103.653000
11
213.654000
21
103.653000
0
LINE
8
Layer 1
10
253.555000
20
102.525000
11
255.085102
21
101.427507
0
LINE
8
Layer 1
10
255.085102
20
101.427507
11
256.382002
21
100.170621
0
LINE
8
Layer 1
10
256.382002
20
100.170621
11
257.472468
21
98.772311
0
LINE
8
Layer 1
10
257.472468
20
98.772311
11
258.383266
21
97.250548
0
LINE
8
Layer 1
10
258.383266
20
97.250548
11
259.141163
21
95.623302
0
LINE
8
Layer 1
10
259.141163
20
95.623302
11
259.772928
21
93.908542
0
LINE
8
Layer 1
10
259.772928
20
93.908542
11
260.765125
21
90.288363
0
LINE
8
Layer 1
10
260.765125
20
90.288363
11
262.413672
21
82.788520
0
LINE
8
Layer 1
10
262.413672
20
82.788520
11
263.498295
21
79.196378
0
LINE
8
Layer 1
10
263.498295
20
79.196378
11
264.199379
21
77.502646
0
LINE
8
Layer 1
10
264.199379
20
77.502646
11
265.042000
21
75.901100
0
LINE
8
Layer 1
10
265.042000
20
75.901100
11
265.145778
21
74.647063
0
LINE
8
Layer 1
10
265.145778
20
74.647063
11
265.453768
21
73.375399
0
LINE
8
Layer 1
10
265.453768
20
73.375399
11
266.536328
21
70.795602
0
LINE
8
Layer 1
10
266.536328
20
70.795602
11
267.997568
21
68.194525
0
LINE
8
Layer 1
10
267.997568
20
68.194525
11
269.545375
21
65.604987
0
LINE
8
Layer 1
10
269.545375
20
65.604987
11
270.887635
21
63.059808
0
LINE
8
Layer 1
10
270.887635
20
63.059808
11
271.390399
21
61.814108
0
LINE
8
Layer 1
10
271.390399
20
61.814108
11
271.732234
21
60.591805
0
LINE
8
Layer 1
10
271.732234
20
60.591805
11
271.876626
21
59.397000
0
LINE
8
Layer 1
10
271.876626
20
59.397000
11
271.787061
21
58.233796
0
LINE
8
Layer 1
10
271.787061
20
58.233796
11
271.427023
21
57.106295
0
LINE
8
Layer 1
10
271.427023
20
57.106295
11
270.760000
21
56.018600
0
LINE
8
Layer 1
10
270.760000
20
56.018600
11
269.115957
21
57.091390
0
LINE
8
Layer 1
10
269.115957
20
57.091390
11
267.619074
21
58.322383
0
LINE
8
Layer 1
10
267.619074
20
58.322383
11
266.255100
21
59.694996
0
LINE
8
Layer 1
10
266.255100
20
59.694996
11
265.009781
21
61.192650
0
LINE
8
Layer 1
10
265.009781
20
61.192650
11
262.818098
21
64.496755
0
LINE
8
Layer 1
10
262.818098
20
64.496755
11
260.930000
21
68.102050
0
LINE
8
Layer 1
10
260.930000
20
68.102050
11
257.608469
21
75.685625
0
LINE
8
Layer 1
10
257.608469
20
75.685625
11
255.946988
21
79.398611
0
LINE
8
Layer 1
10
255.946988
20
79.398611
11
254.133000
21
82.882200
0
LINE
8
Layer 1
10
254.133000
20
82.882200
11
251.506687
21
87.661044
0
LINE
8
Layer 1
10
251.506687
20
87.661044
11
250.071117
21
90.342047
0
LINE
8
Layer 1
10
250.071117
20
90.342047
11
248.895000
21
93.071575
0
LINE
8
Layer 1
10
248.895000
20
93.071575
11
248.484173
21
94.420349
0
LINE
8
Layer 1
10
248.484173
20
94.420349
11
248.234133
21
95.740231
0
LINE
8
Layer 1
10
248.234133
20
95.740231
11
248.176854
21
97.017546
0
LINE
8
Layer 1
10
248.176854
20
97.017546
11
248.344313
21
98.238619
0
LINE
8
Layer 1
10
248.344313
20
98.238619
11
248.768481
21
99.389775
0
LINE
8
Layer 1
10
248.768481
20
99.389775
11
249.481336
21
100.457341
0
LINE
8
Layer 1
10
249.481336
20
100.457341
11
250.514851
21
101.427640
0
LINE
8
Layer 1
10
250.514851
20
101.427640
11
251.901000
21
102.287000
0
LINE
8
Layer 1
10
251.901000
20
102.287000
11
253.555000
21
102.525000
0
LINE
8
Layer 1
10
253.555000
20
102.525000
11
253.555000
21
102.525000
0
LINE
8
Layer 1
10
74.020300
20
100.564000
11
75.610109
21
100.118959
0
LINE
8
Layer 1
10
75.610109
20
100.118959
11
77.135801
21
99.533472
0
LINE
8
Layer 1
10
77.135801
20
99.533472
11
78.583341
21
98.816446
0
LINE
8
Layer 1
10
78.583341
20
98.816446
11
79.938691
21
97.976784
0
LINE
8
Layer 1
10
79.938691
20
97.976784
11
81.187813
21
97.023394
0
LINE
8
Layer 1
10
81.187813
20
97.023394
11
82.316672
21
95.965179
0
LINE
8
Layer 1
10
82.316672
20
95.965179
11
83.311230
21
94.811046
0
LINE
8
Layer 1
10
83.311230
20
94.811046
11
84.157450
21
93.569900
0
LINE
8
Layer 1
10
84.157450
20
93.569900
11
84.841295
21
92.250646
0
LINE
8
Layer 1
10
84.841295
20
92.250646
11
85.348728
21
90.862189
0
LINE
8
Layer 1
10
85.348728
20
90.862189
11
85.665712
21
89.413436
0
LINE
8
Layer 1
10
85.665712
20
89.413436
11
85.778209
21
87.913291
0
LINE
8
Layer 1
10
85.778209
20
87.913291
11
85.672184
21
86.370659
0
LINE
8
Layer 1
10
85.672184
20
86.370659
11
85.333599
21
84.794446
0
LINE
8
Layer 1
10
85.333599
20
84.794446
11
84.748416
21
83.193558
0
LINE
8
Layer 1
10
84.748416
20
83.193558
11
83.902600
21
81.576900
0
LINE
8
Layer 1
10
83.902600
20
81.576900
11
83.126661
21
77.909641
0
LINE
8
Layer 1
10
83.126661
20
77.909641
11
82.013380
21
74.145973
0
LINE
8
Layer 1
10
82.013380
20
74.145973
11
80.527862
21
70.451172
0
LINE
8
Layer 1
10
80.527862
20
70.451172
11
78.635212
21
66.990512
0
LINE
8
Layer 1
10
78.635212
20
66.990512
11
77.525309
21
65.399634
0
LINE
8
Layer 1
10
77.525309
20
65.399634
11
76.300537
21
63.929270
0
LINE
8
Layer 1
10
76.300537
20
63.929270
11
74.956534
21
62.600079
0
LINE
8
Layer 1
10
74.956534
20
62.600079
11
73.488939
21
61.432720
0
LINE
8
Layer 1
10
73.488939
20
61.432720
11
71.893390
21
60.447854
0
LINE
8
Layer 1
10
71.893390
20
60.447854
11
70.165525
21
59.666138
0
LINE
8
Layer 1
10
70.165525
20
59.666138
11
68.300982
21
59.108234
0
LINE
8
Layer 1
10
68.300982
20
59.108234
11
66.295400
21
58.794800
0
LINE
8
Layer 1
10
66.295400
20
58.794800
11
64.296843
21
58.504122
0
LINE
8
Layer 1
10
64.296843
20
58.504122
11
62.862367
21
58.509044
0
LINE
8
Layer 1
10
62.862367
20
58.509044
11
61.932395
21
58.779892
0
LINE
8
Layer 1
10
61.932395
20
58.779892
11
61.447350
21
59.286994
0
LINE
8
Layer 1
10
61.447350
20
59.286994
11
61.347655
21
60.000676
0
LINE
8
Layer 1
10
61.347655
20
60.000676
11
61.573733
21
60.891266
0
LINE
8
Layer 1
10
61.573733
20
60.891266
11
62.764900
21
63.084475
0
LINE
8
Layer 1
10
62.764900
20
63.084475
11
66.435125
21
68.288169
0
LINE
8
Layer 1
10
66.435125
20
68.288169
11
67.960952
21
70.823884
0
LINE
8
Layer 1
10
67.960952
20
70.823884
11
68.438024
21
71.971354
0
LINE
8
Layer 1
10
68.438024
20
71.971354
11
68.645100
21
72.999000
0
LINE
8
Layer 1
10
68.645100
20
72.999000
11
69.773168
21
76.350080
0
LINE
8
Layer 1
10
69.773168
20
76.350080
11
70.573666
21
79.804052
0
LINE
8
Layer 1
10
70.573666
20
79.804052
11
71.145212
21
83.322976
0
LINE
8
Layer 1
10
71.145212
20
83.322976
11
71.586425
21
86.868913
0
LINE
8
Layer 1
10
71.586425
20
86.868913
11
72.472322
21
93.890067
0
LINE
8
Layer 1
10
72.472322
20
93.890067
11
73.114242
21
97.289406
0
LINE
8
Layer 1
10
73.114242
20
97.289406
11
74.020300
21
100.564000
0
LINE
8
Layer 1
10
74.020300
20
100.564000
11
74.020300
21
100.564000
0
LINE
8
Layer 1
10
174.724000
20
100.434000
11
175.520461
21
99.101915
0
LINE
8
Layer 1
10
175.520461
20
99.101915
11
176.163781
21
97.668202
0
LINE
8
Layer 1
10
176.163781
20
97.668202
11
176.650492
21
96.160228
0
LINE
8
Layer 1
10
176.650492
20
96.160228
11
176.977125
21
94.605359
0
LINE
8
Layer 1
10
176.977125
20
94.605359
11
177.140211
21
93.030961
0
LINE
8
Layer 1
10
177.140211
20
93.030961
11
177.136281
21
91.464400
0
LINE
8
Layer 1
10
177.136281
20
91.464400
11
176.961867
21
89.933041
0
LINE
8
Layer 1
10
176.961867
20
89.933041
11
176.613500
21
88.464250
0
LINE
8
Layer 1
10
176.613500
20
88.464250
11
176.087711
21
87.085394
0
LINE
8
Layer 1
10
176.087711
20
87.085394
11
175.381031
21
85.823838
0
LINE
8
Layer 1
10
175.381031
20
85.823838
11
174.489992
21
84.706948
0
LINE
8
Layer 1
10
174.489992
20
84.706948
11
173.411125
21
83.762091
0
LINE
8
Layer 1
10
173.411125
20
83.762091
11
172.140961
21
83.016631
0
LINE
8
Layer 1
10
172.140961
20
83.016631
11
170.676031
21
82.497936
0
LINE
8
Layer 1
10
170.676031
20
82.497936
11
169.012867
21
82.233370
0
LINE
8
Layer 1
10
169.012867
20
82.233370
11
167.148000
21
82.250300
0
LINE
8
Layer 1
10
167.148000
20
82.250300
11
165.485931
21
82.305821
0
LINE
8
Layer 1
10
165.485931
20
82.305821
11
163.863012
21
82.647851
0
LINE
8
Layer 1
10
163.863012
20
82.647851
11
162.311735
21
83.235389
0
LINE
8
Layer 1
10
162.311735
20
83.235389
11
160.864594
21
84.027436
0
LINE
8
Layer 1
10
160.864594
20
84.027436
11
159.554082
21
84.982992
0
LINE
8
Layer 1
10
159.554082
20
84.982992
11
158.412691
21
86.061056
0
LINE
8
Layer 1
10
158.412691
20
86.061056
11
157.472917
21
87.220630
0
LINE
8
Layer 1
10
157.472917
20
87.220630
11
156.767250
21
88.420712
0
LINE
8
Layer 1
10
156.767250
20
88.420712
11
156.328185
21
89.620304
0
LINE
8
Layer 1
10
156.328185
20
89.620304
11
156.188215
21
90.778404
0
LINE
8
Layer 1
10
156.188215
20
90.778404
11
156.379833
21
91.854014
0
LINE
8
Layer 1
10
156.379833
20
91.854014
11
156.935531
21
92.806133
0
LINE
8
Layer 1
10
156.935531
20
92.806133
11
157.887804
21
93.593761
0
LINE
8
Layer 1
10
157.887804
20
93.593761
11
159.269145
21
94.175898
0
LINE
8
Layer 1
10
159.269145
20
94.175898
11
161.112045
21
94.511544
0
LINE
8
Layer 1
10
161.112045
20
94.511544
11
163.449000
21
94.559700
0
LINE
8
Layer 1
10
163.449000
20
94.559700
11
166.473672
21
95.606948
0
LINE
8
Layer 1
10
166.473672
20
95.606948
11
169.435625
21
96.909712
0
LINE
8
Layer 1
10
169.435625
20
96.909712
11
172.223016
21
98.506045
0
LINE
8
Layer 1
10
172.223016
20
98.506045
11
174.724000
21
100.434000
0
LINE
8
Layer 1
10
174.724000
20
100.434000
11
174.724000
21
100.434000
0
LINE
8
Layer 1
10
181.211000
20
98.433700
11
182.305712
21
97.749592
0
LINE
8
Layer 1
10
182.305712
20
97.749592
11
183.536652
21
97.178299
0
LINE
8
Layer 1
10
183.536652
20
97.178299
11
186.312281
21
96.309402
0
LINE
8
Layer 1
10
186.312281
20
96.309402
11
189.348020
21
95.697494
0
LINE
8
Layer 1
10
189.348020
20
95.697494
11
192.454000
21
95.213063
0
LINE
8
Layer 1
10
192.454000
20
95.213063
11
195.440355
21
94.726592
0
LINE
8
Layer 1
10
195.440355
20
94.726592
11
198.117219
21
94.108567
0
LINE
8
Layer 1
10
198.117219
20
94.108567
11
200.294723
21
93.229475
0
LINE
8
Layer 1
10
200.294723
20
93.229475
11
201.136881
21
92.651555
0
LINE
8
Layer 1
10
201.136881
20
92.651555
11
201.783000
21
91.959800
0
LINE
8
Layer 1
10
201.783000
20
91.959800
11
201.047887
21
90.801817
0
LINE
8
Layer 1
10
201.047887
20
90.801817
11
200.210850
21
89.805193
0
LINE
8
Layer 1
10
200.210850
20
89.805193
11
199.282461
21
88.963399
0
LINE
8
Layer 1
10
199.282461
20
88.963399
11
198.273297
21
88.269909
0
LINE
8
Layer 1
10
198.273297
20
88.269909
11
197.193931
21
87.718197
0
LINE
8
Layer 1
10
197.193931
20
87.718197
11
196.054939
21
87.301734
0
LINE
8
Layer 1
10
196.054939
20
87.301734
11
193.640375
21
86.848450
0
LINE
8
Layer 1
10
193.640375
20
86.848450
11
191.114201
21
86.857841
0
LINE
8
Layer 1
10
191.114201
20
86.857841
11
188.561016
21
87.277691
0
LINE
8
Layer 1
10
188.561016
20
87.277691
11
186.065416
21
88.055782
0
LINE
8
Layer 1
10
186.065416
20
88.055782
11
183.712000
21
89.139900
0
LINE
8
Layer 1
10
183.712000
20
89.139900
11
182.768473
21
89.960539
0
LINE
8
Layer 1
10
182.768473
20
89.960539
11
181.897531
21
90.981644
0
LINE
8
Layer 1
10
181.897531
20
90.981644
11
181.153012
21
92.151708
0
LINE
8
Layer 1
10
181.153012
20
92.151708
11
180.588750
21
93.419225
0
LINE
8
Layer 1
10
180.588750
20
93.419225
11
180.258582
21
94.732689
0
LINE
8
Layer 1
10
180.258582
20
94.732689
11
180.216344
21
96.040594
0
LINE
8
Layer 1
10
180.216344
20
96.040594
11
180.515871
21
97.291433
0
LINE
8
Layer 1
10
180.515871
20
97.291433
11
181.211000
21
98.433700
0
LINE
8
Layer 1
10
181.211000
20
98.433700
11
181.211000
21
98.433700
0
LINE
8
Layer 1
10
145.757000
20
97.628500
11
147.245529
21
96.956200
0
LINE
8
Layer 1
10
147.245529
20
96.956200
11
148.484152
21
96.075249
0
LINE
8
Layer 1
10
148.484152
20
96.075249
11
149.480614
21
95.016361
0
LINE
8
Layer 1
10
149.480614
20
95.016361
11
150.242656
21
93.810245
0
LINE
8
Layer 1
10
150.242656
20
93.810245
11
150.778023
21
92.487616
0
LINE
8
Layer 1
10
150.778023
20
92.487616
11
151.094457
21
91.079184
0
LINE
8
Layer 1
10
151.094457
20
91.079184
11
151.199702
21
89.615662
0
LINE
8
Layer 1
10
151.199702
20
89.615662
11
151.101500
21
88.127762
0
LINE
8
Layer 1
10
151.101500
20
88.127762
11
150.807595
21
86.646197
0
LINE
8
Layer 1
10
150.807595
20
86.646197
11
150.325730
21
85.201677
0
LINE
8
Layer 1
10
150.325730
20
85.201677
11
149.663649
21
83.824915
0
LINE
8
Layer 1
10
149.663649
20
83.824915
11
148.829094
21
82.546623
0
LINE
8
Layer 1
10
148.829094
20
82.546623
11
147.829808
21
81.397514
0
LINE
8
Layer 1
10
147.829808
20
81.397514
11
146.673535
21
80.408299
0
LINE
8
Layer 1
10
146.673535
20
80.408299
11
145.368018
21
79.609690
0
LINE
8
Layer 1
10
145.368018
20
79.609690
11
143.921000
21
79.032400
0
LINE
8
Layer 1
10
143.921000
20
79.032400
11
142.876503
21
78.497770
0
LINE
8
Layer 1
10
142.876503
20
78.497770
11
141.465744
21
78.102922
0
LINE
8
Layer 1
10
141.465744
20
78.102922
11
139.769133
21
77.840829
0
LINE
8
Layer 1
10
139.769133
20
77.840829
11
137.867078
21
77.704464
0
LINE
8
Layer 1
10
137.867078
20
77.704464
11
133.768279
21
77.780815
0
LINE
8
Layer 1
10
133.768279
20
77.780815
11
129.812625
21
78.275762
0
LINE
8
Layer 1
10
129.812625
20
78.275762
11
128.089501
21
78.662644
0
LINE
8
Layer 1
10
128.089501
20
78.662644
11
126.643393
21
79.133096
0
LINE
8
Layer 1
10
126.643393
20
79.133096
11
125.554709
21
79.680092
0
LINE
8
Layer 1
10
125.554709
20
79.680092
11
124.903859
21
80.296605
0
LINE
8
Layer 1
10
124.903859
20
80.296605
11
124.771254
21
80.975608
0
LINE
8
Layer 1
10
124.771254
20
80.975608
11
125.237303
21
81.710076
0
LINE
8
Layer 1
10
125.237303
20
81.710076
11
126.382415
21
82.492982
0
LINE
8
Layer 1
10
126.382415
20
82.492982
11
128.287000
21
83.317300
0
LINE
8
Layer 1
10
128.287000
20
83.317300
11
131.013633
21
84.199980
0
LINE
8
Layer 1
10
131.013633
20
84.199980
11
133.541187
21
85.493167
0
LINE
8
Layer 1
10
133.541187
20
85.493167
11
135.891648
21
87.121067
0
LINE
8
Layer 1
10
135.891648
20
87.121067
11
138.087000
21
89.007887
0
LINE
8
Layer 1
10
138.087000
20
89.007887
11
140.149227
21
91.077834
0
LINE
8
Layer 1
10
140.149227
20
91.077834
11
142.100313
21
93.255114
0
LINE
8
Layer 1
10
142.100313
20
93.255114
11
145.757000
21
97.628500
0
LINE
8
Layer 1
10
145.757000
20
97.628500
11
145.757000
21
97.628500
0
LINE
8
Layer 1
10
244.100000
20
94.554300
11
245.988240
21
91.752324
0
LINE
8
Layer 1
10
245.988240
20
91.752324
11
247.522797
21
88.640350
0
LINE
8
Layer 1
10
247.522797
20
88.640350
11
248.825299
21
85.310070
0
LINE
8
Layer 1
10
248.825299
20
85.310070
11
250.017375
21
81.853175
0
LINE
8
Layer 1
10
250.017375
20
81.853175
11
251.220654
21
78.361359
0
LINE
8
Layer 1
10
251.220654
20
78.361359
11
252.556766
21
74.926312
0
LINE
8
Layer 1
10
252.556766
20
74.926312
11
254.147338
21
71.639729
0
LINE
8
Layer 1
10
254.147338
20
71.639729
11
256.114000
21
68.593300
0
LINE
8
Layer 1
10
256.114000
20
68.593300
11
257.196252
21
66.588546
0
LINE
8
Layer 1
10
257.196252
20
66.588546
11
258.740141
21
64.460278
0
LINE
8
Layer 1
10
258.740141
20
64.460278
11
260.388490
21
62.330028
0
LINE
8
Layer 1
10
260.388490
20
62.330028
11
261.784125
21
60.319325
0
LINE
8
Layer 1
10
261.784125
20
60.319325
11
262.275557
21
59.396782
0
LINE
8
Layer 1
10
262.275557
20
59.396782
11
262.569869
21
58.549700
0
LINE
8
Layer 1
10
262.569869
20
58.549700
11
262.622415
21
57.793271
0
LINE
8
Layer 1
10
262.622415
20
57.793271
11
262.388547
21
57.142684
0
LINE
8
Layer 1
10
262.388547
20
57.142684
11
261.823618
21
56.613133
0
LINE
8
Layer 1
10
261.823618
20
56.613133
11
260.882982
21
56.219807
0
LINE
8
Layer 1
10
260.882982
20
56.219807
11
259.521992
21
55.977899
0
LINE
8
Layer 1
10
259.521992
20
55.977899
11
257.696000
21
55.902600
0
LINE
8
Layer 1
10
257.696000
20
55.902600
11
255.977041
21
56.969990
0
LINE
8
Layer 1
10
255.977041
20
56.969990
11
254.424736
21
58.208765
0
LINE
8
Layer 1
10
254.424736
20
58.208765
11
253.024005
21
59.601477
0
LINE
8
Layer 1
10
253.024005
20
59.601477
11
251.759766
21
61.130677
0
LINE
8
Layer 1
10
251.759766
20
61.130677
11
250.616939
21
62.778916
0
LINE
8
Layer 1
10
250.616939
20
62.778916
11
249.580443
21
64.528747
0
LINE
8
Layer 1
10
249.580443
20
64.528747
11
247.766125
21
68.263387
0
LINE
8
Layer 1
10
247.766125
20
68.263387
11
246.196166
21
72.195011
0
LINE
8
Layer 1
10
246.196166
20
72.195011
11
244.749922
21
76.184030
0
LINE
8
Layer 1
10
244.749922
20
76.184030
11
243.306748
21
80.090855
0
LINE
8
Layer 1
10
243.306748
20
80.090855
11
241.746000
21
83.775900
0
LINE
8
Layer 1
10
241.746000
20
83.775900
11
240.887281
21
86.824017
0
LINE
8
Layer 1
10
240.887281
20
86.824017
11
240.543340
21
88.569379
0
LINE
8
Layer 1
10
240.543340
20
88.569379
11
240.403750
21
90.297112
0
LINE
8
Layer 1
10
240.403750
20
90.297112
11
240.579066
21
91.883344
0
LINE
8
Layer 1
10
240.579066
20
91.883344
11
241.179844
21
93.204202
0
LINE
8
Layer 1
10
241.179844
20
93.204202
11
241.674329
21
93.726404
0
LINE
8
Layer 1
10
241.674329
20
93.726404
11
242.316637
21
94.135811
0
LINE
8
Layer 1
10
242.316637
20
94.135811
11
243.120587
21
94.416938
0
LINE
8
Layer 1
10
243.120587
20
94.416938
11
244.100000
21
94.554300
0
LINE
8
Layer 1
10
244.100000
20
94.554300
11
244.100000
21
94.554300
0
LINE
8
Layer 1
10
89.098900
20
92.137100
11
90.503814
21
91.823836
0
LINE
8
Layer 1
10
90.503814
20
91.823836
11
91.818131
21
91.368403
0
LINE
8
Layer 1
10
91.818131
20
91.368403
11
93.035570
21
90.781337
0
LINE
8
Layer 1
10
93.035570
20
90.781337
11
94.149852
21
90.073170
0
LINE
8
Layer 1
10
94.149852
20
90.073170
11
95.154695
21
89.254438
0
LINE
8
Layer 1
10
95.154695
20
89.254438
11
96.043819
21
88.335674
0
LINE
8
Layer 1
10
96.043819
20
88.335674
11
96.810943
21
87.327412
0
LINE
8
Layer 1
10
96.810943
20
87.327412
11
97.449787
21
86.240188
0
LINE
8
Layer 1
10
97.449787
20
86.240188
11
97.954071
21
85.084533
0
LINE
8
Layer 1
10
97.954071
20
85.084533
11
98.317514
21
83.870984
0
LINE
8
Layer 1
10
98.317514
20
83.870984
11
98.533836
21
82.610073
0
LINE
8
Layer 1
10
98.533836
20
82.610073
11
98.596755
21
81.312336
0
LINE
8
Layer 1
10
98.596755
20
81.312336
11
98.499991
21
79.988306
0
LINE
8
Layer 1
10
98.499991
20
79.988306
11
98.237265
21
78.648517
0
LINE
8
Layer 1
10
98.237265
20
78.648517
11
97.802294
21
77.303504
0
LINE
8
Layer 1
10
97.802294
20
77.303504
11
97.188800
21
75.963800
0
LINE
8
Layer 1
10
97.188800
20
75.963800
11
96.105286
21
72.633988
0
LINE
8
Layer 1
10
96.105286
20
72.633988
11
94.792953
21
69.067333
0
LINE
8
Layer 1
10
94.792953
20
69.067333
11
93.192044
21
65.555551
0
LINE
8
Layer 1
10
93.192044
20
65.555551
11
92.264699
21
63.911400
0
LINE
8
Layer 1
10
92.264699
20
63.911400
11
91.242800
21
62.390362
0
LINE
8
Layer 1
10
91.242800
20
62.390362
11
90.118878
21
61.028902
0
LINE
8
Layer 1
10
90.118878
20
61.028902
11
88.885462
21
59.863485
0
LINE
8
Layer 1
10
88.885462
20
59.863485
11
87.535083
21
58.930574
0
LINE
8
Layer 1
10
87.535083
20
58.930574
11
86.060272
21
58.266636
0
LINE
8
Layer 1
10
86.060272
20
58.266636
11
84.453558
21
57.908135
0
LINE
8
Layer 1
10
84.453558
20
57.908135
11
82.707471
21
57.891535
0
LINE
8
Layer 1
10
82.707471
20
57.891535
11
80.814541
21
58.253302
0
LINE
8
Layer 1
10
80.814541
20
58.253302
11
78.767300
21
59.029900
0
LINE
8
Layer 1
10
78.767300
20
59.029900
11
82.657222
21
66.430975
0
LINE
8
Layer 1
10
82.657222
20
66.430975
11
84.618063
21
70.181927
0
LINE
8
Layer 1
10
84.618063
20
70.181927
11
86.401325
21
73.997650
0
LINE
8
Layer 1
10
86.401325
20
73.997650
11
87.865884
21
77.901517
0
LINE
8
Layer 1
10
87.865884
20
77.901517
11
88.870616
21
81.916900
0
LINE
8
Layer 1
10
88.870616
20
81.916900
11
89.156445
21
83.973713
0
LINE
8
Layer 1
10
89.156445
20
83.973713
11
89.274396
21
86.067170
0
LINE
8
Layer 1
10
89.274396
20
86.067170
11
89.206828
21
88.200192
0
LINE
8
Layer 1
10
89.206828
20
88.200192
11
88.936100
21
90.375700
0
LINE
8
Layer 1
10
88.936100
20
90.375700
11
88.858613
21
91.277663
0
LINE
8
Layer 1
10
88.858613
20
91.277663
11
88.882986
21
91.732127
0
LINE
8
Layer 1
10
88.882986
20
91.732127
11
89.098900
21
92.137100
0
LINE
8
Layer 1
10
89.098900
20
92.137100
11
89.098900
21
92.137100
0
LINE
8
Layer 1
10
207.665000
20
91.814200
11
209.070100
21
89.930824
0
LINE
8
Layer 1
10
209.070100
20
89.930824
11
211.108047
21
87.791469
0
LINE
8
Layer 1
10
211.108047
20
87.791469
11
215.947875
21
83.489250
0
LINE
8
Layer 1
10
215.947875
20
83.489250
11
219.915266
21
80.396406
0
LINE
8
Layer 1
10
219.915266
20
80.396406
11
220.862666
21
79.768770
0
LINE
8
Layer 1
10
220.862666
20
79.768770
11
220.953195
21
79.766070
0
LINE
8
Layer 1
10
220.953195
20
79.766070
11
220.741000
21
80.001800
0
LINE
8
Layer 1
10
220.741000
20
80.001800
11
218.422180
21
78.438509
0
LINE
8
Layer 1
10
218.422180
20
78.438509
11
215.878313
21
77.310531
0
LINE
8
Layer 1
10
215.878313
20
77.310531
11
213.243789
21
76.688963
0
LINE
8
Layer 1
10
213.243789
20
76.688963
11
211.934528
21
76.590300
0
LINE
8
Layer 1
10
211.934528
20
76.590300
11
210.653000
21
76.644900
0
LINE
8
Layer 1
10
210.653000
20
76.644900
11
209.416003
21
76.861650
0
LINE
8
Layer 1
10
209.416003
20
76.861650
11
208.240336
21
77.249437
0
LINE
8
Layer 1
10
208.240336
20
77.249437
11
207.142798
21
77.817147
0
LINE
8
Layer 1
10
207.142798
20
77.817147
11
206.140187
21
78.573669
0
LINE
8
Layer 1
10
206.140187
20
78.573669
11
205.249304
21
79.527888
0
LINE
8
Layer 1
10
205.249304
20
79.527888
11
204.486945
21
80.688691
0
LINE
8
Layer 1
10
204.486945
20
80.688691
11
203.869911
21
82.064967
0
LINE
8
Layer 1
10
203.869911
20
82.064967
11
203.415000
21
83.665600
0
LINE
8
Layer 1
10
203.415000
20
83.665600
11
203.290943
21
84.865620
0
LINE
8
Layer 1
10
203.290943
20
84.865620
11
203.317297
21
86.181691
0
LINE
8
Layer 1
10
203.317297
20
86.181691
11
203.512471
21
87.529866
0
LINE
8
Layer 1
10
203.512471
20
87.529866
11
203.894875
21
88.826200
0
LINE
8
Layer 1
10
203.894875
20
88.826200
11
204.482920
21
89.986746
0
LINE
8
Layer 1
10
204.482920
20
89.986746
11
205.295016
21
90.927559
0
LINE
8
Layer 1
10
205.295016
20
90.927559
11
206.349572
21
91.564693
0
LINE
8
Layer 1
10
206.349572
20
91.564693
11
207.665000
21
91.814200
0
LINE
8
Layer 1
10
207.665000
20
91.814200
11
207.665000
21
91.814200
0
LINE
8
Layer 1
10
235.385000
20
88.288700
11
236.525670
21
87.449520
0
LINE
8
Layer 1
10
236.525670
20
87.449520
11
237.471471
21
86.442963
0
LINE
8
Layer 1
10
237.471471
20
86.442963
11
238.249837
21
85.289947
0
LINE
8
Layer 1
10
238.249837
20
85.289947
11
238.888203
21
84.011389
0
LINE
8
Layer 1
10
238.888203
20
84.011389
11
239.854678
21
81.161317
0
LINE
8
Layer 1
10
239.854678
20
81.161317
11
240.590375
21
78.060088
0
LINE
8
Layer 1
10
240.590375
20
78.060088
11
241.314775
21
74.875041
0
LINE
8
Layer 1
10
241.314775
20
74.875041
11
242.247359
21
71.773517
0
LINE
8
Layer 1
10
242.247359
20
71.773517
11
242.860308
21
70.306370
0
LINE
8
Layer 1
10
242.860308
20
70.306370
11
243.607607
21
68.922857
0
LINE
8
Layer 1
10
243.607607
20
68.922857
11
244.516693
21
67.643894
0
LINE
8
Layer 1
10
244.516693
20
67.643894
11
245.615000
21
66.490400
0
LINE
8
Layer 1
10
245.615000
20
66.490400
11
246.430644
21
65.709031
0
LINE
8
Layer 1
10
246.430644
20
65.709031
11
247.156309
21
64.755094
0
LINE
8
Layer 1
10
247.156309
20
64.755094
11
248.310594
21
62.518992
0
LINE
8
Layer 1
10
248.310594
20
62.518992
11
249.023645
21
60.161060
0
LINE
8
Layer 1
10
249.023645
20
60.161060
11
249.241250
21
58.060263
0
LINE
8
Layer 1
10
249.241250
20
58.060263
11
249.147320
21
57.224715
0
LINE
8
Layer 1
10
249.147320
20
57.224715
11
248.909199
21
56.595563
0
LINE
8
Layer 1
10
248.909199
20
56.595563
11
248.520112
21
56.220177
0
LINE
8
Layer 1
10
248.520112
20
56.220177
11
247.973281
21
56.145927
0
LINE
8
Layer 1
10
247.973281
20
56.145927
11
247.261931
21
56.420183
0
LINE
8
Layer 1
10
247.261931
20
56.420183
11
246.379285
21
57.090317
0
LINE
8
Layer 1
10
246.379285
20
57.090317
11
245.318567
21
58.203699
0
LINE
8
Layer 1
10
245.318567
20
58.203699
11
244.073000
21
59.807700
0
LINE
8
Layer 1
10
244.073000
20
59.807700
11
243.392923
21
61.481655
0
LINE
8
Layer 1
10
243.392923
20
61.481655
11
242.467320
21
63.208365
0
LINE
8
Layer 1
10
242.467320
20
63.208365
11
240.100813
21
66.786119
0
LINE
8
Layer 1
10
240.100813
20
66.786119
11
237.416023
21
70.473101
0
LINE
8
Layer 1
10
237.416023
20
70.473101
11
234.855500
21
74.201450
0
LINE
8
Layer 1
10
234.855500
20
74.201450
11
233.760134
21
76.059931
0
LINE
8
Layer 1
10
233.760134
20
76.059931
11
232.861789
21
77.903305
0
LINE
8
Layer 1
10
232.861789
20
77.903305
11
232.215784
21
79.723092
0
LINE
8
Layer 1
10
232.215784
20
79.723092
11
231.877438
21
81.510806
0
LINE
8
Layer 1
10
231.877438
20
81.510806
11
231.902067
21
83.257967
0
LINE
8
Layer 1
10
231.902067
20
83.257967
11
232.344992
21
84.956091
0
LINE
8
Layer 1
10
232.344992
20
84.956091
11
233.261530
21
86.596697
0
LINE
8
Layer 1
10
233.261530
20
86.596697
11
234.707000
21
88.171300
0
LINE
8
Layer 1
10
234.707000
20
88.171300
11
235.385000
21
88.288700
0
LINE
8
Layer 1
10
235.385000
20
88.288700
11
235.385000
21
88.288700
0
LINE
8
Layer 1
10
235.385000
20
88.288700
11
235.385000
21
88.288700
0
LINE
8
Layer 1
10
103.787000
20
86.549100
11
105.470454
21
86.189931
0
LINE
8
Layer 1
10
105.470454
20
86.189931
11
107.046195
21
85.630793
0
LINE
8
Layer 1
10
107.046195
20
85.630793
11
108.505979
21
84.888967
0
LINE
8
Layer 1
10
108.505979
20
84.888967
11
109.841563
21
83.981734
0
LINE
8
Layer 1
10
109.841563
20
83.981734
11
111.044700
21
82.926376
0
LINE
8
Layer 1
10
111.044700
20
82.926376
11
112.107148
21
81.740171
0
LINE
8
Layer 1
10
112.107148
20
81.740171
11
113.020663
21
80.440403
0
LINE
8
Layer 1
10
113.020663
20
80.440403
11
113.777000
21
79.044350
0
LINE
8
Layer 1
10
113.777000
20
79.044350
11
114.367915
21
77.569294
0
LINE
8
Layer 1
10
114.367915
20
77.569294
11
114.785164
21
76.032516
0
LINE
8
Layer 1
10
114.785164
20
76.032516
11
115.020503
21
74.451296
0
LINE
8
Layer 1
10
115.020503
20
74.451296
11
115.065687
21
72.842916
0
LINE
8
Layer 1
10
115.065687
20
72.842916
11
114.912474
21
71.224655
0
LINE
8
Layer 1
10
114.912474
20
71.224655
11
114.552617
21
69.613795
0
LINE
8
Layer 1
10
114.552617
20
69.613795
11
113.977874
21
68.027616
0
LINE
8
Layer 1
10
113.977874
20
68.027616
11
113.180000
21
66.483400
0
LINE
8
Layer 1
10
113.180000
20
66.483400
11
113.063821
21
64.776115
0
LINE
8
Layer 1
10
113.063821
20
64.776115
11
112.465103
21
63.176576
0
LINE
8
Layer 1
10
112.465103
20
63.176576
11
111.462514
21
61.704716
0
LINE
8
Layer 1
10
111.462514
20
61.704716
11
110.134722
21
60.380470
0
LINE
8
Layer 1
10
110.134722
20
60.380470
11
108.560394
21
59.223773
0
LINE
8
Layer 1
10
108.560394
20
59.223773
11
106.818199
21
58.254558
0
LINE
8
Layer 1
10
106.818199
20
58.254558
11
104.986803
21
57.492759
0
LINE
8
Layer 1
10
104.986803
20
57.492759
11
103.144875
21
56.958312
0
LINE
8
Layer 1
10
103.144875
20
56.958312
11
101.371082
21
56.671151
0
LINE
8
Layer 1
10
101.371082
20
56.671151
11
99.744092
21
56.651210
0
LINE
8
Layer 1
10
99.744092
20
56.651210
11
98.342572
21
56.918422
0
LINE
8
Layer 1
10
98.342572
20
56.918422
11
97.245191
21
57.492723
0
LINE
8
Layer 1
10
97.245191
20
57.492723
11
96.530615
21
58.394047
0
LINE
8
Layer 1
10
96.530615
20
58.394047
11
96.277513
21
59.642329
0
LINE
8
Layer 1
10
96.277513
20
59.642329
11
96.564552
21
61.257501
0
LINE
8
Layer 1
10
96.564552
20
61.257501
11
97.470400
21
63.259500
0
LINE
8
Layer 1
10
97.470400
20
63.259500
11
99.035704
21
65.930754
0
LINE
8
Layer 1
10
99.035704
20
65.930754
11
100.357466
21
68.690892
0
LINE
8
Layer 1
10
100.357466
20
68.690892
11
101.446639
21
71.529749
0
LINE
8
Layer 1
10
101.446639
20
71.529749
11
102.314175
21
74.437162
0
LINE
8
Layer 1
10
102.314175
20
74.437162
11
102.971027
21
77.402968
0
LINE
8
Layer 1
10
102.971027
20
77.402968
11
103.428147
21
80.417002
0
LINE
8
Layer 1
10
103.428147
20
80.417002
11
103.696487
21
83.469100
0
LINE
8
Layer 1
10
103.696487
20
83.469100
11
103.787000
21
86.549100
0
LINE
8
Layer 1
10
103.787000
20
86.549100
11
103.787000
21
86.549100
0
LINE
8
Layer 1
10
182.343000
20
84.255700
11
183.467816
21
83.775782
0
LINE
8
Layer 1
10
183.467816
20
83.775782
11
184.715088
21
83.424961
0
LINE
8
Layer 1
10
184.715088
20
83.424961
11
187.407203
21
83.000864
0
LINE
8
Layer 1
10
187.407203
20
83.000864
11
190.079748
21
82.763913
0
LINE
8
Layer 1
10
190.079748
20
82.763913
11
192.393125
21
82.494613
0
LINE
8
Layer 1
10
192.393125
20
82.494613
11
193.309001
21
82.279239
0
LINE
8
Layer 1
10
193.309001
20
82.279239
11
194.007736
21
81.973467
0
LINE
8
Layer 1
10
194.007736
20
81.973467
11
194.446881
21
81.549859
0
LINE
8
Layer 1
10
194.446881
20
81.549859
11
194.583984
21
80.980980
0
LINE
8
Layer 1
10
194.583984
20
80.980980
11
194.376598
21
80.239391
0
LINE
8
Layer 1
10
194.376598
20
80.239391
11
193.782271
21
79.297656
0
LINE
8
Layer 1
10
193.782271
20
79.297656
11
192.758555
21
78.128338
0
LINE
8
Layer 1
10
192.758555
20
78.128338
11
191.263000
21
76.704000
0
LINE
8
Layer 1
10
191.263000
20
76.704000
11
190.519139
21
75.596122
0
LINE
8
Layer 1
10
190.519139
20
75.596122
11
189.662344
21
74.769201
0
LINE
8
Layer 1
10
189.662344
20
74.769201
11
188.720799
21
74.205293
0
LINE
8
Layer 1
10
188.720799
20
74.205293
11
187.722688
21
73.886455
0
LINE
8
Layer 1
10
187.722688
20
73.886455
11
186.696193
21
73.794741
0
LINE
8
Layer 1
10
186.696193
20
73.794741
11
185.669500
21
73.912209
0
LINE
8
Layer 1
10
185.669500
20
73.912209
11
184.670791
21
74.220914
0
LINE
8
Layer 1
10
184.670791
20
74.220914
11
183.728250
21
74.702912
0
LINE
8
Layer 1
10
183.728250
20
74.702912
11
182.870061
21
75.340261
0
LINE
8
Layer 1
10
182.870061
20
75.340261
11
182.124406
21
76.115015
0
LINE
8
Layer 1
10
182.124406
20
76.115015
11
181.519471
21
77.009230
0
LINE
8
Layer 1
10
181.519471
20
77.009230
11
181.083438
21
78.004964
0
LINE
8
Layer 1
10
181.083438
20
78.004964
11
180.844490
21
79.084272
0
LINE
8
Layer 1
10
180.844490
20
79.084272
11
180.830812
21
80.229210
0
LINE
8
Layer 1
10
180.830812
20
80.229210
11
181.070588
21
81.421834
0
LINE
8
Layer 1
10
181.070588
20
81.421834
11
181.592000
21
82.644200
0
LINE
8
Layer 1
10
181.592000
20
82.644200
11
181.747000
21
83.564588
0
LINE
8
Layer 1
10
181.747000
20
83.564588
11
181.974781
21
83.962433
0
LINE
8
Layer 1
10
181.974781
20
83.962433
11
182.343000
21
84.255700
0
LINE
8
Layer 1
10
182.343000
20
84.255700
11
182.343000
21
84.255700
0
LINE
8
Layer 1
10
155.459000
20
84.045500
11
156.812996
21
83.469872
0
LINE
8
Layer 1
10
156.812996
20
83.469872
11
157.805232
21
82.729139
0
LINE
8
Layer 1
10
157.805232
20
82.729139
11
158.463271
21
81.852514
0
LINE
8
Layer 1
10
158.463271
20
81.852514
11
158.814672
21
80.869208
0
LINE
8
Layer 1
10
158.814672
20
80.869208
11
158.886997
21
79.808435
0
LINE
8
Layer 1
10
158.886997
20
79.808435
11
158.707807
21
78.699407
0
LINE
8
Layer 1
10
158.707807
20
78.699407
11
158.304662
21
77.571337
0
LINE
8
Layer 1
10
158.304662
20
77.571337
11
157.705125
21
76.453437
0
LINE
8
Layer 1
10
157.705125
20
76.453437
11
156.936756
21
75.374921
0
LINE
8
Layer 1
10
156.936756
20
75.374921
11
156.027115
21
74.365001
0
LINE
8
Layer 1
10
156.027115
20
74.365001
11
155.003765
21
73.452889
0
LINE
8
Layer 1
10
155.003765
20
73.452889
11
153.894266
21
72.667798
0
LINE
8
Layer 1
10
153.894266
20
72.667798
11
152.726178
21
72.038942
0
LINE
8
Layer 1
10
152.726178
20
72.038942
11
151.527064
21
71.595531
0
LINE
8
Layer 1
10
151.527064
20
71.595531
11
150.324485
21
71.366780
0
LINE
8
Layer 1
10
150.324485
20
71.366780
11
149.146000
21
71.381900
0
LINE
8
Layer 1
10
149.146000
20
71.381900
11
147.028428
21
71.466872
0
LINE
8
Layer 1
10
147.028428
20
71.466872
11
145.070172
21
71.853980
0
LINE
8
Layer 1
10
145.070172
20
71.853980
11
143.445924
21
72.472526
0
LINE
8
Layer 1
10
143.445924
20
72.472526
11
142.330375
21
73.251812
0
LINE
8
Layer 1
10
142.330375
20
73.251812
11
142.017954
21
73.679640
0
LINE
8
Layer 1
10
142.017954
20
73.679640
11
141.898217
21
74.121141
0
LINE
8
Layer 1
10
141.898217
20
74.121141
11
141.993000
21
74.567478
0
LINE
8
Layer 1
10
141.993000
20
74.567478
11
142.324141
21
75.009814
0
LINE
8
Layer 1
10
142.324141
20
75.009814
11
142.913474
21
75.439311
0
LINE
8
Layer 1
10
142.913474
20
75.439311
11
143.782838
21
75.847133
0
LINE
8
Layer 1
10
143.782838
20
75.847133
11
146.449000
21
76.562400
0
LINE
8
Layer 1
10
146.449000
20
76.562400
11
147.259167
21
76.778768
0
LINE
8
Layer 1
10
147.259167
20
76.778768
11
147.982166
21
77.121473
0
LINE
8
Layer 1
10
147.982166
20
77.121473
11
149.213141
21
78.106330
0
LINE
8
Layer 1
10
149.213141
20
78.106330
11
150.234889
21
79.357837
0
LINE
8
Layer 1
10
150.234889
20
79.357837
11
151.140375
21
80.716863
0
LINE
8
Layer 1
10
151.140375
20
80.716863
11
152.022564
21
82.024274
0
LINE
8
Layer 1
10
152.022564
20
82.024274
11
152.974422
21
83.120939
0
LINE
8
Layer 1
10
152.974422
20
83.120939
11
154.088912
21
83.847725
0
LINE
8
Layer 1
10
154.088912
20
83.847725
11
154.736196
21
84.022685
0
LINE
8
Layer 1
10
154.736196
20
84.022685
11
155.459000
21
84.045500
0
LINE
8
Layer 1
10
155.459000
20
84.045500
11
155.459000
21
84.045500
0
LINE
8
Layer 1
10
176.406000
20
81.471600
11
176.979379
21
79.550230
0
LINE
8
Layer 1
10
176.979379
20
79.550230
11
177.116656
21
77.383286
0
LINE
8
Layer 1
10
177.116656
20
77.383286
11
176.831918
21
75.194777
0
LINE
8
Layer 1
10
176.831918
20
75.194777
11
176.139250
21
73.208713
0
LINE
8
Layer 1
10
176.139250
20
73.208713
11
175.644344
21
72.361600
0
LINE
8
Layer 1
10
175.644344
20
72.361600
11
175.052738
21
71.649103
0
LINE
8
Layer 1
10
175.052738
20
71.649103
11
174.366193
21
71.099222
0
LINE
8
Layer 1
10
174.366193
20
71.099222
11
173.586469
21
70.739958
0
LINE
8
Layer 1
10
173.586469
20
70.739958
11
172.715327
21
70.599312
0
LINE
8
Layer 1
10
172.715327
20
70.599312
11
171.754527
21
70.705287
0
LINE
8
Layer 1
10
171.754527
20
70.705287
11
170.705832
21
71.085882
0
LINE
8
Layer 1
10
170.705832
20
71.085882
11
169.571000
21
71.769100
0
LINE
8
Layer 1
10
169.571000
20
71.769100
11
167.781432
21
73.649933
0
LINE
8
Layer 1
10
167.781432
20
73.649933
11
166.596141
21
75.164573
0
LINE
8
Layer 1
10
166.596141
20
75.164573
11
166.011623
21
76.353730
0
LINE
8
Layer 1
10
166.011623
20
76.353730
11
166.024375
21
77.258113
0
LINE
8
Layer 1
10
166.024375
20
77.258113
11
166.630893
21
77.918431
0
LINE
8
Layer 1
10
166.630893
20
77.918431
11
167.827672
21
78.375395
0
LINE
8
Layer 1
10
167.827672
20
78.375395
11
169.611209
21
78.669715
0
LINE
8
Layer 1
10
169.611209
20
78.669715
11
171.978000
21
78.842100
0
LINE
8
Layer 1
10
171.978000
20
78.842100
11
174.319875
21
79.975462
0
LINE
8
Layer 1
10
174.319875
20
79.975462
11
175.430484
21
80.668945
0
LINE
8
Layer 1
10
175.430484
20
80.668945
11
176.406000
21
81.471600
0
LINE
8
Layer 1
10
176.406000
20
81.471600
11
176.406000
21
81.471600
0
LINE
8
Layer 1
10
200.803000
20
80.206400
11
201.138028
21
78.999132
0
LINE
8
Layer 1
10
201.138028
20
78.999132
11
201.774721
21
77.868681
0
LINE
8
Layer 1
10
201.774721
20
77.868681
11
202.648182
21
76.811790
0
LINE
8
Layer 1
10
202.648182
20
76.811790
11
203.693516
21
75.825202
0
LINE
8
Layer 1
10
203.693516
20
75.825202
11
206.040209
21
74.049906
0
LINE
8
Layer 1
10
206.040209
20
74.049906
11
208.295625
21
72.516738
0
LINE
8
Layer 1
10
208.295625
20
72.516738
11
209.940588
21
71.199639
0
LINE
8
Layer 1
10
209.940588
20
71.199639
11
210.371907
21
70.613974
0
LINE
8
Layer 1
10
210.371907
20
70.613974
11
210.455922
21
70.072555
0
LINE
8
Layer 1
10
210.455922
20
70.072555
11
210.127736
21
69.572125
0
LINE
8
Layer 1
10
210.127736
20
69.572125
11
209.322451
21
69.109427
0
LINE
8
Layer 1
10
209.322451
20
69.109427
11
207.975172
21
68.681205
0
LINE
8
Layer 1
10
207.975172
20
68.681205
11
206.021000
21
68.284200
0
LINE
8
Layer 1
10
206.021000
20
68.284200
11
204.923000
21
68.091873
0
LINE
8
Layer 1
10
204.923000
20
68.091873
11
203.843887
21
68.113187
0
LINE
8
Layer 1
10
203.843887
20
68.113187
11
202.799620
21
68.327699
0
LINE
8
Layer 1
10
202.799620
20
68.327699
11
201.806156
21
68.714967
0
LINE
8
Layer 1
10
201.806156
20
68.714967
11
200.879455
21
69.254548
0
LINE
8
Layer 1
10
200.879455
20
69.254548
11
200.035473
21
69.925999
0
LINE
8
Layer 1
10
200.035473
20
69.925999
11
198.659500
21
71.582738
0
LINE
8
Layer 1
10
198.659500
20
71.582738
11
198.159425
21
72.527140
0
LINE
8
Layer 1
10
198.159425
20
72.527140
11
197.805902
21
73.521640
0
LINE
8
Layer 1
10
197.805902
20
73.521640
11
197.614889
21
74.545796
0
LINE
8
Layer 1
10
197.614889
20
74.545796
11
197.602344
21
75.579164
0
LINE
8
Layer 1
10
197.602344
20
75.579164
11
197.784224
21
76.601301
0
LINE
8
Layer 1
10
197.784224
20
76.601301
11
198.176488
21
77.591765
0
LINE
8
Layer 1
10
198.176488
20
77.591765
11
198.795094
21
78.530112
0
LINE
8
Layer 1
10
198.795094
20
78.530112
11
199.656000
21
79.395900
0
LINE
8
Layer 1
10
199.656000
20
79.395900
11
200.116625
21
79.972675
0
LINE
8
Layer 1
10
200.116625
20
79.972675
11
200.803000
21
80.206400
0
LINE
8
Layer 1
10
200.803000
20
80.206400
11
200.803000
21
80.206400
0
LINE
8
Layer 1
10
118.835000
20
79.370500
11
120.998410
21
77.649941
0
LINE
8
Layer 1
10
120.998410
20
77.649941
11
123.493531
21
75.922917
0
LINE
8
Layer 1
10
123.493531
20
75.922917
11
126.056199
21
74.127369
0
LINE
8
Layer 1
10
126.056199
20
74.127369
11
128.422250
21
72.201238
0
LINE
8
Layer 1
10
128.422250
20
72.201238
11
129.448993
21
71.169810
0
LINE
8
Layer 1
10
129.448993
20
71.169810
11
130.327520
21
70.082464
0
LINE
8
Layer 1
10
130.327520
20
70.082464
11
131.024810
21
68.931443
0
LINE
8
Layer 1
10
131.024810
20
68.931443
11
131.507844
21
67.708989
0
LINE
8
Layer 1
10
131.507844
20
67.708989
11
131.743600
21
66.407345
0
LINE
8
Layer 1
10
131.743600
20
66.407345
11
131.699059
21
65.018754
0
LINE
8
Layer 1
10
131.699059
20
65.018754
11
131.341199
21
63.535458
0
LINE
8
Layer 1
10
131.341199
20
63.535458
11
130.637000
21
61.949700
0
LINE
8
Layer 1
10
130.637000
20
61.949700
11
129.637250
21
60.593871
0
LINE
8
Layer 1
10
129.637250
20
60.593871
11
128.398996
21
59.491023
0
LINE
8
Layer 1
10
128.398996
20
59.491023
11
126.979049
21
58.636324
0
LINE
8
Layer 1
10
126.979049
20
58.636324
11
125.434219
21
58.024941
0
LINE
8
Layer 1
10
125.434219
20
58.024941
11
123.821314
21
57.652040
0
LINE
8
Layer 1
10
123.821314
20
57.652040
11
122.197145
21
57.512788
0
LINE
8
Layer 1
10
122.197145
20
57.512788
11
120.618520
21
57.602352
0
LINE
8
Layer 1
10
120.618520
20
57.602352
11
119.142250
21
57.915900
0
LINE
8
Layer 1
10
119.142250
20
57.915900
11
117.825144
21
58.448598
0
LINE
8
Layer 1
10
117.825144
20
58.448598
11
116.724012
21
59.195612
0
LINE
8
Layer 1
10
116.724012
20
59.195612
11
115.895663
21
60.152110
0
LINE
8
Layer 1
10
115.895663
20
60.152110
11
115.396906
21
61.313259
0
LINE
8
Layer 1
10
115.396906
20
61.313259
11
115.284552
21
62.674226
0
LINE
8
Layer 1
10
115.284552
20
62.674226
11
115.615410
21
64.230177
0
LINE
8
Layer 1
10
115.615410
20
64.230177
11
116.446290
21
65.976279
0
LINE
8
Layer 1
10
116.446290
20
65.976279
11
117.834000
21
67.907700
0
LINE
8
Layer 1
10
117.834000
20
67.907700
11
118.462906
21
70.722962
0
LINE
8
Layer 1
10
118.462906
20
70.722962
11
118.877500
21
73.626050
0
LINE
8
Layer 1
10
118.877500
20
73.626050
11
119.020594
21
76.535663
0
LINE
8
Layer 1
10
119.020594
20
76.535663
11
118.835000
21
79.370500
0
LINE
8
Layer 1
10
118.835000
20
79.370500
11
118.835000
21
79.370500
0
LINE
8
Layer 1
10
226.299000
20
78.607300
11
227.597318
21
77.936376
0
LINE
8
Layer 1
10
227.597318
20
77.936376
11
228.786119
21
77.097783
0
LINE
8
Layer 1
10
228.786119
20
77.097783
11
229.873615
21
76.109269
0
LINE
8
Layer 1
10
229.873615
20
76.109269
11
230.868016
21
74.988580
0
LINE
8
Layer 1
10
230.868016
20
74.988580
11
232.610373
21
72.421658
0
LINE
8
Layer 1
10
232.610373
20
72.421658
11
234.078875
21
69.538987
0
LINE
8
Layer 1
10
234.078875
20
69.538987
11
235.339205
21
66.482537
0
LINE
8
Layer 1
10
235.339205
20
66.482537
11
236.457047
21
63.394277
0
LINE
8
Layer 1
10
236.457047
20
63.394277
11
238.528000
21
57.690200
0
LINE
8
Layer 1
10
238.528000
20
57.690200
11
237.530448
21
57.328919
0
LINE
8
Layer 1
10
237.530448
20
57.328919
11
236.506898
21
57.267416
0
LINE
8
Layer 1
10
236.506898
20
57.267416
11
235.465759
21
57.475005
0
LINE
8
Layer 1
10
235.465759
20
57.475005
11
234.415437
21
57.920997
0
LINE
8
Layer 1
10
234.415437
20
57.920997
11
233.364343
21
58.574705
0
LINE
8
Layer 1
10
233.364343
20
58.574705
11
232.320883
21
59.405442
0
LINE
8
Layer 1
10
232.320883
20
59.405442
11
230.290500
21
61.475250
0
LINE
8
Layer 1
10
230.290500
20
61.475250
11
228.391555
21
63.884921
0
LINE
8
Layer 1
10
228.391555
20
63.884921
11
226.691313
21
66.388953
0
LINE
8
Layer 1
10
226.691313
20
66.388953
11
224.156000
21
70.698100
0
LINE
8
Layer 1
10
224.156000
20
70.698100
11
223.692402
21
71.756165
0
LINE
8
Layer 1
10
223.692402
20
71.756165
11
223.370344
21
72.938087
0
LINE
8
Layer 1
10
223.370344
20
72.938087
11
223.223551
21
74.172023
0
LINE
8
Layer 1
10
223.223551
20
74.172023
11
223.285750
21
75.386125
0
LINE
8
Layer 1
10
223.285750
20
75.386125
11
223.590668
21
76.508549
0
LINE
8
Layer 1
10
223.590668
20
76.508549
11
224.172031
21
77.467450
0
LINE
8
Layer 1
10
224.172031
20
77.467450
11
225.063566
21
78.190982
0
LINE
8
Layer 1
10
225.063566
20
78.190982
11
226.299000
21
78.607300
0
LINE
8
Layer 1
10
226.299000
20
78.607300
11
226.299000
21
78.607300
0
LINE
8
Layer 1
10
161.414000
20
75.208000
11
163.216719
21
72.704309
0
LINE
8
Layer 1
10
163.216719
20
72.704309
11
164.138855
21
71.167995
0
LINE
8
Layer 1
10
164.138855
20
71.167995
11
164.909000
21
69.564450
0
LINE
8
Layer 1
10
164.909000
20
69.564450
11
165.402770
21
67.985486
0
LINE
8
Layer 1
10
165.402770
20
67.985486
11
165.495781
21
66.522916
0
LINE
8
Layer 1
10
165.495781
20
66.522916
11
165.353133
21
65.863969
0
LINE
8
Layer 1
10
165.353133
20
65.863969
11
165.063652
21
65.268550
0
LINE
8
Layer 1
10
165.063652
20
65.268550
11
164.611791
21
64.748135
0
LINE
8
Layer 1
10
164.611791
20
64.748135
11
163.982000
21
64.314200
0
LINE
8
Layer 1
10
163.982000
20
64.314200
11
161.336641
21
65.202603
0
LINE
8
Layer 1
10
161.336641
20
65.202603
11
159.870178
21
65.876737
0
LINE
8
Layer 1
10
159.870178
20
65.876737
11
158.507625
21
66.696425
0
LINE
8
Layer 1
10
158.507625
20
66.696425
11
157.398807
21
67.655866
0
LINE
8
Layer 1
10
157.398807
20
67.655866
11
156.693547
21
68.749259
0
LINE
8
Layer 1
10
156.693547
20
68.749259
11
156.539072
21
69.344375
0
LINE
8
Layer 1
10
156.539072
20
69.344375
11
156.541670
21
69.970804
0
LINE
8
Layer 1
10
156.541670
20
69.970804
11
156.720070
21
70.627821
0
LINE
8
Layer 1
10
156.720070
20
70.627821
11
157.093000
21
71.314700
0
LINE
8
Layer 1
10
157.093000
20
71.314700
11
159.097875
21
73.445813
0
LINE
8
Layer 1
10
159.097875
20
73.445813
11
160.192516
21
74.410798
0
LINE
8
Layer 1
10
160.192516
20
74.410798
11
161.414000
21
75.208000
0
LINE
8
Layer 1
10
161.414000
20
75.208000
11
161.414000
21
75.208000
0
LINE
8
Layer 1
10
217.406000
20
74.441200
11
218.465454
21
74.034962
0
LINE
8
Layer 1
10
218.465454
20
74.034962
11
219.265645
21
73.482054
0
LINE
8
Layer 1
10
219.265645
20
73.482054
11
219.845505
21
72.801536
0
LINE
8
Layer 1
10
219.845505
20
72.801536
11
220.243969
21
72.012467
0
LINE
8
Layer 1
10
220.243969
20
72.012467
11
220.652434
21
70.184912
0
LINE
8
Layer 1
10
220.652434
20
70.184912
11
220.802500
21
68.151862
0
LINE
8
Layer 1
10
220.802500
20
68.151862
11
221.005629
21
66.065793
0
LINE
8
Layer 1
10
221.005629
20
66.065793
11
221.224423
21
65.050523
0
LINE
8
Layer 1
10
221.224423
20
65.050523
11
221.573281
21
64.079177
0
LINE
8
Layer 1
10
221.573281
20
64.079177
11
222.091135
21
63.170812
0
LINE
8
Layer 1
10
222.091135
20
63.170812
11
222.816918
21
62.344488
0
LINE
8
Layer 1
10
222.816918
20
62.344488
11
223.789562
21
61.619264
0
LINE
8
Layer 1
10
223.789562
20
61.619264
11
225.048000
21
61.014200
0
LINE
8
Layer 1
10
225.048000
20
61.014200
11
225.832029
21
59.587847
0
LINE
8
Layer 1
10
225.832029
20
59.587847
11
226.123672
21
58.450352
0
LINE
8
Layer 1
10
226.123672
20
58.450352
11
225.988447
21
57.588549
0
LINE
8
Layer 1
10
225.988447
20
57.588549
11
225.491875
21
56.989275
0
LINE
8
Layer 1
10
225.491875
20
56.989275
11
224.699475
21
56.639367
0
LINE
8
Layer 1
10
224.699475
20
56.639367
11
223.676766
21
56.525661
0
LINE
8
Layer 1
10
223.676766
20
56.525661
11
222.489268
21
56.634993
0
LINE
8
Layer 1
10
222.489268
20
56.634993
11
221.202500
21
56.954200
0
LINE
8
Layer 1
10
221.202500
20
56.954200
11
219.881982
21
57.470118
0
LINE
8
Layer 1
10
219.881982
20
57.470118
11
218.593234
21
58.169583
0
LINE
8
Layer 1
10
218.593234
20
58.169583
11
217.401775
21
59.039431
0
LINE
8
Layer 1
10
217.401775
20
59.039431
11
216.373125
21
60.066500
0
LINE
8
Layer 1
10
216.373125
20
60.066500
11
215.572803
21
61.237625
0
LINE
8
Layer 1
10
215.572803
20
61.237625
11
215.066328
21
62.539642
0
LINE
8
Layer 1
10
215.066328
20
62.539642
11
214.919221
21
63.959388
0
LINE
8
Layer 1
10
214.919221
20
63.959388
11
215.197000
21
65.483700
0
LINE
8
Layer 1
10
215.197000
20
65.483700
11
215.244453
21
67.800423
0
LINE
8
Layer 1
10
215.244453
20
67.800423
11
215.340375
21
70.447587
0
LINE
8
Layer 1
10
215.340375
20
70.447587
11
215.541541
21
71.716019
0
LINE
8
Layer 1
10
215.541541
20
71.716019
11
215.916859
21
72.852183
0
LINE
8
Layer 1
10
215.916859
20
72.852183
11
216.520342
21
73.784452
0
LINE
8
Layer 1
10
216.520342
20
73.784452
11
217.406000
21
74.441200
0
LINE
8
Layer 1
10
217.406000
20
74.441200
11
217.406000
21
74.441200
0
LINE
8
Layer 1
10
136.185000
20
72.791000
11
138.306586
21
71.568697
0
LINE
8
Layer 1
10
138.306586
20
71.568697
11
140.434313
21
69.995319
0
LINE
8
Layer 1
10
140.434313
20
69.995319
11
142.360758
21
68.146325
0
LINE
8
Layer 1
10
142.360758
20
68.146325
11
143.878500
21
66.097175
0
LINE
8
Layer 1
10
143.878500
20
66.097175
11
144.419288
21
65.021122
0
LINE
8
Layer 1
10
144.419288
20
65.021122
11
144.780117
21
63.923328
0
LINE
8
Layer 1
10
144.780117
20
63.923328
11
144.935060
21
62.813224
0
LINE
8
Layer 1
10
144.935060
20
62.813224
11
144.858188
21
61.700244
0
LINE
8
Layer 1
10
144.858188
20
61.700244
11
144.523573
21
60.593819
0
LINE
8
Layer 1
10
144.523573
20
60.593819
11
143.905289
21
59.503381
0
LINE
8
Layer 1
10
143.905289
20
59.503381
11
142.977407
21
58.438364
0
LINE
8
Layer 1
10
142.977407
20
58.438364
11
141.714000
21
57.408200
0
LINE
8
Layer 1
10
141.714000
20
57.408200
11
139.864100
21
56.805052
0
LINE
8
Layer 1
10
139.864100
20
56.805052
11
137.889922
21
56.449958
0
LINE
8
Layer 1
10
137.889922
20
56.449958
11
136.018002
21
56.375919
0
LINE
8
Layer 1
10
136.018002
20
56.375919
11
134.474875
21
56.615938
0
LINE
8
Layer 1
10
134.474875
20
56.615938
11
133.897401
21
56.864031
0
LINE
8
Layer 1
10
133.897401
20
56.864031
11
133.487076
21
57.203013
0
LINE
8
Layer 1
10
133.487076
20
57.203013
11
133.272217
21
57.637011
0
LINE
8
Layer 1
10
133.272217
20
57.637011
11
133.281141
21
58.170148
0
LINE
8
Layer 1
10
133.281141
20
58.170148
11
133.542164
21
58.806551
0
LINE
8
Layer 1
10
133.542164
20
58.806551
11
134.083604
21
59.550344
0
LINE
8
Layer 1
10
134.083604
20
59.550344
11
136.121000
21
61.376600
0
LINE
8
Layer 1
10
136.121000
20
61.376600
11
136.801656
21
62.771715
0
LINE
8
Layer 1
10
136.801656
20
62.771715
11
137.303812
21
64.208698
0
LINE
8
Layer 1
10
137.303812
20
64.208698
11
137.620625
21
65.671142
0
LINE
8
Layer 1
10
137.620625
20
65.671142
11
137.745250
21
67.142638
0
LINE
8
Layer 1
10
137.745250
20
67.142638
11
137.670844
21
68.606779
0
LINE
8
Layer 1
10
137.670844
20
68.606779
11
137.390562
21
70.047158
0
LINE
8
Layer 1
10
137.390562
20
70.047158
11
136.897562
21
71.447367
0
LINE
8
Layer 1
10
136.897562
20
71.447367
11
136.185000
21
72.791000
0
LINE
8
Layer 1
10
136.185000
20
72.791000
11
136.185000
21
72.791000
0
LINE
8
Layer 1
10
184.211000
20
70.734800
11
186.226023
21
70.927924
0
LINE
8
Layer 1
10
186.226023
20
70.927924
11
186.992132
21
70.820657
0
LINE
8
Layer 1
10
186.992132
20
70.820657
11
187.609875
21
70.593527
0
LINE
8
Layer 1
10
187.609875
20
70.593527
11
188.088681
21
70.258546
0
LINE
8
Layer 1
10
188.088681
20
70.258546
11
188.437977
21
69.827732
0
LINE
8
Layer 1
10
188.437977
20
69.827732
11
188.785750
21
68.726663
0
LINE
8
Layer 1
10
188.785750
20
68.726663
11
188.728617
21
67.386442
0
LINE
8
Layer 1
10
188.728617
20
67.386442
11
188.342000
21
65.903192
0
LINE
8
Layer 1
10
188.342000
20
65.903192
11
187.701320
21
64.373037
0
LINE
8
Layer 1
10
187.701320
20
64.373037
11
186.882000
21
62.892100
0
LINE
8
Layer 1
10
186.882000
20
62.892100
11
185.813535
21
60.330012
0
LINE
8
Layer 1
10
185.813535
20
60.330012
11
185.237333
21
59.451031
0
LINE
8
Layer 1
10
185.237333
20
59.451031
11
184.650406
21
58.821389
0
LINE
8
Layer 1
10
184.650406
20
58.821389
11
184.065694
21
58.427061
0
LINE
8
Layer 1
10
184.065694
20
58.427061
11
183.496137
21
58.254019
0
LINE
8
Layer 1
10
183.496137
20
58.254019
11
182.954675
21
58.288236
0
LINE
8
Layer 1
10
182.954675
20
58.288236
11
182.454250
21
58.515687
0
LINE
8
Layer 1
10
182.454250
20
58.515687
11
182.007801
21
58.922345
0
LINE
8
Layer 1
10
182.007801
20
58.922345
11
181.628270
21
59.494183
0
LINE
8
Layer 1
10
181.628270
20
59.494183
11
181.121719
21
61.077292
0
LINE
8
Layer 1
10
181.121719
20
61.077292
11
181.038121
21
63.152802
0
LINE
8
Layer 1
10
181.038121
20
63.152802
11
181.481000
21
65.608500
0
LINE
8
Layer 1
10
181.481000
20
65.608500
11
181.392734
21
67.328961
0
LINE
8
Layer 1
10
181.392734
20
67.328961
11
181.635875
21
69.119687
0
LINE
8
Layer 1
10
181.635875
20
69.119687
11
181.967240
21
69.871312
0
LINE
8
Layer 1
10
181.967240
20
69.871312
11
182.484078
21
70.436395
0
LINE
8
Layer 1
10
182.484078
20
70.436395
11
183.220596
21
70.746903
0
LINE
8
Layer 1
10
183.220596
20
70.746903
11
184.211000
21
70.734800
0
LINE
8
Layer 1
10
184.211000
20
70.734800
11
184.211000
21
70.734800
0
LINE
8
Layer 1
10
175.522000
20
67.277500
11
175.783691
21
66.405386
0
LINE
8
Layer 1
10
175.783691
20
66.405386
11
175.931406
21
65.275842
0
LINE
8
Layer 1
10
175.931406
20
65.275842
11
175.845250
21
62.564862
0
LINE
8
Layer 1
10
175.845250
20
62.564862
11
175.591551
21
61.143624
0
LINE
8
Layer 1
10
175.591551
20
61.143624
11
175.184219
21
59.785352
0
LINE
8
Layer 1
10
175.184219
20
59.785352
11
174.613340
21
58.570144
0
LINE
8
Layer 1
10
174.613340
20
58.570144
11
173.869000
21
57.578100
0
LINE
8
Layer 1
10
173.869000
20
57.578100
11
172.473000
21
59.167259
0
LINE
8
Layer 1
10
172.473000
20
59.167259
11
171.132500
21
61.206625
0
LINE
8
Layer 1
10
171.132500
20
61.206625
11
170.687906
21
62.275856
0
LINE
8
Layer 1
10
170.687906
20
62.275856
11
170.503000
21
63.314503
0
LINE
8
Layer 1
10
170.503000
20
63.314503
11
170.659719
21
64.274855
0
LINE
8
Layer 1
10
170.659719
20
64.274855
11
171.240000
21
65.109200
0
LINE
8
Layer 1
10
171.240000
20
65.109200
11
172.339797
21
65.650975
0
LINE
8
Layer 1
10
172.339797
20
65.650975
11
173.633375
21
66.151050
0
LINE
8
Layer 1
10
173.633375
20
66.151050
11
174.800766
21
66.672275
0
LINE
8
Layer 1
10
174.800766
20
66.672275
11
175.522000
21
67.277500
0
LINE
8
Layer 1
10
175.522000
20
67.277500
11
175.522000
21
67.277500
0
LINE
8
Layer 1
10
197.844000
20
66.559800
11
199.401172
21
65.652486
0
LINE
8
Layer 1
10
199.401172
20
65.652486
11
200.978125
21
64.359363
0
LINE
8
Layer 1
10
200.978125
20
64.359363
11
201.568678
21
63.693381
0
LINE
8
Layer 1
10
201.568678
20
63.693381
11
201.917766
21
63.081258
0
LINE
8
Layer 1
10
201.917766
20
63.081258
11
201.943252
21
62.573096
0
LINE
8
Layer 1
10
201.943252
20
62.573096
11
201.563000
21
62.219000
0
LINE
8
Layer 1
10
201.563000
20
62.219000
11
199.803766
21
60.126892
0
LINE
8
Layer 1
10
199.803766
20
60.126892
11
198.545381
21
58.928883
0
LINE
8
Layer 1
10
198.545381
20
58.928883
11
197.191125
21
57.850237
0
LINE
8
Layer 1
10
197.191125
20
57.850237
11
195.858479
21
57.056456
0
LINE
8
Layer 1
10
195.858479
20
57.056456
11
194.664922
21
56.713039
0
LINE
8
Layer 1
10
194.664922
20
56.713039
11
194.157015
21
56.761936
0
LINE
8
Layer 1
10
194.157015
20
56.761936
11
193.727936
21
56.985487
0
LINE
8
Layer 1
10
193.727936
20
56.985487
11
193.392369
21
57.404379
0
LINE
8
Layer 1
10
193.392369
20
57.404379
11
193.165000
21
58.039300
0
LINE
8
Layer 1
10
193.165000
20
58.039300
11
194.193375
21
60.265172
0
LINE
8
Layer 1
10
194.193375
20
60.265172
11
195.060500
21
62.693675
0
LINE
8
Layer 1
10
195.060500
20
62.693675
11
195.553359
21
63.859009
0
LINE
8
Layer 1
10
195.553359
20
63.859009
11
196.149625
21
64.925116
0
LINE
8
Layer 1
10
196.149625
20
64.925116
11
196.897203
21
65.842033
0
LINE
8
Layer 1
10
196.897203
20
65.842033
11
197.844000
21
66.559800
0
LINE
8
Layer 1
10
197.844000
20
66.559800
11
197.844000
21
66.559800
0
LINE
8
Layer 1
10
150.818000
20
65.685500
11
152.098307
21
65.074069
0
LINE
8
Layer 1
10
152.098307
20
65.074069
11
153.684016
21
64.489152
0
LINE
8
Layer 1
10
153.684016
20
64.489152
11
157.263375
21
63.156013
0
LINE
8
Layer 1
10
157.263375
20
63.156013
11
159.002893
21
62.286368
0
LINE
8
Layer 1
10
159.002893
20
62.286368
11
160.539547
21
61.200392
0
LINE
8
Layer 1
10
160.539547
20
61.200392
11
161.746271
21
59.837373
0
LINE
8
Layer 1
10
161.746271
20
59.837373
11
162.186202
21
59.033000
0
LINE
8
Layer 1
10
162.186202
20
59.033000
11
162.496000
21
58.136600
0
LINE
8
Layer 1
10
162.496000
20
58.136600
11
159.023141
21
57.270855
0
LINE
8
Layer 1
10
159.023141
20
57.270855
11
157.083326
21
56.997947
0
LINE
8
Layer 1
10
157.083326
20
56.997947
11
155.100375
21
56.880787
0
LINE
8
Layer 1
10
155.100375
20
56.880787
11
153.143627
21
56.956204
0
LINE
8
Layer 1
10
153.143627
20
56.956204
11
151.282422
21
57.261027
0
LINE
8
Layer 1
10
151.282422
20
57.261027
11
149.586100
21
57.832082
0
LINE
8
Layer 1
10
149.586100
20
57.832082
11
148.124000
21
58.706200
0
LINE
8
Layer 1
10
148.124000
20
58.706200
11
148.414719
21
60.698150
0
LINE
8
Layer 1
10
148.414719
20
60.698150
11
149.015750
21
62.811150
0
LINE
8
Layer 1
10
149.015750
20
62.811150
11
149.844406
21
64.616500
0
LINE
8
Layer 1
10
149.844406
20
64.616500
11
150.318254
21
65.269837
0
LINE
8
Layer 1
10
150.318254
20
65.269837
11
150.818000
21
65.685500
0
LINE
8
Layer 1
10
150.818000
20
65.685500
11
150.818000
21
65.685500
0
LINE
8
Layer 1
10
210.866000
20
63.650700
11
211.651057
21
63.269454
0
LINE
8
Layer 1
10
211.651057
20
63.269454
11
212.222703
21
62.469128
0
LINE
8
Layer 1
10
212.222703
20
62.469128
11
212.613529
21
61.401357
0
LINE
8
Layer 1
10
212.613529
20
61.401357
11
212.856125
21
60.217775
0
LINE
8
Layer 1
10
212.856125
20
60.217775
11
213.026984
21
58.109709
0
LINE
8
Layer 1
10
213.026984
20
58.109709
11
213.020428
21
57.488493
0
LINE
8
Layer 1
10
213.020428
20
57.488493
11
212.996000
21
57.358000
0
LINE
8
Layer 1
10
212.996000
20
57.358000
11
210.608453
21
57.131583
0
LINE
8
Layer 1
10
210.608453
20
57.131583
11
207.797625
21
57.184512
0
LINE
8
Layer 1
10
207.797625
20
57.184512
11
206.512768
21
57.436896
0
LINE
8
Layer 1
10
206.512768
20
57.436896
11
205.457234
21
57.904511
0
LINE
8
Layer 1
10
205.457234
20
57.904511
11
204.742740
21
58.635824
0
LINE
8
Layer 1
10
204.742740
20
58.635824
11
204.481000
21
59.679300
0
LINE
8
Layer 1
10
204.481000
20
59.679300
11
205.871562
21
60.931702
0
LINE
8
Layer 1
10
205.871562
20
60.931702
11
207.436500
21
62.091412
0
LINE
8
Layer 1
10
207.436500
20
62.091412
11
209.119937
21
63.037917
0
LINE
8
Layer 1
10
209.119937
20
63.037917
11
210.866000
21
63.650700
0
LINE
8
Layer 1
10
210.866000
20
63.650700
11
210.866000
21
63.650700
 0 
ENDSEC
 0 
EOF