<?xml version="1.0" encoding="UTF-8" standalone="no"?>
<!DOCTYPE svg PUBLIC "-//W3C//DTD SVG 1.1//EN" "http://www.w3.org/Graphics/SVG/1.1/DTD/svg11.dtd">
<svg width="100%" height="100%" viewBox="0 0 1512 689" version="1.1" xmlns="http://www.w3.org/2000/svg" xmlns:xlink="http://www.w3.org/1999/xlink" xml:space="preserve" xmlns:serif="http://www.serif.com/" style="fill-rule:evenodd;clip-rule:evenodd;stroke-linejoin:round;stroke-miterlimit:2;">
    <g transform="matrix(1.33333,0,0,1.33333,0,0)">
        <g id="Stift">
            <path id="STROKE_ec5eace6-fc04-47b6-9af9-47a2f9ae1c37" d="M589.695,15.018C553.469,36.52 522.97,71.116 478.37,77.429C430.434,92.602 379.624,83.581 332.61,70.307C305.659,93.004 303.293,145.503 267.967,168.759C227.055,211.949 162.85,215.385 113.726,244.266C117.834,283.412 119.824,326.948 105.958,366.436C92.473,419.806 54.547,462.834 15.078,498.899C53.545,501.655 97.392,500.04 137.901,499.674C263.369,491.492 389.01,502.99 514.527,498.82C573.053,498.025 631.573,496.583 690.191,498.421C776.056,499.525 861.756,495.561 947.555,499.132C992.853,497.716 1037.98,503.287 1083.51,501.815C1103.81,504.322 1135.04,505.896 1104.69,484.797C1070.37,448.713 1027.04,414.31 1018.24,362.18C1012.76,318.881 1023.61,275.32 1030.24,233.181C1000.7,232.055 967.27,246.334 941.58,223.898C903.868,198.424 876.736,159.153 855.135,119.78C843.101,107.505 847.184,62.243 821.32,79.263C779.936,100.052 728.916,109.147 686.849,84.731C647.908,71.418 616.307,44.488 589.695,15.017L589.695,15.018ZM590.641,27.086C603.564,54.155 592.266,85.613 565.273,98.145C521.748,125.203 467.619,134.717 416.88,127.92C397.874,138.468 342.917,91.697 370.058,88.838C405.438,97.277 442.435,105.788 478.028,93.041C507.969,77.21 546.127,74.139 569.281,47.935C576.297,41.464 581.743,30.903 590.641,27.086ZM612.101,55.042C644.166,79.982 679.368,106.403 721.688,109.685C758.301,118.346 797.988,106.57 827.294,90.49C828.53,114.331 817.75,153.843 787.239,151.072C742.27,145.799 693.492,145.234 655.241,117.822C629.391,106.083 602.139,87.259 612.101,55.041ZM597.423,85.299C606.089,106.451 602.638,143.05 585.883,163.292C541.651,185.215 492.272,199.384 442.22,196.898C422.341,196.152 386.598,146.664 407.31,140.919C444.611,140.759 482.724,148.525 518.712,134.781C548.524,124.985 578.454,111.499 597.423,85.299ZM336.668,87.308C353.382,101.919 380.796,124.603 364.875,148.794C326.694,202.693 278.196,256.603 210.103,269.499C192.144,284.534 135.57,255.083 163.31,239.566C208.288,229.847 251.352,207.808 284.057,175.167C308.163,150.179 324.363,119.456 336.668,87.308ZM615.962,105.167C640.063,122.135 659.576,148.04 690.514,154.11C719.203,172.575 768.577,152.139 789.423,169.833C788.305,187.713 778.396,212.358 755.777,205.777C706.93,201.917 653.216,193.181 618.275,155.481C610.88,140.538 610.73,120.685 615.962,105.167ZM839.197,121.813C860.514,152.422 873.73,191.986 907.982,212.064C919.607,228.383 976.8,240.633 968.139,252.498C945.756,278.737 916.063,265.179 896.577,242.124C865.806,217.556 832.633,184.704 824.943,145.339C826.135,136.353 832.494,127.56 839.197,121.813ZM381.845,152.818C395.342,171.528 413.98,198.375 392.987,219.803C373.751,262.741 334.301,287.738 290.595,300.519C262.922,320.966 229.335,308.068 204.576,289.781C208.613,267.156 265.095,275.43 283.512,255.308C320.453,234.247 349.009,202.878 370.802,166.868C373.486,162.173 380.296,157.351 381.845,152.818ZM606.872,166.995C641.454,186.27 671.693,220.332 716.342,216.48C744.479,216.679 792.607,212.293 761.919,251.084C731.68,265.788 695.582,246.462 666.197,235.915C639.572,221.903 592.71,213.798 603.45,173.273C603.808,171.506 604.563,166.855 606.872,166.995ZM815.219,170.295C833.602,192.925 844.458,221.924 867.746,241.039C873.111,261.208 936.077,267.641 920.855,284.878C906.247,302.682 881.075,304.602 864.87,286.452C836.242,266.917 812.8,239.434 795.252,209.796C792.099,194.445 802.309,177.959 815.219,170.295ZM584.747,174.873C600.658,186.921 588.196,225.707 565.2,230.016C532.473,244.073 491.622,258.918 458.101,239.42C432.225,213.191 460.858,203.398 487.359,210.606C523.55,209.866 554.831,193.74 584.747,174.873ZM418.928,203.88C439.855,226.488 441.111,261.801 416.997,283.143C387.008,313.503 344.487,345.726 299.404,335.326C248.999,316.286 318.773,303.744 338.313,298.554C376.402,279.653 399.07,239.631 418.928,203.88ZM609.977,223.396C650.116,241.853 687.534,271.641 734.254,270.69C772.213,261.068 753.978,307.902 727.654,300.712C689.204,293.329 640.574,287.513 616.027,254.153C612.904,244.917 605.388,233.216 609.977,223.396ZM789.475,224.805C810.096,249.763 823.03,283.104 855.434,297.246C885.792,305.149 893.421,326.672 859.094,331.346C821.581,322.5 795.821,284.914 776.459,253.985C772.018,243.543 779.408,229.009 789.475,224.805ZM595.879,230.829C610.372,258.326 587.368,283.471 558.995,285.699C529.109,296.849 484.853,296.358 474.216,260.02C513.833,257.762 560.15,266.55 590.95,233.759C592.463,232.83 593.708,230.543 595.879,230.829ZM1004.45,245.892C1021.2,276.594 995.251,316.075 1005,350.684C1009.85,386.489 1029.7,418.572 1046.27,449.952C1059.57,471.782 1114.19,488.077 1062.9,492.357C1028.44,489.871 1010.64,450.815 1000.19,422.033C981.225,383.51 985.778,338.455 961.25,302.366C928.739,273.303 985.7,260.696 1004.44,245.892L1004.45,245.892ZM451.285,260.676C475.449,280.76 463.772,312.638 444.372,331.811C418.493,363.508 364.939,378.22 331.868,349.494C364.934,338.657 401.301,329.334 424.22,300.238C436.709,289.564 442.125,273.356 451.285,260.676ZM131.9,262.499C152.763,278.097 190.071,289.017 176.514,323.084C170.569,365.327 167.374,410.831 135.675,443.156C118.26,469.914 88.406,496.456 54.519,489.798C83.559,447.582 120.957,406.197 125.265,352.386C129.74,322.676 133.731,292.429 131.9,262.499ZM772.099,276.642C794.053,302.784 813.518,335.253 848.521,345.119C830.165,373.367 797.915,352.023 783.442,330.377C768.61,317.11 750.801,292.94 772.099,276.642ZM609.23,279.989C625.07,308.705 596.499,335.208 568.726,338.666C532.834,359.117 493.347,295.799 552.152,305.606C573.258,302.839 591.918,291.621 609.23,279.989ZM632.958,284.01C665.856,302.938 703.029,312.236 741.062,313.532C742.881,341.08 700.902,349.616 678.559,337.962C657.031,332.813 613.621,311.458 632.958,284.01ZM936.29,293.224C974.619,322.387 963.96,376.706 982.477,416.539C985.32,441.238 1011.82,468.6 1013.4,484.6C991.377,505.106 976.006,476.168 969.02,456.409C942.549,410.557 941.34,354.228 909.203,311.388C909.062,298.337 925.608,293.402 936.29,293.224ZM482.312,299.751C506.976,319.235 498.794,359.2 470.398,371.175C452.242,389.588 394.719,401.491 391.235,373.463C432.946,369.385 466.212,342.891 480.36,303.352L481.51,301.23L482.312,299.751ZM195.107,303.352C216.124,312.605 246.507,325.306 240.144,354.5C240.678,401.4 229.154,458.886 183.127,481.679C170.048,480.004 111.935,496.571 130.296,475.236C170.237,436.91 191.7,381.057 191.69,326.147C192.004,318.915 195.501,309.817 195.107,303.352ZM757.044,321.724C771.309,343.722 801.28,365.026 816.68,377.216C797.233,404.34 762.347,378.73 750.018,357.611C740.491,347.326 742.623,326.048 757.044,321.724ZM898.425,325.723C929.713,344.843 921.697,390.778 939.125,420.059C938.926,443.565 975.121,470.356 959.388,490.509C926.837,471.835 918.691,426.737 900.471,395.323C891.253,375.616 862.836,341.671 892.562,326.567C894.451,325.969 896.443,325.681 898.425,325.723ZM262.277,332.669C292.838,339.698 315.828,369.304 297.293,399.948C291.445,433.623 274.166,477.189 234.905,480.672C191.432,489.145 242.244,448.443 243.231,430.342C255.748,399.284 252.157,362.903 262.277,332.669ZM619.102,333.13C635.577,357.172 629.426,400.714 592.258,397.562C560.682,399.478 530.115,351.881 579.152,353.946C593.412,349.542 608.139,343.083 619.102,333.13ZM642.086,340.219C661.339,354.315 704.773,348.908 714.979,363.158C702.117,386.607 672.247,384.675 650.949,373.15C641.86,366.505 633.48,350.337 642.086,340.219ZM516.461,343.072C547.001,353.612 538.59,400.339 509.956,408.964C494.184,420.432 410.886,409.706 454.559,393.781C481.334,387.619 499.752,363.077 516.461,343.072ZM864.921,353.965C884.817,378.687 886.748,418.591 907.493,445.953C914.412,463.929 952.279,491.167 913.096,490.92C878.942,472.478 872.265,425.488 856.582,392.156C853.031,380.32 844.669,355.105 864.921,353.965ZM315.705,362.53C343.071,367.04 357.69,394.636 344.37,419.837C335.025,449.262 319.29,498.664 279.097,479.839C296.041,444.97 322.275,410.303 315.128,368.771C315.276,366.835 314.056,364.265 315.705,362.53ZM735.822,363.674C745.214,379.674 789.248,412.383 782.153,405.529C761.729,422.133 727.721,424.971 720.763,392.547C718.936,382.021 722.102,363.936 735.822,363.674ZM834.041,376.166C857.613,390.311 847.574,432.923 870.289,453.404C886.51,466.241 890.155,512.329 864.826,477.083C854.643,446.001 798.976,405.661 831.639,376.582L834.041,376.166L834.041,376.166ZM367.748,382.33C400.53,387.119 418.269,424.752 401.033,453.429C403.892,486.585 321.907,506.466 345.368,464.852C361.342,440.064 367.699,411.532 367.748,382.33ZM646.099,390.456C665.93,400.918 710.694,387.715 677.703,417.214C664.891,440.918 630.744,419.434 643.438,396.166C643.471,394.019 643.98,391.52 646.099,390.456ZM550.841,391.201C580.017,400.335 550.341,438.846 528.469,436.072C508.259,436.919 487.469,423.675 518.915,417.716C535.122,414.946 536.392,390.069 550.841,391.201ZM625.061,400.321C632.585,416.61 623.092,450.647 600.842,434.7C581.067,415.07 584.265,410.819 609.371,409.638C614.757,407.273 620.884,404.4 625.061,400.321ZM711.508,404.804C714.58,428.365 773.069,439.82 729.995,447.048C709.169,452.83 688.784,423.223 707.443,407.676C708.257,406.132 709.624,404.727 711.508,404.804ZM421.071,407.766C439.111,424.188 479.677,438.509 462.886,469.493C446.606,497.536 385.677,486.602 417.522,448.382C420.91,435.417 422.813,420.854 421.071,407.766ZM801.847,410.47C827.469,421.453 835.293,460.467 845.178,484.586C826.625,494.439 802.873,454.332 794.255,438.495C789.311,429.309 788.444,412.726 801.847,410.47ZM571.939,422.515C579.151,431.684 594.719,453.804 581.039,461.115C570.864,458.421 547.627,449.568 556.63,436.31C561.308,431.316 565.793,425.766 571.939,422.515ZM770.336,425.232C793.054,431.403 770.687,462.629 797.414,472.808C817.296,502.575 752.832,486.682 762.511,456.971C763.3,447.709 760.464,429.91 770.336,425.232ZM482.544,431.079C501.91,440.732 529.344,466.506 502.138,485.585C485.959,492.352 456.521,490.991 482.32,471.524C489.573,458.591 490.336,443.456 482.544,431.079ZM652.717,438.365C674.975,433.745 670.529,452.696 662.18,466.154C652.86,495.693 636.044,481.175 643.044,456.529C642.275,449.424 642.05,436.512 652.717,438.365ZM621.929,450.615C624.909,457.387 623.956,476.916 616.071,484.983C610.376,479.14 599.016,465.436 606.757,458.298C610.989,455.541 620.081,453.772 621.929,450.615ZM701.024,453.158C707.297,455.902 719.969,466.079 714.201,468.539C709.386,475.902 687.625,497.519 684.444,483.349C690.287,473.941 690.983,458.842 701.024,453.158ZM534.396,456.256C544.648,462.35 571.248,465.147 575.774,483.004C561.302,487.754 537.34,490.793 524.849,480.986C525.359,472.536 529.582,458.892 534.396,456.256ZM747.163,463.466C755.693,464.611 754.923,487.326 754.712,485.763C745.837,486.882 724.522,489.025 724.541,477.538C730.608,471.592 738.854,465.383 747.163,463.466Z" style="fill-rule:nonzero;"/>
        </g>
    </g>
</svg>
