999
"DXF R12 Output" (www.mydxf.blogspot.com)
 0 
SECTION
 2 
HEADER
 9 
$ACADVER
 1 
AC1009
 9 
$EXTMIN
 10 
 0 
 20 
 0 
 9 
$EXTMAX
 10 
 8.5 
 20 
 11 
 0 
ENDSEC
 0 
SECTION
 2 
ENTITIES
0
LINE
8
Layer 1
10
18.720600
20
35.372600
11
18.442100
21
35.744300
0
LINE
8
Layer 1
10
18.442100
20
35.744300
11
18.181600
21
36.107000
0
LINE
8
Layer 1
10
18.181600
20
36.107000
11
17.897400
21
36.539000
0
LINE
8
Layer 1
10
17.897400
20
36.539000
11
17.496100
21
37.064800
0
LINE
8
Layer 1
10
17.496100
20
37.064800
11
16.773600
21
37.627900
0
LINE
8
Layer 1
10
16.773600
20
37.627900
11
16.209288
21
37.858900
0
LINE
8
Layer 1
10
16.209288
20
37.858900
11
15.594200
21
37.846600
0
LINE
8
Layer 1
10
15.594200
20
37.846600
11
14.787000
21
37.617400
0
LINE
8
Layer 1
10
14.787000
20
37.617400
11
14.209300
21
37.213500
0
LINE
8
Layer 1
10
14.209300
20
37.213500
11
13.510000
21
36.674200
0
LINE
8
Layer 1
10
13.510000
20
36.674200
11
13.016900
21
36.204300
0
LINE
8
Layer 1
10
13.016900
20
36.204300
11
12.744900
21
35.790000
0
LINE
8
Layer 1
10
12.744900
20
35.790000
11
12.735300
21
35.274700
0
LINE
8
Layer 1
10
12.735300
20
35.274700
11
12.930300
21
34.533900
0
LINE
8
Layer 1
10
12.930300
20
34.533900
11
13.149000
21
33.867000
0
LINE
8
Layer 1
10
13.149000
20
33.867000
11
13.242700
21
33.535100
0
LINE
8
Layer 1
10
13.242700
20
33.535100
11
13.296000
21
33.168200
0
LINE
8
Layer 1
10
13.296000
20
33.168200
11
13.330200
21
32.712400
0
LINE
8
Layer 1
10
13.330200
20
32.712400
11
13.213900
21
32.273500
0
LINE
8
Layer 1
10
13.213900
20
32.273500
11
11.901600
21
32.598100
0
LINE
8
Layer 1
10
11.901600
20
32.598100
11
10.609000
21
33.069400
0
LINE
8
Layer 1
10
10.609000
20
33.069400
11
9.350300
21
33.673600
0
LINE
8
Layer 1
10
9.350300
20
33.673600
11
8.338250
21
34.311500
0
LINE
8
Layer 1
10
8.338250
20
34.311500
11
7.412000
21
35.119200
0
LINE
8
Layer 1
10
7.412000
20
35.119200
11
6.839930
21
35.755600
0
LINE
8
Layer 1
10
6.839930
20
35.755600
11
5.970690
21
37.049300
0
LINE
8
Layer 1
10
5.970690
20
37.049300
11
5.477080
21
37.973900
0
LINE
8
Layer 1
10
5.477080
20
37.973900
11
5.316500
21
38.404200
0
LINE
8
Layer 1
10
5.316500
20
38.404200
11
4.843780
21
39.533700
0
LINE
8
Layer 1
10
4.843780
20
39.533700
11
4.284690
21
40.567200
0
LINE
8
Layer 1
10
4.284690
20
40.567200
11
4.012070
21
40.745600
0
LINE
8
Layer 1
10
4.012070
20
40.745600
11
3.815080
21
40.533900
0
LINE
8
Layer 1
10
3.815080
20
40.533900
11
3.714610
21
40.391700
0
LINE
8
Layer 1
10
3.714610
20
40.391700
11
3.623730
21
40.097000
0
LINE
8
Layer 1
10
3.623730
20
40.097000
11
3.541600
21
39.631100
0
LINE
8
Layer 1
10
3.541600
20
39.631100
11
3.479230
21
39.035300
0
LINE
8
Layer 1
10
3.479230
20
39.035300
11
3.468790
21
38.240000
0
LINE
8
Layer 1
10
3.468790
20
38.240000
11
3.517900
21
37.625000
0
LINE
8
Layer 1
10
3.517900
20
37.625000
11
3.607930
21
37.243200
0
LINE
8
Layer 1
10
3.607930
20
37.243200
11
3.733800
21
36.747900
0
LINE
8
Layer 1
10
3.733800
20
36.747900
11
3.885630
21
36.182600
0
LINE
8
Layer 1
10
3.885630
20
36.182600
11
4.141610
21
35.457000
0
LINE
8
Layer 1
10
4.141610
20
35.457000
11
4.432860
21
34.719800
0
LINE
8
Layer 1
10
4.432860
20
34.719800
11
4.646790
21
34.200800
0
LINE
8
Layer 1
10
4.646790
20
34.200800
11
4.987140
21
33.565500
0
LINE
8
Layer 1
10
4.987140
20
33.565500
11
5.932310
21
32.594100
0
LINE
8
Layer 1
10
5.932310
20
32.594100
11
7.106910
21
31.718700
0
LINE
8
Layer 1
10
7.106910
20
31.718700
11
8.276440
21
30.973900
0
LINE
8
Layer 1
10
8.276440
20
30.973900
11
9.480120
21
30.268300
0
LINE
8
Layer 1
10
9.480120
20
30.268300
11
10.533900
21
29.704200
0
LINE
8
Layer 1
10
10.533900
20
29.704200
11
11.685700
21
29.060700
0
LINE
8
Layer 1
10
11.685700
20
29.060700
11
12.614800
21
28.417800
0
LINE
8
Layer 1
10
12.614800
20
28.417800
11
13.144500
21
27.878200
0
LINE
8
Layer 1
10
13.144500
20
27.878200
11
12.286000
21
27.889800
0
LINE
8
Layer 1
10
12.286000
20
27.889800
11
10.256500
21
28.163500
0
LINE
8
Layer 1
10
10.256500
20
28.163500
11
8.155370
21
28.668100
0
LINE
8
Layer 1
10
8.155370
20
28.668100
11
6.457800
21
29.353900
0
LINE
8
Layer 1
10
6.457800
20
29.353900
11
5.136720
21
30.075300
0
LINE
8
Layer 1
10
5.136720
20
30.075300
11
4.128060
21
30.607300
0
LINE
8
Layer 1
10
4.128060
20
30.607300
11
3.526650
21
30.869800
0
LINE
8
Layer 1
10
3.526650
20
30.869800
11
3.315830
21
30.927600
0
LINE
8
Layer 1
10
3.315830
20
30.927600
11
2.969820
21
30.982100
0
LINE
8
Layer 1
10
2.969820
20
30.982100
11
2.424850
21
31.054100
0
LINE
8
Layer 1
10
2.424850
20
31.054100
11
1.998130
21
31.072400
0
LINE
8
Layer 1
10
1.998130
20
31.072400
11
1.527670
21
30.957500
0
LINE
8
Layer 1
10
1.527670
20
30.957500
11
1.476020
21
30.412000
0
LINE
8
Layer 1
10
1.476020
20
30.412000
11
1.635480
21
30.002500
0
LINE
8
Layer 1
10
1.635480
20
30.002500
11
1.883830
21
29.608500
0
LINE
8
Layer 1
10
1.883830
20
29.608500
11
2.283460
21
29.144500
0
LINE
8
Layer 1
10
2.283460
20
29.144500
11
2.987040
21
28.437300
0
LINE
8
Layer 1
10
2.987040
20
28.437300
11
3.457780
21
27.963400
0
LINE
8
Layer 1
10
3.457780
20
27.963400
11
4.645660
21
26.985000
0
LINE
8
Layer 1
10
4.645660
20
26.985000
11
5.829896
21
26.194350
0
LINE
8
Layer 1
10
5.829896
20
26.194350
11
7.076150
21
25.670400
0
LINE
8
Layer 1
10
7.076150
20
25.670400
11
8.832980
21
25.178500
0
LINE
8
Layer 1
10
8.832980
20
25.178500
11
10.217800
21
24.921900
0
LINE
8
Layer 1
10
10.217800
20
24.921900
11
11.859300
21
24.787000
0
LINE
8
Layer 1
10
11.859300
20
24.787000
11
12.882600
21
24.840400
0
LINE
8
Layer 1
10
12.882600
20
24.840400
11
13.311300
21
24.893400
0
LINE
8
Layer 1
10
13.311300
20
24.893400
11
14.755100
21
24.624200
0
LINE
8
Layer 1
10
14.755100
20
24.624200
11
14.836400
21
24.399500
0
LINE
8
Layer 1
10
14.836400
20
24.399500
11
14.775500
21
23.946300
0
LINE
8
Layer 1
10
14.775500
20
23.946300
11
14.592300
21
23.356700
0
LINE
8
Layer 1
10
14.592300
20
23.356700
11
14.292300
21
22.703400
0
LINE
8
Layer 1
10
14.292300
20
22.703400
11
13.915000
21
21.820000
0
LINE
8
Layer 1
10
13.915000
20
21.820000
11
13.694800
21
21.241500
0
LINE
8
Layer 1
10
13.694800
20
21.241500
11
13.608200
21
19.775900
0
LINE
8
Layer 1
10
13.608200
20
19.775900
11
13.625962
21
18.611013
0
LINE
8
Layer 1
10
13.625962
20
18.611013
11
13.790200
21
17.850000
0
LINE
8
Layer 1
10
13.790200
20
17.850000
11
14.337700
21
16.866200
0
LINE
8
Layer 1
10
14.337700
20
16.866200
11
14.912600
21
16.161800
0
LINE
8
Layer 1
10
14.912600
20
16.161800
11
15.759300
21
15.381100
0
LINE
8
Layer 1
10
15.759300
20
15.381100
11
16.778700
21
14.550000
0
LINE
8
Layer 1
10
16.778700
20
14.550000
11
17.740500
21
13.933300
0
LINE
8
Layer 1
10
17.740500
20
13.933300
11
18.316200
21
13.633900
0
LINE
8
Layer 1
10
18.316200
20
13.633900
11
18.888300
21
13.521900
0
LINE
8
Layer 1
10
18.888300
20
13.521900
11
19.035300
21
14.023100
0
LINE
8
Layer 1
10
19.035300
20
14.023100
11
19.034200
21
14.777200
0
LINE
8
Layer 1
10
19.034200
20
14.777200
11
18.864300
21
15.722600
0
LINE
8
Layer 1
10
18.864300
20
15.722600
11
18.524200
21
17.074800
0
LINE
8
Layer 1
10
18.524200
20
17.074800
11
18.183800
21
18.325300
0
LINE
8
Layer 1
10
18.183800
20
18.325300
11
18.017900
21
19.087000
0
LINE
8
Layer 1
10
18.017900
20
19.087000
11
17.960000
21
19.824400
0
LINE
8
Layer 1
10
17.960000
20
19.824400
11
17.969900
21
20.379600
0
LINE
8
Layer 1
10
17.969900
20
20.379600
11
18.023300
21
20.309900
0
LINE
8
Layer 1
10
18.023300
20
20.309900
11
18.695200
21
19.542500
0
LINE
8
Layer 1
10
18.695200
20
19.542500
11
19.480100
21
18.600400
0
LINE
8
Layer 1
10
19.480100
20
18.600400
11
20.283300
21
17.754100
0
LINE
8
Layer 1
10
20.283300
20
17.754100
11
21.077200
21
17.037200
0
LINE
8
Layer 1
10
21.077200
20
17.037200
11
21.402900
21
16.778700
0
LINE
8
Layer 1
10
21.402900
20
16.778700
11
21.851900
21
16.591600
0
LINE
8
Layer 1
10
21.851900
20
16.591600
11
22.591300
21
16.442600
0
LINE
8
Layer 1
10
22.591300
20
16.442600
11
23.084300
21
16.519900
0
LINE
8
Layer 1
10
23.084300
20
16.519900
11
23.306500
21
16.876900
0
LINE
8
Layer 1
10
23.306500
20
16.876900
11
23.350200
21
17.393700
0
LINE
8
Layer 1
10
23.350200
20
17.393700
11
23.049600
21
18.308100
0
LINE
8
Layer 1
10
23.049600
20
18.308100
11
22.650300
21
19.248400
0
LINE
8
Layer 1
10
22.650300
20
19.248400
11
22.412700
21
19.720000
0
LINE
8
Layer 1
10
22.412700
20
19.720000
11
22.238000
21
20.055000
0
LINE
8
Layer 1
10
22.238000
20
20.055000
11
22.115500
21
20.268100
0
LINE
8
Layer 1
10
22.115500
20
20.268100
11
21.923300
21
20.645100
0
LINE
8
Layer 1
10
21.923300
20
20.645100
11
21.761900
21
20.985500
0
LINE
8
Layer 1
10
21.761900
20
20.985500
11
21.632300
21
21.354400
0
LINE
8
Layer 1
10
21.632300
20
21.354400
11
21.498000
21
22.165200
0
LINE
8
Layer 1
10
21.498000
20
22.165200
11
21.533800
21
22.915600
0
LINE
8
Layer 1
10
21.533800
20
22.915600
11
21.953800
21
23.816800
0
LINE
8
Layer 1
10
21.953800
20
23.816800
11
22.551800
21
24.761100
0
LINE
8
Layer 1
10
22.551800
20
24.761100
11
22.979100
21
25.219400
0
LINE
8
Layer 1
10
22.979100
20
25.219400
11
23.331900
21
25.520000
0
LINE
8
Layer 1
10
23.331900
20
25.520000
11
23.931900
21
25.880600
0
LINE
8
Layer 1
10
23.931900
20
25.880600
11
24.647900
21
26.170500
0
LINE
8
Layer 1
10
24.647900
20
26.170500
11
26.077600
21
26.190000
0
LINE
8
Layer 1
10
26.077600
20
26.190000
11
27.423200
21
26.100800
0
LINE
8
Layer 1
10
27.423200
20
26.100800
11
28.086500
21
25.813500
0
LINE
8
Layer 1
10
28.086500
20
25.813500
11
28.745400
21
25.426500
0
LINE
8
Layer 1
10
28.745400
20
25.426500
11
29.458300
21
24.894800
0
LINE
8
Layer 1
10
29.458300
20
24.894800
11
30.390800
21
24.034100
0
LINE
8
Layer 1
10
30.390800
20
24.034100
11
31.205000
21
23.072500
0
LINE
8
Layer 1
10
31.205000
20
23.072500
11
31.729100
21
22.428800
0
LINE
8
Layer 1
10
31.729100
20
22.428800
11
32.074800
21
22.097700
0
LINE
8
Layer 1
10
32.074800
20
22.097700
11
32.299200
21
21.902700
0
LINE
8
Layer 1
10
32.299200
20
21.902700
11
32.862500
21
21.859300
0
LINE
8
Layer 1
10
32.862500
20
21.859300
11
32.964100
21
22.159800
0
LINE
8
Layer 1
10
32.964100
20
22.159800
11
32.950500
21
22.515700
0
LINE
8
Layer 1
10
32.950500
20
22.515700
11
32.735800
21
23.581100
0
LINE
8
Layer 1
10
32.735800
20
23.581100
11
32.422500
21
24.754600
0
LINE
8
Layer 1
10
32.422500
20
24.754600
11
32.097700
21
25.675700
0
LINE
8
Layer 1
10
32.097700
20
25.675700
11
31.567900
21
26.892700
0
LINE
8
Layer 1
10
31.567900
20
26.892700
11
31.085100
21
27.942300
0
LINE
8
Layer 1
10
31.085100
20
27.942300
11
30.879600
21
28.383700
0
LINE
8
Layer 1
10
30.879600
20
28.383700
11
30.729700
21
28.757600
0
LINE
8
Layer 1
10
30.729700
20
28.757600
11
31.317600
21
28.884000
0
LINE
8
Layer 1
10
31.317600
20
28.884000
11
31.866300
21
28.840000
0
LINE
8
Layer 1
10
31.866300
20
28.840000
11
32.294400
21
28.780200
0
LINE
8
Layer 1
10
32.294400
20
28.780200
11
32.995100
21
28.648700
0
LINE
8
Layer 1
10
32.995100
20
28.648700
11
33.812200
21
28.478200
0
LINE
8
Layer 1
10
33.812200
20
28.478200
11
34.341600
21
28.349200
0
LINE
8
Layer 1
10
34.341600
20
28.349200
11
34.713000
21
28.249900
0
LINE
8
Layer 1
10
34.713000
20
28.249900
11
35.094900
21
28.150300
0
LINE
8
Layer 1
10
35.094900
20
28.150300
11
35.885900
21
28.024400
0
LINE
8
Layer 1
10
35.885900
20
28.024400
11
36.000500
21
28.484400
0
LINE
8
Layer 1
10
36.000500
20
28.484400
11
35.645500
21
29.264800
0
LINE
8
Layer 1
10
35.645500
20
29.264800
11
35.153600
21
30.033300
0
LINE
8
Layer 1
10
35.153600
20
30.033300
11
34.704300
21
30.521200
0
LINE
8
Layer 1
10
34.704300
20
30.521200
11
34.092400
21
31.051500
0
LINE
8
Layer 1
10
34.092400
20
31.051500
11
33.294000
21
31.673200
0
LINE
8
Layer 1
10
33.294000
20
31.673200
11
32.701837
21
32.002962
0
LINE
8
Layer 1
10
32.701837
20
32.002962
11
31.851600
21
32.271300
0
LINE
8
Layer 1
10
31.851600
20
32.271300
11
29.847200
21
32.533500
0
LINE
8
Layer 1
10
29.847200
20
32.533500
11
28.674000
21
32.555200
0
LINE
8
Layer 1
10
28.674000
20
32.555200
11
28.016700
21
32.559100
0
LINE
8
Layer 1
10
28.016700
20
32.559100
11
27.248300
21
32.628300
0
LINE
8
Layer 1
10
27.248300
20
32.628300
11
26.881400
21
32.749600
0
LINE
8
Layer 1
10
26.881400
20
32.749600
11
26.795000
21
32.927700
0
LINE
8
Layer 1
10
26.795000
20
32.927700
11
26.801500
21
33.361800
0
LINE
8
Layer 1
10
26.801500
20
33.361800
11
26.917200
21
33.780300
0
LINE
8
Layer 1
10
26.917200
20
33.780300
11
27.161600
21
34.356600
0
LINE
8
Layer 1
10
27.161600
20
34.356600
11
27.560100
21
35.152800
0
LINE
8
Layer 1
10
27.560100
20
35.152800
11
28.016700
21
36.656400
0
LINE
8
Layer 1
10
28.016700
20
36.656400
11
28.148250
21
37.719750
0
LINE
8
Layer 1
10
28.148250
20
37.719750
11
28.127400
21
38.913900
0
LINE
8
Layer 1
10
28.127400
20
38.913900
11
27.956137
21
40.094600
0
LINE
8
Layer 1
10
27.956137
20
40.094600
11
27.636300
21
41.117800
0
LINE
8
Layer 1
10
27.636300
20
41.117800
11
26.699300
21
42.725900
0
LINE
8
Layer 1
10
26.699300
20
42.725900
11
25.857200
21
43.697000
0
LINE
8
Layer 1
10
25.857200
20
43.697000
11
25.405100
21
44.163000
0
LINE
8
Layer 1
10
25.405100
20
44.163000
11
24.908100
21
44.670700
0
LINE
8
Layer 1
10
24.908100
20
44.670700
11
24.307800
21
45.289600
0
LINE
8
Layer 1
10
24.307800
20
45.289600
11
23.738800
21
45.834300
0
LINE
8
Layer 1
10
23.738800
20
45.834300
11
23.354700
21
46.138500
0
LINE
8
Layer 1
10
23.354700
20
46.138500
11
23.224000
21
46.160300
0
LINE
8
Layer 1
10
23.224000
20
46.160300
11
22.996000
21
45.692900
0
LINE
8
Layer 1
10
22.996000
20
45.692900
11
23.384400
21
44.485300
0
LINE
8
Layer 1
10
23.384400
20
44.485300
11
24.194300
21
42.810600
0
LINE
8
Layer 1
10
24.194300
20
42.810600
11
24.756500
21
41.339900
0
LINE
8
Layer 1
10
24.756500
20
41.339900
11
24.962000
21
40.223400
0
LINE
8
Layer 1
10
24.962000
20
40.223400
11
24.902400
21
39.203500
0
LINE
8
Layer 1
10
24.902400
20
39.203500
11
24.667900
21
38.058800
0
LINE
8
Layer 1
10
24.667900
20
38.058800
11
24.354300
21
37.193800
0
LINE
8
Layer 1
10
24.354300
20
37.193800
11
24.101800
21
36.626800
0
LINE
8
Layer 1
10
24.101800
20
36.626800
11
23.853700
21
36.152700
0
LINE
8
Layer 1
10
23.853700
20
36.152700
11
23.651300
21
35.801900
0
LINE
8
Layer 1
10
23.651300
20
35.801900
11
23.517000
21
35.618700
0
LINE
8
Layer 1
10
23.517000
20
35.618700
11
23.425300
21
35.528400
0
LINE
8
Layer 1
10
23.425300
20
35.528400
11
23.250300
21
35.845100
0
LINE
8
Layer 1
10
23.250300
20
35.845100
11
22.841900
21
36.693700
0
LINE
8
Layer 1
10
22.841900
20
36.693700
11
22.545300
21
37.422100
0
LINE
8
Layer 1
10
22.545300
20
37.422100
11
22.341500
21
38.333400
0
LINE
8
Layer 1
10
22.341500
20
38.333400
11
22.126500
21
39.499300
0
LINE
8
Layer 1
10
22.126500
20
39.499300
11
22.013600
21
40.176000
0
LINE
8
Layer 1
10
22.013600
20
40.176000
11
21.879500
21
40.798300
0
LINE
8
Layer 1
10
21.879500
20
40.798300
11
21.514900
21
41.893900
0
LINE
8
Layer 1
10
21.514900
20
41.893900
11
21.118400
21
42.928300
0
LINE
8
Layer 1
10
21.118400
20
42.928300
11
20.877400
21
43.518700
0
LINE
8
Layer 1
10
20.877400
20
43.518700
11
19.928500
21
44.663100
0
LINE
8
Layer 1
10
19.928500
20
44.663100
11
19.011200
21
45.412962
0
LINE
8
Layer 1
10
19.011200
20
45.412962
11
17.926500
21
45.913900
0
LINE
8
Layer 1
10
17.926500
20
45.913900
11
16.005400
21
46.423600
0
LINE
8
Layer 1
10
16.005400
20
46.423600
11
14.873100
21
46.625100
0
LINE
8
Layer 1
10
14.873100
20
46.625100
11
14.233600
21
46.741900
0
LINE
8
Layer 1
10
14.233600
20
46.741900
11
13.814200
21
46.793000
0
LINE
8
Layer 1
10
13.814200
20
46.793000
11
13.492800
21
46.760800
0
LINE
8
Layer 1
10
13.492800
20
46.760800
11
13.238500
21
46.674800
0
LINE
8
Layer 1
10
13.238500
20
46.674800
11
12.918100
21
46.459700
0
LINE
8
Layer 1
10
12.918100
20
46.459700
11
12.743500
21
46.107200
0
LINE
8
Layer 1
10
12.743500
20
46.107200
11
13.070000
21
45.619200
0
LINE
8
Layer 1
10
13.070000
20
45.619200
11
13.710600
21
45.057100
0
LINE
8
Layer 1
10
13.710600
20
45.057100
11
15.087300
21
44.115600
0
LINE
8
Layer 1
10
15.087300
20
44.115600
11
16.919500
21
42.582000
0
LINE
8
Layer 1
10
16.919500
20
42.582000
11
18.056600
21
41.227300
0
LINE
8
Layer 1
10
18.056600
20
41.227300
11
18.622400
21
40.114800
0
LINE
8
Layer 1
10
18.622400
20
40.114800
11
18.952100
21
39.149300
0
LINE
8
Layer 1
10
18.952100
20
39.149300
11
19.214500
21
37.971300
0
LINE
8
Layer 1
10
19.214500
20
37.971300
11
19.482600
21
36.736300
0
LINE
8
Layer 1
10
19.482600
20
36.736300
11
19.618700
21
36.081300
0
LINE
8
Layer 1
10
19.618700
20
36.081300
11
19.681000
21
35.439800
0
LINE
8
Layer 1
10
19.681000
20
35.439800
11
19.648300
21
34.886100
0
LINE
8
Layer 1
10
19.648300
20
34.886100
11
19.338400
21
34.565500
0
LINE
8
Layer 1
10
19.338400
20
34.565500
11
18.902100
21
34.710800
0
LINE
8
Layer 1
10
18.902100
20
34.710800
11
19.004300
21
35.120000
 0 
ENDSEC
 0 
EOF