999
"DXF R12 Output" (www.mydxf.blogspot.com)
 0 
SECTION
 2 
HEADER
 9 
$ACADVER
 1 
AC1009
 9 
$EXTMIN
 10 
 0 
 20 
 0 
 9 
$EXTMAX
 10 
 8.5 
 20 
 11 
 0 
ENDSEC
 0 
SECTION
 2 
ENTITIES
0
LINE
8
Layer 1
10
9.063840
20
33.338300
11
8.768354
21
33.488724
0
LINE
8
Layer 1
10
8.768354
20
33.488724
11
8.406545
21
33.695593
0
LINE
8
Layer 1
10
8.406545
20
33.695593
11
8.190645
21
33.794088
0
LINE
8
Layer 1
10
8.190645
20
33.794088
11
7.967690
21
33.859846
0
LINE
8
Layer 1
10
7.967690
20
33.859846
11
7.616041
21
33.921935
0
LINE
8
Layer 1
10
7.616041
20
33.921935
11
7.220930
21
33.945077
0
LINE
8
Layer 1
10
7.220930
20
33.945077
11
6.629675
21
33.891173
0
LINE
8
Layer 1
10
6.629675
20
33.891173
11
6.112644
21
33.807353
0
LINE
8
Layer 1
10
6.112644
20
33.807353
11
5.920733
21
33.786186
0
LINE
8
Layer 1
10
5.920733
20
33.786186
11
5.096080
21
33.437360
0
LINE
8
Layer 1
10
5.096080
20
33.437360
11
4.220627
21
33.301047
0
LINE
8
Layer 1
10
4.220627
20
33.301047
11
3.553736
21
33.179692
0
LINE
8
Layer 1
10
3.553736
20
33.179692
11
2.930308
21
32.929079
0
LINE
8
Layer 1
10
2.930308
20
32.929079
11
2.518546
21
32.656170
0
LINE
8
Layer 1
10
2.518546
20
32.656170
11
2.298413
21
32.340081
0
LINE
8
Layer 1
10
2.298413
20
32.340081
11
2.112993
21
31.957106
0
LINE
8
Layer 1
10
2.112993
20
31.957106
11
2.020989
21
31.459266
0
LINE
8
Layer 1
10
2.020989
20
31.459266
11
1.975551
21
31.027184
0
LINE
8
Layer 1
10
1.975551
20
31.027184
11
1.991355
21
30.609495
0
LINE
8
Layer 1
10
1.991355
20
30.609495
11
2.054009
21
29.994815
0
LINE
8
Layer 1
10
2.054009
20
29.994815
11
2.127386
21
29.457464
0
LINE
8
Layer 1
10
2.127386
20
29.457464
11
2.176493
21
29.079569
0
LINE
8
Layer 1
10
2.176493
20
29.079569
11
2.279222
21
28.550403
0
LINE
8
Layer 1
10
2.279222
20
28.550403
11
2.459562
21
27.844848
0
LINE
8
Layer 1
10
2.459562
20
27.844848
11
2.613655
21
27.306086
0
LINE
8
Layer 1
10
2.613655
20
27.306086
11
2.774239
21
26.583033
0
LINE
8
Layer 1
10
2.774239
20
26.583033
11
3.000299
21
25.304283
0
LINE
8
Layer 1
10
3.000299
20
25.304283
11
3.127017
21
24.468341
0
LINE
8
Layer 1
10
3.127017
20
24.468341
11
3.154392
21
23.878215
0
LINE
8
Layer 1
10
3.154392
20
23.878215
11
3.204064
21
23.112547
0
LINE
8
Layer 1
10
3.204064
20
23.112547
11
3.245268
21
22.513672
0
LINE
8
Layer 1
10
3.245268
20
22.513672
11
3.308768
21
21.540571
0
LINE
8
Layer 1
10
3.308768
20
21.540571
11
3.440001
21
20.422971
0
LINE
8
Layer 1
10
3.440001
20
20.422971
11
3.620341
21
19.504621
0
LINE
8
Layer 1
10
3.620341
20
19.504621
11
3.829185
21
18.668115
0
LINE
8
Layer 1
10
3.829185
20
18.668115
11
4.046778
21
17.888900
0
LINE
8
Layer 1
10
4.046778
20
17.888900
11
4.256187
21
17.204229
0
LINE
8
Layer 1
10
4.256187
20
17.204229
11
4.769831
21
15.918709
0
LINE
8
Layer 1
10
4.769831
20
15.918709
11
5.387051
21
14.415879
0
LINE
8
Layer 1
10
5.387051
20
14.415879
11
5.748577
21
13.421611
0
LINE
8
Layer 1
10
5.748577
20
13.421611
11
6.078777
21
12.401101
0
LINE
8
Layer 1
10
6.078777
20
12.401101
11
6.483483
21
11.067041
0
LINE
8
Layer 1
10
6.483483
20
11.067041
11
6.843316
21
9.879171
0
LINE
8
Layer 1
10
6.843316
20
9.879171
11
7.294589
21
8.571071
0
LINE
8
Layer 1
10
7.294589
20
8.571071
11
7.915477
21
6.876611
0
LINE
8
Layer 1
10
7.915477
20
6.876611
11
8.367879
21
5.693821
0
LINE
8
Layer 1
10
8.367879
20
5.693821
11
8.634861
21
5.091841
0
LINE
8
Layer 1
10
8.634861
20
5.091841
11
8.885474
21
4.653550
0
LINE
8
Layer 1
10
8.885474
20
4.653550
11
9.198458
21
4.169539
0
LINE
8
Layer 1
10
9.198458
20
4.169539
11
9.501282
21
3.728144
0
LINE
8
Layer 1
10
9.501282
20
3.728144
11
9.882564
21
3.346015
0
LINE
8
Layer 1
10
9.882564
20
3.346015
11
10.326217
21
2.958806
0
LINE
8
Layer 1
10
10.326217
20
2.958806
11
10.759428
21
2.699444
0
LINE
8
Layer 1
10
10.759428
20
2.699444
11
11.281256
21
2.525595
0
LINE
8
Layer 1
10
11.281256
20
2.525595
11
11.617665
21
2.440646
0
LINE
8
Layer 1
10
11.617665
20
2.440646
11
11.811552
21
2.481569
0
LINE
8
Layer 1
10
11.811552
20
2.481569
11
12.114658
21
2.626913
0
LINE
8
Layer 1
10
12.114658
20
2.626913
11
12.757560
21
3.116568
0
LINE
8
Layer 1
10
12.757560
20
3.116568
11
13.570077
21
3.950534
0
LINE
8
Layer 1
10
13.570077
20
3.950534
11
14.211003
21
4.958634
0
LINE
8
Layer 1
10
14.211003
20
4.958634
11
14.661712
21
5.858076
0
LINE
8
Layer 1
10
14.661712
20
5.858076
11
15.001225
21
6.623180
0
LINE
8
Layer 1
10
15.001225
20
6.623180
11
15.372629
21
7.487344
0
LINE
8
Layer 1
10
15.372629
20
7.487344
11
15.661342
21
8.186690
0
LINE
8
Layer 1
10
15.661342
20
8.186690
11
15.811484
21
8.546805
0
LINE
8
Layer 1
10
15.811484
20
8.546805
11
16.068024
21
9.276913
0
LINE
8
Layer 1
10
16.068024
20
9.276913
11
16.370002
21
10.194135
0
LINE
8
Layer 1
10
16.370002
20
10.194135
11
16.595497
21
10.793857
0
LINE
8
Layer 1
10
16.595497
20
10.793857
11
17.233036
21
11.564041
0
LINE
8
Layer 1
10
17.233036
20
11.564041
11
17.384025
21
11.449177
0
LINE
8
Layer 1
10
17.384025
20
11.449177
11
17.745269
21
10.982382
0
LINE
8
Layer 1
10
17.745269
20
10.982382
11
18.144895
21
10.223769
0
LINE
8
Layer 1
10
18.144895
20
10.223769
11
18.375188
21
9.570143
0
LINE
8
Layer 1
10
18.375188
20
9.570143
11
18.584315
21
8.868821
0
LINE
8
Layer 1
10
18.584315
20
8.868821
11
18.735586
21
8.364773
0
LINE
8
Layer 1
10
18.735586
20
8.364773
11
18.924675
21
7.535887
0
LINE
8
Layer 1
10
18.924675
20
7.535887
11
19.361555
21
5.911137
0
LINE
8
Layer 1
10
19.361555
20
5.911137
11
19.821859
21
4.606147
0
LINE
8
Layer 1
10
19.821859
20
4.606147
11
20.210761
21
3.851203
0
LINE
8
Layer 1
10
20.210761
20
3.851203
11
20.733154
21
3.148188
0
LINE
8
Layer 1
10
20.733154
20
3.148188
11
21.099760
21
2.699737
0
LINE
8
Layer 1
10
21.099760
20
2.699737
11
21.450844
21
2.481015
0
LINE
8
Layer 1
10
21.450844
20
2.481015
11
22.191112
21
2.170006
0
LINE
8
Layer 1
10
22.191112
20
2.170006
11
22.885660
21
2.080823
0
LINE
8
Layer 1
10
22.885660
20
2.080823
11
23.539568
21
2.379132
0
LINE
8
Layer 1
10
23.539568
20
2.379132
11
24.133928
21
2.909709
0
LINE
8
Layer 1
10
24.133928
20
2.909709
11
24.449170
21
3.392591
0
LINE
8
Layer 1
10
24.449170
20
3.392591
11
24.662248
21
3.859668
0
LINE
8
Layer 1
10
24.662248
20
3.859668
11
25.036192
21
5.161278
0
LINE
8
Layer 1
10
25.036192
20
5.161278
11
25.412958
21
7.162518
0
LINE
8
Layer 1
10
25.412958
20
7.162518
11
25.585678
21
9.004868
0
LINE
8
Layer 1
10
25.585678
20
9.004868
11
25.671473
21
10.246648
0
LINE
8
Layer 1
10
25.671473
20
10.246648
11
25.729329
21
10.979296
0
LINE
8
Layer 1
10
25.729329
20
10.979296
11
25.798473
21
11.609216
0
LINE
8
Layer 1
10
25.798473
20
11.609216
11
25.944946
21
12.799626
0
LINE
8
Layer 1
10
25.944946
20
12.799626
11
26.168748
21
14.387976
0
LINE
8
Layer 1
10
26.168748
20
14.387976
11
26.380979
21
15.563716
0
LINE
8
Layer 1
10
26.380979
20
15.563716
11
26.607321
21
16.704456
0
LINE
8
Layer 1
10
26.607321
20
16.704456
11
26.829994
21
17.822616
0
LINE
8
Layer 1
10
26.829994
20
17.822616
11
27.021058
21
18.922716
0
LINE
8
Layer 1
10
27.021058
20
18.922716
11
27.167813
21
19.988666
0
LINE
8
Layer 1
10
27.167813
20
19.988666
11
27.231031
21
20.625641
0
LINE
8
Layer 1
10
27.231031
20
20.625641
11
27.281266
21
21.175692
0
LINE
8
Layer 1
10
27.281266
20
21.175692
11
27.387381
21
22.215962
0
LINE
8
Layer 1
10
27.387381
20
22.215962
11
27.541192
21
23.377022
0
LINE
8
Layer 1
10
27.541192
20
23.377022
11
27.802247
21
24.378062
0
LINE
8
Layer 1
10
27.802247
20
24.378062
11
28.287669
21
25.186910
0
LINE
8
Layer 1
10
28.287669
20
25.186910
11
28.840824
21
25.671203
0
LINE
8
Layer 1
10
28.840824
20
25.671203
11
29.552870
21
26.119372
0
LINE
8
Layer 1
10
29.552870
20
26.119372
11
30.051556
21
26.398490
0
LINE
8
Layer 1
10
30.051556
20
26.398490
11
31.528986
21
26.673092
0
LINE
8
Layer 1
10
31.528986
20
26.673092
11
31.763795
21
26.059824
0
LINE
8
Layer 1
10
31.763795
20
26.059824
11
31.747991
21
25.399707
0
LINE
8
Layer 1
10
31.747991
20
25.399707
11
31.642722
21
24.412494
0
LINE
8
Layer 1
10
31.642722
20
24.412494
11
31.547895
21
23.756328
0
LINE
8
Layer 1
10
31.547895
20
23.756328
11
31.518262
21
23.362064
0
LINE
8
Layer 1
10
31.518262
20
23.362064
11
31.517133
21
23.163944
0
LINE
8
Layer 1
10
31.517133
20
23.163944
11
31.547049
21
22.798184
0
LINE
8
Layer 1
10
31.547049
20
22.798184
11
31.655987
21
21.903540
0
LINE
8
Layer 1
10
31.655987
20
21.903540
11
31.793994
21
20.984625
0
LINE
8
Layer 1
10
31.793994
20
20.984625
11
31.890514
21
20.397603
0
LINE
8
Layer 1
10
31.890514
20
20.397603
11
31.969818
21
19.754701
0
LINE
8
Layer 1
10
31.969818
20
19.754701
11
32.036987
21
18.841995
0
LINE
8
Layer 1
10
32.036987
20
18.841995
11
32.074522
21
18.136158
0
LINE
8
Layer 1
10
32.074522
20
18.136158
11
32.075933
21
17.720727
0
LINE
8
Layer 1
10
32.075933
20
17.720727
11
32.001991
21
16.821568
0
LINE
8
Layer 1
10
32.001991
20
16.821568
11
31.926638
21
15.665018
0
LINE
8
Layer 1
10
31.926638
20
15.665018
11
31.931718
21
14.787308
0
LINE
8
Layer 1
10
31.931718
20
14.787308
11
31.965302
21
13.983822
0
LINE
8
Layer 1
10
31.965302
20
13.983822
11
32.006507
21
12.988425
0
LINE
8
Layer 1
10
32.006507
20
12.988425
11
32.092584
21
11.378065
0
LINE
8
Layer 1
10
32.092584
20
11.378065
11
32.194466
21
10.142495
0
LINE
8
Layer 1
10
32.194466
20
10.142495
11
32.358155
21
9.443149
0
LINE
8
Layer 1
10
32.358155
20
9.443149
11
32.492493
21
8.938536
0
LINE
8
Layer 1
10
32.492493
20
8.938536
11
32.567847
21
8.617932
0
LINE
8
Layer 1
10
32.567847
20
8.617932
11
32.704160
21
7.780579
0
LINE
8
Layer 1
10
32.704160
20
7.780579
11
32.813662
21
6.954515
0
LINE
8
Layer 1
10
32.813662
20
6.954515
11
32.890144
21
6.546704
0
LINE
8
Layer 1
10
32.890144
20
6.546704
11
32.997388
21
6.254040
0
LINE
8
Layer 1
10
32.997388
20
6.254040
11
33.123823
21
5.961094
0
LINE
8
Layer 1
10
33.123823
20
5.961094
11
33.208772
21
5.760152
0
LINE
8
Layer 1
10
33.208772
20
5.760152
11
33.342545
21
5.487526
0
LINE
8
Layer 1
10
33.342545
20
5.487526
11
33.534174
21
5.160148
0
LINE
8
Layer 1
10
33.534174
20
5.160148
11
33.678107
21
4.957513
0
LINE
8
Layer 1
10
33.678107
20
4.957513
11
33.958353
21
4.665978
0
LINE
8
Layer 1
10
33.958353
20
4.665978
11
34.352335
21
4.250547
0
LINE
8
Layer 1
10
34.352335
20
4.250547
11
34.764097
21
3.821570
0
LINE
8
Layer 1
10
34.764097
20
3.821570
11
35.253188
21
3.376506
0
LINE
8
Layer 1
10
35.253188
20
3.376506
11
35.692890
21
2.978009
0
LINE
8
Layer 1
10
35.692890
20
2.978009
11
36.044821
21
2.627489
0
LINE
8
Layer 1
10
36.044821
20
2.627489
11
36.381512
21
2.333978
0
LINE
8
Layer 1
10
36.381512
20
2.333978
11
36.571165
21
2.191456
0
LINE
8
Layer 1
10
36.571165
20
2.191456
11
36.911807
21
2.062481
0
LINE
8
Layer 1
10
36.911807
20
2.062481
11
37.484435
21
1.939432
0
LINE
8
Layer 1
10
37.484435
20
1.939432
11
37.971268
21
1.953544
0
LINE
8
Layer 1
10
37.971268
20
1.953544
11
38.816805
21
2.094091
0
LINE
8
Layer 1
10
38.816805
20
2.094091
11
40.022175
21
2.307451
0
LINE
8
Layer 1
10
40.022175
20
2.307451
11
40.956330
21
2.444893
0
LINE
8
Layer 1
10
40.956330
20
2.444893
11
41.775056
21
2.526455
0
LINE
8
Layer 1
10
41.775056
20
2.526455
11
43.009496
21
2.657406
0
LINE
8
Layer 1
10
43.009496
20
2.657406
11
44.157006
21
2.792873
0
LINE
8
Layer 1
10
44.157006
20
2.792873
11
45.414866
21
2.954868
0
LINE
8
Layer 1
10
45.414866
20
2.954868
11
46.849396
21
3.769925
0
LINE
8
Layer 1
10
46.849396
20
3.769925
11
47.275269
21
4.140200
0
LINE
8
Layer 1
10
47.275269
20
4.140200
11
47.460124
21
4.346787
0
LINE
8
Layer 1
10
47.460124
20
4.346787
11
47.655986
21
4.742462
0
LINE
8
Layer 1
10
47.655986
20
4.742462
11
47.843946
21
5.710766
0
LINE
8
Layer 1
10
47.843946
20
5.710766
11
47.806128
21
6.707856
0
LINE
8
Layer 1
10
47.806128
20
6.707856
11
47.654293
21
7.215573
0
LINE
8
Layer 1
10
47.654293
20
7.215573
11
47.355984
21
7.680110
0
LINE
8
Layer 1
10
47.355984
20
7.680110
11
46.927289
21
8.111910
0
LINE
8
Layer 1
10
46.927289
20
8.111910
11
46.542903
21
8.296765
0
LINE
8
Layer 1
10
46.542903
20
8.296765
11
46.208188
21
8.372400
0
LINE
8
Layer 1
10
46.208188
20
8.372400
11
45.552586
21
8.333736
0
LINE
8
Layer 1
10
45.552586
20
8.333736
11
44.881180
21
8.237216
0
LINE
8
Layer 1
10
44.881180
20
8.237216
11
44.254929
21
8.037121
0
LINE
8
Layer 1
10
44.254929
20
8.037121
11
43.376654
21
7.754617
0
LINE
8
Layer 1
10
43.376654
20
7.754617
11
42.712021
21
7.568350
0
LINE
8
Layer 1
10
42.712021
20
7.568350
11
41.897811
21
7.501181
0
LINE
8
Layer 1
10
41.897811
20
7.501181
11
41.053403
21
7.558754
0
LINE
8
Layer 1
10
41.053403
20
7.558754
11
40.627530
21
7.678416
0
LINE
8
Layer 1
10
40.627530
20
7.678416
11
40.324988
21
7.854240
0
LINE
8
Layer 1
10
40.324988
20
7.854240
11
39.908428
21
8.188955
0
LINE
8
Layer 1
10
39.908428
20
8.188955
11
39.524606
21
8.539475
0
LINE
8
Layer 1
10
39.524606
20
8.539475
11
39.303626
21
8.846533
0
LINE
8
Layer 1
10
39.303626
20
8.846533
11
39.128648
21
9.247288
0
LINE
8
Layer 1
10
39.128648
20
9.247288
11
38.975684
21
9.917001
0
LINE
8
Layer 1
10
38.975684
20
9.917001
11
38.866464
21
11.499141
0
LINE
8
Layer 1
10
38.866464
20
11.499141
11
39.493561
21
12.234894
0
LINE
8
Layer 1
10
39.493561
20
12.234894
11
39.792999
21
12.393503
0
LINE
8
Layer 1
10
39.792999
20
12.393503
11
39.991119
21
12.445150
0
LINE
8
Layer 1
10
39.991119
20
12.445150
11
40.206172
21
12.497643
0
LINE
8
Layer 1
10
40.206172
20
12.497643
11
40.499401
21
12.568763
0
LINE
8
Layer 1
10
40.499401
20
12.568763
11
40.750861
21
12.615612
0
LINE
8
Layer 1
10
40.750861
20
12.615612
11
41.031672
21
12.663025
0
LINE
8
Layer 1
10
41.031672
20
12.663025
11
41.420009
21
12.755312
0
LINE
8
Layer 1
10
41.420009
20
12.755312
11
41.720011
21
12.858323
0
LINE
8
Layer 1
10
41.720011
20
12.858323
11
42.143344
21
13.062087
0
LINE
8
Layer 1
10
42.143344
20
13.062087
11
42.515313
21
13.271496
0
LINE
8
Layer 1
10
42.515313
20
13.271496
11
42.886435
21
13.522109
0
LINE
8
Layer 1
10
42.886435
20
13.522109
11
43.297915
21
13.798969
0
LINE
8
Layer 1
10
43.297915
20
13.798969
11
43.538933
21
13.963222
0
LINE
8
Layer 1
10
43.538933
20
13.963222
11
43.774024
21
14.144691
0
LINE
8
Layer 1
10
43.774024
20
14.144691
11
43.981457
21
14.361155
0
LINE
8
Layer 1
10
43.981457
20
14.361155
11
44.189455
21
14.711675
0
LINE
8
Layer 1
10
44.189455
20
14.711675
11
44.370359
21
15.168592
0
LINE
8
Layer 1
10
44.370359
20
15.168592
11
44.475910
21
15.612245
0
LINE
8
Layer 1
10
44.475910
20
15.612245
11
44.515139
21
16.518742
0
LINE
8
Layer 1
10
44.515139
20
16.518742
11
44.463775
21
17.559292
0
LINE
8
Layer 1
10
44.463775
20
17.559292
11
44.357095
21
18.094667
0
LINE
8
Layer 1
10
44.357095
20
18.094667
11
44.246746
21
18.433333
0
LINE
8
Layer 1
10
44.246746
20
18.433333
11
44.100837
21
18.824210
0
LINE
8
Layer 1
10
44.100837
20
18.824210
11
43.852764
21
19.264194
0
LINE
8
Layer 1
10
43.852764
20
19.264194
11
43.485593
21
19.554600
0
LINE
8
Layer 1
10
43.485593
20
19.554600
11
43.035167
21
19.658458
0
LINE
8
Layer 1
10
43.035167
20
19.658458
11
42.679285
21
19.657894
0
LINE
8
Layer 1
10
42.679285
20
19.657894
11
42.436574
21
19.598909
0
LINE
8
Layer 1
10
42.436574
20
19.598909
11
42.152376
21
19.502672
0
LINE
8
Layer 1
10
42.152376
20
19.502672
11
41.756983
21
19.368617
0
LINE
8
Layer 1
10
41.756983
20
19.368617
11
41.230639
21
19.229482
0
LINE
8
Layer 1
10
41.230639
20
19.229482
11
40.672968
21
19.113489
0
LINE
8
Layer 1
10
40.672968
20
19.113489
11
40.308902
21
19.051117
0
LINE
8
Layer 1
10
40.308902
20
19.051117
11
40.039944
21
19.043780
0
LINE
8
Layer 1
10
40.039944
20
19.043780
11
39.709744
21
19.073977
0
LINE
8
Layer 1
10
39.709744
20
19.073977
11
39.207107
21
19.247261
0
LINE
8
Layer 1
10
39.207107
20
19.247261
11
38.633067
21
19.581976
0
LINE
8
Layer 1
10
38.633067
20
19.581976
11
38.249527
21
19.952251
0
LINE
8
Layer 1
10
38.249527
20
19.952251
11
37.779345
21
20.678126
0
LINE
8
Layer 1
10
37.779345
20
20.678126
11
37.315654
21
21.593372
0
LINE
8
Layer 1
10
37.315654
20
21.593372
11
36.911230
21
22.860832
0
LINE
8
Layer 1
10
36.911230
20
22.860832
11
36.559299
21
24.506182
0
LINE
8
Layer 1
10
36.559299
20
24.506182
11
36.450361
21
25.498757
0
LINE
8
Layer 1
10
36.450361
20
25.498757
11
36.691943
21
26.592647
0
LINE
8
Layer 1
10
36.691943
20
26.592647
11
37.009161
21
27.538091
0
LINE
8
Layer 1
10
37.009161
20
27.538091
11
37.347545
21
27.879580
0
LINE
8
Layer 1
10
37.347545
20
27.879580
11
37.682825
21
28.177889
0
LINE
8
Layer 1
10
37.682825
20
28.177889
11
38.005687
21
28.360204
0
LINE
8
Layer 1
10
38.005687
20
28.360204
11
38.375680
21
28.531513
0
LINE
8
Layer 1
10
38.375680
20
28.531513
11
38.697413
21
28.583725
0
LINE
8
Layer 1
10
38.697413
20
28.583725
11
38.969193
21
28.588522
0
LINE
8
Layer 1
10
38.969193
20
28.588522
11
39.177191
21
28.590780
0
LINE
8
Layer 1
10
39.177191
20
28.590780
11
39.519526
21
28.613358
0
LINE
8
Layer 1
10
39.519526
20
28.613358
11
39.824326
21
28.591909
0
LINE
8
Layer 1
10
39.824326
20
28.591909
11
40.083970
21
28.546754
0
LINE
8
Layer 1
10
40.083970
20
28.546754
11
40.305796
21
28.495671
0
LINE
8
Layer 1
10
40.305796
20
28.495671
11
40.396107
21
28.462651
0
LINE
8
Layer 1
10
40.396107
20
28.462651
11
40.479644
21
28.472529
0
LINE
8
Layer 1
10
40.479644
20
28.472529
11
40.715017
21
28.389274
0
LINE
8
Layer 1
10
40.715017
20
28.389274
11
41.059046
21
28.154748
0
LINE
8
Layer 1
10
41.059046
20
28.154748
11
41.906841
21
27.364809
0
LINE
8
Layer 1
10
41.906841
20
27.364809
11
43.018791
21
26.444765
0
LINE
8
Layer 1
10
43.018791
20
26.444765
11
44.786351
21
25.853792
0
LINE
8
Layer 1
10
44.786351
20
25.853792
11
45.036682
21
25.805814
0
LINE
8
Layer 1
10
45.036682
20
25.805814
11
45.440259
21
25.712963
0
LINE
8
Layer 1
10
45.440259
20
25.712963
11
45.780054
21
25.680507
0
LINE
8
Layer 1
10
45.780054
20
25.680507
11
46.783074
21
25.725663
0
LINE
8
Layer 1
10
46.783074
20
25.725663
11
47.809794
21
25.853792
0
LINE
8
Layer 1
10
47.809794
20
25.853792
11
48.349967
21
25.898383
0
LINE
8
Layer 1
10
48.349967
20
25.898383
11
48.636705
21
25.851252
0
LINE
8
Layer 1
10
48.636705
20
25.851252
11
48.824665
21
25.785776
0
LINE
8
Layer 1
10
48.824665
20
25.785776
11
49.084591
21
25.664985
0
LINE
8
Layer 1
10
49.084591
20
25.664985
11
49.352702
21
25.505530
0
LINE
8
Layer 1
10
49.352702
20
25.505530
11
49.522317
21
25.318981
0
LINE
8
Layer 1
10
49.522317
20
25.318981
11
49.627868
21
25.126506
0
LINE
8
Layer 1
10
49.627868
20
25.126506
11
49.715357
21
24.907784
0
LINE
8
Layer 1
10
49.715357
20
24.907784
11
49.777728
21
24.323867
0
LINE
8
Layer 1
10
49.777728
20
24.323867
11
49.758819
21
23.182277
0
LINE
8
Layer 1
10
49.758819
20
23.182277
11
49.725235
21
21.566837
0
LINE
8
Layer 1
10
49.725235
20
21.566837
11
49.733984
21
20.048767
0
LINE
8
Layer 1
10
49.733984
20
20.048767
11
49.800024
21
18.458167
0
LINE
8
Layer 1
10
49.800024
20
18.458167
11
49.987137
21
16.488537
0
LINE
8
Layer 1
10
49.987137
20
16.488537
11
50.250450
21
14.803107
0
LINE
8
Layer 1
10
50.250450
20
14.803107
11
50.481590
21
13.567817
0
LINE
8
Layer 1
10
50.481590
20
13.567817
11
50.652052
21
12.727642
0
LINE
8
Layer 1
10
50.652052
20
12.727642
11
50.806710
21
11.975803
0
LINE
8
Layer 1
10
50.806710
20
11.975803
11
50.956288
21
11.280972
0
LINE
8
Layer 1
10
50.956288
20
11.280972
11
51.145377
21
10.409188
0
LINE
8
Layer 1
10
51.145377
20
10.409188
11
51.368332
21
9.041818
0
LINE
8
Layer 1
10
51.368332
20
9.041818
11
51.488276
21
8.015098
0
LINE
8
Layer 1
10
51.488276
20
8.015098
11
51.606809
21
7.102392
0
LINE
8
Layer 1
10
51.606809
20
7.102392
11
51.788560
21
6.089502
0
LINE
8
Layer 1
10
51.788560
20
6.089502
11
51.911044
21
5.609160
0
LINE
8
Layer 1
10
51.911044
20
5.609160
11
52.016877
21
5.269365
0
LINE
8
Layer 1
10
52.016877
20
5.269365
11
52.131177
21
4.904734
0
LINE
8
Layer 1
10
52.131177
20
4.904734
11
52.251968
21
4.608965
0
LINE
8
Layer 1
10
52.251968
20
4.608965
11
52.575959
21
4.129752
0
LINE
8
Layer 1
10
52.575959
20
4.129752
11
53.006912
21
3.633606
0
LINE
8
Layer 1
10
53.006912
20
3.633606
11
53.409643
21
3.314695
0
LINE
8
Layer 1
10
53.409643
20
3.314695
11
53.823663
21
3.107262
0
LINE
8
Layer 1
10
53.823663
20
3.107262
11
54.184060
21
3.009896
0
LINE
8
Layer 1
10
54.184060
20
3.009896
11
54.373431
21
2.972643
0
LINE
8
Layer 1
10
54.373431
20
2.972643
11
54.528935
21
2.950911
0
LINE
8
Layer 1
10
54.528935
20
2.950911
11
54.805513
21
2.919303
0
LINE
8
Layer 1
10
54.805513
20
2.919303
11
55.181997
21
2.834072
0
LINE
8
Layer 1
10
55.181997
20
2.834072
11
55.719065
21
2.740656
0
LINE
8
Layer 1
10
55.719065
20
2.740656
11
56.362813
21
2.698887
0
LINE
8
Layer 1
10
56.362813
20
2.698887
11
57.823313
21
2.648652
0
LINE
8
Layer 1
10
57.823313
20
2.648652
11
60.968673
21
2.543101
0
LINE
8
Layer 1
10
60.968673
20
2.543101
11
61.018626
21
2.553543
0
LINE
8
Layer 1
10
61.018626
20
2.553543
11
61.577426
21
2.564832
0
LINE
8
Layer 1
10
61.577426
20
2.564832
11
62.466425
21
2.661634
0
LINE
8
Layer 1
10
62.466425
20
2.661634
11
63.538585
21
2.880356
0
LINE
8
Layer 1
10
63.538585
20
2.880356
11
64.276031
21
3.241318
0
LINE
8
Layer 1
10
64.276031
20
3.241318
11
64.845837
21
3.603691
0
LINE
8
Layer 1
10
64.845837
20
3.603691
11
64.966910
21
3.851764
0
LINE
8
Layer 1
10
64.966910
20
3.851764
11
65.093910
21
4.911794
0
LINE
8
Layer 1
10
65.093910
20
4.911794
11
64.931350
21
6.338424
0
LINE
8
Layer 1
10
64.931350
20
6.338424
11
64.646306
21
7.200048
0
LINE
8
Layer 1
10
64.646306
20
7.200048
11
64.422786
21
7.704943
0
LINE
8
Layer 1
10
64.422786
20
7.704943
11
64.213095
21
8.074936
0
LINE
8
Layer 1
10
64.213095
20
8.074936
11
64.063517
21
8.271363
0
LINE
8
Layer 1
10
64.063517
20
8.271363
11
63.970666
21
8.401750
0
LINE
8
Layer 1
10
63.970666
20
8.401750
11
63.411020
21
9.092065
0
LINE
8
Layer 1
10
63.411020
20
9.092065
11
63.211489
21
9.171087
0
LINE
8
Layer 1
10
63.211489
20
9.171087
11
62.744694
21
9.205800
0
LINE
8
Layer 1
10
62.744694
20
9.205800
11
61.992008
21
9.178707
0
LINE
8
Layer 1
10
61.992008
20
9.178707
11
61.506586
21
9.117465
0
LINE
8
Layer 1
10
61.506586
20
9.117465
11
61.242991
21
9.067512
0
LINE
8
Layer 1
10
61.242991
20
9.067512
11
60.532920
21
8.928094
0
LINE
8
Layer 1
10
60.532920
20
8.928094
11
59.642510
21
8.751987
0
LINE
8
Layer 1
10
59.642510
20
8.751987
11
59.257277
21
8.675504
0
LINE
8
Layer 1
10
59.257277
20
8.675504
11
58.903935
21
8.626962
0
LINE
8
Layer 1
10
58.903935
20
8.626962
11
57.996027
21
8.640791
0
LINE
8
Layer 1
10
57.996027
20
8.640791
11
57.131863
21
8.786982
0
LINE
8
Layer 1
10
57.131863
20
8.786982
11
56.820008
21
9.423393
0
LINE
8
Layer 1
10
56.820008
20
9.423393
11
56.741832
21
10.319730
0
LINE
8
Layer 1
10
56.741832
20
10.319730
11
56.771748
21
10.905623
0
LINE
8
Layer 1
10
56.771748
20
10.905623
11
56.819161
21
11.442409
0
LINE
8
Layer 1
10
56.819161
20
11.442409
11
57.103359
21
12.423130
0
LINE
8
Layer 1
10
57.103359
20
12.423130
11
57.584548
21
13.221818
0
LINE
8
Layer 1
10
57.584548
20
13.221818
11
58.071381
21
13.438564
0
LINE
8
Layer 1
10
58.071381
20
13.438564
11
58.421901
21
13.461142
0
LINE
8
Layer 1
10
58.421901
20
13.461142
11
59.367062
21
13.507708
0
LINE
8
Layer 1
10
59.367062
20
13.507708
11
60.631412
21
13.749290
0
LINE
8
Layer 1
10
60.631412
20
13.749290
11
61.192752
21
14.024456
0
LINE
8
Layer 1
10
61.192752
20
14.024456
11
61.337814
21
14.212698
0
LINE
8
Layer 1
10
61.337814
20
14.212698
11
61.464249
21
14.498589
0
LINE
8
Layer 1
10
61.464249
20
14.498589
11
61.599716
21
15.240551
0
LINE
8
Layer 1
10
61.599716
20
15.240551
11
61.666321
21
16.232561
0
LINE
8
Layer 1
10
61.666321
20
16.232561
11
61.595483
21
16.991456
0
LINE
8
Layer 1
10
61.595483
20
16.991456
11
61.431794
21
17.631818
0
LINE
8
Layer 1
10
61.431794
20
17.631818
11
61.066034
21
18.608871
0
LINE
8
Layer 1
10
61.066034
20
18.608871
11
59.314844
21
19.334746
0
LINE
8
Layer 1
10
59.314844
20
19.334746
11
58.373069
21
19.337851
0
LINE
8
Layer 1
10
58.373069
20
19.337851
11
57.796207
21
19.247822
0
LINE
8
Layer 1
10
57.796207
20
19.247822
11
57.352554
21
19.244718
0
LINE
8
Layer 1
10
57.352554
20
19.244718
11
56.954057
21
19.300880
0
LINE
8
Layer 1
10
56.954057
20
19.300880
11
56.676351
21
19.385546
0
LINE
8
Layer 1
10
56.676351
20
19.385546
11
56.327807
21
19.961561
0
LINE
8
Layer 1
10
56.327807
20
19.961561
11
56.070421
21
20.849996
0
LINE
8
Layer 1
10
56.070421
20
20.849996
11
56.051794
21
21.530151
0
LINE
8
Layer 1
10
56.051794
20
21.530151
11
56.027523
21
22.226110
0
LINE
8
Layer 1
10
56.027523
20
22.226110
11
55.987165
21
23.047658
0
LINE
8
Layer 1
10
55.987165
20
23.047658
11
55.942292
21
24.034306
0
LINE
8
Layer 1
10
55.942292
20
24.034306
11
55.894879
21
24.741554
0
LINE
8
Layer 1
10
55.894879
20
24.741554
11
55.781708
21
25.726227
0
LINE
8
Layer 1
10
55.781708
20
25.726227
11
55.625357
21
27.409677
0
LINE
8
Layer 1
10
55.625357
20
27.409677
11
55.600803
21
28.517397
0
LINE
8
Layer 1
10
55.600803
20
28.517397
11
55.737963
21
28.955123
0
LINE
8
Layer 1
10
55.737963
20
28.955123
11
55.843796
21
29.185981
0
LINE
8
Layer 1
10
55.843796
20
29.185981
11
55.978980
21
29.330196
0
LINE
8
Layer 1
10
55.978980
20
29.330196
11
56.233826
21
29.514487
0
LINE
8
Layer 1
10
56.233826
20
29.514487
11
56.600150
21
29.641205
0
LINE
8
Layer 1
10
56.600150
20
29.641205
11
57.200154
21
29.640923
0
LINE
8
Layer 1
10
57.200154
20
29.640923
11
58.115400
21
29.393697
0
LINE
8
Layer 1
10
58.115400
20
29.393697
11
59.996130
21
28.637906
0
LINE
8
Layer 1
10
59.996130
20
28.637906
11
60.635645
21
28.455591
0
LINE
8
Layer 1
10
60.635645
20
28.455591
11
62.603295
21
27.866311
0
LINE
8
Layer 1
10
62.603295
20
27.866311
11
63.057672
21
27.737900
0
LINE
8
Layer 1
10
63.057672
20
27.737900
11
63.668965
21
27.670731
0
LINE
8
Layer 1
10
63.668965
20
27.670731
11
64.531153
21
27.750318
0
LINE
8
Layer 1
10
64.531153
20
27.750318
11
65.218364
21
28.073744
0
LINE
8
Layer 1
10
65.218364
20
28.073744
11
65.910090
21
28.577792
0
LINE
8
Layer 1
10
65.910090
20
28.577792
11
66.416114
21
28.934238
0
LINE
8
Layer 1
10
66.416114
20
28.934238
11
66.604074
21
28.988425
0
LINE
8
Layer 1
10
66.604074
20
28.988425
11
66.736154
21
28.986449
0
LINE
8
Layer 1
10
66.736154
20
28.986449
11
67.017247
21
28.063301
0
LINE
8
Layer 1
10
67.017247
20
28.063301
11
67.149327
21
26.515311
0
LINE
8
Layer 1
10
67.149327
20
26.515311
11
67.347729
21
23.737401
0
LINE
8
Layer 1
10
67.347729
20
23.737401
11
67.536818
21
21.815471
0
LINE
8
Layer 1
10
67.536818
20
21.815471
11
67.760056
21
20.257891
0
LINE
8
Layer 1
10
67.760056
20
20.257891
11
67.966925
21
18.561741
0
LINE
8
Layer 1
10
67.966925
20
18.561741
11
68.131178
21
17.451201
0
LINE
8
Layer 1
10
68.131178
20
17.451201
11
68.253945
21
16.854866
0
LINE
8
Layer 1
10
68.253945
20
16.854866
11
68.342281
21
16.382426
0
LINE
8
Layer 1
10
68.342281
20
16.382426
11
68.511332
21
15.352036
0
LINE
8
Layer 1
10
68.511332
20
15.352036
11
68.706630
21
14.141306
0
LINE
8
Layer 1
10
68.706630
20
14.141306
11
68.899952
21
12.947786
0
LINE
8
Layer 1
10
68.899952
20
12.947786
11
69.099765
21
11.794066
0
LINE
8
Layer 1
10
69.099765
20
11.794066
11
69.256398
21
10.851727
0
LINE
8
Layer 1
10
69.256398
20
10.851727
11
69.345298
21
10.140528
0
LINE
8
Layer 1
10
69.345298
20
10.140528
11
69.399484
21
9.392922
0
LINE
8
Layer 1
10
69.399484
20
9.392922
11
69.458469
21
8.586049
0
LINE
8
Layer 1
10
69.458469
20
8.586049
11
69.621876
21
7.653588
0
LINE
8
Layer 1
10
69.621876
20
7.653588
11
69.837211
21
6.760920
0
LINE
8
Layer 1
10
69.837211
20
6.760920
11
69.964493
21
6.300898
0
LINE
8
Layer 1
10
69.964493
20
6.300898
11
70.160637
21
5.737018
0
LINE
8
Layer 1
10
70.160637
20
5.737018
11
70.429312
21
5.052630
0
LINE
8
Layer 1
10
70.429312
20
5.052630
11
70.577761
21
4.672477
0
LINE
8
Layer 1
10
70.577761
20
4.672477
11
70.708712
21
4.437386
0
LINE
8
Layer 1
10
70.708712
20
4.437386
11
70.829785
21
4.266642
0
LINE
8
Layer 1
10
70.829785
20
4.266642
11
71.092816
21
4.029858
0
LINE
8
Layer 1
10
71.092816
20
4.029858
11
71.563845
21
3.677081
0
LINE
8
Layer 1
10
71.563845
20
3.677081
11
72.049267
21
3.431830
0
LINE
8
Layer 1
10
72.049267
20
3.431830
11
72.593109
21
3.338979
0
LINE
8
Layer 1
10
72.593109
20
3.338979
11
72.982575
21
3.369177
0
LINE
8
Layer 1
10
72.982575
20
3.369177
11
73.454450
21
3.594108
0
LINE
8
Layer 1
10
73.454450
20
3.594108
11
73.990672
21
3.986397
0
LINE
8
Layer 1
10
73.990672
20
3.986397
11
74.383525
21
4.578499
0
LINE
8
Layer 1
10
74.383525
20
4.578499
11
74.842418
21
5.535796
0
LINE
8
Layer 1
10
74.842418
20
5.535796
11
75.208742
21
6.630816
0
LINE
8
Layer 1
10
75.208742
20
6.630816
11
75.356626
21
8.144936
0
LINE
8
Layer 1
10
75.356626
20
8.144936
11
75.330097
21
9.701386
0
LINE
8
Layer 1
10
75.330097
20
9.701386
11
75.284659
21
11.002426
0
LINE
8
Layer 1
10
75.284659
20
11.002426
11
75.302721
21
12.337896
0
LINE
8
Layer 1
10
75.302721
20
12.337896
11
75.343926
21
13.426706
0
LINE
8
Layer 1
10
75.343926
20
13.426706
11
75.368479
21
14.170361
0
LINE
8
Layer 1
10
75.368479
20
14.170361
11
75.400652
21
14.681747
0
LINE
8
Layer 1
10
75.400652
20
14.681747
11
75.518056
21
15.396615
0
LINE
8
Layer 1
10
75.518056
20
15.396615
11
75.685696
21
16.095397
0
LINE
8
Layer 1
10
75.685696
20
16.095397
11
75.806769
21
16.398221
0
LINE
8
Layer 1
10
75.806769
20
16.398221
11
75.951831
21
16.525785
0
LINE
8
Layer 1
10
75.951831
20
16.525785
11
76.083911
21
16.581665
0
LINE
8
Layer 1
10
76.083911
20
16.581665
11
76.347789
21
16.536509
0
LINE
8
Layer 1
10
76.347789
20
16.536509
11
76.949769
21
15.912798
0
LINE
8
Layer 1
10
76.949769
20
15.912798
11
77.379029
21
15.347225
0
LINE
8
Layer 1
10
77.379029
20
15.347225
11
77.826915
21
14.641106
0
LINE
8
Layer 1
10
77.826915
20
14.641106
11
78.339148
21
13.693405
0
LINE
8
Layer 1
10
78.339148
20
13.693405
11
78.817232
21
12.656235
0
LINE
8
Layer 1
10
78.817232
20
12.656235
11
79.219963
21
11.608905
0
LINE
8
Layer 1
10
79.219963
20
11.608905
11
79.599552
21
10.654148
0
LINE
8
Layer 1
10
79.599552
20
10.654148
11
80.087232
21
9.691207
0
LINE
8
Layer 1
10
80.087232
20
9.691207
11
80.642363
21
8.728830
0
LINE
8
Layer 1
10
80.642363
20
8.728830
11
81.185076
21
7.832775
0
LINE
8
Layer 1
10
81.185076
20
7.832775
11
81.696744
21
6.990060
0
LINE
8
Layer 1
10
81.696744
20
6.990060
11
82.091290
21
6.372276
0
LINE
8
Layer 1
10
82.091290
20
6.372276
11
82.354039
21
5.962207
0
LINE
8
Layer 1
10
82.354039
20
5.962207
11
82.642752
21
5.490614
0
LINE
8
Layer 1
10
82.642752
20
5.490614
11
82.980007
21
4.956368
0
LINE
8
Layer 1
10
82.980007
20
4.956368
11
83.329116
21
4.495499
0
LINE
8
Layer 1
10
83.329116
20
4.495499
11
83.697698
21
4.098130
0
LINE
8
Layer 1
10
83.697698
20
4.098130
11
83.998264
21
3.913839
0
LINE
8
Layer 1
10
83.998264
20
3.913839
11
84.313788
21
3.826915
0
LINE
8
Layer 1
10
84.313788
20
3.826915
11
84.485943
21
3.798411
0
LINE
8
Layer 1
10
84.485943
20
3.798411
11
84.699867
21
3.824939
0
LINE
8
Layer 1
10
84.699867
20
3.824939
11
85.183313
21
3.980161
0
LINE
8
Layer 1
10
85.183313
20
3.980161
11
85.579270
21
4.185054
0
LINE
8
Layer 1
10
85.579270
20
4.185054
11
85.811821
21
4.378376
0
LINE
8
Layer 1
10
85.811821
20
4.378376
11
86.075134
21
4.675274
0
LINE
8
Layer 1
10
86.075134
20
4.675274
11
86.613331
21
5.680264
0
LINE
8
Layer 1
10
86.613331
20
5.680264
11
87.104397
21
7.090524
0
LINE
8
Layer 1
10
87.104397
20
7.090524
11
87.226035
21
7.859015
0
LINE
8
Layer 1
10
87.226035
20
7.859015
11
87.257080
21
8.823932
0
LINE
8
Layer 1
10
87.257080
20
8.823932
11
87.210795
21
10.163362
0
LINE
8
Layer 1
10
87.210795
20
10.163362
11
87.059524
21
11.366472
0
LINE
8
Layer 1
10
87.059524
20
11.366472
11
86.897529
21
12.403922
0
LINE
8
Layer 1
10
86.897529
20
12.403922
11
86.760087
21
13.348519
0
LINE
8
Layer 1
10
86.760087
20
13.348519
11
86.643529
21
14.255581
0
LINE
8
Layer 1
10
86.643529
20
14.255581
11
86.524714
21
15.108174
0
LINE
8
Layer 1
10
86.524714
20
15.108174
11
86.326030
21
16.244684
0
LINE
8
Layer 1
10
86.326030
20
16.244684
11
86.127628
21
17.297374
0
LINE
8
Layer 1
10
86.127628
20
17.297374
11
86.003450
21
18.051189
0
LINE
8
Layer 1
10
86.003450
20
18.051189
11
85.950393
21
18.463798
0
LINE
8
Layer 1
10
85.950393
20
18.463798
11
85.839762
21
19.412628
0
LINE
8
Layer 1
10
85.839762
20
19.412628
11
85.657447
21
20.891188
0
LINE
8
Layer 1
10
85.657447
20
20.891188
11
85.541454
21
22.010758
0
LINE
8
Layer 1
10
85.541454
20
22.010758
11
85.469205
21
23.138518
0
LINE
8
Layer 1
10
85.469205
20
23.138518
11
85.422356
21
24.070133
0
LINE
8
Layer 1
10
85.422356
20
24.070133
11
85.408809
21
24.404002
0
LINE
8
Layer 1
10
85.408809
20
24.404002
11
85.393852
21
24.842293
0
LINE
8
Layer 1
10
85.393852
20
24.842293
11
85.365912
21
25.564217
0
LINE
8
Layer 1
10
85.365912
20
25.564217
11
85.372685
21
26.572027
0
LINE
8
Layer 1
10
85.372685
20
26.572027
11
85.447474
21
27.983987
0
LINE
8
Layer 1
10
85.447474
20
27.983987
11
85.528754
21
29.227737
0
LINE
8
Layer 1
10
85.528754
20
29.227737
11
85.563185
21
30.366507
0
LINE
8
Layer 1
10
85.563185
20
30.366507
11
85.563749
21
31.405087
0
LINE
8
Layer 1
10
85.563749
20
31.405087
11
85.508716
21
32.247802
0
LINE
8
Layer 1
10
85.508716
20
32.247802
11
85.359138
21
32.993997
0
LINE
8
Layer 1
10
85.359138
20
32.993997
11
85.080020
21
33.662299
0
LINE
8
Layer 1
10
85.080020
20
33.662299
11
84.811627
21
34.103976
0
LINE
8
Layer 1
10
84.811627
20
34.103976
11
84.425830
21
34.396358
0
LINE
8
Layer 1
10
84.425830
20
34.396358
11
84.013786
21
34.624676
0
LINE
8
Layer 1
10
84.013786
20
34.624676
11
83.721968
21
34.742927
0
LINE
8
Layer 1
10
83.721968
20
34.742927
11
83.415193
21
34.863154
0
LINE
8
Layer 1
10
83.415193
20
34.863154
11
82.931747
21
34.974067
0
LINE
8
Layer 1
10
82.931747
20
34.974067
11
81.433427
21
34.943023
0
LINE
8
Layer 1
10
81.433427
20
34.943023
11
80.933894
21
34.909439
0
LINE
8
Layer 1
10
80.933894
20
34.909439
11
80.652801
21
34.823643
0
LINE
8
Layer 1
10
80.652801
20
34.823643
11
80.196166
21
34.509530
0
LINE
8
Layer 1
10
80.196166
20
34.509530
11
79.683651
21
34.058257
0
LINE
8
Layer 1
10
79.683651
20
34.058257
11
79.346396
21
33.681773
0
LINE
8
Layer 1
10
79.346396
20
33.681773
11
79.051756
21
32.671423
0
LINE
8
Layer 1
10
79.051756
20
32.671423
11
78.967654
21
32.018361
0
LINE
8
Layer 1
10
78.967654
20
32.018361
11
78.960316
21
31.249306
0
LINE
8
Layer 1
10
78.960316
20
31.249306
11
79.018736
21
30.366798
0
LINE
8
Layer 1
10
79.018736
20
30.366798
11
79.130214
21
29.586172
0
LINE
8
Layer 1
10
79.130214
20
29.586172
11
79.223065
21
28.778170
0
LINE
8
Layer 1
10
79.223065
20
28.778170
11
79.247336
21
28.176755
0
LINE
8
Layer 1
10
79.247336
20
28.176755
11
79.195689
21
27.737053
0
LINE
8
Layer 1
10
79.195689
20
27.737053
11
78.989667
21
27.299891
0
LINE
8
Layer 1
10
78.989667
20
27.299891
11
78.895123
21
27.319647
0
LINE
8
Layer 1
10
78.895123
20
27.319647
11
78.705188
21
27.385969
0
LINE
8
Layer 1
10
78.705188
20
27.385969
11
78.165015
21
27.739593
0
LINE
8
Layer 1
10
78.165015
20
27.739593
11
77.507438
21
28.320688
0
LINE
8
Layer 1
10
77.507438
20
28.320688
11
76.960210
21
28.902912
0
LINE
8
Layer 1
10
76.960210
20
28.902912
11
76.646944
21
29.244683
0
LINE
8
Layer 1
10
76.646944
20
29.244683
11
76.163780
21
29.902542
0
LINE
8
Layer 1
10
76.163780
20
29.902542
11
75.035740
21
31.414402
0
LINE
8
Layer 1
10
75.035740
20
31.414402
11
74.209676
21
32.458062
0
LINE
8
Layer 1
10
74.209676
20
32.458062
11
73.611083
21
33.082055
0
LINE
8
Layer 1
10
73.611083
20
33.082055
11
73.272134
21
33.240099
0
LINE
8
Layer 1
10
73.272134
20
33.240099
11
72.945603
21
33.411690
0
LINE
8
Layer 1
10
72.945603
20
33.411690
11
72.557548
21
33.523732
0
LINE
8
Layer 1
10
72.557548
20
33.523732
11
71.860742
21
33.634645
0
LINE
8
Layer 1
10
71.860742
20
33.634645
11
71.222920
21
33.666818
0
LINE
8
Layer 1
10
71.222920
20
33.666818
11
70.245585
21
33.656094
0
LINE
8
Layer 1
10
70.245585
20
33.656094
11
68.460815
21
33.595416
0
LINE
8
Layer 1
10
68.460815
20
33.595416
11
67.911047
21
33.636903
0
LINE
8
Layer 1
10
67.911047
20
33.636903
11
67.207185
21
33.618276
0
LINE
8
Layer 1
10
67.207185
20
33.618276
11
66.465223
21
33.599367
0
LINE
8
Layer 1
10
66.465223
20
33.599367
11
65.263803
21
33.607834
0
LINE
8
Layer 1
10
65.263803
20
33.607834
11
64.089763
21
33.610656
0
LINE
8
Layer 1
10
64.089763
20
33.610656
11
63.139522
21
33.635774
0
LINE
8
Layer 1
10
63.139522
20
33.635774
11
62.003862
21
33.704354
0
LINE
8
Layer 1
10
62.003862
20
33.704354
11
60.886542
21
33.758822
0
LINE
8
Layer 1
10
60.886542
20
33.758822
11
59.792082
21
33.822887
0
LINE
8
Layer 1
10
59.792082
20
33.822887
11
59.150591
21
33.900498
0
LINE
8
Layer 1
10
59.150591
20
33.900498
11
58.387745
21
33.979520
0
LINE
8
Layer 1
10
58.387745
20
33.979520
11
57.396017
21
34.054309
0
LINE
8
Layer 1
10
57.396017
20
34.054309
11
56.860360
21
34.093820
0
LINE
8
Layer 1
10
56.860360
20
34.093820
11
56.651516
21
34.133613
0
LINE
8
Layer 1
10
56.651516
20
34.133613
11
56.465814
21
34.184131
0
LINE
8
Layer 1
10
56.465814
20
34.184131
11
56.177948
21
34.263435
0
LINE
8
Layer 1
10
56.177948
20
34.263435
11
55.842950
21
34.324960
0
LINE
8
Layer 1
10
55.842950
20
34.324960
11
55.632412
21
34.340764
0
LINE
8
Layer 1
10
55.632412
20
34.340764
11
55.202023
21
34.339635
0
LINE
8
Layer 1
10
55.202023
20
34.339635
11
54.598350
21
34.309437
0
LINE
8
Layer 1
10
54.598350
20
34.309437
11
54.082166
21
34.281215
0
LINE
8
Layer 1
10
54.082166
20
34.281215
11
53.641053
21
34.275571
0
LINE
8
Layer 1
10
53.641053
20
34.275571
11
53.253280
21
34.293633
0
LINE
8
Layer 1
10
53.253280
20
34.293633
11
52.925056
21
34.309720
0
LINE
8
Layer 1
10
52.925056
20
34.309720
11
52.511036
21
34.299277
0
LINE
8
Layer 1
10
52.511036
20
34.299277
11
52.082623
21
34.276135
0
LINE
8
Layer 1
10
52.082623
20
34.276135
11
51.697672
21
34.250735
0
LINE
8
Layer 1
10
51.697672
20
34.250735
11
51.244706
21
34.209531
0
LINE
8
Layer 1
10
51.244706
20
34.209531
11
50.885437
21
34.155344
0
LINE
8
Layer 1
10
50.885437
20
34.155344
11
50.617044
21
34.061929
0
LINE
8
Layer 1
10
50.617044
20
34.061929
11
50.156740
21
33.530223
0
LINE
8
Layer 1
10
50.156740
20
33.530223
11
49.787311
21
32.793624
0
LINE
8
Layer 1
10
49.787311
20
32.793624
11
49.771224
21
32.318927
0
LINE
8
Layer 1
10
49.771224
20
32.318927
11
49.819484
21
31.781859
0
LINE
8
Layer 1
10
49.819484
20
31.781859
11
49.817227
21
31.228139
0
LINE
8
Layer 1
10
49.817227
20
31.228139
11
49.710547
21
30.858428
0
LINE
8
Layer 1
10
49.710547
20
30.858428
11
49.481947
21
30.445255
0
LINE
8
Layer 1
10
49.481947
20
30.445255
11
49.284956
21
30.083446
0
LINE
8
Layer 1
10
49.284956
20
30.083446
11
49.194927
21
29.857668
0
LINE
8
Layer 1
10
49.194927
20
29.857668
11
49.166140
21
29.827188
0
LINE
8
Layer 1
10
49.166140
20
29.827188
11
48.989187
21
29.824366
0
LINE
8
Layer 1
10
48.989187
20
29.824366
11
48.756636
21
29.830574
0
LINE
8
Layer 1
10
48.756636
20
29.830574
11
48.393134
21
29.876577
0
LINE
8
Layer 1
10
48.393134
20
29.876577
11
48.126434
21
29.944592
0
LINE
8
Layer 1
10
48.126434
20
29.944592
11
47.965285
21
29.987208
0
LINE
8
Layer 1
10
47.965285
20
29.987208
11
47.704794
21
30.059174
0
LINE
8
Layer 1
10
47.704794
20
30.059174
11
47.475065
21
30.126343
0
LINE
8
Layer 1
10
47.475065
20
30.126343
11
47.372336
21
30.175167
0
LINE
8
Layer 1
10
47.372336
20
30.175167
11
47.159541
21
30.301038
0
LINE
8
Layer 1
10
47.159541
20
30.301038
11
46.972146
21
30.415338
0
LINE
8
Layer 1
10
46.972146
20
30.415338
11
46.845711
21
30.514116
0
LINE
8
Layer 1
10
46.845711
20
30.514116
11
46.688796
21
30.704898
0
LINE
8
Layer 1
10
46.688796
20
30.704898
11
46.570827
21
30.915718
0
LINE
8
Layer 1
10
46.570827
20
30.915718
11
46.496603
21
31.135004
0
LINE
8
Layer 1
10
46.496603
20
31.135004
11
46.398107
21
31.482419
0
LINE
8
Layer 1
10
46.398107
20
31.482419
11
46.231314
21
31.906316
0
LINE
8
Layer 1
10
46.231314
20
31.906316
11
46.106854
21
32.165396
0
LINE
8
Layer 1
10
46.106854
20
32.165396
11
45.807699
21
32.548371
0
LINE
8
Layer 1
10
45.807699
20
32.548371
11
45.397630
21
32.991742
0
LINE
8
Layer 1
10
45.397630
20
32.991742
11
44.997439
21
33.266062
0
LINE
8
Layer 1
10
44.997439
20
33.266062
11
44.634784
21
33.478011
0
LINE
8
Layer 1
10
44.634784
20
33.478011
11
44.370342
21
33.609244
0
LINE
8
Layer 1
10
44.370342
20
33.609244
11
44.162909
21
33.712819
0
LINE
8
Layer 1
10
44.162909
20
33.712819
11
43.709378
21
33.837279
0
LINE
8
Layer 1
10
43.709378
20
33.837279
11
43.088490
21
33.948757
0
LINE
8
Layer 1
10
43.088490
20
33.948757
11
42.653021
21
33.966819
0
LINE
8
Layer 1
10
42.653021
20
33.966819
11
42.092528
21
33.974722
0
LINE
8
Layer 1
10
42.092528
20
33.974722
11
41.489420
21
33.968513
0
LINE
8
Layer 1
10
41.489420
20
33.968513
11
40.724598
21
33.895417
0
LINE
8
Layer 1
10
40.724598
20
33.895417
11
39.782541
21
33.802848
0
LINE
8
Layer 1
10
39.782541
20
33.802848
11
38.894106
21
33.742735
0
LINE
8
Layer 1
10
38.894106
20
33.742735
11
38.046029
21
33.671897
0
LINE
8
Layer 1
10
38.046029
20
33.671897
11
37.295318
21
33.587231
0
LINE
8
Layer 1
10
37.295318
20
33.587231
11
36.391079
21
33.505104
0
LINE
8
Layer 1
10
36.391079
20
33.505104
11
35.606502
21
33.451764
0
LINE
8
Layer 1
10
35.606502
20
33.451764
11
34.978276
21
33.386006
0
LINE
8
Layer 1
10
34.978276
20
33.386006
11
34.431330
21
33.303598
0
LINE
8
Layer 1
10
34.431330
20
33.303598
11
34.140924
21
33.258724
0
LINE
8
Layer 1
10
34.140924
20
33.258724
11
33.849953
21
33.236147
0
LINE
8
Layer 1
10
33.849953
20
33.236147
11
33.441013
21
33.245178
0
LINE
8
Layer 1
10
33.441013
20
33.245178
11
32.955591
21
33.235300
0
LINE
8
Layer 1
10
32.955591
20
33.235300
11
32.587291
21
33.188451
0
LINE
8
Layer 1
10
32.587291
20
33.188451
11
32.257938
21
33.106324
0
LINE
8
Layer 1
10
32.257938
20
33.106324
11
31.624632
21
32.920340
0
LINE
8
Layer 1
10
31.624632
20
32.920340
11
30.931777
21
32.727018
0
LINE
8
Layer 1
10
30.931777
20
32.727018
11
30.494051
21
32.594938
0
LINE
8
Layer 1
10
30.494051
20
32.594938
11
30.238076
21
32.503781
0
LINE
8
Layer 1
10
30.238076
20
32.503781
11
29.888403
21
32.391457
0
LINE
8
Layer 1
10
29.888403
20
32.391457
11
29.448983
21
32.283366
0
LINE
8
Layer 1
10
29.448983
20
32.283366
11
29.175792
21
32.261917
0
LINE
8
Layer 1
10
29.175792
20
32.261917
11
29.018030
21
32.250910
0
LINE
8
Layer 1
10
29.018030
20
32.250910
11
28.707304
21
32.268408
0
LINE
8
Layer 1
10
28.707304
20
32.268408
11
27.868540
21
32.439717
0
LINE
8
Layer 1
10
27.868540
20
32.439717
11
26.965430
21
32.659286
0
LINE
8
Layer 1
10
26.965430
20
32.659286
11
26.421024
21
32.778666
0
LINE
8
Layer 1
10
26.421024
20
32.778666
11
25.735789
21
32.890990
0
LINE
8
Layer 1
10
25.735789
20
32.890990
11
24.806150
21
32.998799
0
LINE
8
Layer 1
10
24.806150
20
32.998799
11
24.052053
21
33.013757
0
LINE
8
Layer 1
10
24.052053
20
33.013757
11
23.546029
21
32.938121
0
LINE
8
Layer 1
10
23.546029
20
32.938121
11
23.086007
21
32.783181
0
LINE
8
Layer 1
10
23.086007
20
32.783181
11
22.699081
21
32.622314
0
LINE
8
Layer 1
10
22.699081
20
32.622314
11
21.905473
21
32.162010
0
LINE
8
Layer 1
10
21.905473
20
32.162010
11
21.591924
21
31.655422
0
LINE
8
Layer 1
10
21.591924
20
31.655422
11
21.303775
21
30.737072
0
LINE
8
Layer 1
10
21.303775
20
30.737072
11
20.997564
21
28.915612
0
LINE
8
Layer 1
10
20.997564
20
28.915612
11
20.892295
21
26.885872
0
LINE
8
Layer 1
10
20.892295
20
26.885872
11
20.941120
21
25.029132
0
LINE
8
Layer 1
10
20.941120
20
25.029132
11
21.009417
21
23.473522
0
LINE
8
Layer 1
10
21.009417
20
23.473522
11
21.022117
21
22.692614
0
LINE
8
Layer 1
10
21.022117
20
22.692614
11
20.861533
21
21.635694
0
LINE
8
Layer 1
10
20.861533
20
21.635694
11
20.573384
21
20.308124
0
LINE
8
Layer 1
10
20.573384
20
20.308124
11
20.316280
21
19.670585
0
LINE
8
Layer 1
10
20.316280
20
19.670585
11
20.065949
21
19.296076
0
LINE
8
Layer 1
10
20.065949
20
19.296076
11
19.913267
21
19.119405
0
LINE
8
Layer 1
10
19.913267
20
19.119405
11
19.531703
21
18.839723
0
LINE
8
Layer 1
10
19.531703
20
18.839723
11
18.738659
21
18.537181
0
LINE
8
Layer 1
10
18.738659
20
18.537181
11
18.417208
21
18.828999
0
LINE
8
Layer 1
10
18.417208
20
18.828999
11
18.070639
21
19.357036
0
LINE
8
Layer 1
10
18.070639
20
19.357036
11
17.804786
21
20.050173
0
LINE
8
Layer 1
10
17.804786
20
20.050173
11
17.637993
21
20.750366
0
LINE
8
Layer 1
10
17.637993
20
20.750366
11
17.607513
21
21.217443
0
LINE
8
Layer 1
10
17.607513
20
21.217443
11
17.630938
21
21.764954
0
LINE
8
Layer 1
10
17.630938
20
21.764954
11
17.709395
21
22.477847
0
LINE
8
Layer 1
10
17.709395
20
22.477847
11
17.851353
21
23.345962
0
LINE
8
Layer 1
10
17.851353
20
23.345962
11
18.042417
21
24.640512
0
LINE
8
Layer 1
10
18.042417
20
24.640512
11
18.175626
21
25.986992
0
LINE
8
Layer 1
10
18.175626
20
25.986992
11
18.167442
21
27.083992
0
LINE
8
Layer 1
10
18.167442
20
27.083992
11
18.046087
21
28.195942
0
LINE
8
Layer 1
10
18.046087
20
28.195942
11
17.805916
21
29.501502
0
LINE
8
Layer 1
10
17.805916
20
29.501502
11
17.470072
21
30.850242
0
LINE
8
Layer 1
10
17.470072
20
30.850242
11
17.189826
21
31.795686
0
LINE
8
Layer 1
10
17.189826
20
31.795686
11
16.901113
21
32.473583
0
LINE
8
Layer 1
10
16.901113
20
32.473583
11
16.544949
21
33.072176
0
LINE
8
Layer 1
10
16.544949
20
33.072176
11
16.231683
21
33.484785
0
LINE
8
Layer 1
10
16.231683
20
33.484785
11
15.898379
21
33.775191
0
LINE
8
Layer 1
10
15.898379
20
33.775191
11
15.609101
21
33.922229
0
LINE
8
Layer 1
10
15.609101
20
33.922229
11
15.411828
21
33.940856
0
LINE
8
Layer 1
10
15.411828
20
33.940856
11
15.161779
21
33.820629
0
LINE
8
Layer 1
10
15.161779
20
33.820629
11
14.915964
21
33.612631
0
LINE
8
Layer 1
10
14.915964
20
33.612631
11
14.653215
21
33.234171
0
LINE
8
Layer 1
10
14.653215
20
33.234171
11
14.410222
21
32.755805
0
LINE
8
Layer 1
10
14.410222
20
32.755805
11
14.221698
21
32.077908
0
LINE
8
Layer 1
10
14.221698
20
32.077908
11
13.980963
21
30.597088
0
LINE
8
Layer 1
10
13.980963
20
30.597088
11
13.791028
21
28.694628
0
LINE
8
Layer 1
10
13.791028
20
28.694628
11
13.719908
21
27.527638
0
LINE
8
Layer 1
10
13.719908
20
27.527638
11
13.707208
21
26.742496
0
LINE
8
Layer 1
10
13.707208
20
26.742496
11
13.728092
21
25.305706
0
LINE
8
Layer 1
10
13.728092
20
25.305706
11
13.782844
21
23.651606
0
LINE
8
Layer 1
10
13.782844
20
23.651606
11
13.821226
21
22.118856
0
LINE
8
Layer 1
10
13.821226
20
22.118856
11
13.762524
21
20.698996
0
LINE
8
Layer 1
10
13.762524
20
20.698996
11
13.610406
21
19.780363
0
LINE
8
Layer 1
10
13.610406
20
19.780363
11
13.439944
21
19.336146
0
LINE
8
Layer 1
10
13.439944
20
19.336146
11
13.245211
21
19.064931
0
LINE
8
Layer 1
10
13.245211
20
19.064931
11
13.055840
21
18.887696
0
LINE
8
Layer 1
10
13.055840
20
18.887696
11
12.863929
21
18.803029
0
LINE
8
Layer 1
10
12.863929
20
18.803029
11
12.441443
21
18.891083
0
LINE
8
Layer 1
10
12.441443
20
18.891083
11
11.837488
21
19.355338
0
LINE
8
Layer 1
10
11.837488
20
19.355338
11
11.293082
21
20.305579
0
LINE
8
Layer 1
10
11.293082
20
20.305579
11
10.987718
21
21.119225
0
LINE
8
Layer 1
10
10.987718
20
21.119225
11
10.870596
21
21.711891
0
LINE
8
Layer 1
10
10.870596
20
21.711891
11
10.712552
21
22.709828
0
LINE
8
Layer 1
10
10.712552
20
22.709828
11
10.542937
21
23.888388
0
LINE
8
Layer 1
10
10.542937
20
23.888388
11
10.378966
21
25.202698
0
LINE
8
Layer 1
10
10.378966
20
25.202698
11
10.192135
21
26.629328
0
LINE
8
Layer 1
10
10.192135
20
26.629328
11
10.002482
21
28.155868
0
LINE
8
Layer 1
10
10.002482
20
28.155868
11
9.885360
21
29.458608
0
LINE
8
Layer 1
10
9.885360
20
29.458608
11
9.850082
21
30.013174
0
LINE
8
Layer 1
10
9.850082
20
30.013174
11
9.825811
21
30.330674
0
LINE
8
Layer 1
10
9.825811
20
30.330674
11
9.803233
21
31.103116
0
LINE
8
Layer 1
10
9.803233
20
31.103116
11
9.706995
21
32.418836
0
LINE
8
Layer 1
10
9.706995
20
32.418836
11
9.535686
21
32.761171
 0 
ENDSEC
 0 
EOF