<?xml version="1.0" encoding="UTF-8" standalone="no"?><!DOCTYPE svg PUBLIC "-//W3C//DTD SVG 1.1//EN" "http://www.w3.org/Graphics/SVG/1.1/DTD/svg11.dtd"><svg width="100%" height="100%" viewBox="0 0 316 131" version="1.1" xmlns="http://www.w3.org/2000/svg" xmlns:xlink="http://www.w3.org/1999/xlink" xml:space="preserve" xmlns:serif="http://www.serif.com/" style="fill-rule:evenodd;clip-rule:evenodd;stroke-linecap:round;stroke-linejoin:round;"><g id="Neue_Ebene_3"><path id="STROKE_3aa89f3b-c85a-4e6f-a19e-c577efcddba3" d="M32.116,12.872c-0.17,-0.033 -0.519,-0.211 -1.047,-0.533c-0.528,-0.322 -0.955,-0.566 -1.282,-0.733c-0.326,-0.166 -0.581,-0.282 -0.765,-0.349c-0.184,-0.067 -0.447,-0.145 -0.79,-0.233c-0.343,-0.088 -0.758,-0.161 -1.246,-0.22c-0.488,-0.059 -0.955,-0.086 -1.4,-0.082c-0.445,0.004 -1.144,0.068 -2.095,0.191c-0.951,0.123 -1.562,0.222 -1.832,0.297c-0.269,0.076 -0.496,0.101 -0.68,0.075c-0.183,-0.025 -1.157,0.387 -2.922,1.236c-1.205,0.225 -2.239,0.386 -3.102,0.483c-0.863,0.097 -1.651,0.24 -2.363,0.43c-0.711,0.19 -1.448,0.486 -2.209,0.888c-0.761,0.402 -1.248,0.724 -1.459,0.967c-0.211,0.243 -0.471,0.616 -0.78,1.12c-0.309,0.504 -0.528,0.956 -0.657,1.357c-0.129,0.4 -0.237,0.988 -0.326,1.764c-0.089,0.776 -0.142,1.286 -0.161,1.531c-0.019,0.245 0,0.738 0.056,1.48c0.056,0.742 0.13,1.468 0.222,2.178c0.093,0.71 0.179,1.345 0.26,1.904c0.081,0.56 0.139,1.006 0.174,1.339c0.035,0.333 0.156,0.958 0.364,1.875c0.208,0.917 0.421,1.75 0.639,2.5c0.217,0.749 0.399,1.386 0.546,1.909c0.147,0.524 0.337,1.378 0.569,2.562c0.232,1.183 0.499,2.694 0.801,4.531c0.301,1.837 0.451,2.825 0.449,2.962c-0.003,0.137 0.03,0.834 0.097,2.091c0.067,1.257 0.125,2.161 0.176,2.713c0.05,0.551 0.099,1.259 0.146,2.122c0.047,0.863 0.122,2.013 0.225,3.448c0.103,1.436 0.258,2.756 0.465,3.96c0.206,1.204 0.419,2.289 0.639,3.254c0.22,0.965 0.467,1.953 0.74,2.964c0.273,1.011 0.53,1.931 0.771,2.761c0.241,0.831 0.488,1.639 0.742,2.426c0.254,0.787 0.861,2.305 1.82,4.555c0.959,2.25 1.688,4.025 2.187,5.325c0.499,1.299 0.926,2.474 1.281,3.523c0.356,1.049 0.746,2.255 1.17,3.616c0.424,1.361 0.902,2.936 1.434,4.727c0.532,1.791 0.957,3.194 1.275,4.209c0.318,1.015 0.851,2.56 1.599,4.635c0.748,2.075 1.481,4.076 2.2,6.004c0.718,1.927 1.252,3.324 1.603,4.191c0.351,0.866 0.667,1.577 0.946,2.133c0.279,0.556 0.575,1.074 0.888,1.553c0.313,0.479 0.682,1.05 1.109,1.715c0.426,0.665 0.784,1.187 1.073,1.564c0.289,0.377 0.74,0.829 1.351,1.354c0.612,0.525 1.136,0.982 1.572,1.372c0.436,0.39 0.948,0.696 1.535,0.919c0.588,0.223 1.204,0.429 1.849,0.616c0.644,0.187 1.041,0.288 1.192,0.301c0.15,0.013 0.379,-0.035 0.687,-0.145c0.308,-0.109 0.666,-0.281 1.074,-0.515c0.407,-0.233 1.167,-0.812 2.278,-1.735c1.111,-0.923 2.071,-1.908 2.879,-2.955c0.809,-1.046 1.566,-2.237 2.271,-3.572c0.705,-1.335 1.238,-2.398 1.597,-3.187c0.36,-0.79 0.761,-1.694 1.203,-2.711c0.442,-1.017 0.881,-2.038 1.316,-3.062c0.435,-1.025 0.776,-1.851 1.023,-2.478c0.247,-0.627 0.424,-1.052 0.532,-1.276c0.109,-0.224 0.412,-1.086 0.909,-2.587c0.497,-1.501 0.854,-2.585 1.07,-3.25c0.217,-0.666 0.483,-1.374 0.799,-2.125c0.316,-0.751 1.069,-1.66 2.259,-2.729c0.077,-0.006 0.255,0.13 0.535,0.407c0.28,0.277 0.707,0.828 1.28,1.654c0.574,0.826 1.046,1.722 1.416,2.688c0.371,0.967 0.643,1.739 0.816,2.316c0.173,0.578 0.42,1.406 0.741,2.485c0.32,1.079 0.499,1.675 0.536,1.786c0.037,0.111 0.261,1.09 0.67,2.937c0.41,1.846 0.926,3.765 1.548,5.757c0.621,1.991 1.165,3.533 1.631,4.624c0.466,1.091 0.925,1.983 1.378,2.675c0.453,0.693 1.07,1.523 1.851,2.491c0.781,0.968 1.214,1.498 1.299,1.589c0.085,0.092 0.499,0.35 1.244,0.775c0.745,0.425 1.619,0.793 2.623,1.102c1.004,0.309 1.824,0.415 2.461,0.316c0.637,-0.099 1.409,-0.451 2.317,-1.057c0.907,-0.607 1.609,-1.233 2.106,-1.88c0.497,-0.647 0.869,-1.218 1.117,-1.711c0.249,-0.493 0.5,-1.044 0.755,-1.655c0.254,-0.611 0.696,-2.149 1.325,-4.612c0.629,-2.464 1.074,-4.828 1.335,-7.091c0.261,-2.263 0.465,-4.439 0.612,-6.528c0.147,-2.09 0.249,-3.557 0.304,-4.4c0.055,-0.843 0.123,-1.708 0.205,-2.596c0.081,-0.888 0.163,-1.632 0.245,-2.232c0.081,-0.6 0.254,-2.006 0.519,-4.218c0.265,-2.213 0.53,-4.089 0.793,-5.628c0.263,-1.539 0.514,-2.928 0.752,-4.166c0.238,-1.238 0.505,-2.585 0.802,-4.042c0.297,-1.457 0.56,-2.777 0.789,-3.962c0.229,-1.185 0.455,-2.485 0.677,-3.898c0.222,-1.414 0.395,-2.673 0.52,-3.777c0.125,-1.104 0.2,-1.856 0.224,-2.257c0.025,-0.401 0.084,-1.051 0.178,-1.949c0.094,-0.898 0.219,-2.127 0.376,-3.686c0.156,-1.559 0.338,-2.931 0.545,-4.114c0.207,-1.183 0.515,-2.365 0.925,-3.547c0.409,-1.182 0.983,-2.137 1.72,-2.866c0.737,-0.728 1.391,-1.3 1.96,-1.716c0.569,-0.415 1.41,-0.945 2.523,-1.588c1.114,-0.643 1.703,-0.973 1.767,-0.989c0.063,-0.015 1.808,-0.34 5.235,-0.973c0.509,1.231 0.786,1.956 0.832,2.173c0.047,0.217 0.028,0.997 -0.056,2.339c-0.084,1.341 -0.208,2.507 -0.373,3.498c-0.164,0.99 -0.276,1.765 -0.336,2.325c-0.06,0.56 -0.095,1.026 -0.105,1.397c-0.01,0.372 -0.011,0.606 -0.004,0.702c0.008,0.096 0.043,0.528 0.106,1.296c0.063,0.767 0.191,1.824 0.386,3.17c0.195,1.346 0.358,2.431 0.489,3.256c0.131,0.825 0.245,1.519 0.342,2.08c0.097,0.562 0.191,1.321 0.281,2.278c0.089,0.957 0.169,2.035 0.238,3.234c0.069,1.199 0.114,2.033 0.133,2.501c0.019,0.468 0.021,0.959 0.005,1.472c-0.017,0.513 -0.104,1.575 -0.262,3.186c-0.159,1.611 -0.248,2.977 -0.267,4.098c-0.019,1.121 -0.013,2.157 0.018,3.11c0.032,0.953 0.072,1.902 0.119,2.847c0.047,0.945 0.095,2.121 0.146,3.527c0.051,1.406 0.152,3.308 0.305,5.706c0.153,2.398 0.273,3.857 0.361,4.378c0.088,0.52 0.281,1.346 0.58,2.478c0.298,1.132 0.457,1.728 0.476,1.788c0.019,0.061 0.108,0.439 0.267,1.136c0.158,0.697 0.319,1.686 0.483,2.967c0.163,1.281 0.293,2.257 0.388,2.927c0.095,0.669 0.185,1.151 0.271,1.445c0.086,0.295 0.213,0.64 0.38,1.037c0.167,0.397 0.317,0.743 0.448,1.038c0.131,0.295 0.232,0.533 0.301,0.712c0.07,0.179 0.228,0.501 0.474,0.966c0.245,0.464 0.472,0.851 0.679,1.16c0.207,0.309 0.377,0.548 0.51,0.718c0.133,0.17 0.464,0.514 0.993,1.033c0.53,0.519 0.995,1.009 1.396,1.472c0.401,0.463 0.888,0.969 1.459,1.52c0.571,0.551 1.149,1.077 1.733,1.577c0.584,0.5 1.103,0.971 1.558,1.412c0.454,0.441 0.87,0.855 1.247,1.242c0.377,0.387 0.774,0.734 1.193,1.04c0.419,0.306 0.643,0.474 0.672,0.505c0.029,0.031 0.432,0.183 1.207,0.457c0.776,0.274 1.452,0.419 2.029,0.436c0.576,0.017 1.151,0.001 1.725,-0.05c0.573,-0.05 1.572,-0.216 2.996,-0.498c1.424,-0.281 2.848,-0.533 4.271,-0.756c1.423,-0.223 2.527,-0.385 3.31,-0.487c0.783,-0.101 1.75,-0.198 2.901,-0.289c1.151,-0.091 2.609,-0.245 4.374,-0.464c1.765,-0.219 3.121,-0.379 4.066,-0.48c0.946,-0.1 2.432,-0.291 4.457,-0.574c2.681,-1.36 4.375,-2.323 5.083,-2.888c0.708,-0.565 1.211,-1.003 1.509,-1.312c0.298,-0.309 0.516,-0.553 0.655,-0.732c0.138,-0.179 0.369,-0.646 0.694,-1.402c0.324,-0.755 0.546,-1.899 0.666,-3.431c0.121,-1.532 0.076,-2.71 -0.134,-3.533c-0.21,-0.824 -0.389,-1.424 -0.538,-1.799c-0.148,-0.375 -0.5,-0.924 -1.057,-1.646c-0.557,-0.722 -1.063,-1.232 -1.519,-1.53c-0.457,-0.298 -0.911,-0.516 -1.362,-0.655c-0.451,-0.138 -0.846,-0.227 -1.186,-0.268c-0.339,-0.041 -1.114,0.005 -2.323,0.137c-1.209,0.133 -2.002,0.247 -2.379,0.342c-0.376,0.095 -1.116,0.332 -2.219,0.709c-1.103,0.377 -2.141,0.71 -3.112,1.001c-0.971,0.291 -1.756,0.511 -2.355,0.66c-0.599,0.149 -1.56,0.228 -2.885,0.238c-1.325,0.009 -2.322,-0.059 -2.992,-0.204c-0.671,-0.145 -1.174,-0.287 -1.509,-0.424c-0.335,-0.138 -0.693,-0.346 -1.072,-0.623c-0.379,-0.277 -0.871,-0.673 -1.476,-1.186c-0.604,-0.513 -1.057,-0.927 -1.36,-1.242c-0.303,-0.315 -0.564,-0.678 -0.783,-1.088c-0.219,-0.411 -0.425,-0.884 -0.62,-1.42c-0.195,-0.537 -0.375,-1.328 -0.542,-2.373c-0.166,-1.045 -0.295,-2.914 -0.387,-5.606c0.972,-1.43 1.713,-2.299 2.222,-2.607c0.509,-0.307 0.863,-0.495 1.061,-0.562c0.197,-0.067 0.431,-0.128 0.702,-0.183c0.27,-0.055 0.524,-0.117 0.762,-0.186c0.238,-0.07 0.584,-0.154 1.039,-0.252c0.455,-0.098 0.752,-0.153 0.891,-0.166c0.139,-0.012 0.471,-0.068 0.995,-0.168c0.524,-0.099 0.983,-0.208 1.376,-0.327c0.394,-0.119 0.748,-0.24 1.063,-0.365c0.315,-0.125 0.815,-0.365 1.5,-0.722c0.686,-0.357 1.125,-0.604 1.318,-0.742c0.193,-0.137 0.631,-0.433 1.315,-0.888c0.685,-0.454 1.171,-0.781 1.458,-0.981c0.287,-0.2 0.572,-0.394 0.854,-0.582c0.282,-0.188 0.56,-0.402 0.833,-0.643c0.274,-0.241 0.519,-0.496 0.735,-0.767c0.216,-0.271 0.462,-0.685 0.737,-1.242c0.275,-0.557 0.489,-1.096 0.641,-1.619c0.153,-0.523 0.277,-1.047 0.374,-1.572c0.097,-0.525 0.143,-1.595 0.139,-3.212c-0.003,-1.617 -0.064,-2.846 -0.182,-3.687c-0.118,-0.841 -0.244,-1.474 -0.378,-1.897c-0.135,-0.423 -0.265,-0.823 -0.391,-1.2c-0.127,-0.377 -0.299,-0.839 -0.517,-1.385c-0.218,-0.546 -0.511,-1.066 -0.879,-1.559c-0.369,-0.493 -0.802,-0.836 -1.301,-1.029c-0.499,-0.194 -1.031,-0.317 -1.596,-0.368c-0.565,-0.051 -0.986,-0.051 -1.261,0.002c-0.275,0.053 -0.562,0.123 -0.86,0.209c-0.298,0.086 -0.634,0.2 -1.007,0.341c-0.373,0.141 -0.84,0.3 -1.401,0.475c-0.561,0.176 -1.182,0.34 -1.865,0.493c-0.683,0.153 -1.341,0.29 -1.976,0.411c-0.635,0.121 -1.065,0.195 -1.29,0.221c-0.225,0.026 -0.543,0.035 -0.953,0.026c-0.41,-0.008 -0.8,-0.044 -1.17,-0.107c-0.371,-0.063 -0.964,-0.267 -1.781,-0.614c-0.817,-0.347 -1.495,-0.742 -2.034,-1.186c-0.539,-0.444 -0.992,-0.881 -1.359,-1.312c-0.367,-0.431 -0.922,-1.288 -1.666,-2.572c-0.745,-1.283 -1.292,-2.364 -1.643,-3.243c-0.351,-0.879 -0.828,-2.376 -1.433,-4.491c-0.605,-2.115 -1.02,-4.058 -1.247,-5.83c-0.227,-1.771 -0.355,-2.944 -0.386,-3.517c-0.031,-0.573 0.255,-1.865 0.856,-3.876c0.601,-2.011 0.975,-3.127 1.124,-3.35c0.149,-0.223 0.548,-0.627 1.199,-1.21c0.651,-0.583 1.047,-0.936 1.188,-1.057c0.141,-0.122 0.522,-0.337 1.144,-0.646c0.622,-0.309 1.059,-0.512 1.311,-0.607c0.253,-0.095 0.633,-0.156 1.14,-0.185c0.507,-0.029 0.828,-0.034 0.963,-0.017c0.135,0.017 0.38,0.014 0.737,-0.008c0.357,-0.022 0.761,-0.049 1.213,-0.08c0.452,-0.031 0.812,-0.005 1.08,0.076c0.267,0.082 0.574,0.135 0.92,0.16c0.346,0.024 0.608,0.084 0.786,0.181c0.178,0.096 0.285,0.135 0.32,0.117c0.035,-0.018 0.133,-0.03 0.296,-0.035c0.163,-0.006 0.441,0.092 0.834,0.295c0.392,0.203 0.798,0.48 1.219,0.831c0.42,0.351 1.421,1.284 3.004,2.799c1.583,1.516 2.896,2.603 3.94,3.26c1.044,0.657 3.132,1.355 6.263,2.094c0.333,0.029 0.629,0.086 0.887,0.17c0.258,0.084 0.735,0.194 1.43,0.329l1.204,0.115c0.777,0.047 1.961,-0.006 3.554,-0.16c1.593,-0.153 2.806,-0.305 3.638,-0.454c0.832,-0.149 1.47,-0.201 1.914,-0.158c0.444,0.044 0.783,0.1 1.016,0.167c0.233,0.068 0.455,0.145 0.666,0.232c0.211,0.086 0.518,0.229 0.921,0.428c0.402,0.199 0.719,0.388 0.95,0.565c0.231,0.177 0.431,0.398 0.601,0.661c0.17,0.263 0.295,0.491 0.374,0.682c0.079,0.191 0.183,0.449 0.31,0.775c0.127,0.326 0.201,1.016 0.221,2.069c0.02,1.053 -0.002,2.401 -0.067,4.045c-0.065,1.643 -0.104,3.551 -0.119,5.724c-0.014,2.173 -0.004,3.966 0.031,5.379c0.035,1.413 0.113,3.292 0.234,5.636c0.121,2.344 0.342,4.67 0.663,6.979c0.32,2.308 0.631,4.299 0.933,5.972c0.301,1.674 0.574,3.133 0.819,4.377c0.244,1.245 0.445,2.237 0.604,2.977c0.159,0.739 0.341,1.627 0.548,2.664c0.207,1.037 0.384,1.857 0.53,2.462c0.145,0.605 0.369,1.635 0.67,3.089c0.301,1.455 0.565,3.07 0.79,4.845c0.226,1.775 0.368,2.988 0.425,3.638c0.058,0.65 0.198,1.728 0.42,3.234c0.223,1.506 0.437,2.702 0.644,3.589c0.207,0.887 0.352,1.455 0.434,1.702c0.082,0.248 0.207,0.649 0.375,1.204c0.168,0.555 0.303,0.985 0.405,1.292c0.102,0.307 0.245,0.656 0.428,1.048c0.184,0.391 0.567,0.957 1.148,1.698c0.582,0.74 1.091,1.326 1.527,1.758c0.437,0.432 0.912,0.809 1.427,1.13c0.515,0.321 1.004,0.566 1.467,0.735c0.463,0.169 0.888,0.284 1.277,0.345c0.389,0.061 0.612,0.105 0.671,0.132c0.059,0.027 0.243,0.052 0.551,0.077c0.308,0.025 0.635,0.062 0.98,0.112c0.345,0.051 0.79,0.151 1.334,0.302c0.545,0.151 1.179,0.261 1.903,0.331c0.725,0.07 1.485,0.119 2.281,0.148c0.796,0.029 2.521,0.089 5.175,0.178c2.653,0.089 6.368,0.214 11.145,0.374l0.177,-0.037c0.376,-0.133 1.036,-0.147 1.98,-0.04c0.476,-0.012 1.526,-0.126 3.15,-0.343c1.624,-0.217 2.89,-0.476 3.799,-0.775c0.909,-0.299 1.78,-0.726 2.613,-1.279c0.833,-0.553 1.506,-0.981 2.019,-1.284l0.429,-0.879c0.311,-0.483 0.461,-1.735 0.45,-3.756c-0.011,-2.02 -0.203,-3.705 -0.576,-5.055c-0.373,-1.351 -0.71,-2.368 -1.01,-3.053c-0.3,-0.685 -0.564,-1.282 -0.792,-1.789c-0.228,-0.507 -0.476,-0.944 -0.743,-1.311c-0.267,-0.367 -0.444,-0.599 -0.53,-0.696c-0.086,-0.097 -0.196,-0.251 -0.329,-0.462c-0.133,-0.211 -0.794,-1.026 -1.983,-2.446c-0.383,-0.117 -0.619,-0.211 -0.707,-0.28c-0.088,-0.069 -0.639,-0.11 -1.654,-0.123c-1.015,-0.013 -1.904,0.019 -2.667,0.096c-0.763,0.077 -1.336,0.149 -1.72,0.217c-0.384,0.068 -0.695,0.127 -0.934,0.177c-0.238,0.05 -1.077,0.215 -2.516,0.494c-1.439,0.279 -2.49,0.487 -3.155,0.624c-0.665,0.137 -1.12,0.227 -1.365,0.271c-0.245,0.043 -0.662,0.101 -1.252,0.172c-0.589,0.071 -1.662,0.055 -3.217,-0.049c-1.555,-0.104 -2.575,-0.277 -3.062,-0.518c-0.487,-0.241 -0.855,-0.993 -1.105,-2.255c-0.25,-1.262 -0.342,-2.321 -0.277,-3.176c0.065,-0.855 0.1,-1.547 0.106,-2.076c0.006,-0.529 0.062,-1.163 0.168,-1.902c0.106,-0.739 0.442,-1.898 1.007,-3.475c0.565,-1.577 1.134,-2.521 1.705,-2.83c0.571,-0.309 1.146,-0.565 1.725,-0.768c0.423,-0.025 0.837,-0.052 1.242,-0.08c0.405,-0.029 1.522,-0.084 3.349,-0.165c1.827,-0.082 3.321,-0.367 4.48,-0.856c1.159,-0.489 1.822,-0.814 1.989,-0.975c0.167,-0.16 0.339,-0.382 0.514,-0.667c0.176,-0.284 0.325,-0.622 0.448,-1.013c0.123,-0.391 0.283,-1.267 0.48,-2.629c0.197,-1.363 0.276,-2.534 0.236,-3.515c-0.039,-0.981 -0.123,-1.877 -0.251,-2.689c-0.128,-0.811 -0.321,-1.568 -0.58,-2.269c-0.259,-0.701 -0.691,-1.855 -1.296,-3.462c-2.758,-1.524 -4.826,-2.381 -6.205,-2.572c-1.378,-0.191 -2.49,-0.194 -3.337,-0.011c-0.846,0.184 -1.527,0.29 -2.044,0.319c-0.517,0.028 -1.041,0.032 -1.572,0.011c-0.531,-0.021 -1.001,-0.087 -1.412,-0.199c-0.411,-0.111 -0.739,-0.211 -0.984,-0.3c-0.245,-0.089 -0.657,-0.769 -1.235,-2.041c-0.577,-1.271 -0.881,-2.321 -0.912,-3.148c-0.03,-0.827 -0.052,-1.631 -0.066,-2.41c-0.014,-0.779 -0.043,-1.601 -0.086,-2.466c-0.044,-0.864 -0.092,-1.834 -0.143,-2.911c-0.052,-1.077 -0.105,-2.242 -0.159,-3.496c-0.054,-1.253 -0.11,-2.089 -0.168,-2.506c-0.058,-0.417 -0.192,-1.58 -0.401,-3.489c-0.21,-1.909 -0.395,-3.897 -0.554,-5.965c-0.159,-2.068 -0.188,-3.376 -0.087,-3.925c0.101,-0.548 0.263,-1.065 0.486,-1.551c0.223,-0.486 0.348,-0.759 0.375,-0.818c0.027,-0.059 0.187,-0.23 0.479,-0.511c0.292,-0.281 0.593,-0.499 0.903,-0.653c0.311,-0.154 0.743,-0.304 1.298,-0.449c0.555,-0.145 1.263,-0.144 2.126,0.001c0.863,0.146 1.944,0.438 3.243,0.876c1.299,0.439 3.521,1.331 6.664,2.678l2.266,0.646c0.13,0.058 2.454,0.754 6.972,2.088c0.763,0.236 1.299,0.388 1.61,0.455c0.311,0.067 1.033,0.147 2.166,0.238c1.133,0.091 2.152,-0.003 3.055,-0.282c0.903,-0.28 1.714,-0.662 2.435,-1.146c0.72,-0.484 1.537,-1.079 2.451,-1.786c0.914,-0.706 1.512,-1.127 1.793,-1.263c0.281,-0.135 0.503,-0.199 0.666,-0.192c0.163,0.008 0.319,0.01 0.468,0.007c0.573,1.683 0.905,2.773 0.996,3.271c0.091,0.498 0.247,2.326 0.468,5.485c0.221,3.158 0.455,6.439 0.703,9.843c0.248,3.403 0.471,5.673 0.67,6.81c0.198,1.136 0.462,2.976 0.791,5.519c0.33,2.543 0.574,4.547 0.733,6.01c0.159,1.464 0.353,2.776 0.582,3.935c0.228,1.159 0.373,1.863 0.435,2.113c0.062,0.249 0.166,0.807 0.313,1.674c0.147,0.867 0.347,2.084 0.599,3.651c0.253,1.567 0.483,2.997 0.692,4.29c0.209,1.292 0.437,2.702 0.685,4.229c0.248,1.527 0.484,2.89 0.708,4.088c0.225,1.199 0.41,2.312 0.555,3.339c0.146,1.027 0.251,1.867 0.315,2.52c0.063,0.652 0.127,1.535 0.192,2.649c0.065,1.114 0.134,2.067 0.209,2.859c0.075,0.792 0.268,1.893 0.579,3.304c0.311,1.41 0.565,2.464 0.763,3.163c0.198,0.699 0.348,1.242 0.451,1.63c0.103,0.388 0.334,1.054 0.695,1.998c0.361,0.943 0.678,1.752 0.952,2.425c0.274,0.673 0.449,1.122 0.526,1.347c0.077,0.225 0.231,0.502 0.464,0.833c0.233,0.331 0.376,0.533 0.429,0.605c0.053,0.072 0.363,0.352 0.932,0.839c0.568,0.487 1.124,0.904 1.669,1.25c0.545,0.346 1.118,0.636 1.72,0.869c0.601,0.233 1.244,0.343 1.927,0.329c0.683,-0.015 1.143,-0.05 1.38,-0.107c0.237,-0.056 0.795,-0.322 1.672,-0.797c0.877,-0.475 1.511,-0.938 1.9,-1.39c0.389,-0.453 0.853,-1.152 1.392,-2.098c0.539,-0.947 1.081,-2.077 1.626,-3.392c0.544,-1.315 0.977,-2.609 1.298,-3.88c0.321,-1.272 0.495,-3.06 0.524,-5.365c0.029,-2.305 -0.003,-4.144 -0.094,-5.515c-0.092,-1.371 -0.146,-2.908 -0.161,-4.61c-0.016,-1.702 0.005,-3.279 0.064,-4.732c0.058,-1.453 0.107,-2.739 0.146,-3.858c0.039,-1.119 0.068,-1.998 0.087,-2.635c0.019,-0.637 0.057,-1.241 0.114,-1.812c0.057,-0.571 0.195,-1.415 0.416,-2.533c0.22,-1.118 0.418,-1.943 0.594,-2.476c0.176,-0.533 0.319,-0.89 0.429,-1.073c0.109,-0.183 0.281,-0.333 0.514,-0.452c0.233,-0.119 0.389,-0.185 0.468,-0.198c0.079,-0.014 0.39,0.039 0.935,0.16c0.927,0.896 1.638,1.633 2.133,2.21c0.495,0.578 1.002,1.246 1.521,2.004c0.519,0.757 1.048,1.591 1.587,2.502c0.539,0.911 1.144,2.03 1.815,3.358c0.671,1.327 1.236,2.552 1.694,3.675c0.459,1.123 0.934,2.36 1.427,3.711c0.493,1.351 0.941,2.479 1.345,3.383c0.405,0.903 0.981,2.041 1.728,3.412c0.747,1.372 1.402,2.509 1.967,3.41c0.565,0.901 1.206,1.96 1.923,3.175c0.717,1.215 1.322,2.211 1.813,2.986c0.492,0.776 0.958,1.506 1.398,2.189c0.439,0.683 0.75,1.168 0.931,1.453c0.181,0.286 0.522,0.843 1.023,1.671c0.501,0.828 0.9,1.459 1.195,1.893c0.295,0.434 0.708,0.978 1.237,1.633c0.529,0.655 0.965,1.124 1.306,1.408c0.341,0.283 0.696,0.501 1.065,0.653c0.369,0.152 0.741,0.255 1.118,0.308c0.377,0.053 0.581,0.086 0.61,0.101c0.03,0.014 0.283,-0.017 0.758,-0.094c0.476,-0.077 1.047,-0.26 1.713,-0.55c0.667,-0.29 1.134,-0.532 1.403,-0.726c0.269,-0.195 0.544,-0.423 0.824,-0.685c0.279,-0.262 0.59,-0.613 0.933,-1.052c0.343,-0.439 0.978,-1.626 1.907,-3.561c0.929,-1.935 1.509,-3.601 1.74,-4.997c0.231,-1.397 0.375,-2.304 0.431,-2.723c0.056,-0.419 0.093,-1.558 0.11,-3.419c0.017,-1.86 -0.038,-3.442 -0.164,-4.746c-0.127,-1.303 -0.305,-2.724 -0.536,-4.263c-0.231,-1.539 -0.422,-2.764 -0.574,-3.676c-0.152,-0.913 -0.314,-2.028 -0.487,-3.347c-0.173,-1.318 -0.31,-2.389 -0.413,-3.214c-0.103,-0.825 -0.243,-1.832 -0.421,-3.021c-0.178,-1.19 -0.413,-2.532 -0.704,-4.027c-0.291,-1.495 -0.526,-2.738 -0.703,-3.73c-0.177,-0.993 -0.324,-1.883 -0.44,-2.671c-0.116,-0.789 -0.179,-1.276 -0.188,-1.462c-0.009,-0.187 -0.14,-1.307 -0.392,-3.362c-0.253,-2.055 -0.468,-3.802 -0.646,-5.239c-0.177,-1.437 -0.314,-2.759 -0.411,-3.967c-0.096,-1.207 -0.181,-2.539 -0.256,-3.996c-0.075,-1.457 -0.13,-2.558 -0.166,-3.301c-0.036,-0.743 -0.052,-1.138 -0.048,-1.183c0.004,-0.045 -0.014,-0.563 -0.053,-1.553c-0.04,-0.991 -0.073,-1.843 -0.099,-2.558c-0.026,-0.715 -0.018,-1.906 0.024,-3.571c0.042,-1.665 0.13,-3.333 0.265,-5.003c0.135,-1.67 0.231,-3.139 0.288,-4.407c0.057,-1.267 0.097,-2.612 0.122,-4.035c0.024,-1.423 0.025,-2.649 0.002,-3.68c-0.023,-1.031 -0.088,-2.027 -0.195,-2.986c-0.106,-0.959 -0.283,-1.841 -0.53,-2.644c-0.247,-0.803 -0.577,-1.593 -0.989,-2.368c-0.412,-0.775 -0.729,-1.297 -0.951,-1.565c-0.222,-0.268 -0.678,-0.613 -1.367,-1.036c-0.69,-0.423 -1.177,-0.693 -1.46,-0.809c-0.283,-0.115 -0.628,-0.255 -1.034,-0.419c-0.406,-0.164 -0.768,-0.306 -1.087,-0.426c-0.319,-0.119 -0.89,-0.25 -1.713,-0.393c-0.823,-0.142 -2.593,-0.105 -5.309,0.11c-0.813,0.007 -1.403,0.046 -1.77,0.119c-0.367,0.073 -0.699,0.175 -0.996,0.304c-0.298,0.129 -0.837,0.5 -1.618,1.113c-0.781,0.612 -1.386,1.145 -1.816,1.599c-0.429,0.455 -0.828,0.899 -1.195,1.334c-0.542,1.433 -0.89,2.626 -1.044,3.58c-0.153,0.954 -0.253,1.725 -0.298,2.314c-0.045,0.589 -0.054,1.498 -0.026,2.725c0.028,1.228 0.097,2.27 0.207,3.127c0.11,0.857 0.242,1.779 0.395,2.766c0.153,0.987 0.263,1.942 0.329,2.863c0.066,0.921 0.095,1.632 0.086,2.131c-0.009,0.499 -0.07,1.019 -0.183,1.558c-0.114,0.539 -0.357,1.055 -0.73,1.549c-0.13,-0.008 -0.242,-0.031 -0.335,-0.07c-0.093,-0.039 -0.318,-0.117 -0.673,-0.235c-0.355,-0.118 -0.993,-0.536 -1.914,-1.253c-0.921,-0.717 -1.697,-1.403 -2.33,-2.059c-0.632,-0.656 -1.278,-1.344 -1.939,-2.063c-0.66,-0.719 -1.03,-1.122 -1.11,-1.211c-0.079,-0.089 -0.65,-0.866 -1.712,-2.331c-1.061,-1.465 -2.394,-3.25 -3.997,-5.357c-1.604,-2.106 -2.58,-3.339 -2.927,-3.698c-0.347,-0.359 -1.054,-1.096 -2.121,-2.211l-1.201,-0.56c-0.702,-0.359 -1.088,-0.562 -1.157,-0.608c-0.069,-0.046 -0.528,-0.178 -1.375,-0.397c-0.847,-0.218 -1.67,-0.349 -2.469,-0.393c-0.799,-0.044 -1.552,-0.082 -2.26,-0.114c-0.709,-0.032 -1.863,-0.019 -3.463,0.038c-1.599,0.058 -3.707,0.13 -6.324,0.215c-0.698,-0.102 -1.347,-0.151 -1.948,-0.147c-0.601,0.004 -1.432,0.026 -2.494,0.066c-1.061,0.041 -1.938,0.063 -2.629,0.067c-0.691,0.003 -2.11,-0.007 -4.257,-0.03c-2.146,-0.023 -3.533,-0.027 -4.16,-0.01c-0.627,0.016 -1.75,-0.014 -3.367,-0.089c-1.617,-0.075 -2.959,-0.156 -4.024,-0.243c-1.065,-0.086 -2.385,-0.15 -3.959,-0.193c-1.575,-0.042 -2.867,-0.118 -3.878,-0.227c-1.011,-0.109 -1.769,-0.2 -2.273,-0.275c-0.504,-0.075 -1.405,-0.168 -2.703,-0.28c-1.298,-0.113 -2.469,-0.201 -3.514,-0.265c-1.045,-0.065 -1.678,-0.111 -1.898,-0.14c-0.22,-0.029 -0.467,-0.076 -0.74,-0.141c-0.273,-0.065 -0.492,-0.125 -0.658,-0.179c-0.166,-0.054 -0.506,-0.148 -1.02,-0.281c-0.514,-0.133 -0.91,-0.206 -1.187,-0.218c-0.277,-0.012 -0.525,-0.031 -0.746,-0.056c-0.221,-0.025 -0.73,-0.023 -1.525,0.004c-0.795,0.027 -1.508,0.063 -2.139,0.107c-0.631,0.043 -1.24,0.077 -1.829,0.1c-0.588,0.023 -1.109,0.03 -1.563,0.02c-0.453,-0.01 -0.911,-0.031 -1.374,-0.064c-0.463,-0.033 -0.85,-0.052 -1.163,-0.057c-0.313,-0.005 -0.802,0.007 -1.467,0.037c-0.665,0.03 -1.171,0.057 -1.518,0.082c-0.347,0.025 -0.802,0.055 -1.364,0.09c-0.562,0.036 -1.097,0.085 -1.605,0.146c-0.509,0.062 -0.933,0.126 -1.273,0.192c-0.34,0.067 -0.657,0.177 -0.951,0.331c-0.295,0.155 -0.838,0.783 -1.631,1.884c-0.793,1.102 -1.229,1.972 -1.309,2.61c-0.08,0.637 -0.099,1.198 -0.057,1.682c0.042,0.483 0.099,1.118 0.171,1.903c0.072,0.785 0.069,1.439 -0.008,1.962c-0.077,0.522 -0.203,0.959 -0.378,1.31c-0.175,0.351 -0.445,0.839 -0.81,1.464c-0.365,0.625 -0.597,1.052 -0.698,1.282c-0.1,0.231 -0.206,0.497 -0.319,0.8l-0.102,0.108c-0.321,0.016 -0.53,0.019 -0.627,0.01c-0.097,-0.009 -0.372,-0.017 -0.824,-0.022c-0.451,-0.005 -0.881,-0.059 -1.288,-0.163c-0.408,-0.104 -0.723,-0.184 -0.945,-0.241c-0.221,-0.057 -0.412,-0.107 -0.571,-0.151c-0.159,-0.045 -0.467,-0.13 -0.923,-0.255c-0.457,-0.125 -0.728,-0.205 -0.814,-0.238c-0.086,-0.033 -0.207,-0.091 -0.364,-0.173c-0.156,-0.081 -0.407,-0.23 -0.754,-0.446c-0.347,-0.216 -0.568,-0.351 -0.664,-0.405c-0.096,-0.053 -0.245,-0.17 -0.448,-0.35c-0.202,-0.179 -0.387,-0.405 -0.556,-0.676c-0.168,-0.271 -0.307,-0.52 -0.418,-0.747c-0.111,-0.227 -0.198,-0.486 -0.263,-0.777c-0.064,-0.291 -0.18,-0.702 -0.349,-1.231c-0.169,-0.529 -0.366,-1.03 -0.591,-1.502c-0.225,-0.472 -0.372,-0.778 -0.441,-0.918c-0.069,-0.14 -0.422,-0.592 -1.06,-1.357c-0.638,-0.764 -1.122,-1.288 -1.453,-1.571c-0.331,-0.284 -0.804,-0.608 -1.418,-0.972c-0.615,-0.363 -1.044,-0.614 -1.285,-0.751c-0.241,-0.137 -0.554,-0.292 -0.937,-0.465c-0.383,-0.173 -0.628,-0.295 -0.735,-0.367c-0.107,-0.072 -0.643,-0.219 -1.607,-0.441c-0.963,-0.221 -1.697,-0.353 -2.2,-0.395c-0.503,-0.043 -1.018,-0.064 -1.543,-0.064c-0.525,-0.001 -1.187,-0.01 -1.986,-0.028c-0.799,-0.018 -1.512,-0.011 -2.137,0.022c-0.625,0.033 -1.529,0.119 -2.71,0.259c-1.181,0.14 -2.293,0.249 -3.338,0.328c-1.045,0.079 -2.094,0.15 -3.148,0.213c-1.054,0.063 -2.056,0.146 -3.005,0.251c-0.949,0.105 -1.835,0.205 -2.66,0.3c-0.824,0.095 -1.892,0.192 -3.204,0.291c-1.311,0.099 -2.238,0.162 -2.78,0.189c-0.541,0.027 -1.283,0.105 -2.226,0.233c-0.943,0.128 -1.589,0.225 -1.938,0.292c-0.349,0.067 -0.692,0.12 -1.029,0.159c-0.337,0.039 -0.681,0.066 -1.031,0.08c-0.349,0.013 -0.832,0.003 -1.449,-0.032c-0.616,-0.035 -1.189,-0.023 -1.72,0.035c-0.531,0.059 -0.966,0.114 -1.305,0.166c-0.339,0.053 -0.728,0.15 -1.167,0.291c-0.439,0.141 -1.187,0.36 -2.244,0.659c-1.057,0.299 -1.875,0.527 -2.455,0.685c-0.581,0.158 -1.098,0.314 -1.551,0.468c-0.453,0.154 -0.755,0.262 -0.907,0.323c-0.152,0.061 -0.565,0.194 -1.239,0.398c-0.674,0.205 -1.193,0.332 -1.557,0.383c-0.363,0.051 -0.686,0.076 -0.968,0.076c-0.283,-0.001 -0.469,0.012 -0.559,0.039c-0.091,0.026 -0.458,0.005 -1.101,-0.062c-0.643,-0.067 -1.633,-0.27 -2.972,-0.607c-1.339,-0.337 -2.405,-0.597 -3.2,-0.778c-0.794,-0.181 -1.437,-0.322 -1.929,-0.423c-0.492,-0.101 -1.301,-0.234 -2.428,-0.398c-1.127,-0.164 -2.225,-0.291 -3.294,-0.382c-1.069,-0.091 -1.959,-0.109 -2.672,-0.053c-0.712,0.056 -1.31,0.145 -1.793,0.268c-0.483,0.123 -1.027,0.306 -1.63,0.549c-0.603,0.243 -1.06,0.433 -1.371,0.57c-0.311,0.136 -1.248,0.68 -2.812,1.631c-0.535,0.743 -0.905,1.342 -1.111,1.795c-0.206,0.453 -0.546,1.538 -1.021,3.254c-0.475,1.716 -0.836,3.867 -1.085,6.454c-0.249,2.587 -0.374,4.984 -0.373,7.192c0.001,2.208 0.059,4.401 0.173,6.579c0.114,2.178 0.195,4.015 0.242,5.512c0.047,1.497 0.062,2.42 0.045,2.767c-0.017,0.347 -0.207,1.596 -0.569,3.745c-0.363,2.149 -0.703,3.717 -1.021,4.704c-0.318,0.987 -0.622,1.74 -0.911,2.259c-0.289,0.519 -0.585,0.961 -0.887,1.327c-0.303,0.367 -0.483,0.575 -0.541,0.626c-0.058,0.051 -0.509,0.382 -1.352,0.991c-0.843,0.609 -1.78,0.967 -2.81,1.072c-0.242,-0.085 -0.622,-0.43 -1.139,-1.034c-0.517,-0.604 -0.927,-1.228 -1.228,-1.871c-0.302,-0.643 -0.616,-1.461 -0.942,-2.456c-0.326,-0.995 -0.523,-1.822 -0.591,-2.481c-0.067,-0.658 -0.103,-1.21 -0.108,-1.655c-0.005,-0.445 0.023,-1.091 0.083,-1.94c0.061,-0.848 0.153,-1.69 0.278,-2.526c0.124,-0.837 0.292,-1.862 0.503,-3.076c0.211,-1.215 0.437,-2.744 0.677,-4.587c0.24,-1.844 0.397,-3.434 0.472,-4.771c0.075,-1.337 0.066,-2.632 -0.029,-3.887c-0.094,-1.255 -0.237,-2.569 -0.43,-3.94c-0.192,-1.371 -0.476,-2.913 -0.851,-4.626c-0.375,-1.713 -0.772,-3.306 -1.19,-4.779c-0.418,-1.473 -0.749,-2.59 -0.993,-3.35c-0.244,-0.76 -0.585,-1.561 -1.023,-2.402c-0.439,-0.841 -0.859,-1.548 -1.262,-2.121c-0.402,-0.573 -0.772,-1.06 -1.11,-1.462c-0.338,-0.402 -0.732,-0.745 -1.181,-1.029c-0.449,-0.284 -0.791,-0.458 -1.025,-0.521c-0.233,-0.063 -0.466,-0.085 -0.699,-0.066c-0.232,0.02 -0.527,0.162 -0.886,0.426c-0.359,0.264 -0.649,0.51 -0.871,0.737c-0.222,0.227 -0.532,0.674 -0.931,1.341c-0.399,0.667 -0.686,1.232 -0.861,1.695c-0.175,0.463 -0.397,1.263 -0.668,2.402c-0.271,1.138 -0.555,2.887 -0.853,5.247c-0.297,2.36 -0.522,4.607 -0.673,6.741c-0.151,2.135 -0.235,3.513 -0.252,4.135c-0.017,0.622 -0.032,1.549 -0.045,2.782c-0.013,1.233 0.012,2.93 0.074,5.091c0.062,2.161 0.127,4.115 0.194,5.861c0.067,1.747 0.112,3.557 0.136,5.431c0.023,1.873 -0.046,3.55 -0.208,5.031c-0.162,1.48 -0.342,2.565 -0.539,3.255c-0.198,0.691 -0.399,1.215 -0.604,1.574c-0.205,0.359 -0.435,0.68 -0.69,0.961c-0.255,0.281 -0.479,0.491 -0.671,0.628c-0.193,0.137 -0.419,0.237 -0.68,0.3c-0.261,0.062 -0.76,-0.042 -1.497,-0.312c-0.736,-0.27 -1.449,-0.818 -2.14,-1.645c-0.691,-0.827 -1.334,-1.949 -1.929,-3.367c-0.596,-1.419 -0.957,-2.38 -1.082,-2.883c-0.125,-0.503 -0.263,-1.203 -0.415,-2.1c-0.152,-0.897 -0.339,-2.076 -0.56,-3.536c-0.221,-1.461 -0.422,-2.853 -0.601,-4.176c-0.18,-1.324 -0.374,-2.876 -0.581,-4.657c-0.207,-1.781 -0.428,-3.466 -0.662,-5.055c-0.234,-1.589 -0.458,-3.392 -0.672,-5.409c-0.213,-2.017 -0.352,-3.556 -0.415,-4.616c-0.064,-1.06 -0.106,-1.715 -0.125,-1.965c-0.02,-0.25 -0.049,-0.625 -0.086,-1.125c-0.038,-0.501 -0.065,-1.413 -0.08,-2.737c-0.016,-1.325 -0.13,-2.879 -0.341,-4.662c-0.068,-0.111 -0.27,-0.516 -0.607,-1.213" style="fill:none;fill-rule:nonzero;stroke:#149265;stroke-width:6.8px;"/></g></svg>