999
"DXF R12 Output" (www.mydxf.blogspot.com)
 0 
SECTION
 2 
HEADER
 9 
$ACADVER
 1 
AC1009
 9 
$EXTMIN
 10 
 0 
 20 
 0 
 9 
$EXTMAX
 10 
 8.5 
 20 
 11 
 0 
ENDSEC
 0 
SECTION
 2 
ENTITIES
0
LINE
8
Layer 1
10
666.665000
20
267.987000
11
677.751125
21
267.846094
0
LINE
8
Layer 1
10
677.751125
20
267.846094
11
700.594250
21
267.861750
0
LINE
8
Layer 1
10
700.594250
20
267.861750
11
733.334000
21
267.987000
0
LINE
8
Layer 1
10
733.334000
20
267.987000
11
800.001000
21
-65.345400
0
LINE
8
Layer 1
10
800.001000
20
-65.345400
11
797.357729
21
-68.209980
0
LINE
8
Layer 1
10
797.357729
20
-68.209980
11
790.105016
21
-75.762056
0
LINE
8
Layer 1
10
790.105016
20
-75.762056
11
779.258514
21
-86.439129
0
LINE
8
Layer 1
10
779.258514
20
-86.439129
11
772.804983
21
-92.461258
0
LINE
8
Layer 1
10
772.804983
20
-92.461258
11
765.833875
21
-98.678700
0
LINE
8
Layer 1
10
765.833875
20
-98.678700
11
758.472146
21
-104.896142
0
LINE
8
Layer 1
10
758.472146
20
-104.896142
11
750.846752
21
-110.918271
0
LINE
8
Layer 1
10
750.846752
20
-110.918271
11
743.084650
21
-116.549776
0
LINE
8
Layer 1
10
743.084650
20
-116.549776
11
735.312797
21
-121.595344
0
LINE
8
Layer 1
10
735.312797
20
-121.595344
11
731.462887
21
-123.837366
0
LINE
8
Layer 1
10
731.462887
20
-123.837366
11
727.658149
21
-125.859662
0
LINE
8
Layer 1
10
727.658149
20
-125.859662
11
723.914450
21
-127.637818
0
LINE
8
Layer 1
10
723.914450
20
-127.637818
11
720.247662
21
-129.147420
0
LINE
8
Layer 1
10
720.247662
20
-129.147420
11
716.673653
21
-130.364052
0
LINE
8
Layer 1
10
716.673653
20
-130.364052
11
713.208294
21
-131.263303
0
LINE
8
Layer 1
10
713.208294
20
-131.263303
11
709.867453
21
-131.820757
0
LINE
8
Layer 1
10
709.867453
20
-131.820757
11
706.667000
21
-132.012000
0
LINE
8
Layer 1
10
706.667000
20
-132.012000
11
703.428294
21
-131.820757
0
LINE
8
Layer 1
10
703.428294
20
-131.820757
11
699.975948
21
-131.263303
0
LINE
8
Layer 1
10
699.975948
20
-131.263303
11
696.330716
21
-130.364052
0
LINE
8
Layer 1
10
696.330716
20
-130.364052
11
692.513350
21
-129.147420
0
LINE
8
Layer 1
10
692.513350
20
-129.147420
11
688.544603
21
-127.637818
0
LINE
8
Layer 1
10
688.544603
20
-127.637818
11
684.445229
21
-125.859662
0
LINE
8
Layer 1
10
684.445229
20
-125.859662
11
680.235980
21
-123.837366
0
LINE
8
Layer 1
10
680.235980
20
-123.837366
11
675.937609
21
-121.595344
0
LINE
8
Layer 1
10
675.937609
20
-121.595344
11
667.156515
21
-116.549776
0
LINE
8
Layer 1
10
667.156515
20
-116.549776
11
658.267971
21
-110.918271
0
LINE
8
Layer 1
10
658.267971
20
-110.918271
11
649.437999
21
-104.896142
0
LINE
8
Layer 1
10
649.437999
20
-104.896142
11
640.832625
21
-98.678700
0
LINE
8
Layer 1
10
640.832625
20
-98.678700
11
632.617872
21
-92.461258
0
LINE
8
Layer 1
10
632.617872
20
-92.461258
11
624.959764
21
-86.439129
0
LINE
8
Layer 1
10
624.959764
20
-86.439129
11
611.977578
21
-75.762056
0
LINE
8
Layer 1
10
611.977578
20
-75.762056
11
603.214260
21
-68.209980
0
LINE
8
Layer 1
10
603.214260
20
-68.209980
11
599.998000
21
-65.345400
0
LINE
8
Layer 1
10
599.998000
20
-65.345400
11
610.192109
21
-13.215384
0
LINE
8
Layer 1
10
610.192109
20
-13.215384
11
632.737875
21
101.445675
0
LINE
8
Layer 1
10
632.737875
20
101.445675
11
655.580453
21
216.044297
0
LINE
8
Layer 1
10
655.580453
20
216.044297
11
663.345908
21
253.759731
0
LINE
8
Layer 1
10
663.345908
20
253.759731
11
665.655428
21
264.298398
0
LINE
8
Layer 1
10
665.655428
20
264.298398
11
666.334480
21
267.060083
0
LINE
8
Layer 1
10
666.334480
20
267.060083
11
666.665000
21
267.987000
0
LINE
8
Layer 1
10
666.665000
20
267.987000
11
666.665000
21
267.987000
 0 
ENDSEC
 0 
EOF