<?xml version="1.0" encoding="UTF-8" standalone="no"?>
<!DOCTYPE svg PUBLIC "-//W3C//DTD SVG 1.1//EN" "http://www.w3.org/Graphics/SVG/1.1/DTD/svg11.dtd">
<svg width="100%" height="100%" viewBox="0 0 682 1249" version="1.1" xmlns="http://www.w3.org/2000/svg" xmlns:xlink="http://www.w3.org/1999/xlink" xml:space="preserve" xmlns:serif="http://www.serif.com/" style="fill-rule:evenodd;clip-rule:evenodd;stroke-linecap:round;stroke-linejoin:round;stroke-miterlimit:2;">
    <g id="Layer-1" serif:id="Layer 1" transform="matrix(1,0,0,1,-1643.7,816.731)">
        <g>
            <path id="LINE" d="M1889.76,-759.648L1921.18,-759.249" style="fill:none;stroke:black;stroke-width:0.71px;"/>
            <path id="LINE1" serif:id="LINE" d="M1921.18,-759.249L1985.94,-759.293" style="fill:none;stroke:black;stroke-width:0.71px;"/>
            <path id="LINE2" serif:id="LINE" d="M1985.94,-759.293L2078.74,-759.648" style="fill:none;stroke:black;stroke-width:0.71px;"/>
            <path id="LINE3" serif:id="LINE" d="M2078.74,-759.648L2267.72,185.231" style="fill:none;stroke:black;stroke-width:0.71px;"/>
            <path id="LINE4" serif:id="LINE" d="M2267.72,185.231L2260.23,193.351" style="fill:none;stroke:black;stroke-width:0.71px;"/>
            <path id="LINE5" serif:id="LINE" d="M2260.23,193.351L2239.67,214.759" style="fill:none;stroke:black;stroke-width:0.71px;"/>
            <path id="LINE6" serif:id="LINE" d="M2239.67,214.759L2208.92,245.024" style="fill:none;stroke:black;stroke-width:0.71px;"/>
            <path id="LINE7" serif:id="LINE" d="M2208.92,245.024L2190.63,262.095" style="fill:none;stroke:black;stroke-width:0.71px;"/>
            <path id="LINE8" serif:id="LINE" d="M2190.63,262.095L2170.87,279.719" style="fill:none;stroke:black;stroke-width:0.71px;"/>
            <path id="LINE9" serif:id="LINE" d="M2170.87,279.719L2150,297.343" style="fill:none;stroke:black;stroke-width:0.71px;"/>
            <path id="LINE10" serif:id="LINE" d="M2150,297.343L2128.38,314.414" style="fill:none;stroke:black;stroke-width:0.71px;"/>
            <path id="LINE11" serif:id="LINE" d="M2128.38,314.414L2106.38,330.377" style="fill:none;stroke:black;stroke-width:0.71px;"/>
            <path id="LINE12" serif:id="LINE" d="M2106.38,330.377L2084.35,344.68" style="fill:none;stroke:black;stroke-width:0.71px;"/>
            <path id="LINE13" serif:id="LINE" d="M2084.35,344.68L2073.44,351.035" style="fill:none;stroke:black;stroke-width:0.71px;"/>
            <path id="LINE14" serif:id="LINE" d="M2073.44,351.035L2062.65,356.768" style="fill:none;stroke:black;stroke-width:0.71px;"/>
            <path id="LINE15" serif:id="LINE" d="M2062.65,356.768L2052.04,361.808" style="fill:none;stroke:black;stroke-width:0.71px;"/>
            <path id="LINE16" serif:id="LINE" d="M2052.04,361.808L2041.65,366.087" style="fill:none;stroke:black;stroke-width:0.71px;"/>
            <path id="LINE17" serif:id="LINE" d="M2041.65,366.087L2031.52,369.536" style="fill:none;stroke:black;stroke-width:0.71px;"/>
            <path id="LINE18" serif:id="LINE" d="M2031.52,369.536L2021.69,372.085" style="fill:none;stroke:black;stroke-width:0.71px;"/>
            <path id="LINE19" serif:id="LINE" d="M2021.69,372.085L2012.22,373.665" style="fill:none;stroke:black;stroke-width:0.71px;"/>
            <path id="LINE20" serif:id="LINE" d="M2012.22,373.665L2003.15,374.207" style="fill:none;stroke:black;stroke-width:0.71px;"/>
            <path id="LINE21" serif:id="LINE" d="M2003.15,374.207L1993.97,373.665" style="fill:none;stroke:black;stroke-width:0.71px;"/>
            <path id="LINE22" serif:id="LINE" d="M1993.97,373.665L1984.18,372.085" style="fill:none;stroke:black;stroke-width:0.71px;"/>
            <path id="LINE23" serif:id="LINE" d="M1984.18,372.085L1973.85,369.536" style="fill:none;stroke:black;stroke-width:0.71px;"/>
            <path id="LINE24" serif:id="LINE" d="M1973.85,369.536L1963.03,366.087" style="fill:none;stroke:black;stroke-width:0.71px;"/>
            <path id="LINE25" serif:id="LINE" d="M1963.03,366.087L1951.78,361.808" style="fill:none;stroke:black;stroke-width:0.71px;"/>
            <path id="LINE26" serif:id="LINE" d="M1951.78,361.808L1940.16,356.768" style="fill:none;stroke:black;stroke-width:0.71px;"/>
            <path id="LINE27" serif:id="LINE" d="M1940.16,356.768L1928.23,351.035" style="fill:none;stroke:black;stroke-width:0.71px;"/>
            <path id="LINE28" serif:id="LINE" d="M1928.23,351.035L1916.04,344.68" style="fill:none;stroke:black;stroke-width:0.71px;"/>
            <path id="LINE29" serif:id="LINE" d="M1916.04,344.68L1891.15,330.377" style="fill:none;stroke:black;stroke-width:0.71px;"/>
            <path id="LINE30" serif:id="LINE" d="M1891.15,330.377L1865.96,314.414" style="fill:none;stroke:black;stroke-width:0.71px;"/>
            <path id="LINE31" serif:id="LINE" d="M1865.96,314.414L1840.93,297.343" style="fill:none;stroke:black;stroke-width:0.71px;"/>
            <path id="LINE32" serif:id="LINE" d="M1840.93,297.343L1816.53,279.719" style="fill:none;stroke:black;stroke-width:0.71px;"/>
            <path id="LINE33" serif:id="LINE" d="M1816.53,279.719L1793.25,262.095" style="fill:none;stroke:black;stroke-width:0.71px;"/>
            <path id="LINE34" serif:id="LINE" d="M1793.25,262.095L1771.54,245.024" style="fill:none;stroke:black;stroke-width:0.71px;"/>
            <path id="LINE35" serif:id="LINE" d="M1771.54,245.024L1734.74,214.759" style="fill:none;stroke:black;stroke-width:0.71px;"/>
            <path id="LINE36" serif:id="LINE" d="M1734.74,214.759L1709.9,193.351" style="fill:none;stroke:black;stroke-width:0.71px;"/>
            <path id="LINE37" serif:id="LINE" d="M1709.9,193.351L1700.78,185.231" style="fill:none;stroke:black;stroke-width:0.71px;"/>
            <path id="LINE38" serif:id="LINE" d="M1700.78,185.231L1729.68,37.461" style="fill:none;stroke:black;stroke-width:0.71px;"/>
            <path id="LINE39" serif:id="LINE" d="M1729.68,37.461L1793.59,-287.563" style="fill:none;stroke:black;stroke-width:0.71px;"/>
            <path id="LINE40" serif:id="LINE" d="M1793.59,-287.563L1858.34,-612.409" style="fill:none;stroke:black;stroke-width:0.71px;"/>
            <path id="LINE41" serif:id="LINE" d="M1858.34,-612.409L1880.35,-719.319" style="fill:none;stroke:black;stroke-width:0.71px;"/>
            <path id="LINE42" serif:id="LINE" d="M1880.35,-719.319L1886.9,-749.192" style="fill:none;stroke:black;stroke-width:0.71px;"/>
            <path id="LINE43" serif:id="LINE" d="M1886.9,-749.192L1888.82,-757.021" style="fill:none;stroke:black;stroke-width:0.71px;"/>
            <path id="LINE44" serif:id="LINE" d="M1888.82,-757.021L1889.76,-759.648" style="fill:none;stroke:black;stroke-width:0.71px;"/>
            <path id="LINE45" serif:id="LINE" d="M1889.76,-759.648" style="fill:none;stroke:black;stroke-width:0.71px;"/>
        </g>
    </g>
</svg>
