999
"DXF R12 Output" (www.mydxf.blogspot.com)
 0 
SECTION
 2 
HEADER
 9 
$ACADVER
 1 
AC1009
 9 
$EXTMIN
 10 
 0 
 20 
 0 
 9 
$EXTMAX
 10 
 8.5 
 20 
 11 
 0 
ENDSEC
 0 
SECTION
 2 
ENTITIES
0
LINE
8
Layer 1
10
666.665000
20
225.424000
11
677.751210
21
225.283387
0
LINE
8
Layer 1
10
677.751210
20
225.283387
11
700.594434
21
225.299011
0
LINE
8
Layer 1
10
700.594434
20
225.299011
11
733.334300
21
225.424000
0
LINE
8
Layer 1
10
733.334300
20
225.424000
11
800.000800
21
-107.908000
0
LINE
8
Layer 1
10
800.000800
20
-107.908000
11
789.668844
21
-111.696437
0
LINE
8
Layer 1
10
789.668844
20
-111.696437
11
778.375466
21
-115.579586
0
LINE
8
Layer 1
10
778.375466
20
-115.579586
11
764.438550
21
-120.031000
0
LINE
8
Layer 1
10
764.438550
20
-120.031000
11
748.939140
21
-124.482414
0
LINE
8
Layer 1
10
748.939140
20
-124.482414
11
740.941326
21
-126.530538
0
LINE
8
Layer 1
10
740.941326
20
-126.530538
11
732.958281
21
-128.365562
0
LINE
8
Layer 1
10
732.958281
20
-128.365562
11
725.125135
21
-129.916454
0
LINE
8
Layer 1
10
725.125135
20
-129.916454
11
717.577020
21
-131.112180
0
LINE
8
Layer 1
10
717.577020
20
-131.112180
11
710.449064
21
-131.881706
0
LINE
8
Layer 1
10
710.449064
20
-131.881706
11
703.876400
21
-132.154000
0
LINE
8
Layer 1
10
703.876400
20
-132.154000
11
697.216659
21
-131.881706
0
LINE
8
Layer 1
10
697.216659
20
-131.881706
11
689.842618
21
-131.112180
0
LINE
8
Layer 1
10
689.842618
20
-131.112180
11
681.912122
21
-129.916454
0
LINE
8
Layer 1
10
681.912122
20
-129.916454
11
673.583019
21
-128.365563
0
LINE
8
Layer 1
10
673.583019
20
-128.365563
11
665.013153
21
-126.530538
0
LINE
8
Layer 1
10
665.013153
20
-126.530538
11
656.360373
21
-124.482414
0
LINE
8
Layer 1
10
656.360373
20
-124.482414
11
639.437450
21
-120.031000
0
LINE
8
Layer 1
10
639.437450
20
-120.031000
11
624.077021
21
-115.579586
0
LINE
8
Layer 1
10
624.077021
20
-115.579586
11
611.541856
21
-111.696438
0
LINE
8
Layer 1
10
611.541856
20
-111.696438
11
599.998400
21
-107.908000
0
LINE
8
Layer 1
10
599.998400
20
-107.908000
11
610.192389
21
-55.778047
0
LINE
8
Layer 1
10
610.192389
20
-55.778047
11
632.737912
21
58.882875
0
LINE
8
Layer 1
10
632.737912
20
58.882875
11
655.580305
21
173.481359
0
LINE
8
Layer 1
10
655.580305
20
173.481359
11
663.345744
21
211.196748
0
LINE
8
Layer 1
10
663.345744
20
211.196748
11
665.655284
21
221.735402
0
LINE
8
Layer 1
10
665.655284
20
221.735402
11
666.334355
21
224.497084
0
LINE
8
Layer 1
10
666.334355
20
224.497084
11
666.664900
21
225.424000
0
LINE
8
Layer 1
10
666.664900
20
225.424000
11
666.665000
21
225.424000
 0 
ENDSEC
 0 
EOF