<?xml version="1.0" encoding="UTF-8" standalone="no"?>
<!DOCTYPE svg PUBLIC "-//W3C//DTD SVG 1.1//EN" "http://www.w3.org/Graphics/SVG/1.1/DTD/svg11.dtd">
<svg width="100%" height="100%" viewBox="0 0 568 1015" version="1.1" xmlns="http://www.w3.org/2000/svg" xmlns:xlink="http://www.w3.org/1999/xlink" xml:space="preserve" xmlns:serif="http://www.serif.com/" style="fill-rule:evenodd;clip-rule:evenodd;stroke-linecap:round;stroke-linejoin:round;stroke-miterlimit:2;">
    <g id="Layer-1" serif:id="Layer 1" transform="matrix(1,0,0,1,-1700.43,639.351)">
        <path id="LINE" d="M1889.76,-638.997C1889.76,-638.997 1910.71,-638.637 1921.18,-638.599C1942.77,-638.519 1964.35,-638.588 1985.94,-638.643C2016.87,-638.721 2078.74,-638.997 2078.74,-638.997C2078.74,-638.997 2214.78,-10.923 2267.72,305.881C2269.43,316.137 2248.23,313.143 2238.43,316.62C2227.8,320.392 2217.13,324.088 2206.42,327.627C2150.37,346.141 2092.79,363.794 2034.08,371.657C1983.63,378.411 1934.3,369.767 1885.08,358.669C1846.01,349.86 1807.4,339.089 1769.04,327.627C1757.16,324.078 1745.32,320.384 1733.5,316.62C1722.57,313.135 1701.06,317.357 1700.78,305.881C1699.57,255.706 1720.01,207.361 1729.68,158.111C1750.95,49.763 1772.14,-58.599 1793.59,-166.912C1815.03,-275.222 1836.59,-383.51 1858.34,-491.758C1865.51,-527.429 1872.91,-563.052 1880.35,-598.668C1882.43,-608.647 1884.66,-618.595 1886.9,-628.541C1887.49,-631.163 1888.11,-633.778 1888.82,-636.37C1889.07,-637.267 1889.41,-638.134 1889.76,-638.997" style="stroke:black;stroke-width:0.71px;"/>
    </g>
</svg>
