solid OpenSCAD_Model
  facet normal 0.998027 0.0627851 0
    outer loop
      vertex 65 0 38.5
      vertex 64.4875 8.14666 35.5
      vertex 64.4875 8.14666 38.5
    endloop
  endfacet
  facet normal 0.998027 0.0627851 0
    outer loop
      vertex 64.4875 8.14666 35.5
      vertex 65 0 38.5
      vertex 65 0 35.5
    endloop
  endfacet
  facet normal -0.998027 0.0627851 0
    outer loop
      vertex -65 0 35.5
      vertex -64.4875 8.14666 38.5
      vertex -64.4875 8.14666 35.5
    endloop
  endfacet
  facet normal -0.998027 0.0627851 0
    outer loop
      vertex -64.4875 8.14666 38.5
      vertex -65 0 35.5
      vertex -65 0 38.5
    endloop
  endfacet
  facet normal 0 1 -0
    outer loop
      vertex 4.08138 64.8717 35.5
      vertex -4.08138 64.8717 38.5
      vertex 4.08138 64.8717 38.5
    endloop
  endfacet
  facet normal 0 1 0
    outer loop
      vertex -4.08138 64.8717 38.5
      vertex 4.08138 64.8717 35.5
      vertex -4.08138 64.8717 35.5
    endloop
  endfacet
  facet normal 0.684547 0.728968 -0
    outer loop
      vertex 47.383 44.4956 35.5
      vertex 41.4326 50.0834 38.5
      vertex 47.383 44.4956 38.5
    endloop
  endfacet
  facet normal 0.684547 0.728968 0
    outer loop
      vertex 41.4326 50.0834 38.5
      vertex 47.383 44.4956 35.5
      vertex 41.4326 50.0834 35.5
    endloop
  endfacet
  facet normal -0.684547 0.728968 0
    outer loop
      vertex -41.4326 50.0834 35.5
      vertex -47.383 44.4956 38.5
      vertex -41.4326 50.0834 38.5
    endloop
  endfacet
  facet normal -0.684547 0.728968 0
    outer loop
      vertex -47.383 44.4956 38.5
      vertex -41.4326 50.0834 35.5
      vertex -47.383 44.4956 35.5
    endloop
  endfacet
  facet normal -0.368121 0.929778 0
    outer loop
      vertex -20.0861 61.8187 35.5
      vertex -27.6757 58.8138 38.5
      vertex -20.0861 61.8187 38.5
    endloop
  endfacet
  facet normal -0.368121 0.929778 0
    outer loop
      vertex -27.6757 58.8138 38.5
      vertex -20.0861 61.8187 35.5
      vertex -27.6757 58.8138 35.5
    endloop
  endfacet
  facet normal 0.904824 0.425785 0
    outer loop
      vertex 60.4355 23.9281 38.5
      vertex 56.9599 31.314 35.5
      vertex 56.9599 31.314 38.5
    endloop
  endfacet
  facet normal 0.904824 0.425785 0
    outer loop
      vertex 56.9599 31.314 35.5
      vertex 60.4355 23.9281 38.5
      vertex 60.4355 23.9281 35.5
    endloop
  endfacet
  facet normal 0.844328 0.535827 0
    outer loop
      vertex 56.9599 31.314 38.5
      vertex 52.5861 38.206 35.5
      vertex 52.5861 38.206 38.5
    endloop
  endfacet
  facet normal 0.844328 0.535827 0
    outer loop
      vertex 52.5861 38.206 35.5
      vertex 56.9599 31.314 38.5
      vertex 56.9599 31.314 35.5
    endloop
  endfacet
  facet normal 0.368121 0.929778 -0
    outer loop
      vertex 27.6757 58.8138 35.5
      vertex 20.0861 61.8187 38.5
      vertex 27.6757 58.8138 38.5
    endloop
  endfacet
  facet normal 0.368121 0.929778 0
    outer loop
      vertex 20.0861 61.8187 38.5
      vertex 27.6757 58.8138 35.5
      vertex 20.0861 61.8187 35.5
    endloop
  endfacet
  facet normal 0.248691 0.968583 -0
    outer loop
      vertex 20.0861 61.8187 35.5
      vertex 12.1798 63.8487 38.5
      vertex 20.0861 61.8187 38.5
    endloop
  endfacet
  facet normal 0.248691 0.968583 0
    outer loop
      vertex 12.1798 63.8487 38.5
      vertex 20.0861 61.8187 35.5
      vertex 12.1798 63.8487 35.5
    endloop
  endfacet
  facet normal 0.587776 0.809024 -0
    outer loop
      vertex 41.4326 50.0834 35.5
      vertex 34.8287 54.8813 38.5
      vertex 41.4326 50.0834 38.5
    endloop
  endfacet
  facet normal 0.587776 0.809024 0
    outer loop
      vertex 34.8287 54.8813 38.5
      vertex 41.4326 50.0834 35.5
      vertex 34.8287 54.8813 35.5
    endloop
  endfacet
  facet normal -0.844328 0.535827 0
    outer loop
      vertex -56.9599 31.314 35.5
      vertex -52.5861 38.206 38.5
      vertex -52.5861 38.206 35.5
    endloop
  endfacet
  facet normal -0.844328 0.535827 0
    outer loop
      vertex -52.5861 38.206 38.5
      vertex -56.9599 31.314 35.5
      vertex -56.9599 31.314 38.5
    endloop
  endfacet
  facet normal -0.77052 0.637416 0
    outer loop
      vertex -52.5861 38.206 35.5
      vertex -47.383 44.4956 38.5
      vertex -47.383 44.4956 35.5
    endloop
  endfacet
  facet normal -0.77052 0.637416 0
    outer loop
      vertex -47.383 44.4956 38.5
      vertex -52.5861 38.206 35.5
      vertex -52.5861 38.206 38.5
    endloop
  endfacet
  facet normal -0.982286 0.187388 0
    outer loop
      vertex -64.4875 8.14666 35.5
      vertex -62.9579 16.1648 38.5
      vertex -62.9579 16.1648 35.5
    endloop
  endfacet
  facet normal -0.982286 0.187388 0
    outer loop
      vertex -62.9579 16.1648 38.5
      vertex -64.4875 8.14666 35.5
      vertex -64.4875 8.14666 38.5
    endloop
  endfacet
  facet normal -0.587776 0.809024 0
    outer loop
      vertex -34.8287 54.8813 35.5
      vertex -41.4326 50.0834 38.5
      vertex -34.8287 54.8813 38.5
    endloop
  endfacet
  facet normal -0.587776 0.809024 0
    outer loop
      vertex -41.4326 50.0834 38.5
      vertex -34.8287 54.8813 35.5
      vertex -41.4326 50.0834 35.5
    endloop
  endfacet
  facet normal -0.125325 0.992116 0
    outer loop
      vertex -4.08138 64.8717 35.5
      vertex -12.1798 63.8487 38.5
      vertex -4.08138 64.8717 38.5
    endloop
  endfacet
  facet normal -0.125325 0.992116 0
    outer loop
      vertex -12.1798 63.8487 38.5
      vertex -4.08138 64.8717 35.5
      vertex -12.1798 63.8487 35.5
    endloop
  endfacet
  facet normal 0.998027 -0.0627851 0
    outer loop
      vertex 64.4875 -8.14666 38.5
      vertex 65 0 35.5
      vertex 65 0 38.5
    endloop
  endfacet
  facet normal 0.998027 -0.0627851 0
    outer loop
      vertex 65 0 35.5
      vertex 64.4875 -8.14666 38.5
      vertex 64.4875 -8.14666 35.5
    endloop
  endfacet
  facet normal -0.248691 -0.968583 0
    outer loop
      vertex -20.0861 -61.8187 35.5
      vertex -12.1798 -63.8487 38.5
      vertex -20.0861 -61.8187 38.5
    endloop
  endfacet
  facet normal -0.248691 -0.968583 -0
    outer loop
      vertex -12.1798 -63.8487 38.5
      vertex -20.0861 -61.8187 35.5
      vertex -12.1798 -63.8487 35.5
    endloop
  endfacet
  facet normal 0.125325 -0.992116 0
    outer loop
      vertex 4.08138 -64.8717 35.5
      vertex 12.1798 -63.8487 38.5
      vertex 4.08138 -64.8717 38.5
    endloop
  endfacet
  facet normal 0.125325 -0.992116 0
    outer loop
      vertex 12.1798 -63.8487 38.5
      vertex 4.08138 -64.8717 35.5
      vertex 12.1798 -63.8487 35.5
    endloop
  endfacet
  facet normal 0.951058 0.309012 0
    outer loop
      vertex 62.9579 16.1648 38.5
      vertex 60.4355 23.9281 35.5
      vertex 60.4355 23.9281 38.5
    endloop
  endfacet
  facet normal 0.951058 0.309012 0
    outer loop
      vertex 60.4355 23.9281 35.5
      vertex 62.9579 16.1648 38.5
      vertex 62.9579 16.1648 35.5
    endloop
  endfacet
  facet normal 0.982286 0.187388 0
    outer loop
      vertex 64.4875 8.14666 38.5
      vertex 62.9579 16.1648 35.5
      vertex 62.9579 16.1648 38.5
    endloop
  endfacet
  facet normal 0.982286 0.187388 0
    outer loop
      vertex 62.9579 16.1648 35.5
      vertex 64.4875 8.14666 38.5
      vertex 64.4875 8.14666 35.5
    endloop
  endfacet
  facet normal 0.77052 0.637416 0
    outer loop
      vertex 52.5861 38.206 38.5
      vertex 47.383 44.4956 35.5
      vertex 47.383 44.4956 38.5
    endloop
  endfacet
  facet normal 0.77052 0.637416 0
    outer loop
      vertex 47.383 44.4956 35.5
      vertex 52.5861 38.206 38.5
      vertex 52.5861 38.206 35.5
    endloop
  endfacet
  facet normal 0.125325 0.992116 -0
    outer loop
      vertex 12.1798 63.8487 35.5
      vertex 4.08138 64.8717 38.5
      vertex 12.1798 63.8487 38.5
    endloop
  endfacet
  facet normal 0.125325 0.992116 0
    outer loop
      vertex 4.08138 64.8717 38.5
      vertex 12.1798 63.8487 35.5
      vertex 4.08138 64.8717 35.5
    endloop
  endfacet
  facet normal 0.481764 0.876301 -0
    outer loop
      vertex 34.8287 54.8813 35.5
      vertex 27.6757 58.8138 38.5
      vertex 34.8287 54.8813 38.5
    endloop
  endfacet
  facet normal 0.481764 0.876301 0
    outer loop
      vertex 27.6757 58.8138 38.5
      vertex 34.8287 54.8813 35.5
      vertex 27.6757 58.8138 35.5
    endloop
  endfacet
  facet normal -0.904824 0.425785 0
    outer loop
      vertex -60.4355 23.9281 35.5
      vertex -56.9599 31.314 38.5
      vertex -56.9599 31.314 35.5
    endloop
  endfacet
  facet normal -0.904824 0.425785 0
    outer loop
      vertex -56.9599 31.314 38.5
      vertex -60.4355 23.9281 35.5
      vertex -60.4355 23.9281 38.5
    endloop
  endfacet
  facet normal -0.951058 0.309012 0
    outer loop
      vertex -62.9579 16.1648 35.5
      vertex -60.4355 23.9281 38.5
      vertex -60.4355 23.9281 35.5
    endloop
  endfacet
  facet normal -0.951058 0.309012 0
    outer loop
      vertex -60.4355 23.9281 38.5
      vertex -62.9579 16.1648 35.5
      vertex -62.9579 16.1648 38.5
    endloop
  endfacet
  facet normal 0 0 1
    outer loop
      vertex 7.2 0 38.5
      vertex 65 0 38.5
      vertex 64.4875 8.14666 38.5
    endloop
  endfacet
  facet normal 0 0 1
    outer loop
      vertex 7.14323 0.902399 38.5
      vertex 64.4875 8.14666 38.5
      vertex 62.9579 16.1648 38.5
    endloop
  endfacet
  facet normal 0 0 1
    outer loop
      vertex 65 0 38.5
      vertex 7.2 0 38.5
      vertex 64.4875 -8.14666 38.5
    endloop
  endfacet
  facet normal 0 0 1
    outer loop
      vertex 6.9738 1.79057 38.5
      vertex 62.9579 16.1648 38.5
      vertex 60.4355 23.9281 38.5
    endloop
  endfacet
  facet normal -0 0 1
    outer loop
      vertex 7.14323 -0.902399 38.5
      vertex 64.4875 -8.14666 38.5
      vertex 7.2 0 38.5
    endloop
  endfacet
  facet normal 0 0 1
    outer loop
      vertex 6.69439 2.6505 38.5
      vertex 60.4355 23.9281 38.5
      vertex 56.9599 31.314 38.5
    endloop
  endfacet
  facet normal 0 0 1
    outer loop
      vertex 64.4875 -8.14666 38.5
      vertex 7.14323 -0.902399 38.5
      vertex 62.9579 -16.1648 38.5
    endloop
  endfacet
  facet normal 0 0 1
    outer loop
      vertex 6.30941 3.46863 38.5
      vertex 56.9599 31.314 38.5
      vertex 52.5861 38.206 38.5
    endloop
  endfacet
  facet normal -0 0 1
    outer loop
      vertex 6.9738 -1.79057 38.5
      vertex 62.9579 -16.1648 38.5
      vertex 7.14323 -0.902399 38.5
    endloop
  endfacet
  facet normal 0 0 1
    outer loop
      vertex 5.82492 4.23205 38.5
      vertex 52.5861 38.206 38.5
      vertex 47.383 44.4956 38.5
    endloop
  endfacet
  facet normal 0 0 1
    outer loop
      vertex 62.9579 -16.1648 38.5
      vertex 6.9738 -1.79057 38.5
      vertex 60.4355 -23.9281 38.5
    endloop
  endfacet
  facet normal 0 0 1
    outer loop
      vertex 5.24857 4.92874 38.5
      vertex 47.383 44.4956 38.5
      vertex 41.4326 50.0834 38.5
    endloop
  endfacet
  facet normal -0 0 1
    outer loop
      vertex 6.69439 -2.6505 38.5
      vertex 60.4355 -23.9281 38.5
      vertex 6.9738 -1.79057 38.5
    endloop
  endfacet
  facet normal 0 0 1
    outer loop
      vertex 4.58945 5.5477 38.5
      vertex 41.4326 50.0834 38.5
      vertex 34.8287 54.8813 38.5
    endloop
  endfacet
  facet normal 0 0 1
    outer loop
      vertex 60.4355 -23.9281 38.5
      vertex 6.69439 -2.6505 38.5
      vertex 56.9599 -31.314 38.5
    endloop
  endfacet
  facet normal 0 0 1
    outer loop
      vertex 3.85795 6.07916 38.5
      vertex 34.8287 54.8813 38.5
      vertex 27.6757 58.8138 38.5
    endloop
  endfacet
  facet normal -0 0 1
    outer loop
      vertex 6.30941 -3.46863 38.5
      vertex 56.9599 -31.314 38.5
      vertex 6.69439 -2.6505 38.5
    endloop
  endfacet
  facet normal 0 0 1
    outer loop
      vertex 3.06561 6.51475 38.5
      vertex 27.6757 58.8138 38.5
      vertex 20.0861 61.8187 38.5
    endloop
  endfacet
  facet normal 0 0 1
    outer loop
      vertex 56.9599 -31.314 38.5
      vertex 6.30941 -3.46863 38.5
      vertex 52.5861 -38.206 38.5
    endloop
  endfacet
  facet normal 0 0 1
    outer loop
      vertex 2.22492 6.84761 38.5
      vertex 20.0861 61.8187 38.5
      vertex 12.1798 63.8487 38.5
    endloop
  endfacet
  facet normal -0 0 1
    outer loop
      vertex 5.82492 -4.23205 38.5
      vertex 52.5861 -38.206 38.5
      vertex 6.30941 -3.46863 38.5
    endloop
  endfacet
  facet normal 0 0 1
    outer loop
      vertex 52.5861 -38.206 38.5
      vertex 5.82492 -4.23205 38.5
      vertex 47.383 -44.4956 38.5
    endloop
  endfacet
  facet normal 0 0 1
    outer loop
      vertex 64.4875 8.14666 38.5
      vertex 7.14323 0.902399 38.5
      vertex 7.2 0 38.5
    endloop
  endfacet
  facet normal 0 0 1
    outer loop
      vertex 62.9579 16.1648 38.5
      vertex 6.9738 1.79057 38.5
      vertex 7.14323 0.902399 38.5
    endloop
  endfacet
  facet normal 0 0 1
    outer loop
      vertex 60.4355 23.9281 38.5
      vertex 6.69439 2.6505 38.5
      vertex 6.9738 1.79057 38.5
    endloop
  endfacet
  facet normal 0 0 1
    outer loop
      vertex 56.9599 31.314 38.5
      vertex 6.30941 3.46863 38.5
      vertex 6.69439 2.6505 38.5
    endloop
  endfacet
  facet normal 0 0 1
    outer loop
      vertex 52.5861 38.206 38.5
      vertex 5.82492 4.23205 38.5
      vertex 6.30941 3.46863 38.5
    endloop
  endfacet
  facet normal 0 0 1
    outer loop
      vertex 47.383 44.4956 38.5
      vertex 5.24857 4.92874 38.5
      vertex 5.82492 4.23205 38.5
    endloop
  endfacet
  facet normal 0 0 1
    outer loop
      vertex 41.4326 50.0834 38.5
      vertex 4.58945 5.5477 38.5
      vertex 5.24857 4.92874 38.5
    endloop
  endfacet
  facet normal 0 0 1
    outer loop
      vertex 1.34914 7.07247 38.5
      vertex 12.1798 63.8487 38.5
      vertex 4.08138 64.8717 38.5
    endloop
  endfacet
  facet normal 0 0 1
    outer loop
      vertex 34.8287 54.8813 38.5
      vertex 3.85795 6.07916 38.5
      vertex 4.58945 5.5477 38.5
    endloop
  endfacet
  facet normal 0 0 1
    outer loop
      vertex 27.6757 58.8138 38.5
      vertex 3.06561 6.51475 38.5
      vertex 3.85795 6.07916 38.5
    endloop
  endfacet
  facet normal 0 0 1
    outer loop
      vertex 20.0861 61.8187 38.5
      vertex 2.22492 6.84761 38.5
      vertex 3.06561 6.51475 38.5
    endloop
  endfacet
  facet normal 0 0 1
    outer loop
      vertex 12.1798 63.8487 38.5
      vertex 1.34914 7.07247 38.5
      vertex 2.22492 6.84761 38.5
    endloop
  endfacet
  facet normal 0 0 1
    outer loop
      vertex 4.08138 64.8717 38.5
      vertex 0.452091 7.18579 38.5
      vertex 1.34914 7.07247 38.5
    endloop
  endfacet
  facet normal 0 0 1
    outer loop
      vertex 4.08138 64.8717 38.5
      vertex -0.452091 7.18579 38.5
      vertex 0.452091 7.18579 38.5
    endloop
  endfacet
  facet normal -0 0 1
    outer loop
      vertex -4.08138 64.8717 38.5
      vertex -0.452091 7.18579 38.5
      vertex 4.08138 64.8717 38.5
    endloop
  endfacet
  facet normal 0 0 1
    outer loop
      vertex -0.452091 7.18579 38.5
      vertex -4.08138 64.8717 38.5
      vertex -1.34914 7.07247 38.5
    endloop
  endfacet
  facet normal -0 0 1
    outer loop
      vertex -12.1798 63.8487 38.5
      vertex -1.34914 7.07247 38.5
      vertex -4.08138 64.8717 38.5
    endloop
  endfacet
  facet normal 0 0 1
    outer loop
      vertex -1.34914 7.07247 38.5
      vertex -12.1798 63.8487 38.5
      vertex -2.22492 6.84761 38.5
    endloop
  endfacet
  facet normal -0 0 1
    outer loop
      vertex -20.0861 61.8187 38.5
      vertex -2.22492 6.84761 38.5
      vertex -12.1798 63.8487 38.5
    endloop
  endfacet
  facet normal 0 0 1
    outer loop
      vertex -2.22492 6.84761 38.5
      vertex -20.0861 61.8187 38.5
      vertex -3.06561 6.51475 38.5
    endloop
  endfacet
  facet normal -0 0 1
    outer loop
      vertex -27.6757 58.8138 38.5
      vertex -3.06561 6.51475 38.5
      vertex -20.0861 61.8187 38.5
    endloop
  endfacet
  facet normal 0 0 1
    outer loop
      vertex -3.06561 6.51475 38.5
      vertex -27.6757 58.8138 38.5
      vertex -3.85795 6.07916 38.5
    endloop
  endfacet
  facet normal -0 0 1
    outer loop
      vertex -34.8287 54.8813 38.5
      vertex -3.85795 6.07916 38.5
      vertex -27.6757 58.8138 38.5
    endloop
  endfacet
  facet normal 0 0 1
    outer loop
      vertex -3.85795 6.07916 38.5
      vertex -34.8287 54.8813 38.5
      vertex -4.58945 5.5477 38.5
    endloop
  endfacet
  facet normal -0 0 1
    outer loop
      vertex -41.4326 50.0834 38.5
      vertex -4.58945 5.5477 38.5
      vertex -34.8287 54.8813 38.5
    endloop
  endfacet
  facet normal 0 0 1
    outer loop
      vertex -4.58945 5.5477 38.5
      vertex -41.4326 50.0834 38.5
      vertex -5.24857 4.92874 38.5
    endloop
  endfacet
  facet normal -0 0 1
    outer loop
      vertex -47.383 44.4956 38.5
      vertex -5.24857 4.92874 38.5
      vertex -41.4326 50.0834 38.5
    endloop
  endfacet
  facet normal 0 0 1
    outer loop
      vertex -5.24857 4.92874 38.5
      vertex -47.383 44.4956 38.5
      vertex -5.82492 4.23205 38.5
    endloop
  endfacet
  facet normal -0 0 1
    outer loop
      vertex 5.24857 -4.92874 38.5
      vertex 47.383 -44.4956 38.5
      vertex 5.82492 -4.23205 38.5
    endloop
  endfacet
  facet normal 0 0 1
    outer loop
      vertex 47.383 -44.4956 38.5
      vertex 5.24857 -4.92874 38.5
      vertex 41.4326 -50.0834 38.5
    endloop
  endfacet
  facet normal -0 0 1
    outer loop
      vertex 4.58945 -5.5477 38.5
      vertex 41.4326 -50.0834 38.5
      vertex 5.24857 -4.92874 38.5
    endloop
  endfacet
  facet normal 0 0 1
    outer loop
      vertex 41.4326 -50.0834 38.5
      vertex 4.58945 -5.5477 38.5
      vertex 34.8287 -54.8813 38.5
    endloop
  endfacet
  facet normal -0 0 1
    outer loop
      vertex 3.85795 -6.07916 38.5
      vertex 34.8287 -54.8813 38.5
      vertex 4.58945 -5.5477 38.5
    endloop
  endfacet
  facet normal 0 0 1
    outer loop
      vertex 34.8287 -54.8813 38.5
      vertex 3.85795 -6.07916 38.5
      vertex 27.6757 -58.8138 38.5
    endloop
  endfacet
  facet normal -0 0 1
    outer loop
      vertex 3.06561 -6.51475 38.5
      vertex 27.6757 -58.8138 38.5
      vertex 3.85795 -6.07916 38.5
    endloop
  endfacet
  facet normal 0 0 1
    outer loop
      vertex 27.6757 -58.8138 38.5
      vertex 3.06561 -6.51475 38.5
      vertex 20.0861 -61.8187 38.5
    endloop
  endfacet
  facet normal -0 0 1
    outer loop
      vertex 2.22492 -6.84761 38.5
      vertex 20.0861 -61.8187 38.5
      vertex 3.06561 -6.51475 38.5
    endloop
  endfacet
  facet normal 0 0 1
    outer loop
      vertex 20.0861 -61.8187 38.5
      vertex 2.22492 -6.84761 38.5
      vertex 12.1798 -63.8487 38.5
    endloop
  endfacet
  facet normal -0 0 1
    outer loop
      vertex 1.34914 -7.07247 38.5
      vertex 12.1798 -63.8487 38.5
      vertex 2.22492 -6.84761 38.5
    endloop
  endfacet
  facet normal 0 0 1
    outer loop
      vertex 12.1798 -63.8487 38.5
      vertex 1.34914 -7.07247 38.5
      vertex 4.08138 -64.8717 38.5
    endloop
  endfacet
  facet normal -0 0 1
    outer loop
      vertex 0.452091 -7.18579 38.5
      vertex 4.08138 -64.8717 38.5
      vertex 1.34914 -7.07247 38.5
    endloop
  endfacet
  facet normal -0 0 1
    outer loop
      vertex -0.452091 -7.18579 38.5
      vertex 4.08138 -64.8717 38.5
      vertex 0.452091 -7.18579 38.5
    endloop
  endfacet
  facet normal 0 0 1
    outer loop
      vertex -4.08138 -64.8717 38.5
      vertex -0.452091 -7.18579 38.5
      vertex -1.34914 -7.07247 38.5
    endloop
  endfacet
  facet normal 0 0 1
    outer loop
      vertex -12.1798 -63.8487 38.5
      vertex -1.34914 -7.07247 38.5
      vertex -2.22492 -6.84761 38.5
    endloop
  endfacet
  facet normal 0 0 1
    outer loop
      vertex -20.0861 -61.8187 38.5
      vertex -2.22492 -6.84761 38.5
      vertex -3.06561 -6.51475 38.5
    endloop
  endfacet
  facet normal 0 0 1
    outer loop
      vertex -27.6757 -58.8138 38.5
      vertex -3.06561 -6.51475 38.5
      vertex -3.85795 -6.07916 38.5
    endloop
  endfacet
  facet normal 0 0 1
    outer loop
      vertex -0.452091 -7.18579 38.5
      vertex -4.08138 -64.8717 38.5
      vertex 4.08138 -64.8717 38.5
    endloop
  endfacet
  facet normal 0 0 1
    outer loop
      vertex -34.8287 -54.8813 38.5
      vertex -3.85795 -6.07916 38.5
      vertex -4.58945 -5.5477 38.5
    endloop
  endfacet
  facet normal 0 0 1
    outer loop
      vertex -41.4326 -50.0834 38.5
      vertex -4.58945 -5.5477 38.5
      vertex -5.24857 -4.92874 38.5
    endloop
  endfacet
  facet normal 0 0 1
    outer loop
      vertex -47.383 -44.4956 38.5
      vertex -5.24857 -4.92874 38.5
      vertex -5.82492 -4.23205 38.5
    endloop
  endfacet
  facet normal 0 0 1
    outer loop
      vertex -52.5861 -38.206 38.5
      vertex -5.82492 -4.23205 38.5
      vertex -6.30941 -3.46863 38.5
    endloop
  endfacet
  facet normal 0 0 1
    outer loop
      vertex -56.9599 -31.314 38.5
      vertex -6.30941 -3.46863 38.5
      vertex -6.69439 -2.6505 38.5
    endloop
  endfacet
  facet normal 0 0 1
    outer loop
      vertex -60.4355 -23.9281 38.5
      vertex -6.69439 -2.6505 38.5
      vertex -6.9738 -1.79057 38.5
    endloop
  endfacet
  facet normal 0 0 1
    outer loop
      vertex -62.9579 -16.1648 38.5
      vertex -6.9738 -1.79057 38.5
      vertex -7.14323 -0.902399 38.5
    endloop
  endfacet
  facet normal 0 0 1
    outer loop
      vertex -64.4875 -8.14666 38.5
      vertex -7.14323 -0.902399 38.5
      vertex -7.2 0 38.5
    endloop
  endfacet
  facet normal -0 0 1
    outer loop
      vertex -52.5861 38.206 38.5
      vertex -5.82492 4.23205 38.5
      vertex -47.383 44.4956 38.5
    endloop
  endfacet
  facet normal 0 0 1
    outer loop
      vertex -1.34914 -7.07247 38.5
      vertex -12.1798 -63.8487 38.5
      vertex -4.08138 -64.8717 38.5
    endloop
  endfacet
  facet normal 0 0 1
    outer loop
      vertex -5.82492 4.23205 38.5
      vertex -52.5861 38.206 38.5
      vertex -6.30941 3.46863 38.5
    endloop
  endfacet
  facet normal 0 0 1
    outer loop
      vertex -2.22492 -6.84761 38.5
      vertex -20.0861 -61.8187 38.5
      vertex -12.1798 -63.8487 38.5
    endloop
  endfacet
  facet normal -0 0 1
    outer loop
      vertex -56.9599 31.314 38.5
      vertex -6.30941 3.46863 38.5
      vertex -52.5861 38.206 38.5
    endloop
  endfacet
  facet normal 0 0 1
    outer loop
      vertex -3.06561 -6.51475 38.5
      vertex -27.6757 -58.8138 38.5
      vertex -20.0861 -61.8187 38.5
    endloop
  endfacet
  facet normal 0 0 1
    outer loop
      vertex -6.30941 3.46863 38.5
      vertex -56.9599 31.314 38.5
      vertex -6.69439 2.6505 38.5
    endloop
  endfacet
  facet normal 0 0 1
    outer loop
      vertex -3.85795 -6.07916 38.5
      vertex -34.8287 -54.8813 38.5
      vertex -27.6757 -58.8138 38.5
    endloop
  endfacet
  facet normal -0 0 1
    outer loop
      vertex -60.4355 23.9281 38.5
      vertex -6.69439 2.6505 38.5
      vertex -56.9599 31.314 38.5
    endloop
  endfacet
  facet normal 0 0 1
    outer loop
      vertex -4.58945 -5.5477 38.5
      vertex -41.4326 -50.0834 38.5
      vertex -34.8287 -54.8813 38.5
    endloop
  endfacet
  facet normal 0 0 1
    outer loop
      vertex -6.69439 2.6505 38.5
      vertex -60.4355 23.9281 38.5
      vertex -6.9738 1.79057 38.5
    endloop
  endfacet
  facet normal 0 0 1
    outer loop
      vertex -5.24857 -4.92874 38.5
      vertex -47.383 -44.4956 38.5
      vertex -41.4326 -50.0834 38.5
    endloop
  endfacet
  facet normal -0 0 1
    outer loop
      vertex -62.9579 16.1648 38.5
      vertex -6.9738 1.79057 38.5
      vertex -60.4355 23.9281 38.5
    endloop
  endfacet
  facet normal 0 0 1
    outer loop
      vertex -5.82492 -4.23205 38.5
      vertex -52.5861 -38.206 38.5
      vertex -47.383 -44.4956 38.5
    endloop
  endfacet
  facet normal 0 0 1
    outer loop
      vertex -6.9738 1.79057 38.5
      vertex -62.9579 16.1648 38.5
      vertex -7.14323 0.902399 38.5
    endloop
  endfacet
  facet normal 0 0 1
    outer loop
      vertex -6.30941 -3.46863 38.5
      vertex -56.9599 -31.314 38.5
      vertex -52.5861 -38.206 38.5
    endloop
  endfacet
  facet normal -0 0 1
    outer loop
      vertex -64.4875 8.14666 38.5
      vertex -7.14323 0.902399 38.5
      vertex -62.9579 16.1648 38.5
    endloop
  endfacet
  facet normal 0 0 1
    outer loop
      vertex -6.69439 -2.6505 38.5
      vertex -60.4355 -23.9281 38.5
      vertex -56.9599 -31.314 38.5
    endloop
  endfacet
  facet normal 0 0 1
    outer loop
      vertex -7.14323 0.902399 38.5
      vertex -64.4875 8.14666 38.5
      vertex -7.2 0 38.5
    endloop
  endfacet
  facet normal 0 0 1
    outer loop
      vertex -6.9738 -1.79057 38.5
      vertex -62.9579 -16.1648 38.5
      vertex -60.4355 -23.9281 38.5
    endloop
  endfacet
  facet normal 0 0 1
    outer loop
      vertex -65 0 38.5
      vertex -7.2 0 38.5
      vertex -64.4875 8.14666 38.5
    endloop
  endfacet
  facet normal 0 0 1
    outer loop
      vertex -7.14323 -0.902399 38.5
      vertex -64.4875 -8.14666 38.5
      vertex -62.9579 -16.1648 38.5
    endloop
  endfacet
  facet normal 0 0 1
    outer loop
      vertex -7.2 0 38.5
      vertex -65 0 38.5
      vertex -64.4875 -8.14666 38.5
    endloop
  endfacet
  facet normal -0.481764 0.876301 0
    outer loop
      vertex -27.6757 58.8138 35.5
      vertex -34.8287 54.8813 38.5
      vertex -27.6757 58.8138 38.5
    endloop
  endfacet
  facet normal -0.481764 0.876301 0
    outer loop
      vertex -34.8287 54.8813 38.5
      vertex -27.6757 58.8138 35.5
      vertex -34.8287 54.8813 35.5
    endloop
  endfacet
  facet normal -0.248691 0.968583 0
    outer loop
      vertex -12.1798 63.8487 35.5
      vertex -20.0861 61.8187 38.5
      vertex -12.1798 63.8487 38.5
    endloop
  endfacet
  facet normal -0.248691 0.968583 0
    outer loop
      vertex -20.0861 61.8187 38.5
      vertex -12.1798 63.8487 35.5
      vertex -20.0861 61.8187 35.5
    endloop
  endfacet
  facet normal 0.951058 -0.309012 0
    outer loop
      vertex 60.4355 -23.9281 38.5
      vertex 62.9579 -16.1648 35.5
      vertex 62.9579 -16.1648 38.5
    endloop
  endfacet
  facet normal 0.951058 -0.309012 0
    outer loop
      vertex 62.9579 -16.1648 35.5
      vertex 60.4355 -23.9281 38.5
      vertex 60.4355 -23.9281 35.5
    endloop
  endfacet
  facet normal -0.125325 -0.992116 0
    outer loop
      vertex -12.1798 -63.8487 35.5
      vertex -4.08138 -64.8717 38.5
      vertex -12.1798 -63.8487 38.5
    endloop
  endfacet
  facet normal -0.125325 -0.992116 -0
    outer loop
      vertex -4.08138 -64.8717 38.5
      vertex -12.1798 -63.8487 35.5
      vertex -4.08138 -64.8717 35.5
    endloop
  endfacet
  facet normal -0.998027 -0.0627851 0
    outer loop
      vertex -64.4875 -8.14666 35.5
      vertex -65 0 38.5
      vertex -65 0 35.5
    endloop
  endfacet
  facet normal -0.998027 -0.0627851 0
    outer loop
      vertex -65 0 38.5
      vertex -64.4875 -8.14666 35.5
      vertex -64.4875 -8.14666 38.5
    endloop
  endfacet
  facet normal -0.951058 -0.309012 0
    outer loop
      vertex -60.4355 -23.9281 35.5
      vertex -62.9579 -16.1648 38.5
      vertex -62.9579 -16.1648 35.5
    endloop
  endfacet
  facet normal -0.951058 -0.309012 0
    outer loop
      vertex -62.9579 -16.1648 38.5
      vertex -60.4355 -23.9281 35.5
      vertex -60.4355 -23.9281 38.5
    endloop
  endfacet
  facet normal 0.368121 -0.929778 0
    outer loop
      vertex 20.0861 -61.8187 35.5
      vertex 27.6757 -58.8138 38.5
      vertex 20.0861 -61.8187 38.5
    endloop
  endfacet
  facet normal 0.368121 -0.929778 0
    outer loop
      vertex 27.6757 -58.8138 38.5
      vertex 20.0861 -61.8187 35.5
      vertex 27.6757 -58.8138 35.5
    endloop
  endfacet
  facet normal 0.248691 -0.968583 0
    outer loop
      vertex 12.1798 -63.8487 35.5
      vertex 20.0861 -61.8187 38.5
      vertex 12.1798 -63.8487 38.5
    endloop
  endfacet
  facet normal 0.248691 -0.968583 0
    outer loop
      vertex 20.0861 -61.8187 38.5
      vertex 12.1798 -63.8487 35.5
      vertex 20.0861 -61.8187 35.5
    endloop
  endfacet
  facet normal 0.684547 -0.728968 0
    outer loop
      vertex 41.4326 -50.0834 35.5
      vertex 47.383 -44.4956 38.5
      vertex 41.4326 -50.0834 38.5
    endloop
  endfacet
  facet normal 0.684547 -0.728968 0
    outer loop
      vertex 47.383 -44.4956 38.5
      vertex 41.4326 -50.0834 35.5
      vertex 47.383 -44.4956 35.5
    endloop
  endfacet
  facet normal 0.844328 -0.535827 0
    outer loop
      vertex 52.5861 -38.206 38.5
      vertex 56.9599 -31.314 35.5
      vertex 56.9599 -31.314 38.5
    endloop
  endfacet
  facet normal 0.844328 -0.535827 0
    outer loop
      vertex 56.9599 -31.314 35.5
      vertex 52.5861 -38.206 38.5
      vertex 52.5861 -38.206 35.5
    endloop
  endfacet
  facet normal -0.368121 -0.929778 0
    outer loop
      vertex -27.6757 -58.8138 35.5
      vertex -20.0861 -61.8187 38.5
      vertex -27.6757 -58.8138 38.5
    endloop
  endfacet
  facet normal -0.368121 -0.929778 -0
    outer loop
      vertex -20.0861 -61.8187 38.5
      vertex -27.6757 -58.8138 35.5
      vertex -20.0861 -61.8187 35.5
    endloop
  endfacet
  facet normal -0.77052 -0.637416 0
    outer loop
      vertex -47.383 -44.4956 35.5
      vertex -52.5861 -38.206 38.5
      vertex -52.5861 -38.206 35.5
    endloop
  endfacet
  facet normal -0.77052 -0.637416 0
    outer loop
      vertex -52.5861 -38.206 38.5
      vertex -47.383 -44.4956 35.5
      vertex -47.383 -44.4956 38.5
    endloop
  endfacet
  facet normal -0.982286 -0.187388 0
    outer loop
      vertex -62.9579 -16.1648 35.5
      vertex -64.4875 -8.14666 38.5
      vertex -64.4875 -8.14666 35.5
    endloop
  endfacet
  facet normal -0.982286 -0.187388 0
    outer loop
      vertex -64.4875 -8.14666 38.5
      vertex -62.9579 -16.1648 35.5
      vertex -62.9579 -16.1648 38.5
    endloop
  endfacet
  facet normal 0 0 -1
    outer loop
      vertex 7.2 0 35.5
      vertex 65 0 35.5
      vertex 64.4875 -8.14666 35.5
    endloop
  endfacet
  facet normal 0 0 -1
    outer loop
      vertex 7.14323 -0.902399 35.5
      vertex 64.4875 -8.14666 35.5
      vertex 62.9579 -16.1648 35.5
    endloop
  endfacet
  facet normal 0 0 -1
    outer loop
      vertex 65 0 35.5
      vertex 7.2 0 35.5
      vertex 64.4875 8.14666 35.5
    endloop
  endfacet
  facet normal 0 0 -1
    outer loop
      vertex 6.9738 -1.79057 35.5
      vertex 62.9579 -16.1648 35.5
      vertex 60.4355 -23.9281 35.5
    endloop
  endfacet
  facet normal 0 0 -1
    outer loop
      vertex 7.14323 0.902399 35.5
      vertex 64.4875 8.14666 35.5
      vertex 7.2 0 35.5
    endloop
  endfacet
  facet normal 0 0 -1
    outer loop
      vertex 6.69439 -2.6505 35.5
      vertex 60.4355 -23.9281 35.5
      vertex 56.9599 -31.314 35.5
    endloop
  endfacet
  facet normal -0 0 -1
    outer loop
      vertex 64.4875 8.14666 35.5
      vertex 7.14323 0.902399 35.5
      vertex 62.9579 16.1648 35.5
    endloop
  endfacet
  facet normal 0 0 -1
    outer loop
      vertex 6.30941 -3.46863 35.5
      vertex 56.9599 -31.314 35.5
      vertex 52.5861 -38.206 35.5
    endloop
  endfacet
  facet normal 0 0 -1
    outer loop
      vertex 6.9738 1.79057 35.5
      vertex 62.9579 16.1648 35.5
      vertex 7.14323 0.902399 35.5
    endloop
  endfacet
  facet normal 0 0 -1
    outer loop
      vertex 5.82492 -4.23205 35.5
      vertex 52.5861 -38.206 35.5
      vertex 47.383 -44.4956 35.5
    endloop
  endfacet
  facet normal -0 0 -1
    outer loop
      vertex 62.9579 16.1648 35.5
      vertex 6.9738 1.79057 35.5
      vertex 60.4355 23.9281 35.5
    endloop
  endfacet
  facet normal 0 0 -1
    outer loop
      vertex 5.24857 -4.92874 35.5
      vertex 47.383 -44.4956 35.5
      vertex 41.4326 -50.0834 35.5
    endloop
  endfacet
  facet normal 0 0 -1
    outer loop
      vertex 6.69439 2.6505 35.5
      vertex 60.4355 23.9281 35.5
      vertex 6.9738 1.79057 35.5
    endloop
  endfacet
  facet normal 0 0 -1
    outer loop
      vertex 4.58945 -5.5477 35.5
      vertex 41.4326 -50.0834 35.5
      vertex 34.8287 -54.8813 35.5
    endloop
  endfacet
  facet normal -0 0 -1
    outer loop
      vertex 60.4355 23.9281 35.5
      vertex 6.69439 2.6505 35.5
      vertex 56.9599 31.314 35.5
    endloop
  endfacet
  facet normal 0 0 -1
    outer loop
      vertex 3.85795 -6.07916 35.5
      vertex 34.8287 -54.8813 35.5
      vertex 27.6757 -58.8138 35.5
    endloop
  endfacet
  facet normal 0 0 -1
    outer loop
      vertex 6.30941 3.46863 35.5
      vertex 56.9599 31.314 35.5
      vertex 6.69439 2.6505 35.5
    endloop
  endfacet
  facet normal 0 0 -1
    outer loop
      vertex 3.06561 -6.51475 35.5
      vertex 27.6757 -58.8138 35.5
      vertex 20.0861 -61.8187 35.5
    endloop
  endfacet
  facet normal -0 0 -1
    outer loop
      vertex 56.9599 31.314 35.5
      vertex 6.30941 3.46863 35.5
      vertex 52.5861 38.206 35.5
    endloop
  endfacet
  facet normal 0 0 -1
    outer loop
      vertex 2.22492 -6.84761 35.5
      vertex 20.0861 -61.8187 35.5
      vertex 12.1798 -63.8487 35.5
    endloop
  endfacet
  facet normal 0 0 -1
    outer loop
      vertex 5.82492 4.23205 35.5
      vertex 52.5861 38.206 35.5
      vertex 6.30941 3.46863 35.5
    endloop
  endfacet
  facet normal -0 0 -1
    outer loop
      vertex 52.5861 38.206 35.5
      vertex 5.82492 4.23205 35.5
      vertex 47.383 44.4956 35.5
    endloop
  endfacet
  facet normal 0 0 -1
    outer loop
      vertex 64.4875 -8.14666 35.5
      vertex 7.14323 -0.902399 35.5
      vertex 7.2 0 35.5
    endloop
  endfacet
  facet normal 0 0 -1
    outer loop
      vertex 62.9579 -16.1648 35.5
      vertex 6.9738 -1.79057 35.5
      vertex 7.14323 -0.902399 35.5
    endloop
  endfacet
  facet normal 0 0 -1
    outer loop
      vertex 60.4355 -23.9281 35.5
      vertex 6.69439 -2.6505 35.5
      vertex 6.9738 -1.79057 35.5
    endloop
  endfacet
  facet normal 0 0 -1
    outer loop
      vertex 56.9599 -31.314 35.5
      vertex 6.30941 -3.46863 35.5
      vertex 6.69439 -2.6505 35.5
    endloop
  endfacet
  facet normal 0 0 -1
    outer loop
      vertex 52.5861 -38.206 35.5
      vertex 5.82492 -4.23205 35.5
      vertex 6.30941 -3.46863 35.5
    endloop
  endfacet
  facet normal 0 0 -1
    outer loop
      vertex 47.383 -44.4956 35.5
      vertex 5.24857 -4.92874 35.5
      vertex 5.82492 -4.23205 35.5
    endloop
  endfacet
  facet normal 0 0 -1
    outer loop
      vertex 41.4326 -50.0834 35.5
      vertex 4.58945 -5.5477 35.5
      vertex 5.24857 -4.92874 35.5
    endloop
  endfacet
  facet normal 0 0 -1
    outer loop
      vertex 1.34914 -7.07247 35.5
      vertex 12.1798 -63.8487 35.5
      vertex 4.08138 -64.8717 35.5
    endloop
  endfacet
  facet normal 0 0 -1
    outer loop
      vertex 34.8287 -54.8813 35.5
      vertex 3.85795 -6.07916 35.5
      vertex 4.58945 -5.5477 35.5
    endloop
  endfacet
  facet normal 0 0 -1
    outer loop
      vertex 27.6757 -58.8138 35.5
      vertex 3.06561 -6.51475 35.5
      vertex 3.85795 -6.07916 35.5
    endloop
  endfacet
  facet normal 0 0 -1
    outer loop
      vertex 20.0861 -61.8187 35.5
      vertex 2.22492 -6.84761 35.5
      vertex 3.06561 -6.51475 35.5
    endloop
  endfacet
  facet normal 0 0 -1
    outer loop
      vertex 12.1798 -63.8487 35.5
      vertex 1.34914 -7.07247 35.5
      vertex 2.22492 -6.84761 35.5
    endloop
  endfacet
  facet normal 0 0 -1
    outer loop
      vertex 4.08138 -64.8717 35.5
      vertex 0.452091 -7.18579 35.5
      vertex 1.34914 -7.07247 35.5
    endloop
  endfacet
  facet normal 0 0 -1
    outer loop
      vertex 4.08138 -64.8717 35.5
      vertex -0.452091 -7.18579 35.5
      vertex 0.452091 -7.18579 35.5
    endloop
  endfacet
  facet normal 0 0 -1
    outer loop
      vertex -4.08138 -64.8717 35.5
      vertex -0.452091 -7.18579 35.5
      vertex 4.08138 -64.8717 35.5
    endloop
  endfacet
  facet normal -0 0 -1
    outer loop
      vertex -0.452091 -7.18579 35.5
      vertex -4.08138 -64.8717 35.5
      vertex -1.34914 -7.07247 35.5
    endloop
  endfacet
  facet normal 0 0 -1
    outer loop
      vertex -12.1798 -63.8487 35.5
      vertex -1.34914 -7.07247 35.5
      vertex -4.08138 -64.8717 35.5
    endloop
  endfacet
  facet normal -0 0 -1
    outer loop
      vertex -1.34914 -7.07247 35.5
      vertex -12.1798 -63.8487 35.5
      vertex -2.22492 -6.84761 35.5
    endloop
  endfacet
  facet normal 0 0 -1
    outer loop
      vertex -20.0861 -61.8187 35.5
      vertex -2.22492 -6.84761 35.5
      vertex -12.1798 -63.8487 35.5
    endloop
  endfacet
  facet normal -0 0 -1
    outer loop
      vertex -2.22492 -6.84761 35.5
      vertex -20.0861 -61.8187 35.5
      vertex -3.06561 -6.51475 35.5
    endloop
  endfacet
  facet normal 0 0 -1
    outer loop
      vertex -27.6757 -58.8138 35.5
      vertex -3.06561 -6.51475 35.5
      vertex -20.0861 -61.8187 35.5
    endloop
  endfacet
  facet normal -0 0 -1
    outer loop
      vertex -3.06561 -6.51475 35.5
      vertex -27.6757 -58.8138 35.5
      vertex -3.85795 -6.07916 35.5
    endloop
  endfacet
  facet normal 0 0 -1
    outer loop
      vertex -34.8287 -54.8813 35.5
      vertex -3.85795 -6.07916 35.5
      vertex -27.6757 -58.8138 35.5
    endloop
  endfacet
  facet normal -0 0 -1
    outer loop
      vertex -3.85795 -6.07916 35.5
      vertex -34.8287 -54.8813 35.5
      vertex -4.58945 -5.5477 35.5
    endloop
  endfacet
  facet normal 0 0 -1
    outer loop
      vertex -41.4326 -50.0834 35.5
      vertex -4.58945 -5.5477 35.5
      vertex -34.8287 -54.8813 35.5
    endloop
  endfacet
  facet normal -0 0 -1
    outer loop
      vertex -4.58945 -5.5477 35.5
      vertex -41.4326 -50.0834 35.5
      vertex -5.24857 -4.92874 35.5
    endloop
  endfacet
  facet normal 0 0 -1
    outer loop
      vertex -47.383 -44.4956 35.5
      vertex -5.24857 -4.92874 35.5
      vertex -41.4326 -50.0834 35.5
    endloop
  endfacet
  facet normal -0 0 -1
    outer loop
      vertex -5.24857 -4.92874 35.5
      vertex -47.383 -44.4956 35.5
      vertex -5.82492 -4.23205 35.5
    endloop
  endfacet
  facet normal 0 0 -1
    outer loop
      vertex 5.24857 4.92874 35.5
      vertex 47.383 44.4956 35.5
      vertex 5.82492 4.23205 35.5
    endloop
  endfacet
  facet normal -0 0 -1
    outer loop
      vertex 47.383 44.4956 35.5
      vertex 5.24857 4.92874 35.5
      vertex 41.4326 50.0834 35.5
    endloop
  endfacet
  facet normal 0 0 -1
    outer loop
      vertex 4.58945 5.5477 35.5
      vertex 41.4326 50.0834 35.5
      vertex 5.24857 4.92874 35.5
    endloop
  endfacet
  facet normal -0 0 -1
    outer loop
      vertex 41.4326 50.0834 35.5
      vertex 4.58945 5.5477 35.5
      vertex 34.8287 54.8813 35.5
    endloop
  endfacet
  facet normal 0 0 -1
    outer loop
      vertex 3.85795 6.07916 35.5
      vertex 34.8287 54.8813 35.5
      vertex 4.58945 5.5477 35.5
    endloop
  endfacet
  facet normal -0 0 -1
    outer loop
      vertex 34.8287 54.8813 35.5
      vertex 3.85795 6.07916 35.5
      vertex 27.6757 58.8138 35.5
    endloop
  endfacet
  facet normal 0 0 -1
    outer loop
      vertex 3.06561 6.51475 35.5
      vertex 27.6757 58.8138 35.5
      vertex 3.85795 6.07916 35.5
    endloop
  endfacet
  facet normal -0 0 -1
    outer loop
      vertex 27.6757 58.8138 35.5
      vertex 3.06561 6.51475 35.5
      vertex 20.0861 61.8187 35.5
    endloop
  endfacet
  facet normal 0 0 -1
    outer loop
      vertex 2.22492 6.84761 35.5
      vertex 20.0861 61.8187 35.5
      vertex 3.06561 6.51475 35.5
    endloop
  endfacet
  facet normal -0 0 -1
    outer loop
      vertex 20.0861 61.8187 35.5
      vertex 2.22492 6.84761 35.5
      vertex 12.1798 63.8487 35.5
    endloop
  endfacet
  facet normal 0 0 -1
    outer loop
      vertex 1.34914 7.07247 35.5
      vertex 12.1798 63.8487 35.5
      vertex 2.22492 6.84761 35.5
    endloop
  endfacet
  facet normal -0 0 -1
    outer loop
      vertex 12.1798 63.8487 35.5
      vertex 1.34914 7.07247 35.5
      vertex 4.08138 64.8717 35.5
    endloop
  endfacet
  facet normal 0 0 -1
    outer loop
      vertex 0.452091 7.18579 35.5
      vertex 4.08138 64.8717 35.5
      vertex 1.34914 7.07247 35.5
    endloop
  endfacet
  facet normal 0 0 -1
    outer loop
      vertex -0.452091 7.18579 35.5
      vertex 4.08138 64.8717 35.5
      vertex 0.452091 7.18579 35.5
    endloop
  endfacet
  facet normal 0 0 -1
    outer loop
      vertex -4.08138 64.8717 35.5
      vertex -0.452091 7.18579 35.5
      vertex -1.34914 7.07247 35.5
    endloop
  endfacet
  facet normal 0 0 -1
    outer loop
      vertex -12.1798 63.8487 35.5
      vertex -1.34914 7.07247 35.5
      vertex -2.22492 6.84761 35.5
    endloop
  endfacet
  facet normal 0 0 -1
    outer loop
      vertex -20.0861 61.8187 35.5
      vertex -2.22492 6.84761 35.5
      vertex -3.06561 6.51475 35.5
    endloop
  endfacet
  facet normal 0 0 -1
    outer loop
      vertex -27.6757 58.8138 35.5
      vertex -3.06561 6.51475 35.5
      vertex -3.85795 6.07916 35.5
    endloop
  endfacet
  facet normal 0 0 -1
    outer loop
      vertex -0.452091 7.18579 35.5
      vertex -4.08138 64.8717 35.5
      vertex 4.08138 64.8717 35.5
    endloop
  endfacet
  facet normal 0 0 -1
    outer loop
      vertex -34.8287 54.8813 35.5
      vertex -3.85795 6.07916 35.5
      vertex -4.58945 5.5477 35.5
    endloop
  endfacet
  facet normal 0 0 -1
    outer loop
      vertex -41.4326 50.0834 35.5
      vertex -4.58945 5.5477 35.5
      vertex -5.24857 4.92874 35.5
    endloop
  endfacet
  facet normal 0 0 -1
    outer loop
      vertex -47.383 44.4956 35.5
      vertex -5.24857 4.92874 35.5
      vertex -5.82492 4.23205 35.5
    endloop
  endfacet
  facet normal 0 0 -1
    outer loop
      vertex -52.5861 38.206 35.5
      vertex -5.82492 4.23205 35.5
      vertex -6.30941 3.46863 35.5
    endloop
  endfacet
  facet normal 0 0 -1
    outer loop
      vertex -56.9599 31.314 35.5
      vertex -6.30941 3.46863 35.5
      vertex -6.69439 2.6505 35.5
    endloop
  endfacet
  facet normal 0 0 -1
    outer loop
      vertex -60.4355 23.9281 35.5
      vertex -6.69439 2.6505 35.5
      vertex -6.9738 1.79057 35.5
    endloop
  endfacet
  facet normal 0 0 -1
    outer loop
      vertex -62.9579 16.1648 35.5
      vertex -6.9738 1.79057 35.5
      vertex -7.14323 0.902399 35.5
    endloop
  endfacet
  facet normal 0 0 -1
    outer loop
      vertex -64.4875 8.14666 35.5
      vertex -7.14323 0.902399 35.5
      vertex -7.2 0 35.5
    endloop
  endfacet
  facet normal 0 0 -1
    outer loop
      vertex -52.5861 -38.206 35.5
      vertex -5.82492 -4.23205 35.5
      vertex -47.383 -44.4956 35.5
    endloop
  endfacet
  facet normal 0 0 -1
    outer loop
      vertex -1.34914 7.07247 35.5
      vertex -12.1798 63.8487 35.5
      vertex -4.08138 64.8717 35.5
    endloop
  endfacet
  facet normal -0 0 -1
    outer loop
      vertex -5.82492 -4.23205 35.5
      vertex -52.5861 -38.206 35.5
      vertex -6.30941 -3.46863 35.5
    endloop
  endfacet
  facet normal 0 0 -1
    outer loop
      vertex -2.22492 6.84761 35.5
      vertex -20.0861 61.8187 35.5
      vertex -12.1798 63.8487 35.5
    endloop
  endfacet
  facet normal 0 0 -1
    outer loop
      vertex -56.9599 -31.314 35.5
      vertex -6.30941 -3.46863 35.5
      vertex -52.5861 -38.206 35.5
    endloop
  endfacet
  facet normal 0 0 -1
    outer loop
      vertex -3.06561 6.51475 35.5
      vertex -27.6757 58.8138 35.5
      vertex -20.0861 61.8187 35.5
    endloop
  endfacet
  facet normal -0 0 -1
    outer loop
      vertex -6.30941 -3.46863 35.5
      vertex -56.9599 -31.314 35.5
      vertex -6.69439 -2.6505 35.5
    endloop
  endfacet
  facet normal 0 0 -1
    outer loop
      vertex -3.85795 6.07916 35.5
      vertex -34.8287 54.8813 35.5
      vertex -27.6757 58.8138 35.5
    endloop
  endfacet
  facet normal 0 0 -1
    outer loop
      vertex -60.4355 -23.9281 35.5
      vertex -6.69439 -2.6505 35.5
      vertex -56.9599 -31.314 35.5
    endloop
  endfacet
  facet normal 0 0 -1
    outer loop
      vertex -4.58945 5.5477 35.5
      vertex -41.4326 50.0834 35.5
      vertex -34.8287 54.8813 35.5
    endloop
  endfacet
  facet normal -0 0 -1
    outer loop
      vertex -6.69439 -2.6505 35.5
      vertex -60.4355 -23.9281 35.5
      vertex -6.9738 -1.79057 35.5
    endloop
  endfacet
  facet normal 0 0 -1
    outer loop
      vertex -5.24857 4.92874 35.5
      vertex -47.383 44.4956 35.5
      vertex -41.4326 50.0834 35.5
    endloop
  endfacet
  facet normal 0 0 -1
    outer loop
      vertex -62.9579 -16.1648 35.5
      vertex -6.9738 -1.79057 35.5
      vertex -60.4355 -23.9281 35.5
    endloop
  endfacet
  facet normal 0 0 -1
    outer loop
      vertex -5.82492 4.23205 35.5
      vertex -52.5861 38.206 35.5
      vertex -47.383 44.4956 35.5
    endloop
  endfacet
  facet normal -0 0 -1
    outer loop
      vertex -6.9738 -1.79057 35.5
      vertex -62.9579 -16.1648 35.5
      vertex -7.14323 -0.902399 35.5
    endloop
  endfacet
  facet normal 0 0 -1
    outer loop
      vertex -6.30941 3.46863 35.5
      vertex -56.9599 31.314 35.5
      vertex -52.5861 38.206 35.5
    endloop
  endfacet
  facet normal 0 0 -1
    outer loop
      vertex -64.4875 -8.14666 35.5
      vertex -7.14323 -0.902399 35.5
      vertex -62.9579 -16.1648 35.5
    endloop
  endfacet
  facet normal 0 0 -1
    outer loop
      vertex -6.69439 2.6505 35.5
      vertex -60.4355 23.9281 35.5
      vertex -56.9599 31.314 35.5
    endloop
  endfacet
  facet normal -0 0 -1
    outer loop
      vertex -7.14323 -0.902399 35.5
      vertex -64.4875 -8.14666 35.5
      vertex -7.2 0 35.5
    endloop
  endfacet
  facet normal 0 0 -1
    outer loop
      vertex -6.9738 1.79057 35.5
      vertex -62.9579 16.1648 35.5
      vertex -60.4355 23.9281 35.5
    endloop
  endfacet
  facet normal 0 0 -1
    outer loop
      vertex -65 0 35.5
      vertex -7.2 0 35.5
      vertex -64.4875 -8.14666 35.5
    endloop
  endfacet
  facet normal 0 0 -1
    outer loop
      vertex -7.14323 0.902399 35.5
      vertex -64.4875 8.14666 35.5
      vertex -62.9579 16.1648 35.5
    endloop
  endfacet
  facet normal 0 0 -1
    outer loop
      vertex -7.2 0 35.5
      vertex -65 0 35.5
      vertex -64.4875 8.14666 35.5
    endloop
  endfacet
  facet normal 0.982286 -0.187388 0
    outer loop
      vertex 62.9579 -16.1648 38.5
      vertex 64.4875 -8.14666 35.5
      vertex 64.4875 -8.14666 38.5
    endloop
  endfacet
  facet normal 0.982286 -0.187388 0
    outer loop
      vertex 64.4875 -8.14666 35.5
      vertex 62.9579 -16.1648 38.5
      vertex 62.9579 -16.1648 35.5
    endloop
  endfacet
  facet normal 0.481764 -0.876301 0
    outer loop
      vertex 27.6757 -58.8138 35.5
      vertex 34.8287 -54.8813 38.5
      vertex 27.6757 -58.8138 38.5
    endloop
  endfacet
  facet normal 0.481764 -0.876301 0
    outer loop
      vertex 34.8287 -54.8813 38.5
      vertex 27.6757 -58.8138 35.5
      vertex 34.8287 -54.8813 35.5
    endloop
  endfacet
  facet normal 0.904824 -0.425785 0
    outer loop
      vertex 56.9599 -31.314 38.5
      vertex 60.4355 -23.9281 35.5
      vertex 60.4355 -23.9281 38.5
    endloop
  endfacet
  facet normal 0.904824 -0.425785 0
    outer loop
      vertex 60.4355 -23.9281 35.5
      vertex 56.9599 -31.314 38.5
      vertex 56.9599 -31.314 35.5
    endloop
  endfacet
  facet normal 0 -1 0
    outer loop
      vertex -4.08138 -64.8717 35.5
      vertex 4.08138 -64.8717 38.5
      vertex -4.08138 -64.8717 38.5
    endloop
  endfacet
  facet normal 0 -1 -0
    outer loop
      vertex 4.08138 -64.8717 38.5
      vertex -4.08138 -64.8717 35.5
      vertex 4.08138 -64.8717 35.5
    endloop
  endfacet
  facet normal -0.587776 -0.809024 0
    outer loop
      vertex -41.4326 -50.0834 35.5
      vertex -34.8287 -54.8813 38.5
      vertex -41.4326 -50.0834 38.5
    endloop
  endfacet
  facet normal -0.587776 -0.809024 -0
    outer loop
      vertex -34.8287 -54.8813 38.5
      vertex -41.4326 -50.0834 35.5
      vertex -34.8287 -54.8813 35.5
    endloop
  endfacet
  facet normal -0.684547 -0.728968 0
    outer loop
      vertex -47.383 -44.4956 35.5
      vertex -41.4326 -50.0834 38.5
      vertex -47.383 -44.4956 38.5
    endloop
  endfacet
  facet normal -0.684547 -0.728968 -0
    outer loop
      vertex -41.4326 -50.0834 38.5
      vertex -47.383 -44.4956 35.5
      vertex -41.4326 -50.0834 35.5
    endloop
  endfacet
  facet normal -0.844328 -0.535827 0
    outer loop
      vertex -52.5861 -38.206 35.5
      vertex -56.9599 -31.314 38.5
      vertex -56.9599 -31.314 35.5
    endloop
  endfacet
  facet normal -0.844328 -0.535827 0
    outer loop
      vertex -56.9599 -31.314 38.5
      vertex -52.5861 -38.206 35.5
      vertex -52.5861 -38.206 38.5
    endloop
  endfacet
  facet normal -0.904824 -0.425785 0
    outer loop
      vertex -56.9599 -31.314 35.5
      vertex -60.4355 -23.9281 38.5
      vertex -60.4355 -23.9281 35.5
    endloop
  endfacet
  facet normal -0.904824 -0.425785 0
    outer loop
      vertex -60.4355 -23.9281 38.5
      vertex -56.9599 -31.314 35.5
      vertex -56.9599 -31.314 38.5
    endloop
  endfacet
  facet normal 0.587776 -0.809024 0
    outer loop
      vertex 34.8287 -54.8813 35.5
      vertex 41.4326 -50.0834 38.5
      vertex 34.8287 -54.8813 38.5
    endloop
  endfacet
  facet normal 0.587776 -0.809024 0
    outer loop
      vertex 41.4326 -50.0834 38.5
      vertex 34.8287 -54.8813 35.5
      vertex 41.4326 -50.0834 35.5
    endloop
  endfacet
  facet normal 0.77052 -0.637416 0
    outer loop
      vertex 47.383 -44.4956 38.5
      vertex 52.5861 -38.206 35.5
      vertex 52.5861 -38.206 38.5
    endloop
  endfacet
  facet normal 0.77052 -0.637416 0
    outer loop
      vertex 52.5861 -38.206 35.5
      vertex 47.383 -44.4956 38.5
      vertex 47.383 -44.4956 35.5
    endloop
  endfacet
  facet normal -0.481764 -0.876301 0
    outer loop
      vertex -34.8287 -54.8813 35.5
      vertex -27.6757 -58.8138 38.5
      vertex -34.8287 -54.8813 38.5
    endloop
  endfacet
  facet normal -0.481764 -0.876301 -0
    outer loop
      vertex -27.6757 -58.8138 38.5
      vertex -34.8287 -54.8813 35.5
      vertex -27.6757 -58.8138 35.5
    endloop
  endfacet
  facet normal -0.998027 -0.062786 0
    outer loop
      vertex 7.2 0 35.5
      vertex 7.14323 0.902399 38.5
      vertex 7.14323 0.902399 35.5
    endloop
  endfacet
  facet normal -0.998027 -0.062786 0
    outer loop
      vertex 7.14323 0.902399 38.5
      vertex 7.2 0 35.5
      vertex 7.2 0 38.5
    endloop
  endfacet
  facet normal 0.998027 -0.062786 0
    outer loop
      vertex -7.2 0 38.5
      vertex -7.14323 0.902399 35.5
      vertex -7.14323 0.902399 38.5
    endloop
  endfacet
  facet normal 0.998027 -0.062786 0
    outer loop
      vertex -7.14323 0.902399 35.5
      vertex -7.2 0 38.5
      vertex -7.2 0 35.5
    endloop
  endfacet
  facet normal 0 -1 0
    outer loop
      vertex -0.452091 7.18579 35.5
      vertex 0.452091 7.18579 38.5
      vertex -0.452091 7.18579 38.5
    endloop
  endfacet
  facet normal 0 -1 -0
    outer loop
      vertex 0.452091 7.18579 38.5
      vertex -0.452091 7.18579 35.5
      vertex 0.452091 7.18579 35.5
    endloop
  endfacet
  facet normal -0.68455 -0.728966 0
    outer loop
      vertex 4.58945 5.5477 35.5
      vertex 5.24857 4.92874 38.5
      vertex 4.58945 5.5477 38.5
    endloop
  endfacet
  facet normal -0.68455 -0.728966 -0
    outer loop
      vertex 5.24857 4.92874 38.5
      vertex 4.58945 5.5477 35.5
      vertex 5.24857 4.92874 35.5
    endloop
  endfacet
  facet normal 0.68455 -0.728966 0
    outer loop
      vertex -5.24857 4.92874 35.5
      vertex -4.58945 5.5477 38.5
      vertex -5.24857 4.92874 38.5
    endloop
  endfacet
  facet normal 0.68455 -0.728966 0
    outer loop
      vertex -4.58945 5.5477 38.5
      vertex -5.24857 4.92874 35.5
      vertex -4.58945 5.5477 35.5
    endloop
  endfacet
  facet normal 0.368132 -0.929774 0
    outer loop
      vertex -3.06561 6.51475 35.5
      vertex -2.22492 6.84761 38.5
      vertex -3.06561 6.51475 38.5
    endloop
  endfacet
  facet normal 0.368132 -0.929774 0
    outer loop
      vertex -2.22492 6.84761 38.5
      vertex -3.06561 6.51475 35.5
      vertex -2.22492 6.84761 35.5
    endloop
  endfacet
  facet normal -0.904828 -0.425777 0
    outer loop
      vertex 6.69439 2.6505 35.5
      vertex 6.30941 3.46863 38.5
      vertex 6.30941 3.46863 35.5
    endloop
  endfacet
  facet normal -0.904828 -0.425777 0
    outer loop
      vertex 6.30941 3.46863 38.5
      vertex 6.69439 2.6505 35.5
      vertex 6.69439 2.6505 38.5
    endloop
  endfacet
  facet normal -0.844323 -0.535834 0
    outer loop
      vertex 6.30941 3.46863 35.5
      vertex 5.82492 4.23205 38.5
      vertex 5.82492 4.23205 35.5
    endloop
  endfacet
  facet normal -0.844323 -0.535834 0
    outer loop
      vertex 5.82492 4.23205 38.5
      vertex 6.30941 3.46863 35.5
      vertex 6.30941 3.46863 38.5
    endloop
  endfacet
  facet normal -0.368132 -0.929774 0
    outer loop
      vertex 2.22492 6.84761 35.5
      vertex 3.06561 6.51475 38.5
      vertex 2.22492 6.84761 38.5
    endloop
  endfacet
  facet normal -0.368132 -0.929774 -0
    outer loop
      vertex 3.06561 6.51475 38.5
      vertex 2.22492 6.84761 35.5
      vertex 3.06561 6.51475 35.5
    endloop
  endfacet
  facet normal -0.248688 -0.968584 0
    outer loop
      vertex 1.34914 7.07247 35.5
      vertex 2.22492 6.84761 38.5
      vertex 1.34914 7.07247 38.5
    endloop
  endfacet
  facet normal -0.248688 -0.968584 -0
    outer loop
      vertex 2.22492 6.84761 38.5
      vertex 1.34914 7.07247 35.5
      vertex 2.22492 6.84761 35.5
    endloop
  endfacet
  facet normal -0.587781 -0.80902 0
    outer loop
      vertex 3.85795 6.07916 35.5
      vertex 4.58945 5.5477 38.5
      vertex 3.85795 6.07916 38.5
    endloop
  endfacet
  facet normal -0.587781 -0.80902 -0
    outer loop
      vertex 4.58945 5.5477 38.5
      vertex 3.85795 6.07916 35.5
      vertex 4.58945 5.5477 35.5
    endloop
  endfacet
  facet normal 0.844323 -0.535834 0
    outer loop
      vertex -6.30941 3.46863 38.5
      vertex -5.82492 4.23205 35.5
      vertex -5.82492 4.23205 38.5
    endloop
  endfacet
  facet normal 0.844323 -0.535834 0
    outer loop
      vertex -5.82492 4.23205 35.5
      vertex -6.30941 3.46863 38.5
      vertex -6.30941 3.46863 35.5
    endloop
  endfacet
  facet normal 0.770514 -0.637423 0
    outer loop
      vertex -5.82492 4.23205 38.5
      vertex -5.24857 4.92874 35.5
      vertex -5.24857 4.92874 38.5
    endloop
  endfacet
  facet normal 0.770514 -0.637423 0
    outer loop
      vertex -5.24857 4.92874 35.5
      vertex -5.82492 4.23205 38.5
      vertex -5.82492 4.23205 35.5
    endloop
  endfacet
  facet normal 0.951056 -0.309019 0
    outer loop
      vertex -6.9738 1.79057 38.5
      vertex -6.69439 2.6505 35.5
      vertex -6.69439 2.6505 38.5
    endloop
  endfacet
  facet normal 0.951056 -0.309019 0
    outer loop
      vertex -6.69439 2.6505 35.5
      vertex -6.9738 1.79057 38.5
      vertex -6.9738 1.79057 35.5
    endloop
  endfacet
  facet normal 0.587781 -0.80902 0
    outer loop
      vertex -4.58945 5.5477 35.5
      vertex -3.85795 6.07916 38.5
      vertex -4.58945 5.5477 38.5
    endloop
  endfacet
  facet normal 0.587781 -0.80902 0
    outer loop
      vertex -3.85795 6.07916 38.5
      vertex -4.58945 5.5477 35.5
      vertex -3.85795 6.07916 35.5
    endloop
  endfacet
  facet normal 0.125329 -0.992115 0
    outer loop
      vertex -1.34914 7.07247 35.5
      vertex -0.452091 7.18579 38.5
      vertex -1.34914 7.07247 38.5
    endloop
  endfacet
  facet normal 0.125329 -0.992115 0
    outer loop
      vertex -0.452091 7.18579 38.5
      vertex -1.34914 7.07247 35.5
      vertex -0.452091 7.18579 35.5
    endloop
  endfacet
  facet normal -0.998027 0.062786 0
    outer loop
      vertex 7.14323 -0.902399 35.5
      vertex 7.2 0 38.5
      vertex 7.2 0 35.5
    endloop
  endfacet
  facet normal -0.998027 0.062786 0
    outer loop
      vertex 7.2 0 38.5
      vertex 7.14323 -0.902399 35.5
      vertex 7.14323 -0.902399 38.5
    endloop
  endfacet
  facet normal 0.125329 0.992115 -0
    outer loop
      vertex -0.452091 -7.18579 35.5
      vertex -1.34914 -7.07247 38.5
      vertex -0.452091 -7.18579 38.5
    endloop
  endfacet
  facet normal 0.125329 0.992115 0
    outer loop
      vertex -1.34914 -7.07247 38.5
      vertex -0.452091 -7.18579 35.5
      vertex -1.34914 -7.07247 35.5
    endloop
  endfacet
  facet normal -0.125329 0.992115 0
    outer loop
      vertex 1.34914 -7.07247 35.5
      vertex 0.452091 -7.18579 38.5
      vertex 1.34914 -7.07247 38.5
    endloop
  endfacet
  facet normal -0.125329 0.992115 0
    outer loop
      vertex 0.452091 -7.18579 38.5
      vertex 1.34914 -7.07247 35.5
      vertex 0.452091 -7.18579 35.5
    endloop
  endfacet
  facet normal -0.951056 -0.309019 0
    outer loop
      vertex 6.9738 1.79057 35.5
      vertex 6.69439 2.6505 38.5
      vertex 6.69439 2.6505 35.5
    endloop
  endfacet
  facet normal -0.951056 -0.309019 0
    outer loop
      vertex 6.69439 2.6505 38.5
      vertex 6.9738 1.79057 35.5
      vertex 6.9738 1.79057 38.5
    endloop
  endfacet
  facet normal -0.982287 -0.187384 0
    outer loop
      vertex 7.14323 0.902399 35.5
      vertex 6.9738 1.79057 38.5
      vertex 6.9738 1.79057 35.5
    endloop
  endfacet
  facet normal -0.982287 -0.187384 0
    outer loop
      vertex 6.9738 1.79057 38.5
      vertex 7.14323 0.902399 35.5
      vertex 7.14323 0.902399 38.5
    endloop
  endfacet
  facet normal -0.770514 -0.637423 0
    outer loop
      vertex 5.82492 4.23205 35.5
      vertex 5.24857 4.92874 38.5
      vertex 5.24857 4.92874 35.5
    endloop
  endfacet
  facet normal -0.770514 -0.637423 0
    outer loop
      vertex 5.24857 4.92874 38.5
      vertex 5.82492 4.23205 35.5
      vertex 5.82492 4.23205 38.5
    endloop
  endfacet
  facet normal -0.125329 -0.992115 0
    outer loop
      vertex 0.452091 7.18579 35.5
      vertex 1.34914 7.07247 38.5
      vertex 0.452091 7.18579 38.5
    endloop
  endfacet
  facet normal -0.125329 -0.992115 -0
    outer loop
      vertex 1.34914 7.07247 38.5
      vertex 0.452091 7.18579 35.5
      vertex 1.34914 7.07247 35.5
    endloop
  endfacet
  facet normal -0.481751 -0.876308 0
    outer loop
      vertex 3.06561 6.51475 35.5
      vertex 3.85795 6.07916 38.5
      vertex 3.06561 6.51475 38.5
    endloop
  endfacet
  facet normal -0.481751 -0.876308 -0
    outer loop
      vertex 3.85795 6.07916 38.5
      vertex 3.06561 6.51475 35.5
      vertex 3.85795 6.07916 35.5
    endloop
  endfacet
  facet normal 0.904828 -0.425777 0
    outer loop
      vertex -6.69439 2.6505 38.5
      vertex -6.30941 3.46863 35.5
      vertex -6.30941 3.46863 38.5
    endloop
  endfacet
  facet normal 0.904828 -0.425777 0
    outer loop
      vertex -6.30941 3.46863 35.5
      vertex -6.69439 2.6505 38.5
      vertex -6.69439 2.6505 35.5
    endloop
  endfacet
  facet normal 0.248688 -0.968584 0
    outer loop
      vertex -2.22492 6.84761 35.5
      vertex -1.34914 7.07247 38.5
      vertex -2.22492 6.84761 38.5
    endloop
  endfacet
  facet normal 0.248688 -0.968584 0
    outer loop
      vertex -1.34914 7.07247 38.5
      vertex -2.22492 6.84761 35.5
      vertex -1.34914 7.07247 35.5
    endloop
  endfacet
  facet normal -0.951056 0.309019 0
    outer loop
      vertex 6.69439 -2.6505 35.5
      vertex 6.9738 -1.79057 38.5
      vertex 6.9738 -1.79057 35.5
    endloop
  endfacet
  facet normal -0.951056 0.309019 0
    outer loop
      vertex 6.9738 -1.79057 38.5
      vertex 6.69439 -2.6505 35.5
      vertex 6.69439 -2.6505 38.5
    endloop
  endfacet
  facet normal -0.982287 0.187384 0
    outer loop
      vertex 6.9738 -1.79057 35.5
      vertex 7.14323 -0.902399 38.5
      vertex 7.14323 -0.902399 35.5
    endloop
  endfacet
  facet normal -0.982287 0.187384 0
    outer loop
      vertex 7.14323 -0.902399 38.5
      vertex 6.9738 -1.79057 35.5
      vertex 6.9738 -1.79057 38.5
    endloop
  endfacet
  facet normal 0.951056 0.309019 0
    outer loop
      vertex -6.69439 -2.6505 38.5
      vertex -6.9738 -1.79057 35.5
      vertex -6.9738 -1.79057 38.5
    endloop
  endfacet
  facet normal 0.951056 0.309019 0
    outer loop
      vertex -6.9738 -1.79057 35.5
      vertex -6.69439 -2.6505 38.5
      vertex -6.69439 -2.6505 35.5
    endloop
  endfacet
  facet normal -0.368132 0.929774 0
    outer loop
      vertex 3.06561 -6.51475 35.5
      vertex 2.22492 -6.84761 38.5
      vertex 3.06561 -6.51475 38.5
    endloop
  endfacet
  facet normal -0.368132 0.929774 0
    outer loop
      vertex 2.22492 -6.84761 38.5
      vertex 3.06561 -6.51475 35.5
      vertex 2.22492 -6.84761 35.5
    endloop
  endfacet
  facet normal -0.248688 0.968584 0
    outer loop
      vertex 2.22492 -6.84761 35.5
      vertex 1.34914 -7.07247 38.5
      vertex 2.22492 -6.84761 38.5
    endloop
  endfacet
  facet normal -0.248688 0.968584 0
    outer loop
      vertex 1.34914 -7.07247 38.5
      vertex 2.22492 -6.84761 35.5
      vertex 1.34914 -7.07247 35.5
    endloop
  endfacet
  facet normal 0.982287 -0.187384 0
    outer loop
      vertex -7.14323 0.902399 38.5
      vertex -6.9738 1.79057 35.5
      vertex -6.9738 1.79057 38.5
    endloop
  endfacet
  facet normal 0.982287 -0.187384 0
    outer loop
      vertex -6.9738 1.79057 35.5
      vertex -7.14323 0.902399 38.5
      vertex -7.14323 0.902399 35.5
    endloop
  endfacet
  facet normal 0.481751 -0.876308 0
    outer loop
      vertex -3.85795 6.07916 35.5
      vertex -3.06561 6.51475 38.5
      vertex -3.85795 6.07916 38.5
    endloop
  endfacet
  facet normal 0.481751 -0.876308 0
    outer loop
      vertex -3.06561 6.51475 38.5
      vertex -3.85795 6.07916 35.5
      vertex -3.06561 6.51475 35.5
    endloop
  endfacet
  facet normal -0.68455 0.728966 0
    outer loop
      vertex 5.24857 -4.92874 35.5
      vertex 4.58945 -5.5477 38.5
      vertex 5.24857 -4.92874 38.5
    endloop
  endfacet
  facet normal -0.68455 0.728966 0
    outer loop
      vertex 4.58945 -5.5477 38.5
      vertex 5.24857 -4.92874 35.5
      vertex 4.58945 -5.5477 35.5
    endloop
  endfacet
  facet normal -0.844323 0.535834 0
    outer loop
      vertex 5.82492 -4.23205 35.5
      vertex 6.30941 -3.46863 38.5
      vertex 6.30941 -3.46863 35.5
    endloop
  endfacet
  facet normal -0.844323 0.535834 0
    outer loop
      vertex 6.30941 -3.46863 38.5
      vertex 5.82492 -4.23205 35.5
      vertex 5.82492 -4.23205 38.5
    endloop
  endfacet
  facet normal 0.368132 0.929774 -0
    outer loop
      vertex -2.22492 -6.84761 35.5
      vertex -3.06561 -6.51475 38.5
      vertex -2.22492 -6.84761 38.5
    endloop
  endfacet
  facet normal 0.368132 0.929774 0
    outer loop
      vertex -3.06561 -6.51475 38.5
      vertex -2.22492 -6.84761 35.5
      vertex -3.06561 -6.51475 35.5
    endloop
  endfacet
  facet normal 0.770514 0.637423 0
    outer loop
      vertex -5.24857 -4.92874 38.5
      vertex -5.82492 -4.23205 35.5
      vertex -5.82492 -4.23205 38.5
    endloop
  endfacet
  facet normal 0.770514 0.637423 0
    outer loop
      vertex -5.82492 -4.23205 35.5
      vertex -5.24857 -4.92874 38.5
      vertex -5.24857 -4.92874 35.5
    endloop
  endfacet
  facet normal 0.998027 0.062786 0
    outer loop
      vertex -7.14323 -0.902399 38.5
      vertex -7.2 0 35.5
      vertex -7.2 0 38.5
    endloop
  endfacet
  facet normal 0.998027 0.062786 0
    outer loop
      vertex -7.2 0 35.5
      vertex -7.14323 -0.902399 38.5
      vertex -7.14323 -0.902399 35.5
    endloop
  endfacet
  facet normal -0.481751 0.876308 0
    outer loop
      vertex 3.85795 -6.07916 35.5
      vertex 3.06561 -6.51475 38.5
      vertex 3.85795 -6.07916 38.5
    endloop
  endfacet
  facet normal -0.481751 0.876308 0
    outer loop
      vertex 3.06561 -6.51475 38.5
      vertex 3.85795 -6.07916 35.5
      vertex 3.06561 -6.51475 35.5
    endloop
  endfacet
  facet normal -0.904828 0.425777 0
    outer loop
      vertex 6.30941 -3.46863 35.5
      vertex 6.69439 -2.6505 38.5
      vertex 6.69439 -2.6505 35.5
    endloop
  endfacet
  facet normal -0.904828 0.425777 0
    outer loop
      vertex 6.69439 -2.6505 38.5
      vertex 6.30941 -3.46863 35.5
      vertex 6.30941 -3.46863 38.5
    endloop
  endfacet
  facet normal 0 1 -0
    outer loop
      vertex 0.452091 -7.18579 35.5
      vertex -0.452091 -7.18579 38.5
      vertex 0.452091 -7.18579 38.5
    endloop
  endfacet
  facet normal 0 1 0
    outer loop
      vertex -0.452091 -7.18579 38.5
      vertex 0.452091 -7.18579 35.5
      vertex -0.452091 -7.18579 35.5
    endloop
  endfacet
  facet normal 0.248688 0.968584 -0
    outer loop
      vertex -1.34914 -7.07247 35.5
      vertex -2.22492 -6.84761 38.5
      vertex -1.34914 -7.07247 38.5
    endloop
  endfacet
  facet normal 0.248688 0.968584 0
    outer loop
      vertex -2.22492 -6.84761 38.5
      vertex -1.34914 -7.07247 35.5
      vertex -2.22492 -6.84761 35.5
    endloop
  endfacet
  facet normal 0.587781 0.80902 -0
    outer loop
      vertex -3.85795 -6.07916 35.5
      vertex -4.58945 -5.5477 38.5
      vertex -3.85795 -6.07916 38.5
    endloop
  endfacet
  facet normal 0.587781 0.80902 0
    outer loop
      vertex -4.58945 -5.5477 38.5
      vertex -3.85795 -6.07916 35.5
      vertex -4.58945 -5.5477 35.5
    endloop
  endfacet
  facet normal 0.68455 0.728966 -0
    outer loop
      vertex -4.58945 -5.5477 35.5
      vertex -5.24857 -4.92874 38.5
      vertex -4.58945 -5.5477 38.5
    endloop
  endfacet
  facet normal 0.68455 0.728966 0
    outer loop
      vertex -5.24857 -4.92874 38.5
      vertex -4.58945 -5.5477 35.5
      vertex -5.24857 -4.92874 35.5
    endloop
  endfacet
  facet normal 0.844323 0.535834 0
    outer loop
      vertex -5.82492 -4.23205 38.5
      vertex -6.30941 -3.46863 35.5
      vertex -6.30941 -3.46863 38.5
    endloop
  endfacet
  facet normal 0.844323 0.535834 0
    outer loop
      vertex -6.30941 -3.46863 35.5
      vertex -5.82492 -4.23205 38.5
      vertex -5.82492 -4.23205 35.5
    endloop
  endfacet
  facet normal 0.904828 0.425777 0
    outer loop
      vertex -6.30941 -3.46863 38.5
      vertex -6.69439 -2.6505 35.5
      vertex -6.69439 -2.6505 38.5
    endloop
  endfacet
  facet normal 0.904828 0.425777 0
    outer loop
      vertex -6.69439 -2.6505 35.5
      vertex -6.30941 -3.46863 38.5
      vertex -6.30941 -3.46863 35.5
    endloop
  endfacet
  facet normal 0.982287 0.187384 0
    outer loop
      vertex -6.9738 -1.79057 38.5
      vertex -7.14323 -0.902399 35.5
      vertex -7.14323 -0.902399 38.5
    endloop
  endfacet
  facet normal 0.982287 0.187384 0
    outer loop
      vertex -7.14323 -0.902399 35.5
      vertex -6.9738 -1.79057 38.5
      vertex -6.9738 -1.79057 35.5
    endloop
  endfacet
  facet normal -0.587781 0.80902 0
    outer loop
      vertex 4.58945 -5.5477 35.5
      vertex 3.85795 -6.07916 38.5
      vertex 4.58945 -5.5477 38.5
    endloop
  endfacet
  facet normal -0.587781 0.80902 0
    outer loop
      vertex 3.85795 -6.07916 38.5
      vertex 4.58945 -5.5477 35.5
      vertex 3.85795 -6.07916 35.5
    endloop
  endfacet
  facet normal -0.770514 0.637423 0
    outer loop
      vertex 5.24857 -4.92874 35.5
      vertex 5.82492 -4.23205 38.5
      vertex 5.82492 -4.23205 35.5
    endloop
  endfacet
  facet normal -0.770514 0.637423 0
    outer loop
      vertex 5.82492 -4.23205 38.5
      vertex 5.24857 -4.92874 35.5
      vertex 5.24857 -4.92874 38.5
    endloop
  endfacet
  facet normal 0.481751 0.876308 -0
    outer loop
      vertex -3.06561 -6.51475 35.5
      vertex -3.85795 -6.07916 38.5
      vertex -3.06561 -6.51475 38.5
    endloop
  endfacet
  facet normal 0.481751 0.876308 0
    outer loop
      vertex -3.85795 -6.07916 38.5
      vertex -3.06561 -6.51475 35.5
      vertex -3.85795 -6.07916 35.5
    endloop
  endfacet
endsolid OpenSCAD_Model
