999
"DXF R12 Output" (www.mydxf.blogspot.com)
 0 
SECTION
 2 
HEADER
 9 
$ACADVER
 1 
AC1009
 9 
$EXTMIN
 10 
 0 
 20 
 0 
 9 
$EXTMAX
 10 
 8.5 
 20 
 11 
 0 
ENDSEC
 0 
SECTION
 2 
ENTITIES
0
LINE
8
Layer 1
10
533.332000
20
267.987000
11
522.597120
21
267.610942
0
LINE
8
Layer 1
10
522.597120
20
267.610942
11
512.057284
21
267.014760
0
LINE
8
Layer 1
10
512.057284
20
267.014760
11
501.711546
21
266.200082
0
LINE
8
Layer 1
10
501.711546
20
266.200082
11
491.558955
21
265.168536
0
LINE
8
Layer 1
10
491.558955
20
265.168536
11
481.598564
21
263.921751
0
LINE
8
Layer 1
10
481.598564
20
263.921751
11
471.829426
21
262.461354
0
LINE
8
Layer 1
10
471.829426
20
262.461354
11
462.250590
21
260.788975
0
LINE
8
Layer 1
10
462.250590
20
260.788975
11
452.861109
21
258.906240
0
LINE
8
Layer 1
10
452.861109
20
258.906240
11
443.660036
21
256.814779
0
LINE
8
Layer 1
10
443.660036
20
256.814779
11
434.646420
21
254.516220
0
LINE
8
Layer 1
10
434.646420
20
254.516220
11
425.819315
21
252.012191
0
LINE
8
Layer 1
10
425.819315
20
252.012191
11
417.177771
21
249.304321
0
LINE
8
Layer 1
10
417.177771
20
249.304321
11
408.720842
21
246.394236
0
LINE
8
Layer 1
10
408.720842
20
246.394236
11
400.447577
21
243.283567
0
LINE
8
Layer 1
10
400.447577
20
243.283567
11
392.357029
21
239.973940
0
LINE
8
Layer 1
10
392.357029
20
239.973940
11
384.448250
21
236.466984
0
LINE
8
Layer 1
10
384.448250
20
236.466984
11
376.720291
21
232.764328
0
LINE
8
Layer 1
10
376.720291
20
232.764328
11
369.172204
21
228.867600
0
LINE
8
Layer 1
10
369.172204
20
228.867600
11
361.803041
21
224.778427
0
LINE
8
Layer 1
10
361.803041
20
224.778427
11
354.611854
21
220.498439
0
LINE
8
Layer 1
10
354.611854
20
220.498439
11
347.597693
21
216.029263
0
LINE
8
Layer 1
10
347.597693
20
216.029263
11
340.759611
21
211.372528
0
LINE
8
Layer 1
10
340.759611
20
211.372528
11
334.096660
21
206.529862
0
LINE
8
Layer 1
10
334.096660
20
206.529862
11
327.607891
21
201.502893
0
LINE
8
Layer 1
10
327.607891
20
201.502893
11
321.292355
21
196.293249
0
LINE
8
Layer 1
10
321.292355
20
196.293249
11
315.149106
21
190.902559
0
LINE
8
Layer 1
10
315.149106
20
190.902559
11
309.177193
21
185.332450
0
LINE
8
Layer 1
10
309.177193
20
185.332450
11
303.375670
21
179.584552
0
LINE
8
Layer 1
10
303.375670
20
179.584552
11
297.743587
21
173.660492
0
LINE
8
Layer 1
10
297.743587
20
173.660492
11
292.279997
21
167.561899
0
LINE
8
Layer 1
10
292.279997
20
167.561899
11
286.983951
21
161.290400
0
LINE
8
Layer 1
10
286.983951
20
161.290400
11
281.854500
21
154.847625
0
LINE
8
Layer 1
10
281.854500
20
154.847625
11
276.890697
21
148.235201
0
LINE
8
Layer 1
10
276.890697
20
148.235201
11
272.091593
21
141.454756
0
LINE
8
Layer 1
10
272.091593
20
141.454756
11
267.456240
21
134.507920
0
LINE
8
Layer 1
10
267.456240
20
134.507920
11
262.983689
21
127.396319
0
LINE
8
Layer 1
10
262.983689
20
127.396319
11
258.672993
21
120.121583
0
LINE
8
Layer 1
10
258.672993
20
120.121583
11
254.523203
21
112.685339
0
LINE
8
Layer 1
10
254.523203
20
112.685339
11
250.533370
21
105.089216
0
LINE
8
Layer 1
10
250.533370
20
105.089216
11
246.702547
21
97.334842
0
LINE
8
Layer 1
10
246.702547
20
97.334842
11
243.029785
21
89.423845
0
LINE
8
Layer 1
10
243.029785
20
89.423845
11
239.514135
21
81.357854
0
LINE
8
Layer 1
10
239.514135
20
81.357854
11
236.154650
21
73.138496
0
LINE
8
Layer 1
10
236.154650
20
73.138496
11
232.950381
21
64.767401
0
LINE
8
Layer 1
10
232.950381
20
64.767401
11
229.900380
21
56.246195
0
LINE
8
Layer 1
10
229.900380
20
56.246195
11
227.003698
21
47.576508
0
LINE
8
Layer 1
10
227.003698
20
47.576508
11
224.259388
21
38.759968
0
LINE
8
Layer 1
10
224.259388
20
38.759968
11
221.666500
21
29.798203
0
LINE
8
Layer 1
10
221.666500
20
29.798203
11
219.224087
21
20.692841
0
LINE
8
Layer 1
10
219.224087
20
20.692841
11
216.931200
21
11.445511
0
LINE
8
Layer 1
10
216.931200
20
11.445511
11
214.786892
21
2.057840
0
LINE
8
Layer 1
10
214.786892
20
2.057840
11
212.790213
21
-7.468543
0
LINE
8
Layer 1
10
212.790213
20
-7.468543
11
210.940215
21
-17.132010
0
LINE
8
Layer 1
10
210.940215
20
-17.132010
11
209.235951
21
-26.930932
0
LINE
8
Layer 1
10
209.235951
20
-26.930932
11
207.676471
21
-36.863682
0
LINE
8
Layer 1
10
207.676471
20
-36.863682
11
206.260828
21
-46.928631
0
LINE
8
Layer 1
10
206.260828
20
-46.928631
11
204.988073
21
-57.124151
0
LINE
8
Layer 1
10
204.988073
20
-57.124151
11
203.857258
21
-67.448613
0
LINE
8
Layer 1
10
203.857258
20
-67.448613
11
202.867435
21
-77.900389
0
LINE
8
Layer 1
10
202.867435
20
-77.900389
11
202.017654
21
-88.477852
0
LINE
8
Layer 1
10
202.017654
20
-88.477852
11
200.734430
21
-110.003323
0
LINE
8
Layer 1
10
200.734430
20
-110.003323
11
200.000000
21
-132.012000
0
LINE
8
Layer 1
10
200.000000
20
-132.012000
11
333.332000
21
-132.012000
0
LINE
8
Layer 1
10
333.332000
20
-132.012000
11
333.130233
21
-109.772409
0
LINE
8
Layer 1
10
333.130233
20
-109.772409
11
333.325171
21
-88.132976
0
LINE
8
Layer 1
10
333.325171
20
-88.132976
11
333.918769
21
-67.101898
0
LINE
8
Layer 1
10
333.918769
20
-67.101898
11
334.912980
21
-46.687371
0
LINE
8
Layer 1
10
334.912980
20
-46.687371
11
336.309758
21
-26.897593
0
LINE
8
Layer 1
10
336.309758
20
-26.897593
11
338.111057
21
-7.740760
0
LINE
8
Layer 1
10
338.111057
20
-7.740760
11
340.318830
21
10.774930
0
LINE
8
Layer 1
10
340.318830
20
10.774930
11
342.935031
21
28.641281
0
LINE
8
Layer 1
10
342.935031
20
28.641281
11
345.961614
21
45.850096
0
LINE
8
Layer 1
10
345.961614
20
45.850096
11
349.400533
21
62.393178
0
LINE
8
Layer 1
10
349.400533
20
62.393178
11
353.253741
21
78.262330
0
LINE
8
Layer 1
10
353.253741
20
78.262330
11
357.523191
21
93.449355
0
LINE
8
Layer 1
10
357.523191
20
93.449355
11
359.814619
21
100.784509
0
LINE
8
Layer 1
10
359.814619
20
100.784509
11
362.210839
21
107.946057
0
LINE
8
Layer 1
10
362.210839
20
107.946057
11
364.712097
21
114.932975
0
LINE
8
Layer 1
10
364.712097
20
114.932975
11
367.318637
21
121.744238
0
LINE
8
Layer 1
10
367.318637
20
121.744238
11
370.030703
21
128.378821
0
LINE
8
Layer 1
10
370.030703
20
128.378821
11
372.848540
21
134.835701
0
LINE
8
Layer 1
10
372.848540
20
134.835701
11
375.772390
21
141.113852
0
LINE
8
Layer 1
10
375.772390
20
141.113852
11
378.802500
21
147.212250
0
LINE
8
Layer 1
10
378.802500
20
147.212250
11
381.939112
21
153.129870
0
LINE
8
Layer 1
10
381.939112
20
153.129870
11
385.182472
21
158.865688
0
LINE
8
Layer 1
10
385.182472
20
158.865688
11
388.532823
21
164.418678
0
LINE
8
Layer 1
10
388.532823
20
164.418678
11
391.990410
21
169.787817
0
LINE
8
Layer 1
10
391.990410
20
169.787817
11
395.555476
21
174.972079
0
LINE
8
Layer 1
10
395.555476
20
174.972079
11
399.228266
21
179.970441
0
LINE
8
Layer 1
10
399.228266
20
179.970441
11
403.009025
21
184.781877
0
LINE
8
Layer 1
10
403.009025
20
184.781877
11
406.897996
21
189.405363
0
LINE
8
Layer 1
10
406.897996
20
189.405363
11
410.895424
21
193.839875
0
LINE
8
Layer 1
10
410.895424
20
193.839875
11
415.001552
21
198.084387
0
LINE
8
Layer 1
10
415.001552
20
198.084387
11
419.216626
21
202.137875
0
LINE
8
Layer 1
10
419.216626
20
202.137875
11
423.540889
21
205.999314
0
LINE
8
Layer 1
10
423.540889
20
205.999314
11
427.974586
21
209.667680
0
LINE
8
Layer 1
10
427.974586
20
209.667680
11
432.517960
21
213.141949
0
LINE
8
Layer 1
10
432.517960
20
213.141949
11
437.171256
21
216.421095
0
LINE
8
Layer 1
10
437.171256
20
216.421095
11
441.934719
21
219.504094
0
LINE
8
Layer 1
10
441.934719
20
219.504094
11
446.808592
21
222.389921
0
LINE
8
Layer 1
10
446.808592
20
222.389921
11
451.793119
21
225.077552
0
LINE
8
Layer 1
10
451.793119
20
225.077552
11
456.888545
21
227.565963
0
LINE
8
Layer 1
10
456.888545
20
227.565963
11
462.095115
21
229.854127
0
LINE
8
Layer 1
10
462.095115
20
229.854127
11
467.413071
21
231.941022
0
LINE
8
Layer 1
10
467.413071
20
231.941022
11
472.842659
21
233.825622
0
LINE
8
Layer 1
10
472.842659
20
233.825622
11
478.384123
21
235.506903
0
LINE
8
Layer 1
10
478.384123
20
235.506903
11
484.037707
21
236.983840
0
LINE
8
Layer 1
10
484.037707
20
236.983840
11
489.803655
21
238.255408
0
LINE
8
Layer 1
10
489.803655
20
238.255408
11
495.682211
21
239.320583
0
LINE
8
Layer 1
10
495.682211
20
239.320583
11
501.673620
21
240.178341
0
LINE
8
Layer 1
10
501.673620
20
240.178341
11
507.778125
21
240.827656
0
LINE
8
Layer 1
10
507.778125
20
240.827656
11
513.995972
21
241.267504
0
LINE
8
Layer 1
10
513.995972
20
241.267504
11
520.327404
21
241.496860
0
LINE
8
Layer 1
10
520.327404
20
241.496860
11
526.772665
21
241.514701
0
LINE
8
Layer 1
10
526.772665
20
241.514701
11
533.332000
21
241.320000
0
LINE
8
Layer 1
10
533.332000
20
241.320000
11
533.332000
21
267.987000
0
LINE
8
Layer 1
10
533.332000
20
267.987000
11
533.332000
21
267.987000
 0 
ENDSEC
 0 
EOF