solid OpenSCAD_Model
  facet normal 1 -0 0
    outer loop
      vertex -11.5 -30 2.25
      vertex -11.5 -21.1135 0
      vertex -11.5 -21.1135 2.25
    endloop
  endfacet
  facet normal 1 0 0
    outer loop
      vertex -11.5 -21.1135 0
      vertex -11.5 -30 2.25
      vertex -11.5 -30 0
    endloop
  endfacet
  facet normal 1 -0 0
    outer loop
      vertex -11.5 -18.8865 2.25
      vertex -11.5 0 0
      vertex -11.5 0 2.25
    endloop
  endfacet
  facet normal 1 0 0
    outer loop
      vertex -11.5 0 0
      vertex -11.5 -18.8865 2.25
      vertex -11.5 -18.8865 0
    endloop
  endfacet
  facet normal 0 0 -1
    outer loop
      vertex 11.5 -30 2.25
      vertex 11.4635 -21.4266 2.25
      vertex 11.5 -21.3764 2.25
    endloop
  endfacet
  facet normal 0 0 -1
    outer loop
      vertex 11.5 -30 2.25
      vertex 9.78647 -20.8817 2.25
      vertex 11.4635 -21.4266 2.25
    endloop
  endfacet
  facet normal 0 0 -1
    outer loop
      vertex -9.5 -20 2.25
      vertex 9.78647 -19.1183 2.25
      vertex 9.78647 -20.8817 2.25
    endloop
  endfacet
  facet normal 0 0 -1
    outer loop
      vertex -11.5 -30 2.25
      vertex 9.78647 -20.8817 2.25
      vertex 11.5 -30 2.25
    endloop
  endfacet
  facet normal -0 0 -1
    outer loop
      vertex 9.78647 -19.1183 2.25
      vertex -9.5 -20 2.25
      vertex 5.5 -5.7 2.25
    endloop
  endfacet
  facet normal 0 0 -1
    outer loop
      vertex -10.5365 -18.5734 2.25
      vertex -5.5 -5.7 2.25
      vertex -9.5 -20 2.25
    endloop
  endfacet
  facet normal -0 0 -1
    outer loop
      vertex 5.5 -5.7 2.25
      vertex -9.5 -20 2.25
      vertex -5.5 -5.7 2.25
    endloop
  endfacet
  facet normal -0 0 -1
    outer loop
      vertex 9.78647 -20.8817 2.25
      vertex -11.5 -30 2.25
      vertex -9.5 -20 2.25
    endloop
  endfacet
  facet normal 0 0 -1
    outer loop
      vertex -9.5 -20 2.25
      vertex -11.5 -30 2.25
      vertex -10.5365 -21.4266 2.25
    endloop
  endfacet
  facet normal -0 0 -1
    outer loop
      vertex -10.5365 -21.4266 2.25
      vertex -11.5 -30 2.25
      vertex -11.5 -21.1135 2.25
    endloop
  endfacet
  facet normal 0 0 -1
    outer loop
      vertex 11.4635 -18.5734 2.25
      vertex 11.5 0 2.25
      vertex 11.5 -18.6236 2.25
    endloop
  endfacet
  facet normal 0 0 -1
    outer loop
      vertex 5.5 -5.7 2.25
      vertex 11.4635 -18.5734 2.25
      vertex 9.78647 -19.1183 2.25
    endloop
  endfacet
  facet normal 0 0 -1
    outer loop
      vertex 11.4635 -18.5734 2.25
      vertex 5.5 -5.7 2.25
      vertex 11.5 0 2.25
    endloop
  endfacet
  facet normal -0 0 -1
    outer loop
      vertex 11.5 0 2.25
      vertex 5.5 -5.7 2.25
      vertex 5.5 0 2.25
    endloop
  endfacet
  facet normal 0 0 -1
    outer loop
      vertex -11.5 -18.8865 2.25
      vertex -5.5 -5.7 2.25
      vertex -10.5365 -18.5734 2.25
    endloop
  endfacet
  facet normal -0 0 -1
    outer loop
      vertex -5.5 -5.7 2.25
      vertex -11.5 -18.8865 2.25
      vertex -11.5 0 2.25
    endloop
  endfacet
  facet normal 0 0 -1
    outer loop
      vertex -5.5 -5.7 2.25
      vertex -11.5 0 2.25
      vertex -5.5 0 2.25
    endloop
  endfacet
  facet normal -1 0 0
    outer loop
      vertex 11.5 -30 0
      vertex 11.5 -21.3764 2.25
      vertex 11.5 -21.3764 0
    endloop
  endfacet
  facet normal -1 -0 0
    outer loop
      vertex 11.5 -21.3764 2.25
      vertex 11.5 -30 0
      vertex 11.5 -30 2.25
    endloop
  endfacet
  facet normal -1 0 0
    outer loop
      vertex 11.5 -18.6236 0
      vertex 11.5 0 2.25
      vertex 11.5 0 0
    endloop
  endfacet
  facet normal -1 -0 0
    outer loop
      vertex 11.5 0 2.25
      vertex 11.5 -18.6236 0
      vertex 11.5 -18.6236 2.25
    endloop
  endfacet
  facet normal 0.809013 0.587791 0
    outer loop
      vertex -9.5 -20 2.25
      vertex -10.5365 -18.5734 0
      vertex -10.5365 -18.5734 2.25
    endloop
  endfacet
  facet normal 0.809013 0.587791 0
    outer loop
      vertex -10.5365 -18.5734 0
      vertex -9.5 -20 2.25
      vertex -9.5 -20 0
    endloop
  endfacet
  facet normal -0.309053 0.951045 0
    outer loop
      vertex -10.5365 -18.5734 0
      vertex -11.5 -18.8865 2.25
      vertex -10.5365 -18.5734 2.25
    endloop
  endfacet
  facet normal -0.309053 0.951045 0
    outer loop
      vertex -11.5 -18.8865 2.25
      vertex -10.5365 -18.5734 0
      vertex -11.5 -18.8865 0
    endloop
  endfacet
  facet normal -0.309053 -0.951045 0
    outer loop
      vertex -11.5 -21.1135 0
      vertex -10.5365 -21.4266 2.25
      vertex -11.5 -21.1135 2.25
    endloop
  endfacet
  facet normal -0.309053 -0.951045 -0
    outer loop
      vertex -10.5365 -21.4266 2.25
      vertex -11.5 -21.1135 0
      vertex -10.5365 -21.4266 0
    endloop
  endfacet
  facet normal 0.809013 -0.587791 0
    outer loop
      vertex -10.5365 -21.4266 2.25
      vertex -9.5 -20 0
      vertex -9.5 -20 2.25
    endloop
  endfacet
  facet normal 0.809013 -0.587791 0
    outer loop
      vertex -9.5 -20 0
      vertex -10.5365 -21.4266 2.25
      vertex -10.5365 -21.4266 0
    endloop
  endfacet
  facet normal 0.808806 0.588076 0
    outer loop
      vertex 11.5 -18.6236 2.25
      vertex 11.4635 -18.5734 0
      vertex 11.4635 -18.5734 2.25
    endloop
  endfacet
  facet normal 0.808806 0.588076 0
    outer loop
      vertex 11.4635 -18.5734 0
      vertex 11.5 -18.6236 2.25
      vertex 11.5 -18.6236 0
    endloop
  endfacet
  facet normal -1 0 0
    outer loop
      vertex 9.78647 -20.8817 0
      vertex 9.78647 -19.1183 2.25
      vertex 9.78647 -19.1183 0
    endloop
  endfacet
  facet normal -1 -0 0
    outer loop
      vertex 9.78647 -19.1183 2.25
      vertex 9.78647 -20.8817 0
      vertex 9.78647 -20.8817 2.25
    endloop
  endfacet
  facet normal -0.309017 0.951057 0
    outer loop
      vertex 11.4635 -18.5734 0
      vertex 9.78647 -19.1183 2.25
      vertex 11.4635 -18.5734 2.25
    endloop
  endfacet
  facet normal -0.309017 0.951057 0
    outer loop
      vertex 9.78647 -19.1183 2.25
      vertex 11.4635 -18.5734 0
      vertex 9.78647 -19.1183 0
    endloop
  endfacet
  facet normal 0.808806 -0.588076 0
    outer loop
      vertex 11.4635 -21.4266 2.25
      vertex 11.5 -21.3764 0
      vertex 11.5 -21.3764 2.25
    endloop
  endfacet
  facet normal 0.808806 -0.588076 0
    outer loop
      vertex 11.5 -21.3764 0
      vertex 11.4635 -21.4266 2.25
      vertex 11.4635 -21.4266 0
    endloop
  endfacet
  facet normal -0.309017 -0.951057 0
    outer loop
      vertex 9.78647 -20.8817 0
      vertex 11.4635 -21.4266 2.25
      vertex 9.78647 -20.8817 2.25
    endloop
  endfacet
  facet normal -0.309017 -0.951057 -0
    outer loop
      vertex 11.4635 -21.4266 2.25
      vertex 9.78647 -20.8817 0
      vertex 11.4635 -21.4266 0
    endloop
  endfacet
  facet normal 1 -0 0
    outer loop
      vertex -5.5 -5.7 7.2
      vertex -5.5 0 2.25
      vertex -5.5 0 7.2
    endloop
  endfacet
  facet normal 1 0 0
    outer loop
      vertex -5.5 0 2.25
      vertex -5.5 -5.7 7.2
      vertex -5.5 -5.7 2.25
    endloop
  endfacet
  facet normal 0 0 -1
    outer loop
      vertex -5.5 -5.7 7.2
      vertex 5.5 0 7.2
      vertex 5.5 -5.7 7.2
    endloop
  endfacet
  facet normal -0 0 -1
    outer loop
      vertex 5.5 0 7.2
      vertex -5.5 -5.7 7.2
      vertex -5.5 0 7.2
    endloop
  endfacet
  facet normal -1 0 0
    outer loop
      vertex 5.5 -5.7 2.25
      vertex 5.5 0 7.2
      vertex 5.5 0 2.25
    endloop
  endfacet
  facet normal -1 -0 0
    outer loop
      vertex 5.5 0 7.2
      vertex 5.5 -5.7 2.25
      vertex 5.5 -5.7 7.2
    endloop
  endfacet
  facet normal 0 1 -0
    outer loop
      vertex 5.5 -5.7 2.25
      vertex -5.5 -5.7 7.2
      vertex 5.5 -5.7 7.2
    endloop
  endfacet
  facet normal 0 1 0
    outer loop
      vertex -5.5 -5.7 7.2
      vertex 5.5 -5.7 2.25
      vertex -5.5 -5.7 2.25
    endloop
  endfacet
  facet normal 0.994521 0.104533 0
    outer loop
      vertex 15 0 8
      vertex 14.6722 3.11868 0
      vertex 14.6722 3.11868 8
    endloop
  endfacet
  facet normal 0.994521 0.104533 0
    outer loop
      vertex 14.6722 3.11868 0
      vertex 15 0 8
      vertex 15 0 0
    endloop
  endfacet
  facet normal -0.994521 0.104533 0
    outer loop
      vertex -15 0 0
      vertex -14.6722 3.11868 8
      vertex -14.6722 3.11868 0
    endloop
  endfacet
  facet normal -0.994521 0.104533 0
    outer loop
      vertex -14.6722 3.11868 8
      vertex -15 0 0
      vertex -15 0 8
    endloop
  endfacet
  facet normal 0 1 -0
    outer loop
      vertex 1.56793 14.9178 0
      vertex -1.56793 14.9178 8
      vertex 1.56793 14.9178 8
    endloop
  endfacet
  facet normal 0 1 0
    outer loop
      vertex -1.56793 14.9178 8
      vertex 1.56793 14.9178 0
      vertex -1.56793 14.9178 0
    endloop
  endfacet
  facet normal 0.743148 0.669127 0
    outer loop
      vertex 12.1353 8.81678 8
      vertex 10.037 11.1472 0
      vertex 10.037 11.1472 8
    endloop
  endfacet
  facet normal 0.743148 0.669127 0
    outer loop
      vertex 10.037 11.1472 0
      vertex 12.1353 8.81678 8
      vertex 12.1353 8.81678 0
    endloop
  endfacet
  facet normal -0.587777 0.809023 0
    outer loop
      vertex -7.5 12.9904 0
      vertex -10.037 11.1472 8
      vertex -7.5 12.9904 8
    endloop
  endfacet
  facet normal -0.587777 0.809023 0
    outer loop
      vertex -10.037 11.1472 8
      vertex -7.5 12.9904 0
      vertex -10.037 11.1472 0
    endloop
  endfacet
  facet normal -0.207918 0.978146 0
    outer loop
      vertex -1.56793 14.9178 0
      vertex -4.63525 14.2658 8
      vertex -1.56793 14.9178 8
    endloop
  endfacet
  facet normal -0.207918 0.978146 0
    outer loop
      vertex -4.63525 14.2658 8
      vertex -1.56793 14.9178 0
      vertex -4.63525 14.2658 0
    endloop
  endfacet
  facet normal 0.866029 0.499993 0
    outer loop
      vertex 13.7032 6.10105 8
      vertex 12.1353 8.81678 0
      vertex 12.1353 8.81678 8
    endloop
  endfacet
  facet normal 0.866029 0.499993 0
    outer loop
      vertex 12.1353 8.81678 0
      vertex 13.7032 6.10105 8
      vertex 13.7032 6.10105 0
    endloop
  endfacet
  facet normal 0.951059 0.309008 0
    outer loop
      vertex 14.6722 3.11868 8
      vertex 13.7032 6.10105 0
      vertex 13.7032 6.10105 8
    endloop
  endfacet
  facet normal 0.951059 0.309008 0
    outer loop
      vertex 13.7032 6.10105 0
      vertex 14.6722 3.11868 8
      vertex 14.6722 3.11868 0
    endloop
  endfacet
  facet normal 0.406718 0.913554 -0
    outer loop
      vertex 7.5 12.9904 0
      vertex 4.63525 14.2658 8
      vertex 7.5 12.9904 8
    endloop
  endfacet
  facet normal 0.406718 0.913554 0
    outer loop
      vertex 4.63525 14.2658 8
      vertex 7.5 12.9904 0
      vertex 4.63525 14.2658 0
    endloop
  endfacet
  facet normal 0.207918 0.978146 -0
    outer loop
      vertex 4.63525 14.2658 0
      vertex 1.56793 14.9178 8
      vertex 4.63525 14.2658 8
    endloop
  endfacet
  facet normal 0.207918 0.978146 0
    outer loop
      vertex 1.56793 14.9178 8
      vertex 4.63525 14.2658 0
      vertex 1.56793 14.9178 0
    endloop
  endfacet
  facet normal 0.587777 0.809023 -0
    outer loop
      vertex 10.037 11.1472 0
      vertex 7.5 12.9904 8
      vertex 10.037 11.1472 8
    endloop
  endfacet
  facet normal 0.587777 0.809023 0
    outer loop
      vertex 7.5 12.9904 8
      vertex 10.037 11.1472 0
      vertex 7.5 12.9904 0
    endloop
  endfacet
  facet normal -0.866029 0.499993 0
    outer loop
      vertex -13.7032 6.10105 0
      vertex -12.1353 8.81678 8
      vertex -12.1353 8.81678 0
    endloop
  endfacet
  facet normal -0.866029 0.499993 0
    outer loop
      vertex -12.1353 8.81678 8
      vertex -13.7032 6.10105 0
      vertex -13.7032 6.10105 8
    endloop
  endfacet
  facet normal -0.743148 0.669127 0
    outer loop
      vertex -12.1353 8.81678 0
      vertex -10.037 11.1472 8
      vertex -10.037 11.1472 0
    endloop
  endfacet
  facet normal -0.743148 0.669127 0
    outer loop
      vertex -10.037 11.1472 8
      vertex -12.1353 8.81678 0
      vertex -12.1353 8.81678 8
    endloop
  endfacet
  facet normal -0.951059 0.309008 0
    outer loop
      vertex -14.6722 3.11868 0
      vertex -13.7032 6.10105 8
      vertex -13.7032 6.10105 0
    endloop
  endfacet
  facet normal -0.951059 0.309008 0
    outer loop
      vertex -13.7032 6.10105 8
      vertex -14.6722 3.11868 0
      vertex -14.6722 3.11868 8
    endloop
  endfacet
  facet normal 0 0 1
    outer loop
      vertex 1.56793 14.9178 8
      vertex 4 6.5 8
      vertex 4.63525 14.2658 8
    endloop
  endfacet
  facet normal -0 0 1
    outer loop
      vertex -1.56793 14.9178 8
      vertex 4 6.5 8
      vertex 1.56793 14.9178 8
    endloop
  endfacet
  facet normal 0 0 1
    outer loop
      vertex -1.56793 14.9178 8
      vertex -4 6.5 8
      vertex 4 6.5 8
    endloop
  endfacet
  facet normal -0 0 1
    outer loop
      vertex -7.5 12.9904 8
      vertex -4 6.5 8
      vertex -4.63525 14.2658 8
    endloop
  endfacet
  facet normal -0 0 1
    outer loop
      vertex -4.63525 14.2658 8
      vertex -4 6.5 8
      vertex -1.56793 14.9178 8
    endloop
  endfacet
  facet normal 0 0 1
    outer loop
      vertex 4 3.5 8
      vertex 15 0 8
      vertex 14.6722 3.11868 8
    endloop
  endfacet
  facet normal -0 0 1
    outer loop
      vertex 4 3.5 8
      vertex 14.6722 3.11868 8
      vertex 13.7032 6.10105 8
    endloop
  endfacet
  facet normal -0 0 1
    outer loop
      vertex 4 6.5 8
      vertex 13.7032 6.10105 8
      vertex 12.1353 8.81678 8
    endloop
  endfacet
  facet normal 0 0 1
    outer loop
      vertex 4 6.5 8
      vertex 12.1353 8.81678 8
      vertex 10.037 11.1472 8
    endloop
  endfacet
  facet normal 0 0 1
    outer loop
      vertex 4 6.5 8
      vertex 10.037 11.1472 8
      vertex 7.5 12.9904 8
    endloop
  endfacet
  facet normal 0 0 1
    outer loop
      vertex 4 6.5 8
      vertex 7.5 12.9904 8
      vertex 4.63525 14.2658 8
    endloop
  endfacet
  facet normal 0 0 1
    outer loop
      vertex 13.7032 6.10105 8
      vertex 4 6.5 8
      vertex 4 3.5 8
    endloop
  endfacet
  facet normal 0 0 1
    outer loop
      vertex 15 0 8
      vertex 4 3.5 8
      vertex 15 -30 8
    endloop
  endfacet
  facet normal -0 0 1
    outer loop
      vertex -4 3.5 8
      vertex 15 -30 8
      vertex 4 3.5 8
    endloop
  endfacet
  facet normal -0 0 1
    outer loop
      vertex -10.037 11.1472 8
      vertex -4 6.5 8
      vertex -7.5 12.9904 8
    endloop
  endfacet
  facet normal -0 0 1
    outer loop
      vertex -12.1353 8.81678 8
      vertex -4 6.5 8
      vertex -10.037 11.1472 8
    endloop
  endfacet
  facet normal 0 0 1
    outer loop
      vertex -13.7032 6.10105 8
      vertex -4 6.5 8
      vertex -12.1353 8.81678 8
    endloop
  endfacet
  facet normal 0 0 1
    outer loop
      vertex -4 6.5 8
      vertex -13.7032 6.10105 8
      vertex -4 3.5 8
    endloop
  endfacet
  facet normal 0 0 1
    outer loop
      vertex -14.6722 3.11868 8
      vertex -4 3.5 8
      vertex -13.7032 6.10105 8
    endloop
  endfacet
  facet normal 0 0 1
    outer loop
      vertex -4 3.5 8
      vertex -14.6722 3.11868 8
      vertex -15 0 8
    endloop
  endfacet
  facet normal 0 0 1
    outer loop
      vertex -15 -30 8
      vertex -4 3.5 8
      vertex -15 0 8
    endloop
  endfacet
  facet normal 0 0 1
    outer loop
      vertex -4 3.5 8
      vertex -15 -30 8
      vertex 15 -30 8
    endloop
  endfacet
  facet normal -0.406718 0.913554 0
    outer loop
      vertex -4.63525 14.2658 0
      vertex -7.5 12.9904 8
      vertex -4.63525 14.2658 8
    endloop
  endfacet
  facet normal -0.406718 0.913554 0
    outer loop
      vertex -7.5 12.9904 8
      vertex -4.63525 14.2658 0
      vertex -7.5 12.9904 0
    endloop
  endfacet
  facet normal 0 0 -1
    outer loop
      vertex -15 -30 0
      vertex -11.5 -21.1135 0
      vertex -11.5 -30 0
    endloop
  endfacet
  facet normal 0 0 -1
    outer loop
      vertex -11.5 -21.1135 0
      vertex -11.7682 -20.7133 0
      vertex -11.625 -20.6495 0
    endloop
  endfacet
  facet normal 0 0 -1
    outer loop
      vertex -11.5 -21.1135 0
      vertex -11.9216 -20.7459 0
      vertex -11.7682 -20.7133 0
    endloop
  endfacet
  facet normal 0 0 -1
    outer loop
      vertex -11.5 -21.1135 0
      vertex -12.0784 -20.7459 0
      vertex -11.9216 -20.7459 0
    endloop
  endfacet
  facet normal 0 0 -1
    outer loop
      vertex -11.5 -21.1135 0
      vertex -12.2318 -20.7133 0
      vertex -12.0784 -20.7459 0
    endloop
  endfacet
  facet normal -0 0 -1
    outer loop
      vertex -11.5 -21.1135 0
      vertex -15 -30 0
      vertex -12.2318 -20.7133 0
    endloop
  endfacet
  facet normal -0 0 -1
    outer loop
      vertex -12.2318 -20.7133 0
      vertex -15 -30 0
      vertex -12.375 -20.6495 0
    endloop
  endfacet
  facet normal -0 0 -1
    outer loop
      vertex -12.375 -20.6495 0
      vertex -15 -30 0
      vertex -12.5018 -20.5574 0
    endloop
  endfacet
  facet normal -0 0 -1
    outer loop
      vertex -12.5018 -20.5574 0
      vertex -15 -30 0
      vertex -12.6068 -20.4408 0
    endloop
  endfacet
  facet normal -0 0 -1
    outer loop
      vertex -12.6068 -20.4408 0
      vertex -15 -30 0
      vertex -12.6852 -20.3051 0
    endloop
  endfacet
  facet normal 0 0 -1
    outer loop
      vertex -11.7378 2.49494 0
      vertex -14.6722 3.11868 0
      vertex -13.7032 6.10105 0
    endloop
  endfacet
  facet normal -0 0 -1
    outer loop
      vertex -12.6852 -20.3051 0
      vertex -15 -30 0
      vertex -12.7336 -20.1559 0
    endloop
  endfacet
  facet normal 0 0 -1
    outer loop
      vertex -15 -30 0
      vertex -12.75 -20 0
      vertex -12.7336 -20.1559 0
    endloop
  endfacet
  facet normal 0 0 -1
    outer loop
      vertex -15 0 0
      vertex -12.75 -20 0
      vertex -15 -30 0
    endloop
  endfacet
  facet normal 0 0 -1
    outer loop
      vertex -12.7336 -19.8441 0
      vertex -15 0 0
      vertex -14.6722 3.11868 0
    endloop
  endfacet
  facet normal 0 0 -1
    outer loop
      vertex -11.2664 -20.1559 0
      vertex -9.5 -20 0
      vertex -10.5365 -21.4266 0
    endloop
  endfacet
  facet normal 0 0 -1
    outer loop
      vertex -11.2664 -19.8441 0
      vertex -9.5 -20 0
      vertex -11.25 -20 0
    endloop
  endfacet
  facet normal -0 0 -1
    outer loop
      vertex -9.5 -20 0
      vertex -11.2664 -20.1559 0
      vertex -11.25 -20 0
    endloop
  endfacet
  facet normal 0 0 -1
    outer loop
      vertex -10.5365 -21.4266 0
      vertex -11.3148 -20.3051 0
      vertex -11.2664 -20.1559 0
    endloop
  endfacet
  facet normal 0 0 -1
    outer loop
      vertex -10.5365 -21.4266 0
      vertex -11.3932 -20.4408 0
      vertex -11.3148 -20.3051 0
    endloop
  endfacet
  facet normal 0 0 -1
    outer loop
      vertex -11.5 -21.1135 0
      vertex -11.3932 -20.4408 0
      vertex -10.5365 -21.4266 0
    endloop
  endfacet
  facet normal 0 0 -1
    outer loop
      vertex -11.3932 -20.4408 0
      vertex -11.5 -21.1135 0
      vertex -11.4982 -20.5574 0
    endloop
  endfacet
  facet normal 0 0 -1
    outer loop
      vertex -11.4982 -20.5574 0
      vertex -11.5 -21.1135 0
      vertex -11.625 -20.6495 0
    endloop
  endfacet
  facet normal 0 0 -1
    outer loop
      vertex -9.5 -20 0
      vertex -11.2664 -19.8441 0
      vertex -10.5365 -18.5734 0
    endloop
  endfacet
  facet normal 0 0 -1
    outer loop
      vertex -11.3148 -19.6949 0
      vertex -10.5365 -18.5734 0
      vertex -11.2664 -19.8441 0
    endloop
  endfacet
  facet normal 0 0 -1
    outer loop
      vertex -11.3932 -19.5592 0
      vertex -10.5365 -18.5734 0
      vertex -11.3148 -19.6949 0
    endloop
  endfacet
  facet normal 0 0 -1
    outer loop
      vertex -11.5 -18.8865 0
      vertex -11.3932 -19.5592 0
      vertex -11.4982 -19.4426 0
    endloop
  endfacet
  facet normal 0 0 -1
    outer loop
      vertex -11.3932 -19.5592 0
      vertex -11.5 -18.8865 0
      vertex -10.5365 -18.5734 0
    endloop
  endfacet
  facet normal 0 0 -1
    outer loop
      vertex -11.625 -19.3505 0
      vertex -11.5 -18.8865 0
      vertex -11.4982 -19.4426 0
    endloop
  endfacet
  facet normal 0 0 -1
    outer loop
      vertex -11.7682 -19.2867 0
      vertex -11.5 -18.8865 0
      vertex -11.625 -19.3505 0
    endloop
  endfacet
  facet normal 0 0 -1
    outer loop
      vertex -11.9216 -19.2541 0
      vertex -11.5 -18.8865 0
      vertex -11.7682 -19.2867 0
    endloop
  endfacet
  facet normal 0 0 -1
    outer loop
      vertex -12.0784 -19.2541 0
      vertex -11.5 -18.8865 0
      vertex -11.9216 -19.2541 0
    endloop
  endfacet
  facet normal 0 0 -1
    outer loop
      vertex -11.5 -18.8865 0
      vertex -12 0 0
      vertex -11.5 0 0
    endloop
  endfacet
  facet normal 0 0 -1
    outer loop
      vertex -12.2318 -19.2867 0
      vertex -11.5 -18.8865 0
      vertex -12.0784 -19.2541 0
    endloop
  endfacet
  facet normal 0 0 -1
    outer loop
      vertex 1.25434 11.9343 0
      vertex 0.73361 13.3441 0
      vertex 0.75 13.5 0
    endloop
  endfacet
  facet normal 0 0 -1
    outer loop
      vertex 1.25434 11.9343 0
      vertex 0.685159 13.1949 0
      vertex 0.73361 13.3441 0
    endloop
  endfacet
  facet normal 0 0 -1
    outer loop
      vertex 1.25434 11.9343 0
      vertex 0.606762 13.0592 0
      vertex 0.685159 13.1949 0
    endloop
  endfacet
  facet normal 0 0 -1
    outer loop
      vertex 1.25434 11.9343 0
      vertex 0.501847 12.9426 0
      vertex 0.606762 13.0592 0
    endloop
  endfacet
  facet normal 0 0 -1
    outer loop
      vertex 1.25434 11.9343 0
      vertex 0.375 12.8505 0
      vertex 0.501847 12.9426 0
    endloop
  endfacet
  facet normal 0 0 -1
    outer loop
      vertex 1.25434 11.9343 0
      vertex 0.231762 12.7867 0
      vertex 0.375 12.8505 0
    endloop
  endfacet
  facet normal 0 0 -1
    outer loop
      vertex 1.25434 11.9343 0
      vertex 0.0783958 12.7541 0
      vertex 0.231762 12.7867 0
    endloop
  endfacet
  facet normal 0 0 -1
    outer loop
      vertex 1.25434 11.9343 0
      vertex -0.0783958 12.7541 0
      vertex 0.0783958 12.7541 0
    endloop
  endfacet
  facet normal 0 0 -1
    outer loop
      vertex -1.25434 11.9343 0
      vertex -0.0783958 12.7541 0
      vertex 1.25434 11.9343 0
    endloop
  endfacet
  facet normal -0 0 -1
    outer loop
      vertex -0.0783958 12.7541 0
      vertex -1.25434 11.9343 0
      vertex -0.231762 12.7867 0
    endloop
  endfacet
  facet normal -0 0 -1
    outer loop
      vertex -0.73361 13.3441 0
      vertex -1.25434 11.9343 0
      vertex -0.75 13.5 0
    endloop
  endfacet
  facet normal -0 0 -1
    outer loop
      vertex -0.685159 13.1949 0
      vertex -1.25434 11.9343 0
      vertex -0.73361 13.3441 0
    endloop
  endfacet
  facet normal -0 0 -1
    outer loop
      vertex -0.606762 13.0592 0
      vertex -1.25434 11.9343 0
      vertex -0.685159 13.1949 0
    endloop
  endfacet
  facet normal -0 0 -1
    outer loop
      vertex -0.501847 12.9426 0
      vertex -1.25434 11.9343 0
      vertex -0.606762 13.0592 0
    endloop
  endfacet
  facet normal -0 0 -1
    outer loop
      vertex -0.375 12.8505 0
      vertex -1.25434 11.9343 0
      vertex -0.501847 12.9426 0
    endloop
  endfacet
  facet normal -0 0 -1
    outer loop
      vertex -0.231762 12.7867 0
      vertex -1.25434 11.9343 0
      vertex -0.375 12.8505 0
    endloop
  endfacet
  facet normal 0 0 -1
    outer loop
      vertex 11.4982 -19.4426 0
      vertex 11.5 -18.6236 0
      vertex 11.625 -19.3505 0
    endloop
  endfacet
  facet normal 0 0 -1
    outer loop
      vertex 11.3932 -19.5592 0
      vertex 11.5 -18.6236 0
      vertex 11.4982 -19.4426 0
    endloop
  endfacet
  facet normal -0 0 -1
    outer loop
      vertex 11.5 -18.6236 0
      vertex 11.3932 -19.5592 0
      vertex 11.4635 -18.5734 0
    endloop
  endfacet
  facet normal 0 0 -1
    outer loop
      vertex 9.78647 -19.1183 0
      vertex 11.3932 -19.5592 0
      vertex 11.3148 -19.6949 0
    endloop
  endfacet
  facet normal 0 0 -1
    outer loop
      vertex 9.78647 -19.1183 0
      vertex 11.3148 -19.6949 0
      vertex 11.2664 -19.8441 0
    endloop
  endfacet
  facet normal 0 0 -1
    outer loop
      vertex 9.78647 -19.1183 0
      vertex 11.25 -20 0
      vertex 9.78647 -20.8817 0
    endloop
  endfacet
  facet normal 0 0 -1
    outer loop
      vertex 11.25 -20 0
      vertex 9.78647 -19.1183 0
      vertex 11.2664 -19.8441 0
    endloop
  endfacet
  facet normal 0 0 -1
    outer loop
      vertex 11.3932 -19.5592 0
      vertex 9.78647 -19.1183 0
      vertex 11.4635 -18.5734 0
    endloop
  endfacet
  facet normal 0 0 -1
    outer loop
      vertex 11.5 -18.6236 0
      vertex 12.0784 -19.2541 0
      vertex 11.9216 -19.2541 0
    endloop
  endfacet
  facet normal 0 0 -1
    outer loop
      vertex 11.5 -18.6236 0
      vertex 11.9216 -19.2541 0
      vertex 11.7682 -19.2867 0
    endloop
  endfacet
  facet normal 0 0 -1
    outer loop
      vertex 11.5 -18.6236 0
      vertex 11.7682 -19.2867 0
      vertex 11.625 -19.3505 0
    endloop
  endfacet
  facet normal 0 0 -1
    outer loop
      vertex 12.0784 -19.2541 0
      vertex 11.5 -18.6236 0
      vertex 12 0 0
    endloop
  endfacet
  facet normal -0 0 -1
    outer loop
      vertex 12 0 0
      vertex 11.5 -18.6236 0
      vertex 11.5 0 0
    endloop
  endfacet
  facet normal 0 0 -1
    outer loop
      vertex 12.7336 -19.8441 0
      vertex 15 0 0
      vertex 15 -30 0
    endloop
  endfacet
  facet normal 0 0 -1
    outer loop
      vertex 12.6852 -19.6949 0
      vertex 15 0 0
      vertex 12.7336 -19.8441 0
    endloop
  endfacet
  facet normal 0 0 -1
    outer loop
      vertex 12.7336 -19.8441 0
      vertex 15 -30 0
      vertex 12.75 -20 0
    endloop
  endfacet
  facet normal 0 0 -1
    outer loop
      vertex 15 -30 0
      vertex 12.7336 -20.1559 0
      vertex 12.75 -20 0
    endloop
  endfacet
  facet normal 0 0 -1
    outer loop
      vertex 15 -30 0
      vertex 12.6852 -20.3051 0
      vertex 12.7336 -20.1559 0
    endloop
  endfacet
  facet normal 0 0 -1
    outer loop
      vertex 15 -30 0
      vertex 12.6068 -20.4408 0
      vertex 12.6852 -20.3051 0
    endloop
  endfacet
  facet normal 0 0 -1
    outer loop
      vertex 15 -30 0
      vertex 12.5018 -20.5574 0
      vertex 12.6068 -20.4408 0
    endloop
  endfacet
  facet normal 0 0 -1
    outer loop
      vertex 15 -30 0
      vertex 12.375 -20.6495 0
      vertex 12.5018 -20.5574 0
    endloop
  endfacet
  facet normal 0 0 -1
    outer loop
      vertex 11.5 -21.3764 0
      vertex 12.375 -20.6495 0
      vertex 15 -30 0
    endloop
  endfacet
  facet normal 0 0 -1
    outer loop
      vertex 12.375 -20.6495 0
      vertex 11.5 -21.3764 0
      vertex 12.2318 -20.7133 0
    endloop
  endfacet
  facet normal 0 0 -1
    outer loop
      vertex 12.2318 -20.7133 0
      vertex 11.5 -21.3764 0
      vertex 12.0784 -20.7459 0
    endloop
  endfacet
  facet normal -0 0 -1
    outer loop
      vertex 12.0784 -20.7459 0
      vertex 11.5 -21.3764 0
      vertex 11.9216 -20.7459 0
    endloop
  endfacet
  facet normal -0 0 -1
    outer loop
      vertex 11.9216 -20.7459 0
      vertex 11.5 -21.3764 0
      vertex 11.7682 -20.7133 0
    endloop
  endfacet
  facet normal 0 0 -1
    outer loop
      vertex 11.5 -21.3764 0
      vertex 15 -30 0
      vertex 11.5 -30 0
    endloop
  endfacet
  facet normal -0 0 -1
    outer loop
      vertex 11.7682 -20.7133 0
      vertex 11.5 -21.3764 0
      vertex 11.625 -20.6495 0
    endloop
  endfacet
  facet normal 0 0 -1
    outer loop
      vertex 11.5 -21.3764 0
      vertex 11.4982 -20.5574 0
      vertex 11.625 -20.6495 0
    endloop
  endfacet
  facet normal 0 0 -1
    outer loop
      vertex 11.3932 -20.4408 0
      vertex 11.5 -21.3764 0
      vertex 11.4635 -21.4266 0
    endloop
  endfacet
  facet normal 0 0 -1
    outer loop
      vertex 11.5 -21.3764 0
      vertex 11.3932 -20.4408 0
      vertex 11.4982 -20.5574 0
    endloop
  endfacet
  facet normal 0 0 -1
    outer loop
      vertex 9.78647 -20.8817 0
      vertex 11.3932 -20.4408 0
      vertex 11.4635 -21.4266 0
    endloop
  endfacet
  facet normal -0 0 -1
    outer loop
      vertex 11.3932 -20.4408 0
      vertex 9.78647 -20.8817 0
      vertex 11.3148 -20.3051 0
    endloop
  endfacet
  facet normal -0 0 -1
    outer loop
      vertex 11.2664 -20.1559 0
      vertex 9.78647 -20.8817 0
      vertex 11.25 -20 0
    endloop
  endfacet
  facet normal -0 0 -1
    outer loop
      vertex 11.3148 -20.3051 0
      vertex 9.78647 -20.8817 0
      vertex 11.2664 -20.1559 0
    endloop
  endfacet
  facet normal 0 0 -1
    outer loop
      vertex 12.6068 -19.5592 0
      vertex 15 0 0
      vertex 12.6852 -19.6949 0
    endloop
  endfacet
  facet normal 0 0 -1
    outer loop
      vertex 12.5018 -19.4426 0
      vertex 15 0 0
      vertex 12.6068 -19.5592 0
    endloop
  endfacet
  facet normal 0 0 -1
    outer loop
      vertex 15 0 0
      vertex 12 0 0
      vertex 14.6722 3.11868 0
    endloop
  endfacet
  facet normal 0 0 -1
    outer loop
      vertex 12.375 -19.3505 0
      vertex 15 0 0
      vertex 12.5018 -19.4426 0
    endloop
  endfacet
  facet normal 0 0 -1
    outer loop
      vertex 12.2318 -19.2867 0
      vertex 15 0 0
      vertex 12.375 -19.3505 0
    endloop
  endfacet
  facet normal 0 0 -1
    outer loop
      vertex 12.0784 -19.2541 0
      vertex 15 0 0
      vertex 12.2318 -19.2867 0
    endloop
  endfacet
  facet normal 0 0 -1
    outer loop
      vertex 11.7378 2.49494 0
      vertex 14.6722 3.11868 0
      vertex 12 0 0
    endloop
  endfacet
  facet normal -0 0 -1
    outer loop
      vertex 15 0 0
      vertex 12.0784 -19.2541 0
      vertex 12 0 0
    endloop
  endfacet
  facet normal -0 0 -1
    outer loop
      vertex 14.6722 3.11868 0
      vertex 11.7378 2.49494 0
      vertex 13.7032 6.10105 0
    endloop
  endfacet
  facet normal 0 0 -1
    outer loop
      vertex 10.9625 4.88084 0
      vertex 13.7032 6.10105 0
      vertex 11.7378 2.49494 0
    endloop
  endfacet
  facet normal -0 0 -1
    outer loop
      vertex 13.7032 6.10105 0
      vertex 10.9625 4.88084 0
      vertex 12.1353 8.81678 0
    endloop
  endfacet
  facet normal 0 0 -1
    outer loop
      vertex 9.7082 7.05342 0
      vertex 12.1353 8.81678 0
      vertex 10.9625 4.88084 0
    endloop
  endfacet
  facet normal -0 0 -1
    outer loop
      vertex 12.1353 8.81678 0
      vertex 9.7082 7.05342 0
      vertex 10.037 11.1472 0
    endloop
  endfacet
  facet normal 0 0 -1
    outer loop
      vertex 8.02957 8.91774 0
      vertex 10.037 11.1472 0
      vertex 9.7082 7.05342 0
    endloop
  endfacet
  facet normal 0 0 -1
    outer loop
      vertex 8.02957 8.91774 0
      vertex 7.5 12.9904 0
      vertex 10.037 11.1472 0
    endloop
  endfacet
  facet normal 0 0 -1
    outer loop
      vertex 6 10.3923 0
      vertex 7.5 12.9904 0
      vertex 8.02957 8.91774 0
    endloop
  endfacet
  facet normal 0 0 -1
    outer loop
      vertex 6 10.3923 0
      vertex 4.63525 14.2658 0
      vertex 7.5 12.9904 0
    endloop
  endfacet
  facet normal 0 0 -1
    outer loop
      vertex 3.7082 11.4127 0
      vertex 4.63525 14.2658 0
      vertex 6 10.3923 0
    endloop
  endfacet
  facet normal 0 0 -1
    outer loop
      vertex 3.7082 11.4127 0
      vertex 1.56793 14.9178 0
      vertex 4.63525 14.2658 0
    endloop
  endfacet
  facet normal 0 0 -1
    outer loop
      vertex 1.25434 11.9343 0
      vertex 1.56793 14.9178 0
      vertex 3.7082 11.4127 0
    endloop
  endfacet
  facet normal 0 0 -1
    outer loop
      vertex 0.75 13.5 0
      vertex 1.56793 14.9178 0
      vertex 1.25434 11.9343 0
    endloop
  endfacet
  facet normal 0 0 -1
    outer loop
      vertex 0.73361 13.6559 0
      vertex 1.56793 14.9178 0
      vertex 0.75 13.5 0
    endloop
  endfacet
  facet normal 0 0 -1
    outer loop
      vertex 0.685159 13.8051 0
      vertex 1.56793 14.9178 0
      vertex 0.73361 13.6559 0
    endloop
  endfacet
  facet normal 0 0 -1
    outer loop
      vertex 0.606762 13.9408 0
      vertex 1.56793 14.9178 0
      vertex 0.685159 13.8051 0
    endloop
  endfacet
  facet normal 0 0 -1
    outer loop
      vertex 0.501847 14.0574 0
      vertex 1.56793 14.9178 0
      vertex 0.606762 13.9408 0
    endloop
  endfacet
  facet normal 0 0 -1
    outer loop
      vertex 0.375 14.1495 0
      vertex 1.56793 14.9178 0
      vertex 0.501847 14.0574 0
    endloop
  endfacet
  facet normal 0 0 -1
    outer loop
      vertex 0.231762 14.2133 0
      vertex 1.56793 14.9178 0
      vertex 0.375 14.1495 0
    endloop
  endfacet
  facet normal 0 0 -1
    outer loop
      vertex 0.0783958 14.2459 0
      vertex 1.56793 14.9178 0
      vertex 0.231762 14.2133 0
    endloop
  endfacet
  facet normal 0 0 -1
    outer loop
      vertex -0.0783958 14.2459 0
      vertex 1.56793 14.9178 0
      vertex 0.0783958 14.2459 0
    endloop
  endfacet
  facet normal 0 0 -1
    outer loop
      vertex -1.56793 14.9178 0
      vertex -0.0783958 14.2459 0
      vertex -0.231762 14.2133 0
    endloop
  endfacet
  facet normal 0 0 -1
    outer loop
      vertex -1.56793 14.9178 0
      vertex -0.75 13.5 0
      vertex -1.25434 11.9343 0
    endloop
  endfacet
  facet normal 0 0 -1
    outer loop
      vertex -0.0783958 14.2459 0
      vertex -1.56793 14.9178 0
      vertex 1.56793 14.9178 0
    endloop
  endfacet
  facet normal 0 0 -1
    outer loop
      vertex -0.375 14.1495 0
      vertex -1.56793 14.9178 0
      vertex -0.231762 14.2133 0
    endloop
  endfacet
  facet normal 0 0 -1
    outer loop
      vertex -0.501847 14.0574 0
      vertex -1.56793 14.9178 0
      vertex -0.375 14.1495 0
    endloop
  endfacet
  facet normal 0 0 -1
    outer loop
      vertex -0.606762 13.9408 0
      vertex -1.56793 14.9178 0
      vertex -0.501847 14.0574 0
    endloop
  endfacet
  facet normal 0 0 -1
    outer loop
      vertex -0.685159 13.8051 0
      vertex -1.56793 14.9178 0
      vertex -0.606762 13.9408 0
    endloop
  endfacet
  facet normal 0 0 -1
    outer loop
      vertex -0.73361 13.6559 0
      vertex -1.56793 14.9178 0
      vertex -0.685159 13.8051 0
    endloop
  endfacet
  facet normal 0 0 -1
    outer loop
      vertex -0.75 13.5 0
      vertex -1.56793 14.9178 0
      vertex -0.73361 13.6559 0
    endloop
  endfacet
  facet normal 0 0 -1
    outer loop
      vertex -3.7082 11.4127 0
      vertex -1.56793 14.9178 0
      vertex -1.25434 11.9343 0
    endloop
  endfacet
  facet normal 0 0 -1
    outer loop
      vertex -3.7082 11.4127 0
      vertex -4.63525 14.2658 0
      vertex -1.56793 14.9178 0
    endloop
  endfacet
  facet normal 0 0 -1
    outer loop
      vertex -6 10.3923 0
      vertex -4.63525 14.2658 0
      vertex -3.7082 11.4127 0
    endloop
  endfacet
  facet normal 0 0 -1
    outer loop
      vertex -6 10.3923 0
      vertex -7.5 12.9904 0
      vertex -4.63525 14.2658 0
    endloop
  endfacet
  facet normal 0 0 -1
    outer loop
      vertex -8.02957 8.91774 0
      vertex -7.5 12.9904 0
      vertex -6 10.3923 0
    endloop
  endfacet
  facet normal 0 0 -1
    outer loop
      vertex -10.037 11.1472 0
      vertex -8.02957 8.91774 0
      vertex -9.7082 7.05342 0
    endloop
  endfacet
  facet normal 0 0 -1
    outer loop
      vertex -8.02957 8.91774 0
      vertex -10.037 11.1472 0
      vertex -7.5 12.9904 0
    endloop
  endfacet
  facet normal 0 0 -1
    outer loop
      vertex -12.1353 8.81678 0
      vertex -9.7082 7.05342 0
      vertex -10.9625 4.88084 0
    endloop
  endfacet
  facet normal 0 0 -1
    outer loop
      vertex -13.7032 6.10105 0
      vertex -10.9625 4.88084 0
      vertex -11.7378 2.49494 0
    endloop
  endfacet
  facet normal 0 0 -1
    outer loop
      vertex -9.7082 7.05342 0
      vertex -12.1353 8.81678 0
      vertex -10.037 11.1472 0
    endloop
  endfacet
  facet normal 0 0 -1
    outer loop
      vertex -14.6722 3.11868 0
      vertex -11.7378 2.49494 0
      vertex -12 0 0
    endloop
  endfacet
  facet normal 0 0 -1
    outer loop
      vertex -12.375 -19.3505 0
      vertex -11.5 -18.8865 0
      vertex -12.2318 -19.2867 0
    endloop
  endfacet
  facet normal -0 0 -1
    outer loop
      vertex -11.5 -18.8865 0
      vertex -12.375 -19.3505 0
      vertex -12 0 0
    endloop
  endfacet
  facet normal 0 0 -1
    outer loop
      vertex -12.5018 -19.4426 0
      vertex -12 0 0
      vertex -12.375 -19.3505 0
    endloop
  endfacet
  facet normal 0 0 -1
    outer loop
      vertex -12.6068 -19.5592 0
      vertex -12 0 0
      vertex -12.5018 -19.4426 0
    endloop
  endfacet
  facet normal 0 0 -1
    outer loop
      vertex -14.6722 3.11868 0
      vertex -12.6068 -19.5592 0
      vertex -12.6852 -19.6949 0
    endloop
  endfacet
  facet normal 0 0 -1
    outer loop
      vertex -14.6722 3.11868 0
      vertex -12.6852 -19.6949 0
      vertex -12.7336 -19.8441 0
    endloop
  endfacet
  facet normal 0 0 -1
    outer loop
      vertex -12.6068 -19.5592 0
      vertex -14.6722 3.11868 0
      vertex -12 0 0
    endloop
  endfacet
  facet normal 0 0 -1
    outer loop
      vertex -15 0 0
      vertex -12.7336 -19.8441 0
      vertex -12.75 -20 0
    endloop
  endfacet
  facet normal 0 0 -1
    outer loop
      vertex -10.9625 4.88084 0
      vertex -13.7032 6.10105 0
      vertex -12.1353 8.81678 0
    endloop
  endfacet
  facet normal -0.994523 -0.104517 0
    outer loop
      vertex 12 0 0
      vertex 11.7378 2.49494 7.3
      vertex 11.7378 2.49494 0
    endloop
  endfacet
  facet normal -0.994523 -0.104517 0
    outer loop
      vertex 11.7378 2.49494 7.3
      vertex 12 0 0
      vertex 12 0 7.3
    endloop
  endfacet
  facet normal 0.994523 -0.104517 0
    outer loop
      vertex -12 0 7.3
      vertex -11.7378 2.49494 0
      vertex -11.7378 2.49494 7.3
    endloop
  endfacet
  facet normal 0.994523 -0.104517 0
    outer loop
      vertex -11.7378 2.49494 0
      vertex -12 0 7.3
      vertex -12 0 0
    endloop
  endfacet
  facet normal 0 -1 0
    outer loop
      vertex -1.25434 11.9343 0
      vertex 1.25434 11.9343 7.3
      vertex -1.25434 11.9343 7.3
    endloop
  endfacet
  facet normal 0 -1 -0
    outer loop
      vertex 1.25434 11.9343 7.3
      vertex -1.25434 11.9343 0
      vertex 1.25434 11.9343 0
    endloop
  endfacet
  facet normal -0.587783 -0.809019 0
    outer loop
      vertex 6 10.3923 0
      vertex 8.02957 8.91774 7.3
      vertex 6 10.3923 7.3
    endloop
  endfacet
  facet normal -0.587783 -0.809019 -0
    outer loop
      vertex 8.02957 8.91774 7.3
      vertex 6 10.3923 0
      vertex 8.02957 8.91774 0
    endloop
  endfacet
  facet normal -0.406745 -0.913542 0
    outer loop
      vertex 3.7082 11.4127 0
      vertex 6 10.3923 7.3
      vertex 3.7082 11.4127 7.3
    endloop
  endfacet
  facet normal -0.406745 -0.913542 -0
    outer loop
      vertex 6 10.3923 7.3
      vertex 3.7082 11.4127 0
      vertex 6 10.3923 0
    endloop
  endfacet
  facet normal 0.743147 -0.669128 0
    outer loop
      vertex -9.7082 7.05342 7.3
      vertex -8.02957 8.91774 0
      vertex -8.02957 8.91774 7.3
    endloop
  endfacet
  facet normal 0.743147 -0.669128 0
    outer loop
      vertex -8.02957 8.91774 0
      vertex -9.7082 7.05342 7.3
      vertex -9.7082 7.05342 0
    endloop
  endfacet
  facet normal 0.866032 -0.499988 0
    outer loop
      vertex -10.9625 4.88084 7.3
      vertex -9.7082 7.05342 0
      vertex -9.7082 7.05342 7.3
    endloop
  endfacet
  facet normal 0.866032 -0.499988 0
    outer loop
      vertex -9.7082 7.05342 0
      vertex -10.9625 4.88084 7.3
      vertex -10.9625 4.88084 0
    endloop
  endfacet
  facet normal 0.406745 -0.913542 0
    outer loop
      vertex -6 10.3923 0
      vertex -3.7082 11.4127 7.3
      vertex -6 10.3923 7.3
    endloop
  endfacet
  facet normal 0.406745 -0.913542 0
    outer loop
      vertex -3.7082 11.4127 7.3
      vertex -6 10.3923 0
      vertex -3.7082 11.4127 0
    endloop
  endfacet
  facet normal -0.866032 -0.499988 0
    outer loop
      vertex 10.9625 4.88084 0
      vertex 9.7082 7.05342 7.3
      vertex 9.7082 7.05342 0
    endloop
  endfacet
  facet normal -0.866032 -0.499988 0
    outer loop
      vertex 9.7082 7.05342 7.3
      vertex 10.9625 4.88084 0
      vertex 10.9625 4.88084 7.3
    endloop
  endfacet
  facet normal -0.951048 -0.309044 0
    outer loop
      vertex 11.7378 2.49494 0
      vertex 10.9625 4.88084 7.3
      vertex 10.9625 4.88084 0
    endloop
  endfacet
  facet normal -0.951048 -0.309044 0
    outer loop
      vertex 10.9625 4.88084 7.3
      vertex 11.7378 2.49494 0
      vertex 11.7378 2.49494 7.3
    endloop
  endfacet
  facet normal -0.743147 -0.669128 0
    outer loop
      vertex 9.7082 7.05342 0
      vertex 8.02957 8.91774 7.3
      vertex 8.02957 8.91774 0
    endloop
  endfacet
  facet normal -0.743147 -0.669128 0
    outer loop
      vertex 8.02957 8.91774 7.3
      vertex 9.7082 7.05342 0
      vertex 9.7082 7.05342 7.3
    endloop
  endfacet
  facet normal -0.207918 -0.978146 0
    outer loop
      vertex 1.25434 11.9343 0
      vertex 3.7082 11.4127 7.3
      vertex 1.25434 11.9343 7.3
    endloop
  endfacet
  facet normal -0.207918 -0.978146 -0
    outer loop
      vertex 3.7082 11.4127 7.3
      vertex 1.25434 11.9343 0
      vertex 3.7082 11.4127 0
    endloop
  endfacet
  facet normal 0.951048 -0.309044 0
    outer loop
      vertex -11.7378 2.49494 7.3
      vertex -10.9625 4.88084 0
      vertex -10.9625 4.88084 7.3
    endloop
  endfacet
  facet normal 0.951048 -0.309044 0
    outer loop
      vertex -10.9625 4.88084 0
      vertex -11.7378 2.49494 7.3
      vertex -11.7378 2.49494 0
    endloop
  endfacet
  facet normal 0 0 -1
    outer loop
      vertex 4 3.5 7.3
      vertex 11.7378 2.49494 7.3
      vertex 12 0 7.3
    endloop
  endfacet
  facet normal 0 0 -1
    outer loop
      vertex 11.7378 2.49494 7.3
      vertex 4 3.5 7.3
      vertex 10.9625 4.88084 7.3
    endloop
  endfacet
  facet normal -0 0 -1
    outer loop
      vertex 10.9625 4.88084 7.3
      vertex 4 3.5 7.3
      vertex 9.7082 7.05342 7.3
    endloop
  endfacet
  facet normal 0 0 -1
    outer loop
      vertex 4 6.5 7.3
      vertex 9.7082 7.05342 7.3
      vertex 4 3.5 7.3
    endloop
  endfacet
  facet normal -0 0 -1
    outer loop
      vertex 9.7082 7.05342 7.3
      vertex 4 6.5 7.3
      vertex 8.02957 8.91774 7.3
    endloop
  endfacet
  facet normal 0 0 -1
    outer loop
      vertex 12 0 7.3
      vertex -4 3.5 7.3
      vertex 4 3.5 7.3
    endloop
  endfacet
  facet normal 0 0 -1
    outer loop
      vertex -9.7082 7.05342 7.3
      vertex -4 6.5 7.3
      vertex -4 3.5 7.3
    endloop
  endfacet
  facet normal 0 0 -1
    outer loop
      vertex -4 6.5 7.3
      vertex -8.02957 8.91774 7.3
      vertex -6 10.3923 7.3
    endloop
  endfacet
  facet normal 0 0 -1
    outer loop
      vertex -4 6.5 7.3
      vertex -9.7082 7.05342 7.3
      vertex -8.02957 8.91774 7.3
    endloop
  endfacet
  facet normal 0 0 -1
    outer loop
      vertex -4 3.5 7.3
      vertex -10.9625 4.88084 7.3
      vertex -9.7082 7.05342 7.3
    endloop
  endfacet
  facet normal 0 0 -1
    outer loop
      vertex -12 0 7.3
      vertex -4 3.5 7.3
      vertex 12 0 7.3
    endloop
  endfacet
  facet normal -0 0 -1
    outer loop
      vertex -4 3.5 7.3
      vertex -11.7378 2.49494 7.3
      vertex -10.9625 4.88084 7.3
    endloop
  endfacet
  facet normal 0 0 -1
    outer loop
      vertex -4 3.5 7.3
      vertex -12 0 7.3
      vertex -11.7378 2.49494 7.3
    endloop
  endfacet
  facet normal -0 0 -1
    outer loop
      vertex 8.02957 8.91774 7.3
      vertex 4 6.5 7.3
      vertex 6 10.3923 7.3
    endloop
  endfacet
  facet normal 0 0 -1
    outer loop
      vertex 4 6.5 7.3
      vertex 3.7082 11.4127 7.3
      vertex 6 10.3923 7.3
    endloop
  endfacet
  facet normal 0 0 -1
    outer loop
      vertex 4 6.5 7.3
      vertex 1.25434 11.9343 7.3
      vertex 3.7082 11.4127 7.3
    endloop
  endfacet
  facet normal 0 0 -1
    outer loop
      vertex 4 6.5 7.3
      vertex -1.25434 11.9343 7.3
      vertex 1.25434 11.9343 7.3
    endloop
  endfacet
  facet normal 0 0 -1
    outer loop
      vertex -4 6.5 7.3
      vertex -1.25434 11.9343 7.3
      vertex 4 6.5 7.3
    endloop
  endfacet
  facet normal 0 0 -1
    outer loop
      vertex -1.25434 11.9343 7.3
      vertex -4 6.5 7.3
      vertex -3.7082 11.4127 7.3
    endloop
  endfacet
  facet normal 0 0 -1
    outer loop
      vertex -3.7082 11.4127 7.3
      vertex -4 6.5 7.3
      vertex -6 10.3923 7.3
    endloop
  endfacet
  facet normal 0.587783 -0.809019 0
    outer loop
      vertex -8.02957 8.91774 0
      vertex -6 10.3923 7.3
      vertex -8.02957 8.91774 7.3
    endloop
  endfacet
  facet normal 0.587783 -0.809019 0
    outer loop
      vertex -6 10.3923 7.3
      vertex -8.02957 8.91774 0
      vertex -6 10.3923 0
    endloop
  endfacet
  facet normal 0.207918 -0.978146 0
    outer loop
      vertex -3.7082 11.4127 0
      vertex -1.25434 11.9343 7.3
      vertex -3.7082 11.4127 7.3
    endloop
  endfacet
  facet normal 0.207918 -0.978146 0
    outer loop
      vertex -1.25434 11.9343 7.3
      vertex -3.7082 11.4127 0
      vertex -1.25434 11.9343 0
    endloop
  endfacet
  facet normal -1 0 0
    outer loop
      vertex -15 -30 0
      vertex -15 0 8
      vertex -15 0 0
    endloop
  endfacet
  facet normal -1 -0 0
    outer loop
      vertex -15 0 8
      vertex -15 -30 0
      vertex -15 -30 8
    endloop
  endfacet
  facet normal 1 -0 0
    outer loop
      vertex 15 -30 8
      vertex 15 0 0
      vertex 15 0 8
    endloop
  endfacet
  facet normal 1 0 0
    outer loop
      vertex 15 0 0
      vertex 15 -30 8
      vertex 15 -30 0
    endloop
  endfacet
  facet normal 0 1 0
    outer loop
      vertex 12 0 7.3
      vertex 5.5 0 7.2
      vertex -12 0 7.3
    endloop
  endfacet
  facet normal 0 1 0
    outer loop
      vertex 12 0 7.3
      vertex 11.5 0 2.25
      vertex 5.5 0 7.2
    endloop
  endfacet
  facet normal 0 1 -0
    outer loop
      vertex 12 0 0
      vertex 11.5 0 2.25
      vertex 12 0 7.3
    endloop
  endfacet
  facet normal 0 1 0
    outer loop
      vertex 11.5 0 2.25
      vertex 12 0 0
      vertex 11.5 0 0
    endloop
  endfacet
  facet normal 0 1 -0
    outer loop
      vertex -5.5 0 7.2
      vertex -12 0 7.3
      vertex 5.5 0 7.2
    endloop
  endfacet
  facet normal 0 1 0
    outer loop
      vertex -11.5 0 2.25
      vertex -5.5 0 7.2
      vertex -5.5 0 2.25
    endloop
  endfacet
  facet normal 0 1 0
    outer loop
      vertex -5.5 0 7.2
      vertex -11.5 0 2.25
      vertex -12 0 7.3
    endloop
  endfacet
  facet normal 0 1 0
    outer loop
      vertex -12 0 0
      vertex -11.5 0 2.25
      vertex -11.5 0 0
    endloop
  endfacet
  facet normal 0 1 0
    outer loop
      vertex -11.5 0 2.25
      vertex -12 0 0
      vertex -12 0 7.3
    endloop
  endfacet
  facet normal 0 1 0
    outer loop
      vertex 5.5 0 7.2
      vertex 11.5 0 2.25
      vertex 5.5 0 2.25
    endloop
  endfacet
  facet normal 0 -1 0
    outer loop
      vertex -15 -30 8
      vertex -11.5 -30 2.25
      vertex 15 -30 8
    endloop
  endfacet
  facet normal 0 -1 0
    outer loop
      vertex -15 -30 0
      vertex -11.5 -30 2.25
      vertex -15 -30 8
    endloop
  endfacet
  facet normal 0 -1 -0
    outer loop
      vertex -11.5 -30 2.25
      vertex -15 -30 0
      vertex -11.5 -30 0
    endloop
  endfacet
  facet normal 0 -1 0
    outer loop
      vertex 11.5 -30 2.25
      vertex 15 -30 8
      vertex -11.5 -30 2.25
    endloop
  endfacet
  facet normal 0 -1 0
    outer loop
      vertex 15 -30 0
      vertex 11.5 -30 2.25
      vertex 11.5 -30 0
    endloop
  endfacet
  facet normal 0 -1 0
    outer loop
      vertex 11.5 -30 2.25
      vertex 15 -30 0
      vertex 15 -30 8
    endloop
  endfacet
  facet normal 1 -0 0
    outer loop
      vertex -4 3.5 8
      vertex -4 6.5 7.3
      vertex -4 6.5 8
    endloop
  endfacet
  facet normal 1 0 0
    outer loop
      vertex -4 6.5 7.3
      vertex -4 3.5 8
      vertex -4 3.5 7.3
    endloop
  endfacet
  facet normal -1 0 0
    outer loop
      vertex 4 3.5 7.3
      vertex 4 6.5 8
      vertex 4 6.5 7.3
    endloop
  endfacet
  facet normal -1 -0 0
    outer loop
      vertex 4 6.5 8
      vertex 4 3.5 7.3
      vertex 4 3.5 8
    endloop
  endfacet
  facet normal 0 -1 0
    outer loop
      vertex -4 6.5 7.3
      vertex 4 6.5 8
      vertex -4 6.5 8
    endloop
  endfacet
  facet normal 0 -1 -0
    outer loop
      vertex 4 6.5 8
      vertex -4 6.5 7.3
      vertex 4 6.5 7.3
    endloop
  endfacet
  facet normal 0 1 -0
    outer loop
      vertex 4 3.5 7.3
      vertex -4 3.5 8
      vertex 4 3.5 8
    endloop
  endfacet
  facet normal 0 1 0
    outer loop
      vertex -4 3.5 8
      vertex 4 3.5 7.3
      vertex -4 3.5 7.3
    endloop
  endfacet
  facet normal -0.994512 -0.104618 0
    outer loop
      vertex -11.25 -20 0
      vertex -11.2664 -19.8441 6
      vertex -11.2664 -19.8441 0
    endloop
  endfacet
  facet normal -0.994512 -0.104618 0
    outer loop
      vertex -11.2664 -19.8441 6
      vertex -11.25 -20 0
      vertex -11.25 -20 6
    endloop
  endfacet
  facet normal 0.994512 -0.104618 0
    outer loop
      vertex -12.75 -20 6
      vertex -12.7336 -19.8441 0
      vertex -12.7336 -19.8441 6
    endloop
  endfacet
  facet normal 0.994512 -0.104618 0
    outer loop
      vertex -12.7336 -19.8441 0
      vertex -12.75 -20 6
      vertex -12.75 -20 0
    endloop
  endfacet
  facet normal 0 -1 0
    outer loop
      vertex -12.0784 -19.2541 0
      vertex -11.9216 -19.2541 6
      vertex -12.0784 -19.2541 6
    endloop
  endfacet
  facet normal 0 -1 -0
    outer loop
      vertex -11.9216 -19.2541 6
      vertex -12.0784 -19.2541 0
      vertex -11.9216 -19.2541 0
    endloop
  endfacet
  facet normal 0 1 -0
    outer loop
      vertex -11.9216 -20.7459 0
      vertex -12.0784 -20.7459 6
      vertex -11.9216 -20.7459 6
    endloop
  endfacet
  facet normal 0 1 0
    outer loop
      vertex -12.0784 -20.7459 6
      vertex -11.9216 -20.7459 0
      vertex -12.0784 -20.7459 0
    endloop
  endfacet
  facet normal -0.587678 -0.809095 0
    outer loop
      vertex -11.625 -19.3505 0
      vertex -11.4982 -19.4426 6
      vertex -11.625 -19.3505 6
    endloop
  endfacet
  facet normal -0.587678 -0.809095 -0
    outer loop
      vertex -11.4982 -19.4426 6
      vertex -11.625 -19.3505 0
      vertex -11.4982 -19.4426 0
    endloop
  endfacet
  facet normal -0.406967 -0.913443 0
    outer loop
      vertex -11.7682 -19.2867 0
      vertex -11.625 -19.3505 6
      vertex -11.7682 -19.2867 6
    endloop
  endfacet
  facet normal -0.406967 -0.913443 -0
    outer loop
      vertex -11.625 -19.3505 6
      vertex -11.7682 -19.2867 0
      vertex -11.625 -19.3505 0
    endloop
  endfacet
  facet normal 0.743104 -0.669176 0
    outer loop
      vertex -12.6068 -19.5592 6
      vertex -12.5018 -19.4426 0
      vertex -12.5018 -19.4426 6
    endloop
  endfacet
  facet normal 0.743104 -0.669176 0
    outer loop
      vertex -12.5018 -19.4426 0
      vertex -12.6068 -19.5592 6
      vertex -12.6068 -19.5592 0
    endloop
  endfacet
  facet normal 0.865877 -0.500256 0
    outer loop
      vertex -12.6852 -19.6949 6
      vertex -12.6068 -19.5592 0
      vertex -12.6068 -19.5592 6
    endloop
  endfacet
  facet normal 0.865877 -0.500256 0
    outer loop
      vertex -12.6068 -19.5592 0
      vertex -12.6852 -19.6949 6
      vertex -12.6852 -19.6949 0
    endloop
  endfacet
  facet normal 0.406967 -0.913443 0
    outer loop
      vertex -12.375 -19.3505 0
      vertex -12.2318 -19.2867 6
      vertex -12.375 -19.3505 6
    endloop
  endfacet
  facet normal 0.406967 -0.913443 0
    outer loop
      vertex -12.2318 -19.2867 6
      vertex -12.375 -19.3505 0
      vertex -12.2318 -19.2867 0
    endloop
  endfacet
  facet normal -0.865877 0.500256 0
    outer loop
      vertex -11.3932 -20.4408 0
      vertex -11.3148 -20.3051 6
      vertex -11.3148 -20.3051 0
    endloop
  endfacet
  facet normal -0.865877 0.500256 0
    outer loop
      vertex -11.3148 -20.3051 6
      vertex -11.3932 -20.4408 0
      vertex -11.3932 -20.4408 6
    endloop
  endfacet
  facet normal -0.865877 -0.500256 0
    outer loop
      vertex -11.3148 -19.6949 0
      vertex -11.3932 -19.5592 6
      vertex -11.3932 -19.5592 0
    endloop
  endfacet
  facet normal -0.865877 -0.500256 0
    outer loop
      vertex -11.3932 -19.5592 6
      vertex -11.3148 -19.6949 0
      vertex -11.3148 -19.6949 6
    endloop
  endfacet
  facet normal -0.951203 -0.308567 0
    outer loop
      vertex -11.2664 -19.8441 0
      vertex -11.3148 -19.6949 6
      vertex -11.3148 -19.6949 0
    endloop
  endfacet
  facet normal -0.951203 -0.308567 0
    outer loop
      vertex -11.3148 -19.6949 6
      vertex -11.2664 -19.8441 0
      vertex -11.2664 -19.8441 6
    endloop
  endfacet
  facet normal -0.743104 -0.669176 0
    outer loop
      vertex -11.3932 -19.5592 0
      vertex -11.4982 -19.4426 6
      vertex -11.4982 -19.4426 0
    endloop
  endfacet
  facet normal -0.743104 -0.669176 0
    outer loop
      vertex -11.4982 -19.4426 6
      vertex -11.3932 -19.5592 0
      vertex -11.3932 -19.5592 6
    endloop
  endfacet
  facet normal -0.207874 -0.978156 0
    outer loop
      vertex -11.9216 -19.2541 0
      vertex -11.7682 -19.2867 6
      vertex -11.9216 -19.2541 6
    endloop
  endfacet
  facet normal -0.207874 -0.978156 -0
    outer loop
      vertex -11.7682 -19.2867 6
      vertex -11.9216 -19.2541 0
      vertex -11.7682 -19.2867 0
    endloop
  endfacet
  facet normal 0.951203 -0.308567 0
    outer loop
      vertex -12.7336 -19.8441 6
      vertex -12.6852 -19.6949 0
      vertex -12.6852 -19.6949 6
    endloop
  endfacet
  facet normal 0.951203 -0.308567 0
    outer loop
      vertex -12.6852 -19.6949 0
      vertex -12.7336 -19.8441 6
      vertex -12.7336 -19.8441 0
    endloop
  endfacet
  facet normal 0 0 -1
    outer loop
      vertex -11.2664 -20.1559 6
      vertex -11.2664 -19.8441 6
      vertex -11.25 -20 6
    endloop
  endfacet
  facet normal 0 0 -1
    outer loop
      vertex -11.3148 -20.3051 6
      vertex -11.2664 -19.8441 6
      vertex -11.2664 -20.1559 6
    endloop
  endfacet
  facet normal 0 0 -1
    outer loop
      vertex -11.3148 -20.3051 6
      vertex -11.3148 -19.6949 6
      vertex -11.2664 -19.8441 6
    endloop
  endfacet
  facet normal 0 0 -1
    outer loop
      vertex -11.3932 -20.4408 6
      vertex -11.3148 -19.6949 6
      vertex -11.3148 -20.3051 6
    endloop
  endfacet
  facet normal 0 0 -1
    outer loop
      vertex -11.3932 -20.4408 6
      vertex -11.3932 -19.5592 6
      vertex -11.3148 -19.6949 6
    endloop
  endfacet
  facet normal 0 0 -1
    outer loop
      vertex -11.4982 -20.5574 6
      vertex -11.3932 -19.5592 6
      vertex -11.3932 -20.4408 6
    endloop
  endfacet
  facet normal 0 0 -1
    outer loop
      vertex -11.4982 -20.5574 6
      vertex -11.4982 -19.4426 6
      vertex -11.3932 -19.5592 6
    endloop
  endfacet
  facet normal 0 0 -1
    outer loop
      vertex -11.625 -20.6495 6
      vertex -11.4982 -19.4426 6
      vertex -11.4982 -20.5574 6
    endloop
  endfacet
  facet normal 0 0 -1
    outer loop
      vertex -11.625 -20.6495 6
      vertex -11.625 -19.3505 6
      vertex -11.4982 -19.4426 6
    endloop
  endfacet
  facet normal 0 0 -1
    outer loop
      vertex -11.7682 -20.7133 6
      vertex -11.625 -19.3505 6
      vertex -11.625 -20.6495 6
    endloop
  endfacet
  facet normal 0 0 -1
    outer loop
      vertex -11.7682 -20.7133 6
      vertex -11.7682 -19.2867 6
      vertex -11.625 -19.3505 6
    endloop
  endfacet
  facet normal 0 0 -1
    outer loop
      vertex -11.9216 -20.7459 6
      vertex -11.7682 -19.2867 6
      vertex -11.7682 -20.7133 6
    endloop
  endfacet
  facet normal 0 0 -1
    outer loop
      vertex -11.9216 -20.7459 6
      vertex -11.9216 -19.2541 6
      vertex -11.7682 -19.2867 6
    endloop
  endfacet
  facet normal 0 0 -1
    outer loop
      vertex -12.0784 -20.7459 6
      vertex -11.9216 -19.2541 6
      vertex -11.9216 -20.7459 6
    endloop
  endfacet
  facet normal 0 0 -1
    outer loop
      vertex -12.0784 -20.7459 6
      vertex -12.0784 -19.2541 6
      vertex -11.9216 -19.2541 6
    endloop
  endfacet
  facet normal 0 0 -1
    outer loop
      vertex -12.2318 -20.7133 6
      vertex -12.0784 -19.2541 6
      vertex -12.0784 -20.7459 6
    endloop
  endfacet
  facet normal 0 0 -1
    outer loop
      vertex -12.2318 -20.7133 6
      vertex -12.2318 -19.2867 6
      vertex -12.0784 -19.2541 6
    endloop
  endfacet
  facet normal 0 0 -1
    outer loop
      vertex -12.375 -20.6495 6
      vertex -12.2318 -19.2867 6
      vertex -12.2318 -20.7133 6
    endloop
  endfacet
  facet normal 0 0 -1
    outer loop
      vertex -12.375 -20.6495 6
      vertex -12.375 -19.3505 6
      vertex -12.2318 -19.2867 6
    endloop
  endfacet
  facet normal 0 0 -1
    outer loop
      vertex -12.5018 -20.5574 6
      vertex -12.375 -19.3505 6
      vertex -12.375 -20.6495 6
    endloop
  endfacet
  facet normal 0 0 -1
    outer loop
      vertex -12.5018 -20.5574 6
      vertex -12.5018 -19.4426 6
      vertex -12.375 -19.3505 6
    endloop
  endfacet
  facet normal 0 0 -1
    outer loop
      vertex -12.6068 -20.4408 6
      vertex -12.5018 -19.4426 6
      vertex -12.5018 -20.5574 6
    endloop
  endfacet
  facet normal 0 0 -1
    outer loop
      vertex -12.6068 -20.4408 6
      vertex -12.6068 -19.5592 6
      vertex -12.5018 -19.4426 6
    endloop
  endfacet
  facet normal 0 0 -1
    outer loop
      vertex -12.6852 -20.3051 6
      vertex -12.6068 -19.5592 6
      vertex -12.6068 -20.4408 6
    endloop
  endfacet
  facet normal 0 0 -1
    outer loop
      vertex -12.6852 -20.3051 6
      vertex -12.6852 -19.6949 6
      vertex -12.6068 -19.5592 6
    endloop
  endfacet
  facet normal 0 0 -1
    outer loop
      vertex -12.7336 -20.1559 6
      vertex -12.6852 -19.6949 6
      vertex -12.6852 -20.3051 6
    endloop
  endfacet
  facet normal 0 0 -1
    outer loop
      vertex -12.7336 -20.1559 6
      vertex -12.7336 -19.8441 6
      vertex -12.6852 -19.6949 6
    endloop
  endfacet
  facet normal 0 -0 -1
    outer loop
      vertex -12.7336 -19.8441 6
      vertex -12.7336 -20.1559 6
      vertex -12.75 -20 6
    endloop
  endfacet
  facet normal 0.587678 -0.809095 0
    outer loop
      vertex -12.5018 -19.4426 0
      vertex -12.375 -19.3505 6
      vertex -12.5018 -19.4426 6
    endloop
  endfacet
  facet normal 0.587678 -0.809095 0
    outer loop
      vertex -12.375 -19.3505 6
      vertex -12.5018 -19.4426 0
      vertex -12.375 -19.3505 0
    endloop
  endfacet
  facet normal 0.207874 -0.978156 0
    outer loop
      vertex -12.2318 -19.2867 0
      vertex -12.0784 -19.2541 6
      vertex -12.2318 -19.2867 6
    endloop
  endfacet
  facet normal 0.207874 -0.978156 0
    outer loop
      vertex -12.0784 -19.2541 6
      vertex -12.2318 -19.2867 0
      vertex -12.0784 -19.2541 0
    endloop
  endfacet
  facet normal -0.207874 0.978156 0
    outer loop
      vertex -11.7682 -20.7133 0
      vertex -11.9216 -20.7459 6
      vertex -11.7682 -20.7133 6
    endloop
  endfacet
  facet normal -0.207874 0.978156 0
    outer loop
      vertex -11.9216 -20.7459 6
      vertex -11.7682 -20.7133 0
      vertex -11.9216 -20.7459 0
    endloop
  endfacet
  facet normal -0.951203 0.308567 0
    outer loop
      vertex -11.3148 -20.3051 0
      vertex -11.2664 -20.1559 6
      vertex -11.2664 -20.1559 0
    endloop
  endfacet
  facet normal -0.951203 0.308567 0
    outer loop
      vertex -11.2664 -20.1559 6
      vertex -11.3148 -20.3051 0
      vertex -11.3148 -20.3051 6
    endloop
  endfacet
  facet normal -0.994512 0.104618 0
    outer loop
      vertex -11.2664 -20.1559 0
      vertex -11.25 -20 6
      vertex -11.25 -20 0
    endloop
  endfacet
  facet normal -0.994512 0.104618 0
    outer loop
      vertex -11.25 -20 6
      vertex -11.2664 -20.1559 0
      vertex -11.2664 -20.1559 6
    endloop
  endfacet
  facet normal 0.865877 0.500256 0
    outer loop
      vertex -12.6068 -20.4408 6
      vertex -12.6852 -20.3051 0
      vertex -12.6852 -20.3051 6
    endloop
  endfacet
  facet normal 0.865877 0.500256 0
    outer loop
      vertex -12.6852 -20.3051 0
      vertex -12.6068 -20.4408 6
      vertex -12.6068 -20.4408 0
    endloop
  endfacet
  facet normal -0.587678 0.809095 0
    outer loop
      vertex -11.4982 -20.5574 0
      vertex -11.625 -20.6495 6
      vertex -11.4982 -20.5574 6
    endloop
  endfacet
  facet normal -0.587678 0.809095 0
    outer loop
      vertex -11.625 -20.6495 6
      vertex -11.4982 -20.5574 0
      vertex -11.625 -20.6495 0
    endloop
  endfacet
  facet normal -0.406967 0.913443 0
    outer loop
      vertex -11.625 -20.6495 0
      vertex -11.7682 -20.7133 6
      vertex -11.625 -20.6495 6
    endloop
  endfacet
  facet normal -0.406967 0.913443 0
    outer loop
      vertex -11.7682 -20.7133 6
      vertex -11.625 -20.6495 0
      vertex -11.7682 -20.7133 0
    endloop
  endfacet
  facet normal 0.207874 0.978156 -0
    outer loop
      vertex -12.0784 -20.7459 0
      vertex -12.2318 -20.7133 6
      vertex -12.0784 -20.7459 6
    endloop
  endfacet
  facet normal 0.207874 0.978156 0
    outer loop
      vertex -12.2318 -20.7133 6
      vertex -12.0784 -20.7459 0
      vertex -12.2318 -20.7133 0
    endloop
  endfacet
  facet normal 0.743104 0.669176 0
    outer loop
      vertex -12.5018 -20.5574 6
      vertex -12.6068 -20.4408 0
      vertex -12.6068 -20.4408 6
    endloop
  endfacet
  facet normal 0.743104 0.669176 0
    outer loop
      vertex -12.6068 -20.4408 0
      vertex -12.5018 -20.5574 6
      vertex -12.5018 -20.5574 0
    endloop
  endfacet
  facet normal 0.951203 0.308567 0
    outer loop
      vertex -12.6852 -20.3051 6
      vertex -12.7336 -20.1559 0
      vertex -12.7336 -20.1559 6
    endloop
  endfacet
  facet normal 0.951203 0.308567 0
    outer loop
      vertex -12.7336 -20.1559 0
      vertex -12.6852 -20.3051 6
      vertex -12.6852 -20.3051 0
    endloop
  endfacet
  facet normal 0.994512 0.104618 0
    outer loop
      vertex -12.7336 -20.1559 6
      vertex -12.75 -20 0
      vertex -12.75 -20 6
    endloop
  endfacet
  facet normal 0.994512 0.104618 0
    outer loop
      vertex -12.75 -20 0
      vertex -12.7336 -20.1559 6
      vertex -12.7336 -20.1559 0
    endloop
  endfacet
  facet normal -0.743104 0.669176 0
    outer loop
      vertex -11.4982 -20.5574 0
      vertex -11.3932 -20.4408 6
      vertex -11.3932 -20.4408 0
    endloop
  endfacet
  facet normal -0.743104 0.669176 0
    outer loop
      vertex -11.3932 -20.4408 6
      vertex -11.4982 -20.5574 0
      vertex -11.4982 -20.5574 6
    endloop
  endfacet
  facet normal 0.406967 0.913443 -0
    outer loop
      vertex -12.2318 -20.7133 0
      vertex -12.375 -20.6495 6
      vertex -12.2318 -20.7133 6
    endloop
  endfacet
  facet normal 0.406967 0.913443 0
    outer loop
      vertex -12.375 -20.6495 6
      vertex -12.2318 -20.7133 0
      vertex -12.375 -20.6495 0
    endloop
  endfacet
  facet normal 0.587678 0.809095 -0
    outer loop
      vertex -12.375 -20.6495 0
      vertex -12.5018 -20.5574 6
      vertex -12.375 -20.6495 6
    endloop
  endfacet
  facet normal 0.587678 0.809095 0
    outer loop
      vertex -12.5018 -20.5574 6
      vertex -12.375 -20.6495 0
      vertex -12.5018 -20.5574 0
    endloop
  endfacet
  facet normal -0.994512 -0.104618 0
    outer loop
      vertex 12.75 -20 0
      vertex 12.7336 -19.8441 6
      vertex 12.7336 -19.8441 0
    endloop
  endfacet
  facet normal -0.994512 -0.104618 0
    outer loop
      vertex 12.7336 -19.8441 6
      vertex 12.75 -20 0
      vertex 12.75 -20 6
    endloop
  endfacet
  facet normal 0.207874 -0.978156 0
    outer loop
      vertex 11.7682 -19.2867 0
      vertex 11.9216 -19.2541 6
      vertex 11.7682 -19.2867 6
    endloop
  endfacet
  facet normal 0.207874 -0.978156 0
    outer loop
      vertex 11.9216 -19.2541 6
      vertex 11.7682 -19.2867 0
      vertex 11.9216 -19.2541 0
    endloop
  endfacet
  facet normal -0.207874 0.978156 0
    outer loop
      vertex 12.2318 -20.7133 0
      vertex 12.0784 -20.7459 6
      vertex 12.2318 -20.7133 6
    endloop
  endfacet
  facet normal -0.207874 0.978156 0
    outer loop
      vertex 12.0784 -20.7459 6
      vertex 12.2318 -20.7133 0
      vertex 12.0784 -20.7459 0
    endloop
  endfacet
  facet normal -0.587678 -0.809095 0
    outer loop
      vertex 12.375 -19.3505 0
      vertex 12.5018 -19.4426 6
      vertex 12.375 -19.3505 6
    endloop
  endfacet
  facet normal -0.587678 -0.809095 -0
    outer loop
      vertex 12.5018 -19.4426 6
      vertex 12.375 -19.3505 0
      vertex 12.5018 -19.4426 0
    endloop
  endfacet
  facet normal 0.865877 -0.500256 0
    outer loop
      vertex 11.3148 -19.6949 6
      vertex 11.3932 -19.5592 0
      vertex 11.3932 -19.5592 6
    endloop
  endfacet
  facet normal 0.865877 -0.500256 0
    outer loop
      vertex 11.3932 -19.5592 0
      vertex 11.3148 -19.6949 6
      vertex 11.3148 -19.6949 0
    endloop
  endfacet
  facet normal 0.951203 -0.308567 0
    outer loop
      vertex 11.2664 -19.8441 6
      vertex 11.3148 -19.6949 0
      vertex 11.3148 -19.6949 6
    endloop
  endfacet
  facet normal 0.951203 -0.308567 0
    outer loop
      vertex 11.3148 -19.6949 0
      vertex 11.2664 -19.8441 6
      vertex 11.2664 -19.8441 0
    endloop
  endfacet
  facet normal 0.587678 -0.809095 0
    outer loop
      vertex 11.4982 -19.4426 0
      vertex 11.625 -19.3505 6
      vertex 11.4982 -19.4426 6
    endloop
  endfacet
  facet normal 0.587678 -0.809095 0
    outer loop
      vertex 11.625 -19.3505 6
      vertex 11.4982 -19.4426 0
      vertex 11.625 -19.3505 0
    endloop
  endfacet
  facet normal -0.865877 -0.500256 0
    outer loop
      vertex 12.6852 -19.6949 0
      vertex 12.6068 -19.5592 6
      vertex 12.6068 -19.5592 0
    endloop
  endfacet
  facet normal -0.865877 -0.500256 0
    outer loop
      vertex 12.6068 -19.5592 6
      vertex 12.6852 -19.6949 0
      vertex 12.6852 -19.6949 6
    endloop
  endfacet
  facet normal -0.951203 -0.308567 0
    outer loop
      vertex 12.7336 -19.8441 0
      vertex 12.6852 -19.6949 6
      vertex 12.6852 -19.6949 0
    endloop
  endfacet
  facet normal -0.951203 -0.308567 0
    outer loop
      vertex 12.6852 -19.6949 6
      vertex 12.7336 -19.8441 0
      vertex 12.7336 -19.8441 6
    endloop
  endfacet
  facet normal -0.743104 -0.669176 0
    outer loop
      vertex 12.6068 -19.5592 0
      vertex 12.5018 -19.4426 6
      vertex 12.5018 -19.4426 0
    endloop
  endfacet
  facet normal -0.743104 -0.669176 0
    outer loop
      vertex 12.5018 -19.4426 6
      vertex 12.6068 -19.5592 0
      vertex 12.6068 -19.5592 6
    endloop
  endfacet
  facet normal -0.207874 -0.978156 0
    outer loop
      vertex 12.0784 -19.2541 0
      vertex 12.2318 -19.2867 6
      vertex 12.0784 -19.2541 6
    endloop
  endfacet
  facet normal -0.207874 -0.978156 -0
    outer loop
      vertex 12.2318 -19.2867 6
      vertex 12.0784 -19.2541 0
      vertex 12.2318 -19.2867 0
    endloop
  endfacet
  facet normal 0 -1 0
    outer loop
      vertex 11.9216 -19.2541 0
      vertex 12.0784 -19.2541 6
      vertex 11.9216 -19.2541 6
    endloop
  endfacet
  facet normal 0 -1 -0
    outer loop
      vertex 12.0784 -19.2541 6
      vertex 11.9216 -19.2541 0
      vertex 12.0784 -19.2541 0
    endloop
  endfacet
  facet normal -0.406967 -0.913443 0
    outer loop
      vertex 12.2318 -19.2867 0
      vertex 12.375 -19.3505 6
      vertex 12.2318 -19.2867 6
    endloop
  endfacet
  facet normal -0.406967 -0.913443 -0
    outer loop
      vertex 12.375 -19.3505 6
      vertex 12.2318 -19.2867 0
      vertex 12.375 -19.3505 0
    endloop
  endfacet
  facet normal 0.994512 -0.104618 0
    outer loop
      vertex 11.25 -20 6
      vertex 11.2664 -19.8441 0
      vertex 11.2664 -19.8441 6
    endloop
  endfacet
  facet normal 0.994512 -0.104618 0
    outer loop
      vertex 11.2664 -19.8441 0
      vertex 11.25 -20 6
      vertex 11.25 -20 0
    endloop
  endfacet
  facet normal 0 0 -1
    outer loop
      vertex 12.7336 -20.1559 6
      vertex 12.7336 -19.8441 6
      vertex 12.75 -20 6
    endloop
  endfacet
  facet normal 0 0 -1
    outer loop
      vertex 12.6852 -20.3051 6
      vertex 12.7336 -19.8441 6
      vertex 12.7336 -20.1559 6
    endloop
  endfacet
  facet normal 0 0 -1
    outer loop
      vertex 12.6852 -20.3051 6
      vertex 12.6852 -19.6949 6
      vertex 12.7336 -19.8441 6
    endloop
  endfacet
  facet normal 0 0 -1
    outer loop
      vertex 12.6068 -20.4408 6
      vertex 12.6852 -19.6949 6
      vertex 12.6852 -20.3051 6
    endloop
  endfacet
  facet normal 0 0 -1
    outer loop
      vertex 12.6068 -20.4408 6
      vertex 12.6068 -19.5592 6
      vertex 12.6852 -19.6949 6
    endloop
  endfacet
  facet normal 0 0 -1
    outer loop
      vertex 12.5018 -20.5574 6
      vertex 12.6068 -19.5592 6
      vertex 12.6068 -20.4408 6
    endloop
  endfacet
  facet normal 0 0 -1
    outer loop
      vertex 12.5018 -20.5574 6
      vertex 12.5018 -19.4426 6
      vertex 12.6068 -19.5592 6
    endloop
  endfacet
  facet normal 0 0 -1
    outer loop
      vertex 12.375 -20.6495 6
      vertex 12.5018 -19.4426 6
      vertex 12.5018 -20.5574 6
    endloop
  endfacet
  facet normal 0 0 -1
    outer loop
      vertex 12.375 -20.6495 6
      vertex 12.375 -19.3505 6
      vertex 12.5018 -19.4426 6
    endloop
  endfacet
  facet normal 0 0 -1
    outer loop
      vertex 12.2318 -20.7133 6
      vertex 12.375 -19.3505 6
      vertex 12.375 -20.6495 6
    endloop
  endfacet
  facet normal 0 0 -1
    outer loop
      vertex 12.2318 -20.7133 6
      vertex 12.2318 -19.2867 6
      vertex 12.375 -19.3505 6
    endloop
  endfacet
  facet normal 0 0 -1
    outer loop
      vertex 12.0784 -20.7459 6
      vertex 12.2318 -19.2867 6
      vertex 12.2318 -20.7133 6
    endloop
  endfacet
  facet normal 0 0 -1
    outer loop
      vertex 12.0784 -20.7459 6
      vertex 12.0784 -19.2541 6
      vertex 12.2318 -19.2867 6
    endloop
  endfacet
  facet normal 0 0 -1
    outer loop
      vertex 11.9216 -20.7459 6
      vertex 12.0784 -19.2541 6
      vertex 12.0784 -20.7459 6
    endloop
  endfacet
  facet normal 0 0 -1
    outer loop
      vertex 11.9216 -20.7459 6
      vertex 11.9216 -19.2541 6
      vertex 12.0784 -19.2541 6
    endloop
  endfacet
  facet normal 0 0 -1
    outer loop
      vertex 11.7682 -20.7133 6
      vertex 11.9216 -19.2541 6
      vertex 11.9216 -20.7459 6
    endloop
  endfacet
  facet normal 0 0 -1
    outer loop
      vertex 11.7682 -20.7133 6
      vertex 11.7682 -19.2867 6
      vertex 11.9216 -19.2541 6
    endloop
  endfacet
  facet normal 0 0 -1
    outer loop
      vertex 11.625 -20.6495 6
      vertex 11.7682 -19.2867 6
      vertex 11.7682 -20.7133 6
    endloop
  endfacet
  facet normal 0 0 -1
    outer loop
      vertex 11.625 -20.6495 6
      vertex 11.625 -19.3505 6
      vertex 11.7682 -19.2867 6
    endloop
  endfacet
  facet normal 0 0 -1
    outer loop
      vertex 11.4982 -20.5574 6
      vertex 11.625 -19.3505 6
      vertex 11.625 -20.6495 6
    endloop
  endfacet
  facet normal 0 0 -1
    outer loop
      vertex 11.4982 -20.5574 6
      vertex 11.4982 -19.4426 6
      vertex 11.625 -19.3505 6
    endloop
  endfacet
  facet normal 0 0 -1
    outer loop
      vertex 11.3932 -20.4408 6
      vertex 11.4982 -19.4426 6
      vertex 11.4982 -20.5574 6
    endloop
  endfacet
  facet normal 0 0 -1
    outer loop
      vertex 11.3932 -20.4408 6
      vertex 11.3932 -19.5592 6
      vertex 11.4982 -19.4426 6
    endloop
  endfacet
  facet normal 0 0 -1
    outer loop
      vertex 11.3148 -20.3051 6
      vertex 11.3932 -19.5592 6
      vertex 11.3932 -20.4408 6
    endloop
  endfacet
  facet normal 0 0 -1
    outer loop
      vertex 11.3148 -20.3051 6
      vertex 11.3148 -19.6949 6
      vertex 11.3932 -19.5592 6
    endloop
  endfacet
  facet normal 0 0 -1
    outer loop
      vertex 11.2664 -20.1559 6
      vertex 11.3148 -19.6949 6
      vertex 11.3148 -20.3051 6
    endloop
  endfacet
  facet normal 0 0 -1
    outer loop
      vertex 11.2664 -20.1559 6
      vertex 11.2664 -19.8441 6
      vertex 11.3148 -19.6949 6
    endloop
  endfacet
  facet normal 0 -0 -1
    outer loop
      vertex 11.2664 -19.8441 6
      vertex 11.2664 -20.1559 6
      vertex 11.25 -20 6
    endloop
  endfacet
  facet normal 0.743104 -0.669176 0
    outer loop
      vertex 11.3932 -19.5592 6
      vertex 11.4982 -19.4426 0
      vertex 11.4982 -19.4426 6
    endloop
  endfacet
  facet normal 0.743104 -0.669176 0
    outer loop
      vertex 11.4982 -19.4426 0
      vertex 11.3932 -19.5592 6
      vertex 11.3932 -19.5592 0
    endloop
  endfacet
  facet normal 0.406967 -0.913443 0
    outer loop
      vertex 11.625 -19.3505 0
      vertex 11.7682 -19.2867 6
      vertex 11.625 -19.3505 6
    endloop
  endfacet
  facet normal 0.406967 -0.913443 0
    outer loop
      vertex 11.7682 -19.2867 6
      vertex 11.625 -19.3505 0
      vertex 11.7682 -19.2867 0
    endloop
  endfacet
  facet normal -0.994512 0.104618 0
    outer loop
      vertex 12.7336 -20.1559 0
      vertex 12.75 -20 6
      vertex 12.75 -20 0
    endloop
  endfacet
  facet normal -0.994512 0.104618 0
    outer loop
      vertex 12.75 -20 6
      vertex 12.7336 -20.1559 0
      vertex 12.7336 -20.1559 6
    endloop
  endfacet
  facet normal -0.406967 0.913443 0
    outer loop
      vertex 12.375 -20.6495 0
      vertex 12.2318 -20.7133 6
      vertex 12.375 -20.6495 6
    endloop
  endfacet
  facet normal -0.406967 0.913443 0
    outer loop
      vertex 12.2318 -20.7133 6
      vertex 12.375 -20.6495 0
      vertex 12.2318 -20.7133 0
    endloop
  endfacet
  facet normal -0.951203 0.308567 0
    outer loop
      vertex 12.6852 -20.3051 0
      vertex 12.7336 -20.1559 6
      vertex 12.7336 -20.1559 0
    endloop
  endfacet
  facet normal -0.951203 0.308567 0
    outer loop
      vertex 12.7336 -20.1559 6
      vertex 12.6852 -20.3051 0
      vertex 12.6852 -20.3051 6
    endloop
  endfacet
  facet normal 0.994512 0.104618 0
    outer loop
      vertex 11.2664 -20.1559 6
      vertex 11.25 -20 0
      vertex 11.25 -20 6
    endloop
  endfacet
  facet normal 0.994512 0.104618 0
    outer loop
      vertex 11.25 -20 0
      vertex 11.2664 -20.1559 6
      vertex 11.2664 -20.1559 0
    endloop
  endfacet
  facet normal 0.743104 0.669176 0
    outer loop
      vertex 11.4982 -20.5574 6
      vertex 11.3932 -20.4408 0
      vertex 11.3932 -20.4408 6
    endloop
  endfacet
  facet normal 0.743104 0.669176 0
    outer loop
      vertex 11.3932 -20.4408 0
      vertex 11.4982 -20.5574 6
      vertex 11.4982 -20.5574 0
    endloop
  endfacet
  facet normal 0.587678 0.809095 -0
    outer loop
      vertex 11.625 -20.6495 0
      vertex 11.4982 -20.5574 6
      vertex 11.625 -20.6495 6
    endloop
  endfacet
  facet normal 0.587678 0.809095 0
    outer loop
      vertex 11.4982 -20.5574 6
      vertex 11.625 -20.6495 0
      vertex 11.4982 -20.5574 0
    endloop
  endfacet
  facet normal -0.743104 0.669176 0
    outer loop
      vertex 12.5018 -20.5574 0
      vertex 12.6068 -20.4408 6
      vertex 12.6068 -20.4408 0
    endloop
  endfacet
  facet normal -0.743104 0.669176 0
    outer loop
      vertex 12.6068 -20.4408 6
      vertex 12.5018 -20.5574 0
      vertex 12.5018 -20.5574 6
    endloop
  endfacet
  facet normal -0.587678 0.809095 0
    outer loop
      vertex 12.5018 -20.5574 0
      vertex 12.375 -20.6495 6
      vertex 12.5018 -20.5574 6
    endloop
  endfacet
  facet normal -0.587678 0.809095 0
    outer loop
      vertex 12.375 -20.6495 6
      vertex 12.5018 -20.5574 0
      vertex 12.375 -20.6495 0
    endloop
  endfacet
  facet normal 0 1 -0
    outer loop
      vertex 12.0784 -20.7459 0
      vertex 11.9216 -20.7459 6
      vertex 12.0784 -20.7459 6
    endloop
  endfacet
  facet normal 0 1 0
    outer loop
      vertex 11.9216 -20.7459 6
      vertex 12.0784 -20.7459 0
      vertex 11.9216 -20.7459 0
    endloop
  endfacet
  facet normal 0.865877 0.500256 0
    outer loop
      vertex 11.3932 -20.4408 6
      vertex 11.3148 -20.3051 0
      vertex 11.3148 -20.3051 6
    endloop
  endfacet
  facet normal 0.865877 0.500256 0
    outer loop
      vertex 11.3148 -20.3051 0
      vertex 11.3932 -20.4408 6
      vertex 11.3932 -20.4408 0
    endloop
  endfacet
  facet normal 0.951203 0.308567 0
    outer loop
      vertex 11.3148 -20.3051 6
      vertex 11.2664 -20.1559 0
      vertex 11.2664 -20.1559 6
    endloop
  endfacet
  facet normal 0.951203 0.308567 0
    outer loop
      vertex 11.2664 -20.1559 0
      vertex 11.3148 -20.3051 6
      vertex 11.3148 -20.3051 0
    endloop
  endfacet
  facet normal -0.865877 0.500256 0
    outer loop
      vertex 12.6068 -20.4408 0
      vertex 12.6852 -20.3051 6
      vertex 12.6852 -20.3051 0
    endloop
  endfacet
  facet normal -0.865877 0.500256 0
    outer loop
      vertex 12.6852 -20.3051 6
      vertex 12.6068 -20.4408 0
      vertex 12.6068 -20.4408 6
    endloop
  endfacet
  facet normal 0.207874 0.978156 -0
    outer loop
      vertex 11.9216 -20.7459 0
      vertex 11.7682 -20.7133 6
      vertex 11.9216 -20.7459 6
    endloop
  endfacet
  facet normal 0.207874 0.978156 0
    outer loop
      vertex 11.7682 -20.7133 6
      vertex 11.9216 -20.7459 0
      vertex 11.7682 -20.7133 0
    endloop
  endfacet
  facet normal 0.406967 0.913443 -0
    outer loop
      vertex 11.7682 -20.7133 0
      vertex 11.625 -20.6495 6
      vertex 11.7682 -20.7133 6
    endloop
  endfacet
  facet normal 0.406967 0.913443 0
    outer loop
      vertex 11.625 -20.6495 6
      vertex 11.7682 -20.7133 0
      vertex 11.625 -20.6495 0
    endloop
  endfacet
  facet normal -0.994519 -0.104555 0
    outer loop
      vertex 0.75 13.5 0
      vertex 0.73361 13.6559 5
      vertex 0.73361 13.6559 0
    endloop
  endfacet
  facet normal -0.994519 -0.104555 0
    outer loop
      vertex 0.73361 13.6559 5
      vertex 0.75 13.5 0
      vertex 0.75 13.5 5
    endloop
  endfacet
  facet normal 0.207918 -0.978146 0
    outer loop
      vertex -0.231762 14.2133 0
      vertex -0.0783958 14.2459 5
      vertex -0.231762 14.2133 5
    endloop
  endfacet
  facet normal 0.207918 -0.978146 0
    outer loop
      vertex -0.0783958 14.2459 5
      vertex -0.231762 14.2133 0
      vertex -0.0783958 14.2459 0
    endloop
  endfacet
  facet normal -0.207918 0.978146 0
    outer loop
      vertex 0.231762 12.7867 0
      vertex 0.0783958 12.7541 5
      vertex 0.231762 12.7867 5
    endloop
  endfacet
  facet normal -0.207918 0.978146 0
    outer loop
      vertex 0.0783958 12.7541 5
      vertex 0.231762 12.7867 0
      vertex 0.0783958 12.7541 0
    endloop
  endfacet
  facet normal -0.587536 -0.809198 0
    outer loop
      vertex 0.375 14.1495 0
      vertex 0.501847 14.0574 5
      vertex 0.375 14.1495 5
    endloop
  endfacet
  facet normal -0.587536 -0.809198 -0
    outer loop
      vertex 0.501847 14.0574 5
      vertex 0.375 14.1495 0
      vertex 0.501847 14.0574 0
    endloop
  endfacet
  facet normal 0.865886 -0.500242 0
    outer loop
      vertex -0.685159 13.8051 5
      vertex -0.606762 13.9408 0
      vertex -0.606762 13.9408 5
    endloop
  endfacet
  facet normal 0.865886 -0.500242 0
    outer loop
      vertex -0.606762 13.9408 0
      vertex -0.685159 13.8051 5
      vertex -0.685159 13.8051 0
    endloop
  endfacet
  facet normal 0.587536 -0.809198 0
    outer loop
      vertex -0.501847 14.0574 0
      vertex -0.375 14.1495 5
      vertex -0.501847 14.0574 5
    endloop
  endfacet
  facet normal 0.587536 -0.809198 0
    outer loop
      vertex -0.375 14.1495 5
      vertex -0.501847 14.0574 0
      vertex -0.375 14.1495 0
    endloop
  endfacet
  facet normal -0.865886 0.500242 0
    outer loop
      vertex 0.606762 13.0592 0
      vertex 0.685159 13.1949 5
      vertex 0.685159 13.1949 0
    endloop
  endfacet
  facet normal -0.865886 0.500242 0
    outer loop
      vertex 0.685159 13.1949 5
      vertex 0.606762 13.0592 0
      vertex 0.606762 13.0592 5
    endloop
  endfacet
  facet normal -0.865886 -0.500242 0
    outer loop
      vertex 0.685159 13.8051 0
      vertex 0.606762 13.9408 5
      vertex 0.606762 13.9408 0
    endloop
  endfacet
  facet normal -0.865886 -0.500242 0
    outer loop
      vertex 0.606762 13.9408 5
      vertex 0.685159 13.8051 0
      vertex 0.685159 13.8051 5
    endloop
  endfacet
  facet normal -0.951107 -0.308861 0
    outer loop
      vertex 0.73361 13.6559 0
      vertex 0.685159 13.8051 5
      vertex 0.685159 13.8051 0
    endloop
  endfacet
  facet normal -0.951107 -0.308861 0
    outer loop
      vertex 0.685159 13.8051 5
      vertex 0.73361 13.6559 0
      vertex 0.73361 13.6559 5
    endloop
  endfacet
  facet normal -0.743373 -0.668877 0
    outer loop
      vertex 0.606762 13.9408 0
      vertex 0.501847 14.0574 5
      vertex 0.501847 14.0574 0
    endloop
  endfacet
  facet normal -0.743373 -0.668877 0
    outer loop
      vertex 0.501847 14.0574 5
      vertex 0.606762 13.9408 0
      vertex 0.606762 13.9408 5
    endloop
  endfacet
  facet normal -0.207918 -0.978146 0
    outer loop
      vertex 0.0783958 14.2459 0
      vertex 0.231762 14.2133 5
      vertex 0.0783958 14.2459 5
    endloop
  endfacet
  facet normal -0.207918 -0.978146 -0
    outer loop
      vertex 0.231762 14.2133 5
      vertex 0.0783958 14.2459 0
      vertex 0.231762 14.2133 0
    endloop
  endfacet
  facet normal 0 -1 0
    outer loop
      vertex -0.0783958 14.2459 0
      vertex 0.0783958 14.2459 5
      vertex -0.0783958 14.2459 5
    endloop
  endfacet
  facet normal 0 -1 -0
    outer loop
      vertex 0.0783958 14.2459 5
      vertex -0.0783958 14.2459 0
      vertex 0.0783958 14.2459 0
    endloop
  endfacet
  facet normal -0.406877 -0.913483 0
    outer loop
      vertex 0.231762 14.2133 0
      vertex 0.375 14.1495 5
      vertex 0.231762 14.2133 5
    endloop
  endfacet
  facet normal -0.406877 -0.913483 -0
    outer loop
      vertex 0.375 14.1495 5
      vertex 0.231762 14.2133 0
      vertex 0.375 14.1495 0
    endloop
  endfacet
  facet normal 0.951107 -0.308861 0
    outer loop
      vertex -0.73361 13.6559 5
      vertex -0.685159 13.8051 0
      vertex -0.685159 13.8051 5
    endloop
  endfacet
  facet normal 0.951107 -0.308861 0
    outer loop
      vertex -0.685159 13.8051 0
      vertex -0.73361 13.6559 5
      vertex -0.73361 13.6559 0
    endloop
  endfacet
  facet normal 0.994519 -0.104555 0
    outer loop
      vertex -0.75 13.5 5
      vertex -0.73361 13.6559 0
      vertex -0.73361 13.6559 5
    endloop
  endfacet
  facet normal 0.994519 -0.104555 0
    outer loop
      vertex -0.73361 13.6559 0
      vertex -0.75 13.5 5
      vertex -0.75 13.5 0
    endloop
  endfacet
  facet normal 0.994519 0.104555 0
    outer loop
      vertex -0.73361 13.3441 5
      vertex -0.75 13.5 0
      vertex -0.75 13.5 5
    endloop
  endfacet
  facet normal 0.994519 0.104555 0
    outer loop
      vertex -0.75 13.5 0
      vertex -0.73361 13.3441 5
      vertex -0.73361 13.3441 0
    endloop
  endfacet
  facet normal 0.743373 -0.668877 0
    outer loop
      vertex -0.606762 13.9408 5
      vertex -0.501847 14.0574 0
      vertex -0.501847 14.0574 5
    endloop
  endfacet
  facet normal 0.743373 -0.668877 0
    outer loop
      vertex -0.501847 14.0574 0
      vertex -0.606762 13.9408 5
      vertex -0.606762 13.9408 0
    endloop
  endfacet
  facet normal 0.406877 -0.913483 0
    outer loop
      vertex -0.375 14.1495 0
      vertex -0.231762 14.2133 5
      vertex -0.375 14.1495 5
    endloop
  endfacet
  facet normal 0.406877 -0.913483 0
    outer loop
      vertex -0.231762 14.2133 5
      vertex -0.375 14.1495 0
      vertex -0.231762 14.2133 0
    endloop
  endfacet
  facet normal -0.994519 0.104555 0
    outer loop
      vertex 0.73361 13.3441 0
      vertex 0.75 13.5 5
      vertex 0.75 13.5 0
    endloop
  endfacet
  facet normal -0.994519 0.104555 0
    outer loop
      vertex 0.75 13.5 5
      vertex 0.73361 13.3441 0
      vertex 0.73361 13.3441 5
    endloop
  endfacet
  facet normal -0.406877 0.913483 0
    outer loop
      vertex 0.375 12.8505 0
      vertex 0.231762 12.7867 5
      vertex 0.375 12.8505 5
    endloop
  endfacet
  facet normal -0.406877 0.913483 0
    outer loop
      vertex 0.231762 12.7867 5
      vertex 0.375 12.8505 0
      vertex 0.231762 12.7867 0
    endloop
  endfacet
  facet normal -0.951107 0.308861 0
    outer loop
      vertex 0.685159 13.1949 0
      vertex 0.73361 13.3441 5
      vertex 0.73361 13.3441 0
    endloop
  endfacet
  facet normal -0.951107 0.308861 0
    outer loop
      vertex 0.73361 13.3441 5
      vertex 0.685159 13.1949 0
      vertex 0.685159 13.1949 5
    endloop
  endfacet
  facet normal 0 0 -1
    outer loop
      vertex 0.73361 13.3441 5
      vertex 0.73361 13.6559 5
      vertex 0.75 13.5 5
    endloop
  endfacet
  facet normal 0 0 -1
    outer loop
      vertex 0.685159 13.1949 5
      vertex 0.73361 13.6559 5
      vertex 0.73361 13.3441 5
    endloop
  endfacet
  facet normal 0 0 -1
    outer loop
      vertex 0.685159 13.1949 5
      vertex 0.685159 13.8051 5
      vertex 0.73361 13.6559 5
    endloop
  endfacet
  facet normal 0 0 -1
    outer loop
      vertex 0.606762 13.0592 5
      vertex 0.685159 13.8051 5
      vertex 0.685159 13.1949 5
    endloop
  endfacet
  facet normal 0 0 -1
    outer loop
      vertex 0.606762 13.0592 5
      vertex 0.606762 13.9408 5
      vertex 0.685159 13.8051 5
    endloop
  endfacet
  facet normal 0 0 -1
    outer loop
      vertex 0.501847 12.9426 5
      vertex 0.606762 13.9408 5
      vertex 0.606762 13.0592 5
    endloop
  endfacet
  facet normal 0 0 -1
    outer loop
      vertex 0.501847 12.9426 5
      vertex 0.501847 14.0574 5
      vertex 0.606762 13.9408 5
    endloop
  endfacet
  facet normal 0 0 -1
    outer loop
      vertex 0.375 12.8505 5
      vertex 0.501847 14.0574 5
      vertex 0.501847 12.9426 5
    endloop
  endfacet
  facet normal 0 0 -1
    outer loop
      vertex 0.375 12.8505 5
      vertex 0.375 14.1495 5
      vertex 0.501847 14.0574 5
    endloop
  endfacet
  facet normal 0 0 -1
    outer loop
      vertex 0.231762 12.7867 5
      vertex 0.375 14.1495 5
      vertex 0.375 12.8505 5
    endloop
  endfacet
  facet normal 0 0 -1
    outer loop
      vertex 0.231762 12.7867 5
      vertex 0.231762 14.2133 5
      vertex 0.375 14.1495 5
    endloop
  endfacet
  facet normal 0 0 -1
    outer loop
      vertex 0.0783958 12.7541 5
      vertex 0.231762 14.2133 5
      vertex 0.231762 12.7867 5
    endloop
  endfacet
  facet normal 0 0 -1
    outer loop
      vertex 0.0783958 12.7541 5
      vertex 0.0783958 14.2459 5
      vertex 0.231762 14.2133 5
    endloop
  endfacet
  facet normal 0 0 -1
    outer loop
      vertex -0.0783958 12.7541 5
      vertex 0.0783958 14.2459 5
      vertex 0.0783958 12.7541 5
    endloop
  endfacet
  facet normal 0 0 -1
    outer loop
      vertex -0.0783958 12.7541 5
      vertex -0.0783958 14.2459 5
      vertex 0.0783958 14.2459 5
    endloop
  endfacet
  facet normal 0 0 -1
    outer loop
      vertex -0.231762 12.7867 5
      vertex -0.0783958 14.2459 5
      vertex -0.0783958 12.7541 5
    endloop
  endfacet
  facet normal 0 0 -1
    outer loop
      vertex -0.231762 12.7867 5
      vertex -0.231762 14.2133 5
      vertex -0.0783958 14.2459 5
    endloop
  endfacet
  facet normal 0 0 -1
    outer loop
      vertex -0.375 12.8505 5
      vertex -0.231762 14.2133 5
      vertex -0.231762 12.7867 5
    endloop
  endfacet
  facet normal 0 0 -1
    outer loop
      vertex -0.375 12.8505 5
      vertex -0.375 14.1495 5
      vertex -0.231762 14.2133 5
    endloop
  endfacet
  facet normal 0 0 -1
    outer loop
      vertex -0.501847 12.9426 5
      vertex -0.375 14.1495 5
      vertex -0.375 12.8505 5
    endloop
  endfacet
  facet normal 0 0 -1
    outer loop
      vertex -0.501847 12.9426 5
      vertex -0.501847 14.0574 5
      vertex -0.375 14.1495 5
    endloop
  endfacet
  facet normal 0 0 -1
    outer loop
      vertex -0.606762 13.0592 5
      vertex -0.501847 14.0574 5
      vertex -0.501847 12.9426 5
    endloop
  endfacet
  facet normal 0 0 -1
    outer loop
      vertex -0.606762 13.0592 5
      vertex -0.606762 13.9408 5
      vertex -0.501847 14.0574 5
    endloop
  endfacet
  facet normal 0 0 -1
    outer loop
      vertex -0.685159 13.1949 5
      vertex -0.606762 13.9408 5
      vertex -0.606762 13.0592 5
    endloop
  endfacet
  facet normal 0 0 -1
    outer loop
      vertex -0.685159 13.1949 5
      vertex -0.685159 13.8051 5
      vertex -0.606762 13.9408 5
    endloop
  endfacet
  facet normal 0 0 -1
    outer loop
      vertex -0.73361 13.3441 5
      vertex -0.685159 13.8051 5
      vertex -0.685159 13.1949 5
    endloop
  endfacet
  facet normal 0 0 -1
    outer loop
      vertex -0.73361 13.3441 5
      vertex -0.73361 13.6559 5
      vertex -0.685159 13.8051 5
    endloop
  endfacet
  facet normal 0 -0 -1
    outer loop
      vertex -0.73361 13.6559 5
      vertex -0.73361 13.3441 5
      vertex -0.75 13.5 5
    endloop
  endfacet
  facet normal 0.406877 0.913483 -0
    outer loop
      vertex -0.231762 12.7867 0
      vertex -0.375 12.8505 5
      vertex -0.231762 12.7867 5
    endloop
  endfacet
  facet normal 0.406877 0.913483 0
    outer loop
      vertex -0.375 12.8505 5
      vertex -0.231762 12.7867 0
      vertex -0.375 12.8505 0
    endloop
  endfacet
  facet normal 0.743373 0.668877 0
    outer loop
      vertex -0.501847 12.9426 5
      vertex -0.606762 13.0592 0
      vertex -0.606762 13.0592 5
    endloop
  endfacet
  facet normal 0.743373 0.668877 0
    outer loop
      vertex -0.606762 13.0592 0
      vertex -0.501847 12.9426 5
      vertex -0.501847 12.9426 0
    endloop
  endfacet
  facet normal -0.743373 0.668877 0
    outer loop
      vertex 0.501847 12.9426 0
      vertex 0.606762 13.0592 5
      vertex 0.606762 13.0592 0
    endloop
  endfacet
  facet normal -0.743373 0.668877 0
    outer loop
      vertex 0.606762 13.0592 5
      vertex 0.501847 12.9426 0
      vertex 0.501847 12.9426 5
    endloop
  endfacet
  facet normal -0.587536 0.809198 0
    outer loop
      vertex 0.501847 12.9426 0
      vertex 0.375 12.8505 5
      vertex 0.501847 12.9426 5
    endloop
  endfacet
  facet normal -0.587536 0.809198 0
    outer loop
      vertex 0.375 12.8505 5
      vertex 0.501847 12.9426 0
      vertex 0.375 12.8505 0
    endloop
  endfacet
  facet normal 0 1 -0
    outer loop
      vertex 0.0783958 12.7541 0
      vertex -0.0783958 12.7541 5
      vertex 0.0783958 12.7541 5
    endloop
  endfacet
  facet normal 0 1 0
    outer loop
      vertex -0.0783958 12.7541 5
      vertex 0.0783958 12.7541 0
      vertex -0.0783958 12.7541 0
    endloop
  endfacet
  facet normal 0.207918 0.978146 -0
    outer loop
      vertex -0.0783958 12.7541 0
      vertex -0.231762 12.7867 5
      vertex -0.0783958 12.7541 5
    endloop
  endfacet
  facet normal 0.207918 0.978146 0
    outer loop
      vertex -0.231762 12.7867 5
      vertex -0.0783958 12.7541 0
      vertex -0.231762 12.7867 0
    endloop
  endfacet
  facet normal 0.587536 0.809198 -0
    outer loop
      vertex -0.375 12.8505 0
      vertex -0.501847 12.9426 5
      vertex -0.375 12.8505 5
    endloop
  endfacet
  facet normal 0.587536 0.809198 0
    outer loop
      vertex -0.501847 12.9426 5
      vertex -0.375 12.8505 0
      vertex -0.501847 12.9426 0
    endloop
  endfacet
  facet normal 0.865886 0.500242 0
    outer loop
      vertex -0.606762 13.0592 5
      vertex -0.685159 13.1949 0
      vertex -0.685159 13.1949 5
    endloop
  endfacet
  facet normal 0.865886 0.500242 0
    outer loop
      vertex -0.685159 13.1949 0
      vertex -0.606762 13.0592 5
      vertex -0.606762 13.0592 0
    endloop
  endfacet
  facet normal 0.951107 0.308861 0
    outer loop
      vertex -0.685159 13.1949 5
      vertex -0.73361 13.3441 0
      vertex -0.73361 13.3441 5
    endloop
  endfacet
  facet normal 0.951107 0.308861 0
    outer loop
      vertex -0.73361 13.3441 0
      vertex -0.685159 13.1949 5
      vertex -0.685159 13.1949 0
    endloop
  endfacet
endsolid OpenSCAD_Model
