solid OpenSCAD_Model
  facet normal 0.994521 0.104533 0
    outer loop
      vertex 15 0 0
      vertex 14.6722 3.11868 -4
      vertex 14.6722 3.11868 0
    endloop
  endfacet
  facet normal 0.994521 0.104533 0
    outer loop
      vertex 14.6722 3.11868 -4
      vertex 15 0 0
      vertex 15 0 -4
    endloop
  endfacet
  facet normal -0.994521 0.104533 0
    outer loop
      vertex -15 0 -4
      vertex -14.6722 3.11868 0
      vertex -14.6722 3.11868 -4
    endloop
  endfacet
  facet normal -0.994521 0.104533 0
    outer loop
      vertex -14.6722 3.11868 0
      vertex -15 0 -4
      vertex -15 0 0
    endloop
  endfacet
  facet normal 0 1 -0
    outer loop
      vertex 1.56793 14.9178 -4
      vertex -1.56793 14.9178 0
      vertex 1.56793 14.9178 0
    endloop
  endfacet
  facet normal 0 1 0
    outer loop
      vertex -1.56793 14.9178 0
      vertex 1.56793 14.9178 -4
      vertex -1.56793 14.9178 -4
    endloop
  endfacet
  facet normal 0.743148 0.669127 0
    outer loop
      vertex 12.1353 8.81678 0
      vertex 10.037 11.1472 -4
      vertex 10.037 11.1472 0
    endloop
  endfacet
  facet normal 0.743148 0.669127 0
    outer loop
      vertex 10.037 11.1472 -4
      vertex 12.1353 8.81678 0
      vertex 12.1353 8.81678 -4
    endloop
  endfacet
  facet normal -0.587777 0.809023 0
    outer loop
      vertex -7.5 12.9904 -4
      vertex -10.037 11.1472 0
      vertex -7.5 12.9904 0
    endloop
  endfacet
  facet normal -0.587777 0.809023 0
    outer loop
      vertex -10.037 11.1472 0
      vertex -7.5 12.9904 -4
      vertex -10.037 11.1472 -4
    endloop
  endfacet
  facet normal -0.207918 0.978146 0
    outer loop
      vertex -1.56793 14.9178 -4
      vertex -4.63525 14.2658 0
      vertex -1.56793 14.9178 0
    endloop
  endfacet
  facet normal -0.207918 0.978146 0
    outer loop
      vertex -4.63525 14.2658 0
      vertex -1.56793 14.9178 -4
      vertex -4.63525 14.2658 -4
    endloop
  endfacet
  facet normal 0.866029 0.499993 0
    outer loop
      vertex 13.7032 6.10105 0
      vertex 12.1353 8.81678 -4
      vertex 12.1353 8.81678 0
    endloop
  endfacet
  facet normal 0.866029 0.499993 0
    outer loop
      vertex 12.1353 8.81678 -4
      vertex 13.7032 6.10105 0
      vertex 13.7032 6.10105 -4
    endloop
  endfacet
  facet normal 0.951059 0.309008 0
    outer loop
      vertex 14.6722 3.11868 0
      vertex 13.7032 6.10105 -4
      vertex 13.7032 6.10105 0
    endloop
  endfacet
  facet normal 0.951059 0.309008 0
    outer loop
      vertex 13.7032 6.10105 -4
      vertex 14.6722 3.11868 0
      vertex 14.6722 3.11868 -4
    endloop
  endfacet
  facet normal 0.406718 0.913554 -0
    outer loop
      vertex 7.5 12.9904 -4
      vertex 4.63525 14.2658 0
      vertex 7.5 12.9904 0
    endloop
  endfacet
  facet normal 0.406718 0.913554 0
    outer loop
      vertex 4.63525 14.2658 0
      vertex 7.5 12.9904 -4
      vertex 4.63525 14.2658 -4
    endloop
  endfacet
  facet normal 0.207918 0.978146 -0
    outer loop
      vertex 4.63525 14.2658 -4
      vertex 1.56793 14.9178 0
      vertex 4.63525 14.2658 0
    endloop
  endfacet
  facet normal 0.207918 0.978146 0
    outer loop
      vertex 1.56793 14.9178 0
      vertex 4.63525 14.2658 -4
      vertex 1.56793 14.9178 -4
    endloop
  endfacet
  facet normal 0.587777 0.809023 -0
    outer loop
      vertex 10.037 11.1472 -4
      vertex 7.5 12.9904 0
      vertex 10.037 11.1472 0
    endloop
  endfacet
  facet normal 0.587777 0.809023 0
    outer loop
      vertex 7.5 12.9904 0
      vertex 10.037 11.1472 -4
      vertex 7.5 12.9904 -4
    endloop
  endfacet
  facet normal -0.866029 0.499993 0
    outer loop
      vertex -13.7032 6.10105 -4
      vertex -12.1353 8.81678 0
      vertex -12.1353 8.81678 -4
    endloop
  endfacet
  facet normal -0.866029 0.499993 0
    outer loop
      vertex -12.1353 8.81678 0
      vertex -13.7032 6.10105 -4
      vertex -13.7032 6.10105 0
    endloop
  endfacet
  facet normal -0.743148 0.669127 0
    outer loop
      vertex -12.1353 8.81678 -4
      vertex -10.037 11.1472 0
      vertex -10.037 11.1472 -4
    endloop
  endfacet
  facet normal -0.743148 0.669127 0
    outer loop
      vertex -10.037 11.1472 0
      vertex -12.1353 8.81678 -4
      vertex -12.1353 8.81678 0
    endloop
  endfacet
  facet normal -0.951059 0.309008 0
    outer loop
      vertex -14.6722 3.11868 -4
      vertex -13.7032 6.10105 0
      vertex -13.7032 6.10105 -4
    endloop
  endfacet
  facet normal -0.951059 0.309008 0
    outer loop
      vertex -13.7032 6.10105 0
      vertex -14.6722 3.11868 -4
      vertex -14.6722 3.11868 0
    endloop
  endfacet
  facet normal -0 0 1
    outer loop
      vertex -11.0219 -19.7921 0
      vertex -9.5 -20 0
      vertex -10.5365 -18.5734 0
    endloop
  endfacet
  facet normal 0 0 1
    outer loop
      vertex -11.0219 -20.2079 0
      vertex -9.5 -20 0
      vertex -11 -20 0
    endloop
  endfacet
  facet normal 0 0 1
    outer loop
      vertex -9.5 -20 0
      vertex -11.0219 -19.7921 0
      vertex -11 -20 0
    endloop
  endfacet
  facet normal 0 0 1
    outer loop
      vertex -10.5365 -18.5734 0
      vertex -11.0865 -19.5933 0
      vertex -11.0219 -19.7921 0
    endloop
  endfacet
  facet normal 0 0 1
    outer loop
      vertex -10.5365 -18.5734 0
      vertex -11.191 -19.4122 0
      vertex -11.0865 -19.5933 0
    endloop
  endfacet
  facet normal 0 0 1
    outer loop
      vertex -10.5365 -18.5734 0
      vertex -11.3309 -19.2569 0
      vertex -11.191 -19.4122 0
    endloop
  endfacet
  facet normal -0 0 1
    outer loop
      vertex -11.5 -18.8865 0
      vertex -11.3309 -19.2569 0
      vertex -10.5365 -18.5734 0
    endloop
  endfacet
  facet normal 0 0 1
    outer loop
      vertex -11.3309 -19.2569 0
      vertex -11.5 -18.8865 0
      vertex -11.5 -19.134 0
    endloop
  endfacet
  facet normal 0 0 1
    outer loop
      vertex -9.5 -20 0
      vertex -11.0219 -20.2079 0
      vertex -10.5365 -21.4266 0
    endloop
  endfacet
  facet normal -0 0 1
    outer loop
      vertex -11.0865 -20.4067 0
      vertex -10.5365 -21.4266 0
      vertex -11.0219 -20.2079 0
    endloop
  endfacet
  facet normal -0 0 1
    outer loop
      vertex -11.191 -20.5878 0
      vertex -10.5365 -21.4266 0
      vertex -11.0865 -20.4067 0
    endloop
  endfacet
  facet normal -0 0 1
    outer loop
      vertex -11.3309 -20.7431 0
      vertex -10.5365 -21.4266 0
      vertex -11.191 -20.5878 0
    endloop
  endfacet
  facet normal 0 0 1
    outer loop
      vertex -11.5 -21.1135 0
      vertex -11.3309 -20.7431 0
      vertex -11.5 -20.866 0
    endloop
  endfacet
  facet normal 0 0 1
    outer loop
      vertex -11.3309 -20.7431 0
      vertex -11.5 -21.1135 0
      vertex -10.5365 -21.4266 0
    endloop
  endfacet
  facet normal -0 0 1
    outer loop
      vertex -11.691 -20.9511 0
      vertex -11.5 -21.1135 0
      vertex -11.5 -20.866 0
    endloop
  endfacet
  facet normal -0 0 1
    outer loop
      vertex -11.8955 -20.9945 0
      vertex -11.5 -21.1135 0
      vertex -11.691 -20.9511 0
    endloop
  endfacet
  facet normal -0 0 1
    outer loop
      vertex -12.1045 -20.9945 0
      vertex -11.5 -21.1135 0
      vertex -11.8955 -20.9945 0
    endloop
  endfacet
  facet normal 0 0 1
    outer loop
      vertex -11.5 -21.1135 0
      vertex -12.1045 -20.9945 0
      vertex -11.5 -30 0
    endloop
  endfacet
  facet normal 0 0 1
    outer loop
      vertex -12.309 -20.9511 0
      vertex -11.5 -30 0
      vertex -12.1045 -20.9945 0
    endloop
  endfacet
  facet normal 0 0 1
    outer loop
      vertex -15 -30 0
      vertex -12.309 -20.9511 0
      vertex -12.5 -20.866 0
    endloop
  endfacet
  facet normal 0 0 1
    outer loop
      vertex -15 -30 0
      vertex -12.5 -20.866 0
      vertex -12.6691 -20.7431 0
    endloop
  endfacet
  facet normal 0 0 1
    outer loop
      vertex -15 -30 0
      vertex -12.6691 -20.7431 0
      vertex -12.809 -20.5878 0
    endloop
  endfacet
  facet normal 0 0 1
    outer loop
      vertex -15 -30 0
      vertex -12.809 -20.5878 0
      vertex -12.9135 -20.4067 0
    endloop
  endfacet
  facet normal 0 0 1
    outer loop
      vertex -15 -30 0
      vertex -12.9135 -20.4067 0
      vertex -12.9781 -20.2079 0
    endloop
  endfacet
  facet normal 0 0 1
    outer loop
      vertex -12.9135 -19.5933 0
      vertex -15 0 0
      vertex -12.9781 -19.7921 0
    endloop
  endfacet
  facet normal 0 0 1
    outer loop
      vertex -12.9781 -19.7921 0
      vertex -15 0 0
      vertex -13 -20 0
    endloop
  endfacet
  facet normal 0 0 1
    outer loop
      vertex -12.309 -20.9511 0
      vertex -15 -30 0
      vertex -11.5 -30 0
    endloop
  endfacet
  facet normal 0 0 1
    outer loop
      vertex -13 -20 0
      vertex -15 -30 0
      vertex -12.9781 -20.2079 0
    endloop
  endfacet
  facet normal 0 0 1
    outer loop
      vertex -15 -30 0
      vertex -13 -20 0
      vertex -15 0 0
    endloop
  endfacet
  facet normal 0 0 1
    outer loop
      vertex 1.56793 14.9178 0
      vertex 0.978148 13.7079 0
      vertex 1 13.5 0
    endloop
  endfacet
  facet normal 0 0 1
    outer loop
      vertex 1.56793 14.9178 0
      vertex 0.913545 13.9067 0
      vertex 0.978148 13.7079 0
    endloop
  endfacet
  facet normal 0 0 1
    outer loop
      vertex 1.56793 14.9178 0
      vertex 0.809016 14.0878 0
      vertex 0.913545 13.9067 0
    endloop
  endfacet
  facet normal 0 0 1
    outer loop
      vertex 1.56793 14.9178 0
      vertex 0.66913 14.2431 0
      vertex 0.809016 14.0878 0
    endloop
  endfacet
  facet normal 0 0 1
    outer loop
      vertex 1.56793 14.9178 0
      vertex 0.5 14.366 0
      vertex 0.66913 14.2431 0
    endloop
  endfacet
  facet normal 0 0 1
    outer loop
      vertex 1.56793 14.9178 0
      vertex 0.309016 14.4511 0
      vertex 0.5 14.366 0
    endloop
  endfacet
  facet normal 0 0 1
    outer loop
      vertex 1.56793 14.9178 0
      vertex 0.104528 14.4945 0
      vertex 0.309016 14.4511 0
    endloop
  endfacet
  facet normal 0 0 1
    outer loop
      vertex 1.56793 14.9178 0
      vertex -0.104528 14.4945 0
      vertex 0.104528 14.4945 0
    endloop
  endfacet
  facet normal -0 0 1
    outer loop
      vertex -1.56793 14.9178 0
      vertex -0.104528 14.4945 0
      vertex 1.56793 14.9178 0
    endloop
  endfacet
  facet normal 0 0 1
    outer loop
      vertex -0.978148 13.7079 0
      vertex -1.56793 14.9178 0
      vertex -1 13.5 0
    endloop
  endfacet
  facet normal 0 0 1
    outer loop
      vertex -0.913545 13.9067 0
      vertex -1.56793 14.9178 0
      vertex -0.978148 13.7079 0
    endloop
  endfacet
  facet normal 0 0 1
    outer loop
      vertex -0.809016 14.0878 0
      vertex -1.56793 14.9178 0
      vertex -0.913545 13.9067 0
    endloop
  endfacet
  facet normal 0 0 1
    outer loop
      vertex -0.66913 14.2431 0
      vertex -1.56793 14.9178 0
      vertex -0.809016 14.0878 0
    endloop
  endfacet
  facet normal 0 0 1
    outer loop
      vertex -0.5 14.366 0
      vertex -1.56793 14.9178 0
      vertex -0.66913 14.2431 0
    endloop
  endfacet
  facet normal 0 0 1
    outer loop
      vertex -0.309016 14.4511 0
      vertex -1.56793 14.9178 0
      vertex -0.5 14.366 0
    endloop
  endfacet
  facet normal 0 0 1
    outer loop
      vertex -0.104528 14.4945 0
      vertex -1.56793 14.9178 0
      vertex -0.309016 14.4511 0
    endloop
  endfacet
  facet normal 0 0 1
    outer loop
      vertex 0.66913 12.7569 0
      vertex 7.5 12.9904 0
      vertex 4.63525 14.2658 0
    endloop
  endfacet
  facet normal 0 0 1
    outer loop
      vertex 1 13.5 0
      vertex 4.63525 14.2658 0
      vertex 1.56793 14.9178 0
    endloop
  endfacet
  facet normal 0 0 1
    outer loop
      vertex 4.63525 14.2658 0
      vertex 1 13.5 0
      vertex 0.978148 13.2921 0
    endloop
  endfacet
  facet normal 0 0 1
    outer loop
      vertex 0.913545 13.0933 0
      vertex 4.63525 14.2658 0
      vertex 0.978148 13.2921 0
    endloop
  endfacet
  facet normal 0 0 1
    outer loop
      vertex 0.809016 12.9122 0
      vertex 4.63525 14.2658 0
      vertex 0.913545 13.0933 0
    endloop
  endfacet
  facet normal 0 0 1
    outer loop
      vertex 0.66913 12.7569 0
      vertex 4.63525 14.2658 0
      vertex 0.809016 12.9122 0
    endloop
  endfacet
  facet normal 0 0 1
    outer loop
      vertex 7.5 12.9904 0
      vertex 0.66913 12.7569 0
      vertex 5.5 1.7 0
    endloop
  endfacet
  facet normal -0 0 1
    outer loop
      vertex 0.5 12.634 0
      vertex 5.5 1.7 0
      vertex 0.66913 12.7569 0
    endloop
  endfacet
  facet normal -0 0 1
    outer loop
      vertex 0.309016 12.5489 0
      vertex 5.5 1.7 0
      vertex 0.5 12.634 0
    endloop
  endfacet
  facet normal -0 0 1
    outer loop
      vertex 0.104528 12.5055 0
      vertex 5.5 1.7 0
      vertex 0.309016 12.5489 0
    endloop
  endfacet
  facet normal -0 0 1
    outer loop
      vertex -0.104528 12.5055 0
      vertex 5.5 1.7 0
      vertex 0.104528 12.5055 0
    endloop
  endfacet
  facet normal 0 0 1
    outer loop
      vertex -5.5 1.7 0
      vertex -0.104528 12.5055 0
      vertex -0.309016 12.5489 0
    endloop
  endfacet
  facet normal 0 0 1
    outer loop
      vertex -5.5 1.7 0
      vertex -0.309016 12.5489 0
      vertex -0.5 12.634 0
    endloop
  endfacet
  facet normal 0 0 1
    outer loop
      vertex -5.5 1.7 0
      vertex -0.5 12.634 0
      vertex -0.66913 12.7569 0
    endloop
  endfacet
  facet normal 0 0 1
    outer loop
      vertex -4.63525 14.2658 0
      vertex -0.66913 12.7569 0
      vertex -0.809016 12.9122 0
    endloop
  endfacet
  facet normal 0 0 1
    outer loop
      vertex -4.63525 14.2658 0
      vertex -0.809016 12.9122 0
      vertex -0.913545 13.0933 0
    endloop
  endfacet
  facet normal -0 0 1
    outer loop
      vertex -4.63525 14.2658 0
      vertex -1 13.5 0
      vertex -1.56793 14.9178 0
    endloop
  endfacet
  facet normal 0 0 1
    outer loop
      vertex -1 13.5 0
      vertex -4.63525 14.2658 0
      vertex -0.978148 13.2921 0
    endloop
  endfacet
  facet normal 0 0 1
    outer loop
      vertex -0.978148 13.2921 0
      vertex -4.63525 14.2658 0
      vertex -0.913545 13.0933 0
    endloop
  endfacet
  facet normal 0 0 1
    outer loop
      vertex -0.66913 12.7569 0
      vertex -4.63525 14.2658 0
      vertex -7.5 12.9904 0
    endloop
  endfacet
  facet normal 0 0 1
    outer loop
      vertex -0.104528 12.5055 0
      vertex -5.5 1.7 0
      vertex 5.5 1.7 0
    endloop
  endfacet
  facet normal 0 0 1
    outer loop
      vertex -0.66913 12.7569 0
      vertex -7.5 12.9904 0
      vertex -5.5 1.7 0
    endloop
  endfacet
  facet normal -0 0 1
    outer loop
      vertex -10.037 11.1472 0
      vertex -5.5 1.7 0
      vertex -7.5 12.9904 0
    endloop
  endfacet
  facet normal -0 0 1
    outer loop
      vertex -12.1353 8.81678 0
      vertex -5.5 1.7 0
      vertex -10.037 11.1472 0
    endloop
  endfacet
  facet normal -0 0 1
    outer loop
      vertex -13.7032 6.10105 0
      vertex -5.5 1.7 0
      vertex -12.1353 8.81678 0
    endloop
  endfacet
  facet normal -0 0 1
    outer loop
      vertex -15 0 0
      vertex -11.5 -18.8865 0
      vertex -11.5 0.5 0
    endloop
  endfacet
  facet normal 0 0 1
    outer loop
      vertex -11.5 -18.8865 0
      vertex -11.691 -19.0489 0
      vertex -11.5 -19.134 0
    endloop
  endfacet
  facet normal 0 0 1
    outer loop
      vertex -11.5 -18.8865 0
      vertex -11.8955 -19.0055 0
      vertex -11.691 -19.0489 0
    endloop
  endfacet
  facet normal 0 0 1
    outer loop
      vertex -11.5 -18.8865 0
      vertex -12.1045 -19.0055 0
      vertex -11.8955 -19.0055 0
    endloop
  endfacet
  facet normal 0 0 1
    outer loop
      vertex -5.5 1.7 0
      vertex -11.5 0.5 0
      vertex -5.5 0.5 0
    endloop
  endfacet
  facet normal 0 0 1
    outer loop
      vertex -5.5 1.7 0
      vertex -13.7032 6.10105 0
      vertex -11.5 0.5 0
    endloop
  endfacet
  facet normal -0 0 1
    outer loop
      vertex -14.6722 3.11868 0
      vertex -11.5 0.5 0
      vertex -13.7032 6.10105 0
    endloop
  endfacet
  facet normal 0 0 1
    outer loop
      vertex -11.5 -18.8865 0
      vertex -15 0 0
      vertex -12.1045 -19.0055 0
    endloop
  endfacet
  facet normal 0 0 1
    outer loop
      vertex -12.1045 -19.0055 0
      vertex -15 0 0
      vertex -12.309 -19.0489 0
    endloop
  endfacet
  facet normal 0 0 1
    outer loop
      vertex -12.309 -19.0489 0
      vertex -15 0 0
      vertex -12.5 -19.134 0
    endloop
  endfacet
  facet normal 0 0 1
    outer loop
      vertex -15 0 0
      vertex -11.5 0.5 0
      vertex -14.6722 3.11868 0
    endloop
  endfacet
  facet normal 0 0 1
    outer loop
      vertex -12.5 -19.134 0
      vertex -15 0 0
      vertex -12.6691 -19.2569 0
    endloop
  endfacet
  facet normal 0 0 1
    outer loop
      vertex -12.6691 -19.2569 0
      vertex -15 0 0
      vertex -12.809 -19.4122 0
    endloop
  endfacet
  facet normal 0 0 1
    outer loop
      vertex -12.809 -19.4122 0
      vertex -15 0 0
      vertex -12.9135 -19.5933 0
    endloop
  endfacet
  facet normal 0 0 1
    outer loop
      vertex 11.3309 -20.7431 0
      vertex 11.5 -21.3764 0
      vertex 11.5 -20.866 0
    endloop
  endfacet
  facet normal 0 0 1
    outer loop
      vertex 11.5 -21.3764 0
      vertex 11.3309 -20.7431 0
      vertex 11.4635 -21.4266 0
    endloop
  endfacet
  facet normal 0 0 1
    outer loop
      vertex 11.191 -20.5878 0
      vertex 11.4635 -21.4266 0
      vertex 11.3309 -20.7431 0
    endloop
  endfacet
  facet normal 0 0 1
    outer loop
      vertex 9.78647 -20.8817 0
      vertex 11.191 -20.5878 0
      vertex 11.0865 -20.4067 0
    endloop
  endfacet
  facet normal 0 0 1
    outer loop
      vertex 9.78647 -20.8817 0
      vertex 11 -20 0
      vertex 9.78647 -19.1183 0
    endloop
  endfacet
  facet normal 0 0 1
    outer loop
      vertex 11 -20 0
      vertex 9.78647 -20.8817 0
      vertex 11.0219 -20.2079 0
    endloop
  endfacet
  facet normal 0 0 1
    outer loop
      vertex 11.0219 -20.2079 0
      vertex 9.78647 -20.8817 0
      vertex 11.0865 -20.4067 0
    endloop
  endfacet
  facet normal 0 0 1
    outer loop
      vertex 11.191 -20.5878 0
      vertex 9.78647 -20.8817 0
      vertex 11.4635 -21.4266 0
    endloop
  endfacet
  facet normal 0 0 1
    outer loop
      vertex 15 0 0
      vertex 12.9781 -19.7921 0
      vertex 13 -20 0
    endloop
  endfacet
  facet normal 0 0 1
    outer loop
      vertex 15 0 0
      vertex 12.9135 -19.5933 0
      vertex 12.9781 -19.7921 0
    endloop
  endfacet
  facet normal 0 0 1
    outer loop
      vertex 11.5 -18.6236 0
      vertex 15 0 0
      vertex 11.5 0.5 0
    endloop
  endfacet
  facet normal 0 0 1
    outer loop
      vertex 15 0 0
      vertex 12.809 -19.4122 0
      vertex 12.9135 -19.5933 0
    endloop
  endfacet
  facet normal 0 0 1
    outer loop
      vertex 15 0 0
      vertex 12.6691 -19.2569 0
      vertex 12.809 -19.4122 0
    endloop
  endfacet
  facet normal 0 0 1
    outer loop
      vertex 15 0 0
      vertex 12.5 -19.134 0
      vertex 12.6691 -19.2569 0
    endloop
  endfacet
  facet normal 0 0 1
    outer loop
      vertex 5.5 1.7 0
      vertex 13.7032 6.10105 0
      vertex 12.1353 8.81678 0
    endloop
  endfacet
  facet normal 0 0 1
    outer loop
      vertex 15 0 0
      vertex 11.5 -18.6236 0
      vertex 12.5 -19.134 0
    endloop
  endfacet
  facet normal 0 0 1
    outer loop
      vertex 12.5 -19.134 0
      vertex 11.5 -18.6236 0
      vertex 12.309 -19.0489 0
    endloop
  endfacet
  facet normal 0 0 1
    outer loop
      vertex 12.309 -19.0489 0
      vertex 11.5 -18.6236 0
      vertex 12.1045 -19.0055 0
    endloop
  endfacet
  facet normal 0 0 1
    outer loop
      vertex 12.1045 -19.0055 0
      vertex 11.5 -18.6236 0
      vertex 11.8955 -19.0055 0
    endloop
  endfacet
  facet normal 0 0 1
    outer loop
      vertex 5.5 1.7 0
      vertex 12.1353 8.81678 0
      vertex 10.037 11.1472 0
    endloop
  endfacet
  facet normal 0 0 1
    outer loop
      vertex 5.5 1.7 0
      vertex 10.037 11.1472 0
      vertex 7.5 12.9904 0
    endloop
  endfacet
  facet normal 0 0 1
    outer loop
      vertex 13.7032 6.10105 0
      vertex 5.5 1.7 0
      vertex 11.5 0.5 0
    endloop
  endfacet
  facet normal 0 0 1
    outer loop
      vertex 11.5 0.5 0
      vertex 5.5 1.7 0
      vertex 5.5 0.5 0
    endloop
  endfacet
  facet normal 0 0 1
    outer loop
      vertex 11.5 0.5 0
      vertex 14.6722 3.11868 0
      vertex 13.7032 6.10105 0
    endloop
  endfacet
  facet normal 0 0 1
    outer loop
      vertex 14.6722 3.11868 0
      vertex 11.5 0.5 0
      vertex 15 0 0
    endloop
  endfacet
  facet normal 0 0 1
    outer loop
      vertex 15 0 0
      vertex 13 -20 0
      vertex 15 -30 0
    endloop
  endfacet
  facet normal -0 0 1
    outer loop
      vertex 12.9781 -20.2079 0
      vertex 15 -30 0
      vertex 13 -20 0
    endloop
  endfacet
  facet normal -0 0 1
    outer loop
      vertex 12.9135 -20.4067 0
      vertex 15 -30 0
      vertex 12.9781 -20.2079 0
    endloop
  endfacet
  facet normal -0 0 1
    outer loop
      vertex 12.809 -20.5878 0
      vertex 15 -30 0
      vertex 12.9135 -20.4067 0
    endloop
  endfacet
  facet normal -0 0 1
    outer loop
      vertex 12.6691 -20.7431 0
      vertex 15 -30 0
      vertex 12.809 -20.5878 0
    endloop
  endfacet
  facet normal -0 0 1
    outer loop
      vertex 12.5 -20.866 0
      vertex 15 -30 0
      vertex 12.6691 -20.7431 0
    endloop
  endfacet
  facet normal -0 0 1
    outer loop
      vertex 12.309 -20.9511 0
      vertex 15 -30 0
      vertex 12.5 -20.866 0
    endloop
  endfacet
  facet normal 0 0 1
    outer loop
      vertex 11.5 -21.3764 0
      vertex 12.309 -20.9511 0
      vertex 12.1045 -20.9945 0
    endloop
  endfacet
  facet normal 0 0 1
    outer loop
      vertex 11.5 -21.3764 0
      vertex 12.1045 -20.9945 0
      vertex 11.8955 -20.9945 0
    endloop
  endfacet
  facet normal 0 0 1
    outer loop
      vertex 11.5 -21.3764 0
      vertex 11.8955 -20.9945 0
      vertex 11.691 -20.9511 0
    endloop
  endfacet
  facet normal 0 0 1
    outer loop
      vertex 11.5 -21.3764 0
      vertex 11.691 -20.9511 0
      vertex 11.5 -20.866 0
    endloop
  endfacet
  facet normal 0 0 1
    outer loop
      vertex 12.309 -20.9511 0
      vertex 11.5 -21.3764 0
      vertex 15 -30 0
    endloop
  endfacet
  facet normal 0 0 1
    outer loop
      vertex 15 -30 0
      vertex 11.5 -21.3764 0
      vertex 11.5 -30 0
    endloop
  endfacet
  facet normal 0 0 1
    outer loop
      vertex 11.8955 -19.0055 0
      vertex 11.5 -18.6236 0
      vertex 11.691 -19.0489 0
    endloop
  endfacet
  facet normal 0 0 1
    outer loop
      vertex 11.5 -18.6236 0
      vertex 11.5 -19.134 0
      vertex 11.691 -19.0489 0
    endloop
  endfacet
  facet normal 0 0 1
    outer loop
      vertex 11.3309 -19.2569 0
      vertex 11.5 -18.6236 0
      vertex 11.4635 -18.5734 0
    endloop
  endfacet
  facet normal 0 0 1
    outer loop
      vertex 11.5 -18.6236 0
      vertex 11.3309 -19.2569 0
      vertex 11.5 -19.134 0
    endloop
  endfacet
  facet normal 0 0 1
    outer loop
      vertex 11.4635 -18.5734 0
      vertex 11.191 -19.4122 0
      vertex 11.3309 -19.2569 0
    endloop
  endfacet
  facet normal -0 0 1
    outer loop
      vertex 9.78647 -19.1183 0
      vertex 11.191 -19.4122 0
      vertex 11.4635 -18.5734 0
    endloop
  endfacet
  facet normal 0 0 1
    outer loop
      vertex 11.0219 -19.7921 0
      vertex 9.78647 -19.1183 0
      vertex 11 -20 0
    endloop
  endfacet
  facet normal 0 0 1
    outer loop
      vertex 11.0865 -19.5933 0
      vertex 9.78647 -19.1183 0
      vertex 11.0219 -19.7921 0
    endloop
  endfacet
  facet normal 0 0 1
    outer loop
      vertex 11.191 -19.4122 0
      vertex 9.78647 -19.1183 0
      vertex 11.0865 -19.5933 0
    endloop
  endfacet
  facet normal -0.406718 0.913554 0
    outer loop
      vertex -4.63525 14.2658 -4
      vertex -7.5 12.9904 0
      vertex -4.63525 14.2658 0
    endloop
  endfacet
  facet normal -0.406718 0.913554 0
    outer loop
      vertex -7.5 12.9904 0
      vertex -4.63525 14.2658 -4
      vertex -7.5 12.9904 -4
    endloop
  endfacet
  facet normal 0 0 -1
    outer loop
      vertex 12.9781 -19.7921 -4
      vertex 15 0 -4
      vertex 15 -30 -4
    endloop
  endfacet
  facet normal 0 0 -1
    outer loop
      vertex 12.9135 -19.5933 -4
      vertex 15 0 -4
      vertex 12.9781 -19.7921 -4
    endloop
  endfacet
  facet normal 0 0 -1
    outer loop
      vertex 12.9781 -19.7921 -4
      vertex 15 -30 -4
      vertex 13 -20 -4
    endloop
  endfacet
  facet normal 0 0 -1
    outer loop
      vertex 15 -30 -4
      vertex 12.9781 -20.2079 -4
      vertex 13 -20 -4
    endloop
  endfacet
  facet normal 0 0 -1
    outer loop
      vertex 15 -30 -4
      vertex 12.9135 -20.4067 -4
      vertex 12.9781 -20.2079 -4
    endloop
  endfacet
  facet normal 0 0 -1
    outer loop
      vertex 15 -30 -4
      vertex 12.809 -20.5878 -4
      vertex 12.9135 -20.4067 -4
    endloop
  endfacet
  facet normal 0 0 -1
    outer loop
      vertex 15 -30 -4
      vertex 12.6691 -20.7431 -4
      vertex 12.809 -20.5878 -4
    endloop
  endfacet
  facet normal 0 0 -1
    outer loop
      vertex 15 -30 -4
      vertex 12.5 -20.866 -4
      vertex 12.6691 -20.7431 -4
    endloop
  endfacet
  facet normal 0 0 -1
    outer loop
      vertex 15 -30 -4
      vertex 12.309 -20.9511 -4
      vertex 12.5 -20.866 -4
    endloop
  endfacet
  facet normal 0 0 -1
    outer loop
      vertex 15 -30 -4
      vertex 12.1045 -20.9945 -4
      vertex 12.309 -20.9511 -4
    endloop
  endfacet
  facet normal 0 0 -1
    outer loop
      vertex 15 -30 -4
      vertex 11.8955 -20.9945 -4
      vertex 12.1045 -20.9945 -4
    endloop
  endfacet
  facet normal 0 0 -1
    outer loop
      vertex 15 -30 -4
      vertex 11.691 -20.9511 -4
      vertex 11.8955 -20.9945 -4
    endloop
  endfacet
  facet normal 0 0 -1
    outer loop
      vertex 15 -30 -4
      vertex 11.5 -20.866 -4
      vertex 11.691 -20.9511 -4
    endloop
  endfacet
  facet normal 0 0 -1
    outer loop
      vertex 15 -30 -4
      vertex 11.3309 -20.7431 -4
      vertex 11.5 -20.866 -4
    endloop
  endfacet
  facet normal 0 0 -1
    outer loop
      vertex 15 -30 -4
      vertex 11.191 -20.5878 -4
      vertex 11.3309 -20.7431 -4
    endloop
  endfacet
  facet normal 0 0 -1
    outer loop
      vertex -11.191 -20.5878 -4
      vertex 11.191 -20.5878 -4
      vertex 15 -30 -4
    endloop
  endfacet
  facet normal 0 0 -1
    outer loop
      vertex 13.7032 6.10105 -4
      vertex 7.5 12.9904 -4
      vertex 10.037 11.1472 -4
    endloop
  endfacet
  facet normal 0 0 -1
    outer loop
      vertex -11 -20 -4
      vertex 11 -20 -4
      vertex 11.0219 -20.2079 -4
    endloop
  endfacet
  facet normal 0 0 -1
    outer loop
      vertex 11.0219 -19.7921 -4
      vertex 0.309016 12.5489 -4
      vertex 7.5 12.9904 -4
    endloop
  endfacet
  facet normal 0 -0 -1
    outer loop
      vertex 0.66913 12.7569 -4
      vertex 7.5 12.9904 -4
      vertex 0.5 12.634 -4
    endloop
  endfacet
  facet normal 0 -0 -1
    outer loop
      vertex 1 13.5 -4
      vertex 4.63525 14.2658 -4
      vertex 0.978148 13.2921 -4
    endloop
  endfacet
  facet normal -0 0 -1
    outer loop
      vertex 4.63525 14.2658 -4
      vertex 1 13.5 -4
      vertex 1.56793 14.9178 -4
    endloop
  endfacet
  facet normal 0 0 -1
    outer loop
      vertex 4.63525 14.2658 -4
      vertex 0.913545 13.0933 -4
      vertex 0.978148 13.2921 -4
    endloop
  endfacet
  facet normal 0 0 -1
    outer loop
      vertex 4.63525 14.2658 -4
      vertex 0.809016 12.9122 -4
      vertex 0.913545 13.0933 -4
    endloop
  endfacet
  facet normal 0 0 -1
    outer loop
      vertex 4.63525 14.2658 -4
      vertex 0.66913 12.7569 -4
      vertex 0.809016 12.9122 -4
    endloop
  endfacet
  facet normal -0 0 -1
    outer loop
      vertex 7.5 12.9904 -4
      vertex 0.66913 12.7569 -4
      vertex 4.63525 14.2658 -4
    endloop
  endfacet
  facet normal 0 0 -1
    outer loop
      vertex 7.5 12.9904 -4
      vertex 0.309016 12.5489 -4
      vertex 0.5 12.634 -4
    endloop
  endfacet
  facet normal 0 0 -1
    outer loop
      vertex -11.0219 -20.2079 -4
      vertex 11.0219 -20.2079 -4
      vertex 11.0865 -20.4067 -4
    endloop
  endfacet
  facet normal 0 0 -1
    outer loop
      vertex 11.0219 -19.7921 -4
      vertex 0.104528 12.5055 -4
      vertex 0.309016 12.5489 -4
    endloop
  endfacet
  facet normal 0 0 -1
    outer loop
      vertex 11.0219 -19.7921 -4
      vertex -14.6722 3.11868 -4
      vertex 0.104528 12.5055 -4
    endloop
  endfacet
  facet normal -0 0 -1
    outer loop
      vertex 0.104528 12.5055 -4
      vertex -14.6722 3.11868 -4
      vertex -0.104528 12.5055 -4
    endloop
  endfacet
  facet normal -0 0 -1
    outer loop
      vertex -0.104528 12.5055 -4
      vertex -14.6722 3.11868 -4
      vertex -0.309016 12.5489 -4
    endloop
  endfacet
  facet normal 0 -0 -1
    outer loop
      vertex -13.7032 6.10105 -4
      vertex -0.309016 12.5489 -4
      vertex -14.6722 3.11868 -4
    endloop
  endfacet
  facet normal 0 -0 -1
    outer loop
      vertex -12.1353 8.81678 -4
      vertex -0.309016 12.5489 -4
      vertex -13.7032 6.10105 -4
    endloop
  endfacet
  facet normal 0 -0 -1
    outer loop
      vertex -10.037 11.1472 -4
      vertex -0.309016 12.5489 -4
      vertex -12.1353 8.81678 -4
    endloop
  endfacet
  facet normal 0 0 -1
    outer loop
      vertex -4.63525 14.2658 -4
      vertex -1 13.5 -4
      vertex -0.978148 13.2921 -4
    endloop
  endfacet
  facet normal 0 0 -1
    outer loop
      vertex -4.63525 14.2658 -4
      vertex -0.978148 13.2921 -4
      vertex -0.913545 13.0933 -4
    endloop
  endfacet
  facet normal -0 0 -1
    outer loop
      vertex -0.309016 12.5489 -4
      vertex -10.037 11.1472 -4
      vertex -0.5 12.634 -4
    endloop
  endfacet
  facet normal 0 -0 -1
    outer loop
      vertex -7.5 12.9904 -4
      vertex -0.5 12.634 -4
      vertex -10.037 11.1472 -4
    endloop
  endfacet
  facet normal 0 0 -1
    outer loop
      vertex 11.191 -20.5878 -4
      vertex -11.191 -20.5878 -4
      vertex 11.0865 -20.4067 -4
    endloop
  endfacet
  facet normal 0 0 -1
    outer loop
      vertex 11.0219 -19.7921 -4
      vertex -11.191 -19.4122 -4
      vertex -11.3309 -19.2569 -4
    endloop
  endfacet
  facet normal 0 0 -1
    outer loop
      vertex -1 13.5 -4
      vertex -4.63525 14.2658 -4
      vertex -1.56793 14.9178 -4
    endloop
  endfacet
  facet normal 0 0 -1
    outer loop
      vertex 11 -20 -4
      vertex -11 -20 -4
      vertex -11.0219 -19.7921 -4
    endloop
  endfacet
  facet normal 0 0 -1
    outer loop
      vertex 11.0219 -20.2079 -4
      vertex -11.0219 -20.2079 -4
      vertex -11 -20 -4
    endloop
  endfacet
  facet normal 0 0 -1
    outer loop
      vertex 11.0865 -20.4067 -4
      vertex -11.0865 -20.4067 -4
      vertex -11.0219 -20.2079 -4
    endloop
  endfacet
  facet normal -0 0 -1
    outer loop
      vertex 11.0865 -20.4067 -4
      vertex -11.191 -20.5878 -4
      vertex -11.0865 -20.4067 -4
    endloop
  endfacet
  facet normal 0 0 -1
    outer loop
      vertex -15 -30 -4
      vertex -11.191 -20.5878 -4
      vertex 15 -30 -4
    endloop
  endfacet
  facet normal 0 0 -1
    outer loop
      vertex -11.191 -20.5878 -4
      vertex -15 -30 -4
      vertex -11.3309 -20.7431 -4
    endloop
  endfacet
  facet normal 0 0 -1
    outer loop
      vertex -11.3309 -20.7431 -4
      vertex -15 -30 -4
      vertex -11.5 -20.866 -4
    endloop
  endfacet
  facet normal 0 0 -1
    outer loop
      vertex -11.5 -20.866 -4
      vertex -15 -30 -4
      vertex -11.691 -20.9511 -4
    endloop
  endfacet
  facet normal 0 0 -1
    outer loop
      vertex -11.691 -20.9511 -4
      vertex -15 -30 -4
      vertex -11.8955 -20.9945 -4
    endloop
  endfacet
  facet normal -0 0 -1
    outer loop
      vertex -11.8955 -20.9945 -4
      vertex -15 -30 -4
      vertex -12.1045 -20.9945 -4
    endloop
  endfacet
  facet normal 0 0 -1
    outer loop
      vertex -0.5 12.634 -4
      vertex -7.5 12.9904 -4
      vertex -0.66913 12.7569 -4
    endloop
  endfacet
  facet normal -0 0 -1
    outer loop
      vertex -12.1045 -20.9945 -4
      vertex -15 -30 -4
      vertex -12.309 -20.9511 -4
    endloop
  endfacet
  facet normal 0 0 -1
    outer loop
      vertex -15 -30 -4
      vertex -12.5 -20.866 -4
      vertex -12.309 -20.9511 -4
    endloop
  endfacet
  facet normal 0 0 -1
    outer loop
      vertex -15 -30 -4
      vertex -12.6691 -20.7431 -4
      vertex -12.5 -20.866 -4
    endloop
  endfacet
  facet normal 0 0 -1
    outer loop
      vertex -15 -30 -4
      vertex -12.809 -20.5878 -4
      vertex -12.6691 -20.7431 -4
    endloop
  endfacet
  facet normal 0 0 -1
    outer loop
      vertex -15 -30 -4
      vertex -12.9135 -20.4067 -4
      vertex -12.809 -20.5878 -4
    endloop
  endfacet
  facet normal 0 0 -1
    outer loop
      vertex -15 -30 -4
      vertex -12.9781 -20.2079 -4
      vertex -12.9135 -20.4067 -4
    endloop
  endfacet
  facet normal 0 0 -1
    outer loop
      vertex -15 -30 -4
      vertex -13 -20 -4
      vertex -12.9781 -20.2079 -4
    endloop
  endfacet
  facet normal 0 0 -1
    outer loop
      vertex -15 0 -4
      vertex -13 -20 -4
      vertex -15 -30 -4
    endloop
  endfacet
  facet normal 0 0 -1
    outer loop
      vertex -12.9781 -19.7921 -4
      vertex -15 0 -4
      vertex -14.6722 3.11868 -4
    endloop
  endfacet
  facet normal 0 0 -1
    outer loop
      vertex 12.809 -19.4122 -4
      vertex 15 0 -4
      vertex 12.9135 -19.5933 -4
    endloop
  endfacet
  facet normal 0 0 -1
    outer loop
      vertex 12.6691 -19.2569 -4
      vertex 15 0 -4
      vertex 12.809 -19.4122 -4
    endloop
  endfacet
  facet normal 0 0 -1
    outer loop
      vertex 12.5 -19.134 -4
      vertex 15 0 -4
      vertex 12.6691 -19.2569 -4
    endloop
  endfacet
  facet normal 0 0 -1
    outer loop
      vertex 12.309 -19.0489 -4
      vertex 15 0 -4
      vertex 12.5 -19.134 -4
    endloop
  endfacet
  facet normal 0 0 -1
    outer loop
      vertex 12.1045 -19.0055 -4
      vertex 15 0 -4
      vertex 12.309 -19.0489 -4
    endloop
  endfacet
  facet normal 0 0 -1
    outer loop
      vertex 11.8955 -19.0055 -4
      vertex 15 0 -4
      vertex 12.1045 -19.0055 -4
    endloop
  endfacet
  facet normal 0 0 -1
    outer loop
      vertex 11.691 -19.0489 -4
      vertex 15 0 -4
      vertex 11.8955 -19.0055 -4
    endloop
  endfacet
  facet normal 0 0 -1
    outer loop
      vertex 11.5 -19.134 -4
      vertex 15 0 -4
      vertex 11.691 -19.0489 -4
    endloop
  endfacet
  facet normal 0 0 -1
    outer loop
      vertex 11.3309 -19.2569 -4
      vertex 15 0 -4
      vertex 11.5 -19.134 -4
    endloop
  endfacet
  facet normal 0 0 -1
    outer loop
      vertex 11.191 -19.4122 -4
      vertex 15 0 -4
      vertex 11.3309 -19.2569 -4
    endloop
  endfacet
  facet normal 0 0 -1
    outer loop
      vertex 7.5 12.9904 -4
      vertex 15 0 -4
      vertex 11.191 -19.4122 -4
    endloop
  endfacet
  facet normal 0 0 -1
    outer loop
      vertex 15 0 -4
      vertex 7.5 12.9904 -4
      vertex 14.6722 3.11868 -4
    endloop
  endfacet
  facet normal 0 0 -1
    outer loop
      vertex 14.6722 3.11868 -4
      vertex 7.5 12.9904 -4
      vertex 13.7032 6.10105 -4
    endloop
  endfacet
  facet normal 0 0 -1
    outer loop
      vertex 7.5 12.9904 -4
      vertex 11.191 -19.4122 -4
      vertex 11.0865 -19.5933 -4
    endloop
  endfacet
  facet normal 0 0 -1
    outer loop
      vertex 7.5 12.9904 -4
      vertex 11.0865 -19.5933 -4
      vertex 11.0219 -19.7921 -4
    endloop
  endfacet
  facet normal 0 0 -1
    outer loop
      vertex -11.0219 -19.7921 -4
      vertex 11.0219 -19.7921 -4
      vertex 11 -20 -4
    endloop
  endfacet
  facet normal 0 0 -1
    outer loop
      vertex 13.7032 6.10105 -4
      vertex 10.037 11.1472 -4
      vertex 12.1353 8.81678 -4
    endloop
  endfacet
  facet normal 0 0 -1
    outer loop
      vertex 0.978148 13.7079 -4
      vertex 1.56793 14.9178 -4
      vertex 1 13.5 -4
    endloop
  endfacet
  facet normal 0 0 -1
    outer loop
      vertex 0.913545 13.9067 -4
      vertex 1.56793 14.9178 -4
      vertex 0.978148 13.7079 -4
    endloop
  endfacet
  facet normal 0 0 -1
    outer loop
      vertex 0.809016 14.0878 -4
      vertex 1.56793 14.9178 -4
      vertex 0.913545 13.9067 -4
    endloop
  endfacet
  facet normal 0 0 -1
    outer loop
      vertex 0.66913 14.2431 -4
      vertex 1.56793 14.9178 -4
      vertex 0.809016 14.0878 -4
    endloop
  endfacet
  facet normal 0 0 -1
    outer loop
      vertex 0.5 14.366 -4
      vertex 1.56793 14.9178 -4
      vertex 0.66913 14.2431 -4
    endloop
  endfacet
  facet normal 0 0 -1
    outer loop
      vertex 0.309016 14.4511 -4
      vertex 1.56793 14.9178 -4
      vertex 0.5 14.366 -4
    endloop
  endfacet
  facet normal 0 0 -1
    outer loop
      vertex 0.104528 14.4945 -4
      vertex 1.56793 14.9178 -4
      vertex 0.309016 14.4511 -4
    endloop
  endfacet
  facet normal 0 0 -1
    outer loop
      vertex -0.104528 14.4945 -4
      vertex 1.56793 14.9178 -4
      vertex 0.104528 14.4945 -4
    endloop
  endfacet
  facet normal 0 0 -1
    outer loop
      vertex -1.56793 14.9178 -4
      vertex -0.104528 14.4945 -4
      vertex -0.309016 14.4511 -4
    endloop
  endfacet
  facet normal 0 0 -1
    outer loop
      vertex -0.104528 14.4945 -4
      vertex -1.56793 14.9178 -4
      vertex 1.56793 14.9178 -4
    endloop
  endfacet
  facet normal 0 0 -1
    outer loop
      vertex -0.5 14.366 -4
      vertex -1.56793 14.9178 -4
      vertex -0.309016 14.4511 -4
    endloop
  endfacet
  facet normal 0 0 -1
    outer loop
      vertex -0.66913 14.2431 -4
      vertex -1.56793 14.9178 -4
      vertex -0.5 14.366 -4
    endloop
  endfacet
  facet normal 0 0 -1
    outer loop
      vertex -0.809016 14.0878 -4
      vertex -1.56793 14.9178 -4
      vertex -0.66913 14.2431 -4
    endloop
  endfacet
  facet normal 0 0 -1
    outer loop
      vertex -0.913545 13.9067 -4
      vertex -1.56793 14.9178 -4
      vertex -0.809016 14.0878 -4
    endloop
  endfacet
  facet normal 0 0 -1
    outer loop
      vertex -0.978148 13.7079 -4
      vertex -1.56793 14.9178 -4
      vertex -0.913545 13.9067 -4
    endloop
  endfacet
  facet normal 0 0 -1
    outer loop
      vertex -1.56793 14.9178 -4
      vertex -0.978148 13.7079 -4
      vertex -1 13.5 -4
    endloop
  endfacet
  facet normal 0 0 -1
    outer loop
      vertex 11.0219 -19.7921 -4
      vertex -11.0219 -19.7921 -4
      vertex -11.0865 -19.5933 -4
    endloop
  endfacet
  facet normal 0 0 -1
    outer loop
      vertex 11.0219 -19.7921 -4
      vertex -11.0865 -19.5933 -4
      vertex -11.191 -19.4122 -4
    endloop
  endfacet
  facet normal 0 0 -1
    outer loop
      vertex -0.809016 12.9122 -4
      vertex -4.63525 14.2658 -4
      vertex -0.913545 13.0933 -4
    endloop
  endfacet
  facet normal 0 0 -1
    outer loop
      vertex 11.0219 -19.7921 -4
      vertex -11.3309 -19.2569 -4
      vertex -14.6722 3.11868 -4
    endloop
  endfacet
  facet normal 0 0 -1
    outer loop
      vertex -14.6722 3.11868 -4
      vertex -11.3309 -19.2569 -4
      vertex -11.5 -19.134 -4
    endloop
  endfacet
  facet normal 0 0 -1
    outer loop
      vertex -14.6722 3.11868 -4
      vertex -11.5 -19.134 -4
      vertex -11.691 -19.0489 -4
    endloop
  endfacet
  facet normal 0 0 -1
    outer loop
      vertex -14.6722 3.11868 -4
      vertex -11.691 -19.0489 -4
      vertex -11.8955 -19.0055 -4
    endloop
  endfacet
  facet normal 0 0 -1
    outer loop
      vertex -14.6722 3.11868 -4
      vertex -11.8955 -19.0055 -4
      vertex -12.1045 -19.0055 -4
    endloop
  endfacet
  facet normal 0 0 -1
    outer loop
      vertex -0.66913 12.7569 -4
      vertex -4.63525 14.2658 -4
      vertex -0.809016 12.9122 -4
    endloop
  endfacet
  facet normal 0 0 -1
    outer loop
      vertex -14.6722 3.11868 -4
      vertex -12.1045 -19.0055 -4
      vertex -12.309 -19.0489 -4
    endloop
  endfacet
  facet normal 0 0 -1
    outer loop
      vertex -14.6722 3.11868 -4
      vertex -12.309 -19.0489 -4
      vertex -12.5 -19.134 -4
    endloop
  endfacet
  facet normal 0 0 -1
    outer loop
      vertex -14.6722 3.11868 -4
      vertex -12.5 -19.134 -4
      vertex -12.6691 -19.2569 -4
    endloop
  endfacet
  facet normal 0 0 -1
    outer loop
      vertex -14.6722 3.11868 -4
      vertex -12.6691 -19.2569 -4
      vertex -12.809 -19.4122 -4
    endloop
  endfacet
  facet normal 0 0 -1
    outer loop
      vertex -14.6722 3.11868 -4
      vertex -12.809 -19.4122 -4
      vertex -12.9135 -19.5933 -4
    endloop
  endfacet
  facet normal 0 0 -1
    outer loop
      vertex -14.6722 3.11868 -4
      vertex -12.9135 -19.5933 -4
      vertex -12.9781 -19.7921 -4
    endloop
  endfacet
  facet normal 0 0 -1
    outer loop
      vertex -15 0 -4
      vertex -12.9781 -19.7921 -4
      vertex -13 -20 -4
    endloop
  endfacet
  facet normal 0 -0 -1
    outer loop
      vertex -4.63525 14.2658 -4
      vertex -0.66913 12.7569 -4
      vertex -7.5 12.9904 -4
    endloop
  endfacet
  facet normal -1 0 0
    outer loop
      vertex -15 -30 -4
      vertex -15 0 0
      vertex -15 0 -4
    endloop
  endfacet
  facet normal -1 -0 0
    outer loop
      vertex -15 0 0
      vertex -15 -30 -4
      vertex -15 -30 0
    endloop
  endfacet
  facet normal 1 -0 0
    outer loop
      vertex 15 -30 0
      vertex 15 0 -4
      vertex 15 0 0
    endloop
  endfacet
  facet normal 1 0 0
    outer loop
      vertex 15 0 -4
      vertex 15 -30 0
      vertex 15 -30 -4
    endloop
  endfacet
  facet normal 0 -1 0
    outer loop
      vertex -15 -30 0
      vertex -11.5 -30 -2.25
      vertex -11.5 -30 0
    endloop
  endfacet
  facet normal 0 -1 -0
    outer loop
      vertex -11.5 -30 -2.25
      vertex -15 -30 -4
      vertex 11.5 -30 -2.25
    endloop
  endfacet
  facet normal 0 -1 0
    outer loop
      vertex -15 -30 -4
      vertex -11.5 -30 -2.25
      vertex -15 -30 0
    endloop
  endfacet
  facet normal 0 -1 0
    outer loop
      vertex 11.5 -30 -2.25
      vertex 15 -30 0
      vertex 11.5 -30 0
    endloop
  endfacet
  facet normal 0 -1 0
    outer loop
      vertex 11.5 -30 -2.25
      vertex 15 -30 -4
      vertex 15 -30 0
    endloop
  endfacet
  facet normal 0 -1 0
    outer loop
      vertex 15 -30 -4
      vertex 11.5 -30 -2.25
      vertex -15 -30 -4
    endloop
  endfacet
  facet normal 1 -0 0
    outer loop
      vertex -11.5 -30 0
      vertex -11.5 -21.1135 -2.25
      vertex -11.5 -21.1135 0
    endloop
  endfacet
  facet normal 1 0 0
    outer loop
      vertex -11.5 -21.1135 -2.25
      vertex -11.5 -30 0
      vertex -11.5 -30 -2.25
    endloop
  endfacet
  facet normal 1 -0 0
    outer loop
      vertex -11.5 -18.8865 0
      vertex -11.5 0.5 -2.25
      vertex -11.5 0.5 0
    endloop
  endfacet
  facet normal 1 0 0
    outer loop
      vertex -11.5 0.5 -2.25
      vertex -11.5 -18.8865 0
      vertex -11.5 -18.8865 -2.25
    endloop
  endfacet
  facet normal -1 0 0
    outer loop
      vertex 11.5 -30 -2.25
      vertex 11.5 -21.3764 0
      vertex 11.5 -21.3764 -2.25
    endloop
  endfacet
  facet normal -1 -0 0
    outer loop
      vertex 11.5 -21.3764 0
      vertex 11.5 -30 -2.25
      vertex 11.5 -30 0
    endloop
  endfacet
  facet normal -1 0 0
    outer loop
      vertex 11.5 -18.6236 -2.25
      vertex 11.5 0.5 0
      vertex 11.5 0.5 -2.25
    endloop
  endfacet
  facet normal -1 -0 0
    outer loop
      vertex 11.5 0.5 0
      vertex 11.5 -18.6236 -2.25
      vertex 11.5 -18.6236 0
    endloop
  endfacet
  facet normal 0 -1 0
    outer loop
      vertex -11.5 0.5 0
      vertex -5.5 0.5 -0.5
      vertex -5.5 0.5 0
    endloop
  endfacet
  facet normal 0 -1 -0
    outer loop
      vertex -5.5 0.5 -0.5
      vertex -11.5 0.5 -2.25
      vertex 5.5 0.5 -0.5
    endloop
  endfacet
  facet normal 0 -1 0
    outer loop
      vertex -11.5 0.5 -2.25
      vertex -5.5 0.5 -0.5
      vertex -11.5 0.5 0
    endloop
  endfacet
  facet normal 0 -1 0
    outer loop
      vertex 5.5 0.5 -0.5
      vertex 11.5 0.5 0
      vertex 5.5 0.5 0
    endloop
  endfacet
  facet normal 0 -1 0
    outer loop
      vertex 11.5 0.5 -2.25
      vertex 5.5 0.5 -0.5
      vertex -11.5 0.5 -2.25
    endloop
  endfacet
  facet normal 0 -1 0
    outer loop
      vertex 5.5 0.5 -0.5
      vertex 11.5 0.5 -2.25
      vertex 11.5 0.5 0
    endloop
  endfacet
  facet normal 0 0 1
    outer loop
      vertex 11.5 0.5 -2.25
      vertex 11.4635 -18.5734 -2.25
      vertex 11.5 -18.6236 -2.25
    endloop
  endfacet
  facet normal 0 0 1
    outer loop
      vertex 11.5 0.5 -2.25
      vertex 9.78647 -19.1183 -2.25
      vertex 11.4635 -18.5734 -2.25
    endloop
  endfacet
  facet normal 0 0 1
    outer loop
      vertex 9.78647 -19.1183 -2.25
      vertex -9.5 -20 -2.25
      vertex 9.78647 -20.8817 -2.25
    endloop
  endfacet
  facet normal -0 0 1
    outer loop
      vertex -10.5365 -18.5734 -2.25
      vertex 9.78647 -19.1183 -2.25
      vertex 11.5 0.5 -2.25
    endloop
  endfacet
  facet normal 0 0 1
    outer loop
      vertex 9.78647 -19.1183 -2.25
      vertex -10.5365 -18.5734 -2.25
      vertex -9.5 -20 -2.25
    endloop
  endfacet
  facet normal -0 0 1
    outer loop
      vertex -11.5 0.5 -2.25
      vertex -10.5365 -18.5734 -2.25
      vertex 11.5 0.5 -2.25
    endloop
  endfacet
  facet normal 0 0 1
    outer loop
      vertex -10.5365 -18.5734 -2.25
      vertex -11.5 0.5 -2.25
      vertex -11.5 -18.8865 -2.25
    endloop
  endfacet
  facet normal -0 0 1
    outer loop
      vertex 11.4635 -21.4266 -2.25
      vertex 11.5 -30 -2.25
      vertex 11.5 -21.3764 -2.25
    endloop
  endfacet
  facet normal 0 0 1
    outer loop
      vertex 9.78647 -20.8817 -2.25
      vertex 11.5 -30 -2.25
      vertex 11.4635 -21.4266 -2.25
    endloop
  endfacet
  facet normal 0 0 1
    outer loop
      vertex -11.5 -30 -2.25
      vertex 9.78647 -20.8817 -2.25
      vertex -9.5 -20 -2.25
    endloop
  endfacet
  facet normal 0 0 1
    outer loop
      vertex -11.5 -30 -2.25
      vertex -9.5 -20 -2.25
      vertex -10.5365 -21.4266 -2.25
    endloop
  endfacet
  facet normal 0 0 1
    outer loop
      vertex -11.5 -30 -2.25
      vertex -10.5365 -21.4266 -2.25
      vertex -11.5 -21.1135 -2.25
    endloop
  endfacet
  facet normal 0 0 1
    outer loop
      vertex 9.78647 -20.8817 -2.25
      vertex -11.5 -30 -2.25
      vertex 11.5 -30 -2.25
    endloop
  endfacet
  facet normal 0.809013 0.587791 0
    outer loop
      vertex -9.5 -20 0
      vertex -10.5365 -18.5734 -2.25
      vertex -10.5365 -18.5734 0
    endloop
  endfacet
  facet normal 0.809013 0.587791 0
    outer loop
      vertex -10.5365 -18.5734 -2.25
      vertex -9.5 -20 0
      vertex -9.5 -20 -2.25
    endloop
  endfacet
  facet normal -0.309053 0.951045 0
    outer loop
      vertex -10.5365 -18.5734 -2.25
      vertex -11.5 -18.8865 0
      vertex -10.5365 -18.5734 0
    endloop
  endfacet
  facet normal -0.309053 0.951045 0
    outer loop
      vertex -11.5 -18.8865 0
      vertex -10.5365 -18.5734 -2.25
      vertex -11.5 -18.8865 -2.25
    endloop
  endfacet
  facet normal -0.309053 -0.951045 0
    outer loop
      vertex -11.5 -21.1135 -2.25
      vertex -10.5365 -21.4266 0
      vertex -11.5 -21.1135 0
    endloop
  endfacet
  facet normal -0.309053 -0.951045 -0
    outer loop
      vertex -10.5365 -21.4266 0
      vertex -11.5 -21.1135 -2.25
      vertex -10.5365 -21.4266 -2.25
    endloop
  endfacet
  facet normal 0.809013 -0.587791 0
    outer loop
      vertex -10.5365 -21.4266 0
      vertex -9.5 -20 -2.25
      vertex -9.5 -20 0
    endloop
  endfacet
  facet normal 0.809013 -0.587791 0
    outer loop
      vertex -9.5 -20 -2.25
      vertex -10.5365 -21.4266 0
      vertex -10.5365 -21.4266 -2.25
    endloop
  endfacet
  facet normal 0.808806 0.588076 0
    outer loop
      vertex 11.5 -18.6236 0
      vertex 11.4635 -18.5734 -2.25
      vertex 11.4635 -18.5734 0
    endloop
  endfacet
  facet normal 0.808806 0.588076 0
    outer loop
      vertex 11.4635 -18.5734 -2.25
      vertex 11.5 -18.6236 0
      vertex 11.5 -18.6236 -2.25
    endloop
  endfacet
  facet normal -1 0 0
    outer loop
      vertex 9.78647 -20.8817 -2.25
      vertex 9.78647 -19.1183 0
      vertex 9.78647 -19.1183 -2.25
    endloop
  endfacet
  facet normal -1 -0 0
    outer loop
      vertex 9.78647 -19.1183 0
      vertex 9.78647 -20.8817 -2.25
      vertex 9.78647 -20.8817 0
    endloop
  endfacet
  facet normal -0.309017 0.951057 0
    outer loop
      vertex 11.4635 -18.5734 -2.25
      vertex 9.78647 -19.1183 0
      vertex 11.4635 -18.5734 0
    endloop
  endfacet
  facet normal -0.309017 0.951057 0
    outer loop
      vertex 9.78647 -19.1183 0
      vertex 11.4635 -18.5734 -2.25
      vertex 9.78647 -19.1183 -2.25
    endloop
  endfacet
  facet normal 0.808806 -0.588076 0
    outer loop
      vertex 11.4635 -21.4266 0
      vertex 11.5 -21.3764 -2.25
      vertex 11.5 -21.3764 0
    endloop
  endfacet
  facet normal 0.808806 -0.588076 0
    outer loop
      vertex 11.5 -21.3764 -2.25
      vertex 11.4635 -21.4266 0
      vertex 11.4635 -21.4266 -2.25
    endloop
  endfacet
  facet normal -0.309017 -0.951057 0
    outer loop
      vertex 9.78647 -20.8817 -2.25
      vertex 11.4635 -21.4266 0
      vertex 9.78647 -20.8817 0
    endloop
  endfacet
  facet normal -0.309017 -0.951057 -0
    outer loop
      vertex 11.4635 -21.4266 0
      vertex 9.78647 -20.8817 -2.25
      vertex 11.4635 -21.4266 -2.25
    endloop
  endfacet
  facet normal 1 -0 0
    outer loop
      vertex -5.5 0.5 0
      vertex -5.5 1.7 -0.5
      vertex -5.5 1.7 0
    endloop
  endfacet
  facet normal 1 0 0
    outer loop
      vertex -5.5 1.7 -0.5
      vertex -5.5 0.5 0
      vertex -5.5 0.5 -0.5
    endloop
  endfacet
  facet normal -1 0 0
    outer loop
      vertex 5.5 0.5 -0.5
      vertex 5.5 1.7 0
      vertex 5.5 1.7 -0.5
    endloop
  endfacet
  facet normal -1 -0 0
    outer loop
      vertex 5.5 1.7 0
      vertex 5.5 0.5 -0.5
      vertex 5.5 0.5 0
    endloop
  endfacet
  facet normal 0 -1 0
    outer loop
      vertex -5.5 1.7 -0.5
      vertex 5.5 1.7 0
      vertex -5.5 1.7 0
    endloop
  endfacet
  facet normal 0 -1 -0
    outer loop
      vertex 5.5 1.7 0
      vertex -5.5 1.7 -0.5
      vertex 5.5 1.7 -0.5
    endloop
  endfacet
  facet normal -0 0 1
    outer loop
      vertex -5.5 1.7 -0.5
      vertex 5.5 0.5 -0.5
      vertex 5.5 1.7 -0.5
    endloop
  endfacet
  facet normal 0 0 1
    outer loop
      vertex 5.5 0.5 -0.5
      vertex -5.5 1.7 -0.5
      vertex -5.5 0.5 -0.5
    endloop
  endfacet
  facet normal -0.994498 -0.104759 0
    outer loop
      vertex -11 -20 -4
      vertex -11.0219 -19.7921 0
      vertex -11.0219 -19.7921 -4
    endloop
  endfacet
  facet normal -0.994498 -0.104759 0
    outer loop
      vertex -11.0219 -19.7921 0
      vertex -11 -20 -4
      vertex -11 -20 0
    endloop
  endfacet
  facet normal 0.994498 -0.104759 0
    outer loop
      vertex -13 -20 0
      vertex -12.9781 -19.7921 -4
      vertex -12.9781 -19.7921 0
    endloop
  endfacet
  facet normal 0.994498 -0.104759 0
    outer loop
      vertex -12.9781 -19.7921 -4
      vertex -13 -20 0
      vertex -13 -20 -4
    endloop
  endfacet
  facet normal 0 -1 0
    outer loop
      vertex -12.1045 -19.0055 -4
      vertex -11.8955 -19.0055 0
      vertex -12.1045 -19.0055 0
    endloop
  endfacet
  facet normal 0 -1 -0
    outer loop
      vertex -11.8955 -19.0055 0
      vertex -12.1045 -19.0055 -4
      vertex -11.8955 -19.0055 -4
    endloop
  endfacet
  facet normal 0 1 -0
    outer loop
      vertex -11.8955 -20.9945 -4
      vertex -12.1045 -20.9945 0
      vertex -11.8955 -20.9945 0
    endloop
  endfacet
  facet normal 0 1 0
    outer loop
      vertex -12.1045 -20.9945 0
      vertex -11.8955 -20.9945 -4
      vertex -12.1045 -20.9945 -4
    endloop
  endfacet
  facet normal -0.587916 -0.808922 0
    outer loop
      vertex -11.5 -19.134 -4
      vertex -11.3309 -19.2569 0
      vertex -11.5 -19.134 0
    endloop
  endfacet
  facet normal -0.587916 -0.808922 -0
    outer loop
      vertex -11.3309 -19.2569 0
      vertex -11.5 -19.134 -4
      vertex -11.3309 -19.2569 -4
    endloop
  endfacet
  facet normal -0.406981 -0.913436 0
    outer loop
      vertex -11.691 -19.0489 -4
      vertex -11.5 -19.134 0
      vertex -11.691 -19.0489 0
    endloop
  endfacet
  facet normal -0.406981 -0.913436 -0
    outer loop
      vertex -11.5 -19.134 0
      vertex -11.691 -19.0489 -4
      vertex -11.5 -19.134 -4
    endloop
  endfacet
  facet normal 0.587916 -0.808922 0
    outer loop
      vertex -12.6691 -19.2569 -4
      vertex -12.5 -19.134 0
      vertex -12.6691 -19.2569 0
    endloop
  endfacet
  facet normal 0.587916 -0.808922 0
    outer loop
      vertex -12.5 -19.134 0
      vertex -12.6691 -19.2569 -4
      vertex -12.5 -19.134 -4
    endloop
  endfacet
  facet normal 0.207601 -0.978214 0
    outer loop
      vertex -12.309 -19.0489 -4
      vertex -12.1045 -19.0055 0
      vertex -12.309 -19.0489 0
    endloop
  endfacet
  facet normal 0.207601 -0.978214 0
    outer loop
      vertex -12.1045 -19.0055 0
      vertex -12.309 -19.0489 -4
      vertex -12.1045 -19.0055 -4
    endloop
  endfacet
  facet normal -0.866146 0.499791 0
    outer loop
      vertex -11.191 -20.5878 -4
      vertex -11.0865 -20.4067 0
      vertex -11.0865 -20.4067 -4
    endloop
  endfacet
  facet normal -0.866146 0.499791 0
    outer loop
      vertex -11.0865 -20.4067 0
      vertex -11.191 -20.5878 -4
      vertex -11.191 -20.5878 0
    endloop
  endfacet
  facet normal -0.866146 -0.499791 0
    outer loop
      vertex -11.0865 -19.5933 -4
      vertex -11.191 -19.4122 0
      vertex -11.191 -19.4122 -4
    endloop
  endfacet
  facet normal -0.866146 -0.499791 0
    outer loop
      vertex -11.191 -19.4122 0
      vertex -11.0865 -19.5933 -4
      vertex -11.0865 -19.5933 0
    endloop
  endfacet
  facet normal -0.951048 -0.309043 0
    outer loop
      vertex -11.0219 -19.7921 -4
      vertex -11.0865 -19.5933 0
      vertex -11.0865 -19.5933 -4
    endloop
  endfacet
  facet normal -0.951048 -0.309043 0
    outer loop
      vertex -11.0865 -19.5933 0
      vertex -11.0219 -19.7921 -4
      vertex -11.0219 -19.7921 0
    endloop
  endfacet
  facet normal -0.742985 -0.669308 0
    outer loop
      vertex -11.191 -19.4122 -4
      vertex -11.3309 -19.2569 0
      vertex -11.3309 -19.2569 -4
    endloop
  endfacet
  facet normal -0.742985 -0.669308 0
    outer loop
      vertex -11.3309 -19.2569 0
      vertex -11.191 -19.4122 -4
      vertex -11.191 -19.4122 0
    endloop
  endfacet
  facet normal -0.207601 -0.978214 0
    outer loop
      vertex -11.8955 -19.0055 -4
      vertex -11.691 -19.0489 0
      vertex -11.8955 -19.0055 0
    endloop
  endfacet
  facet normal -0.207601 -0.978214 -0
    outer loop
      vertex -11.691 -19.0489 0
      vertex -11.8955 -19.0055 -4
      vertex -11.691 -19.0489 -4
    endloop
  endfacet
  facet normal 0.866146 -0.499791 0
    outer loop
      vertex -12.9135 -19.5933 0
      vertex -12.809 -19.4122 -4
      vertex -12.809 -19.4122 0
    endloop
  endfacet
  facet normal 0.866146 -0.499791 0
    outer loop
      vertex -12.809 -19.4122 -4
      vertex -12.9135 -19.5933 0
      vertex -12.9135 -19.5933 -4
    endloop
  endfacet
  facet normal 0.742985 -0.669308 0
    outer loop
      vertex -12.809 -19.4122 0
      vertex -12.6691 -19.2569 -4
      vertex -12.6691 -19.2569 0
    endloop
  endfacet
  facet normal 0.742985 -0.669308 0
    outer loop
      vertex -12.6691 -19.2569 -4
      vertex -12.809 -19.4122 0
      vertex -12.809 -19.4122 -4
    endloop
  endfacet
  facet normal 0.951048 -0.309043 0
    outer loop
      vertex -12.9781 -19.7921 0
      vertex -12.9135 -19.5933 -4
      vertex -12.9135 -19.5933 0
    endloop
  endfacet
  facet normal 0.951048 -0.309043 0
    outer loop
      vertex -12.9135 -19.5933 -4
      vertex -12.9781 -19.7921 0
      vertex -12.9781 -19.7921 -4
    endloop
  endfacet
  facet normal 0.406981 -0.913436 0
    outer loop
      vertex -12.5 -19.134 -4
      vertex -12.309 -19.0489 0
      vertex -12.5 -19.134 0
    endloop
  endfacet
  facet normal 0.406981 -0.913436 0
    outer loop
      vertex -12.309 -19.0489 0
      vertex -12.5 -19.134 -4
      vertex -12.309 -19.0489 -4
    endloop
  endfacet
  facet normal -0.994498 0.104759 0
    outer loop
      vertex -11.0219 -20.2079 -4
      vertex -11 -20 0
      vertex -11 -20 -4
    endloop
  endfacet
  facet normal -0.994498 0.104759 0
    outer loop
      vertex -11 -20 0
      vertex -11.0219 -20.2079 -4
      vertex -11.0219 -20.2079 0
    endloop
  endfacet
  facet normal -0.207601 0.978214 0
    outer loop
      vertex -11.691 -20.9511 -4
      vertex -11.8955 -20.9945 0
      vertex -11.691 -20.9511 0
    endloop
  endfacet
  facet normal -0.207601 0.978214 0
    outer loop
      vertex -11.8955 -20.9945 0
      vertex -11.691 -20.9511 -4
      vertex -11.8955 -20.9945 -4
    endloop
  endfacet
  facet normal -0.587916 0.808922 0
    outer loop
      vertex -11.3309 -20.7431 -4
      vertex -11.5 -20.866 0
      vertex -11.3309 -20.7431 0
    endloop
  endfacet
  facet normal -0.587916 0.808922 0
    outer loop
      vertex -11.5 -20.866 0
      vertex -11.3309 -20.7431 -4
      vertex -11.5 -20.866 -4
    endloop
  endfacet
  facet normal -0.742985 0.669308 0
    outer loop
      vertex -11.3309 -20.7431 -4
      vertex -11.191 -20.5878 0
      vertex -11.191 -20.5878 -4
    endloop
  endfacet
  facet normal -0.742985 0.669308 0
    outer loop
      vertex -11.191 -20.5878 0
      vertex -11.3309 -20.7431 -4
      vertex -11.3309 -20.7431 0
    endloop
  endfacet
  facet normal -0.951048 0.309043 0
    outer loop
      vertex -11.0865 -20.4067 -4
      vertex -11.0219 -20.2079 0
      vertex -11.0219 -20.2079 -4
    endloop
  endfacet
  facet normal -0.951048 0.309043 0
    outer loop
      vertex -11.0219 -20.2079 0
      vertex -11.0865 -20.4067 -4
      vertex -11.0865 -20.4067 0
    endloop
  endfacet
  facet normal 0.866146 0.499791 0
    outer loop
      vertex -12.809 -20.5878 0
      vertex -12.9135 -20.4067 -4
      vertex -12.9135 -20.4067 0
    endloop
  endfacet
  facet normal 0.866146 0.499791 0
    outer loop
      vertex -12.9135 -20.4067 -4
      vertex -12.809 -20.5878 0
      vertex -12.809 -20.5878 -4
    endloop
  endfacet
  facet normal -0.406981 0.913436 0
    outer loop
      vertex -11.5 -20.866 -4
      vertex -11.691 -20.9511 0
      vertex -11.5 -20.866 0
    endloop
  endfacet
  facet normal -0.406981 0.913436 0
    outer loop
      vertex -11.691 -20.9511 0
      vertex -11.5 -20.866 -4
      vertex -11.691 -20.9511 -4
    endloop
  endfacet
  facet normal 0.207601 0.978214 -0
    outer loop
      vertex -12.1045 -20.9945 -4
      vertex -12.309 -20.9511 0
      vertex -12.1045 -20.9945 0
    endloop
  endfacet
  facet normal 0.207601 0.978214 0
    outer loop
      vertex -12.309 -20.9511 0
      vertex -12.1045 -20.9945 -4
      vertex -12.309 -20.9511 -4
    endloop
  endfacet
  facet normal 0.587916 0.808922 -0
    outer loop
      vertex -12.5 -20.866 -4
      vertex -12.6691 -20.7431 0
      vertex -12.5 -20.866 0
    endloop
  endfacet
  facet normal 0.587916 0.808922 0
    outer loop
      vertex -12.6691 -20.7431 0
      vertex -12.5 -20.866 -4
      vertex -12.6691 -20.7431 -4
    endloop
  endfacet
  facet normal 0.742985 0.669308 0
    outer loop
      vertex -12.6691 -20.7431 0
      vertex -12.809 -20.5878 -4
      vertex -12.809 -20.5878 0
    endloop
  endfacet
  facet normal 0.742985 0.669308 0
    outer loop
      vertex -12.809 -20.5878 -4
      vertex -12.6691 -20.7431 0
      vertex -12.6691 -20.7431 -4
    endloop
  endfacet
  facet normal 0.951048 0.309043 0
    outer loop
      vertex -12.9135 -20.4067 0
      vertex -12.9781 -20.2079 -4
      vertex -12.9781 -20.2079 0
    endloop
  endfacet
  facet normal 0.951048 0.309043 0
    outer loop
      vertex -12.9781 -20.2079 -4
      vertex -12.9135 -20.4067 0
      vertex -12.9135 -20.4067 -4
    endloop
  endfacet
  facet normal 0.994498 0.104759 0
    outer loop
      vertex -12.9781 -20.2079 0
      vertex -13 -20 -4
      vertex -13 -20 0
    endloop
  endfacet
  facet normal 0.994498 0.104759 0
    outer loop
      vertex -13 -20 -4
      vertex -12.9781 -20.2079 0
      vertex -12.9781 -20.2079 -4
    endloop
  endfacet
  facet normal 0.406981 0.913436 -0
    outer loop
      vertex -12.309 -20.9511 -4
      vertex -12.5 -20.866 0
      vertex -12.309 -20.9511 0
    endloop
  endfacet
  facet normal 0.406981 0.913436 0
    outer loop
      vertex -12.5 -20.866 0
      vertex -12.309 -20.9511 -4
      vertex -12.5 -20.866 -4
    endloop
  endfacet
  facet normal -0.994498 -0.104759 0
    outer loop
      vertex 13 -20 -4
      vertex 12.9781 -19.7921 0
      vertex 12.9781 -19.7921 -4
    endloop
  endfacet
  facet normal -0.994498 -0.104759 0
    outer loop
      vertex 12.9781 -19.7921 0
      vertex 13 -20 -4
      vertex 13 -20 0
    endloop
  endfacet
  facet normal 0.207601 -0.978214 0
    outer loop
      vertex 11.691 -19.0489 -4
      vertex 11.8955 -19.0055 0
      vertex 11.691 -19.0489 0
    endloop
  endfacet
  facet normal 0.207601 -0.978214 0
    outer loop
      vertex 11.8955 -19.0055 0
      vertex 11.691 -19.0489 -4
      vertex 11.8955 -19.0055 -4
    endloop
  endfacet
  facet normal -0.207601 0.978214 0
    outer loop
      vertex 12.309 -20.9511 -4
      vertex 12.1045 -20.9945 0
      vertex 12.309 -20.9511 0
    endloop
  endfacet
  facet normal -0.207601 0.978214 0
    outer loop
      vertex 12.1045 -20.9945 0
      vertex 12.309 -20.9511 -4
      vertex 12.1045 -20.9945 -4
    endloop
  endfacet
  facet normal -0.587916 -0.808922 0
    outer loop
      vertex 12.5 -19.134 -4
      vertex 12.6691 -19.2569 0
      vertex 12.5 -19.134 0
    endloop
  endfacet
  facet normal -0.587916 -0.808922 -0
    outer loop
      vertex 12.6691 -19.2569 0
      vertex 12.5 -19.134 -4
      vertex 12.6691 -19.2569 -4
    endloop
  endfacet
  facet normal 0.866146 -0.499791 0
    outer loop
      vertex 11.0865 -19.5933 0
      vertex 11.191 -19.4122 -4
      vertex 11.191 -19.4122 0
    endloop
  endfacet
  facet normal 0.866146 -0.499791 0
    outer loop
      vertex 11.191 -19.4122 -4
      vertex 11.0865 -19.5933 0
      vertex 11.0865 -19.5933 -4
    endloop
  endfacet
  facet normal 0.951048 -0.309043 0
    outer loop
      vertex 11.0219 -19.7921 0
      vertex 11.0865 -19.5933 -4
      vertex 11.0865 -19.5933 0
    endloop
  endfacet
  facet normal 0.951048 -0.309043 0
    outer loop
      vertex 11.0865 -19.5933 -4
      vertex 11.0219 -19.7921 0
      vertex 11.0219 -19.7921 -4
    endloop
  endfacet
  facet normal 0.587916 -0.808922 0
    outer loop
      vertex 11.3309 -19.2569 -4
      vertex 11.5 -19.134 0
      vertex 11.3309 -19.2569 0
    endloop
  endfacet
  facet normal 0.587916 -0.808922 0
    outer loop
      vertex 11.5 -19.134 0
      vertex 11.3309 -19.2569 -4
      vertex 11.5 -19.134 -4
    endloop
  endfacet
  facet normal -0.951048 0.309043 0
    outer loop
      vertex 12.9135 -20.4067 -4
      vertex 12.9781 -20.2079 0
      vertex 12.9781 -20.2079 -4
    endloop
  endfacet
  facet normal -0.951048 0.309043 0
    outer loop
      vertex 12.9781 -20.2079 0
      vertex 12.9135 -20.4067 -4
      vertex 12.9135 -20.4067 0
    endloop
  endfacet
  facet normal -0.866146 -0.499791 0
    outer loop
      vertex 12.9135 -19.5933 -4
      vertex 12.809 -19.4122 0
      vertex 12.809 -19.4122 -4
    endloop
  endfacet
  facet normal -0.866146 -0.499791 0
    outer loop
      vertex 12.809 -19.4122 0
      vertex 12.9135 -19.5933 -4
      vertex 12.9135 -19.5933 0
    endloop
  endfacet
  facet normal -0.951048 -0.309043 0
    outer loop
      vertex 12.9781 -19.7921 -4
      vertex 12.9135 -19.5933 0
      vertex 12.9135 -19.5933 -4
    endloop
  endfacet
  facet normal -0.951048 -0.309043 0
    outer loop
      vertex 12.9135 -19.5933 0
      vertex 12.9781 -19.7921 -4
      vertex 12.9781 -19.7921 0
    endloop
  endfacet
  facet normal -0.742985 -0.669308 0
    outer loop
      vertex 12.809 -19.4122 -4
      vertex 12.6691 -19.2569 0
      vertex 12.6691 -19.2569 -4
    endloop
  endfacet
  facet normal -0.742985 -0.669308 0
    outer loop
      vertex 12.6691 -19.2569 0
      vertex 12.809 -19.4122 -4
      vertex 12.809 -19.4122 0
    endloop
  endfacet
  facet normal -0.207601 -0.978214 0
    outer loop
      vertex 12.1045 -19.0055 -4
      vertex 12.309 -19.0489 0
      vertex 12.1045 -19.0055 0
    endloop
  endfacet
  facet normal -0.207601 -0.978214 -0
    outer loop
      vertex 12.309 -19.0489 0
      vertex 12.1045 -19.0055 -4
      vertex 12.309 -19.0489 -4
    endloop
  endfacet
  facet normal 0 -1 0
    outer loop
      vertex 11.8955 -19.0055 -4
      vertex 12.1045 -19.0055 0
      vertex 11.8955 -19.0055 0
    endloop
  endfacet
  facet normal 0 -1 -0
    outer loop
      vertex 12.1045 -19.0055 0
      vertex 11.8955 -19.0055 -4
      vertex 12.1045 -19.0055 -4
    endloop
  endfacet
  facet normal -0.406981 -0.913436 0
    outer loop
      vertex 12.309 -19.0489 -4
      vertex 12.5 -19.134 0
      vertex 12.309 -19.0489 0
    endloop
  endfacet
  facet normal -0.406981 -0.913436 -0
    outer loop
      vertex 12.5 -19.134 0
      vertex 12.309 -19.0489 -4
      vertex 12.5 -19.134 -4
    endloop
  endfacet
  facet normal 0.994498 -0.104759 0
    outer loop
      vertex 11 -20 0
      vertex 11.0219 -19.7921 -4
      vertex 11.0219 -19.7921 0
    endloop
  endfacet
  facet normal 0.994498 -0.104759 0
    outer loop
      vertex 11.0219 -19.7921 -4
      vertex 11 -20 0
      vertex 11 -20 -4
    endloop
  endfacet
  facet normal 0.742985 -0.669308 0
    outer loop
      vertex 11.191 -19.4122 0
      vertex 11.3309 -19.2569 -4
      vertex 11.3309 -19.2569 0
    endloop
  endfacet
  facet normal 0.742985 -0.669308 0
    outer loop
      vertex 11.3309 -19.2569 -4
      vertex 11.191 -19.4122 0
      vertex 11.191 -19.4122 -4
    endloop
  endfacet
  facet normal 0.406981 -0.913436 0
    outer loop
      vertex 11.5 -19.134 -4
      vertex 11.691 -19.0489 0
      vertex 11.5 -19.134 0
    endloop
  endfacet
  facet normal 0.406981 -0.913436 0
    outer loop
      vertex 11.691 -19.0489 0
      vertex 11.5 -19.134 -4
      vertex 11.691 -19.0489 -4
    endloop
  endfacet
  facet normal -0.994498 0.104759 0
    outer loop
      vertex 12.9781 -20.2079 -4
      vertex 13 -20 0
      vertex 13 -20 -4
    endloop
  endfacet
  facet normal -0.994498 0.104759 0
    outer loop
      vertex 13 -20 0
      vertex 12.9781 -20.2079 -4
      vertex 12.9781 -20.2079 0
    endloop
  endfacet
  facet normal 0.994498 0.104759 0
    outer loop
      vertex 11.0219 -20.2079 0
      vertex 11 -20 -4
      vertex 11 -20 0
    endloop
  endfacet
  facet normal 0.994498 0.104759 0
    outer loop
      vertex 11 -20 -4
      vertex 11.0219 -20.2079 0
      vertex 11.0219 -20.2079 -4
    endloop
  endfacet
  facet normal -0.742985 0.669308 0
    outer loop
      vertex 12.6691 -20.7431 -4
      vertex 12.809 -20.5878 0
      vertex 12.809 -20.5878 -4
    endloop
  endfacet
  facet normal -0.742985 0.669308 0
    outer loop
      vertex 12.809 -20.5878 0
      vertex 12.6691 -20.7431 -4
      vertex 12.6691 -20.7431 0
    endloop
  endfacet
  facet normal -0.866146 0.499791 0
    outer loop
      vertex 12.809 -20.5878 -4
      vertex 12.9135 -20.4067 0
      vertex 12.9135 -20.4067 -4
    endloop
  endfacet
  facet normal -0.866146 0.499791 0
    outer loop
      vertex 12.9135 -20.4067 0
      vertex 12.809 -20.5878 -4
      vertex 12.809 -20.5878 0
    endloop
  endfacet
  facet normal 0.406981 0.913436 -0
    outer loop
      vertex 11.691 -20.9511 -4
      vertex 11.5 -20.866 0
      vertex 11.691 -20.9511 0
    endloop
  endfacet
  facet normal 0.406981 0.913436 0
    outer loop
      vertex 11.5 -20.866 0
      vertex 11.691 -20.9511 -4
      vertex 11.5 -20.866 -4
    endloop
  endfacet
  facet normal 0.742985 0.669308 0
    outer loop
      vertex 11.3309 -20.7431 0
      vertex 11.191 -20.5878 -4
      vertex 11.191 -20.5878 0
    endloop
  endfacet
  facet normal 0.742985 0.669308 0
    outer loop
      vertex 11.191 -20.5878 -4
      vertex 11.3309 -20.7431 0
      vertex 11.3309 -20.7431 -4
    endloop
  endfacet
  facet normal 0.951048 0.309043 0
    outer loop
      vertex 11.0865 -20.4067 0
      vertex 11.0219 -20.2079 -4
      vertex 11.0219 -20.2079 0
    endloop
  endfacet
  facet normal 0.951048 0.309043 0
    outer loop
      vertex 11.0219 -20.2079 -4
      vertex 11.0865 -20.4067 0
      vertex 11.0865 -20.4067 -4
    endloop
  endfacet
  facet normal -0.406981 0.913436 0
    outer loop
      vertex 12.5 -20.866 -4
      vertex 12.309 -20.9511 0
      vertex 12.5 -20.866 0
    endloop
  endfacet
  facet normal -0.406981 0.913436 0
    outer loop
      vertex 12.309 -20.9511 0
      vertex 12.5 -20.866 -4
      vertex 12.309 -20.9511 -4
    endloop
  endfacet
  facet normal 0 1 -0
    outer loop
      vertex 12.1045 -20.9945 -4
      vertex 11.8955 -20.9945 0
      vertex 12.1045 -20.9945 0
    endloop
  endfacet
  facet normal 0 1 0
    outer loop
      vertex 11.8955 -20.9945 0
      vertex 12.1045 -20.9945 -4
      vertex 11.8955 -20.9945 -4
    endloop
  endfacet
  facet normal 0.207601 0.978214 -0
    outer loop
      vertex 11.8955 -20.9945 -4
      vertex 11.691 -20.9511 0
      vertex 11.8955 -20.9945 0
    endloop
  endfacet
  facet normal 0.207601 0.978214 0
    outer loop
      vertex 11.691 -20.9511 0
      vertex 11.8955 -20.9945 -4
      vertex 11.691 -20.9511 -4
    endloop
  endfacet
  facet normal 0.587916 0.808922 -0
    outer loop
      vertex 11.5 -20.866 -4
      vertex 11.3309 -20.7431 0
      vertex 11.5 -20.866 0
    endloop
  endfacet
  facet normal 0.587916 0.808922 0
    outer loop
      vertex 11.3309 -20.7431 0
      vertex 11.5 -20.866 -4
      vertex 11.3309 -20.7431 -4
    endloop
  endfacet
  facet normal 0.866146 0.499791 0
    outer loop
      vertex 11.191 -20.5878 0
      vertex 11.0865 -20.4067 -4
      vertex 11.0865 -20.4067 0
    endloop
  endfacet
  facet normal 0.866146 0.499791 0
    outer loop
      vertex 11.0865 -20.4067 -4
      vertex 11.191 -20.5878 0
      vertex 11.191 -20.5878 -4
    endloop
  endfacet
  facet normal -0.587916 0.808922 0
    outer loop
      vertex 12.6691 -20.7431 -4
      vertex 12.5 -20.866 0
      vertex 12.6691 -20.7431 0
    endloop
  endfacet
  facet normal -0.587916 0.808922 0
    outer loop
      vertex 12.5 -20.866 0
      vertex 12.6691 -20.7431 -4
      vertex 12.5 -20.866 -4
    endloop
  endfacet
  facet normal -0.994521 -0.104532 0
    outer loop
      vertex 1 13.5 -4
      vertex 0.978148 13.7079 0
      vertex 0.978148 13.7079 -4
    endloop
  endfacet
  facet normal -0.994521 -0.104532 0
    outer loop
      vertex 0.978148 13.7079 0
      vertex 1 13.5 -4
      vertex 1 13.5 0
    endloop
  endfacet
  facet normal 0.207613 -0.978211 0
    outer loop
      vertex -0.309016 14.4511 -4
      vertex -0.104528 14.4945 0
      vertex -0.309016 14.4511 0
    endloop
  endfacet
  facet normal 0.207613 -0.978211 0
    outer loop
      vertex -0.104528 14.4945 0
      vertex -0.309016 14.4511 -4
      vertex -0.104528 14.4945 -4
    endloop
  endfacet
  facet normal -0.207613 0.978211 0
    outer loop
      vertex 0.309016 12.5489 -4
      vertex 0.104528 12.5055 0
      vertex 0.309016 12.5489 0
    endloop
  endfacet
  facet normal -0.207613 0.978211 0
    outer loop
      vertex 0.104528 12.5055 0
      vertex 0.309016 12.5489 -4
      vertex 0.104528 12.5055 -4
    endloop
  endfacet
  facet normal -0.587847 -0.808972 0
    outer loop
      vertex 0.5 14.366 -4
      vertex 0.66913 14.2431 0
      vertex 0.5 14.366 0
    endloop
  endfacet
  facet normal -0.587847 -0.808972 -0
    outer loop
      vertex 0.66913 14.2431 0
      vertex 0.5 14.366 -4
      vertex 0.66913 14.2431 -4
    endloop
  endfacet
  facet normal 0.866086 -0.499896 0
    outer loop
      vertex -0.913545 13.9067 0
      vertex -0.809016 14.0878 -4
      vertex -0.809016 14.0878 0
    endloop
  endfacet
  facet normal 0.866086 -0.499896 0
    outer loop
      vertex -0.809016 14.0878 -4
      vertex -0.913545 13.9067 0
      vertex -0.913545 13.9067 -4
    endloop
  endfacet
  facet normal 0.951044 -0.309056 0
    outer loop
      vertex -0.978148 13.7079 0
      vertex -0.913545 13.9067 -4
      vertex -0.913545 13.9067 0
    endloop
  endfacet
  facet normal 0.951044 -0.309056 0
    outer loop
      vertex -0.913545 13.9067 -4
      vertex -0.978148 13.7079 0
      vertex -0.978148 13.7079 -4
    endloop
  endfacet
  facet normal 0.587847 -0.808972 0
    outer loop
      vertex -0.66913 14.2431 -4
      vertex -0.5 14.366 0
      vertex -0.66913 14.2431 0
    endloop
  endfacet
  facet normal 0.587847 -0.808972 0
    outer loop
      vertex -0.5 14.366 0
      vertex -0.66913 14.2431 -4
      vertex -0.5 14.366 -4
    endloop
  endfacet
  facet normal -0.951044 0.309056 0
    outer loop
      vertex 0.913545 13.0933 -4
      vertex 0.978148 13.2921 0
      vertex 0.978148 13.2921 -4
    endloop
  endfacet
  facet normal -0.951044 0.309056 0
    outer loop
      vertex 0.978148 13.2921 0
      vertex 0.913545 13.0933 -4
      vertex 0.913545 13.0933 0
    endloop
  endfacet
  facet normal -0.866086 -0.499896 0
    outer loop
      vertex 0.913545 13.9067 -4
      vertex 0.809016 14.0878 0
      vertex 0.809016 14.0878 -4
    endloop
  endfacet
  facet normal -0.866086 -0.499896 0
    outer loop
      vertex 0.809016 14.0878 0
      vertex 0.913545 13.9067 -4
      vertex 0.913545 13.9067 0
    endloop
  endfacet
  facet normal -0.951044 -0.309056 0
    outer loop
      vertex 0.978148 13.7079 -4
      vertex 0.913545 13.9067 0
      vertex 0.913545 13.9067 -4
    endloop
  endfacet
  facet normal -0.951044 -0.309056 0
    outer loop
      vertex 0.913545 13.9067 0
      vertex 0.978148 13.7079 -4
      vertex 0.978148 13.7079 0
    endloop
  endfacet
  facet normal -0.743018 -0.669271 0
    outer loop
      vertex 0.809016 14.0878 -4
      vertex 0.66913 14.2431 0
      vertex 0.66913 14.2431 -4
    endloop
  endfacet
  facet normal -0.743018 -0.669271 0
    outer loop
      vertex 0.66913 14.2431 0
      vertex 0.809016 14.0878 -4
      vertex 0.809016 14.0878 0
    endloop
  endfacet
  facet normal -0.207613 -0.978211 0
    outer loop
      vertex 0.104528 14.4945 -4
      vertex 0.309016 14.4511 0
      vertex 0.104528 14.4945 0
    endloop
  endfacet
  facet normal -0.207613 -0.978211 -0
    outer loop
      vertex 0.309016 14.4511 0
      vertex 0.104528 14.4945 -4
      vertex 0.309016 14.4511 -4
    endloop
  endfacet
  facet normal 0 -1 0
    outer loop
      vertex -0.104528 14.4945 -4
      vertex 0.104528 14.4945 0
      vertex -0.104528 14.4945 0
    endloop
  endfacet
  facet normal 0 -1 -0
    outer loop
      vertex 0.104528 14.4945 0
      vertex -0.104528 14.4945 -4
      vertex 0.104528 14.4945 -4
    endloop
  endfacet
  facet normal -0.40701 -0.913424 0
    outer loop
      vertex 0.309016 14.4511 -4
      vertex 0.5 14.366 0
      vertex 0.309016 14.4511 0
    endloop
  endfacet
  facet normal -0.40701 -0.913424 -0
    outer loop
      vertex 0.5 14.366 0
      vertex 0.309016 14.4511 -4
      vertex 0.5 14.366 -4
    endloop
  endfacet
  facet normal 0.994521 -0.104532 0
    outer loop
      vertex -1 13.5 0
      vertex -0.978148 13.7079 -4
      vertex -0.978148 13.7079 0
    endloop
  endfacet
  facet normal 0.994521 -0.104532 0
    outer loop
      vertex -0.978148 13.7079 -4
      vertex -1 13.5 0
      vertex -1 13.5 -4
    endloop
  endfacet
  facet normal 0.743018 -0.669271 0
    outer loop
      vertex -0.809016 14.0878 0
      vertex -0.66913 14.2431 -4
      vertex -0.66913 14.2431 0
    endloop
  endfacet
  facet normal 0.743018 -0.669271 0
    outer loop
      vertex -0.66913 14.2431 -4
      vertex -0.809016 14.0878 0
      vertex -0.809016 14.0878 -4
    endloop
  endfacet
  facet normal 0.40701 -0.913424 0
    outer loop
      vertex -0.5 14.366 -4
      vertex -0.309016 14.4511 0
      vertex -0.5 14.366 0
    endloop
  endfacet
  facet normal 0.40701 -0.913424 0
    outer loop
      vertex -0.309016 14.4511 0
      vertex -0.5 14.366 -4
      vertex -0.309016 14.4511 -4
    endloop
  endfacet
  facet normal -0.994521 0.104532 0
    outer loop
      vertex 0.978148 13.2921 -4
      vertex 1 13.5 0
      vertex 1 13.5 -4
    endloop
  endfacet
  facet normal -0.994521 0.104532 0
    outer loop
      vertex 1 13.5 0
      vertex 0.978148 13.2921 -4
      vertex 0.978148 13.2921 0
    endloop
  endfacet
  facet normal 0.994521 0.104532 0
    outer loop
      vertex -0.978148 13.2921 0
      vertex -1 13.5 -4
      vertex -1 13.5 0
    endloop
  endfacet
  facet normal 0.994521 0.104532 0
    outer loop
      vertex -1 13.5 -4
      vertex -0.978148 13.2921 0
      vertex -0.978148 13.2921 -4
    endloop
  endfacet
  facet normal -0.743018 0.669271 0
    outer loop
      vertex 0.66913 12.7569 -4
      vertex 0.809016 12.9122 0
      vertex 0.809016 12.9122 -4
    endloop
  endfacet
  facet normal -0.743018 0.669271 0
    outer loop
      vertex 0.809016 12.9122 0
      vertex 0.66913 12.7569 -4
      vertex 0.66913 12.7569 0
    endloop
  endfacet
  facet normal -0.866086 0.499896 0
    outer loop
      vertex 0.809016 12.9122 -4
      vertex 0.913545 13.0933 0
      vertex 0.913545 13.0933 -4
    endloop
  endfacet
  facet normal -0.866086 0.499896 0
    outer loop
      vertex 0.913545 13.0933 0
      vertex 0.809016 12.9122 -4
      vertex 0.809016 12.9122 0
    endloop
  endfacet
  facet normal 0.40701 0.913424 -0
    outer loop
      vertex -0.309016 12.5489 -4
      vertex -0.5 12.634 0
      vertex -0.309016 12.5489 0
    endloop
  endfacet
  facet normal 0.40701 0.913424 0
    outer loop
      vertex -0.5 12.634 0
      vertex -0.309016 12.5489 -4
      vertex -0.5 12.634 -4
    endloop
  endfacet
  facet normal 0.743018 0.669271 0
    outer loop
      vertex -0.66913 12.7569 0
      vertex -0.809016 12.9122 -4
      vertex -0.809016 12.9122 0
    endloop
  endfacet
  facet normal 0.743018 0.669271 0
    outer loop
      vertex -0.809016 12.9122 -4
      vertex -0.66913 12.7569 0
      vertex -0.66913 12.7569 -4
    endloop
  endfacet
  facet normal 0.207613 0.978211 -0
    outer loop
      vertex -0.104528 12.5055 -4
      vertex -0.309016 12.5489 0
      vertex -0.104528 12.5055 0
    endloop
  endfacet
  facet normal 0.207613 0.978211 0
    outer loop
      vertex -0.309016 12.5489 0
      vertex -0.104528 12.5055 -4
      vertex -0.309016 12.5489 -4
    endloop
  endfacet
  facet normal 0.587847 0.808972 -0
    outer loop
      vertex -0.5 12.634 -4
      vertex -0.66913 12.7569 0
      vertex -0.5 12.634 0
    endloop
  endfacet
  facet normal 0.587847 0.808972 0
    outer loop
      vertex -0.66913 12.7569 0
      vertex -0.5 12.634 -4
      vertex -0.66913 12.7569 -4
    endloop
  endfacet
  facet normal 0.866086 0.499896 0
    outer loop
      vertex -0.809016 12.9122 0
      vertex -0.913545 13.0933 -4
      vertex -0.913545 13.0933 0
    endloop
  endfacet
  facet normal 0.866086 0.499896 0
    outer loop
      vertex -0.913545 13.0933 -4
      vertex -0.809016 12.9122 0
      vertex -0.809016 12.9122 -4
    endloop
  endfacet
  facet normal 0.951044 0.309056 0
    outer loop
      vertex -0.913545 13.0933 0
      vertex -0.978148 13.2921 -4
      vertex -0.978148 13.2921 0
    endloop
  endfacet
  facet normal 0.951044 0.309056 0
    outer loop
      vertex -0.978148 13.2921 -4
      vertex -0.913545 13.0933 0
      vertex -0.913545 13.0933 -4
    endloop
  endfacet
  facet normal -0.587847 0.808972 0
    outer loop
      vertex 0.66913 12.7569 -4
      vertex 0.5 12.634 0
      vertex 0.66913 12.7569 0
    endloop
  endfacet
  facet normal -0.587847 0.808972 0
    outer loop
      vertex 0.5 12.634 0
      vertex 0.66913 12.7569 -4
      vertex 0.5 12.634 -4
    endloop
  endfacet
  facet normal -0.40701 0.913424 0
    outer loop
      vertex 0.5 12.634 -4
      vertex 0.309016 12.5489 0
      vertex 0.5 12.634 0
    endloop
  endfacet
  facet normal -0.40701 0.913424 0
    outer loop
      vertex 0.309016 12.5489 0
      vertex 0.5 12.634 -4
      vertex 0.309016 12.5489 -4
    endloop
  endfacet
  facet normal 0 1 -0
    outer loop
      vertex 0.104528 12.5055 -4
      vertex -0.104528 12.5055 0
      vertex 0.104528 12.5055 0
    endloop
  endfacet
  facet normal 0 1 0
    outer loop
      vertex -0.104528 12.5055 0
      vertex 0.104528 12.5055 -4
      vertex -0.104528 12.5055 -4
    endloop
  endfacet
endsolid OpenSCAD_Model
