solid OpenSCAD_Model
  facet normal -1 0 0
    outer loop
      vertex 183.5 22.5 32
      vertex 183.5 38.4218 0
      vertex 183.5 22.5 5
    endloop
  endfacet
  facet normal -1 0 0
    outer loop
      vertex 183.5 0 0
      vertex 183.5 22.5 5
      vertex 183.5 38.4218 0
    endloop
  endfacet
  facet normal -1 -0 0
    outer loop
      vertex 183.5 4 5
      vertex 183.5 0 0
      vertex 183.5 4 32
    endloop
  endfacet
  facet normal -1 -0 0
    outer loop
      vertex 183.5 22.5 5
      vertex 183.5 0 0
      vertex 183.5 4 5
    endloop
  endfacet
  facet normal -1 0 0
    outer loop
      vertex 183.5 38.4218 0
      vertex 183.5 22.5 32
      vertex 183.5 38.4218 40
    endloop
  endfacet
  facet normal -1 0 0
    outer loop
      vertex 183.5 0 40
      vertex 183.5 22.5 32
      vertex 183.5 4 32
    endloop
  endfacet
  facet normal -1 0 0
    outer loop
      vertex 183.5 22.5 32
      vertex 183.5 0 40
      vertex 183.5 38.4218 40
    endloop
  endfacet
  facet normal -1 0 0
    outer loop
      vertex 183.5 0 40
      vertex 183.5 4 32
      vertex 183.5 0 0
    endloop
  endfacet
  facet normal -0 0 1
    outer loop
      vertex 185.12 46.2 40
      vertex 238.5 13.75 40
      vertex 238.5 100 40
    endloop
  endfacet
  facet normal -0 0 1
    outer loop
      vertex 184.674 42.0002 40
      vertex 238.5 13.75 40
      vertex 185.12 46.2 40
    endloop
  endfacet
  facet normal -0 0 1
    outer loop
      vertex 183.5 38.4218 40
      vertex 238.5 13.75 40
      vertex 184.674 42.0002 40
    endloop
  endfacet
  facet normal 0 -0 1
    outer loop
      vertex 224.75 0.0753231 40
      vertex 238.5 13.75 40
      vertex 183.5 38.4218 40
    endloop
  endfacet
  facet normal 0 0 1
    outer loop
      vertex 238.2 10.8912 40
      vertex 224.75 0.0753231 40
      vertex 237.311 8.15737 40
    endloop
  endfacet
  facet normal 0 0 1
    outer loop
      vertex 237.311 8.15737 40
      vertex 224.75 0.0753231 40
      vertex 235.874 5.66795 40
    endloop
  endfacet
  facet normal 0 0 1
    outer loop
      vertex 235.874 5.66795 40
      vertex 224.75 0.0753231 40
      vertex 233.951 3.53176 40
    endloop
  endfacet
  facet normal 0 0 1
    outer loop
      vertex 233.951 3.53176 40
      vertex 224.75 0.0753231 40
      vertex 231.625 1.84215 40
    endloop
  endfacet
  facet normal 0 0 1
    outer loop
      vertex 185.12 46.2 40
      vertex 238.5 100 40
      vertex 185.12 100 40
    endloop
  endfacet
  facet normal 0 0 1
    outer loop
      vertex 228.999 0.672973 40
      vertex 224.75 0.0753231 40
      vertex 226.187 0.0753231 40
    endloop
  endfacet
  facet normal 0 0 1
    outer loop
      vertex 231.625 1.84215 40
      vertex 224.75 0.0753231 40
      vertex 228.999 0.672973 40
    endloop
  endfacet
  facet normal 0 0 1
    outer loop
      vertex 238.5 13.75 40
      vertex 224.75 0.0753231 40
      vertex 238.2 10.8912 40
    endloop
  endfacet
  facet normal 0 0 1
    outer loop
      vertex 183.5 0 40
      vertex 224.75 0.0753231 40
      vertex 183.5 38.4218 40
    endloop
  endfacet
  facet normal 0 0 1
    outer loop
      vertex 224.75 0.0753231 40
      vertex 183.5 0 40
      vertex 224.75 0 40
    endloop
  endfacet
  facet normal 1 -0 0
    outer loop
      vertex 224.75 0 40
      vertex 224.75 0.0753231 0
      vertex 224.75 0.0753231 40
    endloop
  endfacet
  facet normal 1 0 0
    outer loop
      vertex 224.75 0.0753231 0
      vertex 224.75 0 40
      vertex 224.75 0 0
    endloop
  endfacet
  facet normal 0 0 -1
    outer loop
      vertex 224.75 0 0
      vertex 188 6 0
      vertex 224.75 0.0753231 0
    endloop
  endfacet
  facet normal 0 0 -1
    outer loop
      vertex 188 6 0
      vertex 185.12 46.2 0
      vertex 188 100 0
    endloop
  endfacet
  facet normal 0 0 -1
    outer loop
      vertex 188 6 0
      vertex 184.674 42.0002 0
      vertex 185.12 46.2 0
    endloop
  endfacet
  facet normal 0 0 -1
    outer loop
      vertex 183.5 0 0
      vertex 188 6 0
      vertex 224.75 0 0
    endloop
  endfacet
  facet normal 0 0 -1
    outer loop
      vertex 183.5 38.4218 0
      vertex 188 6 0
      vertex 183.5 0 0
    endloop
  endfacet
  facet normal 0 0 -1
    outer loop
      vertex 188 6 0
      vertex 183.5 38.4218 0
      vertex 184.674 42.0002 0
    endloop
  endfacet
  facet normal 0 0 -1
    outer loop
      vertex 233.951 3.53176 0
      vertex 234 6 0
      vertex 235.874 5.66795 0
    endloop
  endfacet
  facet normal 0 0 -1
    outer loop
      vertex 231.625 1.84215 0
      vertex 234 6 0
      vertex 233.951 3.53176 0
    endloop
  endfacet
  facet normal 0 0 -1
    outer loop
      vertex 228.999 0.672973 0
      vertex 234 6 0
      vertex 231.625 1.84215 0
    endloop
  endfacet
  facet normal 0 0 -1
    outer loop
      vertex 226.187 0.0753231 0
      vertex 234 6 0
      vertex 228.999 0.672973 0
    endloop
  endfacet
  facet normal 0 0 -1
    outer loop
      vertex 224.75 0.0753231 0
      vertex 234 6 0
      vertex 226.187 0.0753231 0
    endloop
  endfacet
  facet normal -0 0 -1
    outer loop
      vertex 234 6 0
      vertex 224.75 0.0753231 0
      vertex 188 6 0
    endloop
  endfacet
  facet normal 0 0 -1
    outer loop
      vertex 234 6 0
      vertex 238.5 13.75 0
      vertex 238.2 10.8912 0
    endloop
  endfacet
  facet normal 0 0 -1
    outer loop
      vertex 234 6 0
      vertex 238.2 10.8912 0
      vertex 237.311 8.15737 0
    endloop
  endfacet
  facet normal 0 0 -1
    outer loop
      vertex 234 6 0
      vertex 237.311 8.15737 0
      vertex 235.874 5.66795 0
    endloop
  endfacet
  facet normal -0 0 -1
    outer loop
      vertex 238.5 13.75 0
      vertex 234 6 0
      vertex 234 100 0
    endloop
  endfacet
  facet normal 0 0 -1
    outer loop
      vertex 238.5 13.75 0
      vertex 234 100 0
      vertex 238.5 100 0
    endloop
  endfacet
  facet normal -0 0 -1
    outer loop
      vertex 188 100 0
      vertex 185.12 46.2 0
      vertex 185.12 100 0
    endloop
  endfacet
  facet normal 0 -1 0
    outer loop
      vertex 183.5 0 0
      vertex 224.75 0 40
      vertex 183.5 0 40
    endloop
  endfacet
  facet normal 0 -1 -0
    outer loop
      vertex 224.75 0 40
      vertex 183.5 0 0
      vertex 224.75 0 0
    endloop
  endfacet
  facet normal 1 -0 0
    outer loop
      vertex 238.5 13.75 40
      vertex 238.5 100 0
      vertex 238.5 100 40
    endloop
  endfacet
  facet normal 1 0 0
    outer loop
      vertex 238.5 100 0
      vertex 238.5 13.75 40
      vertex 238.5 13.75 0
    endloop
  endfacet
  facet normal 0 0 -1
    outer loop
      vertex 188 6 37
      vertex 234 100 37
      vertex 234 6 37
    endloop
  endfacet
  facet normal -0 0 -1
    outer loop
      vertex 234 100 37
      vertex 188 6 37
      vertex 188 100 37
    endloop
  endfacet
  facet normal 0.866025 -0.500001 0
    outer loop
      vertex 235.874 5.66795 40
      vertex 237.311 8.15737 0
      vertex 237.311 8.15737 40
    endloop
  endfacet
  facet normal 0.866025 -0.500001 0
    outer loop
      vertex 237.311 8.15737 0
      vertex 235.874 5.66795 40
      vertex 235.874 5.66795 0
    endloop
  endfacet
  facet normal 0.207913 -0.978147 0
    outer loop
      vertex 226.187 0.0753231 0
      vertex 228.999 0.672973 40
      vertex 226.187 0.0753231 40
    endloop
  endfacet
  facet normal 0.207913 -0.978147 0
    outer loop
      vertex 228.999 0.672973 40
      vertex 226.187 0.0753231 0
      vertex 228.999 0.672973 0
    endloop
  endfacet
  facet normal 0.587785 -0.809017 0
    outer loop
      vertex 231.625 1.84215 0
      vertex 233.951 3.53176 40
      vertex 231.625 1.84215 40
    endloop
  endfacet
  facet normal 0.587785 -0.809017 0
    outer loop
      vertex 233.951 3.53176 40
      vertex 231.625 1.84215 0
      vertex 233.951 3.53176 0
    endloop
  endfacet
  facet normal 0 -1 0
    outer loop
      vertex 224.75 0.0753231 0
      vertex 226.187 0.0753231 40
      vertex 224.75 0.0753231 40
    endloop
  endfacet
  facet normal 0 -1 -0
    outer loop
      vertex 226.187 0.0753231 40
      vertex 224.75 0.0753231 0
      vertex 226.187 0.0753231 0
    endloop
  endfacet
  facet normal 0.406736 -0.913546 0
    outer loop
      vertex 228.999 0.672973 0
      vertex 231.625 1.84215 40
      vertex 228.999 0.672973 40
    endloop
  endfacet
  facet normal 0.406736 -0.913546 0
    outer loop
      vertex 231.625 1.84215 40
      vertex 228.999 0.672973 0
      vertex 231.625 1.84215 0
    endloop
  endfacet
  facet normal 0.743146 -0.669129 0
    outer loop
      vertex 233.951 3.53176 40
      vertex 235.874 5.66795 0
      vertex 235.874 5.66795 40
    endloop
  endfacet
  facet normal 0.743146 -0.669129 0
    outer loop
      vertex 235.874 5.66795 0
      vertex 233.951 3.53176 40
      vertex 233.951 3.53176 0
    endloop
  endfacet
  facet normal 0.951057 -0.309016 0
    outer loop
      vertex 237.311 8.15737 40
      vertex 238.2 10.8912 0
      vertex 238.2 10.8912 40
    endloop
  endfacet
  facet normal 0.951057 -0.309016 0
    outer loop
      vertex 238.2 10.8912 0
      vertex 237.311 8.15737 40
      vertex 237.311 8.15737 0
    endloop
  endfacet
  facet normal 0.994522 -0.10453 0
    outer loop
      vertex 238.2 10.8912 40
      vertex 238.5 13.75 0
      vertex 238.5 13.75 40
    endloop
  endfacet
  facet normal 0.994522 -0.10453 0
    outer loop
      vertex 238.5 13.75 0
      vertex 238.2 10.8912 40
      vertex 238.2 10.8912 0
    endloop
  endfacet
  facet normal 1 0 0
    outer loop
      vertex 188 100 37
      vertex 188 22.5 32
      vertex 188 100 0
    endloop
  endfacet
  facet normal 1 -0 0
    outer loop
      vertex 188 6 37
      vertex 188 22.5 32
      vertex 188 100 37
    endloop
  endfacet
  facet normal 1 0 0
    outer loop
      vertex 188 22.5 32
      vertex 188 6 37
      vertex 188 6 32
    endloop
  endfacet
  facet normal 1 -0 0
    outer loop
      vertex 188 22.5 5
      vertex 188 100 0
      vertex 188 22.5 32
    endloop
  endfacet
  facet normal 1 0 0
    outer loop
      vertex 188 6 0
      vertex 188 22.5 5
      vertex 188 6 5
    endloop
  endfacet
  facet normal 1 0 0
    outer loop
      vertex 188 22.5 5
      vertex 188 6 0
      vertex 188 100 0
    endloop
  endfacet
  facet normal -1 0 0
    outer loop
      vertex 234 6 0
      vertex 234 100 37
      vertex 234 100 0
    endloop
  endfacet
  facet normal -1 -0 0
    outer loop
      vertex 234 100 37
      vertex 234 6 0
      vertex 234 6 37
    endloop
  endfacet
  facet normal 0 1 0
    outer loop
      vertex 234 6 37
      vertex 189.5 6 32
      vertex 188 6 37
    endloop
  endfacet
  facet normal 0 1 0
    outer loop
      vertex 234 6 37
      vertex 189.5 6 5
      vertex 189.5 6 32
    endloop
  endfacet
  facet normal 0 1 -0
    outer loop
      vertex 234 6 0
      vertex 189.5 6 5
      vertex 234 6 37
    endloop
  endfacet
  facet normal 0 1 0
    outer loop
      vertex 188 6 0
      vertex 189.5 6 5
      vertex 234 6 0
    endloop
  endfacet
  facet normal 0 1 0
    outer loop
      vertex 189.5 6 5
      vertex 188 6 0
      vertex 188 6 5
    endloop
  endfacet
  facet normal 0 1 0
    outer loop
      vertex 188 6 37
      vertex 189.5 6 32
      vertex 188 6 32
    endloop
  endfacet
  facet normal 0 0 -1
    outer loop
      vertex 189.5 4 32
      vertex 188 6 32
      vertex 189.5 6 32
    endloop
  endfacet
  facet normal 0 0 -1
    outer loop
      vertex 183.5 4 32
      vertex 188 6 32
      vertex 189.5 4 32
    endloop
  endfacet
  facet normal 0 0 -1
    outer loop
      vertex 183.5 22.5 32
      vertex 188 6 32
      vertex 183.5 4 32
    endloop
  endfacet
  facet normal 0 0 -1
    outer loop
      vertex 188 6 32
      vertex 183.5 22.5 32
      vertex 188 22.5 32
    endloop
  endfacet
  facet normal -1 0 0
    outer loop
      vertex 189.5 4 5
      vertex 189.5 6 32
      vertex 189.5 6 5
    endloop
  endfacet
  facet normal -1 -0 0
    outer loop
      vertex 189.5 6 32
      vertex 189.5 4 5
      vertex 189.5 4 32
    endloop
  endfacet
  facet normal 0 0 1
    outer loop
      vertex 188 22.5 5
      vertex 183.5 22.5 5
      vertex 188 6 5
    endloop
  endfacet
  facet normal -0 0 1
    outer loop
      vertex 188 6 5
      vertex 189.5 4 5
      vertex 189.5 6 5
    endloop
  endfacet
  facet normal 0 0 1
    outer loop
      vertex 188 6 5
      vertex 183.5 4 5
      vertex 189.5 4 5
    endloop
  endfacet
  facet normal 0 0 1
    outer loop
      vertex 183.5 4 5
      vertex 188 6 5
      vertex 183.5 22.5 5
    endloop
  endfacet
  facet normal 0 1 -0
    outer loop
      vertex 189.5 4 5
      vertex 183.5 4 32
      vertex 189.5 4 32
    endloop
  endfacet
  facet normal 0 1 0
    outer loop
      vertex 183.5 4 32
      vertex 189.5 4 5
      vertex 183.5 4 5
    endloop
  endfacet
  facet normal 0 -1 0
    outer loop
      vertex 183.5 22.5 5
      vertex 188 22.5 32
      vertex 183.5 22.5 32
    endloop
  endfacet
  facet normal 0 -1 -0
    outer loop
      vertex 188 22.5 32
      vertex 183.5 22.5 5
      vertex 188 22.5 5
    endloop
  endfacet
  facet normal -1 0 0
    outer loop
      vertex 185.12 46.2 0
      vertex 185.12 100 40
      vertex 185.12 100 0
    endloop
  endfacet
  facet normal -1 -0 0
    outer loop
      vertex 185.12 100 40
      vertex 185.12 46.2 0
      vertex 185.12 46.2 40
    endloop
  endfacet
  facet normal -0.994414 0.105551 0
    outer loop
      vertex 184.674 42.0002 0
      vertex 185.12 46.2 40
      vertex 185.12 46.2 0
    endloop
  endfacet
  facet normal -0.994414 0.105551 0
    outer loop
      vertex 185.12 46.2 40
      vertex 184.674 42.0002 0
      vertex 184.674 42.0002 40
    endloop
  endfacet
  facet normal -0.950154 0.31178 0
    outer loop
      vertex 183.5 38.4218 0
      vertex 184.674 42.0002 40
      vertex 184.674 42.0002 0
    endloop
  endfacet
  facet normal -0.950154 0.31178 0
    outer loop
      vertex 184.674 42.0002 40
      vertex 183.5 38.4218 0
      vertex 183.5 38.4218 40
    endloop
  endfacet
  facet normal 0 1 0
    outer loop
      vertex 238.5 100 40
      vertex 234 100 37
      vertex 185.12 100 40
    endloop
  endfacet
  facet normal 0 1 -0
    outer loop
      vertex 238.5 100 0
      vertex 234 100 37
      vertex 238.5 100 40
    endloop
  endfacet
  facet normal 0 1 0
    outer loop
      vertex 234 100 37
      vertex 238.5 100 0
      vertex 234 100 0
    endloop
  endfacet
  facet normal 0 1 -0
    outer loop
      vertex 188 100 37
      vertex 185.12 100 40
      vertex 234 100 37
    endloop
  endfacet
  facet normal 0 1 0
    outer loop
      vertex 185.12 100 0
      vertex 188 100 37
      vertex 188 100 0
    endloop
  endfacet
  facet normal 0 1 0
    outer loop
      vertex 188 100 37
      vertex 185.12 100 0
      vertex 185.12 100 40
    endloop
  endfacet
endsolid OpenSCAD_Model
