solid OpenSCAD_Model
  facet normal -0 0 1
    outer loop
      vertex 183.5 200 40
      vertex 224.75 199.925 40
      vertex 224.75 200 40
    endloop
  endfacet
  facet normal 0 0 1
    outer loop
      vertex 224.75 199.925 40
      vertex 184.674 156.45 40
      vertex 185.12 152.25 40
    endloop
  endfacet
  facet normal 0 0 1
    outer loop
      vertex 224.75 199.925 40
      vertex 183.5 200 40
      vertex 183.5 160.028 40
    endloop
  endfacet
  facet normal 0 0 1
    outer loop
      vertex 224.75 199.925 40
      vertex 183.5 160.028 40
      vertex 184.674 156.45 40
    endloop
  endfacet
  facet normal 0 0 1
    outer loop
      vertex 224.75 199.925 40
      vertex 238.5 186.25 40
      vertex 238.2 189.109 40
    endloop
  endfacet
  facet normal 0 0 1
    outer loop
      vertex 224.75 199.925 40
      vertex 238.2 189.109 40
      vertex 237.311 191.843 40
    endloop
  endfacet
  facet normal 0 0 1
    outer loop
      vertex 224.75 199.925 40
      vertex 237.311 191.843 40
      vertex 235.874 194.332 40
    endloop
  endfacet
  facet normal 0 0 1
    outer loop
      vertex 224.75 199.925 40
      vertex 235.874 194.332 40
      vertex 233.951 196.468 40
    endloop
  endfacet
  facet normal 0 0 1
    outer loop
      vertex 224.75 199.925 40
      vertex 233.951 196.468 40
      vertex 231.625 198.158 40
    endloop
  endfacet
  facet normal 0 0 1
    outer loop
      vertex 224.75 199.925 40
      vertex 231.625 198.158 40
      vertex 228.999 199.327 40
    endloop
  endfacet
  facet normal -0 0 1
    outer loop
      vertex 224.75 199.925 40
      vertex 228.999 199.327 40
      vertex 226.187 199.925 40
    endloop
  endfacet
  facet normal 0 0 1
    outer loop
      vertex 238.5 186.25 40
      vertex 224.75 199.925 40
      vertex 185.12 152.25 40
    endloop
  endfacet
  facet normal 0 0 1
    outer loop
      vertex 238.5 186.25 40
      vertex 185.12 152.25 40
      vertex 238.5 100 40
    endloop
  endfacet
  facet normal 0 0 1
    outer loop
      vertex 238.5 100 40
      vertex 185.12 152.25 40
      vertex 185.12 100 40
    endloop
  endfacet
  facet normal 0 0 -1
    outer loop
      vertex 185.12 152.25 0
      vertex 188 100 0
      vertex 185.12 100 0
    endloop
  endfacet
  facet normal 0 0 -1
    outer loop
      vertex 234 100 0
      vertex 238.5 186.25 0
      vertex 238.5 100 0
    endloop
  endfacet
  facet normal 0 0 -1
    outer loop
      vertex 234 194 0
      vertex 238.5 186.25 0
      vertex 234 100 0
    endloop
  endfacet
  facet normal 0 0 -1
    outer loop
      vertex 238.5 186.25 0
      vertex 234 194 0
      vertex 238.2 189.109 0
    endloop
  endfacet
  facet normal 0 0 -1
    outer loop
      vertex 238.2 189.109 0
      vertex 234 194 0
      vertex 237.311 191.843 0
    endloop
  endfacet
  facet normal 0 0 -1
    outer loop
      vertex 237.311 191.843 0
      vertex 234 194 0
      vertex 235.874 194.332 0
    endloop
  endfacet
  facet normal 0 0 -1
    outer loop
      vertex 234 194 0
      vertex 233.951 196.468 0
      vertex 235.874 194.332 0
    endloop
  endfacet
  facet normal 0 0 -1
    outer loop
      vertex 234 194 0
      vertex 231.625 198.158 0
      vertex 233.951 196.468 0
    endloop
  endfacet
  facet normal 0 0 -1
    outer loop
      vertex 234 194 0
      vertex 228.999 199.327 0
      vertex 231.625 198.158 0
    endloop
  endfacet
  facet normal 0 0 -1
    outer loop
      vertex 234 194 0
      vertex 226.187 199.925 0
      vertex 228.999 199.327 0
    endloop
  endfacet
  facet normal 0 0 -1
    outer loop
      vertex 234 194 0
      vertex 224.75 199.925 0
      vertex 226.187 199.925 0
    endloop
  endfacet
  facet normal 0 0 -1
    outer loop
      vertex 188 194 0
      vertex 224.75 199.925 0
      vertex 234 194 0
    endloop
  endfacet
  facet normal 0 0 -1
    outer loop
      vertex 188 194 0
      vertex 224.75 200 0
      vertex 224.75 199.925 0
    endloop
  endfacet
  facet normal 0 0 -1
    outer loop
      vertex 188 100 0
      vertex 185.12 152.25 0
      vertex 188 194 0
    endloop
  endfacet
  facet normal 0 0 -1
    outer loop
      vertex 184.674 156.45 0
      vertex 188 194 0
      vertex 185.12 152.25 0
    endloop
  endfacet
  facet normal 0 0 -1
    outer loop
      vertex 183.5 160.028 0
      vertex 188 194 0
      vertex 184.674 156.45 0
    endloop
  endfacet
  facet normal 0 0 -1
    outer loop
      vertex 188 194 0
      vertex 183.5 200 0
      vertex 224.75 200 0
    endloop
  endfacet
  facet normal 0 0 -1
    outer loop
      vertex 183.5 200 0
      vertex 188 194 0
      vertex 183.5 160.028 0
    endloop
  endfacet
  facet normal -1 0 0
    outer loop
      vertex 185.12 150.5 8
      vertex 185.12 152.25 0
      vertex 185.12 150.5 4
    endloop
  endfacet
  facet normal -1 0 0
    outer loop
      vertex 185.12 152.25 0
      vertex 185.12 113 4
      vertex 185.12 150.5 4
    endloop
  endfacet
  facet normal -1 -0 0
    outer loop
      vertex 185.12 113 4
      vertex 185.12 100 0
      vertex 185.12 113 8
    endloop
  endfacet
  facet normal -1 0 0
    outer loop
      vertex 185.12 100 0
      vertex 185.12 113 4
      vertex 185.12 152.25 0
    endloop
  endfacet
  facet normal -1 0 0
    outer loop
      vertex 185.12 152.25 0
      vertex 185.12 150.5 8
      vertex 185.12 152.25 28
    endloop
  endfacet
  facet normal -1 0 0
    outer loop
      vertex 185.12 150.5 8
      vertex 185.12 123 28
      vertex 185.12 152.25 28
    endloop
  endfacet
  facet normal -1 0 0
    outer loop
      vertex 185.12 100 40
      vertex 185.12 123 28
      vertex 185.12 113 8
    endloop
  endfacet
  facet normal -1 0 0
    outer loop
      vertex 185.12 113 8
      vertex 185.12 123 28
      vertex 185.12 150.5 8
    endloop
  endfacet
  facet normal -1 0 0
    outer loop
      vertex 185.12 123 32
      vertex 185.12 152.25 40
      vertex 185.12 152.25 32
    endloop
  endfacet
  facet normal -1 0 0
    outer loop
      vertex 185.12 100 40
      vertex 185.12 113 8
      vertex 185.12 100 0
    endloop
  endfacet
  facet normal -1 0 0
    outer loop
      vertex 185.12 123 32
      vertex 185.12 100 40
      vertex 185.12 152.25 40
    endloop
  endfacet
  facet normal -1 0 0
    outer loop
      vertex 185.12 123 28
      vertex 185.12 100 40
      vertex 185.12 123 32
    endloop
  endfacet
  facet normal -0.994414 -0.105551 0
    outer loop
      vertex 185.12 152.25 0
      vertex 184.674 156.45 28
      vertex 184.674 156.45 0
    endloop
  endfacet
  facet normal -0.994414 -0.105551 0
    outer loop
      vertex 184.674 156.45 28
      vertex 185.12 152.25 0
      vertex 185.12 152.25 28
    endloop
  endfacet
  facet normal -0.994414 -0.105551 0
    outer loop
      vertex 185.12 152.25 32
      vertex 184.674 156.45 40
      vertex 184.674 156.45 32
    endloop
  endfacet
  facet normal -0.994414 -0.105551 0
    outer loop
      vertex 184.674 156.45 40
      vertex 185.12 152.25 32
      vertex 185.12 152.25 40
    endloop
  endfacet
  facet normal -0.950154 -0.311781 0
    outer loop
      vertex 184.674 156.45 0
      vertex 183.5 160.028 28
      vertex 183.5 160.028 0
    endloop
  endfacet
  facet normal -0.950154 -0.311781 0
    outer loop
      vertex 183.5 160.028 28
      vertex 184.674 156.45 0
      vertex 184.674 156.45 28
    endloop
  endfacet
  facet normal -0.950154 -0.311781 0
    outer loop
      vertex 184.674 156.45 32
      vertex 183.5 160.028 40
      vertex 183.5 160.028 32
    endloop
  endfacet
  facet normal -0.950154 -0.311781 0
    outer loop
      vertex 183.5 160.028 40
      vertex 184.674 156.45 32
      vertex 184.674 156.45 40
    endloop
  endfacet
  facet normal -1 0 0
    outer loop
      vertex 183.5 195 32
      vertex 183.5 200 0
      vertex 183.5 195 5
    endloop
  endfacet
  facet normal -1 0 0
    outer loop
      vertex 183.5 200 0
      vertex 183.5 176.5 5
      vertex 183.5 195 5
    endloop
  endfacet
  facet normal -1 0 0
    outer loop
      vertex 183.5 176.5 5
      vertex 183.5 160.5 28
      vertex 183.5 176.5 32
    endloop
  endfacet
  facet normal -1 0 0
    outer loop
      vertex 183.5 160.028 0
      vertex 183.5 176.5 5
      vertex 183.5 200 0
    endloop
  endfacet
  facet normal -1 0 0
    outer loop
      vertex 183.5 160.028 0
      vertex 183.5 160.5 28
      vertex 183.5 176.5 5
    endloop
  endfacet
  facet normal -1 -0 0
    outer loop
      vertex 183.5 160.5 28
      vertex 183.5 160.028 0
      vertex 183.5 160.028 28
    endloop
  endfacet
  facet normal -1 0 0
    outer loop
      vertex 183.5 200 0
      vertex 183.5 195 32
      vertex 183.5 200 40
    endloop
  endfacet
  facet normal -1 0 0
    outer loop
      vertex 183.5 176.5 32
      vertex 183.5 200 40
      vertex 183.5 195 32
    endloop
  endfacet
  facet normal -1 0 0
    outer loop
      vertex 183.5 160.5 32
      vertex 183.5 176.5 32
      vertex 183.5 160.5 28
    endloop
  endfacet
  facet normal -1 0 0
    outer loop
      vertex 183.5 160.028 40
      vertex 183.5 176.5 32
      vertex 183.5 160.5 32
    endloop
  endfacet
  facet normal -1 0 0
    outer loop
      vertex 183.5 160.028 40
      vertex 183.5 160.5 32
      vertex 183.5 160.028 32
    endloop
  endfacet
  facet normal -1 0 0
    outer loop
      vertex 183.5 176.5 32
      vertex 183.5 160.028 40
      vertex 183.5 200 40
    endloop
  endfacet
  facet normal 1 -0 0
    outer loop
      vertex 224.75 199.925 40
      vertex 224.75 200 0
      vertex 224.75 200 40
    endloop
  endfacet
  facet normal 1 0 0
    outer loop
      vertex 224.75 200 0
      vertex 224.75 199.925 40
      vertex 224.75 199.925 0
    endloop
  endfacet
  facet normal 0 1 -0
    outer loop
      vertex 224.75 200 0
      vertex 183.5 200 40
      vertex 224.75 200 40
    endloop
  endfacet
  facet normal 0 1 0
    outer loop
      vertex 183.5 200 40
      vertex 224.75 200 0
      vertex 183.5 200 0
    endloop
  endfacet
  facet normal 1 -0 0
    outer loop
      vertex 238.5 100 40
      vertex 238.5 186.25 0
      vertex 238.5 186.25 40
    endloop
  endfacet
  facet normal 1 0 0
    outer loop
      vertex 238.5 186.25 0
      vertex 238.5 100 40
      vertex 238.5 100 0
    endloop
  endfacet
  facet normal 0 0 -1
    outer loop
      vertex 188 100 37
      vertex 234 194 37
      vertex 234 100 37
    endloop
  endfacet
  facet normal -0 0 -1
    outer loop
      vertex 234 194 37
      vertex 188 100 37
      vertex 188 194 37
    endloop
  endfacet
  facet normal 0.994522 0.104531 0
    outer loop
      vertex 238.5 186.25 40
      vertex 238.2 189.109 0
      vertex 238.2 189.109 40
    endloop
  endfacet
  facet normal 0.994522 0.104531 0
    outer loop
      vertex 238.2 189.109 0
      vertex 238.5 186.25 40
      vertex 238.5 186.25 0
    endloop
  endfacet
  facet normal 0 1 -0
    outer loop
      vertex 226.187 199.925 0
      vertex 224.75 199.925 40
      vertex 226.187 199.925 40
    endloop
  endfacet
  facet normal 0 1 0
    outer loop
      vertex 224.75 199.925 40
      vertex 226.187 199.925 0
      vertex 224.75 199.925 0
    endloop
  endfacet
  facet normal 0.587785 0.809017 -0
    outer loop
      vertex 233.951 196.468 0
      vertex 231.625 198.158 40
      vertex 233.951 196.468 40
    endloop
  endfacet
  facet normal 0.587785 0.809017 0
    outer loop
      vertex 231.625 198.158 40
      vertex 233.951 196.468 0
      vertex 231.625 198.158 0
    endloop
  endfacet
  facet normal 0.866025 0.5 0
    outer loop
      vertex 237.311 191.843 40
      vertex 235.874 194.332 0
      vertex 235.874 194.332 40
    endloop
  endfacet
  facet normal 0.866025 0.5 0
    outer loop
      vertex 235.874 194.332 0
      vertex 237.311 191.843 40
      vertex 237.311 191.843 0
    endloop
  endfacet
  facet normal 0.951057 0.309016 0
    outer loop
      vertex 238.2 189.109 40
      vertex 237.311 191.843 0
      vertex 237.311 191.843 40
    endloop
  endfacet
  facet normal 0.951057 0.309016 0
    outer loop
      vertex 237.311 191.843 0
      vertex 238.2 189.109 40
      vertex 238.2 189.109 0
    endloop
  endfacet
  facet normal 0.743147 0.669128 0
    outer loop
      vertex 235.874 194.332 40
      vertex 233.951 196.468 0
      vertex 233.951 196.468 40
    endloop
  endfacet
  facet normal 0.743147 0.669128 0
    outer loop
      vertex 233.951 196.468 0
      vertex 235.874 194.332 40
      vertex 235.874 194.332 0
    endloop
  endfacet
  facet normal 0.207915 0.978147 -0
    outer loop
      vertex 228.999 199.327 0
      vertex 226.187 199.925 40
      vertex 228.999 199.327 40
    endloop
  endfacet
  facet normal 0.207915 0.978147 0
    outer loop
      vertex 226.187 199.925 40
      vertex 228.999 199.327 0
      vertex 226.187 199.925 0
    endloop
  endfacet
  facet normal 0.406735 0.913546 -0
    outer loop
      vertex 231.625 198.158 0
      vertex 228.999 199.327 40
      vertex 231.625 198.158 40
    endloop
  endfacet
  facet normal 0.406735 0.913546 0
    outer loop
      vertex 228.999 199.327 40
      vertex 231.625 198.158 0
      vertex 228.999 199.327 0
    endloop
  endfacet
  facet normal 1 -0 0
    outer loop
      vertex 188 123 28
      vertex 188 150.5 8
      vertex 188 160.5 28
    endloop
  endfacet
  facet normal 1 0 0
    outer loop
      vertex 188 150.5 8
      vertex 188 123 28
      vertex 188 113 8
    endloop
  endfacet
  facet normal 1 0 0
    outer loop
      vertex 188 194 37
      vertex 188 176.5 32
      vertex 188 194 32
    endloop
  endfacet
  facet normal 1 0 0
    outer loop
      vertex 188 160.5 28
      vertex 188 176.5 32
      vertex 188 160.5 32
    endloop
  endfacet
  facet normal 1 0 0
    outer loop
      vertex 188 194 37
      vertex 188 160.5 32
      vertex 188 176.5 32
    endloop
  endfacet
  facet normal 1 -0 0
    outer loop
      vertex 188 100 37
      vertex 188 160.5 32
      vertex 188 194 37
    endloop
  endfacet
  facet normal 1 0 0
    outer loop
      vertex 188 100 37
      vertex 188 123 28
      vertex 188 123 32
    endloop
  endfacet
  facet normal 1 0 0
    outer loop
      vertex 188 100 0
      vertex 188 113 8
      vertex 188 100 37
    endloop
  endfacet
  facet normal 1 0 0
    outer loop
      vertex 188 123 28
      vertex 188 100 37
      vertex 188 113 8
    endloop
  endfacet
  facet normal 1 0 0
    outer loop
      vertex 188 160.5 32
      vertex 188 100 37
      vertex 188 123 32
    endloop
  endfacet
  facet normal 1 -0 0
    outer loop
      vertex 188 176.5 5
      vertex 188 194 0
      vertex 188 194 5
    endloop
  endfacet
  facet normal 1 0 0
    outer loop
      vertex 188 176.5 32
      vertex 188 160.5 28
      vertex 188 176.5 5
    endloop
  endfacet
  facet normal 1 -0 0
    outer loop
      vertex 188 150.5 8
      vertex 188 176.5 5
      vertex 188 160.5 28
    endloop
  endfacet
  facet normal 1 0 0
    outer loop
      vertex 188 150.5 4
      vertex 188 176.5 5
      vertex 188 150.5 8
    endloop
  endfacet
  facet normal 1 0 0
    outer loop
      vertex 188 176.5 5
      vertex 188 150.5 4
      vertex 188 194 0
    endloop
  endfacet
  facet normal 1 0 0
    outer loop
      vertex 188 100 0
      vertex 188 150.5 4
      vertex 188 113 4
    endloop
  endfacet
  facet normal 1 0 0
    outer loop
      vertex 188 150.5 4
      vertex 188 100 0
      vertex 188 194 0
    endloop
  endfacet
  facet normal 1 0 0
    outer loop
      vertex 188 113 8
      vertex 188 100 0
      vertex 188 113 4
    endloop
  endfacet
  facet normal -1 0 0
    outer loop
      vertex 234 100 0
      vertex 234 194 37
      vertex 234 194 0
    endloop
  endfacet
  facet normal -1 -0 0
    outer loop
      vertex 234 194 37
      vertex 234 100 0
      vertex 234 100 37
    endloop
  endfacet
  facet normal 0 -1 0
    outer loop
      vertex 188 194 5
      vertex 188 194 0
      vertex 189.5 194 5
    endloop
  endfacet
  facet normal 0 -1 0
    outer loop
      vertex 189.5 194 32
      vertex 188 194 37
      vertex 188 194 32
    endloop
  endfacet
  facet normal 0 -1 0
    outer loop
      vertex 188 194 37
      vertex 189.5 194 32
      vertex 234 194 37
    endloop
  endfacet
  facet normal 0 -1 0
    outer loop
      vertex 189.5 194 5
      vertex 234 194 37
      vertex 189.5 194 32
    endloop
  endfacet
  facet normal 0 -1 0
    outer loop
      vertex 234 194 0
      vertex 189.5 194 5
      vertex 188 194 0
    endloop
  endfacet
  facet normal 0 -1 0
    outer loop
      vertex 189.5 194 5
      vertex 234 194 0
      vertex 234 194 37
    endloop
  endfacet
  facet normal 0 0 -1
    outer loop
      vertex 188 176.5 32
      vertex 183.5 176.5 32
      vertex 188 194 32
    endloop
  endfacet
  facet normal 0 0 -1
    outer loop
      vertex 188 194 32
      vertex 189.5 195 32
      vertex 189.5 194 32
    endloop
  endfacet
  facet normal 0 0 -1
    outer loop
      vertex 188 194 32
      vertex 183.5 195 32
      vertex 189.5 195 32
    endloop
  endfacet
  facet normal 0 0 -1
    outer loop
      vertex 183.5 195 32
      vertex 188 194 32
      vertex 183.5 176.5 32
    endloop
  endfacet
  facet normal -1 0 0
    outer loop
      vertex 189.5 194 5
      vertex 189.5 195 32
      vertex 189.5 195 5
    endloop
  endfacet
  facet normal -1 -0 0
    outer loop
      vertex 189.5 195 32
      vertex 189.5 194 5
      vertex 189.5 194 32
    endloop
  endfacet
  facet normal 0 0 1
    outer loop
      vertex 189.5 195 5
      vertex 188 194 5
      vertex 189.5 194 5
    endloop
  endfacet
  facet normal -0 0 1
    outer loop
      vertex 183.5 195 5
      vertex 188 194 5
      vertex 189.5 195 5
    endloop
  endfacet
  facet normal 0 0 1
    outer loop
      vertex 183.5 176.5 5
      vertex 188 194 5
      vertex 183.5 195 5
    endloop
  endfacet
  facet normal 0 0 1
    outer loop
      vertex 188 194 5
      vertex 183.5 176.5 5
      vertex 188 176.5 5
    endloop
  endfacet
  facet normal 0 1 -0
    outer loop
      vertex 188 176.5 5
      vertex 183.5 176.5 32
      vertex 188 176.5 32
    endloop
  endfacet
  facet normal 0 1 0
    outer loop
      vertex 183.5 176.5 32
      vertex 188 176.5 5
      vertex 183.5 176.5 5
    endloop
  endfacet
  facet normal 0 -1 0
    outer loop
      vertex 183.5 195 5
      vertex 189.5 195 32
      vertex 183.5 195 32
    endloop
  endfacet
  facet normal 0 -1 -0
    outer loop
      vertex 189.5 195 32
      vertex 183.5 195 5
      vertex 189.5 195 5
    endloop
  endfacet
  facet normal 0 0 -1
    outer loop
      vertex 185.12 152.25 32
      vertex 188 123 32
      vertex 185.12 123 32
    endloop
  endfacet
  facet normal 0 0 -1
    outer loop
      vertex 188 123 32
      vertex 185.12 152.25 32
      vertex 188 160.5 32
    endloop
  endfacet
  facet normal 0 0 -1
    outer loop
      vertex 184.674 156.45 32
      vertex 188 160.5 32
      vertex 185.12 152.25 32
    endloop
  endfacet
  facet normal 0 0 -1
    outer loop
      vertex 183.5 160.028 32
      vertex 188 160.5 32
      vertex 184.674 156.45 32
    endloop
  endfacet
  facet normal -0 0 -1
    outer loop
      vertex 188 160.5 32
      vertex 183.5 160.028 32
      vertex 183.5 160.5 32
    endloop
  endfacet
  facet normal 0 -1 0
    outer loop
      vertex 183.5 160.5 28
      vertex 188 160.5 32
      vertex 183.5 160.5 32
    endloop
  endfacet
  facet normal 0 -1 -0
    outer loop
      vertex 188 160.5 32
      vertex 183.5 160.5 28
      vertex 188 160.5 28
    endloop
  endfacet
  facet normal 0 0 1
    outer loop
      vertex 188 160.5 28
      vertex 185.12 152.25 28
      vertex 188 123 28
    endloop
  endfacet
  facet normal 0 0 1
    outer loop
      vertex 188 160.5 28
      vertex 184.674 156.45 28
      vertex 185.12 152.25 28
    endloop
  endfacet
  facet normal 0 0 1
    outer loop
      vertex 183.5 160.028 28
      vertex 188 160.5 28
      vertex 183.5 160.5 28
    endloop
  endfacet
  facet normal 0 0 1
    outer loop
      vertex 188 160.5 28
      vertex 183.5 160.028 28
      vertex 184.674 156.45 28
    endloop
  endfacet
  facet normal 0 0 1
    outer loop
      vertex 188 123 28
      vertex 185.12 152.25 28
      vertex 185.12 123 28
    endloop
  endfacet
  facet normal 0 1 -0
    outer loop
      vertex 188 123 28
      vertex 185.12 123 32
      vertex 188 123 32
    endloop
  endfacet
  facet normal 0 1 0
    outer loop
      vertex 185.12 123 32
      vertex 188 123 28
      vertex 185.12 123 28
    endloop
  endfacet
  facet normal 0 0 -1
    outer loop
      vertex 185.12 113 8
      vertex 188 150.5 8
      vertex 188 113 8
    endloop
  endfacet
  facet normal -0 0 -1
    outer loop
      vertex 188 150.5 8
      vertex 185.12 113 8
      vertex 185.12 150.5 8
    endloop
  endfacet
  facet normal 0 -1 0
    outer loop
      vertex 185.12 150.5 4
      vertex 188 150.5 8
      vertex 185.12 150.5 8
    endloop
  endfacet
  facet normal 0 -1 -0
    outer loop
      vertex 188 150.5 8
      vertex 185.12 150.5 4
      vertex 188 150.5 4
    endloop
  endfacet
  facet normal -0 0 1
    outer loop
      vertex 185.12 150.5 4
      vertex 188 113 4
      vertex 188 150.5 4
    endloop
  endfacet
  facet normal 0 0 1
    outer loop
      vertex 188 113 4
      vertex 185.12 150.5 4
      vertex 185.12 113 4
    endloop
  endfacet
  facet normal 0 1 -0
    outer loop
      vertex 188 113 4
      vertex 185.12 113 8
      vertex 188 113 8
    endloop
  endfacet
  facet normal 0 1 0
    outer loop
      vertex 185.12 113 8
      vertex 188 113 4
      vertex 185.12 113 4
    endloop
  endfacet
  facet normal 0 -1 0
    outer loop
      vertex 234 100 37
      vertex 185.12 100 40
      vertex 188 100 37
    endloop
  endfacet
  facet normal 0 -1 0
    outer loop
      vertex 185.12 100 0
      vertex 188 100 37
      vertex 185.12 100 40
    endloop
  endfacet
  facet normal 0 -1 -0
    outer loop
      vertex 188 100 37
      vertex 185.12 100 0
      vertex 188 100 0
    endloop
  endfacet
  facet normal 0 -1 0
    outer loop
      vertex 185.12 100 40
      vertex 234 100 37
      vertex 238.5 100 40
    endloop
  endfacet
  facet normal 0 -1 0
    outer loop
      vertex 238.5 100 0
      vertex 234 100 37
      vertex 234 100 0
    endloop
  endfacet
  facet normal 0 -1 0
    outer loop
      vertex 234 100 37
      vertex 238.5 100 0
      vertex 238.5 100 40
    endloop
  endfacet
endsolid OpenSCAD_Model
