solid OpenSCAD_Model
  facet normal 0 0 -1
    outer loop
      vertex -3 0 30
      vertex 6.66134e-015 6.60724 30
      vertex 6.66134e-015 0 30
    endloop
  endfacet
  facet normal -0 0 -1
    outer loop
      vertex 6.66134e-015 6.60724 30
      vertex -3 0 30
      vertex -3 6.60724 30
    endloop
  endfacet
  facet normal 0 0 -1
    outer loop
      vertex -3 13.3928 30
      vertex 6.66134e-015 20 30
      vertex 6.66134e-015 13.3928 30
    endloop
  endfacet
  facet normal -0 0 -1
    outer loop
      vertex 6.66134e-015 20 30
      vertex -3 13.3928 30
      vertex -3 20 30
    endloop
  endfacet
  facet normal -1 0 0
    outer loop
      vertex -3 63.1837 31.454
      vertex -3 70 36
      vertex -3 70 30
    endloop
  endfacet
  facet normal -1 0 0
    outer loop
      vertex -3 63.1837 31.454
      vertex -3 70 30
      vertex -3 63.3928 30
    endloop
  endfacet
  facet normal -1 0 0
    outer loop
      vertex -3 61.8922 32.9444
      vertex -3 70 36
      vertex -3 63.1837 31.454
    endloop
  endfacet
  facet normal -1 -0 0
    outer loop
      vertex -3 70 36
      vertex -3 61.8922 32.9444
      vertex -3 70 39
    endloop
  endfacet
  facet normal -1 0 0
    outer loop
      vertex -3 60 33.5
      vertex -3 70 39
      vertex -3 61.8922 32.9444
    endloop
  endfacet
  facet normal -1 0 0
    outer loop
      vertex -3 50 37
      vertex -3 60 33.5
      vertex -3 58.1078 32.9444
    endloop
  endfacet
  facet normal -1 0 0
    outer loop
      vertex -3 50 30
      vertex -3 56.8163 31.454
      vertex -3 56.6072 30
    endloop
  endfacet
  facet normal -1 0 0
    outer loop
      vertex -3 50 37
      vertex -3 56.8163 31.454
      vertex -3 50 30
    endloop
  endfacet
  facet normal -1 0 0
    outer loop
      vertex -3 56.8163 31.454
      vertex -3 50 37
      vertex -3 58.1078 32.9444
    endloop
  endfacet
  facet normal -1 0 0
    outer loop
      vertex -3 60 33.5
      vertex -3 50 37
      vertex -3 70 39
    endloop
  endfacet
  facet normal -1 0 0
    outer loop
      vertex -3 45 39
      vertex -3 50 37
      vertex -3 45 37
    endloop
  endfacet
  facet normal -1 0 0
    outer loop
      vertex -3 50 37
      vertex -3 45 39
      vertex -3 70 39
    endloop
  endfacet
  facet normal -1 0 0
    outer loop
      vertex -3 13.1837 31.454
      vertex -3 20 30
      vertex -3 13.3928 30
    endloop
  endfacet
  facet normal -1 0 0
    outer loop
      vertex -3 20 37
      vertex -3 42 39
      vertex -3 42 37
    endloop
  endfacet
  facet normal -1 0 0
    outer loop
      vertex -3 20 30
      vertex -3 13.1837 31.454
      vertex -3 20 37
    endloop
  endfacet
  facet normal -1 0 0
    outer loop
      vertex -3 11.8922 32.9444
      vertex -3 20 37
      vertex -3 13.1837 31.454
    endloop
  endfacet
  facet normal -1 0 0
    outer loop
      vertex -3 10 33.5
      vertex -3 20 37
      vertex -3 11.8922 32.9444
    endloop
  endfacet
  facet normal -1 0 0
    outer loop
      vertex -3 0 39
      vertex -3 10 33.5
      vertex -3 8.10776 32.9444
    endloop
  endfacet
  facet normal -1 0 0
    outer loop
      vertex -3 0 30
      vertex -3 6.81629 31.454
      vertex -3 6.60724 30
    endloop
  endfacet
  facet normal -1 0 0
    outer loop
      vertex -3 0 39
      vertex -3 6.81629 31.454
      vertex -3 0 30
    endloop
  endfacet
  facet normal -1 0 0
    outer loop
      vertex -3 20 37
      vertex -3 0 39
      vertex -3 42 39
    endloop
  endfacet
  facet normal -1 0 0
    outer loop
      vertex -3 10 33.5
      vertex -3 0 39
      vertex -3 20 37
    endloop
  endfacet
  facet normal -1 0 0
    outer loop
      vertex -3 6.81629 31.454
      vertex -3 0 39
      vertex -3 8.10776 32.9444
    endloop
  endfacet
  facet normal -0 0 1
    outer loop
      vertex -17 80.8941 39
      vertex -16.9075 79.1059 39
      vertex -16.9075 80.8941 39
    endloop
  endfacet
  facet normal 0 0 1
    outer loop
      vertex -16.9075 79.1059 39
      vertex -17 80.8941 39
      vertex -17 79.1059 39
    endloop
  endfacet
  facet normal 0 0 1
    outer loop
      vertex -3 45 39
      vertex -11.5 42 39
      vertex -3 42 39
    endloop
  endfacet
  facet normal -0 0 1
    outer loop
      vertex -14.5 45 39
      vertex -11.5 42 39
      vertex -3 45 39
    endloop
  endfacet
  facet normal 0 0 1
    outer loop
      vertex -14.5 25 39
      vertex -11.5 42 39
      vertex -14.5 45 39
    endloop
  endfacet
  facet normal 0 0 1
    outer loop
      vertex -11.5 42 39
      vertex -14.5 25 39
      vertex -11.5 25 39
    endloop
  endfacet
  facet normal 0 0 1
    outer loop
      vertex -1.5 92 39
      vertex -3 70 39
      vertex -1.5 70 39
    endloop
  endfacet
  facet normal 0 0 1
    outer loop
      vertex -16.9075 80.8941 39
      vertex -1.5 92 39
      vertex -16.9075 86.161 39
    endloop
  endfacet
  facet normal -0 0 1
    outer loop
      vertex -17 92 39
      vertex -16.9075 86.161 39
      vertex -1.5 92 39
    endloop
  endfacet
  facet normal 0 0 1
    outer loop
      vertex -16.9075 86.161 39
      vertex -17 92 39
      vertex -17 86.161 39
    endloop
  endfacet
  facet normal 0 0 1
    outer loop
      vertex -3 45 39
      vertex 8.65974e-015 70 39
      vertex -1.5 70 39
    endloop
  endfacet
  facet normal 0 0 1
    outer loop
      vertex -3 45 39
      vertex -1.5 70 39
      vertex -3 70 39
    endloop
  endfacet
  facet normal 0 0 1
    outer loop
      vertex 8.65974e-015 70 39
      vertex -3 45 39
      vertex -3 42 39
    endloop
  endfacet
  facet normal 0 0 1
    outer loop
      vertex 8.65974e-015 70 39
      vertex -3 42 39
      vertex 8.65974e-015 0 39
    endloop
  endfacet
  facet normal 0 0 1
    outer loop
      vertex 8.65974e-015 0 39
      vertex -3 42 39
      vertex -3 0 39
    endloop
  endfacet
  facet normal 0 0 1
    outer loop
      vertex -1.5 92 39
      vertex -16.9075 80.8941 39
      vertex -3 70 39
    endloop
  endfacet
  facet normal -0 0 1
    outer loop
      vertex -16.9075 79.1059 39
      vertex -3 70 39
      vertex -16.9075 80.8941 39
    endloop
  endfacet
  facet normal -0 0 1
    outer loop
      vertex -16.9075 73.839 39
      vertex -3 70 39
      vertex -16.9075 79.1059 39
    endloop
  endfacet
  facet normal 0 0 1
    outer loop
      vertex -17 70 39
      vertex -16.9075 73.839 39
      vertex -17 73.839 39
    endloop
  endfacet
  facet normal 0 0 1
    outer loop
      vertex -16.9075 73.839 39
      vertex -17 70 39
      vertex -3 70 39
    endloop
  endfacet
  facet normal 1 0 -2.22045e-016
    outer loop
      vertex 6.98418e-015 63.1837 31.454
      vertex 6.66134e-015 70 30
      vertex 8.65974e-015 70 39
    endloop
  endfacet
  facet normal 1 0 -2.22045e-016
    outer loop
      vertex 6.66134e-015 70 30
      vertex 6.98418e-015 63.1837 31.454
      vertex 6.66134e-015 63.3928 30
    endloop
  endfacet
  facet normal 1 0 -2.22045e-016
    outer loop
      vertex 8.65974e-015 70 39
      vertex 7.31512e-015 61.8922 32.9444
      vertex 6.98418e-015 63.1837 31.454
    endloop
  endfacet
  facet normal 1 0 -2.22045e-016
    outer loop
      vertex 8.65974e-015 70 39
      vertex 7.43849e-015 60 33.5
      vertex 7.31512e-015 61.8922 32.9444
    endloop
  endfacet
  facet normal 1 0 -2.22045e-016
    outer loop
      vertex 8.21565e-015 50 37
      vertex 7.43849e-015 60 33.5
      vertex 8.65974e-015 70 39
    endloop
  endfacet
  facet normal 1 0 -2.22045e-016
    outer loop
      vertex 6.66134e-015 50 30
      vertex 6.98418e-015 56.8163 31.454
      vertex 8.21565e-015 50 37
    endloop
  endfacet
  facet normal 1 0 -2.22045e-016
    outer loop
      vertex 7.31512e-015 58.1078 32.9444
      vertex 8.21565e-015 50 37
      vertex 6.98418e-015 56.8163 31.454
    endloop
  endfacet
  facet normal 1 0 -2.22045e-016
    outer loop
      vertex 7.43849e-015 60 33.5
      vertex 8.21565e-015 50 37
      vertex 7.31512e-015 58.1078 32.9444
    endloop
  endfacet
  facet normal 1 0 -2.22045e-016
    outer loop
      vertex 8.65974e-015 70 39
      vertex 8.21565e-015 20 37
      vertex 8.21565e-015 50 37
    endloop
  endfacet
  facet normal 1 0 -2.22045e-016
    outer loop
      vertex 6.98418e-015 13.1837 31.454
      vertex 6.66134e-015 20 30
      vertex 8.21565e-015 20 37
    endloop
  endfacet
  facet normal 1 0 -2.22045e-016
    outer loop
      vertex 6.66134e-015 20 30
      vertex 6.98418e-015 13.1837 31.454
      vertex 6.66134e-015 13.3928 30
    endloop
  endfacet
  facet normal 1 0 -2.22045e-016
    outer loop
      vertex 8.21565e-015 20 37
      vertex 7.31512e-015 11.8922 32.9444
      vertex 6.98418e-015 13.1837 31.454
    endloop
  endfacet
  facet normal 1 0 -2.22045e-016
    outer loop
      vertex 8.21565e-015 20 37
      vertex 7.43849e-015 10 33.5
      vertex 7.31512e-015 11.8922 32.9444
    endloop
  endfacet
  facet normal 1 0 -2.22045e-016
    outer loop
      vertex 8.65974e-015 0 39
      vertex 7.43849e-015 10 33.5
      vertex 8.21565e-015 20 37
    endloop
  endfacet
  facet normal 1 0 -2.22045e-016
    outer loop
      vertex 8.65974e-015 0 39
      vertex 8.21565e-015 20 37
      vertex 8.65974e-015 70 39
    endloop
  endfacet
  facet normal 1 0 -2.22045e-016
    outer loop
      vertex 7.43849e-015 10 33.5
      vertex 8.65974e-015 0 39
      vertex 7.31512e-015 8.10776 32.9444
    endloop
  endfacet
  facet normal 1 0 -2.22045e-016
    outer loop
      vertex 8.65974e-015 0 39
      vertex 6.98418e-015 6.81629 31.454
      vertex 7.31512e-015 8.10776 32.9444
    endloop
  endfacet
  facet normal 1 0 -2.22045e-016
    outer loop
      vertex 6.66134e-015 0 30
      vertex 6.98418e-015 6.81629 31.454
      vertex 8.65974e-015 0 39
    endloop
  endfacet
  facet normal 1 0 -2.22045e-016
    outer loop
      vertex 6.98418e-015 6.81629 31.454
      vertex 6.66134e-015 0 30
      vertex 6.66134e-015 6.60724 30
    endloop
  endfacet
  facet normal 1 0 -2.22045e-016
    outer loop
      vertex 6.98418e-015 56.8163 31.454
      vertex 6.66134e-015 50 30
      vertex 6.66134e-015 56.6072 30
    endloop
  endfacet
  facet normal 0 -1 0
    outer loop
      vertex -3 0 30
      vertex 8.65974e-015 0 39
      vertex -3 0 39
    endloop
  endfacet
  facet normal 0 -1 0
    outer loop
      vertex 8.65974e-015 0 39
      vertex -3 0 30
      vertex 6.66134e-015 0 30
    endloop
  endfacet
  facet normal 0 1 -0
    outer loop
      vertex 6.66134e-015 20 30
      vertex -3 20 37
      vertex 8.21565e-015 20 37
    endloop
  endfacet
  facet normal 0 1 0
    outer loop
      vertex -3 20 37
      vertex 6.66134e-015 20 30
      vertex -3 20 30
    endloop
  endfacet
  facet normal 0 -0.281733 -0.959493
    outer loop
      vertex -3 10 33.5
      vertex 7.31512e-015 11.8922 32.9444
      vertex 7.43849e-015 10 33.5
    endloop
  endfacet
  facet normal -0 -0.281733 -0.959493
    outer loop
      vertex 7.31512e-015 11.8922 32.9444
      vertex -3 10 33.5
      vertex -3 11.8922 32.9444
    endloop
  endfacet
  facet normal 0 0.989821 -0.142315
    outer loop
      vertex 6.66134e-015 6.60724 30
      vertex -3 6.81629 31.454
      vertex 6.98418e-015 6.81629 31.454
    endloop
  endfacet
  facet normal 0 0.989821 -0.142315
    outer loop
      vertex -3 6.81629 31.454
      vertex 6.66134e-015 6.60724 30
      vertex -3 6.60724 30
    endloop
  endfacet
  facet normal 0 0.755749 -0.654861
    outer loop
      vertex 6.98418e-015 6.81629 31.454
      vertex -3 8.10776 32.9444
      vertex 7.31512e-015 8.10776 32.9444
    endloop
  endfacet
  facet normal 0 0.755749 -0.654861
    outer loop
      vertex -3 8.10776 32.9444
      vertex 6.98418e-015 6.81629 31.454
      vertex -3 6.81629 31.454
    endloop
  endfacet
  facet normal 0 -0.989821 -0.142315
    outer loop
      vertex -3 13.3928 30
      vertex 6.98418e-015 13.1837 31.454
      vertex -3 13.1837 31.454
    endloop
  endfacet
  facet normal 0 -0.989821 -0.142315
    outer loop
      vertex 6.98418e-015 13.1837 31.454
      vertex -3 13.3928 30
      vertex 6.66134e-015 13.3928 30
    endloop
  endfacet
  facet normal 0 -0.755749 -0.654861
    outer loop
      vertex -3 13.1837 31.454
      vertex 7.31512e-015 11.8922 32.9444
      vertex -3 11.8922 32.9444
    endloop
  endfacet
  facet normal 0 -0.755749 -0.654861
    outer loop
      vertex 7.31512e-015 11.8922 32.9444
      vertex -3 13.1837 31.454
      vertex 6.98418e-015 13.1837 31.454
    endloop
  endfacet
  facet normal 0 0.281733 -0.959493
    outer loop
      vertex -3 8.10776 32.9444
      vertex 7.43849e-015 10 33.5
      vertex 7.31512e-015 8.10776 32.9444
    endloop
  endfacet
  facet normal 0 0.281733 -0.959493
    outer loop
      vertex 7.43849e-015 10 33.5
      vertex -3 8.10776 32.9444
      vertex -3 10 33.5
    endloop
  endfacet
  facet normal 0 0 -1
    outer loop
      vertex -14.5 25 21
      vertex -11.5 31.6072 21
      vertex -11.5 25 21
    endloop
  endfacet
  facet normal -0 0 -1
    outer loop
      vertex -11.5 31.6072 21
      vertex -14.5 25 21
      vertex -14.5 31.6072 21
    endloop
  endfacet
  facet normal 0 0 -1
    outer loop
      vertex -14.5 38.3928 21
      vertex -11.5 45 21
      vertex -11.5 38.3928 21
    endloop
  endfacet
  facet normal -0 0 -1
    outer loop
      vertex -11.5 45 21
      vertex -14.5 38.3928 21
      vertex -14.5 45 21
    endloop
  endfacet
  facet normal -1 0 0
    outer loop
      vertex -14.5 38.1837 22.454
      vertex -14.5 45 21
      vertex -14.5 38.3928 21
    endloop
  endfacet
  facet normal -1 0 0
    outer loop
      vertex -14.5 36.8922 23.9444
      vertex -14.5 45 21
      vertex -14.5 38.1837 22.454
    endloop
  endfacet
  facet normal -1 0 0
    outer loop
      vertex -14.5 45 21
      vertex -14.5 36.8922 23.9444
      vertex -14.5 45 39
    endloop
  endfacet
  facet normal -1 0 0
    outer loop
      vertex -14.5 35 24.5
      vertex -14.5 45 39
      vertex -14.5 36.8922 23.9444
    endloop
  endfacet
  facet normal -1 0 0
    outer loop
      vertex -14.5 25 39
      vertex -14.5 35 24.5
      vertex -14.5 33.1078 23.9444
    endloop
  endfacet
  facet normal -1 0 0
    outer loop
      vertex -14.5 25 21
      vertex -14.5 33.1078 23.9444
      vertex -14.5 31.8163 22.454
    endloop
  endfacet
  facet normal -1 0 0
    outer loop
      vertex -14.5 25 21
      vertex -14.5 31.8163 22.454
      vertex -14.5 31.6072 21
    endloop
  endfacet
  facet normal -1 -0 0
    outer loop
      vertex -14.5 33.1078 23.9444
      vertex -14.5 25 21
      vertex -14.5 25 39
    endloop
  endfacet
  facet normal -1 0 0
    outer loop
      vertex -14.5 35 24.5
      vertex -14.5 25 39
      vertex -14.5 45 39
    endloop
  endfacet
  facet normal 0 1 0
    outer loop
      vertex -11.5 45 37
      vertex -3 45 39
      vertex -3 45 37
    endloop
  endfacet
  facet normal 0 1 0
    outer loop
      vertex -3 45 39
      vertex -11.5 45 37
      vertex -14.5 45 39
    endloop
  endfacet
  facet normal 0 1 0
    outer loop
      vertex -14.5 45 21
      vertex -11.5 45 37
      vertex -11.5 45 21
    endloop
  endfacet
  facet normal 0 1 0
    outer loop
      vertex -11.5 45 37
      vertex -14.5 45 21
      vertex -14.5 45 39
    endloop
  endfacet
  facet normal 1 -0 0
    outer loop
      vertex -11.5 25 39
      vertex -11.5 42 37
      vertex -11.5 42 39
    endloop
  endfacet
  facet normal 1 0 0
    outer loop
      vertex -11.5 42 37
      vertex -11.5 38.1837 22.454
      vertex -11.5 38.3928 21
    endloop
  endfacet
  facet normal 1 0 0
    outer loop
      vertex -11.5 42 37
      vertex -11.5 36.8922 23.9444
      vertex -11.5 38.1837 22.454
    endloop
  endfacet
  facet normal 1 0 0
    outer loop
      vertex -11.5 42 37
      vertex -11.5 35 24.5
      vertex -11.5 36.8922 23.9444
    endloop
  endfacet
  facet normal 1 0 0
    outer loop
      vertex -11.5 42 37
      vertex -11.5 25 39
      vertex -11.5 35 24.5
    endloop
  endfacet
  facet normal 1 0 0
    outer loop
      vertex -11.5 35 24.5
      vertex -11.5 25 39
      vertex -11.5 33.1078 23.9444
    endloop
  endfacet
  facet normal 1 0 0
    outer loop
      vertex -11.5 25 21
      vertex -11.5 33.1078 23.9444
      vertex -11.5 25 39
    endloop
  endfacet
  facet normal 1 0 0
    outer loop
      vertex -11.5 33.1078 23.9444
      vertex -11.5 25 21
      vertex -11.5 31.8163 22.454
    endloop
  endfacet
  facet normal 1 0 0
    outer loop
      vertex -11.5 31.8163 22.454
      vertex -11.5 25 21
      vertex -11.5 31.6072 21
    endloop
  endfacet
  facet normal 1 -0 0
    outer loop
      vertex -11.5 42 37
      vertex -11.5 45 21
      vertex -11.5 45 37
    endloop
  endfacet
  facet normal 1 0 0
    outer loop
      vertex -11.5 45 21
      vertex -11.5 42 37
      vertex -11.5 38.3928 21
    endloop
  endfacet
  facet normal 0 -1 0
    outer loop
      vertex -14.5 25 21
      vertex -11.5 25 39
      vertex -14.5 25 39
    endloop
  endfacet
  facet normal 0 -1 -0
    outer loop
      vertex -11.5 25 39
      vertex -14.5 25 21
      vertex -11.5 25 21
    endloop
  endfacet
  facet normal 0 -0.281733 -0.959493
    outer loop
      vertex -14.5 35 24.5
      vertex -11.5 36.8922 23.9444
      vertex -11.5 35 24.5
    endloop
  endfacet
  facet normal -0 -0.281733 -0.959493
    outer loop
      vertex -11.5 36.8922 23.9444
      vertex -14.5 35 24.5
      vertex -14.5 36.8922 23.9444
    endloop
  endfacet
  facet normal 0 0.989821 -0.142315
    outer loop
      vertex -11.5 31.6072 21
      vertex -14.5 31.8163 22.454
      vertex -11.5 31.8163 22.454
    endloop
  endfacet
  facet normal 0 0.989821 -0.142315
    outer loop
      vertex -14.5 31.8163 22.454
      vertex -11.5 31.6072 21
      vertex -14.5 31.6072 21
    endloop
  endfacet
  facet normal 0 0.755749 -0.654861
    outer loop
      vertex -11.5 31.8163 22.454
      vertex -14.5 33.1078 23.9444
      vertex -11.5 33.1078 23.9444
    endloop
  endfacet
  facet normal 0 0.755749 -0.654861
    outer loop
      vertex -14.5 33.1078 23.9444
      vertex -11.5 31.8163 22.454
      vertex -14.5 31.8163 22.454
    endloop
  endfacet
  facet normal 0 -0.989822 -0.142314
    outer loop
      vertex -14.5 38.3928 21
      vertex -11.5 38.1837 22.454
      vertex -14.5 38.1837 22.454
    endloop
  endfacet
  facet normal 0 -0.989822 -0.142314
    outer loop
      vertex -11.5 38.1837 22.454
      vertex -14.5 38.3928 21
      vertex -11.5 38.3928 21
    endloop
  endfacet
  facet normal 0 -0.755749 -0.654861
    outer loop
      vertex -14.5 38.1837 22.454
      vertex -11.5 36.8922 23.9444
      vertex -14.5 36.8922 23.9444
    endloop
  endfacet
  facet normal 0 -0.755749 -0.654861
    outer loop
      vertex -11.5 36.8922 23.9444
      vertex -14.5 38.1837 22.454
      vertex -11.5 38.1837 22.454
    endloop
  endfacet
  facet normal 0 0.281733 -0.959493
    outer loop
      vertex -14.5 33.1078 23.9444
      vertex -11.5 35 24.5
      vertex -11.5 33.1078 23.9444
    endloop
  endfacet
  facet normal 0 0.281733 -0.959493
    outer loop
      vertex -11.5 35 24.5
      vertex -14.5 33.1078 23.9444
      vertex -14.5 35 24.5
    endloop
  endfacet
  facet normal 0 0 -1
    outer loop
      vertex -3 50 30
      vertex 6.66134e-015 56.6072 30
      vertex 6.66134e-015 50 30
    endloop
  endfacet
  facet normal -0 0 -1
    outer loop
      vertex 6.66134e-015 56.6072 30
      vertex -3 50 30
      vertex -3 56.6072 30
    endloop
  endfacet
  facet normal 0 0 -1
    outer loop
      vertex -3 63.3928 30
      vertex 6.66134e-015 70 30
      vertex 6.66134e-015 63.3928 30
    endloop
  endfacet
  facet normal -0 0 -1
    outer loop
      vertex 6.66134e-015 70 30
      vertex -3 63.3928 30
      vertex -3 70 30
    endloop
  endfacet
  facet normal 0 -1 0
    outer loop
      vertex -3 50 30
      vertex 8.21565e-015 50 37
      vertex -3 50 37
    endloop
  endfacet
  facet normal 0 -1 0
    outer loop
      vertex 8.21565e-015 50 37
      vertex -3 50 30
      vertex 6.66134e-015 50 30
    endloop
  endfacet
  facet normal 0 -1 0
    outer loop
      vertex -17 70 36
      vertex -3 70 39
      vertex -17 70 39
    endloop
  endfacet
  facet normal 0 -1 -0
    outer loop
      vertex -3 70 39
      vertex -17 70 36
      vertex -3 70 36
    endloop
  endfacet
  facet normal 0 1 0
    outer loop
      vertex 8.65974e-015 70 39
      vertex -1.5 70 36
      vertex -1.5 70 39
    endloop
  endfacet
  facet normal 0 1 -0
    outer loop
      vertex 6.66134e-015 70 30
      vertex -1.5 70 36
      vertex 8.65974e-015 70 39
    endloop
  endfacet
  facet normal 0 1 0
    outer loop
      vertex -3 70 30
      vertex -1.5 70 36
      vertex 6.66134e-015 70 30
    endloop
  endfacet
  facet normal 0 1 0
    outer loop
      vertex -1.5 70 36
      vertex -3 70 30
      vertex -3 70 36
    endloop
  endfacet
  facet normal 0 -0.281733 -0.959493
    outer loop
      vertex -3 60 33.5
      vertex 7.31512e-015 61.8922 32.9444
      vertex 7.43849e-015 60 33.5
    endloop
  endfacet
  facet normal -0 -0.281733 -0.959493
    outer loop
      vertex 7.31512e-015 61.8922 32.9444
      vertex -3 60 33.5
      vertex -3 61.8922 32.9444
    endloop
  endfacet
  facet normal 0 0.989822 -0.142314
    outer loop
      vertex 6.66134e-015 56.6072 30
      vertex -3 56.8163 31.454
      vertex 6.98418e-015 56.8163 31.454
    endloop
  endfacet
  facet normal 0 0.989822 -0.142314
    outer loop
      vertex -3 56.8163 31.454
      vertex 6.66134e-015 56.6072 30
      vertex -3 56.6072 30
    endloop
  endfacet
  facet normal 0 0.755749 -0.654861
    outer loop
      vertex 6.98418e-015 56.8163 31.454
      vertex -3 58.1078 32.9444
      vertex 7.31512e-015 58.1078 32.9444
    endloop
  endfacet
  facet normal 0 0.755749 -0.654861
    outer loop
      vertex -3 58.1078 32.9444
      vertex 6.98418e-015 56.8163 31.454
      vertex -3 56.8163 31.454
    endloop
  endfacet
  facet normal 0 -0.989822 -0.142314
    outer loop
      vertex -3 63.3928 30
      vertex 6.98418e-015 63.1837 31.454
      vertex -3 63.1837 31.454
    endloop
  endfacet
  facet normal 0 -0.989822 -0.142314
    outer loop
      vertex 6.98418e-015 63.1837 31.454
      vertex -3 63.3928 30
      vertex 6.66134e-015 63.3928 30
    endloop
  endfacet
  facet normal 0 -0.755749 -0.654861
    outer loop
      vertex -3 63.1837 31.454
      vertex 7.31512e-015 61.8922 32.9444
      vertex -3 61.8922 32.9444
    endloop
  endfacet
  facet normal 0 -0.755749 -0.654861
    outer loop
      vertex 7.31512e-015 61.8922 32.9444
      vertex -3 63.1837 31.454
      vertex 6.98418e-015 63.1837 31.454
    endloop
  endfacet
  facet normal 0 0.281733 -0.959493
    outer loop
      vertex -3 58.1078 32.9444
      vertex 7.43849e-015 60 33.5
      vertex 7.31512e-015 58.1078 32.9444
    endloop
  endfacet
  facet normal 0 0.281733 -0.959493
    outer loop
      vertex 7.43849e-015 60 33.5
      vertex -3 58.1078 32.9444
      vertex -3 60 33.5
    endloop
  endfacet
  facet normal 0 0 -1
    outer loop
      vertex -36 0 30
      vertex -33 6.60724 30
      vertex -33 0 30
    endloop
  endfacet
  facet normal -0 0 -1
    outer loop
      vertex -33 6.60724 30
      vertex -36 0 30
      vertex -36 6.60724 30
    endloop
  endfacet
  facet normal 0 0 -1
    outer loop
      vertex -36 13.3928 30
      vertex -33 20 30
      vertex -33 13.3928 30
    endloop
  endfacet
  facet normal -0 0 -1
    outer loop
      vertex -33 20 30
      vertex -36 13.3928 30
      vertex -36 20 30
    endloop
  endfacet
  facet normal -1 0 0
    outer loop
      vertex -36 13.1837 31.454
      vertex -36 20 30
      vertex -36 13.3928 30
    endloop
  endfacet
  facet normal -1 0 0
    outer loop
      vertex -36 63.1837 31.454
      vertex -36 70 30
      vertex -36 63.3928 30
    endloop
  endfacet
  facet normal -1 0 0
    outer loop
      vertex -36 70 30
      vertex -36 63.1837 31.454
      vertex -36 70 39
    endloop
  endfacet
  facet normal -1 0 0
    outer loop
      vertex -36 61.8922 32.9444
      vertex -36 70 39
      vertex -36 63.1837 31.454
    endloop
  endfacet
  facet normal -1 0 0
    outer loop
      vertex -36 60 33.5
      vertex -36 70 39
      vertex -36 61.8922 32.9444
    endloop
  endfacet
  facet normal -1 0 0
    outer loop
      vertex -36 50 37
      vertex -36 60 33.5
      vertex -36 58.1078 32.9444
    endloop
  endfacet
  facet normal -1 0 0
    outer loop
      vertex -36 50 30
      vertex -36 56.8163 31.454
      vertex -36 56.6072 30
    endloop
  endfacet
  facet normal -1 0 0
    outer loop
      vertex -36 50 37
      vertex -36 56.8163 31.454
      vertex -36 50 30
    endloop
  endfacet
  facet normal -1 0 0
    outer loop
      vertex -36 56.8163 31.454
      vertex -36 50 37
      vertex -36 58.1078 32.9444
    endloop
  endfacet
  facet normal -1 0 0
    outer loop
      vertex -36 60 33.5
      vertex -36 50 37
      vertex -36 70 39
    endloop
  endfacet
  facet normal -1 0 0
    outer loop
      vertex -36 20 37
      vertex -36 70 39
      vertex -36 50 37
    endloop
  endfacet
  facet normal -1 0 0
    outer loop
      vertex -36 20 30
      vertex -36 13.1837 31.454
      vertex -36 20 37
    endloop
  endfacet
  facet normal -1 0 0
    outer loop
      vertex -36 11.8922 32.9444
      vertex -36 20 37
      vertex -36 13.1837 31.454
    endloop
  endfacet
  facet normal -1 0 0
    outer loop
      vertex -36 10 33.5
      vertex -36 20 37
      vertex -36 11.8922 32.9444
    endloop
  endfacet
  facet normal -1 0 0
    outer loop
      vertex -36 0 39
      vertex -36 10 33.5
      vertex -36 8.10776 32.9444
    endloop
  endfacet
  facet normal -1 0 0
    outer loop
      vertex -36 0 30
      vertex -36 6.81629 31.454
      vertex -36 6.60724 30
    endloop
  endfacet
  facet normal -1 0 0
    outer loop
      vertex -36 0 39
      vertex -36 6.81629 31.454
      vertex -36 0 30
    endloop
  endfacet
  facet normal -1 0 0
    outer loop
      vertex -36 20 37
      vertex -36 0 39
      vertex -36 70 39
    endloop
  endfacet
  facet normal -1 0 0
    outer loop
      vertex -36 10 33.5
      vertex -36 0 39
      vertex -36 20 37
    endloop
  endfacet
  facet normal -1 0 0
    outer loop
      vertex -36 6.81629 31.454
      vertex -36 0 39
      vertex -36 8.10776 32.9444
    endloop
  endfacet
  facet normal -0 0 1
    outer loop
      vertex -36 70 39
      vertex -33 45 39
      vertex -33 70 39
    endloop
  endfacet
  facet normal 0 0 1
    outer loop
      vertex -33 45 39
      vertex -36 70 39
      vertex -33 42 39
    endloop
  endfacet
  facet normal 0 0 1
    outer loop
      vertex -36 0 39
      vertex -33 42 39
      vertex -36 70 39
    endloop
  endfacet
  facet normal 0 0 1
    outer loop
      vertex -33 42 39
      vertex -36 0 39
      vertex -33 0 39
    endloop
  endfacet
  facet normal 0 0 1
    outer loop
      vertex -21.5 45 39
      vertex -24.5 42 39
      vertex -21.5 25 39
    endloop
  endfacet
  facet normal -0 0 1
    outer loop
      vertex -33 45 39
      vertex -24.5 42 39
      vertex -21.5 45 39
    endloop
  endfacet
  facet normal 0 0 1
    outer loop
      vertex -24.5 42 39
      vertex -33 45 39
      vertex -33 42 39
    endloop
  endfacet
  facet normal 0 0 1
    outer loop
      vertex -21.5 25 39
      vertex -24.5 42 39
      vertex -24.5 25 39
    endloop
  endfacet
  facet normal 1 -0 0
    outer loop
      vertex -33 63.1837 31.454
      vertex -33 70 30
      vertex -33 70 39
    endloop
  endfacet
  facet normal 1 0 0
    outer loop
      vertex -33 70 30
      vertex -33 63.1837 31.454
      vertex -33 63.3928 30
    endloop
  endfacet
  facet normal 1 0 0
    outer loop
      vertex -33 70 39
      vertex -33 61.8922 32.9444
      vertex -33 63.1837 31.454
    endloop
  endfacet
  facet normal 1 0 0
    outer loop
      vertex -33 70 39
      vertex -33 60 33.5
      vertex -33 61.8922 32.9444
    endloop
  endfacet
  facet normal 1 -0 0
    outer loop
      vertex -33 50 37
      vertex -33 60 33.5
      vertex -33 70 39
    endloop
  endfacet
  facet normal 1 0 0
    outer loop
      vertex -33 50 30
      vertex -33 56.8163 31.454
      vertex -33 50 37
    endloop
  endfacet
  facet normal 1 0 0
    outer loop
      vertex -33 58.1078 32.9444
      vertex -33 50 37
      vertex -33 56.8163 31.454
    endloop
  endfacet
  facet normal 1 0 0
    outer loop
      vertex -33 60 33.5
      vertex -33 50 37
      vertex -33 58.1078 32.9444
    endloop
  endfacet
  facet normal 1 -0 0
    outer loop
      vertex -33 45 39
      vertex -33 50 37
      vertex -33 70 39
    endloop
  endfacet
  facet normal 1 0 0
    outer loop
      vertex -33 50 37
      vertex -33 45 39
      vertex -33 45 37
    endloop
  endfacet
  facet normal 1 0 0
    outer loop
      vertex -33 56.8163 31.454
      vertex -33 50 30
      vertex -33 56.6072 30
    endloop
  endfacet
  facet normal 1 0 0
    outer loop
      vertex -33 42 39
      vertex -33 20 37
      vertex -33 42 37
    endloop
  endfacet
  facet normal 1 -0 0
    outer loop
      vertex -33 13.1837 31.454
      vertex -33 20 30
      vertex -33 20 37
    endloop
  endfacet
  facet normal 1 0 0
    outer loop
      vertex -33 20 30
      vertex -33 13.1837 31.454
      vertex -33 13.3928 30
    endloop
  endfacet
  facet normal 1 0 0
    outer loop
      vertex -33 20 37
      vertex -33 11.8922 32.9444
      vertex -33 13.1837 31.454
    endloop
  endfacet
  facet normal 1 0 0
    outer loop
      vertex -33 20 37
      vertex -33 10 33.5
      vertex -33 11.8922 32.9444
    endloop
  endfacet
  facet normal 1 0 0
    outer loop
      vertex -33 0 39
      vertex -33 10 33.5
      vertex -33 20 37
    endloop
  endfacet
  facet normal 1 -0 0
    outer loop
      vertex -33 0 39
      vertex -33 20 37
      vertex -33 42 39
    endloop
  endfacet
  facet normal 1 0 0
    outer loop
      vertex -33 10 33.5
      vertex -33 0 39
      vertex -33 8.10776 32.9444
    endloop
  endfacet
  facet normal 1 0 0
    outer loop
      vertex -33 0 39
      vertex -33 6.81629 31.454
      vertex -33 8.10776 32.9444
    endloop
  endfacet
  facet normal 1 0 0
    outer loop
      vertex -33 0 30
      vertex -33 6.81629 31.454
      vertex -33 0 39
    endloop
  endfacet
  facet normal 1 0 0
    outer loop
      vertex -33 6.81629 31.454
      vertex -33 0 30
      vertex -33 6.60724 30
    endloop
  endfacet
  facet normal 0 -1 0
    outer loop
      vertex -36 0 30
      vertex -33 0 39
      vertex -36 0 39
    endloop
  endfacet
  facet normal 0 -1 -0
    outer loop
      vertex -33 0 39
      vertex -36 0 30
      vertex -33 0 30
    endloop
  endfacet
  facet normal 0 1 -0
    outer loop
      vertex -33 20 30
      vertex -36 20 37
      vertex -33 20 37
    endloop
  endfacet
  facet normal 0 1 0
    outer loop
      vertex -36 20 37
      vertex -33 20 30
      vertex -36 20 30
    endloop
  endfacet
  facet normal 0 -0.281733 -0.959493
    outer loop
      vertex -36 10 33.5
      vertex -33 11.8922 32.9444
      vertex -33 10 33.5
    endloop
  endfacet
  facet normal -0 -0.281733 -0.959493
    outer loop
      vertex -33 11.8922 32.9444
      vertex -36 10 33.5
      vertex -36 11.8922 32.9444
    endloop
  endfacet
  facet normal 0 0.989821 -0.142315
    outer loop
      vertex -33 6.60724 30
      vertex -36 6.81629 31.454
      vertex -33 6.81629 31.454
    endloop
  endfacet
  facet normal 0 0.989821 -0.142315
    outer loop
      vertex -36 6.81629 31.454
      vertex -33 6.60724 30
      vertex -36 6.60724 30
    endloop
  endfacet
  facet normal 0 0.755749 -0.654861
    outer loop
      vertex -33 6.81629 31.454
      vertex -36 8.10776 32.9444
      vertex -33 8.10776 32.9444
    endloop
  endfacet
  facet normal 0 0.755749 -0.654861
    outer loop
      vertex -36 8.10776 32.9444
      vertex -33 6.81629 31.454
      vertex -36 6.81629 31.454
    endloop
  endfacet
  facet normal 0 -0.989821 -0.142315
    outer loop
      vertex -36 13.3928 30
      vertex -33 13.1837 31.454
      vertex -36 13.1837 31.454
    endloop
  endfacet
  facet normal 0 -0.989821 -0.142315
    outer loop
      vertex -33 13.1837 31.454
      vertex -36 13.3928 30
      vertex -33 13.3928 30
    endloop
  endfacet
  facet normal 0 -0.755749 -0.654861
    outer loop
      vertex -36 13.1837 31.454
      vertex -33 11.8922 32.9444
      vertex -36 11.8922 32.9444
    endloop
  endfacet
  facet normal 0 -0.755749 -0.654861
    outer loop
      vertex -33 11.8922 32.9444
      vertex -36 13.1837 31.454
      vertex -33 13.1837 31.454
    endloop
  endfacet
  facet normal 0 0.281733 -0.959493
    outer loop
      vertex -36 8.10776 32.9444
      vertex -33 10 33.5
      vertex -33 8.10776 32.9444
    endloop
  endfacet
  facet normal 0 0.281733 -0.959493
    outer loop
      vertex -33 10 33.5
      vertex -36 8.10776 32.9444
      vertex -36 10 33.5
    endloop
  endfacet
  facet normal 0 0 -1
    outer loop
      vertex -24.5 25 21
      vertex -21.5 31.6072 21
      vertex -21.5 25 21
    endloop
  endfacet
  facet normal -0 0 -1
    outer loop
      vertex -21.5 31.6072 21
      vertex -24.5 25 21
      vertex -24.5 31.6072 21
    endloop
  endfacet
  facet normal 0 0 -1
    outer loop
      vertex -24.5 38.3928 21
      vertex -21.5 45 21
      vertex -21.5 38.3928 21
    endloop
  endfacet
  facet normal -0 0 -1
    outer loop
      vertex -21.5 45 21
      vertex -24.5 38.3928 21
      vertex -24.5 45 21
    endloop
  endfacet
  facet normal -1 0 0
    outer loop
      vertex -24.5 45 21
      vertex -24.5 42 37
      vertex -24.5 45 37
    endloop
  endfacet
  facet normal -1 0 0
    outer loop
      vertex -24.5 38.1837 22.454
      vertex -24.5 45 21
      vertex -24.5 38.3928 21
    endloop
  endfacet
  facet normal -1 0 0
    outer loop
      vertex -24.5 36.8922 23.9444
      vertex -24.5 45 21
      vertex -24.5 38.1837 22.454
    endloop
  endfacet
  facet normal -1 0 0
    outer loop
      vertex -24.5 45 21
      vertex -24.5 36.8922 23.9444
      vertex -24.5 42 37
    endloop
  endfacet
  facet normal -1 0 0
    outer loop
      vertex -24.5 35 24.5
      vertex -24.5 42 37
      vertex -24.5 36.8922 23.9444
    endloop
  endfacet
  facet normal -1 0 0
    outer loop
      vertex -24.5 25 39
      vertex -24.5 42 37
      vertex -24.5 35 24.5
    endloop
  endfacet
  facet normal -1 0 0
    outer loop
      vertex -24.5 25 39
      vertex -24.5 35 24.5
      vertex -24.5 33.1078 23.9444
    endloop
  endfacet
  facet normal -1 0 0
    outer loop
      vertex -24.5 25 21
      vertex -24.5 33.1078 23.9444
      vertex -24.5 31.8163 22.454
    endloop
  endfacet
  facet normal -1 0 0
    outer loop
      vertex -24.5 25 21
      vertex -24.5 31.8163 22.454
      vertex -24.5 31.6072 21
    endloop
  endfacet
  facet normal -1 -0 0
    outer loop
      vertex -24.5 33.1078 23.9444
      vertex -24.5 25 21
      vertex -24.5 25 39
    endloop
  endfacet
  facet normal -1 0 0
    outer loop
      vertex -24.5 42 37
      vertex -24.5 25 39
      vertex -24.5 42 39
    endloop
  endfacet
  facet normal 0 1 0
    outer loop
      vertex -21.5 45 39
      vertex -24.5 45 37
      vertex -33 45 39
    endloop
  endfacet
  facet normal 0 1 -0
    outer loop
      vertex -21.5 45 21
      vertex -24.5 45 37
      vertex -21.5 45 39
    endloop
  endfacet
  facet normal 0 1 0
    outer loop
      vertex -24.5 45 37
      vertex -21.5 45 21
      vertex -24.5 45 21
    endloop
  endfacet
  facet normal 0 1 0
    outer loop
      vertex -33 45 39
      vertex -24.5 45 37
      vertex -33 45 37
    endloop
  endfacet
  facet normal 1 -0 0
    outer loop
      vertex -21.5 36.8922 23.9444
      vertex -21.5 45 21
      vertex -21.5 45 39
    endloop
  endfacet
  facet normal 1 0 0
    outer loop
      vertex -21.5 45 21
      vertex -21.5 38.1837 22.454
      vertex -21.5 38.3928 21
    endloop
  endfacet
  facet normal 1 0 0
    outer loop
      vertex -21.5 45 21
      vertex -21.5 36.8922 23.9444
      vertex -21.5 38.1837 22.454
    endloop
  endfacet
  facet normal 1 0 0
    outer loop
      vertex -21.5 45 39
      vertex -21.5 35 24.5
      vertex -21.5 36.8922 23.9444
    endloop
  endfacet
  facet normal 1 -0 0
    outer loop
      vertex -21.5 25 39
      vertex -21.5 35 24.5
      vertex -21.5 45 39
    endloop
  endfacet
  facet normal 1 0 0
    outer loop
      vertex -21.5 35 24.5
      vertex -21.5 25 39
      vertex -21.5 33.1078 23.9444
    endloop
  endfacet
  facet normal 1 0 0
    outer loop
      vertex -21.5 25 21
      vertex -21.5 33.1078 23.9444
      vertex -21.5 25 39
    endloop
  endfacet
  facet normal 1 0 0
    outer loop
      vertex -21.5 33.1078 23.9444
      vertex -21.5 25 21
      vertex -21.5 31.8163 22.454
    endloop
  endfacet
  facet normal 1 0 0
    outer loop
      vertex -21.5 31.8163 22.454
      vertex -21.5 25 21
      vertex -21.5 31.6072 21
    endloop
  endfacet
  facet normal 0 -1 0
    outer loop
      vertex -24.5 25 21
      vertex -21.5 25 39
      vertex -24.5 25 39
    endloop
  endfacet
  facet normal 0 -1 -0
    outer loop
      vertex -21.5 25 39
      vertex -24.5 25 21
      vertex -21.5 25 21
    endloop
  endfacet
  facet normal 0 -0.281733 -0.959493
    outer loop
      vertex -24.5 35 24.5
      vertex -21.5 36.8922 23.9444
      vertex -21.5 35 24.5
    endloop
  endfacet
  facet normal -0 -0.281733 -0.959493
    outer loop
      vertex -21.5 36.8922 23.9444
      vertex -24.5 35 24.5
      vertex -24.5 36.8922 23.9444
    endloop
  endfacet
  facet normal 0 0.989821 -0.142315
    outer loop
      vertex -21.5 31.6072 21
      vertex -24.5 31.8163 22.454
      vertex -21.5 31.8163 22.454
    endloop
  endfacet
  facet normal 0 0.989821 -0.142315
    outer loop
      vertex -24.5 31.8163 22.454
      vertex -21.5 31.6072 21
      vertex -24.5 31.6072 21
    endloop
  endfacet
  facet normal 0 0.755749 -0.654861
    outer loop
      vertex -21.5 31.8163 22.454
      vertex -24.5 33.1078 23.9444
      vertex -21.5 33.1078 23.9444
    endloop
  endfacet
  facet normal 0 0.755749 -0.654861
    outer loop
      vertex -24.5 33.1078 23.9444
      vertex -21.5 31.8163 22.454
      vertex -24.5 31.8163 22.454
    endloop
  endfacet
  facet normal 0 -0.989822 -0.142314
    outer loop
      vertex -24.5 38.3928 21
      vertex -21.5 38.1837 22.454
      vertex -24.5 38.1837 22.454
    endloop
  endfacet
  facet normal 0 -0.989822 -0.142314
    outer loop
      vertex -21.5 38.1837 22.454
      vertex -24.5 38.3928 21
      vertex -21.5 38.3928 21
    endloop
  endfacet
  facet normal 0 -0.755749 -0.654861
    outer loop
      vertex -24.5 38.1837 22.454
      vertex -21.5 36.8922 23.9444
      vertex -24.5 36.8922 23.9444
    endloop
  endfacet
  facet normal 0 -0.755749 -0.654861
    outer loop
      vertex -21.5 36.8922 23.9444
      vertex -24.5 38.1837 22.454
      vertex -21.5 38.1837 22.454
    endloop
  endfacet
  facet normal 0 0.281733 -0.959493
    outer loop
      vertex -24.5 33.1078 23.9444
      vertex -21.5 35 24.5
      vertex -21.5 33.1078 23.9444
    endloop
  endfacet
  facet normal 0 0.281733 -0.959493
    outer loop
      vertex -21.5 35 24.5
      vertex -24.5 33.1078 23.9444
      vertex -24.5 35 24.5
    endloop
  endfacet
  facet normal 0 0 -1
    outer loop
      vertex -36 50 30
      vertex -33 56.6072 30
      vertex -33 50 30
    endloop
  endfacet
  facet normal -0 0 -1
    outer loop
      vertex -33 56.6072 30
      vertex -36 50 30
      vertex -36 56.6072 30
    endloop
  endfacet
  facet normal 0 0 -1
    outer loop
      vertex -36 63.3928 30
      vertex -33 70 30
      vertex -33 63.3928 30
    endloop
  endfacet
  facet normal -0 0 -1
    outer loop
      vertex -33 70 30
      vertex -36 63.3928 30
      vertex -36 70 30
    endloop
  endfacet
  facet normal 0 -1 0
    outer loop
      vertex -36 50 30
      vertex -33 50 37
      vertex -36 50 37
    endloop
  endfacet
  facet normal 0 -1 -0
    outer loop
      vertex -33 50 37
      vertex -36 50 30
      vertex -33 50 30
    endloop
  endfacet
  facet normal 0 1 -0
    outer loop
      vertex -33 70 30
      vertex -36 70 39
      vertex -33 70 39
    endloop
  endfacet
  facet normal 0 1 0
    outer loop
      vertex -36 70 39
      vertex -33 70 30
      vertex -36 70 30
    endloop
  endfacet
  facet normal 0 -0.281733 -0.959493
    outer loop
      vertex -36 60 33.5
      vertex -33 61.8922 32.9444
      vertex -33 60 33.5
    endloop
  endfacet
  facet normal -0 -0.281733 -0.959493
    outer loop
      vertex -33 61.8922 32.9444
      vertex -36 60 33.5
      vertex -36 61.8922 32.9444
    endloop
  endfacet
  facet normal 0 0.989822 -0.142314
    outer loop
      vertex -33 56.6072 30
      vertex -36 56.8163 31.454
      vertex -33 56.8163 31.454
    endloop
  endfacet
  facet normal 0 0.989822 -0.142314
    outer loop
      vertex -36 56.8163 31.454
      vertex -33 56.6072 30
      vertex -36 56.6072 30
    endloop
  endfacet
  facet normal 0 0.755749 -0.654861
    outer loop
      vertex -33 56.8163 31.454
      vertex -36 58.1078 32.9444
      vertex -33 58.1078 32.9444
    endloop
  endfacet
  facet normal 0 0.755749 -0.654861
    outer loop
      vertex -36 58.1078 32.9444
      vertex -33 56.8163 31.454
      vertex -36 56.8163 31.454
    endloop
  endfacet
  facet normal 0 -0.989822 -0.142314
    outer loop
      vertex -36 63.3928 30
      vertex -33 63.1837 31.454
      vertex -36 63.1837 31.454
    endloop
  endfacet
  facet normal 0 -0.989822 -0.142314
    outer loop
      vertex -33 63.1837 31.454
      vertex -36 63.3928 30
      vertex -33 63.3928 30
    endloop
  endfacet
  facet normal 0 -0.755749 -0.654861
    outer loop
      vertex -36 63.1837 31.454
      vertex -33 61.8922 32.9444
      vertex -36 61.8922 32.9444
    endloop
  endfacet
  facet normal 0 -0.755749 -0.654861
    outer loop
      vertex -33 61.8922 32.9444
      vertex -36 63.1837 31.454
      vertex -33 63.1837 31.454
    endloop
  endfacet
  facet normal 0 0.281733 -0.959493
    outer loop
      vertex -36 58.1078 32.9444
      vertex -33 60 33.5
      vertex -33 58.1078 32.9444
    endloop
  endfacet
  facet normal 0 0.281733 -0.959493
    outer loop
      vertex -33 60 33.5
      vertex -36 58.1078 32.9444
      vertex -36 60 33.5
    endloop
  endfacet
  facet normal 0 0 -1
    outer loop
      vertex -17 86.161 30
      vertex -1.5 92 30
      vertex -1.5 86.161 30
    endloop
  endfacet
  facet normal -0 0 -1
    outer loop
      vertex -1.5 92 30
      vertex -17 86.161 30
      vertex -17 92 30
    endloop
  endfacet
  facet normal 0 0 -1
    outer loop
      vertex -17 71 30
      vertex -1.5 73.839 30
      vertex -1.5 71 30
    endloop
  endfacet
  facet normal -0 0 -1
    outer loop
      vertex -1.5 73.839 30
      vertex -17 71 30
      vertex -17 73.839 30
    endloop
  endfacet
  facet normal -1 0 0
    outer loop
      vertex -17 71 36
      vertex -17 73.839 30
      vertex -17 71 30
    endloop
  endfacet
  facet normal -1 0 0
    outer loop
      vertex -17 73.839 30
      vertex -17 71 36
      vertex -17 73.839 39
    endloop
  endfacet
  facet normal -1 0 0
    outer loop
      vertex -17 70 39
      vertex -17 71 36
      vertex -17 70 36
    endloop
  endfacet
  facet normal -1 0 0
    outer loop
      vertex -17 71 36
      vertex -17 70 39
      vertex -17 73.839 39
    endloop
  endfacet
  facet normal -1 0 0
    outer loop
      vertex -17 86.161 30
      vertex -17 92 39
      vertex -17 92 30
    endloop
  endfacet
  facet normal -1 -0 0
    outer loop
      vertex -17 92 39
      vertex -17 86.161 30
      vertex -17 86.161 39
    endloop
  endfacet
  facet normal -1 0 0
    outer loop
      vertex -17 79.4063 38.0754
      vertex -17 80.8941 39
      vertex -17 80.5937 38.0754
    endloop
  endfacet
  facet normal -1 -0 0
    outer loop
      vertex -17 80.8941 39
      vertex -17 79.4063 38.0754
      vertex -17 79.1059 39
    endloop
  endfacet
  facet normal 1 0 0
    outer loop
      vertex -1.5 92 39
      vertex -1.5 86.161 35.8625
      vertex -1.5 92 30
    endloop
  endfacet
  facet normal 1 -0 0
    outer loop
      vertex -1.5 70 39
      vertex -1.5 86.161 35.8625
      vertex -1.5 92 39
    endloop
  endfacet
  facet normal 1 0 0
    outer loop
      vertex -1.5 71 30
      vertex -1.5 73.839 35.8625
      vertex -1.5 71 36
    endloop
  endfacet
  facet normal 1 0 0
    outer loop
      vertex -1.5 86.161 35.8625
      vertex -1.5 70 39
      vertex -1.5 73.839 35.8625
    endloop
  endfacet
  facet normal 1 0 0
    outer loop
      vertex -1.5 73.839 35.8625
      vertex -1.5 70 39
      vertex -1.5 71 36
    endloop
  endfacet
  facet normal 1 0 0
    outer loop
      vertex -1.5 71 36
      vertex -1.5 70 39
      vertex -1.5 70 36
    endloop
  endfacet
  facet normal 1 0 0
    outer loop
      vertex -1.5 92 30
      vertex -1.5 86.161 35.8625
      vertex -1.5 86.161 30
    endloop
  endfacet
  facet normal 1 0 0
    outer loop
      vertex -1.5 73.839 35.8625
      vertex -1.5 71 30
      vertex -1.5 73.839 30
    endloop
  endfacet
  facet normal 0 1 -0
    outer loop
      vertex -1.5 92 30
      vertex -17 92 39
      vertex -1.5 92 39
    endloop
  endfacet
  facet normal 0 1 0
    outer loop
      vertex -17 92 39
      vertex -1.5 92 30
      vertex -17 92 30
    endloop
  endfacet
  facet normal 0 0 -1
    outer loop
      vertex -3 70 36
      vertex -1.5 71 36
      vertex -1.5 70 36
    endloop
  endfacet
  facet normal 0 0 -1
    outer loop
      vertex -17 71 36
      vertex -3 70 36
      vertex -17 70 36
    endloop
  endfacet
  facet normal 0 0 -1
    outer loop
      vertex -3 70 36
      vertex -17 71 36
      vertex -1.5 71 36
    endloop
  endfacet
  facet normal 0 -1 0
    outer loop
      vertex -17 71 30
      vertex -1.5 71 36
      vertex -17 71 36
    endloop
  endfacet
  facet normal 0 -1 -0
    outer loop
      vertex -1.5 71 36
      vertex -17 71 30
      vertex -1.5 71 30
    endloop
  endfacet
  facet normal 0 -0.58779 -0.809014
    outer loop
      vertex -16.9075 80 37.5
      vertex -11 80.4755 37.1545
      vertex -11 80 37.5
    endloop
  endfacet
  facet normal -0 -0.58779 -0.809014
    outer loop
      vertex -11 80.4755 37.1545
      vertex -16.9075 80 37.5
      vertex -16.9075 80.4755 37.1545
    endloop
  endfacet
  facet normal -0 0 1
    outer loop
      vertex -16.9075 80.2939 36.5955
      vertex -11 79.7061 36.5955
      vertex -11 80.2939 36.5955
    endloop
  endfacet
  facet normal 0 0 1
    outer loop
      vertex -11 79.7061 36.5955
      vertex -16.9075 80.2939 36.5955
      vertex -16.9075 79.7061 36.5955
    endloop
  endfacet
  facet normal 0 -0.951058 0.309013
    outer loop
      vertex -16.9075 80.2939 36.5955
      vertex -11 80.4755 37.1545
      vertex -16.9075 80.4755 37.1545
    endloop
  endfacet
  facet normal 0 -0.951058 0.309013
    outer loop
      vertex -11 80.4755 37.1545
      vertex -16.9075 80.2939 36.5955
      vertex -11 80.2939 36.5955
    endloop
  endfacet
  facet normal -1 0 0
    outer loop
      vertex -11 80.2939 36.5955
      vertex -11 80 37.5
      vertex -11 80.4755 37.1545
    endloop
  endfacet
  facet normal -1 0 0
    outer loop
      vertex -11 79.7061 36.5955
      vertex -11 80 37.5
      vertex -11 80.2939 36.5955
    endloop
  endfacet
  facet normal -1 0 0
    outer loop
      vertex -11 80 37.5
      vertex -11 79.7061 36.5955
      vertex -11 79.5245 37.1545
    endloop
  endfacet
  facet normal 0 0.58779 -0.809014
    outer loop
      vertex -16.9075 79.5245 37.1545
      vertex -11 80 37.5
      vertex -11 79.5245 37.1545
    endloop
  endfacet
  facet normal 0 0.58779 -0.809014
    outer loop
      vertex -11 80 37.5
      vertex -16.9075 79.5245 37.1545
      vertex -16.9075 80 37.5
    endloop
  endfacet
  facet normal 0 0.951058 0.309013
    outer loop
      vertex -11 79.7061 36.5955
      vertex -16.9075 79.5245 37.1545
      vertex -11 79.5245 37.1545
    endloop
  endfacet
  facet normal 0 0.951058 0.309013
    outer loop
      vertex -16.9075 79.5245 37.1545
      vertex -11 79.7061 36.5955
      vertex -16.9075 79.7061 36.5955
    endloop
  endfacet
  facet normal 0 0 -1
    outer loop
      vertex -16.9075 73.839 35.8625
      vertex -1.5 86.161 35.8625
      vertex -1.5 73.839 35.8625
    endloop
  endfacet
  facet normal -0 0 -1
    outer loop
      vertex -1.5 86.161 35.8625
      vertex -16.9075 73.839 35.8625
      vertex -16.9075 86.161 35.8625
    endloop
  endfacet
  facet normal 0 -1 0
    outer loop
      vertex -17 86.161 39
      vertex -16.9075 86.161 35.8625
      vertex -16.9075 86.161 39
    endloop
  endfacet
  facet normal 0 -1 0
    outer loop
      vertex -17 86.161 30
      vertex -16.9075 86.161 35.8625
      vertex -17 86.161 39
    endloop
  endfacet
  facet normal 0 -1 0
    outer loop
      vertex -1.5 86.161 30
      vertex -16.9075 86.161 35.8625
      vertex -17 86.161 30
    endloop
  endfacet
  facet normal 0 -1 0
    outer loop
      vertex -16.9075 86.161 35.8625
      vertex -1.5 86.161 30
      vertex -1.5 86.161 35.8625
    endloop
  endfacet
  facet normal 0 1 0
    outer loop
      vertex -1.5 73.839 35.8625
      vertex -1.5 73.839 30
      vertex -16.9075 73.839 35.8625
    endloop
  endfacet
  facet normal 0 1 -0
    outer loop
      vertex -16.9075 73.839 35.8625
      vertex -17 73.839 39
      vertex -16.9075 73.839 39
    endloop
  endfacet
  facet normal 0 1 0
    outer loop
      vertex -16.9075 73.839 35.8625
      vertex -17 73.839 30
      vertex -17 73.839 39
    endloop
  endfacet
  facet normal 0 1 0
    outer loop
      vertex -17 73.839 30
      vertex -16.9075 73.839 35.8625
      vertex -1.5 73.839 30
    endloop
  endfacet
  facet normal -1 0 0
    outer loop
      vertex -16.9075 80.5937 38.0754
      vertex -16.9075 86.161 39
      vertex -16.9075 86.161 35.8625
    endloop
  endfacet
  facet normal -1 -0 0
    outer loop
      vertex -16.9075 86.161 39
      vertex -16.9075 80.5937 38.0754
      vertex -16.9075 80.8941 39
    endloop
  endfacet
  facet normal -1 0 0
    outer loop
      vertex -16.9075 86.161 35.8625
      vertex -16.9075 80.4755 37.1545
      vertex -16.9075 80.5937 38.0754
    endloop
  endfacet
  facet normal -1 0 0
    outer loop
      vertex -16.9075 86.161 35.8625
      vertex -16.9075 80.2939 36.5955
      vertex -16.9075 80.4755 37.1545
    endloop
  endfacet
  facet normal -1 0 0
    outer loop
      vertex -16.9075 86.161 35.8625
      vertex -16.9075 79.7061 36.5955
      vertex -16.9075 80.2939 36.5955
    endloop
  endfacet
  facet normal -1 0 0
    outer loop
      vertex -16.9075 73.839 35.8625
      vertex -16.9075 79.4063 38.0754
      vertex -16.9075 79.5245 37.1545
    endloop
  endfacet
  facet normal -1 0 0
    outer loop
      vertex -16.9075 73.839 35.8625
      vertex -16.9075 79.7061 36.5955
      vertex -16.9075 86.161 35.8625
    endloop
  endfacet
  facet normal -1 0 0
    outer loop
      vertex -16.9075 73.839 35.8625
      vertex -16.9075 79.5245 37.1545
      vertex -16.9075 79.7061 36.5955
    endloop
  endfacet
  facet normal -1 0 0
    outer loop
      vertex -16.9075 73.839 39
      vertex -16.9075 79.4063 38.0754
      vertex -16.9075 73.839 35.8625
    endloop
  endfacet
  facet normal -1 0 0
    outer loop
      vertex -16.9075 79.4063 38.0754
      vertex -16.9075 73.839 39
      vertex -16.9075 79.1059 39
    endloop
  endfacet
  facet normal -1 0 0
    outer loop
      vertex -16.9075 80 37.5
      vertex -16.9075 80.5937 38.0754
      vertex -16.9075 80.4755 37.1545
    endloop
  endfacet
  facet normal -1 0 0
    outer loop
      vertex -16.9075 79.4063 38.0754
      vertex -16.9075 80 37.5
      vertex -16.9075 79.5245 37.1545
    endloop
  endfacet
  facet normal -1 0 0
    outer loop
      vertex -16.9075 80 37.5
      vertex -16.9075 79.4063 38.0754
      vertex -16.9075 80.5937 38.0754
    endloop
  endfacet
  facet normal 0 0 -1
    outer loop
      vertex -17 79.4063 38.0754
      vertex -16.9075 80.5937 38.0754
      vertex -16.9075 79.4063 38.0754
    endloop
  endfacet
  facet normal -0 0 -1
    outer loop
      vertex -16.9075 80.5937 38.0754
      vertex -17 79.4063 38.0754
      vertex -17 80.5937 38.0754
    endloop
  endfacet
  facet normal 0 0.951057 -0.309017
    outer loop
      vertex -16.9075 80.5937 38.0754
      vertex -17 80.8941 39
      vertex -16.9075 80.8941 39
    endloop
  endfacet
  facet normal 0 0.951057 -0.309017
    outer loop
      vertex -17 80.8941 39
      vertex -16.9075 80.5937 38.0754
      vertex -17 80.5937 38.0754
    endloop
  endfacet
  facet normal 0 -0.951057 -0.309017
    outer loop
      vertex -17 79.4063 38.0754
      vertex -16.9075 79.1059 39
      vertex -17 79.1059 39
    endloop
  endfacet
  facet normal 0 -0.951057 -0.309017
    outer loop
      vertex -16.9075 79.1059 39
      vertex -17 79.4063 38.0754
      vertex -16.9075 79.4063 38.0754
    endloop
  endfacet
  facet normal 0 0 -1
    outer loop
      vertex -11.5 42 37
      vertex -3 45 37
      vertex -3 42 37
    endloop
  endfacet
  facet normal -0 0 -1
    outer loop
      vertex -3 45 37
      vertex -11.5 42 37
      vertex -11.5 45 37
    endloop
  endfacet
  facet normal 0 0 -1
    outer loop
      vertex -3 42 37
      vertex 8.21565e-015 20 37
      vertex -3 20 37
    endloop
  endfacet
  facet normal 0 0 -1
    outer loop
      vertex 8.21565e-015 20 37
      vertex -3 42 37
      vertex 8.21565e-015 50 37
    endloop
  endfacet
  facet normal 0 0 -1
    outer loop
      vertex -3 45 37
      vertex 8.21565e-015 50 37
      vertex -3 42 37
    endloop
  endfacet
  facet normal -0 0 -1
    outer loop
      vertex 8.21565e-015 50 37
      vertex -3 45 37
      vertex -3 50 37
    endloop
  endfacet
  facet normal 0 0 -1
    outer loop
      vertex -36 20 37
      vertex -33 42 37
      vertex -33 20 37
    endloop
  endfacet
  facet normal 0 0 -1
    outer loop
      vertex -36 50 37
      vertex -33 42 37
      vertex -36 20 37
    endloop
  endfacet
  facet normal 0 0 -1
    outer loop
      vertex -33 42 37
      vertex -36 50 37
      vertex -33 45 37
    endloop
  endfacet
  facet normal 0 0 -1
    outer loop
      vertex -33 45 37
      vertex -36 50 37
      vertex -33 50 37
    endloop
  endfacet
  facet normal 0 0 -1
    outer loop
      vertex -33 42 37
      vertex -24.5 45 37
      vertex -24.5 42 37
    endloop
  endfacet
  facet normal -0 0 -1
    outer loop
      vertex -24.5 45 37
      vertex -33 42 37
      vertex -33 45 37
    endloop
  endfacet
  facet normal 0 -1 0
    outer loop
      vertex -11.5 42 37
      vertex -3 42 39
      vertex -11.5 42 39
    endloop
  endfacet
  facet normal 0 -1 -0
    outer loop
      vertex -3 42 39
      vertex -11.5 42 37
      vertex -3 42 37
    endloop
  endfacet
  facet normal 0 -1 0
    outer loop
      vertex -33 42 37
      vertex -24.5 42 39
      vertex -33 42 39
    endloop
  endfacet
  facet normal 0 -1 -0
    outer loop
      vertex -24.5 42 39
      vertex -33 42 37
      vertex -24.5 42 37
    endloop
  endfacet
endsolid OpenSCAD_Model
