solid OpenSCAD_Model
  facet normal -2.22045e-016 -0 -1
    outer loop
      vertex -17.5365 61.5734 3.89388e-015
      vertex -3 50 6.66134e-016
      vertex -17.5365 36.4266 3.89388e-015
    endloop
  endfacet
  facet normal -2.22045e-016 0 -1
    outer loop
      vertex -3 50 6.66134e-016
      vertex -17.5365 61.5734 3.89388e-015
      vertex -16.5 63 3.66374e-015
    endloop
  endfacet
  facet normal -2.22045e-016 0 -1
    outer loop
      vertex -33 50 7.32747e-015
      vertex -17.5365 36.4266 3.89388e-015
      vertex -19.2135 35.8817 4.26626e-015
    endloop
  endfacet
  facet normal -2.22045e-016 0 -1
    outer loop
      vertex -17.5365 36.4266 3.89388e-015
      vertex -33 50 7.32747e-015
      vertex -17.5365 61.5734 3.89388e-015
    endloop
  endfacet
  facet normal -2.22045e-016 -0 -1
    outer loop
      vertex -17.5365 33.5734 3.89388e-015
      vertex -3 20 6.66134e-016
      vertex -17.5365 8.42658 3.89388e-015
    endloop
  endfacet
  facet normal -2.22045e-016 0 -1
    outer loop
      vertex -3 20 6.66134e-016
      vertex -17.5365 33.5734 3.89388e-015
      vertex -16.5 35 3.66374e-015
    endloop
  endfacet
  facet normal -2.22045e-016 0 -1
    outer loop
      vertex -33 20 7.32747e-015
      vertex -17.5365 8.42658 3.89388e-015
      vertex -19.2135 7.88168 4.26626e-015
    endloop
  endfacet
  facet normal -2.22045e-016 0 -1
    outer loop
      vertex -17.5365 8.42658 3.89388e-015
      vertex -33 20 7.32747e-015
      vertex -17.5365 33.5734 3.89388e-015
    endloop
  endfacet
  facet normal -2.22045e-016 0 -1
    outer loop
      vertex 0 0 0
      vertex -3 20 6.66134e-016
      vertex 0 20 0
    endloop
  endfacet
  facet normal -2.22045e-016 0 -1
    outer loop
      vertex -17.5365 8.42658 3.89388e-015
      vertex -3 20 6.66134e-016
      vertex -16.5 7 3.66374e-015
    endloop
  endfacet
  facet normal -2.22045e-016 0 -1
    outer loop
      vertex 0 0 0
      vertex -16.5 7 3.66374e-015
      vertex -3 20 6.66134e-016
    endloop
  endfacet
  facet normal -2.22045e-016 0 -1
    outer loop
      vertex 0 0 0
      vertex -17.5365 5.57341 3.89388e-015
      vertex -16.5 7 3.66374e-015
    endloop
  endfacet
  facet normal -2.22045e-016 0 -1
    outer loop
      vertex -36 0 7.99361e-015
      vertex -19.2135 7.88168 4.26626e-015
      vertex -19.2135 6.11832 4.26626e-015
    endloop
  endfacet
  facet normal -2.22045e-016 0 -1
    outer loop
      vertex -17.5365 33.5734 3.89388e-015
      vertex -33 20 7.32747e-015
      vertex -19.2135 34.1183 4.26626e-015
    endloop
  endfacet
  facet normal -2.22045e-016 0 -1
    outer loop
      vertex -19.2135 34.1183 4.26626e-015
      vertex -33 20 7.32747e-015
      vertex -19.2135 35.8817 4.26626e-015
    endloop
  endfacet
  facet normal -2.22045e-016 -0 -1
    outer loop
      vertex -33 50 7.32747e-015
      vertex -19.2135 35.8817 4.26626e-015
      vertex -33 20 7.32747e-015
    endloop
  endfacet
  facet normal -2.22045e-016 0 -1
    outer loop
      vertex -17.5365 61.5734 3.89388e-015
      vertex -33 50 7.32747e-015
      vertex -19.2135 62.1183 4.26626e-015
    endloop
  endfacet
  facet normal -2.22045e-016 0 -1
    outer loop
      vertex -36 0 7.99361e-015
      vertex -17.5365 5.57341 3.89388e-015
      vertex 0 0 0
    endloop
  endfacet
  facet normal -2.22045e-016 0 -1
    outer loop
      vertex -36 0 7.99361e-015
      vertex -19.2135 6.11832 4.26626e-015
      vertex -17.5365 5.57341 3.89388e-015
    endloop
  endfacet
  facet normal -2.22045e-016 0 -1
    outer loop
      vertex -19.2135 7.88168 4.26626e-015
      vertex -36 0 7.99361e-015
      vertex -33 20 7.32747e-015
    endloop
  endfacet
  facet normal -2.22045e-016 0 -1
    outer loop
      vertex -33 20 7.32747e-015
      vertex -36 0 7.99361e-015
      vertex -36 20 7.99361e-015
    endloop
  endfacet
  facet normal -2.22045e-016 0 -1
    outer loop
      vertex -16.5 63 3.66374e-015
      vertex 0 50 0
      vertex -3 50 6.66134e-016
    endloop
  endfacet
  facet normal -2.22045e-016 0 -1
    outer loop
      vertex -3 20 6.66134e-016
      vertex -16.5 35 3.66374e-015
      vertex -3 50 6.66134e-016
    endloop
  endfacet
  facet normal -2.22045e-016 0 -1
    outer loop
      vertex -17.5365 36.4266 3.89388e-015
      vertex -3 50 6.66134e-016
      vertex -16.5 35 3.66374e-015
    endloop
  endfacet
  facet normal -2.22045e-016 0 -1
    outer loop
      vertex 0 50 0
      vertex -16.5 63 3.66374e-015
      vertex 0 92 0
    endloop
  endfacet
  facet normal -2.22045e-016 0 -1
    outer loop
      vertex -17.5365 64.4266 3.89388e-015
      vertex 0 92 0
      vertex -16.5 63 3.66374e-015
    endloop
  endfacet
  facet normal -2.22045e-016 0 -1
    outer loop
      vertex -36 92 7.99361e-015
      vertex -17.5365 64.4266 3.89388e-015
      vertex -19.2135 63.8817 4.26626e-015
    endloop
  endfacet
  facet normal -2.22045e-016 0 -1
    outer loop
      vertex -19.2135 62.1183 4.26626e-015
      vertex -33 50 7.32747e-015
      vertex -19.2135 63.8817 4.26626e-015
    endloop
  endfacet
  facet normal -2.22045e-016 0 -1
    outer loop
      vertex -36 50 7.99361e-015
      vertex -19.2135 63.8817 4.26626e-015
      vertex -33 50 7.32747e-015
    endloop
  endfacet
  facet normal -2.22045e-016 0 -1
    outer loop
      vertex -19.2135 63.8817 4.26626e-015
      vertex -36 50 7.99361e-015
      vertex -36 92 7.99361e-015
    endloop
  endfacet
  facet normal -2.22045e-016 0 -1
    outer loop
      vertex -17.5365 64.4266 3.89388e-015
      vertex -36 92 7.99361e-015
      vertex 0 92 0
    endloop
  endfacet
  facet normal -1 0 0
    outer loop
      vertex -3 12.6451 27.708
      vertex -3 20 30
      vertex -3 20 2
    endloop
  endfacet
  facet normal -1 0 0
    outer loop
      vertex -3 20 30
      vertex -3 12.6451 27.708
      vertex -3 13.4644 29.5019
    endloop
  endfacet
  facet normal -1 0 0
    outer loop
      vertex -3 20 2
      vertex -3 10.9861 26.6418
      vertex -3 12.6451 27.708
    endloop
  endfacet
  facet normal -1 0 0
    outer loop
      vertex -3 20 2
      vertex -3 9.01394 26.6418
      vertex -3 10.9861 26.6418
    endloop
  endfacet
  facet normal -1 0 0
    outer loop
      vertex -3 0 2
      vertex -3 9.01394 26.6418
      vertex -3 20 2
    endloop
  endfacet
  facet normal -1 0 0
    outer loop
      vertex -3 0 30
      vertex -3 7.35488 27.708
      vertex -3 0 2
    endloop
  endfacet
  facet normal -1 -0 0
    outer loop
      vertex -3 9.01394 26.6418
      vertex -3 0 2
      vertex -3 7.35488 27.708
    endloop
  endfacet
  facet normal -1 -0 0
    outer loop
      vertex -3 20 30
      vertex -3 13.4644 29.5019
      vertex -3 13.3928 30
    endloop
  endfacet
  facet normal -1 0 0
    outer loop
      vertex -3 7.35488 27.708
      vertex -3 0 30
      vertex -3 6.53562 29.5019
    endloop
  endfacet
  facet normal -1 0 0
    outer loop
      vertex -3 6.53562 29.5019
      vertex -3 0 30
      vertex -3 6.60724 30
    endloop
  endfacet
  facet normal -1 0 0
    outer loop
      vertex -3 62.6451 27.708
      vertex -3 70 30
      vertex -3 70 2
    endloop
  endfacet
  facet normal -1 0 0
    outer loop
      vertex -3 70 30
      vertex -3 62.6451 27.708
      vertex -3 63.4644 29.5019
    endloop
  endfacet
  facet normal -1 0 0
    outer loop
      vertex -3 70 2
      vertex -3 60.9861 26.6418
      vertex -3 62.6451 27.708
    endloop
  endfacet
  facet normal -1 0 0
    outer loop
      vertex -3 70 2
      vertex -3 59.0139 26.6418
      vertex -3 60.9861 26.6418
    endloop
  endfacet
  facet normal -1 0 0
    outer loop
      vertex -3 50 2
      vertex -3 59.0139 26.6418
      vertex -3 70 2
    endloop
  endfacet
  facet normal -1 0 0
    outer loop
      vertex -3 50 30
      vertex -3 57.3549 27.708
      vertex -3 50 2
    endloop
  endfacet
  facet normal -1 -0 0
    outer loop
      vertex -3 59.0139 26.6418
      vertex -3 50 2
      vertex -3 57.3549 27.708
    endloop
  endfacet
  facet normal -1 -0 0
    outer loop
      vertex -3 70 30
      vertex -3 63.4644 29.5019
      vertex -3 63.3928 30
    endloop
  endfacet
  facet normal -1 0 0
    outer loop
      vertex -3 57.3549 27.708
      vertex -3 50 30
      vertex -3 56.5356 29.5019
    endloop
  endfacet
  facet normal -1 0 0
    outer loop
      vertex -3 56.5356 29.5019
      vertex -3 50 30
      vertex -3 56.6072 30
    endloop
  endfacet
  facet normal 1 -0 0
    outer loop
      vertex -3 20 2
      vertex -3 50 6.66134e-016
      vertex -3 50 2
    endloop
  endfacet
  facet normal 1 0 0
    outer loop
      vertex -3 50 6.66134e-016
      vertex -3 20 2
      vertex -3 20 6.66134e-016
    endloop
  endfacet
  facet normal -0 0 1
    outer loop
      vertex -3 6.60724 30
      vertex 6.66134e-015 0 30
      vertex 6.66134e-015 6.60724 30
    endloop
  endfacet
  facet normal 0 0 1
    outer loop
      vertex 6.66134e-015 0 30
      vertex -3 6.60724 30
      vertex -3 0 30
    endloop
  endfacet
  facet normal -0 0 1
    outer loop
      vertex -3 20 30
      vertex 6.66134e-015 13.3928 30
      vertex 6.66134e-015 20 30
    endloop
  endfacet
  facet normal 0 0 1
    outer loop
      vertex 6.66134e-015 13.3928 30
      vertex -3 20 30
      vertex -3 13.3928 30
    endloop
  endfacet
  facet normal 1 0 -2.22045e-016
    outer loop
      vertex 6.66134e-015 6.60724 30
      vertex 6.66134e-015 0 30
      vertex 6.55074e-015 6.53562 29.5019
    endloop
  endfacet
  facet normal 1 0 -2.22045e-016
    outer loop
      vertex 6.15241e-015 12.6451 27.708
      vertex 6.66134e-015 20 30
      vertex 6.55074e-015 13.4644 29.5019
    endloop
  endfacet
  facet normal 1 0 -2.22045e-016
    outer loop
      vertex 6.55074e-015 13.4644 29.5019
      vertex 6.66134e-015 20 30
      vertex 6.66134e-015 13.3928 30
    endloop
  endfacet
  facet normal 1 0 -2.22045e-016
    outer loop
      vertex 6.66134e-015 20 30
      vertex 6.15241e-015 12.6451 27.708
      vertex 0 20 0
    endloop
  endfacet
  facet normal 1 0 -2.22045e-016
    outer loop
      vertex 5.91566e-015 10.9861 26.6418
      vertex 0 20 0
      vertex 6.15241e-015 12.6451 27.708
    endloop
  endfacet
  facet normal 1 0 -2.22045e-016
    outer loop
      vertex 5.91566e-015 9.01394 26.6418
      vertex 0 20 0
      vertex 5.91566e-015 10.9861 26.6418
    endloop
  endfacet
  facet normal 1 0 -2.22045e-016
    outer loop
      vertex 0 0 0
      vertex 5.91566e-015 9.01394 26.6418
      vertex 6.15241e-015 7.35488 27.708
    endloop
  endfacet
  facet normal 1 0 -2.22045e-016
    outer loop
      vertex 6.66134e-015 0 30
      vertex 6.15241e-015 7.35488 27.708
      vertex 6.55074e-015 6.53562 29.5019
    endloop
  endfacet
  facet normal 1 0 -2.22045e-016
    outer loop
      vertex 6.15241e-015 7.35488 27.708
      vertex 6.66134e-015 0 30
      vertex 0 0 0
    endloop
  endfacet
  facet normal 1 0 -2.22045e-016
    outer loop
      vertex 5.91566e-015 9.01394 26.6418
      vertex 0 0 0
      vertex 0 20 0
    endloop
  endfacet
  facet normal 0 -1 0
    outer loop
      vertex -36 0 30
      vertex -33 0 2
      vertex -33 0 30
    endloop
  endfacet
  facet normal 0 -1 -0
    outer loop
      vertex -33 0 2
      vertex -36 0 7.99361e-015
      vertex -3 0 2
    endloop
  endfacet
  facet normal 0 -1 0
    outer loop
      vertex -36 0 7.99361e-015
      vertex -33 0 2
      vertex -36 0 30
    endloop
  endfacet
  facet normal 0 -1 0
    outer loop
      vertex -3 0 2
      vertex 6.66134e-015 0 30
      vertex -3 0 30
    endloop
  endfacet
  facet normal 0 -1 0
    outer loop
      vertex -3 0 2
      vertex 0 0 0
      vertex 6.66134e-015 0 30
    endloop
  endfacet
  facet normal 0 -1 0
    outer loop
      vertex 0 0 0
      vertex -3 0 2
      vertex -36 0 7.99361e-015
    endloop
  endfacet
  facet normal 0 1 0
    outer loop
      vertex 6.66134e-015 20 30
      vertex -3 20 2
      vertex -3 20 30
    endloop
  endfacet
  facet normal 0 1 -0
    outer loop
      vertex 0 20 0
      vertex -3 20 2
      vertex 6.66134e-015 20 30
    endloop
  endfacet
  facet normal 0 1 0
    outer loop
      vertex -3 20 2
      vertex 0 20 0
      vertex -3 20 6.66134e-016
    endloop
  endfacet
  facet normal -0 0 1
    outer loop
      vertex -3 10.9861 26.6418
      vertex 5.91566e-015 9.01394 26.6418
      vertex 5.91566e-015 10.9861 26.6418
    endloop
  endfacet
  facet normal 0 0 1
    outer loop
      vertex 5.91566e-015 9.01394 26.6418
      vertex -3 10.9861 26.6418
      vertex -3 9.01394 26.6418
    endloop
  endfacet
  facet normal 0 -0.909632 0.415415
    outer loop
      vertex -3 12.6451 27.708
      vertex 6.55074e-015 13.4644 29.5019
      vertex -3 13.4644 29.5019
    endloop
  endfacet
  facet normal 0 -0.909632 0.415415
    outer loop
      vertex 6.55074e-015 13.4644 29.5019
      vertex -3 12.6451 27.708
      vertex 6.15241e-015 12.6451 27.708
    endloop
  endfacet
  facet normal 0 -0.540641 0.841253
    outer loop
      vertex -3 12.6451 27.708
      vertex 5.91566e-015 10.9861 26.6418
      vertex 6.15241e-015 12.6451 27.708
    endloop
  endfacet
  facet normal 0 -0.540641 0.841253
    outer loop
      vertex 5.91566e-015 10.9861 26.6418
      vertex -3 12.6451 27.708
      vertex -3 10.9861 26.6418
    endloop
  endfacet
  facet normal 0 0.989821 -0.142315
    outer loop
      vertex 6.55074e-015 6.53562 29.5019
      vertex -3 6.60724 30
      vertex 6.66134e-015 6.60724 30
    endloop
  endfacet
  facet normal 0 0.989821 -0.142315
    outer loop
      vertex -3 6.60724 30
      vertex 6.55074e-015 6.53562 29.5019
      vertex -3 6.53562 29.5019
    endloop
  endfacet
  facet normal 0 -0.989821 -0.142315
    outer loop
      vertex -3 13.4644 29.5019
      vertex 6.66134e-015 13.3928 30
      vertex -3 13.3928 30
    endloop
  endfacet
  facet normal 0 -0.989821 -0.142315
    outer loop
      vertex 6.66134e-015 13.3928 30
      vertex -3 13.4644 29.5019
      vertex 6.55074e-015 13.4644 29.5019
    endloop
  endfacet
  facet normal 0 0.909632 0.415415
    outer loop
      vertex 6.15241e-015 7.35488 27.708
      vertex -3 6.53562 29.5019
      vertex 6.55074e-015 6.53562 29.5019
    endloop
  endfacet
  facet normal 0 0.909632 0.415415
    outer loop
      vertex -3 6.53562 29.5019
      vertex 6.15241e-015 7.35488 27.708
      vertex -3 7.35488 27.708
    endloop
  endfacet
  facet normal -0 0.540641 0.841253
    outer loop
      vertex -3 9.01394 26.6418
      vertex 6.15241e-015 7.35488 27.708
      vertex 5.91566e-015 9.01394 26.6418
    endloop
  endfacet
  facet normal 0 0.540641 0.841253
    outer loop
      vertex 6.15241e-015 7.35488 27.708
      vertex -3 9.01394 26.6418
      vertex -3 7.35488 27.708
    endloop
  endfacet
  facet normal -1 0 0
    outer loop
      vertex -14.5 25 2
      vertex -14.5 45 2
      vertex -14.5 45 1
    endloop
  endfacet
  facet normal -1 0 0
    outer loop
      vertex -14.5 45 2
      vertex -14.5 37.6451 18.708
      vertex -14.5 45 21
    endloop
  endfacet
  facet normal -1 0 0
    outer loop
      vertex -14.5 45 21
      vertex -14.5 37.6451 18.708
      vertex -14.5 38.4644 20.5019
    endloop
  endfacet
  facet normal -1 0 0
    outer loop
      vertex -14.5 45 2
      vertex -14.5 35.9861 17.6418
      vertex -14.5 37.6451 18.708
    endloop
  endfacet
  facet normal -1 0 0
    outer loop
      vertex -14.5 45 2
      vertex -14.5 25 2
      vertex -14.5 35.9861 17.6418
    endloop
  endfacet
  facet normal -1 -0 0
    outer loop
      vertex -14.5 35.9861 17.6418
      vertex -14.5 25 2
      vertex -14.5 34.0139 17.6418
    endloop
  endfacet
  facet normal -1 -0 0
    outer loop
      vertex -14.5 34.0139 17.6418
      vertex -14.5 25 2
      vertex -14.5 32.3549 18.708
    endloop
  endfacet
  facet normal -1 0 0
    outer loop
      vertex -14.5 25 2
      vertex -14.5 45 1
      vertex -14.5 25 1
    endloop
  endfacet
  facet normal -1 -0 0
    outer loop
      vertex -14.5 45 21
      vertex -14.5 38.4644 20.5019
      vertex -14.5 38.3928 21
    endloop
  endfacet
  facet normal -1 0 0
    outer loop
      vertex -14.5 25 21
      vertex -14.5 32.3549 18.708
      vertex -14.5 25 2
    endloop
  endfacet
  facet normal -1 0 0
    outer loop
      vertex -14.5 32.3549 18.708
      vertex -14.5 25 21
      vertex -14.5 31.5356 20.5019
    endloop
  endfacet
  facet normal -1 0 0
    outer loop
      vertex -14.5 31.5356 20.5019
      vertex -14.5 25 21
      vertex -14.5 31.6072 21
    endloop
  endfacet
  facet normal -0 0 1
    outer loop
      vertex -14.5 31.6072 21
      vertex -11.5 25 21
      vertex -11.5 31.6072 21
    endloop
  endfacet
  facet normal 0 0 1
    outer loop
      vertex -11.5 25 21
      vertex -14.5 31.6072 21
      vertex -14.5 25 21
    endloop
  endfacet
  facet normal -0 0 1
    outer loop
      vertex -14.5 45 21
      vertex -11.5 38.3928 21
      vertex -11.5 45 21
    endloop
  endfacet
  facet normal 0 0 1
    outer loop
      vertex -11.5 38.3928 21
      vertex -14.5 45 21
      vertex -14.5 38.3928 21
    endloop
  endfacet
  facet normal 0 1 -0
    outer loop
      vertex -11.5 45 2
      vertex -14.5 45 21
      vertex -11.5 45 21
    endloop
  endfacet
  facet normal 0 1 0
    outer loop
      vertex -14.5 45 21
      vertex -11.5 45 2
      vertex -14.5 45 2
    endloop
  endfacet
  facet normal 1 0 0
    outer loop
      vertex -11.5 31.6072 21
      vertex -11.5 25 21
      vertex -11.5 31.5356 20.5019
    endloop
  endfacet
  facet normal 1 0 0
    outer loop
      vertex -11.5 37.6451 18.708
      vertex -11.5 45 21
      vertex -11.5 38.4644 20.5019
    endloop
  endfacet
  facet normal 1 0 -0
    outer loop
      vertex -11.5 38.4644 20.5019
      vertex -11.5 45 21
      vertex -11.5 38.3928 21
    endloop
  endfacet
  facet normal 1 0 0
    outer loop
      vertex -11.5 45 21
      vertex -11.5 37.6451 18.708
      vertex -11.5 45 2
    endloop
  endfacet
  facet normal 1 -0 0
    outer loop
      vertex -11.5 35.9861 17.6418
      vertex -11.5 45 2
      vertex -11.5 37.6451 18.708
    endloop
  endfacet
  facet normal 1 -0 0
    outer loop
      vertex -11.5 34.0139 17.6418
      vertex -11.5 45 2
      vertex -11.5 35.9861 17.6418
    endloop
  endfacet
  facet normal 1 0 0
    outer loop
      vertex -11.5 25 2
      vertex -11.5 34.0139 17.6418
      vertex -11.5 32.3549 18.708
    endloop
  endfacet
  facet normal 1 0 0
    outer loop
      vertex -11.5 25 21
      vertex -11.5 32.3549 18.708
      vertex -11.5 31.5356 20.5019
    endloop
  endfacet
  facet normal 1 0 0
    outer loop
      vertex -11.5 25 2
      vertex -11.5 32.3549 18.708
      vertex -11.5 25 21
    endloop
  endfacet
  facet normal 1 0 0
    outer loop
      vertex -11.5 34.0139 17.6418
      vertex -11.5 25 2
      vertex -11.5 45 2
    endloop
  endfacet
  facet normal 0 -1 0
    outer loop
      vertex -14.5 25 2
      vertex -11.5 25 21
      vertex -14.5 25 21
    endloop
  endfacet
  facet normal 0 -1 -0
    outer loop
      vertex -11.5 25 21
      vertex -14.5 25 2
      vertex -11.5 25 2
    endloop
  endfacet
  facet normal -0 0 1
    outer loop
      vertex -14.5 35.9861 17.6418
      vertex -11.5 34.0139 17.6418
      vertex -11.5 35.9861 17.6418
    endloop
  endfacet
  facet normal 0 0 1
    outer loop
      vertex -11.5 34.0139 17.6418
      vertex -14.5 35.9861 17.6418
      vertex -14.5 34.0139 17.6418
    endloop
  endfacet
  facet normal 0 -0.909632 0.415415
    outer loop
      vertex -14.5 37.6451 18.708
      vertex -11.5 38.4644 20.5019
      vertex -14.5 38.4644 20.5019
    endloop
  endfacet
  facet normal 0 -0.909632 0.415415
    outer loop
      vertex -11.5 38.4644 20.5019
      vertex -14.5 37.6451 18.708
      vertex -11.5 37.6451 18.708
    endloop
  endfacet
  facet normal 0 -0.540641 0.841254
    outer loop
      vertex -14.5 37.6451 18.708
      vertex -11.5 35.9861 17.6418
      vertex -11.5 37.6451 18.708
    endloop
  endfacet
  facet normal 0 -0.540641 0.841254
    outer loop
      vertex -11.5 35.9861 17.6418
      vertex -14.5 37.6451 18.708
      vertex -14.5 35.9861 17.6418
    endloop
  endfacet
  facet normal 0 0.989822 -0.142313
    outer loop
      vertex -11.5 31.5356 20.5019
      vertex -14.5 31.6072 21
      vertex -11.5 31.6072 21
    endloop
  endfacet
  facet normal 0 0.989822 -0.142313
    outer loop
      vertex -14.5 31.6072 21
      vertex -11.5 31.5356 20.5019
      vertex -14.5 31.5356 20.5019
    endloop
  endfacet
  facet normal 0 -0.989821 -0.142316
    outer loop
      vertex -14.5 38.4644 20.5019
      vertex -11.5 38.3928 21
      vertex -14.5 38.3928 21
    endloop
  endfacet
  facet normal 0 -0.989821 -0.142316
    outer loop
      vertex -11.5 38.3928 21
      vertex -14.5 38.4644 20.5019
      vertex -11.5 38.4644 20.5019
    endloop
  endfacet
  facet normal 0 0.909633 0.415414
    outer loop
      vertex -11.5 32.3549 18.708
      vertex -14.5 31.5356 20.5019
      vertex -11.5 31.5356 20.5019
    endloop
  endfacet
  facet normal 0 0.909633 0.415414
    outer loop
      vertex -14.5 31.5356 20.5019
      vertex -11.5 32.3549 18.708
      vertex -14.5 32.3549 18.708
    endloop
  endfacet
  facet normal -0 0.540641 0.841254
    outer loop
      vertex -14.5 34.0139 17.6418
      vertex -11.5 32.3549 18.708
      vertex -11.5 34.0139 17.6418
    endloop
  endfacet
  facet normal 0 0.540641 0.841254
    outer loop
      vertex -11.5 32.3549 18.708
      vertex -14.5 34.0139 17.6418
      vertex -14.5 32.3549 18.708
    endloop
  endfacet
  facet normal -0 0 1
    outer loop
      vertex -3 56.6072 30
      vertex 6.66134e-015 50 30
      vertex 6.66134e-015 56.6072 30
    endloop
  endfacet
  facet normal 0 0 1
    outer loop
      vertex 6.66134e-015 50 30
      vertex -3 56.6072 30
      vertex -3 50 30
    endloop
  endfacet
  facet normal -0 0 1
    outer loop
      vertex -3 70 30
      vertex 6.66134e-015 63.3928 30
      vertex 6.66134e-015 70 30
    endloop
  endfacet
  facet normal 0 0 1
    outer loop
      vertex 6.66134e-015 63.3928 30
      vertex -3 70 30
      vertex -3 63.3928 30
    endloop
  endfacet
  facet normal 1 0 -2.22045e-016
    outer loop
      vertex 6.66134e-015 56.6072 30
      vertex 6.66134e-015 50 30
      vertex 6.55074e-015 56.5356 29.5019
    endloop
  endfacet
  facet normal 1 0 -2.22045e-016
    outer loop
      vertex 6.15241e-015 62.6451 27.708
      vertex 6.66134e-015 70 30
      vertex 6.55074e-015 63.4644 29.5019
    endloop
  endfacet
  facet normal 1 0 -2.22045e-016
    outer loop
      vertex 6.55074e-015 63.4644 29.5019
      vertex 6.66134e-015 70 30
      vertex 6.66134e-015 63.3928 30
    endloop
  endfacet
  facet normal 1 0 -2.22045e-016
    outer loop
      vertex 4.44089e-016 70 2
      vertex 0 92 0
      vertex 4.44089e-016 92 2
    endloop
  endfacet
  facet normal 1 0 -2.22045e-016
    outer loop
      vertex 6.66134e-015 70 30
      vertex 6.15241e-015 62.6451 27.708
      vertex 4.44089e-016 70 2
    endloop
  endfacet
  facet normal 1 0 -2.22045e-016
    outer loop
      vertex 5.91566e-015 60.9861 26.6418
      vertex 4.44089e-016 70 2
      vertex 6.15241e-015 62.6451 27.708
    endloop
  endfacet
  facet normal 1 0 -2.22045e-016
    outer loop
      vertex 5.91566e-015 59.0139 26.6418
      vertex 4.44089e-016 70 2
      vertex 5.91566e-015 60.9861 26.6418
    endloop
  endfacet
  facet normal 1 0 -2.22045e-016
    outer loop
      vertex 0 50 0
      vertex 5.91566e-015 59.0139 26.6418
      vertex 6.15241e-015 57.3549 27.708
    endloop
  endfacet
  facet normal 1 0 -2.22045e-016
    outer loop
      vertex 6.66134e-015 50 30
      vertex 6.15241e-015 57.3549 27.708
      vertex 6.55074e-015 56.5356 29.5019
    endloop
  endfacet
  facet normal 1 0 -2.22045e-016
    outer loop
      vertex 0 50 0
      vertex 6.15241e-015 57.3549 27.708
      vertex 6.66134e-015 50 30
    endloop
  endfacet
  facet normal 1 0 -2.22045e-016
    outer loop
      vertex 4.44089e-016 70 2
      vertex 0 50 0
      vertex 0 92 0
    endloop
  endfacet
  facet normal 1 0 -2.22045e-016
    outer loop
      vertex 5.91566e-015 59.0139 26.6418
      vertex 0 50 0
      vertex 4.44089e-016 70 2
    endloop
  endfacet
  facet normal 0 -1 0
    outer loop
      vertex -3 50 2
      vertex 6.66134e-015 50 30
      vertex -3 50 30
    endloop
  endfacet
  facet normal 0 -1 0
    outer loop
      vertex 0 50 0
      vertex -3 50 2
      vertex -3 50 6.66134e-016
    endloop
  endfacet
  facet normal 0 -1 0
    outer loop
      vertex -3 50 2
      vertex 0 50 0
      vertex 6.66134e-015 50 30
    endloop
  endfacet
  facet normal 0 1 -0
    outer loop
      vertex -33 70 2
      vertex -36 70 30
      vertex -33 70 30
    endloop
  endfacet
  facet normal 0 1 0
    outer loop
      vertex -36 70 30
      vertex -33 70 2
      vertex -36 70 2
    endloop
  endfacet
  facet normal 0 1 -0
    outer loop
      vertex 4.44089e-016 70 2
      vertex -3 70 30
      vertex 6.66134e-015 70 30
    endloop
  endfacet
  facet normal 0 1 0
    outer loop
      vertex -3 70 30
      vertex 4.44089e-016 70 2
      vertex -3 70 2
    endloop
  endfacet
  facet normal -0 0 1
    outer loop
      vertex -3 60.9861 26.6418
      vertex 5.91566e-015 59.0139 26.6418
      vertex 5.91566e-015 60.9861 26.6418
    endloop
  endfacet
  facet normal 0 0 1
    outer loop
      vertex 5.91566e-015 59.0139 26.6418
      vertex -3 60.9861 26.6418
      vertex -3 59.0139 26.6418
    endloop
  endfacet
  facet normal 0 -0.909632 0.415415
    outer loop
      vertex -3 62.6451 27.708
      vertex 6.55074e-015 63.4644 29.5019
      vertex -3 63.4644 29.5019
    endloop
  endfacet
  facet normal 0 -0.909632 0.415415
    outer loop
      vertex 6.55074e-015 63.4644 29.5019
      vertex -3 62.6451 27.708
      vertex 6.15241e-015 62.6451 27.708
    endloop
  endfacet
  facet normal 0 -0.540641 0.841254
    outer loop
      vertex -3 62.6451 27.708
      vertex 5.91566e-015 60.9861 26.6418
      vertex 6.15241e-015 62.6451 27.708
    endloop
  endfacet
  facet normal 0 -0.540641 0.841254
    outer loop
      vertex 5.91566e-015 60.9861 26.6418
      vertex -3 62.6451 27.708
      vertex -3 60.9861 26.6418
    endloop
  endfacet
  facet normal 0 0.989821 -0.142316
    outer loop
      vertex 6.55074e-015 56.5356 29.5019
      vertex -3 56.6072 30
      vertex 6.66134e-015 56.6072 30
    endloop
  endfacet
  facet normal 0 0.989821 -0.142316
    outer loop
      vertex -3 56.6072 30
      vertex 6.55074e-015 56.5356 29.5019
      vertex -3 56.5356 29.5019
    endloop
  endfacet
  facet normal 0 -0.989821 -0.142316
    outer loop
      vertex -3 63.4644 29.5019
      vertex 6.66134e-015 63.3928 30
      vertex -3 63.3928 30
    endloop
  endfacet
  facet normal 0 -0.989821 -0.142316
    outer loop
      vertex 6.66134e-015 63.3928 30
      vertex -3 63.4644 29.5019
      vertex 6.55074e-015 63.4644 29.5019
    endloop
  endfacet
  facet normal 0 0.909633 0.415414
    outer loop
      vertex 6.15241e-015 57.3549 27.708
      vertex -3 56.5356 29.5019
      vertex 6.55074e-015 56.5356 29.5019
    endloop
  endfacet
  facet normal 0 0.909633 0.415414
    outer loop
      vertex -3 56.5356 29.5019
      vertex 6.15241e-015 57.3549 27.708
      vertex -3 57.3549 27.708
    endloop
  endfacet
  facet normal -0 0.540641 0.841254
    outer loop
      vertex -3 59.0139 26.6418
      vertex 6.15241e-015 57.3549 27.708
      vertex 5.91566e-015 59.0139 26.6418
    endloop
  endfacet
  facet normal 0 0.540641 0.841254
    outer loop
      vertex 6.15241e-015 57.3549 27.708
      vertex -3 59.0139 26.6418
      vertex -3 57.3549 27.708
    endloop
  endfacet
  facet normal -1 0 0
    outer loop
      vertex -36 12.6451 27.708
      vertex -36 20 30
      vertex -36 20 7.99361e-015
    endloop
  endfacet
  facet normal -1 0 0
    outer loop
      vertex -36 20 30
      vertex -36 12.6451 27.708
      vertex -36 13.4644 29.5019
    endloop
  endfacet
  facet normal -1 0 0
    outer loop
      vertex -36 20 7.99361e-015
      vertex -36 10.9861 26.6418
      vertex -36 12.6451 27.708
    endloop
  endfacet
  facet normal -1 0 0
    outer loop
      vertex -36 20 7.99361e-015
      vertex -36 9.01394 26.6418
      vertex -36 10.9861 26.6418
    endloop
  endfacet
  facet normal -1 0 0
    outer loop
      vertex -36 0 7.99361e-015
      vertex -36 9.01394 26.6418
      vertex -36 20 7.99361e-015
    endloop
  endfacet
  facet normal -1 -0 0
    outer loop
      vertex -36 9.01394 26.6418
      vertex -36 0 7.99361e-015
      vertex -36 7.35488 27.708
    endloop
  endfacet
  facet normal -1 0 0
    outer loop
      vertex -36 0 30
      vertex -36 7.35488 27.708
      vertex -36 0 7.99361e-015
    endloop
  endfacet
  facet normal -1 -0 0
    outer loop
      vertex -36 20 30
      vertex -36 13.4644 29.5019
      vertex -36 13.3928 30
    endloop
  endfacet
  facet normal -1 0 0
    outer loop
      vertex -36 7.35488 27.708
      vertex -36 0 30
      vertex -36 6.53562 29.5019
    endloop
  endfacet
  facet normal -1 0 0
    outer loop
      vertex -36 6.53562 29.5019
      vertex -36 0 30
      vertex -36 6.60724 30
    endloop
  endfacet
  facet normal -0 0 1
    outer loop
      vertex -36 6.60724 30
      vertex -33 0 30
      vertex -33 6.60724 30
    endloop
  endfacet
  facet normal 0 0 1
    outer loop
      vertex -33 0 30
      vertex -36 6.60724 30
      vertex -36 0 30
    endloop
  endfacet
  facet normal -0 0 1
    outer loop
      vertex -36 20 30
      vertex -33 13.3928 30
      vertex -33 20 30
    endloop
  endfacet
  facet normal 0 0 1
    outer loop
      vertex -33 13.3928 30
      vertex -36 20 30
      vertex -36 13.3928 30
    endloop
  endfacet
  facet normal -1 0 0
    outer loop
      vertex -33 20 7.32747e-015
      vertex -33 50 2
      vertex -33 50 7.32747e-015
    endloop
  endfacet
  facet normal -1 -0 0
    outer loop
      vertex -33 50 2
      vertex -33 20 7.32747e-015
      vertex -33 20 2
    endloop
  endfacet
  facet normal 1 0 0
    outer loop
      vertex -33 56.6072 30
      vertex -33 50 30
      vertex -33 56.5356 29.5019
    endloop
  endfacet
  facet normal 1 0 0
    outer loop
      vertex -33 62.6451 27.708
      vertex -33 70 30
      vertex -33 63.4644 29.5019
    endloop
  endfacet
  facet normal 1 0 -0
    outer loop
      vertex -33 63.4644 29.5019
      vertex -33 70 30
      vertex -33 63.3928 30
    endloop
  endfacet
  facet normal 1 0 0
    outer loop
      vertex -33 70 30
      vertex -33 62.6451 27.708
      vertex -33 70 2
    endloop
  endfacet
  facet normal 1 -0 0
    outer loop
      vertex -33 60.9861 26.6418
      vertex -33 70 2
      vertex -33 62.6451 27.708
    endloop
  endfacet
  facet normal 1 -0 0
    outer loop
      vertex -33 59.0139 26.6418
      vertex -33 70 2
      vertex -33 60.9861 26.6418
    endloop
  endfacet
  facet normal 1 0 0
    outer loop
      vertex -33 50 2
      vertex -33 59.0139 26.6418
      vertex -33 57.3549 27.708
    endloop
  endfacet
  facet normal 1 0 0
    outer loop
      vertex -33 50 30
      vertex -33 57.3549 27.708
      vertex -33 56.5356 29.5019
    endloop
  endfacet
  facet normal 1 0 0
    outer loop
      vertex -33 50 2
      vertex -33 57.3549 27.708
      vertex -33 50 30
    endloop
  endfacet
  facet normal 1 0 0
    outer loop
      vertex -33 59.0139 26.6418
      vertex -33 50 2
      vertex -33 70 2
    endloop
  endfacet
  facet normal 1 0 0
    outer loop
      vertex -33 6.60724 30
      vertex -33 0 30
      vertex -33 6.53562 29.5019
    endloop
  endfacet
  facet normal 1 0 0
    outer loop
      vertex -33 12.6451 27.708
      vertex -33 20 30
      vertex -33 13.4644 29.5019
    endloop
  endfacet
  facet normal 1 0 -0
    outer loop
      vertex -33 13.4644 29.5019
      vertex -33 20 30
      vertex -33 13.3928 30
    endloop
  endfacet
  facet normal 1 0 0
    outer loop
      vertex -33 20 30
      vertex -33 12.6451 27.708
      vertex -33 20 2
    endloop
  endfacet
  facet normal 1 -0 0
    outer loop
      vertex -33 10.9861 26.6418
      vertex -33 20 2
      vertex -33 12.6451 27.708
    endloop
  endfacet
  facet normal 1 -0 0
    outer loop
      vertex -33 9.01394 26.6418
      vertex -33 20 2
      vertex -33 10.9861 26.6418
    endloop
  endfacet
  facet normal 1 0 0
    outer loop
      vertex -33 0 2
      vertex -33 9.01394 26.6418
      vertex -33 7.35488 27.708
    endloop
  endfacet
  facet normal 1 0 0
    outer loop
      vertex -33 0 30
      vertex -33 7.35488 27.708
      vertex -33 6.53562 29.5019
    endloop
  endfacet
  facet normal 1 0 0
    outer loop
      vertex -33 0 2
      vertex -33 7.35488 27.708
      vertex -33 0 30
    endloop
  endfacet
  facet normal 1 0 0
    outer loop
      vertex -33 9.01394 26.6418
      vertex -33 0 2
      vertex -33 20 2
    endloop
  endfacet
  facet normal 0 1 -0
    outer loop
      vertex -33 20 2
      vertex -36 20 30
      vertex -33 20 30
    endloop
  endfacet
  facet normal 0 1 0
    outer loop
      vertex -33 20 2
      vertex -36 20 7.99361e-015
      vertex -36 20 30
    endloop
  endfacet
  facet normal -0 1 0
    outer loop
      vertex -36 20 7.99361e-015
      vertex -33 20 2
      vertex -33 20 7.32747e-015
    endloop
  endfacet
  facet normal -0 0 1
    outer loop
      vertex -36 10.9861 26.6418
      vertex -33 9.01394 26.6418
      vertex -33 10.9861 26.6418
    endloop
  endfacet
  facet normal 0 0 1
    outer loop
      vertex -33 9.01394 26.6418
      vertex -36 10.9861 26.6418
      vertex -36 9.01394 26.6418
    endloop
  endfacet
  facet normal 0 -0.909632 0.415415
    outer loop
      vertex -36 12.6451 27.708
      vertex -33 13.4644 29.5019
      vertex -36 13.4644 29.5019
    endloop
  endfacet
  facet normal 0 -0.909632 0.415415
    outer loop
      vertex -33 13.4644 29.5019
      vertex -36 12.6451 27.708
      vertex -33 12.6451 27.708
    endloop
  endfacet
  facet normal 0 -0.54064 0.841254
    outer loop
      vertex -36 12.6451 27.708
      vertex -33 10.9861 26.6418
      vertex -33 12.6451 27.708
    endloop
  endfacet
  facet normal 0 -0.54064 0.841254
    outer loop
      vertex -33 10.9861 26.6418
      vertex -36 12.6451 27.708
      vertex -36 10.9861 26.6418
    endloop
  endfacet
  facet normal 0 0.989821 -0.142315
    outer loop
      vertex -33 6.53562 29.5019
      vertex -36 6.60724 30
      vertex -33 6.60724 30
    endloop
  endfacet
  facet normal 0 0.989821 -0.142315
    outer loop
      vertex -36 6.60724 30
      vertex -33 6.53562 29.5019
      vertex -36 6.53562 29.5019
    endloop
  endfacet
  facet normal 0 -0.989821 -0.142315
    outer loop
      vertex -36 13.4644 29.5019
      vertex -33 13.3928 30
      vertex -36 13.3928 30
    endloop
  endfacet
  facet normal 0 -0.989821 -0.142315
    outer loop
      vertex -33 13.3928 30
      vertex -36 13.4644 29.5019
      vertex -33 13.4644 29.5019
    endloop
  endfacet
  facet normal 0 0.909632 0.415415
    outer loop
      vertex -33 7.35488 27.708
      vertex -36 6.53562 29.5019
      vertex -33 6.53562 29.5019
    endloop
  endfacet
  facet normal 0 0.909632 0.415415
    outer loop
      vertex -36 6.53562 29.5019
      vertex -33 7.35488 27.708
      vertex -36 7.35488 27.708
    endloop
  endfacet
  facet normal -0 0.54064 0.841254
    outer loop
      vertex -36 9.01394 26.6418
      vertex -33 7.35488 27.708
      vertex -33 9.01394 26.6418
    endloop
  endfacet
  facet normal 0 0.54064 0.841254
    outer loop
      vertex -33 7.35488 27.708
      vertex -36 9.01394 26.6418
      vertex -36 7.35488 27.708
    endloop
  endfacet
  facet normal -1 0 0
    outer loop
      vertex -24.5 37.6451 18.708
      vertex -24.5 45 21
      vertex -24.5 45 2
    endloop
  endfacet
  facet normal -1 0 0
    outer loop
      vertex -24.5 45 21
      vertex -24.5 37.6451 18.708
      vertex -24.5 38.4644 20.5019
    endloop
  endfacet
  facet normal -1 0 0
    outer loop
      vertex -24.5 45 2
      vertex -24.5 35.9861 17.6418
      vertex -24.5 37.6451 18.708
    endloop
  endfacet
  facet normal -1 0 0
    outer loop
      vertex -24.5 45 2
      vertex -24.5 34.0139 17.6418
      vertex -24.5 35.9861 17.6418
    endloop
  endfacet
  facet normal -1 0 0
    outer loop
      vertex -24.5 25 2
      vertex -24.5 34.0139 17.6418
      vertex -24.5 45 2
    endloop
  endfacet
  facet normal -1 0 0
    outer loop
      vertex -24.5 25 21
      vertex -24.5 32.3549 18.708
      vertex -24.5 25 2
    endloop
  endfacet
  facet normal -1 -0 0
    outer loop
      vertex -24.5 34.0139 17.6418
      vertex -24.5 25 2
      vertex -24.5 32.3549 18.708
    endloop
  endfacet
  facet normal -1 -0 0
    outer loop
      vertex -24.5 45 21
      vertex -24.5 38.4644 20.5019
      vertex -24.5 38.3928 21
    endloop
  endfacet
  facet normal -1 0 0
    outer loop
      vertex -24.5 32.3549 18.708
      vertex -24.5 25 21
      vertex -24.5 31.5356 20.5019
    endloop
  endfacet
  facet normal -1 0 0
    outer loop
      vertex -24.5 31.5356 20.5019
      vertex -24.5 25 21
      vertex -24.5 31.6072 21
    endloop
  endfacet
  facet normal -0 0 1
    outer loop
      vertex -24.5 31.6072 21
      vertex -21.5 25 21
      vertex -21.5 31.6072 21
    endloop
  endfacet
  facet normal 0 0 1
    outer loop
      vertex -21.5 25 21
      vertex -24.5 31.6072 21
      vertex -24.5 25 21
    endloop
  endfacet
  facet normal -0 0 1
    outer loop
      vertex -24.5 45 21
      vertex -21.5 38.3928 21
      vertex -21.5 45 21
    endloop
  endfacet
  facet normal 0 0 1
    outer loop
      vertex -21.5 38.3928 21
      vertex -24.5 45 21
      vertex -24.5 38.3928 21
    endloop
  endfacet
  facet normal 0 1 -0
    outer loop
      vertex -21.5 45 2
      vertex -24.5 45 21
      vertex -21.5 45 21
    endloop
  endfacet
  facet normal 0 1 0
    outer loop
      vertex -24.5 45 21
      vertex -21.5 45 2
      vertex -24.5 45 2
    endloop
  endfacet
  facet normal 0 -1 0
    outer loop
      vertex -21.5 45 1
      vertex -14.5 45 2
      vertex -21.5 45 2
    endloop
  endfacet
  facet normal 0 -1 -0
    outer loop
      vertex -14.5 45 2
      vertex -21.5 45 1
      vertex -14.5 45 1
    endloop
  endfacet
  facet normal 1 0 0
    outer loop
      vertex -21.5 31.6072 21
      vertex -21.5 25 21
      vertex -21.5 31.5356 20.5019
    endloop
  endfacet
  facet normal 1 -0 0
    outer loop
      vertex -21.5 37.6451 18.708
      vertex -21.5 45 2
      vertex -21.5 45 21
    endloop
  endfacet
  facet normal 1 0 0
    outer loop
      vertex -21.5 37.6451 18.708
      vertex -21.5 45 21
      vertex -21.5 38.4644 20.5019
    endloop
  endfacet
  facet normal 1 0 -0
    outer loop
      vertex -21.5 38.4644 20.5019
      vertex -21.5 45 21
      vertex -21.5 38.3928 21
    endloop
  endfacet
  facet normal 1 -0 0
    outer loop
      vertex -21.5 35.9861 17.6418
      vertex -21.5 45 2
      vertex -21.5 37.6451 18.708
    endloop
  endfacet
  facet normal 1 0 0
    outer loop
      vertex -21.5 25 2
      vertex -21.5 45 2
      vertex -21.5 35.9861 17.6418
    endloop
  endfacet
  facet normal 1 0 0
    outer loop
      vertex -21.5 25 2
      vertex -21.5 35.9861 17.6418
      vertex -21.5 34.0139 17.6418
    endloop
  endfacet
  facet normal 1 0 0
    outer loop
      vertex -21.5 25 2
      vertex -21.5 34.0139 17.6418
      vertex -21.5 32.3549 18.708
    endloop
  endfacet
  facet normal 1 0 0
    outer loop
      vertex -21.5 25 21
      vertex -21.5 32.3549 18.708
      vertex -21.5 31.5356 20.5019
    endloop
  endfacet
  facet normal 1 0 0
    outer loop
      vertex -21.5 25 2
      vertex -21.5 32.3549 18.708
      vertex -21.5 25 21
    endloop
  endfacet
  facet normal 1 0 0
    outer loop
      vertex -21.5 45 2
      vertex -21.5 25 2
      vertex -21.5 45 1
    endloop
  endfacet
  facet normal 1 0 0
    outer loop
      vertex -21.5 45 1
      vertex -21.5 25 2
      vertex -21.5 25 1
    endloop
  endfacet
  facet normal 0 -1 0
    outer loop
      vertex -24.5 25 2
      vertex -21.5 25 21
      vertex -24.5 25 21
    endloop
  endfacet
  facet normal 0 -1 -0
    outer loop
      vertex -21.5 25 21
      vertex -24.5 25 2
      vertex -21.5 25 2
    endloop
  endfacet
  facet normal 0 1 -0
    outer loop
      vertex -14.5 25 1
      vertex -21.5 25 2
      vertex -14.5 25 2
    endloop
  endfacet
  facet normal 0 1 0
    outer loop
      vertex -21.5 25 2
      vertex -14.5 25 1
      vertex -21.5 25 1
    endloop
  endfacet
  facet normal -0 0 1
    outer loop
      vertex -24.5 35.9861 17.6418
      vertex -21.5 34.0139 17.6418
      vertex -21.5 35.9861 17.6418
    endloop
  endfacet
  facet normal 0 0 1
    outer loop
      vertex -21.5 34.0139 17.6418
      vertex -24.5 35.9861 17.6418
      vertex -24.5 34.0139 17.6418
    endloop
  endfacet
  facet normal 0 -0.909632 0.415415
    outer loop
      vertex -24.5 37.6451 18.708
      vertex -21.5 38.4644 20.5019
      vertex -24.5 38.4644 20.5019
    endloop
  endfacet
  facet normal 0 -0.909632 0.415415
    outer loop
      vertex -21.5 38.4644 20.5019
      vertex -24.5 37.6451 18.708
      vertex -21.5 37.6451 18.708
    endloop
  endfacet
  facet normal 0 -0.54064 0.841254
    outer loop
      vertex -24.5 37.6451 18.708
      vertex -21.5 35.9861 17.6418
      vertex -21.5 37.6451 18.708
    endloop
  endfacet
  facet normal 0 -0.54064 0.841254
    outer loop
      vertex -21.5 35.9861 17.6418
      vertex -24.5 37.6451 18.708
      vertex -24.5 35.9861 17.6418
    endloop
  endfacet
  facet normal 0 0.989822 -0.142313
    outer loop
      vertex -21.5 31.5356 20.5019
      vertex -24.5 31.6072 21
      vertex -21.5 31.6072 21
    endloop
  endfacet
  facet normal 0 0.989822 -0.142313
    outer loop
      vertex -24.5 31.6072 21
      vertex -21.5 31.5356 20.5019
      vertex -24.5 31.5356 20.5019
    endloop
  endfacet
  facet normal 0 -0.989821 -0.142316
    outer loop
      vertex -24.5 38.4644 20.5019
      vertex -21.5 38.3928 21
      vertex -24.5 38.3928 21
    endloop
  endfacet
  facet normal 0 -0.989821 -0.142316
    outer loop
      vertex -21.5 38.3928 21
      vertex -24.5 38.4644 20.5019
      vertex -21.5 38.4644 20.5019
    endloop
  endfacet
  facet normal 0 0.909633 0.415414
    outer loop
      vertex -21.5 32.3549 18.708
      vertex -24.5 31.5356 20.5019
      vertex -21.5 31.5356 20.5019
    endloop
  endfacet
  facet normal 0 0.909633 0.415414
    outer loop
      vertex -24.5 31.5356 20.5019
      vertex -21.5 32.3549 18.708
      vertex -24.5 32.3549 18.708
    endloop
  endfacet
  facet normal -0 0.54064 0.841254
    outer loop
      vertex -24.5 34.0139 17.6418
      vertex -21.5 32.3549 18.708
      vertex -21.5 34.0139 17.6418
    endloop
  endfacet
  facet normal 0 0.54064 0.841254
    outer loop
      vertex -21.5 32.3549 18.708
      vertex -24.5 34.0139 17.6418
      vertex -24.5 32.3549 18.708
    endloop
  endfacet
  facet normal -1 0 0
    outer loop
      vertex -36 92 7.99361e-015
      vertex -36 70 2
      vertex -36 92 2
    endloop
  endfacet
  facet normal -1 0 0
    outer loop
      vertex -36 62.6451 27.708
      vertex -36 70 30
      vertex -36 70 2
    endloop
  endfacet
  facet normal -1 0 0
    outer loop
      vertex -36 70 30
      vertex -36 62.6451 27.708
      vertex -36 63.4644 29.5019
    endloop
  endfacet
  facet normal -1 0 0
    outer loop
      vertex -36 70 2
      vertex -36 60.9861 26.6418
      vertex -36 62.6451 27.708
    endloop
  endfacet
  facet normal -1 0 0
    outer loop
      vertex -36 70 2
      vertex -36 59.0139 26.6418
      vertex -36 60.9861 26.6418
    endloop
  endfacet
  facet normal -1 0 0
    outer loop
      vertex -36 50 7.99361e-015
      vertex -36 59.0139 26.6418
      vertex -36 70 2
    endloop
  endfacet
  facet normal -1 0 0
    outer loop
      vertex -36 50 30
      vertex -36 57.3549 27.708
      vertex -36 50 7.99361e-015
    endloop
  endfacet
  facet normal -1 -0 0
    outer loop
      vertex -36 59.0139 26.6418
      vertex -36 50 7.99361e-015
      vertex -36 57.3549 27.708
    endloop
  endfacet
  facet normal -1 0 0
    outer loop
      vertex -36 50 7.99361e-015
      vertex -36 70 2
      vertex -36 92 7.99361e-015
    endloop
  endfacet
  facet normal -1 -0 0
    outer loop
      vertex -36 70 30
      vertex -36 63.4644 29.5019
      vertex -36 63.3928 30
    endloop
  endfacet
  facet normal -1 0 0
    outer loop
      vertex -36 57.3549 27.708
      vertex -36 50 30
      vertex -36 56.5356 29.5019
    endloop
  endfacet
  facet normal -1 0 0
    outer loop
      vertex -36 56.5356 29.5019
      vertex -36 50 30
      vertex -36 56.6072 30
    endloop
  endfacet
  facet normal -0 0 1
    outer loop
      vertex -36 56.6072 30
      vertex -33 50 30
      vertex -33 56.6072 30
    endloop
  endfacet
  facet normal 0 0 1
    outer loop
      vertex -33 50 30
      vertex -36 56.6072 30
      vertex -36 50 30
    endloop
  endfacet
  facet normal -0 0 1
    outer loop
      vertex -36 70 30
      vertex -33 63.3928 30
      vertex -33 70 30
    endloop
  endfacet
  facet normal 0 0 1
    outer loop
      vertex -33 63.3928 30
      vertex -36 70 30
      vertex -36 63.3928 30
    endloop
  endfacet
  facet normal 0 -1 0
    outer loop
      vertex -36 50 30
      vertex -33 50 2
      vertex -33 50 30
    endloop
  endfacet
  facet normal 0 -1 0
    outer loop
      vertex -36 50 7.99361e-015
      vertex -33 50 2
      vertex -36 50 30
    endloop
  endfacet
  facet normal 0 -1 -0
    outer loop
      vertex -33 50 2
      vertex -36 50 7.99361e-015
      vertex -33 50 7.32747e-015
    endloop
  endfacet
  facet normal -0 0 1
    outer loop
      vertex -36 60.9861 26.6418
      vertex -33 59.0139 26.6418
      vertex -33 60.9861 26.6418
    endloop
  endfacet
  facet normal 0 0 1
    outer loop
      vertex -33 59.0139 26.6418
      vertex -36 60.9861 26.6418
      vertex -36 59.0139 26.6418
    endloop
  endfacet
  facet normal 0 -0.909632 0.415415
    outer loop
      vertex -36 62.6451 27.708
      vertex -33 63.4644 29.5019
      vertex -36 63.4644 29.5019
    endloop
  endfacet
  facet normal 0 -0.909632 0.415415
    outer loop
      vertex -33 63.4644 29.5019
      vertex -36 62.6451 27.708
      vertex -33 62.6451 27.708
    endloop
  endfacet
  facet normal 0 -0.54064 0.841254
    outer loop
      vertex -36 62.6451 27.708
      vertex -33 60.9861 26.6418
      vertex -33 62.6451 27.708
    endloop
  endfacet
  facet normal 0 -0.54064 0.841254
    outer loop
      vertex -33 60.9861 26.6418
      vertex -36 62.6451 27.708
      vertex -36 60.9861 26.6418
    endloop
  endfacet
  facet normal 0 0.989821 -0.142316
    outer loop
      vertex -33 56.5356 29.5019
      vertex -36 56.6072 30
      vertex -33 56.6072 30
    endloop
  endfacet
  facet normal 0 0.989821 -0.142316
    outer loop
      vertex -36 56.6072 30
      vertex -33 56.5356 29.5019
      vertex -36 56.5356 29.5019
    endloop
  endfacet
  facet normal 0 -0.989821 -0.142316
    outer loop
      vertex -36 63.4644 29.5019
      vertex -33 63.3928 30
      vertex -36 63.3928 30
    endloop
  endfacet
  facet normal 0 -0.989821 -0.142316
    outer loop
      vertex -33 63.3928 30
      vertex -36 63.4644 29.5019
      vertex -33 63.4644 29.5019
    endloop
  endfacet
  facet normal 0 0.909633 0.415414
    outer loop
      vertex -33 57.3549 27.708
      vertex -36 56.5356 29.5019
      vertex -33 56.5356 29.5019
    endloop
  endfacet
  facet normal 0 0.909633 0.415414
    outer loop
      vertex -36 56.5356 29.5019
      vertex -33 57.3549 27.708
      vertex -36 57.3549 27.708
    endloop
  endfacet
  facet normal -0 0.54064 0.841254
    outer loop
      vertex -36 59.0139 26.6418
      vertex -33 57.3549 27.708
      vertex -33 59.0139 26.6418
    endloop
  endfacet
  facet normal 0 0.54064 0.841254
    outer loop
      vertex -33 57.3549 27.708
      vertex -36 59.0139 26.6418
      vertex -36 57.3549 27.708
    endloop
  endfacet
  facet normal 0 0 1
    outer loop
      vertex -33 70 2
      vertex -17 71 2
      vertex -17 92 2
    endloop
  endfacet
  facet normal 0 -0 1
    outer loop
      vertex -19.2135 63.8817 2
      vertex -17 71 2
      vertex -33 70 2
    endloop
  endfacet
  facet normal 0 0 1
    outer loop
      vertex -33 70 2
      vertex -19.2135 62.1183 2
      vertex -19.2135 63.8817 2
    endloop
  endfacet
  facet normal 0 0 1
    outer loop
      vertex -17 71 2
      vertex -19.2135 63.8817 2
      vertex -17.5365 64.4266 2
    endloop
  endfacet
  facet normal 0 0 1
    outer loop
      vertex -19.2135 62.1183 2
      vertex -33 70 2
      vertex -33 50 2
    endloop
  endfacet
  facet normal 0 0 1
    outer loop
      vertex -19.2135 62.1183 2
      vertex -24.5 45 2
      vertex -21.5 45 2
    endloop
  endfacet
  facet normal 0 0 1
    outer loop
      vertex -19.2135 62.1183 2
      vertex -33 50 2
      vertex -24.5 45 2
    endloop
  endfacet
  facet normal -0 0 1
    outer loop
      vertex -36 92 2
      vertex -33 70 2
      vertex -17 92 2
    endloop
  endfacet
  facet normal 0 0 1
    outer loop
      vertex -33 70 2
      vertex -36 92 2
      vertex -36 70 2
    endloop
  endfacet
  facet normal 0 0 1
    outer loop
      vertex -3 20 2
      vertex -17.5365 8.42658 2
      vertex -16.5 7 2
    endloop
  endfacet
  facet normal -0 0 1
    outer loop
      vertex -21.5 25 2
      vertex -17.5365 8.42658 2
      vertex -14.5 25 2
    endloop
  endfacet
  facet normal -0 0 1
    outer loop
      vertex -24.5 25 2
      vertex -19.2135 7.88168 2
      vertex -21.5 25 2
    endloop
  endfacet
  facet normal 0 0 1
    outer loop
      vertex -17.5365 8.42658 2
      vertex -21.5 25 2
      vertex -19.2135 7.88168 2
    endloop
  endfacet
  facet normal 0 0 1
    outer loop
      vertex -1.5 71 2
      vertex 4.44089e-016 92 2
      vertex -1.5 92 2
    endloop
  endfacet
  facet normal 0 0 1
    outer loop
      vertex 4.44089e-016 92 2
      vertex -1.5 71 2
      vertex 4.44089e-016 70 2
    endloop
  endfacet
  facet normal 0 0 1
    outer loop
      vertex -1.5 71 2
      vertex -3 70 2
      vertex 4.44089e-016 70 2
    endloop
  endfacet
  facet normal -0 0 1
    outer loop
      vertex -16.5 63 2
      vertex -3 50 2
      vertex -3 70 2
    endloop
  endfacet
  facet normal 0 0 1
    outer loop
      vertex -3 50 2
      vertex -11.5 45 2
      vertex -3 20 2
    endloop
  endfacet
  facet normal -0 0 1
    outer loop
      vertex -11.5 25 2
      vertex -3 20 2
      vertex -11.5 45 2
    endloop
  endfacet
  facet normal -0 0 1
    outer loop
      vertex -17.5365 61.5734 2
      vertex -3 50 2
      vertex -16.5 63 2
    endloop
  endfacet
  facet normal 0 0 1
    outer loop
      vertex -3 50 2
      vertex -17.5365 61.5734 2
      vertex -11.5 45 2
    endloop
  endfacet
  facet normal -0 0 1
    outer loop
      vertex -17 71 2
      vertex -3 70 2
      vertex -1.5 71 2
    endloop
  endfacet
  facet normal 0 0 1
    outer loop
      vertex -3 70 2
      vertex -17 71 2
      vertex -16.5 63 2
    endloop
  endfacet
  facet normal 0 0 1
    outer loop
      vertex -16.5 63 2
      vertex -17 71 2
      vertex -17.5365 64.4266 2
    endloop
  endfacet
  facet normal 0 0 1
    outer loop
      vertex -17.5365 8.42658 2
      vertex -3 20 2
      vertex -11.5 25 2
    endloop
  endfacet
  facet normal 0 0 1
    outer loop
      vertex -17.5365 8.42658 2
      vertex -11.5 25 2
      vertex -14.5 25 2
    endloop
  endfacet
  facet normal 0 0 1
    outer loop
      vertex -3 20 2
      vertex -16.5 7 2
      vertex -3 0 2
    endloop
  endfacet
  facet normal -0 0 1
    outer loop
      vertex -17.5365 5.57341 2
      vertex -3 0 2
      vertex -16.5 7 2
    endloop
  endfacet
  facet normal 0 0 1
    outer loop
      vertex -33 0 2
      vertex -17.5365 5.57341 2
      vertex -19.2135 6.11832 2
    endloop
  endfacet
  facet normal -0 0 1
    outer loop
      vertex -33 20 2
      vertex -19.2135 7.88168 2
      vertex -24.5 25 2
    endloop
  endfacet
  facet normal 0 0 1
    outer loop
      vertex -24.5 45 2
      vertex -33 50 2
      vertex -24.5 25 2
    endloop
  endfacet
  facet normal 0 0 1
    outer loop
      vertex -33 20 2
      vertex -24.5 25 2
      vertex -33 50 2
    endloop
  endfacet
  facet normal 0 0 1
    outer loop
      vertex -33 0 2
      vertex -19.2135 7.88168 2
      vertex -33 20 2
    endloop
  endfacet
  facet normal 0 0 1
    outer loop
      vertex -17.5365 5.57341 2
      vertex -33 0 2
      vertex -3 0 2
    endloop
  endfacet
  facet normal 0 0 1
    outer loop
      vertex -19.2135 7.88168 2
      vertex -33 0 2
      vertex -19.2135 6.11832 2
    endloop
  endfacet
  facet normal 0 0 1
    outer loop
      vertex -11.5 45 2
      vertex -17.5365 61.5734 2
      vertex -14.5 45 2
    endloop
  endfacet
  facet normal 0 0 1
    outer loop
      vertex -21.5 45 2
      vertex -17.5365 61.5734 2
      vertex -19.2135 62.1183 2
    endloop
  endfacet
  facet normal 0 0 1
    outer loop
      vertex -17.5365 61.5734 2
      vertex -21.5 45 2
      vertex -14.5 45 2
    endloop
  endfacet
  facet normal -0.809017 -0.587785 0
    outer loop
      vertex -16.5 7 3.66374e-015
      vertex -17.5365 8.42658 2
      vertex -17.5365 8.42658 3.89388e-015
    endloop
  endfacet
  facet normal -0.809017 -0.587785 0
    outer loop
      vertex -17.5365 8.42658 2
      vertex -16.5 7 3.66374e-015
      vertex -16.5 7 2
    endloop
  endfacet
  facet normal 1 -0 0
    outer loop
      vertex -19.2135 6.11832 2
      vertex -19.2135 7.88168 4.26626e-015
      vertex -19.2135 7.88168 2
    endloop
  endfacet
  facet normal 1 0 0
    outer loop
      vertex -19.2135 7.88168 4.26626e-015
      vertex -19.2135 6.11832 2
      vertex -19.2135 6.11832 4.26626e-015
    endloop
  endfacet
  facet normal 0.309017 -0.951056 0
    outer loop
      vertex -19.2135 7.88168 4.26626e-015
      vertex -17.5365 8.42658 2
      vertex -19.2135 7.88168 2
    endloop
  endfacet
  facet normal 0.309017 -0.951056 0
    outer loop
      vertex -17.5365 8.42658 2
      vertex -19.2135 7.88168 4.26626e-015
      vertex -17.5365 8.42658 3.89388e-015
    endloop
  endfacet
  facet normal 0.309017 0.951056 0
    outer loop
      vertex -17.5365 5.57341 2
      vertex -19.2135 6.11832 4.26626e-015
      vertex -19.2135 6.11832 2
    endloop
  endfacet
  facet normal 0.309017 0.951056 0
    outer loop
      vertex -19.2135 6.11832 4.26626e-015
      vertex -17.5365 5.57341 2
      vertex -17.5365 5.57341 3.89388e-015
    endloop
  endfacet
  facet normal -0.809017 0.587785 0
    outer loop
      vertex -17.5365 5.57341 3.89388e-015
      vertex -16.5 7 2
      vertex -16.5 7 3.66374e-015
    endloop
  endfacet
  facet normal -0.809017 0.587785 0
    outer loop
      vertex -16.5 7 2
      vertex -17.5365 5.57341 3.89388e-015
      vertex -17.5365 5.57341 2
    endloop
  endfacet
  facet normal -0.809017 -0.587786 0
    outer loop
      vertex -16.5 35 3.66374e-015
      vertex -17.5365 36.4266 1
      vertex -17.5365 36.4266 3.89388e-015
    endloop
  endfacet
  facet normal -0.809017 -0.587786 0
    outer loop
      vertex -17.5365 36.4266 1
      vertex -16.5 35 3.66374e-015
      vertex -16.5 35 1
    endloop
  endfacet
  facet normal 1 -0 0
    outer loop
      vertex -19.2135 34.1183 1
      vertex -19.2135 35.8817 4.26626e-015
      vertex -19.2135 35.8817 1
    endloop
  endfacet
  facet normal 1 0 0
    outer loop
      vertex -19.2135 35.8817 4.26626e-015
      vertex -19.2135 34.1183 1
      vertex -19.2135 34.1183 4.26626e-015
    endloop
  endfacet
  facet normal 0.309017 -0.951056 0
    outer loop
      vertex -19.2135 35.8817 4.26626e-015
      vertex -17.5365 36.4266 1
      vertex -19.2135 35.8817 1
    endloop
  endfacet
  facet normal 0.309017 -0.951056 0
    outer loop
      vertex -17.5365 36.4266 1
      vertex -19.2135 35.8817 4.26626e-015
      vertex -17.5365 36.4266 3.89388e-015
    endloop
  endfacet
  facet normal 0.309017 0.951056 0
    outer loop
      vertex -17.5365 33.5734 1
      vertex -19.2135 34.1183 4.26626e-015
      vertex -19.2135 34.1183 1
    endloop
  endfacet
  facet normal 0.309017 0.951056 0
    outer loop
      vertex -19.2135 34.1183 4.26626e-015
      vertex -17.5365 33.5734 1
      vertex -17.5365 33.5734 3.89388e-015
    endloop
  endfacet
  facet normal -0.809017 0.587785 0
    outer loop
      vertex -17.5365 33.5734 3.89388e-015
      vertex -16.5 35 1
      vertex -16.5 35 3.66374e-015
    endloop
  endfacet
  facet normal -0.809017 0.587785 0
    outer loop
      vertex -16.5 35 1
      vertex -17.5365 33.5734 3.89388e-015
      vertex -17.5365 33.5734 1
    endloop
  endfacet
  facet normal -0.809017 -0.587786 0
    outer loop
      vertex -16.5 63 3.66374e-015
      vertex -17.5365 64.4266 2
      vertex -17.5365 64.4266 3.89388e-015
    endloop
  endfacet
  facet normal -0.809017 -0.587786 0
    outer loop
      vertex -17.5365 64.4266 2
      vertex -16.5 63 3.66374e-015
      vertex -16.5 63 2
    endloop
  endfacet
  facet normal 1 -0 0
    outer loop
      vertex -19.2135 62.1183 2
      vertex -19.2135 63.8817 4.26626e-015
      vertex -19.2135 63.8817 2
    endloop
  endfacet
  facet normal 1 0 0
    outer loop
      vertex -19.2135 63.8817 4.26626e-015
      vertex -19.2135 62.1183 2
      vertex -19.2135 62.1183 4.26626e-015
    endloop
  endfacet
  facet normal 0.309017 -0.951056 0
    outer loop
      vertex -19.2135 63.8817 4.26626e-015
      vertex -17.5365 64.4266 2
      vertex -19.2135 63.8817 2
    endloop
  endfacet
  facet normal 0.309017 -0.951056 0
    outer loop
      vertex -17.5365 64.4266 2
      vertex -19.2135 63.8817 4.26626e-015
      vertex -17.5365 64.4266 3.89388e-015
    endloop
  endfacet
  facet normal 0.309017 0.951056 0
    outer loop
      vertex -17.5365 61.5734 2
      vertex -19.2135 62.1183 4.26626e-015
      vertex -19.2135 62.1183 2
    endloop
  endfacet
  facet normal 0.309017 0.951056 0
    outer loop
      vertex -19.2135 62.1183 4.26626e-015
      vertex -17.5365 61.5734 2
      vertex -17.5365 61.5734 3.89388e-015
    endloop
  endfacet
  facet normal -0.809017 0.587785 0
    outer loop
      vertex -17.5365 61.5734 3.89388e-015
      vertex -16.5 63 2
      vertex -16.5 63 3.66374e-015
    endloop
  endfacet
  facet normal -0.809017 0.587785 0
    outer loop
      vertex -16.5 63 2
      vertex -17.5365 61.5734 3.89388e-015
      vertex -17.5365 61.5734 2
    endloop
  endfacet
  facet normal 0 0 1
    outer loop
      vertex -14.5 45 1
      vertex -16.5 35 1
      vertex -14.5 25 1
    endloop
  endfacet
  facet normal 0 0 1
    outer loop
      vertex -14.5 45 1
      vertex -17.5365 36.4266 1
      vertex -16.5 35 1
    endloop
  endfacet
  facet normal -0 0 1
    outer loop
      vertex -21.5 45 1
      vertex -17.5365 36.4266 1
      vertex -14.5 45 1
    endloop
  endfacet
  facet normal 0 0 1
    outer loop
      vertex -19.2135 35.8817 1
      vertex -21.5 45 1
      vertex -19.2135 34.1183 1
    endloop
  endfacet
  facet normal 0 0 1
    outer loop
      vertex -17.5365 36.4266 1
      vertex -21.5 45 1
      vertex -19.2135 35.8817 1
    endloop
  endfacet
  facet normal -0 0 1
    outer loop
      vertex -17.5365 33.5734 1
      vertex -14.5 25 1
      vertex -16.5 35 1
    endloop
  endfacet
  facet normal 0 0 1
    outer loop
      vertex -21.5 25 1
      vertex -17.5365 33.5734 1
      vertex -19.2135 34.1183 1
    endloop
  endfacet
  facet normal 0 0 1
    outer loop
      vertex -17.5365 33.5734 1
      vertex -21.5 25 1
      vertex -14.5 25 1
    endloop
  endfacet
  facet normal 0 0 1
    outer loop
      vertex -21.5 25 1
      vertex -19.2135 34.1183 1
      vertex -21.5 45 1
    endloop
  endfacet
  facet normal -1 0 0
    outer loop
      vertex -17 92 2
      vertex -17 86.161 6.739
      vertex -17 92 30
    endloop
  endfacet
  facet normal -1 0 0
    outer loop
      vertex -17 92 2
      vertex -17 80.505 6.739
      vertex -17 86.161 6.739
    endloop
  endfacet
  facet normal -1 0 0
    outer loop
      vertex -17 80.2939 7.59549
      vertex -17 80.505 7.79039
      vertex -17 80.505 6.739
    endloop
  endfacet
  facet normal -1 -0 0
    outer loop
      vertex -17 80.505 7.79039
      vertex -17 80.2939 7.59549
      vertex -17 80.4755 8.15451
    endloop
  endfacet
  facet normal -1 0 0
    outer loop
      vertex -17 80.505 6.739
      vertex -17 79.7061 7.59549
      vertex -17 80.2939 7.59549
    endloop
  endfacet
  facet normal -1 0 0
    outer loop
      vertex -17 79.495 7.79039
      vertex -17 79.7061 7.59549
      vertex -17 79.495 6.739
    endloop
  endfacet
  facet normal -1 0 0
    outer loop
      vertex -17 80.505 6.739
      vertex -17 79.495 6.739
      vertex -17 79.7061 7.59549
    endloop
  endfacet
  facet normal -1 0 0
    outer loop
      vertex -17 71 2
      vertex -17 80.505 6.739
      vertex -17 92 2
    endloop
  endfacet
  facet normal -1 -0 0
    outer loop
      vertex -17 80.505 6.739
      vertex -17 71 2
      vertex -17 79.495 6.739
    endloop
  endfacet
  facet normal -1 -0 0
    outer loop
      vertex -17 79.495 6.739
      vertex -17 71 2
      vertex -17 73.839 6.739
    endloop
  endfacet
  facet normal -1 0 0
    outer loop
      vertex -17 71 30
      vertex -17 73.839 6.739
      vertex -17 71 2
    endloop
  endfacet
  facet normal -1 0 0
    outer loop
      vertex -17 73.839 6.739
      vertex -17 71 30
      vertex -17 73.839 30
    endloop
  endfacet
  facet normal -1 -0 0
    outer loop
      vertex -17 92 30
      vertex -17 86.161 6.739
      vertex -17 86.161 30
    endloop
  endfacet
  facet normal -1 0 0
    outer loop
      vertex -17 80.4755 8.15451
      vertex -17 80.5937 7.79039
      vertex -17 80.505 7.79039
    endloop
  endfacet
  facet normal -1 0 0
    outer loop
      vertex -17 80.5937 7.79039
      vertex -17 80.4755 8.15451
      vertex -17 80.9606 8.91961
    endloop
  endfacet
  facet normal -1 0 0
    outer loop
      vertex -17 80 8.5
      vertex -17 80.9606 8.91961
      vertex -17 80.4755 8.15451
    endloop
  endfacet
  facet normal -1 0 0
    outer loop
      vertex -17 80 8.5
      vertex -17 80 9.6175
      vertex -17 80.9606 8.91961
    endloop
  endfacet
  facet normal -1 0 0
    outer loop
      vertex -17 79.0394 8.91961
      vertex -17 80 8.5
      vertex -17 79.5245 8.15451
    endloop
  endfacet
  facet normal -1 0 0
    outer loop
      vertex -17 79.7061 7.59549
      vertex -17 79.495 7.79039
      vertex -17 79.5245 8.15451
    endloop
  endfacet
  facet normal -1 0 0
    outer loop
      vertex -17 79.4063 7.79039
      vertex -17 79.5245 8.15451
      vertex -17 79.495 7.79039
    endloop
  endfacet
  facet normal -1 0 0
    outer loop
      vertex -17 80 8.5
      vertex -17 79.0394 8.91961
      vertex -17 80 9.6175
    endloop
  endfacet
  facet normal -1 0 0
    outer loop
      vertex -17 79.0394 8.91961
      vertex -17 79.5245 8.15451
      vertex -17 79.4063 7.79039
    endloop
  endfacet
  facet normal -0 0 1
    outer loop
      vertex -17 92 30
      vertex -1.5 86.161 30
      vertex -1.5 92 30
    endloop
  endfacet
  facet normal 0 0 1
    outer loop
      vertex -1.5 86.161 30
      vertex -17 92 30
      vertex -17 86.161 30
    endloop
  endfacet
  facet normal -0 0 1
    outer loop
      vertex -17 73.839 30
      vertex -1.5 71 30
      vertex -1.5 73.839 30
    endloop
  endfacet
  facet normal 0 0 1
    outer loop
      vertex -1.5 71 30
      vertex -17 73.839 30
      vertex -17 71 30
    endloop
  endfacet
  facet normal 0 1 -0
    outer loop
      vertex 0 92 0
      vertex -1.5 92 2
      vertex 4.44089e-016 92 2
    endloop
  endfacet
  facet normal 0 1 0
    outer loop
      vertex -1.5 92 2
      vertex 0 92 0
      vertex -17 92 2
    endloop
  endfacet
  facet normal 0 1 0
    outer loop
      vertex -17 92 2
      vertex -36 92 7.99361e-015
      vertex -36 92 2
    endloop
  endfacet
  facet normal 0 1 0
    outer loop
      vertex -17 92 2
      vertex 0 92 0
      vertex -36 92 7.99361e-015
    endloop
  endfacet
  facet normal 0 1 -0
    outer loop
      vertex -1.5 92 2
      vertex -17 92 30
      vertex -1.5 92 30
    endloop
  endfacet
  facet normal 0 1 0
    outer loop
      vertex -17 92 30
      vertex -1.5 92 2
      vertex -17 92 2
    endloop
  endfacet
  facet normal 1 0 0
    outer loop
      vertex -1.5 73.839 30
      vertex -1.5 71 30
      vertex -1.5 73.839 11.6375
    endloop
  endfacet
  facet normal 1 0 0
    outer loop
      vertex -1.5 86.161 11.6375
      vertex -1.5 92 30
      vertex -1.5 86.161 30
    endloop
  endfacet
  facet normal 1 0 0
    outer loop
      vertex -1.5 92 30
      vertex -1.5 86.161 11.6375
      vertex -1.5 92 2
    endloop
  endfacet
  facet normal 1 0 0
    outer loop
      vertex -1.5 71 2
      vertex -1.5 86.161 11.6375
      vertex -1.5 73.839 11.6375
    endloop
  endfacet
  facet normal 1 0 0
    outer loop
      vertex -1.5 86.161 11.6375
      vertex -1.5 71 2
      vertex -1.5 92 2
    endloop
  endfacet
  facet normal 1 0 0
    outer loop
      vertex -1.5 71 2
      vertex -1.5 73.839 11.6375
      vertex -1.5 71 30
    endloop
  endfacet
  facet normal 0 -1 0
    outer loop
      vertex -17 71 2
      vertex -1.5 71 30
      vertex -17 71 30
    endloop
  endfacet
  facet normal 0 -1 -0
    outer loop
      vertex -1.5 71 30
      vertex -17 71 2
      vertex -1.5 71 2
    endloop
  endfacet
  facet normal 0 -0.587789 -0.809014
    outer loop
      vertex -17 80 8.5
      vertex -11 80.4755 8.15451
      vertex -11 80 8.5
    endloop
  endfacet
  facet normal -0 -0.587789 -0.809014
    outer loop
      vertex -11 80.4755 8.15451
      vertex -17 80 8.5
      vertex -17 80.4755 8.15451
    endloop
  endfacet
  facet normal -0 0 1
    outer loop
      vertex -17 80.2939 7.59549
      vertex -11 79.7061 7.59549
      vertex -11 80.2939 7.59549
    endloop
  endfacet
  facet normal 0 0 1
    outer loop
      vertex -11 79.7061 7.59549
      vertex -17 80.2939 7.59549
      vertex -17 79.7061 7.59549
    endloop
  endfacet
  facet normal 0 -0.951058 0.309013
    outer loop
      vertex -17 80.2939 7.59549
      vertex -11 80.4755 8.15451
      vertex -17 80.4755 8.15451
    endloop
  endfacet
  facet normal 0 -0.951058 0.309013
    outer loop
      vertex -11 80.4755 8.15451
      vertex -17 80.2939 7.59549
      vertex -11 80.2939 7.59549
    endloop
  endfacet
  facet normal -1 0 0
    outer loop
      vertex -11 80.2939 7.59549
      vertex -11 80 8.5
      vertex -11 80.4755 8.15451
    endloop
  endfacet
  facet normal -1 0 0
    outer loop
      vertex -11 79.7061 7.59549
      vertex -11 80 8.5
      vertex -11 80.2939 7.59549
    endloop
  endfacet
  facet normal -1 0 0
    outer loop
      vertex -11 80 8.5
      vertex -11 79.7061 7.59549
      vertex -11 79.5245 8.15451
    endloop
  endfacet
  facet normal 0 0.587789 -0.809014
    outer loop
      vertex -17 79.5245 8.15451
      vertex -11 80 8.5
      vertex -11 79.5245 8.15451
    endloop
  endfacet
  facet normal 0 0.587789 -0.809014
    outer loop
      vertex -11 80 8.5
      vertex -17 79.5245 8.15451
      vertex -17 80 8.5
    endloop
  endfacet
  facet normal 0 0.951058 0.309013
    outer loop
      vertex -11 79.7061 7.59549
      vertex -17 79.5245 8.15451
      vertex -11 79.5245 8.15451
    endloop
  endfacet
  facet normal 0 0.951058 0.309013
    outer loop
      vertex -17 79.5245 8.15451
      vertex -11 79.7061 7.59549
      vertex -17 79.7061 7.59549
    endloop
  endfacet
  facet normal -0 0 1
    outer loop
      vertex -16.9075 86.161 11.6375
      vertex -1.5 73.839 11.6375
      vertex -1.5 86.161 11.6375
    endloop
  endfacet
  facet normal 0 0 1
    outer loop
      vertex -1.5 73.839 11.6375
      vertex -16.9075 86.161 11.6375
      vertex -16.9075 73.839 11.6375
    endloop
  endfacet
  facet normal 0 -1 0
    outer loop
      vertex -17 86.161 30
      vertex -16.9075 86.161 11.6375
      vertex -1.5 86.161 30
    endloop
  endfacet
  facet normal 0 -1 0
    outer loop
      vertex -17 86.161 6.739
      vertex -16.9075 86.161 11.6375
      vertex -17 86.161 30
    endloop
  endfacet
  facet normal 0 -1 -0
    outer loop
      vertex -16.9075 86.161 11.6375
      vertex -17 86.161 6.739
      vertex -16.9075 86.161 6.739
    endloop
  endfacet
  facet normal 0 -1 -0
    outer loop
      vertex -1.5 86.161 30
      vertex -16.9075 86.161 11.6375
      vertex -1.5 86.161 11.6375
    endloop
  endfacet
  facet normal 0 1 -0
    outer loop
      vertex -1.5 73.839 11.6375
      vertex -17 73.839 30
      vertex -1.5 73.839 30
    endloop
  endfacet
  facet normal 0 1 -0
    outer loop
      vertex -16.9075 73.839 11.6375
      vertex -17 73.839 30
      vertex -1.5 73.839 11.6375
    endloop
  endfacet
  facet normal 0 1 0
    outer loop
      vertex -17 73.839 6.739
      vertex -16.9075 73.839 11.6375
      vertex -16.9075 73.839 6.739
    endloop
  endfacet
  facet normal 0 1 0
    outer loop
      vertex -16.9075 73.839 11.6375
      vertex -17 73.839 6.739
      vertex -17 73.839 30
    endloop
  endfacet
  facet normal -0 0 1
    outer loop
      vertex -17 79.495 6.739
      vertex -16.9075 73.839 6.739
      vertex -16.9075 79.495 6.739
    endloop
  endfacet
  facet normal 0 0 1
    outer loop
      vertex -16.9075 73.839 6.739
      vertex -17 79.495 6.739
      vertex -17 73.839 6.739
    endloop
  endfacet
  facet normal -0 0 1
    outer loop
      vertex -17 86.161 6.739
      vertex -16.9075 80.505 6.739
      vertex -16.9075 86.161 6.739
    endloop
  endfacet
  facet normal 0 0 1
    outer loop
      vertex -16.9075 80.505 6.739
      vertex -17 86.161 6.739
      vertex -17 80.505 6.739
    endloop
  endfacet
  facet normal -1 0 0
    outer loop
      vertex -16.9075 79.495 6.739
      vertex -16.9075 79.4063 7.79039
      vertex -16.9075 79.495 7.79039
    endloop
  endfacet
  facet normal -1 0 0
    outer loop
      vertex -16.9075 73.839 6.739
      vertex -16.9075 79.4063 7.79039
      vertex -16.9075 79.495 6.739
    endloop
  endfacet
  facet normal -1 -0 0
    outer loop
      vertex -16.9075 79.4063 7.79039
      vertex -16.9075 73.839 6.739
      vertex -16.9075 79.0394 8.91961
    endloop
  endfacet
  facet normal -1 0 0
    outer loop
      vertex -16.9075 86.161 6.739
      vertex -16.9075 80.9606 8.91961
      vertex -16.9075 86.161 11.6375
    endloop
  endfacet
  facet normal -1 0 0
    outer loop
      vertex -16.9075 86.161 6.739
      vertex -16.9075 80.5937 7.79039
      vertex -16.9075 80.9606 8.91961
    endloop
  endfacet
  facet normal -1 0 0
    outer loop
      vertex -16.9075 80.505 6.739
      vertex -16.9075 80.5937 7.79039
      vertex -16.9075 86.161 6.739
    endloop
  endfacet
  facet normal -1 -0 0
    outer loop
      vertex -16.9075 80.5937 7.79039
      vertex -16.9075 80.505 6.739
      vertex -16.9075 80.505 7.79039
    endloop
  endfacet
  facet normal -1 0 0
    outer loop
      vertex -16.9075 80 9.6175
      vertex -16.9075 86.161 11.6375
      vertex -16.9075 80.9606 8.91961
    endloop
  endfacet
  facet normal -1 0 0
    outer loop
      vertex -16.9075 73.839 11.6375
      vertex -16.9075 79.0394 8.91961
      vertex -16.9075 73.839 6.739
    endloop
  endfacet
  facet normal -1 0 0
    outer loop
      vertex -16.9075 80 9.6175
      vertex -16.9075 73.839 11.6375
      vertex -16.9075 86.161 11.6375
    endloop
  endfacet
  facet normal -1 0 0
    outer loop
      vertex -16.9075 79.0394 8.91961
      vertex -16.9075 73.839 11.6375
      vertex -16.9075 80 9.6175
    endloop
  endfacet
  facet normal -0 0.587787 0.809015
    outer loop
      vertex -17 80.9606 8.91961
      vertex -16.9075 80 9.6175
      vertex -16.9075 80.9606 8.91961
    endloop
  endfacet
  facet normal 0 0.587787 0.809015
    outer loop
      vertex -16.9075 80 9.6175
      vertex -17 80.9606 8.91961
      vertex -17 80 9.6175
    endloop
  endfacet
  facet normal 0 0 -1
    outer loop
      vertex -17 79.4063 7.79039
      vertex -16.9075 79.495 7.79039
      vertex -16.9075 79.4063 7.79039
    endloop
  endfacet
  facet normal -0 0 -1
    outer loop
      vertex -16.9075 79.495 7.79039
      vertex -17 79.4063 7.79039
      vertex -17 79.495 7.79039
    endloop
  endfacet
  facet normal 0 0 -1
    outer loop
      vertex -17 80.505 7.79039
      vertex -16.9075 80.5937 7.79039
      vertex -16.9075 80.505 7.79039
    endloop
  endfacet
  facet normal -0 0 -1
    outer loop
      vertex -16.9075 80.5937 7.79039
      vertex -17 80.505 7.79039
      vertex -17 80.5937 7.79039
    endloop
  endfacet
  facet normal 0 0.951058 -0.309013
    outer loop
      vertex -16.9075 80.5937 7.79039
      vertex -17 80.9606 8.91961
      vertex -16.9075 80.9606 8.91961
    endloop
  endfacet
  facet normal 0 0.951058 -0.309013
    outer loop
      vertex -17 80.9606 8.91961
      vertex -16.9075 80.5937 7.79039
      vertex -17 80.5937 7.79039
    endloop
  endfacet
  facet normal 0 -0.951058 -0.309013
    outer loop
      vertex -17 79.4063 7.79039
      vertex -16.9075 79.0394 8.91961
      vertex -17 79.0394 8.91961
    endloop
  endfacet
  facet normal 0 -0.951058 -0.309013
    outer loop
      vertex -16.9075 79.0394 8.91961
      vertex -17 79.4063 7.79039
      vertex -16.9075 79.4063 7.79039
    endloop
  endfacet
  facet normal 0 -0.587787 0.809015
    outer loop
      vertex -17 80 9.6175
      vertex -16.9075 79.0394 8.91961
      vertex -16.9075 80 9.6175
    endloop
  endfacet
  facet normal 0 -0.587787 0.809015
    outer loop
      vertex -16.9075 79.0394 8.91961
      vertex -17 80 9.6175
      vertex -17 79.0394 8.91961
    endloop
  endfacet
  facet normal 0 1 -0
    outer loop
      vertex -16.9075 80.505 6.739
      vertex -17 80.505 7.79039
      vertex -16.9075 80.505 7.79039
    endloop
  endfacet
  facet normal 0 1 0
    outer loop
      vertex -17 80.505 7.79039
      vertex -16.9075 80.505 6.739
      vertex -17 80.505 6.739
    endloop
  endfacet
  facet normal 0 -1 0
    outer loop
      vertex -17 79.495 6.739
      vertex -16.9075 79.495 7.79039
      vertex -17 79.495 7.79039
    endloop
  endfacet
  facet normal 0 -1 -0
    outer loop
      vertex -16.9075 79.495 7.79039
      vertex -17 79.495 6.739
      vertex -16.9075 79.495 6.739
    endloop
  endfacet
endsolid OpenSCAD_Model
