solid OpenSCAD_Model
  facet normal -0.866025 -0.5 0
    outer loop
      vertex 4.25 0 0
      vertex 2.125 3.68061 3
      vertex 2.125 3.68061 0
    endloop
  endfacet
  facet normal -0.866025 -0.5 0
    outer loop
      vertex 2.125 3.68061 3
      vertex 4.25 0 0
      vertex 4.25 0 3
    endloop
  endfacet
  facet normal 0.866025 -0.5 0
    outer loop
      vertex -4.25 0 3
      vertex -2.125 3.68061 0
      vertex -2.125 3.68061 3
    endloop
  endfacet
  facet normal 0.866025 -0.5 0
    outer loop
      vertex -2.125 3.68061 0
      vertex -4.25 0 3
      vertex -4.25 0 0
    endloop
  endfacet
  facet normal 0 -1 0
    outer loop
      vertex -2.125 3.68061 0
      vertex 2.125 3.68061 3
      vertex -2.125 3.68061 3
    endloop
  endfacet
  facet normal 0 -1 -0
    outer loop
      vertex 2.125 3.68061 3
      vertex -2.125 3.68061 0
      vertex 2.125 3.68061 0
    endloop
  endfacet
  facet normal -0.866025 0.5 0
    outer loop
      vertex 2.125 -3.68061 0
      vertex 4.25 0 3
      vertex 4.25 0 0
    endloop
  endfacet
  facet normal -0.866025 0.5 0
    outer loop
      vertex 4.25 0 3
      vertex 2.125 -3.68061 0
      vertex 2.125 -3.68061 3
    endloop
  endfacet
  facet normal 0 1 -0
    outer loop
      vertex 2.125 -3.68061 0
      vertex -2.125 -3.68061 3
      vertex 2.125 -3.68061 3
    endloop
  endfacet
  facet normal 0 1 0
    outer loop
      vertex -2.125 -3.68061 3
      vertex 2.125 -3.68061 0
      vertex -2.125 -3.68061 0
    endloop
  endfacet
  facet normal 0.866025 0.5 0
    outer loop
      vertex -2.125 -3.68061 3
      vertex -4.25 0 0
      vertex -4.25 0 3
    endloop
  endfacet
  facet normal 0.866025 0.5 0
    outer loop
      vertex -4.25 0 0
      vertex -2.125 -3.68061 3
      vertex -2.125 -3.68061 0
    endloop
  endfacet
  facet normal 0 0 1
    outer loop
      vertex 1.94986 20.555 3
      vertex 5 21 3
      vertex 4.6194 22.9134 3
    endloop
  endfacet
  facet normal 0 0 1
    outer loop
      vertex 0.867767 19.1981 3
      vertex 5 21 3
      vertex 1.94986 20.555 3
    endloop
  endfacet
  facet normal 0 0 1
    outer loop
      vertex 5 21 3
      vertex 0.867767 19.1981 3
      vertex 5 5 3
    endloop
  endfacet
  facet normal 0 0 1
    outer loop
      vertex 5 5 3
      vertex 2.125 3.68061 3
      vertex 4.25 0 3
    endloop
  endfacet
  facet normal 0 0 1
    outer loop
      vertex 1.56366 22.247 3
      vertex 3.53553 24.5355 3
      vertex 1.91342 25.6194 3
    endloop
  endfacet
  facet normal 0 0 1
    outer loop
      vertex 3.53553 24.5355 3
      vertex 1.56366 22.247 3
      vertex 1.94986 20.555 3
    endloop
  endfacet
  facet normal 0 0 1
    outer loop
      vertex 1.4083e-015 23 3
      vertex 1.91342 25.6194 3
      vertex 1.59199e-015 26 3
    endloop
  endfacet
  facet normal 0 0 1
    outer loop
      vertex 1.91342 25.6194 3
      vertex 1.4083e-015 23 3
      vertex 1.56366 22.247 3
    endloop
  endfacet
  facet normal -0 0 1
    outer loop
      vertex -1.91342 25.6194 3
      vertex 1.4083e-015 23 3
      vertex 1.59199e-015 26 3
    endloop
  endfacet
  facet normal 0 0 1
    outer loop
      vertex 1.4083e-015 23 3
      vertex -1.91342 25.6194 3
      vertex -1.56366 22.247 3
    endloop
  endfacet
  facet normal -0 0 1
    outer loop
      vertex -3.53553 24.5355 3
      vertex -1.56366 22.247 3
      vertex -1.91342 25.6194 3
    endloop
  endfacet
  facet normal -0 0 1
    outer loop
      vertex -4.6194 22.9134 3
      vertex -1.56366 22.247 3
      vertex -3.53553 24.5355 3
    endloop
  endfacet
  facet normal 0 0 1
    outer loop
      vertex -1.56366 22.247 3
      vertex -4.6194 22.9134 3
      vertex -1.94986 20.555 3
    endloop
  endfacet
  facet normal 0 0 1
    outer loop
      vertex -1.94986 20.555 3
      vertex -5 21 3
      vertex -2.125 3.68061 3
    endloop
  endfacet
  facet normal 0 0 1
    outer loop
      vertex -1.94986 20.555 3
      vertex -4.6194 22.9134 3
      vertex -5 21 3
    endloop
  endfacet
  facet normal 0 0 1
    outer loop
      vertex 5 5 3
      vertex 0.867767 19.1981 3
      vertex 2.125 3.68061 3
    endloop
  endfacet
  facet normal 0 0 1
    outer loop
      vertex -0.867767 19.1981 3
      vertex 2.125 3.68061 3
      vertex 0.867767 19.1981 3
    endloop
  endfacet
  facet normal 0 0 1
    outer loop
      vertex -2.125 3.68061 3
      vertex -0.867767 19.1981 3
      vertex -1.94986 20.555 3
    endloop
  endfacet
  facet normal 0 0 1
    outer loop
      vertex -0.867767 19.1981 3
      vertex -2.125 3.68061 3
      vertex 2.125 3.68061 3
    endloop
  endfacet
  facet normal 0 0 1
    outer loop
      vertex 23 0 3
      vertex 26 0 3
      vertex 25.6194 1.91342 3
    endloop
  endfacet
  facet normal 0 0 1
    outer loop
      vertex 22.247 1.56366 3
      vertex 25.6194 1.91342 3
      vertex 24.5355 3.53553 3
    endloop
  endfacet
  facet normal 0 0 1
    outer loop
      vertex 26 0 3
      vertex 23 0 3
      vertex 25.6194 -1.91342 3
    endloop
  endfacet
  facet normal -0 0 1
    outer loop
      vertex 22.247 -1.56366 3
      vertex 25.6194 -1.91342 3
      vertex 23 0 3
    endloop
  endfacet
  facet normal 0 0 1
    outer loop
      vertex 22.247 1.56366 3
      vertex 24.5355 3.53553 3
      vertex 22.9134 4.6194 3
    endloop
  endfacet
  facet normal 0 0 1
    outer loop
      vertex 25.6194 1.91342 3
      vertex 22.247 1.56366 3
      vertex 23 0 3
    endloop
  endfacet
  facet normal 0 0 1
    outer loop
      vertex 20.555 1.94986 3
      vertex 22.9134 4.6194 3
      vertex 21 5 3
    endloop
  endfacet
  facet normal 0 0 1
    outer loop
      vertex 22.9134 4.6194 3
      vertex 20.555 1.94986 3
      vertex 22.247 1.56366 3
    endloop
  endfacet
  facet normal 0 0 1
    outer loop
      vertex 21 5 3
      vertex 19.1981 0.867767 3
      vertex 20.555 1.94986 3
    endloop
  endfacet
  facet normal 0 0 1
    outer loop
      vertex 4.25 0 3
      vertex 19.1981 0.867767 3
      vertex 5 5 3
    endloop
  endfacet
  facet normal -0 0 1
    outer loop
      vertex 5 5 3
      vertex 19.1981 0.867767 3
      vertex 21 5 3
    endloop
  endfacet
  facet normal 0 0 1
    outer loop
      vertex 25.6194 -1.91342 3
      vertex 22.247 -1.56366 3
      vertex 24.5355 -3.53553 3
    endloop
  endfacet
  facet normal 0 0 1
    outer loop
      vertex 24.5355 -3.53553 3
      vertex 22.247 -1.56366 3
      vertex 22.9134 -4.6194 3
    endloop
  endfacet
  facet normal -0 0 1
    outer loop
      vertex 20.555 -1.94986 3
      vertex 22.9134 -4.6194 3
      vertex 22.247 -1.56366 3
    endloop
  endfacet
  facet normal 0 0 1
    outer loop
      vertex 22.9134 -4.6194 3
      vertex 20.555 -1.94986 3
      vertex 21 -5 3
    endloop
  endfacet
  facet normal 0 0 1
    outer loop
      vertex 19.1981 -0.867767 3
      vertex 21 -5 3
      vertex 20.555 -1.94986 3
    endloop
  endfacet
  facet normal 0 0 1
    outer loop
      vertex 19.1981 0.867767 3
      vertex 4.25 0 3
      vertex 19.1981 -0.867767 3
    endloop
  endfacet
  facet normal 0 0 1
    outer loop
      vertex 1.94986 20.555 3
      vertex 4.6194 22.9134 3
      vertex 3.53553 24.5355 3
    endloop
  endfacet
  facet normal 0 0 1
    outer loop
      vertex 2.125 -3.68061 3
      vertex 19.1981 -0.867767 3
      vertex 4.25 0 3
    endloop
  endfacet
  facet normal 0 0 1
    outer loop
      vertex 19.1981 -0.867767 3
      vertex 2.125 -3.68061 3
      vertex 21 -5 3
    endloop
  endfacet
  facet normal 0 0 1
    outer loop
      vertex 2.125 -3.68061 3
      vertex 0 -5 3
      vertex 21 -5 3
    endloop
  endfacet
  facet normal -0 0 1
    outer loop
      vertex -2.125 -3.68061 3
      vertex 0 -5 3
      vertex 2.125 -3.68061 3
    endloop
  endfacet
  facet normal 0 0 1
    outer loop
      vertex 0 -5 3
      vertex -2.125 -3.68061 3
      vertex -1.91342 -4.6194 3
    endloop
  endfacet
  facet normal 0 0 1
    outer loop
      vertex -2.125 -3.68061 3
      vertex -3.53553 -3.53553 3
      vertex -1.91342 -4.6194 3
    endloop
  endfacet
  facet normal -0 0 1
    outer loop
      vertex -4.6194 -1.91342 3
      vertex -2.125 -3.68061 3
      vertex -4.25 0 3
    endloop
  endfacet
  facet normal 0 0 1
    outer loop
      vertex -2.125 -3.68061 3
      vertex -4.6194 -1.91342 3
      vertex -3.53553 -3.53553 3
    endloop
  endfacet
  facet normal 0 0 1
    outer loop
      vertex -5 3.06152e-016 3
      vertex -2.125 3.68061 3
      vertex -5 21 3
    endloop
  endfacet
  facet normal 0 0 1
    outer loop
      vertex -2.125 3.68061 3
      vertex -5 3.06152e-016 3
      vertex -4.25 0 3
    endloop
  endfacet
  facet normal 0 0 1
    outer loop
      vertex -5 0 3
      vertex -4.25 0 3
      vertex -5 3.06152e-016 3
    endloop
  endfacet
  facet normal 0 0 1
    outer loop
      vertex -4.25 0 3
      vertex -5 0 3
      vertex -4.6194 -1.91342 3
    endloop
  endfacet
  facet normal 0 1 -0
    outer loop
      vertex 21 5 0
      vertex 5 5 3
      vertex 21 5 3
    endloop
  endfacet
  facet normal 0 1 0
    outer loop
      vertex 5 5 3
      vertex 21 5 0
      vertex 5 5 0
    endloop
  endfacet
  facet normal 0 0 -1
    outer loop
      vertex 5 21 0
      vertex 0.867767 19.1981 0
      vertex 1.94986 20.555 0
    endloop
  endfacet
  facet normal 0 0 -1
    outer loop
      vertex 2.125 3.68061 0
      vertex -0.867767 19.1981 0
      vertex 0.867767 19.1981 0
    endloop
  endfacet
  facet normal 0 0 -1
    outer loop
      vertex -2.125 3.68061 0
      vertex -0.867767 19.1981 0
      vertex 2.125 3.68061 0
    endloop
  endfacet
  facet normal 0 0 -1
    outer loop
      vertex -5 21 0
      vertex -0.867767 19.1981 0
      vertex -2.125 3.68061 0
    endloop
  endfacet
  facet normal 0 0 -1
    outer loop
      vertex 23 0 0
      vertex 26 0 0
      vertex 25.6194 -1.91342 0
    endloop
  endfacet
  facet normal 0 0 -1
    outer loop
      vertex 22.247 -1.56366 0
      vertex 25.6194 -1.91342 0
      vertex 24.5355 -3.53553 0
    endloop
  endfacet
  facet normal 0 0 -1
    outer loop
      vertex 26 0 0
      vertex 23 0 0
      vertex 25.6194 1.91342 0
    endloop
  endfacet
  facet normal 0 0 -1
    outer loop
      vertex 22.247 1.56366 0
      vertex 25.6194 1.91342 0
      vertex 23 0 0
    endloop
  endfacet
  facet normal 0 0 -1
    outer loop
      vertex 22.247 -1.56366 0
      vertex 24.5355 -3.53553 0
      vertex 22.9134 -4.6194 0
    endloop
  endfacet
  facet normal 0 0 -1
    outer loop
      vertex 25.6194 -1.91342 0
      vertex 22.247 -1.56366 0
      vertex 23 0 0
    endloop
  endfacet
  facet normal 0 0 -1
    outer loop
      vertex 20.555 -1.94986 0
      vertex 22.9134 -4.6194 0
      vertex 21 -5 0
    endloop
  endfacet
  facet normal 0 0 -1
    outer loop
      vertex 22.9134 -4.6194 0
      vertex 20.555 -1.94986 0
      vertex 22.247 -1.56366 0
    endloop
  endfacet
  facet normal 0 0 -1
    outer loop
      vertex 21 -5 0
      vertex 19.1981 -0.867767 0
      vertex 20.555 -1.94986 0
    endloop
  endfacet
  facet normal 0 0 -1
    outer loop
      vertex 4.25 0 0
      vertex 19.1981 0.867767 0
      vertex 19.1981 -0.867767 0
    endloop
  endfacet
  facet normal 0 0 -1
    outer loop
      vertex 2.125 -3.68061 0
      vertex 19.1981 -0.867767 0
      vertex 21 -5 0
    endloop
  endfacet
  facet normal 0 0 -1
    outer loop
      vertex 0.867767 19.1981 0
      vertex 5 21 0
      vertex 5 5 0
    endloop
  endfacet
  facet normal 0 0 -1
    outer loop
      vertex 2.125 3.68061 0
      vertex 5 5 0
      vertex 4.25 0 0
    endloop
  endfacet
  facet normal -0 0 -1
    outer loop
      vertex 19.1981 0.867767 0
      vertex 4.25 0 0
      vertex 5 5 0
    endloop
  endfacet
  facet normal -0 0 -1
    outer loop
      vertex 19.1981 -0.867767 0
      vertex 2.125 -3.68061 0
      vertex 4.25 0 0
    endloop
  endfacet
  facet normal 0 0 -1
    outer loop
      vertex 0 -5 0
      vertex 2.125 -3.68061 0
      vertex 21 -5 0
    endloop
  endfacet
  facet normal 0 0 -1
    outer loop
      vertex -2.125 -3.68061 0
      vertex 0 -5 0
      vertex -1.91342 -4.6194 0
    endloop
  endfacet
  facet normal 0 0 -1
    outer loop
      vertex 0 -5 0
      vertex -2.125 -3.68061 0
      vertex 2.125 -3.68061 0
    endloop
  endfacet
  facet normal 0 0 -1
    outer loop
      vertex -3.53553 -3.53553 0
      vertex -2.125 -3.68061 0
      vertex -1.91342 -4.6194 0
    endloop
  endfacet
  facet normal 0 0 -1
    outer loop
      vertex -4.6194 -1.91342 0
      vertex -2.125 -3.68061 0
      vertex -3.53553 -3.53553 0
    endloop
  endfacet
  facet normal 0 0 -1
    outer loop
      vertex -2.125 -3.68061 0
      vertex -4.6194 -1.91342 0
      vertex -4.25 0 0
    endloop
  endfacet
  facet normal -0 0 -1
    outer loop
      vertex 25.6194 1.91342 0
      vertex 22.247 1.56366 0
      vertex 24.5355 3.53553 0
    endloop
  endfacet
  facet normal -0 0 -1
    outer loop
      vertex 24.5355 3.53553 0
      vertex 22.247 1.56366 0
      vertex 22.9134 4.6194 0
    endloop
  endfacet
  facet normal 0 0 -1
    outer loop
      vertex 20.555 1.94986 0
      vertex 22.9134 4.6194 0
      vertex 22.247 1.56366 0
    endloop
  endfacet
  facet normal -0 0 -1
    outer loop
      vertex 22.9134 4.6194 0
      vertex 20.555 1.94986 0
      vertex 21 5 0
    endloop
  endfacet
  facet normal 0 0 -1
    outer loop
      vertex 19.1981 0.867767 0
      vertex 21 5 0
      vertex 20.555 1.94986 0
    endloop
  endfacet
  facet normal -0 0 -1
    outer loop
      vertex 21 5 0
      vertex 19.1981 0.867767 0
      vertex 5 5 0
    endloop
  endfacet
  facet normal 0 0 -1
    outer loop
      vertex 0.867767 19.1981 0
      vertex 5 5 0
      vertex 2.125 3.68061 0
    endloop
  endfacet
  facet normal -0 0 -1
    outer loop
      vertex 5 21 0
      vertex 1.94986 20.555 0
      vertex 4.6194 22.9134 0
    endloop
  endfacet
  facet normal 0 0 -1
    outer loop
      vertex 1.56366 22.247 0
      vertex 4.6194 22.9134 0
      vertex 1.94986 20.555 0
    endloop
  endfacet
  facet normal -0 0 -1
    outer loop
      vertex 4.6194 22.9134 0
      vertex 1.56366 22.247 0
      vertex 3.53553 24.5355 0
    endloop
  endfacet
  facet normal -0 0 -1
    outer loop
      vertex 3.53553 24.5355 0
      vertex 1.56366 22.247 0
      vertex 1.91342 25.6194 0
    endloop
  endfacet
  facet normal 0 0 -1
    outer loop
      vertex 1.4083e-015 23 0
      vertex 1.91342 25.6194 0
      vertex 1.56366 22.247 0
    endloop
  endfacet
  facet normal -0 0 -1
    outer loop
      vertex 1.91342 25.6194 0
      vertex 1.4083e-015 23 0
      vertex 1.59199e-015 26 0
    endloop
  endfacet
  facet normal 0 0 -1
    outer loop
      vertex -1.91342 25.6194 0
      vertex 1.4083e-015 23 0
      vertex -1.56366 22.247 0
    endloop
  endfacet
  facet normal 0 0 -1
    outer loop
      vertex 1.4083e-015 23 0
      vertex -1.91342 25.6194 0
      vertex 1.59199e-015 26 0
    endloop
  endfacet
  facet normal 0 0 -1
    outer loop
      vertex -4.6194 22.9134 0
      vertex -1.56366 22.247 0
      vertex -1.94986 20.555 0
    endloop
  endfacet
  facet normal 0 0 -1
    outer loop
      vertex -0.867767 19.1981 0
      vertex -5 21 0
      vertex -1.94986 20.555 0
    endloop
  endfacet
  facet normal 0 -0 -1
    outer loop
      vertex -4.6194 22.9134 0
      vertex -1.94986 20.555 0
      vertex -5 21 0
    endloop
  endfacet
  facet normal 0 0 -1
    outer loop
      vertex -5 3.06152e-016 0
      vertex -2.125 3.68061 0
      vertex -4.25 0 0
    endloop
  endfacet
  facet normal 0 0 -1
    outer loop
      vertex -5 0 0
      vertex -4.25 0 0
      vertex -4.6194 -1.91342 0
    endloop
  endfacet
  facet normal -0 0 -1
    outer loop
      vertex -2.125 3.68061 0
      vertex -5 3.06152e-016 0
      vertex -5 21 0
    endloop
  endfacet
  facet normal 0 0 -1
    outer loop
      vertex -4.25 0 0
      vertex -5 0 0
      vertex -5 3.06152e-016 0
    endloop
  endfacet
  facet normal 0 0 -1
    outer loop
      vertex -1.56366 22.247 0
      vertex -3.53553 24.5355 0
      vertex -1.91342 25.6194 0
    endloop
  endfacet
  facet normal 0 0 -1
    outer loop
      vertex -1.56366 22.247 0
      vertex -4.6194 22.9134 0
      vertex -3.53553 24.5355 0
    endloop
  endfacet
  facet normal 0 -1 0
    outer loop
      vertex 0 -5 0
      vertex 21 -5 3
      vertex 0 -5 3
    endloop
  endfacet
  facet normal 0 -1 -0
    outer loop
      vertex 21 -5 3
      vertex 0 -5 0
      vertex 21 -5 0
    endloop
  endfacet
  facet normal 0.980785 0.195091 0
    outer loop
      vertex 26 0 3
      vertex 25.6194 1.91342 0
      vertex 25.6194 1.91342 3
    endloop
  endfacet
  facet normal 0.980785 0.195091 0
    outer loop
      vertex 25.6194 1.91342 0
      vertex 26 0 3
      vertex 26 0 0
    endloop
  endfacet
  facet normal 0.195091 -0.980785 0
    outer loop
      vertex 21 -5 0
      vertex 22.9134 -4.6194 3
      vertex 21 -5 3
    endloop
  endfacet
  facet normal 0.195091 -0.980785 0
    outer loop
      vertex 22.9134 -4.6194 3
      vertex 21 -5 0
      vertex 22.9134 -4.6194 0
    endloop
  endfacet
  facet normal 0.55557 -0.83147 0
    outer loop
      vertex 22.9134 -4.6194 0
      vertex 24.5355 -3.53553 3
      vertex 22.9134 -4.6194 3
    endloop
  endfacet
  facet normal 0.55557 -0.83147 0
    outer loop
      vertex 24.5355 -3.53553 3
      vertex 22.9134 -4.6194 0
      vertex 24.5355 -3.53553 0
    endloop
  endfacet
  facet normal 0.55557 0.83147 -0
    outer loop
      vertex 24.5355 3.53553 0
      vertex 22.9134 4.6194 3
      vertex 24.5355 3.53553 3
    endloop
  endfacet
  facet normal 0.55557 0.83147 0
    outer loop
      vertex 22.9134 4.6194 3
      vertex 24.5355 3.53553 0
      vertex 22.9134 4.6194 0
    endloop
  endfacet
  facet normal 0.83147 0.55557 0
    outer loop
      vertex 25.6194 1.91342 3
      vertex 24.5355 3.53553 0
      vertex 24.5355 3.53553 3
    endloop
  endfacet
  facet normal 0.83147 0.55557 0
    outer loop
      vertex 24.5355 3.53553 0
      vertex 25.6194 1.91342 3
      vertex 25.6194 1.91342 0
    endloop
  endfacet
  facet normal 0.195091 0.980785 -0
    outer loop
      vertex 22.9134 4.6194 0
      vertex 21 5 3
      vertex 22.9134 4.6194 3
    endloop
  endfacet
  facet normal 0.195091 0.980785 0
    outer loop
      vertex 21 5 3
      vertex 22.9134 4.6194 0
      vertex 21 5 0
    endloop
  endfacet
  facet normal 0.980785 -0.195091 0
    outer loop
      vertex 25.6194 -1.91342 3
      vertex 26 0 0
      vertex 26 0 3
    endloop
  endfacet
  facet normal 0.980785 -0.195091 0
    outer loop
      vertex 26 0 0
      vertex 25.6194 -1.91342 3
      vertex 25.6194 -1.91342 0
    endloop
  endfacet
  facet normal 0.83147 -0.55557 0
    outer loop
      vertex 24.5355 -3.53553 3
      vertex 25.6194 -1.91342 0
      vertex 25.6194 -1.91342 3
    endloop
  endfacet
  facet normal 0.83147 -0.55557 0
    outer loop
      vertex 25.6194 -1.91342 0
      vertex 24.5355 -3.53553 3
      vertex 24.5355 -3.53553 0
    endloop
  endfacet
  facet normal -0.900969 -0.433884 0
    outer loop
      vertex 23 0 0
      vertex 22.247 1.56366 3
      vertex 22.247 1.56366 0
    endloop
  endfacet
  facet normal -0.900969 -0.433884 0
    outer loop
      vertex 22.247 1.56366 3
      vertex 23 0 0
      vertex 23 0 3
    endloop
  endfacet
  facet normal 1 -0 0
    outer loop
      vertex 19.1981 -0.867767 3
      vertex 19.1981 0.867767 0
      vertex 19.1981 0.867767 3
    endloop
  endfacet
  facet normal 1 0 0
    outer loop
      vertex 19.1981 0.867767 0
      vertex 19.1981 -0.867767 3
      vertex 19.1981 -0.867767 0
    endloop
  endfacet
  facet normal -0.222521 -0.974928 0
    outer loop
      vertex 20.555 1.94986 0
      vertex 22.247 1.56366 3
      vertex 20.555 1.94986 3
    endloop
  endfacet
  facet normal -0.222521 -0.974928 -0
    outer loop
      vertex 22.247 1.56366 3
      vertex 20.555 1.94986 0
      vertex 22.247 1.56366 0
    endloop
  endfacet
  facet normal 0.62349 -0.781831 0
    outer loop
      vertex 19.1981 0.867767 0
      vertex 20.555 1.94986 3
      vertex 19.1981 0.867767 3
    endloop
  endfacet
  facet normal 0.62349 -0.781831 0
    outer loop
      vertex 20.555 1.94986 3
      vertex 19.1981 0.867767 0
      vertex 20.555 1.94986 0
    endloop
  endfacet
  facet normal -0.900969 0.433884 0
    outer loop
      vertex 22.247 -1.56366 0
      vertex 23 0 3
      vertex 23 0 0
    endloop
  endfacet
  facet normal -0.900969 0.433884 0
    outer loop
      vertex 23 0 3
      vertex 22.247 -1.56366 0
      vertex 22.247 -1.56366 3
    endloop
  endfacet
  facet normal -0.222521 0.974928 0
    outer loop
      vertex 22.247 -1.56366 0
      vertex 20.555 -1.94986 3
      vertex 22.247 -1.56366 3
    endloop
  endfacet
  facet normal -0.222521 0.974928 0
    outer loop
      vertex 20.555 -1.94986 3
      vertex 22.247 -1.56366 0
      vertex 20.555 -1.94986 0
    endloop
  endfacet
  facet normal 0.62349 0.781831 -0
    outer loop
      vertex 20.555 -1.94986 0
      vertex 19.1981 -0.867767 3
      vertex 20.555 -1.94986 3
    endloop
  endfacet
  facet normal 0.62349 0.781831 0
    outer loop
      vertex 19.1981 -0.867767 3
      vertex 20.555 -1.94986 0
      vertex 19.1981 -0.867767 0
    endloop
  endfacet
  facet normal -1 0 0
    outer loop
      vertex -5 3.06152e-016 0
      vertex -5 21 3
      vertex -5 21 0
    endloop
  endfacet
  facet normal -1 -0 0
    outer loop
      vertex -5 21 3
      vertex -5 3.06152e-016 0
      vertex -5 3.06152e-016 3
    endloop
  endfacet
  facet normal 1 -0 0
    outer loop
      vertex 5 5 3
      vertex 5 21 0
      vertex 5 21 3
    endloop
  endfacet
  facet normal 1 0 0
    outer loop
      vertex 5 21 0
      vertex 5 5 3
      vertex 5 5 0
    endloop
  endfacet
  facet normal -0.195091 0.980785 0
    outer loop
      vertex 1.59199e-015 26 0
      vertex -1.91342 25.6194 3
      vertex 1.59199e-015 26 3
    endloop
  endfacet
  facet normal -0.195091 0.980785 0
    outer loop
      vertex -1.91342 25.6194 3
      vertex 1.59199e-015 26 0
      vertex -1.91342 25.6194 0
    endloop
  endfacet
  facet normal 0.980785 0.195091 0
    outer loop
      vertex 5 21 3
      vertex 4.6194 22.9134 0
      vertex 4.6194 22.9134 3
    endloop
  endfacet
  facet normal 0.980785 0.195091 0
    outer loop
      vertex 4.6194 22.9134 0
      vertex 5 21 3
      vertex 5 21 0
    endloop
  endfacet
  facet normal 0.83147 0.55557 0
    outer loop
      vertex 4.6194 22.9134 3
      vertex 3.53553 24.5355 0
      vertex 3.53553 24.5355 3
    endloop
  endfacet
  facet normal 0.83147 0.55557 0
    outer loop
      vertex 3.53553 24.5355 0
      vertex 4.6194 22.9134 3
      vertex 4.6194 22.9134 0
    endloop
  endfacet
  facet normal -0.83147 0.55557 0
    outer loop
      vertex -4.6194 22.9134 0
      vertex -3.53553 24.5355 3
      vertex -3.53553 24.5355 0
    endloop
  endfacet
  facet normal -0.83147 0.55557 0
    outer loop
      vertex -3.53553 24.5355 3
      vertex -4.6194 22.9134 0
      vertex -4.6194 22.9134 3
    endloop
  endfacet
  facet normal -0.55557 0.83147 0
    outer loop
      vertex -1.91342 25.6194 0
      vertex -3.53553 24.5355 3
      vertex -1.91342 25.6194 3
    endloop
  endfacet
  facet normal -0.55557 0.83147 0
    outer loop
      vertex -3.53553 24.5355 3
      vertex -1.91342 25.6194 0
      vertex -3.53553 24.5355 0
    endloop
  endfacet
  facet normal -0.980785 0.195091 0
    outer loop
      vertex -5 21 0
      vertex -4.6194 22.9134 3
      vertex -4.6194 22.9134 0
    endloop
  endfacet
  facet normal -0.980785 0.195091 0
    outer loop
      vertex -4.6194 22.9134 3
      vertex -5 21 0
      vertex -5 21 3
    endloop
  endfacet
  facet normal 0.195091 0.980785 -0
    outer loop
      vertex 1.91342 25.6194 0
      vertex 1.59199e-015 26 3
      vertex 1.91342 25.6194 3
    endloop
  endfacet
  facet normal 0.195091 0.980785 0
    outer loop
      vertex 1.59199e-015 26 3
      vertex 1.91342 25.6194 0
      vertex 1.59199e-015 26 0
    endloop
  endfacet
  facet normal 0.55557 0.83147 -0
    outer loop
      vertex 3.53553 24.5355 0
      vertex 1.91342 25.6194 3
      vertex 3.53553 24.5355 3
    endloop
  endfacet
  facet normal 0.55557 0.83147 0
    outer loop
      vertex 1.91342 25.6194 3
      vertex 3.53553 24.5355 0
      vertex 1.91342 25.6194 0
    endloop
  endfacet
  facet normal 0.433884 -0.900969 0
    outer loop
      vertex -1.56366 22.247 0
      vertex 1.4083e-015 23 3
      vertex -1.56366 22.247 3
    endloop
  endfacet
  facet normal 0.433884 -0.900969 0
    outer loop
      vertex 1.4083e-015 23 3
      vertex -1.56366 22.247 0
      vertex 1.4083e-015 23 0
    endloop
  endfacet
  facet normal 1.099e-006 1 -0
    outer loop
      vertex 0.867767 19.1981 0
      vertex -0.867767 19.1981 3
      vertex 0.867767 19.1981 3
    endloop
  endfacet
  facet normal 1.099e-006 1 0
    outer loop
      vertex -0.867767 19.1981 3
      vertex 0.867767 19.1981 0
      vertex -0.867767 19.1981 0
    endloop
  endfacet
  facet normal 0.974928 -0.222521 0
    outer loop
      vertex -1.94986 20.555 3
      vertex -1.56366 22.247 0
      vertex -1.56366 22.247 3
    endloop
  endfacet
  facet normal 0.974928 -0.222521 0
    outer loop
      vertex -1.56366 22.247 0
      vertex -1.94986 20.555 3
      vertex -1.94986 20.555 0
    endloop
  endfacet
  facet normal 0.781831 0.62349 0
    outer loop
      vertex -0.867767 19.1981 3
      vertex -1.94986 20.555 0
      vertex -1.94986 20.555 3
    endloop
  endfacet
  facet normal 0.781831 0.62349 0
    outer loop
      vertex -1.94986 20.555 0
      vertex -0.867767 19.1981 3
      vertex -0.867767 19.1981 0
    endloop
  endfacet
  facet normal -0.433884 -0.900969 0
    outer loop
      vertex 1.4083e-015 23 0
      vertex 1.56366 22.247 3
      vertex 1.4083e-015 23 3
    endloop
  endfacet
  facet normal -0.433884 -0.900969 -0
    outer loop
      vertex 1.56366 22.247 3
      vertex 1.4083e-015 23 0
      vertex 1.56366 22.247 0
    endloop
  endfacet
  facet normal -0.974928 -0.222521 0
    outer loop
      vertex 1.94986 20.555 0
      vertex 1.56366 22.247 3
      vertex 1.56366 22.247 0
    endloop
  endfacet
  facet normal -0.974928 -0.222521 0
    outer loop
      vertex 1.56366 22.247 3
      vertex 1.94986 20.555 0
      vertex 1.94986 20.555 3
    endloop
  endfacet
  facet normal -0.781831 0.62349 0
    outer loop
      vertex 0.867767 19.1981 0
      vertex 1.94986 20.555 3
      vertex 1.94986 20.555 0
    endloop
  endfacet
  facet normal -0.781831 0.62349 0
    outer loop
      vertex 1.94986 20.555 3
      vertex 0.867767 19.1981 0
      vertex 0.867767 19.1981 3
    endloop
  endfacet
  facet normal -1 0 0
    outer loop
      vertex -5 0 0
      vertex -5 3.06152e-016 3
      vertex -5 3.06152e-016 0
    endloop
  endfacet
  facet normal -1 -0 0
    outer loop
      vertex -5 3.06152e-016 3
      vertex -5 0 0
      vertex -5 0 3
    endloop
  endfacet
  facet normal -0.195091 -0.980785 0
    outer loop
      vertex -1.91342 -4.6194 0
      vertex 0 -5 3
      vertex -1.91342 -4.6194 3
    endloop
  endfacet
  facet normal -0.195091 -0.980785 -0
    outer loop
      vertex 0 -5 3
      vertex -1.91342 -4.6194 0
      vertex 0 -5 0
    endloop
  endfacet
  facet normal -0.55557 -0.83147 0
    outer loop
      vertex -3.53553 -3.53553 0
      vertex -1.91342 -4.6194 3
      vertex -3.53553 -3.53553 3
    endloop
  endfacet
  facet normal -0.55557 -0.83147 -0
    outer loop
      vertex -1.91342 -4.6194 3
      vertex -3.53553 -3.53553 0
      vertex -1.91342 -4.6194 0
    endloop
  endfacet
  facet normal -0.980785 -0.195091 0
    outer loop
      vertex -4.6194 -1.91342 0
      vertex -5 0 3
      vertex -5 0 0
    endloop
  endfacet
  facet normal -0.980785 -0.195091 0
    outer loop
      vertex -5 0 3
      vertex -4.6194 -1.91342 0
      vertex -4.6194 -1.91342 3
    endloop
  endfacet
  facet normal -0.83147 -0.55557 0
    outer loop
      vertex -3.53553 -3.53553 0
      vertex -4.6194 -1.91342 3
      vertex -4.6194 -1.91342 0
    endloop
  endfacet
  facet normal -0.83147 -0.55557 0
    outer loop
      vertex -4.6194 -1.91342 3
      vertex -3.53553 -3.53553 0
      vertex -3.53553 -3.53553 3
    endloop
  endfacet
endsolid OpenSCAD_Model
