<?xml version="1.0" encoding="UTF-8" standalone="no"?>
<!DOCTYPE svg PUBLIC "-//W3C//DTD SVG 1.1//EN" "http://www.w3.org/Graphics/SVG/1.1/DTD/svg11.dtd">
<svg width="100%" height="100%" viewBox="0 0 437 475" version="1.1" xmlns="http://www.w3.org/2000/svg" xmlns:xlink="http://www.w3.org/1999/xlink" xml:space="preserve" xmlns:serif="http://www.serif.com/" style="fill-rule:evenodd;clip-rule:evenodd;stroke-linecap:round;stroke-linejoin:round;">
    <g id="Neue_Ebene_1">
        <path id="Hafte" d="M219.676,37.116L220.45,36.659C221.85,36.592 222.9,36.551 223.599,36.535C224.298,36.518 225.792,36.5 228.079,36.479C230.366,36.458 232.23,36.468 233.669,36.509C235.108,36.55 236.192,36.58 236.919,36.599C237.647,36.618 239.58,36.723 242.719,36.913C245.858,37.104 248.901,37.428 251.85,37.887C254.799,38.346 257.358,38.825 259.527,39.325C261.695,39.825 262.807,40.086 262.862,40.107C262.917,40.128 263.684,40.361 265.162,40.805C266.64,41.249 267.775,41.614 268.568,41.901C269.36,42.188 270.932,42.834 273.283,43.839C275.634,44.844 277.958,45.942 280.254,47.133C282.551,48.324 284.71,49.548 286.732,50.803C288.754,52.058 290.25,53.016 291.22,53.677C292.191,54.338 293.199,55.065 294.244,55.858C295.289,56.651 296.765,57.827 298.673,59.386C300.582,60.946 301.915,62.069 302.674,62.756C303.433,63.443 304.276,64.218 305.203,65.081C306.13,65.944 307.159,66.945 308.289,68.085C309.418,69.225 310.943,70.835 312.863,72.915C314.783,74.996 316.202,76.568 317.12,77.632C318.039,78.697 318.945,79.78 319.838,80.882C320.732,81.985 321.628,83.14 322.525,84.348C323.422,85.556 324.433,86.904 325.559,88.392C326.191,89.274 326.718,90.035 327.141,90.675C327.563,91.315 328.06,92.049 328.632,92.878C329.203,93.707 329.723,94.488 330.191,95.219C330.659,95.95 331.395,97.15 332.4,98.821C333.404,100.492 334.248,101.91 334.933,103.077C335.618,104.244 336.211,105.305 336.712,106.26C337.213,107.215 337.691,108.138 338.146,109.027C338.601,109.916 339.094,110.882 339.625,111.925C340.156,112.968 340.689,114.053 341.224,115.178C341.759,116.303 342.239,117.385 342.665,118.424C343.092,119.464 343.613,120.764 344.23,122.324C344.847,123.885 345.39,125.304 345.86,126.582C346.329,127.861 346.597,128.612 346.664,128.837C346.731,129.062 346.975,129.821 347.397,131.114C347.818,132.407 348.273,133.892 348.76,135.569C349.247,137.246 349.6,138.469 349.819,139.237C350.038,140.005 350.214,140.712 350.346,141.357C350.477,142.003 350.654,142.913 350.876,144.086C351.098,145.259 351.292,146.434 351.458,147.609C351.625,148.784 351.829,150.936 352.071,154.067C352.314,157.198 352.427,159.96 352.41,162.353C352.394,164.746 352.199,168.079 351.824,172.351C351.45,176.623 351.238,178.906 351.187,179.2C351.137,179.495 351.051,180.036 350.928,180.824C350.806,181.613 350.515,183.182 350.055,185.532C349.596,187.882 349.017,190.413 348.318,193.124C347.619,195.835 346.662,198.983 345.447,202.568C344.232,206.153 343.266,208.806 342.549,210.527C341.832,212.248 341.14,213.89 340.474,215.454C339.808,217.019 339.031,218.774 338.144,220.719C337.256,222.665 336.535,224.204 335.982,225.337C335.428,226.47 334.373,228.64 332.818,231.848C331.262,235.056 329.904,237.799 328.744,240.077C327.583,242.355 326.636,244.193 325.902,245.591C325.169,246.99 323.819,249.576 321.852,253.351C319.885,257.125 318.72,259.326 318.358,259.953C317.995,260.58 316.499,263.015 313.869,267.26C311.24,271.504 309.362,274.463 308.237,276.138C307.112,277.812 306.119,279.277 305.256,280.532C304.393,281.787 303.296,283.415 301.964,285.417C300.632,287.419 299.492,289.204 298.543,290.771C297.594,292.339 296.233,294.686 294.458,297.812C292.683,300.939 291.679,302.743 291.447,303.224C291.215,303.705 290.842,304.485 290.329,305.564C289.816,306.643 289.486,307.373 289.339,307.754C289.193,308.135 289.109,308.545 289.087,308.984C289.19,309.057 289.359,309.086 289.594,309.07C289.83,309.055 290.153,309.002 290.563,308.912C290.973,308.821 291.427,308.709 291.924,308.574C292.421,308.44 292.874,308.307 293.282,308.174C293.689,308.041 294.147,307.878 294.656,307.683C295.165,307.488 295.813,307.241 296.602,306.942C297.391,306.644 297.813,306.486 297.868,306.469C297.923,306.452 298.663,306.161 300.089,305.598C301.515,305.035 302.429,304.665 302.832,304.49C303.235,304.315 303.743,304.114 304.356,303.887C304.969,303.66 305.748,303.38 306.695,303.045C307.642,302.71 308.649,302.402 309.717,302.12C310.785,301.839 311.468,301.662 311.765,301.589C312.062,301.516 313.322,301.329 315.544,301.026C317.767,300.723 319.853,300.594 321.804,300.639C323.755,300.684 326.582,301.053 330.285,301.744C333.988,302.435 336.326,302.958 337.297,303.312C338.268,303.665 338.89,303.903 339.165,304.025C339.44,304.147 340.096,304.455 341.131,304.948C342.167,305.441 343.295,306.074 344.516,306.849C345.737,307.624 346.537,308.143 346.917,308.406C347.296,308.669 347.646,308.926 347.965,309.178C348.284,309.431 348.825,309.902 349.588,310.592C350.351,311.283 351.073,311.984 351.754,312.696C352.435,313.408 353.485,314.666 354.904,316.47C356.323,318.274 357.331,319.665 357.926,320.642C358.521,321.619 359.082,322.627 359.607,323.666C360.132,324.706 360.8,326.369 361.61,328.656C362.42,330.943 362.932,332.6 363.146,333.627C363.361,334.654 363.591,336.689 363.838,339.732C364.085,342.775 364.2,345.349 364.184,347.454C364.168,349.559 364.137,351.057 364.091,351.948C364.045,352.84 363.952,354.269 363.811,356.234C363.67,358.2 363.521,359.844 363.364,361.165C363.206,362.486 363.009,363.81 362.774,365.135C362.538,366.461 362.265,367.86 361.955,369.333C361.646,370.805 360.817,372.989 359.47,375.885C358.122,378.782 356.426,381.516 354.382,384.089C352.337,386.662 350.847,388.395 349.91,389.288C348.973,390.181 347.726,391.26 346.169,392.527C344.612,393.794 343.634,394.556 343.237,394.812C342.84,395.069 342.328,395.405 341.701,395.821C341.074,396.236 340.3,396.724 339.381,397.283C338.462,397.842 337.338,398.475 336.01,399.182C334.682,399.889 332.393,400.782 329.144,401.863C325.895,402.944 322.779,403.636 319.796,403.94C316.813,404.245 315.051,404.38 314.509,404.346C313.967,404.312 312.89,404.18 311.279,403.949C309.667,403.718 307.848,403.339 305.822,402.81C303.797,402.281 302.203,401.81 301.042,401.399C299.881,400.988 298.711,400.543 297.531,400.066C296.35,399.589 295.447,399.202 294.82,398.907C294.193,398.612 293.245,398.161 291.977,397.556C290.709,396.95 288.808,395.888 286.274,394.37C283.74,392.853 281.759,391.555 280.33,390.476C278.901,389.398 277.717,388.431 276.779,387.575C275.841,386.718 275.163,386.092 274.746,385.697C274.328,385.302 273.296,384.136 271.649,382.201C270.002,380.266 268.899,378.89 268.338,378.073C267.777,377.257 267.128,376.277 266.393,375.133C265.658,373.988 264.919,372.7 264.176,371.268C263.433,369.836 262.614,368.046 261.718,365.897C260.822,363.748 260.211,362.184 259.886,361.203C259.561,360.222 258.996,358.109 258.189,354.864C257.383,351.619 256.887,349.445 256.7,348.342C256.514,347.239 256.304,345.756 256.071,343.893C255.838,342.03 255.649,339.807 255.506,337.222C255.362,334.638 255.297,331.972 255.312,329.223C255.327,326.474 255.417,323.905 255.58,321.515C255.744,319.126 255.987,316.528 256.31,313.722C256.632,310.917 256.933,308.621 257.213,306.835C257.494,305.049 257.992,302.162 258.707,298.174C259.423,294.185 259.975,291.274 260.364,289.44C260.753,287.606 261.66,283.611 263.083,277.455C264.507,271.299 265.291,267.956 265.434,267.426C265.577,266.895 265.879,265.73 266.342,263.929C266.805,262.128 267.532,259.45 268.525,255.895C269.518,252.34 270.3,249.609 270.869,247.7C271.438,245.792 272.354,242.777 273.615,238.654C274.876,234.532 276.232,229.966 277.684,224.956C279.136,219.947 279.953,217.092 280.136,216.393C280.319,215.694 280.636,214.39 281.087,212.483C281.538,210.575 281.847,209.218 282.015,208.412C282.182,207.606 282.704,204.643 283.579,199.523C284.454,194.402 284.967,191.192 285.119,189.892C285.272,188.592 285.428,187.191 285.588,185.688C285.748,184.185 285.859,183.079 285.92,182.37C285.981,181.66 286.079,180.175 286.212,177.915C286.346,175.655 286.443,173.405 286.502,171.166C286.561,168.927 286.565,166.591 286.512,164.159C286.46,161.727 286.302,159.07 286.039,156.188C285.776,153.307 285.385,150.458 284.866,147.643C284.347,144.828 283.826,142.559 283.301,140.838C282.776,139.117 282.313,137.752 281.911,136.745C281.509,135.738 281.072,134.745 280.6,133.766C280.128,132.787 279.681,131.924 279.258,131.177C278.836,130.43 278.337,129.63 277.762,128.779C277.187,127.928 276.149,126.54 274.647,124.615C273.146,122.691 271.909,121.229 270.936,120.228C269.963,119.227 268.244,117.712 265.779,115.683C263.314,113.654 261.913,112.526 261.578,112.301C261.242,112.076 260.37,111.514 258.963,110.616C257.556,109.718 256.114,108.869 254.637,108.068C253.16,107.267 251.79,106.591 250.527,106.041C249.265,105.491 248.281,105.066 247.576,104.767C246.871,104.468 246.21,104.215 245.593,104.008C244.976,103.801 243.444,103.35 240.996,102.656C238.549,101.961 236.662,101.47 235.335,101.181C234.009,100.893 232.657,100.633 231.279,100.401C229.902,100.17 228.571,99.999 227.286,99.888C226.001,99.777 225.056,99.704 224.451,99.669C223.847,99.634 222.902,99.611 221.617,99.601C220.332,99.59 218.418,99.683 215.875,99.88C213.332,100.076 211.457,100.286 210.252,100.509C209.047,100.732 208.023,100.932 207.18,101.11C206.337,101.287 205.427,101.503 204.452,101.756C203.476,102.01 202.149,102.386 200.472,102.884C198.795,103.383 197.688,103.74 197.153,103.957C196.618,104.174 195.676,104.586 194.326,105.193C192.976,105.799 191.766,106.4 190.695,106.995C189.624,107.59 188.549,108.227 187.472,108.906C186.395,109.585 185.088,110.52 183.552,111.71C182.017,112.9 180.887,113.858 180.164,114.584C179.441,115.31 178.526,116.332 177.418,117.649C176.311,118.966 175.094,120.629 173.769,122.638C172.444,124.647 171.255,126.728 170.202,128.883C169.149,131.038 168.14,133.4 167.176,135.969C166.213,138.538 165.311,141.29 164.47,144.224C163.63,147.157 162.923,149.896 162.35,152.439C161.777,154.983 161.366,157.022 161.118,158.557C160.87,160.092 160.589,162.575 160.276,166.008C159.962,169.441 159.928,172.737 160.174,175.896C160.42,179.055 160.727,181.684 161.096,183.781C161.465,185.879 161.816,187.635 162.15,189.05C162.484,190.465 162.939,192.261 163.514,194.438C164.089,196.615 164.745,198.963 165.481,201.482C166.218,204.002 166.73,205.729 167.017,206.664C167.305,207.599 167.759,209.045 168.379,211.004C168.999,212.963 169.55,214.694 170.033,216.196C170.515,217.697 171.215,219.827 172.133,222.584C173.05,225.341 173.664,227.202 173.975,228.165C174.286,229.128 174.664,230.263 175.11,231.572C175.556,232.881 175.962,234.1 176.327,235.23C176.693,236.359 177.176,237.848 177.776,239.697C178.376,241.546 178.948,243.332 179.491,245.057C180.034,246.782 180.587,248.537 181.151,250.322C181.714,252.107 182.379,254.266 183.144,256.8C183.909,259.334 184.66,261.897 185.395,264.49C186.13,267.083 186.638,268.884 186.921,269.895C187.204,270.905 187.843,273.228 188.837,276.865C189.83,280.501 190.547,283.146 190.988,284.801C191.428,286.456 191.666,287.346 191.701,287.47C191.737,287.595 191.885,288.136 192.146,289.095C192.407,290.054 192.725,291.289 193.101,292.8C193.477,294.311 193.956,296.335 194.538,298.872C195.12,301.408 195.42,302.737 195.438,302.858C195.456,302.979 195.57,303.608 195.78,304.745C195.99,305.883 196.178,306.911 196.345,307.828C196.512,308.746 196.677,309.73 196.842,310.78C197.007,311.83 197.182,313.062 197.369,314.475C197.556,315.888 197.736,317.32 197.909,318.769C198.082,320.218 198.22,321.581 198.324,322.857C198.427,324.132 198.551,326.319 198.696,329.416C198.841,332.513 198.925,334.588 198.95,335.643C198.975,336.698 198.963,338.331 198.914,340.542C198.866,342.753 198.762,345.163 198.602,347.773C198.442,350.382 198.246,352.62 198.014,354.486C197.782,356.352 197.408,358.607 196.892,361.25C196.376,363.893 195.795,366.263 195.15,368.359C194.504,370.454 194.042,371.822 193.764,372.463C193.486,373.104 192.874,374.375 191.929,376.276C190.984,378.178 190.131,379.753 189.368,381.002C188.605,382.251 187.907,383.301 187.272,384.151C186.637,385.001 186.013,385.801 185.398,386.551C184.784,387.302 184.235,387.939 183.75,388.464C183.265,388.989 182.665,389.589 181.95,390.262C181.235,390.935 180.316,391.743 179.195,392.685C178.074,393.628 176.894,394.533 175.657,395.401C174.42,396.269 173.423,396.961 172.666,397.476C171.91,397.991 171.31,398.383 170.865,398.652C170.421,398.921 169.874,399.233 169.223,399.587C168.573,399.94 167.844,400.325 167.035,400.742C166.226,401.159 165.501,401.513 164.858,401.806C164.216,402.099 163.712,402.316 163.347,402.457C162.982,402.599 162.298,402.856 161.296,403.229C160.293,403.602 159.611,403.855 159.25,403.988C158.889,404.122 158.325,404.309 157.56,404.549C156.795,404.788 156.08,404.992 155.415,405.16C154.75,405.327 154.059,405.495 153.34,405.664C152.621,405.833 151.528,406.024 150.061,406.238C148.593,406.452 147.336,406.624 146.291,406.753C145.245,406.882 144.25,406.956 143.307,406.977C142.364,406.998 141.458,407.003 140.587,406.991C139.717,406.979 138.879,406.934 138.073,406.855C137.266,406.776 136.819,406.727 136.731,406.708C136.643,406.689 135.794,406.529 134.184,406.229C132.575,405.929 131.491,405.69 130.934,405.512C130.377,405.334 129.574,405.038 128.525,404.624C127.476,404.209 126.451,403.766 125.452,403.293C124.452,402.82 123.615,402.393 122.94,402.012C122.265,401.631 120.863,400.658 118.736,399.093C116.609,397.529 114.65,395.877 112.857,394.136C111.064,392.395 109.403,390.525 107.874,388.525C106.344,386.526 105.432,385.314 105.138,384.891C104.843,384.467 104.386,383.753 103.767,382.75C103.148,381.747 102.461,380.57 101.708,379.219C100.955,377.869 100.396,376.804 100.032,376.025C99.668,375.246 99.18,374.023 98.569,372.355C97.958,370.687 97.525,369.363 97.271,368.382C97.016,367.401 96.762,366.044 96.509,364.311C96.255,362.578 96.133,360.742 96.143,358.804C96.153,356.865 96.329,354.646 96.67,352.145C97.011,349.644 97.261,348.044 97.421,347.344C97.58,346.644 97.921,345.374 98.444,343.535C98.966,341.696 99.511,339.935 100.078,338.251C100.645,336.568 100.984,335.603 101.096,335.357C101.697,333.879 102.373,332.274 103.122,330.543C103.871,328.812 104.371,327.703 104.622,327.215C104.873,326.727 105.164,326.187 105.497,325.594C105.829,325.001 106.172,324.39 106.525,323.762C106.879,323.133 107.278,322.439 107.722,321.679C108.166,320.919 108.871,319.876 109.837,318.551C110.803,317.226 111.926,315.904 113.206,314.586C114.486,313.268 115.668,312.219 116.753,311.439C117.838,310.66 119.204,309.825 120.851,308.936C122.498,308.047 124.275,307.3 126.182,306.695C128.089,306.09 129.785,305.653 131.271,305.386C132.757,305.119 134.368,304.919 136.103,304.785C137.838,304.651 139.249,304.604 140.335,304.645C141.421,304.686 142.289,304.757 142.94,304.859C143.591,304.962 144.818,305.212 146.623,305.611C148.428,306.01 149.964,306.408 151.233,306.807C152.502,307.206 153.404,307.51 153.939,307.719C154.474,307.928 155.32,308.222 156.476,308.601C157.632,308.98 158.315,309.195 158.525,309.245C158.736,309.295 159.142,309.377 159.743,309.49C160.344,309.603 160.891,309.661 161.382,309.664C161.873,309.666 162.242,309.63 162.491,309.555C162.739,309.48 162.993,309.334 163.253,309.119C163.325,308.944 163.394,308.749 163.461,308.533C163.528,308.318 163.476,307.827 163.307,307.061C163.138,306.295 162.911,305.688 162.626,305.239C162.341,304.79 161.834,304.098 161.103,303.161C160.372,302.224 159.678,301.393 159.019,300.666C158.361,299.939 157.263,298.641 155.725,296.773C154.187,294.905 152.826,293.172 151.641,291.574C150.456,289.976 149.232,288.237 147.968,286.356C146.704,284.475 145.545,282.732 144.491,281.127C143.438,279.522 142.496,278.07 141.666,276.772C140.837,275.473 140.001,274.164 139.16,272.843C138.318,271.522 137.694,270.525 137.287,269.85C136.88,269.175 136.301,268.192 135.55,266.899C134.798,265.607 134.102,264.405 133.462,263.292C132.822,262.18 132.374,261.388 132.119,260.915C131.864,260.443 131.363,259.516 130.616,258.133C129.868,256.75 129.11,255.34 128.342,253.905C127.574,252.47 126.958,251.301 126.495,250.399C126.032,249.497 125.227,247.981 124.078,245.85C122.93,243.719 122.055,242.118 121.452,241.047C120.85,239.976 120.271,238.938 119.716,237.931C119.161,236.925 118.326,235.415 117.21,233.401C116.093,231.387 115.323,229.992 114.898,229.215C114.473,228.439 113.982,227.542 113.425,226.524C112.869,225.507 112.359,224.54 111.894,223.623C111.43,222.706 110.972,221.772 110.52,220.822C110.069,219.872 109.468,218.591 108.719,216.979C107.969,215.367 107.304,213.888 106.724,212.542C106.145,211.196 105.486,209.629 104.747,207.841C104.009,206.053 103.175,203.913 102.244,201.421C101.313,198.93 100.533,196.663 99.905,194.62C99.277,192.578 98.846,191.171 98.611,190.399C98.376,189.626 98.13,188.741 97.871,187.742C97.612,186.743 97.394,185.845 97.219,185.049C97.044,184.254 96.863,183.424 96.676,182.56C96.49,181.696 96.258,180.447 95.98,178.813C95.703,177.18 95.51,175.941 95.403,175.097C95.295,174.253 95.134,172.378 94.919,169.471C94.705,166.564 94.586,164.845 94.561,164.316C94.536,163.786 94.515,162.875 94.498,161.584C94.481,160.292 94.511,158.62 94.589,156.567C94.667,154.514 94.723,153.281 94.758,152.868C94.793,152.454 94.836,151.835 94.887,151.011C94.939,150.186 95.077,148.745 95.302,146.687C95.527,144.628 95.835,142.408 96.228,140.025C96.62,137.643 96.875,136.128 96.993,135.481C97.111,134.834 97.407,133.506 97.882,131.498C98.356,129.491 98.917,127.396 99.566,125.214C100.215,123.033 100.765,121.305 101.216,120.032C101.667,118.759 102.248,117.276 102.961,115.583C103.674,113.89 104.429,112.204 105.227,110.525C106.025,108.846 106.813,107.281 107.592,105.83C108.371,104.379 109.487,102.5 110.94,100.191C112.393,97.882 113.495,96.195 114.246,95.129C114.997,94.063 115.665,93.13 116.252,92.329C116.839,91.528 118.152,89.881 120.192,87.389C122.232,84.897 123.971,82.851 125.408,81.25C126.845,79.649 128.765,77.644 131.17,75.235C133.574,72.826 135.111,71.321 135.781,70.722C136.452,70.123 137.259,69.408 138.204,68.578C139.149,67.749 140.497,66.628 142.249,65.216C144.001,63.805 144.913,63.075 144.986,63.028C145.058,62.981 145.977,62.338 147.743,61.101C149.509,59.864 150.995,58.855 152.202,58.072C153.409,57.29 154.674,56.52 155.996,55.761C157.317,55.002 158.326,54.428 159.022,54.039C159.718,53.65 160.52,53.234 161.427,52.791C162.335,52.347 163.649,51.728 165.369,50.935C167.089,50.142 168.237,49.606 168.814,49.329C169.391,49.052 170.01,48.769 170.671,48.478C171.333,48.188 172.27,47.791 173.482,47.288C174.694,46.785 175.933,46.289 177.199,45.8C178.466,45.312 179.652,44.862 180.759,44.451C181.866,44.04 183.292,43.528 185.037,42.916C186.782,42.303 187.702,41.986 187.796,41.963C187.891,41.94 188.264,41.83 188.915,41.633C189.567,41.436 190.807,41.069 192.635,40.533C194.463,39.996 195.509,39.697 195.773,39.636C196.037,39.575 196.68,39.422 197.702,39.177C198.723,38.932 199.921,38.681 201.296,38.424C202.671,38.167 204.041,37.929 205.406,37.709C206.771,37.489 208.661,37.291 211.074,37.116C213.487,36.941 214.972,36.857 215.529,36.865C216.085,36.874 216.66,36.891 217.255,36.916C217.849,36.941 218.656,37.008 219.676,37.116ZM289.961,350.111L288.576,352.361L289.35,354.884C290.042,356.957 290.539,358.4 290.841,359.212C291.142,360.023 291.368,360.637 291.518,361.052C291.668,361.467 291.929,362.075 292.301,362.876C292.672,363.677 293.092,364.517 293.559,365.396C294.026,366.275 294.358,366.885 294.553,367.225C294.749,367.566 295.02,368.014 295.366,368.57C295.713,369.126 296.155,369.791 296.693,370.564C297.231,371.337 297.942,372.223 298.827,373.223C299.712,374.222 300.559,375.091 301.368,375.828C302.177,376.566 303.266,377.356 304.636,378.199C306.006,379.042 307.12,379.619 307.978,379.932C308.836,380.245 309.898,380.511 311.163,380.732C312.428,380.953 313.305,381.064 313.792,381.065C314.279,381.066 315.377,380.964 317.085,380.761C318.793,380.558 319.717,380.434 319.856,380.389C319.995,380.344 320.288,380.25 320.736,380.107C321.184,379.964 321.969,379.67 323.09,379.226C324.211,378.782 325.333,378.24 326.458,377.6C327.583,376.961 328.369,376.482 328.815,376.164C329.261,375.847 329.935,375.299 330.836,374.521C331.737,373.744 332.817,372.574 334.076,371.013C335.335,369.452 336.276,368.091 336.899,366.93C337.523,365.769 338.081,364.484 338.573,363.077C339.064,361.669 339.503,359.666 339.889,357.068C340.274,354.469 340.463,352.514 340.455,351.203C340.446,349.892 340.272,348.113 339.931,345.868C339.59,343.623 339.346,342.288 339.199,341.864C339.052,341.44 338.881,340.966 338.688,340.443C338.495,339.92 338.236,339.317 337.911,338.635C337.586,337.953 336.951,336.884 336.007,335.427C335.063,333.971 334.341,332.977 333.842,332.445C333.343,331.913 332.021,330.974 329.876,329.629C327.731,328.284 326.307,327.503 325.602,327.288C324.897,327.073 323.958,326.897 322.783,326.758C321.609,326.621 320.026,326.694 318.033,326.979C316.04,327.264 314.138,327.739 312.327,328.404C310.516,329.068 308.531,330.067 306.373,331.4C304.215,332.733 302.592,333.865 301.504,334.798C300.416,335.73 299.315,336.796 298.201,337.996C297.087,339.195 296.133,340.319 295.34,341.366C294.546,342.413 293.928,343.264 293.487,343.921C293.046,344.578 292.625,345.228 292.224,345.873C291.824,346.518 291.418,347.235 291.006,348.023C290.595,348.811 290.246,349.507 289.961,350.111ZM170.023,341.806C168.421,341.239 167.036,340.731 165.868,340.282C164.699,339.833 163.818,339.495 163.223,339.269C162.628,339.043 161.838,338.72 160.853,338.299C159.868,337.878 158.447,337.259 156.589,336.442C154.732,335.625 153.283,334.992 152.243,334.545C151.203,334.097 149.711,333.589 147.768,333.022C145.825,332.455 144.592,332.122 144.07,332.023C143.547,331.924 142.63,331.843 141.318,331.782C140.007,331.721 139.218,331.695 138.953,331.704C138.688,331.713 138.194,331.775 137.473,331.889C136.752,332.003 135.951,332.197 135.071,332.47C134.191,332.743 133.236,333.117 132.205,333.59C131.174,334.063 130.179,334.641 129.219,335.324C128.26,336.007 127.56,336.536 127.121,336.909C126.682,337.282 126.138,337.821 125.487,338.527C124.836,339.233 124.215,339.96 123.622,340.709C123.029,341.458 122.493,342.199 122.014,342.932C121.535,343.665 121.066,344.478 120.607,345.372C120.148,346.267 119.699,347.281 119.262,348.415C118.825,349.549 118.447,350.737 118.13,351.979C117.813,353.221 117.568,354.44 117.397,355.637C117.225,356.834 117.12,358.039 117.081,359.253C117.042,360.466 117.052,361.519 117.109,362.412C117.167,363.304 117.308,364.365 117.532,365.596C117.757,366.827 118.052,368.001 118.419,369.118C118.786,370.235 119.048,370.978 119.206,371.347C119.363,371.716 119.722,372.373 120.281,373.319C120.84,374.266 121.472,375.171 122.179,376.034C122.886,376.897 123.72,377.753 124.681,378.6C125.642,379.447 126.546,380.122 127.392,380.625C128.238,381.128 128.816,381.448 129.127,381.586C129.438,381.725 129.994,381.952 130.796,382.268C131.597,382.584 132.764,382.892 134.297,383.192C135.829,383.492 137.037,383.654 137.92,383.678C138.803,383.701 139.569,383.698 140.22,383.667C140.871,383.636 141.68,383.53 142.648,383.351C143.617,383.171 144.393,382.997 144.978,382.829C145.562,382.66 146.107,382.478 146.612,382.281C147.117,382.084 147.834,381.746 148.764,381.266C149.694,380.786 150.631,380.241 151.574,379.631C152.517,379.021 153.452,378.331 154.378,377.561C155.304,376.792 156.055,376.137 156.632,375.598C157.209,375.059 158.132,374.027 159.401,372.503C160.67,370.979 161.593,369.769 162.172,368.873C162.751,367.977 163.469,366.641 164.326,364.866C165.184,363.091 165.843,361.59 166.302,360.362C166.761,359.135 167.087,358.187 167.282,357.52C167.477,356.853 167.664,356.21 167.843,355.593C168.022,354.976 168.2,354.258 168.379,353.439C168.558,352.62 168.714,351.812 168.846,351.013C168.978,350.214 169.061,349.621 169.096,349.233C169.131,348.845 169.445,347.21 170.04,344.327L170.023,341.806Z" style="fill-rule:nonzero;stroke:rgb(23,22,18);stroke-width:6.8px;"/>
    </g>
</svg>
