999
"DXF R12 Output" (www.mydxf.blogspot.com)
 0 
SECTION
 2 
HEADER
 9 
$ACADVER
 1 
AC1009
 9 
$EXTMIN
 10 
 0 
 20 
 0 
 9 
$EXTMAX
 10 
 8.5 
 20 
 11 
 0 
ENDSEC
 0 
SECTION
 2 
ENTITIES
0
LINE
8
Layer 1
10
61.997400
20
123.581000
11
62.215800
21
123.710000
0
LINE
8
Layer 1
10
62.215800
20
123.710000
11
63.104600
21
123.745000
0
LINE
8
Layer 1
10
63.104600
20
123.745000
11
64.368900
21
123.761000
0
LINE
8
Layer 1
10
64.368900
20
123.761000
11
65.946500
21
123.752000
0
LINE
8
Layer 1
10
65.946500
20
123.752000
11
66.863800
21
123.727000
0
LINE
8
Layer 1
10
66.863800
20
123.727000
11
68.500600
21
123.638000
0
LINE
8
Layer 1
10
68.500600
20
123.638000
11
71.077600
21
123.363000
0
LINE
8
Layer 1
10
71.077600
20
123.363000
11
73.244200
21
122.958000
0
LINE
8
Layer 1
10
73.244200
20
122.958000
11
74.185400
21
122.737000
0
LINE
8
Layer 1
10
74.185400
20
122.737000
11
74.834500
21
122.540000
0
LINE
8
Layer 1
10
74.834500
20
122.540000
11
75.795800
21
122.231000
0
LINE
8
Layer 1
10
75.795800
20
122.231000
11
77.126500
21
121.684000
0
LINE
8
Layer 1
10
77.126500
20
121.684000
11
79.093800
21
120.754000
0
LINE
8
Layer 1
10
79.093800
20
120.754000
11
80.922100
21
119.718000
0
LINE
8
Layer 1
10
80.922100
20
119.718000
11
82.188700
21
118.907000
0
LINE
8
Layer 1
10
82.188700
20
118.907000
11
83.042100
21
118.292000
0
LINE
8
Layer 1
10
83.042100
20
118.292000
11
84.292100
21
117.296000
0
LINE
8
Layer 1
10
84.292100
20
117.296000
11
85.421300
21
116.345000
0
LINE
8
Layer 1
10
85.421300
20
116.345000
11
86.135000
21
115.689000
0
LINE
8
Layer 1
10
86.135000
20
115.689000
11
87.005900
21
114.841000
0
LINE
8
Layer 1
10
87.005900
20
114.841000
11
88.296800
21
113.478000
0
LINE
8
Layer 1
10
88.296800
20
113.478000
11
89.498200
21
112.147000
0
LINE
8
Layer 1
10
89.498200
20
112.147000
11
90.265300
21
111.229000
0
LINE
8
Layer 1
10
90.265300
20
111.229000
11
91.023700
21
110.251000
0
LINE
8
Layer 1
10
91.023700
20
110.251000
11
91.879900
21
109.110000
0
LINE
8
Layer 1
10
91.879900
20
109.110000
11
92.326400
21
108.466000
0
LINE
8
Layer 1
10
92.326400
20
108.466000
11
92.747200
21
107.844000
0
LINE
8
Layer 1
10
92.747200
20
107.844000
11
93.187200
21
107.183000
0
LINE
8
Layer 1
10
93.187200
20
107.183000
11
93.810600
21
106.167000
0
LINE
8
Layer 1
10
93.810600
20
106.167000
11
94.525500
21
104.965000
0
LINE
8
Layer 1
10
94.525500
20
104.965000
11
95.027500
21
104.067000
0
LINE
8
Layer 1
10
95.027500
20
104.067000
11
95.432200
21
103.286000
0
LINE
8
Layer 1
10
95.432200
20
103.286000
11
95.849600
21
102.468000
0
LINE
8
Layer 1
10
95.849600
20
102.468000
11
96.300900
21
101.550000
0
LINE
8
Layer 1
10
96.300900
20
101.550000
11
96.707600
21
100.634000
0
LINE
8
Layer 1
10
96.707600
20
100.634000
11
97.149300
21
99.533500
0
LINE
8
Layer 1
10
97.149300
20
99.533500
11
97.609300
21
98.331800
0
LINE
8
Layer 1
10
97.609300
20
98.331800
11
97.836200
21
97.695400
0
LINE
8
Layer 1
10
97.836200
20
97.695400
11
98.043100
21
97.052700
0
LINE
8
Layer 1
10
98.043100
20
97.052700
11
98.427700
21
95.795400
0
LINE
8
Layer 1
10
98.427700
20
95.795400
11
98.726600
21
94.760300
0
LINE
8
Layer 1
10
98.726600
20
94.760300
11
98.875300
21
94.161900
0
LINE
8
Layer 1
10
98.875300
20
94.161900
11
99.024900
21
93.391800
0
LINE
8
Layer 1
10
99.024900
20
93.391800
11
99.189200
21
92.397500
0
LINE
8
Layer 1
10
99.189200
20
92.397500
11
99.362200
21
90.574900
0
LINE
8
Layer 1
10
99.362200
20
90.574900
11
99.457900
21
88.236400
0
LINE
8
Layer 1
10
99.457900
20
88.236400
11
99.292500
21
85.414800
0
LINE
8
Layer 1
10
99.292500
20
85.414800
11
99.112700
21
83.481800
0
LINE
8
Layer 1
10
99.112700
20
83.481800
11
99.039600
21
83.023500
0
LINE
8
Layer 1
10
99.039600
20
83.023500
11
98.793200
21
81.694800
0
LINE
8
Layer 1
10
98.793200
20
81.694800
11
98.303000
21
79.552200
0
LINE
8
Layer 1
10
98.303000
20
79.552200
11
97.492700
21
76.886900
0
LINE
8
Layer 1
10
97.492700
20
76.886900
11
96.674900
21
74.640600
0
LINE
8
Layer 1
10
96.674900
20
74.640600
11
96.089300
21
73.250100
0
LINE
8
Layer 1
10
96.089300
20
73.250100
11
95.431700
21
71.764200
0
LINE
8
Layer 1
10
95.431700
20
71.764200
11
94.821500
21
70.460900
0
LINE
8
Layer 1
10
94.821500
20
70.460900
11
93.928600
21
68.623400
0
LINE
8
Layer 1
10
93.928600
20
68.623400
11
92.778800
21
66.301000
0
LINE
8
Layer 1
10
92.778800
20
66.301000
11
91.976700
21
64.744800
0
LINE
8
Layer 1
10
91.976700
20
64.744800
11
90.833700
21
62.554800
0
LINE
8
Layer 1
10
90.833700
20
62.554800
11
89.847600
21
60.691500
0
LINE
8
Layer 1
10
89.847600
20
60.691500
11
88.580700
21
58.629300
0
LINE
8
Layer 1
10
88.580700
20
58.629300
11
86.991300
21
56.123800
0
LINE
8
Layer 1
10
86.991300
20
56.123800
11
86.150000
21
54.883700
0
LINE
8
Layer 1
10
86.150000
20
54.883700
11
85.220900
21
53.505000
0
LINE
8
Layer 1
10
85.220900
20
53.505000
11
84.255400
21
51.994000
0
LINE
8
Layer 1
10
84.255400
20
51.994000
11
83.102500
21
50.006900
0
LINE
8
Layer 1
10
83.102500
20
50.006900
11
82.252800
21
48.479500
0
LINE
8
Layer 1
10
82.252800
20
48.479500
11
81.937200
21
47.819100
0
LINE
8
Layer 1
10
81.937200
20
47.819100
11
81.657800
21
47.201100
0
LINE
8
Layer 1
10
81.657800
20
47.201100
11
81.586700
21
46.853900
0
LINE
8
Layer 1
10
81.586700
20
46.853900
11
81.729800
21
46.829600
0
LINE
8
Layer 1
10
81.729800
20
46.829600
11
82.003300
21
46.874200
0
LINE
8
Layer 1
10
82.003300
20
46.874200
11
82.387400
21
46.969600
0
LINE
8
Layer 1
10
82.387400
20
46.969600
11
82.770600
21
47.082500
0
LINE
8
Layer 1
10
82.770600
20
47.082500
11
83.158400
21
47.221100
0
LINE
8
Layer 1
10
83.158400
20
47.221100
11
83.707600
21
47.430200
0
LINE
8
Layer 1
10
83.707600
20
47.430200
11
84.064900
21
47.563700
0
LINE
8
Layer 1
10
84.064900
20
47.563700
11
84.691700
21
47.809500
0
LINE
8
Layer 1
10
84.691700
20
47.809500
11
85.465900
21
48.122200
0
LINE
8
Layer 1
10
85.465900
20
48.122200
11
85.896000
21
48.292400
0
LINE
8
Layer 1
10
85.896000
20
48.292400
11
86.556100
21
48.530000
0
LINE
8
Layer 1
10
86.556100
20
48.530000
11
87.409000
21
48.791100
0
LINE
8
Layer 1
10
87.409000
20
48.791100
11
87.986900
21
48.940900
0
LINE
8
Layer 1
10
87.986900
20
48.940900
11
89.053500
21
49.099800
0
LINE
8
Layer 1
10
89.053500
20
49.099800
11
90.820200
21
49.209100
0
LINE
8
Layer 1
10
90.820200
20
49.209100
11
93.213700
21
48.897200
0
LINE
8
Layer 1
10
93.213700
20
48.897200
11
95.192600
21
48.454700
0
LINE
8
Layer 1
10
95.192600
20
48.454700
11
95.719800
21
48.253500
0
LINE
8
Layer 1
10
95.719800
20
48.253500
11
96.274700
21
47.993000
0
LINE
8
Layer 1
10
96.274700
20
47.993000
11
97.230000
21
47.456500
0
LINE
8
Layer 1
10
97.230000
20
47.456500
11
97.907600
21
47.017000
0
LINE
8
Layer 1
10
97.907600
20
47.017000
11
98.203400
21
46.799200
0
LINE
8
Layer 1
10
98.203400
20
46.799200
11
98.661400
21
46.400100
0
LINE
8
Layer 1
10
98.661400
20
46.400100
11
99.272700
21
45.806300
0
LINE
8
Layer 1
10
99.272700
20
45.806300
11
100.162000
21
44.741200
0
LINE
8
Layer 1
10
100.162000
20
44.741200
11
101.015000
21
43.563800
0
LINE
8
Layer 1
10
101.015000
20
43.563800
11
101.489000
21
42.710300
0
LINE
8
Layer 1
10
101.489000
20
42.710300
11
102.054000
21
41.302000
0
LINE
8
Layer 1
10
102.054000
20
41.302000
11
102.488000
21
39.899100
0
LINE
8
Layer 1
10
102.488000
20
39.899100
11
102.683000
21
38.176200
0
LINE
8
Layer 1
10
102.683000
20
38.176200
11
102.781000
21
35.996800
0
LINE
8
Layer 1
10
102.781000
20
35.996800
11
102.754000
21
34.728500
0
LINE
8
Layer 1
10
102.754000
20
34.728500
11
102.675000
21
33.518900
0
LINE
8
Layer 1
10
102.675000
20
33.518900
11
102.549000
21
32.127300
0
LINE
8
Layer 1
10
102.549000
20
32.127300
11
102.383000
21
31.006900
0
LINE
8
Layer 1
10
102.383000
20
31.006900
11
102.152000
21
29.822100
0
LINE
8
Layer 1
10
102.152000
20
29.822100
11
101.450000
21
27.973000
0
LINE
8
Layer 1
10
101.450000
20
27.973000
11
100.805875
21
26.781025
0
LINE
8
Layer 1
10
100.805875
20
26.781025
11
100.014000
21
25.657600
0
LINE
8
Layer 1
10
100.014000
20
25.657600
11
98.752300
21
24.190400
0
LINE
8
Layer 1
10
98.752300
20
24.190400
11
97.696500
21
23.276200
0
LINE
8
Layer 1
10
97.696500
20
23.276200
11
96.869000
21
22.631400
0
LINE
8
Layer 1
10
96.869000
20
22.631400
11
96.435500
21
22.346600
0
LINE
8
Layer 1
10
96.435500
20
22.346600
11
95.780800
21
21.934000
0
LINE
8
Layer 1
10
95.780800
20
21.934000
11
94.829400
21
21.398100
0
LINE
8
Layer 1
10
94.829400
20
21.398100
11
92.891700
21
20.641400
0
LINE
8
Layer 1
10
92.891700
20
20.641400
11
90.253500
21
20.055200
0
LINE
8
Layer 1
10
90.253500
20
20.055200
11
88.761400
21
19.940700
0
LINE
8
Layer 1
10
88.761400
20
19.940700
11
87.849800
21
20.052700
0
LINE
8
Layer 1
10
87.849800
20
20.052700
11
86.309700
21
20.374200
0
LINE
8
Layer 1
10
86.309700
20
20.374200
11
84.960700
21
20.772400
0
LINE
8
Layer 1
10
84.960700
20
20.772400
11
83.969800
21
21.148600
0
LINE
8
Layer 1
10
83.969800
20
21.148600
11
83.204700
21
21.475700
0
LINE
8
Layer 1
10
83.204700
20
21.475700
11
82.402300
21
21.857000
0
LINE
8
Layer 1
10
82.402300
20
21.857000
11
80.792800
21
22.756100
0
LINE
8
Layer 1
10
80.792800
20
22.756100
11
79.115300
21
23.855100
0
LINE
8
Layer 1
10
79.115300
20
23.855100
11
78.113100
21
24.673800
0
LINE
8
Layer 1
10
78.113100
20
24.673800
11
77.539400
21
25.203800
0
LINE
8
Layer 1
10
77.539400
20
25.203800
11
76.665300
21
26.190500
0
LINE
8
Layer 1
10
76.665300
20
26.190500
11
75.730900
21
27.355500
0
LINE
8
Layer 1
10
75.730900
20
27.355500
11
75.182000
21
28.185200
0
LINE
8
Layer 1
10
75.182000
20
28.185200
11
74.556300
21
29.276000
0
LINE
8
Layer 1
10
74.556300
20
29.276000
11
73.862600
21
30.791800
0
LINE
8
Layer 1
10
73.862600
20
30.791800
11
73.345500
21
32.116600
0
LINE
8
Layer 1
10
73.345500
20
32.116600
11
72.866600
21
33.905600
0
LINE
8
Layer 1
10
72.866600
20
33.905600
11
72.446400
21
35.746200
0
LINE
8
Layer 1
10
72.446400
20
35.746200
11
72.268900
21
37.001800
0
LINE
8
Layer 1
10
72.268900
20
37.001800
11
72.109400
21
38.884500
0
LINE
8
Layer 1
10
72.109400
20
38.884500
11
72.054700
21
41.142000
0
LINE
8
Layer 1
10
72.054700
20
41.142000
11
72.130300
21
43.317400
0
LINE
8
Layer 1
10
72.130300
20
43.317400
11
72.336300
21
45.516700
0
LINE
8
Layer 1
10
72.336300
20
45.516700
11
72.591200
21
47.460400
0
LINE
8
Layer 1
10
72.591200
20
47.460400
11
73.012800
21
49.904700
0
LINE
8
Layer 1
10
73.012800
20
49.904700
11
73.480400
21
52.369700
0
LINE
8
Layer 1
10
73.480400
20
52.369700
11
74.247800
21
55.752100
0
LINE
8
Layer 1
10
74.247800
20
55.752100
11
74.911300
21
58.582500
0
LINE
8
Layer 1
10
74.911300
20
58.582500
11
75.167600
21
59.569400
0
LINE
8
Layer 1
10
75.167600
20
59.569400
11
75.783700
21
61.836800
0
LINE
8
Layer 1
10
75.783700
20
61.836800
11
76.445200
21
64.149600
0
LINE
8
Layer 1
10
76.445200
20
64.149600
11
77.220200
21
66.702600
0
LINE
8
Layer 1
10
77.220200
20
66.702600
11
78.368500
21
70.568500
0
LINE
8
Layer 1
10
78.368500
20
70.568500
11
79.060500
21
72.985100
0
LINE
8
Layer 1
10
79.060500
20
72.985100
11
79.328900
21
74.088600
0
LINE
8
Layer 1
10
79.328900
20
74.088600
11
79.590800
21
75.237500
0
LINE
8
Layer 1
10
79.590800
20
75.237500
11
80.032200
21
77.746200
0
LINE
8
Layer 1
10
80.032200
20
77.746200
11
80.466900
21
80.464300
0
LINE
8
Layer 1
10
80.466900
20
80.464300
11
80.599200
21
81.650800
0
LINE
8
Layer 1
10
80.599200
20
81.650800
11
80.692900
21
82.587200
0
LINE
8
Layer 1
10
80.692900
20
82.587200
11
80.775300
21
83.844500
0
LINE
8
Layer 1
10
80.775300
20
83.844500
11
80.857200
21
85.749200
0
LINE
8
Layer 1
10
80.857200
20
85.749200
11
80.860000
21
87.726700
0
LINE
8
Layer 1
10
80.860000
20
87.726700
11
80.726500
21
89.976300
0
LINE
8
Layer 1
10
80.726500
20
89.976300
11
80.395500
21
92.387900
0
LINE
8
Layer 1
10
80.395500
20
92.387900
11
79.953800
21
94.308400
0
LINE
8
Layer 1
10
79.953800
20
94.308400
11
79.561500
21
95.463600
0
LINE
8
Layer 1
10
79.561500
20
95.463600
11
79.191500
21
96.304300
0
LINE
8
Layer 1
10
79.191500
20
96.304300
11
78.812800
21
97.035000
0
LINE
8
Layer 1
10
78.812800
20
97.035000
11
78.390500
21
97.711700
0
LINE
8
Layer 1
10
78.390500
20
97.711700
11
77.511400
21
98.886900
0
LINE
8
Layer 1
10
77.511400
20
98.886900
11
76.464100
21
100.125000
0
LINE
8
Layer 1
10
76.464100
20
100.125000
11
75.008700
21
101.408000
0
LINE
8
Layer 1
10
75.008700
20
101.408000
11
73.823100
21
102.362000
0
LINE
8
Layer 1
10
73.823100
20
102.362000
11
73.085100
21
102.838000
0
LINE
8
Layer 1
10
73.085100
20
102.838000
11
71.864200
21
103.557000
0
LINE
8
Layer 1
10
71.864200
20
103.557000
11
70.704200
21
104.129000
0
LINE
8
Layer 1
10
70.704200
20
104.129000
11
69.871400
21
104.488000
0
LINE
8
Layer 1
10
69.871400
20
104.488000
11
69.311700
21
104.703000
0
LINE
8
Layer 1
10
69.311700
20
104.703000
11
68.014400
21
105.084000
0
LINE
8
Layer 1
10
68.014400
20
105.084000
11
66.416700
21
105.500000
0
LINE
8
Layer 1
10
66.416700
20
105.500000
11
65.272000
21
105.721000
0
LINE
8
Layer 1
10
65.272000
20
105.721000
11
64.145100
21
105.865000
0
LINE
8
Layer 1
10
64.145100
20
105.865000
11
63.345000
21
105.927000
0
LINE
8
Layer 1
10
63.345000
20
105.927000
11
62.545200
21
105.946000
0
LINE
8
Layer 1
10
62.545200
20
105.946000
11
60.924700
21
105.868000
0
LINE
8
Layer 1
10
60.924700
20
105.868000
11
59.337700
21
105.690000
0
LINE
8
Layer 1
10
59.337700
20
105.690000
11
58.470800
21
105.521000
0
LINE
8
Layer 1
10
58.470800
20
105.521000
11
57.700900
21
105.338000
0
LINE
8
Layer 1
10
57.700900
20
105.338000
11
56.577600
21
105.020000
0
LINE
8
Layer 1
10
56.577600
20
105.020000
11
55.640900
21
104.717000
0
LINE
8
Layer 1
10
55.640900
20
104.717000
11
54.843100
21
104.368000
0
LINE
8
Layer 1
10
54.843100
20
104.368000
11
53.818300
21
103.860000
0
LINE
8
Layer 1
10
53.818300
20
103.860000
11
52.908700
21
103.320000
0
LINE
8
Layer 1
10
52.908700
20
103.320000
11
51.802400
21
102.529000
0
LINE
8
Layer 1
10
51.802400
20
102.529000
11
50.846200
21
101.718000
0
LINE
8
Layer 1
10
50.846200
20
101.718000
11
50.071300
21
100.853000
0
LINE
8
Layer 1
10
50.071300
20
100.853000
11
49.041400
21
99.444900
0
LINE
8
Layer 1
10
49.041400
20
99.444900
11
48.034700
21
97.682400
0
LINE
8
Layer 1
10
48.034700
20
97.682400
11
47.180700
21
95.682600
0
LINE
8
Layer 1
10
47.180700
20
95.682600
11
46.417100
21
93.352800
0
LINE
8
Layer 1
10
46.417100
20
93.352800
11
45.818700
21
91.034400
0
LINE
8
Layer 1
10
45.818700
20
91.034400
11
45.471000
21
89.307700
0
LINE
8
Layer 1
10
45.471000
20
89.307700
11
45.233400
21
87.204900
0
LINE
8
Layer 1
10
45.233400
20
87.204900
11
45.204600
21
84.414300
0
LINE
8
Layer 1
10
45.204600
20
84.414300
11
45.464800
21
82.189000
0
LINE
8
Layer 1
10
45.464800
20
82.189000
11
45.762300
21
80.701900
0
LINE
8
Layer 1
10
45.762300
20
80.701900
11
46.147200
21
79.181300
0
LINE
8
Layer 1
10
46.147200
20
79.181300
11
46.702400
21
77.193300
0
LINE
8
Layer 1
10
46.702400
20
77.193300
11
47.135900
21
75.730900
0
LINE
8
Layer 1
10
47.135900
20
75.730900
11
47.520300
21
74.506000
0
LINE
8
Layer 1
10
47.520300
20
74.506000
11
47.987100
21
73.040700
0
LINE
8
Layer 1
10
47.987100
20
73.040700
11
48.579700
21
71.237900
0
LINE
8
Layer 1
10
48.579700
20
71.237900
11
49.099600
21
69.662800
0
LINE
8
Layer 1
10
49.099600
20
69.662800
11
49.419900
21
68.701300
0
LINE
8
Layer 1
10
49.419900
20
68.701300
11
49.763400
21
67.668900
0
LINE
8
Layer 1
10
49.763400
20
67.668900
11
50.172300
21
66.408200
0
LINE
8
Layer 1
10
50.172300
20
66.408200
11
50.656300
21
64.895500
0
LINE
8
Layer 1
10
50.656300
20
64.895500
11
51.124800
21
63.409600
0
LINE
8
Layer 1
10
51.124800
20
63.409600
11
51.687300
21
61.581400
0
LINE
8
Layer 1
10
51.687300
20
61.581400
11
52.322500
21
59.411100
0
LINE
8
Layer 1
10
52.322500
20
59.411100
11
52.753200
21
57.885700
0
LINE
8
Layer 1
10
52.753200
20
57.885700
11
53.294000
21
55.918600
0
LINE
8
Layer 1
10
53.294000
20
55.918600
11
53.901000
21
53.678900
0
LINE
8
Layer 1
10
53.901000
20
53.678900
11
54.102200
21
52.925600
0
LINE
8
Layer 1
10
54.102200
20
52.925600
11
54.227800
21
52.467000
0
LINE
8
Layer 1
10
54.227800
20
52.467000
11
54.497400
21
51.421400
0
LINE
8
Layer 1
10
54.497400
20
51.421400
11
54.902900
21
49.707700
0
LINE
8
Layer 1
10
54.902900
20
49.707700
11
55.156900
21
48.582800
0
LINE
8
Layer 1
10
55.156900
20
48.582800
11
55.253400
21
48.050300
0
LINE
8
Layer 1
10
55.253400
20
48.050300
11
55.412900
21
47.180200
0
LINE
8
Layer 1
10
55.412900
20
47.180200
11
55.553100
21
46.347000
0
LINE
8
Layer 1
10
55.553100
20
46.347000
11
55.701900
21
45.304200
0
LINE
8
Layer 1
10
55.701900
20
45.304200
11
55.854300
21
44.092400
0
LINE
8
Layer 1
10
55.854300
20
44.092400
11
55.971400
21
42.938700
0
LINE
8
Layer 1
10
55.971400
20
42.938700
11
56.076400
21
41.087600
0
LINE
8
Layer 1
10
56.076400
20
41.087600
11
56.148100
21
39.330200
0
LINE
8
Layer 1
10
56.148100
20
39.330200
11
56.137900
21
37.947600
0
LINE
8
Layer 1
10
56.137900
20
37.947600
11
56.049900
21
35.906800
0
LINE
8
Layer 1
10
56.049900
20
35.906800
11
55.883900
21
34.012300
0
LINE
8
Layer 1
10
55.883900
20
34.012300
11
55.567300
21
32.103300
0
LINE
8
Layer 1
10
55.567300
20
32.103300
11
55.075600
21
30.097000
0
LINE
8
Layer 1
10
55.075600
20
30.097000
11
54.684500
21
28.938700
0
LINE
8
Layer 1
10
54.684500
20
28.938700
11
54.166600
21
27.862600
0
LINE
8
Layer 1
10
54.166600
20
27.862600
11
53.443800
21
26.528900
0
LINE
8
Layer 1
10
53.443800
20
26.528900
11
52.852300
21
25.640100
0
LINE
8
Layer 1
10
52.852300
20
25.640100
11
52.323400
21
24.962800
0
LINE
8
Layer 1
10
52.323400
20
24.962800
11
51.858300
21
24.422900
0
LINE
8
Layer 1
10
51.858300
20
24.422900
11
51.350300
21
23.915500
0
LINE
8
Layer 1
10
51.350300
20
23.915500
11
50.572800
21
23.231700
0
LINE
8
Layer 1
10
50.572800
20
23.231700
11
49.574300
21
22.465100
0
LINE
8
Layer 1
10
49.574300
20
22.465100
11
48.730100
21
21.879500
0
LINE
8
Layer 1
10
48.730100
20
21.879500
11
48.221900
21
21.547600
0
LINE
8
Layer 1
10
48.221900
20
21.547600
11
47.758500
21
21.283800
0
LINE
8
Layer 1
10
47.758500
20
21.283800
11
47.141000
21
20.957800
0
LINE
8
Layer 1
10
47.141000
20
20.957800
11
46.526600
21
20.657500
0
LINE
8
Layer 1
10
46.526600
20
20.657500
11
46.100100
21
20.473800
0
LINE
8
Layer 1
10
46.100100
20
20.473800
11
45.521300
21
20.255900
0
LINE
8
Layer 1
10
45.521300
20
20.255900
11
44.943900
21
20.041700
0
LINE
8
Layer 1
10
44.943900
20
20.041700
11
44.466900
21
19.883400
0
LINE
8
Layer 1
10
44.466900
20
19.883400
11
43.861500
21
19.710900
0
LINE
8
Layer 1
10
43.861500
20
19.710900
11
43.275900
21
19.568700
0
LINE
8
Layer 1
10
43.275900
20
19.568700
11
42.350500
21
19.406700
0
LINE
8
Layer 1
10
42.350500
20
19.406700
11
41.286500
21
19.261400
0
LINE
8
Layer 1
10
41.286500
20
19.261400
11
40.444400
21
19.198100
0
LINE
8
Layer 1
10
40.444400
20
19.198100
11
39.676700
21
19.194200
0
LINE
8
Layer 1
10
39.676700
20
19.194200
11
38.967200
21
19.232600
0
LINE
8
Layer 1
10
38.967200
20
19.232600
11
38.588500
21
19.274100
0
LINE
8
Layer 1
10
38.588500
20
19.274100
11
37.869700
21
19.409200
0
LINE
8
Layer 1
10
37.869700
20
19.409200
11
36.952500
21
19.611600
0
LINE
8
Layer 1
10
36.952500
20
19.611600
11
36.272600
21
19.862200
0
LINE
8
Layer 1
10
36.272600
20
19.862200
11
35.405300
21
20.237800
0
LINE
8
Layer 1
10
35.405300
20
20.237800
11
34.696400
21
20.599400
0
LINE
8
Layer 1
10
34.696400
20
20.599400
11
33.509900
21
21.423200
0
LINE
8
Layer 1
10
33.509900
20
21.423200
11
31.850700
21
22.822100
0
LINE
8
Layer 1
10
31.850700
20
22.822100
11
30.444400
21
24.405700
0
LINE
8
Layer 1
10
30.444400
20
24.405700
11
29.672300
21
25.431300
0
LINE
8
Layer 1
10
29.672300
20
25.431300
11
29.285300
21
26.035500
0
LINE
8
Layer 1
10
29.285300
20
26.035500
11
28.704200
21
27.032100
0
LINE
8
Layer 1
10
28.704200
20
27.032100
11
28.231200
21
27.933500
0
LINE
8
Layer 1
10
28.231200
20
27.933500
11
27.818300
21
28.969200
0
LINE
8
Layer 1
10
27.818300
20
28.969200
11
27.452000
21
30.090500
0
LINE
8
Layer 1
10
27.452000
20
30.090500
11
27.237000
21
31.239400
0
LINE
8
Layer 1
10
27.237000
20
31.239400
11
27.133700
21
32.793600
0
LINE
8
Layer 1
10
27.133700
20
32.793600
11
27.282400
21
34.672900
0
LINE
8
Layer 1
10
27.282400
20
34.672900
11
27.494300
21
36.027900
0
LINE
8
Layer 1
10
27.494300
20
36.027900
11
27.783100
21
37.102900
0
LINE
8
Layer 1
10
27.783100
20
37.102900
11
28.244200
21
38.594100
0
LINE
8
Layer 1
10
28.244200
20
38.594100
11
28.531500
21
39.410900
0
LINE
8
Layer 1
10
28.531500
20
39.410900
11
29.103300
21
40.769500
0
LINE
8
Layer 1
10
29.103300
20
40.769500
11
29.526600
21
41.708700
0
LINE
8
Layer 1
10
29.526600
20
41.708700
11
29.773600
21
42.166200
0
LINE
8
Layer 1
10
29.773600
20
42.166200
11
30.063700
21
42.683200
0
LINE
8
Layer 1
10
30.063700
20
42.683200
11
30.401500
21
43.271100
0
LINE
8
Layer 1
10
30.401500
20
43.271100
11
30.998400
21
44.153900
0
LINE
8
Layer 1
10
30.998400
20
44.153900
11
31.949200
21
45.272900
0
LINE
8
Layer 1
10
31.949200
20
45.272900
11
32.950300
21
46.161100
0
LINE
8
Layer 1
10
32.950300
20
46.161100
11
34.106800
21
46.867500
0
LINE
8
Layer 1
10
34.106800
20
46.867500
11
35.611300
21
47.499900
0
LINE
8
Layer 1
10
35.611300
20
47.499900
11
37.047600
21
47.869400
0
LINE
8
Layer 1
10
37.047600
20
47.869400
11
38.411300
21
48.039000
0
LINE
8
Layer 1
10
38.411300
20
48.039000
11
39.605600
21
48.078500
0
LINE
8
Layer 1
10
39.605600
20
48.078500
11
40.340800
21
48.018100
0
LINE
8
Layer 1
10
40.340800
20
48.018100
11
41.380200
21
47.805900
0
LINE
8
Layer 1
10
41.380200
20
47.805900
11
42.681300
21
47.468300
0
LINE
8
Layer 1
10
42.681300
20
47.468300
11
43.445000
21
47.210900
0
LINE
8
Layer 1
10
43.445000
20
47.210900
11
44.161000
21
46.962000
0
LINE
8
Layer 1
10
44.161000
20
46.962000
11
44.739200
21
46.780300
0
LINE
8
Layer 1
10
44.739200
20
46.780300
11
45.083000
21
46.711100
0
LINE
8
Layer 1
10
45.083000
20
46.711100
11
45.545600
21
46.662000
0
LINE
8
Layer 1
10
45.545600
20
46.662000
11
45.858500
21
46.692800
0
LINE
8
Layer 1
10
45.858500
20
46.692800
11
46.073600
21
46.815800
0
LINE
8
Layer 1
10
46.073600
20
46.815800
11
46.132300
21
46.981200
0
LINE
8
Layer 1
10
46.132300
20
46.981200
11
46.088800
21
47.396600
0
LINE
8
Layer 1
10
46.088800
20
47.396600
11
45.896600
21
47.910800
0
LINE
8
Layer 1
10
45.896600
20
47.910800
11
45.466800
21
48.497300
0
LINE
8
Layer 1
10
45.466800
20
48.497300
11
44.878700
21
49.201400
0
LINE
8
Layer 1
10
44.878700
20
49.201400
11
43.949000
21
50.300100
0
LINE
8
Layer 1
10
43.949000
20
50.300100
11
42.796400
21
51.767400
0
LINE
8
Layer 1
10
42.796400
20
51.767400
11
41.759800
21
53.240000
0
LINE
8
Layer 1
10
41.759800
20
53.240000
11
40.778500
21
54.715800
0
LINE
8
Layer 1
10
40.778500
20
54.715800
11
39.981300
21
55.944900
0
LINE
8
Layer 1
10
39.981300
20
55.944900
11
39.274000
21
57.053700
0
LINE
8
Layer 1
10
39.274000
20
57.053700
11
38.745400
21
57.898400
0
LINE
8
Layer 1
10
38.745400
20
57.898400
11
38.255200
21
58.731200
0
LINE
8
Layer 1
10
38.255200
20
58.731200
11
37.665900
21
59.749200
0
LINE
8
Layer 1
10
37.665900
20
59.749200
11
37.286900
21
60.420000
0
LINE
8
Layer 1
10
37.286900
20
60.420000
11
36.862700
21
61.205200
0
LINE
8
Layer 1
10
36.862700
20
61.205200
11
36.220900
21
62.398400
0
LINE
8
Layer 1
10
36.220900
20
62.398400
11
35.699700
21
63.387900
0
LINE
8
Layer 1
10
35.699700
20
63.387900
11
35.017500
21
64.671700
0
LINE
8
Layer 1
10
35.017500
20
64.671700
11
34.276400
21
66.027200
0
LINE
8
Layer 1
10
34.276400
20
66.027200
11
33.786500
21
66.906600
0
LINE
8
Layer 1
10
33.786500
20
66.906600
11
33.079200
21
68.185100
0
LINE
8
Layer 1
10
33.079200
20
68.185100
11
32.426700
21
69.366500
0
LINE
8
Layer 1
10
32.426700
20
69.366500
11
32.011000
21
70.125900
0
LINE
8
Layer 1
10
32.011000
20
70.125900
11
31.578900
21
70.944700
0
LINE
8
Layer 1
10
31.578900
20
70.944700
11
31.191200
21
71.735200
0
LINE
8
Layer 1
10
31.191200
20
71.735200
11
30.682900
21
72.819800
0
LINE
8
Layer 1
10
30.682900
20
72.819800
11
30.119900
21
74.072000
0
LINE
8
Layer 1
10
30.119900
20
74.072000
11
29.561900
21
75.398700
0
LINE
8
Layer 1
10
29.561900
20
75.398700
11
28.855500
21
77.210600
0
LINE
8
Layer 1
10
28.855500
20
77.210600
11
28.195400
21
79.130000
0
LINE
8
Layer 1
10
28.195400
20
79.130000
11
27.830200
21
80.321200
0
LINE
8
Layer 1
10
27.830200
20
80.321200
11
27.621300
21
81.071100
0
LINE
8
Layer 1
10
27.621300
20
81.071100
11
27.437300
21
81.831100
0
LINE
8
Layer 1
10
27.437300
20
81.831100
11
27.284100
21
82.533600
0
LINE
8
Layer 1
10
27.284100
20
82.533600
11
27.087700
21
83.591000
0
LINE
8
Layer 1
10
27.087700
20
83.591000
11
26.924800
21
84.639800
0
LINE
8
Layer 1
10
26.924800
20
84.639800
11
26.788200
21
86.227600
0
LINE
8
Layer 1
10
26.788200
20
86.227600
11
26.687200
21
87.682400
0
LINE
8
Layer 1
10
26.687200
20
87.682400
11
26.669400
21
88.453400
0
LINE
8
Layer 1
10
26.669400
20
88.453400
11
26.695100
21
89.869300
0
LINE
8
Layer 1
10
26.695100
20
89.869300
11
26.742800
21
90.913300
0
LINE
8
Layer 1
10
26.742800
20
90.913300
11
26.779200
21
91.437400
0
LINE
8
Layer 1
10
26.779200
20
91.437400
11
26.896300
21
92.657700
0
LINE
8
Layer 1
10
26.896300
20
92.657700
11
27.157700
21
94.537900
0
LINE
8
Layer 1
10
27.157700
20
94.537900
11
27.373600
21
95.820300
0
LINE
8
Layer 1
10
27.373600
20
95.820300
11
27.624500
21
96.944400
0
LINE
8
Layer 1
10
27.624500
20
96.944400
11
28.099700
21
98.717900
0
LINE
8
Layer 1
10
28.099700
20
98.717900
11
28.565400
21
100.180000
0
LINE
8
Layer 1
10
28.565400
20
100.180000
11
29.057900
21
101.436000
0
LINE
8
Layer 1
10
29.057900
20
101.436000
11
29.697400
21
102.863000
0
LINE
8
Layer 1
10
29.697400
20
102.863000
11
30.364800
21
104.188000
0
LINE
8
Layer 1
10
30.364800
20
104.188000
11
31.309700
21
105.780000
0
LINE
8
Layer 1
10
31.309700
20
105.780000
11
32.242700
21
107.209000
0
LINE
8
Layer 1
10
32.242700
20
107.209000
11
32.808900
21
107.999000
0
LINE
8
Layer 1
10
32.808900
20
107.999000
11
33.920800
21
109.393000
0
LINE
8
Layer 1
10
33.920800
20
109.393000
11
35.392900
21
111.125000
0
LINE
8
Layer 1
10
35.392900
20
111.125000
11
37.019100
21
112.823000
0
LINE
8
Layer 1
10
37.019100
20
112.823000
11
38.320400
21
114.097000
0
LINE
8
Layer 1
10
38.320400
20
114.097000
11
39.004200
21
114.702000
0
LINE
8
Layer 1
10
39.004200
20
114.702000
11
40.145800
21
115.651000
0
LINE
8
Layer 1
10
40.145800
20
115.651000
11
40.918200
21
116.268000
0
LINE
8
Layer 1
10
40.918200
20
116.268000
11
41.696300
21
116.812000
0
LINE
8
Layer 1
10
41.696300
20
116.812000
11
42.954800
21
117.667000
0
LINE
8
Layer 1
10
42.954800
20
117.667000
11
44.025500
21
118.319000
0
LINE
8
Layer 1
10
44.025500
20
118.319000
11
44.879500
21
118.805000
0
LINE
8
Layer 1
10
44.879500
20
118.805000
11
45.558300
21
119.157000
0
LINE
8
Layer 1
10
45.558300
20
119.157000
11
46.670800
21
119.681000
0
LINE
8
Layer 1
10
46.670800
20
119.681000
11
47.643000
21
120.134000
0
LINE
8
Layer 1
10
47.643000
20
120.134000
11
48.167100
21
120.374000
0
LINE
8
Layer 1
10
48.167100
20
120.374000
11
48.960400
21
120.710000
0
LINE
8
Layer 1
10
48.960400
20
120.710000
11
50.009500
21
121.130000
0
LINE
8
Layer 1
10
50.009500
20
121.130000
11
51.014200
21
121.511000
0
LINE
8
Layer 1
10
51.014200
20
121.511000
11
52.221500
21
121.944000
0
LINE
8
Layer 1
10
52.221500
20
121.944000
11
53.000200
21
122.213000
0
LINE
8
Layer 1
10
53.000200
20
122.213000
11
53.316000
21
122.306000
0
LINE
8
Layer 1
10
53.316000
20
122.306000
11
54.365800
21
122.617000
0
LINE
8
Layer 1
10
54.365800
20
122.617000
11
55.251400
21
122.870000
0
LINE
8
Layer 1
10
55.251400
20
122.870000
11
55.795900
21
122.999000
0
LINE
8
Layer 1
10
55.795900
20
122.999000
11
56.810200
21
123.212000
0
LINE
8
Layer 1
10
56.810200
20
123.212000
11
57.970100
21
123.414000
0
LINE
8
Layer 1
10
57.970100
20
123.414000
11
59.569700
21
123.581000
0
LINE
8
Layer 1
10
59.569700
20
123.581000
11
60.827000
21
123.652000
0
LINE
8
Layer 1
10
60.827000
20
123.652000
11
61.314100
21
123.637000
0
LINE
8
Layer 1
10
61.314100
20
123.637000
11
61.997400
21
123.581000
0
LINE
8
Layer 1
10
61.997400
20
123.581000
11
61.997400
21
123.581000
0
LINE
8
Layer 1
10
81.833400
20
35.247000
11
81.442500
21
34.612000
0
LINE
8
Layer 1
10
81.442500
20
34.612000
11
81.660900
21
33.899900
0
LINE
8
Layer 1
10
81.660900
20
33.899900
11
82.081700
21
32.678500
0
LINE
8
Layer 1
10
82.081700
20
32.678500
11
82.272800
21
32.159200
0
LINE
8
Layer 1
10
82.272800
20
32.159200
11
82.493800
21
31.644400
0
LINE
8
Layer 1
10
82.493800
20
31.644400
11
82.848800
21
30.933200
0
LINE
8
Layer 1
10
82.848800
20
30.933200
11
83.129300
21
30.417000
0
LINE
8
Layer 1
10
83.129300
20
30.417000
11
83.358800
21
30.037400
0
LINE
8
Layer 1
10
83.358800
20
30.037400
11
83.733300
21
29.474700
0
LINE
8
Layer 1
10
83.733300
20
29.474700
11
84.335600
21
28.724300
0
LINE
8
Layer 1
10
84.335600
20
28.724300
11
85.052700
21
27.989100
0
LINE
8
Layer 1
10
85.052700
20
27.989100
11
85.975000
21
27.319900
0
LINE
8
Layer 1
10
85.975000
20
27.319900
11
86.918200
21
26.830800
0
LINE
8
Layer 1
10
86.918200
20
26.830800
11
87.817000
21
26.605100
0
LINE
8
Layer 1
10
87.817000
20
26.605100
11
88.559000
21
26.511100
0
LINE
8
Layer 1
10
88.559000
20
26.511100
11
89.488400
21
26.596900
0
LINE
8
Layer 1
10
89.488400
20
26.596900
11
90.270400
21
26.701900
0
LINE
8
Layer 1
10
90.270400
20
26.701900
11
90.518800
21
26.781400
0
LINE
8
Layer 1
10
90.518800
20
26.781400
11
91.183100
21
27.030100
0
LINE
8
Layer 1
10
91.183100
20
27.030100
11
92.133600
21
27.489000
0
LINE
8
Layer 1
10
92.133600
20
27.489000
11
92.798800
21
27.894200
0
LINE
8
Layer 1
10
92.798800
20
27.894200
11
93.369200
21
28.357900
0
LINE
8
Layer 1
10
93.369200
20
28.357900
11
94.283600
21
29.348000
0
LINE
8
Layer 1
10
94.283600
20
29.348000
11
95.080300
21
30.500300
0
LINE
8
Layer 1
10
95.080300
20
30.500300
11
95.552700
21
31.587700
0
LINE
8
Layer 1
10
95.552700
20
31.587700
11
95.924200
21
33.283600
0
LINE
8
Layer 1
10
95.924200
20
33.283600
11
96.083900
21
34.938800
0
LINE
8
Layer 1
10
96.083900
20
34.938800
11
95.936000
21
36.444400
0
LINE
8
Layer 1
10
95.936000
20
36.444400
11
95.729400
21
37.574500
0
LINE
8
Layer 1
10
95.729400
20
37.574500
11
95.585200
21
37.975500
0
LINE
8
Layer 1
10
95.585200
20
37.975500
11
95.365900
21
38.485800
0
LINE
8
Layer 1
10
95.365900
20
38.485800
11
94.828600
21
39.391100
0
LINE
8
Layer 1
10
94.828600
20
39.391100
11
94.217600
21
40.232700
0
LINE
8
Layer 1
10
94.217600
20
40.232700
11
93.098300
21
41.027400
0
LINE
8
Layer 1
10
93.098300
20
41.027400
11
91.892000
21
41.688100
0
LINE
8
Layer 1
10
91.892000
20
41.688100
11
91.096500
21
41.837700
0
LINE
8
Layer 1
10
91.096500
20
41.837700
11
89.755900
21
41.775300
0
LINE
8
Layer 1
10
89.755900
20
41.775300
11
88.145600
21
41.373200
0
LINE
8
Layer 1
10
88.145600
20
41.373200
11
86.465200
21
40.527600
0
LINE
8
Layer 1
10
86.465200
20
40.527600
11
85.091100
21
39.568600
0
LINE
8
Layer 1
10
85.091100
20
39.568600
11
84.158900
21
38.666100
0
LINE
8
Layer 1
10
84.158900
20
38.666100
11
83.351400
21
37.715000
0
LINE
8
Layer 1
10
83.351400
20
37.715000
11
82.828500
21
36.993900
0
LINE
8
Layer 1
10
82.828500
20
36.993900
11
82.472000
21
36.443000
0
LINE
8
Layer 1
10
82.472000
20
36.443000
11
82.128300
21
35.836300
0
LINE
8
Layer 1
10
82.128300
20
35.836300
11
81.833400
21
35.247000
0
LINE
8
Layer 1
10
81.833400
20
35.247000
11
81.833400
21
35.247000
0
LINE
8
Layer 1
10
47.984200
20
37.590800
11
46.811600
21
38.020900
0
LINE
8
Layer 1
10
46.811600
20
38.020900
11
46.065100
21
38.306800
0
LINE
8
Layer 1
10
46.065100
20
38.306800
11
45.396300
21
38.580600
0
LINE
8
Layer 1
10
45.396300
20
38.580600
11
44.192900
21
39.104700
0
LINE
8
Layer 1
10
44.192900
20
39.104700
11
42.966300
21
39.640000
0
LINE
8
Layer 1
10
42.966300
20
39.640000
11
41.703400
21
40.069900
0
LINE
8
Layer 1
10
41.703400
20
40.069900
11
40.659700
21
40.351800
0
LINE
8
Layer 1
10
40.659700
20
40.351800
11
39.883000
21
40.419800
0
LINE
8
Layer 1
10
39.883000
20
40.419800
11
39.215600
21
40.441800
0
LINE
8
Layer 1
10
39.215600
20
40.441800
11
38.797900
21
40.389600
0
LINE
8
Layer 1
10
38.797900
20
40.389600
11
38.120000
21
40.225700
0
LINE
8
Layer 1
10
38.120000
20
40.225700
11
37.311200
21
39.909600
0
LINE
8
Layer 1
10
37.311200
20
39.909600
11
36.468400
21
39.420200
0
LINE
8
Layer 1
10
36.468400
20
39.420200
11
35.876300
21
38.972900
0
LINE
8
Layer 1
10
35.876300
20
38.972900
11
35.415200
21
38.516200
0
LINE
8
Layer 1
10
35.415200
20
38.516200
11
34.888800
21
37.900400
0
LINE
8
Layer 1
10
34.888800
20
37.900400
11
34.435000
21
37.273000
0
LINE
8
Layer 1
10
34.435000
20
37.273000
11
34.037900
21
36.584400
0
LINE
8
Layer 1
10
34.037900
20
36.584400
11
33.658400
21
35.725600
0
LINE
8
Layer 1
10
33.658400
20
35.725600
11
33.338900
21
34.719800
0
LINE
8
Layer 1
10
33.338900
20
34.719800
11
33.132000
21
33.687400
0
LINE
8
Layer 1
10
33.132000
20
33.687400
11
33.042800
21
32.666900
0
LINE
8
Layer 1
10
33.042800
20
32.666900
11
33.050700
21
31.775400
0
LINE
8
Layer 1
10
33.050700
20
31.775400
11
33.170100
21
30.876800
0
LINE
8
Layer 1
10
33.170100
20
30.876800
11
33.420400
21
29.882800
0
LINE
8
Layer 1
10
33.420400
20
29.882800
11
33.642600
21
29.253700
0
LINE
8
Layer 1
10
33.642600
20
29.253700
11
33.945900
21
28.697200
0
LINE
8
Layer 1
10
33.945900
20
28.697200
11
34.481600
21
27.930900
0
LINE
8
Layer 1
10
34.481600
20
27.930900
11
35.187700
21
27.206800
0
LINE
8
Layer 1
10
35.187700
20
27.206800
11
35.952800
21
26.635300
0
LINE
8
Layer 1
10
35.952800
20
26.635300
11
36.442500
21
26.364000
0
LINE
8
Layer 1
10
36.442500
20
26.364000
11
36.913500
21
26.171600
0
LINE
8
Layer 1
10
36.913500
20
26.171600
11
37.901600
21
25.910800
0
LINE
8
Layer 1
10
37.901600
20
25.910800
11
38.924100
21
25.773600
0
LINE
8
Layer 1
10
38.924100
20
25.773600
11
39.573200
21
25.776700
0
LINE
8
Layer 1
10
39.573200
20
25.776700
11
40.258400
21
25.865900
0
LINE
8
Layer 1
10
40.258400
20
25.865900
11
40.916000
21
26.013200
0
LINE
8
Layer 1
10
40.916000
20
26.013200
11
41.377100
21
26.167900
0
LINE
8
Layer 1
10
41.377100
20
26.167900
11
41.984500
21
26.454300
0
LINE
8
Layer 1
10
41.984500
20
26.454300
11
42.777500
21
26.915800
0
LINE
8
Layer 1
10
42.777500
20
26.915800
11
43.568900
21
27.500000
0
LINE
8
Layer 1
10
43.568900
20
27.500000
11
44.205000
21
28.054000
0
LINE
8
Layer 1
10
44.205000
20
28.054000
11
44.986500
21
28.927500
0
LINE
8
Layer 1
10
44.986500
20
28.927500
11
45.768500
21
29.951900
0
LINE
8
Layer 1
10
45.768500
20
29.951900
11
46.376400
21
31.082800
0
LINE
8
Layer 1
10
46.376400
20
31.082800
11
46.934100
21
32.353900
0
LINE
8
Layer 1
10
46.934100
20
32.353900
11
47.210700
21
33.156000
0
LINE
8
Layer 1
10
47.210700
20
33.156000
11
47.369000
21
33.699800
0
LINE
8
Layer 1
10
47.369000
20
33.699800
11
47.520300
21
34.307700
0
LINE
8
Layer 1
10
47.520300
20
34.307700
11
47.652100
21
34.992400
0
LINE
8
Layer 1
10
47.652100
20
34.992400
11
47.722600
21
35.494800
0
LINE
8
Layer 1
10
47.722600
20
35.494800
11
47.989000
21
36.879300
0
LINE
8
Layer 1
10
47.989000
20
36.879300
11
47.984200
21
37.590800
0
LINE
8
Layer 1
10
47.984200
20
37.590800
11
47.984200
21
37.590800
 0 
ENDSEC
 0 
EOF