<?xml version="1.0" encoding="UTF-8" standalone="no"?>
<!DOCTYPE svg PUBLIC "-//W3C//DTD SVG 1.1//EN" "http://www.w3.org/Graphics/SVG/1.1/DTD/svg11.dtd">
<svg width="100%" height="100%" viewBox="0 0 724 570" version="1.1" xmlns="http://www.w3.org/2000/svg" xmlns:xlink="http://www.w3.org/1999/xlink" xml:space="preserve" xmlns:serif="http://www.serif.com/" style="fill-rule:evenodd;clip-rule:evenodd;stroke-linecap:round;stroke-linejoin:round;">
    <g id="Ebene2">
        <path id="STROKE_4addb726-2af2-4336-8898-57c80aa36987" d="M491.039,271.952L494.121,270.694L497.375,263.038L497.749,263.334L501.397,271.868L502.327,273.786L526.268,362.222L526.834,365.444L529.431,423.434L531.22,423.191L537.354,422.865L537.758,424.457L538.739,468L536.829,467.963L254.097,478.301L253.976,476.148L254.552,361.616L255.32,359.82L289.407,310.493L289.528,310.576L336.298,304.793L336.467,303.09L336.999,200.601L336.338,200.766L333.297,200.94L333.539,200.364L373.69,108.297L376.004,107.244L414.194,205.299L415.942,206.178L417.286,208.535L416.882,209.634L416.963,284.246L418.509,284.859L491.039,271.952ZM362.194,198.734L362.8,211.952L373.933,209.415L373.669,194.904L362.194,198.734ZM394.351,205.452L394.724,221.873L403.681,224.5L404.055,209.184L394.351,205.452ZM483.175,369.664L483.682,375.262L493.998,375.262L493.625,369.664L483.175,369.664ZM501.209,393.056L495.237,394.922L494.984,412.837L500.835,409.851L501.209,393.056ZM348.073,240.533L348.82,258.687L362.628,256.581L362.136,237.548L348.073,240.533ZM523.855,399.521L518.63,399.894L518.883,412.583L524.601,412.583L523.855,399.521ZM505.568,398.028L505.194,434.602L513.778,431.87L514.032,396.162L505.568,398.028ZM449.586,353.989L443.615,360.334L443.854,386.951L449.959,382.726L449.586,353.989ZM468.247,353.243L454.065,353.109L454.931,382.473L468.993,381.233L468.247,353.243ZM346.207,208.902L346.742,218.021L352.616,216.146L352.616,206.51L346.207,208.902ZM349.193,316.668L348.82,343.912L361.136,340.554L361.882,314.056L349.193,316.668ZM505.568,363.319L507.06,378.621L513.912,378.142L513.032,363.826L505.568,363.319ZM515.644,385.444L504.821,387.071L504.448,392.922L515.898,390.922L515.644,385.444Z" style="fill-rule:nonzero;stroke:rgb(23,22,18);stroke-width:3.4px;"/>
    </g>
</svg>
