<?xml version="1.0" encoding="UTF-8" standalone="no"?>
<!DOCTYPE svg PUBLIC "-//W3C//DTD SVG 1.1//EN" "http://www.w3.org/Graphics/SVG/1.1/DTD/svg11.dtd">
<svg width="100%" height="100%" viewBox="0 0 655 507" version="1.1" xmlns="http://www.w3.org/2000/svg" xmlns:xlink="http://www.w3.org/1999/xlink" xml:space="preserve" xmlns:serif="http://www.serif.com/" style="fill-rule:evenodd;clip-rule:evenodd;stroke-linecap:round;stroke-linejoin:round;">
    <g id="Fenster">
        <path d="M636.778,305.418L636.777,304.595L636.634,305.426L636.778,305.418L636.911,433.987L634.587,435.951L624.551,438.197L622.097,439.169L603.075,437.518L602.912,436.448L603.565,364.275L603.81,360.498L561.77,362.318L561.444,362.807L562.585,449.598L561.362,450.745L548.453,452.526L546.29,451.733L530.291,449.506L530.536,448.527L530.128,368.954L530.373,365.926L478.419,369.913L478.302,371.339L477.16,463.222L475.611,464.537L455.479,466.053L455.121,465.439L442.897,461.523L443.969,460.103L443.806,376.018L442.318,375.208L381.819,378.433L381.827,377.914L381.599,378.445L381.819,378.433L380.277,479.813L379.523,479.308L360.137,480.814L359.015,479.931L345.056,478.02L345.108,476.357L345.145,383.521L344.655,382.841L268.302,387.461L267.064,388.755L266.819,498.605L266.33,498.697L233.171,498.462L232.548,497.172L216.542,491.37L215.748,491.464L217.95,390.392L219.846,388.098L177.867,381.278L177.133,384.061L177.378,473.285L175.991,474.384L164.233,474.856L161.801,473.895L148.202,468.958L147.958,378.572L146.959,377.089L121.099,371.141L122.006,371.935L120.496,457.228L117.213,458.207L107.149,460.25L104.593,458.788L93.93,452.87L93.196,451.555L91.953,370.773L93.354,368.759L72.197,365.345L72.605,367.241L72.768,435.637L72.605,436.203L59.251,438.252L56.702,438.91L45.897,434.399L45.489,434.078L46.223,338.999L45.326,338.005L37.782,340.222L37.354,340.39L12.851,333.591L12.731,332.055L13.826,311.775L32.848,311.888L33.338,310.084L32.359,267.805L31.87,268.294L15.56,267.637L14.948,267.762L14.418,229.302L15.723,227.162L33.847,226.336L33.766,224.287L32.522,184.225L32.522,182.573L17.782,183.323L17.042,180.898L17.191,161.885L17.782,160.906L8.641,159.996L8.938,159.271L51.462,107.205L51.136,105.156L59.291,103.897L58.191,103.917L100.23,32.983L102.126,31.163L109.833,33.472L110.996,33.399L111.466,38.56L113.905,38.84L202.676,55.09L204.84,53.671L238.378,30.919L304.924,9.741L397.697,57.844L397.763,57.952L517.406,74.36L517.487,76.333L551.246,103.846L553.574,103.015L582.259,98.902L583.809,100.461L610.374,152.114L611.027,151.533L647.174,175.677L646.93,176.488L646.767,302.867L646.685,304.839L636.778,305.418ZM13.826,311.775L12.986,311.77L13.836,311.59L13.826,311.775ZM148.202,468.958L148.203,469.461L148.094,468.919L148.202,468.958ZM146.362,263.978L113.594,265.745L112.863,318.912L146.112,320.688L146.362,263.978ZM536.589,262.574L514.161,262.574L514.161,315.58L537.071,314.528L536.589,262.574ZM81.502,112.473L63.07,171.011L100.106,163.31L81.502,112.473ZM135.183,97.149L113.22,159.882L154.088,146.511L135.183,97.149ZM415.273,262.401L392.134,262.202L392.658,319.733L415.953,318.558L415.273,262.401ZM506.822,101.019L476.347,159.416L544.37,162.423L506.822,101.019ZM508.905,262.202L485.537,262.202L486.126,316.565L508.791,315.58L508.905,262.202ZM171.152,263.286L170.42,321.043L212.233,323.393L213.709,260.694L171.152,263.286ZM612.282,262.574L592.663,262.202L593.071,312.58L612.456,312.032L612.282,262.574ZM418.698,95.995L379.506,153.086L454.816,159.436L418.698,95.995ZM583.278,107.369L561.307,162.423L612.738,166.497L583.278,107.369ZM587.544,263.018L568.988,262.202L569.006,313.577L587.459,312.81L587.544,263.018ZM412.253,161.611L386.672,160.964L386.384,213.005L412.308,212.655L412.253,161.611ZM447.984,162.964L418.49,161.611L418.218,212.812L447.673,212.812L447.984,162.964ZM451.657,262.702L421.268,262.202L421.727,318.335L450.818,317.552L451.657,262.702ZM66.069,268.052L67.47,318.114L93.843,318.207L93.088,267.195L66.069,268.052Z" style="stroke:rgb(23,22,18);stroke-width:3.38px;"/>
    </g>
</svg>
