999
"DXF R12 Output" (www.mydxf.blogspot.com)
 0 
SECTION
 2 
HEADER
 9 
$ACADVER
 1 
AC1009
 9 
$EXTMIN
 10 
 0 
 20 
 0 
 9 
$EXTMAX
 10 
 8.5 
 20 
 11 
 0 
ENDSEC
 0 
SECTION
 2 
ENTITIES
0
LINE
8
Layer 1
10
974.106000
20
602.360000
11
988.835631
21
596.702413
0
LINE
8
Layer 1
10
988.835631
20
596.702413
11
1003.237053
21
590.812729
0
LINE
8
Layer 1
10
1003.237053
20
590.812729
11
1017.301126
21
584.695938
0
LINE
8
Layer 1
10
1017.301126
20
584.695938
11
1031.018707
21
578.357031
0
LINE
8
Layer 1
10
1031.018707
20
578.357031
11
1044.380655
21
571.801000
0
LINE
8
Layer 1
10
1044.380655
20
571.801000
11
1057.377828
21
565.032834
0
LINE
8
Layer 1
10
1057.377828
20
565.032834
11
1070.001084
21
558.057525
0
LINE
8
Layer 1
10
1070.001084
20
558.057525
11
1082.241281
21
550.880063
0
LINE
8
Layer 1
10
1082.241281
20
550.880063
11
1094.089279
21
543.505438
0
LINE
8
Layer 1
10
1094.089279
20
543.505438
11
1105.535934
21
535.938643
0
LINE
8
Layer 1
10
1105.535934
20
535.938643
11
1116.572106
21
528.184666
0
LINE
8
Layer 1
10
1116.572106
20
528.184666
11
1127.188652
21
520.248500
0
LINE
8
Layer 1
10
1127.188652
20
520.248500
11
1137.376432
21
512.135135
0
LINE
8
Layer 1
10
1137.376432
20
512.135135
11
1147.126302
21
503.849561
0
LINE
8
Layer 1
10
1147.126302
20
503.849561
11
1156.429122
21
495.396769
0
LINE
8
Layer 1
10
1156.429122
20
495.396769
11
1165.275750
21
486.781750
0
LINE
8
Layer 1
10
1165.275750
20
486.781750
11
1173.657044
21
478.009495
0
LINE
8
Layer 1
10
1173.657044
20
478.009495
11
1181.563862
21
469.084994
0
LINE
8
Layer 1
10
1181.563862
20
469.084994
11
1188.987062
21
460.013239
0
LINE
8
Layer 1
10
1188.987062
20
460.013239
11
1195.917504
21
450.799219
0
LINE
8
Layer 1
10
1195.917504
20
450.799219
11
1202.346044
21
441.447926
0
LINE
8
Layer 1
10
1202.346044
20
441.447926
11
1208.263542
21
431.964350
0
LINE
8
Layer 1
10
1208.263542
20
431.964350
11
1213.660856
21
422.353482
0
LINE
8
Layer 1
10
1213.660856
20
422.353482
11
1218.528844
21
412.620312
0
LINE
8
Layer 1
10
1218.528844
20
412.620312
11
1222.858364
21
402.769833
0
LINE
8
Layer 1
10
1222.858364
20
402.769833
11
1226.640274
21
392.807033
0
LINE
8
Layer 1
10
1226.640274
20
392.807033
11
1229.865433
21
382.736905
0
LINE
8
Layer 1
10
1229.865433
20
382.736905
11
1232.524699
21
372.564437
0
LINE
8
Layer 1
10
1232.524699
20
372.564437
11
1234.608931
21
362.294623
0
LINE
8
Layer 1
10
1234.608931
20
362.294623
11
1236.108986
21
351.932451
0
LINE
8
Layer 1
10
1236.108986
20
351.932451
11
1236.637090
21
346.718291
0
LINE
8
Layer 1
10
1236.637090
20
346.718291
11
1237.015723
21
341.482913
0
LINE
8
Layer 1
10
1237.015723
20
341.482913
11
1237.243740
21
336.226942
0
LINE
8
Layer 1
10
1237.243740
20
336.226942
11
1237.320000
21
330.951000
0
LINE
8
Layer 1
10
1237.320000
20
330.951000
11
1237.123520
21
322.485639
0
LINE
8
Layer 1
10
1237.123520
20
322.485639
11
1236.537239
21
314.072780
0
LINE
8
Layer 1
10
1236.537239
20
314.072780
11
1235.565891
21
305.715009
0
LINE
8
Layer 1
10
1235.565891
20
305.715009
11
1234.214215
21
297.414913
0
LINE
8
Layer 1
10
1234.214215
20
297.414913
11
1232.486944
21
289.175076
0
LINE
8
Layer 1
10
1232.486944
20
289.175076
11
1230.388817
21
280.998085
0
LINE
8
Layer 1
10
1230.388817
20
280.998085
11
1227.924569
21
272.886527
0
LINE
8
Layer 1
10
1227.924569
20
272.886527
11
1225.098936
21
264.842986
0
LINE
8
Layer 1
10
1225.098936
20
264.842986
11
1221.916654
21
256.870050
0
LINE
8
Layer 1
10
1221.916654
20
256.870050
11
1218.382460
21
248.970303
0
LINE
8
Layer 1
10
1218.382460
20
248.970303
11
1214.501089
21
241.146333
0
LINE
8
Layer 1
10
1214.501089
20
241.146333
11
1210.277279
21
233.400724
0
LINE
8
Layer 1
10
1210.277279
20
233.400724
11
1205.715764
21
225.736064
0
LINE
8
Layer 1
10
1205.715764
20
225.736064
11
1200.821282
21
218.154938
0
LINE
8
Layer 1
10
1200.821282
20
218.154938
11
1195.598568
21
210.659931
0
LINE
8
Layer 1
10
1195.598568
20
210.659931
11
1190.052359
21
203.253631
0
LINE
8
Layer 1
10
1190.052359
20
203.253631
11
1184.187391
21
195.938623
0
LINE
8
Layer 1
10
1184.187391
20
195.938623
11
1178.008400
21
188.717493
0
LINE
8
Layer 1
10
1178.008400
20
188.717493
11
1171.520122
21
181.592827
0
LINE
8
Layer 1
10
1171.520122
20
181.592827
11
1164.727294
21
174.567210
0
LINE
8
Layer 1
10
1164.727294
20
174.567210
11
1157.634651
21
167.643230
0
LINE
8
Layer 1
10
1157.634651
20
167.643230
11
1150.246930
21
160.823472
0
LINE
8
Layer 1
10
1150.246930
20
160.823472
11
1142.568866
21
154.110522
0
LINE
8
Layer 1
10
1142.568866
20
154.110522
11
1134.605197
21
147.506966
0
LINE
8
Layer 1
10
1134.605197
20
147.506966
11
1126.360658
21
141.015390
0
LINE
8
Layer 1
10
1126.360658
20
141.015390
11
1117.839986
21
134.638379
0
LINE
8
Layer 1
10
1117.839986
20
134.638379
11
1109.047917
21
128.378521
0
LINE
8
Layer 1
10
1109.047917
20
128.378521
11
1099.989186
21
122.238401
0
LINE
8
Layer 1
10
1099.989186
20
122.238401
11
1090.668530
21
116.220605
0
LINE
8
Layer 1
10
1090.668530
20
116.220605
11
1081.090686
21
110.327719
0
LINE
8
Layer 1
10
1081.090686
20
110.327719
11
1071.260388
21
104.562328
0
LINE
8
Layer 1
10
1071.260388
20
104.562328
11
1061.182375
21
98.927020
0
LINE
8
Layer 1
10
1061.182375
20
98.927020
11
1050.861381
21
93.424380
0
LINE
8
Layer 1
10
1050.861381
20
93.424380
11
1040.302144
21
88.056993
0
LINE
8
Layer 1
10
1040.302144
20
88.056993
11
1029.509398
21
82.827447
0
LINE
8
Layer 1
10
1029.509398
20
82.827447
11
1018.487881
21
77.738326
0
LINE
8
Layer 1
10
1018.487881
20
77.738326
11
1007.242328
21
72.792218
0
LINE
8
Layer 1
10
1007.242328
20
72.792218
11
995.777476
21
67.991707
0
LINE
8
Layer 1
10
995.777476
20
67.991707
11
984.098061
21
63.339381
0
LINE
8
Layer 1
10
984.098061
20
63.339381
11
972.208818
21
58.837824
0
LINE
8
Layer 1
10
972.208818
20
58.837824
11
960.114485
21
54.489624
0
LINE
8
Layer 1
10
960.114485
20
54.489624
11
947.819798
21
50.297365
0
LINE
8
Layer 1
10
947.819798
20
50.297365
11
935.329492
21
46.263634
0
LINE
8
Layer 1
10
935.329492
20
46.263634
11
922.648304
21
42.391017
0
LINE
8
Layer 1
10
922.648304
20
42.391017
11
909.780970
21
38.682100
0
LINE
8
Layer 1
10
909.780970
20
38.682100
11
896.732226
21
35.139469
0
LINE
8
Layer 1
10
896.732226
20
35.139469
11
883.506808
21
31.765710
0
LINE
8
Layer 1
10
883.506808
20
31.765710
11
870.109453
21
28.563409
0
LINE
8
Layer 1
10
870.109453
20
28.563409
11
856.544897
21
25.535151
0
LINE
8
Layer 1
10
856.544897
20
25.535151
11
842.817875
21
22.683524
0
LINE
8
Layer 1
10
842.817875
20
22.683524
11
828.933125
21
20.011113
0
LINE
8
Layer 1
10
828.933125
20
20.011113
11
814.895382
21
17.520503
0
LINE
8
Layer 1
10
814.895382
20
17.520503
11
800.709382
21
15.214281
0
LINE
8
Layer 1
10
800.709382
20
15.214281
11
786.379862
21
13.095034
0
LINE
8
Layer 1
10
786.379862
20
13.095034
11
771.911557
21
11.165346
0
LINE
8
Layer 1
10
771.911557
20
11.165346
11
757.309205
21
9.427804
0
LINE
8
Layer 1
10
757.309205
20
9.427804
11
742.577541
21
7.884994
0
LINE
8
Layer 1
10
742.577541
20
7.884994
11
727.721301
21
6.539502
0
LINE
8
Layer 1
10
727.721301
20
6.539502
11
712.745222
21
5.393913
0
LINE
8
Layer 1
10
712.745222
20
5.393913
11
697.654039
21
4.450815
0
LINE
8
Layer 1
10
697.654039
20
4.450815
11
682.452490
21
3.712792
0
LINE
8
Layer 1
10
682.452490
20
3.712792
11
667.145309
21
3.182432
0
LINE
8
Layer 1
10
667.145309
20
3.182432
11
651.737234
21
2.862319
0
LINE
8
Layer 1
10
651.737234
20
2.862319
11
636.233000
21
2.755040
0
LINE
8
Layer 1
10
636.233000
20
2.755040
11
620.728766
21
2.862319
0
LINE
8
Layer 1
10
620.728766
20
2.862319
11
605.320689
21
3.182432
0
LINE
8
Layer 1
10
605.320689
20
3.182432
11
590.013507
21
3.712792
0
LINE
8
Layer 1
10
590.013507
20
3.712792
11
574.811954
21
4.450815
0
LINE
8
Layer 1
10
574.811954
20
4.450815
11
559.720768
21
5.393913
0
LINE
8
Layer 1
10
559.720768
20
5.393913
11
544.744684
21
6.539502
0
LINE
8
Layer 1
10
544.744684
20
6.539502
11
529.888439
21
7.884994
0
LINE
8
Layer 1
10
529.888439
20
7.884994
11
515.156769
21
9.427804
0
LINE
8
Layer 1
10
515.156769
20
9.427804
11
500.554410
21
11.165346
0
LINE
8
Layer 1
10
500.554410
20
11.165346
11
486.086099
21
13.095034
0
LINE
8
Layer 1
10
486.086099
20
13.095034
11
471.756571
21
15.214281
0
LINE
8
Layer 1
10
471.756571
20
15.214281
11
457.570563
21
17.520503
0
LINE
8
Layer 1
10
457.570563
20
17.520503
11
443.532811
21
20.011113
0
LINE
8
Layer 1
10
443.532811
20
20.011113
11
429.648051
21
22.683524
0
LINE
8
Layer 1
10
429.648051
20
22.683524
11
415.921020
21
25.535151
0
LINE
8
Layer 1
10
415.921020
20
25.535151
11
402.356453
21
28.563409
0
LINE
8
Layer 1
10
402.356453
20
28.563409
11
388.959087
21
31.765710
0
LINE
8
Layer 1
10
388.959087
20
31.765710
11
375.733658
21
35.139469
0
LINE
8
Layer 1
10
375.733658
20
35.139469
11
362.684903
21
38.682100
0
LINE
8
Layer 1
10
362.684903
20
38.682100
11
349.817557
21
42.391017
0
LINE
8
Layer 1
10
349.817557
20
42.391017
11
337.136357
21
46.263634
0
LINE
8
Layer 1
10
337.136357
20
46.263634
11
324.646038
21
50.297365
0
LINE
8
Layer 1
10
324.646038
20
50.297365
11
312.351338
21
54.489624
0
LINE
8
Layer 1
10
312.351338
20
54.489624
11
300.256992
21
58.837824
0
LINE
8
Layer 1
10
300.256992
20
58.837824
11
288.367736
21
63.339381
0
LINE
8
Layer 1
10
288.367736
20
63.339381
11
276.688308
21
67.991707
0
LINE
8
Layer 1
10
276.688308
20
67.991707
11
265.223442
21
72.792218
0
LINE
8
Layer 1
10
265.223442
20
72.792218
11
253.977875
21
77.738326
0
LINE
8
Layer 1
10
253.977875
20
77.738326
11
242.956344
21
82.827447
0
LINE
8
Layer 1
10
242.956344
20
82.827447
11
232.163585
21
88.056993
0
LINE
8
Layer 1
10
232.163585
20
88.056993
11
221.604333
21
93.424380
0
LINE
8
Layer 1
10
221.604333
20
93.424380
11
211.283325
21
98.927020
0
LINE
8
Layer 1
10
211.283325
20
98.927020
11
201.205297
21
104.562328
0
LINE
8
Layer 1
10
201.205297
20
104.562328
11
191.374986
21
110.327719
0
LINE
8
Layer 1
10
191.374986
20
110.327719
11
181.797128
21
116.220605
0
LINE
8
Layer 1
10
181.797128
20
116.220605
11
172.476458
21
122.238401
0
LINE
8
Layer 1
10
172.476458
20
122.238401
11
163.417714
21
128.378521
0
LINE
8
Layer 1
10
163.417714
20
128.378521
11
154.625630
21
134.638379
0
LINE
8
Layer 1
10
154.625630
20
134.638379
11
146.104945
21
141.015390
0
LINE
8
Layer 1
10
146.104945
20
141.015390
11
137.860393
21
147.506966
0
LINE
8
Layer 1
10
137.860393
20
147.506966
11
129.896710
21
154.110522
0
LINE
8
Layer 1
10
129.896710
20
154.110522
11
122.218634
21
160.823472
0
LINE
8
Layer 1
10
122.218634
20
160.823472
11
114.830901
21
167.643230
0
LINE
8
Layer 1
10
114.830901
20
167.643230
11
107.738245
21
174.567210
0
LINE
8
Layer 1
10
107.738245
20
174.567210
11
100.945405
21
181.592827
0
LINE
8
Layer 1
10
100.945405
20
181.592827
11
94.457116
21
188.717493
0
LINE
8
Layer 1
10
94.457116
20
188.717493
11
88.278113
21
195.938623
0
LINE
8
Layer 1
10
88.278113
20
195.938623
11
82.413134
21
203.253631
0
LINE
8
Layer 1
10
82.413134
20
203.253631
11
76.866915
21
210.659931
0
LINE
8
Layer 1
10
76.866915
20
210.659931
11
71.644192
21
218.154938
0
LINE
8
Layer 1
10
71.644192
20
218.154938
11
66.749700
21
225.736064
0
LINE
8
Layer 1
10
66.749700
20
225.736064
11
62.188177
21
233.400724
0
LINE
8
Layer 1
10
62.188177
20
233.400724
11
57.964358
21
241.146333
0
LINE
8
Layer 1
10
57.964358
20
241.146333
11
54.082980
21
248.970303
0
LINE
8
Layer 1
10
54.082980
20
248.970303
11
50.548778
21
256.870050
0
LINE
8
Layer 1
10
50.548778
20
256.870050
11
47.366490
21
264.842986
0
LINE
8
Layer 1
10
47.366490
20
264.842986
11
44.540851
21
272.886527
0
LINE
8
Layer 1
10
44.540851
20
272.886527
11
42.076598
21
280.998085
0
LINE
8
Layer 1
10
42.076598
20
280.998085
11
39.978466
21
289.175076
0
LINE
8
Layer 1
10
39.978466
20
289.175076
11
38.251192
21
297.414913
0
LINE
8
Layer 1
10
38.251192
20
297.414913
11
36.899512
21
305.715009
0
LINE
8
Layer 1
10
36.899512
20
305.715009
11
35.928163
21
314.072780
0
LINE
8
Layer 1
10
35.928163
20
314.072780
11
35.341880
21
322.485639
0
LINE
8
Layer 1
10
35.341880
20
322.485639
11
35.145400
21
330.951000
0
LINE
8
Layer 1
10
35.145400
20
330.951000
11
35.341880
21
339.416360
0
LINE
8
Layer 1
10
35.341880
20
339.416360
11
35.928163
21
347.829217
0
LINE
8
Layer 1
10
35.928163
20
347.829217
11
36.899512
21
356.186985
0
LINE
8
Layer 1
10
36.899512
20
356.186985
11
38.251192
21
364.487077
0
LINE
8
Layer 1
10
38.251192
20
364.487077
11
39.978466
21
372.726907
0
LINE
8
Layer 1
10
39.978466
20
372.726907
11
42.076598
21
380.903891
0
LINE
8
Layer 1
10
42.076598
20
380.903891
11
44.540851
21
389.015441
0
LINE
8
Layer 1
10
44.540851
20
389.015441
11
47.366490
21
397.058973
0
LINE
8
Layer 1
10
47.366490
20
397.058973
11
50.548778
21
405.031899
0
LINE
8
Layer 1
10
50.548778
20
405.031899
11
54.082980
21
412.931634
0
LINE
8
Layer 1
10
54.082980
20
412.931634
11
57.964358
21
420.755592
0
LINE
8
Layer 1
10
57.964358
20
420.755592
11
62.188177
21
428.501187
0
LINE
8
Layer 1
10
62.188177
20
428.501187
11
66.749700
21
436.165833
0
LINE
8
Layer 1
10
66.749700
20
436.165833
11
71.644192
21
443.746945
0
LINE
8
Layer 1
10
71.644192
20
443.746945
11
76.866915
21
451.241935
0
LINE
8
Layer 1
10
76.866915
20
451.241935
11
82.413134
21
458.648219
0
LINE
8
Layer 1
10
82.413134
20
458.648219
11
88.278113
21
465.963210
0
LINE
8
Layer 1
10
88.278113
20
465.963210
11
94.457116
21
473.184322
0
LINE
8
Layer 1
10
94.457116
20
473.184322
11
100.945405
21
480.308970
0
LINE
8
Layer 1
10
100.945405
20
480.308970
11
107.738245
21
487.334567
0
LINE
8
Layer 1
10
107.738245
20
487.334567
11
114.830901
21
494.258527
0
LINE
8
Layer 1
10
114.830901
20
494.258527
11
122.218634
21
501.078266
0
LINE
8
Layer 1
10
122.218634
20
501.078266
11
129.896710
21
507.791195
0
LINE
8
Layer 1
10
129.896710
20
507.791195
11
137.860393
21
514.394730
0
LINE
8
Layer 1
10
137.860393
20
514.394730
11
146.104945
21
520.886285
0
LINE
8
Layer 1
10
146.104945
20
520.886285
11
154.625630
21
527.263274
0
LINE
8
Layer 1
10
154.625630
20
527.263274
11
163.417714
21
533.523110
0
LINE
8
Layer 1
10
163.417714
20
533.523110
11
172.476458
21
539.663208
0
LINE
8
Layer 1
10
172.476458
20
539.663208
11
181.797128
21
545.680982
0
LINE
8
Layer 1
10
181.797128
20
545.680982
11
191.374986
21
551.573846
0
LINE
8
Layer 1
10
191.374986
20
551.573846
11
201.205297
21
557.339214
0
LINE
8
Layer 1
10
201.205297
20
557.339214
11
211.283325
21
562.974500
0
LINE
8
Layer 1
10
211.283325
20
562.974500
11
221.604333
21
568.477118
0
LINE
8
Layer 1
10
221.604333
20
568.477118
11
232.163585
21
573.844482
0
LINE
8
Layer 1
10
232.163585
20
573.844482
11
242.956344
21
579.074006
0
LINE
8
Layer 1
10
242.956344
20
579.074006
11
253.977875
21
584.163104
0
LINE
8
Layer 1
10
253.977875
20
584.163104
11
265.223442
21
589.109190
0
LINE
8
Layer 1
10
265.223442
20
589.109190
11
276.688308
21
593.909679
0
LINE
8
Layer 1
10
276.688308
20
593.909679
11
288.367736
21
598.561984
0
LINE
8
Layer 1
10
288.367736
20
598.561984
11
300.256992
21
603.063520
0
LINE
8
Layer 1
10
300.256992
20
603.063520
11
312.351338
21
607.411699
0
LINE
8
Layer 1
10
312.351338
20
607.411699
11
324.646038
21
611.603938
0
LINE
8
Layer 1
10
324.646038
20
611.603938
11
337.136357
21
615.637648
0
LINE
8
Layer 1
10
337.136357
20
615.637648
11
349.817557
21
619.510246
0
LINE
8
Layer 1
10
349.817557
20
619.510246
11
362.684903
21
623.219144
0
LINE
8
Layer 1
10
362.684903
20
623.219144
11
375.733658
21
626.761756
0
LINE
8
Layer 1
10
375.733658
20
626.761756
11
388.959087
21
630.135497
0
LINE
8
Layer 1
10
388.959087
20
630.135497
11
402.356453
21
633.337781
0
LINE
8
Layer 1
10
402.356453
20
633.337781
11
415.921020
21
636.366022
0
LINE
8
Layer 1
10
415.921020
20
636.366022
11
429.648051
21
639.217634
0
LINE
8
Layer 1
10
429.648051
20
639.217634
11
443.532811
21
641.890030
0
LINE
8
Layer 1
10
443.532811
20
641.890030
11
457.570563
21
644.380625
0
LINE
8
Layer 1
10
457.570563
20
644.380625
11
471.756571
21
646.686834
0
LINE
8
Layer 1
10
471.756571
20
646.686834
11
486.086099
21
648.806069
0
LINE
8
Layer 1
10
486.086099
20
648.806069
11
500.554410
21
650.735746
0
LINE
8
Layer 1
10
500.554410
20
650.735746
11
515.156769
21
652.473277
0
LINE
8
Layer 1
10
515.156769
20
652.473277
11
529.888439
21
654.016078
0
LINE
8
Layer 1
10
529.888439
20
654.016078
11
544.744684
21
655.361562
0
LINE
8
Layer 1
10
544.744684
20
655.361562
11
559.720768
21
656.507143
0
LINE
8
Layer 1
10
559.720768
20
656.507143
11
574.811954
21
657.450236
0
LINE
8
Layer 1
10
574.811954
20
657.450236
11
590.013507
21
658.188254
0
LINE
8
Layer 1
10
590.013507
20
658.188254
11
605.320689
21
658.718611
0
LINE
8
Layer 1
10
605.320689
20
658.718611
11
620.728766
21
659.038722
0
LINE
8
Layer 1
10
620.728766
20
659.038722
11
636.233000
21
659.146000
0
LINE
8
Layer 1
10
636.233000
20
659.146000
11
656.121926
21
658.969350
0
LINE
8
Layer 1
10
656.121926
20
658.969350
11
675.850145
21
658.443051
0
LINE
8
Layer 1
10
675.850145
20
658.443051
11
695.407626
21
657.572578
0
LINE
8
Layer 1
10
695.407626
20
657.572578
11
714.784344
21
656.363406
0
LINE
8
Layer 1
10
714.784344
20
656.363406
11
733.970268
21
654.821012
0
LINE
8
Layer 1
10
733.970268
20
654.821012
11
752.955371
21
652.950871
0
LINE
8
Layer 1
10
752.955371
20
652.950871
11
771.729625
21
650.758458
0
LINE
8
Layer 1
10
771.729625
20
650.758458
11
790.283000
21
648.249250
0
LINE
8
Layer 1
10
790.283000
20
648.249250
11
808.605469
21
645.428721
0
LINE
8
Layer 1
10
808.605469
20
645.428721
11
826.687004
21
642.302348
0
LINE
8
Layer 1
10
826.687004
20
642.302348
11
844.517576
21
638.875605
0
LINE
8
Layer 1
10
844.517576
20
638.875605
11
862.087156
21
635.153969
0
LINE
8
Layer 1
10
862.087156
20
635.153969
11
879.385717
21
631.142915
0
LINE
8
Layer 1
10
879.385717
20
631.142915
11
896.403230
21
626.847918
0
LINE
8
Layer 1
10
896.403230
20
626.847918
11
913.129667
21
622.274455
0
LINE
8
Layer 1
10
913.129667
20
622.274455
11
929.555000
21
617.428000
0
LINE
8
Layer 1
10
929.555000
20
617.428000
11
948.128000
21
660.012000
0
LINE
8
Layer 1
10
948.128000
20
660.012000
11
951.122000
21
661.375000
0
LINE
8
Layer 1
10
951.122000
20
661.375000
11
974.106000
21
602.360000
0
LINE
8
Layer 1
10
974.106000
20
602.360000
11
974.106000
21
602.360000
0
LINE
8
Layer 1
10
754.348000
20
35.664900
11
770.616169
21
37.525667
0
LINE
8
Layer 1
10
770.616169
20
37.525667
11
786.710696
21
39.625146
0
LINE
8
Layer 1
10
786.710696
20
39.625146
11
802.624485
21
41.959608
0
LINE
8
Layer 1
10
802.624485
20
41.959608
11
818.350441
21
44.525323
0
LINE
8
Layer 1
10
818.350441
20
44.525323
11
833.881470
21
47.318564
0
LINE
8
Layer 1
10
833.881470
20
47.318564
11
849.210474
21
50.335600
0
LINE
8
Layer 1
10
849.210474
20
50.335600
11
864.330360
21
53.572703
0
LINE
8
Layer 1
10
864.330360
20
53.572703
11
879.234031
21
57.026144
0
LINE
8
Layer 1
10
879.234031
20
57.026144
11
893.914393
21
60.692194
0
LINE
8
Layer 1
10
893.914393
20
60.692194
11
908.364350
21
64.567125
0
LINE
8
Layer 1
10
908.364350
20
64.567125
11
922.576807
21
68.647207
0
LINE
8
Layer 1
10
922.576807
20
68.647207
11
936.544668
21
72.928711
0
LINE
8
Layer 1
10
936.544668
20
72.928711
11
950.260838
21
77.407909
0
LINE
8
Layer 1
10
950.260838
20
77.407909
11
963.718222
21
82.081071
0
LINE
8
Layer 1
10
963.718222
20
82.081071
11
976.909725
21
86.944470
0
LINE
8
Layer 1
10
976.909725
20
86.944470
11
989.828250
21
91.994375
0
LINE
8
Layer 1
10
989.828250
20
91.994375
11
1002.466703
21
97.227058
0
LINE
8
Layer 1
10
1002.466703
20
97.227058
11
1014.817989
21
102.638790
0
LINE
8
Layer 1
10
1014.817989
20
102.638790
11
1026.875011
21
108.225842
0
LINE
8
Layer 1
10
1026.875011
20
108.225842
11
1038.630676
21
113.984486
0
LINE
8
Layer 1
10
1038.630676
20
113.984486
11
1050.077887
21
119.910992
0
LINE
8
Layer 1
10
1050.077887
20
119.910992
11
1061.209548
21
126.001631
0
LINE
8
Layer 1
10
1061.209548
20
126.001631
11
1072.018566
21
132.252675
0
LINE
8
Layer 1
10
1072.018566
20
132.252675
11
1082.497844
21
138.660394
0
LINE
8
Layer 1
10
1082.497844
20
138.660394
11
1092.640287
21
145.221060
0
LINE
8
Layer 1
10
1092.640287
20
145.221060
11
1102.438799
21
151.930943
0
LINE
8
Layer 1
10
1102.438799
20
151.930943
11
1111.886286
21
158.786316
0
LINE
8
Layer 1
10
1111.886286
20
158.786316
11
1120.975652
21
165.783448
0
LINE
8
Layer 1
10
1120.975652
20
165.783448
11
1129.699802
21
172.918612
0
LINE
8
Layer 1
10
1129.699802
20
172.918612
11
1138.051640
21
180.188078
0
LINE
8
Layer 1
10
1138.051640
20
180.188078
11
1146.024071
21
187.588117
0
LINE
8
Layer 1
10
1146.024071
20
187.588117
11
1153.610000
21
195.115000
0
LINE
8
Layer 1
10
1153.610000
20
195.115000
11
806.472000
21
231.459000
0
LINE
8
Layer 1
10
806.472000
20
231.459000
11
764.026000
21
43.228500
0
LINE
8
Layer 1
10
764.026000
20
43.228500
11
762.250281
21
41.254139
0
LINE
8
Layer 1
10
762.250281
20
41.254139
11
760.023250
21
39.333488
0
LINE
8
Layer 1
10
760.023250
20
39.333488
11
757.378094
21
37.469442
0
LINE
8
Layer 1
10
757.378094
20
37.469442
11
754.348000
21
35.664900
0
LINE
8
Layer 1
10
754.348000
20
35.664900
11
754.348000
21
35.664900
0
LINE
8
Layer 1
10
423.627000
20
452.462000
11
391.769000
21
406.809000
0
LINE
8
Layer 1
10
391.769000
20
406.809000
11
452.986000
21
401.729000
0
LINE
8
Layer 1
10
452.986000
20
401.729000
11
423.627000
21
452.462000
0
LINE
8
Layer 1
10
423.627000
20
452.462000
11
423.627000
21
452.462000
0
LINE
8
Layer 1
10
1046.350000
20
342.031000
11
1038.630000
21
333.818000
0
LINE
8
Layer 1
10
1038.630000
20
333.818000
11
1038.940000
21
299.370000
0
LINE
8
Layer 1
10
1038.940000
20
299.370000
11
1046.840000
21
304.837000
0
LINE
8
Layer 1
10
1046.840000
20
304.837000
11
1046.350000
21
342.031000
0
LINE
8
Layer 1
10
1046.350000
20
342.031000
11
1046.350000
21
342.031000
0
LINE
8
Layer 1
10
1142.470000
20
283.100000
11
1135.710000
21
282.618000
0
LINE
8
Layer 1
10
1135.710000
20
282.618000
11
1136.040000
21
266.195000
0
LINE
8
Layer 1
10
1136.040000
20
266.195000
11
1143.440000
21
266.195000
0
LINE
8
Layer 1
10
1143.440000
20
266.195000
11
1142.470000
21
283.100000
0
LINE
8
Layer 1
10
1142.470000
20
283.100000
11
1142.470000
21
283.100000
0
LINE
8
Layer 1
10
580.985000
20
319.256000
11
565.037000
21
319.552000
0
LINE
8
Layer 1
10
565.037000
20
319.552000
11
565.370000
21
279.268000
0
LINE
8
Layer 1
10
565.370000
20
279.268000
11
581.126000
21
279.705000
0
LINE
8
Layer 1
10
581.126000
20
279.705000
11
580.985000
21
319.256000
0
LINE
8
Layer 1
10
580.985000
20
319.256000
11
580.985000
21
319.256000
0
LINE
8
Layer 1
10
418.388000
20
399.991000
11
397.594000
21
400.507000
0
LINE
8
Layer 1
10
397.594000
20
400.507000
11
397.360000
21
358.894000
0
LINE
8
Layer 1
10
397.360000
20
358.894000
11
418.431000
21
359.173000
0
LINE
8
Layer 1
10
418.431000
20
359.173000
11
418.388000
21
399.991000
0
LINE
8
Layer 1
10
418.388000
20
399.991000
11
418.388000
21
399.991000
0
LINE
8
Layer 1
10
450.418000
20
319.154000
11
425.715000
21
319.552000
0
LINE
8
Layer 1
10
425.715000
20
319.552000
11
426.087000
21
274.665000
0
LINE
8
Layer 1
10
426.087000
20
274.665000
11
449.735000
21
275.291000
0
LINE
8
Layer 1
10
449.735000
20
275.291000
11
450.418000
21
319.154000
0
LINE
8
Layer 1
10
450.418000
20
319.154000
11
450.418000
21
319.154000
0
LINE
8
Layer 1
10
1113.170000
20
291.468000
11
1105.440000
21
289.052000
0
LINE
8
Layer 1
10
1105.440000
20
289.052000
11
1105.110000
21
265.868000
0
LINE
8
Layer 1
10
1105.110000
20
265.868000
11
1112.680000
21
269.731000
0
LINE
8
Layer 1
10
1112.680000
20
269.731000
11
1113.170000
21
291.468000
0
LINE
8
Layer 1
10
1113.170000
20
291.468000
11
1113.170000
21
291.468000
0
LINE
8
Layer 1
10
1118.810000
20
285.033000
11
1118.320000
21
237.699000
0
LINE
8
Layer 1
10
1118.320000
20
237.699000
11
1129.430000
21
241.233000
0
LINE
8
Layer 1
10
1129.430000
20
241.233000
11
1129.760000
21
287.449000
0
LINE
8
Layer 1
10
1129.760000
20
287.449000
11
1118.810000
21
285.033000
0
LINE
8
Layer 1
10
1118.810000
20
285.033000
11
1118.810000
21
285.033000
0
LINE
8
Layer 1
10
203.747000
20
154.218000
11
203.549000
21
226.495000
0
LINE
8
Layer 1
10
203.549000
20
226.495000
11
202.737000
21
227.683000
0
LINE
8
Layer 1
10
202.737000
20
227.683000
11
181.716000
21
232.439000
0
LINE
8
Layer 1
10
181.716000
20
232.439000
11
182.453000
21
231.804000
0
LINE
8
Layer 1
10
182.453000
20
231.804000
11
181.226000
21
163.599000
0
LINE
8
Layer 1
10
181.226000
20
163.599000
11
178.557000
21
162.814000
0
LINE
8
Layer 1
10
178.557000
20
162.814000
11
170.376000
21
161.180000
0
LINE
8
Layer 1
10
170.376000
20
161.180000
11
168.299000
21
162.352000
0
LINE
8
Layer 1
10
168.299000
20
162.352000
11
159.631000
21
167.082000
0
LINE
8
Layer 1
10
159.631000
20
167.082000
11
159.034000
21
168.134000
0
LINE
8
Layer 1
10
159.034000
20
168.134000
11
158.024000
21
232.732000
0
LINE
8
Layer 1
10
158.024000
20
232.732000
11
159.163000
21
234.344000
0
LINE
8
Layer 1
10
159.163000
20
234.344000
11
141.965000
21
237.073000
0
LINE
8
Layer 1
10
141.965000
20
237.073000
11
142.297000
21
235.557000
0
LINE
8
Layer 1
10
142.297000
20
235.557000
11
142.429000
21
180.863000
0
LINE
8
Layer 1
10
142.429000
20
180.863000
11
142.297000
21
180.411000
0
LINE
8
Layer 1
10
142.297000
20
180.411000
11
140.645000
21
180.163000
0
LINE
8
Layer 1
10
140.645000
20
180.163000
11
150.108145
21
171.961226
0
LINE
8
Layer 1
10
150.108145
20
171.961226
11
160.045260
21
163.931468
0
LINE
8
Layer 1
10
160.045260
20
163.931468
11
170.446111
21
156.079102
0
LINE
8
Layer 1
10
170.446111
20
156.079102
11
181.300467
21
148.409504
0
LINE
8
Layer 1
10
181.300467
20
148.409504
11
192.598096
21
140.928050
0
LINE
8
Layer 1
10
192.598096
20
140.928050
11
204.328765
21
133.640116
0
LINE
8
Layer 1
10
204.328765
20
133.640116
11
216.482243
21
126.551077
0
LINE
8
Layer 1
10
216.482243
20
126.551077
11
229.048297
21
119.666309
0
LINE
8
Layer 1
10
229.048297
20
119.666309
11
242.016695
21
112.991189
0
LINE
8
Layer 1
10
242.016695
20
112.991189
11
255.377206
21
106.531091
0
LINE
8
Layer 1
10
255.377206
20
106.531091
11
269.119596
21
100.291391
0
LINE
8
Layer 1
10
269.119596
20
100.291391
11
283.233635
21
94.277466
0
LINE
8
Layer 1
10
283.233635
20
94.277466
11
297.709089
21
88.494691
0
LINE
8
Layer 1
10
297.709089
20
88.494691
11
312.535727
21
82.948442
0
LINE
8
Layer 1
10
312.535727
20
82.948442
11
327.703316
21
77.644095
0
LINE
8
Layer 1
10
327.703316
20
77.644095
11
343.201625
21
72.587025
0
LINE
8
Layer 1
10
343.201625
20
72.587025
11
359.020421
21
67.782609
0
LINE
8
Layer 1
10
359.020421
20
67.782609
11
375.149472
21
63.236221
0
LINE
8
Layer 1
10
375.149472
20
63.236221
11
391.578547
21
58.953239
0
LINE
8
Layer 1
10
391.578547
20
58.953239
11
408.297412
21
54.939037
0
LINE
8
Layer 1
10
408.297412
20
54.939037
11
425.295836
21
51.198992
0
LINE
8
Layer 1
10
425.295836
20
51.198992
11
442.563587
21
47.738479
0
LINE
8
Layer 1
10
442.563587
20
47.738479
11
460.090433
21
44.562874
0
LINE
8
Layer 1
10
460.090433
20
44.562874
11
477.866141
21
41.677553
0
LINE
8
Layer 1
10
477.866141
20
41.677553
11
495.880479
21
39.087892
0
LINE
8
Layer 1
10
495.880479
20
39.087892
11
514.123216
21
36.799266
0
LINE
8
Layer 1
10
514.123216
20
36.799266
11
532.584118
21
34.817051
0
LINE
8
Layer 1
10
532.584118
20
34.817051
11
551.252955
21
33.146624
0
LINE
8
Layer 1
10
551.252955
20
33.146624
11
570.119494
21
31.793359
0
LINE
8
Layer 1
10
570.119494
20
31.793359
11
589.173502
21
30.762633
0
LINE
8
Layer 1
10
589.173502
20
30.762633
11
608.404748
21
30.059821
0
LINE
8
Layer 1
10
608.404748
20
30.059821
11
627.803000
21
29.690300
0
LINE
8
Layer 1
10
627.803000
20
29.690300
11
624.118633
21
32.211760
0
LINE
8
Layer 1
10
624.118633
20
32.211760
11
620.436518
21
34.919554
0
LINE
8
Layer 1
10
620.436518
20
34.919554
11
616.792632
21
37.804290
0
LINE
8
Layer 1
10
616.792632
20
37.804290
11
613.222953
21
40.856573
0
LINE
8
Layer 1
10
613.222953
20
40.856573
11
609.763460
21
44.067013
0
LINE
8
Layer 1
10
609.763460
20
44.067013
11
606.450131
21
47.426215
0
LINE
8
Layer 1
10
606.450131
20
47.426215
11
603.318943
21
50.924788
0
LINE
8
Layer 1
10
603.318943
20
50.924788
11
600.405875
21
54.553337
0
LINE
8
Layer 1
10
600.405875
20
54.553337
11
597.746905
21
58.302472
0
LINE
8
Layer 1
10
597.746905
20
58.302472
11
595.378010
21
62.162799
0
LINE
8
Layer 1
10
595.378010
20
62.162799
11
593.335169
21
66.124925
0
LINE
8
Layer 1
10
593.335169
20
66.124925
11
591.654359
21
70.179458
0
LINE
8
Layer 1
10
591.654359
20
70.179458
11
590.371560
21
74.317004
0
LINE
8
Layer 1
10
590.371560
20
74.317004
11
589.522748
21
78.528172
0
LINE
8
Layer 1
10
589.522748
20
78.528172
11
589.143902
21
82.803568
0
LINE
8
Layer 1
10
589.143902
20
82.803568
11
589.271000
21
87.133800
0
LINE
8
Layer 1
10
589.271000
20
87.133800
11
599.016000
21
180.592000
0
LINE
8
Layer 1
10
599.016000
20
180.592000
11
590.959000
21
178.816000
0
LINE
8
Layer 1
10
590.959000
20
178.816000
11
588.963000
21
178.040000
0
LINE
8
Layer 1
10
588.963000
20
178.040000
11
573.501000
21
179.358000
0
LINE
8
Layer 1
10
573.501000
20
179.358000
11
573.368000
21
180.216000
0
LINE
8
Layer 1
10
573.368000
20
180.216000
11
573.898000
21
237.928000
0
LINE
8
Layer 1
10
573.898000
20
237.928000
11
574.099000
21
240.950000
0
LINE
8
Layer 1
10
574.099000
20
240.950000
11
539.925000
21
239.494000
0
LINE
8
Layer 1
10
539.925000
20
239.494000
11
539.659000
21
239.102000
0
LINE
8
Layer 1
10
539.659000
20
239.102000
11
540.588000
21
169.701000
0
LINE
8
Layer 1
10
540.588000
20
169.701000
11
539.594000
21
168.783000
0
LINE
8
Layer 1
10
539.594000
20
168.783000
11
529.101000
21
167.358000
0
LINE
8
Layer 1
10
529.101000
20
167.358000
11
527.343000
21
167.993000
0
LINE
8
Layer 1
10
527.343000
20
167.993000
11
514.338000
21
169.774000
0
LINE
8
Layer 1
10
514.338000
20
169.774000
11
514.536000
21
170.556000
0
LINE
8
Layer 1
10
514.536000
20
170.556000
11
514.206000
21
234.188000
0
LINE
8
Layer 1
10
514.206000
20
234.188000
11
514.403000
21
236.610000
0
LINE
8
Layer 1
10
514.403000
20
236.610000
11
472.172000
21
233.421000
0
LINE
8
Layer 1
10
472.172000
20
233.421000
11
472.076000
21
232.281000
0
LINE
8
Layer 1
10
472.076000
20
232.281000
11
471.147000
21
158.804000
0
LINE
8
Layer 1
10
471.147000
20
158.804000
11
469.888000
21
157.754000
0
LINE
8
Layer 1
10
469.888000
20
157.754000
11
453.525000
21
156.541000
0
LINE
8
Layer 1
10
453.525000
20
156.541000
11
453.234000
21
157.032000
0
LINE
8
Layer 1
10
453.234000
20
157.032000
11
443.297000
21
160.164000
0
LINE
8
Layer 1
10
443.297000
20
160.164000
11
444.169000
21
161.299000
0
LINE
8
Layer 1
10
444.169000
20
161.299000
11
444.037000
21
228.538000
0
LINE
8
Layer 1
10
444.037000
20
228.538000
11
442.826000
21
229.187000
0
LINE
8
Layer 1
10
442.826000
20
229.187000
11
393.649000
21
226.608000
0
LINE
8
Layer 1
10
393.649000
20
226.608000
11
392.396000
21
145.537000
0
LINE
8
Layer 1
10
392.396000
20
145.537000
11
391.781000
21
145.943000
0
LINE
8
Layer 1
10
391.781000
20
145.943000
11
376.024000
21
144.738000
0
LINE
8
Layer 1
10
376.024000
20
144.738000
11
375.113000
21
145.444000
0
LINE
8
Layer 1
10
375.113000
20
145.444000
11
363.764000
21
146.970000
0
LINE
8
Layer 1
10
363.764000
20
146.970000
11
363.807000
21
148.303000
0
LINE
8
Layer 1
10
363.807000
20
148.303000
11
363.838000
21
222.538000
0
LINE
8
Layer 1
10
363.838000
20
222.538000
11
363.440000
21
223.083000
0
LINE
8
Layer 1
10
363.440000
20
223.083000
11
301.374000
21
219.389000
0
LINE
8
Layer 1
10
301.374000
20
219.389000
11
300.366000
21
218.353000
0
LINE
8
Layer 1
10
300.366000
20
218.353000
11
300.168000
21
130.511000
0
LINE
8
Layer 1
10
300.168000
20
130.511000
11
299.771000
21
130.438000
0
LINE
8
Layer 1
10
299.771000
20
130.438000
11
272.816000
21
130.624000
0
LINE
8
Layer 1
10
272.816000
20
130.624000
11
272.310000
21
131.657000
0
LINE
8
Layer 1
10
272.310000
20
131.657000
11
259.299000
21
136.297000
0
LINE
8
Layer 1
10
259.299000
20
136.297000
11
258.654000
21
136.221000
0
LINE
8
Layer 1
10
258.654000
20
136.221000
11
260.443000
21
217.043000
0
LINE
8
Layer 1
10
260.443000
20
217.043000
11
261.985000
21
218.878000
0
LINE
8
Layer 1
10
261.985000
20
218.878000
11
227.861000
21
224.333000
0
LINE
8
Layer 1
10
227.861000
20
224.333000
11
227.265000
21
222.106000
0
LINE
8
Layer 1
10
227.265000
20
222.106000
11
227.464000
21
150.758000
0
LINE
8
Layer 1
10
227.464000
20
150.758000
11
226.336000
21
149.880000
0
LINE
8
Layer 1
10
226.336000
20
149.880000
11
216.778000
21
149.502000
0
LINE
8
Layer 1
10
216.778000
20
149.502000
11
214.801000
21
150.270000
0
LINE
8
Layer 1
10
214.801000
20
150.270000
11
203.747000
21
154.218000
0
LINE
8
Layer 1
10
203.747000
20
154.218000
11
203.748000
21
153.817000
0
LINE
8
Layer 1
10
203.748000
20
153.817000
11
203.660000
21
154.249000
0
LINE
8
Layer 1
10
203.660000
20
154.249000
11
203.747000
21
154.218000
0
LINE
8
Layer 1
10
203.747000
20
154.218000
11
203.747000
21
154.218000
0
LINE
8
Layer 1
10
393.649000
20
226.608000
11
393.655000
21
227.023000
0
LINE
8
Layer 1
10
393.655000
20
227.023000
11
393.468000
21
226.597000
0
LINE
8
Layer 1
10
393.468000
20
226.597000
11
393.649000
21
226.608000
0
LINE
8
Layer 1
10
393.649000
20
226.608000
11
393.649000
21
226.608000
0
LINE
8
Layer 1
10
600.899000
20
284.994000
11
600.896000
21
285.652000
0
LINE
8
Layer 1
10
600.896000
20
285.652000
11
600.780000
21
284.988000
0
LINE
8
Layer 1
10
600.780000
20
284.988000
11
600.899000
21
284.994000
0
LINE
8
Layer 1
10
600.899000
20
284.994000
11
600.899000
21
284.994000
0
LINE
8
Layer 1
10
600.899000
20
284.994000
11
600.986000
21
199.500000
0
LINE
8
Layer 1
10
600.986000
20
199.500000
11
608.234000
21
268.995000
0
LINE
8
Layer 1
10
608.234000
20
268.995000
11
793.487000
21
242.951000
0
LINE
8
Layer 1
10
793.487000
20
242.951000
11
793.936000
21
332.159000
0
LINE
8
Layer 1
10
793.936000
20
332.159000
11
794.929000
21
334.484000
0
LINE
8
Layer 1
10
794.929000
20
334.484000
11
839.046000
21
398.323000
0
LINE
8
Layer 1
10
839.046000
20
398.323000
11
839.201000
21
398.216000
0
LINE
8
Layer 1
10
839.201000
20
398.216000
11
899.732000
21
405.700000
0
LINE
8
Layer 1
10
899.732000
20
405.700000
11
899.952000
21
407.904000
0
LINE
8
Layer 1
10
899.952000
20
407.904000
11
900.601000
21
532.719000
0
LINE
8
Layer 1
10
900.601000
20
532.719000
11
892.737375
21
524.341625
0
LINE
8
Layer 1
10
892.737375
20
524.341625
11
886.778000
21
518.491000
0
LINE
8
Layer 1
10
886.778000
20
518.491000
11
884.051750
21
516.198641
0
LINE
8
Layer 1
10
884.051750
20
516.198641
11
881.588000
21
514.561125
0
LINE
8
Layer 1
10
881.588000
20
514.561125
11
879.386750
21
513.578547
0
LINE
8
Layer 1
10
879.386750
20
513.578547
11
878.384563
21
513.332889
0
LINE
8
Layer 1
10
878.384563
20
513.332889
11
877.448000
21
513.251000
0
LINE
8
Layer 1
10
877.448000
20
513.251000
11
876.002332
21
513.393596
0
LINE
8
Layer 1
10
876.002332
20
513.393596
11
874.749344
21
513.821391
0
LINE
8
Layer 1
10
874.749344
20
513.821391
11
873.689059
21
514.534396
0
LINE
8
Layer 1
10
873.689059
20
514.534396
11
872.821500
21
515.532625
0
LINE
8
Layer 1
10
872.821500
20
515.532625
11
872.146691
21
516.816088
0
LINE
8
Layer 1
10
872.146691
20
516.816088
11
871.664656
21
518.384797
0
LINE
8
Layer 1
10
871.664656
20
518.384797
11
871.375418
21
520.238764
0
LINE
8
Layer 1
10
871.375418
20
520.238764
11
871.279000
21
522.378000
0
LINE
8
Layer 1
10
871.279000
20
522.378000
11
871.467250
21
525.061375
0
LINE
8
Layer 1
10
871.467250
20
525.061375
11
872.032000
21
527.702000
0
LINE
8
Layer 1
10
872.032000
20
527.702000
11
872.925500
21
530.375000
0
LINE
8
Layer 1
10
872.925500
20
530.375000
11
874.101000
21
533.153000
0
LINE
8
Layer 1
10
874.101000
20
533.153000
11
878.125000
21
541.266000
0
LINE
8
Layer 1
10
878.125000
20
541.266000
11
884.371000
21
553.225000
0
LINE
8
Layer 1
10
884.371000
20
553.225000
11
882.090297
21
551.698391
0
LINE
8
Layer 1
10
882.090297
20
551.698391
11
879.536875
21
549.569625
0
LINE
8
Layer 1
10
879.536875
20
549.569625
11
876.711016
21
546.838797
0
LINE
8
Layer 1
10
876.711016
20
546.838797
11
873.613000
21
543.506000
0
LINE
8
Layer 1
10
873.613000
20
543.506000
11
869.717875
21
539.058250
0
LINE
8
Layer 1
10
869.717875
20
539.058250
11
866.464000
21
534.843000
0
LINE
8
Layer 1
10
866.464000
20
534.843000
11
860.182000
21
525.716000
0
LINE
8
Layer 1
10
860.182000
20
525.716000
11
857.282750
21
521.511625
0
LINE
8
Layer 1
10
857.282750
20
521.511625
11
855.288000
21
518.955000
0
LINE
8
Layer 1
10
855.288000
20
518.955000
11
854.515016
21
518.197109
0
LINE
8
Layer 1
10
854.515016
20
518.197109
11
853.736875
21
517.655875
0
LINE
8
Layer 1
10
853.736875
20
517.655875
11
852.954047
21
517.331203
0
LINE
8
Layer 1
10
852.954047
20
517.331203
11
852.167000
21
517.223000
0
LINE
8
Layer 1
10
852.167000
20
517.223000
11
851.570697
21
517.311455
0
LINE
8
Layer 1
10
851.570697
20
517.311455
11
850.986266
21
517.576828
0
LINE
8
Layer 1
10
850.986266
20
517.576828
11
849.852875
21
518.638375
0
LINE
8
Layer 1
10
849.852875
20
518.638375
11
848.766547
21
520.407734
0
LINE
8
Layer 1
10
848.766547
20
520.407734
11
847.727000
21
522.885000
0
LINE
8
Layer 1
10
847.727000
20
522.885000
11
846.899109
21
525.593969
0
LINE
8
Layer 1
10
846.899109
20
525.593969
11
846.286375
21
528.500750
0
LINE
8
Layer 1
10
846.286375
20
528.500750
11
845.889453
21
531.605156
0
LINE
8
Layer 1
10
845.889453
20
531.605156
11
845.709000
21
534.907000
0
LINE
8
Layer 1
10
845.709000
20
534.907000
11
841.724469
21
529.829656
0
LINE
8
Layer 1
10
841.724469
20
529.829656
11
837.860500
21
525.366000
0
LINE
8
Layer 1
10
837.860500
20
525.366000
11
834.117281
21
521.515844
0
LINE
8
Layer 1
10
834.117281
20
521.515844
11
830.495000
21
518.279000
0
LINE
8
Layer 1
10
830.495000
20
518.279000
11
828.629477
21
516.843176
0
LINE
8
Layer 1
10
828.629477
20
516.843176
11
826.756687
21
515.598719
0
LINE
8
Layer 1
10
826.756687
20
515.598719
11
824.876680
21
514.545652
0
LINE
8
Layer 1
10
824.876680
20
514.545652
11
822.989500
21
513.684000
0
LINE
8
Layer 1
10
822.989500
20
513.684000
11
821.095195
21
513.013785
0
LINE
8
Layer 1
10
821.095195
20
513.013785
11
819.193812
21
512.535031
0
LINE
8
Layer 1
10
819.193812
20
512.535031
11
817.285398
21
512.247762
0
LINE
8
Layer 1
10
817.285398
20
512.247762
11
815.370000
21
512.152000
0
LINE
8
Layer 1
10
815.370000
20
512.152000
11
813.740033
21
512.243123
0
LINE
8
Layer 1
10
813.740033
20
512.243123
11
812.196703
21
512.516484
0
LINE
8
Layer 1
10
812.196703
20
512.516484
11
810.740115
21
512.972072
0
LINE
8
Layer 1
10
810.740115
20
512.972072
11
809.370375
21
513.609875
0
LINE
8
Layer 1
10
809.370375
20
513.609875
11
808.087588
21
514.429881
0
LINE
8
Layer 1
10
808.087588
20
514.429881
11
806.891859
21
515.432078
0
LINE
8
Layer 1
10
806.891859
20
515.432078
11
805.783295
21
516.616455
0
LINE
8
Layer 1
10
805.783295
20
516.616455
11
804.762000
21
517.983000
0
LINE
8
Layer 1
10
804.762000
20
517.983000
11
803.845125
21
519.508314
0
LINE
8
Layer 1
10
803.845125
20
519.508314
11
803.050500
21
521.168266
0
LINE
8
Layer 1
10
803.050500
20
521.168266
11
802.378125
21
522.962865
0
LINE
8
Layer 1
10
802.378125
20
522.962865
11
801.828000
21
524.892125
0
LINE
8
Layer 1
10
801.828000
20
524.892125
11
801.094500
21
529.154672
0
LINE
8
Layer 1
10
801.094500
20
529.154672
11
800.850000
21
533.956000
0
LINE
8
Layer 1
10
800.850000
20
533.956000
11
800.850000
21
534.352000
0
LINE
8
Layer 1
10
800.850000
20
534.352000
11
776.997000
21
512.321000
0
LINE
8
Layer 1
10
776.997000
20
512.321000
11
771.846313
21
502.742406
0
LINE
8
Layer 1
10
771.846313
20
502.742406
11
766.931500
21
494.457750
0
LINE
8
Layer 1
10
766.931500
20
494.457750
11
762.252187
21
487.467219
0
LINE
8
Layer 1
10
762.252187
20
487.467219
11
760.000727
21
484.457309
0
LINE
8
Layer 1
10
760.000727
20
484.457309
11
757.808000
21
481.771000
0
LINE
8
Layer 1
10
757.808000
20
481.771000
11
753.759187
21
477.352547
0
LINE
8
Layer 1
10
753.759187
20
477.352547
11
750.265000
21
474.196625
0
LINE
8
Layer 1
10
750.265000
20
474.196625
11
748.726008
21
473.092084
0
LINE
8
Layer 1
10
748.726008
20
473.092084
11
747.325812
21
472.303141
0
LINE
8
Layer 1
10
747.325812
20
472.303141
11
746.064461
21
471.829783
0
LINE
8
Layer 1
10
746.064461
20
471.829783
11
744.942000
21
471.672000
0
LINE
8
Layer 1
10
744.942000
20
471.672000
11
743.954688
21
471.867375
0
LINE
8
Layer 1
10
743.954688
20
471.867375
11
743.249000
21
472.453500
0
LINE
8
Layer 1
10
743.249000
20
472.453500
11
742.825312
21
473.430375
0
LINE
8
Layer 1
10
742.825312
20
473.430375
11
742.684000
21
474.798000
0
LINE
8
Layer 1
10
742.684000
20
474.798000
11
742.769867
21
476.372160
0
LINE
8
Layer 1
10
742.769867
20
476.372160
11
743.027437
21
478.051906
0
LINE
8
Layer 1
10
743.027437
20
478.051906
11
744.057500
21
481.728250
0
LINE
8
Layer 1
10
744.057500
20
481.728250
11
745.773812
21
485.827219
0
LINE
8
Layer 1
10
745.773812
20
485.827219
11
748.176000
21
490.349000
0
LINE
8
Layer 1
10
748.176000
20
490.349000
11
750.519000
21
494.024875
0
LINE
8
Layer 1
10
750.519000
20
494.024875
11
753.180000
21
497.616000
0
LINE
8
Layer 1
10
753.180000
20
497.616000
11
755.927125
21
500.922875
0
LINE
8
Layer 1
10
755.927125
20
500.922875
11
758.522000
21
503.743000
0
LINE
8
Layer 1
10
758.522000
20
503.743000
11
765.183000
21
510.166000
0
LINE
8
Layer 1
10
765.183000
20
510.166000
11
770.827000
21
515.448000
0
LINE
8
Layer 1
10
770.827000
20
515.448000
11
777.297500
21
530.660375
0
LINE
8
Layer 1
10
777.297500
20
530.660375
11
781.662000
21
541.816000
0
LINE
8
Layer 1
10
781.662000
20
541.816000
11
775.040250
21
534.125125
0
LINE
8
Layer 1
10
775.040250
20
534.125125
11
769.320000
21
527.956000
0
LINE
8
Layer 1
10
769.320000
20
527.956000
11
766.740750
21
525.407312
0
LINE
8
Layer 1
10
766.740750
20
525.407312
11
764.269500
21
523.170250
0
LINE
8
Layer 1
10
764.269500
20
523.170250
11
761.906250
21
521.244813
0
LINE
8
Layer 1
10
761.906250
20
521.244813
11
759.651000
21
519.631000
0
LINE
8
Layer 1
10
759.651000
20
519.631000
11
757.504203
21
518.355828
0
LINE
8
Layer 1
10
757.504203
20
518.355828
11
755.465875
21
517.444875
0
LINE
8
Layer 1
10
755.465875
20
517.444875
11
753.535359
21
516.898234
0
LINE
8
Layer 1
10
753.535359
20
516.898234
11
751.712000
21
516.716000
0
LINE
8
Layer 1
10
751.712000
20
516.716000
11
750.762539
21
516.823625
0
LINE
8
Layer 1
10
750.762539
20
516.823625
11
749.831875
21
517.146500
0
LINE
8
Layer 1
10
749.831875
20
517.146500
11
748.919961
21
517.684625
0
LINE
8
Layer 1
10
748.919961
20
517.684625
11
748.026750
21
518.438000
0
LINE
8
Layer 1
10
748.026750
20
518.438000
11
746.296250
21
520.590500
0
LINE
8
Layer 1
10
746.296250
20
520.590500
11
744.640000
21
523.604000
0
LINE
8
Layer 1
10
744.640000
20
523.604000
11
743.516516
21
526.266313
0
LINE
8
Layer 1
10
743.516516
20
526.266313
11
742.631625
21
528.956750
0
LINE
8
Layer 1
10
742.631625
20
528.956750
11
741.985422
21
531.675313
0
LINE
8
Layer 1
10
741.985422
20
531.675313
11
741.578000
21
534.422000
0
LINE
8
Layer 1
10
741.578000
20
534.422000
11
732.768750
21
524.965500
0
LINE
8
Layer 1
10
732.768750
20
524.965500
11
726.205000
21
518.491000
0
LINE
8
Layer 1
10
726.205000
20
518.491000
11
723.477063
21
516.198641
0
LINE
8
Layer 1
10
723.477063
20
516.198641
11
721.012750
21
514.561125
0
LINE
8
Layer 1
10
721.012750
20
514.561125
11
718.812063
21
513.578547
0
LINE
8
Layer 1
10
718.812063
20
513.578547
11
717.810578
21
513.332889
0
LINE
8
Layer 1
10
717.810578
20
513.332889
11
716.875000
21
513.251000
0
LINE
8
Layer 1
10
716.875000
20
513.251000
11
715.429332
21
513.393596
0
LINE
8
Layer 1
10
715.429332
20
513.393596
11
714.176344
21
513.821391
0
LINE
8
Layer 1
10
714.176344
20
513.821391
11
713.116059
21
514.534396
0
LINE
8
Layer 1
10
713.116059
20
514.534396
11
712.248500
21
515.532625
0
LINE
8
Layer 1
10
712.248500
20
515.532625
11
711.573691
21
516.816088
0
LINE
8
Layer 1
10
711.573691
20
516.816088
11
711.091656
21
518.384797
0
LINE
8
Layer 1
10
711.091656
20
518.384797
11
710.802418
21
520.238764
0
LINE
8
Layer 1
10
710.802418
20
520.238764
11
710.706000
21
522.378000
0
LINE
8
Layer 1
10
710.706000
20
522.378000
11
710.893875
21
525.061375
0
LINE
8
Layer 1
10
710.893875
20
525.061375
11
711.456000
21
527.702000
0
LINE
8
Layer 1
10
711.456000
20
527.702000
11
712.351375
21
530.375000
0
LINE
8
Layer 1
10
712.351375
20
530.375000
11
713.528000
21
533.153000
0
LINE
8
Layer 1
10
713.528000
20
533.153000
11
717.552000
21
541.266000
0
LINE
8
Layer 1
10
717.552000
20
541.266000
11
723.798000
21
553.225000
0
LINE
8
Layer 1
10
723.798000
20
553.225000
11
721.517250
21
551.698391
0
LINE
8
Layer 1
10
721.517250
20
551.698391
11
718.963500
21
549.569625
0
LINE
8
Layer 1
10
718.963500
20
549.569625
11
716.136750
21
546.838797
0
LINE
8
Layer 1
10
716.136750
20
546.838797
11
713.037000
21
543.506000
0
LINE
8
Layer 1
10
713.037000
20
543.506000
11
709.144125
21
539.058250
0
LINE
8
Layer 1
10
709.144125
20
539.058250
11
705.888000
21
534.843000
0
LINE
8
Layer 1
10
705.888000
20
534.843000
11
699.606000
21
525.716000
0
LINE
8
Layer 1
10
699.606000
20
525.716000
11
696.709375
21
521.511625
0
LINE
8
Layer 1
10
696.709375
20
521.511625
11
694.715000
21
518.955000
0
LINE
8
Layer 1
10
694.715000
20
518.955000
11
693.942000
21
518.197109
0
LINE
8
Layer 1
10
693.942000
20
518.197109
11
693.163750
21
517.655875
0
LINE
8
Layer 1
10
693.163750
20
517.655875
11
692.380625
21
517.331203
0
LINE
8
Layer 1
10
692.380625
20
517.331203
11
691.593000
21
517.223000
0
LINE
8
Layer 1
10
691.593000
20
517.223000
11
690.997027
21
517.311455
0
LINE
8
Layer 1
10
690.997027
20
517.311455
11
690.412844
21
517.576828
0
LINE
8
Layer 1
10
690.412844
20
517.576828
11
689.279750
21
518.638375
0
LINE
8
Layer 1
10
689.279750
20
518.638375
11
688.193531
21
520.407734
0
LINE
8
Layer 1
10
688.193531
20
520.407734
11
687.154000
21
522.885000
0
LINE
8
Layer 1
10
687.154000
20
522.885000
11
686.431359
21
525.191609
0
LINE
8
Layer 1
10
686.431359
20
525.191609
11
685.866875
21
527.642875
0
LINE
8
Layer 1
10
685.866875
20
527.642875
11
685.460453
21
530.238703
0
LINE
8
Layer 1
10
685.460453
20
530.238703
11
685.212000
21
532.979000
0
LINE
8
Layer 1
10
685.212000
20
532.979000
11
681.990516
21
528.670219
0
LINE
8
Layer 1
10
681.990516
20
528.670219
11
678.870375
21
524.896750
0
LINE
8
Layer 1
10
678.870375
20
524.896750
11
675.851297
21
521.658406
0
LINE
8
Layer 1
10
675.851297
20
521.658406
11
672.933000
21
518.955000
0
LINE
8
Layer 1
10
672.933000
20
518.955000
11
669.889219
21
516.607516
0
LINE
8
Layer 1
10
669.889219
20
516.607516
11
667.081500
21
514.930625
0
LINE
8
Layer 1
10
667.081500
20
514.930625
11
664.509281
21
513.924422
0
LINE
8
Layer 1
10
664.509281
20
513.924422
11
663.311309
21
513.672857
0
LINE
8
Layer 1
10
663.311309
20
513.672857
11
662.172000
21
513.589000
0
LINE
8
Layer 1
10
662.172000
20
513.589000
11
660.678367
21
513.702576
0
LINE
8
Layer 1
10
660.678367
20
513.702576
11
659.283688
21
514.043297
0
LINE
8
Layer 1
10
659.283688
20
514.043297
11
657.987914
21
514.611150
0
LINE
8
Layer 1
10
657.987914
20
514.611150
11
656.791000
21
515.406125
0
LINE
8
Layer 1
10
656.791000
20
515.406125
11
655.692898
21
516.428209
0
LINE
8
Layer 1
10
655.692898
20
516.428209
11
654.693562
21
517.677391
0
LINE
8
Layer 1
10
654.693562
20
517.677391
11
653.792945
21
519.153658
0
LINE
8
Layer 1
10
653.792945
20
519.153658
11
652.991000
21
520.857000
0
LINE
8
Layer 1
10
652.991000
20
520.857000
11
651.821859
21
524.089906
0
LINE
8
Layer 1
10
651.821859
20
524.089906
11
650.939125
21
527.451250
0
LINE
8
Layer 1
10
650.939125
20
527.451250
11
650.342328
21
530.941219
0
LINE
8
Layer 1
10
650.342328
20
530.941219
11
650.031000
21
534.560000
0
LINE
8
Layer 1
10
650.031000
20
534.560000
11
644.831375
21
528.594375
0
LINE
8
Layer 1
10
644.831375
20
528.594375
11
640.576000
21
523.984000
0
LINE
8
Layer 1
10
640.576000
20
523.984000
11
636.664000
21
520.191375
0
LINE
8
Layer 1
10
636.664000
20
520.191375
11
633.052000
21
517.265000
0
LINE
8
Layer 1
10
633.052000
20
517.265000
11
631.368375
21
516.174313
0
LINE
8
Layer 1
10
631.368375
20
516.174313
11
629.779250
21
515.395250
0
LINE
8
Layer 1
10
629.779250
20
515.395250
11
628.284250
21
514.927813
0
LINE
8
Layer 1
10
628.284250
20
514.927813
11
626.883000
21
514.772000
0
LINE
8
Layer 1
10
626.883000
20
514.772000
11
625.367984
21
514.975422
0
LINE
8
Layer 1
10
625.367984
20
514.975422
11
623.984875
21
515.585625
0
LINE
8
Layer 1
10
623.984875
20
515.585625
11
622.733578
21
516.602516
0
LINE
8
Layer 1
10
622.733578
20
516.602516
11
621.614000
21
518.026000
0
LINE
8
Layer 1
10
621.614000
20
518.026000
11
620.693047
21
519.835000
0
LINE
8
Layer 1
10
620.693047
20
519.835000
11
620.034875
21
522.008500
0
LINE
8
Layer 1
10
620.034875
20
522.008500
11
619.639766
21
524.546500
0
LINE
8
Layer 1
10
619.639766
20
524.546500
11
619.508000
21
527.449000
0
LINE
8
Layer 1
10
619.508000
20
527.449000
11
619.611328
21
529.329469
0
LINE
8
Layer 1
10
619.611328
20
529.329469
11
619.921375
21
531.336500
0
LINE
8
Layer 1
10
619.921375
20
531.336500
11
620.438234
21
533.470281
0
LINE
8
Layer 1
10
620.438234
20
533.470281
11
621.162000
21
535.731000
0
LINE
8
Layer 1
10
621.162000
20
535.731000
11
623.204250
21
540.579875
0
LINE
8
Layer 1
10
623.204250
20
540.579875
11
626.016000
21
545.830000
0
LINE
8
Layer 1
10
626.016000
20
545.830000
11
629.411000
21
551.270375
0
LINE
8
Layer 1
10
629.411000
20
551.270375
11
633.202000
21
556.689000
0
LINE
8
Layer 1
10
633.202000
20
556.689000
11
628.463000
21
555.633000
0
LINE
8
Layer 1
10
628.463000
20
555.633000
11
622.895000
21
554.492000
0
LINE
8
Layer 1
10
622.895000
20
554.492000
11
618.379000
21
553.563000
0
LINE
8
Layer 1
10
618.379000
20
553.563000
11
615.929813
21
548.702078
0
LINE
8
Layer 1
10
615.929813
20
548.702078
11
613.006250
21
544.059875
0
LINE
8
Layer 1
10
613.006250
20
544.059875
11
609.609062
21
539.636484
0
LINE
8
Layer 1
10
609.609062
20
539.636484
11
605.739000
21
535.432000
0
LINE
8
Layer 1
10
605.739000
20
535.432000
11
605.739000
21
535.224000
0
LINE
8
Layer 1
10
605.739000
20
535.224000
11
601.767625
21
530.850375
0
LINE
8
Layer 1
10
601.767625
20
530.850375
11
598.889000
21
527.871000
0
LINE
8
Layer 1
10
598.889000
20
527.871000
11
596.124250
21
525.568375
0
LINE
8
Layer 1
10
596.124250
20
525.568375
11
592.494000
21
523.223000
0
LINE
8
Layer 1
10
592.494000
20
523.223000
11
592.324625
21
516.103125
0
LINE
8
Layer 1
10
592.324625
20
516.103125
11
591.817000
21
510.124000
0
LINE
8
Layer 1
10
591.817000
20
510.124000
11
591.374828
21
507.385188
0
LINE
8
Layer 1
10
591.374828
20
507.385188
11
590.726125
21
504.577750
0
LINE
8
Layer 1
10
590.726125
20
504.577750
11
589.870609
21
501.701687
0
LINE
8
Layer 1
10
589.870609
20
501.701687
11
588.808000
21
498.757000
0
LINE
8
Layer 1
10
588.808000
20
498.757000
11
587.481516
21
495.706734
0
LINE
8
Layer 1
10
587.481516
20
495.706734
11
585.834875
21
492.513875
0
LINE
8
Layer 1
10
585.834875
20
492.513875
11
583.868547
21
489.178328
0
LINE
8
Layer 1
10
583.868547
20
489.178328
11
581.583000
21
485.700000
0
LINE
8
Layer 1
10
581.583000
20
485.700000
11
579.185453
21
482.396266
0
LINE
8
Layer 1
10
579.185453
20
482.396266
11
576.806375
21
479.499125
0
LINE
8
Layer 1
10
576.806375
20
479.499125
11
574.445859
21
477.008672
0
LINE
8
Layer 1
10
574.445859
20
477.008672
11
572.104000
21
474.925000
0
LINE
8
Layer 1
10
572.104000
20
474.925000
11
569.898016
21
473.279859
0
LINE
8
Layer 1
10
569.898016
20
473.279859
11
567.946375
21
472.104875
0
LINE
8
Layer 1
10
567.946375
20
472.104875
11
566.248797
21
471.399953
0
LINE
8
Layer 1
10
566.248797
20
471.399953
11
564.805000
21
471.165000
0
LINE
8
Layer 1
10
564.805000
20
471.165000
11
564.077834
21
471.249473
0
LINE
8
Layer 1
10
564.077834
20
471.249473
11
563.364859
21
471.502906
0
LINE
8
Layer 1
10
563.364859
20
471.502906
11
561.981625
21
472.516750
0
LINE
8
Layer 1
10
561.981625
20
472.516750
11
560.655578
21
474.206719
0
LINE
8
Layer 1
10
560.655578
20
474.206719
11
559.387000
21
476.573000
0
LINE
8
Layer 1
10
559.387000
20
476.573000
11
558.299828
21
479.441187
0
LINE
8
Layer 1
10
558.299828
20
479.441187
11
557.523625
21
482.636750
0
LINE
8
Layer 1
10
557.523625
20
482.636750
11
557.058109
21
486.159688
0
LINE
8
Layer 1
10
557.058109
20
486.159688
11
556.903000
21
490.010000
0
LINE
8
Layer 1
10
556.903000
20
490.010000
11
557.049016
21
493.908547
0
LINE
8
Layer 1
10
557.049016
20
493.908547
11
557.486875
21
497.912375
0
LINE
8
Layer 1
10
557.486875
20
497.912375
11
558.216297
21
502.021766
0
LINE
8
Layer 1
10
558.216297
20
502.021766
11
559.237000
21
506.237000
0
LINE
8
Layer 1
10
559.237000
20
506.237000
11
562.208625
21
516.018625
0
LINE
8
Layer 1
10
562.208625
20
516.018625
11
566.459000
21
528.294000
0
LINE
8
Layer 1
10
566.459000
20
528.294000
11
564.649375
21
531.386250
0
LINE
8
Layer 1
10
564.649375
20
531.386250
11
563.445000
21
534.465000
0
LINE
8
Layer 1
10
563.445000
20
534.465000
11
551.487000
21
522.294000
0
LINE
8
Layer 1
10
551.487000
20
522.294000
11
547.554125
21
518.659625
0
LINE
8
Layer 1
10
547.554125
20
518.659625
11
544.186000
21
516.040000
0
LINE
8
Layer 1
10
544.186000
20
516.040000
11
542.662203
21
515.115422
0
LINE
8
Layer 1
10
542.662203
20
515.115422
11
541.176375
21
514.455125
0
LINE
8
Layer 1
10
541.176375
20
514.455125
11
539.728609
21
514.059016
0
LINE
8
Layer 1
10
539.728609
20
514.059016
11
538.319000
21
513.927000
0
LINE
8
Layer 1
10
538.319000
20
513.927000
11
536.837473
21
514.059047
0
LINE
8
Layer 1
10
536.837473
20
514.059047
11
535.553406
21
514.455188
0
LINE
8
Layer 1
10
535.553406
20
514.455188
11
534.466824
21
515.115422
0
LINE
8
Layer 1
10
534.466824
20
515.115422
11
533.577750
21
516.039750
0
LINE
8
Layer 1
10
533.577750
20
516.039750
11
532.886207
21
517.228172
0
LINE
8
Layer 1
10
532.886207
20
517.228172
11
532.392219
21
518.680688
0
LINE
8
Layer 1
10
532.392219
20
518.680688
11
532.095809
21
520.397297
0
LINE
8
Layer 1
10
532.095809
20
520.397297
11
531.997000
21
522.378000
0
LINE
8
Layer 1
10
531.997000
20
522.378000
11
532.114437
21
524.123781
0
LINE
8
Layer 1
10
532.114437
20
524.123781
11
532.467000
21
526.149500
0
LINE
8
Layer 1
10
532.467000
20
526.149500
11
533.879000
21
531.040000
0
LINE
8
Layer 1
10
533.879000
20
531.040000
11
536.342500
21
537.706000
0
LINE
8
Layer 1
10
536.342500
20
537.706000
11
539.973000
21
546.802000
0
LINE
8
Layer 1
10
539.973000
20
546.802000
11
530.369750
21
532.920750
0
LINE
8
Layer 1
10
530.369750
20
532.920750
11
526.548375
21
527.739156
0
LINE
8
Layer 1
10
526.548375
20
527.739156
11
523.381000
21
523.730000
0
LINE
8
Layer 1
10
523.381000
20
523.730000
11
520.669703
21
520.735453
0
LINE
8
Layer 1
10
520.669703
20
520.735453
11
518.217625
21
518.596375
0
LINE
8
Layer 1
10
518.217625
20
518.596375
11
517.088705
21
517.847666
0
LINE
8
Layer 1
10
517.088705
20
517.847666
11
516.024484
21
517.312859
0
LINE
8
Layer 1
10
516.024484
20
517.312859
11
515.024928
21
516.991967
0
LINE
8
Layer 1
10
515.024928
20
516.991967
11
514.090000
21
516.885000
0
LINE
8
Layer 1
10
514.090000
20
516.885000
11
512.687625
21
517.051328
0
LINE
8
Layer 1
10
512.687625
20
517.051328
11
511.342250
21
517.550375
0
LINE
8
Layer 1
10
511.342250
20
517.550375
11
510.053500
21
518.382234
0
LINE
8
Layer 1
10
510.053500
20
518.382234
11
508.821000
21
519.547000
0
LINE
8
Layer 1
10
508.821000
20
519.547000
11
507.685219
21
520.994328
0
LINE
8
Layer 1
10
507.685219
20
520.994328
11
506.686500
21
522.673875
0
LINE
8
Layer 1
10
506.686500
20
522.673875
11
505.824281
21
524.585734
0
LINE
8
Layer 1
10
505.824281
20
524.585734
11
505.098000
21
526.730000
0
LINE
8
Layer 1
10
505.098000
20
526.730000
11
504.315250
21
530.091125
0
LINE
8
Layer 1
10
504.315250
20
530.091125
11
503.879000
21
533.618000
0
LINE
8
Layer 1
10
503.879000
20
533.618000
11
498.437750
21
527.538625
0
LINE
8
Layer 1
10
498.437750
20
527.538625
11
493.547000
21
522.336000
0
LINE
8
Layer 1
10
493.547000
20
522.336000
11
488.570750
21
517.381625
0
LINE
8
Layer 1
10
488.570750
20
517.381625
11
483.878000
21
513.082000
0
LINE
8
Layer 1
10
483.878000
20
513.082000
11
479.560750
21
509.596000
0
LINE
8
Layer 1
10
479.560750
20
509.596000
11
475.713000
21
507.082000
0
LINE
8
Layer 1
10
475.713000
20
507.082000
11
473.963859
21
506.194172
0
LINE
8
Layer 1
10
473.963859
20
506.194172
11
472.327125
21
505.560125
0
LINE
8
Layer 1
10
472.327125
20
505.560125
11
470.803078
21
505.179766
0
LINE
8
Layer 1
10
470.803078
20
505.179766
11
469.392000
21
505.053000
0
LINE
8
Layer 1
10
469.392000
20
505.053000
11
467.532359
21
505.240500
0
LINE
8
Layer 1
10
467.532359
20
505.240500
11
465.865375
21
505.803000
0
LINE
8
Layer 1
10
465.865375
20
505.803000
11
464.390953
21
506.740500
0
LINE
8
Layer 1
10
464.390953
20
506.740500
11
463.109000
21
508.053000
0
LINE
8
Layer 1
10
463.109000
20
508.053000
11
462.072125
21
509.672438
0
LINE
8
Layer 1
10
462.072125
20
509.672438
11
461.331500
21
511.529250
0
LINE
8
Layer 1
10
461.331500
20
511.529250
11
460.887125
21
513.623438
0
LINE
8
Layer 1
10
460.887125
20
513.623438
11
460.739000
21
515.955000
0
LINE
8
Layer 1
10
460.739000
20
515.955000
11
460.849609
21
518.355953
0
LINE
8
Layer 1
10
460.849609
20
518.355953
11
461.181375
21
520.994375
0
LINE
8
Layer 1
10
461.181375
20
520.994375
11
461.734203
21
523.870359
0
LINE
8
Layer 1
10
461.734203
20
523.870359
11
462.508000
21
526.984000
0
LINE
8
Layer 1
10
462.508000
20
526.984000
11
464.746500
21
533.945500
0
LINE
8
Layer 1
10
464.746500
20
533.945500
11
467.927000
21
541.900000
0
LINE
8
Layer 1
10
467.927000
20
541.900000
11
472.008250
21
550.710250
0
LINE
8
Layer 1
10
472.008250
20
550.710250
11
476.955000
21
560.239000
0
LINE
8
Layer 1
10
476.955000
20
560.239000
11
482.683125
21
570.337875
0
LINE
8
Layer 1
10
482.683125
20
570.337875
11
489.108000
21
580.859000
0
LINE
8
Layer 1
10
489.108000
20
580.859000
11
492.004687
21
585.707922
0
LINE
8
Layer 1
10
492.004687
20
585.707922
11
494.073750
21
589.606125
0
LINE
8
Layer 1
10
494.073750
20
589.606125
11
495.315187
21
592.553516
0
LINE
8
Layer 1
10
495.315187
20
592.553516
11
495.625547
21
593.670627
0
LINE
8
Layer 1
10
495.625547
20
593.670627
11
495.729000
21
594.550000
0
LINE
8
Layer 1
10
495.729000
20
594.550000
11
495.625625
21
595.326422
0
LINE
8
Layer 1
10
495.625625
20
595.326422
11
495.315250
21
595.881125
0
LINE
8
Layer 1
10
495.315250
20
595.881125
11
494.797500
21
596.214016
0
LINE
8
Layer 1
10
494.797500
20
596.214016
11
494.072000
21
596.325000
0
LINE
8
Layer 1
10
494.072000
20
596.325000
11
493.168310
21
596.207812
0
LINE
8
Layer 1
10
493.168310
20
596.207812
11
492.130498
21
595.856248
0
LINE
8
Layer 1
10
492.130498
20
595.856248
11
489.652547
21
594.449984
0
LINE
8
Layer 1
10
489.652547
20
594.449984
11
486.638229
21
592.106197
0
LINE
8
Layer 1
10
486.638229
20
592.106197
11
483.087625
21
588.824875
0
LINE
8
Layer 1
10
483.087625
20
588.824875
11
479.000818
21
584.606006
0
LINE
8
Layer 1
10
479.000818
20
584.606006
11
474.377891
21
579.449578
0
LINE
8
Layer 1
10
474.377891
20
579.449578
11
469.218924
21
573.355580
0
LINE
8
Layer 1
10
469.218924
20
573.355580
11
463.524000
21
566.324000
0
LINE
8
Layer 1
10
463.524000
20
566.324000
11
458.295000
21
559.436000
0
LINE
8
Layer 1
10
458.295000
20
559.436000
11
450.694000
21
548.745000
0
LINE
8
Layer 1
10
450.694000
20
548.745000
11
442.002000
21
536.026000
0
LINE
8
Layer 1
10
442.002000
20
536.026000
11
432.223000
21
521.702000
0
LINE
8
Layer 1
10
432.223000
20
521.702000
11
431.099063
21
520.186062
0
LINE
8
Layer 1
10
431.099063
20
520.186062
11
430.059500
21
519.103250
0
LINE
8
Layer 1
10
430.059500
20
519.103250
11
429.103938
21
518.453562
0
LINE
8
Layer 1
10
429.103938
20
518.453562
11
428.232000
21
518.237000
0
LINE
8
Layer 1
10
428.232000
20
518.237000
11
427.259656
21
518.443047
0
LINE
8
Layer 1
10
427.259656
20
518.443047
11
426.145750
21
519.061125
0
LINE
8
Layer 1
10
426.145750
20
519.061125
11
424.890469
21
520.091141
0
LINE
8
Layer 1
10
424.890469
20
520.091141
11
423.494000
21
521.533000
0
LINE
8
Layer 1
10
423.494000
20
521.533000
11
422.208953
21
523.069922
0
LINE
8
Layer 1
10
422.208953
20
523.069922
11
421.291875
21
524.385125
0
LINE
8
Layer 1
10
421.291875
20
524.385125
11
420.742109
21
525.478516
0
LINE
8
Layer 1
10
420.742109
20
525.478516
11
420.559000
21
526.350000
0
LINE
8
Layer 1
10
420.559000
20
526.350000
11
420.819875
21
527.570063
0
LINE
8
Layer 1
10
420.819875
20
527.570063
11
421.602750
21
529.455750
0
LINE
8
Layer 1
10
421.602750
20
529.455750
11
424.736000
21
535.224000
0
LINE
8
Layer 1
10
424.736000
20
535.224000
11
431.469000
21
547.140000
0
LINE
8
Layer 1
10
431.469000
20
547.140000
11
443.235250
21
569.271125
0
LINE
8
Layer 1
10
443.235250
20
569.271125
11
447.842250
21
578.363672
0
LINE
8
Layer 1
10
447.842250
20
578.363672
11
451.598000
21
586.141000
0
LINE
8
Layer 1
10
451.598000
20
586.141000
11
454.511328
21
592.614281
0
LINE
8
Layer 1
10
454.511328
20
592.614281
11
456.592625
21
597.793250
0
LINE
8
Layer 1
10
456.592625
20
597.793250
11
457.841609
21
601.678094
0
LINE
8
Layer 1
10
457.841609
20
601.678094
11
458.153896
21
603.135277
0
LINE
8
Layer 1
10
458.153896
20
603.135277
11
458.258000
21
604.269000
0
LINE
8
Layer 1
10
458.258000
20
604.269000
11
458.031875
21
605.579125
0
LINE
8
Layer 1
10
458.031875
20
605.579125
11
457.355000
21
606.635000
0
LINE
8
Layer 1
10
457.355000
20
606.635000
11
456.374875
21
607.332500
0
LINE
8
Layer 1
10
456.374875
20
607.332500
11
455.247000
21
607.565000
0
LINE
8
Layer 1
10
455.247000
20
607.565000
11
453.549344
21
607.248109
0
LINE
8
Layer 1
10
453.549344
20
607.248109
11
450.788750
21
606.297375
0
LINE
8
Layer 1
10
450.788750
20
606.297375
11
446.965031
21
604.712703
0
LINE
8
Layer 1
10
446.965031
20
604.712703
11
442.078000
21
602.494000
0
LINE
8
Layer 1
10
442.078000
20
602.494000
11
434.328625
21
598.701875
0
LINE
8
Layer 1
10
434.328625
20
598.701875
11
428.986000
21
595.776000
0
LINE
8
Layer 1
10
428.986000
20
595.776000
11
417.587000
21
588.635000
0
LINE
8
Layer 1
10
417.587000
20
588.635000
11
411.877500
21
585.148375
0
LINE
8
Layer 1
10
411.877500
20
585.148375
11
410.186750
21
584.276609
0
LINE
8
Layer 1
10
410.186750
20
584.276609
11
409.273000
21
583.986000
0
LINE
8
Layer 1
10
409.273000
20
583.986000
11
408.350469
21
584.192047
0
LINE
8
Layer 1
10
408.350469
20
584.192047
11
407.691750
21
584.810125
0
LINE
8
Layer 1
10
407.691750
20
584.810125
11
407.296656
21
585.840141
0
LINE
8
Layer 1
10
407.296656
20
585.840141
11
407.165000
21
587.282000
0
LINE
8
Layer 1
10
407.165000
20
587.282000
11
407.279004
21
588.913063
0
LINE
8
Layer 1
10
407.279004
20
588.913063
11
407.621031
21
590.678750
0
LINE
8
Layer 1
10
407.621031
20
590.678750
11
408.191105
21
592.579062
0
LINE
8
Layer 1
10
408.191105
20
592.579062
11
408.989250
21
594.614000
0
LINE
8
Layer 1
10
408.989250
20
594.614000
11
411.269844
21
599.087750
0
LINE
8
Layer 1
10
411.269844
20
599.087750
11
414.463000
21
604.100000
0
LINE
8
Layer 1
10
414.463000
20
604.100000
11
416.464328
21
606.824750
0
LINE
8
Layer 1
10
416.464328
20
606.824750
11
418.637875
21
609.459500
0
LINE
8
Layer 1
10
418.637875
20
609.459500
11
420.984484
21
612.004250
0
LINE
8
Layer 1
10
420.984484
20
612.004250
11
423.505000
21
614.459000
0
LINE
8
Layer 1
10
423.505000
20
614.459000
11
403.829708
21
610.057674
0
LINE
8
Layer 1
10
403.829708
20
610.057674
11
384.534881
21
605.288742
0
LINE
8
Layer 1
10
384.534881
20
605.288742
11
365.636529
21
600.160618
0
LINE
8
Layer 1
10
365.636529
20
600.160618
11
347.150664
21
594.681717
0
LINE
8
Layer 1
10
347.150664
20
594.681717
11
329.093298
21
588.860451
0
LINE
8
Layer 1
10
329.093298
20
588.860451
11
311.480440
21
582.705236
0
LINE
8
Layer 1
10
311.480440
20
582.705236
11
294.328103
21
576.224484
0
LINE
8
Layer 1
10
294.328103
20
576.224484
11
277.652297
21
569.426609
0
LINE
8
Layer 1
10
277.652297
20
569.426609
11
261.469033
21
562.320027
0
LINE
8
Layer 1
10
261.469033
20
562.320027
11
245.794323
21
554.913149
0
LINE
8
Layer 1
10
245.794323
20
554.913149
11
230.644176
21
547.214391
0
LINE
8
Layer 1
10
230.644176
20
547.214391
11
216.034606
21
539.232166
0
LINE
8
Layer 1
10
216.034606
20
539.232166
11
201.981622
21
530.974888
0
LINE
8
Layer 1
10
201.981622
20
530.974888
11
188.501235
21
522.450971
0
LINE
8
Layer 1
10
188.501235
20
522.450971
11
175.609458
21
513.668829
0
LINE
8
Layer 1
10
175.609458
20
513.668829
11
163.322300
21
504.636875
0
LINE
8
Layer 1
10
163.322300
20
504.636875
11
151.655773
21
495.363524
0
LINE
8
Layer 1
10
151.655773
20
495.363524
11
140.625888
21
485.857189
0
LINE
8
Layer 1
10
140.625888
20
485.857189
11
135.354690
21
481.019282
0
LINE
8
Layer 1
10
135.354690
20
481.019282
11
130.248656
21
476.126285
0
LINE
8
Layer 1
10
130.248656
20
476.126285
11
125.309788
21
471.179248
0
LINE
8
Layer 1
10
125.309788
20
471.179248
11
120.540088
21
466.179225
0
LINE
8
Layer 1
10
120.540088
20
466.179225
11
115.941556
21
461.127265
0
LINE
8
Layer 1
10
115.941556
20
461.127265
11
111.516195
21
456.024422
0
LINE
8
Layer 1
10
111.516195
20
456.024422
11
107.266005
21
450.871747
0
LINE
8
Layer 1
10
107.266005
20
450.871747
11
103.192988
21
445.670292
0
LINE
8
Layer 1
10
103.192988
20
445.670292
11
99.299146
21
440.421108
0
LINE
8
Layer 1
10
99.299146
20
440.421108
11
95.586479
21
435.125248
0
LINE
8
Layer 1
10
95.586479
20
435.125248
11
92.056989
21
429.783762
0
LINE
8
Layer 1
10
92.056989
20
429.783762
11
88.712678
21
424.397703
0
LINE
8
Layer 1
10
88.712678
20
424.397703
11
85.555547
21
418.968122
0
LINE
8
Layer 1
10
85.555547
20
418.968122
11
82.587597
21
413.496072
0
LINE
8
Layer 1
10
82.587597
20
413.496072
11
79.810829
21
407.982603
0
LINE
8
Layer 1
10
79.810829
20
407.982603
11
77.227246
21
402.428768
0
LINE
8
Layer 1
10
77.227246
20
402.428768
11
74.838847
21
396.835619
0
LINE
8
Layer 1
10
74.838847
20
396.835619
11
72.647636
21
391.204206
0
LINE
8
Layer 1
10
72.647636
20
391.204206
11
70.655613
21
385.535582
0
LINE
8
Layer 1
10
70.655613
20
385.535582
11
68.864779
21
379.830799
0
LINE
8
Layer 1
10
68.864779
20
379.830799
11
67.277137
21
374.090908
0
LINE
8
Layer 1
10
67.277137
20
374.090908
11
65.894686
21
368.316961
0
LINE
8
Layer 1
10
65.894686
20
368.316961
11
64.719430
21
362.510010
0
LINE
8
Layer 1
10
64.719430
20
362.510010
11
63.753368
21
356.671106
0
LINE
8
Layer 1
10
63.753368
20
356.671106
11
62.998503
21
350.801301
0
LINE
8
Layer 1
10
62.998503
20
350.801301
11
62.456835
21
344.901647
0
LINE
8
Layer 1
10
62.456835
20
344.901647
11
62.130367
21
338.973197
0
LINE
8
Layer 1
10
62.130367
20
338.973197
11
62.021100
21
333.017000
0
LINE
8
Layer 1
10
62.021100
20
333.017000
11
62.265945
21
324.104564
0
LINE
8
Layer 1
10
62.265945
20
324.104564
11
62.995993
21
315.255609
0
LINE
8
Layer 1
10
62.995993
20
315.255609
11
64.204515
21
306.473662
0
LINE
8
Layer 1
10
64.204515
20
306.473662
11
65.884784
21
297.762250
0
LINE
8
Layer 1
10
65.884784
20
297.762250
11
68.030071
21
289.124900
0
LINE
8
Layer 1
10
68.030071
20
289.124900
11
70.633646
21
280.565141
0
LINE
8
Layer 1
10
70.633646
20
280.565141
11
73.688782
21
272.086498
0
LINE
8
Layer 1
10
73.688782
20
272.086498
11
77.188750
21
263.692500
0
LINE
8
Layer 1
10
77.188750
20
263.692500
11
81.126821
21
255.386674
0
LINE
8
Layer 1
10
81.126821
20
255.386674
11
85.496266
21
247.172547
0
LINE
8
Layer 1
10
85.496266
20
247.172547
11
90.290357
21
239.053646
0
LINE
8
Layer 1
10
90.290357
20
239.053646
11
95.502366
21
231.033500
0
LINE
8
Layer 1
10
95.502366
20
231.033500
11
101.125563
21
223.115635
0
LINE
8
Layer 1
10
101.125563
20
223.115635
11
107.153220
21
215.303578
0
LINE
8
Layer 1
10
107.153220
20
215.303578
11
113.578609
21
207.600857
0
LINE
8
Layer 1
10
113.578609
20
207.600857
11
120.395000
21
200.011000
0
LINE
8
Layer 1
10
120.395000
20
200.011000
11
120.851000
21
258.141000
0
LINE
8
Layer 1
10
120.851000
20
258.141000
11
120.122000
21
258.936000
0
LINE
8
Layer 1
10
120.122000
20
258.936000
11
113.990000
21
257.164000
0
LINE
8
Layer 1
10
113.990000
20
257.164000
11
113.642000
21
257.029000
0
LINE
8
Layer 1
10
113.642000
20
257.029000
11
93.724200
21
262.464000
0
LINE
8
Layer 1
10
93.724200
20
262.464000
11
93.626600
21
263.695000
0
LINE
8
Layer 1
10
93.626600
20
263.695000
11
94.516700
21
279.911000
0
LINE
8
Layer 1
10
94.516700
20
279.911000
11
93.833700
21
279.914000
0
LINE
8
Layer 1
10
93.833700
20
279.914000
11
94.524900
21
280.058000
0
LINE
8
Layer 1
10
94.524900
20
280.058000
11
94.516700
21
279.911000
0
LINE
8
Layer 1
10
94.516700
20
279.911000
11
109.979000
21
279.821000
0
LINE
8
Layer 1
10
109.979000
20
279.821000
11
110.377000
21
281.263000
0
LINE
8
Layer 1
10
110.377000
20
281.263000
11
109.582000
21
315.073000
0
LINE
8
Layer 1
10
109.582000
20
315.073000
11
109.184000
21
314.681000
0
LINE
8
Layer 1
10
109.184000
20
314.681000
11
95.926100
21
315.206000
0
LINE
8
Layer 1
10
95.926100
20
315.206000
11
95.428600
21
315.107000
0
LINE
8
Layer 1
10
95.428600
20
315.107000
11
94.997900
21
345.861000
0
LINE
8
Layer 1
10
94.997900
20
345.861000
11
96.058800
21
347.574000
0
LINE
8
Layer 1
10
96.058800
20
347.574000
11
110.791000
21
348.234000
0
LINE
8
Layer 1
10
110.791000
20
348.234000
11
110.725000
21
349.871000
0
LINE
8
Layer 1
10
110.725000
20
349.871000
11
109.714000
21
381.906000
0
LINE
8
Layer 1
10
109.714000
20
381.906000
11
109.714000
21
383.230000
0
LINE
8
Layer 1
10
109.714000
20
383.230000
11
97.732300
21
382.629000
0
LINE
8
Layer 1
10
97.732300
20
382.629000
11
97.130900
21
384.568000
0
LINE
8
Layer 1
10
97.130900
20
384.568000
11
97.252000
21
399.771000
0
LINE
8
Layer 1
10
97.252000
20
399.771000
11
97.732300
21
400.555000
0
LINE
8
Layer 1
10
97.732300
20
400.555000
11
90.302000
21
401.284000
0
LINE
8
Layer 1
10
90.302000
20
401.284000
11
90.543300
21
401.862000
0
LINE
8
Layer 1
10
90.543300
20
401.862000
11
125.110000
21
443.497000
0
LINE
8
Layer 1
10
125.110000
20
443.497000
11
124.845000
21
445.136000
0
LINE
8
Layer 1
10
124.845000
20
445.136000
11
131.474000
21
446.143000
0
LINE
8
Layer 1
10
131.474000
20
446.143000
11
130.580000
21
446.127000
0
LINE
8
Layer 1
10
130.580000
20
446.127000
11
164.752000
21
502.850000
0
LINE
8
Layer 1
10
164.752000
20
502.850000
11
166.293000
21
504.305000
0
LINE
8
Layer 1
10
166.293000
20
504.305000
11
172.558000
21
502.459000
0
LINE
8
Layer 1
10
172.558000
20
502.459000
11
173.504000
21
502.517000
0
LINE
8
Layer 1
10
173.504000
20
502.517000
11
173.885000
21
498.390000
0
LINE
8
Layer 1
10
173.885000
20
498.390000
11
175.868000
21
498.166000
0
LINE
8
Layer 1
10
175.868000
20
498.166000
11
248.028000
21
485.172000
0
LINE
8
Layer 1
10
248.028000
20
485.172000
11
249.787000
21
486.307000
0
LINE
8
Layer 1
10
249.787000
20
486.307000
11
277.049000
21
504.500000
0
LINE
8
Layer 1
10
277.049000
20
504.500000
11
331.142000
21
521.436000
0
LINE
8
Layer 1
10
331.142000
20
521.436000
11
406.555000
21
482.970000
0
LINE
8
Layer 1
10
406.555000
20
482.970000
11
406.609000
21
482.883000
0
LINE
8
Layer 1
10
406.609000
20
482.883000
11
503.862000
21
469.762000
0
LINE
8
Layer 1
10
503.862000
20
469.762000
11
503.930000
21
468.185000
0
LINE
8
Layer 1
10
503.930000
20
468.185000
11
531.370000
21
446.184000
0
LINE
8
Layer 1
10
531.370000
20
446.184000
11
533.264000
21
446.848000
0
LINE
8
Layer 1
10
533.264000
20
446.848000
11
556.581000
21
450.137000
0
LINE
8
Layer 1
10
556.581000
20
450.137000
11
557.840000
21
448.890000
0
LINE
8
Layer 1
10
557.840000
20
448.890000
11
579.436000
21
407.586000
0
LINE
8
Layer 1
10
579.436000
20
407.586000
11
579.966000
21
408.051000
0
LINE
8
Layer 1
10
579.966000
20
408.051000
11
609.348000
21
388.744000
0
LINE
8
Layer 1
10
609.348000
20
388.744000
11
609.151000
21
388.095000
0
LINE
8
Layer 1
10
609.151000
20
388.095000
11
609.018000
21
287.034000
0
LINE
8
Layer 1
10
609.018000
20
287.034000
11
608.950000
21
285.457000
0
LINE
8
Layer 1
10
608.950000
20
285.457000
11
600.899000
21
284.994000
0
LINE
8
Layer 1
10
600.899000
20
284.994000
11
600.899000
21
284.994000
0
LINE
8
Layer 1
10
193.165000
20
451.539000
11
175.311000
21
401.374000
0
LINE
8
Layer 1
10
175.311000
20
401.374000
11
208.532000
21
412.067000
0
LINE
8
Layer 1
10
208.532000
20
412.067000
11
193.165000
21
451.539000
0
LINE
8
Layer 1
10
193.165000
20
451.539000
11
193.165000
21
451.539000
0
LINE
8
Layer 1
10
136.984000
20
314.876000
11
138.122000
21
274.842000
0
LINE
8
Layer 1
10
138.122000
20
274.842000
11
159.560000
21
274.769000
0
LINE
8
Layer 1
10
159.560000
20
274.769000
11
158.947000
21
315.559000
0
LINE
8
Layer 1
10
158.947000
20
315.559000
11
136.984000
21
314.876000
0
LINE
8
Layer 1
10
136.984000
20
314.876000
11
136.984000
21
314.876000
0
LINE
8
Layer 1
10
912.559000
20
529.806000
11
913.251000
21
518.004000
0
LINE
8
Layer 1
10
913.251000
20
518.004000
11
920.854000
21
520.431000
0
LINE
8
Layer 1
10
920.854000
20
520.431000
11
920.854000
21
532.902000
0
LINE
8
Layer 1
10
920.854000
20
532.902000
11
912.559000
21
529.806000
0
LINE
8
Layer 1
10
912.559000
20
529.806000
11
912.559000
21
529.806000
0
LINE
8
Layer 1
10
1012.640000
20
286.397000
11
1009.640445
21
289.697240
0
LINE
8
Layer 1
10
1009.640445
20
289.697240
11
1008.140976
21
291.023565
0
LINE
8
Layer 1
10
1008.140976
20
291.023565
11
1006.641687
21
292.131547
0
LINE
8
Layer 1
10
1006.641687
20
292.131547
11
1005.142563
21
293.019328
0
LINE
8
Layer 1
10
1005.142563
20
293.019328
11
1003.643586
21
293.685049
0
LINE
8
Layer 1
10
1003.643586
20
293.685049
11
1002.144737
21
294.126851
0
LINE
8
Layer 1
10
1002.144737
20
294.126851
11
1000.646000
21
294.342875
0
LINE
8
Layer 1
10
1000.646000
20
294.342875
11
999.147356
21
294.331262
0
LINE
8
Layer 1
10
999.147356
20
294.331262
11
997.648789
21
294.090154
0
LINE
8
Layer 1
10
997.648789
20
294.090154
11
996.150280
21
293.617692
0
LINE
8
Layer 1
10
996.150280
20
293.617692
11
994.651813
21
292.912016
0
LINE
8
Layer 1
10
994.651813
20
292.912016
11
993.153368
21
291.971267
0
LINE
8
Layer 1
10
993.153368
20
291.971267
11
991.654930
21
290.793588
0
LINE
8
Layer 1
10
991.654930
20
290.793588
11
990.156479
21
289.377118
0
LINE
8
Layer 1
10
990.156479
20
289.377118
11
988.658000
21
287.720000
0
LINE
8
Layer 1
10
988.658000
20
287.720000
11
988.658000
21
251.336000
0
LINE
8
Layer 1
10
988.658000
20
251.336000
11
1012.640000
21
250.013000
0
LINE
8
Layer 1
10
1012.640000
20
250.013000
11
1012.640000
21
286.397000
0
LINE
8
Layer 1
10
1012.640000
20
286.397000
11
1012.640000
21
286.397000
0
LINE
8
Layer 1
10
1161.530000
20
203.576000
11
1167.974524
21
210.992293
0
LINE
8
Layer 1
10
1167.974524
20
210.992293
11
1174.047754
21
218.513516
0
LINE
8
Layer 1
10
1174.047754
20
218.513516
11
1179.743552
21
226.136434
0
LINE
8
Layer 1
10
1179.743552
20
226.136434
11
1185.055781
21
233.857812
0
LINE
8
Layer 1
10
1185.055781
20
233.857812
11
1189.978303
21
241.674418
0
LINE
8
Layer 1
10
1189.978303
20
241.674418
11
1194.504980
21
249.583016
0
LINE
8
Layer 1
10
1194.504980
20
249.583016
11
1198.629675
21
257.580371
0
LINE
8
Layer 1
10
1198.629675
20
257.580371
11
1202.346250
21
265.663250
0
LINE
8
Layer 1
10
1202.346250
20
265.663250
11
1205.648567
21
273.828418
0
LINE
8
Layer 1
10
1205.648567
20
273.828418
11
1208.530488
21
282.072641
0
LINE
8
Layer 1
10
1208.530488
20
282.072641
11
1210.985876
21
290.392684
0
LINE
8
Layer 1
10
1210.985876
20
290.392684
11
1213.008594
21
298.785312
0
LINE
8
Layer 1
10
1213.008594
20
298.785312
11
1214.592502
21
307.247293
0
LINE
8
Layer 1
10
1214.592502
20
307.247293
11
1215.731465
21
315.775391
0
LINE
8
Layer 1
10
1215.731465
20
315.775391
11
1216.419343
21
324.366371
0
LINE
8
Layer 1
10
1216.419343
20
324.366371
11
1216.650000
21
333.017000
0
LINE
8
Layer 1
10
1216.650000
20
333.017000
11
1216.383617
21
342.312889
0
LINE
8
Layer 1
10
1216.383617
20
342.312889
11
1215.589557
21
351.539567
0
LINE
8
Layer 1
10
1215.589557
20
351.539567
11
1214.275459
21
360.693020
0
LINE
8
Layer 1
10
1214.275459
20
360.693020
11
1212.448959
21
369.769236
0
LINE
8
Layer 1
10
1212.448959
20
369.769236
11
1210.117693
21
378.764201
0
LINE
8
Layer 1
10
1210.117693
20
378.764201
11
1207.289299
21
387.673901
0
LINE
8
Layer 1
10
1207.289299
20
387.673901
11
1203.971413
21
396.494323
0
LINE
8
Layer 1
10
1203.971413
20
396.494323
11
1200.171672
21
405.221453
0
LINE
8
Layer 1
10
1200.171672
20
405.221453
11
1195.897712
21
413.851278
0
LINE
8
Layer 1
10
1195.897712
20
413.851278
11
1191.157172
21
422.379784
0
LINE
8
Layer 1
10
1191.157172
20
422.379784
11
1185.957686
21
430.802959
0
LINE
8
Layer 1
10
1185.957686
20
430.802959
11
1180.306893
21
439.116787
0
LINE
8
Layer 1
10
1180.306893
20
439.116787
11
1174.212428
21
447.317257
0
LINE
8
Layer 1
10
1174.212428
20
447.317257
11
1167.681929
21
455.400353
0
LINE
8
Layer 1
10
1167.681929
20
455.400353
11
1160.723032
21
463.362064
0
LINE
8
Layer 1
10
1160.723032
20
463.362064
11
1153.343375
21
471.198375
0
LINE
8
Layer 1
10
1153.343375
20
471.198375
11
1145.550594
21
478.905273
0
LINE
8
Layer 1
10
1145.550594
20
478.905273
11
1137.352325
21
486.478744
0
LINE
8
Layer 1
10
1137.352325
20
486.478744
11
1128.756206
21
493.914776
0
LINE
8
Layer 1
10
1128.756206
20
493.914776
11
1119.769873
21
501.209354
0
LINE
8
Layer 1
10
1119.769873
20
501.209354
11
1110.400963
21
508.358464
0
LINE
8
Layer 1
10
1110.400963
20
508.358464
11
1100.657114
21
515.358094
0
LINE
8
Layer 1
10
1100.657114
20
515.358094
11
1090.545960
21
522.204231
0
LINE
8
Layer 1
10
1090.545960
20
522.204231
11
1080.075141
21
528.892859
0
LINE
8
Layer 1
10
1080.075141
20
528.892859
11
1069.252291
21
535.419967
0
LINE
8
Layer 1
10
1069.252291
20
535.419967
11
1058.085049
21
541.781540
0
LINE
8
Layer 1
10
1058.085049
20
541.781540
11
1046.581050
21
547.973566
0
LINE
8
Layer 1
10
1046.581050
20
547.973566
11
1034.747932
21
553.992029
0
LINE
8
Layer 1
10
1034.747932
20
553.992029
11
1022.593331
21
559.832918
0
LINE
8
Layer 1
10
1022.593331
20
559.832918
11
1010.124884
21
565.492219
0
LINE
8
Layer 1
10
1010.124884
20
565.492219
11
997.350228
21
570.965917
0
LINE
8
Layer 1
10
997.350228
20
570.965917
11
984.277000
21
576.250000
0
LINE
8
Layer 1
10
984.277000
20
576.250000
11
1000.550000
21
534.469000
0
LINE
8
Layer 1
10
1000.550000
20
534.469000
11
1002.810000
21
533.332000
0
LINE
8
Layer 1
10
1002.810000
20
533.332000
11
1004.550000
21
530.281000
0
LINE
8
Layer 1
10
1004.550000
20
530.281000
11
1004.030000
21
528.859000
0
LINE
8
Layer 1
10
1004.030000
20
528.859000
11
1004.130000
21
432.294000
0
LINE
8
Layer 1
10
1004.130000
20
432.294000
11
1006.130000
21
431.500000
0
LINE
8
Layer 1
10
1006.130000
20
431.500000
11
1100.010000
21
448.205000
0
LINE
8
Layer 1
10
1100.010000
20
448.205000
11
1103.990000
21
449.833000
0
LINE
8
Layer 1
10
1103.990000
20
449.833000
11
1108.200000
21
459.742000
0
LINE
8
Layer 1
10
1108.200000
20
459.742000
11
1108.690000
21
459.358000
0
LINE
8
Layer 1
10
1108.690000
20
459.358000
11
1113.410000
21
448.314000
0
LINE
8
Layer 1
10
1113.410000
20
448.314000
11
1114.610000
21
445.831000
0
LINE
8
Layer 1
10
1114.610000
20
445.831000
11
1145.600000
21
331.374000
0
LINE
8
Layer 1
10
1145.600000
20
331.374000
11
1146.330000
21
327.203000
0
LINE
8
Layer 1
10
1146.330000
20
327.203000
11
1149.690000
21
252.152000
0
LINE
8
Layer 1
10
1149.690000
20
252.152000
11
1152.010000
21
252.468000
0
LINE
8
Layer 1
10
1152.010000
20
252.468000
11
1159.950000
21
252.888000
0
LINE
8
Layer 1
10
1159.950000
20
252.888000
11
1160.470000
21
250.828000
0
LINE
8
Layer 1
10
1160.470000
20
250.828000
11
1161.530000
21
203.576000
0
LINE
8
Layer 1
10
1161.530000
20
203.576000
11
1161.530000
21
203.576000
0
LINE
8
Layer 1
10
856.643000
20
295.123000
11
853.644678
21
298.422539
0
LINE
8
Layer 1
10
853.644678
20
298.422539
11
852.145639
21
299.748552
0
LINE
8
Layer 1
10
852.145639
20
299.748552
11
850.646672
21
300.856250
0
LINE
8
Layer 1
10
850.646672
20
300.856250
11
849.147769
21
301.743776
0
LINE
8
Layer 1
10
849.147769
20
301.743776
11
847.648924
21
302.409273
0
LINE
8
Layer 1
10
847.648924
20
302.409273
11
846.150128
21
302.850884
0
LINE
8
Layer 1
10
846.150128
20
302.850884
11
844.651375
21
303.066750
0
LINE
8
Layer 1
10
844.651375
20
303.066750
11
843.152657
21
303.055015
0
LINE
8
Layer 1
10
843.152657
20
303.055015
11
841.653967
21
302.813820
0
LINE
8
Layer 1
10
841.653967
20
302.813820
11
840.155297
21
302.341310
0
LINE
8
Layer 1
10
840.155297
20
302.341310
11
838.656641
21
301.635625
0
LINE
8
Layer 1
10
838.656641
20
301.635625
11
837.157990
21
300.694909
0
LINE
8
Layer 1
10
837.157990
20
300.694909
11
835.659338
21
299.517305
0
LINE
8
Layer 1
10
835.659338
20
299.517305
11
834.160677
21
298.100954
0
LINE
8
Layer 1
10
834.160677
20
298.100954
11
832.662000
21
296.444000
0
LINE
8
Layer 1
10
832.662000
20
296.444000
11
832.662000
21
260.060000
0
LINE
8
Layer 1
10
832.662000
20
260.060000
11
856.643000
21
258.736000
0
LINE
8
Layer 1
10
856.643000
20
258.736000
11
856.643000
21
295.123000
0
LINE
8
Layer 1
10
856.643000
20
295.123000
11
856.643000
21
295.123000
0
LINE
8
Layer 1
10
1070.500000
20
342.996000
11
1052.150000
21
343.168000
0
LINE
8
Layer 1
10
1052.150000
20
343.168000
11
1053.270000
21
305.164000
0
LINE
8
Layer 1
10
1053.270000
20
305.164000
11
1071.470000
21
306.770000
0
LINE
8
Layer 1
10
1071.470000
20
306.770000
11
1070.500000
21
342.996000
0
LINE
8
Layer 1
10
1070.500000
20
342.996000
11
1070.500000
21
342.996000
0
LINE
8
Layer 1
10
202.252000
20
318.132000
11
175.615000
21
316.719000
0
LINE
8
Layer 1
10
175.615000
20
316.719000
11
175.021000
21
274.205000
0
LINE
8
Layer 1
10
175.021000
20
274.205000
11
202.048000
21
272.785000
0
LINE
8
Layer 1
10
202.048000
20
272.785000
11
202.252000
21
318.132000
0
LINE
8
Layer 1
10
202.252000
20
318.132000
11
202.252000
21
318.132000
0
LINE
8
Layer 1
10
700.224000
20
225.095000
11
697.151875
21
225.114691
0
LINE
8
Layer 1
10
697.151875
20
225.114691
11
694.123205
21
224.949197
0
LINE
8
Layer 1
10
694.123205
20
224.949197
11
691.142233
21
224.591859
0
LINE
8
Layer 1
10
691.142233
20
224.591859
11
688.213203
21
224.036016
0
LINE
8
Layer 1
10
688.213203
20
224.036016
11
685.340359
21
223.275006
0
LINE
8
Layer 1
10
685.340359
20
223.275006
11
682.527943
21
222.302170
0
LINE
8
Layer 1
10
682.527943
20
222.302170
11
679.780201
21
221.110846
0
LINE
8
Layer 1
10
679.780201
20
221.110846
11
677.101375
21
219.694375
0
LINE
8
Layer 1
10
677.101375
20
219.694375
11
674.495709
21
218.046095
0
LINE
8
Layer 1
10
674.495709
20
218.046095
11
671.967447
21
216.159346
0
LINE
8
Layer 1
10
671.967447
20
216.159346
11
669.520833
21
214.027467
0
LINE
8
Layer 1
10
669.520833
20
214.027467
11
667.160109
21
211.643797
0
LINE
8
Layer 1
10
667.160109
20
211.643797
11
664.889521
21
209.001676
0
LINE
8
Layer 1
10
664.889521
20
209.001676
11
662.713311
21
206.094443
0
LINE
8
Layer 1
10
662.713311
20
206.094443
11
660.635722
21
202.915438
0
LINE
8
Layer 1
10
660.635722
20
202.915438
11
658.661000
21
199.458000
0
LINE
8
Layer 1
10
658.661000
20
199.458000
11
657.337459
21
196.687008
0
LINE
8
Layer 1
10
657.337459
20
196.687008
11
656.250556
21
193.797714
0
LINE
8
Layer 1
10
656.250556
20
193.797714
11
655.384776
21
190.797800
0
LINE
8
Layer 1
10
655.384776
20
190.797800
11
654.724605
21
187.694948
0
LINE
8
Layer 1
10
654.724605
20
187.694948
11
654.254529
21
184.496837
0
LINE
8
Layer 1
10
654.254529
20
184.496837
11
653.959032
21
181.211150
0
LINE
8
Layer 1
10
653.959032
20
181.211150
11
653.822600
21
177.845566
0
LINE
8
Layer 1
10
653.822600
20
177.845566
11
653.829719
21
174.407769
0
LINE
8
Layer 1
10
653.829719
20
174.407769
11
654.212550
21
167.346254
0
LINE
8
Layer 1
10
654.212550
20
167.346254
11
654.983410
21
160.088055
0
LINE
8
Layer 1
10
654.983410
20
160.088055
11
656.018182
21
152.694621
0
LINE
8
Layer 1
10
656.018182
20
152.694621
11
657.192750
21
145.227400
0
LINE
8
Layer 1
10
657.192750
20
145.227400
11
659.464809
21
130.317395
0
LINE
8
Layer 1
10
659.464809
20
130.317395
11
660.314067
21
122.997508
0
LINE
8
Layer 1
10
660.314067
20
122.997508
11
660.806656
21
115.849631
0
LINE
8
Layer 1
10
660.806656
20
115.849631
11
660.818460
21
108.935213
0
LINE
8
Layer 1
10
660.818460
20
108.935213
11
660.605282
21
105.584754
0
LINE
8
Layer 1
10
660.605282
20
105.584754
11
660.225363
21
102.315702
0
LINE
8
Layer 1
10
660.225363
20
102.315702
11
659.663190
21
99.135740
0
LINE
8
Layer 1
10
659.663190
20
99.135740
11
658.903249
21
96.052548
0
LINE
8
Layer 1
10
658.903249
20
96.052548
11
657.930023
21
93.073808
0
LINE
8
Layer 1
10
657.930023
20
93.073808
11
656.728000
21
90.207200
0
LINE
8
Layer 1
10
656.728000
20
90.207200
11
656.108546
21
89.170274
0
LINE
8
Layer 1
10
656.108546
20
89.170274
11
655.252553
21
88.172826
0
LINE
8
Layer 1
10
655.252553
20
88.172826
11
654.185326
21
87.246331
0
LINE
8
Layer 1
10
654.185326
20
87.246331
11
652.932172
21
86.422259
0
LINE
8
Layer 1
10
652.932172
20
86.422259
11
651.518394
21
85.732085
0
LINE
8
Layer 1
10
651.518394
20
85.732085
11
649.969299
21
85.207282
0
LINE
8
Layer 1
10
649.969299
20
85.207282
11
648.310191
21
84.879321
0
LINE
8
Layer 1
10
648.310191
20
84.879321
11
646.566375
21
84.779675
0
LINE
8
Layer 1
10
646.566375
20
84.779675
11
644.763157
21
84.939818
0
LINE
8
Layer 1
10
644.763157
20
84.939818
11
642.925842
21
85.391221
0
LINE
8
Layer 1
10
642.925842
20
85.391221
11
641.079735
21
86.165359
0
LINE
8
Layer 1
10
641.079735
20
86.165359
11
639.250141
21
87.293703
0
LINE
8
Layer 1
10
639.250141
20
87.293703
11
637.462365
21
88.807727
0
LINE
8
Layer 1
10
637.462365
20
88.807727
11
635.741713
21
90.738902
0
LINE
8
Layer 1
10
635.741713
20
90.738902
11
634.113490
21
93.118702
0
LINE
8
Layer 1
10
634.113490
20
93.118702
11
632.603000
21
95.978600
0
LINE
8
Layer 1
10
632.603000
20
95.978600
11
631.704297
21
98.404812
0
LINE
8
Layer 1
10
631.704297
20
98.404812
11
631.130252
21
101.015236
0
LINE
8
Layer 1
10
631.130252
20
101.015236
11
630.836897
21
103.768721
0
LINE
8
Layer 1
10
630.836897
20
103.768721
11
630.780266
21
106.624113
0
LINE
8
Layer 1
10
630.780266
20
106.624113
11
630.916390
21
109.540259
0
LINE
8
Layer 1
10
630.916390
20
109.540259
11
631.201303
21
112.476008
0
LINE
8
Layer 1
10
631.201303
20
112.476008
11
632.041625
21
118.241700
0
LINE
8
Layer 1
10
632.041625
20
118.241700
11
632.949494
21
123.591967
0
LINE
8
Layer 1
10
632.949494
20
123.591967
11
633.573172
21
128.197587
0
LINE
8
Layer 1
10
633.573172
20
128.197587
11
633.668521
21
130.118273
0
LINE
8
Layer 1
10
633.668521
20
130.118273
11
633.560920
21
131.729339
0
LINE
8
Layer 1
10
633.560920
20
131.729339
11
633.206402
21
132.989632
0
LINE
8
Layer 1
10
633.206402
20
132.989632
11
632.561000
21
133.858000
0
LINE
8
Layer 1
10
632.561000
20
133.858000
11
629.871645
21
135.720132
0
LINE
8
Layer 1
10
629.871645
20
135.720132
11
628.598087
21
136.347539
0
LINE
8
Layer 1
10
628.598087
20
136.347539
11
627.373189
21
136.778541
0
LINE
8
Layer 1
10
627.373189
20
136.778541
11
626.197886
21
137.017663
0
LINE
8
Layer 1
10
626.197886
20
137.017663
11
625.073112
21
137.069433
0
LINE
8
Layer 1
10
625.073112
20
137.069433
11
623.999802
21
136.938374
0
LINE
8
Layer 1
10
623.999802
20
136.938374
11
622.978891
21
136.629014
0
LINE
8
Layer 1
10
622.978891
20
136.629014
11
622.011313
21
136.145878
0
LINE
8
Layer 1
10
622.011313
20
136.145878
11
621.098003
21
135.493491
0
LINE
8
Layer 1
10
621.098003
20
135.493491
11
620.239897
21
134.676380
0
LINE
8
Layer 1
10
620.239897
20
134.676380
11
619.437928
21
133.699071
0
LINE
8
Layer 1
10
619.437928
20
133.699071
11
618.006142
21
131.281959
0
LINE
8
Layer 1
10
618.006142
20
131.281959
11
616.810125
21
128.278363
0
LINE
8
Layer 1
10
616.810125
20
128.278363
11
615.857354
21
124.724487
0
LINE
8
Layer 1
10
615.857354
20
124.724487
11
615.155307
21
120.656540
0
LINE
8
Layer 1
10
615.155307
20
120.656540
11
614.711462
21
116.110727
0
LINE
8
Layer 1
10
614.711462
20
116.110727
11
614.533297
21
111.123255
0
LINE
8
Layer 1
10
614.533297
20
111.123255
11
614.628290
21
105.730329
0
LINE
8
Layer 1
10
614.628290
20
105.730329
11
615.003920
21
99.968158
0
LINE
8
Layer 1
10
615.003920
20
99.968158
11
615.667664
21
93.872946
0
LINE
8
Layer 1
10
615.667664
20
93.872946
11
616.627000
21
87.480900
0
LINE
8
Layer 1
10
616.627000
20
87.480900
11
617.225362
21
84.834411
0
LINE
8
Layer 1
10
617.225362
20
84.834411
11
618.079911
21
82.360902
0
LINE
8
Layer 1
10
618.079911
20
82.360902
11
619.172874
21
80.063857
0
LINE
8
Layer 1
10
619.172874
20
80.063857
11
620.486477
21
77.946758
0
LINE
8
Layer 1
10
620.486477
20
77.946758
11
622.002945
21
76.013087
0
LINE
8
Layer 1
10
622.002945
20
76.013087
11
623.704507
21
74.266327
0
LINE
8
Layer 1
10
623.704507
20
74.266327
11
625.573387
21
72.709960
0
LINE
8
Layer 1
10
625.573387
20
72.709960
11
627.591813
21
71.347469
0
LINE
8
Layer 1
10
627.591813
20
71.347469
11
629.742009
21
70.182336
0
LINE
8
Layer 1
10
629.742009
20
70.182336
11
632.006204
21
69.218045
0
LINE
8
Layer 1
10
632.006204
20
69.218045
11
634.366623
21
68.458076
0
LINE
8
Layer 1
10
634.366623
20
68.458076
11
636.805492
21
67.905914
0
LINE
8
Layer 1
10
636.805492
20
67.905914
11
639.305038
21
67.565040
0
LINE
8
Layer 1
10
639.305038
20
67.565040
11
641.847487
21
67.438938
0
LINE
8
Layer 1
10
641.847487
20
67.438938
11
644.415066
21
67.531088
0
LINE
8
Layer 1
10
644.415066
20
67.531088
11
646.990000
21
67.844975
0
LINE
8
Layer 1
10
646.990000
20
67.844975
11
649.554516
21
68.384080
0
LINE
8
Layer 1
10
649.554516
20
68.384080
11
652.090841
21
69.151887
0
LINE
8
Layer 1
10
652.090841
20
69.151887
11
654.581200
21
70.151877
0
LINE
8
Layer 1
10
654.581200
20
70.151877
11
657.007820
21
71.387533
0
LINE
8
Layer 1
10
657.007820
20
71.387533
11
659.352928
21
72.862338
0
LINE
8
Layer 1
10
659.352928
20
72.862338
11
661.598749
21
74.579773
0
LINE
8
Layer 1
10
661.598749
20
74.579773
11
663.727510
21
76.543323
0
LINE
8
Layer 1
10
663.727510
20
76.543323
11
665.721437
21
78.756469
0
LINE
8
Layer 1
10
665.721437
20
78.756469
11
667.562757
21
81.222693
0
LINE
8
Layer 1
10
667.562757
20
81.222693
11
669.233696
21
83.945479
0
LINE
8
Layer 1
10
669.233696
20
83.945479
11
670.716480
21
86.928308
0
LINE
8
Layer 1
10
670.716480
20
86.928308
11
671.993336
21
90.174664
0
LINE
8
Layer 1
10
671.993336
20
90.174664
11
673.046489
21
93.688029
0
LINE
8
Layer 1
10
673.046489
20
93.688029
11
673.858167
21
97.471884
0
LINE
8
Layer 1
10
673.858167
20
97.471884
11
674.410595
21
101.529714
0
LINE
8
Layer 1
10
674.410595
20
101.529714
11
674.686000
21
105.865000
0
LINE
8
Layer 1
10
674.686000
20
105.865000
11
674.490755
21
107.995928
0
LINE
8
Layer 1
10
674.490755
20
107.995928
11
673.913037
21
111.689145
0
LINE
8
Layer 1
10
673.913037
20
111.689145
11
672.108297
21
122.793031
0
LINE
8
Layer 1
10
672.108297
20
122.793031
11
671.130330
21
129.718997
0
LINE
8
Layer 1
10
671.130330
20
129.718997
11
670.268002
21
137.237840
0
LINE
8
Layer 1
10
670.268002
20
137.237840
11
669.645841
21
145.107208
0
LINE
8
Layer 1
10
669.645841
20
145.107208
11
669.388375
21
153.084750
0
LINE
8
Layer 1
10
669.388375
20
153.084750
11
669.620132
21
160.928112
0
LINE
8
Layer 1
10
669.620132
20
160.928112
11
669.958383
21
164.723740
0
LINE
8
Layer 1
10
669.958383
20
164.723740
11
670.465639
21
168.394941
0
LINE
8
Layer 1
10
670.465639
20
168.394941
11
671.157464
21
171.911421
0
LINE
8
Layer 1
10
671.157464
20
171.911421
11
672.049424
21
175.242886
0
LINE
8
Layer 1
10
672.049424
20
175.242886
11
673.157086
21
178.359042
0
LINE
8
Layer 1
10
673.157086
20
178.359042
11
674.496016
21
181.229594
0
LINE
8
Layer 1
10
674.496016
20
181.229594
11
676.081779
21
183.824248
0
LINE
8
Layer 1
10
676.081779
20
183.824248
11
677.929941
21
186.112711
0
LINE
8
Layer 1
10
677.929941
20
186.112711
11
680.056069
21
188.064689
0
LINE
8
Layer 1
10
680.056069
20
188.064689
11
682.475729
21
189.649887
0
LINE
8
Layer 1
10
682.475729
20
189.649887
11
685.204485
21
190.838011
0
LINE
8
Layer 1
10
685.204485
20
190.838011
11
688.257906
21
191.598767
0
LINE
8
Layer 1
10
688.257906
20
191.598767
11
691.651555
21
191.901862
0
LINE
8
Layer 1
10
691.651555
20
191.901862
11
695.401000
21
191.717000
0
LINE
8
Layer 1
10
695.401000
20
191.717000
11
699.262811
21
191.109689
0
LINE
8
Layer 1
10
699.262811
20
191.109689
11
702.636178
21
190.216015
0
LINE
8
Layer 1
10
702.636178
20
190.216015
11
705.544248
21
189.050244
0
LINE
8
Layer 1
10
705.544248
20
189.050244
11
708.010172
21
187.626639
0
LINE
8
Layer 1
10
708.010172
20
187.626639
11
710.057097
21
185.959464
0
LINE
8
Layer 1
10
710.057097
20
185.959464
11
711.708174
21
184.062986
0
LINE
8
Layer 1
10
711.708174
20
184.062986
11
712.986550
21
181.951467
0
LINE
8
Layer 1
10
712.986550
20
181.951467
11
713.915375
21
179.639172
0
LINE
8
Layer 1
10
713.915375
20
179.639172
11
714.517798
21
177.140366
0
LINE
8
Layer 1
10
714.517798
20
177.140366
11
714.816967
21
174.469313
0
LINE
8
Layer 1
10
714.816967
20
174.469313
11
714.836031
21
171.640278
0
LINE
8
Layer 1
10
714.836031
20
171.640278
11
714.598141
21
168.667525
0
LINE
8
Layer 1
10
714.598141
20
168.667525
11
714.126443
21
165.565319
0
LINE
8
Layer 1
10
714.126443
20
165.565319
11
713.444088
21
162.347924
0
LINE
8
Layer 1
10
713.444088
20
162.347924
11
711.540000
21
155.624625
0
LINE
8
Layer 1
10
711.540000
20
155.624625
11
709.071068
21
148.611744
0
LINE
8
Layer 1
10
709.071068
20
148.611744
11
706.222484
21
141.423396
0
LINE
8
Layer 1
10
706.222484
20
141.423396
11
700.127125
21
126.976766
0
LINE
8
Layer 1
10
700.127125
20
126.976766
11
697.250732
21
119.946714
0
LINE
8
Layer 1
10
697.250732
20
119.946714
11
694.735453
21
113.197658
0
LINE
8
Layer 1
10
694.735453
20
113.197658
11
692.766479
21
106.843715
0
LINE
8
Layer 1
10
692.766479
20
106.843715
11
692.044728
21
103.850572
0
LINE
8
Layer 1
10
692.044728
20
103.850572
11
691.529000
21
100.999000
0
LINE
8
Layer 1
10
691.529000
20
100.999000
11
691.241491
21
98.339464
0
LINE
8
Layer 1
10
691.241491
20
98.339464
11
691.145469
21
95.651516
0
LINE
8
Layer 1
10
691.145469
20
95.651516
11
691.234758
21
92.949621
0
LINE
8
Layer 1
10
691.234758
20
92.949621
11
691.503178
21
90.248249
0
LINE
8
Layer 1
10
691.503178
20
90.248249
11
691.944551
21
87.561868
0
LINE
8
Layer 1
10
691.944551
20
87.561868
11
692.552699
21
84.904945
0
LINE
8
Layer 1
10
692.552699
20
84.904945
11
693.321445
21
82.291948
0
LINE
8
Layer 1
10
693.321445
20
82.291948
11
694.244609
21
79.737345
0
LINE
8
Layer 1
10
694.244609
20
79.737345
11
695.316014
21
77.255605
0
LINE
8
Layer 1
10
695.316014
20
77.255605
11
696.529482
21
74.861194
0
LINE
8
Layer 1
10
696.529482
20
74.861194
11
697.878834
21
72.568581
0
LINE
8
Layer 1
10
697.878834
20
72.568581
11
699.357893
21
70.392234
0
LINE
8
Layer 1
10
699.357893
20
70.392234
11
700.960479
21
68.346621
0
LINE
8
Layer 1
10
700.960479
20
68.346621
11
702.680415
21
66.446209
0
LINE
8
Layer 1
10
702.680415
20
66.446209
11
704.511523
21
64.705467
0
LINE
8
Layer 1
10
704.511523
20
64.705467
11
706.447625
21
63.138863
0
LINE
8
Layer 1
10
706.447625
20
63.138863
11
708.482542
21
61.760863
0
LINE
8
Layer 1
10
708.482542
20
61.760863
11
710.610096
21
60.585937
0
LINE
8
Layer 1
10
710.610096
20
60.585937
11
712.824110
21
59.628552
0
LINE
8
Layer 1
10
712.824110
20
59.628552
11
715.118404
21
58.903177
0
LINE
8
Layer 1
10
715.118404
20
58.903177
11
717.486801
21
58.424278
0
LINE
8
Layer 1
10
717.486801
20
58.424278
11
719.923123
21
58.206324
0
LINE
8
Layer 1
10
719.923123
20
58.206324
11
722.421192
21
58.263784
0
LINE
8
Layer 1
10
722.421192
20
58.263784
11
724.974828
21
58.611123
0
LINE
8
Layer 1
10
724.974828
20
58.611123
11
727.577855
21
59.262812
0
LINE
8
Layer 1
10
727.577855
20
59.262812
11
730.224094
21
60.233317
0
LINE
8
Layer 1
10
730.224094
20
60.233317
11
732.907366
21
61.537107
0
LINE
8
Layer 1
10
732.907366
20
61.537107
11
735.621494
21
63.188649
0
LINE
8
Layer 1
10
735.621494
20
63.188649
11
738.360300
21
65.202411
0
LINE
8
Layer 1
10
738.360300
20
65.202411
11
741.117605
21
67.592862
0
LINE
8
Layer 1
10
741.117605
20
67.592862
11
743.887231
21
70.374469
0
LINE
8
Layer 1
10
743.887231
20
70.374469
11
746.663000
21
73.561700
0
LINE
8
Layer 1
10
746.663000
20
73.561700
11
748.126835
21
75.585441
0
LINE
8
Layer 1
10
748.126835
20
75.585441
11
749.467303
21
77.903692
0
LINE
8
Layer 1
10
749.467303
20
77.903692
11
750.685473
21
80.484513
0
LINE
8
Layer 1
10
750.685473
20
80.484513
11
751.782412
21
83.295967
0
LINE
8
Layer 1
10
751.782412
20
83.295967
11
752.759189
21
86.306115
0
LINE
8
Layer 1
10
752.759189
20
86.306115
11
753.616873
21
89.483019
0
LINE
8
Layer 1
10
753.616873
20
89.483019
11
754.979234
21
96.209342
0
LINE
8
Layer 1
10
754.979234
20
96.209342
11
755.878043
21
103.219429
0
LINE
8
Layer 1
10
755.878043
20
103.219429
11
756.321846
21
110.257774
0
LINE
8
Layer 1
10
756.321846
20
110.257774
11
756.319191
21
117.068871
0
LINE
8
Layer 1
10
756.319191
20
117.068871
11
755.878625
21
123.397212
0
LINE
8
Layer 1
10
755.878625
20
123.397212
11
755.008696
21
128.987293
0
LINE
8
Layer 1
10
755.008696
20
128.987293
11
754.415391
21
131.425639
0
LINE
8
Layer 1
10
754.415391
20
131.425639
11
753.717951
21
133.583605
0
LINE
8
Layer 1
10
753.717951
20
133.583605
11
752.917444
21
135.429253
0
LINE
8
Layer 1
10
752.917444
20
135.429253
11
752.014938
21
136.930644
0
LINE
8
Layer 1
10
752.014938
20
136.930644
11
751.011501
21
138.055839
0
LINE
8
Layer 1
10
751.011501
20
138.055839
11
749.908203
21
138.772902
0
LINE
8
Layer 1
10
749.908203
20
138.772902
11
748.706111
21
139.049892
0
LINE
8
Layer 1
10
748.706111
20
139.049892
11
747.406295
21
138.854873
0
LINE
8
Layer 1
10
747.406295
20
138.854873
11
746.009821
21
138.155905
0
LINE
8
Layer 1
10
746.009821
20
138.155905
11
744.517760
21
136.921050
0
LINE
8
Layer 1
10
744.517760
20
136.921050
11
742.931178
21
135.118371
0
LINE
8
Layer 1
10
742.931178
20
135.118371
11
741.251146
21
132.715928
0
LINE
8
Layer 1
10
741.251146
20
132.715928
11
739.478730
21
129.681784
0
LINE
8
Layer 1
10
739.478730
20
129.681784
11
737.615000
21
125.984000
0
LINE
8
Layer 1
10
737.615000
20
125.984000
11
737.288453
21
124.849858
0
LINE
8
Layer 1
10
737.288453
20
124.849858
11
737.257174
21
123.537587
0
LINE
8
Layer 1
10
737.257174
20
123.537587
11
737.460952
21
122.044226
0
LINE
8
Layer 1
10
737.460952
20
122.044226
11
737.839578
21
120.366819
0
LINE
8
Layer 1
10
737.839578
20
120.366819
11
738.880537
21
116.448029
0
LINE
8
Layer 1
10
738.880537
20
116.448029
11
739.898375
21
111.757550
0
LINE
8
Layer 1
10
739.898375
20
111.757550
11
740.248100
21
109.115531
0
LINE
8
Layer 1
10
740.248100
20
109.115531
11
740.411416
21
106.271715
0
LINE
8
Layer 1
10
740.411416
20
106.271715
11
740.328114
21
103.223143
0
LINE
8
Layer 1
10
740.328114
20
103.223143
11
739.937984
21
99.966856
0
LINE
8
Layer 1
10
739.937984
20
99.966856
11
739.180818
21
96.499897
0
LINE
8
Layer 1
10
739.180818
20
96.499897
11
737.996404
21
92.819307
0
LINE
8
Layer 1
10
737.996404
20
92.819307
11
736.324535
21
88.922127
0
LINE
8
Layer 1
10
736.324535
20
88.922127
11
734.105000
21
84.805400
0
LINE
8
Layer 1
10
734.105000
20
84.805400
11
732.841387
21
82.937224
0
LINE
8
Layer 1
10
732.841387
20
82.937224
11
731.522531
21
81.467378
0
LINE
8
Layer 1
10
731.522531
20
81.467378
11
730.154035
21
80.374895
0
LINE
8
Layer 1
10
730.154035
20
80.374895
11
728.741500
21
79.638806
0
LINE
8
Layer 1
10
728.741500
20
79.638806
11
727.290527
21
79.238143
0
LINE
8
Layer 1
10
727.290527
20
79.238143
11
725.806719
21
79.151938
0
LINE
8
Layer 1
10
725.806719
20
79.151938
11
724.295676
21
79.359221
0
LINE
8
Layer 1
10
724.295676
20
79.359221
11
722.763000
21
79.839025
0
LINE
8
Layer 1
10
722.763000
20
79.839025
11
721.214293
21
80.570381
0
LINE
8
Layer 1
10
721.214293
20
80.570381
11
719.655156
21
81.532322
0
LINE
8
Layer 1
10
719.655156
20
81.532322
11
718.091191
21
82.703878
0
LINE
8
Layer 1
10
718.091191
20
82.703878
11
716.528000
21
84.064081
0
LINE
8
Layer 1
10
716.528000
20
84.064081
11
713.426344
21
87.266556
0
LINE
8
Layer 1
10
713.426344
20
87.266556
11
710.395000
21
90.972000
0
LINE
8
Layer 1
10
710.395000
20
90.972000
11
709.388451
21
92.591563
0
LINE
8
Layer 1
10
709.388451
20
92.591563
11
708.675458
21
94.409904
0
LINE
8
Layer 1
10
708.675458
20
94.409904
11
708.238626
21
96.415437
0
LINE
8
Layer 1
10
708.238626
20
96.415437
11
708.060559
21
98.596576
0
LINE
8
Layer 1
10
708.060559
20
98.596576
11
708.123861
21
100.941736
0
LINE
8
Layer 1
10
708.123861
20
100.941736
11
708.411137
21
103.439331
0
LINE
8
Layer 1
10
708.411137
20
103.439331
11
708.904992
21
106.077776
0
LINE
8
Layer 1
10
708.904992
20
106.077776
11
709.588031
21
108.845484
0
LINE
8
Layer 1
10
709.588031
20
108.845484
11
711.452078
21
114.722350
0
LINE
8
Layer 1
10
711.452078
20
114.722350
11
713.864113
21
120.977244
0
LINE
8
Layer 1
10
713.864113
20
120.977244
11
716.684975
21
127.517481
0
LINE
8
Layer 1
10
716.684975
20
127.517481
11
719.775500
21
134.250375
0
LINE
8
Layer 1
10
719.775500
20
134.250375
11
726.208887
21
147.923396
0
LINE
8
Layer 1
10
726.208887
20
147.923396
11
729.273422
21
154.678154
0
LINE
8
Layer 1
10
729.273422
20
154.678154
11
732.050969
21
161.254828
0
LINE
8
Layer 1
10
732.050969
20
161.254828
11
734.402363
21
167.560735
0
LINE
8
Layer 1
10
734.402363
20
167.560735
11
736.188441
21
173.503189
0
LINE
8
Layer 1
10
736.188441
20
173.503189
11
736.825999
21
176.309158
0
LINE
8
Layer 1
10
736.825999
20
176.309158
11
737.270042
21
178.989506
0
LINE
8
Layer 1
10
737.270042
20
178.989506
11
737.503174
21
181.532649
0
LINE
8
Layer 1
10
737.503174
20
181.532649
11
737.508000
21
183.927000
0
LINE
8
Layer 1
10
737.508000
20
183.927000
11
736.954063
21
190.431915
0
LINE
8
Layer 1
10
736.954063
20
190.431915
11
735.999305
21
196.211729
0
LINE
8
Layer 1
10
735.999305
20
196.211729
11
734.678862
21
201.309478
0
LINE
8
Layer 1
10
734.678862
20
201.309478
11
733.027875
21
205.768203
0
LINE
8
Layer 1
10
733.027875
20
205.768203
11
731.081481
21
209.630942
0
LINE
8
Layer 1
10
731.081481
20
209.630942
11
728.874820
21
212.940732
0
LINE
8
Layer 1
10
728.874820
20
212.940732
11
726.443030
21
215.740614
0
LINE
8
Layer 1
10
726.443030
20
215.740614
11
723.821250
21
218.073625
0
LINE
8
Layer 1
10
723.821250
20
218.073625
11
721.044618
21
219.982804
0
LINE
8
Layer 1
10
721.044618
20
219.982804
11
718.148273
21
221.511189
0
LINE
8
Layer 1
10
718.148273
20
221.511189
11
715.167354
21
222.701820
0
LINE
8
Layer 1
10
715.167354
20
222.701820
11
712.137000
21
223.597734
0
LINE
8
Layer 1
10
712.137000
20
223.597734
11
709.092349
21
224.241971
0
LINE
8
Layer 1
10
709.092349
20
224.241971
11
706.068539
21
224.677568
0
LINE
8
Layer 1
10
706.068539
20
224.677568
11
700.224000
21
225.095000
0
LINE
8
Layer 1
10
700.224000
20
225.095000
11
700.224000
21
225.095000
0
LINE
8
Layer 1
10
149.529000
20
439.285000
11
134.546000
21
392.475000
0
LINE
8
Layer 1
10
134.546000
20
392.475000
11
164.651000
21
398.633000
0
LINE
8
Layer 1
10
164.651000
20
398.633000
11
149.529000
21
439.285000
0
LINE
8
Layer 1
10
149.529000
20
439.285000
11
149.529000
21
439.285000
0
LINE
8
Layer 1
10
1089.830000
20
321.742000
11
1090.480000
21
314.497000
0
LINE
8
Layer 1
10
1090.480000
20
314.497000
11
1103.830000
21
314.497000
0
LINE
8
Layer 1
10
1103.830000
20
314.497000
11
1103.350000
21
321.742000
0
LINE
8
Layer 1
10
1103.350000
20
321.742000
11
1089.830000
21
321.742000
0
LINE
8
Layer 1
10
1089.830000
20
321.742000
11
1089.830000
21
321.742000
0
LINE
8
Layer 1
10
916.423000
20
390.333000
11
915.940000
21
355.073000
0
LINE
8
Layer 1
10
915.940000
20
355.073000
11
931.880000
21
359.419000
0
LINE
8
Layer 1
10
931.880000
20
359.419000
11
932.845000
21
393.712000
0
LINE
8
Layer 1
10
932.845000
20
393.712000
11
916.423000
21
390.333000
0
LINE
8
Layer 1
10
916.423000
20
390.333000
11
916.423000
21
390.333000
0
LINE
8
Layer 1
10
974.868000
20
534.271000
11
975.351000
21
513.019000
0
LINE
8
Layer 1
10
975.351000
20
513.019000
11
986.942000
21
509.619000
0
LINE
8
Layer 1
10
986.942000
20
509.619000
11
987.427000
21
529.441000
0
LINE
8
Layer 1
10
987.427000
20
529.441000
11
974.868000
21
534.271000
0
LINE
8
Layer 1
10
974.868000
20
534.271000
11
974.868000
21
534.271000
0
LINE
8
Layer 1
10
1118.810000
20
329.955000
11
1120.740000
21
310.151000
0
LINE
8
Layer 1
10
1120.740000
20
310.151000
11
1129.610000
21
310.769000
0
LINE
8
Layer 1
10
1129.610000
20
310.769000
11
1128.470000
21
329.300000
0
LINE
8
Layer 1
10
1128.470000
20
329.300000
11
1118.810000
21
329.955000
0
LINE
8
Layer 1
10
1118.810000
20
329.955000
11
1118.810000
21
329.955000
0
LINE
8
Layer 1
10
519.458000
20
319.256000
11
501.226000
21
319.256000
0
LINE
8
Layer 1
10
501.226000
20
319.256000
11
501.226000
21
276.869000
0
LINE
8
Layer 1
10
501.226000
20
276.869000
11
519.847000
21
277.710000
0
LINE
8
Layer 1
10
519.847000
20
277.710000
11
519.458000
21
319.256000
0
LINE
8
Layer 1
10
519.458000
20
319.256000
11
519.458000
21
319.256000
0
LINE
8
Layer 1
10
838.137000
20
569.326000
11
837.072100
21
570.006033
0
LINE
8
Layer 1
10
837.072100
20
570.006033
11
835.821422
21
570.200266
0
LINE
8
Layer 1
10
835.821422
20
570.200266
11
834.392877
21
569.962521
0
LINE
8
Layer 1
10
834.392877
20
569.962521
11
832.794375
21
569.346625
0
LINE
8
Layer 1
10
832.794375
20
569.346625
11
831.033826
21
568.406400
0
LINE
8
Layer 1
10
831.033826
20
568.406400
11
829.119141
21
567.195672
0
LINE
8
Layer 1
10
829.119141
20
567.195672
11
824.859000
21
564.178000
0
LINE
8
Layer 1
10
824.859000
20
564.178000
11
820.855172
21
561.064297
0
LINE
8
Layer 1
10
820.855172
20
561.064297
11
818.787533
21
559.207275
0
LINE
8
Layer 1
10
818.787533
20
559.207275
11
816.928875
21
557.237625
0
LINE
8
Layer 1
10
816.928875
20
557.237625
11
815.468795
21
555.220959
0
LINE
8
Layer 1
10
815.468795
20
555.220959
11
814.947471
21
554.215499
0
LINE
8
Layer 1
10
814.947471
20
554.215499
11
814.596891
21
553.222891
0
LINE
8
Layer 1
10
814.596891
20
553.222891
11
814.440754
21
552.251335
0
LINE
8
Layer 1
10
814.440754
20
552.251335
11
814.502760
21
551.309033
0
LINE
8
Layer 1
10
814.502760
20
551.309033
11
814.806609
21
550.404188
0
LINE
8
Layer 1
10
814.806609
20
550.404188
11
815.376000
21
549.545000
0
LINE
8
Layer 1
10
815.376000
20
549.545000
11
816.153340
21
548.795716
0
LINE
8
Layer 1
10
816.153340
20
548.795716
11
816.987566
21
548.287912
0
LINE
8
Layer 1
10
816.987566
20
548.287912
11
817.871861
21
548.001414
0
LINE
8
Layer 1
10
817.871861
20
548.001414
11
818.799406
21
547.916047
0
LINE
8
Layer 1
10
818.799406
20
547.916047
11
819.763385
21
548.011635
0
LINE
8
Layer 1
10
819.763385
20
548.011635
11
820.756980
21
548.268002
0
LINE
8
Layer 1
10
820.756980
20
548.268002
11
822.805750
21
549.182375
0
LINE
8
Layer 1
10
822.805750
20
549.182375
11
824.891176
21
550.497764
0
LINE
8
Layer 1
10
824.891176
20
550.497764
11
826.958719
21
552.052766
0
LINE
8
Layer 1
10
826.958719
20
552.052766
11
830.822000
21
555.236000
0
LINE
8
Layer 1
10
830.822000
20
555.236000
11
832.586547
21
556.766701
0
LINE
8
Layer 1
10
832.586547
20
556.766701
11
834.376688
21
558.524734
0
LINE
8
Layer 1
10
834.376688
20
558.524734
11
836.058172
21
560.429369
0
LINE
8
Layer 1
10
836.058172
20
560.429369
11
837.496750
21
562.399875
0
LINE
8
Layer 1
10
837.496750
20
562.399875
11
838.558172
21
564.355521
0
LINE
8
Layer 1
10
838.558172
20
564.355521
11
839.108187
21
566.215578
0
LINE
8
Layer 1
10
839.108187
20
566.215578
11
839.149465
21
567.084532
0
LINE
8
Layer 1
10
839.149465
20
567.084532
11
839.012547
21
567.899314
0
LINE
8
Layer 1
10
839.012547
20
567.899314
11
838.680652
21
568.649834
0
LINE
8
Layer 1
10
838.680652
20
568.649834
11
838.137000
21
569.326000
0
LINE
8
Layer 1
10
838.137000
20
569.326000
11
838.137000
21
569.326000
0
LINE
8
Layer 1
10
914.972000
20
488.868000
11
915.940000
21
465.373000
0
LINE
8
Layer 1
10
915.940000
20
465.373000
11
933.811000
21
468.098000
0
LINE
8
Layer 1
10
933.811000
20
468.098000
11
933.173000
21
492.731000
0
LINE
8
Layer 1
10
933.173000
20
492.731000
11
914.972000
21
488.868000
0
LINE
8
Layer 1
10
914.972000
20
488.868000
11
914.972000
21
488.868000
0
LINE
8
Layer 1
10
447.432000
20
398.910000
11
423.457000
21
399.991000
0
LINE
8
Layer 1
10
423.457000
20
399.991000
11
423.237000
21
359.049000
0
LINE
8
Layer 1
10
423.237000
20
359.049000
11
447.178000
21
359.049000
0
LINE
8
Layer 1
10
447.178000
20
359.049000
11
447.432000
21
398.910000
0
LINE
8
Layer 1
10
447.432000
20
398.910000
11
447.432000
21
398.910000
0
LINE
8
Layer 1
10
900.632000
20
539.154000
11
900.641000
21
540.549000
0
LINE
8
Layer 1
10
900.641000
20
540.549000
11
899.786000
21
540.336000
0
LINE
8
Layer 1
10
899.786000
20
540.336000
11
895.849000
21
540.111000
0
LINE
8
Layer 1
10
895.849000
20
540.111000
11
896.162000
21
540.856000
0
LINE
8
Layer 1
10
896.162000
20
540.856000
11
921.017000
21
597.851000
0
LINE
8
Layer 1
10
921.017000
20
597.851000
11
905.242999
21
602.330024
0
LINE
8
Layer 1
10
905.242999
20
602.330024
11
889.179914
21
606.556727
0
LINE
8
Layer 1
10
889.179914
20
606.556727
11
872.837372
21
610.526050
0
LINE
8
Layer 1
10
872.837372
20
610.526050
11
856.225000
21
614.232937
0
LINE
8
Layer 1
10
856.225000
20
614.232937
11
839.352425
21
617.672333
0
LINE
8
Layer 1
10
839.352425
20
617.672333
11
822.229273
21
620.839180
0
LINE
8
Layer 1
10
822.229273
20
620.839180
11
804.865173
21
623.728421
0
LINE
8
Layer 1
10
804.865173
20
623.728421
11
787.269750
21
626.335000
0
LINE
8
Layer 1
10
787.269750
20
626.335000
11
769.452632
21
628.653860
0
LINE
8
Layer 1
10
769.452632
20
628.653860
11
751.423445
21
630.679945
0
LINE
8
Layer 1
10
751.423445
20
630.679945
11
733.191817
21
632.408198
0
LINE
8
Layer 1
10
733.191817
20
632.408198
11
714.767375
21
633.833562
0
LINE
8
Layer 1
10
714.767375
20
633.833562
11
696.159745
21
634.950981
0
LINE
8
Layer 1
10
696.159745
20
634.950981
11
677.378555
21
635.755398
0
LINE
8
Layer 1
10
677.378555
20
635.755398
11
658.433431
21
636.241757
0
LINE
8
Layer 1
10
658.433431
20
636.241757
11
639.334000
21
636.405000
0
LINE
8
Layer 1
10
639.334000
20
636.405000
11
617.716643
21
636.195803
0
LINE
8
Layer 1
10
617.716643
20
636.195803
11
596.298891
21
635.573109
0
LINE
8
Layer 1
10
596.298891
20
635.573109
11
575.094725
21
634.544268
0
LINE
8
Layer 1
10
575.094725
20
634.544268
11
554.118125
21
633.116625
0
LINE
8
Layer 1
10
554.118125
20
633.116625
11
533.383072
21
631.297529
0
LINE
8
Layer 1
10
533.383072
20
631.297529
11
512.903547
21
629.094328
0
LINE
8
Layer 1
10
512.903547
20
629.094328
11
492.693529
21
626.514369
0
LINE
8
Layer 1
10
492.693529
20
626.514369
11
472.767000
21
623.565000
0
LINE
8
Layer 1
10
472.767000
20
623.565000
11
473.114000
21
622.113625
0
LINE
8
Layer 1
10
473.114000
20
622.113625
11
473.230000
21
620.495000
0
LINE
8
Layer 1
10
473.230000
20
620.495000
11
473.072781
21
618.519703
0
LINE
8
Layer 1
10
473.072781
20
618.519703
11
472.600750
21
616.142875
0
LINE
8
Layer 1
10
472.600750
20
616.142875
11
471.813344
21
613.364609
0
LINE
8
Layer 1
10
471.813344
20
613.364609
11
470.710000
21
610.185000
0
LINE
8
Layer 1
10
470.710000
20
610.185000
11
467.615875
21
602.694625
0
LINE
8
Layer 1
10
467.615875
20
602.694625
11
463.375000
21
593.747000
0
LINE
8
Layer 1
10
463.375000
20
593.747000
11
453.553000
21
574.606000
0
LINE
8
Layer 1
10
453.553000
20
574.606000
11
435.457000
21
540.379000
0
LINE
8
Layer 1
10
435.457000
20
540.379000
11
449.471125
21
559.626375
0
LINE
8
Layer 1
10
449.471125
20
559.626375
11
456.040984
21
568.283359
0
LINE
8
Layer 1
10
456.040984
20
568.283359
11
462.319000
21
576.296000
0
LINE
8
Layer 1
10
462.319000
20
576.296000
11
468.255266
21
583.627266
0
LINE
8
Layer 1
10
468.255266
20
583.627266
11
473.795625
21
590.240125
0
LINE
8
Layer 1
10
473.795625
20
590.240125
11
478.940172
21
596.134672
0
LINE
8
Layer 1
10
478.940172
20
596.134672
11
483.689000
21
601.311000
0
LINE
8
Layer 1
10
483.689000
20
601.311000
11
488.063219
21
605.829766
0
LINE
8
Layer 1
10
488.063219
20
605.829766
11
492.079500
21
609.751625
0
LINE
8
Layer 1
10
492.079500
20
609.751625
11
495.738031
21
613.076672
0
LINE
8
Layer 1
10
495.738031
20
613.076672
11
499.039000
21
615.805000
0
LINE
8
Layer 1
10
499.039000
20
615.805000
11
501.956000
21
617.930672
0
LINE
8
Layer 1
10
501.956000
20
617.930672
11
504.458250
21
619.449125
0
LINE
8
Layer 1
10
504.458250
20
619.449125
11
506.546125
21
620.360266
0
LINE
8
Layer 1
10
506.546125
20
620.360266
11
508.220000
21
620.664000
0
LINE
8
Layer 1
10
508.220000
20
620.664000
11
508.769969
21
620.524109
0
LINE
8
Layer 1
10
508.769969
20
620.524109
11
509.367000
21
620.104375
0
LINE
8
Layer 1
10
509.367000
20
620.104375
11
510.703000
21
618.425000
0
LINE
8
Layer 1
10
510.703000
20
618.425000
11
512.056875
21
615.942500
0
LINE
8
Layer 1
10
512.056875
20
615.942500
11
513.260000
21
612.974000
0
LINE
8
Layer 1
10
513.260000
20
612.974000
11
514.107250
21
610.058125
0
LINE
8
Layer 1
10
514.107250
20
610.058125
11
514.389000
21
607.734000
0
LINE
8
Layer 1
10
514.389000
20
607.734000
11
514.231359
21
604.950172
0
LINE
8
Layer 1
10
514.231359
20
604.950172
11
513.758625
21
602.177125
0
LINE
8
Layer 1
10
513.758625
20
602.177125
11
512.971078
21
599.414766
0
LINE
8
Layer 1
10
512.971078
20
599.414766
11
511.869000
21
596.663000
0
LINE
8
Layer 1
10
511.869000
20
596.663000
11
508.737125
21
590.620375
0
LINE
8
Layer 1
10
508.737125
20
590.620375
11
504.382000
21
583.479000
0
LINE
8
Layer 1
10
504.382000
20
583.479000
11
497.786578
21
573.316875
0
LINE
8
Layer 1
10
497.786578
20
573.316875
11
492.145625
21
564.295500
0
LINE
8
Layer 1
10
492.145625
20
564.295500
11
487.459609
21
556.414875
0
LINE
8
Layer 1
10
487.459609
20
556.414875
11
483.729000
21
549.675000
0
LINE
8
Layer 1
10
483.729000
20
549.675000
11
480.880297
21
543.806625
0
LINE
8
Layer 1
10
480.880297
20
543.806625
11
478.845625
21
538.540500
0
LINE
8
Layer 1
10
478.845625
20
538.540500
11
478.133521
21
536.133281
0
LINE
8
Layer 1
10
478.133521
20
536.133281
11
477.624891
21
533.876625
0
LINE
8
Layer 1
10
477.624891
20
533.876625
11
477.319721
21
531.770531
0
LINE
8
Layer 1
10
477.319721
20
531.770531
11
477.218000
21
529.815000
0
LINE
8
Layer 1
10
477.218000
20
529.815000
11
477.300273
21
528.487873
0
LINE
8
Layer 1
10
477.300273
20
528.487873
11
477.547125
21
527.337734
0
LINE
8
Layer 1
10
477.547125
20
527.337734
11
477.958602
21
526.364572
0
LINE
8
Layer 1
10
477.958602
20
526.364572
11
478.534750
21
525.568375
0
LINE
8
Layer 1
10
478.534750
20
525.568375
11
479.275617
21
524.949131
0
LINE
8
Layer 1
10
479.275617
20
524.949131
11
480.181250
21
524.506828
0
LINE
8
Layer 1
10
480.181250
20
524.506828
11
481.251695
21
524.241455
0
LINE
8
Layer 1
10
481.251695
20
524.241455
11
482.487000
21
524.153000
0
LINE
8
Layer 1
10
482.487000
20
524.153000
11
483.741484
21
524.279750
0
LINE
8
Layer 1
10
483.741484
20
524.279750
11
485.100125
21
524.660000
0
LINE
8
Layer 1
10
485.100125
20
524.660000
11
486.562453
21
525.293750
0
LINE
8
Layer 1
10
486.562453
20
525.293750
11
488.128000
21
526.181000
0
LINE
8
Layer 1
10
488.128000
20
526.181000
11
491.684625
21
528.758625
0
LINE
8
Layer 1
10
491.684625
20
528.758625
11
495.878000
21
532.435000
0
LINE
8
Layer 1
10
495.878000
20
532.435000
11
499.940000
21
536.374375
0
LINE
8
Layer 1
10
499.940000
20
536.374375
11
504.032000
21
540.619000
0
LINE
8
Layer 1
10
504.032000
20
540.619000
11
504.345000
21
542.492000
0
LINE
8
Layer 1
10
504.345000
20
542.492000
11
505.162125
21
545.333000
0
LINE
8
Layer 1
10
505.162125
20
545.333000
11
506.490000
21
548.450000
0
LINE
8
Layer 1
10
506.490000
20
548.450000
11
508.322750
21
551.840750
0
LINE
8
Layer 1
10
508.322750
20
551.840750
11
510.664000
21
555.506000
0
LINE
8
Layer 1
10
510.664000
20
555.506000
11
513.553125
21
559.562875
0
LINE
8
Layer 1
10
513.553125
20
559.562875
11
517.022000
21
564.126000
0
LINE
8
Layer 1
10
517.022000
20
564.126000
11
520.824000
21
569.113000
0
LINE
8
Layer 1
10
520.824000
20
569.113000
11
522.347125
21
570.813375
0
LINE
8
Layer 1
10
522.347125
20
570.813375
11
523.832000
21
571.859000
0
LINE
8
Layer 1
10
523.832000
20
571.859000
11
525.760875
21
572.398125
0
LINE
8
Layer 1
10
525.760875
20
572.398125
11
528.610000
21
572.578000
0
LINE
8
Layer 1
10
528.610000
20
572.578000
11
530.962250
21
572.398125
0
LINE
8
Layer 1
10
530.962250
20
572.398125
11
533.202000
21
571.859000
0
LINE
8
Layer 1
10
533.202000
20
571.859000
11
534.837875
21
571.130000
0
LINE
8
Layer 1
10
534.837875
20
571.130000
11
535.247391
21
570.757625
0
LINE
8
Layer 1
10
535.247391
20
570.757625
11
535.384000
21
570.380000
0
LINE
8
Layer 1
10
535.384000
20
570.380000
11
535.245234
21
569.466313
0
LINE
8
Layer 1
10
535.245234
20
569.466313
11
534.828875
21
568.246250
0
LINE
8
Layer 1
10
534.828875
20
568.246250
11
533.163000
21
564.887000
0
LINE
8
Layer 1
10
533.163000
20
564.887000
11
531.884391
21
562.792656
0
LINE
8
Layer 1
10
531.884391
20
562.792656
11
530.266875
21
560.481750
0
LINE
8
Layer 1
10
530.266875
20
560.481750
11
526.014000
21
555.211000
0
LINE
8
Layer 1
10
526.014000
20
555.211000
11
523.453844
21
552.371891
0
LINE
8
Layer 1
10
523.453844
20
552.371891
11
520.700750
21
549.559125
0
LINE
8
Layer 1
10
520.700750
20
549.559125
11
514.615000
21
544.013000
0
LINE
8
Layer 1
10
514.615000
20
544.013000
11
513.544375
21
539.618250
0
LINE
8
Layer 1
10
513.544375
20
539.618250
11
513.187000
21
536.407000
0
LINE
8
Layer 1
10
513.187000
20
536.407000
11
513.342062
21
534.816984
0
LINE
8
Layer 1
10
513.342062
20
534.816984
11
513.807250
21
533.681375
0
LINE
8
Layer 1
10
513.807250
20
533.681375
11
514.582562
21
533.000078
0
LINE
8
Layer 1
10
514.582562
20
533.000078
11
515.668000
21
532.773000
0
LINE
8
Layer 1
10
515.668000
20
532.773000
11
516.195563
21
532.881203
0
LINE
8
Layer 1
10
516.195563
20
532.881203
11
516.872750
21
533.205875
0
LINE
8
Layer 1
10
516.872750
20
533.205875
11
518.679000
21
534.505000
0
LINE
8
Layer 1
10
518.679000
20
534.505000
11
521.510875
21
537.040625
0
LINE
8
Layer 1
10
521.510875
20
537.040625
11
525.791000
21
541.182000
0
LINE
8
Layer 1
10
525.791000
20
541.182000
11
534.780000
21
549.929000
0
LINE
8
Layer 1
10
534.780000
20
549.929000
11
537.950625
21
553.509500
0
LINE
8
Layer 1
10
537.950625
20
553.509500
11
541.590000
21
558.506000
0
LINE
8
Layer 1
10
541.590000
20
558.506000
11
545.099625
21
563.503375
0
LINE
8
Layer 1
10
545.099625
20
563.503375
11
547.875000
21
567.084000
0
LINE
8
Layer 1
10
547.875000
20
567.084000
11
552.558500
21
572.524625
0
LINE
8
Layer 1
10
552.558500
20
572.524625
11
555.475000
21
575.662000
0
LINE
8
Layer 1
10
555.475000
20
575.662000
11
556.481688
21
576.530875
0
LINE
8
Layer 1
10
556.481688
20
576.530875
11
557.469250
21
577.151500
0
LINE
8
Layer 1
10
557.469250
20
577.151500
11
558.437688
21
577.523875
0
LINE
8
Layer 1
10
558.437688
20
577.523875
11
559.387000
21
577.648000
0
LINE
8
Layer 1
10
559.387000
20
577.648000
11
560.217219
21
577.568859
0
LINE
8
Layer 1
10
560.217219
20
577.568859
11
560.901000
21
577.331375
0
LINE
8
Layer 1
10
560.901000
20
577.331375
11
561.439281
21
576.935453
0
LINE
8
Layer 1
10
561.439281
20
576.935453
11
561.833000
21
576.381000
0
LINE
8
Layer 1
10
561.833000
20
576.381000
11
562.112828
21
575.582969
0
LINE
8
Layer 1
10
562.112828
20
575.582969
11
562.312125
21
574.457750
0
LINE
8
Layer 1
10
562.312125
20
574.457750
11
562.471000
21
571.225000
0
LINE
8
Layer 1
10
562.471000
20
571.225000
11
562.395375
21
569.619375
0
LINE
8
Layer 1
10
562.395375
20
569.619375
11
562.169000
21
568.352000
0
LINE
8
Layer 1
10
562.169000
20
568.352000
11
561.709625
21
567.095125
0
LINE
8
Layer 1
10
561.709625
20
567.095125
11
560.930000
21
565.521000
0
LINE
8
Layer 1
10
560.930000
20
565.521000
11
557.129000
21
559.140000
0
LINE
8
Layer 1
10
557.129000
20
559.140000
11
550.358000
21
548.154000
0
LINE
8
Layer 1
10
550.358000
20
548.154000
11
548.381625
21
544.614750
0
LINE
8
Layer 1
10
548.381625
20
544.614750
11
546.670000
21
540.759000
0
LINE
8
Layer 1
10
546.670000
20
540.759000
11
545.484625
21
537.241500
0
LINE
8
Layer 1
10
545.484625
20
537.241500
11
545.187953
21
535.855125
0
LINE
8
Layer 1
10
545.187953
20
535.855125
11
545.089000
21
534.717000
0
LINE
8
Layer 1
10
545.089000
20
534.717000
11
545.282047
21
532.794187
0
LINE
8
Layer 1
10
545.282047
20
532.794187
11
545.860875
21
531.420750
0
LINE
8
Layer 1
10
545.860875
20
531.420750
11
546.294811
21
530.940047
0
LINE
8
Layer 1
10
546.294811
20
530.940047
11
546.825016
21
530.596687
0
LINE
8
Layer 1
10
546.825016
20
530.596687
11
547.451432
21
530.390672
0
LINE
8
Layer 1
10
547.451432
20
530.390672
11
548.174000
21
530.322000
0
LINE
8
Layer 1
10
548.174000
20
530.322000
11
549.505813
21
530.469922
0
LINE
8
Layer 1
10
549.505813
20
530.469922
11
550.940750
21
530.913625
0
LINE
8
Layer 1
10
550.940750
20
530.913625
11
552.478813
21
531.653016
0
LINE
8
Layer 1
10
552.478813
20
531.653016
11
554.120000
21
532.688000
0
LINE
8
Layer 1
10
554.120000
20
532.688000
11
557.764375
21
535.479125
0
LINE
8
Layer 1
10
557.764375
20
535.479125
11
562.785000
21
539.720000
0
LINE
8
Layer 1
10
562.785000
20
539.720000
11
562.961766
21
541.515141
0
LINE
8
Layer 1
10
562.961766
20
541.515141
11
563.344875
21
543.096625
0
LINE
8
Layer 1
10
563.344875
20
543.096625
11
563.934047
21
544.464547
0
LINE
8
Layer 1
10
563.934047
20
544.464547
11
564.729000
21
545.619000
0
LINE
8
Layer 1
10
564.729000
20
545.619000
11
565.810641
21
546.733328
0
LINE
8
Layer 1
10
565.810641
20
546.733328
11
567.099375
21
547.794875
0
LINE
8
Layer 1
10
567.099375
20
547.794875
11
568.594922
21
548.803734
0
LINE
8
Layer 1
10
568.594922
20
548.803734
11
570.297000
21
549.760000
0
LINE
8
Layer 1
10
570.297000
20
549.760000
11
572.865000
21
554.058875
0
LINE
8
Layer 1
10
572.865000
20
554.058875
11
575.301000
21
557.661000
0
LINE
8
Layer 1
10
575.301000
20
557.661000
11
581.733000
21
566.324000
0
LINE
8
Layer 1
10
581.733000
20
566.324000
11
585.815922
21
577.077875
0
LINE
8
Layer 1
10
585.815922
20
577.077875
11
590.237375
21
587.705000
0
LINE
8
Layer 1
10
590.237375
20
587.705000
11
594.996891
21
598.205375
0
LINE
8
Layer 1
10
594.996891
20
598.205375
11
600.094000
21
608.579000
0
LINE
8
Layer 1
10
600.094000
20
608.579000
11
602.615000
21
613.385625
0
LINE
8
Layer 1
10
602.615000
20
613.385625
11
604.308000
21
616.312000
0
LINE
8
Layer 1
10
604.308000
20
616.312000
11
604.956562
21
617.180875
0
LINE
8
Layer 1
10
604.956562
20
617.180875
11
605.624250
21
617.801500
0
LINE
8
Layer 1
10
605.624250
20
617.801500
11
606.311062
21
618.173875
0
LINE
8
Layer 1
10
606.311062
20
618.173875
11
607.017000
21
618.298000
0
LINE
8
Layer 1
10
607.017000
20
618.298000
11
607.637563
21
618.165844
0
LINE
8
Layer 1
10
607.637563
20
618.165844
11
608.221000
21
617.769500
0
LINE
8
Layer 1
10
608.221000
20
617.769500
11
608.766938
21
617.109156
0
LINE
8
Layer 1
10
608.766938
20
617.109156
11
609.275000
21
616.185000
0
LINE
8
Layer 1
10
609.275000
20
616.185000
11
609.702562
21
615.049688
0
LINE
8
Layer 1
10
609.702562
20
615.049688
11
610.007500
21
613.755750
0
LINE
8
Layer 1
10
610.007500
20
613.755750
11
610.251000
21
610.692000
0
LINE
8
Layer 1
10
610.251000
20
610.692000
11
610.054000
21
606.719875
0
LINE
8
Layer 1
10
610.054000
20
606.719875
11
609.461000
21
603.086000
0
LINE
8
Layer 1
10
609.461000
20
603.086000
11
608.502625
21
599.610500
0
LINE
8
Layer 1
10
608.502625
20
599.610500
11
607.203000
21
596.114000
0
LINE
8
Layer 1
10
607.203000
20
596.114000
11
605.455250
21
592.258250
0
LINE
8
Layer 1
10
605.455250
20
592.258250
11
603.142000
21
587.705000
0
LINE
8
Layer 1
10
603.142000
20
587.705000
11
599.945000
21
581.620000
0
LINE
8
Layer 1
10
599.945000
20
581.620000
11
591.441000
21
565.141000
0
LINE
8
Layer 1
10
591.441000
20
565.141000
11
583.954000
21
550.858000
0
LINE
8
Layer 1
10
583.954000
20
550.858000
11
580.003000
21
542.999000
0
LINE
8
Layer 1
10
580.003000
20
542.999000
11
583.643500
21
539.301500
0
LINE
8
Layer 1
10
583.643500
20
539.301500
11
586.438000
21
536.153000
0
LINE
8
Layer 1
10
586.438000
20
536.153000
11
588.647750
21
533.005375
0
LINE
8
Layer 1
10
588.647750
20
533.005375
11
590.538000
21
529.308000
0
LINE
8
Layer 1
10
590.538000
20
529.308000
11
592.983000
21
530.512250
0
LINE
8
Layer 1
10
592.983000
20
530.512250
11
595.203000
21
531.928000
0
LINE
8
Layer 1
10
595.203000
20
531.928000
11
597.498625
21
533.734125
0
LINE
8
Layer 1
10
597.498625
20
533.734125
11
600.170000
21
536.111000
0
LINE
8
Layer 1
10
600.170000
20
536.111000
11
605.344000
21
540.721000
0
LINE
8
Layer 1
10
605.344000
20
540.721000
11
608.603125
21
545.338750
0
LINE
8
Layer 1
10
608.603125
20
545.338750
11
611.005000
21
549.253000
0
LINE
8
Layer 1
10
611.005000
20
549.253000
11
608.926125
21
550.287750
0
LINE
8
Layer 1
10
608.926125
20
550.287750
11
607.505000
21
551.534000
0
LINE
8
Layer 1
10
607.505000
20
551.534000
11
607.027719
21
552.294891
0
LINE
8
Layer 1
10
607.027719
20
552.294891
11
606.687500
21
553.224625
0
LINE
8
Layer 1
10
606.687500
20
553.224625
11
606.483781
21
554.323297
0
LINE
8
Layer 1
10
606.483781
20
554.323297
11
606.416000
21
555.591000
0
LINE
8
Layer 1
10
606.416000
20
555.591000
11
606.556844
21
557.212469
0
LINE
8
Layer 1
10
606.556844
20
557.212469
11
606.979500
21
559.034750
0
LINE
8
Layer 1
10
606.979500
20
559.034750
11
607.684156
21
561.057656
0
LINE
8
Layer 1
10
607.684156
20
561.057656
11
608.671000
21
563.281000
0
LINE
8
Layer 1
10
608.671000
20
563.281000
11
609.866406
21
565.568297
0
LINE
8
Layer 1
10
609.866406
20
565.568297
11
611.192500
21
567.781625
0
LINE
8
Layer 1
10
611.192500
20
567.781625
11
612.649844
21
569.920891
0
LINE
8
Layer 1
10
612.649844
20
569.920891
11
614.239000
21
571.986000
0
LINE
8
Layer 1
10
614.239000
20
571.986000
11
615.857156
21
573.834547
0
LINE
8
Layer 1
10
615.857156
20
573.834547
11
617.400500
21
575.324125
0
LINE
8
Layer 1
10
617.400500
20
575.324125
11
618.868094
21
576.454641
0
LINE
8
Layer 1
10
618.868094
20
576.454641
11
620.259000
21
577.226000
0
LINE
8
Layer 1
10
620.259000
20
577.226000
11
621.294125
21
577.669250
0
LINE
8
Layer 1
10
621.294125
20
577.669250
11
622.291000
21
577.817000
0
LINE
8
Layer 1
10
622.291000
20
577.817000
11
622.949984
21
577.716688
0
LINE
8
Layer 1
10
622.949984
20
577.716688
11
623.419875
21
577.415750
0
LINE
8
Layer 1
10
623.419875
20
577.415750
11
623.701328
21
576.914188
0
LINE
8
Layer 1
10
623.701328
20
576.914188
11
623.795000
21
576.212000
0
LINE
8
Layer 1
10
623.795000
20
576.212000
11
623.649453
21
575.308625
0
LINE
8
Layer 1
10
623.649453
20
575.308625
11
623.212625
21
574.035500
0
LINE
8
Layer 1
10
623.212625
20
574.035500
11
621.464000
21
570.380000
0
LINE
8
Layer 1
10
621.464000
20
570.380000
11
634.105375
21
572.408125
0
LINE
8
Layer 1
10
634.105375
20
572.408125
11
638.281203
21
572.915047
0
LINE
8
Layer 1
10
638.281203
20
572.915047
11
641.028000
21
573.084000
0
LINE
8
Layer 1
10
641.028000
20
573.084000
11
642.363000
21
572.999750
0
LINE
8
Layer 1
10
642.363000
20
572.999750
11
643.209000
21
572.746000
0
LINE
8
Layer 1
10
643.209000
20
572.746000
11
643.820484
21
572.239422
0
LINE
8
Layer 1
10
643.820484
20
572.239422
11
644.375625
21
571.478875
0
LINE
8
Layer 1
10
644.375625
20
571.478875
11
645.318000
21
569.197000
0
LINE
8
Layer 1
10
645.318000
20
569.197000
11
645.937250
21
566.408375
0
LINE
8
Layer 1
10
645.937250
20
566.408375
11
646.144000
21
563.619000
0
LINE
8
Layer 1
10
646.144000
20
563.619000
11
646.057297
21
562.713203
0
LINE
8
Layer 1
10
646.057297
20
562.713203
11
645.796875
21
561.770375
0
LINE
8
Layer 1
10
645.796875
20
561.770375
11
644.753000
21
559.774000
0
LINE
8
Layer 1
10
644.753000
20
559.774000
11
642.862750
21
557.228125
0
LINE
8
Layer 1
10
642.862750
20
557.228125
11
639.975000
21
553.732000
0
LINE
8
Layer 1
10
639.975000
20
553.732000
11
638.061219
21
551.270297
0
LINE
8
Layer 1
10
638.061219
20
551.270297
11
636.307000
21
548.703125
0
LINE
8
Layer 1
10
636.307000
20
548.703125
11
634.712531
21
546.030391
0
LINE
8
Layer 1
10
634.712531
20
546.030391
11
633.278000
21
543.252000
0
LINE
8
Layer 1
10
633.278000
20
543.252000
11
632.092813
21
540.595547
0
LINE
8
Layer 1
10
632.092813
20
540.595547
11
631.246250
21
538.287375
0
LINE
8
Layer 1
10
631.246250
20
538.287375
11
630.738313
21
536.327766
0
LINE
8
Layer 1
10
630.738313
20
536.327766
11
630.569000
21
534.717000
0
LINE
8
Layer 1
10
630.569000
20
534.717000
11
630.637117
21
533.786063
0
LINE
8
Layer 1
10
630.637117
20
533.786063
11
630.841500
21
532.979250
0
LINE
8
Layer 1
10
630.841500
20
532.979250
11
631.182195
21
532.296563
0
LINE
8
Layer 1
10
631.182195
20
532.296563
11
631.659250
21
531.738000
0
LINE
8
Layer 1
10
631.659250
20
531.738000
11
632.272711
21
531.303562
0
LINE
8
Layer 1
10
632.272711
20
531.303562
11
633.022625
21
530.993250
0
LINE
8
Layer 1
10
633.022625
20
530.993250
11
634.932000
21
530.745000
0
LINE
8
Layer 1
10
634.932000
20
530.745000
11
636.144711
21
530.898893
0
LINE
8
Layer 1
10
636.144711
20
530.898893
11
637.556125
21
531.360578
0
LINE
8
Layer 1
10
637.556125
20
531.360578
11
639.166289
21
532.130068
0
LINE
8
Layer 1
10
639.166289
20
532.130068
11
640.975250
21
533.207375
0
LINE
8
Layer 1
10
640.975250
20
533.207375
11
645.189750
21
536.285484
0
LINE
8
Layer 1
10
645.189750
20
536.285484
11
650.200000
21
540.595000
0
LINE
8
Layer 1
10
650.200000
20
540.595000
11
650.584000
21
543.041000
0
LINE
8
Layer 1
10
650.584000
20
543.041000
11
651.242500
21
545.777000
0
LINE
8
Layer 1
10
651.242500
20
545.777000
11
652.015000
21
547.985000
0
LINE
8
Layer 1
10
652.015000
20
547.985000
11
655.099000
21
554.070000
0
LINE
8
Layer 1
10
655.099000
20
554.070000
11
657.742154
21
558.447283
0
LINE
8
Layer 1
10
657.742154
20
558.447283
11
660.328672
21
562.240891
0
LINE
8
Layer 1
10
660.328672
20
562.240891
11
662.858635
21
565.450834
0
LINE
8
Layer 1
10
662.858635
20
565.450834
11
665.332125
21
568.077125
0
LINE
8
Layer 1
10
665.332125
20
568.077125
11
667.749225
21
570.119775
0
LINE
8
Layer 1
10
667.749225
20
570.119775
11
670.110016
21
571.578797
0
LINE
8
Layer 1
10
670.110016
20
571.578797
11
672.414580
21
572.454201
0
LINE
8
Layer 1
10
672.414580
20
572.454201
11
674.663000
21
572.746000
0
LINE
8
Layer 1
10
674.663000
20
572.746000
11
676.670547
21
572.497750
0
LINE
8
Layer 1
10
676.670547
20
572.497750
11
677.459275
21
572.187437
0
LINE
8
Layer 1
10
677.459275
20
572.187437
11
678.104625
21
571.753000
0
LINE
8
Layer 1
10
678.104625
20
571.753000
11
678.606584
21
571.194437
0
LINE
8
Layer 1
10
678.606584
20
571.194437
11
678.965141
21
570.511750
0
LINE
8
Layer 1
10
678.965141
20
570.511750
11
679.180283
21
569.704937
0
LINE
8
Layer 1
10
679.180283
20
569.704937
11
679.252000
21
568.774000
0
LINE
8
Layer 1
10
679.252000
20
568.774000
11
679.066203
21
567.232203
0
LINE
8
Layer 1
10
679.066203
20
567.232203
11
678.508875
21
565.309875
0
LINE
8
Layer 1
10
678.508875
20
565.309875
11
677.580109
21
563.007109
0
LINE
8
Layer 1
10
677.580109
20
563.007109
11
676.280000
21
560.324000
0
LINE
8
Layer 1
10
676.280000
20
560.324000
11
673.467250
21
555.400750
0
LINE
8
Layer 1
10
673.467250
20
555.400750
11
672.180500
21
553.557406
0
LINE
8
Layer 1
10
672.180500
20
553.557406
11
670.974000
21
552.126000
0
LINE
8
Layer 1
10
670.974000
20
552.126000
11
665.566625
21
546.104250
0
LINE
8
Layer 1
10
665.566625
20
546.104250
11
662.434000
21
542.238000
0
LINE
8
Layer 1
10
662.434000
20
542.238000
11
661.562078
21
540.796141
0
LINE
8
Layer 1
10
661.562078
20
540.796141
11
660.939625
21
539.259125
0
LINE
8
Layer 1
10
660.939625
20
539.259125
11
660.566359
21
537.627047
0
LINE
8
Layer 1
10
660.566359
20
537.627047
11
660.442000
21
535.900000
0
LINE
8
Layer 1
10
660.442000
20
535.900000
11
660.568953
21
534.441797
0
LINE
8
Layer 1
10
660.568953
20
534.441797
11
660.949875
21
533.110625
0
LINE
8
Layer 1
10
660.949875
20
533.110625
11
661.584859
21
531.906391
0
LINE
8
Layer 1
10
661.584859
20
531.906391
11
662.474000
21
530.829000
0
LINE
8
Layer 1
10
662.474000
20
530.829000
11
663.564000
21
529.941750
0
LINE
8
Layer 1
10
663.564000
20
529.941750
11
664.805500
21
529.308000
0
LINE
8
Layer 1
10
664.805500
20
529.308000
11
666.197750
21
528.927750
0
LINE
8
Layer 1
10
666.197750
20
528.927750
11
667.740000
21
528.801000
0
LINE
8
Layer 1
10
667.740000
20
528.801000
11
669.552547
21
528.983250
0
LINE
8
Layer 1
10
669.552547
20
528.983250
11
671.454625
21
529.530000
0
LINE
8
Layer 1
10
671.454625
20
529.530000
11
673.446141
21
530.441250
0
LINE
8
Layer 1
10
673.446141
20
530.441250
11
675.527000
21
531.717000
0
LINE
8
Layer 1
10
675.527000
20
531.717000
11
679.904500
21
535.084125
0
LINE
8
Layer 1
10
679.904500
20
535.084125
11
685.320000
21
539.895000
0
LINE
8
Layer 1
10
685.320000
20
539.895000
11
685.620875
21
541.765250
0
LINE
8
Layer 1
10
685.620875
20
541.765250
11
686.062000
21
543.337000
0
LINE
8
Layer 1
10
686.062000
20
543.337000
11
687.462875
21
546.505750
0
LINE
8
Layer 1
10
687.462875
20
546.505750
11
689.787000
21
550.774000
0
LINE
8
Layer 1
10
689.787000
20
550.774000
11
692.293078
21
554.954516
0
LINE
8
Layer 1
10
692.293078
20
554.954516
11
694.621125
21
558.538125
0
LINE
8
Layer 1
10
694.621125
20
558.538125
11
696.770859
21
561.524922
0
LINE
8
Layer 1
10
696.770859
20
561.524922
11
698.742000
21
563.915000
0
LINE
8
Layer 1
10
698.742000
20
563.915000
11
700.603375
21
565.745203
0
LINE
8
Layer 1
10
700.603375
20
565.745203
11
702.428000
21
567.052375
0
LINE
8
Layer 1
10
702.428000
20
567.052375
11
704.215125
21
567.836609
0
LINE
8
Layer 1
10
704.215125
20
567.836609
11
705.964000
21
568.098000
0
LINE
8
Layer 1
10
705.964000
20
568.098000
11
708.137750
21
567.866000
0
LINE
8
Layer 1
10
708.137750
20
567.866000
11
709.047625
21
567.575719
0
LINE
8
Layer 1
10
709.047625
20
567.575719
11
709.839000
21
567.169000
0
LINE
8
Layer 1
10
709.839000
20
567.169000
11
710.481391
21
566.640641
0
LINE
8
Layer 1
10
710.481391
20
566.640641
11
710.940125
21
565.985625
0
LINE
8
Layer 1
10
710.940125
20
565.985625
11
711.215297
21
565.204047
0
LINE
8
Layer 1
10
711.215297
20
565.204047
11
711.307000
21
564.296000
0
LINE
8
Layer 1
10
711.307000
20
564.296000
11
711.194250
21
563.429125
0
LINE
8
Layer 1
10
711.194250
20
563.429125
11
710.855000
21
562.521000
0
LINE
8
Layer 1
10
710.855000
20
562.521000
11
709.839000
21
560.830000
0
LINE
8
Layer 1
10
709.839000
20
560.830000
11
707.468000
21
557.873000
0
LINE
8
Layer 1
10
707.468000
20
557.873000
11
702.267719
21
551.127703
0
LINE
8
Layer 1
10
702.267719
20
551.127703
11
698.553000
21
545.681875
0
LINE
8
Layer 1
10
698.553000
20
545.681875
11
697.252785
21
543.446291
0
LINE
8
Layer 1
10
697.252785
20
543.446291
11
696.324031
21
541.535609
0
LINE
8
Layer 1
10
696.324031
20
541.535609
11
695.766762
21
539.949842
0
LINE
8
Layer 1
10
695.766762
20
539.949842
11
695.581000
21
538.689000
0
LINE
8
Layer 1
10
695.581000
20
538.689000
11
695.670391
21
537.616688
0
LINE
8
Layer 1
10
695.670391
20
537.616688
11
695.938375
21
536.850750
0
LINE
8
Layer 1
10
695.938375
20
536.850750
11
696.384672
21
536.391188
0
LINE
8
Layer 1
10
696.384672
20
536.391188
11
697.009000
21
536.238000
0
LINE
8
Layer 1
10
697.009000
20
536.238000
11
697.567406
21
536.441281
0
LINE
8
Layer 1
10
697.567406
20
536.441281
11
698.336750
21
537.051250
0
LINE
8
Layer 1
10
698.336750
20
537.051250
11
700.509000
21
539.492000
0
LINE
8
Layer 1
10
700.509000
20
539.492000
11
707.206000
21
548.027000
0
LINE
8
Layer 1
10
707.206000
20
548.027000
11
711.683250
21
553.425250
0
LINE
8
Layer 1
10
711.683250
20
553.425250
11
716.912000
21
559.056000
0
LINE
8
Layer 1
10
716.912000
20
559.056000
11
719.812156
21
561.902828
0
LINE
8
Layer 1
10
719.812156
20
561.902828
11
722.904500
21
564.696875
0
LINE
8
Layer 1
10
722.904500
20
564.696875
11
726.189594
21
567.438234
0
LINE
8
Layer 1
10
726.189594
20
567.438234
11
729.668000
21
570.127000
0
LINE
8
Layer 1
10
729.668000
20
570.127000
11
731.577500
21
571.494781
0
LINE
8
Layer 1
10
731.577500
20
571.494781
11
733.317500
21
572.472000
0
LINE
8
Layer 1
10
733.317500
20
572.472000
11
734.888000
21
573.058469
0
LINE
8
Layer 1
10
734.888000
20
573.058469
11
736.289000
21
573.254000
0
LINE
8
Layer 1
10
736.289000
20
573.254000
11
736.887844
21
573.021516
0
LINE
8
Layer 1
10
736.887844
20
573.021516
11
737.482750
21
572.324125
0
LINE
8
Layer 1
10
737.482750
20
572.324125
11
738.073531
21
571.161922
0
LINE
8
Layer 1
10
738.073531
20
571.161922
11
738.660000
21
569.535000
0
LINE
8
Layer 1
10
738.660000
20
569.535000
11
739.533500
21
565.795500
0
LINE
8
Layer 1
10
739.533500
20
565.795500
11
739.825000
21
562.014000
0
LINE
8
Layer 1
10
739.825000
20
562.014000
11
739.622875
21
560.962672
0
LINE
8
Layer 1
10
739.622875
20
560.962672
11
739.016500
21
559.668625
0
LINE
8
Layer 1
10
739.016500
20
559.668625
11
738.005875
21
558.131766
0
LINE
8
Layer 1
10
738.005875
20
558.131766
11
736.591000
21
556.352000
0
LINE
8
Layer 1
10
736.591000
20
556.352000
11
730.795891
21
548.698266
0
LINE
8
Layer 1
10
730.795891
20
548.698266
11
728.519389
21
545.342803
0
LINE
8
Layer 1
10
728.519389
20
545.342803
11
726.656875
21
542.301625
0
LINE
8
Layer 1
10
726.656875
20
542.301625
11
725.208314
21
539.574744
0
LINE
8
Layer 1
10
725.208314
20
539.574744
11
724.173672
21
537.162172
0
LINE
8
Layer 1
10
724.173672
20
537.162172
11
723.552912
21
535.063920
0
LINE
8
Layer 1
10
723.552912
20
535.063920
11
723.346000
21
533.280000
0
LINE
8
Layer 1
10
723.346000
20
533.280000
11
723.510609
21
531.689984
0
LINE
8
Layer 1
10
723.510609
20
531.689984
11
724.004375
21
530.554375
0
LINE
8
Layer 1
10
724.004375
20
530.554375
11
724.827203
21
529.873078
0
LINE
8
Layer 1
10
724.827203
20
529.873078
11
725.979000
21
529.646000
0
LINE
8
Layer 1
10
725.979000
20
529.646000
11
727.153547
21
529.807078
0
LINE
8
Layer 1
10
727.153547
20
529.807078
11
728.491875
21
530.290375
0
LINE
8
Layer 1
10
728.491875
20
530.290375
11
729.994266
21
531.095984
0
LINE
8
Layer 1
10
729.994266
20
531.095984
11
731.661000
21
532.224000
0
LINE
8
Layer 1
10
731.661000
20
532.224000
11
735.785125
21
535.502375
0
LINE
8
Layer 1
10
735.785125
20
535.502375
11
741.629000
21
540.529000
0
LINE
8
Layer 1
10
741.629000
20
540.529000
11
742.088125
21
542.662750
0
LINE
8
Layer 1
10
742.088125
20
542.662750
11
742.797000
21
544.858000
0
LINE
8
Layer 1
10
742.797000
20
544.858000
11
743.592109
21
546.748938
0
LINE
8
Layer 1
10
743.592109
20
546.748938
11
744.584375
21
548.703250
0
LINE
8
Layer 1
10
744.584375
20
548.703250
11
747.163000
21
552.802000
0
LINE
8
Layer 1
10
747.163000
20
552.802000
11
750.538875
21
557.080125
0
LINE
8
Layer 1
10
750.538875
20
557.080125
11
754.724000
21
561.464000
0
LINE
8
Layer 1
10
754.724000
20
561.464000
11
757.117250
21
563.669359
0
LINE
8
Layer 1
10
757.117250
20
563.669359
11
759.708500
21
565.848375
0
LINE
8
Layer 1
10
759.708500
20
565.848375
11
765.485000
21
570.127000
0
LINE
8
Layer 1
10
765.485000
20
570.127000
11
770.991844
21
573.713328
0
LINE
8
Layer 1
10
770.991844
20
573.713328
11
773.501926
21
575.122193
0
LINE
8
Layer 1
10
773.501926
20
575.122193
11
775.849750
21
576.274875
0
LINE
8
Layer 1
10
775.849750
20
576.274875
11
778.035293
21
577.171385
0
LINE
8
Layer 1
10
778.035293
20
577.171385
11
780.058531
21
577.811734
0
LINE
8
Layer 1
10
780.058531
20
577.811734
11
781.919441
21
578.195936
0
LINE
8
Layer 1
10
781.919441
20
578.195936
11
783.618000
21
578.324000
0
LINE
8
Layer 1
10
783.618000
20
578.324000
11
785.724828
21
578.075750
0
LINE
8
Layer 1
10
785.724828
20
578.075750
11
786.552264
21
577.765437
0
LINE
8
Layer 1
10
786.552264
20
577.765437
11
787.229125
21
577.331000
0
LINE
8
Layer 1
10
787.229125
20
577.331000
11
787.755471
21
576.772437
0
LINE
8
Layer 1
10
787.755471
20
576.772437
11
788.131359
21
576.089750
0
LINE
8
Layer 1
10
788.131359
20
576.089750
11
788.356850
21
575.282937
0
LINE
8
Layer 1
10
788.356850
20
575.282937
11
788.432000
21
574.352000
0
LINE
8
Layer 1
10
788.432000
20
574.352000
11
788.268639
21
572.982689
0
LINE
8
Layer 1
10
788.268639
20
572.982689
11
787.778547
21
571.621266
0
LINE
8
Layer 1
10
787.778547
20
571.621266
11
786.961713
21
570.267740
0
LINE
8
Layer 1
10
786.961713
20
570.267740
11
785.818125
21
568.922125
0
LINE
8
Layer 1
10
785.818125
20
568.922125
11
784.347771
21
567.584432
0
LINE
8
Layer 1
10
784.347771
20
567.584432
11
782.550641
21
566.254672
0
LINE
8
Layer 1
10
782.550641
20
566.254672
11
780.426721
21
564.932857
0
LINE
8
Layer 1
10
780.426721
20
564.932857
11
777.976000
21
563.619000
0
LINE
8
Layer 1
10
777.976000
20
563.619000
11
774.784813
21
561.929078
0
LINE
8
Layer 1
10
774.784813
20
561.929078
11
771.607500
21
559.985375
0
LINE
8
Layer 1
10
771.607500
20
559.985375
11
768.444438
21
557.787984
0
LINE
8
Layer 1
10
768.444438
20
557.787984
11
765.296000
21
555.337000
0
LINE
8
Layer 1
10
765.296000
20
555.337000
11
762.305250
21
552.720109
0
LINE
8
Layer 1
10
762.305250
20
552.720109
11
759.615250
21
550.023625
0
LINE
8
Layer 1
10
759.615250
20
550.023625
11
757.226375
21
547.247828
0
LINE
8
Layer 1
10
757.226375
20
547.247828
11
755.139000
21
544.393000
0
LINE
8
Layer 1
10
755.139000
20
544.393000
11
753.442094
21
541.570000
0
LINE
8
Layer 1
10
753.442094
20
541.570000
11
752.230250
21
538.889500
0
LINE
8
Layer 1
10
752.230250
20
538.889500
11
751.503281
21
536.351500
0
LINE
8
Layer 1
10
751.503281
20
536.351500
11
751.261000
21
533.956000
0
LINE
8
Layer 1
10
751.261000
20
533.956000
11
751.506000
21
531.906875
0
LINE
8
Layer 1
10
751.506000
20
531.906875
11
751.811969
21
531.056453
0
LINE
8
Layer 1
10
751.811969
20
531.056453
11
752.240000
21
530.322000
0
LINE
8
Layer 1
10
752.240000
20
530.322000
11
752.766563
21
529.730641
0
LINE
8
Layer 1
10
752.766563
20
529.730641
11
753.368500
21
529.308125
0
LINE
8
Layer 1
10
753.368500
20
529.308125
11
754.046188
21
529.054547
0
LINE
8
Layer 1
10
754.046188
20
529.054547
11
754.800000
21
528.970000
0
LINE
8
Layer 1
10
754.800000
20
528.970000
11
756.163484
21
529.139094
0
LINE
8
Layer 1
10
756.163484
20
529.139094
11
757.621375
21
529.646250
0
LINE
8
Layer 1
10
757.621375
20
529.646250
11
759.173578
21
530.491281
0
LINE
8
Layer 1
10
759.173578
20
530.491281
11
760.820000
21
531.674000
0
LINE
8
Layer 1
10
760.820000
20
531.674000
11
765.013125
21
535.413625
0
LINE
8
Layer 1
10
765.013125
20
535.413625
11
770.827000
21
541.224000
0
LINE
8
Layer 1
10
770.827000
20
541.224000
11
774.335125
21
545.312375
0
LINE
8
Layer 1
10
774.335125
20
545.312375
11
778.840000
21
551.323000
0
LINE
8
Layer 1
10
778.840000
20
551.323000
11
783.411250
21
557.471250
0
LINE
8
Layer 1
10
783.411250
20
557.471250
11
787.117000
21
561.971000
0
LINE
8
Layer 1
10
787.117000
20
561.971000
11
788.713703
21
563.579547
0
LINE
8
Layer 1
10
788.713703
20
563.579547
11
790.230625
21
564.728625
0
LINE
8
Layer 1
10
790.230625
20
564.728625
11
791.667484
21
565.418141
0
LINE
8
Layer 1
10
791.667484
20
565.418141
11
793.024000
21
565.648000
0
LINE
8
Layer 1
10
793.024000
20
565.648000
11
794.387000
21
565.383500
0
LINE
8
Layer 1
10
794.387000
20
565.383500
11
795.468000
21
564.591000
0
LINE
8
Layer 1
10
795.468000
20
564.591000
11
795.880703
21
564.002250
0
LINE
8
Layer 1
10
795.880703
20
564.002250
11
796.175375
21
563.292000
0
LINE
8
Layer 1
10
796.175375
20
563.292000
11
796.411000
21
561.507000
0
LINE
8
Layer 1
10
796.411000
20
561.507000
11
796.239141
21
559.343828
0
LINE
8
Layer 1
10
796.239141
20
559.343828
11
795.723875
21
556.742375
0
LINE
8
Layer 1
10
795.723875
20
556.742375
11
794.865672
21
553.702734
0
LINE
8
Layer 1
10
794.865672
20
553.702734
11
793.665000
21
550.225000
0
LINE
8
Layer 1
10
793.665000
20
550.225000
11
789.816625
21
540.474250
0
LINE
8
Layer 1
10
789.816625
20
540.474250
11
783.767000
21
526.012000
0
LINE
8
Layer 1
10
783.767000
20
526.012000
11
801.369000
21
540.389000
0
LINE
8
Layer 1
10
801.369000
20
540.389000
11
801.890984
21
542.925875
0
LINE
8
Layer 1
10
801.890984
20
542.925875
11
802.592875
21
545.382500
0
LINE
8
Layer 1
10
802.592875
20
545.382500
11
803.474578
21
547.758875
0
LINE
8
Layer 1
10
803.474578
20
547.758875
11
804.536000
21
550.055000
0
LINE
8
Layer 1
10
804.536000
20
550.055000
11
806.671063
21
553.718000
0
LINE
8
Layer 1
10
806.671063
20
553.718000
11
809.389250
21
557.481500
0
LINE
8
Layer 1
10
809.389250
20
557.481500
11
812.690562
21
561.345500
0
LINE
8
Layer 1
10
812.690562
20
561.345500
11
816.575000
21
565.310000
0
LINE
8
Layer 1
10
816.575000
20
565.310000
11
819.430047
21
567.887406
0
LINE
8
Layer 1
10
819.430047
20
567.887406
11
822.275625
21
570.126750
0
LINE
8
Layer 1
10
822.275625
20
570.126750
11
825.111641
21
572.028219
0
LINE
8
Layer 1
10
825.111641
20
572.028219
11
827.938000
21
573.592000
0
LINE
8
Layer 1
10
827.938000
20
573.592000
11
830.684328
21
574.812047
0
LINE
8
Layer 1
10
830.684328
20
574.812047
11
833.280375
21
575.683625
0
LINE
8
Layer 1
10
833.280375
20
575.683625
11
835.726234
21
576.206641
0
LINE
8
Layer 1
10
835.726234
20
576.206641
11
838.022000
21
576.381000
0
LINE
8
Layer 1
10
838.022000
20
576.381000
11
839.697500
21
576.267391
0
LINE
8
Layer 1
10
839.697500
20
576.267391
11
841.190000
21
575.926625
0
LINE
8
Layer 1
10
841.190000
20
575.926625
11
842.499500
21
575.358797
0
LINE
8
Layer 1
10
842.499500
20
575.358797
11
843.626000
21
574.564000
0
LINE
8
Layer 1
10
843.626000
20
574.564000
11
844.531891
21
573.541563
0
LINE
8
Layer 1
10
844.531891
20
573.541563
11
845.178375
21
572.292250
0
LINE
8
Layer 1
10
845.178375
20
572.292250
11
845.565922
21
570.816063
0
LINE
8
Layer 1
10
845.565922
20
570.816063
11
845.695000
21
569.113000
0
LINE
8
Layer 1
10
845.695000
20
569.113000
11
845.473813
21
566.453281
0
LINE
8
Layer 1
10
845.473813
20
566.453281
11
844.810500
21
563.799000
0
LINE
8
Layer 1
10
844.810500
20
563.799000
11
843.705438
21
561.149969
0
LINE
8
Layer 1
10
843.705438
20
561.149969
11
842.159000
21
558.506000
0
LINE
8
Layer 1
10
842.159000
20
558.506000
11
840.158078
21
555.870500
0
LINE
8
Layer 1
10
840.158078
20
555.870500
11
837.691125
21
553.245500
0
LINE
8
Layer 1
10
837.691125
20
553.245500
11
834.758609
21
550.631000
0
LINE
8
Layer 1
10
834.758609
20
550.631000
11
831.361000
21
548.027000
0
LINE
8
Layer 1
10
831.361000
20
548.027000
11
827.521438
21
545.452047
0
LINE
8
Layer 1
10
827.521438
20
545.452047
11
823.263000
21
542.924625
0
LINE
8
Layer 1
10
823.263000
20
542.924625
11
818.586063
21
540.444641
0
LINE
8
Layer 1
10
818.586063
20
540.444641
11
813.491000
21
538.012000
0
LINE
8
Layer 1
10
813.491000
20
538.012000
11
813.491000
21
535.900000
0
LINE
8
Layer 1
10
813.491000
20
535.900000
11
813.627453
21
533.544266
0
LINE
8
Layer 1
10
813.627453
20
533.544266
11
814.036625
21
531.463125
0
LINE
8
Layer 1
10
814.036625
20
531.463125
11
814.718234
21
529.656672
0
LINE
8
Layer 1
10
814.718234
20
529.656672
11
815.672000
21
528.125000
0
LINE
8
Layer 1
10
815.672000
20
528.125000
11
816.848797
21
526.904953
0
LINE
8
Layer 1
10
816.848797
20
526.904953
11
818.193875
21
526.033375
0
LINE
8
Layer 1
10
818.193875
20
526.033375
11
819.707516
21
525.510359
0
LINE
8
Layer 1
10
819.707516
20
525.510359
11
821.390000
21
525.336000
0
LINE
8
Layer 1
10
821.390000
20
525.336000
11
823.250031
21
525.457500
0
LINE
8
Layer 1
10
823.250031
20
525.457500
11
825.143250
21
525.822000
0
LINE
8
Layer 1
10
825.143250
20
525.822000
11
827.069844
21
526.429500
0
LINE
8
Layer 1
10
827.069844
20
526.429500
11
829.030000
21
527.280000
0
LINE
8
Layer 1
10
829.030000
20
527.280000
11
832.969750
21
529.540625
0
LINE
8
Layer 1
10
832.969750
20
529.540625
11
836.893000
21
532.435000
0
LINE
8
Layer 1
10
836.893000
20
532.435000
11
841.041250
21
536.019375
0
LINE
8
Layer 1
10
841.041250
20
536.019375
11
845.986000
21
540.614000
0
LINE
8
Layer 1
10
845.986000
20
540.614000
11
846.635000
21
543.337000
0
LINE
8
Layer 1
10
846.635000
20
543.337000
11
848.037000
21
546.505750
0
LINE
8
Layer 1
10
848.037000
20
546.505750
11
850.360000
21
550.774000
0
LINE
8
Layer 1
10
850.360000
20
550.774000
11
852.867344
21
554.954516
0
LINE
8
Layer 1
10
852.867344
20
554.954516
11
855.195250
21
558.538125
0
LINE
8
Layer 1
10
855.195250
20
558.538125
11
857.344281
21
561.524922
0
LINE
8
Layer 1
10
857.344281
20
561.524922
11
859.315000
21
563.915000
0
LINE
8
Layer 1
10
859.315000
20
563.915000
11
861.177641
21
565.745203
0
LINE
8
Layer 1
10
861.177641
20
565.745203
11
863.002125
21
567.052375
0
LINE
8
Layer 1
10
863.002125
20
567.052375
11
864.788547
21
567.836609
0
LINE
8
Layer 1
10
864.788547
20
567.836609
11
866.537000
21
568.098000
0
LINE
8
Layer 1
10
866.537000
20
568.098000
11
868.710750
21
567.866000
0
LINE
8
Layer 1
10
868.710750
20
567.866000
11
869.620625
21
567.575719
0
LINE
8
Layer 1
10
869.620625
20
567.575719
11
870.412000
21
567.169000
0
LINE
8
Layer 1
10
870.412000
20
567.169000
11
871.054391
21
566.640641
0
LINE
8
Layer 1
10
871.054391
20
566.640641
11
871.513125
21
565.985625
0
LINE
8
Layer 1
10
871.513125
20
565.985625
11
871.788297
21
565.204047
0
LINE
8
Layer 1
10
871.788297
20
565.204047
11
871.880000
21
564.296000
0
LINE
8
Layer 1
10
871.880000
20
564.296000
11
871.767250
21
563.429125
0
LINE
8
Layer 1
10
871.767250
20
563.429125
11
871.428000
21
562.521000
0
LINE
8
Layer 1
10
871.428000
20
562.521000
11
870.412000
21
560.830000
0
LINE
8
Layer 1
10
870.412000
20
560.830000
11
868.044000
21
557.873000
0
LINE
8
Layer 1
10
868.044000
20
557.873000
11
862.841984
21
551.127703
0
LINE
8
Layer 1
10
862.841984
20
551.127703
11
859.126375
21
545.681875
0
LINE
8
Layer 1
10
859.126375
20
545.681875
11
857.825943
21
543.446291
0
LINE
8
Layer 1
10
857.825943
20
543.446291
11
856.897078
21
541.535609
0
LINE
8
Layer 1
10
856.897078
20
541.535609
11
856.339768
21
539.949842
0
LINE
8
Layer 1
10
856.339768
20
539.949842
11
856.154000
21
538.689000
0
LINE
8
Layer 1
10
856.154000
20
538.689000
11
856.243437
21
537.616688
0
LINE
8
Layer 1
10
856.243437
20
537.616688
11
856.511750
21
536.850750
0
LINE
8
Layer 1
10
856.511750
20
536.850750
11
856.958937
21
536.391188
0
LINE
8
Layer 1
10
856.958937
20
536.391188
11
857.585000
21
536.238000
0
LINE
8
Layer 1
10
857.585000
20
536.238000
11
858.141672
21
536.441281
0
LINE
8
Layer 1
10
858.141672
20
536.441281
11
858.910125
21
537.051250
0
LINE
8
Layer 1
10
858.910125
20
537.051250
11
861.082000
21
539.492000
0
LINE
8
Layer 1
10
861.082000
20
539.492000
11
867.779000
21
548.027000
0
LINE
8
Layer 1
10
867.779000
20
548.027000
11
872.257625
21
553.425250
0
LINE
8
Layer 1
10
872.257625
20
553.425250
11
877.487000
21
559.056000
0
LINE
8
Layer 1
10
877.487000
20
559.056000
11
880.386000
21
561.902828
0
LINE
8
Layer 1
10
880.386000
20
561.902828
11
883.477750
21
564.696875
0
LINE
8
Layer 1
10
883.477750
20
564.696875
11
886.762625
21
567.438234
0
LINE
8
Layer 1
10
886.762625
20
567.438234
11
890.241000
21
570.127000
0
LINE
8
Layer 1
10
890.241000
20
570.127000
11
892.150500
21
571.494781
0
LINE
8
Layer 1
10
892.150500
20
571.494781
11
893.890500
21
572.472000
0
LINE
8
Layer 1
10
893.890500
20
572.472000
11
895.461000
21
573.058469
0
LINE
8
Layer 1
10
895.461000
20
573.058469
11
896.862000
21
573.254000
0
LINE
8
Layer 1
10
896.862000
20
573.254000
11
897.461688
21
573.021516
0
LINE
8
Layer 1
10
897.461688
20
573.021516
11
898.057250
21
572.324125
0
LINE
8
Layer 1
10
898.057250
20
572.324125
11
898.647938
21
571.161922
0
LINE
8
Layer 1
10
898.647938
20
571.161922
11
899.233000
21
569.535000
0
LINE
8
Layer 1
10
899.233000
20
569.535000
11
900.106500
21
565.795500
0
LINE
8
Layer 1
10
900.106500
20
565.795500
11
900.398000
21
562.014000
0
LINE
8
Layer 1
10
900.398000
20
562.014000
11
900.195875
21
560.962672
0
LINE
8
Layer 1
10
900.195875
20
560.962672
11
899.589500
21
559.668625
0
LINE
8
Layer 1
10
899.589500
20
559.668625
11
898.578875
21
558.131766
0
LINE
8
Layer 1
10
898.578875
20
558.131766
11
897.164000
21
556.352000
0
LINE
8
Layer 1
10
897.164000
20
556.352000
11
891.368891
21
548.698266
0
LINE
8
Layer 1
10
891.368891
20
548.698266
11
889.092389
21
545.342803
0
LINE
8
Layer 1
10
889.092389
20
545.342803
11
887.229875
21
542.301625
0
LINE
8
Layer 1
10
887.229875
20
542.301625
11
885.781314
21
539.574744
0
LINE
8
Layer 1
10
885.781314
20
539.574744
11
884.746672
21
537.162172
0
LINE
8
Layer 1
10
884.746672
20
537.162172
11
884.125912
21
535.063920
0
LINE
8
Layer 1
10
884.125912
20
535.063920
11
883.919000
21
533.280000
0
LINE
8
Layer 1
10
883.919000
20
533.280000
11
884.083609
21
531.689984
0
LINE
8
Layer 1
10
884.083609
20
531.689984
11
884.577375
21
530.554375
0
LINE
8
Layer 1
10
884.577375
20
530.554375
11
885.400203
21
529.873078
0
LINE
8
Layer 1
10
885.400203
20
529.873078
11
886.552000
21
529.646000
0
LINE
8
Layer 1
10
886.552000
20
529.646000
11
887.726547
21
529.807078
0
LINE
8
Layer 1
10
887.726547
20
529.807078
11
889.064875
21
530.290375
0
LINE
8
Layer 1
10
889.064875
20
530.290375
11
890.567266
21
531.095984
0
LINE
8
Layer 1
10
890.567266
20
531.095984
11
892.234000
21
532.224000
0
LINE
8
Layer 1
10
892.234000
20
532.224000
11
895.768500
21
535.013250
0
LINE
8
Layer 1
10
895.768500
20
535.013250
11
900.632000
21
539.154000
0
LINE
8
Layer 1
10
900.632000
20
539.154000
11
900.632000
21
539.154000
0
LINE
8
Layer 1
10
1131.850000
20
301.321000
11
1117.840000
21
299.215000
0
LINE
8
Layer 1
10
1117.840000
20
299.215000
11
1117.360000
21
291.643000
0
LINE
8
Layer 1
10
1117.360000
20
291.643000
11
1132.180000
21
294.231000
0
LINE
8
Layer 1
10
1132.180000
20
294.231000
11
1131.850000
21
301.321000
0
LINE
8
Layer 1
10
1131.850000
20
301.321000
11
1131.850000
21
301.321000
0
LINE
8
Layer 1
10
557.408000
20
443.366000
11
539.549000
21
399.342000
0
LINE
8
Layer 1
10
539.549000
20
399.342000
11
581.355000
21
396.085000
0
LINE
8
Layer 1
10
581.355000
20
396.085000
11
557.408000
21
443.366000
0
LINE
8
Layer 1
10
557.408000
20
443.366000
11
557.408000
21
443.366000
0
LINE
8
Layer 1
10
577.850000
20
524.983000
11
576.575552
21
524.363833
0
LINE
8
Layer 1
10
576.575552
20
524.363833
11
575.414148
21
523.633932
0
LINE
8
Layer 1
10
575.414148
20
523.633932
11
573.400125
21
521.866516
0
LINE
8
Layer 1
10
573.400125
20
521.866516
11
571.747227
21
519.729936
0
LINE
8
Layer 1
10
571.747227
20
519.729936
11
570.394750
21
517.273375
0
LINE
8
Layer 1
10
570.394750
20
517.273375
11
569.281992
21
514.546018
0
LINE
8
Layer 1
10
569.281992
20
514.546018
11
568.348250
21
511.597047
0
LINE
8
Layer 1
10
568.348250
20
511.597047
11
566.775000
21
505.231000
0
LINE
8
Layer 1
10
566.775000
20
505.231000
11
565.725578
21
499.700984
0
LINE
8
Layer 1
10
565.725578
20
499.700984
11
565.339061
21
496.515713
0
LINE
8
Layer 1
10
565.339061
20
496.515713
11
565.189625
21
493.393875
0
LINE
8
Layer 1
10
565.189625
20
493.393875
11
565.385986
21
490.593178
0
LINE
8
Layer 1
10
565.385986
20
490.593178
11
565.647814
21
489.393790
0
LINE
8
Layer 1
10
565.647814
20
489.393790
11
566.036859
21
488.371328
0
LINE
8
Layer 1
10
566.036859
20
488.371328
11
566.566711
21
487.558005
0
LINE
8
Layer 1
10
566.566711
20
487.558005
11
567.250959
21
486.986033
0
LINE
8
Layer 1
10
567.250959
20
486.986033
11
568.103192
21
486.687627
0
LINE
8
Layer 1
10
568.103192
20
486.687627
11
569.137000
21
486.695000
0
LINE
8
Layer 1
10
569.137000
20
486.695000
11
570.618928
21
487.010345
0
LINE
8
Layer 1
10
570.618928
20
487.010345
11
571.968191
21
487.479217
0
LINE
8
Layer 1
10
571.968191
20
487.479217
11
573.193007
21
488.091241
0
LINE
8
Layer 1
10
573.193007
20
488.091241
11
574.301594
21
488.836047
0
LINE
8
Layer 1
10
574.301594
20
488.836047
11
575.302168
21
489.703260
0
LINE
8
Layer 1
10
575.302168
20
489.703260
11
576.202949
21
490.682510
0
LINE
8
Layer 1
10
576.202949
20
490.682510
11
577.738000
21
492.935625
0
LINE
8
Layer 1
10
577.738000
20
492.935625
11
578.972488
21
495.512412
0
LINE
8
Layer 1
10
578.972488
20
495.512412
11
579.972156
21
498.329891
0
LINE
8
Layer 1
10
579.972156
20
498.329891
11
581.530000
21
504.355000
0
LINE
8
Layer 1
10
581.530000
20
504.355000
11
582.660781
21
510.159437
0
LINE
8
Layer 1
10
582.660781
20
510.159437
11
582.999355
21
513.242570
0
LINE
8
Layer 1
10
582.999355
20
513.242570
11
583.034250
21
516.263500
0
LINE
8
Layer 1
10
583.034250
20
516.263500
11
582.651113
21
519.085117
0
LINE
8
Layer 1
10
582.651113
20
519.085117
11
582.267048
21
520.378337
0
LINE
8
Layer 1
10
582.267048
20
520.378337
11
581.735594
21
521.570312
0
LINE
8
Layer 1
10
581.735594
20
521.570312
11
581.042456
21
522.643905
0
LINE
8
Layer 1
10
581.042456
20
522.643905
11
580.173340
21
523.581977
0
LINE
8
Layer 1
10
580.173340
20
523.581977
11
579.113953
21
524.367388
0
LINE
8
Layer 1
10
579.113953
20
524.367388
11
577.850000
21
524.983000
0
LINE
8
Layer 1
10
577.850000
20
524.983000
11
577.850000
21
524.983000
0
LINE
8
Layer 1
10
560.877000
20
318.900000
11
545.792000
21
319.552000
0
LINE
8
Layer 1
10
545.792000
20
319.552000
11
545.809000
21
278.469000
0
LINE
8
Layer 1
10
545.809000
20
278.469000
11
560.806000
21
279.084000
0
LINE
8
Layer 1
10
560.806000
20
279.084000
11
560.877000
21
318.900000
0
LINE
8
Layer 1
10
560.877000
20
318.900000
11
560.877000
21
318.900000
0
LINE
8
Layer 1
10
636.233000
20
654.455000
11
634.533318
21
654.317471
0
LINE
8
Layer 1
10
634.533318
20
654.317471
11
632.949734
21
653.923078
0
LINE
8
Layer 1
10
632.949734
20
653.923078
11
631.516314
21
653.299115
0
LINE
8
Layer 1
10
631.516314
20
653.299115
11
630.267125
21
652.472875
0
LINE
8
Layer 1
10
630.267125
20
652.472875
11
629.236232
21
651.471650
0
LINE
8
Layer 1
10
629.236232
20
651.471650
11
628.457703
21
650.322734
0
LINE
8
Layer 1
10
628.457703
20
650.322734
11
627.965604
21
649.053420
0
LINE
8
Layer 1
10
627.965604
20
649.053420
11
627.794000
21
647.691000
0
LINE
8
Layer 1
10
627.794000
20
647.691000
11
627.965604
21
646.328293
0
LINE
8
Layer 1
10
627.965604
20
646.328293
11
628.457703
21
645.058844
0
LINE
8
Layer 1
10
628.457703
20
645.058844
11
629.236232
21
643.909910
0
LINE
8
Layer 1
10
629.236232
20
643.909910
11
630.267125
21
642.908750
0
LINE
8
Layer 1
10
630.267125
20
642.908750
11
631.516314
21
642.082621
0
LINE
8
Layer 1
10
631.516314
20
642.082621
11
632.949734
21
641.458781
0
LINE
8
Layer 1
10
632.949734
20
641.458781
11
634.533318
21
641.064488
0
LINE
8
Layer 1
10
634.533318
20
641.064488
11
636.233000
21
640.927000
0
LINE
8
Layer 1
10
636.233000
20
640.927000
11
637.933342
21
641.064488
0
LINE
8
Layer 1
10
637.933342
20
641.064488
11
639.517422
21
641.458781
0
LINE
8
Layer 1
10
639.517422
20
641.458781
11
640.951197
21
642.082621
0
LINE
8
Layer 1
10
640.951197
20
642.082621
11
642.200625
21
642.908750
0
LINE
8
Layer 1
10
642.200625
20
642.908750
11
643.231662
21
643.909910
0
LINE
8
Layer 1
10
643.231662
20
643.909910
11
644.010266
21
645.058844
0
LINE
8
Layer 1
10
644.010266
20
645.058844
11
644.502393
21
646.328293
0
LINE
8
Layer 1
10
644.502393
20
646.328293
11
644.674000
21
647.691000
0
LINE
8
Layer 1
10
644.674000
20
647.691000
11
644.502393
21
649.053420
0
LINE
8
Layer 1
10
644.502393
20
649.053420
11
644.010266
21
650.322734
0
LINE
8
Layer 1
10
644.010266
20
650.322734
11
643.231662
21
651.471650
0
LINE
8
Layer 1
10
643.231662
20
651.471650
11
642.200625
21
652.472875
0
LINE
8
Layer 1
10
642.200625
20
652.472875
11
640.951197
21
653.299115
0
LINE
8
Layer 1
10
640.951197
20
653.299115
11
639.517422
21
653.923078
0
LINE
8
Layer 1
10
639.517422
20
653.923078
11
637.933342
21
654.317471
0
LINE
8
Layer 1
10
637.933342
20
654.317471
11
636.233000
21
654.455000
0
LINE
8
Layer 1
10
636.233000
20
654.455000
11
636.233000
21
654.455000
0
LINE
8
Layer 1
10
496.953000
20
319.552000
11
477.957000
21
319.552000
0
LINE
8
Layer 1
10
477.957000
20
319.552000
11
478.437000
21
276.081000
0
LINE
8
Layer 1
10
478.437000
20
276.081000
11
496.860000
21
276.869000
0
LINE
8
Layer 1
10
496.860000
20
276.869000
11
496.953000
21
319.552000
0
LINE
8
Layer 1
10
496.953000
20
319.552000
11
496.953000
21
319.552000
0
LINE
8
Layer 1
10
222.403000
20
318.686000
11
221.808000
21
272.500000
0
LINE
8
Layer 1
10
221.808000
20
272.500000
11
255.796000
21
270.620000
0
LINE
8
Layer 1
10
255.796000
20
270.620000
11
256.996000
21
320.760000
0
LINE
8
Layer 1
10
256.996000
20
320.760000
11
222.403000
21
318.686000
0
LINE
8
Layer 1
10
222.403000
20
318.686000
11
222.403000
21
318.686000
0
LINE
8
Layer 1
10
434.760000
20
616.776000
11
429.265000
21
615.663000
0
LINE
8
Layer 1
10
429.265000
20
615.663000
11
427.482000
21
612.720000
0
LINE
8
Layer 1
10
427.482000
20
612.720000
11
434.760000
21
616.776000
0
LINE
8
Layer 1
10
434.760000
20
616.776000
11
434.760000
21
616.776000
0
LINE
8
Layer 1
10
495.260000
20
448.444000
11
470.487000
21
401.746000
0
LINE
8
Layer 1
10
470.487000
20
401.746000
11
525.782000
21
399.342000
0
LINE
8
Layer 1
10
525.782000
20
399.342000
11
495.260000
21
448.444000
0
LINE
8
Layer 1
10
495.260000
20
448.444000
11
495.260000
21
448.444000
0
LINE
8
Layer 1
10
933.249000
20
542.966000
11
934.033000
21
525.859000
0
LINE
8
Layer 1
10
934.033000
20
525.859000
11
948.441000
21
529.142000
0
LINE
8
Layer 1
10
948.441000
20
529.142000
11
948.099000
21
547.923000
0
LINE
8
Layer 1
10
948.099000
20
547.923000
11
933.249000
21
542.966000
0
LINE
8
Layer 1
10
933.249000
20
542.966000
11
933.249000
21
542.966000
0
LINE
8
Layer 1
10
420.841000
20
319.394000
11
402.034000
21
319.552000
0
LINE
8
Layer 1
10
402.034000
20
319.552000
11
402.460000
21
273.547000
0
LINE
8
Layer 1
10
402.460000
20
273.547000
11
421.394000
21
274.487000
0
LINE
8
Layer 1
10
421.394000
20
274.487000
11
420.841000
21
319.394000
0
LINE
8
Layer 1
10
420.841000
20
319.394000
11
420.841000
21
319.394000
0
LINE
8
Layer 1
10
934.838000
20
289.081000
11
931.840539
21
292.380250
0
LINE
8
Layer 1
10
931.840539
20
292.380250
11
930.341753
21
293.706174
0
LINE
8
Layer 1
10
930.341753
20
293.706174
11
928.842938
21
294.813813
0
LINE
8
Layer 1
10
928.842938
20
294.813813
11
927.344099
21
295.701303
0
LINE
8
Layer 1
10
927.344099
20
295.701303
11
925.845242
21
296.366781
0
LINE
8
Layer 1
10
925.845242
20
296.366781
11
924.346374
21
296.808385
0
LINE
8
Layer 1
10
924.346374
20
296.808385
11
922.847500
21
297.024250
0
LINE
8
Layer 1
10
922.847500
20
297.024250
11
921.348626
21
297.012514
0
LINE
8
Layer 1
10
921.348626
20
297.012514
11
919.849758
21
296.771313
0
LINE
8
Layer 1
10
919.849758
20
296.771313
11
918.350901
21
296.298783
0
LINE
8
Layer 1
10
918.350901
20
296.298783
11
916.852062
21
295.593062
0
LINE
8
Layer 1
10
916.852062
20
295.593062
11
915.353247
21
294.652287
0
LINE
8
Layer 1
10
915.353247
20
294.652287
11
913.854461
21
293.474594
0
LINE
8
Layer 1
10
913.854461
20
293.474594
11
912.355710
21
292.058119
0
LINE
8
Layer 1
10
912.355710
20
292.058119
11
910.857000
21
290.401000
0
LINE
8
Layer 1
10
910.857000
20
290.401000
11
910.857000
21
254.017000
0
LINE
8
Layer 1
10
910.857000
20
254.017000
11
934.838000
21
252.694000
0
LINE
8
Layer 1
10
934.838000
20
252.694000
11
934.838000
21
289.081000
0
LINE
8
Layer 1
10
934.838000
20
289.081000
11
934.838000
21
289.081000
 0 
ENDSEC
 0 
EOF