<?xml version="1.0" encoding="UTF-8" standalone="no"?>
<!DOCTYPE svg PUBLIC "-//W3C//DTD SVG 1.1//EN" "http://www.w3.org/Graphics/SVG/1.1/DTD/svg11.dtd">
<svg width="100%" height="100%" viewBox="0 0 4508 2493" version="1.1" xmlns="http://www.w3.org/2000/svg" xmlns:xlink="http://www.w3.org/1999/xlink" xml:space="preserve" xmlns:serif="http://www.serif.com/" style="fill-rule:evenodd;clip-rule:evenodd;stroke-linejoin:round;stroke-miterlimit:2;">
    <g id="Text">
        <path d="M3451.56,358.653C4014.37,568.035 4384.21,920.791 4384.21,1320.34C4384.21,1962.16 3429.86,2483.24 2254.37,2483.24C1078.88,2483.24 124.531,1962.16 124.531,1320.34C124.531,678.52 1078.88,157.443 2254.37,157.443C2631.68,157.443 2986.21,211.13 3293.7,305.263L3359.51,154.374L3370.12,149.545L3451.56,358.653ZM2672.89,2366.63C3290.94,2300.86 3808.29,2088.48 4087.59,1801.65L2857.58,1672.87L2707.18,2339.83C2699.91,2349.28 2688.06,2358.25 2672.89,2366.63ZM1501.04,889.79L1388.16,1051.55L1605.07,1069.55L1501.04,889.79ZM3707.56,1281.08L3680.18,1310.18L3681.27,1432.24L3709.27,1412.87L3707.56,1281.08ZM4048.14,1489.89L4024.18,1491.6L4025.34,1549.79L4051.57,1549.79L4048.14,1489.89ZM2058.61,1361.78L2002.1,1360.73L2003.28,1503.47L2059.11,1501.92L2058.61,1361.78ZM1482.48,1075.71L1408.8,1073.88L1407.97,1221.33L1482.63,1220.34L1482.48,1075.71ZM1595.97,1362.14L1508.44,1360.73L1509.76,1519.78L1593.55,1517.56L1595.97,1362.14ZM3944.29,1460.24L3916.91,1468.8L3915.75,1550.95L3942.58,1537.26L3944.29,1460.24ZM3964.28,1483.04L3962.57,1650.76L4001.93,1638.24L4003.1,1474.48L3964.28,1483.04ZM721.94,1946.56L721.237,1690.46L718.36,1686.25L643.876,1669.4L646.488,1671.65L642.139,1913.32L632.683,1916.1L603.696,1921.89L596.334,1917.74L565.622,1900.98L563.508,1897.25L559.928,1668.36L563.963,1662.65L503.025,1652.98L504.201,1658.35L504.67,1852.15L504.201,1853.75L498.349,1854.63C846.927,2167.8 1488.31,2380.2 2224.5,2387.8C2155.08,2341.97 2080.56,2266.55 2087.97,2184.26L2122.5,1853.11L2093.95,1859.4L2086.88,1862.15L2032.09,1857.48L2031.62,1854.44L2033.5,1649.95L2034.21,1639.24L1913.12,1644.4L1912.18,1645.79L1915.47,1891.7L1911.95,1894.95L1874.77,1900L1868.54,1897.75L1822.46,1891.44L1823.16,1888.67L1821.99,1663.2L1822.69,1654.62L1673.05,1665.92L1672.71,1669.96L1669.42,1930.31L1664.96,1934.03L1606.98,1938.33L1605.95,1936.59L1570.74,1925.49L1573.83,1921.47L1573.36,1683.22L1569.07,1680.92L1394.82,1690.06L1390.38,1977.32L1388.2,1975.88L1332.37,1980.15L1329.14,1977.65L1288.93,1972.24L1289.08,1967.52L1289.19,1704.48L1287.78,1702.55L1067.86,1715.64L1064.29,1719.31L1063.59,2030.56L1062.18,2030.82L966.673,2030.16L964.878,2026.5L918.777,2010.06L916.49,2010.33L922.832,1723.95L928.293,1717.45L807.383,1698.12L805.269,1706.01L805.974,1958.82L801.979,1961.93L768.113,1963.27L761.108,1960.55L721.94,1946.56L721.943,1947.98L721.629,1946.45L721.94,1946.56ZM1394.82,1690.06L1394.84,1688.59L1394.18,1690.1L1394.82,1690.06ZM2129.17,1483.18L2129.16,1480.85L2128.75,1483.2L2129.17,1483.18ZM2129.17,1483.18L2129.48,1786.11L2155.16,1539.87L2811.57,1632.15L2813.16,1316.06L2816.68,1307.82L2973,1081.62L2973.55,1082L3188.03,1055.48L3188.81,1047.67L3191.11,605.415C3170.28,628.188 3153.96,644.992 3142.13,655.829C3128.63,668.206 3117.61,674.395 3109.07,674.395C3094.5,674.395 3087.21,663.615 3087.21,642.054C3087.21,635.666 3088.1,629.378 3089.88,623.189C3091.66,617.001 3094.1,610.563 3097.21,603.875C3100.32,597.187 3105.07,587.605 3111.47,575.128C3117.87,562.651 3125.25,548.527 3133.6,532.756C3123.47,538.545 3110.76,550.024 3095.48,567.193C3085.52,577.973 3077.08,588.204 3070.15,597.886C3063.22,607.568 3055.8,618.348 3047.89,630.226C3039.97,642.104 3034.2,650.09 3030.55,654.182C3026.91,658.275 3023.22,660.321 3019.49,660.321C3013.8,660.321 3008.56,653.633 3003.76,640.258C2999.34,627.926 2996.95,613.727 2996.61,597.661C2977.5,623.097 2959.53,642.736 2942.7,656.578C2925.11,671.051 2907.24,678.288 2889.11,678.288C2873.3,678.288 2860.76,671.4 2851.52,657.626C2842.28,643.851 2837.66,624.986 2837.66,601.03C2837.66,600.561 2837.66,600.094 2837.66,599.627L2753.14,677.689C2728.25,726 2705.59,762.083 2685.15,785.939C2664.71,809.795 2649.51,821.723 2639.56,821.723C2634.23,821.723 2631.56,818.03 2631.56,810.644C2631.56,796.27 2638.05,777.904 2651.02,755.545C2656.18,746.761 2662.09,738.177 2668.75,729.793C2675.42,721.408 2681.73,714.171 2687.68,708.083C2693.64,701.994 2701.5,694.408 2711.28,685.325C2721.06,676.241 2727.72,670.003 2731.28,666.609C2749.05,625.884 2761.85,594.742 2769.67,573.181C2752.96,593.145 2738.39,609.514 2725.94,622.291C2713.5,635.067 2702.08,644.899 2691.68,651.787C2681.28,658.674 2671.91,662.117 2663.55,662.117C2654.49,662.117 2646.14,653.982 2638.49,637.712C2632.62,625.2 2629,612.422 2627.64,599.378C2604.18,625.239 2586.02,644.056 2573.17,655.829C2559.66,668.206 2548.64,674.395 2540.11,674.395C2525.54,674.395 2518.25,663.615 2518.25,642.054C2518.25,635.666 2519.14,629.378 2520.91,623.189C2522.69,617.001 2525.14,610.563 2528.25,603.875C2531.36,597.187 2536.11,587.605 2542.51,575.128C2548.91,562.651 2556.29,548.527 2564.64,532.756C2554.51,538.545 2541.8,550.024 2526.51,567.193C2516.56,577.973 2508.12,588.204 2501.18,597.886C2494.25,607.568 2486.83,618.348 2478.92,630.226C2471.01,642.104 2465.24,650.09 2461.59,654.182C2457.95,658.275 2454.26,660.321 2450.53,660.321C2444.84,660.321 2439.6,653.633 2434.8,640.258C2431.01,629.703 2428.72,617.78 2427.92,604.491C2412.46,626.112 2397.96,642.676 2384.41,654.182C2369.47,666.859 2356.77,673.197 2346.28,673.197C2331.7,673.197 2320.86,664.613 2313.75,647.445C2307.55,632.475 2304.06,616.29 2303.26,598.892C2289.86,614.583 2278.7,627.074 2269.76,636.365C2260.16,646.347 2251.28,654.282 2243.1,660.171C2234.92,666.06 2227.64,669.005 2221.24,669.005C2213.77,669.005 2207.55,665.162 2202.57,657.476C2197.6,649.79 2195.11,638.661 2195.11,624.088C2195.11,615.503 2197.06,605.721 2200.97,594.742C2204.88,583.762 2210.62,571.834 2218.17,558.958C2225.72,546.081 2234.21,533.255 2243.63,520.479C2238.66,521.676 2233.06,522.924 2226.84,524.222C2220.61,525.519 2214.04,526.867 2207.11,528.264C2200.17,529.662 2194.84,530.76 2191.11,531.558C2180.66,555.038 2165.72,576.453 2146.32,595.802L2146.32,596.538C2135.65,608.516 2127.56,617.2 2122.05,622.59C2116.54,627.98 2108.99,633.47 2099.39,639.06C2099.39,657.227 2098.59,672.698 2096.99,685.474C2095.39,698.251 2091.84,711.676 2086.33,725.75C2080.82,739.824 2072.28,755.246 2060.73,772.015C2049.36,788.584 2038.16,801.311 2027.14,810.194C2016.12,819.078 2007.5,823.52 2001.28,823.52C1994.34,823.52 1987.94,817.132 1982.08,804.355C1976.21,791.579 1973.28,775.708 1973.28,756.743C1973.28,738.576 1976.04,719.412 1981.55,699.249C1987.06,679.086 1995.59,653.034 2007.14,621.093C2002.15,613.771 1998.59,606.482 1996.46,599.226C1977.56,618.794 1963.43,633.17 1954.09,642.354C1944.13,652.136 1935.51,659.522 1928.22,664.513C1920.93,669.504 1914,671.999 1907.43,671.999C1892.5,671.999 1885.03,662.018 1885.03,642.054C1885.03,634.468 1887.25,624.237 1891.7,611.361C1896.14,598.485 1903.34,579.869 1913.29,555.514C1887.52,593.843 1867.92,621.093 1854.5,637.263C1841.08,653.434 1830.11,661.519 1821.58,661.519C1814.82,661.519 1808.6,658.374 1802.91,652.086C1797.22,645.798 1792.83,637.313 1789.72,626.633C1787.46,618.891 1786.02,610.755 1785.4,602.227C1771.9,617.624 1759.69,630.949 1748.79,642.204C1736.7,654.681 1725.28,665.611 1714.53,674.994C1703.78,684.376 1694.13,691.463 1685.6,696.255C1677.07,701.046 1669.6,703.441 1663.2,703.441C1653.96,703.441 1646.54,699.898 1640.94,692.811C1635.34,685.724 1632.54,676.391 1632.54,664.813C1632.54,654.032 1634.63,641.006 1638.81,625.735C1642.99,610.463 1649.38,592.845 1658.01,572.882C1666.63,552.919 1677.29,531.259 1690,507.902C1702.71,484.545 1717.06,460.19 1733.06,434.837C1748.7,409.683 1756.52,393.513 1756.52,386.326C1756.52,382.134 1754.57,380.038 1750.65,380.038C1734.84,380.038 1698.75,415.472 1642.41,486.342C1638.85,490.734 1632.68,498.869 1623.88,510.747C1615.08,522.625 1606.1,535.251 1596.95,548.627C1587.8,562.002 1577.53,577.024 1566.15,593.694C1554.78,610.363 1543.23,627.282 1531.5,644.45C1525.99,652.635 1521.28,656.727 1517.36,656.727C1513.1,656.727 1507.5,652.835 1500.57,645.049C1493.63,637.263 1490.17,631.574 1490.17,627.98C1490.17,623.788 1495.1,613.307 1504.97,596.538C1514.83,579.769 1522.79,565.695 1528.83,554.316C1560.64,495.824 1584.42,449.759 1600.15,416.121C1615.88,382.483 1623.75,361.073 1623.75,351.89C1623.75,348.496 1622.68,345.701 1620.55,343.505C1618.41,341.309 1615.92,340.211 1613.08,340.211C1607.57,340.211 1592.02,346.2 1566.42,358.178C1545.27,368.16 1529.81,376.095 1520.03,381.984C1510.26,387.873 1496.79,396.308 1479.64,407.287C1462.49,418.267 1452.66,423.757 1450.18,423.757C1445.2,423.757 1442.71,419.864 1442.71,412.079C1442.71,397.306 1451.33,377.442 1468.57,352.488C1477.62,339.402 1488.29,327.167 1500.61,315.782C749.987,475.08 219.76,861.764 219.76,1313.02C219.76,1482.02 294.131,1641.96 426.597,1784.3L428.214,1578.33L425.63,1575.51L403.901,1581.79L402.669,1582.27L332.094,1563.01L331.748,1558.65L334.902,1501.19L332.482,1501.18L334.931,1500.67L334.902,1501.19L389.69,1501.51L391.101,1496.4L388.282,1376.6L386.873,1377.99L339.896,1376.13L338.133,1376.48L336.607,1267.51L340.366,1261.44L392.567,1259.1L392.334,1253.3L388.751,1139.79L388.751,1135.1L346.296,1137.23L344.165,1130.36L344.594,1076.49L346.296,1073.71L319.968,1071.13L320.823,1069.08L443.303,921.553L442.364,915.747L465.853,912.18L462.685,912.237L583.768,711.249L589.229,706.092L611.427,712.635L614.777,712.428L616.13,727.051L623.155,727.845L878.839,773.888L885.072,769.867L981.67,705.401L1173.34,645.394L1440.55,781.691L1440.74,781.997L1785.34,828.488L1785.58,834.079L1882.81,912.035L1889.52,909.681L1972.14,898.027L1976.6,902.444L2053.12,1048.8L2055,1047.15L2159.11,1115.56L2158.41,1117.86L2157.94,1475.95L2157.7,1481.54L2129.17,1483.18ZM684.442,893.06L621.182,1070.81L738.893,1032.92L684.442,893.06ZM485.375,1377.3L489.41,1519.15L565.372,1519.41L563.197,1374.88L485.375,1377.3ZM3233.48,615.735L3235.93,657.553L3262.87,648.955L3262.87,604.766L3233.48,615.735ZM3588.09,1478.21C3559.76,1442.98 3531.44,1439.92 3503.12,1473.52L3503.12,1602.44L3588.09,1607.13L3588.09,1478.21ZM4115.67,1771.67C4240.9,1632.53 4310.96,1477.04 4310.96,1313.02C4310.96,960.422 3987.24,647.249 3487.6,451.171L3545.26,599.212L3553.27,603.243L3559.43,614.052L3557.58,619.092L3557.95,961.252L3565.04,964.063L3897.66,904.874L3911.79,899.105L3926.71,863.995L3928.43,865.353L3945.16,904.488L3949.42,913.284L4059.21,1318.84L4061.81,1333.62L4073.72,1599.55L4081.92,1598.43L4110.05,1596.94L4111.9,1604.24L4115.67,1771.67ZM3035.35,1447.29C3007.02,1412.07 2978.7,1409.01 2950.38,1442.61L2950.38,1571.53L3035.35,1576.22L3035.35,1447.29ZM3793.13,1277.66L3728.1,1277.05L3732.07,1411.71L3796.56,1406.02L3793.13,1277.66ZM716.64,1365.76L622.26,1370.77L620.154,1521.41L715.92,1526.44L716.64,1365.76ZM2481.11,1695.42C2422.67,1693.34 2370.16,1718.25 2333.84,1786.26C2279.15,1888.66 2376.94,2067.24 2326.99,2173.37C2317.68,2193.14 2268.78,2211.7 2241.51,2152.92C2221.18,2109.07 2256.58,2031.15 2241.36,2018.7C2188.78,1975.69 2163.93,2059.66 2184.9,2183.03C2202.45,2286.28 2385.67,2287.03 2390.62,2117.89C2391.33,2093.91 2315.39,1797.1 2464.02,1813.69C2619.5,1831.05 2465.61,2030.21 2450.3,2135.13C2435.74,2234.93 2540.71,2360.66 2645.66,2232.35C2703.33,2161.83 2685.75,1893.9 2613.6,2046.6C2604.26,2066.37 2648.66,2112.62 2601.16,2192.51C2577.84,2231.71 2545.32,2207.52 2517.15,2170.66C2473.34,2113.35 2617.57,1928.83 2613.22,1841.29C2606.76,1711.24 2534.39,1697.32 2481.11,1695.42ZM529.826,936.479L476.737,1102.34L583.411,1080.52L529.826,936.479ZM3861.59,1352.97L3863.92,1378.64L3911.22,1378.64L3909.51,1352.97L3861.59,1352.97ZM3247.17,1109.93L3245.46,1234.87L3301.94,1219.47L3305.36,1097.96L3247.17,1109.93ZM3454.26,599.914L3455.97,675.218L3497.04,687.265L3498.76,617.028L3454.26,599.914ZM3964.28,1323.87L3971.12,1394.04L4002.55,1391.85L3998.51,1326.19L3964.28,1323.87ZM1840.6,1361.78L1776,1361.78L1776,1511.97L1841.98,1508.99L1840.6,1361.78ZM2969.78,475.702C2960.62,466.813 2944.14,478.319 2922.73,493.945C2906.02,506.145 2875.71,530.039 2889.13,545.793C2903.24,562.362 2926.98,539.375 2943.86,525.63C2959.99,512.493 2982.16,487.715 2969.78,475.702ZM3242.03,760.79L3245.46,844.042L3308.78,834.384L3306.52,747.102L3242.03,760.79ZM1585.39,1079.54L1500.44,1075.71L1499.66,1220.78L1584.49,1220.78L1585.39,1079.54ZM3191.22,582.613L3191.25,577.668L3188.22,578.424L3174.27,579.222L3175.38,576.581L3263.45,374.629C2968.15,287.636 2627.69,238.022 2265.36,238.022C2060.2,238.022 1862.06,253.928 1675.16,283.518C1676.25,286.748 1676.8,290.374 1676.8,294.396C1676.8,302.78 1673.83,314.958 1667.87,330.928C1661.92,346.899 1653.25,366.313 1641.88,389.171C1630.5,412.029 1618.9,434.637 1607.08,456.996C1595.26,479.354 1573.89,519.78 1542.96,578.272C1577.44,529.762 1609.17,487.34 1638.14,451.007C1667.12,414.674 1692.36,385.128 1713.86,362.37C1735.37,339.612 1753.5,322.494 1768.25,311.015C1783.01,299.536 1793.85,293.797 1800.78,293.797C1803.27,293.797 1806.2,296.442 1809.58,301.732C1812.95,307.022 1815.98,313.46 1818.64,321.046C1821.31,328.632 1822.64,334.821 1822.64,339.612C1822.64,352.788 1819.66,365.864 1813.71,378.84C1807.76,391.816 1798.91,407.387 1787.18,425.554C1753.77,476.26 1729.37,516.187 1714,545.333C1698.62,574.479 1690.93,597.936 1690.93,615.703C1690.93,629.078 1697.15,635.766 1709.6,635.766C1715.28,635.766 1721.95,633.37 1729.59,628.579C1737.24,623.788 1746.39,616.402 1757.05,606.42C1766.61,597.475 1776.24,587.808 1785.94,577.42C1786.24,575.121 1786.61,572.909 1787.05,570.786C1788.38,564.398 1790.91,557.361 1794.65,549.675C1798.38,541.989 1803.31,533.654 1809.44,524.671C1815.58,515.687 1823.09,505.506 1831.97,494.127C1837.31,487.14 1841.79,481.251 1845.44,476.46C1849.08,471.669 1852.64,468.425 1856.1,466.728C1859.57,465.031 1865.21,464.182 1873.03,464.182C1878.72,464.182 1884.14,465.031 1889.3,466.728C1894.45,468.425 1897.03,470.171 1897.03,471.968C1897.03,475.561 1894.41,482.05 1889.16,491.432C1883.92,500.815 1875.48,512.244 1863.83,525.719C1852.19,539.194 1838.73,552.42 1823.44,565.396C1820.07,577.174 1818.38,586.158 1818.38,592.346C1818.38,600.93 1821.31,605.222 1827.17,605.222C1829.31,605.222 1832.86,603.176 1837.84,599.084C1842.82,594.991 1851.22,587.106 1863.04,575.427C1874.86,563.749 1885.48,553.418 1894.89,544.434C1901.83,537.647 1909.87,527.516 1919.02,514.041C1928.18,500.565 1935.6,490.434 1941.29,483.647C1954.44,468.075 1963.42,457.944 1968.22,453.253C1973.02,448.561 1977.64,446.216 1982.08,446.216C1986.35,446.216 1989.23,447.713 1990.75,450.707C1992.26,453.702 1993.01,459.791 1993.01,468.974C1993.01,473.166 1992.65,476.56 1991.94,479.155C1991.23,481.75 1989.77,485.094 1987.55,489.186C1985.32,493.279 1980.84,500.815 1974.08,511.795C1967.33,522.774 1959.33,535.751 1950.09,550.723C1945.11,558.708 1940.75,567.442 1937.02,576.925C1933.29,586.407 1931.42,593.544 1931.42,598.335C1931.42,608.716 1935.07,613.906 1942.35,613.906C1948.4,613.906 1955.42,611.112 1963.42,605.522C1970.4,600.641 1980.64,592.337 1994.12,580.607C1994.47,571.622 1996.77,564.654 2001.01,559.706C2005.63,554.316 2012.21,549.425 2020.74,545.033C2026.96,534.054 2032.87,524.721 2038.47,517.035C2044.07,509.349 2051.67,499.118 2061.26,486.342C2079.75,435.236 2101.44,385.328 2126.32,336.618C2133.25,323.043 2138.23,313.91 2141.25,309.218C2144.27,304.527 2147.47,302.181 2150.85,302.181C2153.87,302.181 2156.54,304.677 2158.85,309.667C2161.16,314.658 2162.31,321.146 2162.31,329.131C2162.31,338.913 2161.38,347.897 2159.51,356.082C2157.65,364.267 2154.98,372.502 2151.51,380.786C2148.05,389.071 2143.25,399.003 2137.12,410.581C2130.99,422.16 2127.21,429.347 2125.79,432.142C2116.9,449.709 2106.86,469.173 2095.66,490.534C2084.46,511.894 2075.62,528.763 2069.13,541.141C2062.64,553.518 2057.98,562.801 2055.13,568.989C2064.73,578.372 2072.33,586.457 2077.93,593.244C2083.53,600.032 2088.37,608.117 2092.46,617.5C2098.5,614.905 2104.01,611.81 2108.99,608.217C2113.97,604.624 2119.83,599.683 2126.59,593.394C2132.85,587.564 2138.96,582.119 2144.92,577.061C2153.63,565.32 2160.32,555.244 2164.98,546.83C2159.29,544.634 2155.16,541.939 2152.58,538.745C2150,535.551 2148.72,530.76 2148.72,524.371C2148.72,517.185 2151.38,508.101 2156.71,497.122C2162.05,486.142 2168.62,475.861 2176.44,466.279C2184.26,456.696 2191.38,450.508 2197.77,447.713C2200.26,446.315 2202.66,445.617 2204.97,445.617C2208.53,445.617 2210.3,447.513 2210.3,451.306C2210.3,454.7 2207.55,461.587 2202.04,471.968C2238.66,465.58 2261.76,462.386 2271.36,462.386C2275.09,462.386 2277.67,462.785 2279.09,463.584C2282.11,465.38 2284.6,469.573 2286.56,476.16C2288.51,482.748 2289.49,489.336 2289.49,495.924C2289.49,500.116 2287.85,504.658 2284.56,509.549C2281.27,514.44 2275.63,521.577 2267.63,530.959C2258.21,542.338 2250.3,554.716 2243.9,568.091C2237.5,581.466 2234.3,591.548 2234.3,598.335C2234.3,607.718 2239.45,612.409 2249.76,612.409C2260.28,612.409 2278.31,600.775 2303.86,577.506C2304.2,574.561 2304.65,571.672 2305.22,568.839C2306.64,561.753 2308.33,555.913 2310.29,551.322C2312.24,546.73 2315.89,539.544 2321.22,529.762C2346.46,485.643 2369.56,463.584 2390.54,463.584C2401.38,463.584 2406.8,468.275 2406.8,477.658C2406.8,484.046 2403.29,494.027 2396.27,507.602C2389.25,521.177 2382.98,530.86 2377.47,536.649C2362.01,553.418 2351.92,565.096 2347.21,571.684C2342.5,578.272 2340.15,585.758 2340.15,594.143C2340.15,601.33 2342.55,607.319 2347.35,612.11C2352.14,616.901 2358.37,619.296 2366.01,619.296C2374.36,619.296 2383.56,615.853 2393.6,608.965C2402.72,602.716 2414.28,593.056 2428.3,579.986C2428.85,575.216 2429.72,571.151 2430.93,567.791C2433.15,561.603 2437.55,552.819 2444.13,541.44C2456.39,520.279 2466.97,504.758 2475.86,494.876C2484.74,484.994 2493.28,480.053 2501.45,480.053C2507.14,480.053 2511.72,481.151 2515.18,483.347C2518.65,485.543 2520.38,488.937 2520.38,493.528C2520.38,495.525 2519.85,497.621 2518.78,499.817C2517.72,502.013 2516.51,504.009 2515.18,505.806C2513.85,507.602 2511.05,511.096 2506.78,516.286C2478.7,551.222 2464.66,573.88 2464.66,584.261C2464.66,590.05 2466.35,592.945 2469.72,592.945C2471.86,592.945 2475.99,589.102 2482.12,581.416C2488.25,573.73 2496.16,563.649 2505.85,551.172C2515.54,538.695 2527,525.669 2540.24,512.094C2553.49,498.519 2568.55,485.443 2585.44,472.866C2594.86,465.48 2602.68,461.787 2608.9,461.787C2611.74,461.787 2614.54,466.179 2617.3,474.963C2620.05,483.746 2621.43,492.63 2621.43,501.613C2621.43,506.005 2617.61,512.693 2609.97,521.676C2578.68,560.804 2563.04,588.054 2563.04,603.426C2563.04,612.01 2566.15,616.302 2572.37,616.302C2577.53,616.302 2584.24,613.258 2592.5,607.169C2600.21,601.488 2611.99,591.678 2627.82,577.741C2628.61,572.771 2629.99,567.658 2631.96,562.401C2635.25,553.618 2640.4,544.235 2647.43,534.253C2654.45,524.272 2663.38,514.041 2674.22,503.56C2685.06,493.079 2697.77,482.848 2712.35,472.866C2739.9,453.502 2761.32,443.82 2776.6,443.82C2787.98,443.82 2793.66,448.511 2793.66,457.894C2793.66,470.87 2781.31,483.547 2756.61,495.924C2741.5,503.31 2726.52,513.092 2711.68,525.27C2696.84,537.447 2684.84,550.374 2675.69,564.048C2666.53,577.723 2661.95,590.05 2661.95,601.03C2661.95,606.42 2663.11,610.712 2665.42,613.906C2667.73,617.1 2670.75,618.698 2674.49,618.698C2680.71,618.698 2687.82,615.503 2695.82,609.115C2703.81,602.727 2715.63,591.448 2731.28,575.278C2738.39,567.891 2747.85,555.963 2759.67,539.494C2771.49,523.024 2781.27,510.447 2789,501.763C2796.73,493.079 2803.71,488.737 2809.93,488.737C2813.48,488.737 2816.37,489.985 2818.59,492.48C2820.82,494.976 2821.93,498.619 2821.93,503.41C2821.93,512.593 2818.68,525.919 2812.2,543.386C2805.71,560.854 2794.02,589.451 2777.13,629.178L2839.5,578.237C2841.54,566.061 2845.28,554.644 2850.72,543.985C2859.43,526.917 2873.65,508.9 2893.38,489.935C2906.89,476.959 2920.31,467.177 2933.64,460.589C2946.97,454.001 2958.88,450.707 2969.37,450.707C2977.72,450.707 2984.34,452.853 2989.23,457.145C2994.12,461.438 2996.56,467.876 2996.56,476.46C2996.56,489.037 2992.38,501.564 2984.03,514.041C2975.68,526.518 2962.92,538.895 2945.77,551.172C2928.62,563.449 2907.51,575.278 2882.45,586.657L2882.45,594.143C2882.45,605.921 2885.03,615.104 2890.18,621.692C2895.34,628.28 2902.09,631.574 2910.44,631.574C2919.15,631.574 2928.17,629.278 2937.51,624.687C2946.84,620.095 2956.12,614.006 2965.37,606.42C2974.23,599.146 2984.97,589.486 2997.59,577.439C2998.14,573.752 2998.91,570.536 2999.89,567.791C3002.12,561.603 3006.51,552.819 3013.09,541.44C3025.36,520.279 3035.93,504.758 3044.82,494.876C3053.71,484.994 3062.24,480.053 3070.41,480.053C3076.1,480.053 3080.68,481.151 3084.14,483.347C3087.61,485.543 3089.34,488.937 3089.34,493.528C3089.34,495.525 3088.81,497.621 3087.74,499.817C3086.68,502.013 3085.48,504.009 3084.14,505.806C3082.81,507.602 3080.01,511.096 3075.75,516.286C3047.66,551.222 3033.62,573.88 3033.62,584.261C3033.62,590.05 3035.31,592.945 3038.69,592.945C3040.82,592.945 3044.95,589.102 3051.08,581.416C3057.22,573.73 3065.13,563.649 3074.81,551.172C3084.5,538.695 3095.97,525.669 3109.21,512.094C3122.45,498.519 3137.51,485.443 3154.4,472.866C3163.82,465.48 3171.64,461.787 3177.86,461.787C3180.7,461.787 3183.51,466.179 3186.26,474.963C3189.01,483.746 3190.39,492.63 3190.39,501.613C3190.39,506.005 3186.57,512.693 3178.93,521.676C3147.64,560.804 3132,588.054 3132,603.426C3132,612.01 3135.11,616.302 3141.33,616.302C3146.49,616.302 3153.2,613.258 3161.46,607.169C3168.24,602.174 3178.16,593.989 3191.22,582.613ZM4010.49,1425.33L3960.86,1432.79L3959.15,1459.62L4011.66,1450.45L4010.49,1425.33ZM1975.07,922.018L1911.79,1078.01L2059.92,1089.55L1975.07,922.018ZM2047.5,632.826C2022.3,643.44 2015.34,671.728 2008.26,702.811C2003.46,723.854 1995.29,771.724 2016.63,768.491C2045.94,764.049 2053.95,734.827 2060.54,705.917C2066.23,680.928 2073.41,642.745 2047.5,632.826ZM1987.36,1363.04L1933.91,1360.73L1933.97,1506.3L1987.11,1504.12L1987.36,1363.04ZM2254.37,174.066C2237.87,174.066 2224.47,184.806 2224.47,198.033C2224.47,211.261 2237.87,222 2254.37,222C2270.88,222 2284.28,211.261 2284.28,198.033C2284.28,184.806 2270.88,174.066 2254.37,174.066ZM1760.86,1360.73L1693.55,1360.73L1695.25,1514.76L1760.53,1511.97L1760.86,1360.73ZM788.042,1363.8L785.933,1527.45L906.366,1534.11L910.617,1356.45L788.042,1363.8ZM1540.49,307.575C1533.99,308.872 1527.5,310.187 1521.02,311.518C1519.03,314.445 1516.92,317.921 1514.7,321.945C1523.9,316.779 1532.49,311.989 1540.49,307.575ZM1754.86,904.025L1667.08,1069.49L1863.01,1078.01L1754.86,904.025ZM3306.79,569.106L3309.57,629.722L3360.62,618.088L3359.41,551.542L3306.79,569.106ZM1491.17,1361.29L1424.53,1360.73L1426.04,1523.74L1493.13,1520.41L1491.17,1361.29ZM3312.42,1468.7C3284.1,1433.48 3255.77,1430.42 3227.45,1464.02L3227.45,1592.94L3312.42,1597.63L3312.42,1468.7Z"/>
    </g>
</svg>
