solid OpenSCAD_Model
  facet normal 0 0 -1
    outer loop
      vertex 115 10 -1
      vertex 120 10 -1
      vertex 119.563 5.84177 -1
    endloop
  endfacet
  facet normal 0 0 -1
    outer loop
      vertex 114.672 6.88132 -1
      vertex 119.563 5.84177 -1
      vertex 118.271 1.86527 -1
    endloop
  endfacet
  facet normal 0 0 -1
    outer loop
      vertex 120 10 -1
      vertex 115 10 -1
      vertex 119.563 14.1582 -1
    endloop
  endfacet
  facet normal 0 0 -1
    outer loop
      vertex 113.703 3.89895 -1
      vertex 118.271 1.86527 -1
      vertex 116.18 -1.7557 -1
    endloop
  endfacet
  facet normal 0 0 -1
    outer loop
      vertex 114.672 13.1187 -1
      vertex 119.563 14.1582 -1
      vertex 115 10 -1
    endloop
  endfacet
  facet normal -0 0 -1
    outer loop
      vertex 119.563 14.1582 -1
      vertex 114.672 13.1187 -1
      vertex 118.271 18.1347 -1
    endloop
  endfacet
  facet normal 0 0 -1
    outer loop
      vertex 119.563 5.84177 -1
      vertex 114.672 6.88132 -1
      vertex 115 10 -1
    endloop
  endfacet
  facet normal 0 0 -1
    outer loop
      vertex 118.271 1.86527 -1
      vertex 113.703 3.89895 -1
      vertex 114.672 6.88132 -1
    endloop
  endfacet
  facet normal 0 0 -1
    outer loop
      vertex 112.135 1.18322 -1
      vertex 116.18 -1.7557 -1
      vertex 113.383 -4.8629 -1
    endloop
  endfacet
  facet normal 0 0 -1
    outer loop
      vertex 116.18 -1.7557 -1
      vertex 112.135 1.18322 -1
      vertex 113.703 3.89895 -1
    endloop
  endfacet
  facet normal 0 0 -1
    outer loop
      vertex 113.383 -4.8629 -1
      vertex 110.037 -1.14717 -1
      vertex 112.135 1.18322 -1
    endloop
  endfacet
  facet normal 0 0 -1
    outer loop
      vertex 110 -7.32051 -1
      vertex 110.037 -1.14717 -1
      vertex 113.383 -4.8629 -1
    endloop
  endfacet
  facet normal 0 0 -1
    outer loop
      vertex 110 -7.32051 -1
      vertex 107.5 -2.99038 -1
      vertex 110.037 -1.14717 -1
    endloop
  endfacet
  facet normal 0 0 -1
    outer loop
      vertex 106.18 -9.02113 -1
      vertex 107.5 -2.99038 -1
      vertex 110 -7.32051 -1
    endloop
  endfacet
  facet normal 0 0 -1
    outer loop
      vertex 106.18 -9.02113 -1
      vertex 104.635 -4.26585 -1
      vertex 107.5 -2.99038 -1
    endloop
  endfacet
  facet normal 0 0 -1
    outer loop
      vertex 102.091 -9.89044 -1
      vertex 104.635 -4.26585 -1
      vertex 106.18 -9.02113 -1
    endloop
  endfacet
  facet normal 0 0 -1
    outer loop
      vertex 102.091 -9.89044 -1
      vertex 101.568 -4.91783 -1
      vertex 104.635 -4.26585 -1
    endloop
  endfacet
  facet normal 0 0 -1
    outer loop
      vertex 102.091 -9.89044 -1
      vertex 98.4321 -4.91783 -1
      vertex 101.568 -4.91783 -1
    endloop
  endfacet
  facet normal 0 0 -1
    outer loop
      vertex 97.9094 -9.89044 -1
      vertex 98.4321 -4.91783 -1
      vertex 102.091 -9.89044 -1
    endloop
  endfacet
  facet normal 0 0 -1
    outer loop
      vertex 97.9094 -9.89044 -1
      vertex 95.3647 -4.26585 -1
      vertex 98.4321 -4.91783 -1
    endloop
  endfacet
  facet normal 0 0 -1
    outer loop
      vertex 93.8197 -9.02113 -1
      vertex 95.3647 -4.26585 -1
      vertex 97.9094 -9.89044 -1
    endloop
  endfacet
  facet normal 0 0 -1
    outer loop
      vertex 93.8197 -9.02113 -1
      vertex 92.5 -2.99038 -1
      vertex 95.3647 -4.26585 -1
    endloop
  endfacet
  facet normal 0 0 -1
    outer loop
      vertex 90 -7.32051 -1
      vertex 92.5 -2.99038 -1
      vertex 93.8197 -9.02113 -1
    endloop
  endfacet
  facet normal 0 0 -1
    outer loop
      vertex 90 -7.32051 -1
      vertex 89.963 -1.14717 -1
      vertex 92.5 -2.99038 -1
    endloop
  endfacet
  facet normal 0 0 -1
    outer loop
      vertex 86.6174 -4.8629 -1
      vertex 89.963 -1.14717 -1
      vertex 90 -7.32051 -1
    endloop
  endfacet
  facet normal -0 0 -1
    outer loop
      vertex 89.963 -1.14717 -1
      vertex 86.6174 -4.8629 -1
      vertex 87.8647 1.18322 -1
    endloop
  endfacet
  facet normal 0 0 -1
    outer loop
      vertex 83.8197 -1.7557 -1
      vertex 87.8647 1.18322 -1
      vertex 86.6174 -4.8629 -1
    endloop
  endfacet
  facet normal -0 0 -1
    outer loop
      vertex 87.8647 1.18322 -1
      vertex 83.8197 -1.7557 -1
      vertex 86.2968 3.89895 -1
    endloop
  endfacet
  facet normal -0 0 -1
    outer loop
      vertex 86.2968 3.89895 -1
      vertex 81.7291 1.86527 -1
      vertex 85.3278 6.88132 -1
    endloop
  endfacet
  facet normal 0 0 -1
    outer loop
      vertex 81.7291 1.86527 -1
      vertex 86.2968 3.89895 -1
      vertex 83.8197 -1.7557 -1
    endloop
  endfacet
  facet normal 0 0 -1
    outer loop
      vertex 113.703 16.101 -1
      vertex 118.271 18.1347 -1
      vertex 114.672 13.1187 -1
    endloop
  endfacet
  facet normal -0 0 -1
    outer loop
      vertex 118.271 18.1347 -1
      vertex 113.703 16.101 -1
      vertex 116.18 21.7557 -1
    endloop
  endfacet
  facet normal 0 0 -1
    outer loop
      vertex 112.135 18.8168 -1
      vertex 116.18 21.7557 -1
      vertex 113.703 16.101 -1
    endloop
  endfacet
  facet normal -0 0 -1
    outer loop
      vertex 116.18 21.7557 -1
      vertex 112.135 18.8168 -1
      vertex 113.383 24.8629 -1
    endloop
  endfacet
  facet normal 0 0 -1
    outer loop
      vertex 110.037 21.1472 -1
      vertex 113.383 24.8629 -1
      vertex 112.135 18.8168 -1
    endloop
  endfacet
  facet normal 0 0 -1
    outer loop
      vertex 110.037 21.1472 -1
      vertex 110 27.3205 -1
      vertex 113.383 24.8629 -1
    endloop
  endfacet
  facet normal 0 0 -1
    outer loop
      vertex 107.5 22.9904 -1
      vertex 110 27.3205 -1
      vertex 110.037 21.1472 -1
    endloop
  endfacet
  facet normal 0 0 -1
    outer loop
      vertex 107.5 22.9904 -1
      vertex 106.18 29.0211 -1
      vertex 110 27.3205 -1
    endloop
  endfacet
  facet normal 0 0 -1
    outer loop
      vertex 104.635 24.2658 -1
      vertex 106.18 29.0211 -1
      vertex 107.5 22.9904 -1
    endloop
  endfacet
  facet normal 0 0 -1
    outer loop
      vertex 104.635 24.2658 -1
      vertex 102.091 29.8904 -1
      vertex 106.18 29.0211 -1
    endloop
  endfacet
  facet normal 0 0 -1
    outer loop
      vertex 101.568 24.9178 -1
      vertex 102.091 29.8904 -1
      vertex 104.635 24.2658 -1
    endloop
  endfacet
  facet normal 0 0 -1
    outer loop
      vertex 100 29.8904 -1
      vertex 101.568 24.9178 -1
      vertex 100 24.9178 -1
    endloop
  endfacet
  facet normal 0 0 -1
    outer loop
      vertex 101.568 24.9178 -1
      vertex 100 29.8904 -1
      vertex 102.091 29.8904 -1
    endloop
  endfacet
  facet normal 0 0 -1
    outer loop
      vertex 80.437 5.84177 -1
      vertex 85.3278 6.88132 -1
      vertex 81.7291 1.86527 -1
    endloop
  endfacet
  facet normal -0 0 -1
    outer loop
      vertex 85.3278 6.88132 -1
      vertex 80.437 5.84177 -1
      vertex 85 10 -1
    endloop
  endfacet
  facet normal 0 0 -1
    outer loop
      vertex 85.3278 13.1187 -1
      vertex 81.4915 17.4034 -1
      vertex 86.1186 15.5526 -1
    endloop
  endfacet
  facet normal 0 0 -1
    outer loop
      vertex 80 10 -1
      vertex 85 10 -1
      vertex 80.437 5.84177 -1
    endloop
  endfacet
  facet normal 0 0 -1
    outer loop
      vertex 85 10 -1
      vertex 80 10 -1
      vertex 85.3278 13.1187 -1
    endloop
  endfacet
  facet normal 0 -0 -1
    outer loop
      vertex 80.437 14.1582 -1
      vertex 85.3278 13.1187 -1
      vertex 80 10 -1
    endloop
  endfacet
  facet normal 0 0 -1
    outer loop
      vertex 85.3278 13.1187 -1
      vertex 80.437 14.1582 -1
      vertex 81.4915 17.4034 -1
    endloop
  endfacet
  facet normal 0 0 -1
    outer loop
      vertex 95 24.1035 -1
      vertex 93.8197 29.0211 -1
      vertex 95 29.272 -1
    endloop
  endfacet
  facet normal 0 0 -1
    outer loop
      vertex 90 27.3205 -1
      vertex 95 24.1035 -1
      vertex 92.5 22.9904 -1
    endloop
  endfacet
  facet normal 0 0 -1
    outer loop
      vertex 95 24.1035 -1
      vertex 90 27.3205 -1
      vertex 93.8197 29.0211 -1
    endloop
  endfacet
  facet normal 0 0 -1
    outer loop
      vertex 89.963 21.1472 -1
      vertex 90 27.3205 -1
      vertex 92.5 22.9904 -1
    endloop
  endfacet
  facet normal 0 0 -1
    outer loop
      vertex 86.6174 24.8629 -1
      vertex 89.963 21.1472 -1
      vertex 87.8647 18.8168 -1
    endloop
  endfacet
  facet normal 0 0 -1
    outer loop
      vertex 83.8197 21.7557 -1
      vertex 87.8647 18.8168 -1
      vertex 87.4132 18.0347 -1
    endloop
  endfacet
  facet normal 0 0 -1
    outer loop
      vertex 89.963 21.1472 -1
      vertex 86.6174 24.8629 -1
      vertex 90 27.3205 -1
    endloop
  endfacet
  facet normal 0 0 -1
    outer loop
      vertex 87.8647 18.8168 -1
      vertex 83.8197 21.7557 -1
      vertex 86.6174 24.8629 -1
    endloop
  endfacet
  facet normal 0 -0 -1
    outer loop
      vertex 83.8197 21.7557 -1
      vertex 87.4132 18.0347 -1
      vertex 82.7486 19.9006 -1
    endloop
  endfacet
  facet normal 0 0 1
    outer loop
      vertex 86.2968 3.89895 1
      vertex 81.7291 1.86527 1
      vertex 83.8197 -1.7557 1
    endloop
  endfacet
  facet normal 0 0 1
    outer loop
      vertex 80 10 1
      vertex 85 10 1
      vertex 85.3278 13.1187 1
    endloop
  endfacet
  facet normal 0 0 1
    outer loop
      vertex 81.4915 17.4034 1
      vertex 85.3278 13.1187 1
      vertex 86.1186 15.5526 1
    endloop
  endfacet
  facet normal -0 0 1
    outer loop
      vertex 80.437 14.1582 1
      vertex 85.3278 13.1187 1
      vertex 81.4915 17.4034 1
    endloop
  endfacet
  facet normal 0 0 1
    outer loop
      vertex 85.3278 13.1187 1
      vertex 80.437 14.1582 1
      vertex 80 10 1
    endloop
  endfacet
  facet normal 0 0 1
    outer loop
      vertex 85.3278 6.88132 1
      vertex 80.437 5.84177 1
      vertex 81.7291 1.86527 1
    endloop
  endfacet
  facet normal 0 0 1
    outer loop
      vertex 85 10 1
      vertex 80 10 1
      vertex 80.437 5.84177 1
    endloop
  endfacet
  facet normal 0 0 1
    outer loop
      vertex 115 10 1
      vertex 120 10 1
      vertex 119.563 14.1582 1
    endloop
  endfacet
  facet normal 0 0 1
    outer loop
      vertex 114.672 13.1187 1
      vertex 119.563 14.1582 1
      vertex 118.271 18.1347 1
    endloop
  endfacet
  facet normal 0 0 1
    outer loop
      vertex 120 10 1
      vertex 115 10 1
      vertex 119.563 5.84177 1
    endloop
  endfacet
  facet normal 0 0 1
    outer loop
      vertex 113.703 16.101 1
      vertex 118.271 18.1347 1
      vertex 116.18 21.7557 1
    endloop
  endfacet
  facet normal -0 0 1
    outer loop
      vertex 114.672 6.88132 1
      vertex 119.563 5.84177 1
      vertex 115 10 1
    endloop
  endfacet
  facet normal 0 0 1
    outer loop
      vertex 119.563 5.84177 1
      vertex 114.672 6.88132 1
      vertex 118.271 1.86527 1
    endloop
  endfacet
  facet normal 0 0 1
    outer loop
      vertex 119.563 14.1582 1
      vertex 114.672 13.1187 1
      vertex 115 10 1
    endloop
  endfacet
  facet normal 0 0 1
    outer loop
      vertex 118.271 18.1347 1
      vertex 113.703 16.101 1
      vertex 114.672 13.1187 1
    endloop
  endfacet
  facet normal 0 0 1
    outer loop
      vertex 112.135 18.8168 1
      vertex 116.18 21.7557 1
      vertex 113.383 24.8629 1
    endloop
  endfacet
  facet normal 0 0 1
    outer loop
      vertex 116.18 21.7557 1
      vertex 112.135 18.8168 1
      vertex 113.703 16.101 1
    endloop
  endfacet
  facet normal 0 0 1
    outer loop
      vertex 113.383 24.8629 1
      vertex 110.037 21.1472 1
      vertex 112.135 18.8168 1
    endloop
  endfacet
  facet normal 0 0 1
    outer loop
      vertex 110 27.3205 1
      vertex 110.037 21.1472 1
      vertex 113.383 24.8629 1
    endloop
  endfacet
  facet normal 0 0 1
    outer loop
      vertex 110 27.3205 1
      vertex 107.5 22.9904 1
      vertex 110.037 21.1472 1
    endloop
  endfacet
  facet normal 0 0 1
    outer loop
      vertex 106.18 29.0211 1
      vertex 107.5 22.9904 1
      vertex 110 27.3205 1
    endloop
  endfacet
  facet normal 0 0 1
    outer loop
      vertex 106.18 29.0211 1
      vertex 104.635 24.2658 1
      vertex 107.5 22.9904 1
    endloop
  endfacet
  facet normal 0 0 1
    outer loop
      vertex 102.091 29.8904 1
      vertex 104.635 24.2658 1
      vertex 106.18 29.0211 1
    endloop
  endfacet
  facet normal 0 0 1
    outer loop
      vertex 102.091 29.8904 1
      vertex 101.568 24.9178 1
      vertex 104.635 24.2658 1
    endloop
  endfacet
  facet normal -0 0 1
    outer loop
      vertex 100 29.8904 1
      vertex 101.568 24.9178 1
      vertex 102.091 29.8904 1
    endloop
  endfacet
  facet normal 0 0 1
    outer loop
      vertex 101.568 24.9178 1
      vertex 100 29.8904 1
      vertex 100 24.9178 1
    endloop
  endfacet
  facet normal -0 0 1
    outer loop
      vertex 113.703 3.89895 1
      vertex 118.271 1.86527 1
      vertex 114.672 6.88132 1
    endloop
  endfacet
  facet normal 0 0 1
    outer loop
      vertex 118.271 1.86527 1
      vertex 113.703 3.89895 1
      vertex 116.18 -1.7557 1
    endloop
  endfacet
  facet normal -0 0 1
    outer loop
      vertex 112.135 1.18322 1
      vertex 116.18 -1.7557 1
      vertex 113.703 3.89895 1
    endloop
  endfacet
  facet normal 0 0 1
    outer loop
      vertex 116.18 -1.7557 1
      vertex 112.135 1.18322 1
      vertex 113.383 -4.8629 1
    endloop
  endfacet
  facet normal -0 0 1
    outer loop
      vertex 110.037 -1.14717 1
      vertex 113.383 -4.8629 1
      vertex 112.135 1.18322 1
    endloop
  endfacet
  facet normal 0 0 1
    outer loop
      vertex 110.037 -1.14717 1
      vertex 110 -7.32051 1
      vertex 113.383 -4.8629 1
    endloop
  endfacet
  facet normal -0 0 1
    outer loop
      vertex 107.5 -2.99038 1
      vertex 110 -7.32051 1
      vertex 110.037 -1.14717 1
    endloop
  endfacet
  facet normal 0 0 1
    outer loop
      vertex 107.5 -2.99038 1
      vertex 106.18 -9.02113 1
      vertex 110 -7.32051 1
    endloop
  endfacet
  facet normal -0 0 1
    outer loop
      vertex 104.635 -4.26585 1
      vertex 106.18 -9.02113 1
      vertex 107.5 -2.99038 1
    endloop
  endfacet
  facet normal 0 0 1
    outer loop
      vertex 104.635 -4.26585 1
      vertex 102.091 -9.89044 1
      vertex 106.18 -9.02113 1
    endloop
  endfacet
  facet normal -0 0 1
    outer loop
      vertex 101.568 -4.91783 1
      vertex 102.091 -9.89044 1
      vertex 104.635 -4.26585 1
    endloop
  endfacet
  facet normal -0 0 1
    outer loop
      vertex 98.4321 -4.91783 1
      vertex 102.091 -9.89044 1
      vertex 101.568 -4.91783 1
    endloop
  endfacet
  facet normal 0 0 1
    outer loop
      vertex 98.4321 -4.91783 1
      vertex 97.9094 -9.89044 1
      vertex 102.091 -9.89044 1
    endloop
  endfacet
  facet normal 0 0 1
    outer loop
      vertex 95.3647 -4.26585 1
      vertex 97.9094 -9.89044 1
      vertex 98.4321 -4.91783 1
    endloop
  endfacet
  facet normal 0 0 1
    outer loop
      vertex 95.3647 -4.26585 1
      vertex 93.8197 -9.02113 1
      vertex 97.9094 -9.89044 1
    endloop
  endfacet
  facet normal 0 0 1
    outer loop
      vertex 92.5 -2.99038 1
      vertex 93.8197 -9.02113 1
      vertex 95.3647 -4.26585 1
    endloop
  endfacet
  facet normal 0 0 1
    outer loop
      vertex 92.5 -2.99038 1
      vertex 90 -7.32051 1
      vertex 93.8197 -9.02113 1
    endloop
  endfacet
  facet normal 0 0 1
    outer loop
      vertex 89.963 -1.14717 1
      vertex 90 -7.32051 1
      vertex 92.5 -2.99038 1
    endloop
  endfacet
  facet normal 0 0 1
    outer loop
      vertex 86.6174 -4.8629 1
      vertex 89.963 -1.14717 1
      vertex 87.8647 1.18322 1
    endloop
  endfacet
  facet normal 0 0 1
    outer loop
      vertex 89.963 -1.14717 1
      vertex 86.6174 -4.8629 1
      vertex 90 -7.32051 1
    endloop
  endfacet
  facet normal 0 0 1
    outer loop
      vertex 83.8197 -1.7557 1
      vertex 87.8647 1.18322 1
      vertex 86.2968 3.89895 1
    endloop
  endfacet
  facet normal 0 0 1
    outer loop
      vertex 81.7291 1.86527 1
      vertex 86.2968 3.89895 1
      vertex 85.3278 6.88132 1
    endloop
  endfacet
  facet normal 0 0 1
    outer loop
      vertex 87.8647 1.18322 1
      vertex 83.8197 -1.7557 1
      vertex 86.6174 -4.8629 1
    endloop
  endfacet
  facet normal 0 0 1
    outer loop
      vertex 80.437 5.84177 1
      vertex 85.3278 6.88132 1
      vertex 85 10 1
    endloop
  endfacet
  facet normal -0 0 1
    outer loop
      vertex 93.8197 29.0211 1
      vertex 95 24.1035 1
      vertex 95 29.272 1
    endloop
  endfacet
  facet normal -0 0 1
    outer loop
      vertex 90 27.3205 1
      vertex 95 24.1035 1
      vertex 93.8197 29.0211 1
    endloop
  endfacet
  facet normal 0 0 1
    outer loop
      vertex 95 24.1035 1
      vertex 90 27.3205 1
      vertex 92.5 22.9904 1
    endloop
  endfacet
  facet normal 0 0 1
    outer loop
      vertex 90 27.3205 1
      vertex 89.963 21.1472 1
      vertex 92.5 22.9904 1
    endloop
  endfacet
  facet normal -0 0 1
    outer loop
      vertex 86.6174 24.8629 1
      vertex 89.963 21.1472 1
      vertex 90 27.3205 1
    endloop
  endfacet
  facet normal 0 0 1
    outer loop
      vertex 89.963 21.1472 1
      vertex 86.6174 24.8629 1
      vertex 87.8647 18.8168 1
    endloop
  endfacet
  facet normal -0 0 1
    outer loop
      vertex 83.8197 21.7557 1
      vertex 87.8647 18.8168 1
      vertex 86.6174 24.8629 1
    endloop
  endfacet
  facet normal 0 0 1
    outer loop
      vertex 87.8647 18.8168 1
      vertex 83.8197 21.7557 1
      vertex 87.4132 18.0347 1
    endloop
  endfacet
  facet normal 0 0 1
    outer loop
      vertex 87.4132 18.0347 1
      vertex 83.8197 21.7557 1
      vertex 82.7486 19.9006 1
    endloop
  endfacet
  facet normal 0.371384 0.928479 -0
    outer loop
      vertex 86.1186 15.5526 -1
      vertex 81.4915 17.4034 1
      vertex 86.1186 15.5526 1
    endloop
  endfacet
  facet normal 0.371384 0.928479 0
    outer loop
      vertex 81.4915 17.4034 1
      vertex 86.1186 15.5526 -1
      vertex 81.4915 17.4034 -1
    endloop
  endfacet
  facet normal -1 0 0
    outer loop
      vertex 100 24.9178 -1
      vertex 100 29.8904 1
      vertex 100 29.8904 -1
    endloop
  endfacet
  facet normal -1 -0 0
    outer loop
      vertex 100 29.8904 1
      vertex 100 24.9178 -1
      vertex 100 24.9178 1
    endloop
  endfacet
  facet normal 1 -0 0
    outer loop
      vertex 95 24.1035 1
      vertex 95 29.272 -1
      vertex 95 29.272 1
    endloop
  endfacet
  facet normal 1 0 0
    outer loop
      vertex 95 29.272 -1
      vertex 95 24.1035 1
      vertex 95 24.1035 -1
    endloop
  endfacet
  facet normal -0.371401 -0.928473 0
    outer loop
      vertex 82.7486 19.9006 -1
      vertex 87.4132 18.0347 1
      vertex 82.7486 19.9006 1
    endloop
  endfacet
  facet normal -0.371401 -0.928473 -0
    outer loop
      vertex 87.4132 18.0347 1
      vertex 82.7486 19.9006 -1
      vertex 87.4132 18.0347 -1
    endloop
  endfacet
  facet normal 0.865982 0.500074 0
    outer loop
      vertex 118.271 18.1347 1
      vertex 116.18 21.7557 -1
      vertex 116.18 21.7557 1
    endloop
  endfacet
  facet normal 0.865982 0.500074 0
    outer loop
      vertex 116.18 21.7557 -1
      vertex 118.271 18.1347 1
      vertex 118.271 18.1347 -1
    endloop
  endfacet
  facet normal -0.95105 0.309036 0
    outer loop
      vertex 80.437 14.1582 -1
      vertex 81.4915 17.4034 1
      vertex 81.4915 17.4034 -1
    endloop
  endfacet
  facet normal -0.95105 0.309036 0
    outer loop
      vertex 81.4915 17.4034 1
      vertex 80.437 14.1582 -1
      vertex 80.437 14.1582 1
    endloop
  endfacet
  facet normal 0.743232 0.669033 0
    outer loop
      vertex 116.18 21.7557 1
      vertex 113.383 24.8629 -1
      vertex 113.383 24.8629 1
    endloop
  endfacet
  facet normal 0.743232 0.669033 0
    outer loop
      vertex 113.383 24.8629 -1
      vertex 116.18 21.7557 1
      vertex 116.18 21.7557 -1
    endloop
  endfacet
  facet normal 0.207947 0.97814 -0
    outer loop
      vertex 106.18 29.0211 -1
      vertex 102.091 29.8904 1
      vertex 106.18 29.0211 1
    endloop
  endfacet
  facet normal 0.207947 0.97814 0
    outer loop
      vertex 102.091 29.8904 1
      vertex 106.18 29.0211 -1
      vertex 102.091 29.8904 -1
    endloop
  endfacet
  facet normal -0.406729 0.913549 0
    outer loop
      vertex 93.8197 29.0211 -1
      vertex 90 27.3205 1
      vertex 93.8197 29.0211 1
    endloop
  endfacet
  facet normal -0.406729 0.913549 0
    outer loop
      vertex 90 27.3205 1
      vertex 93.8197 29.0211 -1
      vertex 90 27.3205 -1
    endloop
  endfacet
  facet normal 0.994523 -0.104517 0
    outer loop
      vertex 119.563 5.84177 1
      vertex 120 10 -1
      vertex 120 10 1
    endloop
  endfacet
  facet normal 0.994523 -0.104517 0
    outer loop
      vertex 120 10 -1
      vertex 119.563 5.84177 1
      vertex 119.563 5.84177 -1
    endloop
  endfacet
  facet normal 0.587739 0.80905 -0
    outer loop
      vertex 113.383 24.8629 -1
      vertex 110 27.3205 1
      vertex 113.383 24.8629 1
    endloop
  endfacet
  facet normal 0.587739 0.80905 0
    outer loop
      vertex 110 27.3205 1
      vertex 113.383 24.8629 -1
      vertex 110 27.3205 -1
    endloop
  endfacet
  facet normal 0 1 -0
    outer loop
      vertex 102.091 29.8904 -1
      vertex 100 29.8904 1
      vertex 102.091 29.8904 1
    endloop
  endfacet
  facet normal 0 1 0
    outer loop
      vertex 100 29.8904 1
      vertex 102.091 29.8904 -1
      vertex 100 29.8904 -1
    endloop
  endfacet
  facet normal 0.406702 0.913561 -0
    outer loop
      vertex 110 27.3205 -1
      vertex 106.18 29.0211 1
      vertex 110 27.3205 1
    endloop
  endfacet
  facet normal 0.406702 0.913561 0
    outer loop
      vertex 106.18 29.0211 1
      vertex 110 27.3205 -1
      vertex 106.18 29.0211 -1
    endloop
  endfacet
  facet normal -0.994523 0.104518 0
    outer loop
      vertex 80 10 -1
      vertex 80.437 14.1582 1
      vertex 80.437 14.1582 -1
    endloop
  endfacet
  facet normal -0.994523 0.104518 0
    outer loop
      vertex 80.437 14.1582 1
      vertex 80 10 -1
      vertex 80 10 1
    endloop
  endfacet
  facet normal -0.866014 0.50002 0
    outer loop
      vertex 82.7486 19.9006 -1
      vertex 83.8197 21.7557 1
      vertex 83.8197 21.7557 -1
    endloop
  endfacet
  facet normal -0.866014 0.50002 0
    outer loop
      vertex 83.8197 21.7557 1
      vertex 82.7486 19.9006 -1
      vertex 82.7486 19.9006 1
    endloop
  endfacet
  facet normal -0.587785 0.809017 0
    outer loop
      vertex 90 27.3205 -1
      vertex 86.6174 24.8629 1
      vertex 90 27.3205 1
    endloop
  endfacet
  facet normal -0.587785 0.809017 0
    outer loop
      vertex 86.6174 24.8629 1
      vertex 90 27.3205 -1
      vertex 86.6174 24.8629 -1
    endloop
  endfacet
  facet normal -0.207927 0.978144 0
    outer loop
      vertex 95 29.272 -1
      vertex 93.8197 29.0211 1
      vertex 95 29.272 1
    endloop
  endfacet
  facet normal -0.207927 0.978144 0
    outer loop
      vertex 93.8197 29.0211 1
      vertex 95 29.272 -1
      vertex 93.8197 29.0211 -1
    endloop
  endfacet
  facet normal -0.743149 0.669126 0
    outer loop
      vertex 83.8197 21.7557 -1
      vertex 86.6174 24.8629 1
      vertex 86.6174 24.8629 -1
    endloop
  endfacet
  facet normal -0.743149 0.669126 0
    outer loop
      vertex 86.6174 24.8629 1
      vertex 83.8197 21.7557 -1
      vertex 83.8197 21.7557 1
    endloop
  endfacet
  facet normal 0.994523 0.104518 0
    outer loop
      vertex 120 10 1
      vertex 119.563 14.1582 -1
      vertex 119.563 14.1582 1
    endloop
  endfacet
  facet normal 0.994523 0.104518 0
    outer loop
      vertex 119.563 14.1582 -1
      vertex 120 10 1
      vertex 120 10 -1
    endloop
  endfacet
  facet normal -0.866022 -0.500006 0
    outer loop
      vertex 83.8197 -1.7557 -1
      vertex 81.7291 1.86527 1
      vertex 81.7291 1.86527 -1
    endloop
  endfacet
  facet normal -0.866022 -0.500006 0
    outer loop
      vertex 81.7291 1.86527 1
      vertex 83.8197 -1.7557 -1
      vertex 83.8197 -1.7557 1
    endloop
  endfacet
  facet normal 0.587741 -0.809049 0
    outer loop
      vertex 110 -7.32051 -1
      vertex 113.383 -4.8629 1
      vertex 110 -7.32051 1
    endloop
  endfacet
  facet normal 0.587741 -0.809049 0
    outer loop
      vertex 113.383 -4.8629 1
      vertex 110 -7.32051 -1
      vertex 113.383 -4.8629 -1
    endloop
  endfacet
  facet normal 0.95106 0.309008 0
    outer loop
      vertex 119.563 14.1582 1
      vertex 118.271 18.1347 -1
      vertex 118.271 18.1347 1
    endloop
  endfacet
  facet normal 0.95106 0.309008 0
    outer loop
      vertex 118.271 18.1347 -1
      vertex 119.563 14.1582 1
      vertex 119.563 14.1582 -1
    endloop
  endfacet
  facet normal 0.865981 -0.500077 0
    outer loop
      vertex 116.18 -1.7557 1
      vertex 118.271 1.86527 -1
      vertex 118.271 1.86527 1
    endloop
  endfacet
  facet normal 0.865981 -0.500077 0
    outer loop
      vertex 118.271 1.86527 -1
      vertex 116.18 -1.7557 1
      vertex 116.18 -1.7557 -1
    endloop
  endfacet
  facet normal 0 -1 0
    outer loop
      vertex 97.9094 -9.89044 -1
      vertex 102.091 -9.89044 1
      vertex 97.9094 -9.89044 1
    endloop
  endfacet
  facet normal 0 -1 -0
    outer loop
      vertex 102.091 -9.89044 1
      vertex 97.9094 -9.89044 -1
      vertex 102.091 -9.89044 -1
    endloop
  endfacet
  facet normal 0.20795 -0.97814 0
    outer loop
      vertex 102.091 -9.89044 -1
      vertex 106.18 -9.02113 1
      vertex 102.091 -9.89044 1
    endloop
  endfacet
  facet normal 0.20795 -0.97814 0
    outer loop
      vertex 106.18 -9.02113 1
      vertex 102.091 -9.89044 -1
      vertex 106.18 -9.02113 -1
    endloop
  endfacet
  facet normal 0.406706 -0.913559 0
    outer loop
      vertex 106.18 -9.02113 -1
      vertex 110 -7.32051 1
      vertex 106.18 -9.02113 1
    endloop
  endfacet
  facet normal 0.406706 -0.913559 0
    outer loop
      vertex 110 -7.32051 1
      vertex 106.18 -9.02113 -1
      vertex 110 -7.32051 -1
    endloop
  endfacet
  facet normal 0.95106 -0.309008 0
    outer loop
      vertex 118.271 1.86527 1
      vertex 119.563 5.84177 -1
      vertex 119.563 5.84177 1
    endloop
  endfacet
  facet normal 0.95106 -0.309008 0
    outer loop
      vertex 119.563 5.84177 -1
      vertex 118.271 1.86527 1
      vertex 118.271 1.86527 -1
    endloop
  endfacet
  facet normal -0.207916 -0.978147 0
    outer loop
      vertex 93.8197 -9.02113 -1
      vertex 97.9094 -9.89044 1
      vertex 93.8197 -9.02113 1
    endloop
  endfacet
  facet normal -0.207916 -0.978147 -0
    outer loop
      vertex 97.9094 -9.89044 1
      vertex 93.8197 -9.02113 -1
      vertex 97.9094 -9.89044 -1
    endloop
  endfacet
  facet normal -0.951053 -0.309029 0
    outer loop
      vertex 81.7291 1.86527 -1
      vertex 80.437 5.84177 1
      vertex 80.437 5.84177 -1
    endloop
  endfacet
  facet normal -0.951053 -0.309029 0
    outer loop
      vertex 80.437 5.84177 1
      vertex 81.7291 1.86527 -1
      vertex 81.7291 1.86527 1
    endloop
  endfacet
  facet normal -0.994523 -0.104517 0
    outer loop
      vertex 80.437 5.84177 -1
      vertex 80 10 1
      vertex 80 10 -1
    endloop
  endfacet
  facet normal -0.994523 -0.104517 0
    outer loop
      vertex 80 10 1
      vertex 80.437 5.84177 -1
      vertex 80.437 5.84177 1
    endloop
  endfacet
  facet normal -0.743149 -0.669126 0
    outer loop
      vertex 86.6174 -4.8629 -1
      vertex 83.8197 -1.7557 1
      vertex 83.8197 -1.7557 -1
    endloop
  endfacet
  facet normal -0.743149 -0.669126 0
    outer loop
      vertex 83.8197 -1.7557 1
      vertex 86.6174 -4.8629 -1
      vertex 86.6174 -4.8629 1
    endloop
  endfacet
  facet normal 0.743232 -0.669033 0
    outer loop
      vertex 113.383 -4.8629 1
      vertex 116.18 -1.7557 -1
      vertex 116.18 -1.7557 1
    endloop
  endfacet
  facet normal 0.743232 -0.669033 0
    outer loop
      vertex 116.18 -1.7557 -1
      vertex 113.383 -4.8629 1
      vertex 113.383 -4.8629 -1
    endloop
  endfacet
  facet normal -0.406733 -0.913547 0
    outer loop
      vertex 90 -7.32051 -1
      vertex 93.8197 -9.02113 1
      vertex 90 -7.32051 1
    endloop
  endfacet
  facet normal -0.406733 -0.913547 -0
    outer loop
      vertex 93.8197 -9.02113 1
      vertex 90 -7.32051 -1
      vertex 93.8197 -9.02113 -1
    endloop
  endfacet
  facet normal -0.587786 -0.809016 0
    outer loop
      vertex 86.6174 -4.8629 -1
      vertex 90 -7.32051 1
      vertex 86.6174 -4.8629 1
    endloop
  endfacet
  facet normal -0.587786 -0.809016 -0
    outer loop
      vertex 90 -7.32051 1
      vertex 86.6174 -4.8629 -1
      vertex 90 -7.32051 -1
    endloop
  endfacet
  facet normal -0.994515 -0.104595 0
    outer loop
      vertex 115 10 -1
      vertex 114.672 13.1187 1
      vertex 114.672 13.1187 -1
    endloop
  endfacet
  facet normal -0.994515 -0.104595 0
    outer loop
      vertex 114.672 13.1187 1
      vertex 115 10 -1
      vertex 115 10 1
    endloop
  endfacet
  facet normal 0.994522 -0.104532 0
    outer loop
      vertex 85 10 1
      vertex 85.3278 13.1187 -1
      vertex 85.3278 13.1187 1
    endloop
  endfacet
  facet normal 0.994522 -0.104532 0
    outer loop
      vertex 85.3278 13.1187 -1
      vertex 85 10 1
      vertex 85 10 -1
    endloop
  endfacet
  facet normal 0 -1 0
    outer loop
      vertex 100 24.9178 -1
      vertex 101.568 24.9178 1
      vertex 100 24.9178 1
    endloop
  endfacet
  facet normal 0 -1 -0
    outer loop
      vertex 101.568 24.9178 1
      vertex 100 24.9178 -1
      vertex 101.568 24.9178 -1
    endloop
  endfacet
  facet normal 0 1 -0
    outer loop
      vertex 101.568 -4.91783 -1
      vertex 98.4321 -4.91783 1
      vertex 101.568 -4.91783 1
    endloop
  endfacet
  facet normal 0 1 0
    outer loop
      vertex 98.4321 -4.91783 1
      vertex 101.568 -4.91783 -1
      vertex 98.4321 -4.91783 -1
    endloop
  endfacet
  facet normal -0.743193 -0.669077 0
    outer loop
      vertex 112.135 18.8168 -1
      vertex 110.037 21.1472 1
      vertex 110.037 21.1472 -1
    endloop
  endfacet
  facet normal -0.743193 -0.669077 0
    outer loop
      vertex 110.037 21.1472 1
      vertex 112.135 18.8168 -1
      vertex 112.135 18.8168 1
    endloop
  endfacet
  facet normal 0.587777 -0.809023 0
    outer loop
      vertex 89.963 21.1472 -1
      vertex 92.5 22.9904 1
      vertex 89.963 21.1472 1
    endloop
  endfacet
  facet normal 0.587777 -0.809023 0
    outer loop
      vertex 92.5 22.9904 1
      vertex 89.963 21.1472 -1
      vertex 92.5 22.9904 -1
    endloop
  endfacet
  facet normal -0.866021 -0.500008 0
    outer loop
      vertex 113.703 16.101 -1
      vertex 112.135 18.8168 1
      vertex 112.135 18.8168 -1
    endloop
  endfacet
  facet normal -0.866021 -0.500008 0
    outer loop
      vertex 112.135 18.8168 1
      vertex 113.703 16.101 -1
      vertex 113.703 16.101 1
    endloop
  endfacet
  facet normal -0.951057 -0.309015 0
    outer loop
      vertex 114.672 13.1187 -1
      vertex 113.703 16.101 1
      vertex 113.703 16.101 -1
    endloop
  endfacet
  facet normal -0.951057 -0.309015 0
    outer loop
      vertex 113.703 16.101 1
      vertex 114.672 13.1187 -1
      vertex 114.672 13.1187 1
    endloop
  endfacet
  facet normal -0.406689 -0.913567 0
    outer loop
      vertex 104.635 24.2658 -1
      vertex 107.5 22.9904 1
      vertex 104.635 24.2658 1
    endloop
  endfacet
  facet normal -0.406689 -0.913567 -0
    outer loop
      vertex 107.5 22.9904 1
      vertex 104.635 24.2658 -1
      vertex 107.5 22.9904 -1
    endloop
  endfacet
  facet normal -0.207939 -0.978142 0
    outer loop
      vertex 101.568 24.9178 -1
      vertex 104.635 24.2658 1
      vertex 101.568 24.9178 1
    endloop
  endfacet
  facet normal -0.207939 -0.978142 -0
    outer loop
      vertex 104.635 24.2658 1
      vertex 101.568 24.9178 -1
      vertex 104.635 24.2658 -1
    endloop
  endfacet
  facet normal -0.587777 -0.809023 0
    outer loop
      vertex 107.5 22.9904 -1
      vertex 110.037 21.1472 1
      vertex 107.5 22.9904 1
    endloop
  endfacet
  facet normal -0.587777 -0.809023 -0
    outer loop
      vertex 110.037 21.1472 1
      vertex 107.5 22.9904 -1
      vertex 110.037 21.1472 -1
    endloop
  endfacet
  facet normal 0.866047 -0.499962 0
    outer loop
      vertex 87.4132 18.0347 1
      vertex 87.8647 18.8168 -1
      vertex 87.8647 18.8168 1
    endloop
  endfacet
  facet normal 0.866047 -0.499962 0
    outer loop
      vertex 87.8647 18.8168 -1
      vertex 87.4132 18.0347 1
      vertex 87.4132 18.0347 -1
    endloop
  endfacet
  facet normal 0.743145 -0.66913 0
    outer loop
      vertex 87.8647 18.8168 1
      vertex 89.963 21.1472 -1
      vertex 89.963 21.1472 1
    endloop
  endfacet
  facet normal 0.743145 -0.66913 0
    outer loop
      vertex 89.963 21.1472 -1
      vertex 87.8647 18.8168 1
      vertex 87.8647 18.8168 -1
    endloop
  endfacet
  facet normal 0.951059 -0.309009 0
    outer loop
      vertex 85.3278 13.1187 1
      vertex 86.1186 15.5526 -1
      vertex 86.1186 15.5526 1
    endloop
  endfacet
  facet normal 0.951059 -0.309009 0
    outer loop
      vertex 86.1186 15.5526 -1
      vertex 85.3278 13.1187 1
      vertex 85.3278 13.1187 -1
    endloop
  endfacet
  facet normal 0.406745 -0.913542 0
    outer loop
      vertex 92.5 22.9904 -1
      vertex 95 24.1035 1
      vertex 92.5 22.9904 1
    endloop
  endfacet
  facet normal 0.406745 -0.913542 0
    outer loop
      vertex 95 24.1035 1
      vertex 92.5 22.9904 -1
      vertex 95 24.1035 -1
    endloop
  endfacet
  facet normal -0.994515 0.104596 0
    outer loop
      vertex 114.672 6.88132 -1
      vertex 115 10 1
      vertex 115 10 -1
    endloop
  endfacet
  facet normal -0.994515 0.104596 0
    outer loop
      vertex 115 10 1
      vertex 114.672 6.88132 -1
      vertex 114.672 6.88132 1
    endloop
  endfacet
  facet normal -0.207933 0.978143 0
    outer loop
      vertex 104.635 -4.26585 -1
      vertex 101.568 -4.91783 1
      vertex 104.635 -4.26585 1
    endloop
  endfacet
  facet normal -0.207933 0.978143 0
    outer loop
      vertex 101.568 -4.91783 1
      vertex 104.635 -4.26585 -1
      vertex 101.568 -4.91783 -1
    endloop
  endfacet
  facet normal -0.743191 0.669079 0
    outer loop
      vertex 110.037 -1.14717 -1
      vertex 112.135 1.18322 1
      vertex 112.135 1.18322 -1
    endloop
  endfacet
  facet normal -0.743191 0.669079 0
    outer loop
      vertex 112.135 1.18322 1
      vertex 110.037 -1.14717 -1
      vertex 110.037 -1.14717 1
    endloop
  endfacet
  facet normal -0.951059 0.309008 0
    outer loop
      vertex 113.703 3.89895 -1
      vertex 114.672 6.88132 1
      vertex 114.672 6.88132 -1
    endloop
  endfacet
  facet normal -0.951059 0.309008 0
    outer loop
      vertex 114.672 6.88132 1
      vertex 113.703 3.89895 -1
      vertex 113.703 3.89895 1
    endloop
  endfacet
  facet normal -0.866015 0.500017 0
    outer loop
      vertex 112.135 1.18322 -1
      vertex 113.703 3.89895 1
      vertex 113.703 3.89895 -1
    endloop
  endfacet
  facet normal -0.866015 0.500017 0
    outer loop
      vertex 113.703 3.89895 1
      vertex 112.135 1.18322 -1
      vertex 112.135 1.18322 1
    endloop
  endfacet
  facet normal 0.866029 0.499993 0
    outer loop
      vertex 87.8647 1.18322 1
      vertex 86.2968 3.89895 -1
      vertex 86.2968 3.89895 1
    endloop
  endfacet
  facet normal 0.866029 0.499993 0
    outer loop
      vertex 86.2968 3.89895 -1
      vertex 87.8647 1.18322 1
      vertex 87.8647 1.18322 -1
    endloop
  endfacet
  facet normal -0.587779 0.809021 0
    outer loop
      vertex 110.037 -1.14717 -1
      vertex 107.5 -2.99038 1
      vertex 110.037 -1.14717 1
    endloop
  endfacet
  facet normal -0.587779 0.809021 0
    outer loop
      vertex 107.5 -2.99038 1
      vertex 110.037 -1.14717 -1
      vertex 107.5 -2.99038 -1
    endloop
  endfacet
  facet normal -0.406707 0.913559 0
    outer loop
      vertex 107.5 -2.99038 -1
      vertex 104.635 -4.26585 1
      vertex 107.5 -2.99038 1
    endloop
  endfacet
  facet normal -0.406707 0.913559 0
    outer loop
      vertex 104.635 -4.26585 1
      vertex 107.5 -2.99038 -1
      vertex 104.635 -4.26585 -1
    endloop
  endfacet
  facet normal 0.207907 0.978149 -0
    outer loop
      vertex 98.4321 -4.91783 -1
      vertex 95.3647 -4.26585 1
      vertex 98.4321 -4.91783 1
    endloop
  endfacet
  facet normal 0.207907 0.978149 0
    outer loop
      vertex 95.3647 -4.26585 1
      vertex 98.4321 -4.91783 -1
      vertex 95.3647 -4.26585 -1
    endloop
  endfacet
  facet normal 0.587779 0.809021 -0
    outer loop
      vertex 92.5 -2.99038 -1
      vertex 89.963 -1.14717 1
      vertex 92.5 -2.99038 1
    endloop
  endfacet
  facet normal 0.587779 0.809021 0
    outer loop
      vertex 89.963 -1.14717 1
      vertex 92.5 -2.99038 -1
      vertex 89.963 -1.14717 -1
    endloop
  endfacet
  facet normal 0.743144 0.669132 0
    outer loop
      vertex 89.963 -1.14717 1
      vertex 87.8647 1.18322 -1
      vertex 87.8647 1.18322 1
    endloop
  endfacet
  facet normal 0.743144 0.669132 0
    outer loop
      vertex 87.8647 1.18322 -1
      vertex 89.963 -1.14717 1
      vertex 89.963 -1.14717 -1
    endloop
  endfacet
  facet normal 0.951059 0.309008 0
    outer loop
      vertex 86.2968 3.89895 1
      vertex 85.3278 6.88132 -1
      vertex 85.3278 6.88132 1
    endloop
  endfacet
  facet normal 0.951059 0.309008 0
    outer loop
      vertex 85.3278 6.88132 -1
      vertex 86.2968 3.89895 1
      vertex 86.2968 3.89895 -1
    endloop
  endfacet
  facet normal 0.994521 0.104533 0
    outer loop
      vertex 85.3278 6.88132 1
      vertex 85 10 -1
      vertex 85 10 1
    endloop
  endfacet
  facet normal 0.994521 0.104533 0
    outer loop
      vertex 85 10 -1
      vertex 85.3278 6.88132 1
      vertex 85.3278 6.88132 -1
    endloop
  endfacet
  facet normal 0.406743 0.913543 -0
    outer loop
      vertex 95.3647 -4.26585 -1
      vertex 92.5 -2.99038 1
      vertex 95.3647 -4.26585 1
    endloop
  endfacet
  facet normal 0.406743 0.913543 0
    outer loop
      vertex 92.5 -2.99038 1
      vertex 95.3647 -4.26585 -1
      vertex 92.5 -2.99038 -1
    endloop
  endfacet
endsolid OpenSCAD_Model
