solid OpenSCAD_Model
  facet normal 0 0 -1
    outer loop
      vertex 2 13 -1
      vertex 7 33 -1
      vertex 7 13 -1
    endloop
  endfacet
  facet normal 0 0 -1
    outer loop
      vertex 7 37 -1
      vertex 50 37 -1
      vertex 50 33 -1
    endloop
  endfacet
  facet normal 0 0 -1
    outer loop
      vertex 2 57 -1
      vertex 7 37 -1
      vertex 7 33 -1
    endloop
  endfacet
  facet normal 0 0 -1
    outer loop
      vertex 2 57 -1
      vertex 7 33 -1
      vertex 2 13 -1
    endloop
  endfacet
  facet normal -0 -0 -1
    outer loop
      vertex 7 57 -1
      vertex 7 37 -1
      vertex 2 57 -1
    endloop
  endfacet
  facet normal 0 0 -1
    outer loop
      vertex 7 37 -1
      vertex 50 33 -1
      vertex 7 33 -1
    endloop
  endfacet
  facet normal 0 -0 1
    outer loop
      vertex 7 13 1
      vertex 7 33 1
      vertex 2 13 1
    endloop
  endfacet
  facet normal 0 -0 1
    outer loop
      vertex 50 33 1
      vertex 50 37 1
      vertex 7 37 1
    endloop
  endfacet
  facet normal 0 -0 1
    outer loop
      vertex 7 33 1
      vertex 7 37 1
      vertex 2 57 1
    endloop
  endfacet
  facet normal 0 0 1
    outer loop
      vertex 2 13 1
      vertex 7 33 1
      vertex 2 57 1
    endloop
  endfacet
  facet normal -0 0 1
    outer loop
      vertex 2 57 1
      vertex 7 37 1
      vertex 7 57 1
    endloop
  endfacet
  facet normal 0 0 1
    outer loop
      vertex 7 33 1
      vertex 50 33 1
      vertex 7 37 1
    endloop
  endfacet
  facet normal -1 0 0
    outer loop
      vertex 2 13 -1
      vertex 2 57 1
      vertex 2 57 -1
    endloop
  endfacet
  facet normal -1 0 0
    outer loop
      vertex 2 13 -1
      vertex 2 13 1
      vertex 2 57 1
    endloop
  endfacet
  facet normal 0 -1 0
    outer loop
      vertex 7 13 -1
      vertex 2 13 1
      vertex 2 13 -1
    endloop
  endfacet
  facet normal 0 -1 0
    outer loop
      vertex 7 13 -1
      vertex 7 13 1
      vertex 2 13 1
    endloop
  endfacet
  facet normal 1 0 0
    outer loop
      vertex 7 33 -1
      vertex 7 13 1
      vertex 7 13 -1
    endloop
  endfacet
  facet normal 1 0 -0
    outer loop
      vertex 7 33 -1
      vertex 7 33 1
      vertex 7 13 1
    endloop
  endfacet
  facet normal 0 -1 0
    outer loop
      vertex 50 33 -1
      vertex 7 33 1
      vertex 7 33 -1
    endloop
  endfacet
  facet normal 0 -1 0
    outer loop
      vertex 50 33 -1
      vertex 50 33 1
      vertex 7 33 1
    endloop
  endfacet
  facet normal 1 0 0
    outer loop
      vertex 50 37 -1
      vertex 50 33 1
      vertex 50 33 -1
    endloop
  endfacet
  facet normal 1 0 -0
    outer loop
      vertex 50 37 -1
      vertex 50 37 1
      vertex 50 33 1
    endloop
  endfacet
  facet normal 0 1 0
    outer loop
      vertex 7 37 -1
      vertex 50 37 1
      vertex 50 37 -1
    endloop
  endfacet
  facet normal 0 1 0
    outer loop
      vertex 7 37 -1
      vertex 7 37 1
      vertex 50 37 1
    endloop
  endfacet
  facet normal 1 0 0
    outer loop
      vertex 7 57 -1
      vertex 7 37 1
      vertex 7 37 -1
    endloop
  endfacet
  facet normal 1 0 -0
    outer loop
      vertex 7 57 -1
      vertex 7 57 1
      vertex 7 37 1
    endloop
  endfacet
  facet normal 0 1 0
    outer loop
      vertex 2 57 -1
      vertex 7 57 1
      vertex 7 57 -1
    endloop
  endfacet
  facet normal 0 1 0
    outer loop
      vertex 2 57 -1
      vertex 2 57 1
      vertex 7 57 1
    endloop
  endfacet
endsolid OpenSCAD_Model
