solid OpenSCAD_Model
  facet normal 0.99863 -0 0.052334
    outer loop
      vertex 9.44796 -10 0.99302
      vertex 9.5 10 0
      vertex 9.44796 10 0.99302
    endloop
  endfacet
  facet normal 0.99863 0 0.052334
    outer loop
      vertex 9.5 10 0
      vertex 9.44796 -10 0.99302
      vertex 9.5 -10 0
    endloop
  endfacet
  facet normal -0.99863 0 0.052334
    outer loop
      vertex -9.5 -10 0
      vertex -9.44796 10 0.99302
      vertex -9.5 10 0
    endloop
  endfacet
  facet normal -0.99863 0 0.052334
    outer loop
      vertex -9.44796 10 0.99302
      vertex -9.5 -10 0
      vertex -9.44796 -10 0.99302
    endloop
  endfacet
  facet normal 0.707107 -0 0.707107
    outer loop
      vertex 6.35674 -10 7.05988
      vertex 7.05988 10 6.35674
      vertex 6.35674 10 7.05988
    endloop
  endfacet
  facet normal 0.707107 0 0.707107
    outer loop
      vertex 7.05988 10 6.35674
      vertex 6.35674 -10 7.05988
      vertex 7.05988 -10 6.35674
    endloop
  endfacet
  facet normal -0.629317 0 0.777148
    outer loop
      vertex -6.35674 10 7.05988
      vertex -5.58396 -10 7.68566
      vertex -5.58396 10 7.68566
    endloop
  endfacet
  facet normal -0.629317 0 0.777148
    outer loop
      vertex -5.58396 -10 7.68566
      vertex -6.35674 10 7.05988
      vertex -6.35674 -10 7.05988
    endloop
  endfacet
  facet normal -0.965927 0 -0.258814
    outer loop
      vertex -9.03504 -10 -2.93566
      vertex -9.2924 10 -1.97516
      vertex -9.03504 10 -2.93566
    endloop
  endfacet
  facet normal -0.965927 -0 -0.258814
    outer loop
      vertex -9.2924 10 -1.97516
      vertex -9.03504 -10 -2.93566
      vertex -9.2924 -10 -1.97516
    endloop
  endfacet
  facet normal 0.891006 -0 0.453991
    outer loop
      vertex 8.22724 -10 4.75
      vertex 8.67868 10 3.864
      vertex 8.22724 10 4.75
    endloop
  endfacet
  facet normal 0.891006 0 0.453991
    outer loop
      vertex 8.67868 10 3.864
      vertex 8.22724 -10 4.75
      vertex 8.67868 -10 3.864
    endloop
  endfacet
  facet normal 0.838671 -0 0.544639
    outer loop
      vertex 7.68566 -10 5.58396
      vertex 8.22724 10 4.75
      vertex 7.68566 10 5.58396
    endloop
  endfacet
  facet normal 0.838671 0 0.544639
    outer loop
      vertex 8.22724 10 4.75
      vertex 7.68566 -10 5.58396
      vertex 8.22724 -10 4.75
    endloop
  endfacet
  facet normal 0.629317 0 0.777148
    outer loop
      vertex 5.58396 10 7.68566
      vertex 6.35674 -10 7.05988
      vertex 6.35674 10 7.05988
    endloop
  endfacet
  facet normal 0.629317 0 0.777148
    outer loop
      vertex 6.35674 -10 7.05988
      vertex 5.58396 10 7.68566
      vertex 5.58396 -10 7.68566
    endloop
  endfacet
  facet normal -0.838671 0 0.544639
    outer loop
      vertex -8.22724 -10 4.75
      vertex -7.68566 10 5.58396
      vertex -8.22724 10 4.75
    endloop
  endfacet
  facet normal -0.838671 0 0.544639
    outer loop
      vertex -7.68566 10 5.58396
      vertex -8.22724 -10 4.75
      vertex -7.68566 -10 5.58396
    endloop
  endfacet
  facet normal -0.777148 0 0.629317
    outer loop
      vertex -7.68566 -10 5.58396
      vertex -7.05988 10 6.35674
      vertex -7.68566 10 5.58396
    endloop
  endfacet
  facet normal -0.777148 0 0.629317
    outer loop
      vertex -7.05988 10 6.35674
      vertex -7.68566 -10 5.58396
      vertex -7.05988 -10 6.35674
    endloop
  endfacet
  facet normal -0.54464 0 0.83867
    outer loop
      vertex -5.58396 10 7.68566
      vertex -5.09992 -10 8
      vertex -5.09992 10 8
    endloop
  endfacet
  facet normal -0.54464 0 0.83867
    outer loop
      vertex -5.09992 -10 8
      vertex -5.58396 10 7.68566
      vertex -5.58396 -10 7.68566
    endloop
  endfacet
  facet normal 0.891006 0 -0.453991
    outer loop
      vertex 8.67868 -10 -3.864
      vertex 8.22724 10 -4.75
      vertex 8.67868 10 -3.864
    endloop
  endfacet
  facet normal 0.891006 0 -0.453991
    outer loop
      vertex 8.22724 10 -4.75
      vertex 8.67868 -10 -3.864
      vertex 8.22724 -10 -4.75
    endloop
  endfacet
  facet normal 0.707107 0 -0.707107
    outer loop
      vertex 7.05988 -10 -6.35674
      vertex 6.35674 10 -7.05988
      vertex 7.05988 10 -6.35674
    endloop
  endfacet
  facet normal 0.707107 0 -0.707107
    outer loop
      vertex 6.35674 10 -7.05988
      vertex 7.05988 -10 -6.35674
      vertex 6.35674 -10 -7.05988
    endloop
  endfacet
  facet normal 0.965927 0 -0.258814
    outer loop
      vertex 9.2924 -10 -1.97516
      vertex 9.03504 10 -2.93566
      vertex 9.2924 10 -1.97516
    endloop
  endfacet
  facet normal 0.965927 0 -0.258814
    outer loop
      vertex 9.03504 10 -2.93566
      vertex 9.2924 -10 -1.97516
      vertex 9.03504 -10 -2.93566
    endloop
  endfacet
  facet normal -0.777148 0 -0.629317
    outer loop
      vertex -7.05988 -10 -6.35674
      vertex -7.68566 10 -5.58396
      vertex -7.05988 10 -6.35674
    endloop
  endfacet
  facet normal -0.777148 -0 -0.629317
    outer loop
      vertex -7.68566 10 -5.58396
      vertex -7.05988 -10 -6.35674
      vertex -7.68566 -10 -5.58396
    endloop
  endfacet
  facet normal 0 1 0
    outer loop
      vertex 6.35674 10 7.05988
      vertex 5.09992 10 8
      vertex 5.58396 10 7.68566
    endloop
  endfacet
  facet normal 0 1 0
    outer loop
      vertex 5.09992 10 8
      vertex 6.35674 10 7.05988
      vertex -5.09992 10 8
    endloop
  endfacet
  facet normal 0 1 0
    outer loop
      vertex -6.35674 10 7.05988
      vertex -5.09992 10 8
      vertex 6.35674 10 7.05988
    endloop
  endfacet
  facet normal 0 1 0
    outer loop
      vertex -5.09992 10 8
      vertex -6.35674 10 7.05988
      vertex -5.58396 10 7.68566
    endloop
  endfacet
  facet normal 0 1 0
    outer loop
      vertex 7.05988 10 6.35674
      vertex -6.35674 10 7.05988
      vertex 6.35674 10 7.05988
    endloop
  endfacet
  facet normal 0 1 0
    outer loop
      vertex 7.05988 10 6.35674
      vertex -7.05988 10 6.35674
      vertex -6.35674 10 7.05988
    endloop
  endfacet
  facet normal 0 1 0
    outer loop
      vertex 7.68566 10 5.58396
      vertex -7.05988 10 6.35674
      vertex 7.05988 10 6.35674
    endloop
  endfacet
  facet normal 0 1 0
    outer loop
      vertex 7.68566 10 5.58396
      vertex -7.68566 10 5.58396
      vertex -7.05988 10 6.35674
    endloop
  endfacet
  facet normal 0 1 0
    outer loop
      vertex 8.22724 10 4.75
      vertex -7.68566 10 5.58396
      vertex 7.68566 10 5.58396
    endloop
  endfacet
  facet normal 0 1 0
    outer loop
      vertex 8.22724 10 4.75
      vertex -8.22724 10 4.75
      vertex -7.68566 10 5.58396
    endloop
  endfacet
  facet normal 0 1 0
    outer loop
      vertex 8.67868 10 3.864
      vertex -8.22724 10 4.75
      vertex 8.22724 10 4.75
    endloop
  endfacet
  facet normal 0 1 0
    outer loop
      vertex 8.67868 10 3.864
      vertex -8.67868 10 3.864
      vertex -8.22724 10 4.75
    endloop
  endfacet
  facet normal 0 1 0
    outer loop
      vertex 9.03504 10 2.93566
      vertex -8.67868 10 3.864
      vertex 8.67868 10 3.864
    endloop
  endfacet
  facet normal 0 1 0
    outer loop
      vertex 9.03504 10 2.93566
      vertex -9.03504 10 2.93566
      vertex -8.67868 10 3.864
    endloop
  endfacet
  facet normal 0 1 0
    outer loop
      vertex 9.2924 10 1.97516
      vertex -9.03504 10 2.93566
      vertex 9.03504 10 2.93566
    endloop
  endfacet
  facet normal 0 1 0
    outer loop
      vertex 9.2924 10 1.97516
      vertex -9.2924 10 1.97516
      vertex -9.03504 10 2.93566
    endloop
  endfacet
  facet normal 0 1 0
    outer loop
      vertex 9.44796 10 0.99302
      vertex -9.2924 10 1.97516
      vertex 9.2924 10 1.97516
    endloop
  endfacet
  facet normal 0 1 0
    outer loop
      vertex 9.44796 10 0.99302
      vertex -9.44796 10 0.99302
      vertex -9.2924 10 1.97516
    endloop
  endfacet
  facet normal 0 1 0
    outer loop
      vertex 9.5 10 0
      vertex -9.44796 10 0.99302
      vertex 9.44796 10 0.99302
    endloop
  endfacet
  facet normal 0 1 0
    outer loop
      vertex 9.5 10 0
      vertex -9.5 10 0
      vertex -9.44796 10 0.99302
    endloop
  endfacet
  facet normal 0 1 -0
    outer loop
      vertex 9.44796 10 -0.99302
      vertex -9.5 10 0
      vertex 9.5 10 0
    endloop
  endfacet
  facet normal 0 1 0
    outer loop
      vertex 9.44796 10 -0.99302
      vertex -9.44796 10 -0.99302
      vertex -9.5 10 0
    endloop
  endfacet
  facet normal 0 1 -0
    outer loop
      vertex 9.2924 10 -1.97516
      vertex -9.44796 10 -0.99302
      vertex 9.44796 10 -0.99302
    endloop
  endfacet
  facet normal 0 1 0
    outer loop
      vertex 9.2924 10 -1.97516
      vertex -9.2924 10 -1.97516
      vertex -9.44796 10 -0.99302
    endloop
  endfacet
  facet normal 0 1 -0
    outer loop
      vertex 9.03504 10 -2.93566
      vertex -9.2924 10 -1.97516
      vertex 9.2924 10 -1.97516
    endloop
  endfacet
  facet normal 0 1 0
    outer loop
      vertex 9.03504 10 -2.93566
      vertex -9.03504 10 -2.93566
      vertex -9.2924 10 -1.97516
    endloop
  endfacet
  facet normal 0 1 -0
    outer loop
      vertex 8.67868 10 -3.864
      vertex -9.03504 10 -2.93566
      vertex 9.03504 10 -2.93566
    endloop
  endfacet
  facet normal 0 1 0
    outer loop
      vertex 8.67868 10 -3.864
      vertex -8.67868 10 -3.864
      vertex -9.03504 10 -2.93566
    endloop
  endfacet
  facet normal 0 1 -0
    outer loop
      vertex 8.22724 10 -4.75
      vertex -8.67868 10 -3.864
      vertex 8.67868 10 -3.864
    endloop
  endfacet
  facet normal 0 1 0
    outer loop
      vertex 8.22724 10 -4.75
      vertex -8.22724 10 -4.75
      vertex -8.67868 10 -3.864
    endloop
  endfacet
  facet normal 0 1 -0
    outer loop
      vertex 7.68566 10 -5.58396
      vertex -8.22724 10 -4.75
      vertex 8.22724 10 -4.75
    endloop
  endfacet
  facet normal 0 1 0
    outer loop
      vertex 7.68566 10 -5.58396
      vertex -7.68566 10 -5.58396
      vertex -8.22724 10 -4.75
    endloop
  endfacet
  facet normal 0 1 -0
    outer loop
      vertex 7.05988 10 -6.35674
      vertex -7.68566 10 -5.58396
      vertex 7.68566 10 -5.58396
    endloop
  endfacet
  facet normal 0 1 0
    outer loop
      vertex 7.05988 10 -6.35674
      vertex -7.05988 10 -6.35674
      vertex -7.68566 10 -5.58396
    endloop
  endfacet
  facet normal 0 1 -0
    outer loop
      vertex 6.35674 10 -7.05988
      vertex -7.05988 10 -6.35674
      vertex 7.05988 10 -6.35674
    endloop
  endfacet
  facet normal 0 1 0
    outer loop
      vertex 6.35674 10 -7.05988
      vertex -6.35674 10 -7.05988
      vertex -7.05988 10 -6.35674
    endloop
  endfacet
  facet normal 0 1 0
    outer loop
      vertex 5.09992 10 -8
      vertex 6.35674 10 -7.05988
      vertex 5.58396 10 -7.68566
    endloop
  endfacet
  facet normal 0 1 0
    outer loop
      vertex 6.35674 10 -7.05988
      vertex 5.09992 10 -8
      vertex -6.35674 10 -7.05988
    endloop
  endfacet
  facet normal 0 1 -0
    outer loop
      vertex -5.09992 10 -8
      vertex -6.35674 10 -7.05988
      vertex 5.09992 10 -8
    endloop
  endfacet
  facet normal 0 1 0
    outer loop
      vertex -6.35674 10 -7.05988
      vertex -5.09992 10 -8
      vertex -5.58396 10 -7.68566
    endloop
  endfacet
  facet normal 0.965927 -0 0.258814
    outer loop
      vertex 9.03504 -10 2.93566
      vertex 9.2924 10 1.97516
      vertex 9.03504 10 2.93566
    endloop
  endfacet
  facet normal 0.965927 0 0.258814
    outer loop
      vertex 9.2924 10 1.97516
      vertex 9.03504 -10 2.93566
      vertex 9.2924 -10 1.97516
    endloop
  endfacet
  facet normal 0.987688 -0 0.156439
    outer loop
      vertex 9.2924 -10 1.97516
      vertex 9.44796 10 0.99302
      vertex 9.2924 10 1.97516
    endloop
  endfacet
  facet normal 0.987688 0 0.156439
    outer loop
      vertex 9.44796 10 0.99302
      vertex 9.2924 -10 1.97516
      vertex 9.44796 -10 0.99302
    endloop
  endfacet
  facet normal 0.933579 -0 0.358371
    outer loop
      vertex 8.67868 -10 3.864
      vertex 9.03504 10 2.93566
      vertex 8.67868 10 3.864
    endloop
  endfacet
  facet normal 0.933579 0 0.358371
    outer loop
      vertex 9.03504 10 2.93566
      vertex 8.67868 -10 3.864
      vertex 9.03504 -10 2.93566
    endloop
  endfacet
  facet normal 0.54464 0 0.83867
    outer loop
      vertex 5.09992 10 8
      vertex 5.58396 -10 7.68566
      vertex 5.58396 10 7.68566
    endloop
  endfacet
  facet normal 0.54464 0 0.83867
    outer loop
      vertex 5.58396 -10 7.68566
      vertex 5.09992 10 8
      vertex 5.09992 -10 8
    endloop
  endfacet
  facet normal -0.965927 0 0.258814
    outer loop
      vertex -9.2924 -10 1.97516
      vertex -9.03504 10 2.93566
      vertex -9.2924 10 1.97516
    endloop
  endfacet
  facet normal -0.965927 0 0.258814
    outer loop
      vertex -9.03504 10 2.93566
      vertex -9.2924 -10 1.97516
      vertex -9.03504 -10 2.93566
    endloop
  endfacet
  facet normal -0.707107 0 0.707107
    outer loop
      vertex -7.05988 -10 6.35674
      vertex -6.35674 10 7.05988
      vertex -7.05988 10 6.35674
    endloop
  endfacet
  facet normal -0.707107 0 0.707107
    outer loop
      vertex -6.35674 10 7.05988
      vertex -7.05988 -10 6.35674
      vertex -6.35674 -10 7.05988
    endloop
  endfacet
  facet normal -0.891006 0 0.453991
    outer loop
      vertex -8.67868 -10 3.864
      vertex -8.22724 10 4.75
      vertex -8.67868 10 3.864
    endloop
  endfacet
  facet normal -0.891006 0 0.453991
    outer loop
      vertex -8.22724 10 4.75
      vertex -8.67868 -10 3.864
      vertex -8.22724 -10 4.75
    endloop
  endfacet
  facet normal -0.933579 0 0.358371
    outer loop
      vertex -9.03504 -10 2.93566
      vertex -8.67868 10 3.864
      vertex -9.03504 10 2.93566
    endloop
  endfacet
  facet normal -0.933579 0 0.358371
    outer loop
      vertex -8.67868 10 3.864
      vertex -9.03504 -10 2.93566
      vertex -8.67868 -10 3.864
    endloop
  endfacet
  facet normal -0.987688 0 0.156439
    outer loop
      vertex -9.44796 -10 0.99302
      vertex -9.2924 10 1.97516
      vertex -9.44796 10 0.99302
    endloop
  endfacet
  facet normal -0.987688 0 0.156439
    outer loop
      vertex -9.2924 10 1.97516
      vertex -9.44796 -10 0.99302
      vertex -9.2924 -10 1.97516
    endloop
  endfacet
  facet normal 0 -1 0
    outer loop
      vertex -0.440839 -10 0.606762
      vertex -5.09992 -10 8
      vertex -5.58396 -10 7.68566
    endloop
  endfacet
  facet normal 0 -1 0
    outer loop
      vertex -5.09992 -10 8
      vertex 0 -10 0.75
      vertex 5.09992 -10 8
    endloop
  endfacet
  facet normal 0 -1 0
    outer loop
      vertex -0.440839 -10 0.606762
      vertex -5.58396 -10 7.68566
      vertex -6.35674 -10 7.05988
    endloop
  endfacet
  facet normal 0 -1 0
    outer loop
      vertex 0.231762 -10 0.713292
      vertex 5.09992 -10 8
      vertex 0 -10 0.75
    endloop
  endfacet
  facet normal 0 -1 0
    outer loop
      vertex -0.440839 -10 0.606762
      vertex -6.35674 -10 7.05988
      vertex -7.05988 -10 6.35674
    endloop
  endfacet
  facet normal 0 -1 0
    outer loop
      vertex 0.440839 -10 0.606762
      vertex 5.09992 -10 8
      vertex 0.231762 -10 0.713292
    endloop
  endfacet
  facet normal 0 -1 0
    outer loop
      vertex -0.606762 -10 0.440839
      vertex -7.05988 -10 6.35674
      vertex -7.68566 -10 5.58396
    endloop
  endfacet
  facet normal 0 -1 -0
    outer loop
      vertex 5.09992 -10 8
      vertex 0.440839 -10 0.606762
      vertex 5.58396 -10 7.68566
    endloop
  endfacet
  facet normal 0 -1 0
    outer loop
      vertex -0.606762 -10 0.440839
      vertex -7.68566 -10 5.58396
      vertex -8.22724 -10 4.75
    endloop
  endfacet
  facet normal 0 -1 -0
    outer loop
      vertex 5.58396 -10 7.68566
      vertex 0.440839 -10 0.606762
      vertex 6.35674 -10 7.05988
    endloop
  endfacet
  facet normal 0 -1 0
    outer loop
      vertex -0.606762 -10 0.440839
      vertex -8.22724 -10 4.75
      vertex -8.67868 -10 3.864
    endloop
  endfacet
  facet normal 0 -1 -0
    outer loop
      vertex 6.35674 -10 7.05988
      vertex 0.440839 -10 0.606762
      vertex 7.05988 -10 6.35674
    endloop
  endfacet
  facet normal 0 -1 0
    outer loop
      vertex -0.713292 -10 0.231762
      vertex -8.67868 -10 3.864
      vertex -9.03504 -10 2.93566
    endloop
  endfacet
  facet normal 0 -1 0
    outer loop
      vertex 0.606762 -10 0.440839
      vertex 7.05988 -10 6.35674
      vertex 0.440839 -10 0.606762
    endloop
  endfacet
  facet normal 0 -1 0
    outer loop
      vertex -0.713292 -10 0.231762
      vertex -9.03504 -10 2.93566
      vertex -9.2924 -10 1.97516
    endloop
  endfacet
  facet normal 0 -1 -0
    outer loop
      vertex 7.05988 -10 6.35674
      vertex 0.606762 -10 0.440839
      vertex 7.68566 -10 5.58396
    endloop
  endfacet
  facet normal 0 -1 0
    outer loop
      vertex -0.713292 -10 0.231762
      vertex -9.2924 -10 1.97516
      vertex -9.44796 -10 0.99302
    endloop
  endfacet
  facet normal 0 -1 -0
    outer loop
      vertex 7.68566 -10 5.58396
      vertex 0.606762 -10 0.440839
      vertex 8.22724 -10 4.75
    endloop
  endfacet
  facet normal 0 -1 -0
    outer loop
      vertex 8.22724 -10 4.75
      vertex 0.606762 -10 0.440839
      vertex 8.67868 -10 3.864
    endloop
  endfacet
  facet normal 0 -1 0
    outer loop
      vertex -5.09992 -10 8
      vertex -0.231762 -10 0.713292
      vertex 0 -10 0.75
    endloop
  endfacet
  facet normal 0 -1 0
    outer loop
      vertex -5.09992 -10 8
      vertex -0.440839 -10 0.606762
      vertex -0.231762 -10 0.713292
    endloop
  endfacet
  facet normal 0 -1 0
    outer loop
      vertex -7.05988 -10 6.35674
      vertex -0.606762 -10 0.440839
      vertex -0.440839 -10 0.606762
    endloop
  endfacet
  facet normal 0 -1 0
    outer loop
      vertex -8.67868 -10 3.864
      vertex -0.713292 -10 0.231762
      vertex -0.606762 -10 0.440839
    endloop
  endfacet
  facet normal 0 -1 0
    outer loop
      vertex -0.75 -10 0
      vertex -9.44796 -10 0.99302
      vertex -9.5 -10 0
    endloop
  endfacet
  facet normal 0 -1 0
    outer loop
      vertex -9.44796 -10 0.99302
      vertex -0.75 -10 0
      vertex -0.713292 -10 0.231762
    endloop
  endfacet
  facet normal 0 -1 0
    outer loop
      vertex -9.44796 -10 -0.99302
      vertex -0.75 -10 0
      vertex -9.5 -10 0
    endloop
  endfacet
  facet normal 0 -1 -0
    outer loop
      vertex -0.75 -10 0
      vertex -9.44796 -10 -0.99302
      vertex -0.713292 -10 -0.231762
    endloop
  endfacet
  facet normal 0 -1 0
    outer loop
      vertex -9.2924 -10 -1.97516
      vertex -0.713292 -10 -0.231762
      vertex -9.44796 -10 -0.99302
    endloop
  endfacet
  facet normal 0 -1 0
    outer loop
      vertex -9.03504 -10 -2.93566
      vertex -0.713292 -10 -0.231762
      vertex -9.2924 -10 -1.97516
    endloop
  endfacet
  facet normal 0 -1 0
    outer loop
      vertex -8.67868 -10 -3.864
      vertex -0.713292 -10 -0.231762
      vertex -9.03504 -10 -2.93566
    endloop
  endfacet
  facet normal 0 -1 -0
    outer loop
      vertex -0.713292 -10 -0.231762
      vertex -8.67868 -10 -3.864
      vertex -0.606762 -10 -0.440839
    endloop
  endfacet
  facet normal 0 -1 0
    outer loop
      vertex 0.713292 -10 0.231762
      vertex 8.67868 -10 3.864
      vertex 0.606762 -10 0.440839
    endloop
  endfacet
  facet normal 0 -1 -0
    outer loop
      vertex 8.67868 -10 3.864
      vertex 0.713292 -10 0.231762
      vertex 9.03504 -10 2.93566
    endloop
  endfacet
  facet normal 0 -1 -0
    outer loop
      vertex 9.03504 -10 2.93566
      vertex 0.713292 -10 0.231762
      vertex 9.2924 -10 1.97516
    endloop
  endfacet
  facet normal 0 -1 -0
    outer loop
      vertex 9.2924 -10 1.97516
      vertex 0.713292 -10 0.231762
      vertex 9.44796 -10 0.99302
    endloop
  endfacet
  facet normal 0 -1 0
    outer loop
      vertex 0.75 -10 0
      vertex 9.44796 -10 0.99302
      vertex 0.713292 -10 0.231762
    endloop
  endfacet
  facet normal 0 -1 0
    outer loop
      vertex 0.75 -10 0
      vertex 9.5 -10 0
      vertex 9.44796 -10 0.99302
    endloop
  endfacet
  facet normal 0 -1 0
    outer loop
      vertex 9.44796 -10 -0.99302
      vertex 0.75 -10 0
      vertex 0.713292 -10 -0.231762
    endloop
  endfacet
  facet normal 0 -1 0
    outer loop
      vertex 8.67868 -10 -3.864
      vertex 0.713292 -10 -0.231762
      vertex 0.606762 -10 -0.440839
    endloop
  endfacet
  facet normal 0 -1 0
    outer loop
      vertex 7.05988 -10 -6.35674
      vertex 0.606762 -10 -0.440839
      vertex 0.440839 -10 -0.606762
    endloop
  endfacet
  facet normal 0 -1 0
    outer loop
      vertex 5.09992 -10 -8
      vertex 0.440839 -10 -0.606762
      vertex 0.231762 -10 -0.713292
    endloop
  endfacet
  facet normal 0 -1 0
    outer loop
      vertex 5.09992 -10 -8
      vertex 0.231762 -10 -0.713292
      vertex 0 -10 -0.75
    endloop
  endfacet
  facet normal 0 -1 0
    outer loop
      vertex 0.75 -10 0
      vertex 9.44796 -10 -0.99302
      vertex 9.5 -10 0
    endloop
  endfacet
  facet normal 0 -1 0
    outer loop
      vertex -8.22724 -10 -4.75
      vertex -0.606762 -10 -0.440839
      vertex -8.67868 -10 -3.864
    endloop
  endfacet
  facet normal 0 -1 0
    outer loop
      vertex -7.68566 -10 -5.58396
      vertex -0.606762 -10 -0.440839
      vertex -8.22724 -10 -4.75
    endloop
  endfacet
  facet normal 0 -1 0
    outer loop
      vertex 0.713292 -10 -0.231762
      vertex 9.2924 -10 -1.97516
      vertex 9.44796 -10 -0.99302
    endloop
  endfacet
  facet normal 0 -1 0
    outer loop
      vertex -7.05988 -10 -6.35674
      vertex -0.606762 -10 -0.440839
      vertex -7.68566 -10 -5.58396
    endloop
  endfacet
  facet normal 0 -1 0
    outer loop
      vertex 0.713292 -10 -0.231762
      vertex 9.03504 -10 -2.93566
      vertex 9.2924 -10 -1.97516
    endloop
  endfacet
  facet normal 0 -1 -0
    outer loop
      vertex -0.606762 -10 -0.440839
      vertex -7.05988 -10 -6.35674
      vertex -0.440839 -10 -0.606762
    endloop
  endfacet
  facet normal 0 -1 0
    outer loop
      vertex 0.713292 -10 -0.231762
      vertex 8.67868 -10 -3.864
      vertex 9.03504 -10 -2.93566
    endloop
  endfacet
  facet normal 0 -1 0
    outer loop
      vertex -6.35674 -10 -7.05988
      vertex -0.440839 -10 -0.606762
      vertex -7.05988 -10 -6.35674
    endloop
  endfacet
  facet normal 0 -1 0
    outer loop
      vertex 0.606762 -10 -0.440839
      vertex 8.22724 -10 -4.75
      vertex 8.67868 -10 -3.864
    endloop
  endfacet
  facet normal 0 -1 0
    outer loop
      vertex -5.58396 -10 -7.68566
      vertex -0.440839 -10 -0.606762
      vertex -6.35674 -10 -7.05988
    endloop
  endfacet
  facet normal 0 -1 0
    outer loop
      vertex 0.606762 -10 -0.440839
      vertex 7.68566 -10 -5.58396
      vertex 8.22724 -10 -4.75
    endloop
  endfacet
  facet normal 0 -1 0
    outer loop
      vertex -5.09992 -10 -8
      vertex -0.440839 -10 -0.606762
      vertex -5.58396 -10 -7.68566
    endloop
  endfacet
  facet normal 0 -1 0
    outer loop
      vertex 0.606762 -10 -0.440839
      vertex 7.05988 -10 -6.35674
      vertex 7.68566 -10 -5.58396
    endloop
  endfacet
  facet normal 0 -1 -0
    outer loop
      vertex -0.440839 -10 -0.606762
      vertex -5.09992 -10 -8
      vertex -0.231762 -10 -0.713292
    endloop
  endfacet
  facet normal 0 -1 0
    outer loop
      vertex 0.440839 -10 -0.606762
      vertex 6.35674 -10 -7.05988
      vertex 7.05988 -10 -6.35674
    endloop
  endfacet
  facet normal 0 -1 -0
    outer loop
      vertex -0.231762 -10 -0.713292
      vertex -5.09992 -10 -8
      vertex 0 -10 -0.75
    endloop
  endfacet
  facet normal 0 -1 0
    outer loop
      vertex 5.09992 -10 -8
      vertex 0 -10 -0.75
      vertex -5.09992 -10 -8
    endloop
  endfacet
  facet normal 0 -1 0
    outer loop
      vertex 0.440839 -10 -0.606762
      vertex 5.09992 -10 -8
      vertex 5.58396 -10 -7.68566
    endloop
  endfacet
  facet normal 0 -1 0
    outer loop
      vertex 0.440839 -10 -0.606762
      vertex 5.58396 -10 -7.68566
      vertex 6.35674 -10 -7.05988
    endloop
  endfacet
  facet normal 0.629317 0 -0.777148
    outer loop
      vertex 5.58396 -10 -7.68566
      vertex 6.35674 10 -7.05988
      vertex 6.35674 -10 -7.05988
    endloop
  endfacet
  facet normal 0.629317 0 -0.777148
    outer loop
      vertex 6.35674 10 -7.05988
      vertex 5.58396 -10 -7.68566
      vertex 5.58396 10 -7.68566
    endloop
  endfacet
  facet normal 0.777148 0 -0.629317
    outer loop
      vertex 7.68566 -10 -5.58396
      vertex 7.05988 10 -6.35674
      vertex 7.68566 10 -5.58396
    endloop
  endfacet
  facet normal 0.777148 0 -0.629317
    outer loop
      vertex 7.05988 10 -6.35674
      vertex 7.68566 -10 -5.58396
      vertex 7.05988 -10 -6.35674
    endloop
  endfacet
  facet normal 0.838671 0 -0.544639
    outer loop
      vertex 8.22724 -10 -4.75
      vertex 7.68566 10 -5.58396
      vertex 8.22724 10 -4.75
    endloop
  endfacet
  facet normal 0.838671 0 -0.544639
    outer loop
      vertex 7.68566 10 -5.58396
      vertex 8.22724 -10 -4.75
      vertex 7.68566 -10 -5.58396
    endloop
  endfacet
  facet normal -0.707107 0 -0.707107
    outer loop
      vertex -6.35674 -10 -7.05988
      vertex -7.05988 10 -6.35674
      vertex -6.35674 10 -7.05988
    endloop
  endfacet
  facet normal -0.707107 -0 -0.707107
    outer loop
      vertex -7.05988 10 -6.35674
      vertex -6.35674 -10 -7.05988
      vertex -7.05988 -10 -6.35674
    endloop
  endfacet
  facet normal -0.629317 0 -0.777148
    outer loop
      vertex -6.35674 -10 -7.05988
      vertex -5.58396 10 -7.68566
      vertex -5.58396 -10 -7.68566
    endloop
  endfacet
  facet normal -0.629317 0 -0.777148
    outer loop
      vertex -5.58396 10 -7.68566
      vertex -6.35674 -10 -7.05988
      vertex -6.35674 10 -7.05988
    endloop
  endfacet
  facet normal -0.54464 0 -0.83867
    outer loop
      vertex -5.58396 -10 -7.68566
      vertex -5.09992 10 -8
      vertex -5.09992 -10 -8
    endloop
  endfacet
  facet normal -0.54464 0 -0.83867
    outer loop
      vertex -5.09992 10 -8
      vertex -5.58396 -10 -7.68566
      vertex -5.58396 10 -7.68566
    endloop
  endfacet
  facet normal -0.891006 0 -0.453991
    outer loop
      vertex -8.22724 -10 -4.75
      vertex -8.67868 10 -3.864
      vertex -8.22724 10 -4.75
    endloop
  endfacet
  facet normal -0.891006 -0 -0.453991
    outer loop
      vertex -8.67868 10 -3.864
      vertex -8.22724 -10 -4.75
      vertex -8.67868 -10 -3.864
    endloop
  endfacet
  facet normal -0.99863 0 -0.052334
    outer loop
      vertex -9.44796 -10 -0.99302
      vertex -9.5 10 0
      vertex -9.44796 10 -0.99302
    endloop
  endfacet
  facet normal -0.99863 -0 -0.052334
    outer loop
      vertex -9.5 10 0
      vertex -9.44796 -10 -0.99302
      vertex -9.5 -10 0
    endloop
  endfacet
  facet normal 0.777148 -0 0.629317
    outer loop
      vertex 7.05988 -10 6.35674
      vertex 7.68566 10 5.58396
      vertex 7.05988 10 6.35674
    endloop
  endfacet
  facet normal 0.777148 0 0.629317
    outer loop
      vertex 7.68566 10 5.58396
      vertex 7.05988 -10 6.35674
      vertex 7.68566 -10 5.58396
    endloop
  endfacet
  facet normal 0.54464 0 -0.83867
    outer loop
      vertex 5.09992 -10 -8
      vertex 5.58396 10 -7.68566
      vertex 5.58396 -10 -7.68566
    endloop
  endfacet
  facet normal 0.54464 0 -0.83867
    outer loop
      vertex 5.58396 10 -7.68566
      vertex 5.09992 -10 -8
      vertex 5.09992 10 -8
    endloop
  endfacet
  facet normal 0.933579 0 -0.358371
    outer loop
      vertex 9.03504 -10 -2.93566
      vertex 8.67868 10 -3.864
      vertex 9.03504 10 -2.93566
    endloop
  endfacet
  facet normal 0.933579 0 -0.358371
    outer loop
      vertex 8.67868 10 -3.864
      vertex 9.03504 -10 -2.93566
      vertex 8.67868 -10 -3.864
    endloop
  endfacet
  facet normal 0.987688 0 -0.156439
    outer loop
      vertex 9.44796 -10 -0.99302
      vertex 9.2924 10 -1.97516
      vertex 9.44796 10 -0.99302
    endloop
  endfacet
  facet normal 0.987688 0 -0.156439
    outer loop
      vertex 9.2924 10 -1.97516
      vertex 9.44796 -10 -0.99302
      vertex 9.2924 -10 -1.97516
    endloop
  endfacet
  facet normal 0.99863 0 -0.052334
    outer loop
      vertex 9.5 -10 0
      vertex 9.44796 10 -0.99302
      vertex 9.5 10 0
    endloop
  endfacet
  facet normal 0.99863 0 -0.052334
    outer loop
      vertex 9.44796 10 -0.99302
      vertex 9.5 -10 0
      vertex 9.44796 -10 -0.99302
    endloop
  endfacet
  facet normal -0.838671 0 -0.544639
    outer loop
      vertex -7.68566 -10 -5.58396
      vertex -8.22724 10 -4.75
      vertex -7.68566 10 -5.58396
    endloop
  endfacet
  facet normal -0.838671 -0 -0.544639
    outer loop
      vertex -8.22724 10 -4.75
      vertex -7.68566 -10 -5.58396
      vertex -8.22724 -10 -4.75
    endloop
  endfacet
  facet normal -0.933579 0 -0.358371
    outer loop
      vertex -8.67868 -10 -3.864
      vertex -9.03504 10 -2.93566
      vertex -8.67868 10 -3.864
    endloop
  endfacet
  facet normal -0.933579 -0 -0.358371
    outer loop
      vertex -9.03504 10 -2.93566
      vertex -8.67868 -10 -3.864
      vertex -9.03504 -10 -2.93566
    endloop
  endfacet
  facet normal -0.987688 0 -0.156439
    outer loop
      vertex -9.2924 -10 -1.97516
      vertex -9.44796 10 -0.99302
      vertex -9.2924 10 -1.97516
    endloop
  endfacet
  facet normal -0.987688 -0 -0.156439
    outer loop
      vertex -9.44796 10 -0.99302
      vertex -9.2924 -10 -1.97516
      vertex -9.44796 -10 -0.99302
    endloop
  endfacet
  facet normal -0 0 1
    outer loop
      vertex -5.09992 10 8
      vertex 5.09992 -10 8
      vertex 5.09992 10 8
    endloop
  endfacet
  facet normal 0 0 1
    outer loop
      vertex 5.09992 -10 8
      vertex -5.09992 10 8
      vertex -5.09992 -10 8
    endloop
  endfacet
  facet normal 0 0 -1
    outer loop
      vertex -5.09992 -10 -8
      vertex 5.09992 10 -8
      vertex 5.09992 -10 -8
    endloop
  endfacet
  facet normal -0 0 -1
    outer loop
      vertex 5.09992 10 -8
      vertex -5.09992 -10 -8
      vertex -5.09992 10 -8
    endloop
  endfacet
  facet normal 0.987688 -0 0.156437
    outer loop
      vertex 0.713292 -16.5 0.231762
      vertex 0.75 -10 0
      vertex 0.713292 -10 0.231762
    endloop
  endfacet
  facet normal 0.987688 0 0.156437
    outer loop
      vertex 0.75 -10 0
      vertex 0.713292 -16.5 0.231762
      vertex 0.75 -16.5 0
    endloop
  endfacet
  facet normal 0.891007 -0 0.45399
    outer loop
      vertex 0.606762 -16.5 0.440839
      vertex 0.713292 -10 0.231762
      vertex 0.606762 -10 0.440839
    endloop
  endfacet
  facet normal 0.891007 0 0.45399
    outer loop
      vertex 0.713292 -10 0.231762
      vertex 0.606762 -16.5 0.440839
      vertex 0.713292 -16.5 0.231762
    endloop
  endfacet
  facet normal -0.987688 0 0.156437
    outer loop
      vertex -0.75 -16.5 0
      vertex -0.713292 -10 0.231762
      vertex -0.75 -10 0
    endloop
  endfacet
  facet normal -0.987688 0 0.156437
    outer loop
      vertex -0.713292 -10 0.231762
      vertex -0.75 -16.5 0
      vertex -0.713292 -16.5 0.231762
    endloop
  endfacet
  facet normal 0.156437 0 0.987688
    outer loop
      vertex 0 -10 0.75
      vertex 0.231762 -16.5 0.713292
      vertex 0.231762 -10 0.713292
    endloop
  endfacet
  facet normal 0.156437 0 0.987688
    outer loop
      vertex 0.231762 -16.5 0.713292
      vertex 0 -10 0.75
      vertex 0 -16.5 0.75
    endloop
  endfacet
  facet normal 0.156437 0 -0.987688
    outer loop
      vertex 0 -16.5 -0.75
      vertex 0.231762 -10 -0.713292
      vertex 0.231762 -16.5 -0.713292
    endloop
  endfacet
  facet normal 0.156437 0 -0.987688
    outer loop
      vertex 0.231762 -10 -0.713292
      vertex 0 -16.5 -0.75
      vertex 0 -10 -0.75
    endloop
  endfacet
  facet normal 0.707107 -0 0.707107
    outer loop
      vertex 0.440839 -16.5 0.606762
      vertex 0.606762 -10 0.440839
      vertex 0.440839 -10 0.606762
    endloop
  endfacet
  facet normal 0.707107 0 0.707107
    outer loop
      vertex 0.606762 -10 0.440839
      vertex 0.440839 -16.5 0.606762
      vertex 0.606762 -16.5 0.440839
    endloop
  endfacet
  facet normal -0.45399 0 0.891007
    outer loop
      vertex -0.440839 -10 0.606762
      vertex -0.231762 -16.5 0.713292
      vertex -0.231762 -10 0.713292
    endloop
  endfacet
  facet normal -0.45399 0 0.891007
    outer loop
      vertex -0.231762 -16.5 0.713292
      vertex -0.440839 -10 0.606762
      vertex -0.440839 -16.5 0.606762
    endloop
  endfacet
  facet normal 0 -1 0
    outer loop
      vertex -0.231762 -16.5 0.713292
      vertex 0.231762 -16.5 0.713292
      vertex 0 -16.5 0.75
    endloop
  endfacet
  facet normal 0 -1 0
    outer loop
      vertex -0.440839 -16.5 0.606762
      vertex 0.231762 -16.5 0.713292
      vertex -0.231762 -16.5 0.713292
    endloop
  endfacet
  facet normal 0 -1 0
    outer loop
      vertex -0.440839 -16.5 0.606762
      vertex 0.440839 -16.5 0.606762
      vertex 0.231762 -16.5 0.713292
    endloop
  endfacet
  facet normal 0 -1 0
    outer loop
      vertex -0.606762 -16.5 0.440839
      vertex 0.440839 -16.5 0.606762
      vertex -0.440839 -16.5 0.606762
    endloop
  endfacet
  facet normal 0 -1 0
    outer loop
      vertex -0.606762 -16.5 0.440839
      vertex 0.606762 -16.5 0.440839
      vertex 0.440839 -16.5 0.606762
    endloop
  endfacet
  facet normal 0 -1 0
    outer loop
      vertex -0.713292 -16.5 0.231762
      vertex 0.606762 -16.5 0.440839
      vertex -0.606762 -16.5 0.440839
    endloop
  endfacet
  facet normal 0 -1 0
    outer loop
      vertex -0.713292 -16.5 0.231762
      vertex 0.713292 -16.5 0.231762
      vertex 0.606762 -16.5 0.440839
    endloop
  endfacet
  facet normal 0 -1 0
    outer loop
      vertex -0.75 -16.5 0
      vertex 0.713292 -16.5 0.231762
      vertex -0.713292 -16.5 0.231762
    endloop
  endfacet
  facet normal 0 -1 0
    outer loop
      vertex -0.75 -16.5 0
      vertex 0.75 -16.5 0
      vertex 0.713292 -16.5 0.231762
    endloop
  endfacet
  facet normal 0 -1 0
    outer loop
      vertex -0.713292 -16.5 -0.231762
      vertex 0.75 -16.5 0
      vertex -0.75 -16.5 0
    endloop
  endfacet
  facet normal 0 -1 0
    outer loop
      vertex -0.713292 -16.5 -0.231762
      vertex 0.713292 -16.5 -0.231762
      vertex 0.75 -16.5 0
    endloop
  endfacet
  facet normal 0 -1 0
    outer loop
      vertex -0.606762 -16.5 -0.440839
      vertex 0.713292 -16.5 -0.231762
      vertex -0.713292 -16.5 -0.231762
    endloop
  endfacet
  facet normal 0 -1 0
    outer loop
      vertex -0.606762 -16.5 -0.440839
      vertex 0.606762 -16.5 -0.440839
      vertex 0.713292 -16.5 -0.231762
    endloop
  endfacet
  facet normal 0 -1 0
    outer loop
      vertex -0.440839 -16.5 -0.606762
      vertex 0.606762 -16.5 -0.440839
      vertex -0.606762 -16.5 -0.440839
    endloop
  endfacet
  facet normal 0 -1 0
    outer loop
      vertex -0.440839 -16.5 -0.606762
      vertex 0.440839 -16.5 -0.606762
      vertex 0.606762 -16.5 -0.440839
    endloop
  endfacet
  facet normal 0 -1 0
    outer loop
      vertex -0.231762 -16.5 -0.713292
      vertex 0.440839 -16.5 -0.606762
      vertex -0.440839 -16.5 -0.606762
    endloop
  endfacet
  facet normal 0 -1 0
    outer loop
      vertex -0.231762 -16.5 -0.713292
      vertex 0.231762 -16.5 -0.713292
      vertex 0.440839 -16.5 -0.606762
    endloop
  endfacet
  facet normal -0 -1 0
    outer loop
      vertex 0.231762 -16.5 -0.713292
      vertex -0.231762 -16.5 -0.713292
      vertex 0 -16.5 -0.75
    endloop
  endfacet
  facet normal -0.156437 0 0.987688
    outer loop
      vertex -0.231762 -10 0.713292
      vertex 0 -16.5 0.75
      vertex 0 -10 0.75
    endloop
  endfacet
  facet normal -0.156437 0 0.987688
    outer loop
      vertex 0 -16.5 0.75
      vertex -0.231762 -10 0.713292
      vertex -0.231762 -16.5 0.713292
    endloop
  endfacet
  facet normal 0.45399 0 -0.891007
    outer loop
      vertex 0.231762 -16.5 -0.713292
      vertex 0.440839 -10 -0.606762
      vertex 0.440839 -16.5 -0.606762
    endloop
  endfacet
  facet normal 0.45399 0 -0.891007
    outer loop
      vertex 0.440839 -10 -0.606762
      vertex 0.231762 -16.5 -0.713292
      vertex 0.231762 -10 -0.713292
    endloop
  endfacet
  facet normal -0.987688 0 -0.156437
    outer loop
      vertex -0.713292 -16.5 -0.231762
      vertex -0.75 -10 0
      vertex -0.713292 -10 -0.231762
    endloop
  endfacet
  facet normal -0.987688 -0 -0.156437
    outer loop
      vertex -0.75 -10 0
      vertex -0.713292 -16.5 -0.231762
      vertex -0.75 -16.5 0
    endloop
  endfacet
  facet normal 0.45399 0 0.891007
    outer loop
      vertex 0.231762 -10 0.713292
      vertex 0.440839 -16.5 0.606762
      vertex 0.440839 -10 0.606762
    endloop
  endfacet
  facet normal 0.45399 0 0.891007
    outer loop
      vertex 0.440839 -16.5 0.606762
      vertex 0.231762 -10 0.713292
      vertex 0.231762 -16.5 0.713292
    endloop
  endfacet
  facet normal -0.707107 0 0.707107
    outer loop
      vertex -0.606762 -16.5 0.440839
      vertex -0.440839 -10 0.606762
      vertex -0.606762 -10 0.440839
    endloop
  endfacet
  facet normal -0.707107 0 0.707107
    outer loop
      vertex -0.440839 -10 0.606762
      vertex -0.606762 -16.5 0.440839
      vertex -0.440839 -16.5 0.606762
    endloop
  endfacet
  facet normal -0.891007 0 0.45399
    outer loop
      vertex -0.713292 -16.5 0.231762
      vertex -0.606762 -10 0.440839
      vertex -0.713292 -10 0.231762
    endloop
  endfacet
  facet normal -0.891007 0 0.45399
    outer loop
      vertex -0.606762 -10 0.440839
      vertex -0.713292 -16.5 0.231762
      vertex -0.606762 -16.5 0.440839
    endloop
  endfacet
  facet normal -0.707107 0 -0.707107
    outer loop
      vertex -0.440839 -16.5 -0.606762
      vertex -0.606762 -10 -0.440839
      vertex -0.440839 -10 -0.606762
    endloop
  endfacet
  facet normal -0.707107 -0 -0.707107
    outer loop
      vertex -0.606762 -10 -0.440839
      vertex -0.440839 -16.5 -0.606762
      vertex -0.606762 -16.5 -0.440839
    endloop
  endfacet
  facet normal -0.156437 0 -0.987688
    outer loop
      vertex -0.231762 -16.5 -0.713292
      vertex 0 -10 -0.75
      vertex 0 -16.5 -0.75
    endloop
  endfacet
  facet normal -0.156437 0 -0.987688
    outer loop
      vertex 0 -10 -0.75
      vertex -0.231762 -16.5 -0.713292
      vertex -0.231762 -10 -0.713292
    endloop
  endfacet
  facet normal -0.891007 0 -0.45399
    outer loop
      vertex -0.606762 -16.5 -0.440839
      vertex -0.713292 -10 -0.231762
      vertex -0.606762 -10 -0.440839
    endloop
  endfacet
  facet normal -0.891007 -0 -0.45399
    outer loop
      vertex -0.713292 -10 -0.231762
      vertex -0.606762 -16.5 -0.440839
      vertex -0.713292 -16.5 -0.231762
    endloop
  endfacet
  facet normal 0.891007 0 -0.45399
    outer loop
      vertex 0.713292 -16.5 -0.231762
      vertex 0.606762 -10 -0.440839
      vertex 0.713292 -10 -0.231762
    endloop
  endfacet
  facet normal 0.891007 0 -0.45399
    outer loop
      vertex 0.606762 -10 -0.440839
      vertex 0.713292 -16.5 -0.231762
      vertex 0.606762 -16.5 -0.440839
    endloop
  endfacet
  facet normal 0.987688 0 -0.156437
    outer loop
      vertex 0.75 -16.5 0
      vertex 0.713292 -10 -0.231762
      vertex 0.75 -10 0
    endloop
  endfacet
  facet normal 0.987688 0 -0.156437
    outer loop
      vertex 0.713292 -10 -0.231762
      vertex 0.75 -16.5 0
      vertex 0.713292 -16.5 -0.231762
    endloop
  endfacet
  facet normal -0.45399 0 -0.891007
    outer loop
      vertex -0.440839 -16.5 -0.606762
      vertex -0.231762 -10 -0.713292
      vertex -0.231762 -16.5 -0.713292
    endloop
  endfacet
  facet normal -0.45399 0 -0.891007
    outer loop
      vertex -0.231762 -10 -0.713292
      vertex -0.440839 -16.5 -0.606762
      vertex -0.440839 -10 -0.606762
    endloop
  endfacet
  facet normal 0.707107 0 -0.707107
    outer loop
      vertex 0.606762 -16.5 -0.440839
      vertex 0.440839 -10 -0.606762
      vertex 0.606762 -10 -0.440839
    endloop
  endfacet
  facet normal 0.707107 0 -0.707107
    outer loop
      vertex 0.440839 -10 -0.606762
      vertex 0.606762 -16.5 -0.440839
      vertex 0.440839 -16.5 -0.606762
    endloop
  endfacet
endsolid OpenSCAD_Model
