<?xml version="1.0" encoding="UTF-8" standalone="no"?>
<!DOCTYPE svg PUBLIC "-//W3C//DTD SVG 1.1//EN" "http://www.w3.org/Graphics/SVG/1.1/DTD/svg11.dtd">
<svg width="100%" height="100%" viewBox="0 0 522 738" version="1.1" xmlns="http://www.w3.org/2000/svg" xmlns:xlink="http://www.w3.org/1999/xlink" xml:space="preserve" xmlns:serif="http://www.serif.com/" style="fill-rule:evenodd;clip-rule:evenodd;stroke-linecap:round;stroke-linejoin:round;">
    <g id="STROKE_6f50bded-83cb-4738-a954-8c2750f19af0" transform="matrix(1,0,0,1,254.048,-415.529)">
        <g id="Schrift">
            <path id="STROKE_6f50bded-83cb-4738-a954-8c2750f19af01" serif:id="STROKE_6f50bded-83cb-4738-a954-8c2750f19af0" d="M25.378,922.356C24.529,921.452 23.953,916.46 23.381,914.35C23.908,902.856 72.646,911.852 75.156,910.322C75.642,907.286 70.635,895.197 65.207,893.486C60.012,891.849 23.609,893.021 25.287,882.381C26.229,876.406 71.195,883.191 71.951,878.673C73.477,869.552 58.95,864.946 58.95,864.946C58.95,864.946 30.616,865.804 25.809,862.293C15.788,854.975 31.988,853.26 32.908,853.163C38.902,852.528 45.76,855.906 50.989,852.908L51.037,852.722C50.517,850.791 46.858,854.393 32.472,835.975C28.207,830.514 29.919,821.463 32.836,822.478C43.674,826.25 39.463,832.227 50.178,836.595L50.399,836.667L50.615,836.742C56.446,835.621 60.912,825.624 61.447,824.426C62.062,823.05 60.278,824.984 43.249,819.537C33.746,816.497 27.029,803.78 31.456,797.181C37.244,792.177 48.494,786.602 51.381,785.185C48.443,785.384 35.847,786.042 32.205,782.118C29.151,778.828 37.316,773.792 35.576,771.807L35.472,771.638C13.492,755.012 38.187,750.519 38.536,747.395C38.526,747.378 27.435,740.611 25.289,736.011C22.878,730.845 41.3,721.064 42.978,720.173C41.88,719.849 28.478,715.898 31.965,711.037L37.846,709.571C24.094,695.956 22.199,689.646 39.215,680.394C37.827,679.55 25.651,672.136 26.069,664.923C26.579,656.114 66.693,648.206 66.923,647.974L67.177,647.74L67.547,647.376L67.583,647.07C66.34,638.313 42.385,644.082 34.507,641.068C27.329,638.322 16.26,625.338 32.188,603.601L32.472,603.065L32.595,602.691C32.614,602.313 32.749,599.597 33.761,598.107L34.272,597.365C40.63,592.923 49.907,597.958 44.657,592.112C43.478,590.8 41.894,589.886 40.749,588.545C20.508,564.838 83.365,551.52 91.39,556.725C109.329,568.361 55.008,569.546 52.684,577.787C49.062,590.628 96.25,585.84 97.953,595.572C98.623,599.404 84.34,601.83 83.059,602.047C74.656,603.474 65.953,603.049 57.667,605.044C55.003,605.685 53.479,608.726 50.95,609.78C48.318,610.878 45.25,610.467 42.539,611.354C37.896,612.874 35.327,621.962 40.33,626.5C58.254,642.761 57.438,608.646 71.565,609.235C77.943,609.501 68.841,634.281 78.179,638.145C97.385,646.093 86.648,610.003 88.274,608.011C91.023,606.55 93.529,607.756 93.937,607.953C99.918,612.75 102.317,622.037 102.673,623.412C105.999,636.282 102.409,636.043 96.724,648.048C97.129,648.636 101.418,654.865 96.173,656.959C93.704,657.946 46.824,660.056 43.926,664.077C36.49,674.395 86.916,672.477 91.645,681.366C98.88,694.968 51.631,684.626 43.675,689.526C39.872,695.493 46.356,699.61 47.106,700.086C57.761,706.851 96.834,707.943 96.092,719.572C96.11,719.721 96.148,719.979 96.206,720.346C100.168,732.468 49.361,721.466 43.539,732.634C43.457,733.121 43.396,733.46 43.357,733.65L43.207,733.847C43.169,733.925 43.324,735.462 43.327,735.689L43.622,735.689C66.19,746.343 99.321,739.75 90.75,754.029C84.662,764.173 38.394,753 38.421,760.743C38.467,774.398 117.577,780.604 88.136,785.493C82.537,789.072 99.056,800.561 86.631,819.127C103.693,836.083 66.115,828.861 65.692,838.724C64.904,857.08 90.766,844.617 96.018,847.838C102.538,851.837 95.237,852.393 78.774,862.6L78.523,862.932C78.592,863.557 92.87,885.341 88.976,889.472C87.993,890.515 86.584,891.076 85.278,891.668C80.416,893.872 78.501,894.003 80.695,898.818C89.5,918.14 92.568,916.488 92.599,918.315L92.605,918.65C96.207,925.622 78.651,931.002 78.484,931.086C79.745,931.723 103.055,937.731 82.871,952.634C70.194,961.993 69.028,960.052 68.095,961.042L68.112,961.151C72.289,963.153 77.199,963.122 81.527,964.774C84.434,965.883 87.158,967.512 89.653,969.372C89.847,969.516 102.216,988.666 70.593,985.082C24.149,979.818 23.318,976.139 24.044,972.347C25,967.352 58.622,976.193 74.622,976.689C75.364,973.84 73.046,972.349 66.429,969.252C61.799,967.086 54.163,964.616 43.95,963.097C40.964,962.653 30.139,962.968 28.95,958.097C28.391,955.808 42.224,954.931 53.95,953.097C64.842,951.394 75.244,947.82 71.886,943.097C67.905,937.5 29.185,952.443 26.764,944.753C26.082,942.587 26.939,940.536 40.952,935.529C23.612,934.636 21.297,935.469 18.759,929.552C16.333,923.896 19.664,924.652 25.154,922.227L25.378,922.356ZM33.729,923.973L34.919,924.59C35.285,924.832 36.639,927.103 39.459,926.701C53.453,924.705 53.897,926.964 58.142,924.732C58.566,924.508 58.288,923.686 52.307,923.342C39.472,922.604 39.517,922.336 34.799,922.645C34.383,922.672 33.951,922.671 33.553,922.548L33.729,923.973ZM45.235,806.113L45.187,806.023L45.201,806.149L45.235,806.113ZM45.235,806.113C45.321,806.269 45.489,806.569 45.742,807.013C60.171,823.785 91.224,814.802 81.547,800.324C75.811,791.742 64.805,793.607 63.277,793.866C52.229,795.737 48.089,802.86 46.347,805.005C46.083,805.254 45.713,805.623 45.235,806.113Z" style="fill:none;stroke:rgb(181,179,173);stroke-width:3.4px;"/>
        </g>
    </g>
</svg>
