999
"DXF R12 Output" (www.mydxf.blogspot.com)
 0 
SECTION
 2 
HEADER
 9 
$ACADVER
 1 
AC1009
 9 
$EXTMIN
 10 
 0 
 20 
 0 
 9 
$EXTMAX
 10 
 8.5 
 20 
 11 
 0 
ENDSEC
 0 
SECTION
 2 
ENTITIES
0
LINE
8
Layer 1
10
0.846666
20
317.647000
11
-0.846666
21
315.953000
0
LINE
8
Layer 1
10
0.000000
20
318.211000
11
0.000000
21
315.389000
0
LINE
8
Layer 1
10
2.257780
20
315.671000
11
1.128890
21
314.542110
0
LINE
8
Layer 1
10
1.693330
20
316.236000
11
0.564440
21
315.107110
0
LINE
8
Layer 1
10
1.128890
20
316.800000
11
0.000000
21
315.671110
0
LINE
8
0
10
6.932940
20
316.267000
11
5.643815
21
316.136871
0
LINE
8
0
10
5.643815
20
316.136871
11
4.442835
21
315.763699
0
LINE
8
0
10
4.442835
20
315.763699
11
3.355808
21
315.173308
0
LINE
8
0
10
3.355808
20
315.173308
11
2.408546
21
314.391519
0
LINE
8
0
10
2.408546
20
314.391519
11
1.626858
21
313.444156
0
LINE
8
0
10
1.626858
20
313.444156
11
1.036555
21
312.357041
0
LINE
8
0
10
1.036555
20
312.357041
11
0.663445
21
311.155999
0
LINE
8
0
10
0.663445
20
311.155999
11
0.533340
21
309.866850
0
LINE
8
0
10
0.533340
20
309.866850
11
0.533333
21
188.267000
0
LINE
8
0
10
0.533333
20
188.267000
11
89.526400
21
188.267000
0
LINE
8
0
10
89.526400
20
188.267000
11
90.722869
21
188.393696
0
LINE
8
0
10
90.722869
20
188.393696
11
91.837553
21
188.757023
0
LINE
8
0
10
91.837553
20
188.757023
11
92.846491
21
189.331844
0
LINE
8
0
10
92.846491
20
189.331844
11
93.725719
21
190.093019
0
LINE
8
0
10
93.725719
20
190.093019
11
94.451275
21
191.015410
0
LINE
8
0
10
94.451275
20
191.015410
11
94.999197
21
192.073878
0
LINE
8
0
10
94.999197
20
192.073878
11
95.345523
21
193.243284
0
LINE
8
0
10
95.345523
20
193.243284
11
95.466290
21
194.498490
0
LINE
8
0
10
95.466290
20
194.498490
11
95.358212
21
195.687162
0
LINE
8
0
10
95.358212
20
195.687162
11
95.047368
21
196.800380
0
LINE
8
0
10
95.047368
20
196.800380
11
94.858852
21
197.298107
0
LINE
8
0
10
94.858852
20
197.298107
11
69.137500
21
256.533000
0
LINE
8
0
10
69.137500
20
256.533000
11
44.811300
21
312.632000
0
LINE
8
0
10
44.811300
20
312.632000
11
44.328716
21
313.444538
0
LINE
8
0
10
44.328716
20
313.444538
11
43.716536
21
314.176338
0
LINE
8
0
10
43.716536
20
314.176338
11
42.226650
21
315.354450
0
LINE
8
0
10
42.226650
20
315.354450
11
40.624270
21
316.040712
0
LINE
8
0
10
40.624270
20
316.040712
11
39.784219
21
316.210488
0
LINE
8
0
10
39.784219
20
316.210488
11
39.359232
21
316.246866
0
LINE
8
0
10
39.359232
20
316.246866
11
38.933142
21
316.266707
0
LINE
8
0
10
38.933142
20
316.266707
11
6.932940
21
316.267000
0
LINE
8
0
10
9.066690
20
307.733650
11
38.933200
21
307.733000
0
LINE
8
0
10
38.933200
20
307.733000
11
85.866400
21
196.800000
0
LINE
8
0
10
85.866400
20
196.800000
11
9.066690
21
196.800000
0
LINE
8
0
10
9.066690
20
196.800000
11
9.066690
21
307.733650
 0 
ENDSEC
 0 
EOF