<?xml version="1.0" encoding="UTF-8" standalone="no"?>
<svg
   viewBox="0 0 793.7007874015749 1122.5196850393702"
   width="793.7007874015749"
   height="1122.5196850393702"
   version="1.1"
   id="svg846"
   sodipodi:docname="Bandekontour.svg"
   inkscape:version="1.1.1 (3bf5ae0d25, 2021-09-20)"
   xmlns:inkscape="http://www.inkscape.org/namespaces/inkscape"
   xmlns:sodipodi="http://sodipodi.sourceforge.net/DTD/sodipodi-0.dtd"
   xmlns="http://www.w3.org/2000/svg"
   xmlns:svg="http://www.w3.org/2000/svg">
  <sodipodi:namedview
     id="namedview848"
     pagecolor="#ffffff"
     bordercolor="#666666"
     borderopacity="1.0"
     inkscape:pageshadow="2"
     inkscape:pageopacity="0.0"
     inkscape:pagecheckerboard="0"
     showgrid="false"
     inkscape:zoom="0.68328425"
     inkscape:cx="397.34561"
     inkscape:cy="35.856234"
     inkscape:window-width="1920"
     inkscape:window-height="1017"
     inkscape:window-x="-8"
     inkscape:window-y="-8"
     inkscape:window-maximized="1"
     inkscape:current-layer="g844" />
  <desc
     id="desc824">Bandekontour.dxf - scale = 1.0, origin = (0.0, 0.0), method = manual</desc>
  <defs
     id="defs838">
    <marker
       id="DistanceX"
       orient="auto"
       refX="0.0"
       refY="0.0"
       style="overflow:visible">
      <path
         d="M 3,-3 L -3,3 M 0,-5 L  0,5"
         style="stroke:#000000; stroke-width:0.5"
         id="path826" />
    </marker>
    <pattern
       id="Hatch"
       patternUnits="userSpaceOnUse"
       width="8"
       height="8"
       x="0"
       y="0">
      <path
         d="M8 4 l-4,4"
         stroke="#000000"
         stroke-width="0.25"
         linecap="square"
         id="path829" />
      <path
         d="M6 2 l-4,4"
         stroke="#000000"
         stroke-width="0.25"
         linecap="square"
         id="path831" />
      <path
         d="M4 0 l-4,4"
         stroke="#000000"
         stroke-width="0.25"
         linecap="square"
         id="path833" />
    </pattern>
    <symbol
       id="*Model_Space" />
    <symbol
       id="*Paper_Space" />
  </defs>
  <g
     inkscape:groupmode="layer"
     inkscape:label="0"
     id="g844">
    <path
       id="path840"
       style="fill:none;fill-opacity:1;stroke:#4c0000;stroke-width:3.77953;stroke-linecap:round;stroke-miterlimit:4;stroke-dasharray:none"
       d="m 24.565545,1.889765 c -12.51587,0 -22.67578,10.16186 -22.67578,22.67773 V 455.43278 H 317.21984 c 11.61613,0 21.04687,-9.8937 21.04687,-22.0801 0,-2.8802 -0.52642,-5.6326 -1.48437,-8.1563 -0.26735,-0.7044 -0.48835,-1.2869 -0.66797,-1.7636 L 244.9757,213.54406 158.78039,14.768665 c -1.92526,-4.01243 -5.36623,-7.36425 -9.15821,-9.64648 -1.75239,-1.05469 -3.65945,-1.87925 -5.67773,-2.43164 -0.96827,-0.26502 -1.96138,-0.46645 -2.97656,-0.60157 -0.39922,-0.0531 -0.96882,-0.0968 -1.50586,-0.1289 -0.79,-0.0471 -1.50977,-0.0703 -1.50977,-0.0703 z m 7.56055,30.23632 H 137.95226 L 304.25109,425.19638 H 32.126095 Z" />
  </g>
</svg>
