solid OpenSCAD_Model
  facet normal -1 0 0
    outer loop
      vertex -21.5 -18.5 -2
      vertex -21.5 18.5 2.5
      vertex -21.5 18.5 -2
    endloop
  endfacet
  facet normal -1 -0 0
    outer loop
      vertex -21.5 18.5 2.5
      vertex -21.5 -18.5 -2
      vertex -21.5 -18.5 2.5
    endloop
  endfacet
  facet normal 0 0 -1
    outer loop
      vertex 3.5 -17.5 2
      vertex 4.5 17.5 2
      vertex 4.5 -17.5 2
    endloop
  endfacet
  facet normal -0 0 -1
    outer loop
      vertex 4.5 17.5 2
      vertex 3.5 -17.5 2
      vertex 3.5 17.5 2
    endloop
  endfacet
  facet normal 0 0 -1
    outer loop
      vertex 35.5 -17.5 2
      vertex 40.5 17.5 2
      vertex 40.5 -17.5 2
    endloop
  endfacet
  facet normal -0 0 -1
    outer loop
      vertex 40.5 17.5 2
      vertex 35.5 -17.5 2
      vertex 35.5 17.5 2
    endloop
  endfacet
  facet normal 1 -0 0
    outer loop
      vertex 41.5 -18.5 6
      vertex 41.5 18.5 -2
      vertex 41.5 18.5 6
    endloop
  endfacet
  facet normal 1 0 0
    outer loop
      vertex 41.5 18.5 -2
      vertex 41.5 -18.5 6
      vertex 41.5 -18.5 -2
    endloop
  endfacet
  facet normal 0 1 0
    outer loop
      vertex 41.5 18.5 6
      vertex 2.5 18.5 2.5
      vertex 2.5 18.5 6
    endloop
  endfacet
  facet normal 0 1 -0
    outer loop
      vertex 41.5 18.5 -2
      vertex 2.5 18.5 2.5
      vertex 41.5 18.5 6
    endloop
  endfacet
  facet normal 0 1 0
    outer loop
      vertex -21.5 18.5 -2
      vertex 2.5 18.5 2.5
      vertex 41.5 18.5 -2
    endloop
  endfacet
  facet normal 0 1 0
    outer loop
      vertex 2.5 18.5 2.5
      vertex -21.5 18.5 -2
      vertex -21.5 18.5 2.5
    endloop
  endfacet
  facet normal 0 0 -1
    outer loop
      vertex 41.5 -18.5 -2
      vertex 40.5 -17.5 -2
      vertex 41.5 18.5 -2
    endloop
  endfacet
  facet normal 0 0 -1
    outer loop
      vertex 41.5 -18.5 -2
      vertex -20.5 -17.5 -2
      vertex 40.5 -17.5 -2
    endloop
  endfacet
  facet normal -0 0 -1
    outer loop
      vertex -20.5 -17.5 -2
      vertex -21.5 -18.5 -2
      vertex -20.5 17.5 -2
    endloop
  endfacet
  facet normal 0 0 -1
    outer loop
      vertex -21.5 -18.5 -2
      vertex -20.5 -17.5 -2
      vertex 41.5 -18.5 -2
    endloop
  endfacet
  facet normal 0 0 -1
    outer loop
      vertex 40.5 17.5 -2
      vertex 41.5 18.5 -2
      vertex 40.5 -17.5 -2
    endloop
  endfacet
  facet normal 0 0 -1
    outer loop
      vertex -20.5 17.5 -2
      vertex 41.5 18.5 -2
      vertex 40.5 17.5 -2
    endloop
  endfacet
  facet normal 0 0 -1
    outer loop
      vertex -20.5 17.5 -2
      vertex -21.5 18.5 -2
      vertex 41.5 18.5 -2
    endloop
  endfacet
  facet normal 0 0 -1
    outer loop
      vertex -21.5 18.5 -2
      vertex -20.5 17.5 -2
      vertex -21.5 -18.5 -2
    endloop
  endfacet
  facet normal 0 -1 0
    outer loop
      vertex -21.5 -18.5 2.5
      vertex -21.5 -18.5 -2
      vertex 2.5 -18.5 2.5
    endloop
  endfacet
  facet normal 0 -1 0
    outer loop
      vertex 2.5 -18.5 2.5
      vertex 41.5 -18.5 6
      vertex 2.5 -18.5 6
    endloop
  endfacet
  facet normal 0 -1 0
    outer loop
      vertex 41.5 -18.5 -2
      vertex 2.5 -18.5 2.5
      vertex -21.5 -18.5 -2
    endloop
  endfacet
  facet normal 0 -1 0
    outer loop
      vertex 2.5 -18.5 2.5
      vertex 41.5 -18.5 -2
      vertex 41.5 -18.5 6
    endloop
  endfacet
  facet normal 1 -0 0
    outer loop
      vertex -20.5 -17.5 1.5
      vertex -20.5 17.5 -2
      vertex -20.5 17.5 1.5
    endloop
  endfacet
  facet normal 1 0 0
    outer loop
      vertex -20.5 17.5 -2
      vertex -20.5 -17.5 1.5
      vertex -20.5 -17.5 -2
    endloop
  endfacet
  facet normal -1 0 0
    outer loop
      vertex 40.5 -17.5 -2
      vertex 40.5 17.5 2
      vertex 40.5 17.5 -2
    endloop
  endfacet
  facet normal -1 -0 0
    outer loop
      vertex 40.5 17.5 2
      vertex 40.5 -17.5 -2
      vertex 40.5 -17.5 2
    endloop
  endfacet
  facet normal 0 -1 0
    outer loop
      vertex -20.5 17.5 1.5
      vertex -20.5 17.5 -2
      vertex 3.5 17.5 1.5
    endloop
  endfacet
  facet normal 0 -1 0
    outer loop
      vertex 3.5 17.5 1.5
      vertex 4.5 17.5 2
      vertex 3.5 17.5 2
    endloop
  endfacet
  facet normal 0 -1 0
    outer loop
      vertex 40.5 17.5 -2
      vertex 4.5 17.5 2
      vertex 3.5 17.5 1.5
    endloop
  endfacet
  facet normal 0 -1 0
    outer loop
      vertex 4.5 17.5 2
      vertex 40.5 17.5 -2
      vertex 35.5 17.5 2
    endloop
  endfacet
  facet normal 0 -1 0
    outer loop
      vertex 40.5 17.5 -2
      vertex 3.5 17.5 1.5
      vertex -20.5 17.5 -2
    endloop
  endfacet
  facet normal 0 -1 0
    outer loop
      vertex 35.5 17.5 2
      vertex 40.5 17.5 -2
      vertex 40.5 17.5 2
    endloop
  endfacet
  facet normal 0 -1 0
    outer loop
      vertex 4.5 17.5 2
      vertex 35.5 17.5 6.5
      vertex 4.5 17.5 6.5
    endloop
  endfacet
  facet normal 0 -1 -0
    outer loop
      vertex 35.5 17.5 6.5
      vertex 4.5 17.5 2
      vertex 35.5 17.5 2
    endloop
  endfacet
  facet normal 0 1 -0
    outer loop
      vertex 40.5 -17.5 -2
      vertex 35.5 -17.5 2
      vertex 40.5 -17.5 2
    endloop
  endfacet
  facet normal 0 1 0
    outer loop
      vertex 35.5 -17.5 2
      vertex 40.5 -17.5 -2
      vertex 4.5 -17.5 2
    endloop
  endfacet
  facet normal 0 1 0
    outer loop
      vertex 4.5 -17.5 2
      vertex 3.5 -17.5 1.5
      vertex 3.5 -17.5 2
    endloop
  endfacet
  facet normal 0 1 0
    outer loop
      vertex 4.5 -17.5 2
      vertex 40.5 -17.5 -2
      vertex 3.5 -17.5 1.5
    endloop
  endfacet
  facet normal 0 1 0
    outer loop
      vertex -20.5 -17.5 -2
      vertex 3.5 -17.5 1.5
      vertex 40.5 -17.5 -2
    endloop
  endfacet
  facet normal 0 1 0
    outer loop
      vertex 3.5 -17.5 1.5
      vertex -20.5 -17.5 -2
      vertex -20.5 -17.5 1.5
    endloop
  endfacet
  facet normal 0 1 -0
    outer loop
      vertex 35.5 -17.5 2
      vertex 4.5 -17.5 6.5
      vertex 35.5 -17.5 6.5
    endloop
  endfacet
  facet normal 0 1 0
    outer loop
      vertex 4.5 -17.5 6.5
      vertex 35.5 -17.5 2
      vertex 4.5 -17.5 2
    endloop
  endfacet
  facet normal 0 -0.995037 0.0995037
    outer loop
      vertex 2.5 -18.5 6
      vertex 35.5 -17.5 16
      vertex 4.5 -17.5 16
    endloop
  endfacet
  facet normal 0 -0.995037 0.0995037
    outer loop
      vertex 35.5 -17.5 16
      vertex 2.5 -18.5 6
      vertex 41.5 -18.5 6
    endloop
  endfacet
  facet normal -0.980581 0 0.196116
    outer loop
      vertex 2.5 18.5 6
      vertex 4.5 -17.5 16
      vertex 4.5 17.5 16
    endloop
  endfacet
  facet normal -0.980581 0 0.196116
    outer loop
      vertex 4.5 -17.5 16
      vertex 2.5 18.5 6
      vertex 2.5 -18.5 6
    endloop
  endfacet
  facet normal 0 0 1
    outer loop
      vertex 35.5 17.5 16
      vertex 34.25 16.75 16
      vertex 35.5 -17.5 16
    endloop
  endfacet
  facet normal 0 0 1
    outer loop
      vertex 35.5 17.5 16
      vertex 5.75 16.75 16
      vertex 34.25 16.75 16
    endloop
  endfacet
  facet normal 0 0 1
    outer loop
      vertex 5.75 16.75 16
      vertex 4.5 17.5 16
      vertex 5.75 -16.75 16
    endloop
  endfacet
  facet normal -0 0 1
    outer loop
      vertex 4.5 17.5 16
      vertex 5.75 16.75 16
      vertex 35.5 17.5 16
    endloop
  endfacet
  facet normal -0 0 1
    outer loop
      vertex 34.25 -16.75 16
      vertex 35.5 -17.5 16
      vertex 34.25 16.75 16
    endloop
  endfacet
  facet normal -0 0 1
    outer loop
      vertex 5.75 -16.75 16
      vertex 35.5 -17.5 16
      vertex 34.25 -16.75 16
    endloop
  endfacet
  facet normal 0 0 1
    outer loop
      vertex 5.75 -16.75 16
      vertex 4.5 -17.5 16
      vertex 35.5 -17.5 16
    endloop
  endfacet
  facet normal 0 0 1
    outer loop
      vertex 4.5 -17.5 16
      vertex 5.75 -16.75 16
      vertex 4.5 17.5 16
    endloop
  endfacet
  facet normal 0 0 -1
    outer loop
      vertex 34.075 -16.55 16
      vertex 33.25 -15.75 16
      vertex 34.075 16.55 16
    endloop
  endfacet
  facet normal 0 0 -1
    outer loop
      vertex 34.075 -16.55 16
      vertex 6.75 -15.75 16
      vertex 33.25 -15.75 16
    endloop
  endfacet
  facet normal -0 0 -1
    outer loop
      vertex 6.75 -15.75 16
      vertex 5.925 -16.55 16
      vertex 6.75 15.75 16
    endloop
  endfacet
  facet normal 0 0 -1
    outer loop
      vertex 5.925 -16.55 16
      vertex 6.75 -15.75 16
      vertex 34.075 -16.55 16
    endloop
  endfacet
  facet normal 0 0 -1
    outer loop
      vertex 33.25 15.75 16
      vertex 34.075 16.55 16
      vertex 33.25 -15.75 16
    endloop
  endfacet
  facet normal 0 0 -1
    outer loop
      vertex 6.75 15.75 16
      vertex 34.075 16.55 16
      vertex 33.25 15.75 16
    endloop
  endfacet
  facet normal 0 0 -1
    outer loop
      vertex 6.75 15.75 16
      vertex 5.925 16.55 16
      vertex 34.075 16.55 16
    endloop
  endfacet
  facet normal 0 0 -1
    outer loop
      vertex 5.925 16.55 16
      vertex 6.75 15.75 16
      vertex 5.925 -16.55 16
    endloop
  endfacet
  facet normal 0.857493 -0 0.514496
    outer loop
      vertex 35.5 -17.5 16
      vertex 41.5 18.5 6
      vertex 35.5 17.5 16
    endloop
  endfacet
  facet normal 0.857493 0 0.514496
    outer loop
      vertex 41.5 18.5 6
      vertex 35.5 -17.5 16
      vertex 41.5 -18.5 6
    endloop
  endfacet
  facet normal -1 0 0
    outer loop
      vertex 2.5 -18.5 2.5
      vertex 2.5 18.5 6
      vertex 2.5 18.5 2.5
    endloop
  endfacet
  facet normal -1 -0 0
    outer loop
      vertex 2.5 18.5 6
      vertex 2.5 -18.5 2.5
      vertex 2.5 -18.5 6
    endloop
  endfacet
  facet normal -0 0.995037 0.0995037
    outer loop
      vertex 2.5 18.5 6
      vertex 35.5 17.5 16
      vertex 41.5 18.5 6
    endloop
  endfacet
  facet normal 0 0.995037 0.0995037
    outer loop
      vertex 35.5 17.5 16
      vertex 2.5 18.5 6
      vertex 4.5 17.5 16
    endloop
  endfacet
  facet normal 0 0.995037 -0.0995037
    outer loop
      vertex 35.5 -17.5 6.5
      vertex 5.925 -16.55 16
      vertex 34.075 -16.55 16
    endloop
  endfacet
  facet normal 0 0.995037 -0.0995037
    outer loop
      vertex 5.925 -16.55 16
      vertex 35.5 -17.5 6.5
      vertex 4.5 -17.5 6.5
    endloop
  endfacet
  facet normal 0.988936 0 -0.14834
    outer loop
      vertex 5.925 -16.55 16
      vertex 4.5 17.5 6.5
      vertex 5.925 16.55 16
    endloop
  endfacet
  facet normal 0.988936 0 -0.14834
    outer loop
      vertex 4.5 17.5 6.5
      vertex 5.925 -16.55 16
      vertex 4.5 -17.5 6.5
    endloop
  endfacet
  facet normal -0.988936 0 -0.14834
    outer loop
      vertex 35.5 17.5 6.5
      vertex 34.075 -16.55 16
      vertex 34.075 16.55 16
    endloop
  endfacet
  facet normal -0.988936 0 -0.14834
    outer loop
      vertex 34.075 -16.55 16
      vertex 35.5 17.5 6.5
      vertex 35.5 -17.5 6.5
    endloop
  endfacet
  facet normal 1 -0 0
    outer loop
      vertex 4.5 -17.5 6.5
      vertex 4.5 17.5 2
      vertex 4.5 17.5 6.5
    endloop
  endfacet
  facet normal 1 0 0
    outer loop
      vertex 4.5 17.5 2
      vertex 4.5 -17.5 6.5
      vertex 4.5 -17.5 2
    endloop
  endfacet
  facet normal 0 -0.995037 -0.0995037
    outer loop
      vertex 4.5 17.5 6.5
      vertex 34.075 16.55 16
      vertex 5.925 16.55 16
    endloop
  endfacet
  facet normal 0 -0.995037 -0.0995037
    outer loop
      vertex 34.075 16.55 16
      vertex 4.5 17.5 6.5
      vertex 35.5 17.5 6.5
    endloop
  endfacet
  facet normal -1 0 0
    outer loop
      vertex 35.5 -17.5 2
      vertex 35.5 17.5 6.5
      vertex 35.5 17.5 2
    endloop
  endfacet
  facet normal -1 -0 0
    outer loop
      vertex 35.5 17.5 6.5
      vertex 35.5 -17.5 2
      vertex 35.5 -17.5 6.5
    endloop
  endfacet
  facet normal -1 0 0
    outer loop
      vertex 5.75 -16.75 16
      vertex 5.75 16.75 18
      vertex 5.75 16.75 16
    endloop
  endfacet
  facet normal -1 -0 0
    outer loop
      vertex 5.75 16.75 18
      vertex 5.75 -16.75 16
      vertex 5.75 -16.75 18
    endloop
  endfacet
  facet normal 0 0 1
    outer loop
      vertex 34.25 16.75 18
      vertex 33.25 15.75 18
      vertex 34.25 -16.75 18
    endloop
  endfacet
  facet normal 0 0 1
    outer loop
      vertex 34.25 16.75 18
      vertex 6.75 15.75 18
      vertex 33.25 15.75 18
    endloop
  endfacet
  facet normal 0 0 1
    outer loop
      vertex 6.75 15.75 18
      vertex 5.75 16.75 18
      vertex 6.75 -15.75 18
    endloop
  endfacet
  facet normal -0 0 1
    outer loop
      vertex 5.75 16.75 18
      vertex 6.75 15.75 18
      vertex 34.25 16.75 18
    endloop
  endfacet
  facet normal -0 0 1
    outer loop
      vertex 33.25 -15.75 18
      vertex 34.25 -16.75 18
      vertex 33.25 15.75 18
    endloop
  endfacet
  facet normal -0 0 1
    outer loop
      vertex 6.75 -15.75 18
      vertex 34.25 -16.75 18
      vertex 33.25 -15.75 18
    endloop
  endfacet
  facet normal 0 0 1
    outer loop
      vertex 6.75 -15.75 18
      vertex 5.75 -16.75 18
      vertex 34.25 -16.75 18
    endloop
  endfacet
  facet normal 0 0 1
    outer loop
      vertex 5.75 -16.75 18
      vertex 6.75 -15.75 18
      vertex 5.75 16.75 18
    endloop
  endfacet
  facet normal 1 -0 0
    outer loop
      vertex 34.25 -16.75 18
      vertex 34.25 16.75 16
      vertex 34.25 16.75 18
    endloop
  endfacet
  facet normal 1 0 0
    outer loop
      vertex 34.25 16.75 16
      vertex 34.25 -16.75 18
      vertex 34.25 -16.75 16
    endloop
  endfacet
  facet normal 0 1 -0
    outer loop
      vertex 34.25 16.75 16
      vertex 5.75 16.75 18
      vertex 34.25 16.75 18
    endloop
  endfacet
  facet normal 0 1 0
    outer loop
      vertex 5.75 16.75 18
      vertex 34.25 16.75 16
      vertex 5.75 16.75 16
    endloop
  endfacet
  facet normal 0 -1 0
    outer loop
      vertex 5.75 -16.75 16
      vertex 34.25 -16.75 18
      vertex 5.75 -16.75 18
    endloop
  endfacet
  facet normal 0 -1 -0
    outer loop
      vertex 34.25 -16.75 18
      vertex 5.75 -16.75 16
      vertex 34.25 -16.75 16
    endloop
  endfacet
  facet normal 1 -0 0
    outer loop
      vertex 6.75 -15.75 18
      vertex 6.75 15.75 16
      vertex 6.75 15.75 18
    endloop
  endfacet
  facet normal 1 0 0
    outer loop
      vertex 6.75 15.75 16
      vertex 6.75 -15.75 18
      vertex 6.75 -15.75 16
    endloop
  endfacet
  facet normal -1 0 0
    outer loop
      vertex 33.25 -15.75 16
      vertex 33.25 15.75 18
      vertex 33.25 15.75 16
    endloop
  endfacet
  facet normal -1 -0 0
    outer loop
      vertex 33.25 15.75 18
      vertex 33.25 -15.75 16
      vertex 33.25 -15.75 18
    endloop
  endfacet
  facet normal 0 1 -0
    outer loop
      vertex 33.25 -15.75 16
      vertex 6.75 -15.75 18
      vertex 33.25 -15.75 18
    endloop
  endfacet
  facet normal 0 1 0
    outer loop
      vertex 6.75 -15.75 18
      vertex 33.25 -15.75 16
      vertex 6.75 -15.75 16
    endloop
  endfacet
  facet normal 0 -1 0
    outer loop
      vertex 6.75 15.75 16
      vertex 33.25 15.75 18
      vertex 6.75 15.75 18
    endloop
  endfacet
  facet normal 0 -1 -0
    outer loop
      vertex 33.25 15.75 18
      vertex 6.75 15.75 16
      vertex 33.25 15.75 16
    endloop
  endfacet
  facet normal -0 0 1
    outer loop
      vertex -21.5 18.5 2.5
      vertex 2.5 -18.5 2.5
      vertex 2.5 18.5 2.5
    endloop
  endfacet
  facet normal 0 0 1
    outer loop
      vertex 2.5 -18.5 2.5
      vertex -21.5 18.5 2.5
      vertex -21.5 -18.5 2.5
    endloop
  endfacet
  facet normal 1 -0 0
    outer loop
      vertex 3.5 -17.5 2
      vertex 3.5 17.5 1.5
      vertex 3.5 17.5 2
    endloop
  endfacet
  facet normal 1 0 0
    outer loop
      vertex 3.5 17.5 1.5
      vertex 3.5 -17.5 2
      vertex 3.5 -17.5 1.5
    endloop
  endfacet
  facet normal 0 0 -1
    outer loop
      vertex -20.5 -17.5 1.5
      vertex 3.5 17.5 1.5
      vertex 3.5 -17.5 1.5
    endloop
  endfacet
  facet normal -0 0 -1
    outer loop
      vertex 3.5 17.5 1.5
      vertex -20.5 -17.5 1.5
      vertex -20.5 17.5 1.5
    endloop
  endfacet
endsolid OpenSCAD_Model
