solid OpenSCAD_Model
  facet normal -1 0 0
    outer loop
      vertex -16.2 -72.2 -20
      vertex -16.2 72.2 20
      vertex -16.2 72.2 -20
    endloop
  endfacet
  facet normal -1 -0 0
    outer loop
      vertex -16.2 72.2 20
      vertex -16.2 -72.2 -20
      vertex -16.2 -72.2 20
    endloop
  endfacet
  facet normal 0 0 1
    outer loop
      vertex 16.2 72.2 20
      vertex 15 71 20
      vertex 16.2 -72.2 20
    endloop
  endfacet
  facet normal 0 0 1
    outer loop
      vertex 16.2 72.2 20
      vertex -15 71 20
      vertex 15 71 20
    endloop
  endfacet
  facet normal 0 0 1
    outer loop
      vertex -15 71 20
      vertex -16.2 72.2 20
      vertex -15 -71 20
    endloop
  endfacet
  facet normal -0 0 1
    outer loop
      vertex -16.2 72.2 20
      vertex -15 71 20
      vertex 16.2 72.2 20
    endloop
  endfacet
  facet normal -0 0 1
    outer loop
      vertex 15 -71 20
      vertex 16.2 -72.2 20
      vertex 15 71 20
    endloop
  endfacet
  facet normal -0 0 1
    outer loop
      vertex -15 -71 20
      vertex 16.2 -72.2 20
      vertex 15 -71 20
    endloop
  endfacet
  facet normal 0 0 1
    outer loop
      vertex -15 -71 20
      vertex -16.2 -72.2 20
      vertex 16.2 -72.2 20
    endloop
  endfacet
  facet normal 0 0 1
    outer loop
      vertex -16.2 -72.2 20
      vertex -15 -71 20
      vertex -16.2 72.2 20
    endloop
  endfacet
  facet normal 1 -0 0
    outer loop
      vertex 16.2 -72.2 20
      vertex 16.2 72.2 -20
      vertex 16.2 72.2 20
    endloop
  endfacet
  facet normal 1 0 0
    outer loop
      vertex 16.2 72.2 -20
      vertex 16.2 -72.2 20
      vertex 16.2 -72.2 -20
    endloop
  endfacet
  facet normal 0 1 -0
    outer loop
      vertex 16.2 72.2 -20
      vertex -16.2 72.2 20
      vertex 16.2 72.2 20
    endloop
  endfacet
  facet normal 0 1 0
    outer loop
      vertex -16.2 72.2 20
      vertex 16.2 72.2 -20
      vertex -16.2 72.2 -20
    endloop
  endfacet
  facet normal 0 0 -1
    outer loop
      vertex -16.2 -72.2 -20
      vertex 16.2 72.2 -20
      vertex 16.2 -72.2 -20
    endloop
  endfacet
  facet normal -0 0 -1
    outer loop
      vertex 16.2 72.2 -20
      vertex -16.2 -72.2 -20
      vertex -16.2 72.2 -20
    endloop
  endfacet
  facet normal 0 -1 0
    outer loop
      vertex -16.2 -72.2 -20
      vertex 16.2 -72.2 20
      vertex -16.2 -72.2 20
    endloop
  endfacet
  facet normal 0 -1 -0
    outer loop
      vertex 16.2 -72.2 20
      vertex -16.2 -72.2 -20
      vertex 16.2 -72.2 -20
    endloop
  endfacet
  facet normal 1 -0 0
    outer loop
      vertex -15 -71 20
      vertex -15 71 -18.8
      vertex -15 71 20
    endloop
  endfacet
  facet normal 1 0 0
    outer loop
      vertex -15 71 -18.8
      vertex -15 -71 20
      vertex -15 -71 -18.8
    endloop
  endfacet
  facet normal -1 0 0
    outer loop
      vertex 15 -71 -18.8
      vertex 15 71 20
      vertex 15 71 -18.8
    endloop
  endfacet
  facet normal -1 -0 0
    outer loop
      vertex 15 71 20
      vertex 15 -71 -18.8
      vertex 15 -71 20
    endloop
  endfacet
  facet normal -0 0 1
    outer loop
      vertex -15 71 -18.8
      vertex 15 -71 -18.8
      vertex 15 71 -18.8
    endloop
  endfacet
  facet normal 0 0 1
    outer loop
      vertex 15 -71 -18.8
      vertex -15 71 -18.8
      vertex -15 -71 -18.8
    endloop
  endfacet
  facet normal 0 1 -0
    outer loop
      vertex 15 -71 -18.8
      vertex -15 -71 20
      vertex 15 -71 20
    endloop
  endfacet
  facet normal 0 1 0
    outer loop
      vertex -15 -71 20
      vertex 15 -71 -18.8
      vertex -15 -71 -18.8
    endloop
  endfacet
  facet normal 0 -1 0
    outer loop
      vertex -15 71 -18.8
      vertex 15 71 20
      vertex -15 71 20
    endloop
  endfacet
  facet normal 0 -1 -0
    outer loop
      vertex 15 71 20
      vertex -15 71 -18.8
      vertex 15 71 -18.8
    endloop
  endfacet
endsolid OpenSCAD_Model
