solid OpenSCAD_Model
  facet normal -1 0 0
    outer loop
      vertex -35.2 -15.2 -7.5
      vertex -35.2 15.2 7.5
      vertex -35.2 15.2 -7.5
    endloop
  endfacet
  facet normal -1 -0 0
    outer loop
      vertex -35.2 15.2 7.5
      vertex -35.2 -15.2 -7.5
      vertex -35.2 -15.2 7.5
    endloop
  endfacet
  facet normal 0 0 1
    outer loop
      vertex 35.2 15.2 7.5
      vertex 33.4 13.4 7.5
      vertex 35.2 -15.2 7.5
    endloop
  endfacet
  facet normal 0 0 1
    outer loop
      vertex 35.2 15.2 7.5
      vertex 0.599999 13.4 7.5
      vertex 33.4 13.4 7.5
    endloop
  endfacet
  facet normal 0 0 1
    outer loop
      vertex 0.599999 13.4 7.5
      vertex -0.599999 13.4 7.5
      vertex 0.599999 -13.4 7.5
    endloop
  endfacet
  facet normal 0 0 1
    outer loop
      vertex 35.2 15.2 7.5
      vertex -0.599999 13.4 7.5
      vertex 0.599999 13.4 7.5
    endloop
  endfacet
  facet normal -0 0 1
    outer loop
      vertex -35.2 15.2 7.5
      vertex -0.599999 13.4 7.5
      vertex 35.2 15.2 7.5
    endloop
  endfacet
  facet normal 0 0 1
    outer loop
      vertex -33.4 13.4 7.5
      vertex -35.2 15.2 7.5
      vertex -33.4 -13.4 7.5
    endloop
  endfacet
  facet normal 0 0 1
    outer loop
      vertex -0.599999 13.4 7.5
      vertex -35.2 15.2 7.5
      vertex -33.4 13.4 7.5
    endloop
  endfacet
  facet normal -0 0 1
    outer loop
      vertex 33.4 -13.4 7.5
      vertex 35.2 -15.2 7.5
      vertex 33.4 13.4 7.5
    endloop
  endfacet
  facet normal -0 0 1
    outer loop
      vertex 0.599999 -13.4 7.5
      vertex 35.2 -15.2 7.5
      vertex 33.4 -13.4 7.5
    endloop
  endfacet
  facet normal 0 0 1
    outer loop
      vertex -0.599999 -13.4 7.5
      vertex 0.599999 -13.4 7.5
      vertex -0.599999 13.4 7.5
    endloop
  endfacet
  facet normal -0 0 1
    outer loop
      vertex -0.599999 -13.4 7.5
      vertex 35.2 -15.2 7.5
      vertex 0.599999 -13.4 7.5
    endloop
  endfacet
  facet normal 0 0 1
    outer loop
      vertex -35.2 -15.2 7.5
      vertex -0.599999 -13.4 7.5
      vertex -33.4 -13.4 7.5
    endloop
  endfacet
  facet normal 0 0 1
    outer loop
      vertex -0.599999 -13.4 7.5
      vertex -35.2 -15.2 7.5
      vertex 35.2 -15.2 7.5
    endloop
  endfacet
  facet normal 0 0 1
    outer loop
      vertex -35.2 -15.2 7.5
      vertex -33.4 -13.4 7.5
      vertex -35.2 15.2 7.5
    endloop
  endfacet
  facet normal 1 -0 0
    outer loop
      vertex 35.2 -15.2 7.5
      vertex 35.2 15.2 -7.5
      vertex 35.2 15.2 7.5
    endloop
  endfacet
  facet normal 1 0 0
    outer loop
      vertex 35.2 15.2 -7.5
      vertex 35.2 -15.2 7.5
      vertex 35.2 -15.2 -7.5
    endloop
  endfacet
  facet normal 0 0 -1
    outer loop
      vertex -35.2 -15.2 -7.5
      vertex 35.2 15.2 -7.5
      vertex 35.2 -15.2 -7.5
    endloop
  endfacet
  facet normal -0 0 -1
    outer loop
      vertex 35.2 15.2 -7.5
      vertex -35.2 -15.2 -7.5
      vertex -35.2 15.2 -7.5
    endloop
  endfacet
  facet normal 0 -1 0
    outer loop
      vertex -35.2 -15.2 -7.5
      vertex 35.2 -15.2 7.5
      vertex -35.2 -15.2 7.5
    endloop
  endfacet
  facet normal 0 -1 -0
    outer loop
      vertex 35.2 -15.2 7.5
      vertex -35.2 -15.2 -7.5
      vertex 35.2 -15.2 -7.5
    endloop
  endfacet
  facet normal 0 1 -0
    outer loop
      vertex 35.2 15.2 -7.5
      vertex -35.2 15.2 7.5
      vertex 35.2 15.2 7.5
    endloop
  endfacet
  facet normal 0 1 0
    outer loop
      vertex -35.2 15.2 7.5
      vertex 35.2 15.2 -7.5
      vertex -35.2 15.2 -7.5
    endloop
  endfacet
  facet normal -0 0 1
    outer loop
      vertex -33.4 13.4 -6.3
      vertex -0.599999 -13.4 -6.3
      vertex -0.599999 13.4 -6.3
    endloop
  endfacet
  facet normal 0 0 1
    outer loop
      vertex -0.599999 -13.4 -6.3
      vertex -33.4 13.4 -6.3
      vertex -33.4 -13.4 -6.3
    endloop
  endfacet
  facet normal -0 0 1
    outer loop
      vertex 0.599999 13.4 -6.3
      vertex 33.4 -13.4 -6.3
      vertex 33.4 13.4 -6.3
    endloop
  endfacet
  facet normal 0 0 1
    outer loop
      vertex 33.4 -13.4 -6.3
      vertex 0.599999 13.4 -6.3
      vertex 0.599999 -13.4 -6.3
    endloop
  endfacet
  facet normal 0 1 -0
    outer loop
      vertex -0.599999 -13.4 -6.3
      vertex -33.4 -13.4 7.5
      vertex -0.599999 -13.4 7.5
    endloop
  endfacet
  facet normal 0 1 0
    outer loop
      vertex -33.4 -13.4 7.5
      vertex -0.599999 -13.4 -6.3
      vertex -33.4 -13.4 -6.3
    endloop
  endfacet
  facet normal 0 1 -0
    outer loop
      vertex 33.4 -13.4 -6.3
      vertex 0.599999 -13.4 7.5
      vertex 33.4 -13.4 7.5
    endloop
  endfacet
  facet normal 0 1 0
    outer loop
      vertex 0.599999 -13.4 7.5
      vertex 33.4 -13.4 -6.3
      vertex 0.599999 -13.4 -6.3
    endloop
  endfacet
  facet normal 0 -1 0
    outer loop
      vertex -33.4 13.4 -6.3
      vertex -0.599999 13.4 7.5
      vertex -33.4 13.4 7.5
    endloop
  endfacet
  facet normal 0 -1 -0
    outer loop
      vertex -0.599999 13.4 7.5
      vertex -33.4 13.4 -6.3
      vertex -0.599999 13.4 -6.3
    endloop
  endfacet
  facet normal 0 -1 0
    outer loop
      vertex 0.599999 13.4 -6.3
      vertex 33.4 13.4 7.5
      vertex 0.599999 13.4 7.5
    endloop
  endfacet
  facet normal 0 -1 -0
    outer loop
      vertex 33.4 13.4 7.5
      vertex 0.599999 13.4 -6.3
      vertex 33.4 13.4 -6.3
    endloop
  endfacet
  facet normal 1 -0 0
    outer loop
      vertex -33.4 -13.4 7.5
      vertex -33.4 13.4 -6.3
      vertex -33.4 13.4 7.5
    endloop
  endfacet
  facet normal 1 0 0
    outer loop
      vertex -33.4 13.4 -6.3
      vertex -33.4 -13.4 7.5
      vertex -33.4 -13.4 -6.3
    endloop
  endfacet
  facet normal -1 0 0
    outer loop
      vertex -0.599999 -13.4 -6.3
      vertex -0.599999 13.4 7.5
      vertex -0.599999 13.4 -6.3
    endloop
  endfacet
  facet normal -1 -0 0
    outer loop
      vertex -0.599999 13.4 7.5
      vertex -0.599999 -13.4 -6.3
      vertex -0.599999 -13.4 7.5
    endloop
  endfacet
  facet normal 1 -0 0
    outer loop
      vertex 0.599999 -13.4 7.5
      vertex 0.599999 13.4 -6.3
      vertex 0.599999 13.4 7.5
    endloop
  endfacet
  facet normal 1 0 0
    outer loop
      vertex 0.599999 13.4 -6.3
      vertex 0.599999 -13.4 7.5
      vertex 0.599999 -13.4 -6.3
    endloop
  endfacet
  facet normal -1 0 0
    outer loop
      vertex 33.4 -13.4 -6.3
      vertex 33.4 13.4 7.5
      vertex 33.4 13.4 -6.3
    endloop
  endfacet
  facet normal -1 -0 0
    outer loop
      vertex 33.4 13.4 7.5
      vertex 33.4 -13.4 -6.3
      vertex 33.4 -13.4 7.5
    endloop
  endfacet
endsolid OpenSCAD_Model
