solid OpenSCAD_Model
  facet normal -1 0 0
    outer loop
      vertex -20.2 -72.2 -12.5
      vertex -20.2 72.2 12.5
      vertex -20.2 72.2 -12.5
    endloop
  endfacet
  facet normal -1 -0 0
    outer loop
      vertex -20.2 72.2 12.5
      vertex -20.2 -72.2 -12.5
      vertex -20.2 -72.2 12.5
    endloop
  endfacet
  facet normal 0 0 1
    outer loop
      vertex 20.2 72.2 12.5
      vertex 19 71 12.5
      vertex 20.2 -72.2 12.5
    endloop
  endfacet
  facet normal 0 0 1
    outer loop
      vertex 20.2 72.2 12.5
      vertex -19 71 12.5
      vertex 19 71 12.5
    endloop
  endfacet
  facet normal 0 0 1
    outer loop
      vertex -19 71 12.5
      vertex -20.2 72.2 12.5
      vertex -19 -71 12.5
    endloop
  endfacet
  facet normal -0 0 1
    outer loop
      vertex -20.2 72.2 12.5
      vertex -19 71 12.5
      vertex 20.2 72.2 12.5
    endloop
  endfacet
  facet normal -0 0 1
    outer loop
      vertex 19 -71 12.5
      vertex 20.2 -72.2 12.5
      vertex 19 71 12.5
    endloop
  endfacet
  facet normal -0 0 1
    outer loop
      vertex -19 -71 12.5
      vertex 20.2 -72.2 12.5
      vertex 19 -71 12.5
    endloop
  endfacet
  facet normal 0 0 1
    outer loop
      vertex -19 -71 12.5
      vertex -20.2 -72.2 12.5
      vertex 20.2 -72.2 12.5
    endloop
  endfacet
  facet normal 0 0 1
    outer loop
      vertex -20.2 -72.2 12.5
      vertex -19 -71 12.5
      vertex -20.2 72.2 12.5
    endloop
  endfacet
  facet normal 1 -0 0
    outer loop
      vertex 20.2 -72.2 12.5
      vertex 20.2 72.2 -12.5
      vertex 20.2 72.2 12.5
    endloop
  endfacet
  facet normal 1 0 0
    outer loop
      vertex 20.2 72.2 -12.5
      vertex 20.2 -72.2 12.5
      vertex 20.2 -72.2 -12.5
    endloop
  endfacet
  facet normal 0 0 -1
    outer loop
      vertex -20.2 -72.2 -12.5
      vertex 20.2 72.2 -12.5
      vertex 20.2 -72.2 -12.5
    endloop
  endfacet
  facet normal -0 0 -1
    outer loop
      vertex 20.2 72.2 -12.5
      vertex -20.2 -72.2 -12.5
      vertex -20.2 72.2 -12.5
    endloop
  endfacet
  facet normal 0 -1 0
    outer loop
      vertex -20.2 -72.2 -12.5
      vertex 20.2 -72.2 12.5
      vertex -20.2 -72.2 12.5
    endloop
  endfacet
  facet normal 0 -1 -0
    outer loop
      vertex 20.2 -72.2 12.5
      vertex -20.2 -72.2 -12.5
      vertex 20.2 -72.2 -12.5
    endloop
  endfacet
  facet normal 0 1 -0
    outer loop
      vertex 20.2 72.2 -12.5
      vertex -20.2 72.2 12.5
      vertex 20.2 72.2 12.5
    endloop
  endfacet
  facet normal 0 1 0
    outer loop
      vertex -20.2 72.2 12.5
      vertex 20.2 72.2 -12.5
      vertex -20.2 72.2 -12.5
    endloop
  endfacet
  facet normal 1 -0 0
    outer loop
      vertex -19 -71 12.5
      vertex -19 71 -11.3
      vertex -19 71 12.5
    endloop
  endfacet
  facet normal 1 0 0
    outer loop
      vertex -19 71 -11.3
      vertex -19 -71 12.5
      vertex -19 -71 -11.3
    endloop
  endfacet
  facet normal -1 0 0
    outer loop
      vertex 19 -71 -11.3
      vertex 19 71 12.5
      vertex 19 71 -11.3
    endloop
  endfacet
  facet normal -1 -0 0
    outer loop
      vertex 19 71 12.5
      vertex 19 -71 -11.3
      vertex 19 -71 12.5
    endloop
  endfacet
  facet normal -0 0 1
    outer loop
      vertex -19 71 -11.3
      vertex 19 -71 -11.3
      vertex 19 71 -11.3
    endloop
  endfacet
  facet normal 0 0 1
    outer loop
      vertex 19 -71 -11.3
      vertex -19 71 -11.3
      vertex -19 -71 -11.3
    endloop
  endfacet
  facet normal 0 1 -0
    outer loop
      vertex 19 -71 -11.3
      vertex -19 -71 12.5
      vertex 19 -71 12.5
    endloop
  endfacet
  facet normal 0 1 0
    outer loop
      vertex -19 -71 12.5
      vertex 19 -71 -11.3
      vertex -19 -71 -11.3
    endloop
  endfacet
  facet normal 0 -1 0
    outer loop
      vertex -19 71 -11.3
      vertex 19 71 12.5
      vertex -19 71 12.5
    endloop
  endfacet
  facet normal 0 -1 -0
    outer loop
      vertex 19 71 12.5
      vertex -19 71 -11.3
      vertex 19 71 -11.3
    endloop
  endfacet
endsolid OpenSCAD_Model
