solid OpenSCAD_Model
  facet normal -1 0 0
    outer loop
      vertex 94.825 22.575 -1.5
      vertex 94.825 31.425 1.5
      vertex 94.825 31.425 -1.5
    endloop
  endfacet
  facet normal -1 -0 0
    outer loop
      vertex 94.825 31.425 1.5
      vertex 94.825 22.575 -1.5
      vertex 94.825 22.575 1.5
    endloop
  endfacet
  facet normal 0 0 1
    outer loop
      vertex 103.675 31.425 1.5
      vertex 103.125 30.875 1.5
      vertex 103.675 22.575 1.5
    endloop
  endfacet
  facet normal 0 0 1
    outer loop
      vertex 103.675 31.425 1.5
      vertex 95.375 30.875 1.5
      vertex 103.125 30.875 1.5
    endloop
  endfacet
  facet normal 0 0 1
    outer loop
      vertex 95.375 30.875 1.5
      vertex 94.825 31.425 1.5
      vertex 95.375 23.125 1.5
    endloop
  endfacet
  facet normal -0 0 1
    outer loop
      vertex 94.825 31.425 1.5
      vertex 95.375 30.875 1.5
      vertex 103.675 31.425 1.5
    endloop
  endfacet
  facet normal -0 0 1
    outer loop
      vertex 103.125 23.125 1.5
      vertex 103.675 22.575 1.5
      vertex 103.125 30.875 1.5
    endloop
  endfacet
  facet normal -0 0 1
    outer loop
      vertex 95.375 23.125 1.5
      vertex 103.675 22.575 1.5
      vertex 103.125 23.125 1.5
    endloop
  endfacet
  facet normal 0 0 1
    outer loop
      vertex 95.375 23.125 1.5
      vertex 94.825 22.575 1.5
      vertex 103.675 22.575 1.5
    endloop
  endfacet
  facet normal 0 0 1
    outer loop
      vertex 94.825 22.575 1.5
      vertex 95.375 23.125 1.5
      vertex 94.825 31.425 1.5
    endloop
  endfacet
  facet normal 1 -0 0
    outer loop
      vertex 103.675 22.575 1.5
      vertex 103.675 31.425 -1.5
      vertex 103.675 31.425 1.5
    endloop
  endfacet
  facet normal 1 0 0
    outer loop
      vertex 103.675 31.425 -1.5
      vertex 103.675 22.575 1.5
      vertex 103.675 22.575 -1.5
    endloop
  endfacet
  facet normal 0 1 -0
    outer loop
      vertex 103.675 31.425 -1.5
      vertex 94.825 31.425 1.5
      vertex 103.675 31.425 1.5
    endloop
  endfacet
  facet normal 0 1 0
    outer loop
      vertex 94.825 31.425 1.5
      vertex 103.675 31.425 -1.5
      vertex 94.825 31.425 -1.5
    endloop
  endfacet
  facet normal 0 0 -1
    outer loop
      vertex 103.675 22.575 -1.5
      vertex 103.125 23.125 -1.5
      vertex 103.675 31.425 -1.5
    endloop
  endfacet
  facet normal 0 0 -1
    outer loop
      vertex 103.675 22.575 -1.5
      vertex 95.375 23.125 -1.5
      vertex 103.125 23.125 -1.5
    endloop
  endfacet
  facet normal -0 0 -1
    outer loop
      vertex 95.375 23.125 -1.5
      vertex 94.825 22.575 -1.5
      vertex 95.375 30.875 -1.5
    endloop
  endfacet
  facet normal 0 0 -1
    outer loop
      vertex 94.825 22.575 -1.5
      vertex 95.375 23.125 -1.5
      vertex 103.675 22.575 -1.5
    endloop
  endfacet
  facet normal 0 0 -1
    outer loop
      vertex 103.125 30.875 -1.5
      vertex 103.675 31.425 -1.5
      vertex 103.125 23.125 -1.5
    endloop
  endfacet
  facet normal 0 0 -1
    outer loop
      vertex 95.375 30.875 -1.5
      vertex 103.675 31.425 -1.5
      vertex 103.125 30.875 -1.5
    endloop
  endfacet
  facet normal 0 0 -1
    outer loop
      vertex 95.375 30.875 -1.5
      vertex 94.825 31.425 -1.5
      vertex 103.675 31.425 -1.5
    endloop
  endfacet
  facet normal 0 0 -1
    outer loop
      vertex 94.825 31.425 -1.5
      vertex 95.375 30.875 -1.5
      vertex 94.825 22.575 -1.5
    endloop
  endfacet
  facet normal 0 -1 0
    outer loop
      vertex 94.825 22.575 -1.5
      vertex 103.675 22.575 1.5
      vertex 94.825 22.575 1.5
    endloop
  endfacet
  facet normal 0 -1 -0
    outer loop
      vertex 103.675 22.575 1.5
      vertex 94.825 22.575 -1.5
      vertex 103.675 22.575 -1.5
    endloop
  endfacet
  facet normal -1 0 0
    outer loop
      vertex 95.375 23.125 1.5
      vertex 95.375 30.875 3
      vertex 95.375 30.875 1.5
    endloop
  endfacet
  facet normal -1 -0 0
    outer loop
      vertex 95.375 30.875 3
      vertex 95.375 23.125 1.5
      vertex 95.375 23.125 3
    endloop
  endfacet
  facet normal -0 0 1
    outer loop
      vertex 95.375 30.875 3
      vertex 103.125 23.125 3
      vertex 103.125 30.875 3
    endloop
  endfacet
  facet normal 0 0 1
    outer loop
      vertex 103.125 23.125 3
      vertex 95.375 30.875 3
      vertex 95.375 23.125 3
    endloop
  endfacet
  facet normal 1 -0 0
    outer loop
      vertex 103.125 23.125 3
      vertex 103.125 30.875 1.5
      vertex 103.125 30.875 3
    endloop
  endfacet
  facet normal 1 0 0
    outer loop
      vertex 103.125 30.875 1.5
      vertex 103.125 23.125 3
      vertex 103.125 23.125 1.5
    endloop
  endfacet
  facet normal 0 1 -0
    outer loop
      vertex 103.125 30.875 1.5
      vertex 95.375 30.875 3
      vertex 103.125 30.875 3
    endloop
  endfacet
  facet normal 0 1 0
    outer loop
      vertex 95.375 30.875 3
      vertex 103.125 30.875 1.5
      vertex 95.375 30.875 1.5
    endloop
  endfacet
  facet normal 0 -1 0
    outer loop
      vertex 95.375 23.125 1.5
      vertex 103.125 23.125 3
      vertex 95.375 23.125 3
    endloop
  endfacet
  facet normal 0 -1 -0
    outer loop
      vertex 103.125 23.125 3
      vertex 95.375 23.125 1.5
      vertex 103.125 23.125 1.5
    endloop
  endfacet
  facet normal -1 0 0
    outer loop
      vertex 95.375 23.125 -3
      vertex 95.375 30.875 -1.5
      vertex 95.375 30.875 -3
    endloop
  endfacet
  facet normal -1 -0 0
    outer loop
      vertex 95.375 30.875 -1.5
      vertex 95.375 23.125 -3
      vertex 95.375 23.125 -1.5
    endloop
  endfacet
  facet normal 1 -0 0
    outer loop
      vertex 103.125 23.125 -1.5
      vertex 103.125 30.875 -3
      vertex 103.125 30.875 -1.5
    endloop
  endfacet
  facet normal 1 0 0
    outer loop
      vertex 103.125 30.875 -3
      vertex 103.125 23.125 -1.5
      vertex 103.125 23.125 -3
    endloop
  endfacet
  facet normal 0 1 -0
    outer loop
      vertex 103.125 30.875 -3
      vertex 95.375 30.875 -1.5
      vertex 103.125 30.875 -1.5
    endloop
  endfacet
  facet normal 0 1 0
    outer loop
      vertex 95.375 30.875 -1.5
      vertex 103.125 30.875 -3
      vertex 95.375 30.875 -3
    endloop
  endfacet
  facet normal 0 0 -1
    outer loop
      vertex 95.375 23.125 -3
      vertex 103.125 30.875 -3
      vertex 103.125 23.125 -3
    endloop
  endfacet
  facet normal -0 0 -1
    outer loop
      vertex 103.125 30.875 -3
      vertex 95.375 23.125 -3
      vertex 95.375 30.875 -3
    endloop
  endfacet
  facet normal 0 -1 0
    outer loop
      vertex 95.375 23.125 -3
      vertex 103.125 23.125 -1.5
      vertex 95.375 23.125 -1.5
    endloop
  endfacet
  facet normal 0 -1 -0
    outer loop
      vertex 103.125 23.125 -1.5
      vertex 95.375 23.125 -3
      vertex 103.125 23.125 -3
    endloop
  endfacet
  facet normal -1 0 0
    outer loop
      vertex 85.825 22.575 -1.5
      vertex 85.825 31.425 1.5
      vertex 85.825 31.425 -1.5
    endloop
  endfacet
  facet normal -1 -0 0
    outer loop
      vertex 85.825 31.425 1.5
      vertex 85.825 22.575 -1.5
      vertex 85.825 22.575 1.5
    endloop
  endfacet
  facet normal 0 0 1
    outer loop
      vertex 94.675 31.425 1.5
      vertex 94.125 30.875 1.5
      vertex 94.675 22.575 1.5
    endloop
  endfacet
  facet normal 0 0 1
    outer loop
      vertex 94.675 31.425 1.5
      vertex 86.375 30.875 1.5
      vertex 94.125 30.875 1.5
    endloop
  endfacet
  facet normal 0 0 1
    outer loop
      vertex 86.375 30.875 1.5
      vertex 85.825 31.425 1.5
      vertex 86.375 23.125 1.5
    endloop
  endfacet
  facet normal -0 0 1
    outer loop
      vertex 85.825 31.425 1.5
      vertex 86.375 30.875 1.5
      vertex 94.675 31.425 1.5
    endloop
  endfacet
  facet normal -0 0 1
    outer loop
      vertex 94.125 23.125 1.5
      vertex 94.675 22.575 1.5
      vertex 94.125 30.875 1.5
    endloop
  endfacet
  facet normal -0 0 1
    outer loop
      vertex 86.375 23.125 1.5
      vertex 94.675 22.575 1.5
      vertex 94.125 23.125 1.5
    endloop
  endfacet
  facet normal 0 0 1
    outer loop
      vertex 86.375 23.125 1.5
      vertex 85.825 22.575 1.5
      vertex 94.675 22.575 1.5
    endloop
  endfacet
  facet normal 0 0 1
    outer loop
      vertex 85.825 22.575 1.5
      vertex 86.375 23.125 1.5
      vertex 85.825 31.425 1.5
    endloop
  endfacet
  facet normal 1 -0 0
    outer loop
      vertex 94.675 22.575 1.5
      vertex 94.675 31.425 -1.5
      vertex 94.675 31.425 1.5
    endloop
  endfacet
  facet normal 1 0 0
    outer loop
      vertex 94.675 31.425 -1.5
      vertex 94.675 22.575 1.5
      vertex 94.675 22.575 -1.5
    endloop
  endfacet
  facet normal 0 1 -0
    outer loop
      vertex 94.675 31.425 -1.5
      vertex 85.825 31.425 1.5
      vertex 94.675 31.425 1.5
    endloop
  endfacet
  facet normal 0 1 0
    outer loop
      vertex 85.825 31.425 1.5
      vertex 94.675 31.425 -1.5
      vertex 85.825 31.425 -1.5
    endloop
  endfacet
  facet normal 0 0 -1
    outer loop
      vertex 94.675 22.575 -1.5
      vertex 94.125 23.125 -1.5
      vertex 94.675 31.425 -1.5
    endloop
  endfacet
  facet normal 0 0 -1
    outer loop
      vertex 94.675 22.575 -1.5
      vertex 86.375 23.125 -1.5
      vertex 94.125 23.125 -1.5
    endloop
  endfacet
  facet normal -0 0 -1
    outer loop
      vertex 86.375 23.125 -1.5
      vertex 85.825 22.575 -1.5
      vertex 86.375 30.875 -1.5
    endloop
  endfacet
  facet normal 0 0 -1
    outer loop
      vertex 85.825 22.575 -1.5
      vertex 86.375 23.125 -1.5
      vertex 94.675 22.575 -1.5
    endloop
  endfacet
  facet normal 0 0 -1
    outer loop
      vertex 94.125 30.875 -1.5
      vertex 94.675 31.425 -1.5
      vertex 94.125 23.125 -1.5
    endloop
  endfacet
  facet normal 0 0 -1
    outer loop
      vertex 86.375 30.875 -1.5
      vertex 94.675 31.425 -1.5
      vertex 94.125 30.875 -1.5
    endloop
  endfacet
  facet normal 0 0 -1
    outer loop
      vertex 86.375 30.875 -1.5
      vertex 85.825 31.425 -1.5
      vertex 94.675 31.425 -1.5
    endloop
  endfacet
  facet normal 0 0 -1
    outer loop
      vertex 85.825 31.425 -1.5
      vertex 86.375 30.875 -1.5
      vertex 85.825 22.575 -1.5
    endloop
  endfacet
  facet normal 0 -1 0
    outer loop
      vertex 85.825 22.575 -1.5
      vertex 94.675 22.575 1.5
      vertex 85.825 22.575 1.5
    endloop
  endfacet
  facet normal 0 -1 -0
    outer loop
      vertex 94.675 22.575 1.5
      vertex 85.825 22.575 -1.5
      vertex 94.675 22.575 -1.5
    endloop
  endfacet
  facet normal -1 0 0
    outer loop
      vertex 86.375 23.125 1.5
      vertex 86.375 30.875 3
      vertex 86.375 30.875 1.5
    endloop
  endfacet
  facet normal -1 -0 0
    outer loop
      vertex 86.375 30.875 3
      vertex 86.375 23.125 1.5
      vertex 86.375 23.125 3
    endloop
  endfacet
  facet normal -0 0 1
    outer loop
      vertex 86.375 30.875 3
      vertex 94.125 23.125 3
      vertex 94.125 30.875 3
    endloop
  endfacet
  facet normal 0 0 1
    outer loop
      vertex 94.125 23.125 3
      vertex 86.375 30.875 3
      vertex 86.375 23.125 3
    endloop
  endfacet
  facet normal 1 -0 0
    outer loop
      vertex 94.125 23.125 3
      vertex 94.125 30.875 1.5
      vertex 94.125 30.875 3
    endloop
  endfacet
  facet normal 1 0 0
    outer loop
      vertex 94.125 30.875 1.5
      vertex 94.125 23.125 3
      vertex 94.125 23.125 1.5
    endloop
  endfacet
  facet normal 0 1 -0
    outer loop
      vertex 94.125 30.875 1.5
      vertex 86.375 30.875 3
      vertex 94.125 30.875 3
    endloop
  endfacet
  facet normal 0 1 0
    outer loop
      vertex 86.375 30.875 3
      vertex 94.125 30.875 1.5
      vertex 86.375 30.875 1.5
    endloop
  endfacet
  facet normal 0 -1 0
    outer loop
      vertex 86.375 23.125 1.5
      vertex 94.125 23.125 3
      vertex 86.375 23.125 3
    endloop
  endfacet
  facet normal 0 -1 -0
    outer loop
      vertex 94.125 23.125 3
      vertex 86.375 23.125 1.5
      vertex 94.125 23.125 1.5
    endloop
  endfacet
  facet normal -1 0 0
    outer loop
      vertex 86.375 23.125 -3
      vertex 86.375 30.875 -1.5
      vertex 86.375 30.875 -3
    endloop
  endfacet
  facet normal -1 -0 0
    outer loop
      vertex 86.375 30.875 -1.5
      vertex 86.375 23.125 -3
      vertex 86.375 23.125 -1.5
    endloop
  endfacet
  facet normal 1 -0 0
    outer loop
      vertex 94.125 23.125 -1.5
      vertex 94.125 30.875 -3
      vertex 94.125 30.875 -1.5
    endloop
  endfacet
  facet normal 1 0 0
    outer loop
      vertex 94.125 30.875 -3
      vertex 94.125 23.125 -1.5
      vertex 94.125 23.125 -3
    endloop
  endfacet
  facet normal 0 1 -0
    outer loop
      vertex 94.125 30.875 -3
      vertex 86.375 30.875 -1.5
      vertex 94.125 30.875 -1.5
    endloop
  endfacet
  facet normal 0 1 0
    outer loop
      vertex 86.375 30.875 -1.5
      vertex 94.125 30.875 -3
      vertex 86.375 30.875 -3
    endloop
  endfacet
  facet normal 0 0 -1
    outer loop
      vertex 86.375 23.125 -3
      vertex 94.125 30.875 -3
      vertex 94.125 23.125 -3
    endloop
  endfacet
  facet normal -0 0 -1
    outer loop
      vertex 94.125 30.875 -3
      vertex 86.375 23.125 -3
      vertex 86.375 30.875 -3
    endloop
  endfacet
  facet normal 0 -1 0
    outer loop
      vertex 86.375 23.125 -3
      vertex 94.125 23.125 -1.5
      vertex 86.375 23.125 -1.5
    endloop
  endfacet
  facet normal 0 -1 -0
    outer loop
      vertex 94.125 23.125 -1.5
      vertex 86.375 23.125 -3
      vertex 94.125 23.125 -3
    endloop
  endfacet
  facet normal -1 0 0
    outer loop
      vertex 103.825 31.575 -1.5
      vertex 103.825 40.425 1.5
      vertex 103.825 40.425 -1.5
    endloop
  endfacet
  facet normal -1 -0 0
    outer loop
      vertex 103.825 40.425 1.5
      vertex 103.825 31.575 -1.5
      vertex 103.825 31.575 1.5
    endloop
  endfacet
  facet normal 0 0 1
    outer loop
      vertex 112.675 40.425 1.5
      vertex 112.125 39.875 1.5
      vertex 112.675 31.575 1.5
    endloop
  endfacet
  facet normal 0 0 1
    outer loop
      vertex 112.675 40.425 1.5
      vertex 104.375 39.875 1.5
      vertex 112.125 39.875 1.5
    endloop
  endfacet
  facet normal 0 0 1
    outer loop
      vertex 104.375 39.875 1.5
      vertex 103.825 40.425 1.5
      vertex 104.375 32.125 1.5
    endloop
  endfacet
  facet normal -0 0 1
    outer loop
      vertex 103.825 40.425 1.5
      vertex 104.375 39.875 1.5
      vertex 112.675 40.425 1.5
    endloop
  endfacet
  facet normal -0 0 1
    outer loop
      vertex 112.125 32.125 1.5
      vertex 112.675 31.575 1.5
      vertex 112.125 39.875 1.5
    endloop
  endfacet
  facet normal -0 0 1
    outer loop
      vertex 104.375 32.125 1.5
      vertex 112.675 31.575 1.5
      vertex 112.125 32.125 1.5
    endloop
  endfacet
  facet normal 0 0 1
    outer loop
      vertex 104.375 32.125 1.5
      vertex 103.825 31.575 1.5
      vertex 112.675 31.575 1.5
    endloop
  endfacet
  facet normal 0 0 1
    outer loop
      vertex 103.825 31.575 1.5
      vertex 104.375 32.125 1.5
      vertex 103.825 40.425 1.5
    endloop
  endfacet
  facet normal 1 -0 0
    outer loop
      vertex 112.675 31.575 1.5
      vertex 112.675 40.425 -1.5
      vertex 112.675 40.425 1.5
    endloop
  endfacet
  facet normal 1 0 0
    outer loop
      vertex 112.675 40.425 -1.5
      vertex 112.675 31.575 1.5
      vertex 112.675 31.575 -1.5
    endloop
  endfacet
  facet normal 0 1 -0
    outer loop
      vertex 112.675 40.425 -1.5
      vertex 103.825 40.425 1.5
      vertex 112.675 40.425 1.5
    endloop
  endfacet
  facet normal 0 1 0
    outer loop
      vertex 103.825 40.425 1.5
      vertex 112.675 40.425 -1.5
      vertex 103.825 40.425 -1.5
    endloop
  endfacet
  facet normal 0 0 -1
    outer loop
      vertex 112.675 31.575 -1.5
      vertex 112.125 32.125 -1.5
      vertex 112.675 40.425 -1.5
    endloop
  endfacet
  facet normal 0 0 -1
    outer loop
      vertex 112.675 31.575 -1.5
      vertex 104.375 32.125 -1.5
      vertex 112.125 32.125 -1.5
    endloop
  endfacet
  facet normal -0 0 -1
    outer loop
      vertex 104.375 32.125 -1.5
      vertex 103.825 31.575 -1.5
      vertex 104.375 39.875 -1.5
    endloop
  endfacet
  facet normal 0 0 -1
    outer loop
      vertex 103.825 31.575 -1.5
      vertex 104.375 32.125 -1.5
      vertex 112.675 31.575 -1.5
    endloop
  endfacet
  facet normal 0 0 -1
    outer loop
      vertex 112.125 39.875 -1.5
      vertex 112.675 40.425 -1.5
      vertex 112.125 32.125 -1.5
    endloop
  endfacet
  facet normal 0 0 -1
    outer loop
      vertex 104.375 39.875 -1.5
      vertex 112.675 40.425 -1.5
      vertex 112.125 39.875 -1.5
    endloop
  endfacet
  facet normal 0 0 -1
    outer loop
      vertex 104.375 39.875 -1.5
      vertex 103.825 40.425 -1.5
      vertex 112.675 40.425 -1.5
    endloop
  endfacet
  facet normal 0 0 -1
    outer loop
      vertex 103.825 40.425 -1.5
      vertex 104.375 39.875 -1.5
      vertex 103.825 31.575 -1.5
    endloop
  endfacet
  facet normal 0 -1 0
    outer loop
      vertex 103.825 31.575 -1.5
      vertex 112.675 31.575 1.5
      vertex 103.825 31.575 1.5
    endloop
  endfacet
  facet normal 0 -1 -0
    outer loop
      vertex 112.675 31.575 1.5
      vertex 103.825 31.575 -1.5
      vertex 112.675 31.575 -1.5
    endloop
  endfacet
  facet normal -1 0 0
    outer loop
      vertex 104.375 32.125 1.5
      vertex 104.375 39.875 3
      vertex 104.375 39.875 1.5
    endloop
  endfacet
  facet normal -1 -0 0
    outer loop
      vertex 104.375 39.875 3
      vertex 104.375 32.125 1.5
      vertex 104.375 32.125 3
    endloop
  endfacet
  facet normal -0 0 1
    outer loop
      vertex 104.375 39.875 3
      vertex 112.125 32.125 3
      vertex 112.125 39.875 3
    endloop
  endfacet
  facet normal 0 0 1
    outer loop
      vertex 112.125 32.125 3
      vertex 104.375 39.875 3
      vertex 104.375 32.125 3
    endloop
  endfacet
  facet normal 1 -0 0
    outer loop
      vertex 112.125 32.125 3
      vertex 112.125 39.875 1.5
      vertex 112.125 39.875 3
    endloop
  endfacet
  facet normal 1 0 0
    outer loop
      vertex 112.125 39.875 1.5
      vertex 112.125 32.125 3
      vertex 112.125 32.125 1.5
    endloop
  endfacet
  facet normal 0 1 -0
    outer loop
      vertex 112.125 39.875 1.5
      vertex 104.375 39.875 3
      vertex 112.125 39.875 3
    endloop
  endfacet
  facet normal 0 1 0
    outer loop
      vertex 104.375 39.875 3
      vertex 112.125 39.875 1.5
      vertex 104.375 39.875 1.5
    endloop
  endfacet
  facet normal 0 -1 0
    outer loop
      vertex 104.375 32.125 1.5
      vertex 112.125 32.125 3
      vertex 104.375 32.125 3
    endloop
  endfacet
  facet normal 0 -1 -0
    outer loop
      vertex 112.125 32.125 3
      vertex 104.375 32.125 1.5
      vertex 112.125 32.125 1.5
    endloop
  endfacet
  facet normal -1 0 0
    outer loop
      vertex 104.375 32.125 -3
      vertex 104.375 39.875 -1.5
      vertex 104.375 39.875 -3
    endloop
  endfacet
  facet normal -1 -0 0
    outer loop
      vertex 104.375 39.875 -1.5
      vertex 104.375 32.125 -3
      vertex 104.375 32.125 -1.5
    endloop
  endfacet
  facet normal 1 -0 0
    outer loop
      vertex 112.125 32.125 -1.5
      vertex 112.125 39.875 -3
      vertex 112.125 39.875 -1.5
    endloop
  endfacet
  facet normal 1 0 0
    outer loop
      vertex 112.125 39.875 -3
      vertex 112.125 32.125 -1.5
      vertex 112.125 32.125 -3
    endloop
  endfacet
  facet normal 0 1 -0
    outer loop
      vertex 112.125 39.875 -3
      vertex 104.375 39.875 -1.5
      vertex 112.125 39.875 -1.5
    endloop
  endfacet
  facet normal 0 1 0
    outer loop
      vertex 104.375 39.875 -1.5
      vertex 112.125 39.875 -3
      vertex 104.375 39.875 -3
    endloop
  endfacet
  facet normal 0 0 -1
    outer loop
      vertex 104.375 32.125 -3
      vertex 112.125 39.875 -3
      vertex 112.125 32.125 -3
    endloop
  endfacet
  facet normal -0 0 -1
    outer loop
      vertex 112.125 39.875 -3
      vertex 104.375 32.125 -3
      vertex 104.375 39.875 -3
    endloop
  endfacet
  facet normal 0 -1 0
    outer loop
      vertex 104.375 32.125 -3
      vertex 112.125 32.125 -1.5
      vertex 104.375 32.125 -1.5
    endloop
  endfacet
  facet normal 0 -1 -0
    outer loop
      vertex 112.125 32.125 -1.5
      vertex 104.375 32.125 -3
      vertex 112.125 32.125 -3
    endloop
  endfacet
  facet normal -1 0 0
    outer loop
      vertex 94.825 31.575 -1.5
      vertex 94.825 40.425 1.5
      vertex 94.825 40.425 -1.5
    endloop
  endfacet
  facet normal -1 -0 0
    outer loop
      vertex 94.825 40.425 1.5
      vertex 94.825 31.575 -1.5
      vertex 94.825 31.575 1.5
    endloop
  endfacet
  facet normal 0 0 1
    outer loop
      vertex 103.675 40.425 1.5
      vertex 103.125 39.875 1.5
      vertex 103.675 31.575 1.5
    endloop
  endfacet
  facet normal 0 0 1
    outer loop
      vertex 103.675 40.425 1.5
      vertex 95.375 39.875 1.5
      vertex 103.125 39.875 1.5
    endloop
  endfacet
  facet normal 0 0 1
    outer loop
      vertex 95.375 39.875 1.5
      vertex 94.825 40.425 1.5
      vertex 95.375 32.125 1.5
    endloop
  endfacet
  facet normal -0 0 1
    outer loop
      vertex 94.825 40.425 1.5
      vertex 95.375 39.875 1.5
      vertex 103.675 40.425 1.5
    endloop
  endfacet
  facet normal -0 0 1
    outer loop
      vertex 103.125 32.125 1.5
      vertex 103.675 31.575 1.5
      vertex 103.125 39.875 1.5
    endloop
  endfacet
  facet normal -0 0 1
    outer loop
      vertex 95.375 32.125 1.5
      vertex 103.675 31.575 1.5
      vertex 103.125 32.125 1.5
    endloop
  endfacet
  facet normal 0 0 1
    outer loop
      vertex 95.375 32.125 1.5
      vertex 94.825 31.575 1.5
      vertex 103.675 31.575 1.5
    endloop
  endfacet
  facet normal 0 0 1
    outer loop
      vertex 94.825 31.575 1.5
      vertex 95.375 32.125 1.5
      vertex 94.825 40.425 1.5
    endloop
  endfacet
  facet normal 1 -0 0
    outer loop
      vertex 103.675 31.575 1.5
      vertex 103.675 40.425 -1.5
      vertex 103.675 40.425 1.5
    endloop
  endfacet
  facet normal 1 0 0
    outer loop
      vertex 103.675 40.425 -1.5
      vertex 103.675 31.575 1.5
      vertex 103.675 31.575 -1.5
    endloop
  endfacet
  facet normal 0 1 -0
    outer loop
      vertex 103.675 40.425 -1.5
      vertex 94.825 40.425 1.5
      vertex 103.675 40.425 1.5
    endloop
  endfacet
  facet normal 0 1 0
    outer loop
      vertex 94.825 40.425 1.5
      vertex 103.675 40.425 -1.5
      vertex 94.825 40.425 -1.5
    endloop
  endfacet
  facet normal 0 0 -1
    outer loop
      vertex 103.675 31.575 -1.5
      vertex 103.125 32.125 -1.5
      vertex 103.675 40.425 -1.5
    endloop
  endfacet
  facet normal 0 0 -1
    outer loop
      vertex 103.675 31.575 -1.5
      vertex 95.375 32.125 -1.5
      vertex 103.125 32.125 -1.5
    endloop
  endfacet
  facet normal -0 0 -1
    outer loop
      vertex 95.375 32.125 -1.5
      vertex 94.825 31.575 -1.5
      vertex 95.375 39.875 -1.5
    endloop
  endfacet
  facet normal 0 0 -1
    outer loop
      vertex 94.825 31.575 -1.5
      vertex 95.375 32.125 -1.5
      vertex 103.675 31.575 -1.5
    endloop
  endfacet
  facet normal 0 0 -1
    outer loop
      vertex 103.125 39.875 -1.5
      vertex 103.675 40.425 -1.5
      vertex 103.125 32.125 -1.5
    endloop
  endfacet
  facet normal 0 0 -1
    outer loop
      vertex 95.375 39.875 -1.5
      vertex 103.675 40.425 -1.5
      vertex 103.125 39.875 -1.5
    endloop
  endfacet
  facet normal 0 0 -1
    outer loop
      vertex 95.375 39.875 -1.5
      vertex 94.825 40.425 -1.5
      vertex 103.675 40.425 -1.5
    endloop
  endfacet
  facet normal 0 0 -1
    outer loop
      vertex 94.825 40.425 -1.5
      vertex 95.375 39.875 -1.5
      vertex 94.825 31.575 -1.5
    endloop
  endfacet
  facet normal 0 -1 0
    outer loop
      vertex 94.825 31.575 -1.5
      vertex 103.675 31.575 1.5
      vertex 94.825 31.575 1.5
    endloop
  endfacet
  facet normal 0 -1 -0
    outer loop
      vertex 103.675 31.575 1.5
      vertex 94.825 31.575 -1.5
      vertex 103.675 31.575 -1.5
    endloop
  endfacet
  facet normal -1 0 0
    outer loop
      vertex 95.375 32.125 1.5
      vertex 95.375 39.875 3
      vertex 95.375 39.875 1.5
    endloop
  endfacet
  facet normal -1 -0 0
    outer loop
      vertex 95.375 39.875 3
      vertex 95.375 32.125 1.5
      vertex 95.375 32.125 3
    endloop
  endfacet
  facet normal -0 0 1
    outer loop
      vertex 95.375 39.875 3
      vertex 103.125 32.125 3
      vertex 103.125 39.875 3
    endloop
  endfacet
  facet normal 0 0 1
    outer loop
      vertex 103.125 32.125 3
      vertex 95.375 39.875 3
      vertex 95.375 32.125 3
    endloop
  endfacet
  facet normal 1 -0 0
    outer loop
      vertex 103.125 32.125 3
      vertex 103.125 39.875 1.5
      vertex 103.125 39.875 3
    endloop
  endfacet
  facet normal 1 0 0
    outer loop
      vertex 103.125 39.875 1.5
      vertex 103.125 32.125 3
      vertex 103.125 32.125 1.5
    endloop
  endfacet
  facet normal 0 1 -0
    outer loop
      vertex 103.125 39.875 1.5
      vertex 95.375 39.875 3
      vertex 103.125 39.875 3
    endloop
  endfacet
  facet normal 0 1 0
    outer loop
      vertex 95.375 39.875 3
      vertex 103.125 39.875 1.5
      vertex 95.375 39.875 1.5
    endloop
  endfacet
  facet normal 0 -1 0
    outer loop
      vertex 95.375 32.125 1.5
      vertex 103.125 32.125 3
      vertex 95.375 32.125 3
    endloop
  endfacet
  facet normal 0 -1 -0
    outer loop
      vertex 103.125 32.125 3
      vertex 95.375 32.125 1.5
      vertex 103.125 32.125 1.5
    endloop
  endfacet
  facet normal -1 0 0
    outer loop
      vertex 95.375 32.125 -3
      vertex 95.375 39.875 -1.5
      vertex 95.375 39.875 -3
    endloop
  endfacet
  facet normal -1 -0 0
    outer loop
      vertex 95.375 39.875 -1.5
      vertex 95.375 32.125 -3
      vertex 95.375 32.125 -1.5
    endloop
  endfacet
  facet normal 1 -0 0
    outer loop
      vertex 103.125 32.125 -1.5
      vertex 103.125 39.875 -3
      vertex 103.125 39.875 -1.5
    endloop
  endfacet
  facet normal 1 0 0
    outer loop
      vertex 103.125 39.875 -3
      vertex 103.125 32.125 -1.5
      vertex 103.125 32.125 -3
    endloop
  endfacet
  facet normal 0 1 -0
    outer loop
      vertex 103.125 39.875 -3
      vertex 95.375 39.875 -1.5
      vertex 103.125 39.875 -1.5
    endloop
  endfacet
  facet normal 0 1 0
    outer loop
      vertex 95.375 39.875 -1.5
      vertex 103.125 39.875 -3
      vertex 95.375 39.875 -3
    endloop
  endfacet
  facet normal 0 0 -1
    outer loop
      vertex 95.375 32.125 -3
      vertex 103.125 39.875 -3
      vertex 103.125 32.125 -3
    endloop
  endfacet
  facet normal -0 0 -1
    outer loop
      vertex 103.125 39.875 -3
      vertex 95.375 32.125 -3
      vertex 95.375 39.875 -3
    endloop
  endfacet
  facet normal 0 -1 0
    outer loop
      vertex 95.375 32.125 -3
      vertex 103.125 32.125 -1.5
      vertex 95.375 32.125 -1.5
    endloop
  endfacet
  facet normal 0 -1 -0
    outer loop
      vertex 103.125 32.125 -1.5
      vertex 95.375 32.125 -3
      vertex 103.125 32.125 -3
    endloop
  endfacet
endsolid OpenSCAD_Model
