solid OpenSCAD_Model
  facet normal -1 0 0
    outer loop
      vertex 31.825 22.575 -1.5
      vertex 31.825 31.425 1.5
      vertex 31.825 31.425 -1.5
    endloop
  endfacet
  facet normal -1 -0 0
    outer loop
      vertex 31.825 31.425 1.5
      vertex 31.825 22.575 -1.5
      vertex 31.825 22.575 1.5
    endloop
  endfacet
  facet normal 0 0 1
    outer loop
      vertex 40.675 31.425 1.5
      vertex 40.125 30.875 1.5
      vertex 40.675 22.575 1.5
    endloop
  endfacet
  facet normal 0 0 1
    outer loop
      vertex 40.675 31.425 1.5
      vertex 32.375 30.875 1.5
      vertex 40.125 30.875 1.5
    endloop
  endfacet
  facet normal 0 0 1
    outer loop
      vertex 32.375 30.875 1.5
      vertex 31.825 31.425 1.5
      vertex 32.375 23.125 1.5
    endloop
  endfacet
  facet normal -0 0 1
    outer loop
      vertex 31.825 31.425 1.5
      vertex 32.375 30.875 1.5
      vertex 40.675 31.425 1.5
    endloop
  endfacet
  facet normal -0 0 1
    outer loop
      vertex 40.125 23.125 1.5
      vertex 40.675 22.575 1.5
      vertex 40.125 30.875 1.5
    endloop
  endfacet
  facet normal -0 0 1
    outer loop
      vertex 32.375 23.125 1.5
      vertex 40.675 22.575 1.5
      vertex 40.125 23.125 1.5
    endloop
  endfacet
  facet normal 0 0 1
    outer loop
      vertex 32.375 23.125 1.5
      vertex 31.825 22.575 1.5
      vertex 40.675 22.575 1.5
    endloop
  endfacet
  facet normal 0 0 1
    outer loop
      vertex 31.825 22.575 1.5
      vertex 32.375 23.125 1.5
      vertex 31.825 31.425 1.5
    endloop
  endfacet
  facet normal 1 -0 0
    outer loop
      vertex 40.675 22.575 1.5
      vertex 40.675 31.425 -1.5
      vertex 40.675 31.425 1.5
    endloop
  endfacet
  facet normal 1 0 0
    outer loop
      vertex 40.675 31.425 -1.5
      vertex 40.675 22.575 1.5
      vertex 40.675 22.575 -1.5
    endloop
  endfacet
  facet normal 0 1 -0
    outer loop
      vertex 40.675 31.425 -1.5
      vertex 31.825 31.425 1.5
      vertex 40.675 31.425 1.5
    endloop
  endfacet
  facet normal 0 1 0
    outer loop
      vertex 31.825 31.425 1.5
      vertex 40.675 31.425 -1.5
      vertex 31.825 31.425 -1.5
    endloop
  endfacet
  facet normal 0 0 -1
    outer loop
      vertex 40.675 22.575 -1.5
      vertex 40.125 23.125 -1.5
      vertex 40.675 31.425 -1.5
    endloop
  endfacet
  facet normal 0 0 -1
    outer loop
      vertex 40.675 22.575 -1.5
      vertex 32.375 23.125 -1.5
      vertex 40.125 23.125 -1.5
    endloop
  endfacet
  facet normal -0 0 -1
    outer loop
      vertex 32.375 23.125 -1.5
      vertex 31.825 22.575 -1.5
      vertex 32.375 30.875 -1.5
    endloop
  endfacet
  facet normal 0 0 -1
    outer loop
      vertex 31.825 22.575 -1.5
      vertex 32.375 23.125 -1.5
      vertex 40.675 22.575 -1.5
    endloop
  endfacet
  facet normal 0 0 -1
    outer loop
      vertex 40.125 30.875 -1.5
      vertex 40.675 31.425 -1.5
      vertex 40.125 23.125 -1.5
    endloop
  endfacet
  facet normal 0 0 -1
    outer loop
      vertex 32.375 30.875 -1.5
      vertex 40.675 31.425 -1.5
      vertex 40.125 30.875 -1.5
    endloop
  endfacet
  facet normal 0 0 -1
    outer loop
      vertex 32.375 30.875 -1.5
      vertex 31.825 31.425 -1.5
      vertex 40.675 31.425 -1.5
    endloop
  endfacet
  facet normal 0 0 -1
    outer loop
      vertex 31.825 31.425 -1.5
      vertex 32.375 30.875 -1.5
      vertex 31.825 22.575 -1.5
    endloop
  endfacet
  facet normal 0 -1 0
    outer loop
      vertex 31.825 22.575 -1.5
      vertex 40.675 22.575 1.5
      vertex 31.825 22.575 1.5
    endloop
  endfacet
  facet normal 0 -1 -0
    outer loop
      vertex 40.675 22.575 1.5
      vertex 31.825 22.575 -1.5
      vertex 40.675 22.575 -1.5
    endloop
  endfacet
  facet normal -1 0 0
    outer loop
      vertex 32.375 23.125 1.5
      vertex 32.375 30.875 3
      vertex 32.375 30.875 1.5
    endloop
  endfacet
  facet normal -1 -0 0
    outer loop
      vertex 32.375 30.875 3
      vertex 32.375 23.125 1.5
      vertex 32.375 23.125 3
    endloop
  endfacet
  facet normal -0 0 1
    outer loop
      vertex 32.375 30.875 3
      vertex 40.125 23.125 3
      vertex 40.125 30.875 3
    endloop
  endfacet
  facet normal 0 0 1
    outer loop
      vertex 40.125 23.125 3
      vertex 32.375 30.875 3
      vertex 32.375 23.125 3
    endloop
  endfacet
  facet normal 1 -0 0
    outer loop
      vertex 40.125 23.125 3
      vertex 40.125 30.875 1.5
      vertex 40.125 30.875 3
    endloop
  endfacet
  facet normal 1 0 0
    outer loop
      vertex 40.125 30.875 1.5
      vertex 40.125 23.125 3
      vertex 40.125 23.125 1.5
    endloop
  endfacet
  facet normal 0 1 -0
    outer loop
      vertex 40.125 30.875 1.5
      vertex 32.375 30.875 3
      vertex 40.125 30.875 3
    endloop
  endfacet
  facet normal 0 1 0
    outer loop
      vertex 32.375 30.875 3
      vertex 40.125 30.875 1.5
      vertex 32.375 30.875 1.5
    endloop
  endfacet
  facet normal 0 -1 0
    outer loop
      vertex 32.375 23.125 1.5
      vertex 40.125 23.125 3
      vertex 32.375 23.125 3
    endloop
  endfacet
  facet normal 0 -1 -0
    outer loop
      vertex 40.125 23.125 3
      vertex 32.375 23.125 1.5
      vertex 40.125 23.125 1.5
    endloop
  endfacet
  facet normal -1 0 0
    outer loop
      vertex 32.375 23.125 -3
      vertex 32.375 30.875 -1.5
      vertex 32.375 30.875 -3
    endloop
  endfacet
  facet normal -1 -0 0
    outer loop
      vertex 32.375 30.875 -1.5
      vertex 32.375 23.125 -3
      vertex 32.375 23.125 -1.5
    endloop
  endfacet
  facet normal 1 -0 0
    outer loop
      vertex 40.125 23.125 -1.5
      vertex 40.125 30.875 -3
      vertex 40.125 30.875 -1.5
    endloop
  endfacet
  facet normal 1 0 0
    outer loop
      vertex 40.125 30.875 -3
      vertex 40.125 23.125 -1.5
      vertex 40.125 23.125 -3
    endloop
  endfacet
  facet normal 0 1 -0
    outer loop
      vertex 40.125 30.875 -3
      vertex 32.375 30.875 -1.5
      vertex 40.125 30.875 -1.5
    endloop
  endfacet
  facet normal 0 1 0
    outer loop
      vertex 32.375 30.875 -1.5
      vertex 40.125 30.875 -3
      vertex 32.375 30.875 -3
    endloop
  endfacet
  facet normal 0 0 -1
    outer loop
      vertex 32.375 23.125 -3
      vertex 40.125 30.875 -3
      vertex 40.125 23.125 -3
    endloop
  endfacet
  facet normal -0 0 -1
    outer loop
      vertex 40.125 30.875 -3
      vertex 32.375 23.125 -3
      vertex 32.375 30.875 -3
    endloop
  endfacet
  facet normal 0 -1 0
    outer loop
      vertex 32.375 23.125 -3
      vertex 40.125 23.125 -1.5
      vertex 32.375 23.125 -1.5
    endloop
  endfacet
  facet normal 0 -1 -0
    outer loop
      vertex 40.125 23.125 -1.5
      vertex 32.375 23.125 -3
      vertex 40.125 23.125 -3
    endloop
  endfacet
  facet normal -1 0 0
    outer loop
      vertex 40.825 22.575 -1.5
      vertex 40.825 31.425 1.5
      vertex 40.825 31.425 -1.5
    endloop
  endfacet
  facet normal -1 -0 0
    outer loop
      vertex 40.825 31.425 1.5
      vertex 40.825 22.575 -1.5
      vertex 40.825 22.575 1.5
    endloop
  endfacet
  facet normal 0 0 1
    outer loop
      vertex 49.675 31.425 1.5
      vertex 49.125 30.875 1.5
      vertex 49.675 22.575 1.5
    endloop
  endfacet
  facet normal 0 0 1
    outer loop
      vertex 49.675 31.425 1.5
      vertex 41.375 30.875 1.5
      vertex 49.125 30.875 1.5
    endloop
  endfacet
  facet normal 0 0 1
    outer loop
      vertex 41.375 30.875 1.5
      vertex 40.825 31.425 1.5
      vertex 41.375 23.125 1.5
    endloop
  endfacet
  facet normal -0 0 1
    outer loop
      vertex 40.825 31.425 1.5
      vertex 41.375 30.875 1.5
      vertex 49.675 31.425 1.5
    endloop
  endfacet
  facet normal -0 0 1
    outer loop
      vertex 49.125 23.125 1.5
      vertex 49.675 22.575 1.5
      vertex 49.125 30.875 1.5
    endloop
  endfacet
  facet normal -0 0 1
    outer loop
      vertex 41.375 23.125 1.5
      vertex 49.675 22.575 1.5
      vertex 49.125 23.125 1.5
    endloop
  endfacet
  facet normal 0 0 1
    outer loop
      vertex 41.375 23.125 1.5
      vertex 40.825 22.575 1.5
      vertex 49.675 22.575 1.5
    endloop
  endfacet
  facet normal 0 0 1
    outer loop
      vertex 40.825 22.575 1.5
      vertex 41.375 23.125 1.5
      vertex 40.825 31.425 1.5
    endloop
  endfacet
  facet normal 1 -0 0
    outer loop
      vertex 49.675 22.575 1.5
      vertex 49.675 31.425 -1.5
      vertex 49.675 31.425 1.5
    endloop
  endfacet
  facet normal 1 0 0
    outer loop
      vertex 49.675 31.425 -1.5
      vertex 49.675 22.575 1.5
      vertex 49.675 22.575 -1.5
    endloop
  endfacet
  facet normal 0 1 -0
    outer loop
      vertex 49.675 31.425 -1.5
      vertex 40.825 31.425 1.5
      vertex 49.675 31.425 1.5
    endloop
  endfacet
  facet normal 0 1 0
    outer loop
      vertex 40.825 31.425 1.5
      vertex 49.675 31.425 -1.5
      vertex 40.825 31.425 -1.5
    endloop
  endfacet
  facet normal 0 0 -1
    outer loop
      vertex 49.675 22.575 -1.5
      vertex 49.125 23.125 -1.5
      vertex 49.675 31.425 -1.5
    endloop
  endfacet
  facet normal 0 0 -1
    outer loop
      vertex 49.675 22.575 -1.5
      vertex 41.375 23.125 -1.5
      vertex 49.125 23.125 -1.5
    endloop
  endfacet
  facet normal -0 0 -1
    outer loop
      vertex 41.375 23.125 -1.5
      vertex 40.825 22.575 -1.5
      vertex 41.375 30.875 -1.5
    endloop
  endfacet
  facet normal 0 0 -1
    outer loop
      vertex 40.825 22.575 -1.5
      vertex 41.375 23.125 -1.5
      vertex 49.675 22.575 -1.5
    endloop
  endfacet
  facet normal 0 0 -1
    outer loop
      vertex 49.125 30.875 -1.5
      vertex 49.675 31.425 -1.5
      vertex 49.125 23.125 -1.5
    endloop
  endfacet
  facet normal 0 0 -1
    outer loop
      vertex 41.375 30.875 -1.5
      vertex 49.675 31.425 -1.5
      vertex 49.125 30.875 -1.5
    endloop
  endfacet
  facet normal 0 0 -1
    outer loop
      vertex 41.375 30.875 -1.5
      vertex 40.825 31.425 -1.5
      vertex 49.675 31.425 -1.5
    endloop
  endfacet
  facet normal 0 0 -1
    outer loop
      vertex 40.825 31.425 -1.5
      vertex 41.375 30.875 -1.5
      vertex 40.825 22.575 -1.5
    endloop
  endfacet
  facet normal 0 -1 0
    outer loop
      vertex 40.825 22.575 -1.5
      vertex 49.675 22.575 1.5
      vertex 40.825 22.575 1.5
    endloop
  endfacet
  facet normal 0 -1 -0
    outer loop
      vertex 49.675 22.575 1.5
      vertex 40.825 22.575 -1.5
      vertex 49.675 22.575 -1.5
    endloop
  endfacet
  facet normal -1 0 0
    outer loop
      vertex 41.375 23.125 1.5
      vertex 41.375 30.875 3
      vertex 41.375 30.875 1.5
    endloop
  endfacet
  facet normal -1 -0 0
    outer loop
      vertex 41.375 30.875 3
      vertex 41.375 23.125 1.5
      vertex 41.375 23.125 3
    endloop
  endfacet
  facet normal -0 0 1
    outer loop
      vertex 41.375 30.875 3
      vertex 49.125 23.125 3
      vertex 49.125 30.875 3
    endloop
  endfacet
  facet normal 0 0 1
    outer loop
      vertex 49.125 23.125 3
      vertex 41.375 30.875 3
      vertex 41.375 23.125 3
    endloop
  endfacet
  facet normal 1 -0 0
    outer loop
      vertex 49.125 23.125 3
      vertex 49.125 30.875 1.5
      vertex 49.125 30.875 3
    endloop
  endfacet
  facet normal 1 0 0
    outer loop
      vertex 49.125 30.875 1.5
      vertex 49.125 23.125 3
      vertex 49.125 23.125 1.5
    endloop
  endfacet
  facet normal 0 1 -0
    outer loop
      vertex 49.125 30.875 1.5
      vertex 41.375 30.875 3
      vertex 49.125 30.875 3
    endloop
  endfacet
  facet normal 0 1 0
    outer loop
      vertex 41.375 30.875 3
      vertex 49.125 30.875 1.5
      vertex 41.375 30.875 1.5
    endloop
  endfacet
  facet normal 0 -1 0
    outer loop
      vertex 41.375 23.125 1.5
      vertex 49.125 23.125 3
      vertex 41.375 23.125 3
    endloop
  endfacet
  facet normal 0 -1 -0
    outer loop
      vertex 49.125 23.125 3
      vertex 41.375 23.125 1.5
      vertex 49.125 23.125 1.5
    endloop
  endfacet
  facet normal -1 0 0
    outer loop
      vertex 41.375 23.125 -3
      vertex 41.375 30.875 -1.5
      vertex 41.375 30.875 -3
    endloop
  endfacet
  facet normal -1 -0 0
    outer loop
      vertex 41.375 30.875 -1.5
      vertex 41.375 23.125 -3
      vertex 41.375 23.125 -1.5
    endloop
  endfacet
  facet normal 1 -0 0
    outer loop
      vertex 49.125 23.125 -1.5
      vertex 49.125 30.875 -3
      vertex 49.125 30.875 -1.5
    endloop
  endfacet
  facet normal 1 0 0
    outer loop
      vertex 49.125 30.875 -3
      vertex 49.125 23.125 -1.5
      vertex 49.125 23.125 -3
    endloop
  endfacet
  facet normal 0 1 -0
    outer loop
      vertex 49.125 30.875 -3
      vertex 41.375 30.875 -1.5
      vertex 49.125 30.875 -1.5
    endloop
  endfacet
  facet normal 0 1 0
    outer loop
      vertex 41.375 30.875 -1.5
      vertex 49.125 30.875 -3
      vertex 41.375 30.875 -3
    endloop
  endfacet
  facet normal 0 0 -1
    outer loop
      vertex 41.375 23.125 -3
      vertex 49.125 30.875 -3
      vertex 49.125 23.125 -3
    endloop
  endfacet
  facet normal -0 0 -1
    outer loop
      vertex 49.125 30.875 -3
      vertex 41.375 23.125 -3
      vertex 41.375 30.875 -3
    endloop
  endfacet
  facet normal 0 -1 0
    outer loop
      vertex 41.375 23.125 -3
      vertex 49.125 23.125 -1.5
      vertex 41.375 23.125 -1.5
    endloop
  endfacet
  facet normal 0 -1 -0
    outer loop
      vertex 49.125 23.125 -1.5
      vertex 41.375 23.125 -3
      vertex 49.125 23.125 -3
    endloop
  endfacet
endsolid OpenSCAD_Model
