solid OpenSCAD_Model
  facet normal -1 0 0
    outer loop
      vertex 58.825 -4.425 -1.5
      vertex 58.825 4.425 1.5
      vertex 58.825 4.425 -1.5
    endloop
  endfacet
  facet normal -1 -0 0
    outer loop
      vertex 58.825 4.425 1.5
      vertex 58.825 -4.425 -1.5
      vertex 58.825 -4.425 1.5
    endloop
  endfacet
  facet normal 0 0 1
    outer loop
      vertex 67.675 4.425 1.5
      vertex 67.125 3.875 1.5
      vertex 67.675 -4.425 1.5
    endloop
  endfacet
  facet normal 0 0 1
    outer loop
      vertex 67.675 4.425 1.5
      vertex 59.375 3.875 1.5
      vertex 67.125 3.875 1.5
    endloop
  endfacet
  facet normal 0 0 1
    outer loop
      vertex 59.375 3.875 1.5
      vertex 58.825 4.425 1.5
      vertex 59.375 -3.875 1.5
    endloop
  endfacet
  facet normal -0 0 1
    outer loop
      vertex 58.825 4.425 1.5
      vertex 59.375 3.875 1.5
      vertex 67.675 4.425 1.5
    endloop
  endfacet
  facet normal -0 0 1
    outer loop
      vertex 67.125 -3.875 1.5
      vertex 67.675 -4.425 1.5
      vertex 67.125 3.875 1.5
    endloop
  endfacet
  facet normal -0 0 1
    outer loop
      vertex 59.375 -3.875 1.5
      vertex 67.675 -4.425 1.5
      vertex 67.125 -3.875 1.5
    endloop
  endfacet
  facet normal 0 0 1
    outer loop
      vertex 59.375 -3.875 1.5
      vertex 58.825 -4.425 1.5
      vertex 67.675 -4.425 1.5
    endloop
  endfacet
  facet normal 0 0 1
    outer loop
      vertex 58.825 -4.425 1.5
      vertex 59.375 -3.875 1.5
      vertex 58.825 4.425 1.5
    endloop
  endfacet
  facet normal 1 -0 0
    outer loop
      vertex 67.675 -4.425 1.5
      vertex 67.675 4.425 -1.5
      vertex 67.675 4.425 1.5
    endloop
  endfacet
  facet normal 1 0 0
    outer loop
      vertex 67.675 4.425 -1.5
      vertex 67.675 -4.425 1.5
      vertex 67.675 -4.425 -1.5
    endloop
  endfacet
  facet normal 0 1 -0
    outer loop
      vertex 67.675 4.425 -1.5
      vertex 58.825 4.425 1.5
      vertex 67.675 4.425 1.5
    endloop
  endfacet
  facet normal 0 1 0
    outer loop
      vertex 58.825 4.425 1.5
      vertex 67.675 4.425 -1.5
      vertex 58.825 4.425 -1.5
    endloop
  endfacet
  facet normal 0 0 -1
    outer loop
      vertex 67.675 -4.425 -1.5
      vertex 67.125 -3.875 -1.5
      vertex 67.675 4.425 -1.5
    endloop
  endfacet
  facet normal 0 0 -1
    outer loop
      vertex 67.675 -4.425 -1.5
      vertex 59.375 -3.875 -1.5
      vertex 67.125 -3.875 -1.5
    endloop
  endfacet
  facet normal -0 0 -1
    outer loop
      vertex 59.375 -3.875 -1.5
      vertex 58.825 -4.425 -1.5
      vertex 59.375 3.875 -1.5
    endloop
  endfacet
  facet normal 0 0 -1
    outer loop
      vertex 58.825 -4.425 -1.5
      vertex 59.375 -3.875 -1.5
      vertex 67.675 -4.425 -1.5
    endloop
  endfacet
  facet normal 0 0 -1
    outer loop
      vertex 67.125 3.875 -1.5
      vertex 67.675 4.425 -1.5
      vertex 67.125 -3.875 -1.5
    endloop
  endfacet
  facet normal 0 0 -1
    outer loop
      vertex 59.375 3.875 -1.5
      vertex 67.675 4.425 -1.5
      vertex 67.125 3.875 -1.5
    endloop
  endfacet
  facet normal 0 0 -1
    outer loop
      vertex 59.375 3.875 -1.5
      vertex 58.825 4.425 -1.5
      vertex 67.675 4.425 -1.5
    endloop
  endfacet
  facet normal 0 0 -1
    outer loop
      vertex 58.825 4.425 -1.5
      vertex 59.375 3.875 -1.5
      vertex 58.825 -4.425 -1.5
    endloop
  endfacet
  facet normal 0 -1 0
    outer loop
      vertex 58.825 -4.425 -1.5
      vertex 67.675 -4.425 1.5
      vertex 58.825 -4.425 1.5
    endloop
  endfacet
  facet normal 0 -1 -0
    outer loop
      vertex 67.675 -4.425 1.5
      vertex 58.825 -4.425 -1.5
      vertex 67.675 -4.425 -1.5
    endloop
  endfacet
  facet normal -1 0 0
    outer loop
      vertex 59.375 -3.875 1.5
      vertex 59.375 3.875 3
      vertex 59.375 3.875 1.5
    endloop
  endfacet
  facet normal -1 -0 0
    outer loop
      vertex 59.375 3.875 3
      vertex 59.375 -3.875 1.5
      vertex 59.375 -3.875 3
    endloop
  endfacet
  facet normal -0 0 1
    outer loop
      vertex 59.375 3.875 3
      vertex 67.125 -3.875 3
      vertex 67.125 3.875 3
    endloop
  endfacet
  facet normal 0 0 1
    outer loop
      vertex 67.125 -3.875 3
      vertex 59.375 3.875 3
      vertex 59.375 -3.875 3
    endloop
  endfacet
  facet normal 1 -0 0
    outer loop
      vertex 67.125 -3.875 3
      vertex 67.125 3.875 1.5
      vertex 67.125 3.875 3
    endloop
  endfacet
  facet normal 1 0 0
    outer loop
      vertex 67.125 3.875 1.5
      vertex 67.125 -3.875 3
      vertex 67.125 -3.875 1.5
    endloop
  endfacet
  facet normal 0 1 -0
    outer loop
      vertex 67.125 3.875 1.5
      vertex 59.375 3.875 3
      vertex 67.125 3.875 3
    endloop
  endfacet
  facet normal 0 1 0
    outer loop
      vertex 59.375 3.875 3
      vertex 67.125 3.875 1.5
      vertex 59.375 3.875 1.5
    endloop
  endfacet
  facet normal 0 -1 0
    outer loop
      vertex 59.375 -3.875 1.5
      vertex 67.125 -3.875 3
      vertex 59.375 -3.875 3
    endloop
  endfacet
  facet normal 0 -1 -0
    outer loop
      vertex 67.125 -3.875 3
      vertex 59.375 -3.875 1.5
      vertex 67.125 -3.875 1.5
    endloop
  endfacet
  facet normal -1 0 0
    outer loop
      vertex 59.375 -3.875 -3
      vertex 59.375 3.875 -1.5
      vertex 59.375 3.875 -3
    endloop
  endfacet
  facet normal -1 -0 0
    outer loop
      vertex 59.375 3.875 -1.5
      vertex 59.375 -3.875 -3
      vertex 59.375 -3.875 -1.5
    endloop
  endfacet
  facet normal 1 -0 0
    outer loop
      vertex 67.125 -3.875 -1.5
      vertex 67.125 3.875 -3
      vertex 67.125 3.875 -1.5
    endloop
  endfacet
  facet normal 1 0 0
    outer loop
      vertex 67.125 3.875 -3
      vertex 67.125 -3.875 -1.5
      vertex 67.125 -3.875 -3
    endloop
  endfacet
  facet normal 0 1 -0
    outer loop
      vertex 67.125 3.875 -3
      vertex 59.375 3.875 -1.5
      vertex 67.125 3.875 -1.5
    endloop
  endfacet
  facet normal 0 1 0
    outer loop
      vertex 59.375 3.875 -1.5
      vertex 67.125 3.875 -3
      vertex 59.375 3.875 -3
    endloop
  endfacet
  facet normal 0 0 -1
    outer loop
      vertex 59.375 -3.875 -3
      vertex 67.125 3.875 -3
      vertex 67.125 -3.875 -3
    endloop
  endfacet
  facet normal -0 0 -1
    outer loop
      vertex 67.125 3.875 -3
      vertex 59.375 -3.875 -3
      vertex 59.375 3.875 -3
    endloop
  endfacet
  facet normal 0 -1 0
    outer loop
      vertex 59.375 -3.875 -3
      vertex 67.125 -3.875 -1.5
      vertex 59.375 -3.875 -1.5
    endloop
  endfacet
  facet normal 0 -1 -0
    outer loop
      vertex 67.125 -3.875 -1.5
      vertex 59.375 -3.875 -3
      vertex 67.125 -3.875 -3
    endloop
  endfacet
  facet normal -1 0 0
    outer loop
      vertex 49.825 -4.425 -1.5
      vertex 49.825 4.425 1.5
      vertex 49.825 4.425 -1.5
    endloop
  endfacet
  facet normal -1 -0 0
    outer loop
      vertex 49.825 4.425 1.5
      vertex 49.825 -4.425 -1.5
      vertex 49.825 -4.425 1.5
    endloop
  endfacet
  facet normal 0 0 1
    outer loop
      vertex 58.675 4.425 1.5
      vertex 58.125 3.875 1.5
      vertex 58.675 -4.425 1.5
    endloop
  endfacet
  facet normal 0 0 1
    outer loop
      vertex 58.675 4.425 1.5
      vertex 50.375 3.875 1.5
      vertex 58.125 3.875 1.5
    endloop
  endfacet
  facet normal 0 0 1
    outer loop
      vertex 50.375 3.875 1.5
      vertex 49.825 4.425 1.5
      vertex 50.375 -3.875 1.5
    endloop
  endfacet
  facet normal -0 0 1
    outer loop
      vertex 49.825 4.425 1.5
      vertex 50.375 3.875 1.5
      vertex 58.675 4.425 1.5
    endloop
  endfacet
  facet normal -0 0 1
    outer loop
      vertex 58.125 -3.875 1.5
      vertex 58.675 -4.425 1.5
      vertex 58.125 3.875 1.5
    endloop
  endfacet
  facet normal -0 0 1
    outer loop
      vertex 50.375 -3.875 1.5
      vertex 58.675 -4.425 1.5
      vertex 58.125 -3.875 1.5
    endloop
  endfacet
  facet normal 0 0 1
    outer loop
      vertex 50.375 -3.875 1.5
      vertex 49.825 -4.425 1.5
      vertex 58.675 -4.425 1.5
    endloop
  endfacet
  facet normal 0 0 1
    outer loop
      vertex 49.825 -4.425 1.5
      vertex 50.375 -3.875 1.5
      vertex 49.825 4.425 1.5
    endloop
  endfacet
  facet normal 1 -0 0
    outer loop
      vertex 58.675 -4.425 1.5
      vertex 58.675 4.425 -1.5
      vertex 58.675 4.425 1.5
    endloop
  endfacet
  facet normal 1 0 0
    outer loop
      vertex 58.675 4.425 -1.5
      vertex 58.675 -4.425 1.5
      vertex 58.675 -4.425 -1.5
    endloop
  endfacet
  facet normal 0 1 -0
    outer loop
      vertex 58.675 4.425 -1.5
      vertex 49.825 4.425 1.5
      vertex 58.675 4.425 1.5
    endloop
  endfacet
  facet normal 0 1 0
    outer loop
      vertex 49.825 4.425 1.5
      vertex 58.675 4.425 -1.5
      vertex 49.825 4.425 -1.5
    endloop
  endfacet
  facet normal 0 0 -1
    outer loop
      vertex 58.675 -4.425 -1.5
      vertex 58.125 -3.875 -1.5
      vertex 58.675 4.425 -1.5
    endloop
  endfacet
  facet normal 0 0 -1
    outer loop
      vertex 58.675 -4.425 -1.5
      vertex 50.375 -3.875 -1.5
      vertex 58.125 -3.875 -1.5
    endloop
  endfacet
  facet normal -0 0 -1
    outer loop
      vertex 50.375 -3.875 -1.5
      vertex 49.825 -4.425 -1.5
      vertex 50.375 3.875 -1.5
    endloop
  endfacet
  facet normal 0 0 -1
    outer loop
      vertex 49.825 -4.425 -1.5
      vertex 50.375 -3.875 -1.5
      vertex 58.675 -4.425 -1.5
    endloop
  endfacet
  facet normal 0 0 -1
    outer loop
      vertex 58.125 3.875 -1.5
      vertex 58.675 4.425 -1.5
      vertex 58.125 -3.875 -1.5
    endloop
  endfacet
  facet normal 0 0 -1
    outer loop
      vertex 50.375 3.875 -1.5
      vertex 58.675 4.425 -1.5
      vertex 58.125 3.875 -1.5
    endloop
  endfacet
  facet normal 0 0 -1
    outer loop
      vertex 50.375 3.875 -1.5
      vertex 49.825 4.425 -1.5
      vertex 58.675 4.425 -1.5
    endloop
  endfacet
  facet normal 0 0 -1
    outer loop
      vertex 49.825 4.425 -1.5
      vertex 50.375 3.875 -1.5
      vertex 49.825 -4.425 -1.5
    endloop
  endfacet
  facet normal 0 -1 0
    outer loop
      vertex 49.825 -4.425 -1.5
      vertex 58.675 -4.425 1.5
      vertex 49.825 -4.425 1.5
    endloop
  endfacet
  facet normal 0 -1 -0
    outer loop
      vertex 58.675 -4.425 1.5
      vertex 49.825 -4.425 -1.5
      vertex 58.675 -4.425 -1.5
    endloop
  endfacet
  facet normal -1 0 0
    outer loop
      vertex 50.375 -3.875 1.5
      vertex 50.375 3.875 3
      vertex 50.375 3.875 1.5
    endloop
  endfacet
  facet normal -1 -0 0
    outer loop
      vertex 50.375 3.875 3
      vertex 50.375 -3.875 1.5
      vertex 50.375 -3.875 3
    endloop
  endfacet
  facet normal -0 0 1
    outer loop
      vertex 50.375 3.875 3
      vertex 58.125 -3.875 3
      vertex 58.125 3.875 3
    endloop
  endfacet
  facet normal 0 0 1
    outer loop
      vertex 58.125 -3.875 3
      vertex 50.375 3.875 3
      vertex 50.375 -3.875 3
    endloop
  endfacet
  facet normal 1 -0 0
    outer loop
      vertex 58.125 -3.875 3
      vertex 58.125 3.875 1.5
      vertex 58.125 3.875 3
    endloop
  endfacet
  facet normal 1 0 0
    outer loop
      vertex 58.125 3.875 1.5
      vertex 58.125 -3.875 3
      vertex 58.125 -3.875 1.5
    endloop
  endfacet
  facet normal 0 1 -0
    outer loop
      vertex 58.125 3.875 1.5
      vertex 50.375 3.875 3
      vertex 58.125 3.875 3
    endloop
  endfacet
  facet normal 0 1 0
    outer loop
      vertex 50.375 3.875 3
      vertex 58.125 3.875 1.5
      vertex 50.375 3.875 1.5
    endloop
  endfacet
  facet normal 0 -1 0
    outer loop
      vertex 50.375 -3.875 1.5
      vertex 58.125 -3.875 3
      vertex 50.375 -3.875 3
    endloop
  endfacet
  facet normal 0 -1 -0
    outer loop
      vertex 58.125 -3.875 3
      vertex 50.375 -3.875 1.5
      vertex 58.125 -3.875 1.5
    endloop
  endfacet
  facet normal -1 0 0
    outer loop
      vertex 50.375 -3.875 -3
      vertex 50.375 3.875 -1.5
      vertex 50.375 3.875 -3
    endloop
  endfacet
  facet normal -1 -0 0
    outer loop
      vertex 50.375 3.875 -1.5
      vertex 50.375 -3.875 -3
      vertex 50.375 -3.875 -1.5
    endloop
  endfacet
  facet normal 1 -0 0
    outer loop
      vertex 58.125 -3.875 -1.5
      vertex 58.125 3.875 -3
      vertex 58.125 3.875 -1.5
    endloop
  endfacet
  facet normal 1 0 0
    outer loop
      vertex 58.125 3.875 -3
      vertex 58.125 -3.875 -1.5
      vertex 58.125 -3.875 -3
    endloop
  endfacet
  facet normal 0 1 -0
    outer loop
      vertex 58.125 3.875 -3
      vertex 50.375 3.875 -1.5
      vertex 58.125 3.875 -1.5
    endloop
  endfacet
  facet normal 0 1 0
    outer loop
      vertex 50.375 3.875 -1.5
      vertex 58.125 3.875 -3
      vertex 50.375 3.875 -3
    endloop
  endfacet
  facet normal 0 0 -1
    outer loop
      vertex 50.375 -3.875 -3
      vertex 58.125 3.875 -3
      vertex 58.125 -3.875 -3
    endloop
  endfacet
  facet normal -0 0 -1
    outer loop
      vertex 58.125 3.875 -3
      vertex 50.375 -3.875 -3
      vertex 50.375 3.875 -3
    endloop
  endfacet
  facet normal 0 -1 0
    outer loop
      vertex 50.375 -3.875 -3
      vertex 58.125 -3.875 -1.5
      vertex 50.375 -3.875 -1.5
    endloop
  endfacet
  facet normal 0 -1 -0
    outer loop
      vertex 58.125 -3.875 -1.5
      vertex 50.375 -3.875 -3
      vertex 58.125 -3.875 -3
    endloop
  endfacet
  facet normal -1 0 0
    outer loop
      vertex 67.825 -4.425 -1.5
      vertex 67.825 4.425 1.5
      vertex 67.825 4.425 -1.5
    endloop
  endfacet
  facet normal -1 -0 0
    outer loop
      vertex 67.825 4.425 1.5
      vertex 67.825 -4.425 -1.5
      vertex 67.825 -4.425 1.5
    endloop
  endfacet
  facet normal 0 0 1
    outer loop
      vertex 76.675 4.425 1.5
      vertex 76.125 3.875 1.5
      vertex 76.675 -4.425 1.5
    endloop
  endfacet
  facet normal 0 0 1
    outer loop
      vertex 76.675 4.425 1.5
      vertex 68.375 3.875 1.5
      vertex 76.125 3.875 1.5
    endloop
  endfacet
  facet normal 0 0 1
    outer loop
      vertex 68.375 3.875 1.5
      vertex 67.825 4.425 1.5
      vertex 68.375 -3.875 1.5
    endloop
  endfacet
  facet normal -0 0 1
    outer loop
      vertex 67.825 4.425 1.5
      vertex 68.375 3.875 1.5
      vertex 76.675 4.425 1.5
    endloop
  endfacet
  facet normal -0 0 1
    outer loop
      vertex 76.125 -3.875 1.5
      vertex 76.675 -4.425 1.5
      vertex 76.125 3.875 1.5
    endloop
  endfacet
  facet normal -0 0 1
    outer loop
      vertex 68.375 -3.875 1.5
      vertex 76.675 -4.425 1.5
      vertex 76.125 -3.875 1.5
    endloop
  endfacet
  facet normal 0 0 1
    outer loop
      vertex 68.375 -3.875 1.5
      vertex 67.825 -4.425 1.5
      vertex 76.675 -4.425 1.5
    endloop
  endfacet
  facet normal 0 0 1
    outer loop
      vertex 67.825 -4.425 1.5
      vertex 68.375 -3.875 1.5
      vertex 67.825 4.425 1.5
    endloop
  endfacet
  facet normal 1 -0 0
    outer loop
      vertex 76.675 -4.425 1.5
      vertex 76.675 4.425 -1.5
      vertex 76.675 4.425 1.5
    endloop
  endfacet
  facet normal 1 0 0
    outer loop
      vertex 76.675 4.425 -1.5
      vertex 76.675 -4.425 1.5
      vertex 76.675 -4.425 -1.5
    endloop
  endfacet
  facet normal 0 1 -0
    outer loop
      vertex 76.675 4.425 -1.5
      vertex 67.825 4.425 1.5
      vertex 76.675 4.425 1.5
    endloop
  endfacet
  facet normal 0 1 0
    outer loop
      vertex 67.825 4.425 1.5
      vertex 76.675 4.425 -1.5
      vertex 67.825 4.425 -1.5
    endloop
  endfacet
  facet normal 0 0 -1
    outer loop
      vertex 76.675 -4.425 -1.5
      vertex 76.125 -3.875 -1.5
      vertex 76.675 4.425 -1.5
    endloop
  endfacet
  facet normal 0 0 -1
    outer loop
      vertex 76.675 -4.425 -1.5
      vertex 68.375 -3.875 -1.5
      vertex 76.125 -3.875 -1.5
    endloop
  endfacet
  facet normal -0 0 -1
    outer loop
      vertex 68.375 -3.875 -1.5
      vertex 67.825 -4.425 -1.5
      vertex 68.375 3.875 -1.5
    endloop
  endfacet
  facet normal 0 0 -1
    outer loop
      vertex 67.825 -4.425 -1.5
      vertex 68.375 -3.875 -1.5
      vertex 76.675 -4.425 -1.5
    endloop
  endfacet
  facet normal 0 0 -1
    outer loop
      vertex 76.125 3.875 -1.5
      vertex 76.675 4.425 -1.5
      vertex 76.125 -3.875 -1.5
    endloop
  endfacet
  facet normal 0 0 -1
    outer loop
      vertex 68.375 3.875 -1.5
      vertex 76.675 4.425 -1.5
      vertex 76.125 3.875 -1.5
    endloop
  endfacet
  facet normal 0 0 -1
    outer loop
      vertex 68.375 3.875 -1.5
      vertex 67.825 4.425 -1.5
      vertex 76.675 4.425 -1.5
    endloop
  endfacet
  facet normal 0 0 -1
    outer loop
      vertex 67.825 4.425 -1.5
      vertex 68.375 3.875 -1.5
      vertex 67.825 -4.425 -1.5
    endloop
  endfacet
  facet normal 0 -1 0
    outer loop
      vertex 67.825 -4.425 -1.5
      vertex 76.675 -4.425 1.5
      vertex 67.825 -4.425 1.5
    endloop
  endfacet
  facet normal 0 -1 -0
    outer loop
      vertex 76.675 -4.425 1.5
      vertex 67.825 -4.425 -1.5
      vertex 76.675 -4.425 -1.5
    endloop
  endfacet
  facet normal -1 0 0
    outer loop
      vertex 68.375 -3.875 1.5
      vertex 68.375 3.875 3
      vertex 68.375 3.875 1.5
    endloop
  endfacet
  facet normal -1 -0 0
    outer loop
      vertex 68.375 3.875 3
      vertex 68.375 -3.875 1.5
      vertex 68.375 -3.875 3
    endloop
  endfacet
  facet normal -0 0 1
    outer loop
      vertex 68.375 3.875 3
      vertex 76.125 -3.875 3
      vertex 76.125 3.875 3
    endloop
  endfacet
  facet normal 0 0 1
    outer loop
      vertex 76.125 -3.875 3
      vertex 68.375 3.875 3
      vertex 68.375 -3.875 3
    endloop
  endfacet
  facet normal 1 -0 0
    outer loop
      vertex 76.125 -3.875 3
      vertex 76.125 3.875 1.5
      vertex 76.125 3.875 3
    endloop
  endfacet
  facet normal 1 0 0
    outer loop
      vertex 76.125 3.875 1.5
      vertex 76.125 -3.875 3
      vertex 76.125 -3.875 1.5
    endloop
  endfacet
  facet normal 0 1 -0
    outer loop
      vertex 76.125 3.875 1.5
      vertex 68.375 3.875 3
      vertex 76.125 3.875 3
    endloop
  endfacet
  facet normal 0 1 0
    outer loop
      vertex 68.375 3.875 3
      vertex 76.125 3.875 1.5
      vertex 68.375 3.875 1.5
    endloop
  endfacet
  facet normal 0 -1 0
    outer loop
      vertex 68.375 -3.875 1.5
      vertex 76.125 -3.875 3
      vertex 68.375 -3.875 3
    endloop
  endfacet
  facet normal 0 -1 -0
    outer loop
      vertex 76.125 -3.875 3
      vertex 68.375 -3.875 1.5
      vertex 76.125 -3.875 1.5
    endloop
  endfacet
  facet normal -1 0 0
    outer loop
      vertex 68.375 -3.875 -3
      vertex 68.375 3.875 -1.5
      vertex 68.375 3.875 -3
    endloop
  endfacet
  facet normal -1 -0 0
    outer loop
      vertex 68.375 3.875 -1.5
      vertex 68.375 -3.875 -3
      vertex 68.375 -3.875 -1.5
    endloop
  endfacet
  facet normal 1 -0 0
    outer loop
      vertex 76.125 -3.875 -1.5
      vertex 76.125 3.875 -3
      vertex 76.125 3.875 -1.5
    endloop
  endfacet
  facet normal 1 0 0
    outer loop
      vertex 76.125 3.875 -3
      vertex 76.125 -3.875 -1.5
      vertex 76.125 -3.875 -3
    endloop
  endfacet
  facet normal 0 1 -0
    outer loop
      vertex 76.125 3.875 -3
      vertex 68.375 3.875 -1.5
      vertex 76.125 3.875 -1.5
    endloop
  endfacet
  facet normal 0 1 0
    outer loop
      vertex 68.375 3.875 -1.5
      vertex 76.125 3.875 -3
      vertex 68.375 3.875 -3
    endloop
  endfacet
  facet normal 0 0 -1
    outer loop
      vertex 68.375 -3.875 -3
      vertex 76.125 3.875 -3
      vertex 76.125 -3.875 -3
    endloop
  endfacet
  facet normal -0 0 -1
    outer loop
      vertex 76.125 3.875 -3
      vertex 68.375 -3.875 -3
      vertex 68.375 3.875 -3
    endloop
  endfacet
  facet normal 0 -1 0
    outer loop
      vertex 68.375 -3.875 -3
      vertex 76.125 -3.875 -1.5
      vertex 68.375 -3.875 -1.5
    endloop
  endfacet
  facet normal 0 -1 -0
    outer loop
      vertex 76.125 -3.875 -1.5
      vertex 68.375 -3.875 -3
      vertex 76.125 -3.875 -3
    endloop
  endfacet
  facet normal -1 0 0
    outer loop
      vertex 67.825 4.575 -1.5
      vertex 67.825 13.425 1.5
      vertex 67.825 13.425 -1.5
    endloop
  endfacet
  facet normal -1 -0 0
    outer loop
      vertex 67.825 13.425 1.5
      vertex 67.825 4.575 -1.5
      vertex 67.825 4.575 1.5
    endloop
  endfacet
  facet normal 0 0 1
    outer loop
      vertex 76.675 13.425 1.5
      vertex 76.125 12.875 1.5
      vertex 76.675 4.575 1.5
    endloop
  endfacet
  facet normal 0 0 1
    outer loop
      vertex 76.675 13.425 1.5
      vertex 68.375 12.875 1.5
      vertex 76.125 12.875 1.5
    endloop
  endfacet
  facet normal 0 0 1
    outer loop
      vertex 68.375 12.875 1.5
      vertex 67.825 13.425 1.5
      vertex 68.375 5.125 1.5
    endloop
  endfacet
  facet normal -0 0 1
    outer loop
      vertex 67.825 13.425 1.5
      vertex 68.375 12.875 1.5
      vertex 76.675 13.425 1.5
    endloop
  endfacet
  facet normal -0 0 1
    outer loop
      vertex 76.125 5.125 1.5
      vertex 76.675 4.575 1.5
      vertex 76.125 12.875 1.5
    endloop
  endfacet
  facet normal -0 0 1
    outer loop
      vertex 68.375 5.125 1.5
      vertex 76.675 4.575 1.5
      vertex 76.125 5.125 1.5
    endloop
  endfacet
  facet normal 0 0 1
    outer loop
      vertex 68.375 5.125 1.5
      vertex 67.825 4.575 1.5
      vertex 76.675 4.575 1.5
    endloop
  endfacet
  facet normal 0 0 1
    outer loop
      vertex 67.825 4.575 1.5
      vertex 68.375 5.125 1.5
      vertex 67.825 13.425 1.5
    endloop
  endfacet
  facet normal 1 -0 0
    outer loop
      vertex 76.675 4.575 1.5
      vertex 76.675 13.425 -1.5
      vertex 76.675 13.425 1.5
    endloop
  endfacet
  facet normal 1 0 0
    outer loop
      vertex 76.675 13.425 -1.5
      vertex 76.675 4.575 1.5
      vertex 76.675 4.575 -1.5
    endloop
  endfacet
  facet normal 0 1 -0
    outer loop
      vertex 76.675 13.425 -1.5
      vertex 67.825 13.425 1.5
      vertex 76.675 13.425 1.5
    endloop
  endfacet
  facet normal 0 1 0
    outer loop
      vertex 67.825 13.425 1.5
      vertex 76.675 13.425 -1.5
      vertex 67.825 13.425 -1.5
    endloop
  endfacet
  facet normal 0 0 -1
    outer loop
      vertex 76.675 4.575 -1.5
      vertex 76.125 5.125 -1.5
      vertex 76.675 13.425 -1.5
    endloop
  endfacet
  facet normal 0 0 -1
    outer loop
      vertex 76.675 4.575 -1.5
      vertex 68.375 5.125 -1.5
      vertex 76.125 5.125 -1.5
    endloop
  endfacet
  facet normal -0 0 -1
    outer loop
      vertex 68.375 5.125 -1.5
      vertex 67.825 4.575 -1.5
      vertex 68.375 12.875 -1.5
    endloop
  endfacet
  facet normal 0 0 -1
    outer loop
      vertex 67.825 4.575 -1.5
      vertex 68.375 5.125 -1.5
      vertex 76.675 4.575 -1.5
    endloop
  endfacet
  facet normal 0 0 -1
    outer loop
      vertex 76.125 12.875 -1.5
      vertex 76.675 13.425 -1.5
      vertex 76.125 5.125 -1.5
    endloop
  endfacet
  facet normal 0 0 -1
    outer loop
      vertex 68.375 12.875 -1.5
      vertex 76.675 13.425 -1.5
      vertex 76.125 12.875 -1.5
    endloop
  endfacet
  facet normal 0 0 -1
    outer loop
      vertex 68.375 12.875 -1.5
      vertex 67.825 13.425 -1.5
      vertex 76.675 13.425 -1.5
    endloop
  endfacet
  facet normal 0 0 -1
    outer loop
      vertex 67.825 13.425 -1.5
      vertex 68.375 12.875 -1.5
      vertex 67.825 4.575 -1.5
    endloop
  endfacet
  facet normal 0 -1 0
    outer loop
      vertex 67.825 4.575 -1.5
      vertex 76.675 4.575 1.5
      vertex 67.825 4.575 1.5
    endloop
  endfacet
  facet normal 0 -1 -0
    outer loop
      vertex 76.675 4.575 1.5
      vertex 67.825 4.575 -1.5
      vertex 76.675 4.575 -1.5
    endloop
  endfacet
  facet normal -1 0 0
    outer loop
      vertex 68.375 5.125 1.5
      vertex 68.375 12.875 3
      vertex 68.375 12.875 1.5
    endloop
  endfacet
  facet normal -1 -0 0
    outer loop
      vertex 68.375 12.875 3
      vertex 68.375 5.125 1.5
      vertex 68.375 5.125 3
    endloop
  endfacet
  facet normal -0 0 1
    outer loop
      vertex 68.375 12.875 3
      vertex 76.125 5.125 3
      vertex 76.125 12.875 3
    endloop
  endfacet
  facet normal 0 0 1
    outer loop
      vertex 76.125 5.125 3
      vertex 68.375 12.875 3
      vertex 68.375 5.125 3
    endloop
  endfacet
  facet normal 1 -0 0
    outer loop
      vertex 76.125 5.125 3
      vertex 76.125 12.875 1.5
      vertex 76.125 12.875 3
    endloop
  endfacet
  facet normal 1 0 0
    outer loop
      vertex 76.125 12.875 1.5
      vertex 76.125 5.125 3
      vertex 76.125 5.125 1.5
    endloop
  endfacet
  facet normal 0 1 -0
    outer loop
      vertex 76.125 12.875 1.5
      vertex 68.375 12.875 3
      vertex 76.125 12.875 3
    endloop
  endfacet
  facet normal 0 1 0
    outer loop
      vertex 68.375 12.875 3
      vertex 76.125 12.875 1.5
      vertex 68.375 12.875 1.5
    endloop
  endfacet
  facet normal 0 -1 0
    outer loop
      vertex 68.375 5.125 1.5
      vertex 76.125 5.125 3
      vertex 68.375 5.125 3
    endloop
  endfacet
  facet normal 0 -1 -0
    outer loop
      vertex 76.125 5.125 3
      vertex 68.375 5.125 1.5
      vertex 76.125 5.125 1.5
    endloop
  endfacet
  facet normal -1 0 0
    outer loop
      vertex 68.375 5.125 -3
      vertex 68.375 12.875 -1.5
      vertex 68.375 12.875 -3
    endloop
  endfacet
  facet normal -1 -0 0
    outer loop
      vertex 68.375 12.875 -1.5
      vertex 68.375 5.125 -3
      vertex 68.375 5.125 -1.5
    endloop
  endfacet
  facet normal 1 -0 0
    outer loop
      vertex 76.125 5.125 -1.5
      vertex 76.125 12.875 -3
      vertex 76.125 12.875 -1.5
    endloop
  endfacet
  facet normal 1 0 0
    outer loop
      vertex 76.125 12.875 -3
      vertex 76.125 5.125 -1.5
      vertex 76.125 5.125 -3
    endloop
  endfacet
  facet normal 0 1 -0
    outer loop
      vertex 76.125 12.875 -3
      vertex 68.375 12.875 -1.5
      vertex 76.125 12.875 -1.5
    endloop
  endfacet
  facet normal 0 1 0
    outer loop
      vertex 68.375 12.875 -1.5
      vertex 76.125 12.875 -3
      vertex 68.375 12.875 -3
    endloop
  endfacet
  facet normal 0 0 -1
    outer loop
      vertex 68.375 5.125 -3
      vertex 76.125 12.875 -3
      vertex 76.125 5.125 -3
    endloop
  endfacet
  facet normal -0 0 -1
    outer loop
      vertex 76.125 12.875 -3
      vertex 68.375 5.125 -3
      vertex 68.375 12.875 -3
    endloop
  endfacet
  facet normal 0 -1 0
    outer loop
      vertex 68.375 5.125 -3
      vertex 76.125 5.125 -1.5
      vertex 68.375 5.125 -1.5
    endloop
  endfacet
  facet normal 0 -1 -0
    outer loop
      vertex 76.125 5.125 -1.5
      vertex 68.375 5.125 -3
      vertex 76.125 5.125 -3
    endloop
  endfacet
endsolid OpenSCAD_Model
