solid OpenSCAD_Model
  facet normal -1 0 0
    outer loop
      vertex 121.825 40.575 -1.5
      vertex 121.825 49.425 1.5
      vertex 121.825 49.425 -1.5
    endloop
  endfacet
  facet normal -1 -0 0
    outer loop
      vertex 121.825 49.425 1.5
      vertex 121.825 40.575 -1.5
      vertex 121.825 40.575 1.5
    endloop
  endfacet
  facet normal 0 0 1
    outer loop
      vertex 130.675 49.425 1.5
      vertex 130.125 48.875 1.5
      vertex 130.675 40.575 1.5
    endloop
  endfacet
  facet normal 0 0 1
    outer loop
      vertex 130.675 49.425 1.5
      vertex 122.375 48.875 1.5
      vertex 130.125 48.875 1.5
    endloop
  endfacet
  facet normal 0 0 1
    outer loop
      vertex 122.375 48.875 1.5
      vertex 121.825 49.425 1.5
      vertex 122.375 41.125 1.5
    endloop
  endfacet
  facet normal -0 0 1
    outer loop
      vertex 121.825 49.425 1.5
      vertex 122.375 48.875 1.5
      vertex 130.675 49.425 1.5
    endloop
  endfacet
  facet normal -0 0 1
    outer loop
      vertex 130.125 41.125 1.5
      vertex 130.675 40.575 1.5
      vertex 130.125 48.875 1.5
    endloop
  endfacet
  facet normal -0 0 1
    outer loop
      vertex 122.375 41.125 1.5
      vertex 130.675 40.575 1.5
      vertex 130.125 41.125 1.5
    endloop
  endfacet
  facet normal 0 0 1
    outer loop
      vertex 122.375 41.125 1.5
      vertex 121.825 40.575 1.5
      vertex 130.675 40.575 1.5
    endloop
  endfacet
  facet normal 0 0 1
    outer loop
      vertex 121.825 40.575 1.5
      vertex 122.375 41.125 1.5
      vertex 121.825 49.425 1.5
    endloop
  endfacet
  facet normal 1 -0 0
    outer loop
      vertex 130.675 40.575 1.5
      vertex 130.675 49.425 -1.5
      vertex 130.675 49.425 1.5
    endloop
  endfacet
  facet normal 1 0 0
    outer loop
      vertex 130.675 49.425 -1.5
      vertex 130.675 40.575 1.5
      vertex 130.675 40.575 -1.5
    endloop
  endfacet
  facet normal 0 1 -0
    outer loop
      vertex 130.675 49.425 -1.5
      vertex 121.825 49.425 1.5
      vertex 130.675 49.425 1.5
    endloop
  endfacet
  facet normal 0 1 0
    outer loop
      vertex 121.825 49.425 1.5
      vertex 130.675 49.425 -1.5
      vertex 121.825 49.425 -1.5
    endloop
  endfacet
  facet normal 0 0 -1
    outer loop
      vertex 130.675 40.575 -1.5
      vertex 130.125 41.125 -1.5
      vertex 130.675 49.425 -1.5
    endloop
  endfacet
  facet normal 0 0 -1
    outer loop
      vertex 130.675 40.575 -1.5
      vertex 122.375 41.125 -1.5
      vertex 130.125 41.125 -1.5
    endloop
  endfacet
  facet normal -0 0 -1
    outer loop
      vertex 122.375 41.125 -1.5
      vertex 121.825 40.575 -1.5
      vertex 122.375 48.875 -1.5
    endloop
  endfacet
  facet normal 0 0 -1
    outer loop
      vertex 121.825 40.575 -1.5
      vertex 122.375 41.125 -1.5
      vertex 130.675 40.575 -1.5
    endloop
  endfacet
  facet normal 0 0 -1
    outer loop
      vertex 130.125 48.875 -1.5
      vertex 130.675 49.425 -1.5
      vertex 130.125 41.125 -1.5
    endloop
  endfacet
  facet normal 0 0 -1
    outer loop
      vertex 122.375 48.875 -1.5
      vertex 130.675 49.425 -1.5
      vertex 130.125 48.875 -1.5
    endloop
  endfacet
  facet normal 0 0 -1
    outer loop
      vertex 122.375 48.875 -1.5
      vertex 121.825 49.425 -1.5
      vertex 130.675 49.425 -1.5
    endloop
  endfacet
  facet normal 0 0 -1
    outer loop
      vertex 121.825 49.425 -1.5
      vertex 122.375 48.875 -1.5
      vertex 121.825 40.575 -1.5
    endloop
  endfacet
  facet normal 0 -1 0
    outer loop
      vertex 121.825 40.575 -1.5
      vertex 130.675 40.575 1.5
      vertex 121.825 40.575 1.5
    endloop
  endfacet
  facet normal 0 -1 -0
    outer loop
      vertex 130.675 40.575 1.5
      vertex 121.825 40.575 -1.5
      vertex 130.675 40.575 -1.5
    endloop
  endfacet
  facet normal -1 0 0
    outer loop
      vertex 122.375 41.125 1.5
      vertex 122.375 48.875 3
      vertex 122.375 48.875 1.5
    endloop
  endfacet
  facet normal -1 -0 0
    outer loop
      vertex 122.375 48.875 3
      vertex 122.375 41.125 1.5
      vertex 122.375 41.125 3
    endloop
  endfacet
  facet normal -0 0 1
    outer loop
      vertex 122.375 48.875 3
      vertex 130.125 41.125 3
      vertex 130.125 48.875 3
    endloop
  endfacet
  facet normal 0 0 1
    outer loop
      vertex 130.125 41.125 3
      vertex 122.375 48.875 3
      vertex 122.375 41.125 3
    endloop
  endfacet
  facet normal 1 -0 0
    outer loop
      vertex 130.125 41.125 3
      vertex 130.125 48.875 1.5
      vertex 130.125 48.875 3
    endloop
  endfacet
  facet normal 1 0 0
    outer loop
      vertex 130.125 48.875 1.5
      vertex 130.125 41.125 3
      vertex 130.125 41.125 1.5
    endloop
  endfacet
  facet normal 0 1 -0
    outer loop
      vertex 130.125 48.875 1.5
      vertex 122.375 48.875 3
      vertex 130.125 48.875 3
    endloop
  endfacet
  facet normal 0 1 0
    outer loop
      vertex 122.375 48.875 3
      vertex 130.125 48.875 1.5
      vertex 122.375 48.875 1.5
    endloop
  endfacet
  facet normal 0 -1 0
    outer loop
      vertex 122.375 41.125 1.5
      vertex 130.125 41.125 3
      vertex 122.375 41.125 3
    endloop
  endfacet
  facet normal 0 -1 -0
    outer loop
      vertex 130.125 41.125 3
      vertex 122.375 41.125 1.5
      vertex 130.125 41.125 1.5
    endloop
  endfacet
  facet normal -1 0 0
    outer loop
      vertex 122.375 41.125 -3
      vertex 122.375 48.875 -1.5
      vertex 122.375 48.875 -3
    endloop
  endfacet
  facet normal -1 -0 0
    outer loop
      vertex 122.375 48.875 -1.5
      vertex 122.375 41.125 -3
      vertex 122.375 41.125 -1.5
    endloop
  endfacet
  facet normal 1 -0 0
    outer loop
      vertex 130.125 41.125 -1.5
      vertex 130.125 48.875 -3
      vertex 130.125 48.875 -1.5
    endloop
  endfacet
  facet normal 1 0 0
    outer loop
      vertex 130.125 48.875 -3
      vertex 130.125 41.125 -1.5
      vertex 130.125 41.125 -3
    endloop
  endfacet
  facet normal 0 1 -0
    outer loop
      vertex 130.125 48.875 -3
      vertex 122.375 48.875 -1.5
      vertex 130.125 48.875 -1.5
    endloop
  endfacet
  facet normal 0 1 0
    outer loop
      vertex 122.375 48.875 -1.5
      vertex 130.125 48.875 -3
      vertex 122.375 48.875 -3
    endloop
  endfacet
  facet normal 0 0 -1
    outer loop
      vertex 122.375 41.125 -3
      vertex 130.125 48.875 -3
      vertex 130.125 41.125 -3
    endloop
  endfacet
  facet normal -0 0 -1
    outer loop
      vertex 130.125 48.875 -3
      vertex 122.375 41.125 -3
      vertex 122.375 48.875 -3
    endloop
  endfacet
  facet normal 0 -1 0
    outer loop
      vertex 122.375 41.125 -3
      vertex 130.125 41.125 -1.5
      vertex 122.375 41.125 -1.5
    endloop
  endfacet
  facet normal 0 -1 -0
    outer loop
      vertex 130.125 41.125 -1.5
      vertex 122.375 41.125 -3
      vertex 130.125 41.125 -3
    endloop
  endfacet
  facet normal -1 0 0
    outer loop
      vertex 112.825 49.575 -1.5
      vertex 112.825 58.425 1.5
      vertex 112.825 58.425 -1.5
    endloop
  endfacet
  facet normal -1 -0 0
    outer loop
      vertex 112.825 58.425 1.5
      vertex 112.825 49.575 -1.5
      vertex 112.825 49.575 1.5
    endloop
  endfacet
  facet normal 0 0 1
    outer loop
      vertex 121.675 58.425 1.5
      vertex 121.125 57.875 1.5
      vertex 121.675 49.575 1.5
    endloop
  endfacet
  facet normal 0 0 1
    outer loop
      vertex 121.675 58.425 1.5
      vertex 113.375 57.875 1.5
      vertex 121.125 57.875 1.5
    endloop
  endfacet
  facet normal 0 0 1
    outer loop
      vertex 113.375 57.875 1.5
      vertex 112.825 58.425 1.5
      vertex 113.375 50.125 1.5
    endloop
  endfacet
  facet normal -0 0 1
    outer loop
      vertex 112.825 58.425 1.5
      vertex 113.375 57.875 1.5
      vertex 121.675 58.425 1.5
    endloop
  endfacet
  facet normal -0 0 1
    outer loop
      vertex 121.125 50.125 1.5
      vertex 121.675 49.575 1.5
      vertex 121.125 57.875 1.5
    endloop
  endfacet
  facet normal -0 0 1
    outer loop
      vertex 113.375 50.125 1.5
      vertex 121.675 49.575 1.5
      vertex 121.125 50.125 1.5
    endloop
  endfacet
  facet normal 0 0 1
    outer loop
      vertex 113.375 50.125 1.5
      vertex 112.825 49.575 1.5
      vertex 121.675 49.575 1.5
    endloop
  endfacet
  facet normal 0 0 1
    outer loop
      vertex 112.825 49.575 1.5
      vertex 113.375 50.125 1.5
      vertex 112.825 58.425 1.5
    endloop
  endfacet
  facet normal 1 -0 0
    outer loop
      vertex 121.675 49.575 1.5
      vertex 121.675 58.425 -1.5
      vertex 121.675 58.425 1.5
    endloop
  endfacet
  facet normal 1 0 0
    outer loop
      vertex 121.675 58.425 -1.5
      vertex 121.675 49.575 1.5
      vertex 121.675 49.575 -1.5
    endloop
  endfacet
  facet normal 0 1 -0
    outer loop
      vertex 121.675 58.425 -1.5
      vertex 112.825 58.425 1.5
      vertex 121.675 58.425 1.5
    endloop
  endfacet
  facet normal 0 1 0
    outer loop
      vertex 112.825 58.425 1.5
      vertex 121.675 58.425 -1.5
      vertex 112.825 58.425 -1.5
    endloop
  endfacet
  facet normal 0 0 -1
    outer loop
      vertex 121.675 49.575 -1.5
      vertex 121.125 50.125 -1.5
      vertex 121.675 58.425 -1.5
    endloop
  endfacet
  facet normal 0 0 -1
    outer loop
      vertex 121.675 49.575 -1.5
      vertex 113.375 50.125 -1.5
      vertex 121.125 50.125 -1.5
    endloop
  endfacet
  facet normal -0 0 -1
    outer loop
      vertex 113.375 50.125 -1.5
      vertex 112.825 49.575 -1.5
      vertex 113.375 57.875 -1.5
    endloop
  endfacet
  facet normal 0 0 -1
    outer loop
      vertex 112.825 49.575 -1.5
      vertex 113.375 50.125 -1.5
      vertex 121.675 49.575 -1.5
    endloop
  endfacet
  facet normal 0 0 -1
    outer loop
      vertex 121.125 57.875 -1.5
      vertex 121.675 58.425 -1.5
      vertex 121.125 50.125 -1.5
    endloop
  endfacet
  facet normal 0 0 -1
    outer loop
      vertex 113.375 57.875 -1.5
      vertex 121.675 58.425 -1.5
      vertex 121.125 57.875 -1.5
    endloop
  endfacet
  facet normal 0 0 -1
    outer loop
      vertex 113.375 57.875 -1.5
      vertex 112.825 58.425 -1.5
      vertex 121.675 58.425 -1.5
    endloop
  endfacet
  facet normal 0 0 -1
    outer loop
      vertex 112.825 58.425 -1.5
      vertex 113.375 57.875 -1.5
      vertex 112.825 49.575 -1.5
    endloop
  endfacet
  facet normal 0 -1 0
    outer loop
      vertex 112.825 49.575 -1.5
      vertex 121.675 49.575 1.5
      vertex 112.825 49.575 1.5
    endloop
  endfacet
  facet normal 0 -1 -0
    outer loop
      vertex 121.675 49.575 1.5
      vertex 112.825 49.575 -1.5
      vertex 121.675 49.575 -1.5
    endloop
  endfacet
  facet normal -1 0 0
    outer loop
      vertex 113.375 50.125 1.5
      vertex 113.375 57.875 3
      vertex 113.375 57.875 1.5
    endloop
  endfacet
  facet normal -1 -0 0
    outer loop
      vertex 113.375 57.875 3
      vertex 113.375 50.125 1.5
      vertex 113.375 50.125 3
    endloop
  endfacet
  facet normal -0 0 1
    outer loop
      vertex 113.375 57.875 3
      vertex 121.125 50.125 3
      vertex 121.125 57.875 3
    endloop
  endfacet
  facet normal 0 0 1
    outer loop
      vertex 121.125 50.125 3
      vertex 113.375 57.875 3
      vertex 113.375 50.125 3
    endloop
  endfacet
  facet normal 1 -0 0
    outer loop
      vertex 121.125 50.125 3
      vertex 121.125 57.875 1.5
      vertex 121.125 57.875 3
    endloop
  endfacet
  facet normal 1 0 0
    outer loop
      vertex 121.125 57.875 1.5
      vertex 121.125 50.125 3
      vertex 121.125 50.125 1.5
    endloop
  endfacet
  facet normal 0 1 -0
    outer loop
      vertex 121.125 57.875 1.5
      vertex 113.375 57.875 3
      vertex 121.125 57.875 3
    endloop
  endfacet
  facet normal 0 1 0
    outer loop
      vertex 113.375 57.875 3
      vertex 121.125 57.875 1.5
      vertex 113.375 57.875 1.5
    endloop
  endfacet
  facet normal 0 -1 0
    outer loop
      vertex 113.375 50.125 1.5
      vertex 121.125 50.125 3
      vertex 113.375 50.125 3
    endloop
  endfacet
  facet normal 0 -1 -0
    outer loop
      vertex 121.125 50.125 3
      vertex 113.375 50.125 1.5
      vertex 121.125 50.125 1.5
    endloop
  endfacet
  facet normal -1 0 0
    outer loop
      vertex 113.375 50.125 -3
      vertex 113.375 57.875 -1.5
      vertex 113.375 57.875 -3
    endloop
  endfacet
  facet normal -1 -0 0
    outer loop
      vertex 113.375 57.875 -1.5
      vertex 113.375 50.125 -3
      vertex 113.375 50.125 -1.5
    endloop
  endfacet
  facet normal 1 -0 0
    outer loop
      vertex 121.125 50.125 -1.5
      vertex 121.125 57.875 -3
      vertex 121.125 57.875 -1.5
    endloop
  endfacet
  facet normal 1 0 0
    outer loop
      vertex 121.125 57.875 -3
      vertex 121.125 50.125 -1.5
      vertex 121.125 50.125 -3
    endloop
  endfacet
  facet normal 0 1 -0
    outer loop
      vertex 121.125 57.875 -3
      vertex 113.375 57.875 -1.5
      vertex 121.125 57.875 -1.5
    endloop
  endfacet
  facet normal 0 1 0
    outer loop
      vertex 113.375 57.875 -1.5
      vertex 121.125 57.875 -3
      vertex 113.375 57.875 -3
    endloop
  endfacet
  facet normal 0 0 -1
    outer loop
      vertex 113.375 50.125 -3
      vertex 121.125 57.875 -3
      vertex 121.125 50.125 -3
    endloop
  endfacet
  facet normal -0 0 -1
    outer loop
      vertex 121.125 57.875 -3
      vertex 113.375 50.125 -3
      vertex 113.375 57.875 -3
    endloop
  endfacet
  facet normal 0 -1 0
    outer loop
      vertex 113.375 50.125 -3
      vertex 121.125 50.125 -1.5
      vertex 113.375 50.125 -1.5
    endloop
  endfacet
  facet normal 0 -1 -0
    outer loop
      vertex 121.125 50.125 -1.5
      vertex 113.375 50.125 -3
      vertex 121.125 50.125 -3
    endloop
  endfacet
  facet normal -1 0 0
    outer loop
      vertex 121.825 49.575 -1.5
      vertex 121.825 58.425 1.5
      vertex 121.825 58.425 -1.5
    endloop
  endfacet
  facet normal -1 -0 0
    outer loop
      vertex 121.825 58.425 1.5
      vertex 121.825 49.575 -1.5
      vertex 121.825 49.575 1.5
    endloop
  endfacet
  facet normal 0 0 1
    outer loop
      vertex 130.675 58.425 1.5
      vertex 130.125 57.875 1.5
      vertex 130.675 49.575 1.5
    endloop
  endfacet
  facet normal 0 0 1
    outer loop
      vertex 130.675 58.425 1.5
      vertex 122.375 57.875 1.5
      vertex 130.125 57.875 1.5
    endloop
  endfacet
  facet normal 0 0 1
    outer loop
      vertex 122.375 57.875 1.5
      vertex 121.825 58.425 1.5
      vertex 122.375 50.125 1.5
    endloop
  endfacet
  facet normal -0 0 1
    outer loop
      vertex 121.825 58.425 1.5
      vertex 122.375 57.875 1.5
      vertex 130.675 58.425 1.5
    endloop
  endfacet
  facet normal -0 0 1
    outer loop
      vertex 130.125 50.125 1.5
      vertex 130.675 49.575 1.5
      vertex 130.125 57.875 1.5
    endloop
  endfacet
  facet normal -0 0 1
    outer loop
      vertex 122.375 50.125 1.5
      vertex 130.675 49.575 1.5
      vertex 130.125 50.125 1.5
    endloop
  endfacet
  facet normal 0 0 1
    outer loop
      vertex 122.375 50.125 1.5
      vertex 121.825 49.575 1.5
      vertex 130.675 49.575 1.5
    endloop
  endfacet
  facet normal 0 0 1
    outer loop
      vertex 121.825 49.575 1.5
      vertex 122.375 50.125 1.5
      vertex 121.825 58.425 1.5
    endloop
  endfacet
  facet normal 1 -0 0
    outer loop
      vertex 130.675 49.575 1.5
      vertex 130.675 58.425 -1.5
      vertex 130.675 58.425 1.5
    endloop
  endfacet
  facet normal 1 0 0
    outer loop
      vertex 130.675 58.425 -1.5
      vertex 130.675 49.575 1.5
      vertex 130.675 49.575 -1.5
    endloop
  endfacet
  facet normal 0 1 -0
    outer loop
      vertex 130.675 58.425 -1.5
      vertex 121.825 58.425 1.5
      vertex 130.675 58.425 1.5
    endloop
  endfacet
  facet normal 0 1 0
    outer loop
      vertex 121.825 58.425 1.5
      vertex 130.675 58.425 -1.5
      vertex 121.825 58.425 -1.5
    endloop
  endfacet
  facet normal 0 0 -1
    outer loop
      vertex 130.675 49.575 -1.5
      vertex 130.125 50.125 -1.5
      vertex 130.675 58.425 -1.5
    endloop
  endfacet
  facet normal 0 0 -1
    outer loop
      vertex 130.675 49.575 -1.5
      vertex 122.375 50.125 -1.5
      vertex 130.125 50.125 -1.5
    endloop
  endfacet
  facet normal -0 0 -1
    outer loop
      vertex 122.375 50.125 -1.5
      vertex 121.825 49.575 -1.5
      vertex 122.375 57.875 -1.5
    endloop
  endfacet
  facet normal 0 0 -1
    outer loop
      vertex 121.825 49.575 -1.5
      vertex 122.375 50.125 -1.5
      vertex 130.675 49.575 -1.5
    endloop
  endfacet
  facet normal 0 0 -1
    outer loop
      vertex 130.125 57.875 -1.5
      vertex 130.675 58.425 -1.5
      vertex 130.125 50.125 -1.5
    endloop
  endfacet
  facet normal 0 0 -1
    outer loop
      vertex 122.375 57.875 -1.5
      vertex 130.675 58.425 -1.5
      vertex 130.125 57.875 -1.5
    endloop
  endfacet
  facet normal 0 0 -1
    outer loop
      vertex 122.375 57.875 -1.5
      vertex 121.825 58.425 -1.5
      vertex 130.675 58.425 -1.5
    endloop
  endfacet
  facet normal 0 0 -1
    outer loop
      vertex 121.825 58.425 -1.5
      vertex 122.375 57.875 -1.5
      vertex 121.825 49.575 -1.5
    endloop
  endfacet
  facet normal 0 -1 0
    outer loop
      vertex 121.825 49.575 -1.5
      vertex 130.675 49.575 1.5
      vertex 121.825 49.575 1.5
    endloop
  endfacet
  facet normal 0 -1 -0
    outer loop
      vertex 130.675 49.575 1.5
      vertex 121.825 49.575 -1.5
      vertex 130.675 49.575 -1.5
    endloop
  endfacet
  facet normal -1 0 0
    outer loop
      vertex 122.375 50.125 1.5
      vertex 122.375 57.875 3
      vertex 122.375 57.875 1.5
    endloop
  endfacet
  facet normal -1 -0 0
    outer loop
      vertex 122.375 57.875 3
      vertex 122.375 50.125 1.5
      vertex 122.375 50.125 3
    endloop
  endfacet
  facet normal -0 0 1
    outer loop
      vertex 122.375 57.875 3
      vertex 130.125 50.125 3
      vertex 130.125 57.875 3
    endloop
  endfacet
  facet normal 0 0 1
    outer loop
      vertex 130.125 50.125 3
      vertex 122.375 57.875 3
      vertex 122.375 50.125 3
    endloop
  endfacet
  facet normal 1 -0 0
    outer loop
      vertex 130.125 50.125 3
      vertex 130.125 57.875 1.5
      vertex 130.125 57.875 3
    endloop
  endfacet
  facet normal 1 0 0
    outer loop
      vertex 130.125 57.875 1.5
      vertex 130.125 50.125 3
      vertex 130.125 50.125 1.5
    endloop
  endfacet
  facet normal 0 1 -0
    outer loop
      vertex 130.125 57.875 1.5
      vertex 122.375 57.875 3
      vertex 130.125 57.875 3
    endloop
  endfacet
  facet normal 0 1 0
    outer loop
      vertex 122.375 57.875 3
      vertex 130.125 57.875 1.5
      vertex 122.375 57.875 1.5
    endloop
  endfacet
  facet normal 0 -1 0
    outer loop
      vertex 122.375 50.125 1.5
      vertex 130.125 50.125 3
      vertex 122.375 50.125 3
    endloop
  endfacet
  facet normal 0 -1 -0
    outer loop
      vertex 130.125 50.125 3
      vertex 122.375 50.125 1.5
      vertex 130.125 50.125 1.5
    endloop
  endfacet
  facet normal -1 0 0
    outer loop
      vertex 122.375 50.125 -3
      vertex 122.375 57.875 -1.5
      vertex 122.375 57.875 -3
    endloop
  endfacet
  facet normal -1 -0 0
    outer loop
      vertex 122.375 57.875 -1.5
      vertex 122.375 50.125 -3
      vertex 122.375 50.125 -1.5
    endloop
  endfacet
  facet normal 1 -0 0
    outer loop
      vertex 130.125 50.125 -1.5
      vertex 130.125 57.875 -3
      vertex 130.125 57.875 -1.5
    endloop
  endfacet
  facet normal 1 0 0
    outer loop
      vertex 130.125 57.875 -3
      vertex 130.125 50.125 -1.5
      vertex 130.125 50.125 -3
    endloop
  endfacet
  facet normal 0 1 -0
    outer loop
      vertex 130.125 57.875 -3
      vertex 122.375 57.875 -1.5
      vertex 130.125 57.875 -1.5
    endloop
  endfacet
  facet normal 0 1 0
    outer loop
      vertex 122.375 57.875 -1.5
      vertex 130.125 57.875 -3
      vertex 122.375 57.875 -3
    endloop
  endfacet
  facet normal 0 0 -1
    outer loop
      vertex 122.375 50.125 -3
      vertex 130.125 57.875 -3
      vertex 130.125 50.125 -3
    endloop
  endfacet
  facet normal -0 0 -1
    outer loop
      vertex 130.125 57.875 -3
      vertex 122.375 50.125 -3
      vertex 122.375 57.875 -3
    endloop
  endfacet
  facet normal 0 -1 0
    outer loop
      vertex 122.375 50.125 -3
      vertex 130.125 50.125 -1.5
      vertex 122.375 50.125 -1.5
    endloop
  endfacet
  facet normal 0 -1 -0
    outer loop
      vertex 130.125 50.125 -1.5
      vertex 122.375 50.125 -3
      vertex 130.125 50.125 -3
    endloop
  endfacet
  facet normal -1 0 0
    outer loop
      vertex 112.825 58.575 -1.5
      vertex 112.825 67.425 1.5
      vertex 112.825 67.425 -1.5
    endloop
  endfacet
  facet normal -1 -0 0
    outer loop
      vertex 112.825 67.425 1.5
      vertex 112.825 58.575 -1.5
      vertex 112.825 58.575 1.5
    endloop
  endfacet
  facet normal 0 0 1
    outer loop
      vertex 121.675 67.425 1.5
      vertex 121.125 66.875 1.5
      vertex 121.675 58.575 1.5
    endloop
  endfacet
  facet normal 0 0 1
    outer loop
      vertex 121.675 67.425 1.5
      vertex 113.375 66.875 1.5
      vertex 121.125 66.875 1.5
    endloop
  endfacet
  facet normal 0 0 1
    outer loop
      vertex 113.375 66.875 1.5
      vertex 112.825 67.425 1.5
      vertex 113.375 59.125 1.5
    endloop
  endfacet
  facet normal -0 0 1
    outer loop
      vertex 112.825 67.425 1.5
      vertex 113.375 66.875 1.5
      vertex 121.675 67.425 1.5
    endloop
  endfacet
  facet normal -0 0 1
    outer loop
      vertex 121.125 59.125 1.5
      vertex 121.675 58.575 1.5
      vertex 121.125 66.875 1.5
    endloop
  endfacet
  facet normal -0 0 1
    outer loop
      vertex 113.375 59.125 1.5
      vertex 121.675 58.575 1.5
      vertex 121.125 59.125 1.5
    endloop
  endfacet
  facet normal 0 0 1
    outer loop
      vertex 113.375 59.125 1.5
      vertex 112.825 58.575 1.5
      vertex 121.675 58.575 1.5
    endloop
  endfacet
  facet normal 0 0 1
    outer loop
      vertex 112.825 58.575 1.5
      vertex 113.375 59.125 1.5
      vertex 112.825 67.425 1.5
    endloop
  endfacet
  facet normal 1 -0 0
    outer loop
      vertex 121.675 58.575 1.5
      vertex 121.675 67.425 -1.5
      vertex 121.675 67.425 1.5
    endloop
  endfacet
  facet normal 1 0 0
    outer loop
      vertex 121.675 67.425 -1.5
      vertex 121.675 58.575 1.5
      vertex 121.675 58.575 -1.5
    endloop
  endfacet
  facet normal 0 1 -0
    outer loop
      vertex 121.675 67.425 -1.5
      vertex 112.825 67.425 1.5
      vertex 121.675 67.425 1.5
    endloop
  endfacet
  facet normal 0 1 0
    outer loop
      vertex 112.825 67.425 1.5
      vertex 121.675 67.425 -1.5
      vertex 112.825 67.425 -1.5
    endloop
  endfacet
  facet normal 0 0 -1
    outer loop
      vertex 121.675 58.575 -1.5
      vertex 121.125 59.125 -1.5
      vertex 121.675 67.425 -1.5
    endloop
  endfacet
  facet normal 0 0 -1
    outer loop
      vertex 121.675 58.575 -1.5
      vertex 113.375 59.125 -1.5
      vertex 121.125 59.125 -1.5
    endloop
  endfacet
  facet normal -0 0 -1
    outer loop
      vertex 113.375 59.125 -1.5
      vertex 112.825 58.575 -1.5
      vertex 113.375 66.875 -1.5
    endloop
  endfacet
  facet normal 0 0 -1
    outer loop
      vertex 112.825 58.575 -1.5
      vertex 113.375 59.125 -1.5
      vertex 121.675 58.575 -1.5
    endloop
  endfacet
  facet normal 0 0 -1
    outer loop
      vertex 121.125 66.875 -1.5
      vertex 121.675 67.425 -1.5
      vertex 121.125 59.125 -1.5
    endloop
  endfacet
  facet normal 0 0 -1
    outer loop
      vertex 113.375 66.875 -1.5
      vertex 121.675 67.425 -1.5
      vertex 121.125 66.875 -1.5
    endloop
  endfacet
  facet normal 0 0 -1
    outer loop
      vertex 113.375 66.875 -1.5
      vertex 112.825 67.425 -1.5
      vertex 121.675 67.425 -1.5
    endloop
  endfacet
  facet normal 0 0 -1
    outer loop
      vertex 112.825 67.425 -1.5
      vertex 113.375 66.875 -1.5
      vertex 112.825 58.575 -1.5
    endloop
  endfacet
  facet normal 0 -1 0
    outer loop
      vertex 112.825 58.575 -1.5
      vertex 121.675 58.575 1.5
      vertex 112.825 58.575 1.5
    endloop
  endfacet
  facet normal 0 -1 -0
    outer loop
      vertex 121.675 58.575 1.5
      vertex 112.825 58.575 -1.5
      vertex 121.675 58.575 -1.5
    endloop
  endfacet
  facet normal -1 0 0
    outer loop
      vertex 113.375 59.125 1.5
      vertex 113.375 66.875 3
      vertex 113.375 66.875 1.5
    endloop
  endfacet
  facet normal -1 -0 0
    outer loop
      vertex 113.375 66.875 3
      vertex 113.375 59.125 1.5
      vertex 113.375 59.125 3
    endloop
  endfacet
  facet normal -0 0 1
    outer loop
      vertex 113.375 66.875 3
      vertex 121.125 59.125 3
      vertex 121.125 66.875 3
    endloop
  endfacet
  facet normal 0 0 1
    outer loop
      vertex 121.125 59.125 3
      vertex 113.375 66.875 3
      vertex 113.375 59.125 3
    endloop
  endfacet
  facet normal 1 -0 0
    outer loop
      vertex 121.125 59.125 3
      vertex 121.125 66.875 1.5
      vertex 121.125 66.875 3
    endloop
  endfacet
  facet normal 1 0 0
    outer loop
      vertex 121.125 66.875 1.5
      vertex 121.125 59.125 3
      vertex 121.125 59.125 1.5
    endloop
  endfacet
  facet normal 0 1 -0
    outer loop
      vertex 121.125 66.875 1.5
      vertex 113.375 66.875 3
      vertex 121.125 66.875 3
    endloop
  endfacet
  facet normal 0 1 0
    outer loop
      vertex 113.375 66.875 3
      vertex 121.125 66.875 1.5
      vertex 113.375 66.875 1.5
    endloop
  endfacet
  facet normal 0 -1 0
    outer loop
      vertex 113.375 59.125 1.5
      vertex 121.125 59.125 3
      vertex 113.375 59.125 3
    endloop
  endfacet
  facet normal 0 -1 -0
    outer loop
      vertex 121.125 59.125 3
      vertex 113.375 59.125 1.5
      vertex 121.125 59.125 1.5
    endloop
  endfacet
  facet normal -1 0 0
    outer loop
      vertex 113.375 59.125 -3
      vertex 113.375 66.875 -1.5
      vertex 113.375 66.875 -3
    endloop
  endfacet
  facet normal -1 -0 0
    outer loop
      vertex 113.375 66.875 -1.5
      vertex 113.375 59.125 -3
      vertex 113.375 59.125 -1.5
    endloop
  endfacet
  facet normal 1 -0 0
    outer loop
      vertex 121.125 59.125 -1.5
      vertex 121.125 66.875 -3
      vertex 121.125 66.875 -1.5
    endloop
  endfacet
  facet normal 1 0 0
    outer loop
      vertex 121.125 66.875 -3
      vertex 121.125 59.125 -1.5
      vertex 121.125 59.125 -3
    endloop
  endfacet
  facet normal 0 1 -0
    outer loop
      vertex 121.125 66.875 -3
      vertex 113.375 66.875 -1.5
      vertex 121.125 66.875 -1.5
    endloop
  endfacet
  facet normal 0 1 0
    outer loop
      vertex 113.375 66.875 -1.5
      vertex 121.125 66.875 -3
      vertex 113.375 66.875 -3
    endloop
  endfacet
  facet normal 0 0 -1
    outer loop
      vertex 113.375 59.125 -3
      vertex 121.125 66.875 -3
      vertex 121.125 59.125 -3
    endloop
  endfacet
  facet normal -0 0 -1
    outer loop
      vertex 121.125 66.875 -3
      vertex 113.375 59.125 -3
      vertex 113.375 66.875 -3
    endloop
  endfacet
  facet normal 0 -1 0
    outer loop
      vertex 113.375 59.125 -3
      vertex 121.125 59.125 -1.5
      vertex 113.375 59.125 -1.5
    endloop
  endfacet
  facet normal 0 -1 -0
    outer loop
      vertex 121.125 59.125 -1.5
      vertex 113.375 59.125 -3
      vertex 121.125 59.125 -3
    endloop
  endfacet
  facet normal -1 0 0
    outer loop
      vertex 121.825 31.575 -1.5
      vertex 121.825 40.425 1.5
      vertex 121.825 40.425 -1.5
    endloop
  endfacet
  facet normal -1 -0 0
    outer loop
      vertex 121.825 40.425 1.5
      vertex 121.825 31.575 -1.5
      vertex 121.825 31.575 1.5
    endloop
  endfacet
  facet normal 0 0 1
    outer loop
      vertex 130.675 40.425 1.5
      vertex 130.125 39.875 1.5
      vertex 130.675 31.575 1.5
    endloop
  endfacet
  facet normal 0 0 1
    outer loop
      vertex 130.675 40.425 1.5
      vertex 122.375 39.875 1.5
      vertex 130.125 39.875 1.5
    endloop
  endfacet
  facet normal 0 0 1
    outer loop
      vertex 122.375 39.875 1.5
      vertex 121.825 40.425 1.5
      vertex 122.375 32.125 1.5
    endloop
  endfacet
  facet normal -0 0 1
    outer loop
      vertex 121.825 40.425 1.5
      vertex 122.375 39.875 1.5
      vertex 130.675 40.425 1.5
    endloop
  endfacet
  facet normal -0 0 1
    outer loop
      vertex 130.125 32.125 1.5
      vertex 130.675 31.575 1.5
      vertex 130.125 39.875 1.5
    endloop
  endfacet
  facet normal -0 0 1
    outer loop
      vertex 122.375 32.125 1.5
      vertex 130.675 31.575 1.5
      vertex 130.125 32.125 1.5
    endloop
  endfacet
  facet normal 0 0 1
    outer loop
      vertex 122.375 32.125 1.5
      vertex 121.825 31.575 1.5
      vertex 130.675 31.575 1.5
    endloop
  endfacet
  facet normal 0 0 1
    outer loop
      vertex 121.825 31.575 1.5
      vertex 122.375 32.125 1.5
      vertex 121.825 40.425 1.5
    endloop
  endfacet
  facet normal 1 -0 0
    outer loop
      vertex 130.675 31.575 1.5
      vertex 130.675 40.425 -1.5
      vertex 130.675 40.425 1.5
    endloop
  endfacet
  facet normal 1 0 0
    outer loop
      vertex 130.675 40.425 -1.5
      vertex 130.675 31.575 1.5
      vertex 130.675 31.575 -1.5
    endloop
  endfacet
  facet normal 0 1 -0
    outer loop
      vertex 130.675 40.425 -1.5
      vertex 121.825 40.425 1.5
      vertex 130.675 40.425 1.5
    endloop
  endfacet
  facet normal 0 1 0
    outer loop
      vertex 121.825 40.425 1.5
      vertex 130.675 40.425 -1.5
      vertex 121.825 40.425 -1.5
    endloop
  endfacet
  facet normal 0 0 -1
    outer loop
      vertex 130.675 31.575 -1.5
      vertex 130.125 32.125 -1.5
      vertex 130.675 40.425 -1.5
    endloop
  endfacet
  facet normal 0 0 -1
    outer loop
      vertex 130.675 31.575 -1.5
      vertex 122.375 32.125 -1.5
      vertex 130.125 32.125 -1.5
    endloop
  endfacet
  facet normal -0 0 -1
    outer loop
      vertex 122.375 32.125 -1.5
      vertex 121.825 31.575 -1.5
      vertex 122.375 39.875 -1.5
    endloop
  endfacet
  facet normal 0 0 -1
    outer loop
      vertex 121.825 31.575 -1.5
      vertex 122.375 32.125 -1.5
      vertex 130.675 31.575 -1.5
    endloop
  endfacet
  facet normal 0 0 -1
    outer loop
      vertex 130.125 39.875 -1.5
      vertex 130.675 40.425 -1.5
      vertex 130.125 32.125 -1.5
    endloop
  endfacet
  facet normal 0 0 -1
    outer loop
      vertex 122.375 39.875 -1.5
      vertex 130.675 40.425 -1.5
      vertex 130.125 39.875 -1.5
    endloop
  endfacet
  facet normal 0 0 -1
    outer loop
      vertex 122.375 39.875 -1.5
      vertex 121.825 40.425 -1.5
      vertex 130.675 40.425 -1.5
    endloop
  endfacet
  facet normal 0 0 -1
    outer loop
      vertex 121.825 40.425 -1.5
      vertex 122.375 39.875 -1.5
      vertex 121.825 31.575 -1.5
    endloop
  endfacet
  facet normal 0 -1 0
    outer loop
      vertex 121.825 31.575 -1.5
      vertex 130.675 31.575 1.5
      vertex 121.825 31.575 1.5
    endloop
  endfacet
  facet normal 0 -1 -0
    outer loop
      vertex 130.675 31.575 1.5
      vertex 121.825 31.575 -1.5
      vertex 130.675 31.575 -1.5
    endloop
  endfacet
  facet normal -1 0 0
    outer loop
      vertex 122.375 32.125 1.5
      vertex 122.375 39.875 3
      vertex 122.375 39.875 1.5
    endloop
  endfacet
  facet normal -1 -0 0
    outer loop
      vertex 122.375 39.875 3
      vertex 122.375 32.125 1.5
      vertex 122.375 32.125 3
    endloop
  endfacet
  facet normal -0 0 1
    outer loop
      vertex 122.375 39.875 3
      vertex 130.125 32.125 3
      vertex 130.125 39.875 3
    endloop
  endfacet
  facet normal 0 0 1
    outer loop
      vertex 130.125 32.125 3
      vertex 122.375 39.875 3
      vertex 122.375 32.125 3
    endloop
  endfacet
  facet normal 1 -0 0
    outer loop
      vertex 130.125 32.125 3
      vertex 130.125 39.875 1.5
      vertex 130.125 39.875 3
    endloop
  endfacet
  facet normal 1 0 0
    outer loop
      vertex 130.125 39.875 1.5
      vertex 130.125 32.125 3
      vertex 130.125 32.125 1.5
    endloop
  endfacet
  facet normal 0 1 -0
    outer loop
      vertex 130.125 39.875 1.5
      vertex 122.375 39.875 3
      vertex 130.125 39.875 3
    endloop
  endfacet
  facet normal 0 1 0
    outer loop
      vertex 122.375 39.875 3
      vertex 130.125 39.875 1.5
      vertex 122.375 39.875 1.5
    endloop
  endfacet
  facet normal 0 -1 0
    outer loop
      vertex 122.375 32.125 1.5
      vertex 130.125 32.125 3
      vertex 122.375 32.125 3
    endloop
  endfacet
  facet normal 0 -1 -0
    outer loop
      vertex 130.125 32.125 3
      vertex 122.375 32.125 1.5
      vertex 130.125 32.125 1.5
    endloop
  endfacet
  facet normal -1 0 0
    outer loop
      vertex 122.375 32.125 -3
      vertex 122.375 39.875 -1.5
      vertex 122.375 39.875 -3
    endloop
  endfacet
  facet normal -1 -0 0
    outer loop
      vertex 122.375 39.875 -1.5
      vertex 122.375 32.125 -3
      vertex 122.375 32.125 -1.5
    endloop
  endfacet
  facet normal 1 -0 0
    outer loop
      vertex 130.125 32.125 -1.5
      vertex 130.125 39.875 -3
      vertex 130.125 39.875 -1.5
    endloop
  endfacet
  facet normal 1 0 0
    outer loop
      vertex 130.125 39.875 -3
      vertex 130.125 32.125 -1.5
      vertex 130.125 32.125 -3
    endloop
  endfacet
  facet normal 0 1 -0
    outer loop
      vertex 130.125 39.875 -3
      vertex 122.375 39.875 -1.5
      vertex 130.125 39.875 -1.5
    endloop
  endfacet
  facet normal 0 1 0
    outer loop
      vertex 122.375 39.875 -1.5
      vertex 130.125 39.875 -3
      vertex 122.375 39.875 -3
    endloop
  endfacet
  facet normal 0 0 -1
    outer loop
      vertex 122.375 32.125 -3
      vertex 130.125 39.875 -3
      vertex 130.125 32.125 -3
    endloop
  endfacet
  facet normal -0 0 -1
    outer loop
      vertex 130.125 39.875 -3
      vertex 122.375 32.125 -3
      vertex 122.375 39.875 -3
    endloop
  endfacet
  facet normal 0 -1 0
    outer loop
      vertex 122.375 32.125 -3
      vertex 130.125 32.125 -1.5
      vertex 122.375 32.125 -1.5
    endloop
  endfacet
  facet normal 0 -1 -0
    outer loop
      vertex 130.125 32.125 -1.5
      vertex 122.375 32.125 -3
      vertex 130.125 32.125 -3
    endloop
  endfacet
endsolid OpenSCAD_Model
