solid OpenSCAD_Model
  facet normal -1 0 0
    outer loop
      vertex 58.825 22.575 -1.5
      vertex 58.825 31.425 1.5
      vertex 58.825 31.425 -1.5
    endloop
  endfacet
  facet normal -1 -0 0
    outer loop
      vertex 58.825 31.425 1.5
      vertex 58.825 22.575 -1.5
      vertex 58.825 22.575 1.5
    endloop
  endfacet
  facet normal 0 0 1
    outer loop
      vertex 67.675 31.425 1.5
      vertex 67.125 30.875 1.5
      vertex 67.675 22.575 1.5
    endloop
  endfacet
  facet normal 0 0 1
    outer loop
      vertex 67.675 31.425 1.5
      vertex 59.375 30.875 1.5
      vertex 67.125 30.875 1.5
    endloop
  endfacet
  facet normal 0 0 1
    outer loop
      vertex 59.375 30.875 1.5
      vertex 58.825 31.425 1.5
      vertex 59.375 23.125 1.5
    endloop
  endfacet
  facet normal -0 0 1
    outer loop
      vertex 58.825 31.425 1.5
      vertex 59.375 30.875 1.5
      vertex 67.675 31.425 1.5
    endloop
  endfacet
  facet normal -0 0 1
    outer loop
      vertex 67.125 23.125 1.5
      vertex 67.675 22.575 1.5
      vertex 67.125 30.875 1.5
    endloop
  endfacet
  facet normal -0 0 1
    outer loop
      vertex 59.375 23.125 1.5
      vertex 67.675 22.575 1.5
      vertex 67.125 23.125 1.5
    endloop
  endfacet
  facet normal 0 0 1
    outer loop
      vertex 59.375 23.125 1.5
      vertex 58.825 22.575 1.5
      vertex 67.675 22.575 1.5
    endloop
  endfacet
  facet normal 0 0 1
    outer loop
      vertex 58.825 22.575 1.5
      vertex 59.375 23.125 1.5
      vertex 58.825 31.425 1.5
    endloop
  endfacet
  facet normal 1 -0 0
    outer loop
      vertex 67.675 22.575 1.5
      vertex 67.675 31.425 -1.5
      vertex 67.675 31.425 1.5
    endloop
  endfacet
  facet normal 1 0 0
    outer loop
      vertex 67.675 31.425 -1.5
      vertex 67.675 22.575 1.5
      vertex 67.675 22.575 -1.5
    endloop
  endfacet
  facet normal 0 1 -0
    outer loop
      vertex 67.675 31.425 -1.5
      vertex 58.825 31.425 1.5
      vertex 67.675 31.425 1.5
    endloop
  endfacet
  facet normal 0 1 0
    outer loop
      vertex 58.825 31.425 1.5
      vertex 67.675 31.425 -1.5
      vertex 58.825 31.425 -1.5
    endloop
  endfacet
  facet normal 0 0 -1
    outer loop
      vertex 67.675 22.575 -1.5
      vertex 67.125 23.125 -1.5
      vertex 67.675 31.425 -1.5
    endloop
  endfacet
  facet normal 0 0 -1
    outer loop
      vertex 67.675 22.575 -1.5
      vertex 59.375 23.125 -1.5
      vertex 67.125 23.125 -1.5
    endloop
  endfacet
  facet normal -0 0 -1
    outer loop
      vertex 59.375 23.125 -1.5
      vertex 58.825 22.575 -1.5
      vertex 59.375 30.875 -1.5
    endloop
  endfacet
  facet normal 0 0 -1
    outer loop
      vertex 58.825 22.575 -1.5
      vertex 59.375 23.125 -1.5
      vertex 67.675 22.575 -1.5
    endloop
  endfacet
  facet normal 0 0 -1
    outer loop
      vertex 67.125 30.875 -1.5
      vertex 67.675 31.425 -1.5
      vertex 67.125 23.125 -1.5
    endloop
  endfacet
  facet normal 0 0 -1
    outer loop
      vertex 59.375 30.875 -1.5
      vertex 67.675 31.425 -1.5
      vertex 67.125 30.875 -1.5
    endloop
  endfacet
  facet normal 0 0 -1
    outer loop
      vertex 59.375 30.875 -1.5
      vertex 58.825 31.425 -1.5
      vertex 67.675 31.425 -1.5
    endloop
  endfacet
  facet normal 0 0 -1
    outer loop
      vertex 58.825 31.425 -1.5
      vertex 59.375 30.875 -1.5
      vertex 58.825 22.575 -1.5
    endloop
  endfacet
  facet normal 0 -1 0
    outer loop
      vertex 58.825 22.575 -1.5
      vertex 67.675 22.575 1.5
      vertex 58.825 22.575 1.5
    endloop
  endfacet
  facet normal 0 -1 -0
    outer loop
      vertex 67.675 22.575 1.5
      vertex 58.825 22.575 -1.5
      vertex 67.675 22.575 -1.5
    endloop
  endfacet
  facet normal -1 0 0
    outer loop
      vertex 59.375 23.125 1.5
      vertex 59.375 30.875 3
      vertex 59.375 30.875 1.5
    endloop
  endfacet
  facet normal -1 -0 0
    outer loop
      vertex 59.375 30.875 3
      vertex 59.375 23.125 1.5
      vertex 59.375 23.125 3
    endloop
  endfacet
  facet normal -0 0 1
    outer loop
      vertex 59.375 30.875 3
      vertex 67.125 23.125 3
      vertex 67.125 30.875 3
    endloop
  endfacet
  facet normal 0 0 1
    outer loop
      vertex 67.125 23.125 3
      vertex 59.375 30.875 3
      vertex 59.375 23.125 3
    endloop
  endfacet
  facet normal 1 -0 0
    outer loop
      vertex 67.125 23.125 3
      vertex 67.125 30.875 1.5
      vertex 67.125 30.875 3
    endloop
  endfacet
  facet normal 1 0 0
    outer loop
      vertex 67.125 30.875 1.5
      vertex 67.125 23.125 3
      vertex 67.125 23.125 1.5
    endloop
  endfacet
  facet normal 0 1 -0
    outer loop
      vertex 67.125 30.875 1.5
      vertex 59.375 30.875 3
      vertex 67.125 30.875 3
    endloop
  endfacet
  facet normal 0 1 0
    outer loop
      vertex 59.375 30.875 3
      vertex 67.125 30.875 1.5
      vertex 59.375 30.875 1.5
    endloop
  endfacet
  facet normal 0 -1 0
    outer loop
      vertex 59.375 23.125 1.5
      vertex 67.125 23.125 3
      vertex 59.375 23.125 3
    endloop
  endfacet
  facet normal 0 -1 -0
    outer loop
      vertex 67.125 23.125 3
      vertex 59.375 23.125 1.5
      vertex 67.125 23.125 1.5
    endloop
  endfacet
  facet normal -1 0 0
    outer loop
      vertex 59.375 23.125 -3
      vertex 59.375 30.875 -1.5
      vertex 59.375 30.875 -3
    endloop
  endfacet
  facet normal -1 -0 0
    outer loop
      vertex 59.375 30.875 -1.5
      vertex 59.375 23.125 -3
      vertex 59.375 23.125 -1.5
    endloop
  endfacet
  facet normal 1 -0 0
    outer loop
      vertex 67.125 23.125 -1.5
      vertex 67.125 30.875 -3
      vertex 67.125 30.875 -1.5
    endloop
  endfacet
  facet normal 1 0 0
    outer loop
      vertex 67.125 30.875 -3
      vertex 67.125 23.125 -1.5
      vertex 67.125 23.125 -3
    endloop
  endfacet
  facet normal 0 1 -0
    outer loop
      vertex 67.125 30.875 -3
      vertex 59.375 30.875 -1.5
      vertex 67.125 30.875 -1.5
    endloop
  endfacet
  facet normal 0 1 0
    outer loop
      vertex 59.375 30.875 -1.5
      vertex 67.125 30.875 -3
      vertex 59.375 30.875 -3
    endloop
  endfacet
  facet normal 0 0 -1
    outer loop
      vertex 59.375 23.125 -3
      vertex 67.125 30.875 -3
      vertex 67.125 23.125 -3
    endloop
  endfacet
  facet normal -0 0 -1
    outer loop
      vertex 67.125 30.875 -3
      vertex 59.375 23.125 -3
      vertex 59.375 30.875 -3
    endloop
  endfacet
  facet normal 0 -1 0
    outer loop
      vertex 59.375 23.125 -3
      vertex 67.125 23.125 -1.5
      vertex 59.375 23.125 -1.5
    endloop
  endfacet
  facet normal 0 -1 -0
    outer loop
      vertex 67.125 23.125 -1.5
      vertex 59.375 23.125 -3
      vertex 67.125 23.125 -3
    endloop
  endfacet
  facet normal -1 0 0
    outer loop
      vertex 67.825 22.575 -1.5
      vertex 67.825 31.425 1.5
      vertex 67.825 31.425 -1.5
    endloop
  endfacet
  facet normal -1 -0 0
    outer loop
      vertex 67.825 31.425 1.5
      vertex 67.825 22.575 -1.5
      vertex 67.825 22.575 1.5
    endloop
  endfacet
  facet normal 0 0 1
    outer loop
      vertex 76.675 31.425 1.5
      vertex 76.125 30.875 1.5
      vertex 76.675 22.575 1.5
    endloop
  endfacet
  facet normal 0 0 1
    outer loop
      vertex 76.675 31.425 1.5
      vertex 68.375 30.875 1.5
      vertex 76.125 30.875 1.5
    endloop
  endfacet
  facet normal 0 0 1
    outer loop
      vertex 68.375 30.875 1.5
      vertex 67.825 31.425 1.5
      vertex 68.375 23.125 1.5
    endloop
  endfacet
  facet normal -0 0 1
    outer loop
      vertex 67.825 31.425 1.5
      vertex 68.375 30.875 1.5
      vertex 76.675 31.425 1.5
    endloop
  endfacet
  facet normal -0 0 1
    outer loop
      vertex 76.125 23.125 1.5
      vertex 76.675 22.575 1.5
      vertex 76.125 30.875 1.5
    endloop
  endfacet
  facet normal -0 0 1
    outer loop
      vertex 68.375 23.125 1.5
      vertex 76.675 22.575 1.5
      vertex 76.125 23.125 1.5
    endloop
  endfacet
  facet normal 0 0 1
    outer loop
      vertex 68.375 23.125 1.5
      vertex 67.825 22.575 1.5
      vertex 76.675 22.575 1.5
    endloop
  endfacet
  facet normal 0 0 1
    outer loop
      vertex 67.825 22.575 1.5
      vertex 68.375 23.125 1.5
      vertex 67.825 31.425 1.5
    endloop
  endfacet
  facet normal 1 -0 0
    outer loop
      vertex 76.675 22.575 1.5
      vertex 76.675 31.425 -1.5
      vertex 76.675 31.425 1.5
    endloop
  endfacet
  facet normal 1 0 0
    outer loop
      vertex 76.675 31.425 -1.5
      vertex 76.675 22.575 1.5
      vertex 76.675 22.575 -1.5
    endloop
  endfacet
  facet normal 0 1 -0
    outer loop
      vertex 76.675 31.425 -1.5
      vertex 67.825 31.425 1.5
      vertex 76.675 31.425 1.5
    endloop
  endfacet
  facet normal 0 1 0
    outer loop
      vertex 67.825 31.425 1.5
      vertex 76.675 31.425 -1.5
      vertex 67.825 31.425 -1.5
    endloop
  endfacet
  facet normal 0 0 -1
    outer loop
      vertex 76.675 22.575 -1.5
      vertex 76.125 23.125 -1.5
      vertex 76.675 31.425 -1.5
    endloop
  endfacet
  facet normal 0 0 -1
    outer loop
      vertex 76.675 22.575 -1.5
      vertex 68.375 23.125 -1.5
      vertex 76.125 23.125 -1.5
    endloop
  endfacet
  facet normal -0 0 -1
    outer loop
      vertex 68.375 23.125 -1.5
      vertex 67.825 22.575 -1.5
      vertex 68.375 30.875 -1.5
    endloop
  endfacet
  facet normal 0 0 -1
    outer loop
      vertex 67.825 22.575 -1.5
      vertex 68.375 23.125 -1.5
      vertex 76.675 22.575 -1.5
    endloop
  endfacet
  facet normal 0 0 -1
    outer loop
      vertex 76.125 30.875 -1.5
      vertex 76.675 31.425 -1.5
      vertex 76.125 23.125 -1.5
    endloop
  endfacet
  facet normal 0 0 -1
    outer loop
      vertex 68.375 30.875 -1.5
      vertex 76.675 31.425 -1.5
      vertex 76.125 30.875 -1.5
    endloop
  endfacet
  facet normal 0 0 -1
    outer loop
      vertex 68.375 30.875 -1.5
      vertex 67.825 31.425 -1.5
      vertex 76.675 31.425 -1.5
    endloop
  endfacet
  facet normal 0 0 -1
    outer loop
      vertex 67.825 31.425 -1.5
      vertex 68.375 30.875 -1.5
      vertex 67.825 22.575 -1.5
    endloop
  endfacet
  facet normal 0 -1 0
    outer loop
      vertex 67.825 22.575 -1.5
      vertex 76.675 22.575 1.5
      vertex 67.825 22.575 1.5
    endloop
  endfacet
  facet normal 0 -1 -0
    outer loop
      vertex 76.675 22.575 1.5
      vertex 67.825 22.575 -1.5
      vertex 76.675 22.575 -1.5
    endloop
  endfacet
  facet normal -1 0 0
    outer loop
      vertex 68.375 23.125 1.5
      vertex 68.375 30.875 3
      vertex 68.375 30.875 1.5
    endloop
  endfacet
  facet normal -1 -0 0
    outer loop
      vertex 68.375 30.875 3
      vertex 68.375 23.125 1.5
      vertex 68.375 23.125 3
    endloop
  endfacet
  facet normal -0 0 1
    outer loop
      vertex 68.375 30.875 3
      vertex 76.125 23.125 3
      vertex 76.125 30.875 3
    endloop
  endfacet
  facet normal 0 0 1
    outer loop
      vertex 76.125 23.125 3
      vertex 68.375 30.875 3
      vertex 68.375 23.125 3
    endloop
  endfacet
  facet normal 1 -0 0
    outer loop
      vertex 76.125 23.125 3
      vertex 76.125 30.875 1.5
      vertex 76.125 30.875 3
    endloop
  endfacet
  facet normal 1 0 0
    outer loop
      vertex 76.125 30.875 1.5
      vertex 76.125 23.125 3
      vertex 76.125 23.125 1.5
    endloop
  endfacet
  facet normal 0 1 -0
    outer loop
      vertex 76.125 30.875 1.5
      vertex 68.375 30.875 3
      vertex 76.125 30.875 3
    endloop
  endfacet
  facet normal 0 1 0
    outer loop
      vertex 68.375 30.875 3
      vertex 76.125 30.875 1.5
      vertex 68.375 30.875 1.5
    endloop
  endfacet
  facet normal 0 -1 0
    outer loop
      vertex 68.375 23.125 1.5
      vertex 76.125 23.125 3
      vertex 68.375 23.125 3
    endloop
  endfacet
  facet normal 0 -1 -0
    outer loop
      vertex 76.125 23.125 3
      vertex 68.375 23.125 1.5
      vertex 76.125 23.125 1.5
    endloop
  endfacet
  facet normal -1 0 0
    outer loop
      vertex 68.375 23.125 -3
      vertex 68.375 30.875 -1.5
      vertex 68.375 30.875 -3
    endloop
  endfacet
  facet normal -1 -0 0
    outer loop
      vertex 68.375 30.875 -1.5
      vertex 68.375 23.125 -3
      vertex 68.375 23.125 -1.5
    endloop
  endfacet
  facet normal 1 -0 0
    outer loop
      vertex 76.125 23.125 -1.5
      vertex 76.125 30.875 -3
      vertex 76.125 30.875 -1.5
    endloop
  endfacet
  facet normal 1 0 0
    outer loop
      vertex 76.125 30.875 -3
      vertex 76.125 23.125 -1.5
      vertex 76.125 23.125 -3
    endloop
  endfacet
  facet normal 0 1 -0
    outer loop
      vertex 76.125 30.875 -3
      vertex 68.375 30.875 -1.5
      vertex 76.125 30.875 -1.5
    endloop
  endfacet
  facet normal 0 1 0
    outer loop
      vertex 68.375 30.875 -1.5
      vertex 76.125 30.875 -3
      vertex 68.375 30.875 -3
    endloop
  endfacet
  facet normal 0 0 -1
    outer loop
      vertex 68.375 23.125 -3
      vertex 76.125 30.875 -3
      vertex 76.125 23.125 -3
    endloop
  endfacet
  facet normal -0 0 -1
    outer loop
      vertex 76.125 30.875 -3
      vertex 68.375 23.125 -3
      vertex 68.375 30.875 -3
    endloop
  endfacet
  facet normal 0 -1 0
    outer loop
      vertex 68.375 23.125 -3
      vertex 76.125 23.125 -1.5
      vertex 68.375 23.125 -1.5
    endloop
  endfacet
  facet normal 0 -1 -0
    outer loop
      vertex 76.125 23.125 -1.5
      vertex 68.375 23.125 -3
      vertex 76.125 23.125 -3
    endloop
  endfacet
  facet normal -1 0 0
    outer loop
      vertex 67.825 31.575 -1.5
      vertex 67.825 40.425 1.5
      vertex 67.825 40.425 -1.5
    endloop
  endfacet
  facet normal -1 -0 0
    outer loop
      vertex 67.825 40.425 1.5
      vertex 67.825 31.575 -1.5
      vertex 67.825 31.575 1.5
    endloop
  endfacet
  facet normal 0 0 1
    outer loop
      vertex 76.675 40.425 1.5
      vertex 76.125 39.875 1.5
      vertex 76.675 31.575 1.5
    endloop
  endfacet
  facet normal 0 0 1
    outer loop
      vertex 76.675 40.425 1.5
      vertex 68.375 39.875 1.5
      vertex 76.125 39.875 1.5
    endloop
  endfacet
  facet normal 0 0 1
    outer loop
      vertex 68.375 39.875 1.5
      vertex 67.825 40.425 1.5
      vertex 68.375 32.125 1.5
    endloop
  endfacet
  facet normal -0 0 1
    outer loop
      vertex 67.825 40.425 1.5
      vertex 68.375 39.875 1.5
      vertex 76.675 40.425 1.5
    endloop
  endfacet
  facet normal -0 0 1
    outer loop
      vertex 76.125 32.125 1.5
      vertex 76.675 31.575 1.5
      vertex 76.125 39.875 1.5
    endloop
  endfacet
  facet normal -0 0 1
    outer loop
      vertex 68.375 32.125 1.5
      vertex 76.675 31.575 1.5
      vertex 76.125 32.125 1.5
    endloop
  endfacet
  facet normal 0 0 1
    outer loop
      vertex 68.375 32.125 1.5
      vertex 67.825 31.575 1.5
      vertex 76.675 31.575 1.5
    endloop
  endfacet
  facet normal 0 0 1
    outer loop
      vertex 67.825 31.575 1.5
      vertex 68.375 32.125 1.5
      vertex 67.825 40.425 1.5
    endloop
  endfacet
  facet normal 1 -0 0
    outer loop
      vertex 76.675 31.575 1.5
      vertex 76.675 40.425 -1.5
      vertex 76.675 40.425 1.5
    endloop
  endfacet
  facet normal 1 0 0
    outer loop
      vertex 76.675 40.425 -1.5
      vertex 76.675 31.575 1.5
      vertex 76.675 31.575 -1.5
    endloop
  endfacet
  facet normal 0 1 -0
    outer loop
      vertex 76.675 40.425 -1.5
      vertex 67.825 40.425 1.5
      vertex 76.675 40.425 1.5
    endloop
  endfacet
  facet normal 0 1 0
    outer loop
      vertex 67.825 40.425 1.5
      vertex 76.675 40.425 -1.5
      vertex 67.825 40.425 -1.5
    endloop
  endfacet
  facet normal 0 0 -1
    outer loop
      vertex 76.675 31.575 -1.5
      vertex 76.125 32.125 -1.5
      vertex 76.675 40.425 -1.5
    endloop
  endfacet
  facet normal 0 0 -1
    outer loop
      vertex 76.675 31.575 -1.5
      vertex 68.375 32.125 -1.5
      vertex 76.125 32.125 -1.5
    endloop
  endfacet
  facet normal -0 0 -1
    outer loop
      vertex 68.375 32.125 -1.5
      vertex 67.825 31.575 -1.5
      vertex 68.375 39.875 -1.5
    endloop
  endfacet
  facet normal 0 0 -1
    outer loop
      vertex 67.825 31.575 -1.5
      vertex 68.375 32.125 -1.5
      vertex 76.675 31.575 -1.5
    endloop
  endfacet
  facet normal 0 0 -1
    outer loop
      vertex 76.125 39.875 -1.5
      vertex 76.675 40.425 -1.5
      vertex 76.125 32.125 -1.5
    endloop
  endfacet
  facet normal 0 0 -1
    outer loop
      vertex 68.375 39.875 -1.5
      vertex 76.675 40.425 -1.5
      vertex 76.125 39.875 -1.5
    endloop
  endfacet
  facet normal 0 0 -1
    outer loop
      vertex 68.375 39.875 -1.5
      vertex 67.825 40.425 -1.5
      vertex 76.675 40.425 -1.5
    endloop
  endfacet
  facet normal 0 0 -1
    outer loop
      vertex 67.825 40.425 -1.5
      vertex 68.375 39.875 -1.5
      vertex 67.825 31.575 -1.5
    endloop
  endfacet
  facet normal 0 -1 0
    outer loop
      vertex 67.825 31.575 -1.5
      vertex 76.675 31.575 1.5
      vertex 67.825 31.575 1.5
    endloop
  endfacet
  facet normal 0 -1 -0
    outer loop
      vertex 76.675 31.575 1.5
      vertex 67.825 31.575 -1.5
      vertex 76.675 31.575 -1.5
    endloop
  endfacet
  facet normal -1 0 0
    outer loop
      vertex 68.375 32.125 1.5
      vertex 68.375 39.875 3
      vertex 68.375 39.875 1.5
    endloop
  endfacet
  facet normal -1 -0 0
    outer loop
      vertex 68.375 39.875 3
      vertex 68.375 32.125 1.5
      vertex 68.375 32.125 3
    endloop
  endfacet
  facet normal -0 0 1
    outer loop
      vertex 68.375 39.875 3
      vertex 76.125 32.125 3
      vertex 76.125 39.875 3
    endloop
  endfacet
  facet normal 0 0 1
    outer loop
      vertex 76.125 32.125 3
      vertex 68.375 39.875 3
      vertex 68.375 32.125 3
    endloop
  endfacet
  facet normal 1 -0 0
    outer loop
      vertex 76.125 32.125 3
      vertex 76.125 39.875 1.5
      vertex 76.125 39.875 3
    endloop
  endfacet
  facet normal 1 0 0
    outer loop
      vertex 76.125 39.875 1.5
      vertex 76.125 32.125 3
      vertex 76.125 32.125 1.5
    endloop
  endfacet
  facet normal 0 1 -0
    outer loop
      vertex 76.125 39.875 1.5
      vertex 68.375 39.875 3
      vertex 76.125 39.875 3
    endloop
  endfacet
  facet normal 0 1 0
    outer loop
      vertex 68.375 39.875 3
      vertex 76.125 39.875 1.5
      vertex 68.375 39.875 1.5
    endloop
  endfacet
  facet normal 0 -1 0
    outer loop
      vertex 68.375 32.125 1.5
      vertex 76.125 32.125 3
      vertex 68.375 32.125 3
    endloop
  endfacet
  facet normal 0 -1 -0
    outer loop
      vertex 76.125 32.125 3
      vertex 68.375 32.125 1.5
      vertex 76.125 32.125 1.5
    endloop
  endfacet
  facet normal -1 0 0
    outer loop
      vertex 68.375 32.125 -3
      vertex 68.375 39.875 -1.5
      vertex 68.375 39.875 -3
    endloop
  endfacet
  facet normal -1 -0 0
    outer loop
      vertex 68.375 39.875 -1.5
      vertex 68.375 32.125 -3
      vertex 68.375 32.125 -1.5
    endloop
  endfacet
  facet normal 1 -0 0
    outer loop
      vertex 76.125 32.125 -1.5
      vertex 76.125 39.875 -3
      vertex 76.125 39.875 -1.5
    endloop
  endfacet
  facet normal 1 0 0
    outer loop
      vertex 76.125 39.875 -3
      vertex 76.125 32.125 -1.5
      vertex 76.125 32.125 -3
    endloop
  endfacet
  facet normal 0 1 -0
    outer loop
      vertex 76.125 39.875 -3
      vertex 68.375 39.875 -1.5
      vertex 76.125 39.875 -1.5
    endloop
  endfacet
  facet normal 0 1 0
    outer loop
      vertex 68.375 39.875 -1.5
      vertex 76.125 39.875 -3
      vertex 68.375 39.875 -3
    endloop
  endfacet
  facet normal 0 0 -1
    outer loop
      vertex 68.375 32.125 -3
      vertex 76.125 39.875 -3
      vertex 76.125 32.125 -3
    endloop
  endfacet
  facet normal -0 0 -1
    outer loop
      vertex 76.125 39.875 -3
      vertex 68.375 32.125 -3
      vertex 68.375 39.875 -3
    endloop
  endfacet
  facet normal 0 -1 0
    outer loop
      vertex 68.375 32.125 -3
      vertex 76.125 32.125 -1.5
      vertex 68.375 32.125 -1.5
    endloop
  endfacet
  facet normal 0 -1 -0
    outer loop
      vertex 76.125 32.125 -1.5
      vertex 68.375 32.125 -3
      vertex 76.125 32.125 -3
    endloop
  endfacet
  facet normal -1 0 0
    outer loop
      vertex 58.825 31.575 -1.5
      vertex 58.825 40.425 1.5
      vertex 58.825 40.425 -1.5
    endloop
  endfacet
  facet normal -1 -0 0
    outer loop
      vertex 58.825 40.425 1.5
      vertex 58.825 31.575 -1.5
      vertex 58.825 31.575 1.5
    endloop
  endfacet
  facet normal 0 0 1
    outer loop
      vertex 67.675 40.425 1.5
      vertex 67.125 39.875 1.5
      vertex 67.675 31.575 1.5
    endloop
  endfacet
  facet normal 0 0 1
    outer loop
      vertex 67.675 40.425 1.5
      vertex 59.375 39.875 1.5
      vertex 67.125 39.875 1.5
    endloop
  endfacet
  facet normal 0 0 1
    outer loop
      vertex 59.375 39.875 1.5
      vertex 58.825 40.425 1.5
      vertex 59.375 32.125 1.5
    endloop
  endfacet
  facet normal -0 0 1
    outer loop
      vertex 58.825 40.425 1.5
      vertex 59.375 39.875 1.5
      vertex 67.675 40.425 1.5
    endloop
  endfacet
  facet normal -0 0 1
    outer loop
      vertex 67.125 32.125 1.5
      vertex 67.675 31.575 1.5
      vertex 67.125 39.875 1.5
    endloop
  endfacet
  facet normal -0 0 1
    outer loop
      vertex 59.375 32.125 1.5
      vertex 67.675 31.575 1.5
      vertex 67.125 32.125 1.5
    endloop
  endfacet
  facet normal 0 0 1
    outer loop
      vertex 59.375 32.125 1.5
      vertex 58.825 31.575 1.5
      vertex 67.675 31.575 1.5
    endloop
  endfacet
  facet normal 0 0 1
    outer loop
      vertex 58.825 31.575 1.5
      vertex 59.375 32.125 1.5
      vertex 58.825 40.425 1.5
    endloop
  endfacet
  facet normal 1 -0 0
    outer loop
      vertex 67.675 31.575 1.5
      vertex 67.675 40.425 -1.5
      vertex 67.675 40.425 1.5
    endloop
  endfacet
  facet normal 1 0 0
    outer loop
      vertex 67.675 40.425 -1.5
      vertex 67.675 31.575 1.5
      vertex 67.675 31.575 -1.5
    endloop
  endfacet
  facet normal 0 1 -0
    outer loop
      vertex 67.675 40.425 -1.5
      vertex 58.825 40.425 1.5
      vertex 67.675 40.425 1.5
    endloop
  endfacet
  facet normal 0 1 0
    outer loop
      vertex 58.825 40.425 1.5
      vertex 67.675 40.425 -1.5
      vertex 58.825 40.425 -1.5
    endloop
  endfacet
  facet normal 0 0 -1
    outer loop
      vertex 67.675 31.575 -1.5
      vertex 67.125 32.125 -1.5
      vertex 67.675 40.425 -1.5
    endloop
  endfacet
  facet normal 0 0 -1
    outer loop
      vertex 67.675 31.575 -1.5
      vertex 59.375 32.125 -1.5
      vertex 67.125 32.125 -1.5
    endloop
  endfacet
  facet normal -0 0 -1
    outer loop
      vertex 59.375 32.125 -1.5
      vertex 58.825 31.575 -1.5
      vertex 59.375 39.875 -1.5
    endloop
  endfacet
  facet normal 0 0 -1
    outer loop
      vertex 58.825 31.575 -1.5
      vertex 59.375 32.125 -1.5
      vertex 67.675 31.575 -1.5
    endloop
  endfacet
  facet normal 0 0 -1
    outer loop
      vertex 67.125 39.875 -1.5
      vertex 67.675 40.425 -1.5
      vertex 67.125 32.125 -1.5
    endloop
  endfacet
  facet normal 0 0 -1
    outer loop
      vertex 59.375 39.875 -1.5
      vertex 67.675 40.425 -1.5
      vertex 67.125 39.875 -1.5
    endloop
  endfacet
  facet normal 0 0 -1
    outer loop
      vertex 59.375 39.875 -1.5
      vertex 58.825 40.425 -1.5
      vertex 67.675 40.425 -1.5
    endloop
  endfacet
  facet normal 0 0 -1
    outer loop
      vertex 58.825 40.425 -1.5
      vertex 59.375 39.875 -1.5
      vertex 58.825 31.575 -1.5
    endloop
  endfacet
  facet normal 0 -1 0
    outer loop
      vertex 58.825 31.575 -1.5
      vertex 67.675 31.575 1.5
      vertex 58.825 31.575 1.5
    endloop
  endfacet
  facet normal 0 -1 -0
    outer loop
      vertex 67.675 31.575 1.5
      vertex 58.825 31.575 -1.5
      vertex 67.675 31.575 -1.5
    endloop
  endfacet
  facet normal -1 0 0
    outer loop
      vertex 59.375 32.125 1.5
      vertex 59.375 39.875 3
      vertex 59.375 39.875 1.5
    endloop
  endfacet
  facet normal -1 -0 0
    outer loop
      vertex 59.375 39.875 3
      vertex 59.375 32.125 1.5
      vertex 59.375 32.125 3
    endloop
  endfacet
  facet normal -0 0 1
    outer loop
      vertex 59.375 39.875 3
      vertex 67.125 32.125 3
      vertex 67.125 39.875 3
    endloop
  endfacet
  facet normal 0 0 1
    outer loop
      vertex 67.125 32.125 3
      vertex 59.375 39.875 3
      vertex 59.375 32.125 3
    endloop
  endfacet
  facet normal 1 -0 0
    outer loop
      vertex 67.125 32.125 3
      vertex 67.125 39.875 1.5
      vertex 67.125 39.875 3
    endloop
  endfacet
  facet normal 1 0 0
    outer loop
      vertex 67.125 39.875 1.5
      vertex 67.125 32.125 3
      vertex 67.125 32.125 1.5
    endloop
  endfacet
  facet normal 0 1 -0
    outer loop
      vertex 67.125 39.875 1.5
      vertex 59.375 39.875 3
      vertex 67.125 39.875 3
    endloop
  endfacet
  facet normal 0 1 0
    outer loop
      vertex 59.375 39.875 3
      vertex 67.125 39.875 1.5
      vertex 59.375 39.875 1.5
    endloop
  endfacet
  facet normal 0 -1 0
    outer loop
      vertex 59.375 32.125 1.5
      vertex 67.125 32.125 3
      vertex 59.375 32.125 3
    endloop
  endfacet
  facet normal 0 -1 -0
    outer loop
      vertex 67.125 32.125 3
      vertex 59.375 32.125 1.5
      vertex 67.125 32.125 1.5
    endloop
  endfacet
  facet normal -1 0 0
    outer loop
      vertex 59.375 32.125 -3
      vertex 59.375 39.875 -1.5
      vertex 59.375 39.875 -3
    endloop
  endfacet
  facet normal -1 -0 0
    outer loop
      vertex 59.375 39.875 -1.5
      vertex 59.375 32.125 -3
      vertex 59.375 32.125 -1.5
    endloop
  endfacet
  facet normal 1 -0 0
    outer loop
      vertex 67.125 32.125 -1.5
      vertex 67.125 39.875 -3
      vertex 67.125 39.875 -1.5
    endloop
  endfacet
  facet normal 1 0 0
    outer loop
      vertex 67.125 39.875 -3
      vertex 67.125 32.125 -1.5
      vertex 67.125 32.125 -3
    endloop
  endfacet
  facet normal 0 1 -0
    outer loop
      vertex 67.125 39.875 -3
      vertex 59.375 39.875 -1.5
      vertex 67.125 39.875 -1.5
    endloop
  endfacet
  facet normal 0 1 0
    outer loop
      vertex 59.375 39.875 -1.5
      vertex 67.125 39.875 -3
      vertex 59.375 39.875 -3
    endloop
  endfacet
  facet normal 0 0 -1
    outer loop
      vertex 59.375 32.125 -3
      vertex 67.125 39.875 -3
      vertex 67.125 32.125 -3
    endloop
  endfacet
  facet normal -0 0 -1
    outer loop
      vertex 67.125 39.875 -3
      vertex 59.375 32.125 -3
      vertex 59.375 39.875 -3
    endloop
  endfacet
  facet normal 0 -1 0
    outer loop
      vertex 59.375 32.125 -3
      vertex 67.125 32.125 -1.5
      vertex 59.375 32.125 -1.5
    endloop
  endfacet
  facet normal 0 -1 -0
    outer loop
      vertex 67.125 32.125 -1.5
      vertex 59.375 32.125 -3
      vertex 67.125 32.125 -3
    endloop
  endfacet
  facet normal -1 0 0
    outer loop
      vertex 58.825 40.575 -1.5
      vertex 58.825 49.425 1.5
      vertex 58.825 49.425 -1.5
    endloop
  endfacet
  facet normal -1 -0 0
    outer loop
      vertex 58.825 49.425 1.5
      vertex 58.825 40.575 -1.5
      vertex 58.825 40.575 1.5
    endloop
  endfacet
  facet normal 0 0 1
    outer loop
      vertex 67.675 49.425 1.5
      vertex 67.125 48.875 1.5
      vertex 67.675 40.575 1.5
    endloop
  endfacet
  facet normal 0 0 1
    outer loop
      vertex 67.675 49.425 1.5
      vertex 59.375 48.875 1.5
      vertex 67.125 48.875 1.5
    endloop
  endfacet
  facet normal 0 0 1
    outer loop
      vertex 59.375 48.875 1.5
      vertex 58.825 49.425 1.5
      vertex 59.375 41.125 1.5
    endloop
  endfacet
  facet normal -0 0 1
    outer loop
      vertex 58.825 49.425 1.5
      vertex 59.375 48.875 1.5
      vertex 67.675 49.425 1.5
    endloop
  endfacet
  facet normal -0 0 1
    outer loop
      vertex 67.125 41.125 1.5
      vertex 67.675 40.575 1.5
      vertex 67.125 48.875 1.5
    endloop
  endfacet
  facet normal -0 0 1
    outer loop
      vertex 59.375 41.125 1.5
      vertex 67.675 40.575 1.5
      vertex 67.125 41.125 1.5
    endloop
  endfacet
  facet normal 0 0 1
    outer loop
      vertex 59.375 41.125 1.5
      vertex 58.825 40.575 1.5
      vertex 67.675 40.575 1.5
    endloop
  endfacet
  facet normal 0 0 1
    outer loop
      vertex 58.825 40.575 1.5
      vertex 59.375 41.125 1.5
      vertex 58.825 49.425 1.5
    endloop
  endfacet
  facet normal 1 -0 0
    outer loop
      vertex 67.675 40.575 1.5
      vertex 67.675 49.425 -1.5
      vertex 67.675 49.425 1.5
    endloop
  endfacet
  facet normal 1 0 0
    outer loop
      vertex 67.675 49.425 -1.5
      vertex 67.675 40.575 1.5
      vertex 67.675 40.575 -1.5
    endloop
  endfacet
  facet normal 0 1 -0
    outer loop
      vertex 67.675 49.425 -1.5
      vertex 58.825 49.425 1.5
      vertex 67.675 49.425 1.5
    endloop
  endfacet
  facet normal 0 1 0
    outer loop
      vertex 58.825 49.425 1.5
      vertex 67.675 49.425 -1.5
      vertex 58.825 49.425 -1.5
    endloop
  endfacet
  facet normal 0 0 -1
    outer loop
      vertex 67.675 40.575 -1.5
      vertex 67.125 41.125 -1.5
      vertex 67.675 49.425 -1.5
    endloop
  endfacet
  facet normal 0 0 -1
    outer loop
      vertex 67.675 40.575 -1.5
      vertex 59.375 41.125 -1.5
      vertex 67.125 41.125 -1.5
    endloop
  endfacet
  facet normal -0 0 -1
    outer loop
      vertex 59.375 41.125 -1.5
      vertex 58.825 40.575 -1.5
      vertex 59.375 48.875 -1.5
    endloop
  endfacet
  facet normal 0 0 -1
    outer loop
      vertex 58.825 40.575 -1.5
      vertex 59.375 41.125 -1.5
      vertex 67.675 40.575 -1.5
    endloop
  endfacet
  facet normal 0 0 -1
    outer loop
      vertex 67.125 48.875 -1.5
      vertex 67.675 49.425 -1.5
      vertex 67.125 41.125 -1.5
    endloop
  endfacet
  facet normal 0 0 -1
    outer loop
      vertex 59.375 48.875 -1.5
      vertex 67.675 49.425 -1.5
      vertex 67.125 48.875 -1.5
    endloop
  endfacet
  facet normal 0 0 -1
    outer loop
      vertex 59.375 48.875 -1.5
      vertex 58.825 49.425 -1.5
      vertex 67.675 49.425 -1.5
    endloop
  endfacet
  facet normal 0 0 -1
    outer loop
      vertex 58.825 49.425 -1.5
      vertex 59.375 48.875 -1.5
      vertex 58.825 40.575 -1.5
    endloop
  endfacet
  facet normal 0 -1 0
    outer loop
      vertex 58.825 40.575 -1.5
      vertex 67.675 40.575 1.5
      vertex 58.825 40.575 1.5
    endloop
  endfacet
  facet normal 0 -1 -0
    outer loop
      vertex 67.675 40.575 1.5
      vertex 58.825 40.575 -1.5
      vertex 67.675 40.575 -1.5
    endloop
  endfacet
  facet normal -1 0 0
    outer loop
      vertex 59.375 41.125 1.5
      vertex 59.375 48.875 3
      vertex 59.375 48.875 1.5
    endloop
  endfacet
  facet normal -1 -0 0
    outer loop
      vertex 59.375 48.875 3
      vertex 59.375 41.125 1.5
      vertex 59.375 41.125 3
    endloop
  endfacet
  facet normal -0 0 1
    outer loop
      vertex 59.375 48.875 3
      vertex 67.125 41.125 3
      vertex 67.125 48.875 3
    endloop
  endfacet
  facet normal 0 0 1
    outer loop
      vertex 67.125 41.125 3
      vertex 59.375 48.875 3
      vertex 59.375 41.125 3
    endloop
  endfacet
  facet normal 1 -0 0
    outer loop
      vertex 67.125 41.125 3
      vertex 67.125 48.875 1.5
      vertex 67.125 48.875 3
    endloop
  endfacet
  facet normal 1 0 0
    outer loop
      vertex 67.125 48.875 1.5
      vertex 67.125 41.125 3
      vertex 67.125 41.125 1.5
    endloop
  endfacet
  facet normal 0 1 -0
    outer loop
      vertex 67.125 48.875 1.5
      vertex 59.375 48.875 3
      vertex 67.125 48.875 3
    endloop
  endfacet
  facet normal 0 1 0
    outer loop
      vertex 59.375 48.875 3
      vertex 67.125 48.875 1.5
      vertex 59.375 48.875 1.5
    endloop
  endfacet
  facet normal 0 -1 0
    outer loop
      vertex 59.375 41.125 1.5
      vertex 67.125 41.125 3
      vertex 59.375 41.125 3
    endloop
  endfacet
  facet normal 0 -1 -0
    outer loop
      vertex 67.125 41.125 3
      vertex 59.375 41.125 1.5
      vertex 67.125 41.125 1.5
    endloop
  endfacet
  facet normal -1 0 0
    outer loop
      vertex 59.375 41.125 -3
      vertex 59.375 48.875 -1.5
      vertex 59.375 48.875 -3
    endloop
  endfacet
  facet normal -1 -0 0
    outer loop
      vertex 59.375 48.875 -1.5
      vertex 59.375 41.125 -3
      vertex 59.375 41.125 -1.5
    endloop
  endfacet
  facet normal 1 -0 0
    outer loop
      vertex 67.125 41.125 -1.5
      vertex 67.125 48.875 -3
      vertex 67.125 48.875 -1.5
    endloop
  endfacet
  facet normal 1 0 0
    outer loop
      vertex 67.125 48.875 -3
      vertex 67.125 41.125 -1.5
      vertex 67.125 41.125 -3
    endloop
  endfacet
  facet normal 0 1 -0
    outer loop
      vertex 67.125 48.875 -3
      vertex 59.375 48.875 -1.5
      vertex 67.125 48.875 -1.5
    endloop
  endfacet
  facet normal 0 1 0
    outer loop
      vertex 59.375 48.875 -1.5
      vertex 67.125 48.875 -3
      vertex 59.375 48.875 -3
    endloop
  endfacet
  facet normal 0 0 -1
    outer loop
      vertex 59.375 41.125 -3
      vertex 67.125 48.875 -3
      vertex 67.125 41.125 -3
    endloop
  endfacet
  facet normal -0 0 -1
    outer loop
      vertex 67.125 48.875 -3
      vertex 59.375 41.125 -3
      vertex 59.375 48.875 -3
    endloop
  endfacet
  facet normal 0 -1 0
    outer loop
      vertex 59.375 41.125 -3
      vertex 67.125 41.125 -1.5
      vertex 59.375 41.125 -1.5
    endloop
  endfacet
  facet normal 0 -1 -0
    outer loop
      vertex 67.125 41.125 -1.5
      vertex 59.375 41.125 -3
      vertex 67.125 41.125 -3
    endloop
  endfacet
endsolid OpenSCAD_Model
