solid OpenSCAD_Model
  facet normal -1 0 0
    outer loop
      vertex 31.825 58.575 -1.5
      vertex 31.825 67.425 1.5
      vertex 31.825 67.425 -1.5
    endloop
  endfacet
  facet normal -1 -0 0
    outer loop
      vertex 31.825 67.425 1.5
      vertex 31.825 58.575 -1.5
      vertex 31.825 58.575 1.5
    endloop
  endfacet
  facet normal 0 0 1
    outer loop
      vertex 40.675 67.425 1.5
      vertex 40.125 66.875 1.5
      vertex 40.675 58.575 1.5
    endloop
  endfacet
  facet normal 0 0 1
    outer loop
      vertex 40.675 67.425 1.5
      vertex 32.375 66.875 1.5
      vertex 40.125 66.875 1.5
    endloop
  endfacet
  facet normal 0 0 1
    outer loop
      vertex 32.375 66.875 1.5
      vertex 31.825 67.425 1.5
      vertex 32.375 59.125 1.5
    endloop
  endfacet
  facet normal -0 0 1
    outer loop
      vertex 31.825 67.425 1.5
      vertex 32.375 66.875 1.5
      vertex 40.675 67.425 1.5
    endloop
  endfacet
  facet normal -0 0 1
    outer loop
      vertex 40.125 59.125 1.5
      vertex 40.675 58.575 1.5
      vertex 40.125 66.875 1.5
    endloop
  endfacet
  facet normal -0 0 1
    outer loop
      vertex 32.375 59.125 1.5
      vertex 40.675 58.575 1.5
      vertex 40.125 59.125 1.5
    endloop
  endfacet
  facet normal 0 0 1
    outer loop
      vertex 32.375 59.125 1.5
      vertex 31.825 58.575 1.5
      vertex 40.675 58.575 1.5
    endloop
  endfacet
  facet normal 0 0 1
    outer loop
      vertex 31.825 58.575 1.5
      vertex 32.375 59.125 1.5
      vertex 31.825 67.425 1.5
    endloop
  endfacet
  facet normal 1 -0 0
    outer loop
      vertex 40.675 58.575 1.5
      vertex 40.675 67.425 -1.5
      vertex 40.675 67.425 1.5
    endloop
  endfacet
  facet normal 1 0 0
    outer loop
      vertex 40.675 67.425 -1.5
      vertex 40.675 58.575 1.5
      vertex 40.675 58.575 -1.5
    endloop
  endfacet
  facet normal 0 1 -0
    outer loop
      vertex 40.675 67.425 -1.5
      vertex 31.825 67.425 1.5
      vertex 40.675 67.425 1.5
    endloop
  endfacet
  facet normal 0 1 0
    outer loop
      vertex 31.825 67.425 1.5
      vertex 40.675 67.425 -1.5
      vertex 31.825 67.425 -1.5
    endloop
  endfacet
  facet normal 0 0 -1
    outer loop
      vertex 40.675 58.575 -1.5
      vertex 40.125 59.125 -1.5
      vertex 40.675 67.425 -1.5
    endloop
  endfacet
  facet normal 0 0 -1
    outer loop
      vertex 40.675 58.575 -1.5
      vertex 32.375 59.125 -1.5
      vertex 40.125 59.125 -1.5
    endloop
  endfacet
  facet normal -0 0 -1
    outer loop
      vertex 32.375 59.125 -1.5
      vertex 31.825 58.575 -1.5
      vertex 32.375 66.875 -1.5
    endloop
  endfacet
  facet normal 0 0 -1
    outer loop
      vertex 31.825 58.575 -1.5
      vertex 32.375 59.125 -1.5
      vertex 40.675 58.575 -1.5
    endloop
  endfacet
  facet normal 0 0 -1
    outer loop
      vertex 40.125 66.875 -1.5
      vertex 40.675 67.425 -1.5
      vertex 40.125 59.125 -1.5
    endloop
  endfacet
  facet normal 0 0 -1
    outer loop
      vertex 32.375 66.875 -1.5
      vertex 40.675 67.425 -1.5
      vertex 40.125 66.875 -1.5
    endloop
  endfacet
  facet normal 0 0 -1
    outer loop
      vertex 32.375 66.875 -1.5
      vertex 31.825 67.425 -1.5
      vertex 40.675 67.425 -1.5
    endloop
  endfacet
  facet normal 0 0 -1
    outer loop
      vertex 31.825 67.425 -1.5
      vertex 32.375 66.875 -1.5
      vertex 31.825 58.575 -1.5
    endloop
  endfacet
  facet normal 0 -1 0
    outer loop
      vertex 31.825 58.575 -1.5
      vertex 40.675 58.575 1.5
      vertex 31.825 58.575 1.5
    endloop
  endfacet
  facet normal 0 -1 -0
    outer loop
      vertex 40.675 58.575 1.5
      vertex 31.825 58.575 -1.5
      vertex 40.675 58.575 -1.5
    endloop
  endfacet
  facet normal -1 0 0
    outer loop
      vertex 32.375 59.125 1.5
      vertex 32.375 66.875 3
      vertex 32.375 66.875 1.5
    endloop
  endfacet
  facet normal -1 -0 0
    outer loop
      vertex 32.375 66.875 3
      vertex 32.375 59.125 1.5
      vertex 32.375 59.125 3
    endloop
  endfacet
  facet normal -0 0 1
    outer loop
      vertex 32.375 66.875 3
      vertex 40.125 59.125 3
      vertex 40.125 66.875 3
    endloop
  endfacet
  facet normal 0 0 1
    outer loop
      vertex 40.125 59.125 3
      vertex 32.375 66.875 3
      vertex 32.375 59.125 3
    endloop
  endfacet
  facet normal 1 -0 0
    outer loop
      vertex 40.125 59.125 3
      vertex 40.125 66.875 1.5
      vertex 40.125 66.875 3
    endloop
  endfacet
  facet normal 1 0 0
    outer loop
      vertex 40.125 66.875 1.5
      vertex 40.125 59.125 3
      vertex 40.125 59.125 1.5
    endloop
  endfacet
  facet normal 0 1 -0
    outer loop
      vertex 40.125 66.875 1.5
      vertex 32.375 66.875 3
      vertex 40.125 66.875 3
    endloop
  endfacet
  facet normal 0 1 0
    outer loop
      vertex 32.375 66.875 3
      vertex 40.125 66.875 1.5
      vertex 32.375 66.875 1.5
    endloop
  endfacet
  facet normal 0 -1 0
    outer loop
      vertex 32.375 59.125 1.5
      vertex 40.125 59.125 3
      vertex 32.375 59.125 3
    endloop
  endfacet
  facet normal 0 -1 -0
    outer loop
      vertex 40.125 59.125 3
      vertex 32.375 59.125 1.5
      vertex 40.125 59.125 1.5
    endloop
  endfacet
  facet normal -1 0 0
    outer loop
      vertex 32.375 59.125 -3
      vertex 32.375 66.875 -1.5
      vertex 32.375 66.875 -3
    endloop
  endfacet
  facet normal -1 -0 0
    outer loop
      vertex 32.375 66.875 -1.5
      vertex 32.375 59.125 -3
      vertex 32.375 59.125 -1.5
    endloop
  endfacet
  facet normal 1 -0 0
    outer loop
      vertex 40.125 59.125 -1.5
      vertex 40.125 66.875 -3
      vertex 40.125 66.875 -1.5
    endloop
  endfacet
  facet normal 1 0 0
    outer loop
      vertex 40.125 66.875 -3
      vertex 40.125 59.125 -1.5
      vertex 40.125 59.125 -3
    endloop
  endfacet
  facet normal 0 1 -0
    outer loop
      vertex 40.125 66.875 -3
      vertex 32.375 66.875 -1.5
      vertex 40.125 66.875 -1.5
    endloop
  endfacet
  facet normal 0 1 0
    outer loop
      vertex 32.375 66.875 -1.5
      vertex 40.125 66.875 -3
      vertex 32.375 66.875 -3
    endloop
  endfacet
  facet normal 0 0 -1
    outer loop
      vertex 32.375 59.125 -3
      vertex 40.125 66.875 -3
      vertex 40.125 59.125 -3
    endloop
  endfacet
  facet normal -0 0 -1
    outer loop
      vertex 40.125 66.875 -3
      vertex 32.375 59.125 -3
      vertex 32.375 66.875 -3
    endloop
  endfacet
  facet normal 0 -1 0
    outer loop
      vertex 32.375 59.125 -3
      vertex 40.125 59.125 -1.5
      vertex 32.375 59.125 -1.5
    endloop
  endfacet
  facet normal 0 -1 -0
    outer loop
      vertex 40.125 59.125 -1.5
      vertex 32.375 59.125 -3
      vertex 40.125 59.125 -3
    endloop
  endfacet
  facet normal -1 0 0
    outer loop
      vertex 40.825 58.575 -1.5
      vertex 40.825 67.425 1.5
      vertex 40.825 67.425 -1.5
    endloop
  endfacet
  facet normal -1 -0 0
    outer loop
      vertex 40.825 67.425 1.5
      vertex 40.825 58.575 -1.5
      vertex 40.825 58.575 1.5
    endloop
  endfacet
  facet normal 0 0 1
    outer loop
      vertex 49.675 67.425 1.5
      vertex 49.125 66.875 1.5
      vertex 49.675 58.575 1.5
    endloop
  endfacet
  facet normal 0 0 1
    outer loop
      vertex 49.675 67.425 1.5
      vertex 41.375 66.875 1.5
      vertex 49.125 66.875 1.5
    endloop
  endfacet
  facet normal 0 0 1
    outer loop
      vertex 41.375 66.875 1.5
      vertex 40.825 67.425 1.5
      vertex 41.375 59.125 1.5
    endloop
  endfacet
  facet normal -0 0 1
    outer loop
      vertex 40.825 67.425 1.5
      vertex 41.375 66.875 1.5
      vertex 49.675 67.425 1.5
    endloop
  endfacet
  facet normal -0 0 1
    outer loop
      vertex 49.125 59.125 1.5
      vertex 49.675 58.575 1.5
      vertex 49.125 66.875 1.5
    endloop
  endfacet
  facet normal -0 0 1
    outer loop
      vertex 41.375 59.125 1.5
      vertex 49.675 58.575 1.5
      vertex 49.125 59.125 1.5
    endloop
  endfacet
  facet normal 0 0 1
    outer loop
      vertex 41.375 59.125 1.5
      vertex 40.825 58.575 1.5
      vertex 49.675 58.575 1.5
    endloop
  endfacet
  facet normal 0 0 1
    outer loop
      vertex 40.825 58.575 1.5
      vertex 41.375 59.125 1.5
      vertex 40.825 67.425 1.5
    endloop
  endfacet
  facet normal 1 -0 0
    outer loop
      vertex 49.675 58.575 1.5
      vertex 49.675 67.425 -1.5
      vertex 49.675 67.425 1.5
    endloop
  endfacet
  facet normal 1 0 0
    outer loop
      vertex 49.675 67.425 -1.5
      vertex 49.675 58.575 1.5
      vertex 49.675 58.575 -1.5
    endloop
  endfacet
  facet normal 0 1 -0
    outer loop
      vertex 49.675 67.425 -1.5
      vertex 40.825 67.425 1.5
      vertex 49.675 67.425 1.5
    endloop
  endfacet
  facet normal 0 1 0
    outer loop
      vertex 40.825 67.425 1.5
      vertex 49.675 67.425 -1.5
      vertex 40.825 67.425 -1.5
    endloop
  endfacet
  facet normal 0 0 -1
    outer loop
      vertex 49.675 58.575 -1.5
      vertex 49.125 59.125 -1.5
      vertex 49.675 67.425 -1.5
    endloop
  endfacet
  facet normal 0 0 -1
    outer loop
      vertex 49.675 58.575 -1.5
      vertex 41.375 59.125 -1.5
      vertex 49.125 59.125 -1.5
    endloop
  endfacet
  facet normal -0 0 -1
    outer loop
      vertex 41.375 59.125 -1.5
      vertex 40.825 58.575 -1.5
      vertex 41.375 66.875 -1.5
    endloop
  endfacet
  facet normal 0 0 -1
    outer loop
      vertex 40.825 58.575 -1.5
      vertex 41.375 59.125 -1.5
      vertex 49.675 58.575 -1.5
    endloop
  endfacet
  facet normal 0 0 -1
    outer loop
      vertex 49.125 66.875 -1.5
      vertex 49.675 67.425 -1.5
      vertex 49.125 59.125 -1.5
    endloop
  endfacet
  facet normal 0 0 -1
    outer loop
      vertex 41.375 66.875 -1.5
      vertex 49.675 67.425 -1.5
      vertex 49.125 66.875 -1.5
    endloop
  endfacet
  facet normal 0 0 -1
    outer loop
      vertex 41.375 66.875 -1.5
      vertex 40.825 67.425 -1.5
      vertex 49.675 67.425 -1.5
    endloop
  endfacet
  facet normal 0 0 -1
    outer loop
      vertex 40.825 67.425 -1.5
      vertex 41.375 66.875 -1.5
      vertex 40.825 58.575 -1.5
    endloop
  endfacet
  facet normal 0 -1 0
    outer loop
      vertex 40.825 58.575 -1.5
      vertex 49.675 58.575 1.5
      vertex 40.825 58.575 1.5
    endloop
  endfacet
  facet normal 0 -1 -0
    outer loop
      vertex 49.675 58.575 1.5
      vertex 40.825 58.575 -1.5
      vertex 49.675 58.575 -1.5
    endloop
  endfacet
  facet normal -1 0 0
    outer loop
      vertex 41.375 59.125 1.5
      vertex 41.375 66.875 3
      vertex 41.375 66.875 1.5
    endloop
  endfacet
  facet normal -1 -0 0
    outer loop
      vertex 41.375 66.875 3
      vertex 41.375 59.125 1.5
      vertex 41.375 59.125 3
    endloop
  endfacet
  facet normal -0 0 1
    outer loop
      vertex 41.375 66.875 3
      vertex 49.125 59.125 3
      vertex 49.125 66.875 3
    endloop
  endfacet
  facet normal 0 0 1
    outer loop
      vertex 49.125 59.125 3
      vertex 41.375 66.875 3
      vertex 41.375 59.125 3
    endloop
  endfacet
  facet normal 1 -0 0
    outer loop
      vertex 49.125 59.125 3
      vertex 49.125 66.875 1.5
      vertex 49.125 66.875 3
    endloop
  endfacet
  facet normal 1 0 0
    outer loop
      vertex 49.125 66.875 1.5
      vertex 49.125 59.125 3
      vertex 49.125 59.125 1.5
    endloop
  endfacet
  facet normal 0 1 -0
    outer loop
      vertex 49.125 66.875 1.5
      vertex 41.375 66.875 3
      vertex 49.125 66.875 3
    endloop
  endfacet
  facet normal 0 1 0
    outer loop
      vertex 41.375 66.875 3
      vertex 49.125 66.875 1.5
      vertex 41.375 66.875 1.5
    endloop
  endfacet
  facet normal 0 -1 0
    outer loop
      vertex 41.375 59.125 1.5
      vertex 49.125 59.125 3
      vertex 41.375 59.125 3
    endloop
  endfacet
  facet normal 0 -1 -0
    outer loop
      vertex 49.125 59.125 3
      vertex 41.375 59.125 1.5
      vertex 49.125 59.125 1.5
    endloop
  endfacet
  facet normal -1 0 0
    outer loop
      vertex 41.375 59.125 -3
      vertex 41.375 66.875 -1.5
      vertex 41.375 66.875 -3
    endloop
  endfacet
  facet normal -1 -0 0
    outer loop
      vertex 41.375 66.875 -1.5
      vertex 41.375 59.125 -3
      vertex 41.375 59.125 -1.5
    endloop
  endfacet
  facet normal 1 -0 0
    outer loop
      vertex 49.125 59.125 -1.5
      vertex 49.125 66.875 -3
      vertex 49.125 66.875 -1.5
    endloop
  endfacet
  facet normal 1 0 0
    outer loop
      vertex 49.125 66.875 -3
      vertex 49.125 59.125 -1.5
      vertex 49.125 59.125 -3
    endloop
  endfacet
  facet normal 0 1 -0
    outer loop
      vertex 49.125 66.875 -3
      vertex 41.375 66.875 -1.5
      vertex 49.125 66.875 -1.5
    endloop
  endfacet
  facet normal 0 1 0
    outer loop
      vertex 41.375 66.875 -1.5
      vertex 49.125 66.875 -3
      vertex 41.375 66.875 -3
    endloop
  endfacet
  facet normal 0 0 -1
    outer loop
      vertex 41.375 59.125 -3
      vertex 49.125 66.875 -3
      vertex 49.125 59.125 -3
    endloop
  endfacet
  facet normal -0 0 -1
    outer loop
      vertex 49.125 66.875 -3
      vertex 41.375 59.125 -3
      vertex 41.375 66.875 -3
    endloop
  endfacet
  facet normal 0 -1 0
    outer loop
      vertex 41.375 59.125 -3
      vertex 49.125 59.125 -1.5
      vertex 41.375 59.125 -1.5
    endloop
  endfacet
  facet normal 0 -1 -0
    outer loop
      vertex 49.125 59.125 -1.5
      vertex 41.375 59.125 -3
      vertex 49.125 59.125 -3
    endloop
  endfacet
  facet normal -1 0 0
    outer loop
      vertex 40.825 67.575 -1.5
      vertex 40.825 76.425 1.5
      vertex 40.825 76.425 -1.5
    endloop
  endfacet
  facet normal -1 -0 0
    outer loop
      vertex 40.825 76.425 1.5
      vertex 40.825 67.575 -1.5
      vertex 40.825 67.575 1.5
    endloop
  endfacet
  facet normal 0 0 1
    outer loop
      vertex 49.675 76.425 1.5
      vertex 49.125 75.875 1.5
      vertex 49.675 67.575 1.5
    endloop
  endfacet
  facet normal 0 0 1
    outer loop
      vertex 49.675 76.425 1.5
      vertex 41.375 75.875 1.5
      vertex 49.125 75.875 1.5
    endloop
  endfacet
  facet normal 0 0 1
    outer loop
      vertex 41.375 75.875 1.5
      vertex 40.825 76.425 1.5
      vertex 41.375 68.125 1.5
    endloop
  endfacet
  facet normal -0 0 1
    outer loop
      vertex 40.825 76.425 1.5
      vertex 41.375 75.875 1.5
      vertex 49.675 76.425 1.5
    endloop
  endfacet
  facet normal -0 0 1
    outer loop
      vertex 49.125 68.125 1.5
      vertex 49.675 67.575 1.5
      vertex 49.125 75.875 1.5
    endloop
  endfacet
  facet normal -0 0 1
    outer loop
      vertex 41.375 68.125 1.5
      vertex 49.675 67.575 1.5
      vertex 49.125 68.125 1.5
    endloop
  endfacet
  facet normal 0 0 1
    outer loop
      vertex 41.375 68.125 1.5
      vertex 40.825 67.575 1.5
      vertex 49.675 67.575 1.5
    endloop
  endfacet
  facet normal 0 0 1
    outer loop
      vertex 40.825 67.575 1.5
      vertex 41.375 68.125 1.5
      vertex 40.825 76.425 1.5
    endloop
  endfacet
  facet normal 1 -0 0
    outer loop
      vertex 49.675 67.575 1.5
      vertex 49.675 76.425 -1.5
      vertex 49.675 76.425 1.5
    endloop
  endfacet
  facet normal 1 0 0
    outer loop
      vertex 49.675 76.425 -1.5
      vertex 49.675 67.575 1.5
      vertex 49.675 67.575 -1.5
    endloop
  endfacet
  facet normal 0 1 -0
    outer loop
      vertex 49.675 76.425 -1.5
      vertex 40.825 76.425 1.5
      vertex 49.675 76.425 1.5
    endloop
  endfacet
  facet normal 0 1 0
    outer loop
      vertex 40.825 76.425 1.5
      vertex 49.675 76.425 -1.5
      vertex 40.825 76.425 -1.5
    endloop
  endfacet
  facet normal 0 0 -1
    outer loop
      vertex 49.675 67.575 -1.5
      vertex 49.125 68.125 -1.5
      vertex 49.675 76.425 -1.5
    endloop
  endfacet
  facet normal 0 0 -1
    outer loop
      vertex 49.675 67.575 -1.5
      vertex 41.375 68.125 -1.5
      vertex 49.125 68.125 -1.5
    endloop
  endfacet
  facet normal -0 0 -1
    outer loop
      vertex 41.375 68.125 -1.5
      vertex 40.825 67.575 -1.5
      vertex 41.375 75.875 -1.5
    endloop
  endfacet
  facet normal 0 0 -1
    outer loop
      vertex 40.825 67.575 -1.5
      vertex 41.375 68.125 -1.5
      vertex 49.675 67.575 -1.5
    endloop
  endfacet
  facet normal 0 0 -1
    outer loop
      vertex 49.125 75.875 -1.5
      vertex 49.675 76.425 -1.5
      vertex 49.125 68.125 -1.5
    endloop
  endfacet
  facet normal 0 0 -1
    outer loop
      vertex 41.375 75.875 -1.5
      vertex 49.675 76.425 -1.5
      vertex 49.125 75.875 -1.5
    endloop
  endfacet
  facet normal 0 0 -1
    outer loop
      vertex 41.375 75.875 -1.5
      vertex 40.825 76.425 -1.5
      vertex 49.675 76.425 -1.5
    endloop
  endfacet
  facet normal 0 0 -1
    outer loop
      vertex 40.825 76.425 -1.5
      vertex 41.375 75.875 -1.5
      vertex 40.825 67.575 -1.5
    endloop
  endfacet
  facet normal 0 -1 0
    outer loop
      vertex 40.825 67.575 -1.5
      vertex 49.675 67.575 1.5
      vertex 40.825 67.575 1.5
    endloop
  endfacet
  facet normal 0 -1 -0
    outer loop
      vertex 49.675 67.575 1.5
      vertex 40.825 67.575 -1.5
      vertex 49.675 67.575 -1.5
    endloop
  endfacet
  facet normal -1 0 0
    outer loop
      vertex 41.375 68.125 1.5
      vertex 41.375 75.875 3
      vertex 41.375 75.875 1.5
    endloop
  endfacet
  facet normal -1 -0 0
    outer loop
      vertex 41.375 75.875 3
      vertex 41.375 68.125 1.5
      vertex 41.375 68.125 3
    endloop
  endfacet
  facet normal -0 0 1
    outer loop
      vertex 41.375 75.875 3
      vertex 49.125 68.125 3
      vertex 49.125 75.875 3
    endloop
  endfacet
  facet normal 0 0 1
    outer loop
      vertex 49.125 68.125 3
      vertex 41.375 75.875 3
      vertex 41.375 68.125 3
    endloop
  endfacet
  facet normal 1 -0 0
    outer loop
      vertex 49.125 68.125 3
      vertex 49.125 75.875 1.5
      vertex 49.125 75.875 3
    endloop
  endfacet
  facet normal 1 0 0
    outer loop
      vertex 49.125 75.875 1.5
      vertex 49.125 68.125 3
      vertex 49.125 68.125 1.5
    endloop
  endfacet
  facet normal 0 1 -0
    outer loop
      vertex 49.125 75.875 1.5
      vertex 41.375 75.875 3
      vertex 49.125 75.875 3
    endloop
  endfacet
  facet normal 0 1 0
    outer loop
      vertex 41.375 75.875 3
      vertex 49.125 75.875 1.5
      vertex 41.375 75.875 1.5
    endloop
  endfacet
  facet normal 0 -1 0
    outer loop
      vertex 41.375 68.125 1.5
      vertex 49.125 68.125 3
      vertex 41.375 68.125 3
    endloop
  endfacet
  facet normal 0 -1 -0
    outer loop
      vertex 49.125 68.125 3
      vertex 41.375 68.125 1.5
      vertex 49.125 68.125 1.5
    endloop
  endfacet
  facet normal -1 0 0
    outer loop
      vertex 41.375 68.125 -3
      vertex 41.375 75.875 -1.5
      vertex 41.375 75.875 -3
    endloop
  endfacet
  facet normal -1 -0 0
    outer loop
      vertex 41.375 75.875 -1.5
      vertex 41.375 68.125 -3
      vertex 41.375 68.125 -1.5
    endloop
  endfacet
  facet normal 1 -0 0
    outer loop
      vertex 49.125 68.125 -1.5
      vertex 49.125 75.875 -3
      vertex 49.125 75.875 -1.5
    endloop
  endfacet
  facet normal 1 0 0
    outer loop
      vertex 49.125 75.875 -3
      vertex 49.125 68.125 -1.5
      vertex 49.125 68.125 -3
    endloop
  endfacet
  facet normal 0 1 -0
    outer loop
      vertex 49.125 75.875 -3
      vertex 41.375 75.875 -1.5
      vertex 49.125 75.875 -1.5
    endloop
  endfacet
  facet normal 0 1 0
    outer loop
      vertex 41.375 75.875 -1.5
      vertex 49.125 75.875 -3
      vertex 41.375 75.875 -3
    endloop
  endfacet
  facet normal 0 0 -1
    outer loop
      vertex 41.375 68.125 -3
      vertex 49.125 75.875 -3
      vertex 49.125 68.125 -3
    endloop
  endfacet
  facet normal -0 0 -1
    outer loop
      vertex 49.125 75.875 -3
      vertex 41.375 68.125 -3
      vertex 41.375 75.875 -3
    endloop
  endfacet
  facet normal 0 -1 0
    outer loop
      vertex 41.375 68.125 -3
      vertex 49.125 68.125 -1.5
      vertex 41.375 68.125 -1.5
    endloop
  endfacet
  facet normal 0 -1 -0
    outer loop
      vertex 49.125 68.125 -1.5
      vertex 41.375 68.125 -3
      vertex 49.125 68.125 -3
    endloop
  endfacet
endsolid OpenSCAD_Model
