solid OpenSCAD_Model
  facet normal -1 0 0
    outer loop
      vertex 49.825 85.575 -1.5
      vertex 49.825 94.425 1.5
      vertex 49.825 94.425 -1.5
    endloop
  endfacet
  facet normal -1 -0 0
    outer loop
      vertex 49.825 94.425 1.5
      vertex 49.825 85.575 -1.5
      vertex 49.825 85.575 1.5
    endloop
  endfacet
  facet normal 0 0 1
    outer loop
      vertex 58.675 94.425 1.5
      vertex 58.125 93.875 1.5
      vertex 58.675 85.575 1.5
    endloop
  endfacet
  facet normal 0 0 1
    outer loop
      vertex 58.675 94.425 1.5
      vertex 50.375 93.875 1.5
      vertex 58.125 93.875 1.5
    endloop
  endfacet
  facet normal 0 0 1
    outer loop
      vertex 50.375 93.875 1.5
      vertex 49.825 94.425 1.5
      vertex 50.375 86.125 1.5
    endloop
  endfacet
  facet normal -0 0 1
    outer loop
      vertex 49.825 94.425 1.5
      vertex 50.375 93.875 1.5
      vertex 58.675 94.425 1.5
    endloop
  endfacet
  facet normal -0 0 1
    outer loop
      vertex 58.125 86.125 1.5
      vertex 58.675 85.575 1.5
      vertex 58.125 93.875 1.5
    endloop
  endfacet
  facet normal -0 0 1
    outer loop
      vertex 50.375 86.125 1.5
      vertex 58.675 85.575 1.5
      vertex 58.125 86.125 1.5
    endloop
  endfacet
  facet normal 0 0 1
    outer loop
      vertex 50.375 86.125 1.5
      vertex 49.825 85.575 1.5
      vertex 58.675 85.575 1.5
    endloop
  endfacet
  facet normal 0 0 1
    outer loop
      vertex 49.825 85.575 1.5
      vertex 50.375 86.125 1.5
      vertex 49.825 94.425 1.5
    endloop
  endfacet
  facet normal 1 -0 0
    outer loop
      vertex 58.675 85.575 1.5
      vertex 58.675 94.425 -1.5
      vertex 58.675 94.425 1.5
    endloop
  endfacet
  facet normal 1 0 0
    outer loop
      vertex 58.675 94.425 -1.5
      vertex 58.675 85.575 1.5
      vertex 58.675 85.575 -1.5
    endloop
  endfacet
  facet normal 0 1 -0
    outer loop
      vertex 58.675 94.425 -1.5
      vertex 49.825 94.425 1.5
      vertex 58.675 94.425 1.5
    endloop
  endfacet
  facet normal 0 1 0
    outer loop
      vertex 49.825 94.425 1.5
      vertex 58.675 94.425 -1.5
      vertex 49.825 94.425 -1.5
    endloop
  endfacet
  facet normal 0 0 -1
    outer loop
      vertex 58.675 85.575 -1.5
      vertex 58.125 86.125 -1.5
      vertex 58.675 94.425 -1.5
    endloop
  endfacet
  facet normal 0 0 -1
    outer loop
      vertex 58.675 85.575 -1.5
      vertex 50.375 86.125 -1.5
      vertex 58.125 86.125 -1.5
    endloop
  endfacet
  facet normal -0 0 -1
    outer loop
      vertex 50.375 86.125 -1.5
      vertex 49.825 85.575 -1.5
      vertex 50.375 93.875 -1.5
    endloop
  endfacet
  facet normal 0 0 -1
    outer loop
      vertex 49.825 85.575 -1.5
      vertex 50.375 86.125 -1.5
      vertex 58.675 85.575 -1.5
    endloop
  endfacet
  facet normal 0 0 -1
    outer loop
      vertex 58.125 93.875 -1.5
      vertex 58.675 94.425 -1.5
      vertex 58.125 86.125 -1.5
    endloop
  endfacet
  facet normal 0 0 -1
    outer loop
      vertex 50.375 93.875 -1.5
      vertex 58.675 94.425 -1.5
      vertex 58.125 93.875 -1.5
    endloop
  endfacet
  facet normal 0 0 -1
    outer loop
      vertex 50.375 93.875 -1.5
      vertex 49.825 94.425 -1.5
      vertex 58.675 94.425 -1.5
    endloop
  endfacet
  facet normal 0 0 -1
    outer loop
      vertex 49.825 94.425 -1.5
      vertex 50.375 93.875 -1.5
      vertex 49.825 85.575 -1.5
    endloop
  endfacet
  facet normal 0 -1 0
    outer loop
      vertex 49.825 85.575 -1.5
      vertex 58.675 85.575 1.5
      vertex 49.825 85.575 1.5
    endloop
  endfacet
  facet normal 0 -1 -0
    outer loop
      vertex 58.675 85.575 1.5
      vertex 49.825 85.575 -1.5
      vertex 58.675 85.575 -1.5
    endloop
  endfacet
  facet normal -1 0 0
    outer loop
      vertex 50.375 86.125 1.5
      vertex 50.375 93.875 3
      vertex 50.375 93.875 1.5
    endloop
  endfacet
  facet normal -1 -0 0
    outer loop
      vertex 50.375 93.875 3
      vertex 50.375 86.125 1.5
      vertex 50.375 86.125 3
    endloop
  endfacet
  facet normal -0 0 1
    outer loop
      vertex 50.375 93.875 3
      vertex 58.125 86.125 3
      vertex 58.125 93.875 3
    endloop
  endfacet
  facet normal 0 0 1
    outer loop
      vertex 58.125 86.125 3
      vertex 50.375 93.875 3
      vertex 50.375 86.125 3
    endloop
  endfacet
  facet normal 1 -0 0
    outer loop
      vertex 58.125 86.125 3
      vertex 58.125 93.875 1.5
      vertex 58.125 93.875 3
    endloop
  endfacet
  facet normal 1 0 0
    outer loop
      vertex 58.125 93.875 1.5
      vertex 58.125 86.125 3
      vertex 58.125 86.125 1.5
    endloop
  endfacet
  facet normal 0 1 -0
    outer loop
      vertex 58.125 93.875 1.5
      vertex 50.375 93.875 3
      vertex 58.125 93.875 3
    endloop
  endfacet
  facet normal 0 1 0
    outer loop
      vertex 50.375 93.875 3
      vertex 58.125 93.875 1.5
      vertex 50.375 93.875 1.5
    endloop
  endfacet
  facet normal 0 -1 0
    outer loop
      vertex 50.375 86.125 1.5
      vertex 58.125 86.125 3
      vertex 50.375 86.125 3
    endloop
  endfacet
  facet normal 0 -1 -0
    outer loop
      vertex 58.125 86.125 3
      vertex 50.375 86.125 1.5
      vertex 58.125 86.125 1.5
    endloop
  endfacet
  facet normal -1 0 0
    outer loop
      vertex 50.375 86.125 -3
      vertex 50.375 93.875 -1.5
      vertex 50.375 93.875 -3
    endloop
  endfacet
  facet normal -1 -0 0
    outer loop
      vertex 50.375 93.875 -1.5
      vertex 50.375 86.125 -3
      vertex 50.375 86.125 -1.5
    endloop
  endfacet
  facet normal 1 -0 0
    outer loop
      vertex 58.125 86.125 -1.5
      vertex 58.125 93.875 -3
      vertex 58.125 93.875 -1.5
    endloop
  endfacet
  facet normal 1 0 0
    outer loop
      vertex 58.125 93.875 -3
      vertex 58.125 86.125 -1.5
      vertex 58.125 86.125 -3
    endloop
  endfacet
  facet normal 0 1 -0
    outer loop
      vertex 58.125 93.875 -3
      vertex 50.375 93.875 -1.5
      vertex 58.125 93.875 -1.5
    endloop
  endfacet
  facet normal 0 1 0
    outer loop
      vertex 50.375 93.875 -1.5
      vertex 58.125 93.875 -3
      vertex 50.375 93.875 -3
    endloop
  endfacet
  facet normal 0 0 -1
    outer loop
      vertex 50.375 86.125 -3
      vertex 58.125 93.875 -3
      vertex 58.125 86.125 -3
    endloop
  endfacet
  facet normal -0 0 -1
    outer loop
      vertex 58.125 93.875 -3
      vertex 50.375 86.125 -3
      vertex 50.375 93.875 -3
    endloop
  endfacet
  facet normal 0 -1 0
    outer loop
      vertex 50.375 86.125 -3
      vertex 58.125 86.125 -1.5
      vertex 50.375 86.125 -1.5
    endloop
  endfacet
  facet normal 0 -1 -0
    outer loop
      vertex 58.125 86.125 -1.5
      vertex 50.375 86.125 -3
      vertex 58.125 86.125 -3
    endloop
  endfacet
  facet normal -1 0 0
    outer loop
      vertex 40.825 85.575 -1.5
      vertex 40.825 94.425 1.5
      vertex 40.825 94.425 -1.5
    endloop
  endfacet
  facet normal -1 -0 0
    outer loop
      vertex 40.825 94.425 1.5
      vertex 40.825 85.575 -1.5
      vertex 40.825 85.575 1.5
    endloop
  endfacet
  facet normal 0 0 1
    outer loop
      vertex 49.675 94.425 1.5
      vertex 49.125 93.875 1.5
      vertex 49.675 85.575 1.5
    endloop
  endfacet
  facet normal 0 0 1
    outer loop
      vertex 49.675 94.425 1.5
      vertex 41.375 93.875 1.5
      vertex 49.125 93.875 1.5
    endloop
  endfacet
  facet normal 0 0 1
    outer loop
      vertex 41.375 93.875 1.5
      vertex 40.825 94.425 1.5
      vertex 41.375 86.125 1.5
    endloop
  endfacet
  facet normal -0 0 1
    outer loop
      vertex 40.825 94.425 1.5
      vertex 41.375 93.875 1.5
      vertex 49.675 94.425 1.5
    endloop
  endfacet
  facet normal -0 0 1
    outer loop
      vertex 49.125 86.125 1.5
      vertex 49.675 85.575 1.5
      vertex 49.125 93.875 1.5
    endloop
  endfacet
  facet normal -0 0 1
    outer loop
      vertex 41.375 86.125 1.5
      vertex 49.675 85.575 1.5
      vertex 49.125 86.125 1.5
    endloop
  endfacet
  facet normal 0 0 1
    outer loop
      vertex 41.375 86.125 1.5
      vertex 40.825 85.575 1.5
      vertex 49.675 85.575 1.5
    endloop
  endfacet
  facet normal 0 0 1
    outer loop
      vertex 40.825 85.575 1.5
      vertex 41.375 86.125 1.5
      vertex 40.825 94.425 1.5
    endloop
  endfacet
  facet normal 1 -0 0
    outer loop
      vertex 49.675 85.575 1.5
      vertex 49.675 94.425 -1.5
      vertex 49.675 94.425 1.5
    endloop
  endfacet
  facet normal 1 0 0
    outer loop
      vertex 49.675 94.425 -1.5
      vertex 49.675 85.575 1.5
      vertex 49.675 85.575 -1.5
    endloop
  endfacet
  facet normal 0 1 -0
    outer loop
      vertex 49.675 94.425 -1.5
      vertex 40.825 94.425 1.5
      vertex 49.675 94.425 1.5
    endloop
  endfacet
  facet normal 0 1 0
    outer loop
      vertex 40.825 94.425 1.5
      vertex 49.675 94.425 -1.5
      vertex 40.825 94.425 -1.5
    endloop
  endfacet
  facet normal 0 0 -1
    outer loop
      vertex 49.675 85.575 -1.5
      vertex 49.125 86.125 -1.5
      vertex 49.675 94.425 -1.5
    endloop
  endfacet
  facet normal 0 0 -1
    outer loop
      vertex 49.675 85.575 -1.5
      vertex 41.375 86.125 -1.5
      vertex 49.125 86.125 -1.5
    endloop
  endfacet
  facet normal -0 0 -1
    outer loop
      vertex 41.375 86.125 -1.5
      vertex 40.825 85.575 -1.5
      vertex 41.375 93.875 -1.5
    endloop
  endfacet
  facet normal 0 0 -1
    outer loop
      vertex 40.825 85.575 -1.5
      vertex 41.375 86.125 -1.5
      vertex 49.675 85.575 -1.5
    endloop
  endfacet
  facet normal 0 0 -1
    outer loop
      vertex 49.125 93.875 -1.5
      vertex 49.675 94.425 -1.5
      vertex 49.125 86.125 -1.5
    endloop
  endfacet
  facet normal 0 0 -1
    outer loop
      vertex 41.375 93.875 -1.5
      vertex 49.675 94.425 -1.5
      vertex 49.125 93.875 -1.5
    endloop
  endfacet
  facet normal 0 0 -1
    outer loop
      vertex 41.375 93.875 -1.5
      vertex 40.825 94.425 -1.5
      vertex 49.675 94.425 -1.5
    endloop
  endfacet
  facet normal 0 0 -1
    outer loop
      vertex 40.825 94.425 -1.5
      vertex 41.375 93.875 -1.5
      vertex 40.825 85.575 -1.5
    endloop
  endfacet
  facet normal 0 -1 0
    outer loop
      vertex 40.825 85.575 -1.5
      vertex 49.675 85.575 1.5
      vertex 40.825 85.575 1.5
    endloop
  endfacet
  facet normal 0 -1 -0
    outer loop
      vertex 49.675 85.575 1.5
      vertex 40.825 85.575 -1.5
      vertex 49.675 85.575 -1.5
    endloop
  endfacet
  facet normal -1 0 0
    outer loop
      vertex 41.375 86.125 1.5
      vertex 41.375 93.875 3
      vertex 41.375 93.875 1.5
    endloop
  endfacet
  facet normal -1 -0 0
    outer loop
      vertex 41.375 93.875 3
      vertex 41.375 86.125 1.5
      vertex 41.375 86.125 3
    endloop
  endfacet
  facet normal -0 0 1
    outer loop
      vertex 41.375 93.875 3
      vertex 49.125 86.125 3
      vertex 49.125 93.875 3
    endloop
  endfacet
  facet normal 0 0 1
    outer loop
      vertex 49.125 86.125 3
      vertex 41.375 93.875 3
      vertex 41.375 86.125 3
    endloop
  endfacet
  facet normal 1 -0 0
    outer loop
      vertex 49.125 86.125 3
      vertex 49.125 93.875 1.5
      vertex 49.125 93.875 3
    endloop
  endfacet
  facet normal 1 0 0
    outer loop
      vertex 49.125 93.875 1.5
      vertex 49.125 86.125 3
      vertex 49.125 86.125 1.5
    endloop
  endfacet
  facet normal 0 1 -0
    outer loop
      vertex 49.125 93.875 1.5
      vertex 41.375 93.875 3
      vertex 49.125 93.875 3
    endloop
  endfacet
  facet normal 0 1 0
    outer loop
      vertex 41.375 93.875 3
      vertex 49.125 93.875 1.5
      vertex 41.375 93.875 1.5
    endloop
  endfacet
  facet normal 0 -1 0
    outer loop
      vertex 41.375 86.125 1.5
      vertex 49.125 86.125 3
      vertex 41.375 86.125 3
    endloop
  endfacet
  facet normal 0 -1 -0
    outer loop
      vertex 49.125 86.125 3
      vertex 41.375 86.125 1.5
      vertex 49.125 86.125 1.5
    endloop
  endfacet
  facet normal -1 0 0
    outer loop
      vertex 41.375 86.125 -3
      vertex 41.375 93.875 -1.5
      vertex 41.375 93.875 -3
    endloop
  endfacet
  facet normal -1 -0 0
    outer loop
      vertex 41.375 93.875 -1.5
      vertex 41.375 86.125 -3
      vertex 41.375 86.125 -1.5
    endloop
  endfacet
  facet normal 1 -0 0
    outer loop
      vertex 49.125 86.125 -1.5
      vertex 49.125 93.875 -3
      vertex 49.125 93.875 -1.5
    endloop
  endfacet
  facet normal 1 0 0
    outer loop
      vertex 49.125 93.875 -3
      vertex 49.125 86.125 -1.5
      vertex 49.125 86.125 -3
    endloop
  endfacet
  facet normal 0 1 -0
    outer loop
      vertex 49.125 93.875 -3
      vertex 41.375 93.875 -1.5
      vertex 49.125 93.875 -1.5
    endloop
  endfacet
  facet normal 0 1 0
    outer loop
      vertex 41.375 93.875 -1.5
      vertex 49.125 93.875 -3
      vertex 41.375 93.875 -3
    endloop
  endfacet
  facet normal 0 0 -1
    outer loop
      vertex 41.375 86.125 -3
      vertex 49.125 93.875 -3
      vertex 49.125 86.125 -3
    endloop
  endfacet
  facet normal -0 0 -1
    outer loop
      vertex 49.125 93.875 -3
      vertex 41.375 86.125 -3
      vertex 41.375 93.875 -3
    endloop
  endfacet
  facet normal 0 -1 0
    outer loop
      vertex 41.375 86.125 -3
      vertex 49.125 86.125 -1.5
      vertex 41.375 86.125 -1.5
    endloop
  endfacet
  facet normal 0 -1 -0
    outer loop
      vertex 49.125 86.125 -1.5
      vertex 41.375 86.125 -3
      vertex 49.125 86.125 -3
    endloop
  endfacet
  facet normal -1 0 0
    outer loop
      vertex 58.825 85.575 -1.5
      vertex 58.825 94.425 1.5
      vertex 58.825 94.425 -1.5
    endloop
  endfacet
  facet normal -1 -0 0
    outer loop
      vertex 58.825 94.425 1.5
      vertex 58.825 85.575 -1.5
      vertex 58.825 85.575 1.5
    endloop
  endfacet
  facet normal 0 0 1
    outer loop
      vertex 67.675 94.425 1.5
      vertex 67.125 93.875 1.5
      vertex 67.675 85.575 1.5
    endloop
  endfacet
  facet normal 0 0 1
    outer loop
      vertex 67.675 94.425 1.5
      vertex 59.375 93.875 1.5
      vertex 67.125 93.875 1.5
    endloop
  endfacet
  facet normal 0 0 1
    outer loop
      vertex 59.375 93.875 1.5
      vertex 58.825 94.425 1.5
      vertex 59.375 86.125 1.5
    endloop
  endfacet
  facet normal -0 0 1
    outer loop
      vertex 58.825 94.425 1.5
      vertex 59.375 93.875 1.5
      vertex 67.675 94.425 1.5
    endloop
  endfacet
  facet normal -0 0 1
    outer loop
      vertex 67.125 86.125 1.5
      vertex 67.675 85.575 1.5
      vertex 67.125 93.875 1.5
    endloop
  endfacet
  facet normal -0 0 1
    outer loop
      vertex 59.375 86.125 1.5
      vertex 67.675 85.575 1.5
      vertex 67.125 86.125 1.5
    endloop
  endfacet
  facet normal 0 0 1
    outer loop
      vertex 59.375 86.125 1.5
      vertex 58.825 85.575 1.5
      vertex 67.675 85.575 1.5
    endloop
  endfacet
  facet normal 0 0 1
    outer loop
      vertex 58.825 85.575 1.5
      vertex 59.375 86.125 1.5
      vertex 58.825 94.425 1.5
    endloop
  endfacet
  facet normal 1 -0 0
    outer loop
      vertex 67.675 85.575 1.5
      vertex 67.675 94.425 -1.5
      vertex 67.675 94.425 1.5
    endloop
  endfacet
  facet normal 1 0 0
    outer loop
      vertex 67.675 94.425 -1.5
      vertex 67.675 85.575 1.5
      vertex 67.675 85.575 -1.5
    endloop
  endfacet
  facet normal 0 1 -0
    outer loop
      vertex 67.675 94.425 -1.5
      vertex 58.825 94.425 1.5
      vertex 67.675 94.425 1.5
    endloop
  endfacet
  facet normal 0 1 0
    outer loop
      vertex 58.825 94.425 1.5
      vertex 67.675 94.425 -1.5
      vertex 58.825 94.425 -1.5
    endloop
  endfacet
  facet normal 0 0 -1
    outer loop
      vertex 67.675 85.575 -1.5
      vertex 67.125 86.125 -1.5
      vertex 67.675 94.425 -1.5
    endloop
  endfacet
  facet normal 0 0 -1
    outer loop
      vertex 67.675 85.575 -1.5
      vertex 59.375 86.125 -1.5
      vertex 67.125 86.125 -1.5
    endloop
  endfacet
  facet normal -0 0 -1
    outer loop
      vertex 59.375 86.125 -1.5
      vertex 58.825 85.575 -1.5
      vertex 59.375 93.875 -1.5
    endloop
  endfacet
  facet normal 0 0 -1
    outer loop
      vertex 58.825 85.575 -1.5
      vertex 59.375 86.125 -1.5
      vertex 67.675 85.575 -1.5
    endloop
  endfacet
  facet normal 0 0 -1
    outer loop
      vertex 67.125 93.875 -1.5
      vertex 67.675 94.425 -1.5
      vertex 67.125 86.125 -1.5
    endloop
  endfacet
  facet normal 0 0 -1
    outer loop
      vertex 59.375 93.875 -1.5
      vertex 67.675 94.425 -1.5
      vertex 67.125 93.875 -1.5
    endloop
  endfacet
  facet normal 0 0 -1
    outer loop
      vertex 59.375 93.875 -1.5
      vertex 58.825 94.425 -1.5
      vertex 67.675 94.425 -1.5
    endloop
  endfacet
  facet normal 0 0 -1
    outer loop
      vertex 58.825 94.425 -1.5
      vertex 59.375 93.875 -1.5
      vertex 58.825 85.575 -1.5
    endloop
  endfacet
  facet normal 0 -1 0
    outer loop
      vertex 58.825 85.575 -1.5
      vertex 67.675 85.575 1.5
      vertex 58.825 85.575 1.5
    endloop
  endfacet
  facet normal 0 -1 -0
    outer loop
      vertex 67.675 85.575 1.5
      vertex 58.825 85.575 -1.5
      vertex 67.675 85.575 -1.5
    endloop
  endfacet
  facet normal -1 0 0
    outer loop
      vertex 59.375 86.125 1.5
      vertex 59.375 93.875 3
      vertex 59.375 93.875 1.5
    endloop
  endfacet
  facet normal -1 -0 0
    outer loop
      vertex 59.375 93.875 3
      vertex 59.375 86.125 1.5
      vertex 59.375 86.125 3
    endloop
  endfacet
  facet normal -0 0 1
    outer loop
      vertex 59.375 93.875 3
      vertex 67.125 86.125 3
      vertex 67.125 93.875 3
    endloop
  endfacet
  facet normal 0 0 1
    outer loop
      vertex 67.125 86.125 3
      vertex 59.375 93.875 3
      vertex 59.375 86.125 3
    endloop
  endfacet
  facet normal 1 -0 0
    outer loop
      vertex 67.125 86.125 3
      vertex 67.125 93.875 1.5
      vertex 67.125 93.875 3
    endloop
  endfacet
  facet normal 1 0 0
    outer loop
      vertex 67.125 93.875 1.5
      vertex 67.125 86.125 3
      vertex 67.125 86.125 1.5
    endloop
  endfacet
  facet normal 0 1 -0
    outer loop
      vertex 67.125 93.875 1.5
      vertex 59.375 93.875 3
      vertex 67.125 93.875 3
    endloop
  endfacet
  facet normal 0 1 0
    outer loop
      vertex 59.375 93.875 3
      vertex 67.125 93.875 1.5
      vertex 59.375 93.875 1.5
    endloop
  endfacet
  facet normal 0 -1 0
    outer loop
      vertex 59.375 86.125 1.5
      vertex 67.125 86.125 3
      vertex 59.375 86.125 3
    endloop
  endfacet
  facet normal 0 -1 -0
    outer loop
      vertex 67.125 86.125 3
      vertex 59.375 86.125 1.5
      vertex 67.125 86.125 1.5
    endloop
  endfacet
  facet normal -1 0 0
    outer loop
      vertex 59.375 86.125 -3
      vertex 59.375 93.875 -1.5
      vertex 59.375 93.875 -3
    endloop
  endfacet
  facet normal -1 -0 0
    outer loop
      vertex 59.375 93.875 -1.5
      vertex 59.375 86.125 -3
      vertex 59.375 86.125 -1.5
    endloop
  endfacet
  facet normal 1 -0 0
    outer loop
      vertex 67.125 86.125 -1.5
      vertex 67.125 93.875 -3
      vertex 67.125 93.875 -1.5
    endloop
  endfacet
  facet normal 1 0 0
    outer loop
      vertex 67.125 93.875 -3
      vertex 67.125 86.125 -1.5
      vertex 67.125 86.125 -3
    endloop
  endfacet
  facet normal 0 1 -0
    outer loop
      vertex 67.125 93.875 -3
      vertex 59.375 93.875 -1.5
      vertex 67.125 93.875 -1.5
    endloop
  endfacet
  facet normal 0 1 0
    outer loop
      vertex 59.375 93.875 -1.5
      vertex 67.125 93.875 -3
      vertex 59.375 93.875 -3
    endloop
  endfacet
  facet normal 0 0 -1
    outer loop
      vertex 59.375 86.125 -3
      vertex 67.125 93.875 -3
      vertex 67.125 86.125 -3
    endloop
  endfacet
  facet normal -0 0 -1
    outer loop
      vertex 67.125 93.875 -3
      vertex 59.375 86.125 -3
      vertex 59.375 93.875 -3
    endloop
  endfacet
  facet normal 0 -1 0
    outer loop
      vertex 59.375 86.125 -3
      vertex 67.125 86.125 -1.5
      vertex 59.375 86.125 -1.5
    endloop
  endfacet
  facet normal 0 -1 -0
    outer loop
      vertex 67.125 86.125 -1.5
      vertex 59.375 86.125 -3
      vertex 67.125 86.125 -3
    endloop
  endfacet
  facet normal -1 0 0
    outer loop
      vertex 31.825 85.575 -1.5
      vertex 31.825 94.425 1.5
      vertex 31.825 94.425 -1.5
    endloop
  endfacet
  facet normal -1 -0 0
    outer loop
      vertex 31.825 94.425 1.5
      vertex 31.825 85.575 -1.5
      vertex 31.825 85.575 1.5
    endloop
  endfacet
  facet normal 0 0 1
    outer loop
      vertex 40.675 94.425 1.5
      vertex 40.125 93.875 1.5
      vertex 40.675 85.575 1.5
    endloop
  endfacet
  facet normal 0 0 1
    outer loop
      vertex 40.675 94.425 1.5
      vertex 32.375 93.875 1.5
      vertex 40.125 93.875 1.5
    endloop
  endfacet
  facet normal 0 0 1
    outer loop
      vertex 32.375 93.875 1.5
      vertex 31.825 94.425 1.5
      vertex 32.375 86.125 1.5
    endloop
  endfacet
  facet normal -0 0 1
    outer loop
      vertex 31.825 94.425 1.5
      vertex 32.375 93.875 1.5
      vertex 40.675 94.425 1.5
    endloop
  endfacet
  facet normal -0 0 1
    outer loop
      vertex 40.125 86.125 1.5
      vertex 40.675 85.575 1.5
      vertex 40.125 93.875 1.5
    endloop
  endfacet
  facet normal -0 0 1
    outer loop
      vertex 32.375 86.125 1.5
      vertex 40.675 85.575 1.5
      vertex 40.125 86.125 1.5
    endloop
  endfacet
  facet normal 0 0 1
    outer loop
      vertex 32.375 86.125 1.5
      vertex 31.825 85.575 1.5
      vertex 40.675 85.575 1.5
    endloop
  endfacet
  facet normal 0 0 1
    outer loop
      vertex 31.825 85.575 1.5
      vertex 32.375 86.125 1.5
      vertex 31.825 94.425 1.5
    endloop
  endfacet
  facet normal 1 -0 0
    outer loop
      vertex 40.675 85.575 1.5
      vertex 40.675 94.425 -1.5
      vertex 40.675 94.425 1.5
    endloop
  endfacet
  facet normal 1 0 0
    outer loop
      vertex 40.675 94.425 -1.5
      vertex 40.675 85.575 1.5
      vertex 40.675 85.575 -1.5
    endloop
  endfacet
  facet normal 0 1 -0
    outer loop
      vertex 40.675 94.425 -1.5
      vertex 31.825 94.425 1.5
      vertex 40.675 94.425 1.5
    endloop
  endfacet
  facet normal 0 1 0
    outer loop
      vertex 31.825 94.425 1.5
      vertex 40.675 94.425 -1.5
      vertex 31.825 94.425 -1.5
    endloop
  endfacet
  facet normal 0 0 -1
    outer loop
      vertex 40.675 85.575 -1.5
      vertex 40.125 86.125 -1.5
      vertex 40.675 94.425 -1.5
    endloop
  endfacet
  facet normal 0 0 -1
    outer loop
      vertex 40.675 85.575 -1.5
      vertex 32.375 86.125 -1.5
      vertex 40.125 86.125 -1.5
    endloop
  endfacet
  facet normal -0 0 -1
    outer loop
      vertex 32.375 86.125 -1.5
      vertex 31.825 85.575 -1.5
      vertex 32.375 93.875 -1.5
    endloop
  endfacet
  facet normal 0 0 -1
    outer loop
      vertex 31.825 85.575 -1.5
      vertex 32.375 86.125 -1.5
      vertex 40.675 85.575 -1.5
    endloop
  endfacet
  facet normal 0 0 -1
    outer loop
      vertex 40.125 93.875 -1.5
      vertex 40.675 94.425 -1.5
      vertex 40.125 86.125 -1.5
    endloop
  endfacet
  facet normal 0 0 -1
    outer loop
      vertex 32.375 93.875 -1.5
      vertex 40.675 94.425 -1.5
      vertex 40.125 93.875 -1.5
    endloop
  endfacet
  facet normal 0 0 -1
    outer loop
      vertex 32.375 93.875 -1.5
      vertex 31.825 94.425 -1.5
      vertex 40.675 94.425 -1.5
    endloop
  endfacet
  facet normal 0 0 -1
    outer loop
      vertex 31.825 94.425 -1.5
      vertex 32.375 93.875 -1.5
      vertex 31.825 85.575 -1.5
    endloop
  endfacet
  facet normal 0 -1 0
    outer loop
      vertex 31.825 85.575 -1.5
      vertex 40.675 85.575 1.5
      vertex 31.825 85.575 1.5
    endloop
  endfacet
  facet normal 0 -1 -0
    outer loop
      vertex 40.675 85.575 1.5
      vertex 31.825 85.575 -1.5
      vertex 40.675 85.575 -1.5
    endloop
  endfacet
  facet normal -1 0 0
    outer loop
      vertex 32.375 86.125 1.5
      vertex 32.375 93.875 3
      vertex 32.375 93.875 1.5
    endloop
  endfacet
  facet normal -1 -0 0
    outer loop
      vertex 32.375 93.875 3
      vertex 32.375 86.125 1.5
      vertex 32.375 86.125 3
    endloop
  endfacet
  facet normal -0 0 1
    outer loop
      vertex 32.375 93.875 3
      vertex 40.125 86.125 3
      vertex 40.125 93.875 3
    endloop
  endfacet
  facet normal 0 0 1
    outer loop
      vertex 40.125 86.125 3
      vertex 32.375 93.875 3
      vertex 32.375 86.125 3
    endloop
  endfacet
  facet normal 1 -0 0
    outer loop
      vertex 40.125 86.125 3
      vertex 40.125 93.875 1.5
      vertex 40.125 93.875 3
    endloop
  endfacet
  facet normal 1 0 0
    outer loop
      vertex 40.125 93.875 1.5
      vertex 40.125 86.125 3
      vertex 40.125 86.125 1.5
    endloop
  endfacet
  facet normal 0 1 -0
    outer loop
      vertex 40.125 93.875 1.5
      vertex 32.375 93.875 3
      vertex 40.125 93.875 3
    endloop
  endfacet
  facet normal 0 1 0
    outer loop
      vertex 32.375 93.875 3
      vertex 40.125 93.875 1.5
      vertex 32.375 93.875 1.5
    endloop
  endfacet
  facet normal 0 -1 0
    outer loop
      vertex 32.375 86.125 1.5
      vertex 40.125 86.125 3
      vertex 32.375 86.125 3
    endloop
  endfacet
  facet normal 0 -1 -0
    outer loop
      vertex 40.125 86.125 3
      vertex 32.375 86.125 1.5
      vertex 40.125 86.125 1.5
    endloop
  endfacet
  facet normal -1 0 0
    outer loop
      vertex 32.375 86.125 -3
      vertex 32.375 93.875 -1.5
      vertex 32.375 93.875 -3
    endloop
  endfacet
  facet normal -1 -0 0
    outer loop
      vertex 32.375 93.875 -1.5
      vertex 32.375 86.125 -3
      vertex 32.375 86.125 -1.5
    endloop
  endfacet
  facet normal 1 -0 0
    outer loop
      vertex 40.125 86.125 -1.5
      vertex 40.125 93.875 -3
      vertex 40.125 93.875 -1.5
    endloop
  endfacet
  facet normal 1 0 0
    outer loop
      vertex 40.125 93.875 -3
      vertex 40.125 86.125 -1.5
      vertex 40.125 86.125 -3
    endloop
  endfacet
  facet normal 0 1 -0
    outer loop
      vertex 40.125 93.875 -3
      vertex 32.375 93.875 -1.5
      vertex 40.125 93.875 -1.5
    endloop
  endfacet
  facet normal 0 1 0
    outer loop
      vertex 32.375 93.875 -1.5
      vertex 40.125 93.875 -3
      vertex 32.375 93.875 -3
    endloop
  endfacet
  facet normal 0 0 -1
    outer loop
      vertex 32.375 86.125 -3
      vertex 40.125 93.875 -3
      vertex 40.125 86.125 -3
    endloop
  endfacet
  facet normal -0 0 -1
    outer loop
      vertex 40.125 93.875 -3
      vertex 32.375 86.125 -3
      vertex 32.375 93.875 -3
    endloop
  endfacet
  facet normal 0 -1 0
    outer loop
      vertex 32.375 86.125 -3
      vertex 40.125 86.125 -1.5
      vertex 32.375 86.125 -1.5
    endloop
  endfacet
  facet normal 0 -1 -0
    outer loop
      vertex 40.125 86.125 -1.5
      vertex 32.375 86.125 -3
      vertex 40.125 86.125 -3
    endloop
  endfacet
endsolid OpenSCAD_Model
