solid OpenSCAD_Model
  facet normal -1 0 0
    outer loop
      vertex 0 0 0
      vertex 0 30 2
      vertex 0 30 0
    endloop
  endfacet
  facet normal -1 -0 0
    outer loop
      vertex 0 30 2
      vertex 0 0 0
      vertex 0 0 2
    endloop
  endfacet
  facet normal 0 0 1
    outer loop
      vertex 3 30 2
      vertex 0 30 2
      vertex 3 3 2
    endloop
  endfacet
  facet normal -0 0 1
    outer loop
      vertex 3 3 2
      vertex 30 0 2
      vertex 30 3 2
    endloop
  endfacet
  facet normal 0 0 1
    outer loop
      vertex 3 3 2
      vertex 0 0 2
      vertex 30 0 2
    endloop
  endfacet
  facet normal 0 0 1
    outer loop
      vertex 0 0 2
      vertex 3 3 2
      vertex 0 30 2
    endloop
  endfacet
  facet normal 1 0 0
    outer loop
      vertex 30 3 2
      vertex 30 0 2
      vertex 30 3 1
    endloop
  endfacet
  facet normal 1 -0 0
    outer loop
      vertex 30 3 1
      vertex 30 30 0
      vertex 30 30 1
    endloop
  endfacet
  facet normal 1 0 0
    outer loop
      vertex 30 3 1
      vertex 30 0 0
      vertex 30 30 0
    endloop
  endfacet
  facet normal 1 0 0
    outer loop
      vertex 30 0 0
      vertex 30 3 1
      vertex 30 0 2
    endloop
  endfacet
  facet normal 0 1 0
    outer loop
      vertex 30 30 1
      vertex 30 30 0
      vertex 3 30 1
    endloop
  endfacet
  facet normal 0 1 -0
    outer loop
      vertex 3 30 1
      vertex 0 30 2
      vertex 3 30 2
    endloop
  endfacet
  facet normal 0 1 0
    outer loop
      vertex 3 30 1
      vertex 0 30 0
      vertex 0 30 2
    endloop
  endfacet
  facet normal 0 1 0
    outer loop
      vertex 0 30 0
      vertex 3 30 1
      vertex 30 30 0
    endloop
  endfacet
  facet normal 0 0 -1
    outer loop
      vertex 30 0 0
      vertex 18 16 0
      vertex 30 30 0
    endloop
  endfacet
  facet normal 0 0 -1
    outer loop
      vertex 30 0 0
      vertex 17.9563 15.5842 0
      vertex 18 16 0
    endloop
  endfacet
  facet normal 0 0 -1
    outer loop
      vertex 30 0 0
      vertex 17.8271 15.1865 0
      vertex 17.9563 15.5842 0
    endloop
  endfacet
  facet normal 0 0 -1
    outer loop
      vertex 30 0 0
      vertex 17.618 14.8244 0
      vertex 17.8271 15.1865 0
    endloop
  endfacet
  facet normal 0 0 -1
    outer loop
      vertex 30 0 0
      vertex 17.3383 14.5137 0
      vertex 17.618 14.8244 0
    endloop
  endfacet
  facet normal 0 0 -1
    outer loop
      vertex 30 0 0
      vertex 17 14.2679 0
      vertex 17.3383 14.5137 0
    endloop
  endfacet
  facet normal 0 0 -1
    outer loop
      vertex 30 0 0
      vertex 16.618 14.0979 0
      vertex 17 14.2679 0
    endloop
  endfacet
  facet normal 0 0 -1
    outer loop
      vertex 30 0 0
      vertex 16.2091 14.011 0
      vertex 16.618 14.0979 0
    endloop
  endfacet
  facet normal 0 0 -1
    outer loop
      vertex 30 0 0
      vertex 15.7909 14.011 0
      vertex 16.2091 14.011 0
    endloop
  endfacet
  facet normal 0 0 -1
    outer loop
      vertex 0 0 0
      vertex 15.7909 14.011 0
      vertex 30 0 0
    endloop
  endfacet
  facet normal -0 0 -1
    outer loop
      vertex 15.7909 14.011 0
      vertex 0 0 0
      vertex 15.382 14.0979 0
    endloop
  endfacet
  facet normal -0 0 -1
    outer loop
      vertex 15.382 14.0979 0
      vertex 0 0 0
      vertex 15 14.2679 0
    endloop
  endfacet
  facet normal -0 0 -1
    outer loop
      vertex 14.0437 15.5842 0
      vertex 0 0 0
      vertex 14 16 0
    endloop
  endfacet
  facet normal -0 0 -1
    outer loop
      vertex 14.1729 15.1865 0
      vertex 0 0 0
      vertex 14.0437 15.5842 0
    endloop
  endfacet
  facet normal -0 0 -1
    outer loop
      vertex 14.382 14.8244 0
      vertex 0 0 0
      vertex 14.1729 15.1865 0
    endloop
  endfacet
  facet normal -0 0 -1
    outer loop
      vertex 14.6617 14.5137 0
      vertex 0 0 0
      vertex 14.382 14.8244 0
    endloop
  endfacet
  facet normal -0 0 -1
    outer loop
      vertex 15 14.2679 0
      vertex 0 0 0
      vertex 14.6617 14.5137 0
    endloop
  endfacet
  facet normal 0 0 -1
    outer loop
      vertex 17.9563 16.4158 0
      vertex 30 30 0
      vertex 18 16 0
    endloop
  endfacet
  facet normal 0 0 -1
    outer loop
      vertex 17.8271 16.8135 0
      vertex 30 30 0
      vertex 17.9563 16.4158 0
    endloop
  endfacet
  facet normal 0 0 -1
    outer loop
      vertex 17.618 17.1756 0
      vertex 30 30 0
      vertex 17.8271 16.8135 0
    endloop
  endfacet
  facet normal 0 0 -1
    outer loop
      vertex 17.3383 17.4863 0
      vertex 30 30 0
      vertex 17.618 17.1756 0
    endloop
  endfacet
  facet normal 0 0 -1
    outer loop
      vertex 17 17.732 0
      vertex 30 30 0
      vertex 17.3383 17.4863 0
    endloop
  endfacet
  facet normal 0 0 -1
    outer loop
      vertex 16.618 17.9021 0
      vertex 30 30 0
      vertex 17 17.732 0
    endloop
  endfacet
  facet normal 0 0 -1
    outer loop
      vertex 16.2091 17.989 0
      vertex 30 30 0
      vertex 16.618 17.9021 0
    endloop
  endfacet
  facet normal 0 0 -1
    outer loop
      vertex 15.7909 17.989 0
      vertex 30 30 0
      vertex 16.2091 17.989 0
    endloop
  endfacet
  facet normal 0 0 -1
    outer loop
      vertex 0 30 0
      vertex 15.7909 17.989 0
      vertex 15.382 17.9021 0
    endloop
  endfacet
  facet normal 0 0 -1
    outer loop
      vertex 0 30 0
      vertex 15.382 17.9021 0
      vertex 15 17.732 0
    endloop
  endfacet
  facet normal 0 0 -1
    outer loop
      vertex 0 30 0
      vertex 15 17.732 0
      vertex 14.6617 17.4863 0
    endloop
  endfacet
  facet normal 0 0 -1
    outer loop
      vertex 0 30 0
      vertex 14 16 0
      vertex 0 0 0
    endloop
  endfacet
  facet normal 0 0 -1
    outer loop
      vertex 14 16 0
      vertex 0 30 0
      vertex 14.0437 16.4158 0
    endloop
  endfacet
  facet normal 0 0 -1
    outer loop
      vertex 14.0437 16.4158 0
      vertex 0 30 0
      vertex 14.1729 16.8135 0
    endloop
  endfacet
  facet normal 0 0 -1
    outer loop
      vertex 15.7909 17.989 0
      vertex 0 30 0
      vertex 30 30 0
    endloop
  endfacet
  facet normal 0 0 -1
    outer loop
      vertex 14.382 17.1756 0
      vertex 0 30 0
      vertex 14.6617 17.4863 0
    endloop
  endfacet
  facet normal 0 0 -1
    outer loop
      vertex 14.1729 16.8135 0
      vertex 0 30 0
      vertex 14.382 17.1756 0
    endloop
  endfacet
  facet normal 0 -1 0
    outer loop
      vertex 0 0 0
      vertex 30 0 2
      vertex 0 0 2
    endloop
  endfacet
  facet normal 0 -1 -0
    outer loop
      vertex 30 0 2
      vertex 0 0 0
      vertex 30 0 0
    endloop
  endfacet
  facet normal 1 -0 0
    outer loop
      vertex 3 3 2
      vertex 3 30 1
      vertex 3 30 2
    endloop
  endfacet
  facet normal 1 0 0
    outer loop
      vertex 3 30 1
      vertex 3 3 2
      vertex 3 3 1
    endloop
  endfacet
  facet normal 0 0 1
    outer loop
      vertex 30 30 1
      vertex 18 16 1
      vertex 30 3 1
    endloop
  endfacet
  facet normal 0 0 1
    outer loop
      vertex 30 30 1
      vertex 17.9563 16.4158 1
      vertex 18 16 1
    endloop
  endfacet
  facet normal 0 0 1
    outer loop
      vertex 30 30 1
      vertex 17.8271 16.8135 1
      vertex 17.9563 16.4158 1
    endloop
  endfacet
  facet normal 0 0 1
    outer loop
      vertex 30 30 1
      vertex 17.618 17.1756 1
      vertex 17.8271 16.8135 1
    endloop
  endfacet
  facet normal 0 0 1
    outer loop
      vertex 30 30 1
      vertex 17.3383 17.4863 1
      vertex 17.618 17.1756 1
    endloop
  endfacet
  facet normal 0 0 1
    outer loop
      vertex 30 30 1
      vertex 17 17.732 1
      vertex 17.3383 17.4863 1
    endloop
  endfacet
  facet normal 0 0 1
    outer loop
      vertex 30 30 1
      vertex 16.618 17.9021 1
      vertex 17 17.732 1
    endloop
  endfacet
  facet normal 0 0 1
    outer loop
      vertex 30 30 1
      vertex 16.2091 17.989 1
      vertex 16.618 17.9021 1
    endloop
  endfacet
  facet normal -0 0 1
    outer loop
      vertex 3 30 1
      vertex 16.2091 17.989 1
      vertex 30 30 1
    endloop
  endfacet
  facet normal 0 0 1
    outer loop
      vertex 16.2091 17.989 1
      vertex 3 30 1
      vertex 15.7909 17.989 1
    endloop
  endfacet
  facet normal 0 0 1
    outer loop
      vertex 15.7909 17.989 1
      vertex 3 30 1
      vertex 15.382 17.9021 1
    endloop
  endfacet
  facet normal 0 0 1
    outer loop
      vertex 15.382 17.9021 1
      vertex 3 30 1
      vertex 15 17.732 1
    endloop
  endfacet
  facet normal 0 0 1
    outer loop
      vertex 14.0437 16.4158 1
      vertex 3 30 1
      vertex 14 16 1
    endloop
  endfacet
  facet normal 0 0 1
    outer loop
      vertex 14.1729 16.8135 1
      vertex 3 30 1
      vertex 14.0437 16.4158 1
    endloop
  endfacet
  facet normal 0 0 1
    outer loop
      vertex 14.382 17.1756 1
      vertex 3 30 1
      vertex 14.1729 16.8135 1
    endloop
  endfacet
  facet normal 0 0 1
    outer loop
      vertex 14.6617 17.4863 1
      vertex 3 30 1
      vertex 14.382 17.1756 1
    endloop
  endfacet
  facet normal 0 0 1
    outer loop
      vertex 15 17.732 1
      vertex 3 30 1
      vertex 14.6617 17.4863 1
    endloop
  endfacet
  facet normal -0 0 1
    outer loop
      vertex 17.9563 15.5842 1
      vertex 30 3 1
      vertex 18 16 1
    endloop
  endfacet
  facet normal -0 0 1
    outer loop
      vertex 17.8271 15.1865 1
      vertex 30 3 1
      vertex 17.9563 15.5842 1
    endloop
  endfacet
  facet normal -0 0 1
    outer loop
      vertex 17.618 14.8244 1
      vertex 30 3 1
      vertex 17.8271 15.1865 1
    endloop
  endfacet
  facet normal -0 0 1
    outer loop
      vertex 17.3383 14.5137 1
      vertex 30 3 1
      vertex 17.618 14.8244 1
    endloop
  endfacet
  facet normal -0 0 1
    outer loop
      vertex 17 14.2679 1
      vertex 30 3 1
      vertex 17.3383 14.5137 1
    endloop
  endfacet
  facet normal -0 0 1
    outer loop
      vertex 16.618 14.0979 1
      vertex 30 3 1
      vertex 17 14.2679 1
    endloop
  endfacet
  facet normal -0 0 1
    outer loop
      vertex 16.2091 14.011 1
      vertex 30 3 1
      vertex 16.618 14.0979 1
    endloop
  endfacet
  facet normal 0 0 1
    outer loop
      vertex 3 3 1
      vertex 16.2091 14.011 1
      vertex 15.7909 14.011 1
    endloop
  endfacet
  facet normal 0 0 1
    outer loop
      vertex 3 3 1
      vertex 15.7909 14.011 1
      vertex 15.382 14.0979 1
    endloop
  endfacet
  facet normal 0 0 1
    outer loop
      vertex 3 3 1
      vertex 15.382 14.0979 1
      vertex 15 14.2679 1
    endloop
  endfacet
  facet normal 0 0 1
    outer loop
      vertex 3 3 1
      vertex 15 14.2679 1
      vertex 14.6617 14.5137 1
    endloop
  endfacet
  facet normal 0 0 1
    outer loop
      vertex 3 3 1
      vertex 14 16 1
      vertex 3 30 1
    endloop
  endfacet
  facet normal 0 0 1
    outer loop
      vertex 14 16 1
      vertex 3 3 1
      vertex 14.0437 15.5842 1
    endloop
  endfacet
  facet normal 0 0 1
    outer loop
      vertex 14.0437 15.5842 1
      vertex 3 3 1
      vertex 14.1729 15.1865 1
    endloop
  endfacet
  facet normal 0 0 1
    outer loop
      vertex 16.2091 14.011 1
      vertex 3 3 1
      vertex 30 3 1
    endloop
  endfacet
  facet normal 0 0 1
    outer loop
      vertex 14.382 14.8244 1
      vertex 3 3 1
      vertex 14.6617 14.5137 1
    endloop
  endfacet
  facet normal 0 0 1
    outer loop
      vertex 14.1729 15.1865 1
      vertex 3 3 1
      vertex 14.382 14.8244 1
    endloop
  endfacet
  facet normal 0 1 -0
    outer loop
      vertex 30 3 1
      vertex 3 3 2
      vertex 30 3 2
    endloop
  endfacet
  facet normal 0 1 0
    outer loop
      vertex 3 3 2
      vertex 30 3 1
      vertex 3 3 1
    endloop
  endfacet
  facet normal -0.865982 -0.500074 0
    outer loop
      vertex 17.8271 16.8135 0
      vertex 17.618 17.1756 1
      vertex 17.618 17.1756 0
    endloop
  endfacet
  facet normal -0.865982 -0.500074 0
    outer loop
      vertex 17.618 17.1756 1
      vertex 17.8271 16.8135 0
      vertex 17.8271 16.8135 1
    endloop
  endfacet
  facet normal 0.994522 -0.104523 0
    outer loop
      vertex 14 16 1
      vertex 14.0437 16.4158 0
      vertex 14.0437 16.4158 1
    endloop
  endfacet
  facet normal 0.994522 -0.104523 0
    outer loop
      vertex 14.0437 16.4158 0
      vertex 14 16 1
      vertex 14 16 0
    endloop
  endfacet
  facet normal -0.743211 -0.669057 0
    outer loop
      vertex 17.618 17.1756 0
      vertex 17.3383 17.4863 1
      vertex 17.3383 17.4863 0
    endloop
  endfacet
  facet normal -0.743211 -0.669057 0
    outer loop
      vertex 17.3383 17.4863 1
      vertex 17.618 17.1756 0
      vertex 17.618 17.1756 1
    endloop
  endfacet
  facet normal -0.207879 -0.978155 0
    outer loop
      vertex 16.2091 17.989 0
      vertex 16.618 17.9021 1
      vertex 16.2091 17.989 1
    endloop
  endfacet
  facet normal -0.207879 -0.978155 -0
    outer loop
      vertex 16.618 17.9021 1
      vertex 16.2091 17.989 0
      vertex 16.618 17.9021 0
    endloop
  endfacet
  facet normal 0.587645 -0.809119 0
    outer loop
      vertex 14.6617 17.4863 0
      vertex 15 17.732 1
      vertex 14.6617 17.4863 1
    endloop
  endfacet
  facet normal 0.587645 -0.809119 0
    outer loop
      vertex 15 17.732 1
      vertex 14.6617 17.4863 0
      vertex 15 17.732 0
    endloop
  endfacet
  facet normal 0.951071 -0.308973 0
    outer loop
      vertex 14.0437 16.4158 1
      vertex 14.1729 16.8135 0
      vertex 14.1729 16.8135 1
    endloop
  endfacet
  facet normal 0.951071 -0.308973 0
    outer loop
      vertex 14.1729 16.8135 0
      vertex 14.0437 16.4158 1
      vertex 14.0437 16.4158 0
    endloop
  endfacet
  facet normal 0.743211 -0.669057 0
    outer loop
      vertex 14.382 17.1756 1
      vertex 14.6617 17.4863 0
      vertex 14.6617 17.4863 1
    endloop
  endfacet
  facet normal 0.743211 -0.669057 0
    outer loop
      vertex 14.6617 17.4863 0
      vertex 14.382 17.1756 1
      vertex 14.382 17.1756 0
    endloop
  endfacet
  facet normal -0.994522 0.104523 0
    outer loop
      vertex 17.9563 15.5842 0
      vertex 18 16 1
      vertex 18 16 0
    endloop
  endfacet
  facet normal -0.994522 0.104523 0
    outer loop
      vertex 18 16 1
      vertex 17.9563 15.5842 0
      vertex 17.9563 15.5842 1
    endloop
  endfacet
  facet normal -0.587645 -0.809119 0
    outer loop
      vertex 17 17.732 0
      vertex 17.3383 17.4863 1
      vertex 17 17.732 1
    endloop
  endfacet
  facet normal -0.587645 -0.809119 -0
    outer loop
      vertex 17.3383 17.4863 1
      vertex 17 17.732 0
      vertex 17.3383 17.4863 0
    endloop
  endfacet
  facet normal 0.207879 -0.978155 0
    outer loop
      vertex 15.382 17.9021 0
      vertex 15.7909 17.989 1
      vertex 15.382 17.9021 1
    endloop
  endfacet
  facet normal 0.207879 -0.978155 0
    outer loop
      vertex 15.7909 17.989 1
      vertex 15.382 17.9021 0
      vertex 15.7909 17.989 0
    endloop
  endfacet
  facet normal -0.406782 -0.913525 0
    outer loop
      vertex 16.618 17.9021 0
      vertex 17 17.732 1
      vertex 16.618 17.9021 1
    endloop
  endfacet
  facet normal -0.406782 -0.913525 -0
    outer loop
      vertex 17 17.732 1
      vertex 16.618 17.9021 0
      vertex 17 17.732 0
    endloop
  endfacet
  facet normal 0.994522 0.104523 0
    outer loop
      vertex 14.0437 15.5842 1
      vertex 14 16 0
      vertex 14 16 1
    endloop
  endfacet
  facet normal 0.994522 0.104523 0
    outer loop
      vertex 14 16 0
      vertex 14.0437 15.5842 1
      vertex 14.0437 15.5842 0
    endloop
  endfacet
  facet normal 0.865982 -0.500074 0
    outer loop
      vertex 14.1729 16.8135 1
      vertex 14.382 17.1756 0
      vertex 14.382 17.1756 1
    endloop
  endfacet
  facet normal 0.865982 -0.500074 0
    outer loop
      vertex 14.382 17.1756 0
      vertex 14.1729 16.8135 1
      vertex 14.1729 16.8135 0
    endloop
  endfacet
  facet normal 0.406782 -0.913525 0
    outer loop
      vertex 15 17.732 0
      vertex 15.382 17.9021 1
      vertex 15 17.732 1
    endloop
  endfacet
  facet normal 0.406782 -0.913525 0
    outer loop
      vertex 15.382 17.9021 1
      vertex 15 17.732 0
      vertex 15.382 17.9021 0
    endloop
  endfacet
  facet normal -0.994522 -0.104523 0
    outer loop
      vertex 18 16 0
      vertex 17.9563 16.4158 1
      vertex 17.9563 16.4158 0
    endloop
  endfacet
  facet normal -0.994522 -0.104523 0
    outer loop
      vertex 17.9563 16.4158 1
      vertex 18 16 0
      vertex 18 16 1
    endloop
  endfacet
  facet normal -0.587802 0.809005 0
    outer loop
      vertex 17.3383 14.5137 0
      vertex 17 14.2679 1
      vertex 17.3383 14.5137 1
    endloop
  endfacet
  facet normal -0.587802 0.809005 0
    outer loop
      vertex 17 14.2679 1
      vertex 17.3383 14.5137 0
      vertex 17 14.2679 0
    endloop
  endfacet
  facet normal -0.865982 0.500074 0
    outer loop
      vertex 17.618 14.8244 0
      vertex 17.8271 15.1865 1
      vertex 17.8271 15.1865 0
    endloop
  endfacet
  facet normal -0.865982 0.500074 0
    outer loop
      vertex 17.8271 15.1865 1
      vertex 17.618 14.8244 0
      vertex 17.618 14.8244 1
    endloop
  endfacet
  facet normal 0 1 -0
    outer loop
      vertex 16.2091 14.011 0
      vertex 15.7909 14.011 1
      vertex 16.2091 14.011 1
    endloop
  endfacet
  facet normal 0 1 0
    outer loop
      vertex 15.7909 14.011 1
      vertex 16.2091 14.011 0
      vertex 15.7909 14.011 0
    endloop
  endfacet
  facet normal -0.406582 0.913614 0
    outer loop
      vertex 17 14.2679 0
      vertex 16.618 14.0979 1
      vertex 17 14.2679 1
    endloop
  endfacet
  facet normal -0.406582 0.913614 0
    outer loop
      vertex 16.618 14.0979 1
      vertex 17 14.2679 0
      vertex 16.618 14.0979 0
    endloop
  endfacet
  facet normal -0.951071 -0.308973 0
    outer loop
      vertex 17.9563 16.4158 0
      vertex 17.8271 16.8135 1
      vertex 17.8271 16.8135 0
    endloop
  endfacet
  facet normal -0.951071 -0.308973 0
    outer loop
      vertex 17.8271 16.8135 1
      vertex 17.9563 16.4158 0
      vertex 17.9563 16.4158 1
    endloop
  endfacet
  facet normal 0 -1 0
    outer loop
      vertex 15.7909 17.989 0
      vertex 16.2091 17.989 1
      vertex 15.7909 17.989 1
    endloop
  endfacet
  facet normal 0 -1 -0
    outer loop
      vertex 16.2091 17.989 1
      vertex 15.7909 17.989 0
      vertex 16.2091 17.989 0
    endloop
  endfacet
  facet normal 0.951071 0.308973 0
    outer loop
      vertex 14.1729 15.1865 1
      vertex 14.0437 15.5842 0
      vertex 14.0437 15.5842 1
    endloop
  endfacet
  facet normal 0.951071 0.308973 0
    outer loop
      vertex 14.0437 15.5842 0
      vertex 14.1729 15.1865 1
      vertex 14.1729 15.1865 0
    endloop
  endfacet
  facet normal -0.743211 0.669057 0
    outer loop
      vertex 17.3383 14.5137 0
      vertex 17.618 14.8244 1
      vertex 17.618 14.8244 0
    endloop
  endfacet
  facet normal -0.743211 0.669057 0
    outer loop
      vertex 17.618 14.8244 1
      vertex 17.3383 14.5137 0
      vertex 17.3383 14.5137 1
    endloop
  endfacet
  facet normal -0.951071 0.308973 0
    outer loop
      vertex 17.8271 15.1865 0
      vertex 17.9563 15.5842 1
      vertex 17.9563 15.5842 0
    endloop
  endfacet
  facet normal -0.951071 0.308973 0
    outer loop
      vertex 17.9563 15.5842 1
      vertex 17.8271 15.1865 0
      vertex 17.8271 15.1865 1
    endloop
  endfacet
  facet normal 0.207879 0.978155 -0
    outer loop
      vertex 15.7909 14.011 0
      vertex 15.382 14.0979 1
      vertex 15.7909 14.011 1
    endloop
  endfacet
  facet normal 0.207879 0.978155 0
    outer loop
      vertex 15.382 14.0979 1
      vertex 15.7909 14.011 0
      vertex 15.382 14.0979 0
    endloop
  endfacet
  facet normal -0.207879 0.978155 0
    outer loop
      vertex 16.618 14.0979 0
      vertex 16.2091 14.011 1
      vertex 16.618 14.0979 1
    endloop
  endfacet
  facet normal -0.207879 0.978155 0
    outer loop
      vertex 16.2091 14.011 1
      vertex 16.618 14.0979 0
      vertex 16.2091 14.011 0
    endloop
  endfacet
  facet normal 0.865982 0.500074 0
    outer loop
      vertex 14.382 14.8244 1
      vertex 14.1729 15.1865 0
      vertex 14.1729 15.1865 1
    endloop
  endfacet
  facet normal 0.865982 0.500074 0
    outer loop
      vertex 14.1729 15.1865 0
      vertex 14.382 14.8244 1
      vertex 14.382 14.8244 0
    endloop
  endfacet
  facet normal 0.587802 0.809005 -0
    outer loop
      vertex 15 14.2679 0
      vertex 14.6617 14.5137 1
      vertex 15 14.2679 1
    endloop
  endfacet
  facet normal 0.587802 0.809005 0
    outer loop
      vertex 14.6617 14.5137 1
      vertex 15 14.2679 0
      vertex 14.6617 14.5137 0
    endloop
  endfacet
  facet normal 0.743211 0.669057 0
    outer loop
      vertex 14.6617 14.5137 1
      vertex 14.382 14.8244 0
      vertex 14.382 14.8244 1
    endloop
  endfacet
  facet normal 0.743211 0.669057 0
    outer loop
      vertex 14.382 14.8244 0
      vertex 14.6617 14.5137 1
      vertex 14.6617 14.5137 0
    endloop
  endfacet
  facet normal 0.406582 0.913614 -0
    outer loop
      vertex 15.382 14.0979 0
      vertex 15 14.2679 1
      vertex 15.382 14.0979 1
    endloop
  endfacet
  facet normal 0.406582 0.913614 0
    outer loop
      vertex 15 14.2679 1
      vertex 15.382 14.0979 0
      vertex 15 14.2679 0
    endloop
  endfacet
endsolid OpenSCAD_Model
