solid OpenSCAD_Model
  facet normal -0.587791 -0.809013 0
    outer loop
      vertex 15.375 6.38157 -5
      vertex 15.8401 6.04365 -2
      vertex 15.375 6.38157 -2
    endloop
  endfacet
  facet normal -0.587791 -0.809013 -0
    outer loop
      vertex 15.8401 6.04365 -2
      vertex 15.375 6.38157 -5
      vertex 15.8401 6.04365 -5
    endloop
  endfacet
  facet normal -0.994521 0.104538 0
    outer loop
      vertex 16.6899 3.42824 -5
      vertex 16.75 4 -2
      vertex 16.75 4 -5
    endloop
  endfacet
  facet normal -0.994521 0.104538 0
    outer loop
      vertex 16.75 4 -2
      vertex 16.6899 3.42824 -5
      vertex 16.6899 3.42824 -2
    endloop
  endfacet
  facet normal 0.207911 0.978148 -0
    outer loop
      vertex 13.7125 1.26507 -5
      vertex 13.1502 1.38459 -2
      vertex 13.7125 1.26507 -2
    endloop
  endfacet
  facet normal 0.207911 0.978148 0
    outer loop
      vertex 13.1502 1.38459 -2
      vertex 13.7125 1.26507 -5
      vertex 13.1502 1.38459 -5
    endloop
  endfacet
  facet normal -0.951034 -0.309086 0
    outer loop
      vertex 16.6899 4.57176 -5
      vertex 16.5122 5.11853 -2
      vertex 16.5122 5.11853 -5
    endloop
  endfacet
  facet normal -0.951034 -0.309086 0
    outer loop
      vertex 16.5122 5.11853 -2
      vertex 16.6899 4.57176 -5
      vertex 16.6899 4.57176 -2
    endloop
  endfacet
  facet normal 0.406745 -0.913542 0
    outer loop
      vertex 12.625 6.38157 -5
      vertex 13.1502 6.61541 -2
      vertex 12.625 6.38157 -2
    endloop
  endfacet
  facet normal 0.406745 -0.913542 0
    outer loop
      vertex 13.1502 6.61541 -2
      vertex 12.625 6.38157 -5
      vertex 13.1502 6.61541 -5
    endloop
  endfacet
  facet normal 0.951085 -0.308928 0
    outer loop
      vertex 11.3101 4.57176 -2
      vertex 11.4877 5.11853 -5
      vertex 11.4877 5.11853 -2
    endloop
  endfacet
  facet normal 0.951085 -0.308928 0
    outer loop
      vertex 11.4877 5.11853 -5
      vertex 11.3101 4.57176 -2
      vertex 11.3101 4.57176 -5
    endloop
  endfacet
  facet normal -0.743135 0.669142 0
    outer loop
      vertex 15.8401 1.95635 -5
      vertex 16.2248 2.38359 -2
      vertex 16.2248 2.38359 -5
    endloop
  endfacet
  facet normal -0.743135 0.669142 0
    outer loop
      vertex 16.2248 2.38359 -2
      vertex 15.8401 1.95635 -5
      vertex 15.8401 1.95635 -2
    endloop
  endfacet
  facet normal 0.951085 0.308928 0
    outer loop
      vertex 11.4877 2.88147 -2
      vertex 11.3101 3.42824 -5
      vertex 11.3101 3.42824 -2
    endloop
  endfacet
  facet normal 0.951085 0.308928 0
    outer loop
      vertex 11.3101 3.42824 -5
      vertex 11.4877 2.88147 -2
      vertex 11.4877 2.88147 -5
    endloop
  endfacet
  facet normal 0.865989 0.500064 0
    outer loop
      vertex 11.7752 2.38359 -2
      vertex 11.4877 2.88147 -5
      vertex 11.4877 2.88147 -2
    endloop
  endfacet
  facet normal 0.865989 0.500064 0
    outer loop
      vertex 11.4877 2.88147 -5
      vertex 11.7752 2.38359 -2
      vertex 11.7752 2.38359 -5
    endloop
  endfacet
  facet normal -0.866064 -0.499933 0
    outer loop
      vertex 16.5122 5.11853 -5
      vertex 16.2248 5.61641 -2
      vertex 16.2248 5.61641 -5
    endloop
  endfacet
  facet normal -0.866064 -0.499933 0
    outer loop
      vertex 16.2248 5.61641 -2
      vertex 16.5122 5.11853 -5
      vertex 16.5122 5.11853 -2
    endloop
  endfacet
  facet normal -0.743135 -0.669142 0
    outer loop
      vertex 16.2248 5.61641 -5
      vertex 15.8401 6.04365 -2
      vertex 15.8401 6.04365 -5
    endloop
  endfacet
  facet normal -0.743135 -0.669142 0
    outer loop
      vertex 15.8401 6.04365 -2
      vertex 16.2248 5.61641 -5
      vertex 16.2248 5.61641 -2
    endloop
  endfacet
  facet normal -0.406745 -0.913542 0
    outer loop
      vertex 14.8498 6.61541 -5
      vertex 15.375 6.38157 -2
      vertex 14.8498 6.61541 -2
    endloop
  endfacet
  facet normal -0.406745 -0.913542 -0
    outer loop
      vertex 15.375 6.38157 -2
      vertex 14.8498 6.61541 -5
      vertex 15.375 6.38157 -5
    endloop
  endfacet
  facet normal 0 -1 0
    outer loop
      vertex 13.7125 6.73493 -5
      vertex 14.2875 6.73493 -2
      vertex 13.7125 6.73493 -2
    endloop
  endfacet
  facet normal 0 -1 -0
    outer loop
      vertex 14.2875 6.73493 -2
      vertex 13.7125 6.73493 -5
      vertex 14.2875 6.73493 -5
    endloop
  endfacet
  facet normal 0.994521 0.104538 0
    outer loop
      vertex 11.3101 3.42824 -2
      vertex 11.25 4 -5
      vertex 11.25 4 -2
    endloop
  endfacet
  facet normal 0.994521 0.104538 0
    outer loop
      vertex 11.25 4 -5
      vertex 11.3101 3.42824 -2
      vertex 11.3101 3.42824 -5
    endloop
  endfacet
  facet normal 0.865989 -0.500064 0
    outer loop
      vertex 11.4877 5.11853 -2
      vertex 11.7752 5.61641 -5
      vertex 11.7752 5.61641 -2
    endloop
  endfacet
  facet normal 0.865989 -0.500064 0
    outer loop
      vertex 11.7752 5.61641 -5
      vertex 11.4877 5.11853 -2
      vertex 11.4877 5.11853 -5
    endloop
  endfacet
  facet normal 0.587791 -0.809013 0
    outer loop
      vertex 12.1599 6.04365 -5
      vertex 12.625 6.38157 -2
      vertex 12.1599 6.04365 -2
    endloop
  endfacet
  facet normal 0.587791 -0.809013 0
    outer loop
      vertex 12.625 6.38157 -2
      vertex 12.1599 6.04365 -5
      vertex 12.625 6.38157 -5
    endloop
  endfacet
  facet normal 0.207911 -0.978148 0
    outer loop
      vertex 13.1502 6.61541 -5
      vertex 13.7125 6.73493 -2
      vertex 13.1502 6.61541 -2
    endloop
  endfacet
  facet normal 0.207911 -0.978148 0
    outer loop
      vertex 13.7125 6.73493 -2
      vertex 13.1502 6.61541 -5
      vertex 13.7125 6.73493 -5
    endloop
  endfacet
  facet normal 0.743135 -0.669142 0
    outer loop
      vertex 11.7752 5.61641 -2
      vertex 12.1599 6.04365 -5
      vertex 12.1599 6.04365 -2
    endloop
  endfacet
  facet normal 0.743135 -0.669142 0
    outer loop
      vertex 12.1599 6.04365 -5
      vertex 11.7752 5.61641 -2
      vertex 11.7752 5.61641 -5
    endloop
  endfacet
  facet normal -0.994521 -0.104538 0
    outer loop
      vertex 16.75 4 -5
      vertex 16.6899 4.57176 -2
      vertex 16.6899 4.57176 -5
    endloop
  endfacet
  facet normal -0.994521 -0.104538 0
    outer loop
      vertex 16.6899 4.57176 -2
      vertex 16.75 4 -5
      vertex 16.75 4 -2
    endloop
  endfacet
  facet normal -0.207911 0.978148 0
    outer loop
      vertex 14.8498 1.38459 -5
      vertex 14.2875 1.26507 -2
      vertex 14.8498 1.38459 -2
    endloop
  endfacet
  facet normal -0.207911 0.978148 0
    outer loop
      vertex 14.2875 1.26507 -2
      vertex 14.8498 1.38459 -5
      vertex 14.2875 1.26507 -5
    endloop
  endfacet
  facet normal -0.866064 0.499933 0
    outer loop
      vertex 16.2248 2.38359 -5
      vertex 16.5122 2.88147 -2
      vertex 16.5122 2.88147 -5
    endloop
  endfacet
  facet normal -0.866064 0.499933 0
    outer loop
      vertex 16.5122 2.88147 -2
      vertex 16.2248 2.38359 -5
      vertex 16.2248 2.38359 -2
    endloop
  endfacet
  facet normal -0.951034 0.309086 0
    outer loop
      vertex 16.5122 2.88147 -5
      vertex 16.6899 3.42824 -2
      vertex 16.6899 3.42824 -5
    endloop
  endfacet
  facet normal -0.951034 0.309086 0
    outer loop
      vertex 16.6899 3.42824 -2
      vertex 16.5122 2.88147 -5
      vertex 16.5122 2.88147 -2
    endloop
  endfacet
  facet normal -0.406745 0.913542 0
    outer loop
      vertex 15.375 1.61843 -5
      vertex 14.8498 1.38459 -2
      vertex 15.375 1.61843 -2
    endloop
  endfacet
  facet normal -0.406745 0.913542 0
    outer loop
      vertex 14.8498 1.38459 -2
      vertex 15.375 1.61843 -5
      vertex 14.8498 1.38459 -5
    endloop
  endfacet
  facet normal -0.587791 0.809013 0
    outer loop
      vertex 15.8401 1.95635 -5
      vertex 15.375 1.61843 -2
      vertex 15.8401 1.95635 -2
    endloop
  endfacet
  facet normal -0.587791 0.809013 0
    outer loop
      vertex 15.375 1.61843 -2
      vertex 15.8401 1.95635 -5
      vertex 15.375 1.61843 -5
    endloop
  endfacet
  facet normal 0 1 -0
    outer loop
      vertex 14.2875 1.26507 -5
      vertex 13.7125 1.26507 -2
      vertex 14.2875 1.26507 -2
    endloop
  endfacet
  facet normal 0 1 0
    outer loop
      vertex 13.7125 1.26507 -2
      vertex 14.2875 1.26507 -5
      vertex 13.7125 1.26507 -5
    endloop
  endfacet
  facet normal 0.587791 0.809013 -0
    outer loop
      vertex 12.625 1.61843 -5
      vertex 12.1599 1.95635 -2
      vertex 12.625 1.61843 -2
    endloop
  endfacet
  facet normal 0.587791 0.809013 0
    outer loop
      vertex 12.1599 1.95635 -2
      vertex 12.625 1.61843 -5
      vertex 12.1599 1.95635 -5
    endloop
  endfacet
  facet normal -0.207911 -0.978148 0
    outer loop
      vertex 14.2875 6.73493 -5
      vertex 14.8498 6.61541 -2
      vertex 14.2875 6.73493 -2
    endloop
  endfacet
  facet normal -0.207911 -0.978148 -0
    outer loop
      vertex 14.8498 6.61541 -2
      vertex 14.2875 6.73493 -5
      vertex 14.8498 6.61541 -5
    endloop
  endfacet
  facet normal 0.994521 -0.104538 0
    outer loop
      vertex 11.25 4 -2
      vertex 11.3101 4.57176 -5
      vertex 11.3101 4.57176 -2
    endloop
  endfacet
  facet normal 0.994521 -0.104538 0
    outer loop
      vertex 11.3101 4.57176 -5
      vertex 11.25 4 -2
      vertex 11.25 4 -5
    endloop
  endfacet
  facet normal 0.406745 0.913542 -0
    outer loop
      vertex 13.1502 1.38459 -5
      vertex 12.625 1.61843 -2
      vertex 13.1502 1.38459 -2
    endloop
  endfacet
  facet normal 0.406745 0.913542 0
    outer loop
      vertex 12.625 1.61843 -2
      vertex 13.1502 1.38459 -5
      vertex 12.625 1.61843 -5
    endloop
  endfacet
  facet normal 0.743135 0.669142 0
    outer loop
      vertex 12.1599 1.95635 -2
      vertex 11.7752 2.38359 -5
      vertex 11.7752 2.38359 -2
    endloop
  endfacet
  facet normal 0.743135 0.669142 0
    outer loop
      vertex 11.7752 2.38359 -5
      vertex 12.1599 1.95635 -2
      vertex 12.1599 1.95635 -5
    endloop
  endfacet
  facet normal -0.587791 -0.809013 0
    outer loop
      vertex 35.375 6.38157 -5
      vertex 35.8401 6.04365 -2
      vertex 35.375 6.38157 -2
    endloop
  endfacet
  facet normal -0.587791 -0.809013 -0
    outer loop
      vertex 35.8401 6.04365 -2
      vertex 35.375 6.38157 -5
      vertex 35.8401 6.04365 -5
    endloop
  endfacet
  facet normal -0.994521 0.104538 0
    outer loop
      vertex 36.6899 3.42824 -5
      vertex 36.75 4 -2
      vertex 36.75 4 -5
    endloop
  endfacet
  facet normal -0.994521 0.104538 0
    outer loop
      vertex 36.75 4 -2
      vertex 36.6899 3.42824 -5
      vertex 36.6899 3.42824 -2
    endloop
  endfacet
  facet normal 0.207911 0.978148 -0
    outer loop
      vertex 33.7125 1.26507 -5
      vertex 33.1502 1.38459 -2
      vertex 33.7125 1.26507 -2
    endloop
  endfacet
  facet normal 0.207911 0.978148 0
    outer loop
      vertex 33.1502 1.38459 -2
      vertex 33.7125 1.26507 -5
      vertex 33.1502 1.38459 -5
    endloop
  endfacet
  facet normal -0.951034 -0.309086 0
    outer loop
      vertex 36.6899 4.57176 -5
      vertex 36.5122 5.11853 -2
      vertex 36.5122 5.11853 -5
    endloop
  endfacet
  facet normal -0.951034 -0.309086 0
    outer loop
      vertex 36.5122 5.11853 -2
      vertex 36.6899 4.57176 -5
      vertex 36.6899 4.57176 -2
    endloop
  endfacet
  facet normal 0.406745 -0.913542 0
    outer loop
      vertex 32.625 6.38157 -5
      vertex 33.1502 6.61541 -2
      vertex 32.625 6.38157 -2
    endloop
  endfacet
  facet normal 0.406745 -0.913542 0
    outer loop
      vertex 33.1502 6.61541 -2
      vertex 32.625 6.38157 -5
      vertex 33.1502 6.61541 -5
    endloop
  endfacet
  facet normal 0.951085 -0.308928 0
    outer loop
      vertex 31.3101 4.57176 -2
      vertex 31.4877 5.11853 -5
      vertex 31.4877 5.11853 -2
    endloop
  endfacet
  facet normal 0.951085 -0.308928 0
    outer loop
      vertex 31.4877 5.11853 -5
      vertex 31.3101 4.57176 -2
      vertex 31.3101 4.57176 -5
    endloop
  endfacet
  facet normal 0.951085 0.308928 0
    outer loop
      vertex 31.4877 2.88147 -2
      vertex 31.3101 3.42824 -5
      vertex 31.3101 3.42824 -2
    endloop
  endfacet
  facet normal 0.951085 0.308928 0
    outer loop
      vertex 31.3101 3.42824 -5
      vertex 31.4877 2.88147 -2
      vertex 31.4877 2.88147 -5
    endloop
  endfacet
  facet normal -0.866064 -0.499933 0
    outer loop
      vertex 36.5122 5.11853 -5
      vertex 36.2248 5.61641 -2
      vertex 36.2248 5.61641 -5
    endloop
  endfacet
  facet normal -0.866064 -0.499933 0
    outer loop
      vertex 36.2248 5.61641 -2
      vertex 36.5122 5.11853 -5
      vertex 36.5122 5.11853 -2
    endloop
  endfacet
  facet normal -0.743135 -0.669142 0
    outer loop
      vertex 36.2248 5.61641 -5
      vertex 35.8401 6.04365 -2
      vertex 35.8401 6.04365 -5
    endloop
  endfacet
  facet normal -0.743135 -0.669142 0
    outer loop
      vertex 35.8401 6.04365 -2
      vertex 36.2248 5.61641 -5
      vertex 36.2248 5.61641 -2
    endloop
  endfacet
  facet normal -0.406745 -0.913542 0
    outer loop
      vertex 34.8498 6.61541 -5
      vertex 35.375 6.38157 -2
      vertex 34.8498 6.61541 -2
    endloop
  endfacet
  facet normal -0.406745 -0.913542 -0
    outer loop
      vertex 35.375 6.38157 -2
      vertex 34.8498 6.61541 -5
      vertex 35.375 6.38157 -5
    endloop
  endfacet
  facet normal 0 -1 0
    outer loop
      vertex 33.7125 6.73493 -5
      vertex 34.2875 6.73493 -2
      vertex 33.7125 6.73493 -2
    endloop
  endfacet
  facet normal 0 -1 -0
    outer loop
      vertex 34.2875 6.73493 -2
      vertex 33.7125 6.73493 -5
      vertex 34.2875 6.73493 -5
    endloop
  endfacet
  facet normal 0.994521 0.104538 0
    outer loop
      vertex 31.3101 3.42824 -2
      vertex 31.25 4 -5
      vertex 31.25 4 -2
    endloop
  endfacet
  facet normal 0.994521 0.104538 0
    outer loop
      vertex 31.25 4 -5
      vertex 31.3101 3.42824 -2
      vertex 31.3101 3.42824 -5
    endloop
  endfacet
  facet normal 0.865989 -0.500064 0
    outer loop
      vertex 31.4877 5.11853 -2
      vertex 31.7752 5.61641 -5
      vertex 31.7752 5.61641 -2
    endloop
  endfacet
  facet normal 0.865989 -0.500064 0
    outer loop
      vertex 31.7752 5.61641 -5
      vertex 31.4877 5.11853 -2
      vertex 31.4877 5.11853 -5
    endloop
  endfacet
  facet normal 0.587791 -0.809013 0
    outer loop
      vertex 32.1599 6.04365 -5
      vertex 32.625 6.38157 -2
      vertex 32.1599 6.04365 -2
    endloop
  endfacet
  facet normal 0.587791 -0.809013 0
    outer loop
      vertex 32.625 6.38157 -2
      vertex 32.1599 6.04365 -5
      vertex 32.625 6.38157 -5
    endloop
  endfacet
  facet normal 0.207911 -0.978148 0
    outer loop
      vertex 33.1502 6.61541 -5
      vertex 33.7125 6.73493 -2
      vertex 33.1502 6.61541 -2
    endloop
  endfacet
  facet normal 0.207911 -0.978148 0
    outer loop
      vertex 33.7125 6.73493 -2
      vertex 33.1502 6.61541 -5
      vertex 33.7125 6.73493 -5
    endloop
  endfacet
  facet normal 0.743135 -0.669142 0
    outer loop
      vertex 31.7752 5.61641 -2
      vertex 32.1599 6.04365 -5
      vertex 32.1599 6.04365 -2
    endloop
  endfacet
  facet normal 0.743135 -0.669142 0
    outer loop
      vertex 32.1599 6.04365 -5
      vertex 31.7752 5.61641 -2
      vertex 31.7752 5.61641 -5
    endloop
  endfacet
  facet normal -0.994521 -0.104538 0
    outer loop
      vertex 36.75 4 -5
      vertex 36.6899 4.57176 -2
      vertex 36.6899 4.57176 -5
    endloop
  endfacet
  facet normal -0.994521 -0.104538 0
    outer loop
      vertex 36.6899 4.57176 -2
      vertex 36.75 4 -5
      vertex 36.75 4 -2
    endloop
  endfacet
  facet normal -0.207911 0.978148 0
    outer loop
      vertex 34.8498 1.38459 -5
      vertex 34.2875 1.26507 -2
      vertex 34.8498 1.38459 -2
    endloop
  endfacet
  facet normal -0.207911 0.978148 0
    outer loop
      vertex 34.2875 1.26507 -2
      vertex 34.8498 1.38459 -5
      vertex 34.2875 1.26507 -5
    endloop
  endfacet
  facet normal -0.866064 0.499933 0
    outer loop
      vertex 36.2248 2.38359 -5
      vertex 36.5122 2.88147 -2
      vertex 36.5122 2.88147 -5
    endloop
  endfacet
  facet normal -0.866064 0.499933 0
    outer loop
      vertex 36.5122 2.88147 -2
      vertex 36.2248 2.38359 -5
      vertex 36.2248 2.38359 -2
    endloop
  endfacet
  facet normal -0.951034 0.309086 0
    outer loop
      vertex 36.5122 2.88147 -5
      vertex 36.6899 3.42824 -2
      vertex 36.6899 3.42824 -5
    endloop
  endfacet
  facet normal -0.951034 0.309086 0
    outer loop
      vertex 36.6899 3.42824 -2
      vertex 36.5122 2.88147 -5
      vertex 36.5122 2.88147 -2
    endloop
  endfacet
  facet normal -0.406745 0.913542 0
    outer loop
      vertex 35.375 1.61843 -5
      vertex 34.8498 1.38459 -2
      vertex 35.375 1.61843 -2
    endloop
  endfacet
  facet normal -0.406745 0.913542 0
    outer loop
      vertex 34.8498 1.38459 -2
      vertex 35.375 1.61843 -5
      vertex 34.8498 1.38459 -5
    endloop
  endfacet
  facet normal -0.587791 0.809013 0
    outer loop
      vertex 35.8401 1.95635 -5
      vertex 35.375 1.61843 -2
      vertex 35.8401 1.95635 -2
    endloop
  endfacet
  facet normal -0.587791 0.809013 0
    outer loop
      vertex 35.375 1.61843 -2
      vertex 35.8401 1.95635 -5
      vertex 35.375 1.61843 -5
    endloop
  endfacet
  facet normal 0 1 -0
    outer loop
      vertex 34.2875 1.26507 -5
      vertex 33.7125 1.26507 -2
      vertex 34.2875 1.26507 -2
    endloop
  endfacet
  facet normal 0 1 0
    outer loop
      vertex 33.7125 1.26507 -2
      vertex 34.2875 1.26507 -5
      vertex 33.7125 1.26507 -5
    endloop
  endfacet
  facet normal 0.587791 0.809013 -0
    outer loop
      vertex 32.625 1.61843 -5
      vertex 32.1599 1.95635 -2
      vertex 32.625 1.61843 -2
    endloop
  endfacet
  facet normal 0.587791 0.809013 0
    outer loop
      vertex 32.1599 1.95635 -2
      vertex 32.625 1.61843 -5
      vertex 32.1599 1.95635 -5
    endloop
  endfacet
  facet normal 0.865989 0.500064 0
    outer loop
      vertex 31.7752 2.38359 -2
      vertex 31.4877 2.88147 -5
      vertex 31.4877 2.88147 -2
    endloop
  endfacet
  facet normal 0.865989 0.500064 0
    outer loop
      vertex 31.4877 2.88147 -5
      vertex 31.7752 2.38359 -2
      vertex 31.7752 2.38359 -5
    endloop
  endfacet
  facet normal 0.743135 0.669142 0
    outer loop
      vertex 32.1599 1.95635 -2
      vertex 31.7752 2.38359 -5
      vertex 31.7752 2.38359 -2
    endloop
  endfacet
  facet normal 0.743135 0.669142 0
    outer loop
      vertex 31.7752 2.38359 -5
      vertex 32.1599 1.95635 -2
      vertex 32.1599 1.95635 -5
    endloop
  endfacet
  facet normal -0.207911 -0.978148 0
    outer loop
      vertex 34.2875 6.73493 -5
      vertex 34.8498 6.61541 -2
      vertex 34.2875 6.73493 -2
    endloop
  endfacet
  facet normal -0.207911 -0.978148 -0
    outer loop
      vertex 34.8498 6.61541 -2
      vertex 34.2875 6.73493 -5
      vertex 34.8498 6.61541 -5
    endloop
  endfacet
  facet normal 0.994521 -0.104538 0
    outer loop
      vertex 31.25 4 -2
      vertex 31.3101 4.57176 -5
      vertex 31.3101 4.57176 -2
    endloop
  endfacet
  facet normal 0.994521 -0.104538 0
    outer loop
      vertex 31.3101 4.57176 -5
      vertex 31.25 4 -2
      vertex 31.25 4 -5
    endloop
  endfacet
  facet normal -0.743135 0.669142 0
    outer loop
      vertex 35.8401 1.95635 -5
      vertex 36.2248 2.38359 -2
      vertex 36.2248 2.38359 -5
    endloop
  endfacet
  facet normal -0.743135 0.669142 0
    outer loop
      vertex 36.2248 2.38359 -2
      vertex 35.8401 1.95635 -5
      vertex 35.8401 1.95635 -2
    endloop
  endfacet
  facet normal 0.406745 0.913542 -0
    outer loop
      vertex 33.1502 1.38459 -5
      vertex 32.625 1.61843 -2
      vertex 33.1502 1.38459 -2
    endloop
  endfacet
  facet normal 0.406745 0.913542 0
    outer loop
      vertex 32.625 1.61843 -2
      vertex 33.1502 1.38459 -5
      vertex 32.625 1.61843 -5
    endloop
  endfacet
  facet normal -0.587791 -0.809013 0
    outer loop
      vertex 55.375 6.38157 -5
      vertex 55.8401 6.04365 -2
      vertex 55.375 6.38157 -2
    endloop
  endfacet
  facet normal -0.587791 -0.809013 -0
    outer loop
      vertex 55.8401 6.04365 -2
      vertex 55.375 6.38157 -5
      vertex 55.8401 6.04365 -5
    endloop
  endfacet
  facet normal -0.994521 0.104538 0
    outer loop
      vertex 56.6899 3.42824 -5
      vertex 56.75 4 -2
      vertex 56.75 4 -5
    endloop
  endfacet
  facet normal -0.994521 0.104538 0
    outer loop
      vertex 56.75 4 -2
      vertex 56.6899 3.42824 -5
      vertex 56.6899 3.42824 -2
    endloop
  endfacet
  facet normal 0.207911 0.978148 -0
    outer loop
      vertex 53.7125 1.26507 -5
      vertex 53.1502 1.38459 -2
      vertex 53.7125 1.26507 -2
    endloop
  endfacet
  facet normal 0.207911 0.978148 0
    outer loop
      vertex 53.1502 1.38459 -2
      vertex 53.7125 1.26507 -5
      vertex 53.1502 1.38459 -5
    endloop
  endfacet
  facet normal -0.951034 -0.309086 0
    outer loop
      vertex 56.6899 4.57176 -5
      vertex 56.5122 5.11853 -2
      vertex 56.5122 5.11853 -5
    endloop
  endfacet
  facet normal -0.951034 -0.309086 0
    outer loop
      vertex 56.5122 5.11853 -2
      vertex 56.6899 4.57176 -5
      vertex 56.6899 4.57176 -2
    endloop
  endfacet
  facet normal 0.406745 -0.913542 0
    outer loop
      vertex 52.625 6.38157 -5
      vertex 53.1502 6.61541 -2
      vertex 52.625 6.38157 -2
    endloop
  endfacet
  facet normal 0.406745 -0.913542 0
    outer loop
      vertex 53.1502 6.61541 -2
      vertex 52.625 6.38157 -5
      vertex 53.1502 6.61541 -5
    endloop
  endfacet
  facet normal 0.951085 -0.308928 0
    outer loop
      vertex 51.3101 4.57176 -2
      vertex 51.4877 5.11853 -5
      vertex 51.4877 5.11853 -2
    endloop
  endfacet
  facet normal 0.951085 -0.308928 0
    outer loop
      vertex 51.4877 5.11853 -5
      vertex 51.3101 4.57176 -2
      vertex 51.3101 4.57176 -5
    endloop
  endfacet
  facet normal 0.951085 0.308928 0
    outer loop
      vertex 51.4877 2.88147 -2
      vertex 51.3101 3.42824 -5
      vertex 51.3101 3.42824 -2
    endloop
  endfacet
  facet normal 0.951085 0.308928 0
    outer loop
      vertex 51.3101 3.42824 -5
      vertex 51.4877 2.88147 -2
      vertex 51.4877 2.88147 -5
    endloop
  endfacet
  facet normal -0.866064 -0.499933 0
    outer loop
      vertex 56.5122 5.11853 -5
      vertex 56.2248 5.61641 -2
      vertex 56.2248 5.61641 -5
    endloop
  endfacet
  facet normal -0.866064 -0.499933 0
    outer loop
      vertex 56.2248 5.61641 -2
      vertex 56.5122 5.11853 -5
      vertex 56.5122 5.11853 -2
    endloop
  endfacet
  facet normal -0.743135 -0.669142 0
    outer loop
      vertex 56.2248 5.61641 -5
      vertex 55.8401 6.04365 -2
      vertex 55.8401 6.04365 -5
    endloop
  endfacet
  facet normal -0.743135 -0.669142 0
    outer loop
      vertex 55.8401 6.04365 -2
      vertex 56.2248 5.61641 -5
      vertex 56.2248 5.61641 -2
    endloop
  endfacet
  facet normal -0.406745 -0.913542 0
    outer loop
      vertex 54.8498 6.61541 -5
      vertex 55.375 6.38157 -2
      vertex 54.8498 6.61541 -2
    endloop
  endfacet
  facet normal -0.406745 -0.913542 -0
    outer loop
      vertex 55.375 6.38157 -2
      vertex 54.8498 6.61541 -5
      vertex 55.375 6.38157 -5
    endloop
  endfacet
  facet normal 0 -1 0
    outer loop
      vertex 53.7125 6.73493 -5
      vertex 54.2875 6.73493 -2
      vertex 53.7125 6.73493 -2
    endloop
  endfacet
  facet normal 0 -1 -0
    outer loop
      vertex 54.2875 6.73493 -2
      vertex 53.7125 6.73493 -5
      vertex 54.2875 6.73493 -5
    endloop
  endfacet
  facet normal 0.994521 0.104538 0
    outer loop
      vertex 51.3101 3.42824 -2
      vertex 51.25 4 -5
      vertex 51.25 4 -2
    endloop
  endfacet
  facet normal 0.994521 0.104538 0
    outer loop
      vertex 51.25 4 -5
      vertex 51.3101 3.42824 -2
      vertex 51.3101 3.42824 -5
    endloop
  endfacet
  facet normal 0.865989 -0.500064 0
    outer loop
      vertex 51.4877 5.11853 -2
      vertex 51.7752 5.61641 -5
      vertex 51.7752 5.61641 -2
    endloop
  endfacet
  facet normal 0.865989 -0.500064 0
    outer loop
      vertex 51.7752 5.61641 -5
      vertex 51.4877 5.11853 -2
      vertex 51.4877 5.11853 -5
    endloop
  endfacet
  facet normal 0.587791 -0.809013 0
    outer loop
      vertex 52.1599 6.04365 -5
      vertex 52.625 6.38157 -2
      vertex 52.1599 6.04365 -2
    endloop
  endfacet
  facet normal 0.587791 -0.809013 0
    outer loop
      vertex 52.625 6.38157 -2
      vertex 52.1599 6.04365 -5
      vertex 52.625 6.38157 -5
    endloop
  endfacet
  facet normal 0.207911 -0.978148 0
    outer loop
      vertex 53.1502 6.61541 -5
      vertex 53.7125 6.73493 -2
      vertex 53.1502 6.61541 -2
    endloop
  endfacet
  facet normal 0.207911 -0.978148 0
    outer loop
      vertex 53.7125 6.73493 -2
      vertex 53.1502 6.61541 -5
      vertex 53.7125 6.73493 -5
    endloop
  endfacet
  facet normal 0.743135 -0.669142 0
    outer loop
      vertex 51.7752 5.61641 -2
      vertex 52.1599 6.04365 -5
      vertex 52.1599 6.04365 -2
    endloop
  endfacet
  facet normal 0.743135 -0.669142 0
    outer loop
      vertex 52.1599 6.04365 -5
      vertex 51.7752 5.61641 -2
      vertex 51.7752 5.61641 -5
    endloop
  endfacet
  facet normal -0.994521 -0.104538 0
    outer loop
      vertex 56.75 4 -5
      vertex 56.6899 4.57176 -2
      vertex 56.6899 4.57176 -5
    endloop
  endfacet
  facet normal -0.994521 -0.104538 0
    outer loop
      vertex 56.6899 4.57176 -2
      vertex 56.75 4 -5
      vertex 56.75 4 -2
    endloop
  endfacet
  facet normal -0.207911 0.978148 0
    outer loop
      vertex 54.8498 1.38459 -5
      vertex 54.2875 1.26507 -2
      vertex 54.8498 1.38459 -2
    endloop
  endfacet
  facet normal -0.207911 0.978148 0
    outer loop
      vertex 54.2875 1.26507 -2
      vertex 54.8498 1.38459 -5
      vertex 54.2875 1.26507 -5
    endloop
  endfacet
  facet normal -0.866064 0.499933 0
    outer loop
      vertex 56.2248 2.38359 -5
      vertex 56.5122 2.88147 -2
      vertex 56.5122 2.88147 -5
    endloop
  endfacet
  facet normal -0.866064 0.499933 0
    outer loop
      vertex 56.5122 2.88147 -2
      vertex 56.2248 2.38359 -5
      vertex 56.2248 2.38359 -2
    endloop
  endfacet
  facet normal -0.951034 0.309086 0
    outer loop
      vertex 56.5122 2.88147 -5
      vertex 56.6899 3.42824 -2
      vertex 56.6899 3.42824 -5
    endloop
  endfacet
  facet normal -0.951034 0.309086 0
    outer loop
      vertex 56.6899 3.42824 -2
      vertex 56.5122 2.88147 -5
      vertex 56.5122 2.88147 -2
    endloop
  endfacet
  facet normal -0.406745 0.913542 0
    outer loop
      vertex 55.375 1.61843 -5
      vertex 54.8498 1.38459 -2
      vertex 55.375 1.61843 -2
    endloop
  endfacet
  facet normal -0.406745 0.913542 0
    outer loop
      vertex 54.8498 1.38459 -2
      vertex 55.375 1.61843 -5
      vertex 54.8498 1.38459 -5
    endloop
  endfacet
  facet normal -0.587791 0.809013 0
    outer loop
      vertex 55.8401 1.95635 -5
      vertex 55.375 1.61843 -2
      vertex 55.8401 1.95635 -2
    endloop
  endfacet
  facet normal -0.587791 0.809013 0
    outer loop
      vertex 55.375 1.61843 -2
      vertex 55.8401 1.95635 -5
      vertex 55.375 1.61843 -5
    endloop
  endfacet
  facet normal 0 1 -0
    outer loop
      vertex 54.2875 1.26507 -5
      vertex 53.7125 1.26507 -2
      vertex 54.2875 1.26507 -2
    endloop
  endfacet
  facet normal 0 1 0
    outer loop
      vertex 53.7125 1.26507 -2
      vertex 54.2875 1.26507 -5
      vertex 53.7125 1.26507 -5
    endloop
  endfacet
  facet normal 0.587791 0.809013 -0
    outer loop
      vertex 52.625 1.61843 -5
      vertex 52.1599 1.95635 -2
      vertex 52.625 1.61843 -2
    endloop
  endfacet
  facet normal 0.587791 0.809013 0
    outer loop
      vertex 52.1599 1.95635 -2
      vertex 52.625 1.61843 -5
      vertex 52.1599 1.95635 -5
    endloop
  endfacet
  facet normal 0.865989 0.500064 0
    outer loop
      vertex 51.7752 2.38359 -2
      vertex 51.4877 2.88147 -5
      vertex 51.4877 2.88147 -2
    endloop
  endfacet
  facet normal 0.865989 0.500064 0
    outer loop
      vertex 51.4877 2.88147 -5
      vertex 51.7752 2.38359 -2
      vertex 51.7752 2.38359 -5
    endloop
  endfacet
  facet normal 0.743135 0.669142 0
    outer loop
      vertex 52.1599 1.95635 -2
      vertex 51.7752 2.38359 -5
      vertex 51.7752 2.38359 -2
    endloop
  endfacet
  facet normal 0.743135 0.669142 0
    outer loop
      vertex 51.7752 2.38359 -5
      vertex 52.1599 1.95635 -2
      vertex 52.1599 1.95635 -5
    endloop
  endfacet
  facet normal -0.207911 -0.978148 0
    outer loop
      vertex 54.2875 6.73493 -5
      vertex 54.8498 6.61541 -2
      vertex 54.2875 6.73493 -2
    endloop
  endfacet
  facet normal -0.207911 -0.978148 -0
    outer loop
      vertex 54.8498 6.61541 -2
      vertex 54.2875 6.73493 -5
      vertex 54.8498 6.61541 -5
    endloop
  endfacet
  facet normal 0.994521 -0.104538 0
    outer loop
      vertex 51.25 4 -2
      vertex 51.3101 4.57176 -5
      vertex 51.3101 4.57176 -2
    endloop
  endfacet
  facet normal 0.994521 -0.104538 0
    outer loop
      vertex 51.3101 4.57176 -5
      vertex 51.25 4 -2
      vertex 51.25 4 -5
    endloop
  endfacet
  facet normal -0.743135 0.669142 0
    outer loop
      vertex 55.8401 1.95635 -5
      vertex 56.2248 2.38359 -2
      vertex 56.2248 2.38359 -5
    endloop
  endfacet
  facet normal -0.743135 0.669142 0
    outer loop
      vertex 56.2248 2.38359 -2
      vertex 55.8401 1.95635 -5
      vertex 55.8401 1.95635 -2
    endloop
  endfacet
  facet normal 0.406745 0.913542 -0
    outer loop
      vertex 53.1502 1.38459 -5
      vertex 52.625 1.61843 -2
      vertex 53.1502 1.38459 -2
    endloop
  endfacet
  facet normal 0.406745 0.913542 0
    outer loop
      vertex 52.625 1.61843 -2
      vertex 53.1502 1.38459 -5
      vertex 52.625 1.61843 -5
    endloop
  endfacet
  facet normal -0.587791 -0.809013 0
    outer loop
      vertex 75.375 6.38157 -5
      vertex 75.8401 6.04365 -2
      vertex 75.375 6.38157 -2
    endloop
  endfacet
  facet normal -0.587791 -0.809013 -0
    outer loop
      vertex 75.8401 6.04365 -2
      vertex 75.375 6.38157 -5
      vertex 75.8401 6.04365 -5
    endloop
  endfacet
  facet normal -0.994521 0.104538 0
    outer loop
      vertex 76.6899 3.42824 -5
      vertex 76.75 4 -2
      vertex 76.75 4 -5
    endloop
  endfacet
  facet normal -0.994521 0.104538 0
    outer loop
      vertex 76.75 4 -2
      vertex 76.6899 3.42824 -5
      vertex 76.6899 3.42824 -2
    endloop
  endfacet
  facet normal 0.207911 0.978148 -0
    outer loop
      vertex 73.7125 1.26507 -5
      vertex 73.1502 1.38459 -2
      vertex 73.7125 1.26507 -2
    endloop
  endfacet
  facet normal 0.207911 0.978148 0
    outer loop
      vertex 73.1502 1.38459 -2
      vertex 73.7125 1.26507 -5
      vertex 73.1502 1.38459 -5
    endloop
  endfacet
  facet normal -0.951085 -0.308928 0
    outer loop
      vertex 76.6899 4.57176 -5
      vertex 76.5123 5.11853 -2
      vertex 76.5123 5.11853 -5
    endloop
  endfacet
  facet normal -0.951085 -0.308928 0
    outer loop
      vertex 76.5123 5.11853 -2
      vertex 76.6899 4.57176 -5
      vertex 76.6899 4.57176 -2
    endloop
  endfacet
  facet normal 0.406745 -0.913542 0
    outer loop
      vertex 72.625 6.38157 -5
      vertex 73.1502 6.61541 -2
      vertex 72.625 6.38157 -2
    endloop
  endfacet
  facet normal 0.406745 -0.913542 0
    outer loop
      vertex 73.1502 6.61541 -2
      vertex 72.625 6.38157 -5
      vertex 73.1502 6.61541 -5
    endloop
  endfacet
  facet normal 0.951085 -0.308928 0
    outer loop
      vertex 71.3101 4.57176 -2
      vertex 71.4877 5.11853 -5
      vertex 71.4877 5.11853 -2
    endloop
  endfacet
  facet normal 0.951085 -0.308928 0
    outer loop
      vertex 71.4877 5.11853 -5
      vertex 71.3101 4.57176 -2
      vertex 71.3101 4.57176 -5
    endloop
  endfacet
  facet normal 0.951085 0.308928 0
    outer loop
      vertex 71.4877 2.88147 -2
      vertex 71.3101 3.42824 -5
      vertex 71.3101 3.42824 -2
    endloop
  endfacet
  facet normal 0.951085 0.308928 0
    outer loop
      vertex 71.3101 3.42824 -5
      vertex 71.4877 2.88147 -2
      vertex 71.4877 2.88147 -5
    endloop
  endfacet
  facet normal 0.865989 0.500064 0
    outer loop
      vertex 71.7752 2.38359 -2
      vertex 71.4877 2.88147 -5
      vertex 71.4877 2.88147 -2
    endloop
  endfacet
  facet normal 0.865989 0.500064 0
    outer loop
      vertex 71.4877 2.88147 -5
      vertex 71.7752 2.38359 -2
      vertex 71.7752 2.38359 -5
    endloop
  endfacet
  facet normal -0.865989 -0.500064 0
    outer loop
      vertex 76.5123 5.11853 -5
      vertex 76.2248 5.61641 -2
      vertex 76.2248 5.61641 -5
    endloop
  endfacet
  facet normal -0.865989 -0.500064 0
    outer loop
      vertex 76.2248 5.61641 -2
      vertex 76.5123 5.11853 -5
      vertex 76.5123 5.11853 -2
    endloop
  endfacet
  facet normal -0.743135 -0.669142 0
    outer loop
      vertex 76.2248 5.61641 -5
      vertex 75.8401 6.04365 -2
      vertex 75.8401 6.04365 -5
    endloop
  endfacet
  facet normal -0.743135 -0.669142 0
    outer loop
      vertex 75.8401 6.04365 -2
      vertex 76.2248 5.61641 -5
      vertex 76.2248 5.61641 -2
    endloop
  endfacet
  facet normal -0.406745 -0.913542 0
    outer loop
      vertex 74.8498 6.61541 -5
      vertex 75.375 6.38157 -2
      vertex 74.8498 6.61541 -2
    endloop
  endfacet
  facet normal -0.406745 -0.913542 -0
    outer loop
      vertex 75.375 6.38157 -2
      vertex 74.8498 6.61541 -5
      vertex 75.375 6.38157 -5
    endloop
  endfacet
  facet normal 0 -1 0
    outer loop
      vertex 73.7125 6.73493 -5
      vertex 74.2875 6.73493 -2
      vertex 73.7125 6.73493 -2
    endloop
  endfacet
  facet normal 0 -1 -0
    outer loop
      vertex 74.2875 6.73493 -2
      vertex 73.7125 6.73493 -5
      vertex 74.2875 6.73493 -5
    endloop
  endfacet
  facet normal 0.994521 0.104538 0
    outer loop
      vertex 71.3101 3.42824 -2
      vertex 71.25 4 -5
      vertex 71.25 4 -2
    endloop
  endfacet
  facet normal 0.994521 0.104538 0
    outer loop
      vertex 71.25 4 -5
      vertex 71.3101 3.42824 -2
      vertex 71.3101 3.42824 -5
    endloop
  endfacet
  facet normal 0.865989 -0.500064 0
    outer loop
      vertex 71.4877 5.11853 -2
      vertex 71.7752 5.61641 -5
      vertex 71.7752 5.61641 -2
    endloop
  endfacet
  facet normal 0.865989 -0.500064 0
    outer loop
      vertex 71.7752 5.61641 -5
      vertex 71.4877 5.11853 -2
      vertex 71.4877 5.11853 -5
    endloop
  endfacet
  facet normal 0.587791 -0.809013 0
    outer loop
      vertex 72.1599 6.04365 -5
      vertex 72.625 6.38157 -2
      vertex 72.1599 6.04365 -2
    endloop
  endfacet
  facet normal 0.587791 -0.809013 0
    outer loop
      vertex 72.625 6.38157 -2
      vertex 72.1599 6.04365 -5
      vertex 72.625 6.38157 -5
    endloop
  endfacet
  facet normal 0.207911 -0.978148 0
    outer loop
      vertex 73.1502 6.61541 -5
      vertex 73.7125 6.73493 -2
      vertex 73.1502 6.61541 -2
    endloop
  endfacet
  facet normal 0.207911 -0.978148 0
    outer loop
      vertex 73.7125 6.73493 -2
      vertex 73.1502 6.61541 -5
      vertex 73.7125 6.73493 -5
    endloop
  endfacet
  facet normal 0.743135 -0.669142 0
    outer loop
      vertex 71.7752 5.61641 -2
      vertex 72.1599 6.04365 -5
      vertex 72.1599 6.04365 -2
    endloop
  endfacet
  facet normal 0.743135 -0.669142 0
    outer loop
      vertex 72.1599 6.04365 -5
      vertex 71.7752 5.61641 -2
      vertex 71.7752 5.61641 -5
    endloop
  endfacet
  facet normal -0.994521 -0.104538 0
    outer loop
      vertex 76.75 4 -5
      vertex 76.6899 4.57176 -2
      vertex 76.6899 4.57176 -5
    endloop
  endfacet
  facet normal -0.994521 -0.104538 0
    outer loop
      vertex 76.6899 4.57176 -2
      vertex 76.75 4 -5
      vertex 76.75 4 -2
    endloop
  endfacet
  facet normal -0.207911 0.978148 0
    outer loop
      vertex 74.8498 1.38459 -5
      vertex 74.2875 1.26507 -2
      vertex 74.8498 1.38459 -2
    endloop
  endfacet
  facet normal -0.207911 0.978148 0
    outer loop
      vertex 74.2875 1.26507 -2
      vertex 74.8498 1.38459 -5
      vertex 74.2875 1.26507 -5
    endloop
  endfacet
  facet normal -0.865989 0.500064 0
    outer loop
      vertex 76.2248 2.38359 -5
      vertex 76.5123 2.88147 -2
      vertex 76.5123 2.88147 -5
    endloop
  endfacet
  facet normal -0.865989 0.500064 0
    outer loop
      vertex 76.5123 2.88147 -2
      vertex 76.2248 2.38359 -5
      vertex 76.2248 2.38359 -2
    endloop
  endfacet
  facet normal -0.951085 0.308928 0
    outer loop
      vertex 76.5123 2.88147 -5
      vertex 76.6899 3.42824 -2
      vertex 76.6899 3.42824 -5
    endloop
  endfacet
  facet normal -0.951085 0.308928 0
    outer loop
      vertex 76.6899 3.42824 -2
      vertex 76.5123 2.88147 -5
      vertex 76.5123 2.88147 -2
    endloop
  endfacet
  facet normal -0.406745 0.913542 0
    outer loop
      vertex 75.375 1.61843 -5
      vertex 74.8498 1.38459 -2
      vertex 75.375 1.61843 -2
    endloop
  endfacet
  facet normal -0.406745 0.913542 0
    outer loop
      vertex 74.8498 1.38459 -2
      vertex 75.375 1.61843 -5
      vertex 74.8498 1.38459 -5
    endloop
  endfacet
  facet normal -0.587791 0.809013 0
    outer loop
      vertex 75.8401 1.95635 -5
      vertex 75.375 1.61843 -2
      vertex 75.8401 1.95635 -2
    endloop
  endfacet
  facet normal -0.587791 0.809013 0
    outer loop
      vertex 75.375 1.61843 -2
      vertex 75.8401 1.95635 -5
      vertex 75.375 1.61843 -5
    endloop
  endfacet
  facet normal 0 1 -0
    outer loop
      vertex 74.2875 1.26507 -5
      vertex 73.7125 1.26507 -2
      vertex 74.2875 1.26507 -2
    endloop
  endfacet
  facet normal 0 1 0
    outer loop
      vertex 73.7125 1.26507 -2
      vertex 74.2875 1.26507 -5
      vertex 73.7125 1.26507 -5
    endloop
  endfacet
  facet normal 0.587791 0.809013 -0
    outer loop
      vertex 72.625 1.61843 -5
      vertex 72.1599 1.95635 -2
      vertex 72.625 1.61843 -2
    endloop
  endfacet
  facet normal 0.587791 0.809013 0
    outer loop
      vertex 72.1599 1.95635 -2
      vertex 72.625 1.61843 -5
      vertex 72.1599 1.95635 -5
    endloop
  endfacet
  facet normal -0.207911 -0.978148 0
    outer loop
      vertex 74.2875 6.73493 -5
      vertex 74.8498 6.61541 -2
      vertex 74.2875 6.73493 -2
    endloop
  endfacet
  facet normal -0.207911 -0.978148 -0
    outer loop
      vertex 74.8498 6.61541 -2
      vertex 74.2875 6.73493 -5
      vertex 74.8498 6.61541 -5
    endloop
  endfacet
  facet normal 0.994521 -0.104538 0
    outer loop
      vertex 71.25 4 -2
      vertex 71.3101 4.57176 -5
      vertex 71.3101 4.57176 -2
    endloop
  endfacet
  facet normal 0.994521 -0.104538 0
    outer loop
      vertex 71.3101 4.57176 -5
      vertex 71.25 4 -2
      vertex 71.25 4 -5
    endloop
  endfacet
  facet normal -0.743135 0.669142 0
    outer loop
      vertex 75.8401 1.95635 -5
      vertex 76.2248 2.38359 -2
      vertex 76.2248 2.38359 -5
    endloop
  endfacet
  facet normal -0.743135 0.669142 0
    outer loop
      vertex 76.2248 2.38359 -2
      vertex 75.8401 1.95635 -5
      vertex 75.8401 1.95635 -2
    endloop
  endfacet
  facet normal 0.406745 0.913542 -0
    outer loop
      vertex 73.1502 1.38459 -5
      vertex 72.625 1.61843 -2
      vertex 73.1502 1.38459 -2
    endloop
  endfacet
  facet normal 0.406745 0.913542 0
    outer loop
      vertex 72.625 1.61843 -2
      vertex 73.1502 1.38459 -5
      vertex 72.625 1.61843 -5
    endloop
  endfacet
  facet normal 0.743135 0.669142 0
    outer loop
      vertex 72.1599 1.95635 -2
      vertex 71.7752 2.38359 -5
      vertex 71.7752 2.38359 -2
    endloop
  endfacet
  facet normal 0.743135 0.669142 0
    outer loop
      vertex 71.7752 2.38359 -5
      vertex 72.1599 1.95635 -2
      vertex 72.1599 1.95635 -5
    endloop
  endfacet
  facet normal -1 0 0
    outer loop
      vertex -1 -4.5 -5
      vertex -1 11.5 -2
      vertex -1 11.5 -5
    endloop
  endfacet
  facet normal -1 -0 0
    outer loop
      vertex -1 11.5 -2
      vertex -1 -4.5 -5
      vertex -1 -4.5 -2
    endloop
  endfacet
  facet normal 0 0 1
    outer loop
      vertex 89 11.5 -2
      vertex 76.75 4 -2
      vertex 89 -4.5 -2
    endloop
  endfacet
  facet normal 0 0 1
    outer loop
      vertex 89 11.5 -2
      vertex 76.6899 4.57176 -2
      vertex 76.75 4 -2
    endloop
  endfacet
  facet normal 0 0 1
    outer loop
      vertex 89 11.5 -2
      vertex 76.5123 5.11853 -2
      vertex 76.6899 4.57176 -2
    endloop
  endfacet
  facet normal 0 0 1
    outer loop
      vertex 89 11.5 -2
      vertex 76.2248 5.61641 -2
      vertex 76.5123 5.11853 -2
    endloop
  endfacet
  facet normal 0 0 1
    outer loop
      vertex 89 11.5 -2
      vertex 75.8401 6.04365 -2
      vertex 76.2248 5.61641 -2
    endloop
  endfacet
  facet normal 0 0 1
    outer loop
      vertex 89 11.5 -2
      vertex 75.375 6.38157 -2
      vertex 75.8401 6.04365 -2
    endloop
  endfacet
  facet normal 0 0 1
    outer loop
      vertex 89 11.5 -2
      vertex 74.8498 6.61541 -2
      vertex 75.375 6.38157 -2
    endloop
  endfacet
  facet normal 0 0 1
    outer loop
      vertex 89 11.5 -2
      vertex 74.2875 6.73493 -2
      vertex 74.8498 6.61541 -2
    endloop
  endfacet
  facet normal 0 0 1
    outer loop
      vertex 89 11.5 -2
      vertex 73.7125 6.73493 -2
      vertex 74.2875 6.73493 -2
    endloop
  endfacet
  facet normal 0 0 1
    outer loop
      vertex 54.2875 6.73493 -2
      vertex 73.7125 6.73493 -2
      vertex 89 11.5 -2
    endloop
  endfacet
  facet normal 0 0 1
    outer loop
      vertex 71.3101 4.57176 -2
      vertex 56.75 4 -2
      vertex 71.25 4 -2
    endloop
  endfacet
  facet normal 0 0 1
    outer loop
      vertex 56.6899 4.57176 -2
      vertex 71.3101 4.57176 -2
      vertex 71.4877 5.11853 -2
    endloop
  endfacet
  facet normal 0 0 1
    outer loop
      vertex 56.5122 5.11853 -2
      vertex 71.4877 5.11853 -2
      vertex 71.7752 5.61641 -2
    endloop
  endfacet
  facet normal 0 0 1
    outer loop
      vertex 56.2248 5.61641 -2
      vertex 71.7752 5.61641 -2
      vertex 72.1599 6.04365 -2
    endloop
  endfacet
  facet normal 0 0 1
    outer loop
      vertex 55.8401 6.04365 -2
      vertex 72.1599 6.04365 -2
      vertex 72.625 6.38157 -2
    endloop
  endfacet
  facet normal 0 0 1
    outer loop
      vertex 55.375 6.38157 -2
      vertex 72.625 6.38157 -2
      vertex 73.1502 6.61541 -2
    endloop
  endfacet
  facet normal 0 0 1
    outer loop
      vertex 73.7125 6.73493 -2
      vertex 54.2875 6.73493 -2
      vertex 73.1502 6.61541 -2
    endloop
  endfacet
  facet normal 0 0 1
    outer loop
      vertex 71.3101 4.57176 -2
      vertex 56.6899 4.57176 -2
      vertex 56.75 4 -2
    endloop
  endfacet
  facet normal 0 0 1
    outer loop
      vertex 71.4877 5.11853 -2
      vertex 56.5122 5.11853 -2
      vertex 56.6899 4.57176 -2
    endloop
  endfacet
  facet normal 0 0 1
    outer loop
      vertex 71.7752 5.61641 -2
      vertex 56.2248 5.61641 -2
      vertex 56.5122 5.11853 -2
    endloop
  endfacet
  facet normal 0 0 1
    outer loop
      vertex 72.1599 6.04365 -2
      vertex 55.8401 6.04365 -2
      vertex 56.2248 5.61641 -2
    endloop
  endfacet
  facet normal 0 0 1
    outer loop
      vertex 72.625 6.38157 -2
      vertex 55.375 6.38157 -2
      vertex 55.8401 6.04365 -2
    endloop
  endfacet
  facet normal 0 0 1
    outer loop
      vertex 73.1502 6.61541 -2
      vertex 54.8498 6.61541 -2
      vertex 55.375 6.38157 -2
    endloop
  endfacet
  facet normal 0 0 1
    outer loop
      vertex 73.1502 6.61541 -2
      vertex 54.2875 6.73493 -2
      vertex 54.8498 6.61541 -2
    endloop
  endfacet
  facet normal 0 0 1
    outer loop
      vertex 89 11.5 -2
      vertex 53.7125 6.73493 -2
      vertex 54.2875 6.73493 -2
    endloop
  endfacet
  facet normal 0 0 1
    outer loop
      vertex 51.3101 4.57176 -2
      vertex 36.75 4 -2
      vertex 51.25 4 -2
    endloop
  endfacet
  facet normal 0 0 1
    outer loop
      vertex 36.6899 4.57176 -2
      vertex 51.3101 4.57176 -2
      vertex 51.4877 5.11853 -2
    endloop
  endfacet
  facet normal 0 0 1
    outer loop
      vertex 36.5122 5.11853 -2
      vertex 51.4877 5.11853 -2
      vertex 51.7752 5.61641 -2
    endloop
  endfacet
  facet normal 0 0 1
    outer loop
      vertex 36.2248 5.61641 -2
      vertex 51.7752 5.61641 -2
      vertex 52.1599 6.04365 -2
    endloop
  endfacet
  facet normal 0 0 1
    outer loop
      vertex 35.8401 6.04365 -2
      vertex 52.1599 6.04365 -2
      vertex 52.625 6.38157 -2
    endloop
  endfacet
  facet normal 0 0 1
    outer loop
      vertex 35.375 6.38157 -2
      vertex 52.625 6.38157 -2
      vertex 53.1502 6.61541 -2
    endloop
  endfacet
  facet normal 0 0 1
    outer loop
      vertex 34.8498 6.61541 -2
      vertex 53.1502 6.61541 -2
      vertex 53.7125 6.73493 -2
    endloop
  endfacet
  facet normal 0 0 1
    outer loop
      vertex 51.3101 4.57176 -2
      vertex 36.6899 4.57176 -2
      vertex 36.75 4 -2
    endloop
  endfacet
  facet normal 0 0 1
    outer loop
      vertex 34.2875 6.73493 -2
      vertex 53.7125 6.73493 -2
      vertex 89 11.5 -2
    endloop
  endfacet
  facet normal 0 0 1
    outer loop
      vertex 51.4877 5.11853 -2
      vertex 36.5122 5.11853 -2
      vertex 36.6899 4.57176 -2
    endloop
  endfacet
  facet normal 0 0 1
    outer loop
      vertex 51.7752 5.61641 -2
      vertex 36.2248 5.61641 -2
      vertex 36.5122 5.11853 -2
    endloop
  endfacet
  facet normal 0 0 1
    outer loop
      vertex 52.1599 6.04365 -2
      vertex 35.8401 6.04365 -2
      vertex 36.2248 5.61641 -2
    endloop
  endfacet
  facet normal 0 0 1
    outer loop
      vertex 52.625 6.38157 -2
      vertex 35.375 6.38157 -2
      vertex 35.8401 6.04365 -2
    endloop
  endfacet
  facet normal 0 0 1
    outer loop
      vertex 53.1502 6.61541 -2
      vertex 34.8498 6.61541 -2
      vertex 35.375 6.38157 -2
    endloop
  endfacet
  facet normal 0 0 1
    outer loop
      vertex 53.7125 6.73493 -2
      vertex 34.2875 6.73493 -2
      vertex 34.8498 6.61541 -2
    endloop
  endfacet
  facet normal -0 0 1
    outer loop
      vertex -1 11.5 -2
      vertex 34.2875 6.73493 -2
      vertex 89 11.5 -2
    endloop
  endfacet
  facet normal 0 0 1
    outer loop
      vertex 31.3101 4.57176 -2
      vertex 16.75 4 -2
      vertex 31.25 4 -2
    endloop
  endfacet
  facet normal 0 0 1
    outer loop
      vertex 16.6899 4.57176 -2
      vertex 31.3101 4.57176 -2
      vertex 31.4877 5.11853 -2
    endloop
  endfacet
  facet normal 0 0 1
    outer loop
      vertex 16.5122 5.11853 -2
      vertex 31.4877 5.11853 -2
      vertex 31.7752 5.61641 -2
    endloop
  endfacet
  facet normal 0 0 1
    outer loop
      vertex 16.2248 5.61641 -2
      vertex 31.7752 5.61641 -2
      vertex 32.1599 6.04365 -2
    endloop
  endfacet
  facet normal 0 0 1
    outer loop
      vertex 15.8401 6.04365 -2
      vertex 32.1599 6.04365 -2
      vertex 32.625 6.38157 -2
    endloop
  endfacet
  facet normal 0 0 1
    outer loop
      vertex 15.375 6.38157 -2
      vertex 32.625 6.38157 -2
      vertex 33.1502 6.61541 -2
    endloop
  endfacet
  facet normal 0 0 1
    outer loop
      vertex 14.8498 6.61541 -2
      vertex 33.1502 6.61541 -2
      vertex 33.7125 6.73493 -2
    endloop
  endfacet
  facet normal 0 0 1
    outer loop
      vertex 31.3101 4.57176 -2
      vertex 16.6899 4.57176 -2
      vertex 16.75 4 -2
    endloop
  endfacet
  facet normal 0 0 1
    outer loop
      vertex 31.4877 5.11853 -2
      vertex 16.5122 5.11853 -2
      vertex 16.6899 4.57176 -2
    endloop
  endfacet
  facet normal 0 0 1
    outer loop
      vertex 31.7752 5.61641 -2
      vertex 16.2248 5.61641 -2
      vertex 16.5122 5.11853 -2
    endloop
  endfacet
  facet normal 0 0 1
    outer loop
      vertex 34.2875 6.73493 -2
      vertex -1 11.5 -2
      vertex 33.7125 6.73493 -2
    endloop
  endfacet
  facet normal 0 0 1
    outer loop
      vertex 32.1599 6.04365 -2
      vertex 15.8401 6.04365 -2
      vertex 16.2248 5.61641 -2
    endloop
  endfacet
  facet normal 0 0 1
    outer loop
      vertex 32.625 6.38157 -2
      vertex 15.375 6.38157 -2
      vertex 15.8401 6.04365 -2
    endloop
  endfacet
  facet normal 0 0 1
    outer loop
      vertex 33.1502 6.61541 -2
      vertex 14.8498 6.61541 -2
      vertex 15.375 6.38157 -2
    endloop
  endfacet
  facet normal 0 -0 1
    outer loop
      vertex 14.2875 6.73493 -2
      vertex 33.7125 6.73493 -2
      vertex -1 11.5 -2
    endloop
  endfacet
  facet normal 0 0 1
    outer loop
      vertex 33.7125 6.73493 -2
      vertex 14.2875 6.73493 -2
      vertex 14.8498 6.61541 -2
    endloop
  endfacet
  facet normal 0 0 1
    outer loop
      vertex 11.3101 4.57176 -2
      vertex -1 11.5 -2
      vertex 11.25 4 -2
    endloop
  endfacet
  facet normal 0 0 1
    outer loop
      vertex 11.4877 5.11853 -2
      vertex -1 11.5 -2
      vertex 11.3101 4.57176 -2
    endloop
  endfacet
  facet normal 0 0 1
    outer loop
      vertex 11.7752 5.61641 -2
      vertex -1 11.5 -2
      vertex 11.4877 5.11853 -2
    endloop
  endfacet
  facet normal 0 0 1
    outer loop
      vertex 12.1599 6.04365 -2
      vertex -1 11.5 -2
      vertex 11.7752 5.61641 -2
    endloop
  endfacet
  facet normal 0 0 1
    outer loop
      vertex 12.625 6.38157 -2
      vertex -1 11.5 -2
      vertex 12.1599 6.04365 -2
    endloop
  endfacet
  facet normal 0 0 1
    outer loop
      vertex 13.1502 6.61541 -2
      vertex -1 11.5 -2
      vertex 12.625 6.38157 -2
    endloop
  endfacet
  facet normal 0 0 1
    outer loop
      vertex 13.7125 6.73493 -2
      vertex -1 11.5 -2
      vertex 13.1502 6.61541 -2
    endloop
  endfacet
  facet normal 0 0 1
    outer loop
      vertex 14.2875 6.73493 -2
      vertex -1 11.5 -2
      vertex 13.7125 6.73493 -2
    endloop
  endfacet
  facet normal -0 0 1
    outer loop
      vertex 76.6899 3.42824 -2
      vertex 89 -4.5 -2
      vertex 76.75 4 -2
    endloop
  endfacet
  facet normal -0 0 1
    outer loop
      vertex 76.5123 2.88147 -2
      vertex 89 -4.5 -2
      vertex 76.6899 3.42824 -2
    endloop
  endfacet
  facet normal -0 0 1
    outer loop
      vertex 76.2248 2.38359 -2
      vertex 89 -4.5 -2
      vertex 76.5123 2.88147 -2
    endloop
  endfacet
  facet normal -0 0 1
    outer loop
      vertex 75.8401 1.95635 -2
      vertex 89 -4.5 -2
      vertex 76.2248 2.38359 -2
    endloop
  endfacet
  facet normal -0 0 1
    outer loop
      vertex 75.375 1.61843 -2
      vertex 89 -4.5 -2
      vertex 75.8401 1.95635 -2
    endloop
  endfacet
  facet normal -0 0 1
    outer loop
      vertex 74.8498 1.38459 -2
      vertex 89 -4.5 -2
      vertex 75.375 1.61843 -2
    endloop
  endfacet
  facet normal -0 0 1
    outer loop
      vertex 74.2875 1.26507 -2
      vertex 89 -4.5 -2
      vertex 74.8498 1.38459 -2
    endloop
  endfacet
  facet normal -0 0 1
    outer loop
      vertex 73.7125 1.26507 -2
      vertex 89 -4.5 -2
      vertex 74.2875 1.26507 -2
    endloop
  endfacet
  facet normal 0 0 1
    outer loop
      vertex 54.2875 1.26507 -2
      vertex 73.7125 1.26507 -2
      vertex 73.1502 1.38459 -2
    endloop
  endfacet
  facet normal -0 0 1
    outer loop
      vertex 56.75 4 -2
      vertex 71.3101 3.42824 -2
      vertex 71.25 4 -2
    endloop
  endfacet
  facet normal 0 0 1
    outer loop
      vertex 56.6899 3.42824 -2
      vertex 71.3101 3.42824 -2
      vertex 56.75 4 -2
    endloop
  endfacet
  facet normal 0 0 1
    outer loop
      vertex 71.3101 3.42824 -2
      vertex 56.6899 3.42824 -2
      vertex 71.4877 2.88147 -2
    endloop
  endfacet
  facet normal 0 0 1
    outer loop
      vertex 56.5122 2.88147 -2
      vertex 71.4877 2.88147 -2
      vertex 56.6899 3.42824 -2
    endloop
  endfacet
  facet normal 0 0 1
    outer loop
      vertex 71.4877 2.88147 -2
      vertex 56.5122 2.88147 -2
      vertex 71.7752 2.38359 -2
    endloop
  endfacet
  facet normal 0 0 1
    outer loop
      vertex 56.2248 2.38359 -2
      vertex 71.7752 2.38359 -2
      vertex 56.5122 2.88147 -2
    endloop
  endfacet
  facet normal 0 0 1
    outer loop
      vertex 71.7752 2.38359 -2
      vertex 56.2248 2.38359 -2
      vertex 72.1599 1.95635 -2
    endloop
  endfacet
  facet normal 0 0 1
    outer loop
      vertex 55.8401 1.95635 -2
      vertex 72.1599 1.95635 -2
      vertex 56.2248 2.38359 -2
    endloop
  endfacet
  facet normal 0 0 1
    outer loop
      vertex 72.1599 1.95635 -2
      vertex 55.8401 1.95635 -2
      vertex 72.625 1.61843 -2
    endloop
  endfacet
  facet normal 0 0 1
    outer loop
      vertex 55.375 1.61843 -2
      vertex 72.625 1.61843 -2
      vertex 55.8401 1.95635 -2
    endloop
  endfacet
  facet normal 0 0 1
    outer loop
      vertex 72.625 1.61843 -2
      vertex 55.375 1.61843 -2
      vertex 73.1502 1.38459 -2
    endloop
  endfacet
  facet normal 0 0 1
    outer loop
      vertex 54.8498 1.38459 -2
      vertex 73.1502 1.38459 -2
      vertex 55.375 1.61843 -2
    endloop
  endfacet
  facet normal 0 0 1
    outer loop
      vertex 54.2875 1.26507 -2
      vertex 73.1502 1.38459 -2
      vertex 54.8498 1.38459 -2
    endloop
  endfacet
  facet normal 0 0 1
    outer loop
      vertex 73.7125 1.26507 -2
      vertex 54.2875 1.26507 -2
      vertex 89 -4.5 -2
    endloop
  endfacet
  facet normal -0 0 1
    outer loop
      vertex 53.7125 1.26507 -2
      vertex 89 -4.5 -2
      vertex 54.2875 1.26507 -2
    endloop
  endfacet
  facet normal -0 0 1
    outer loop
      vertex 36.75 4 -2
      vertex 51.3101 3.42824 -2
      vertex 51.25 4 -2
    endloop
  endfacet
  facet normal 0 0 1
    outer loop
      vertex 36.6899 3.42824 -2
      vertex 51.3101 3.42824 -2
      vertex 36.75 4 -2
    endloop
  endfacet
  facet normal 0 0 1
    outer loop
      vertex 51.3101 3.42824 -2
      vertex 36.6899 3.42824 -2
      vertex 51.4877 2.88147 -2
    endloop
  endfacet
  facet normal 0 0 1
    outer loop
      vertex 36.5122 2.88147 -2
      vertex 51.4877 2.88147 -2
      vertex 36.6899 3.42824 -2
    endloop
  endfacet
  facet normal 0 0 1
    outer loop
      vertex 51.4877 2.88147 -2
      vertex 36.5122 2.88147 -2
      vertex 51.7752 2.38359 -2
    endloop
  endfacet
  facet normal 0 0 1
    outer loop
      vertex 36.2248 2.38359 -2
      vertex 51.7752 2.38359 -2
      vertex 36.5122 2.88147 -2
    endloop
  endfacet
  facet normal 0 0 1
    outer loop
      vertex 51.7752 2.38359 -2
      vertex 36.2248 2.38359 -2
      vertex 52.1599 1.95635 -2
    endloop
  endfacet
  facet normal 0 0 1
    outer loop
      vertex 35.8401 1.95635 -2
      vertex 52.1599 1.95635 -2
      vertex 36.2248 2.38359 -2
    endloop
  endfacet
  facet normal 0 0 1
    outer loop
      vertex 52.1599 1.95635 -2
      vertex 35.8401 1.95635 -2
      vertex 52.625 1.61843 -2
    endloop
  endfacet
  facet normal 0 0 1
    outer loop
      vertex 35.375 1.61843 -2
      vertex 52.625 1.61843 -2
      vertex 35.8401 1.95635 -2
    endloop
  endfacet
  facet normal 0 0 1
    outer loop
      vertex 52.625 1.61843 -2
      vertex 35.375 1.61843 -2
      vertex 53.1502 1.38459 -2
    endloop
  endfacet
  facet normal 0 0 1
    outer loop
      vertex 34.8498 1.38459 -2
      vertex 53.1502 1.38459 -2
      vertex 35.375 1.61843 -2
    endloop
  endfacet
  facet normal 0 0 1
    outer loop
      vertex 53.1502 1.38459 -2
      vertex 34.8498 1.38459 -2
      vertex 53.7125 1.26507 -2
    endloop
  endfacet
  facet normal 0 0 1
    outer loop
      vertex 34.2875 1.26507 -2
      vertex 53.7125 1.26507 -2
      vertex 34.8498 1.38459 -2
    endloop
  endfacet
  facet normal 0 0 1
    outer loop
      vertex 53.7125 1.26507 -2
      vertex 34.2875 1.26507 -2
      vertex 89 -4.5 -2
    endloop
  endfacet
  facet normal 0 0 1
    outer loop
      vertex -1 -4.5 -2
      vertex 34.2875 1.26507 -2
      vertex 33.7125 1.26507 -2
    endloop
  endfacet
  facet normal -0 0 1
    outer loop
      vertex 16.75 4 -2
      vertex 31.3101 3.42824 -2
      vertex 31.25 4 -2
    endloop
  endfacet
  facet normal 0 0 1
    outer loop
      vertex 16.6899 3.42824 -2
      vertex 31.3101 3.42824 -2
      vertex 16.75 4 -2
    endloop
  endfacet
  facet normal 0 0 1
    outer loop
      vertex 31.3101 3.42824 -2
      vertex 16.6899 3.42824 -2
      vertex 31.4877 2.88147 -2
    endloop
  endfacet
  facet normal 0 0 1
    outer loop
      vertex 16.5122 2.88147 -2
      vertex 31.4877 2.88147 -2
      vertex 16.6899 3.42824 -2
    endloop
  endfacet
  facet normal 0 0 1
    outer loop
      vertex 31.4877 2.88147 -2
      vertex 16.5122 2.88147 -2
      vertex 31.7752 2.38359 -2
    endloop
  endfacet
  facet normal 0 0 1
    outer loop
      vertex 16.2248 2.38359 -2
      vertex 31.7752 2.38359 -2
      vertex 16.5122 2.88147 -2
    endloop
  endfacet
  facet normal 0 0 1
    outer loop
      vertex 31.7752 2.38359 -2
      vertex 16.2248 2.38359 -2
      vertex 32.1599 1.95635 -2
    endloop
  endfacet
  facet normal 0 0 1
    outer loop
      vertex 15.8401 1.95635 -2
      vertex 32.1599 1.95635 -2
      vertex 16.2248 2.38359 -2
    endloop
  endfacet
  facet normal 0 0 1
    outer loop
      vertex 32.1599 1.95635 -2
      vertex 15.8401 1.95635 -2
      vertex 32.625 1.61843 -2
    endloop
  endfacet
  facet normal 0 0 1
    outer loop
      vertex 15.375 1.61843 -2
      vertex 32.625 1.61843 -2
      vertex 15.8401 1.95635 -2
    endloop
  endfacet
  facet normal 0 0 1
    outer loop
      vertex 32.625 1.61843 -2
      vertex 15.375 1.61843 -2
      vertex 33.1502 1.38459 -2
    endloop
  endfacet
  facet normal 0 0 1
    outer loop
      vertex 14.8498 1.38459 -2
      vertex 33.1502 1.38459 -2
      vertex 15.375 1.61843 -2
    endloop
  endfacet
  facet normal 0 0 1
    outer loop
      vertex 33.1502 1.38459 -2
      vertex 14.8498 1.38459 -2
      vertex 33.7125 1.26507 -2
    endloop
  endfacet
  facet normal 0 0 1
    outer loop
      vertex 14.2875 1.26507 -2
      vertex 33.7125 1.26507 -2
      vertex 14.8498 1.38459 -2
    endloop
  endfacet
  facet normal 0 0 1
    outer loop
      vertex 33.7125 1.26507 -2
      vertex 14.2875 1.26507 -2
      vertex -1 -4.5 -2
    endloop
  endfacet
  facet normal 0 0 1
    outer loop
      vertex -1 -4.5 -2
      vertex 14.2875 1.26507 -2
      vertex 13.7125 1.26507 -2
    endloop
  endfacet
  facet normal 0 0 1
    outer loop
      vertex -1 -4.5 -2
      vertex 11.25 4 -2
      vertex -1 11.5 -2
    endloop
  endfacet
  facet normal 0 0 1
    outer loop
      vertex 11.25 4 -2
      vertex -1 -4.5 -2
      vertex 11.3101 3.42824 -2
    endloop
  endfacet
  facet normal 0 0 1
    outer loop
      vertex 11.3101 3.42824 -2
      vertex -1 -4.5 -2
      vertex 11.4877 2.88147 -2
    endloop
  endfacet
  facet normal 0 0 1
    outer loop
      vertex 11.4877 2.88147 -2
      vertex -1 -4.5 -2
      vertex 11.7752 2.38359 -2
    endloop
  endfacet
  facet normal 0 0 1
    outer loop
      vertex 11.7752 2.38359 -2
      vertex -1 -4.5 -2
      vertex 12.1599 1.95635 -2
    endloop
  endfacet
  facet normal 0 0 1
    outer loop
      vertex 34.2875 1.26507 -2
      vertex -1 -4.5 -2
      vertex 89 -4.5 -2
    endloop
  endfacet
  facet normal 0 0 1
    outer loop
      vertex 13.1502 1.38459 -2
      vertex -1 -4.5 -2
      vertex 13.7125 1.26507 -2
    endloop
  endfacet
  facet normal 0 0 1
    outer loop
      vertex 12.625 1.61843 -2
      vertex -1 -4.5 -2
      vertex 13.1502 1.38459 -2
    endloop
  endfacet
  facet normal 0 0 1
    outer loop
      vertex 12.1599 1.95635 -2
      vertex -1 -4.5 -2
      vertex 12.625 1.61843 -2
    endloop
  endfacet
  facet normal 1 -0 0
    outer loop
      vertex 89 -4.5 -2
      vertex 89 11.5 -5
      vertex 89 11.5 -2
    endloop
  endfacet
  facet normal 1 0 0
    outer loop
      vertex 89 11.5 -5
      vertex 89 -4.5 -2
      vertex 89 -4.5 -5
    endloop
  endfacet
  facet normal 0 1 -0
    outer loop
      vertex 89 11.5 -5
      vertex -1 11.5 -2
      vertex 89 11.5 -2
    endloop
  endfacet
  facet normal 0 1 0
    outer loop
      vertex -1 11.5 -2
      vertex 89 11.5 -5
      vertex -1 11.5 -5
    endloop
  endfacet
  facet normal 0 0 -1
    outer loop
      vertex 89 -4.5 -5
      vertex 76.75 4 -5
      vertex 89 11.5 -5
    endloop
  endfacet
  facet normal 0 0 -1
    outer loop
      vertex 89 -4.5 -5
      vertex 76.6899 3.42824 -5
      vertex 76.75 4 -5
    endloop
  endfacet
  facet normal 0 0 -1
    outer loop
      vertex 89 -4.5 -5
      vertex 76.5123 2.88147 -5
      vertex 76.6899 3.42824 -5
    endloop
  endfacet
  facet normal 0 0 -1
    outer loop
      vertex 89 -4.5 -5
      vertex 76.2248 2.38359 -5
      vertex 76.5123 2.88147 -5
    endloop
  endfacet
  facet normal 0 0 -1
    outer loop
      vertex 89 -4.5 -5
      vertex 75.8401 1.95635 -5
      vertex 76.2248 2.38359 -5
    endloop
  endfacet
  facet normal 0 0 -1
    outer loop
      vertex 89 -4.5 -5
      vertex 75.375 1.61843 -5
      vertex 75.8401 1.95635 -5
    endloop
  endfacet
  facet normal 0 0 -1
    outer loop
      vertex 89 -4.5 -5
      vertex 74.8498 1.38459 -5
      vertex 75.375 1.61843 -5
    endloop
  endfacet
  facet normal 0 0 -1
    outer loop
      vertex 89 -4.5 -5
      vertex 74.2875 1.26507 -5
      vertex 74.8498 1.38459 -5
    endloop
  endfacet
  facet normal 0 0 -1
    outer loop
      vertex 89 -4.5 -5
      vertex 73.7125 1.26507 -5
      vertex 74.2875 1.26507 -5
    endloop
  endfacet
  facet normal 0 0 -1
    outer loop
      vertex 54.2875 1.26507 -5
      vertex 73.7125 1.26507 -5
      vertex 89 -4.5 -5
    endloop
  endfacet
  facet normal 0 0 -1
    outer loop
      vertex 71.3101 3.42824 -5
      vertex 56.75 4 -5
      vertex 71.25 4 -5
    endloop
  endfacet
  facet normal 0 0 -1
    outer loop
      vertex 56.6899 3.42824 -5
      vertex 71.3101 3.42824 -5
      vertex 71.4877 2.88147 -5
    endloop
  endfacet
  facet normal 0 0 -1
    outer loop
      vertex 56.5122 2.88147 -5
      vertex 71.4877 2.88147 -5
      vertex 71.7752 2.38359 -5
    endloop
  endfacet
  facet normal 0 0 -1
    outer loop
      vertex 56.2248 2.38359 -5
      vertex 71.7752 2.38359 -5
      vertex 72.1599 1.95635 -5
    endloop
  endfacet
  facet normal 0 0 -1
    outer loop
      vertex 55.8401 1.95635 -5
      vertex 72.1599 1.95635 -5
      vertex 72.625 1.61843 -5
    endloop
  endfacet
  facet normal 0 0 -1
    outer loop
      vertex 55.375 1.61843 -5
      vertex 72.625 1.61843 -5
      vertex 73.1502 1.38459 -5
    endloop
  endfacet
  facet normal 0 0 -1
    outer loop
      vertex 73.7125 1.26507 -5
      vertex 54.2875 1.26507 -5
      vertex 73.1502 1.38459 -5
    endloop
  endfacet
  facet normal 0 0 -1
    outer loop
      vertex 71.3101 3.42824 -5
      vertex 56.6899 3.42824 -5
      vertex 56.75 4 -5
    endloop
  endfacet
  facet normal 0 0 -1
    outer loop
      vertex 71.4877 2.88147 -5
      vertex 56.5122 2.88147 -5
      vertex 56.6899 3.42824 -5
    endloop
  endfacet
  facet normal 0 0 -1
    outer loop
      vertex 71.7752 2.38359 -5
      vertex 56.2248 2.38359 -5
      vertex 56.5122 2.88147 -5
    endloop
  endfacet
  facet normal 0 0 -1
    outer loop
      vertex 72.1599 1.95635 -5
      vertex 55.8401 1.95635 -5
      vertex 56.2248 2.38359 -5
    endloop
  endfacet
  facet normal 0 0 -1
    outer loop
      vertex 72.625 1.61843 -5
      vertex 55.375 1.61843 -5
      vertex 55.8401 1.95635 -5
    endloop
  endfacet
  facet normal 0 0 -1
    outer loop
      vertex 73.1502 1.38459 -5
      vertex 54.8498 1.38459 -5
      vertex 55.375 1.61843 -5
    endloop
  endfacet
  facet normal -0 0 -1
    outer loop
      vertex 73.1502 1.38459 -5
      vertex 54.2875 1.26507 -5
      vertex 54.8498 1.38459 -5
    endloop
  endfacet
  facet normal 0 0 -1
    outer loop
      vertex 89 -4.5 -5
      vertex 53.7125 1.26507 -5
      vertex 54.2875 1.26507 -5
    endloop
  endfacet
  facet normal 0 0 -1
    outer loop
      vertex 51.3101 3.42824 -5
      vertex 36.75 4 -5
      vertex 51.25 4 -5
    endloop
  endfacet
  facet normal 0 0 -1
    outer loop
      vertex 36.6899 3.42824 -5
      vertex 51.3101 3.42824 -5
      vertex 51.4877 2.88147 -5
    endloop
  endfacet
  facet normal 0 0 -1
    outer loop
      vertex 36.5122 2.88147 -5
      vertex 51.4877 2.88147 -5
      vertex 51.7752 2.38359 -5
    endloop
  endfacet
  facet normal 0 0 -1
    outer loop
      vertex 36.2248 2.38359 -5
      vertex 51.7752 2.38359 -5
      vertex 52.1599 1.95635 -5
    endloop
  endfacet
  facet normal 0 0 -1
    outer loop
      vertex 35.8401 1.95635 -5
      vertex 52.1599 1.95635 -5
      vertex 52.625 1.61843 -5
    endloop
  endfacet
  facet normal 0 0 -1
    outer loop
      vertex 35.375 1.61843 -5
      vertex 52.625 1.61843 -5
      vertex 53.1502 1.38459 -5
    endloop
  endfacet
  facet normal 0 0 -1
    outer loop
      vertex 34.8498 1.38459 -5
      vertex 53.1502 1.38459 -5
      vertex 53.7125 1.26507 -5
    endloop
  endfacet
  facet normal 0 0 -1
    outer loop
      vertex 34.2875 1.26507 -5
      vertex 53.7125 1.26507 -5
      vertex 89 -4.5 -5
    endloop
  endfacet
  facet normal 0 0 -1
    outer loop
      vertex 51.3101 3.42824 -5
      vertex 36.6899 3.42824 -5
      vertex 36.75 4 -5
    endloop
  endfacet
  facet normal 0 0 -1
    outer loop
      vertex 51.4877 2.88147 -5
      vertex 36.5122 2.88147 -5
      vertex 36.6899 3.42824 -5
    endloop
  endfacet
  facet normal 0 0 -1
    outer loop
      vertex 51.7752 2.38359 -5
      vertex 36.2248 2.38359 -5
      vertex 36.5122 2.88147 -5
    endloop
  endfacet
  facet normal 0 0 -1
    outer loop
      vertex 52.1599 1.95635 -5
      vertex 35.8401 1.95635 -5
      vertex 36.2248 2.38359 -5
    endloop
  endfacet
  facet normal 0 0 -1
    outer loop
      vertex 52.625 1.61843 -5
      vertex 35.375 1.61843 -5
      vertex 35.8401 1.95635 -5
    endloop
  endfacet
  facet normal 0 0 -1
    outer loop
      vertex 53.1502 1.38459 -5
      vertex 34.8498 1.38459 -5
      vertex 35.375 1.61843 -5
    endloop
  endfacet
  facet normal 0 0 -1
    outer loop
      vertex 53.7125 1.26507 -5
      vertex 34.2875 1.26507 -5
      vertex 34.8498 1.38459 -5
    endloop
  endfacet
  facet normal 0 0 -1
    outer loop
      vertex -1 -4.5 -5
      vertex 34.2875 1.26507 -5
      vertex 89 -4.5 -5
    endloop
  endfacet
  facet normal 0 0 -1
    outer loop
      vertex 31.3101 3.42824 -5
      vertex 16.75 4 -5
      vertex 31.25 4 -5
    endloop
  endfacet
  facet normal 0 0 -1
    outer loop
      vertex 16.6899 3.42824 -5
      vertex 31.3101 3.42824 -5
      vertex 31.4877 2.88147 -5
    endloop
  endfacet
  facet normal 0 0 -1
    outer loop
      vertex 16.5122 2.88147 -5
      vertex 31.4877 2.88147 -5
      vertex 31.7752 2.38359 -5
    endloop
  endfacet
  facet normal 0 0 -1
    outer loop
      vertex 16.2248 2.38359 -5
      vertex 31.7752 2.38359 -5
      vertex 32.1599 1.95635 -5
    endloop
  endfacet
  facet normal 0 0 -1
    outer loop
      vertex 15.8401 1.95635 -5
      vertex 32.1599 1.95635 -5
      vertex 32.625 1.61843 -5
    endloop
  endfacet
  facet normal 0 0 -1
    outer loop
      vertex 15.375 1.61843 -5
      vertex 32.625 1.61843 -5
      vertex 33.1502 1.38459 -5
    endloop
  endfacet
  facet normal 0 0 -1
    outer loop
      vertex 14.8498 1.38459 -5
      vertex 33.1502 1.38459 -5
      vertex 33.7125 1.26507 -5
    endloop
  endfacet
  facet normal 0 0 -1
    outer loop
      vertex 31.3101 3.42824 -5
      vertex 16.6899 3.42824 -5
      vertex 16.75 4 -5
    endloop
  endfacet
  facet normal 0 0 -1
    outer loop
      vertex 31.4877 2.88147 -5
      vertex 16.5122 2.88147 -5
      vertex 16.6899 3.42824 -5
    endloop
  endfacet
  facet normal -0 0 -1
    outer loop
      vertex 34.2875 1.26507 -5
      vertex -1 -4.5 -5
      vertex 33.7125 1.26507 -5
    endloop
  endfacet
  facet normal 0 0 -1
    outer loop
      vertex 31.7752 2.38359 -5
      vertex 16.2248 2.38359 -5
      vertex 16.5122 2.88147 -5
    endloop
  endfacet
  facet normal 0 0 -1
    outer loop
      vertex 32.1599 1.95635 -5
      vertex 15.8401 1.95635 -5
      vertex 16.2248 2.38359 -5
    endloop
  endfacet
  facet normal 0 0 -1
    outer loop
      vertex 32.625 1.61843 -5
      vertex 15.375 1.61843 -5
      vertex 15.8401 1.95635 -5
    endloop
  endfacet
  facet normal 0 0 -1
    outer loop
      vertex 33.1502 1.38459 -5
      vertex 14.8498 1.38459 -5
      vertex 15.375 1.61843 -5
    endloop
  endfacet
  facet normal 0 -0 -1
    outer loop
      vertex 14.2875 1.26507 -5
      vertex 33.7125 1.26507 -5
      vertex -1 -4.5 -5
    endloop
  endfacet
  facet normal 0 0 -1
    outer loop
      vertex 33.7125 1.26507 -5
      vertex 14.2875 1.26507 -5
      vertex 14.8498 1.38459 -5
    endloop
  endfacet
  facet normal -0 0 -1
    outer loop
      vertex 11.3101 3.42824 -5
      vertex -1 -4.5 -5
      vertex 11.25 4 -5
    endloop
  endfacet
  facet normal -0 0 -1
    outer loop
      vertex 11.4877 2.88147 -5
      vertex -1 -4.5 -5
      vertex 11.3101 3.42824 -5
    endloop
  endfacet
  facet normal -0 0 -1
    outer loop
      vertex 11.7752 2.38359 -5
      vertex -1 -4.5 -5
      vertex 11.4877 2.88147 -5
    endloop
  endfacet
  facet normal -0 0 -1
    outer loop
      vertex 12.1599 1.95635 -5
      vertex -1 -4.5 -5
      vertex 11.7752 2.38359 -5
    endloop
  endfacet
  facet normal -0 0 -1
    outer loop
      vertex 12.625 1.61843 -5
      vertex -1 -4.5 -5
      vertex 12.1599 1.95635 -5
    endloop
  endfacet
  facet normal -0 0 -1
    outer loop
      vertex 13.1502 1.38459 -5
      vertex -1 -4.5 -5
      vertex 12.625 1.61843 -5
    endloop
  endfacet
  facet normal -0 0 -1
    outer loop
      vertex 13.7125 1.26507 -5
      vertex -1 -4.5 -5
      vertex 13.1502 1.38459 -5
    endloop
  endfacet
  facet normal -0 0 -1
    outer loop
      vertex 14.2875 1.26507 -5
      vertex -1 -4.5 -5
      vertex 13.7125 1.26507 -5
    endloop
  endfacet
  facet normal 0 0 -1
    outer loop
      vertex 76.6899 4.57176 -5
      vertex 89 11.5 -5
      vertex 76.75 4 -5
    endloop
  endfacet
  facet normal 0 0 -1
    outer loop
      vertex 76.5123 5.11853 -5
      vertex 89 11.5 -5
      vertex 76.6899 4.57176 -5
    endloop
  endfacet
  facet normal 0 0 -1
    outer loop
      vertex 76.2248 5.61641 -5
      vertex 89 11.5 -5
      vertex 76.5123 5.11853 -5
    endloop
  endfacet
  facet normal 0 0 -1
    outer loop
      vertex 75.8401 6.04365 -5
      vertex 89 11.5 -5
      vertex 76.2248 5.61641 -5
    endloop
  endfacet
  facet normal 0 0 -1
    outer loop
      vertex 75.375 6.38157 -5
      vertex 89 11.5 -5
      vertex 75.8401 6.04365 -5
    endloop
  endfacet
  facet normal 0 0 -1
    outer loop
      vertex 74.8498 6.61541 -5
      vertex 89 11.5 -5
      vertex 75.375 6.38157 -5
    endloop
  endfacet
  facet normal 0 0 -1
    outer loop
      vertex 74.2875 6.73493 -5
      vertex 89 11.5 -5
      vertex 74.8498 6.61541 -5
    endloop
  endfacet
  facet normal 0 0 -1
    outer loop
      vertex 73.7125 6.73493 -5
      vertex 89 11.5 -5
      vertex 74.2875 6.73493 -5
    endloop
  endfacet
  facet normal 0 0 -1
    outer loop
      vertex 54.2875 6.73493 -5
      vertex 73.7125 6.73493 -5
      vertex 73.1502 6.61541 -5
    endloop
  endfacet
  facet normal 0 0 -1
    outer loop
      vertex 56.75 4 -5
      vertex 71.3101 4.57176 -5
      vertex 71.25 4 -5
    endloop
  endfacet
  facet normal 0 0 -1
    outer loop
      vertex 56.6899 4.57176 -5
      vertex 71.3101 4.57176 -5
      vertex 56.75 4 -5
    endloop
  endfacet
  facet normal 0 0 -1
    outer loop
      vertex 71.3101 4.57176 -5
      vertex 56.6899 4.57176 -5
      vertex 71.4877 5.11853 -5
    endloop
  endfacet
  facet normal 0 0 -1
    outer loop
      vertex 56.5122 5.11853 -5
      vertex 71.4877 5.11853 -5
      vertex 56.6899 4.57176 -5
    endloop
  endfacet
  facet normal 0 0 -1
    outer loop
      vertex 71.4877 5.11853 -5
      vertex 56.5122 5.11853 -5
      vertex 71.7752 5.61641 -5
    endloop
  endfacet
  facet normal 0 0 -1
    outer loop
      vertex 56.2248 5.61641 -5
      vertex 71.7752 5.61641 -5
      vertex 56.5122 5.11853 -5
    endloop
  endfacet
  facet normal 0 0 -1
    outer loop
      vertex 71.7752 5.61641 -5
      vertex 56.2248 5.61641 -5
      vertex 72.1599 6.04365 -5
    endloop
  endfacet
  facet normal 0 0 -1
    outer loop
      vertex 55.8401 6.04365 -5
      vertex 72.1599 6.04365 -5
      vertex 56.2248 5.61641 -5
    endloop
  endfacet
  facet normal 0 0 -1
    outer loop
      vertex 72.1599 6.04365 -5
      vertex 55.8401 6.04365 -5
      vertex 72.625 6.38157 -5
    endloop
  endfacet
  facet normal 0 0 -1
    outer loop
      vertex 55.375 6.38157 -5
      vertex 72.625 6.38157 -5
      vertex 55.8401 6.04365 -5
    endloop
  endfacet
  facet normal 0 0 -1
    outer loop
      vertex 72.625 6.38157 -5
      vertex 55.375 6.38157 -5
      vertex 73.1502 6.61541 -5
    endloop
  endfacet
  facet normal 0 0 -1
    outer loop
      vertex 54.8498 6.61541 -5
      vertex 73.1502 6.61541 -5
      vertex 55.375 6.38157 -5
    endloop
  endfacet
  facet normal 0 0 -1
    outer loop
      vertex 54.2875 6.73493 -5
      vertex 73.1502 6.61541 -5
      vertex 54.8498 6.61541 -5
    endloop
  endfacet
  facet normal 0 0 -1
    outer loop
      vertex 73.7125 6.73493 -5
      vertex 54.2875 6.73493 -5
      vertex 89 11.5 -5
    endloop
  endfacet
  facet normal 0 0 -1
    outer loop
      vertex 53.7125 6.73493 -5
      vertex 89 11.5 -5
      vertex 54.2875 6.73493 -5
    endloop
  endfacet
  facet normal 0 0 -1
    outer loop
      vertex 36.75 4 -5
      vertex 51.3101 4.57176 -5
      vertex 51.25 4 -5
    endloop
  endfacet
  facet normal 0 0 -1
    outer loop
      vertex 36.6899 4.57176 -5
      vertex 51.3101 4.57176 -5
      vertex 36.75 4 -5
    endloop
  endfacet
  facet normal 0 0 -1
    outer loop
      vertex 51.3101 4.57176 -5
      vertex 36.6899 4.57176 -5
      vertex 51.4877 5.11853 -5
    endloop
  endfacet
  facet normal 0 0 -1
    outer loop
      vertex 36.5122 5.11853 -5
      vertex 51.4877 5.11853 -5
      vertex 36.6899 4.57176 -5
    endloop
  endfacet
  facet normal 0 0 -1
    outer loop
      vertex 51.4877 5.11853 -5
      vertex 36.5122 5.11853 -5
      vertex 51.7752 5.61641 -5
    endloop
  endfacet
  facet normal 0 0 -1
    outer loop
      vertex 36.2248 5.61641 -5
      vertex 51.7752 5.61641 -5
      vertex 36.5122 5.11853 -5
    endloop
  endfacet
  facet normal 0 0 -1
    outer loop
      vertex 51.7752 5.61641 -5
      vertex 36.2248 5.61641 -5
      vertex 52.1599 6.04365 -5
    endloop
  endfacet
  facet normal 0 0 -1
    outer loop
      vertex 35.8401 6.04365 -5
      vertex 52.1599 6.04365 -5
      vertex 36.2248 5.61641 -5
    endloop
  endfacet
  facet normal 0 0 -1
    outer loop
      vertex 52.1599 6.04365 -5
      vertex 35.8401 6.04365 -5
      vertex 52.625 6.38157 -5
    endloop
  endfacet
  facet normal 0 0 -1
    outer loop
      vertex 35.375 6.38157 -5
      vertex 52.625 6.38157 -5
      vertex 35.8401 6.04365 -5
    endloop
  endfacet
  facet normal 0 0 -1
    outer loop
      vertex 52.625 6.38157 -5
      vertex 35.375 6.38157 -5
      vertex 53.1502 6.61541 -5
    endloop
  endfacet
  facet normal 0 0 -1
    outer loop
      vertex 34.8498 6.61541 -5
      vertex 53.1502 6.61541 -5
      vertex 35.375 6.38157 -5
    endloop
  endfacet
  facet normal 0 0 -1
    outer loop
      vertex 53.1502 6.61541 -5
      vertex 34.8498 6.61541 -5
      vertex 53.7125 6.73493 -5
    endloop
  endfacet
  facet normal 0 0 -1
    outer loop
      vertex 34.2875 6.73493 -5
      vertex 53.7125 6.73493 -5
      vertex 34.8498 6.61541 -5
    endloop
  endfacet
  facet normal 0 0 -1
    outer loop
      vertex 53.7125 6.73493 -5
      vertex 34.2875 6.73493 -5
      vertex 89 11.5 -5
    endloop
  endfacet
  facet normal 0 0 -1
    outer loop
      vertex -1 11.5 -5
      vertex 34.2875 6.73493 -5
      vertex 33.7125 6.73493 -5
    endloop
  endfacet
  facet normal 0 0 -1
    outer loop
      vertex 16.75 4 -5
      vertex 31.3101 4.57176 -5
      vertex 31.25 4 -5
    endloop
  endfacet
  facet normal 0 0 -1
    outer loop
      vertex 16.6899 4.57176 -5
      vertex 31.3101 4.57176 -5
      vertex 16.75 4 -5
    endloop
  endfacet
  facet normal 0 0 -1
    outer loop
      vertex 31.3101 4.57176 -5
      vertex 16.6899 4.57176 -5
      vertex 31.4877 5.11853 -5
    endloop
  endfacet
  facet normal 0 0 -1
    outer loop
      vertex 16.5122 5.11853 -5
      vertex 31.4877 5.11853 -5
      vertex 16.6899 4.57176 -5
    endloop
  endfacet
  facet normal 0 0 -1
    outer loop
      vertex 31.4877 5.11853 -5
      vertex 16.5122 5.11853 -5
      vertex 31.7752 5.61641 -5
    endloop
  endfacet
  facet normal 0 0 -1
    outer loop
      vertex 16.2248 5.61641 -5
      vertex 31.7752 5.61641 -5
      vertex 16.5122 5.11853 -5
    endloop
  endfacet
  facet normal 0 0 -1
    outer loop
      vertex 31.7752 5.61641 -5
      vertex 16.2248 5.61641 -5
      vertex 32.1599 6.04365 -5
    endloop
  endfacet
  facet normal 0 0 -1
    outer loop
      vertex 15.8401 6.04365 -5
      vertex 32.1599 6.04365 -5
      vertex 16.2248 5.61641 -5
    endloop
  endfacet
  facet normal 0 0 -1
    outer loop
      vertex 32.1599 6.04365 -5
      vertex 15.8401 6.04365 -5
      vertex 32.625 6.38157 -5
    endloop
  endfacet
  facet normal 0 0 -1
    outer loop
      vertex 15.375 6.38157 -5
      vertex 32.625 6.38157 -5
      vertex 15.8401 6.04365 -5
    endloop
  endfacet
  facet normal 0 0 -1
    outer loop
      vertex 32.625 6.38157 -5
      vertex 15.375 6.38157 -5
      vertex 33.1502 6.61541 -5
    endloop
  endfacet
  facet normal 0 0 -1
    outer loop
      vertex 14.8498 6.61541 -5
      vertex 33.1502 6.61541 -5
      vertex 15.375 6.38157 -5
    endloop
  endfacet
  facet normal 0 0 -1
    outer loop
      vertex 33.1502 6.61541 -5
      vertex 14.8498 6.61541 -5
      vertex 33.7125 6.73493 -5
    endloop
  endfacet
  facet normal 0 0 -1
    outer loop
      vertex 14.2875 6.73493 -5
      vertex 33.7125 6.73493 -5
      vertex 14.8498 6.61541 -5
    endloop
  endfacet
  facet normal 0 0 -1
    outer loop
      vertex 33.7125 6.73493 -5
      vertex 14.2875 6.73493 -5
      vertex -1 11.5 -5
    endloop
  endfacet
  facet normal 0 0 -1
    outer loop
      vertex -1 11.5 -5
      vertex 14.2875 6.73493 -5
      vertex 13.7125 6.73493 -5
    endloop
  endfacet
  facet normal 0 0 -1
    outer loop
      vertex -1 11.5 -5
      vertex 11.25 4 -5
      vertex -1 -4.5 -5
    endloop
  endfacet
  facet normal 0 0 -1
    outer loop
      vertex 11.25 4 -5
      vertex -1 11.5 -5
      vertex 11.3101 4.57176 -5
    endloop
  endfacet
  facet normal 0 0 -1
    outer loop
      vertex 11.3101 4.57176 -5
      vertex -1 11.5 -5
      vertex 11.4877 5.11853 -5
    endloop
  endfacet
  facet normal 0 0 -1
    outer loop
      vertex 11.4877 5.11853 -5
      vertex -1 11.5 -5
      vertex 11.7752 5.61641 -5
    endloop
  endfacet
  facet normal 0 0 -1
    outer loop
      vertex 34.2875 6.73493 -5
      vertex -1 11.5 -5
      vertex 89 11.5 -5
    endloop
  endfacet
  facet normal 0 0 -1
    outer loop
      vertex 13.1502 6.61541 -5
      vertex -1 11.5 -5
      vertex 13.7125 6.73493 -5
    endloop
  endfacet
  facet normal 0 0 -1
    outer loop
      vertex 12.625 6.38157 -5
      vertex -1 11.5 -5
      vertex 13.1502 6.61541 -5
    endloop
  endfacet
  facet normal 0 0 -1
    outer loop
      vertex 12.1599 6.04365 -5
      vertex -1 11.5 -5
      vertex 12.625 6.38157 -5
    endloop
  endfacet
  facet normal 0 0 -1
    outer loop
      vertex 11.7752 5.61641 -5
      vertex -1 11.5 -5
      vertex 12.1599 6.04365 -5
    endloop
  endfacet
  facet normal 0 -1 0
    outer loop
      vertex -1 -4.5 -5
      vertex 89 -4.5 -2
      vertex -1 -4.5 -2
    endloop
  endfacet
  facet normal 0 -1 -0
    outer loop
      vertex 89 -4.5 -2
      vertex -1 -4.5 -5
      vertex 89 -4.5 -5
    endloop
  endfacet
endsolid OpenSCAD_Model
