solid OpenSCAD_Model
  facet normal 0.965926 0.258819 0
    outer loop
      vertex 6.11342 1.29945 57.5
      vertex 5.9441 1.93136 -57.5
      vertex 5.9441 1.93136 57.5
    endloop
  endfacet
  facet normal 0.965926 0.258819 0
    outer loop
      vertex 5.9441 1.93136 -57.5
      vertex 6.11342 1.29945 57.5
      vertex 6.11342 1.29945 -57.5
    endloop
  endfacet
  facet normal 0.998629 0.0523388 0
    outer loop
      vertex 6.25 0 57.5
      vertex 6.21576 0.653302 -57.5
      vertex 6.21576 0.653302 57.5
    endloop
  endfacet
  facet normal 0.998629 0.0523388 0
    outer loop
      vertex 6.21576 0.653302 -57.5
      vertex 6.25 0 57.5
      vertex 6.25 0 -57.5
    endloop
  endfacet
  facet normal -0.998629 0.0523388 0
    outer loop
      vertex -6.25 0 -57.5
      vertex -6.21576 0.653302 57.5
      vertex -6.21576 0.653302 -57.5
    endloop
  endfacet
  facet normal -0.998629 0.0523388 0
    outer loop
      vertex -6.21576 0.653302 57.5
      vertex -6.25 0 -57.5
      vertex -6.25 0 57.5
    endloop
  endfacet
  facet normal 0.0523388 0.998629 -0
    outer loop
      vertex 0.653302 6.21576 -57.5
      vertex 0 6.25 57.5
      vertex 0.653302 6.21576 57.5
    endloop
  endfacet
  facet normal 0.0523388 0.998629 0
    outer loop
      vertex 0 6.25 57.5
      vertex 0.653302 6.21576 -57.5
      vertex 0 6.25 -57.5
    endloop
  endfacet
  facet normal 0.707107 0.707107 0
    outer loop
      vertex 4.64465 4.18207 57.5
      vertex 4.18207 4.64465 -57.5
      vertex 4.18207 4.64465 57.5
    endloop
  endfacet
  facet normal 0.707107 0.707107 0
    outer loop
      vertex 4.18207 4.64465 -57.5
      vertex 4.64465 4.18207 57.5
      vertex 4.64465 4.18207 -57.5
    endloop
  endfacet
  facet normal -0.629327 0.77714 0
    outer loop
      vertex -3.67366 5.05636 -57.5
      vertex -4.18207 4.64465 57.5
      vertex -3.67366 5.05636 57.5
    endloop
  endfacet
  facet normal -0.629327 0.77714 0
    outer loop
      vertex -4.18207 4.64465 57.5
      vertex -3.67366 5.05636 -57.5
      vertex -4.18207 4.64465 -57.5
    endloop
  endfacet
  facet normal -0.358366 0.933581 0
    outer loop
      vertex -1.93136 5.9441 -57.5
      vertex -2.5421 5.70966 57.5
      vertex -1.93136 5.9441 57.5
    endloop
  endfacet
  facet normal -0.358366 0.933581 0
    outer loop
      vertex -2.5421 5.70966 57.5
      vertex -1.93136 5.9441 -57.5
      vertex -2.5421 5.70966 -57.5
    endloop
  endfacet
  facet normal 0.933581 0.358366 0
    outer loop
      vertex 5.9441 1.93136 57.5
      vertex 5.70966 2.5421 -57.5
      vertex 5.70966 2.5421 57.5
    endloop
  endfacet
  facet normal 0.933581 0.358366 0
    outer loop
      vertex 5.70966 2.5421 -57.5
      vertex 5.9441 1.93136 57.5
      vertex 5.9441 1.93136 -57.5
    endloop
  endfacet
  facet normal 0.453988 0.891008 -0
    outer loop
      vertex 3.125 5.41266 -57.5
      vertex 2.5421 5.70966 57.5
      vertex 3.125 5.41266 57.5
    endloop
  endfacet
  facet normal 0.453988 0.891008 0
    outer loop
      vertex 2.5421 5.70966 57.5
      vertex 3.125 5.41266 -57.5
      vertex 2.5421 5.70966 -57.5
    endloop
  endfacet
  facet normal 0.629327 0.77714 -0
    outer loop
      vertex 4.18207 4.64465 -57.5
      vertex 3.67366 5.05636 57.5
      vertex 4.18207 4.64465 57.5
    endloop
  endfacet
  facet normal 0.629327 0.77714 0
    outer loop
      vertex 3.67366 5.05636 57.5
      vertex 4.18207 4.64465 -57.5
      vertex 3.67366 5.05636 -57.5
    endloop
  endfacet
  facet normal -0.838673 0.544635 0
    outer loop
      vertex -5.41266 3.125 -57.5
      vertex -5.05636 3.67366 57.5
      vertex -5.05636 3.67366 -57.5
    endloop
  endfacet
  facet normal -0.838673 0.544635 0
    outer loop
      vertex -5.05636 3.67366 57.5
      vertex -5.41266 3.125 -57.5
      vertex -5.41266 3.125 57.5
    endloop
  endfacet
  facet normal -0.77714 0.629327 0
    outer loop
      vertex -5.05636 3.67366 -57.5
      vertex -4.64465 4.18207 57.5
      vertex -4.64465 4.18207 -57.5
    endloop
  endfacet
  facet normal -0.77714 0.629327 0
    outer loop
      vertex -4.64465 4.18207 57.5
      vertex -5.05636 3.67366 -57.5
      vertex -5.05636 3.67366 57.5
    endloop
  endfacet
  facet normal -0.453988 0.891008 0
    outer loop
      vertex -2.5421 5.70966 -57.5
      vertex -3.125 5.41266 57.5
      vertex -2.5421 5.70966 57.5
    endloop
  endfacet
  facet normal -0.453988 0.891008 0
    outer loop
      vertex -3.125 5.41266 57.5
      vertex -2.5421 5.70966 -57.5
      vertex -3.125 5.41266 -57.5
    endloop
  endfacet
  facet normal 0.891008 0.453988 0
    outer loop
      vertex 5.70966 2.5421 57.5
      vertex 5.41266 3.125 -57.5
      vertex 5.41266 3.125 57.5
    endloop
  endfacet
  facet normal 0.891008 0.453988 0
    outer loop
      vertex 5.41266 3.125 -57.5
      vertex 5.70966 2.5421 57.5
      vertex 5.70966 2.5421 -57.5
    endloop
  endfacet
  facet normal 0.838673 0.544635 0
    outer loop
      vertex 5.41266 3.125 57.5
      vertex 5.05636 3.67366 -57.5
      vertex 5.05636 3.67366 57.5
    endloop
  endfacet
  facet normal 0.838673 0.544635 0
    outer loop
      vertex 5.05636 3.67366 -57.5
      vertex 5.41266 3.125 57.5
      vertex 5.41266 3.125 -57.5
    endloop
  endfacet
  facet normal 0.77714 0.629327 0
    outer loop
      vertex 5.05636 3.67366 57.5
      vertex 4.64465 4.18207 -57.5
      vertex 4.64465 4.18207 57.5
    endloop
  endfacet
  facet normal 0.77714 0.629327 0
    outer loop
      vertex 4.64465 4.18207 -57.5
      vertex 5.05636 3.67366 57.5
      vertex 5.05636 3.67366 -57.5
    endloop
  endfacet
  facet normal 0.358366 0.933581 -0
    outer loop
      vertex 2.5421 5.70966 -57.5
      vertex 1.93136 5.9441 57.5
      vertex 2.5421 5.70966 57.5
    endloop
  endfacet
  facet normal 0.358366 0.933581 0
    outer loop
      vertex 1.93136 5.9441 57.5
      vertex 2.5421 5.70966 -57.5
      vertex 1.93136 5.9441 -57.5
    endloop
  endfacet
  facet normal 0.258819 0.965926 -0
    outer loop
      vertex 1.93136 5.9441 -57.5
      vertex 1.29945 6.11342 57.5
      vertex 1.93136 5.9441 57.5
    endloop
  endfacet
  facet normal 0.258819 0.965926 0
    outer loop
      vertex 1.29945 6.11342 57.5
      vertex 1.93136 5.9441 -57.5
      vertex 1.29945 6.11342 -57.5
    endloop
  endfacet
  facet normal 0.544635 0.838673 -0
    outer loop
      vertex 3.67366 5.05636 -57.5
      vertex 3.125 5.41266 57.5
      vertex 3.67366 5.05636 57.5
    endloop
  endfacet
  facet normal 0.544635 0.838673 0
    outer loop
      vertex 3.125 5.41266 57.5
      vertex 3.67366 5.05636 -57.5
      vertex 3.125 5.41266 -57.5
    endloop
  endfacet
  facet normal -0.891008 0.453988 0
    outer loop
      vertex -5.70966 2.5421 -57.5
      vertex -5.41266 3.125 57.5
      vertex -5.41266 3.125 -57.5
    endloop
  endfacet
  facet normal -0.891008 0.453988 0
    outer loop
      vertex -5.41266 3.125 57.5
      vertex -5.70966 2.5421 -57.5
      vertex -5.70966 2.5421 57.5
    endloop
  endfacet
  facet normal -0.933581 0.358366 0
    outer loop
      vertex -5.9441 1.93136 -57.5
      vertex -5.70966 2.5421 57.5
      vertex -5.70966 2.5421 -57.5
    endloop
  endfacet
  facet normal -0.933581 0.358366 0
    outer loop
      vertex -5.70966 2.5421 57.5
      vertex -5.9441 1.93136 -57.5
      vertex -5.9441 1.93136 57.5
    endloop
  endfacet
  facet normal -0.965926 0.258819 0
    outer loop
      vertex -6.11342 1.29945 -57.5
      vertex -5.9441 1.93136 57.5
      vertex -5.9441 1.93136 -57.5
    endloop
  endfacet
  facet normal -0.965926 0.258819 0
    outer loop
      vertex -5.9441 1.93136 57.5
      vertex -6.11342 1.29945 -57.5
      vertex -6.11342 1.29945 57.5
    endloop
  endfacet
  facet normal -0.0523388 0.998629 0
    outer loop
      vertex 0 6.25 -57.5
      vertex -0.653302 6.21576 57.5
      vertex 0 6.25 57.5
    endloop
  endfacet
  facet normal -0.0523388 0.998629 0
    outer loop
      vertex -0.653302 6.21576 57.5
      vertex 0 6.25 -57.5
      vertex -0.653302 6.21576 -57.5
    endloop
  endfacet
  facet normal -0.156435 0.987688 0
    outer loop
      vertex -0.653302 6.21576 -57.5
      vertex -1.29945 6.11342 57.5
      vertex -0.653302 6.21576 57.5
    endloop
  endfacet
  facet normal -0.156435 0.987688 0
    outer loop
      vertex -1.29945 6.11342 57.5
      vertex -0.653302 6.21576 -57.5
      vertex -1.29945 6.11342 -57.5
    endloop
  endfacet
  facet normal 0 0 -1
    outer loop
      vertex -4.24 -1.125 -57.5
      vertex -5.34345 0.125 -57.5
      vertex -4.24 0.125 -57.5
    endloop
  endfacet
  facet normal 0 0 -1
    outer loop
      vertex -4.88747 2.17604 -57.5
      vertex -5.70966 2.5421 -57.5
      vertex -5.41266 3.125 -57.5
    endloop
  endfacet
  facet normal 0 0 -1
    outer loop
      vertex -5.32069 0.559227 -57.5
      vertex -5.9441 1.93136 -57.5
      vertex -5.70966 2.5421 -57.5
    endloop
  endfacet
  facet normal 0 0 -1
    outer loop
      vertex -5.32069 0.559227 -57.5
      vertex -6.11342 1.29945 -57.5
      vertex -5.9441 1.93136 -57.5
    endloop
  endfacet
  facet normal 0 0 -1
    outer loop
      vertex -5.32069 0.559227 -57.5
      vertex -6.21576 0.653302 -57.5
      vertex -6.11342 1.29945 -57.5
    endloop
  endfacet
  facet normal 0 0 -1
    outer loop
      vertex -6.24 -1.125 -57.5
      vertex -5.34345 0.125 -57.5
      vertex -4.24 -1.125 -57.5
    endloop
  endfacet
  facet normal 0 0 -1
    outer loop
      vertex -5.34345 0.125 -57.5
      vertex -6.24 -1.125 -57.5
      vertex -6.24 0 -57.5
    endloop
  endfacet
  facet normal -0 0 -1
    outer loop
      vertex -5.34345 0.125 -57.5
      vertex -6.24 0 -57.5
      vertex -6.21576 0.653302 -57.5
    endloop
  endfacet
  facet normal 0 0 -1
    outer loop
      vertex -6.21576 0.653302 -57.5
      vertex -6.24 0 -57.5
      vertex -6.25 0 -57.5
    endloop
  endfacet
  facet normal 0 0 -1
    outer loop
      vertex 5.34345 0.125 -57.5
      vertex 6.24 0 -57.5
      vertex 6.24 -1.125 -57.5
    endloop
  endfacet
  facet normal 0 0 -1
    outer loop
      vertex 6.24 0 -57.5
      vertex 5.34345 0.125 -57.5
      vertex 6.21576 0.653302 -57.5
    endloop
  endfacet
  facet normal 0 0 -1
    outer loop
      vertex 5.32069 0.559227 -57.5
      vertex 6.21576 0.653302 -57.5
      vertex 5.34345 0.125 -57.5
    endloop
  endfacet
  facet normal 0 0 -1
    outer loop
      vertex 5.23309 1.11233 -57.5
      vertex 6.11342 1.29945 -57.5
      vertex 5.32069 0.559227 -57.5
    endloop
  endfacet
  facet normal -0 0 -1
    outer loop
      vertex 6.11342 1.29945 -57.5
      vertex 5.23309 1.11233 -57.5
      vertex 5.9441 1.93136 -57.5
    endloop
  endfacet
  facet normal -0 0 -1
    outer loop
      vertex 6.21576 0.653302 -57.5
      vertex 5.32069 0.559227 -57.5
      vertex 6.11342 1.29945 -57.5
    endloop
  endfacet
  facet normal 0 0 -1
    outer loop
      vertex 4.24 -1.125 -57.5
      vertex 5.34345 0.125 -57.5
      vertex 6.24 -1.125 -57.5
    endloop
  endfacet
  facet normal -0 0 -1
    outer loop
      vertex 5.34345 0.125 -57.5
      vertex 4.24 -1.125 -57.5
      vertex 4.24 0.125 -57.5
    endloop
  endfacet
  facet normal 0 0 -1
    outer loop
      vertex 6.25 0 -57.5
      vertex 6.24 0 -57.5
      vertex 6.21576 0.653302 -57.5
    endloop
  endfacet
  facet normal 0 0 -1
    outer loop
      vertex 5.08815 1.65324 -57.5
      vertex 5.9441 1.93136 -57.5
      vertex 5.23309 1.11233 -57.5
    endloop
  endfacet
  facet normal -0 0 -1
    outer loop
      vertex 5.9441 1.93136 -57.5
      vertex 5.08815 1.65324 -57.5
      vertex 5.70966 2.5421 -57.5
    endloop
  endfacet
  facet normal 0 0 -1
    outer loop
      vertex 4.88747 2.17604 -57.5
      vertex 5.70966 2.5421 -57.5
      vertex 5.08815 1.65324 -57.5
    endloop
  endfacet
  facet normal -0 0 -1
    outer loop
      vertex 5.70966 2.5421 -57.5
      vertex 4.88747 2.17604 -57.5
      vertex 5.41266 3.125 -57.5
    endloop
  endfacet
  facet normal 0 0 -1
    outer loop
      vertex 4.63323 2.675 -57.5
      vertex 5.41266 3.125 -57.5
      vertex 4.88747 2.17604 -57.5
    endloop
  endfacet
  facet normal -0 0 -1
    outer loop
      vertex 5.41266 3.125 -57.5
      vertex 4.63323 2.675 -57.5
      vertex 5.05636 3.67366 -57.5
    endloop
  endfacet
  facet normal 0 0 -1
    outer loop
      vertex 4.32824 3.14465 -57.5
      vertex 5.05636 3.67366 -57.5
      vertex 4.63323 2.675 -57.5
    endloop
  endfacet
  facet normal -0 0 -1
    outer loop
      vertex 5.05636 3.67366 -57.5
      vertex 4.32824 3.14465 -57.5
      vertex 4.64465 4.18207 -57.5
    endloop
  endfacet
  facet normal 0 0 -1
    outer loop
      vertex 3.97582 3.57985 -57.5
      vertex 4.64465 4.18207 -57.5
      vertex 4.32824 3.14465 -57.5
    endloop
  endfacet
  facet normal -0 0 -1
    outer loop
      vertex 4.64465 4.18207 -57.5
      vertex 3.97582 3.57985 -57.5
      vertex 4.18207 4.64465 -57.5
    endloop
  endfacet
  facet normal 0 0 -1
    outer loop
      vertex 3.57985 3.97582 -57.5
      vertex 4.18207 4.64465 -57.5
      vertex 3.97582 3.57985 -57.5
    endloop
  endfacet
  facet normal -0 0 -1
    outer loop
      vertex 4.18207 4.64465 -57.5
      vertex 3.57985 3.97582 -57.5
      vertex 3.67366 5.05636 -57.5
    endloop
  endfacet
  facet normal 0 0 -1
    outer loop
      vertex 3.14465 4.32824 -57.5
      vertex 3.67366 5.05636 -57.5
      vertex 3.57985 3.97582 -57.5
    endloop
  endfacet
  facet normal 0 0 -1
    outer loop
      vertex 3.14465 4.32824 -57.5
      vertex 3.125 5.41266 -57.5
      vertex 3.67366 5.05636 -57.5
    endloop
  endfacet
  facet normal 0 0 -1
    outer loop
      vertex 2.675 4.63323 -57.5
      vertex 3.125 5.41266 -57.5
      vertex 3.14465 4.32824 -57.5
    endloop
  endfacet
  facet normal 0 0 -1
    outer loop
      vertex 2.675 4.63323 -57.5
      vertex 2.5421 5.70966 -57.5
      vertex 3.125 5.41266 -57.5
    endloop
  endfacet
  facet normal 0 0 -1
    outer loop
      vertex 2.17604 4.88747 -57.5
      vertex 2.5421 5.70966 -57.5
      vertex 2.675 4.63323 -57.5
    endloop
  endfacet
  facet normal 0 0 -1
    outer loop
      vertex 2.17604 4.88747 -57.5
      vertex 1.93136 5.9441 -57.5
      vertex 2.5421 5.70966 -57.5
    endloop
  endfacet
  facet normal 0 0 -1
    outer loop
      vertex 1.65324 5.08815 -57.5
      vertex 1.93136 5.9441 -57.5
      vertex 2.17604 4.88747 -57.5
    endloop
  endfacet
  facet normal 0 0 -1
    outer loop
      vertex 1.65324 5.08815 -57.5
      vertex 1.29945 6.11342 -57.5
      vertex 1.93136 5.9441 -57.5
    endloop
  endfacet
  facet normal 0 0 -1
    outer loop
      vertex 1.11233 5.23309 -57.5
      vertex 1.29945 6.11342 -57.5
      vertex 1.65324 5.08815 -57.5
    endloop
  endfacet
  facet normal 0 0 -1
    outer loop
      vertex 1.11233 5.23309 -57.5
      vertex 0.653302 6.21576 -57.5
      vertex 1.29945 6.11342 -57.5
    endloop
  endfacet
  facet normal 0 0 -1
    outer loop
      vertex 0.559227 5.32069 -57.5
      vertex 0.653302 6.21576 -57.5
      vertex 1.11233 5.23309 -57.5
    endloop
  endfacet
  facet normal 0 0 -1
    outer loop
      vertex 0 5.35 -57.5
      vertex 0.653302 6.21576 -57.5
      vertex 0.559227 5.32069 -57.5
    endloop
  endfacet
  facet normal 0 0 -1
    outer loop
      vertex 0 5.35 -57.5
      vertex 0 6.25 -57.5
      vertex 0.653302 6.21576 -57.5
    endloop
  endfacet
  facet normal 0 0 -1
    outer loop
      vertex -0.559227 5.32069 -57.5
      vertex 0 6.25 -57.5
      vertex 0 5.35 -57.5
    endloop
  endfacet
  facet normal 0 0 -1
    outer loop
      vertex -0.559227 5.32069 -57.5
      vertex -0.653302 6.21576 -57.5
      vertex 0 6.25 -57.5
    endloop
  endfacet
  facet normal 0 0 -1
    outer loop
      vertex -1.11233 5.23309 -57.5
      vertex -0.653302 6.21576 -57.5
      vertex -0.559227 5.32069 -57.5
    endloop
  endfacet
  facet normal 0 0 -1
    outer loop
      vertex -1.11233 5.23309 -57.5
      vertex -1.29945 6.11342 -57.5
      vertex -0.653302 6.21576 -57.5
    endloop
  endfacet
  facet normal 0 0 -1
    outer loop
      vertex -1.65324 5.08815 -57.5
      vertex -1.29945 6.11342 -57.5
      vertex -1.11233 5.23309 -57.5
    endloop
  endfacet
  facet normal 0 0 -1
    outer loop
      vertex -1.65324 5.08815 -57.5
      vertex -1.93136 5.9441 -57.5
      vertex -1.29945 6.11342 -57.5
    endloop
  endfacet
  facet normal 0 0 -1
    outer loop
      vertex -2.17604 4.88747 -57.5
      vertex -1.93136 5.9441 -57.5
      vertex -1.65324 5.08815 -57.5
    endloop
  endfacet
  facet normal 0 0 -1
    outer loop
      vertex -2.17604 4.88747 -57.5
      vertex -2.5421 5.70966 -57.5
      vertex -1.93136 5.9441 -57.5
    endloop
  endfacet
  facet normal 0 0 -1
    outer loop
      vertex -2.675 4.63323 -57.5
      vertex -2.5421 5.70966 -57.5
      vertex -2.17604 4.88747 -57.5
    endloop
  endfacet
  facet normal 0 0 -1
    outer loop
      vertex -2.675 4.63323 -57.5
      vertex -3.125 5.41266 -57.5
      vertex -2.5421 5.70966 -57.5
    endloop
  endfacet
  facet normal 0 0 -1
    outer loop
      vertex -3.14465 4.32824 -57.5
      vertex -3.125 5.41266 -57.5
      vertex -2.675 4.63323 -57.5
    endloop
  endfacet
  facet normal 0 0 -1
    outer loop
      vertex -3.67366 5.05636 -57.5
      vertex -3.14465 4.32824 -57.5
      vertex -3.57985 3.97582 -57.5
    endloop
  endfacet
  facet normal 0 0 -1
    outer loop
      vertex -3.14465 4.32824 -57.5
      vertex -3.67366 5.05636 -57.5
      vertex -3.125 5.41266 -57.5
    endloop
  endfacet
  facet normal 0 0 -1
    outer loop
      vertex -4.18207 4.64465 -57.5
      vertex -3.57985 3.97582 -57.5
      vertex -3.97582 3.57985 -57.5
    endloop
  endfacet
  facet normal 0 0 -1
    outer loop
      vertex -3.57985 3.97582 -57.5
      vertex -4.18207 4.64465 -57.5
      vertex -3.67366 5.05636 -57.5
    endloop
  endfacet
  facet normal 0 0 -1
    outer loop
      vertex -4.64465 4.18207 -57.5
      vertex -3.97582 3.57985 -57.5
      vertex -4.32824 3.14465 -57.5
    endloop
  endfacet
  facet normal 0 0 -1
    outer loop
      vertex -5.05636 3.67366 -57.5
      vertex -4.32824 3.14465 -57.5
      vertex -4.63323 2.675 -57.5
    endloop
  endfacet
  facet normal 0 0 -1
    outer loop
      vertex -3.97582 3.57985 -57.5
      vertex -4.64465 4.18207 -57.5
      vertex -4.18207 4.64465 -57.5
    endloop
  endfacet
  facet normal 0 0 -1
    outer loop
      vertex -5.41266 3.125 -57.5
      vertex -4.63323 2.675 -57.5
      vertex -4.88747 2.17604 -57.5
    endloop
  endfacet
  facet normal 0 0 -1
    outer loop
      vertex -4.32824 3.14465 -57.5
      vertex -5.05636 3.67366 -57.5
      vertex -4.64465 4.18207 -57.5
    endloop
  endfacet
  facet normal 0 0 -1
    outer loop
      vertex -5.70966 2.5421 -57.5
      vertex -4.88747 2.17604 -57.5
      vertex -5.08815 1.65324 -57.5
    endloop
  endfacet
  facet normal 0 0 -1
    outer loop
      vertex -5.70966 2.5421 -57.5
      vertex -5.08815 1.65324 -57.5
      vertex -5.23309 1.11233 -57.5
    endloop
  endfacet
  facet normal 0 0 -1
    outer loop
      vertex -5.70966 2.5421 -57.5
      vertex -5.23309 1.11233 -57.5
      vertex -5.32069 0.559227 -57.5
    endloop
  endfacet
  facet normal 0 0 -1
    outer loop
      vertex -4.63323 2.675 -57.5
      vertex -5.41266 3.125 -57.5
      vertex -5.05636 3.67366 -57.5
    endloop
  endfacet
  facet normal 0 0 -1
    outer loop
      vertex -6.21576 0.653302 -57.5
      vertex -5.32069 0.559227 -57.5
      vertex -5.34345 0.125 -57.5
    endloop
  endfacet
  facet normal 0.987688 0.156435 0
    outer loop
      vertex 6.21576 0.653302 57.5
      vertex 6.11342 1.29945 -57.5
      vertex 6.11342 1.29945 57.5
    endloop
  endfacet
  facet normal 0.987688 0.156435 0
    outer loop
      vertex 6.11342 1.29945 -57.5
      vertex 6.21576 0.653302 57.5
      vertex 6.21576 0.653302 -57.5
    endloop
  endfacet
  facet normal 0.156435 0.987688 -0
    outer loop
      vertex 1.29945 6.11342 -57.5
      vertex 0.653302 6.21576 57.5
      vertex 1.29945 6.11342 57.5
    endloop
  endfacet
  facet normal 0.156435 0.987688 0
    outer loop
      vertex 0.653302 6.21576 57.5
      vertex 1.29945 6.11342 -57.5
      vertex 0.653302 6.21576 -57.5
    endloop
  endfacet
  facet normal -0.707107 0.707107 0
    outer loop
      vertex -4.64465 4.18207 -57.5
      vertex -4.18207 4.64465 57.5
      vertex -4.18207 4.64465 -57.5
    endloop
  endfacet
  facet normal -0.707107 0.707107 0
    outer loop
      vertex -4.18207 4.64465 57.5
      vertex -4.64465 4.18207 -57.5
      vertex -4.64465 4.18207 57.5
    endloop
  endfacet
  facet normal 0 0 1
    outer loop
      vertex 6.21576 0.653302 57.5
      vertex 5.32069 0.559227 57.5
      vertex 5.34345 0.125 57.5
    endloop
  endfacet
  facet normal 0 0 1
    outer loop
      vertex 5.70966 2.5421 57.5
      vertex 5.23309 1.11233 57.5
      vertex 5.32069 0.559227 57.5
    endloop
  endfacet
  facet normal 0 0 1
    outer loop
      vertex 5.70966 2.5421 57.5
      vertex 5.08815 1.65324 57.5
      vertex 5.23309 1.11233 57.5
    endloop
  endfacet
  facet normal 0 0 1
    outer loop
      vertex 4.63323 2.675 57.5
      vertex 5.41266 3.125 57.5
      vertex 5.05636 3.67366 57.5
    endloop
  endfacet
  facet normal 0 0 1
    outer loop
      vertex 5.70966 2.5421 57.5
      vertex 4.88747 2.17604 57.5
      vertex 5.08815 1.65324 57.5
    endloop
  endfacet
  facet normal 0 0 1
    outer loop
      vertex 4.32824 3.14465 57.5
      vertex 5.05636 3.67366 57.5
      vertex 4.64465 4.18207 57.5
    endloop
  endfacet
  facet normal 0 0 1
    outer loop
      vertex 5.41266 3.125 57.5
      vertex 4.63323 2.675 57.5
      vertex 4.88747 2.17604 57.5
    endloop
  endfacet
  facet normal 0 0 1
    outer loop
      vertex 5.05636 3.67366 57.5
      vertex 4.32824 3.14465 57.5
      vertex 4.63323 2.675 57.5
    endloop
  endfacet
  facet normal 0 0 1
    outer loop
      vertex 3.97582 3.57985 57.5
      vertex 4.64465 4.18207 57.5
      vertex 4.18207 4.64465 57.5
    endloop
  endfacet
  facet normal 0 0 1
    outer loop
      vertex 4.64465 4.18207 57.5
      vertex 3.97582 3.57985 57.5
      vertex 4.32824 3.14465 57.5
    endloop
  endfacet
  facet normal 0 0 1
    outer loop
      vertex 3.57985 3.97582 57.5
      vertex 4.18207 4.64465 57.5
      vertex 3.67366 5.05636 57.5
    endloop
  endfacet
  facet normal 0 0 1
    outer loop
      vertex 4.18207 4.64465 57.5
      vertex 3.57985 3.97582 57.5
      vertex 3.97582 3.57985 57.5
    endloop
  endfacet
  facet normal 0 0 1
    outer loop
      vertex 3.67366 5.05636 57.5
      vertex 3.14465 4.32824 57.5
      vertex 3.57985 3.97582 57.5
    endloop
  endfacet
  facet normal 0 0 1
    outer loop
      vertex 3.125 5.41266 57.5
      vertex 3.14465 4.32824 57.5
      vertex 3.67366 5.05636 57.5
    endloop
  endfacet
  facet normal 0 0 1
    outer loop
      vertex 3.125 5.41266 57.5
      vertex 2.675 4.63323 57.5
      vertex 3.14465 4.32824 57.5
    endloop
  endfacet
  facet normal 0 0 1
    outer loop
      vertex 2.5421 5.70966 57.5
      vertex 2.675 4.63323 57.5
      vertex 3.125 5.41266 57.5
    endloop
  endfacet
  facet normal 0 0 1
    outer loop
      vertex 2.5421 5.70966 57.5
      vertex 2.17604 4.88747 57.5
      vertex 2.675 4.63323 57.5
    endloop
  endfacet
  facet normal 0 0 1
    outer loop
      vertex 1.93136 5.9441 57.5
      vertex 2.17604 4.88747 57.5
      vertex 2.5421 5.70966 57.5
    endloop
  endfacet
  facet normal 0 0 1
    outer loop
      vertex 1.93136 5.9441 57.5
      vertex 1.65324 5.08815 57.5
      vertex 2.17604 4.88747 57.5
    endloop
  endfacet
  facet normal 0 0 1
    outer loop
      vertex 1.29945 6.11342 57.5
      vertex 1.65324 5.08815 57.5
      vertex 1.93136 5.9441 57.5
    endloop
  endfacet
  facet normal 0 0 1
    outer loop
      vertex 1.29945 6.11342 57.5
      vertex 1.11233 5.23309 57.5
      vertex 1.65324 5.08815 57.5
    endloop
  endfacet
  facet normal 0 0 1
    outer loop
      vertex 0.653302 6.21576 57.5
      vertex 1.11233 5.23309 57.5
      vertex 1.29945 6.11342 57.5
    endloop
  endfacet
  facet normal 0 0 1
    outer loop
      vertex 0.653302 6.21576 57.5
      vertex 0.559227 5.32069 57.5
      vertex 1.11233 5.23309 57.5
    endloop
  endfacet
  facet normal 0 0 1
    outer loop
      vertex 0 6.25 57.5
      vertex 0.559227 5.32069 57.5
      vertex 0.653302 6.21576 57.5
    endloop
  endfacet
  facet normal 0 0 1
    outer loop
      vertex 0 6.25 57.5
      vertex 0 5.35 57.5
      vertex 0.559227 5.32069 57.5
    endloop
  endfacet
  facet normal 0 0 1
    outer loop
      vertex 0 6.25 57.5
      vertex -0.559227 5.32069 57.5
      vertex 0 5.35 57.5
    endloop
  endfacet
  facet normal -0 0 1
    outer loop
      vertex -0.653302 6.21576 57.5
      vertex -0.559227 5.32069 57.5
      vertex 0 6.25 57.5
    endloop
  endfacet
  facet normal 0 0 1
    outer loop
      vertex -0.653302 6.21576 57.5
      vertex -1.11233 5.23309 57.5
      vertex -0.559227 5.32069 57.5
    endloop
  endfacet
  facet normal -0 0 1
    outer loop
      vertex -1.29945 6.11342 57.5
      vertex -1.11233 5.23309 57.5
      vertex -0.653302 6.21576 57.5
    endloop
  endfacet
  facet normal 0 0 1
    outer loop
      vertex -1.29945 6.11342 57.5
      vertex -1.65324 5.08815 57.5
      vertex -1.11233 5.23309 57.5
    endloop
  endfacet
  facet normal -0 0 1
    outer loop
      vertex -1.93136 5.9441 57.5
      vertex -1.65324 5.08815 57.5
      vertex -1.29945 6.11342 57.5
    endloop
  endfacet
  facet normal 0 0 1
    outer loop
      vertex -1.93136 5.9441 57.5
      vertex -2.17604 4.88747 57.5
      vertex -1.65324 5.08815 57.5
    endloop
  endfacet
  facet normal -0 0 1
    outer loop
      vertex -2.5421 5.70966 57.5
      vertex -2.17604 4.88747 57.5
      vertex -1.93136 5.9441 57.5
    endloop
  endfacet
  facet normal 0 0 1
    outer loop
      vertex -2.5421 5.70966 57.5
      vertex -2.675 4.63323 57.5
      vertex -2.17604 4.88747 57.5
    endloop
  endfacet
  facet normal -0 0 1
    outer loop
      vertex -3.125 5.41266 57.5
      vertex -2.675 4.63323 57.5
      vertex -2.5421 5.70966 57.5
    endloop
  endfacet
  facet normal 0 0 1
    outer loop
      vertex -3.125 5.41266 57.5
      vertex -3.14465 4.32824 57.5
      vertex -2.675 4.63323 57.5
    endloop
  endfacet
  facet normal -0 0 1
    outer loop
      vertex -3.67366 5.05636 57.5
      vertex -3.14465 4.32824 57.5
      vertex -3.125 5.41266 57.5
    endloop
  endfacet
  facet normal 0 0 1
    outer loop
      vertex -3.14465 4.32824 57.5
      vertex -3.67366 5.05636 57.5
      vertex -3.57985 3.97582 57.5
    endloop
  endfacet
  facet normal -0 0 1
    outer loop
      vertex -4.18207 4.64465 57.5
      vertex -3.57985 3.97582 57.5
      vertex -3.67366 5.05636 57.5
    endloop
  endfacet
  facet normal 0 0 1
    outer loop
      vertex -3.57985 3.97582 57.5
      vertex -4.18207 4.64465 57.5
      vertex -3.97582 3.57985 57.5
    endloop
  endfacet
  facet normal -0 0 1
    outer loop
      vertex -4.64465 4.18207 57.5
      vertex -3.97582 3.57985 57.5
      vertex -4.18207 4.64465 57.5
    endloop
  endfacet
  facet normal 0 0 1
    outer loop
      vertex -3.97582 3.57985 57.5
      vertex -4.64465 4.18207 57.5
      vertex -4.32824 3.14465 57.5
    endloop
  endfacet
  facet normal -0 0 1
    outer loop
      vertex -5.05636 3.67366 57.5
      vertex -4.32824 3.14465 57.5
      vertex -4.64465 4.18207 57.5
    endloop
  endfacet
  facet normal 0 0 1
    outer loop
      vertex -4.32824 3.14465 57.5
      vertex -5.05636 3.67366 57.5
      vertex -4.63323 2.675 57.5
    endloop
  endfacet
  facet normal -0 0 1
    outer loop
      vertex -5.41266 3.125 57.5
      vertex -4.63323 2.675 57.5
      vertex -5.05636 3.67366 57.5
    endloop
  endfacet
  facet normal 0 0 1
    outer loop
      vertex -4.63323 2.675 57.5
      vertex -5.41266 3.125 57.5
      vertex -4.88747 2.17604 57.5
    endloop
  endfacet
  facet normal -0 0 1
    outer loop
      vertex -5.70966 2.5421 57.5
      vertex -4.88747 2.17604 57.5
      vertex -5.41266 3.125 57.5
    endloop
  endfacet
  facet normal 0 0 1
    outer loop
      vertex -4.88747 2.17604 57.5
      vertex -5.70966 2.5421 57.5
      vertex -5.08815 1.65324 57.5
    endloop
  endfacet
  facet normal 0 0 1
    outer loop
      vertex -5.08815 1.65324 57.5
      vertex -5.9441 1.93136 57.5
      vertex -5.23309 1.11233 57.5
    endloop
  endfacet
  facet normal -0 0 1
    outer loop
      vertex -5.9441 1.93136 57.5
      vertex -5.08815 1.65324 57.5
      vertex -5.70966 2.5421 57.5
    endloop
  endfacet
  facet normal 0 0 1
    outer loop
      vertex 6.21576 0.653302 57.5
      vertex 6.24 0 57.5
      vertex 6.25 0 57.5
    endloop
  endfacet
  facet normal -0 0 1
    outer loop
      vertex 5.34345 0.125 57.5
      vertex 6.24 0 57.5
      vertex 6.21576 0.653302 57.5
    endloop
  endfacet
  facet normal 0 0 1
    outer loop
      vertex 5.32069 0.559227 57.5
      vertex 6.21576 0.653302 57.5
      vertex 6.11342 1.29945 57.5
    endloop
  endfacet
  facet normal 0 0 1
    outer loop
      vertex 5.32069 0.559227 57.5
      vertex 6.11342 1.29945 57.5
      vertex 5.9441 1.93136 57.5
    endloop
  endfacet
  facet normal 0 0 1
    outer loop
      vertex 5.32069 0.559227 57.5
      vertex 5.9441 1.93136 57.5
      vertex 5.70966 2.5421 57.5
    endloop
  endfacet
  facet normal 0 0 1
    outer loop
      vertex 4.88747 2.17604 57.5
      vertex 5.70966 2.5421 57.5
      vertex 5.41266 3.125 57.5
    endloop
  endfacet
  facet normal 0 0 1
    outer loop
      vertex 6.24 0 57.5
      vertex 5.34345 0.125 57.5
      vertex 6.24 -1.125 57.5
    endloop
  endfacet
  facet normal 0 0 1
    outer loop
      vertex 4.24 -1.125 57.5
      vertex 5.34345 0.125 57.5
      vertex 4.24 0.125 57.5
    endloop
  endfacet
  facet normal 0 0 1
    outer loop
      vertex 5.34345 0.125 57.5
      vertex 4.24 -1.125 57.5
      vertex 6.24 -1.125 57.5
    endloop
  endfacet
  facet normal -0 0 1
    outer loop
      vertex -5.34345 0.125 57.5
      vertex -4.24 -1.125 57.5
      vertex -4.24 0.125 57.5
    endloop
  endfacet
  facet normal -0 0 1
    outer loop
      vertex -6.11342 1.29945 57.5
      vertex -5.23309 1.11233 57.5
      vertex -5.9441 1.93136 57.5
    endloop
  endfacet
  facet normal 0 0 1
    outer loop
      vertex -5.23309 1.11233 57.5
      vertex -6.11342 1.29945 57.5
      vertex -5.32069 0.559227 57.5
    endloop
  endfacet
  facet normal -0 0 1
    outer loop
      vertex -6.21576 0.653302 57.5
      vertex -5.32069 0.559227 57.5
      vertex -6.11342 1.29945 57.5
    endloop
  endfacet
  facet normal 0 0 1
    outer loop
      vertex -5.32069 0.559227 57.5
      vertex -6.21576 0.653302 57.5
      vertex -5.34345 0.125 57.5
    endloop
  endfacet
  facet normal 0 0 1
    outer loop
      vertex -6.24 0 57.5
      vertex -5.34345 0.125 57.5
      vertex -6.21576 0.653302 57.5
    endloop
  endfacet
  facet normal 0 0 1
    outer loop
      vertex -6.24 -1.125 57.5
      vertex -5.34345 0.125 57.5
      vertex -6.24 0 57.5
    endloop
  endfacet
  facet normal 0 0 1
    outer loop
      vertex -5.34345 0.125 57.5
      vertex -6.24 -1.125 57.5
      vertex -4.24 -1.125 57.5
    endloop
  endfacet
  facet normal 0 0 1
    outer loop
      vertex -6.21576 0.653302 57.5
      vertex -6.25 0 57.5
      vertex -6.24 0 57.5
    endloop
  endfacet
  facet normal -0.987688 0.156435 0
    outer loop
      vertex -6.21576 0.653302 -57.5
      vertex -6.11342 1.29945 57.5
      vertex -6.11342 1.29945 -57.5
    endloop
  endfacet
  facet normal -0.987688 0.156435 0
    outer loop
      vertex -6.11342 1.29945 57.5
      vertex -6.21576 0.653302 -57.5
      vertex -6.21576 0.653302 57.5
    endloop
  endfacet
  facet normal -0.544635 0.838673 0
    outer loop
      vertex -3.125 5.41266 -57.5
      vertex -3.67366 5.05636 57.5
      vertex -3.125 5.41266 57.5
    endloop
  endfacet
  facet normal -0.544635 0.838673 0
    outer loop
      vertex -3.67366 5.05636 57.5
      vertex -3.125 5.41266 -57.5
      vertex -3.67366 5.05636 -57.5
    endloop
  endfacet
  facet normal -0.258819 0.965926 0
    outer loop
      vertex -1.29945 6.11342 -57.5
      vertex -1.93136 5.9441 57.5
      vertex -1.29945 6.11342 57.5
    endloop
  endfacet
  facet normal -0.258819 0.965926 0
    outer loop
      vertex -1.93136 5.9441 57.5
      vertex -1.29945 6.11342 -57.5
      vertex -1.93136 5.9441 -57.5
    endloop
  endfacet
  facet normal -0.933583 -0.358362 0
    outer loop
      vertex 5.08815 1.65324 -57.5
      vertex 4.88747 2.17604 57.5
      vertex 4.88747 2.17604 -57.5
    endloop
  endfacet
  facet normal -0.933583 -0.358362 0
    outer loop
      vertex 4.88747 2.17604 57.5
      vertex 5.08815 1.65324 -57.5
      vertex 5.08815 1.65324 57.5
    endloop
  endfacet
  facet normal -0.891001 -0.454001 0
    outer loop
      vertex 4.88747 2.17604 -57.5
      vertex 4.63323 2.675 57.5
      vertex 4.63323 2.675 -57.5
    endloop
  endfacet
  facet normal -0.891001 -0.454001 0
    outer loop
      vertex 4.63323 2.675 57.5
      vertex 4.88747 2.17604 -57.5
      vertex 4.88747 2.17604 57.5
    endloop
  endfacet
  facet normal -0.358362 -0.933583 0
    outer loop
      vertex 1.65324 5.08815 -57.5
      vertex 2.17604 4.88747 57.5
      vertex 1.65324 5.08815 57.5
    endloop
  endfacet
  facet normal -0.358362 -0.933583 -0
    outer loop
      vertex 2.17604 4.88747 57.5
      vertex 1.65324 5.08815 -57.5
      vertex 2.17604 4.88747 -57.5
    endloop
  endfacet
  facet normal 0.358362 -0.933583 0
    outer loop
      vertex -2.17604 4.88747 -57.5
      vertex -1.65324 5.08815 57.5
      vertex -2.17604 4.88747 57.5
    endloop
  endfacet
  facet normal 0.358362 -0.933583 0
    outer loop
      vertex -1.65324 5.08815 57.5
      vertex -2.17604 4.88747 -57.5
      vertex -1.65324 5.08815 -57.5
    endloop
  endfacet
  facet normal 0.933583 -0.358362 0
    outer loop
      vertex -5.08815 1.65324 57.5
      vertex -4.88747 2.17604 -57.5
      vertex -4.88747 2.17604 57.5
    endloop
  endfacet
  facet normal 0.933583 -0.358362 0
    outer loop
      vertex -4.88747 2.17604 -57.5
      vertex -5.08815 1.65324 57.5
      vertex -5.08815 1.65324 -57.5
    endloop
  endfacet
  facet normal -0.0523398 -0.998629 0
    outer loop
      vertex 0 5.35 -57.5
      vertex 0.559227 5.32069 57.5
      vertex 0 5.35 57.5
    endloop
  endfacet
  facet normal -0.0523398 -0.998629 -0
    outer loop
      vertex 0.559227 5.32069 57.5
      vertex 0 5.35 -57.5
      vertex 0.559227 5.32069 -57.5
    endloop
  endfacet
  facet normal -0.544634 -0.838674 0
    outer loop
      vertex 2.675 4.63323 -57.5
      vertex 3.14465 4.32824 57.5
      vertex 2.675 4.63323 57.5
    endloop
  endfacet
  facet normal -0.544634 -0.838674 -0
    outer loop
      vertex 3.14465 4.32824 57.5
      vertex 2.675 4.63323 -57.5
      vertex 3.14465 4.32824 -57.5
    endloop
  endfacet
  facet normal 0.998629 -0.0523431 0
    outer loop
      vertex -5.34345 0.125 57.5
      vertex -5.32069 0.559227 -57.5
      vertex -5.32069 0.559227 57.5
    endloop
  endfacet
  facet normal 0.998629 -0.0523431 0
    outer loop
      vertex -5.32069 0.559227 -57.5
      vertex -5.34345 0.125 57.5
      vertex -5.34345 0.125 -57.5
    endloop
  endfacet
  facet normal 0.777144 -0.629323 0
    outer loop
      vertex -4.32824 3.14465 57.5
      vertex -3.97582 3.57985 -57.5
      vertex -3.97582 3.57985 57.5
    endloop
  endfacet
  facet normal 0.777144 -0.629323 0
    outer loop
      vertex -3.97582 3.57985 -57.5
      vertex -4.32824 3.14465 57.5
      vertex -4.32824 3.14465 -57.5
    endloop
  endfacet
  facet normal 0.258825 -0.965924 0
    outer loop
      vertex -1.65324 5.08815 -57.5
      vertex -1.11233 5.23309 57.5
      vertex -1.65324 5.08815 57.5
    endloop
  endfacet
  facet normal 0.258825 -0.965924 0
    outer loop
      vertex -1.11233 5.23309 57.5
      vertex -1.65324 5.08815 -57.5
      vertex -1.11233 5.23309 -57.5
    endloop
  endfacet
  facet normal -0.987689 -0.156429 0
    outer loop
      vertex 5.32069 0.559227 -57.5
      vertex 5.23309 1.11233 57.5
      vertex 5.23309 1.11233 -57.5
    endloop
  endfacet
  facet normal -0.987689 -0.156429 0
    outer loop
      vertex 5.23309 1.11233 57.5
      vertex 5.32069 0.559227 -57.5
      vertex 5.32069 0.559227 57.5
    endloop
  endfacet
  facet normal -0.965924 -0.258825 0
    outer loop
      vertex 5.23309 1.11233 -57.5
      vertex 5.08815 1.65324 57.5
      vertex 5.08815 1.65324 -57.5
    endloop
  endfacet
  facet normal -0.965924 -0.258825 0
    outer loop
      vertex 5.08815 1.65324 57.5
      vertex 5.23309 1.11233 -57.5
      vertex 5.23309 1.11233 57.5
    endloop
  endfacet
  facet normal -0.838674 -0.544634 0
    outer loop
      vertex 4.63323 2.675 -57.5
      vertex 4.32824 3.14465 57.5
      vertex 4.32824 3.14465 -57.5
    endloop
  endfacet
  facet normal -0.838674 -0.544634 0
    outer loop
      vertex 4.32824 3.14465 57.5
      vertex 4.63323 2.675 -57.5
      vertex 4.63323 2.675 57.5
    endloop
  endfacet
  facet normal -0.707107 -0.707107 0
    outer loop
      vertex 3.97582 3.57985 -57.5
      vertex 3.57985 3.97582 57.5
      vertex 3.57985 3.97582 -57.5
    endloop
  endfacet
  facet normal -0.707107 -0.707107 0
    outer loop
      vertex 3.57985 3.97582 57.5
      vertex 3.97582 3.57985 -57.5
      vertex 3.97582 3.57985 57.5
    endloop
  endfacet
  facet normal 0.0523398 -0.998629 0
    outer loop
      vertex -0.559227 5.32069 -57.5
      vertex 0 5.35 57.5
      vertex -0.559227 5.32069 57.5
    endloop
  endfacet
  facet normal 0.0523398 -0.998629 0
    outer loop
      vertex 0 5.35 57.5
      vertex -0.559227 5.32069 -57.5
      vertex 0 5.35 -57.5
    endloop
  endfacet
  facet normal -0.258825 -0.965924 0
    outer loop
      vertex 1.11233 5.23309 -57.5
      vertex 1.65324 5.08815 57.5
      vertex 1.11233 5.23309 57.5
    endloop
  endfacet
  facet normal -0.258825 -0.965924 -0
    outer loop
      vertex 1.65324 5.08815 57.5
      vertex 1.11233 5.23309 -57.5
      vertex 1.65324 5.08815 -57.5
    endloop
  endfacet
  facet normal -0.156429 -0.987689 0
    outer loop
      vertex 0.559227 5.32069 -57.5
      vertex 1.11233 5.23309 57.5
      vertex 0.559227 5.32069 57.5
    endloop
  endfacet
  facet normal -0.156429 -0.987689 -0
    outer loop
      vertex 1.11233 5.23309 57.5
      vertex 0.559227 5.32069 -57.5
      vertex 1.11233 5.23309 -57.5
    endloop
  endfacet
  facet normal -0.454001 -0.891001 0
    outer loop
      vertex 2.17604 4.88747 -57.5
      vertex 2.675 4.63323 57.5
      vertex 2.17604 4.88747 57.5
    endloop
  endfacet
  facet normal -0.454001 -0.891001 -0
    outer loop
      vertex 2.675 4.63323 57.5
      vertex 2.17604 4.88747 -57.5
      vertex 2.675 4.63323 -57.5
    endloop
  endfacet
  facet normal -0.629323 -0.777144 0
    outer loop
      vertex 3.14465 4.32824 -57.5
      vertex 3.57985 3.97582 57.5
      vertex 3.14465 4.32824 57.5
    endloop
  endfacet
  facet normal -0.629323 -0.777144 -0
    outer loop
      vertex 3.57985 3.97582 57.5
      vertex 3.14465 4.32824 -57.5
      vertex 3.57985 3.97582 -57.5
    endloop
  endfacet
  facet normal 0.965924 -0.258825 0
    outer loop
      vertex -5.23309 1.11233 57.5
      vertex -5.08815 1.65324 -57.5
      vertex -5.08815 1.65324 57.5
    endloop
  endfacet
  facet normal 0.965924 -0.258825 0
    outer loop
      vertex -5.08815 1.65324 -57.5
      vertex -5.23309 1.11233 57.5
      vertex -5.23309 1.11233 -57.5
    endloop
  endfacet
  facet normal 0.987689 -0.156429 0
    outer loop
      vertex -5.32069 0.559227 57.5
      vertex -5.23309 1.11233 -57.5
      vertex -5.23309 1.11233 57.5
    endloop
  endfacet
  facet normal 0.987689 -0.156429 0
    outer loop
      vertex -5.23309 1.11233 -57.5
      vertex -5.32069 0.559227 57.5
      vertex -5.32069 0.559227 -57.5
    endloop
  endfacet
  facet normal 0.891001 -0.454001 0
    outer loop
      vertex -4.88747 2.17604 57.5
      vertex -4.63323 2.675 -57.5
      vertex -4.63323 2.675 57.5
    endloop
  endfacet
  facet normal 0.891001 -0.454001 0
    outer loop
      vertex -4.63323 2.675 -57.5
      vertex -4.88747 2.17604 57.5
      vertex -4.88747 2.17604 -57.5
    endloop
  endfacet
  facet normal 0.838674 -0.544634 0
    outer loop
      vertex -4.63323 2.675 57.5
      vertex -4.32824 3.14465 -57.5
      vertex -4.32824 3.14465 57.5
    endloop
  endfacet
  facet normal 0.838674 -0.544634 0
    outer loop
      vertex -4.32824 3.14465 -57.5
      vertex -4.63323 2.675 57.5
      vertex -4.63323 2.675 -57.5
    endloop
  endfacet
  facet normal 0.156429 -0.987689 0
    outer loop
      vertex -1.11233 5.23309 -57.5
      vertex -0.559227 5.32069 57.5
      vertex -1.11233 5.23309 57.5
    endloop
  endfacet
  facet normal 0.156429 -0.987689 0
    outer loop
      vertex -0.559227 5.32069 57.5
      vertex -1.11233 5.23309 -57.5
      vertex -0.559227 5.32069 -57.5
    endloop
  endfacet
  facet normal 0.544634 -0.838674 0
    outer loop
      vertex -3.14465 4.32824 -57.5
      vertex -2.675 4.63323 57.5
      vertex -3.14465 4.32824 57.5
    endloop
  endfacet
  facet normal 0.544634 -0.838674 0
    outer loop
      vertex -2.675 4.63323 57.5
      vertex -3.14465 4.32824 -57.5
      vertex -2.675 4.63323 -57.5
    endloop
  endfacet
  facet normal 0.629323 -0.777144 0
    outer loop
      vertex -3.57985 3.97582 -57.5
      vertex -3.14465 4.32824 57.5
      vertex -3.57985 3.97582 57.5
    endloop
  endfacet
  facet normal 0.629323 -0.777144 0
    outer loop
      vertex -3.14465 4.32824 57.5
      vertex -3.57985 3.97582 -57.5
      vertex -3.14465 4.32824 -57.5
    endloop
  endfacet
  facet normal 0.454001 -0.891001 0
    outer loop
      vertex -2.675 4.63323 -57.5
      vertex -2.17604 4.88747 57.5
      vertex -2.675 4.63323 57.5
    endloop
  endfacet
  facet normal 0.454001 -0.891001 0
    outer loop
      vertex -2.17604 4.88747 57.5
      vertex -2.675 4.63323 -57.5
      vertex -2.17604 4.88747 -57.5
    endloop
  endfacet
  facet normal 0.707107 -0.707107 0
    outer loop
      vertex -3.97582 3.57985 57.5
      vertex -3.57985 3.97582 -57.5
      vertex -3.57985 3.97582 57.5
    endloop
  endfacet
  facet normal 0.707107 -0.707107 0
    outer loop
      vertex -3.57985 3.97582 -57.5
      vertex -3.97582 3.57985 57.5
      vertex -3.97582 3.57985 -57.5
    endloop
  endfacet
  facet normal -0.998629 -0.0523431 0
    outer loop
      vertex 5.34345 0.125 -57.5
      vertex 5.32069 0.559227 57.5
      vertex 5.32069 0.559227 -57.5
    endloop
  endfacet
  facet normal -0.998629 -0.0523431 0
    outer loop
      vertex 5.32069 0.559227 57.5
      vertex 5.34345 0.125 -57.5
      vertex 5.34345 0.125 57.5
    endloop
  endfacet
  facet normal -0.777144 -0.629323 0
    outer loop
      vertex 4.32824 3.14465 -57.5
      vertex 3.97582 3.57985 57.5
      vertex 3.97582 3.57985 -57.5
    endloop
  endfacet
  facet normal -0.777144 -0.629323 0
    outer loop
      vertex 3.97582 3.57985 57.5
      vertex 4.32824 3.14465 -57.5
      vertex 4.32824 3.14465 57.5
    endloop
  endfacet
  facet normal 0 -1 0
    outer loop
      vertex 6.24 0 -57.5
      vertex 6.25 0 57.5
      vertex 6.24 0 57.5
    endloop
  endfacet
  facet normal 0 -1 -0
    outer loop
      vertex 6.25 0 57.5
      vertex 6.24 0 -57.5
      vertex 6.25 0 -57.5
    endloop
  endfacet
  facet normal 0 -1 0
    outer loop
      vertex -6.25 0 -57.5
      vertex -6.24 0 57.5
      vertex -6.25 0 57.5
    endloop
  endfacet
  facet normal 0 -1 -0
    outer loop
      vertex -6.24 0 57.5
      vertex -6.25 0 -57.5
      vertex -6.24 0 -57.5
    endloop
  endfacet
  facet normal -1 0 0
    outer loop
      vertex -6.24 -1.125 -57.5
      vertex -6.24 0 57.5
      vertex -6.24 0 -57.5
    endloop
  endfacet
  facet normal -1 -0 0
    outer loop
      vertex -6.24 0 57.5
      vertex -6.24 -1.125 -57.5
      vertex -6.24 -1.125 57.5
    endloop
  endfacet
  facet normal 1 -0 0
    outer loop
      vertex -4.24 -1.125 57.5
      vertex -4.24 0.125 -57.5
      vertex -4.24 0.125 57.5
    endloop
  endfacet
  facet normal 1 0 0
    outer loop
      vertex -4.24 0.125 -57.5
      vertex -4.24 -1.125 57.5
      vertex -4.24 -1.125 -57.5
    endloop
  endfacet
  facet normal 0 -1 0
    outer loop
      vertex -6.24 -1.125 -57.5
      vertex -4.24 -1.125 57.5
      vertex -6.24 -1.125 57.5
    endloop
  endfacet
  facet normal 0 -1 -0
    outer loop
      vertex -4.24 -1.125 57.5
      vertex -6.24 -1.125 -57.5
      vertex -4.24 -1.125 -57.5
    endloop
  endfacet
  facet normal 0 1 -0
    outer loop
      vertex -4.24 0.125 -57.5
      vertex -5.34345 0.125 57.5
      vertex -4.24 0.125 57.5
    endloop
  endfacet
  facet normal 0 1 0
    outer loop
      vertex -5.34345 0.125 57.5
      vertex -4.24 0.125 -57.5
      vertex -5.34345 0.125 -57.5
    endloop
  endfacet
  facet normal -1 0 0
    outer loop
      vertex 4.24 -1.125 -57.5
      vertex 4.24 0.125 57.5
      vertex 4.24 0.125 -57.5
    endloop
  endfacet
  facet normal -1 -0 0
    outer loop
      vertex 4.24 0.125 57.5
      vertex 4.24 -1.125 -57.5
      vertex 4.24 -1.125 57.5
    endloop
  endfacet
  facet normal 1 -0 0
    outer loop
      vertex 6.24 -1.125 57.5
      vertex 6.24 0 -57.5
      vertex 6.24 0 57.5
    endloop
  endfacet
  facet normal 1 0 0
    outer loop
      vertex 6.24 0 -57.5
      vertex 6.24 -1.125 57.5
      vertex 6.24 -1.125 -57.5
    endloop
  endfacet
  facet normal 0 -1 0
    outer loop
      vertex 4.24 -1.125 -57.5
      vertex 6.24 -1.125 57.5
      vertex 4.24 -1.125 57.5
    endloop
  endfacet
  facet normal 0 -1 -0
    outer loop
      vertex 6.24 -1.125 57.5
      vertex 4.24 -1.125 -57.5
      vertex 6.24 -1.125 -57.5
    endloop
  endfacet
  facet normal 0 1 -0
    outer loop
      vertex 5.34345 0.125 -57.5
      vertex 4.24 0.125 57.5
      vertex 5.34345 0.125 57.5
    endloop
  endfacet
  facet normal 0 1 0
    outer loop
      vertex 4.24 0.125 57.5
      vertex 5.34345 0.125 -57.5
      vertex 4.24 0.125 -57.5
    endloop
  endfacet
endsolid OpenSCAD_Model
