<?xml version="1.0" encoding="UTF-8" standalone="no"?><!DOCTYPE svg PUBLIC "-//W3C//DTD SVG 1.1//EN" "http://www.w3.org/Graphics/SVG/1.1/DTD/svg11.dtd"><svg width="100%" height="100%" viewBox="0 0 373 129" version="1.1" xmlns="http://www.w3.org/2000/svg" xmlns:xlink="http://www.w3.org/1999/xlink" xml:space="preserve" xmlns:serif="http://www.serif.com/" style="fill-rule:evenodd;clip-rule:evenodd;stroke-linecap:round;stroke-linejoin:round;stroke-miterlimit:1.5;"><path id="Kundin" d="M328.068,4.944c21.425,-8.922 34.08,-2.368 39.511,16.933c1.162,8.38 0.216,15.768 -3.862,21.683c-1.221,4.077 2.445,10.044 7.39,12.889l-0.979,10.376l-33.003,0.53l-37.279,-0.676c-5.199,-0.813 -4.336,-4.999 -3.667,-9.519c1.429,2.858 -89.071,15.54 -95.11,16.928c-7.357,1.69 -21.519,7.055 -21.519,7.055l0.706,44.45l-26.811,-0.706l-29.201,-4.586l-20.461,6.703l-3.528,-44.802l17.639,-17.286c-0,-0 -64.969,-4.763 -83.961,-4.939c-10.078,-0.094 -24.576,4.057 -29.985,3.88c-1.84,-0.06 -3.705,-3.763 -2.47,-4.939c1.235,-1.176 9.878,-2.116 9.878,-2.116c-0,-0 -9.349,-4.41 -7.761,-5.997c1.587,-1.588 17.286,-3.528 17.286,-3.528c-0,-0 6.82,-9.055 10.23,-9.878c3.41,-0.823 8.467,6.35 8.467,6.35c16.729,2.014 35.599,-1.544 53.269,-9.878c13.904,0.387 27.99,0.857 31.397,-3.527l3.528,-2.823c21.065,-0.673 31.499,-8.38 38.452,-16.58c16.172,-3.091 30.289,-3.51 37.042,5.644c11.092,5.997 21.009,8.467 29.28,5.997l22.578,-8.819c10.203,-3.779 23.165,-6.644 31.749,-5.644c7.593,0.884 13.171,10.628 19.756,11.641l14.464,-10.23l6.975,-4.586Z" style="fill:none;stroke:#000;stroke-width:2px;"/></svg>