solid OpenSCAD_Model
  facet normal -1 0 0
    outer loop
      vertex -15 -15 -1
      vertex -15 15 1
      vertex -15 15 -1
    endloop
  endfacet
  facet normal -1 -0 0
    outer loop
      vertex -15 15 1
      vertex -15 -15 -1
      vertex -15 -15 1
    endloop
  endfacet
  facet normal -0 0 1
    outer loop
      vertex -15 15 1
      vertex 15 -15 1
      vertex 15 15 1
    endloop
  endfacet
  facet normal 0 0 1
    outer loop
      vertex 15 -15 1
      vertex -15 15 1
      vertex -15 -15 1
    endloop
  endfacet
  facet normal 1 -0 0
    outer loop
      vertex 15 -15 1
      vertex 15 15 0.968594
      vertex 15 15 1
    endloop
  endfacet
  facet normal 1 0 0
    outer loop
      vertex 15 15 0.968594
      vertex 15 -15 1
      vertex 15 -15 0.968594
    endloop
  endfacet
  facet normal 1 -0 0
    outer loop
      vertex 15 -15 -0.392383
      vertex 15 15 -1
      vertex 15 15 -0.392383
    endloop
  endfacet
  facet normal 1 0 0
    outer loop
      vertex 15 15 -1
      vertex 15 -15 -0.392383
      vertex 15 -15 -1
    endloop
  endfacet
  facet normal 0 0 -1
    outer loop
      vertex -3.75302 8.43634 -1
      vertex 15 15 -1
      vertex -3.75302 -8.43634 -1
    endloop
  endfacet
  facet normal 0 0 -1
    outer loop
      vertex 15 15 -1
      vertex -3.75302 8.43634 -1
      vertex -3 10 -1
    endloop
  endfacet
  facet normal 0 0 -1
    outer loop
      vertex -5.44504 -8.05014 -1
      vertex -3.75302 8.43634 -1
      vertex -3.75302 -8.43634 -1
    endloop
  endfacet
  facet normal 0 0 -1
    outer loop
      vertex -5.44504 -8.05014 -1
      vertex -5.44504 8.05014 -1
      vertex -3.75302 8.43634 -1
    endloop
  endfacet
  facet normal 0 0 -1
    outer loop
      vertex -6.80194 -9.13223 -1
      vertex -5.44504 8.05014 -1
      vertex -5.44504 -8.05014 -1
    endloop
  endfacet
  facet normal -0 0 -1
    outer loop
      vertex -5.44504 8.05014 -1
      vertex -6.80194 -9.13223 -1
      vertex -6.80194 9.13223 -1
    endloop
  endfacet
  facet normal 0 0 -1
    outer loop
      vertex -3.75302 -8.43634 -1
      vertex 15 -15 -1
      vertex -3 -10 -1
    endloop
  endfacet
  facet normal 0 0 -1
    outer loop
      vertex 15 -15 -1
      vertex -3.75302 -11.5637 -1
      vertex -3 -10 -1
    endloop
  endfacet
  facet normal 0 0 -1
    outer loop
      vertex 15 -15 -1
      vertex -5.44504 -11.9499 -1
      vertex -3.75302 -11.5637 -1
    endloop
  endfacet
  facet normal 0 0 -1
    outer loop
      vertex -15 -15 -1
      vertex -6.80194 -9.13223 -1
      vertex -6.80194 -10.8678 -1
    endloop
  endfacet
  facet normal -0 0 -1
    outer loop
      vertex -6.80194 -9.13223 -1
      vertex -15 -15 -1
      vertex -6.80194 9.13223 -1
    endloop
  endfacet
  facet normal 0 0 -1
    outer loop
      vertex -15 15 -1
      vertex -6.80194 9.13223 -1
      vertex -15 -15 -1
    endloop
  endfacet
  facet normal -0 0 -1
    outer loop
      vertex -5.44504 -11.9499 -1
      vertex -15 -15 -1
      vertex -6.80194 -10.8678 -1
    endloop
  endfacet
  facet normal 0 0 -1
    outer loop
      vertex -15 -15 -1
      vertex -5.44504 -11.9499 -1
      vertex 15 -15 -1
    endloop
  endfacet
  facet normal 0 0 -1
    outer loop
      vertex 15 -15 -1
      vertex -3.75302 -8.43634 -1
      vertex 15 15 -1
    endloop
  endfacet
  facet normal 0 0 -1
    outer loop
      vertex -3.75302 11.5637 -1
      vertex 15 15 -1
      vertex -3 10 -1
    endloop
  endfacet
  facet normal 0 0 -1
    outer loop
      vertex -5.44504 11.9499 -1
      vertex 15 15 -1
      vertex -3.75302 11.5637 -1
    endloop
  endfacet
  facet normal 0 0 -1
    outer loop
      vertex -5.44504 11.9499 -1
      vertex -15 15 -1
      vertex 15 15 -1
    endloop
  endfacet
  facet normal 0 0 -1
    outer loop
      vertex -6.80194 10.8678 -1
      vertex -15 15 -1
      vertex -5.44504 11.9499 -1
    endloop
  endfacet
  facet normal 0 0 -1
    outer loop
      vertex -6.80194 9.13223 -1
      vertex -15 15 -1
      vertex -6.80194 10.8678 -1
    endloop
  endfacet
  facet normal 0 -1 0
    outer loop
      vertex -15 -15 1
      vertex 15 -15 0.968594
      vertex 15 -15 1
    endloop
  endfacet
  facet normal 0 -1 0
    outer loop
      vertex -15 -15 1
      vertex 15 -15 -0.392383
      vertex 15 -15 0.968594
    endloop
  endfacet
  facet normal 0 -1 0
    outer loop
      vertex -15 -15 -1
      vertex 15 -15 -0.392383
      vertex -15 -15 1
    endloop
  endfacet
  facet normal 0 -1 -0
    outer loop
      vertex 15 -15 -0.392383
      vertex -15 -15 -1
      vertex 15 -15 -1
    endloop
  endfacet
  facet normal 0 -1 0
    outer loop
      vertex 42.7534 -15 11.07
      vertex 43 -15 9.03141
      vertex 43 -15 10.3924
    endloop
  endfacet
  facet normal 0 -1 0
    outer loop
      vertex 15 -15 0.968594
      vertex 43 -15 9.03141
      vertex 42.7534 -15 11.07
    endloop
  endfacet
  facet normal 0 -1 0
    outer loop
      vertex 15.2466 -15 -1.06999
      vertex 15 -15 0.968594
      vertex 15 -15 -0.392383
    endloop
  endfacet
  facet normal 0 -1 0
    outer loop
      vertex 15 -15 0.968594
      vertex 15.2466 -15 -1.06999
      vertex 43 -15 9.03141
    endloop
  endfacet
  facet normal 0 -1 0
    outer loop
      vertex 43 -15 10.3924
      vertex 73 -15 11
      vertex 43 -15 11
    endloop
  endfacet
  facet normal 0 -1 0
    outer loop
      vertex 73 -15 9
      vertex 43 -15 10.3924
      vertex 43 -15 9.03141
    endloop
  endfacet
  facet normal 0 -1 0
    outer loop
      vertex 73 -15 9
      vertex 43 -15 9.03141
      vertex 43 -15 9
    endloop
  endfacet
  facet normal 0 -1 0
    outer loop
      vertex 43 -15 10.3924
      vertex 73 -15 9
      vertex 73 -15 11
    endloop
  endfacet
  facet normal 0 1 0
    outer loop
      vertex 73 15 11
      vertex 43 15 10.3924
      vertex 43 15 11
    endloop
  endfacet
  facet normal 0 1 -0
    outer loop
      vertex 73 15 9
      vertex 43 15 10.3924
      vertex 73 15 11
    endloop
  endfacet
  facet normal 0 1 0
    outer loop
      vertex 43 15 10.3924
      vertex 73 15 9
      vertex 43 15 9.03141
    endloop
  endfacet
  facet normal 0 1 0
    outer loop
      vertex 43 15 9.03141
      vertex 73 15 9
      vertex 43 15 9
    endloop
  endfacet
  facet normal 0 1 -0
    outer loop
      vertex 43 15 9.03141
      vertex 42.7534 15 11.07
      vertex 43 15 10.3924
    endloop
  endfacet
  facet normal 0 1 0
    outer loop
      vertex 43 15 9.03141
      vertex 15 15 0.968594
      vertex 42.7534 15 11.07
    endloop
  endfacet
  facet normal 0 1 -0
    outer loop
      vertex 15.2466 15 -1.06999
      vertex 15 15 0.968594
      vertex 43 15 9.03141
    endloop
  endfacet
  facet normal 0 1 0
    outer loop
      vertex 15 15 0.968594
      vertex 15.2466 15 -1.06999
      vertex 15 15 -0.392383
    endloop
  endfacet
  facet normal 0 1 -0
    outer loop
      vertex 15 15 0.968594
      vertex -15 15 1
      vertex 15 15 1
    endloop
  endfacet
  facet normal 0 1 -0
    outer loop
      vertex 15 15 -0.392383
      vertex -15 15 1
      vertex 15 15 0.968594
    endloop
  endfacet
  facet normal 0 1 0
    outer loop
      vertex -15 15 -1
      vertex 15 15 -0.392383
      vertex 15 15 -1
    endloop
  endfacet
  facet normal 0 1 0
    outer loop
      vertex 15 15 -0.392383
      vertex -15 15 -1
      vertex -15 15 1
    endloop
  endfacet
  facet normal -0.939705 0 -0.341985
    outer loop
      vertex 15.2466 -15 -1.06999
      vertex 15 15 -0.392383
      vertex 15.2466 15 -1.06999
    endloop
  endfacet
  facet normal -0.939705 -0 -0.341985
    outer loop
      vertex 15 15 -0.392383
      vertex 15.2466 -15 -1.06999
      vertex 15 -15 -0.392383
    endloop
  endfacet
  facet normal 0.939704 -0 0.341988
    outer loop
      vertex 42.7534 -15 11.07
      vertex 43 15 10.3924
      vertex 42.7534 15 11.07
    endloop
  endfacet
  facet normal 0.939704 0 0.341988
    outer loop
      vertex 43 15 10.3924
      vertex 42.7534 -15 11.07
      vertex 43 -15 10.3924
    endloop
  endfacet
  facet normal -0.34202 0 0.939693
    outer loop
      vertex 15 15 0.968594
      vertex 42.7534 -15 11.07
      vertex 42.7534 15 11.07
    endloop
  endfacet
  facet normal -0.34202 0 0.939693
    outer loop
      vertex 42.7534 -15 11.07
      vertex 15 15 0.968594
      vertex 15 -15 0.968594
    endloop
  endfacet
  facet normal 0.34202 0 -0.939693
    outer loop
      vertex 15.2466 -15 -1.06999
      vertex 43 15 9.03141
      vertex 43 -15 9.03141
    endloop
  endfacet
  facet normal 0.34202 0 -0.939693
    outer loop
      vertex 43 15 9.03141
      vertex 15.2466 -15 -1.06999
      vertex 15.2466 15 -1.06999
    endloop
  endfacet
  facet normal -1 0 0
    outer loop
      vertex 43 -15 9
      vertex 43 15 9.03141
      vertex 43 15 9
    endloop
  endfacet
  facet normal -1 -0 0
    outer loop
      vertex 43 15 9.03141
      vertex 43 -15 9
      vertex 43 -15 9.03141
    endloop
  endfacet
  facet normal -1 0 0
    outer loop
      vertex 43 -15 10.3924
      vertex 43 15 11
      vertex 43 15 10.3924
    endloop
  endfacet
  facet normal -1 -0 0
    outer loop
      vertex 43 15 11
      vertex 43 -15 10.3924
      vertex 43 -15 11
    endloop
  endfacet
  facet normal -0 0 1
    outer loop
      vertex 43 15 11
      vertex 73 -15 11
      vertex 73 15 11
    endloop
  endfacet
  facet normal 0 0 1
    outer loop
      vertex 73 -15 11
      vertex 43 15 11
      vertex 43 -15 11
    endloop
  endfacet
  facet normal 1 -0 0
    outer loop
      vertex 73 -15 11
      vertex 73 15 9
      vertex 73 15 11
    endloop
  endfacet
  facet normal 1 0 0
    outer loop
      vertex 73 15 9
      vertex 73 -15 11
      vertex 73 -15 9
    endloop
  endfacet
  facet normal 0 0 -1
    outer loop
      vertex 61.247 8.43634 9
      vertex 73 15 9
      vertex 61.247 -8.43634 9
    endloop
  endfacet
  facet normal 0 0 -1
    outer loop
      vertex 73 15 9
      vertex 61.247 8.43634 9
      vertex 62 10 9
    endloop
  endfacet
  facet normal 0 0 -1
    outer loop
      vertex 59.555 -8.05014 9
      vertex 61.247 8.43634 9
      vertex 61.247 -8.43634 9
    endloop
  endfacet
  facet normal 0 0 -1
    outer loop
      vertex 59.555 -8.05014 9
      vertex 59.555 8.05014 9
      vertex 61.247 8.43634 9
    endloop
  endfacet
  facet normal 0 0 -1
    outer loop
      vertex 58.1981 -9.13223 9
      vertex 59.555 8.05014 9
      vertex 59.555 -8.05014 9
    endloop
  endfacet
  facet normal -0 0 -1
    outer loop
      vertex 59.555 8.05014 9
      vertex 58.1981 -9.13223 9
      vertex 58.1981 9.13223 9
    endloop
  endfacet
  facet normal 0 0 -1
    outer loop
      vertex 61.247 -8.43634 9
      vertex 73 -15 9
      vertex 62 -10 9
    endloop
  endfacet
  facet normal 0 0 -1
    outer loop
      vertex 73 -15 9
      vertex 61.247 -11.5637 9
      vertex 62 -10 9
    endloop
  endfacet
  facet normal 0 0 -1
    outer loop
      vertex 73 -15 9
      vertex 59.555 -11.9499 9
      vertex 61.247 -11.5637 9
    endloop
  endfacet
  facet normal 0 0 -1
    outer loop
      vertex 43 -15 9
      vertex 58.1981 -9.13223 9
      vertex 58.1981 -10.8678 9
    endloop
  endfacet
  facet normal -0 0 -1
    outer loop
      vertex 58.1981 -9.13223 9
      vertex 43 -15 9
      vertex 58.1981 9.13223 9
    endloop
  endfacet
  facet normal 0 0 -1
    outer loop
      vertex 43 15 9
      vertex 58.1981 9.13223 9
      vertex 43 -15 9
    endloop
  endfacet
  facet normal -0 0 -1
    outer loop
      vertex 59.555 -11.9499 9
      vertex 43 -15 9
      vertex 58.1981 -10.8678 9
    endloop
  endfacet
  facet normal 0 0 -1
    outer loop
      vertex 43 -15 9
      vertex 59.555 -11.9499 9
      vertex 73 -15 9
    endloop
  endfacet
  facet normal 0 0 -1
    outer loop
      vertex 73 -15 9
      vertex 61.247 -8.43634 9
      vertex 73 15 9
    endloop
  endfacet
  facet normal 0 0 -1
    outer loop
      vertex 61.247 11.5637 9
      vertex 73 15 9
      vertex 62 10 9
    endloop
  endfacet
  facet normal 0 0 -1
    outer loop
      vertex 59.555 11.9499 9
      vertex 73 15 9
      vertex 61.247 11.5637 9
    endloop
  endfacet
  facet normal 0 0 -1
    outer loop
      vertex 59.555 11.9499 9
      vertex 43 15 9
      vertex 73 15 9
    endloop
  endfacet
  facet normal 0 0 -1
    outer loop
      vertex 58.1981 10.8678 9
      vertex 43 15 9
      vertex 59.555 11.9499 9
    endloop
  endfacet
  facet normal 0 0 -1
    outer loop
      vertex 58.1981 9.13223 9
      vertex 43 15 9
      vertex 58.1981 10.8678 9
    endloop
  endfacet
  facet normal 0.900973 0.433875 0
    outer loop
      vertex -3 10 -1
      vertex -3.75302 11.5637 -20
      vertex -3.75302 11.5637 -1
    endloop
  endfacet
  facet normal 0.900973 0.433875 0
    outer loop
      vertex -3.75302 11.5637 -20
      vertex -3 10 -1
      vertex -3 10 -20
    endloop
  endfacet
  facet normal -1 0 0
    outer loop
      vertex -6.80194 9.13223 -20
      vertex -6.80194 10.8678 -1
      vertex -6.80194 10.8678 -20
    endloop
  endfacet
  facet normal -1 -0 0
    outer loop
      vertex -6.80194 10.8678 -1
      vertex -6.80194 9.13223 -20
      vertex -6.80194 9.13223 -1
    endloop
  endfacet
  facet normal 0.222525 0.974927 -0
    outer loop
      vertex -3.75302 11.5637 -20
      vertex -5.44504 11.9499 -1
      vertex -3.75302 11.5637 -1
    endloop
  endfacet
  facet normal 0.222525 0.974927 0
    outer loop
      vertex -5.44504 11.9499 -1
      vertex -3.75302 11.5637 -20
      vertex -5.44504 11.9499 -20
    endloop
  endfacet
  facet normal -0.623493 0.781829 0
    outer loop
      vertex -5.44504 11.9499 -20
      vertex -6.80194 10.8678 -1
      vertex -5.44504 11.9499 -1
    endloop
  endfacet
  facet normal -0.623493 0.781829 0
    outer loop
      vertex -6.80194 10.8678 -1
      vertex -5.44504 11.9499 -20
      vertex -6.80194 10.8678 -20
    endloop
  endfacet
  facet normal 0.900969 -0.433884 0
    outer loop
      vertex -3.75302 8.43634 -1
      vertex -3 10 -20
      vertex -3 10 -1
    endloop
  endfacet
  facet normal 0.900969 -0.433884 0
    outer loop
      vertex -3 10 -20
      vertex -3.75302 8.43634 -1
      vertex -3.75302 8.43634 -20
    endloop
  endfacet
  facet normal 0 0 -1
    outer loop
      vertex -3.75302 8.43634 -20
      vertex -3.75302 11.5637 -20
      vertex -3 10 -20
    endloop
  endfacet
  facet normal 0 0 -1
    outer loop
      vertex -5.44504 8.05014 -20
      vertex -3.75302 11.5637 -20
      vertex -3.75302 8.43634 -20
    endloop
  endfacet
  facet normal 0 0 -1
    outer loop
      vertex -5.44504 8.05014 -20
      vertex -5.44504 11.9499 -20
      vertex -3.75302 11.5637 -20
    endloop
  endfacet
  facet normal 0 0 -1
    outer loop
      vertex -6.80194 9.13223 -20
      vertex -5.44504 11.9499 -20
      vertex -5.44504 8.05014 -20
    endloop
  endfacet
  facet normal 0 0 -1
    outer loop
      vertex -5.44504 11.9499 -20
      vertex -6.80194 9.13223 -20
      vertex -6.80194 10.8678 -20
    endloop
  endfacet
  facet normal 0.222525 -0.974927 0
    outer loop
      vertex -5.44504 8.05014 -20
      vertex -3.75302 8.43634 -1
      vertex -5.44504 8.05014 -1
    endloop
  endfacet
  facet normal 0.222525 -0.974927 0
    outer loop
      vertex -3.75302 8.43634 -1
      vertex -5.44504 8.05014 -20
      vertex -3.75302 8.43634 -20
    endloop
  endfacet
  facet normal -0.623489 -0.781832 0
    outer loop
      vertex -6.80194 9.13223 -20
      vertex -5.44504 8.05014 -1
      vertex -6.80194 9.13223 -1
    endloop
  endfacet
  facet normal -0.623489 -0.781832 -0
    outer loop
      vertex -5.44504 8.05014 -1
      vertex -6.80194 9.13223 -20
      vertex -5.44504 8.05014 -20
    endloop
  endfacet
  facet normal 0.900969 0.433884 0
    outer loop
      vertex -3 -10 -1
      vertex -3.75302 -8.43634 -20
      vertex -3.75302 -8.43634 -1
    endloop
  endfacet
  facet normal 0.900969 0.433884 0
    outer loop
      vertex -3.75302 -8.43634 -20
      vertex -3 -10 -1
      vertex -3 -10 -20
    endloop
  endfacet
  facet normal -1 0 0
    outer loop
      vertex -6.80194 -10.8678 -20
      vertex -6.80194 -9.13223 -1
      vertex -6.80194 -9.13223 -20
    endloop
  endfacet
  facet normal -1 -0 0
    outer loop
      vertex -6.80194 -9.13223 -1
      vertex -6.80194 -10.8678 -20
      vertex -6.80194 -10.8678 -1
    endloop
  endfacet
  facet normal 0.222525 0.974927 -0
    outer loop
      vertex -3.75302 -8.43634 -20
      vertex -5.44504 -8.05014 -1
      vertex -3.75302 -8.43634 -1
    endloop
  endfacet
  facet normal 0.222525 0.974927 0
    outer loop
      vertex -5.44504 -8.05014 -1
      vertex -3.75302 -8.43634 -20
      vertex -5.44504 -8.05014 -20
    endloop
  endfacet
  facet normal -0.623493 -0.781829 0
    outer loop
      vertex -6.80194 -10.8678 -20
      vertex -5.44504 -11.9499 -1
      vertex -6.80194 -10.8678 -1
    endloop
  endfacet
  facet normal -0.623493 -0.781829 -0
    outer loop
      vertex -5.44504 -11.9499 -1
      vertex -6.80194 -10.8678 -20
      vertex -5.44504 -11.9499 -20
    endloop
  endfacet
  facet normal -0.623489 0.781832 0
    outer loop
      vertex -5.44504 -8.05014 -20
      vertex -6.80194 -9.13223 -1
      vertex -5.44504 -8.05014 -1
    endloop
  endfacet
  facet normal -0.623489 0.781832 0
    outer loop
      vertex -6.80194 -9.13223 -1
      vertex -5.44504 -8.05014 -20
      vertex -6.80194 -9.13223 -20
    endloop
  endfacet
  facet normal 0 0 -1
    outer loop
      vertex -3.75302 -11.5637 -20
      vertex -3.75302 -8.43634 -20
      vertex -3 -10 -20
    endloop
  endfacet
  facet normal 0 0 -1
    outer loop
      vertex -5.44504 -11.9499 -20
      vertex -3.75302 -8.43634 -20
      vertex -3.75302 -11.5637 -20
    endloop
  endfacet
  facet normal 0 0 -1
    outer loop
      vertex -5.44504 -11.9499 -20
      vertex -5.44504 -8.05014 -20
      vertex -3.75302 -8.43634 -20
    endloop
  endfacet
  facet normal 0 0 -1
    outer loop
      vertex -6.80194 -10.8678 -20
      vertex -5.44504 -8.05014 -20
      vertex -5.44504 -11.9499 -20
    endloop
  endfacet
  facet normal 0 0 -1
    outer loop
      vertex -5.44504 -8.05014 -20
      vertex -6.80194 -10.8678 -20
      vertex -6.80194 -9.13223 -20
    endloop
  endfacet
  facet normal 0.222525 -0.974927 0
    outer loop
      vertex -5.44504 -11.9499 -20
      vertex -3.75302 -11.5637 -1
      vertex -5.44504 -11.9499 -1
    endloop
  endfacet
  facet normal 0.222525 -0.974927 0
    outer loop
      vertex -3.75302 -11.5637 -1
      vertex -5.44504 -11.9499 -20
      vertex -3.75302 -11.5637 -20
    endloop
  endfacet
  facet normal 0.900973 -0.433875 0
    outer loop
      vertex -3.75302 -11.5637 -1
      vertex -3 -10 -20
      vertex -3 -10 -1
    endloop
  endfacet
  facet normal 0.900973 -0.433875 0
    outer loop
      vertex -3 -10 -20
      vertex -3.75302 -11.5637 -1
      vertex -3.75302 -11.5637 -20
    endloop
  endfacet
  facet normal 0.900977 0.433866 0
    outer loop
      vertex 62 10 9
      vertex 61.247 11.5637 -20
      vertex 61.247 11.5637 9
    endloop
  endfacet
  facet normal 0.900977 0.433866 0
    outer loop
      vertex 61.247 11.5637 -20
      vertex 62 10 9
      vertex 62 10 -20
    endloop
  endfacet
  facet normal -1 0 0
    outer loop
      vertex 58.1981 9.13223 -20
      vertex 58.1981 10.8678 9
      vertex 58.1981 10.8678 -20
    endloop
  endfacet
  facet normal -1 -0 0
    outer loop
      vertex 58.1981 10.8678 9
      vertex 58.1981 9.13223 -20
      vertex 58.1981 9.13223 9
    endloop
  endfacet
  facet normal 0.222528 0.974926 -0
    outer loop
      vertex 61.247 11.5637 -20
      vertex 59.555 11.9499 9
      vertex 61.247 11.5637 9
    endloop
  endfacet
  facet normal 0.222528 0.974926 0
    outer loop
      vertex 59.555 11.9499 9
      vertex 61.247 11.5637 -20
      vertex 59.555 11.9499 -20
    endloop
  endfacet
  facet normal -0.623493 0.781829 0
    outer loop
      vertex 59.555 11.9499 -20
      vertex 58.1981 10.8678 9
      vertex 59.555 11.9499 9
    endloop
  endfacet
  facet normal -0.623493 0.781829 0
    outer loop
      vertex 58.1981 10.8678 9
      vertex 59.555 11.9499 -20
      vertex 58.1981 10.8678 -20
    endloop
  endfacet
  facet normal 0.900973 -0.433875 0
    outer loop
      vertex 61.247 8.43634 9
      vertex 62 10 -20
      vertex 62 10 9
    endloop
  endfacet
  facet normal 0.900973 -0.433875 0
    outer loop
      vertex 62 10 -20
      vertex 61.247 8.43634 9
      vertex 61.247 8.43634 -20
    endloop
  endfacet
  facet normal 0 0 -1
    outer loop
      vertex 61.247 8.43634 -20
      vertex 61.247 11.5637 -20
      vertex 62 10 -20
    endloop
  endfacet
  facet normal 0 0 -1
    outer loop
      vertex 59.555 8.05014 -20
      vertex 61.247 11.5637 -20
      vertex 61.247 8.43634 -20
    endloop
  endfacet
  facet normal 0 0 -1
    outer loop
      vertex 59.555 8.05014 -20
      vertex 59.555 11.9499 -20
      vertex 61.247 11.5637 -20
    endloop
  endfacet
  facet normal 0 0 -1
    outer loop
      vertex 58.1981 9.13223 -20
      vertex 59.555 11.9499 -20
      vertex 59.555 8.05014 -20
    endloop
  endfacet
  facet normal 0 0 -1
    outer loop
      vertex 59.555 11.9499 -20
      vertex 58.1981 9.13223 -20
      vertex 58.1981 10.8678 -20
    endloop
  endfacet
  facet normal 0.222528 -0.974926 0
    outer loop
      vertex 59.555 8.05014 -20
      vertex 61.247 8.43634 9
      vertex 59.555 8.05014 9
    endloop
  endfacet
  facet normal 0.222528 -0.974926 0
    outer loop
      vertex 61.247 8.43634 9
      vertex 59.555 8.05014 -20
      vertex 61.247 8.43634 -20
    endloop
  endfacet
  facet normal -0.623489 -0.781832 0
    outer loop
      vertex 58.1981 9.13223 -20
      vertex 59.555 8.05014 9
      vertex 58.1981 9.13223 9
    endloop
  endfacet
  facet normal -0.623489 -0.781832 -0
    outer loop
      vertex 59.555 8.05014 9
      vertex 58.1981 9.13223 -20
      vertex 59.555 8.05014 -20
    endloop
  endfacet
  facet normal 0.900973 0.433875 0
    outer loop
      vertex 62 -10 9
      vertex 61.247 -8.43634 -20
      vertex 61.247 -8.43634 9
    endloop
  endfacet
  facet normal 0.900973 0.433875 0
    outer loop
      vertex 61.247 -8.43634 -20
      vertex 62 -10 9
      vertex 62 -10 -20
    endloop
  endfacet
  facet normal -1 0 0
    outer loop
      vertex 58.1981 -10.8678 -20
      vertex 58.1981 -9.13223 9
      vertex 58.1981 -9.13223 -20
    endloop
  endfacet
  facet normal -1 -0 0
    outer loop
      vertex 58.1981 -9.13223 9
      vertex 58.1981 -10.8678 -20
      vertex 58.1981 -10.8678 9
    endloop
  endfacet
  facet normal 0.222528 0.974926 -0
    outer loop
      vertex 61.247 -8.43634 -20
      vertex 59.555 -8.05014 9
      vertex 61.247 -8.43634 9
    endloop
  endfacet
  facet normal 0.222528 0.974926 0
    outer loop
      vertex 59.555 -8.05014 9
      vertex 61.247 -8.43634 -20
      vertex 59.555 -8.05014 -20
    endloop
  endfacet
  facet normal -0.623489 0.781832 0
    outer loop
      vertex 59.555 -8.05014 -20
      vertex 58.1981 -9.13223 9
      vertex 59.555 -8.05014 9
    endloop
  endfacet
  facet normal -0.623489 0.781832 0
    outer loop
      vertex 58.1981 -9.13223 9
      vertex 59.555 -8.05014 -20
      vertex 58.1981 -9.13223 -20
    endloop
  endfacet
  facet normal 0 0 -1
    outer loop
      vertex 61.247 -11.5637 -20
      vertex 61.247 -8.43634 -20
      vertex 62 -10 -20
    endloop
  endfacet
  facet normal 0 0 -1
    outer loop
      vertex 59.555 -11.9499 -20
      vertex 61.247 -8.43634 -20
      vertex 61.247 -11.5637 -20
    endloop
  endfacet
  facet normal 0 0 -1
    outer loop
      vertex 59.555 -11.9499 -20
      vertex 59.555 -8.05014 -20
      vertex 61.247 -8.43634 -20
    endloop
  endfacet
  facet normal 0 0 -1
    outer loop
      vertex 58.1981 -10.8678 -20
      vertex 59.555 -8.05014 -20
      vertex 59.555 -11.9499 -20
    endloop
  endfacet
  facet normal 0 0 -1
    outer loop
      vertex 59.555 -8.05014 -20
      vertex 58.1981 -10.8678 -20
      vertex 58.1981 -9.13223 -20
    endloop
  endfacet
  facet normal 0.222528 -0.974926 0
    outer loop
      vertex 59.555 -11.9499 -20
      vertex 61.247 -11.5637 9
      vertex 59.555 -11.9499 9
    endloop
  endfacet
  facet normal 0.222528 -0.974926 0
    outer loop
      vertex 61.247 -11.5637 9
      vertex 59.555 -11.9499 -20
      vertex 61.247 -11.5637 -20
    endloop
  endfacet
  facet normal -0.623493 -0.781829 0
    outer loop
      vertex 58.1981 -10.8678 -20
      vertex 59.555 -11.9499 9
      vertex 58.1981 -10.8678 9
    endloop
  endfacet
  facet normal -0.623493 -0.781829 -0
    outer loop
      vertex 59.555 -11.9499 9
      vertex 58.1981 -10.8678 -20
      vertex 59.555 -11.9499 -20
    endloop
  endfacet
  facet normal 0.900977 -0.433866 0
    outer loop
      vertex 61.247 -11.5637 9
      vertex 62 -10 -20
      vertex 62 -10 9
    endloop
  endfacet
  facet normal 0.900977 -0.433866 0
    outer loop
      vertex 62 -10 -20
      vertex 61.247 -11.5637 9
      vertex 61.247 -11.5637 -20
    endloop
  endfacet
endsolid OpenSCAD_Model
