<?xml version="1.0" encoding="UTF-8" standalone="no"?><!DOCTYPE svg PUBLIC "-//W3C//DTD SVG 1.1//EN" "http://www.w3.org/Graphics/SVG/1.1/DTD/svg11.dtd"><svg width="100%" height="100%" viewBox="0 0 146 342" version="1.1" xmlns="http://www.w3.org/2000/svg" xmlns:xlink="http://www.w3.org/1999/xlink" xml:space="preserve" xmlns:serif="http://www.serif.com/" style="fill-rule:evenodd;clip-rule:evenodd;stroke-linecap:round;stroke-linejoin:round;stroke-miterlimit:1.5;"><path id="Masseur" d="M44.75,2.916c24.441,-6.392 34.034,8.347 34.015,36.763c4.16,7.267 3.319,12.003 -1.764,18.494l-0.705,11.741c18.327,9.768 36.823,19.031 54.187,31.692c2.683,2.467 1.948,4.67 0.612,6.828c4.701,-4.132 8.848,-6.693 11.699,-5.583c0.502,5.52 -5.179,6.153 -7.979,12.843c-0.409,0.979 0.253,3.097 -0.073,4.296c4.384,-0.547 7.427,-1.247 9.96,-0.251c-1.501,3.188 -3.991,3.15 -9.256,3.516c-1.386,14.446 -5.118,23.318 -13.09,24.593c-9.58,-2.128 -14.131,-11.52 -15.244,-25.877l-14.696,-9.373l3.935,59.929c0,12.217 1.579,33.945 -0.079,41.948c-1.227,5.924 -5.822,-2.211 -5.822,6.832l0.237,51.071l-0.467,55.416l-4.514,-0.341c2.04,4.304 4.405,6.803 8.911,9.258c-0.173,7.231 -11.256,3.553 -21.521,0.693c-2.322,-1.331 -4.272,-4.766 -5.669,-11.338c-0.314,-1.979 -3.73,1.227 -3.729,-1.067c0.011,-24.195 -3.424,-70.603 -6.916,-101.554c-3.29,24.523 -6.549,64.898 -7.981,101.806c0.263,1.722 -3.373,-0.023 -3.876,1.699c-0.681,2.328 -0.588,7.894 -2.256,10.223c-9.127,4.353 -26.096,3.048 -28.76,2.02c-2.664,-1.028 12.774,-8.189 12.774,-8.189l-6.047,-4.611c-1.159,-29.253 1.536,-71.541 -2.091,-105.853l-10.019,-1.56l-1.32,-43.869l3.528,-30.463c-6.969,-14.647 -10.132,-31.672 -9.575,-51.023c-0.112,-7.506 2.044,-13.878 5.694,-19.503c5.475,-2.704 9.067,-4.235 16.424,-3.175c-1.24,-3.2 0.561,-12.05 -2.058,-12.05c-10.79,-0 -14.417,-8.853 -6.605,-16.296c-3.884,-18.686 -0.156,-31.538 12.045,-33.31c7.182,-6.037 9.966,-10.702 18.091,-6.375Z" style="fill:none;stroke:#000;stroke-width:2px;"/></svg>