solid OpenSCAD_Model
  facet normal 0.866024 0.500002 0
    outer loop
      vertex 9.59223 165.771 10.5
      vertex 8.49468 167.672 6.5
      vertex 8.49468 167.672 10.5
    endloop
  endfacet
  facet normal 0.866024 0.500002 0
    outer loop
      vertex 8.49468 167.672 6.5
      vertex 9.59223 165.771 10.5
      vertex 9.59223 165.771 6.5
    endloop
  endfacet
  facet normal 0.951078 0.30895 0
    outer loop
      vertex 10.2705 163.683 10.5
      vertex 9.59223 165.771 6.5
      vertex 9.59223 165.771 10.5
    endloop
  endfacet
  facet normal 0.951078 0.30895 0
    outer loop
      vertex 9.59223 165.771 6.5
      vertex 10.2705 163.683 10.5
      vertex 10.2705 163.683 6.5
    endloop
  endfacet
  facet normal 0.207743 0.978183 -0
    outer loop
      vertex 3.24468 171.486 6.5
      vertex 1.09755 171.942 10.5
      vertex 3.24468 171.486 10.5
    endloop
  endfacet
  facet normal 0.207743 0.978183 0
    outer loop
      vertex 1.09755 171.942 10.5
      vertex 3.24468 171.486 6.5
      vertex 1.09755 171.942 6.5
    endloop
  endfacet
  facet normal 0.406803 0.913516 -0
    outer loop
      vertex 5.25 170.593 6.5
      vertex 3.24468 171.486 10.5
      vertex 5.25 170.593 10.5
    endloop
  endfacet
  facet normal 0.406803 0.913516 0
    outer loop
      vertex 3.24468 171.486 10.5
      vertex 5.25 170.593 6.5
      vertex 3.24468 171.486 6.5
    endloop
  endfacet
  facet normal -0.406803 0.913516 0
    outer loop
      vertex -3.24468 171.486 6.5
      vertex -5.25 170.593 10.5
      vertex -3.24468 171.486 10.5
    endloop
  endfacet
  facet normal -0.406803 0.913516 0
    outer loop
      vertex -5.25 170.593 10.5
      vertex -3.24468 171.486 6.5
      vertex -5.25 170.593 6.5
    endloop
  endfacet
  facet normal -0.866024 0.500002 0
    outer loop
      vertex -9.59223 165.771 6.5
      vertex -8.49468 167.672 10.5
      vertex -8.49468 167.672 6.5
    endloop
  endfacet
  facet normal -0.866024 0.500002 0
    outer loop
      vertex -8.49468 167.672 10.5
      vertex -9.59223 165.771 6.5
      vertex -9.59223 165.771 10.5
    endloop
  endfacet
  facet normal -0.587712 0.80907 0
    outer loop
      vertex -5.25 170.593 6.5
      vertex -7.02587 169.303 10.5
      vertex -5.25 170.593 10.5
    endloop
  endfacet
  facet normal -0.587712 0.80907 0
    outer loop
      vertex -7.02587 169.303 10.5
      vertex -5.25 170.593 6.5
      vertex -7.02587 169.303 6.5
    endloop
  endfacet
  facet normal 0.994519 -0.104554 0
    outer loop
      vertex 10.2705 159.317 10.5
      vertex 10.5 161.5 6.5
      vertex 10.5 161.5 10.5
    endloop
  endfacet
  facet normal 0.994519 -0.104554 0
    outer loop
      vertex 10.5 161.5 6.5
      vertex 10.2705 159.317 10.5
      vertex 10.2705 159.317 6.5
    endloop
  endfacet
  facet normal 0.207743 -0.978183 0
    outer loop
      vertex 1.09755 151.058 6.5
      vertex 3.24468 151.514 10.5
      vertex 1.09755 151.058 10.5
    endloop
  endfacet
  facet normal 0.207743 -0.978183 0
    outer loop
      vertex 3.24468 151.514 10.5
      vertex 1.09755 151.058 6.5
      vertex 3.24468 151.514 6.5
    endloop
  endfacet
  facet normal 0.743088 0.669194 0
    outer loop
      vertex 8.49468 167.672 10.5
      vertex 7.02587 169.303 6.5
      vertex 7.02587 169.303 10.5
    endloop
  endfacet
  facet normal 0.743088 0.669194 0
    outer loop
      vertex 7.02587 169.303 6.5
      vertex 8.49468 167.672 10.5
      vertex 8.49468 167.672 6.5
    endloop
  endfacet
  facet normal 0 1 -0
    outer loop
      vertex 1.09755 171.942 6.5
      vertex -1.09755 171.942 10.5
      vertex 1.09755 171.942 10.5
    endloop
  endfacet
  facet normal 0 1 0
    outer loop
      vertex -1.09755 171.942 10.5
      vertex 1.09755 171.942 6.5
      vertex -1.09755 171.942 6.5
    endloop
  endfacet
  facet normal 0.587712 0.80907 -0
    outer loop
      vertex 7.02587 169.303 6.5
      vertex 5.25 170.593 10.5
      vertex 7.02587 169.303 10.5
    endloop
  endfacet
  facet normal 0.587712 0.80907 0
    outer loop
      vertex 5.25 170.593 10.5
      vertex 7.02587 169.303 6.5
      vertex 5.25 170.593 6.5
    endloop
  endfacet
  facet normal -0.994519 0.104554 0
    outer loop
      vertex -10.5 161.5 6.5
      vertex -10.2705 163.683 10.5
      vertex -10.2705 163.683 6.5
    endloop
  endfacet
  facet normal -0.994519 0.104554 0
    outer loop
      vertex -10.2705 163.683 10.5
      vertex -10.5 161.5 6.5
      vertex -10.5 161.5 10.5
    endloop
  endfacet
  facet normal -0.743088 0.669194 0
    outer loop
      vertex -8.49468 167.672 6.5
      vertex -7.02587 169.303 10.5
      vertex -7.02587 169.303 6.5
    endloop
  endfacet
  facet normal -0.743088 0.669194 0
    outer loop
      vertex -7.02587 169.303 10.5
      vertex -8.49468 167.672 6.5
      vertex -8.49468 167.672 10.5
    endloop
  endfacet
  facet normal -0.207743 0.978183 0
    outer loop
      vertex -1.09755 171.942 6.5
      vertex -3.24468 171.486 10.5
      vertex -1.09755 171.942 10.5
    endloop
  endfacet
  facet normal -0.207743 0.978183 0
    outer loop
      vertex -3.24468 171.486 10.5
      vertex -1.09755 171.942 6.5
      vertex -3.24468 171.486 6.5
    endloop
  endfacet
  facet normal 0.994519 0.104554 0
    outer loop
      vertex 10.5 161.5 10.5
      vertex 10.2705 163.683 6.5
      vertex 10.2705 163.683 10.5
    endloop
  endfacet
  facet normal 0.994519 0.104554 0
    outer loop
      vertex 10.2705 163.683 6.5
      vertex 10.5 161.5 10.5
      vertex 10.5 161.5 6.5
    endloop
  endfacet
  facet normal 0.587712 -0.80907 0
    outer loop
      vertex 5.25 152.407 6.5
      vertex 7.02587 153.697 10.5
      vertex 5.25 152.407 10.5
    endloop
  endfacet
  facet normal 0.587712 -0.80907 0
    outer loop
      vertex 7.02587 153.697 10.5
      vertex 5.25 152.407 6.5
      vertex 7.02587 153.697 6.5
    endloop
  endfacet
  facet normal 0.951078 -0.30895 0
    outer loop
      vertex 9.59223 157.229 10.5
      vertex 10.2705 159.317 6.5
      vertex 10.2705 159.317 10.5
    endloop
  endfacet
  facet normal 0.951078 -0.30895 0
    outer loop
      vertex 10.2705 159.317 6.5
      vertex 9.59223 157.229 10.5
      vertex 9.59223 157.229 6.5
    endloop
  endfacet
  facet normal -0.587712 -0.80907 0
    outer loop
      vertex -7.02587 153.697 6.5
      vertex -5.25 152.407 10.5
      vertex -7.02587 153.697 10.5
    endloop
  endfacet
  facet normal -0.587712 -0.80907 -0
    outer loop
      vertex -5.25 152.407 10.5
      vertex -7.02587 153.697 6.5
      vertex -5.25 152.407 6.5
    endloop
  endfacet
  facet normal -0.866024 -0.500002 0
    outer loop
      vertex -8.49468 155.328 6.5
      vertex -9.59223 157.229 10.5
      vertex -9.59223 157.229 6.5
    endloop
  endfacet
  facet normal -0.866024 -0.500002 0
    outer loop
      vertex -9.59223 157.229 10.5
      vertex -8.49468 155.328 6.5
      vertex -8.49468 155.328 10.5
    endloop
  endfacet
  facet normal 0 0 1
    outer loop
      vertex 9 161.5 11.5
      vertex 11.75 161.5 11.5
      vertex 11.4932 163.943 11.5
    endloop
  endfacet
  facet normal 0 0 1
    outer loop
      vertex 8.78958 163.435 11.5
      vertex 11.4932 163.943 11.5
      vertex 10.7342 166.279 11.5
    endloop
  endfacet
  facet normal 0 0 1
    outer loop
      vertex 11.75 161.5 11.5
      vertex 9 161.5 11.5
      vertex 11.4932 159.057 11.5
    endloop
  endfacet
  facet normal 0 0 1
    outer loop
      vertex 8.16818 165.279 11.5
      vertex 10.7342 166.279 11.5
      vertex 9.50595 168.406 11.5
    endloop
  endfacet
  facet normal -0 0 1
    outer loop
      vertex 8.78958 159.565 11.5
      vertex 11.4932 159.057 11.5
      vertex 9 161.5 11.5
    endloop
  endfacet
  facet normal 0 0 1
    outer loop
      vertex 11.4932 159.057 11.5
      vertex 8.78958 159.565 11.5
      vertex 10.7342 156.721 11.5
    endloop
  endfacet
  facet normal 0 0 1
    outer loop
      vertex 11.4932 163.943 11.5
      vertex 8.78958 163.435 11.5
      vertex 9 161.5 11.5
    endloop
  endfacet
  facet normal 0 0 1
    outer loop
      vertex 10.7342 166.279 11.5
      vertex 8.16818 165.279 11.5
      vertex 8.78958 163.435 11.5
    endloop
  endfacet
  facet normal 0 0 1
    outer loop
      vertex 7.16484 166.947 11.5
      vertex 9.50595 168.406 11.5
      vertex 7.86228 170.232 11.5
    endloop
  endfacet
  facet normal 0 0 1
    outer loop
      vertex 9.50595 168.406 11.5
      vertex 7.16484 166.947 11.5
      vertex 8.16818 165.279 11.5
    endloop
  endfacet
  facet normal 0 0 1
    outer loop
      vertex 5.82648 168.359 11.5
      vertex 7.86228 170.232 11.5
      vertex 5.875 171.676 11.5
    endloop
  endfacet
  facet normal 0 0 1
    outer loop
      vertex 7.86228 170.232 11.5
      vertex 5.82648 168.359 11.5
      vertex 7.16484 166.947 11.5
    endloop
  endfacet
  facet normal 0 0 1
    outer loop
      vertex 5.875 171.676 11.5
      vertex 4.21568 169.452 11.5
      vertex 5.82648 168.359 11.5
    endloop
  endfacet
  facet normal 0 0 1
    outer loop
      vertex 3.63095 172.675 11.5
      vertex 4.21568 169.452 11.5
      vertex 5.875 171.676 11.5
    endloop
  endfacet
  facet normal 0 0 1
    outer loop
      vertex 3.63095 172.675 11.5
      vertex 2.40775 170.172 11.5
      vertex 4.21568 169.452 11.5
    endloop
  endfacet
  facet normal 0 0 1
    outer loop
      vertex 1.22821 173.186 11.5
      vertex 2.40775 170.172 11.5
      vertex 3.63095 172.675 11.5
    endloop
  endfacet
  facet normal 0 0 1
    outer loop
      vertex 1.22821 173.186 11.5
      vertex 0.487249 170.487 11.5
      vertex 2.40775 170.172 11.5
    endloop
  endfacet
  facet normal -0 0 1
    outer loop
      vertex -1.22821 173.186 11.5
      vertex 0.487249 170.487 11.5
      vertex 1.22821 173.186 11.5
    endloop
  endfacet
  facet normal 0 0 1
    outer loop
      vertex -1.22821 173.186 11.5
      vertex -1.45604 170.381 11.5
      vertex 0.487249 170.487 11.5
    endloop
  endfacet
  facet normal -0 0 1
    outer loop
      vertex -3.63095 172.675 11.5
      vertex -1.45604 170.381 11.5
      vertex -1.22821 173.186 11.5
    endloop
  endfacet
  facet normal 0 0 1
    outer loop
      vertex -1.45604 170.381 11.5
      vertex -3.63095 172.675 11.5
      vertex -3.33124 169.861 11.5
    endloop
  endfacet
  facet normal -0 0 1
    outer loop
      vertex -5.875 171.676 11.5
      vertex -3.33124 169.861 11.5
      vertex -3.63095 172.675 11.5
    endloop
  endfacet
  facet normal 0 0 1
    outer loop
      vertex -3.33124 169.861 11.5
      vertex -5.875 171.676 11.5
      vertex -5.05068 168.949 11.5
    endloop
  endfacet
  facet normal -0 0 1
    outer loop
      vertex -7.86228 170.232 11.5
      vertex -5.05068 168.949 11.5
      vertex -5.875 171.676 11.5
    endloop
  endfacet
  facet normal 0 0 1
    outer loop
      vertex -5.05068 168.949 11.5
      vertex -7.86228 170.232 11.5
      vertex -6.53396 167.689 11.5
    endloop
  endfacet
  facet normal -0 0 1
    outer loop
      vertex -9.50595 168.406 11.5
      vertex -6.53396 167.689 11.5
      vertex -7.86228 170.232 11.5
    endloop
  endfacet
  facet normal 0 0 1
    outer loop
      vertex -6.53396 167.689 11.5
      vertex -9.50595 168.406 11.5
      vertex -7.71171 166.14 11.5
    endloop
  endfacet
  facet normal -0 0 1
    outer loop
      vertex -10.7342 166.279 11.5
      vertex -7.71171 166.14 11.5
      vertex -9.50595 168.406 11.5
    endloop
  endfacet
  facet normal 0 0 1
    outer loop
      vertex -11.4932 163.943 11.5
      vertex -8.52888 164.374 11.5
      vertex -10.7342 166.279 11.5
    endloop
  endfacet
  facet normal 0 0 1
    outer loop
      vertex -7.71171 166.14 11.5
      vertex -10.7342 166.279 11.5
      vertex -8.52888 164.374 11.5
    endloop
  endfacet
  facet normal -0 0 1
    outer loop
      vertex 8.16818 157.721 11.5
      vertex 10.7342 156.721 11.5
      vertex 8.78958 159.565 11.5
    endloop
  endfacet
  facet normal 0 0 1
    outer loop
      vertex 10.7342 156.721 11.5
      vertex 8.16818 157.721 11.5
      vertex 9.50595 154.594 11.5
    endloop
  endfacet
  facet normal -0 0 1
    outer loop
      vertex 7.16484 156.053 11.5
      vertex 9.50595 154.594 11.5
      vertex 8.16818 157.721 11.5
    endloop
  endfacet
  facet normal 0 0 1
    outer loop
      vertex 9.50595 154.594 11.5
      vertex 7.16484 156.053 11.5
      vertex 7.86228 152.768 11.5
    endloop
  endfacet
  facet normal -0 0 1
    outer loop
      vertex 5.82648 154.641 11.5
      vertex 7.86228 152.768 11.5
      vertex 7.16484 156.053 11.5
    endloop
  endfacet
  facet normal 0 0 1
    outer loop
      vertex 7.86228 152.768 11.5
      vertex 5.82648 154.641 11.5
      vertex 5.875 151.324 11.5
    endloop
  endfacet
  facet normal -0 0 1
    outer loop
      vertex 4.21568 153.548 11.5
      vertex 5.875 151.324 11.5
      vertex 5.82648 154.641 11.5
    endloop
  endfacet
  facet normal 0 0 1
    outer loop
      vertex 4.21568 153.548 11.5
      vertex 3.63095 150.325 11.5
      vertex 5.875 151.324 11.5
    endloop
  endfacet
  facet normal -0 0 1
    outer loop
      vertex 2.40775 152.828 11.5
      vertex 3.63095 150.325 11.5
      vertex 4.21568 153.548 11.5
    endloop
  endfacet
  facet normal 0 0 1
    outer loop
      vertex 2.40775 152.828 11.5
      vertex 1.22821 149.814 11.5
      vertex 3.63095 150.325 11.5
    endloop
  endfacet
  facet normal -0 0 1
    outer loop
      vertex 0.487249 152.513 11.5
      vertex 1.22821 149.814 11.5
      vertex 2.40775 152.828 11.5
    endloop
  endfacet
  facet normal 0 0 1
    outer loop
      vertex 0.487249 152.513 11.5
      vertex -1.22821 149.814 11.5
      vertex 1.22821 149.814 11.5
    endloop
  endfacet
  facet normal 0 0 1
    outer loop
      vertex -1.45604 152.619 11.5
      vertex -1.22821 149.814 11.5
      vertex 0.487249 152.513 11.5
    endloop
  endfacet
  facet normal 0 0 1
    outer loop
      vertex -3.63095 150.325 11.5
      vertex -1.45604 152.619 11.5
      vertex -3.33124 153.139 11.5
    endloop
  endfacet
  facet normal 0 0 1
    outer loop
      vertex -1.45604 152.619 11.5
      vertex -3.63095 150.325 11.5
      vertex -1.22821 149.814 11.5
    endloop
  endfacet
  facet normal 0 0 1
    outer loop
      vertex -5.875 151.324 11.5
      vertex -3.33124 153.139 11.5
      vertex -5.05068 154.051 11.5
    endloop
  endfacet
  facet normal 0 0 1
    outer loop
      vertex -3.33124 153.139 11.5
      vertex -5.875 151.324 11.5
      vertex -3.63095 150.325 11.5
    endloop
  endfacet
  facet normal 0 0 1
    outer loop
      vertex -7.86228 152.768 11.5
      vertex -5.05068 154.051 11.5
      vertex -6.53396 155.311 11.5
    endloop
  endfacet
  facet normal 0 0 1
    outer loop
      vertex -9.50595 154.594 11.5
      vertex -6.53396 155.311 11.5
      vertex -7.71171 156.86 11.5
    endloop
  endfacet
  facet normal 0 0 1
    outer loop
      vertex -5.05068 154.051 11.5
      vertex -7.86228 152.768 11.5
      vertex -5.875 151.324 11.5
    endloop
  endfacet
  facet normal 0 0 1
    outer loop
      vertex -10.7342 156.721 11.5
      vertex -7.71171 156.86 11.5
      vertex -8.52888 158.626 11.5
    endloop
  endfacet
  facet normal -0 0 1
    outer loop
      vertex -11.4932 159.057 11.5
      vertex -8.52888 158.626 11.5
      vertex -8.94724 160.527 11.5
    endloop
  endfacet
  facet normal 0 0 1
    outer loop
      vertex -6.53396 155.311 11.5
      vertex -9.50595 154.594 11.5
      vertex -7.86228 152.768 11.5
    endloop
  endfacet
  facet normal 0 0 1
    outer loop
      vertex -8.52888 164.374 11.5
      vertex -11.4932 163.943 11.5
      vertex -8.94724 162.473 11.5
    endloop
  endfacet
  facet normal 0 0 1
    outer loop
      vertex -11.75 161.5 11.5
      vertex -8.94724 162.473 11.5
      vertex -11.4932 163.943 11.5
    endloop
  endfacet
  facet normal 0 0 1
    outer loop
      vertex -7.71171 156.86 11.5
      vertex -10.7342 156.721 11.5
      vertex -9.50595 154.594 11.5
    endloop
  endfacet
  facet normal 0 0 1
    outer loop
      vertex -8.94724 162.473 11.5
      vertex -11.75 161.5 11.5
      vertex -8.94724 160.527 11.5
    endloop
  endfacet
  facet normal 0 0 1
    outer loop
      vertex -8.52888 158.626 11.5
      vertex -11.4932 159.057 11.5
      vertex -10.7342 156.721 11.5
    endloop
  endfacet
  facet normal 0 0 1
    outer loop
      vertex -8.94724 160.527 11.5
      vertex -11.75 161.5 11.5
      vertex -11.4932 159.057 11.5
    endloop
  endfacet
  facet normal -0.951078 0.30895 0
    outer loop
      vertex -10.2705 163.683 6.5
      vertex -9.59223 165.771 10.5
      vertex -9.59223 165.771 6.5
    endloop
  endfacet
  facet normal -0.951078 0.30895 0
    outer loop
      vertex -9.59223 165.771 10.5
      vertex -10.2705 163.683 6.5
      vertex -10.2705 163.683 10.5
    endloop
  endfacet
  facet normal -0.994519 -0.104554 0
    outer loop
      vertex -10.2705 159.317 6.5
      vertex -10.5 161.5 10.5
      vertex -10.5 161.5 6.5
    endloop
  endfacet
  facet normal -0.994519 -0.104554 0
    outer loop
      vertex -10.5 161.5 10.5
      vertex -10.2705 159.317 6.5
      vertex -10.2705 159.317 10.5
    endloop
  endfacet
  facet normal -0.743088 -0.669194 0
    outer loop
      vertex -7.02587 153.697 6.5
      vertex -8.49468 155.328 10.5
      vertex -8.49468 155.328 6.5
    endloop
  endfacet
  facet normal -0.743088 -0.669194 0
    outer loop
      vertex -8.49468 155.328 10.5
      vertex -7.02587 153.697 6.5
      vertex -7.02587 153.697 10.5
    endloop
  endfacet
  facet normal 0.406803 -0.913516 0
    outer loop
      vertex 3.24468 151.514 6.5
      vertex 5.25 152.407 10.5
      vertex 3.24468 151.514 10.5
    endloop
  endfacet
  facet normal 0.406803 -0.913516 0
    outer loop
      vertex 5.25 152.407 10.5
      vertex 3.24468 151.514 6.5
      vertex 5.25 152.407 6.5
    endloop
  endfacet
  facet normal 0.743088 -0.669194 0
    outer loop
      vertex 7.02587 153.697 10.5
      vertex 8.49468 155.328 6.5
      vertex 8.49468 155.328 10.5
    endloop
  endfacet
  facet normal 0.743088 -0.669194 0
    outer loop
      vertex 8.49468 155.328 6.5
      vertex 7.02587 153.697 10.5
      vertex 7.02587 153.697 6.5
    endloop
  endfacet
  facet normal 0.866024 -0.500002 0
    outer loop
      vertex 8.49468 155.328 10.5
      vertex 9.59223 157.229 6.5
      vertex 9.59223 157.229 10.5
    endloop
  endfacet
  facet normal 0.866024 -0.500002 0
    outer loop
      vertex 9.59223 157.229 6.5
      vertex 8.49468 155.328 10.5
      vertex 8.49468 155.328 6.5
    endloop
  endfacet
  facet normal -0.406803 -0.913516 0
    outer loop
      vertex -5.25 152.407 6.5
      vertex -3.24468 151.514 10.5
      vertex -5.25 152.407 10.5
    endloop
  endfacet
  facet normal -0.406803 -0.913516 -0
    outer loop
      vertex -3.24468 151.514 10.5
      vertex -5.25 152.407 6.5
      vertex -3.24468 151.514 6.5
    endloop
  endfacet
  facet normal 0 -1 0
    outer loop
      vertex -1.09755 151.058 6.5
      vertex 1.09755 151.058 10.5
      vertex -1.09755 151.058 10.5
    endloop
  endfacet
  facet normal 0 -1 -0
    outer loop
      vertex 1.09755 151.058 10.5
      vertex -1.09755 151.058 6.5
      vertex 1.09755 151.058 6.5
    endloop
  endfacet
  facet normal 0 0 -1
    outer loop
      vertex 9 161.5 6.5
      vertex 10.5 161.5 6.5
      vertex 10.2705 159.317 6.5
    endloop
  endfacet
  facet normal 0 0 -1
    outer loop
      vertex 8.78958 159.565 6.5
      vertex 10.2705 159.317 6.5
      vertex 9.59223 157.229 6.5
    endloop
  endfacet
  facet normal 0 0 -1
    outer loop
      vertex 10.5 161.5 6.5
      vertex 9 161.5 6.5
      vertex 10.2705 163.683 6.5
    endloop
  endfacet
  facet normal 0 0 -1
    outer loop
      vertex 8.78958 163.435 6.5
      vertex 10.2705 163.683 6.5
      vertex 9 161.5 6.5
    endloop
  endfacet
  facet normal 0 0 -1
    outer loop
      vertex 10.2705 159.317 6.5
      vertex 8.78958 159.565 6.5
      vertex 9 161.5 6.5
    endloop
  endfacet
  facet normal 0 0 -1
    outer loop
      vertex 8.16818 157.721 6.5
      vertex 9.59223 157.229 6.5
      vertex 8.49468 155.328 6.5
    endloop
  endfacet
  facet normal 0 0 -1
    outer loop
      vertex 9.59223 157.229 6.5
      vertex 8.16818 157.721 6.5
      vertex 8.78958 159.565 6.5
    endloop
  endfacet
  facet normal 0 0 -1
    outer loop
      vertex 8.49468 155.328 6.5
      vertex 7.16484 156.053 6.5
      vertex 8.16818 157.721 6.5
    endloop
  endfacet
  facet normal 0 0 -1
    outer loop
      vertex 7.02587 153.697 6.5
      vertex 7.16484 156.053 6.5
      vertex 8.49468 155.328 6.5
    endloop
  endfacet
  facet normal 0 0 -1
    outer loop
      vertex 7.02587 153.697 6.5
      vertex 5.82648 154.641 6.5
      vertex 7.16484 156.053 6.5
    endloop
  endfacet
  facet normal 0 0 -1
    outer loop
      vertex 5.25 152.407 6.5
      vertex 5.82648 154.641 6.5
      vertex 7.02587 153.697 6.5
    endloop
  endfacet
  facet normal 0 0 -1
    outer loop
      vertex 5.25 152.407 6.5
      vertex 4.21568 153.548 6.5
      vertex 5.82648 154.641 6.5
    endloop
  endfacet
  facet normal 0 0 -1
    outer loop
      vertex 3.24468 151.514 6.5
      vertex 4.21568 153.548 6.5
      vertex 5.25 152.407 6.5
    endloop
  endfacet
  facet normal 0 0 -1
    outer loop
      vertex 3.24468 151.514 6.5
      vertex 2.40775 152.828 6.5
      vertex 4.21568 153.548 6.5
    endloop
  endfacet
  facet normal 0 0 -1
    outer loop
      vertex 1.09755 151.058 6.5
      vertex 2.40775 152.828 6.5
      vertex 3.24468 151.514 6.5
    endloop
  endfacet
  facet normal 0 0 -1
    outer loop
      vertex 1.09755 151.058 6.5
      vertex 0.487249 152.513 6.5
      vertex 2.40775 152.828 6.5
    endloop
  endfacet
  facet normal 0 0 -1
    outer loop
      vertex -1.09755 151.058 6.5
      vertex 0.487249 152.513 6.5
      vertex 1.09755 151.058 6.5
    endloop
  endfacet
  facet normal 0 0 -1
    outer loop
      vertex -1.09755 151.058 6.5
      vertex -1.45604 152.619 6.5
      vertex 0.487249 152.513 6.5
    endloop
  endfacet
  facet normal 0 0 -1
    outer loop
      vertex -3.24468 151.514 6.5
      vertex -1.45604 152.619 6.5
      vertex -1.09755 151.058 6.5
    endloop
  endfacet
  facet normal 0 0 -1
    outer loop
      vertex -3.24468 151.514 6.5
      vertex -3.33124 153.139 6.5
      vertex -1.45604 152.619 6.5
    endloop
  endfacet
  facet normal 0 0 -1
    outer loop
      vertex -5.25 152.407 6.5
      vertex -3.33124 153.139 6.5
      vertex -3.24468 151.514 6.5
    endloop
  endfacet
  facet normal -0 0 -1
    outer loop
      vertex -3.33124 153.139 6.5
      vertex -5.25 152.407 6.5
      vertex -5.05068 154.051 6.5
    endloop
  endfacet
  facet normal 0 0 -1
    outer loop
      vertex -7.02587 153.697 6.5
      vertex -5.05068 154.051 6.5
      vertex -5.25 152.407 6.5
    endloop
  endfacet
  facet normal -0 0 -1
    outer loop
      vertex -5.05068 154.051 6.5
      vertex -7.02587 153.697 6.5
      vertex -6.53396 155.311 6.5
    endloop
  endfacet
  facet normal 0 0 -1
    outer loop
      vertex -8.49468 155.328 6.5
      vertex -6.53396 155.311 6.5
      vertex -7.02587 153.697 6.5
    endloop
  endfacet
  facet normal 0 0 -1
    outer loop
      vertex -6.53396 155.311 6.5
      vertex -8.49468 155.328 6.5
      vertex -7.71171 156.86 6.5
    endloop
  endfacet
  facet normal 0 0 -1
    outer loop
      vertex -9.59223 157.229 6.5
      vertex -7.71171 156.86 6.5
      vertex -8.49468 155.328 6.5
    endloop
  endfacet
  facet normal 0 0 -1
    outer loop
      vertex -7.71171 156.86 6.5
      vertex -9.59223 157.229 6.5
      vertex -8.52888 158.626 6.5
    endloop
  endfacet
  facet normal 0 0 -1
    outer loop
      vertex -8.52888 158.626 6.5
      vertex -10.2705 159.317 6.5
      vertex -8.94724 160.527 6.5
    endloop
  endfacet
  facet normal 0 0 -1
    outer loop
      vertex -10.2705 159.317 6.5
      vertex -8.52888 158.626 6.5
      vertex -9.59223 157.229 6.5
    endloop
  endfacet
  facet normal -0 0 -1
    outer loop
      vertex 10.2705 163.683 6.5
      vertex 8.78958 163.435 6.5
      vertex 9.59223 165.771 6.5
    endloop
  endfacet
  facet normal 0 0 -1
    outer loop
      vertex 8.16818 165.279 6.5
      vertex 9.59223 165.771 6.5
      vertex 8.78958 163.435 6.5
    endloop
  endfacet
  facet normal -0 0 -1
    outer loop
      vertex 9.59223 165.771 6.5
      vertex 8.16818 165.279 6.5
      vertex 8.49468 167.672 6.5
    endloop
  endfacet
  facet normal 0 0 -1
    outer loop
      vertex 7.16484 166.947 6.5
      vertex 8.49468 167.672 6.5
      vertex 8.16818 165.279 6.5
    endloop
  endfacet
  facet normal 0 0 -1
    outer loop
      vertex 7.16484 166.947 6.5
      vertex 7.02587 169.303 6.5
      vertex 8.49468 167.672 6.5
    endloop
  endfacet
  facet normal 0 0 -1
    outer loop
      vertex 5.82648 168.359 6.5
      vertex 7.02587 169.303 6.5
      vertex 7.16484 166.947 6.5
    endloop
  endfacet
  facet normal 0 0 -1
    outer loop
      vertex 5.82648 168.359 6.5
      vertex 5.25 170.593 6.5
      vertex 7.02587 169.303 6.5
    endloop
  endfacet
  facet normal 0 0 -1
    outer loop
      vertex 4.21568 169.452 6.5
      vertex 5.25 170.593 6.5
      vertex 5.82648 168.359 6.5
    endloop
  endfacet
  facet normal 0 0 -1
    outer loop
      vertex 4.21568 169.452 6.5
      vertex 3.24468 171.486 6.5
      vertex 5.25 170.593 6.5
    endloop
  endfacet
  facet normal 0 0 -1
    outer loop
      vertex 2.40775 170.172 6.5
      vertex 3.24468 171.486 6.5
      vertex 4.21568 169.452 6.5
    endloop
  endfacet
  facet normal 0 0 -1
    outer loop
      vertex 2.40775 170.172 6.5
      vertex 1.09755 171.942 6.5
      vertex 3.24468 171.486 6.5
    endloop
  endfacet
  facet normal 0 0 -1
    outer loop
      vertex 0.487249 170.487 6.5
      vertex 1.09755 171.942 6.5
      vertex 2.40775 170.172 6.5
    endloop
  endfacet
  facet normal 0 0 -1
    outer loop
      vertex 0.487249 170.487 6.5
      vertex -1.09755 171.942 6.5
      vertex 1.09755 171.942 6.5
    endloop
  endfacet
  facet normal 0 0 -1
    outer loop
      vertex -1.45604 170.381 6.5
      vertex -1.09755 171.942 6.5
      vertex 0.487249 170.487 6.5
    endloop
  endfacet
  facet normal 0 0 -1
    outer loop
      vertex -1.45604 170.381 6.5
      vertex -3.24468 171.486 6.5
      vertex -1.09755 171.942 6.5
    endloop
  endfacet
  facet normal 0 0 -1
    outer loop
      vertex -3.33124 169.861 6.5
      vertex -3.24468 171.486 6.5
      vertex -1.45604 170.381 6.5
    endloop
  endfacet
  facet normal 0 0 -1
    outer loop
      vertex -5.25 170.593 6.5
      vertex -3.33124 169.861 6.5
      vertex -5.05068 168.949 6.5
    endloop
  endfacet
  facet normal 0 0 -1
    outer loop
      vertex -3.33124 169.861 6.5
      vertex -5.25 170.593 6.5
      vertex -3.24468 171.486 6.5
    endloop
  endfacet
  facet normal 0 0 -1
    outer loop
      vertex -7.02587 169.303 6.5
      vertex -5.05068 168.949 6.5
      vertex -6.53396 167.689 6.5
    endloop
  endfacet
  facet normal 0 0 -1
    outer loop
      vertex -5.05068 168.949 6.5
      vertex -7.02587 169.303 6.5
      vertex -5.25 170.593 6.5
    endloop
  endfacet
  facet normal 0 0 -1
    outer loop
      vertex -8.49468 167.672 6.5
      vertex -6.53396 167.689 6.5
      vertex -7.71171 166.14 6.5
    endloop
  endfacet
  facet normal -0 0 -1
    outer loop
      vertex -6.53396 167.689 6.5
      vertex -8.49468 167.672 6.5
      vertex -7.02587 169.303 6.5
    endloop
  endfacet
  facet normal 0 0 -1
    outer loop
      vertex -9.59223 165.771 6.5
      vertex -7.71171 166.14 6.5
      vertex -8.52888 164.374 6.5
    endloop
  endfacet
  facet normal 0 0 -1
    outer loop
      vertex -10.2705 163.683 6.5
      vertex -8.52888 164.374 6.5
      vertex -8.94724 162.473 6.5
    endloop
  endfacet
  facet normal 0 0 -1
    outer loop
      vertex -10.5 161.5 6.5
      vertex -8.94724 160.527 6.5
      vertex -10.2705 159.317 6.5
    endloop
  endfacet
  facet normal -0 0 -1
    outer loop
      vertex -7.71171 166.14 6.5
      vertex -9.59223 165.771 6.5
      vertex -8.49468 167.672 6.5
    endloop
  endfacet
  facet normal 0 0 -1
    outer loop
      vertex -8.94724 160.527 6.5
      vertex -10.5 161.5 6.5
      vertex -8.94724 162.473 6.5
    endloop
  endfacet
  facet normal -0 0 -1
    outer loop
      vertex -8.52888 164.374 6.5
      vertex -10.2705 163.683 6.5
      vertex -9.59223 165.771 6.5
    endloop
  endfacet
  facet normal -0 0 -1
    outer loop
      vertex -8.94724 162.473 6.5
      vertex -10.5 161.5 6.5
      vertex -10.2705 163.683 6.5
    endloop
  endfacet
  facet normal -0.951078 -0.30895 0
    outer loop
      vertex -9.59223 157.229 6.5
      vertex -10.2705 159.317 10.5
      vertex -10.2705 159.317 6.5
    endloop
  endfacet
  facet normal -0.951078 -0.30895 0
    outer loop
      vertex -10.2705 159.317 10.5
      vertex -9.59223 157.229 6.5
      vertex -9.59223 157.229 10.5
    endloop
  endfacet
  facet normal -0.207743 -0.978183 0
    outer loop
      vertex -3.24468 151.514 6.5
      vertex -1.09755 151.058 10.5
      vertex -3.24468 151.514 10.5
    endloop
  endfacet
  facet normal -0.207743 -0.978183 -0
    outer loop
      vertex -1.09755 151.058 10.5
      vertex -3.24468 151.514 6.5
      vertex -1.09755 151.058 6.5
    endloop
  endfacet
  facet normal -0.994139 -0.108107 0
    outer loop
      vertex 9 161.5 6.5
      vertex 8.78958 163.435 11.5
      vertex 8.78958 163.435 6.5
    endloop
  endfacet
  facet normal -0.994139 -0.108107 0
    outer loop
      vertex 8.78958 163.435 11.5
      vertex 9 161.5 6.5
      vertex 9 161.5 11.5
    endloop
  endfacet
  facet normal -0.856917 -0.515455 0
    outer loop
      vertex 8.16818 165.279 6.5
      vertex 7.16484 166.947 11.5
      vertex 7.16484 166.947 6.5
    endloop
  endfacet
  facet normal -0.856917 -0.515455 0
    outer loop
      vertex 7.16484 166.947 11.5
      vertex 8.16818 165.279 6.5
      vertex 8.16818 165.279 11.5
    endloop
  endfacet
  facet normal -0.94764 -0.31934 0
    outer loop
      vertex 8.78958 163.435 6.5
      vertex 8.16818 165.279 11.5
      vertex 8.16818 165.279 6.5
    endloop
  endfacet
  facet normal -0.94764 -0.31934 0
    outer loop
      vertex 8.16818 165.279 11.5
      vertex 8.78958 163.435 6.5
      vertex 8.78958 163.435 11.5
    endloop
  endfacet
  facet normal -0.369985 -0.929038 0
    outer loop
      vertex 2.40775 170.172 6.5
      vertex 4.21568 169.452 11.5
      vertex 2.40775 170.172 11.5
    endloop
  endfacet
  facet normal -0.369985 -0.929038 -0
    outer loop
      vertex 4.21568 169.452 11.5
      vertex 2.40775 170.172 6.5
      vertex 4.21568 169.452 6.5
    endloop
  endfacet
  facet normal 0.26722 -0.963636 0
    outer loop
      vertex -3.33124 169.861 6.5
      vertex -1.45604 170.381 11.5
      vertex -3.33124 169.861 11.5
    endloop
  endfacet
  facet normal 0.26722 -0.963636 0
    outer loop
      vertex -1.45604 170.381 11.5
      vertex -3.33124 169.861 6.5
      vertex -1.45604 170.381 6.5
    endloop
  endfacet
  facet normal 0.90755 -0.419945 0
    outer loop
      vertex -8.52888 164.374 11.5
      vertex -7.71171 166.14 6.5
      vertex -7.71171 166.14 11.5
    endloop
  endfacet
  facet normal 0.90755 -0.419945 0
    outer loop
      vertex -7.71171 166.14 6.5
      vertex -8.52888 164.374 11.5
      vertex -8.52888 164.374 6.5
    endloop
  endfacet
  facet normal -0.369985 0.929038 0
    outer loop
      vertex 4.21568 153.548 6.5
      vertex 2.40775 152.828 11.5
      vertex 4.21568 153.548 11.5
    endloop
  endfacet
  facet normal -0.369985 0.929038 0
    outer loop
      vertex 2.40775 152.828 11.5
      vertex 4.21568 153.548 6.5
      vertex 2.40775 152.828 6.5
    endloop
  endfacet
  facet normal -0.725779 -0.687928 0
    outer loop
      vertex 7.16484 166.947 6.5
      vertex 5.82648 168.359 11.5
      vertex 5.82648 168.359 6.5
    endloop
  endfacet
  facet normal -0.725779 -0.687928 0
    outer loop
      vertex 5.82648 168.359 11.5
      vertex 7.16484 166.947 6.5
      vertex 7.16484 166.947 11.5
    endloop
  endfacet
  facet normal 0.0544657 -0.998516 0
    outer loop
      vertex -1.45604 170.381 6.5
      vertex 0.487249 170.487 11.5
      vertex -1.45604 170.381 11.5
    endloop
  endfacet
  facet normal 0.0544657 -0.998516 0
    outer loop
      vertex 0.487249 170.487 11.5
      vertex -1.45604 170.381 6.5
      vertex 0.487249 170.487 6.5
    endloop
  endfacet
  facet normal -0.561486 -0.827486 0
    outer loop
      vertex 4.21568 169.452 6.5
      vertex 5.82648 168.359 11.5
      vertex 4.21568 169.452 11.5
    endloop
  endfacet
  facet normal -0.561486 -0.827486 -0
    outer loop
      vertex 5.82648 168.359 11.5
      vertex 4.21568 169.452 6.5
      vertex 5.82648 168.359 6.5
    endloop
  endfacet
  facet normal 1 -0 0
    outer loop
      vertex -8.94724 160.527 11.5
      vertex -8.94724 162.473 6.5
      vertex -8.94724 162.473 11.5
    endloop
  endfacet
  facet normal 1 0 0
    outer loop
      vertex -8.94724 162.473 6.5
      vertex -8.94724 160.527 11.5
      vertex -8.94724 160.527 6.5
    endloop
  endfacet
  facet normal 0.796036 -0.605249 0
    outer loop
      vertex -7.71171 166.14 11.5
      vertex -6.53396 167.689 6.5
      vertex -6.53396 167.689 11.5
    endloop
  endfacet
  facet normal 0.796036 -0.605249 0
    outer loop
      vertex -6.53396 167.689 6.5
      vertex -7.71171 166.14 11.5
      vertex -7.71171 166.14 6.5
    endloop
  endfacet
  facet normal 0.468573 -0.883425 0
    outer loop
      vertex -5.05068 168.949 6.5
      vertex -3.33124 169.861 11.5
      vertex -5.05068 168.949 11.5
    endloop
  endfacet
  facet normal 0.468573 -0.883425 0
    outer loop
      vertex -3.33124 169.861 11.5
      vertex -5.05068 168.949 6.5
      vertex -3.33124 169.861 6.5
    endloop
  endfacet
  facet normal 0.647413 -0.762139 0
    outer loop
      vertex -6.53396 167.689 6.5
      vertex -5.05068 168.949 11.5
      vertex -6.53396 167.689 11.5
    endloop
  endfacet
  facet normal 0.647413 -0.762139 0
    outer loop
      vertex -5.05068 168.949 11.5
      vertex -6.53396 167.689 6.5
      vertex -5.05068 168.949 6.5
    endloop
  endfacet
  facet normal -0.94764 0.31934 0
    outer loop
      vertex 8.16818 157.721 6.5
      vertex 8.78958 159.565 11.5
      vertex 8.78958 159.565 6.5
    endloop
  endfacet
  facet normal -0.94764 0.31934 0
    outer loop
      vertex 8.78958 159.565 11.5
      vertex 8.16818 157.721 6.5
      vertex 8.16818 157.721 11.5
    endloop
  endfacet
  facet normal 0.0544657 0.998516 -0
    outer loop
      vertex 0.487249 152.513 6.5
      vertex -1.45604 152.619 11.5
      vertex 0.487249 152.513 11.5
    endloop
  endfacet
  facet normal 0.0544657 0.998516 0
    outer loop
      vertex -1.45604 152.619 11.5
      vertex 0.487249 152.513 6.5
      vertex -1.45604 152.619 6.5
    endloop
  endfacet
  facet normal 0.976629 0.21493 0
    outer loop
      vertex -8.52888 158.626 11.5
      vertex -8.94724 160.527 6.5
      vertex -8.94724 160.527 11.5
    endloop
  endfacet
  facet normal 0.976629 0.21493 0
    outer loop
      vertex -8.94724 160.527 6.5
      vertex -8.52888 158.626 11.5
      vertex -8.52888 158.626 6.5
    endloop
  endfacet
  facet normal -0.725779 0.687928 0
    outer loop
      vertex 5.82648 154.641 6.5
      vertex 7.16484 156.053 11.5
      vertex 7.16484 156.053 6.5
    endloop
  endfacet
  facet normal -0.725779 0.687928 0
    outer loop
      vertex 7.16484 156.053 11.5
      vertex 5.82648 154.641 6.5
      vertex 5.82648 154.641 11.5
    endloop
  endfacet
  facet normal -0.994139 0.108107 0
    outer loop
      vertex 8.78958 159.565 6.5
      vertex 9 161.5 11.5
      vertex 9 161.5 6.5
    endloop
  endfacet
  facet normal -0.994139 0.108107 0
    outer loop
      vertex 9 161.5 11.5
      vertex 8.78958 159.565 6.5
      vertex 8.78958 159.565 11.5
    endloop
  endfacet
  facet normal -0.161857 -0.986814 0
    outer loop
      vertex 0.487249 170.487 6.5
      vertex 2.40775 170.172 11.5
      vertex 0.487249 170.487 11.5
    endloop
  endfacet
  facet normal -0.161857 -0.986814 -0
    outer loop
      vertex 2.40775 170.172 11.5
      vertex 0.487249 170.487 6.5
      vertex 2.40775 170.172 6.5
    endloop
  endfacet
  facet normal 0.976629 -0.21493 0
    outer loop
      vertex -8.94724 162.473 11.5
      vertex -8.52888 164.374 6.5
      vertex -8.52888 164.374 11.5
    endloop
  endfacet
  facet normal 0.976629 -0.21493 0
    outer loop
      vertex -8.52888 164.374 6.5
      vertex -8.94724 162.473 11.5
      vertex -8.94724 162.473 6.5
    endloop
  endfacet
  facet normal 0.26722 0.963636 -0
    outer loop
      vertex -1.45604 152.619 6.5
      vertex -3.33124 153.139 11.5
      vertex -1.45604 152.619 11.5
    endloop
  endfacet
  facet normal 0.26722 0.963636 0
    outer loop
      vertex -3.33124 153.139 11.5
      vertex -1.45604 152.619 6.5
      vertex -3.33124 153.139 6.5
    endloop
  endfacet
  facet normal -0.856917 0.515455 0
    outer loop
      vertex 7.16484 156.053 6.5
      vertex 8.16818 157.721 11.5
      vertex 8.16818 157.721 6.5
    endloop
  endfacet
  facet normal -0.856917 0.515455 0
    outer loop
      vertex 8.16818 157.721 11.5
      vertex 7.16484 156.053 6.5
      vertex 7.16484 156.053 11.5
    endloop
  endfacet
  facet normal 0.796036 0.605249 0
    outer loop
      vertex -6.53396 155.311 11.5
      vertex -7.71171 156.86 6.5
      vertex -7.71171 156.86 11.5
    endloop
  endfacet
  facet normal 0.796036 0.605249 0
    outer loop
      vertex -7.71171 156.86 6.5
      vertex -6.53396 155.311 11.5
      vertex -6.53396 155.311 6.5
    endloop
  endfacet
  facet normal 0.90755 0.419945 0
    outer loop
      vertex -7.71171 156.86 11.5
      vertex -8.52888 158.626 6.5
      vertex -8.52888 158.626 11.5
    endloop
  endfacet
  facet normal 0.90755 0.419945 0
    outer loop
      vertex -8.52888 158.626 6.5
      vertex -7.71171 156.86 11.5
      vertex -7.71171 156.86 6.5
    endloop
  endfacet
  facet normal 0.647413 0.762139 -0
    outer loop
      vertex -5.05068 154.051 6.5
      vertex -6.53396 155.311 11.5
      vertex -5.05068 154.051 11.5
    endloop
  endfacet
  facet normal 0.647413 0.762139 0
    outer loop
      vertex -6.53396 155.311 11.5
      vertex -5.05068 154.051 6.5
      vertex -6.53396 155.311 6.5
    endloop
  endfacet
  facet normal -0.161857 0.986814 0
    outer loop
      vertex 2.40775 152.828 6.5
      vertex 0.487249 152.513 11.5
      vertex 2.40775 152.828 11.5
    endloop
  endfacet
  facet normal -0.161857 0.986814 0
    outer loop
      vertex 0.487249 152.513 11.5
      vertex 2.40775 152.828 6.5
      vertex 0.487249 152.513 6.5
    endloop
  endfacet
  facet normal 0.468573 0.883425 -0
    outer loop
      vertex -3.33124 153.139 6.5
      vertex -5.05068 154.051 11.5
      vertex -3.33124 153.139 11.5
    endloop
  endfacet
  facet normal 0.468573 0.883425 0
    outer loop
      vertex -5.05068 154.051 11.5
      vertex -3.33124 153.139 6.5
      vertex -5.05068 154.051 6.5
    endloop
  endfacet
  facet normal -0.561486 0.827486 0
    outer loop
      vertex 5.82648 154.641 6.5
      vertex 4.21568 153.548 11.5
      vertex 5.82648 154.641 11.5
    endloop
  endfacet
  facet normal -0.561486 0.827486 0
    outer loop
      vertex 4.21568 153.548 11.5
      vertex 5.82648 154.641 6.5
      vertex 4.21568 153.548 6.5
    endloop
  endfacet
  facet normal 0.865986 0.500069 0
    outer loop
      vertex 10.7342 166.279 11.5
      vertex 9.50595 168.406 10.5
      vertex 9.50595 168.406 11.5
    endloop
  endfacet
  facet normal 0.865986 0.500069 0
    outer loop
      vertex 9.50595 168.406 10.5
      vertex 10.7342 166.279 11.5
      vertex 10.7342 166.279 10.5
    endloop
  endfacet
  facet normal 0 1 -0
    outer loop
      vertex 1.22821 173.186 10.5
      vertex -1.22821 173.186 11.5
      vertex 1.22821 173.186 11.5
    endloop
  endfacet
  facet normal 0 1 0
    outer loop
      vertex -1.22821 173.186 11.5
      vertex 1.22821 173.186 10.5
      vertex -1.22821 173.186 10.5
    endloop
  endfacet
  facet normal 0.743239 0.669025 0
    outer loop
      vertex 9.50595 168.406 11.5
      vertex 7.86228 170.232 10.5
      vertex 7.86228 170.232 11.5
    endloop
  endfacet
  facet normal 0.743239 0.669025 0
    outer loop
      vertex 7.86228 170.232 10.5
      vertex 9.50595 168.406 11.5
      vertex 9.50595 168.406 10.5
    endloop
  endfacet
  facet normal 0.208021 0.978124 -0
    outer loop
      vertex 3.63095 172.675 10.5
      vertex 1.22821 173.186 11.5
      vertex 3.63095 172.675 11.5
    endloop
  endfacet
  facet normal 0.208021 0.978124 0
    outer loop
      vertex 1.22821 173.186 11.5
      vertex 3.63095 172.675 10.5
      vertex 1.22821 173.186 10.5
    endloop
  endfacet
  facet normal -0.406697 0.913563 0
    outer loop
      vertex -3.63095 172.675 10.5
      vertex -5.875 171.676 11.5
      vertex -3.63095 172.675 11.5
    endloop
  endfacet
  facet normal -0.406697 0.913563 0
    outer loop
      vertex -5.875 171.676 11.5
      vertex -3.63095 172.675 10.5
      vertex -5.875 171.676 10.5
    endloop
  endfacet
  facet normal -0.865986 0.500069 0
    outer loop
      vertex -10.7342 166.279 10.5
      vertex -9.50595 168.406 11.5
      vertex -9.50595 168.406 10.5
    endloop
  endfacet
  facet normal -0.865986 0.500069 0
    outer loop
      vertex -9.50595 168.406 11.5
      vertex -10.7342 166.279 10.5
      vertex -10.7342 166.279 11.5
    endloop
  endfacet
  facet normal 0.994521 -0.104541 0
    outer loop
      vertex 11.4932 159.057 11.5
      vertex 11.75 161.5 10.5
      vertex 11.75 161.5 11.5
    endloop
  endfacet
  facet normal 0.994521 -0.104541 0
    outer loop
      vertex 11.75 161.5 10.5
      vertex 11.4932 159.057 11.5
      vertex 11.4932 159.057 10.5
    endloop
  endfacet
  facet normal 0.208021 -0.978124 0
    outer loop
      vertex 1.22821 149.814 10.5
      vertex 3.63095 150.325 11.5
      vertex 1.22821 149.814 11.5
    endloop
  endfacet
  facet normal 0.208021 -0.978124 0
    outer loop
      vertex 3.63095 150.325 11.5
      vertex 1.22821 149.814 10.5
      vertex 3.63095 150.325 10.5
    endloop
  endfacet
  facet normal 0.587827 0.808987 -0
    outer loop
      vertex 7.86228 170.232 10.5
      vertex 5.875 171.676 11.5
      vertex 7.86228 170.232 11.5
    endloop
  endfacet
  facet normal 0.587827 0.808987 0
    outer loop
      vertex 5.875 171.676 11.5
      vertex 7.86228 170.232 10.5
      vertex 5.875 171.676 10.5
    endloop
  endfacet
  facet normal 0.406697 0.913563 -0
    outer loop
      vertex 5.875 171.676 10.5
      vertex 3.63095 172.675 11.5
      vertex 5.875 171.676 11.5
    endloop
  endfacet
  facet normal 0.406697 0.913563 0
    outer loop
      vertex 3.63095 172.675 11.5
      vertex 5.875 171.676 10.5
      vertex 3.63095 172.675 10.5
    endloop
  endfacet
  facet normal -0.994521 0.104541 0
    outer loop
      vertex -11.75 161.5 10.5
      vertex -11.4932 163.943 11.5
      vertex -11.4932 163.943 10.5
    endloop
  endfacet
  facet normal -0.994521 0.104541 0
    outer loop
      vertex -11.4932 163.943 11.5
      vertex -11.75 161.5 10.5
      vertex -11.75 161.5 11.5
    endloop
  endfacet
  facet normal -0.587827 0.808987 0
    outer loop
      vertex -5.875 171.676 10.5
      vertex -7.86228 170.232 11.5
      vertex -5.875 171.676 11.5
    endloop
  endfacet
  facet normal -0.587827 0.808987 0
    outer loop
      vertex -7.86228 170.232 11.5
      vertex -5.875 171.676 10.5
      vertex -7.86228 170.232 10.5
    endloop
  endfacet
  facet normal -0.208021 0.978124 0
    outer loop
      vertex -1.22821 173.186 10.5
      vertex -3.63095 172.675 11.5
      vertex -1.22821 173.186 11.5
    endloop
  endfacet
  facet normal -0.208021 0.978124 0
    outer loop
      vertex -3.63095 172.675 11.5
      vertex -1.22821 173.186 10.5
      vertex -3.63095 172.675 10.5
    endloop
  endfacet
  facet normal -0.743239 0.669025 0
    outer loop
      vertex -9.50595 168.406 10.5
      vertex -7.86228 170.232 11.5
      vertex -7.86228 170.232 10.5
    endloop
  endfacet
  facet normal -0.743239 0.669025 0
    outer loop
      vertex -7.86228 170.232 11.5
      vertex -9.50595 168.406 10.5
      vertex -9.50595 168.406 11.5
    endloop
  endfacet
  facet normal 0.994521 0.104541 0
    outer loop
      vertex 11.75 161.5 11.5
      vertex 11.4932 163.943 10.5
      vertex 11.4932 163.943 11.5
    endloop
  endfacet
  facet normal 0.994521 0.104541 0
    outer loop
      vertex 11.4932 163.943 10.5
      vertex 11.75 161.5 11.5
      vertex 11.75 161.5 10.5
    endloop
  endfacet
  facet normal -0.865986 -0.500069 0
    outer loop
      vertex -9.50595 154.594 10.5
      vertex -10.7342 156.721 11.5
      vertex -10.7342 156.721 10.5
    endloop
  endfacet
  facet normal -0.865986 -0.500069 0
    outer loop
      vertex -10.7342 156.721 11.5
      vertex -9.50595 154.594 10.5
      vertex -9.50595 154.594 11.5
    endloop
  endfacet
  facet normal 0.587827 -0.808987 0
    outer loop
      vertex 5.875 151.324 10.5
      vertex 7.86228 152.768 11.5
      vertex 5.875 151.324 11.5
    endloop
  endfacet
  facet normal 0.587827 -0.808987 0
    outer loop
      vertex 7.86228 152.768 11.5
      vertex 5.875 151.324 10.5
      vertex 7.86228 152.768 10.5
    endloop
  endfacet
  facet normal 0.951058 0.309012 0
    outer loop
      vertex 11.4932 163.943 11.5
      vertex 10.7342 166.279 10.5
      vertex 10.7342 166.279 11.5
    endloop
  endfacet
  facet normal 0.951058 0.309012 0
    outer loop
      vertex 10.7342 166.279 10.5
      vertex 11.4932 163.943 11.5
      vertex 11.4932 163.943 10.5
    endloop
  endfacet
  facet normal -0.951058 0.309012 0
    outer loop
      vertex -11.4932 163.943 10.5
      vertex -10.7342 166.279 11.5
      vertex -10.7342 166.279 10.5
    endloop
  endfacet
  facet normal -0.951058 0.309012 0
    outer loop
      vertex -10.7342 166.279 11.5
      vertex -11.4932 163.943 10.5
      vertex -11.4932 163.943 11.5
    endloop
  endfacet
  facet normal 0.865986 -0.500069 0
    outer loop
      vertex 9.50595 154.594 11.5
      vertex 10.7342 156.721 10.5
      vertex 10.7342 156.721 11.5
    endloop
  endfacet
  facet normal 0.865986 -0.500069 0
    outer loop
      vertex 10.7342 156.721 10.5
      vertex 9.50595 154.594 11.5
      vertex 9.50595 154.594 10.5
    endloop
  endfacet
  facet normal -0.994521 -0.104541 0
    outer loop
      vertex -11.4932 159.057 10.5
      vertex -11.75 161.5 11.5
      vertex -11.75 161.5 10.5
    endloop
  endfacet
  facet normal -0.994521 -0.104541 0
    outer loop
      vertex -11.75 161.5 11.5
      vertex -11.4932 159.057 10.5
      vertex -11.4932 159.057 11.5
    endloop
  endfacet
  facet normal 0.406697 -0.913563 0
    outer loop
      vertex 3.63095 150.325 10.5
      vertex 5.875 151.324 11.5
      vertex 3.63095 150.325 11.5
    endloop
  endfacet
  facet normal 0.406697 -0.913563 0
    outer loop
      vertex 5.875 151.324 11.5
      vertex 3.63095 150.325 10.5
      vertex 5.875 151.324 10.5
    endloop
  endfacet
  facet normal 0.951058 -0.309012 0
    outer loop
      vertex 10.7342 156.721 11.5
      vertex 11.4932 159.057 10.5
      vertex 11.4932 159.057 11.5
    endloop
  endfacet
  facet normal 0.951058 -0.309012 0
    outer loop
      vertex 11.4932 159.057 10.5
      vertex 10.7342 156.721 11.5
      vertex 10.7342 156.721 10.5
    endloop
  endfacet
  facet normal -0.208021 -0.978124 0
    outer loop
      vertex -3.63095 150.325 10.5
      vertex -1.22821 149.814 11.5
      vertex -3.63095 150.325 11.5
    endloop
  endfacet
  facet normal -0.208021 -0.978124 -0
    outer loop
      vertex -1.22821 149.814 11.5
      vertex -3.63095 150.325 10.5
      vertex -1.22821 149.814 10.5
    endloop
  endfacet
  facet normal 0 -1 0
    outer loop
      vertex -1.22821 149.814 10.5
      vertex 1.22821 149.814 11.5
      vertex -1.22821 149.814 11.5
    endloop
  endfacet
  facet normal 0 -1 -0
    outer loop
      vertex 1.22821 149.814 11.5
      vertex -1.22821 149.814 10.5
      vertex 1.22821 149.814 10.5
    endloop
  endfacet
  facet normal 0 0 -1
    outer loop
      vertex 10.5 161.5 10.5
      vertex 11.75 161.5 10.5
      vertex 11.4932 159.057 10.5
    endloop
  endfacet
  facet normal 0 0 -1
    outer loop
      vertex 10.2705 159.317 10.5
      vertex 11.4932 159.057 10.5
      vertex 10.7342 156.721 10.5
    endloop
  endfacet
  facet normal 0 0 -1
    outer loop
      vertex 11.75 161.5 10.5
      vertex 10.5 161.5 10.5
      vertex 11.4932 163.943 10.5
    endloop
  endfacet
  facet normal 0 0 -1
    outer loop
      vertex 10.2705 163.683 10.5
      vertex 11.4932 163.943 10.5
      vertex 10.5 161.5 10.5
    endloop
  endfacet
  facet normal 0 0 -1
    outer loop
      vertex 11.4932 159.057 10.5
      vertex 10.2705 159.317 10.5
      vertex 10.5 161.5 10.5
    endloop
  endfacet
  facet normal 0 0 -1
    outer loop
      vertex 10.7342 156.721 10.5
      vertex 9.59223 157.229 10.5
      vertex 10.2705 159.317 10.5
    endloop
  endfacet
  facet normal 0 0 -1
    outer loop
      vertex 9.50595 154.594 10.5
      vertex 9.59223 157.229 10.5
      vertex 10.7342 156.721 10.5
    endloop
  endfacet
  facet normal 0 0 -1
    outer loop
      vertex 9.50595 154.594 10.5
      vertex 8.49468 155.328 10.5
      vertex 9.59223 157.229 10.5
    endloop
  endfacet
  facet normal 0 0 -1
    outer loop
      vertex 7.86228 152.768 10.5
      vertex 8.49468 155.328 10.5
      vertex 9.50595 154.594 10.5
    endloop
  endfacet
  facet normal 0 0 -1
    outer loop
      vertex 7.86228 152.768 10.5
      vertex 7.02587 153.697 10.5
      vertex 8.49468 155.328 10.5
    endloop
  endfacet
  facet normal 0 0 -1
    outer loop
      vertex 5.875 151.324 10.5
      vertex 7.02587 153.697 10.5
      vertex 7.86228 152.768 10.5
    endloop
  endfacet
  facet normal 0 0 -1
    outer loop
      vertex 5.875 151.324 10.5
      vertex 5.25 152.407 10.5
      vertex 7.02587 153.697 10.5
    endloop
  endfacet
  facet normal 0 0 -1
    outer loop
      vertex 3.63095 150.325 10.5
      vertex 5.25 152.407 10.5
      vertex 5.875 151.324 10.5
    endloop
  endfacet
  facet normal 0 0 -1
    outer loop
      vertex 3.63095 150.325 10.5
      vertex 3.24468 151.514 10.5
      vertex 5.25 152.407 10.5
    endloop
  endfacet
  facet normal 0 0 -1
    outer loop
      vertex 1.22821 149.814 10.5
      vertex 3.24468 151.514 10.5
      vertex 3.63095 150.325 10.5
    endloop
  endfacet
  facet normal 0 0 -1
    outer loop
      vertex 1.22821 149.814 10.5
      vertex 1.09755 151.058 10.5
      vertex 3.24468 151.514 10.5
    endloop
  endfacet
  facet normal 0 0 -1
    outer loop
      vertex 1.22821 149.814 10.5
      vertex -1.09755 151.058 10.5
      vertex 1.09755 151.058 10.5
    endloop
  endfacet
  facet normal 0 0 -1
    outer loop
      vertex -1.22821 149.814 10.5
      vertex -1.09755 151.058 10.5
      vertex 1.22821 149.814 10.5
    endloop
  endfacet
  facet normal 0 0 -1
    outer loop
      vertex -1.22821 149.814 10.5
      vertex -3.24468 151.514 10.5
      vertex -1.09755 151.058 10.5
    endloop
  endfacet
  facet normal 0 0 -1
    outer loop
      vertex -3.63095 150.325 10.5
      vertex -3.24468 151.514 10.5
      vertex -1.22821 149.814 10.5
    endloop
  endfacet
  facet normal 0 0 -1
    outer loop
      vertex -3.63095 150.325 10.5
      vertex -5.25 152.407 10.5
      vertex -3.24468 151.514 10.5
    endloop
  endfacet
  facet normal 0 0 -1
    outer loop
      vertex -5.875 151.324 10.5
      vertex -5.25 152.407 10.5
      vertex -3.63095 150.325 10.5
    endloop
  endfacet
  facet normal 0 0 -1
    outer loop
      vertex -5.875 151.324 10.5
      vertex -7.02587 153.697 10.5
      vertex -5.25 152.407 10.5
    endloop
  endfacet
  facet normal 0 0 -1
    outer loop
      vertex -7.86228 152.768 10.5
      vertex -7.02587 153.697 10.5
      vertex -5.875 151.324 10.5
    endloop
  endfacet
  facet normal 0 0 -1
    outer loop
      vertex -7.86228 152.768 10.5
      vertex -8.49468 155.328 10.5
      vertex -7.02587 153.697 10.5
    endloop
  endfacet
  facet normal 0 0 -1
    outer loop
      vertex -9.50595 154.594 10.5
      vertex -8.49468 155.328 10.5
      vertex -7.86228 152.768 10.5
    endloop
  endfacet
  facet normal 0 0 -1
    outer loop
      vertex -9.50595 154.594 10.5
      vertex -9.59223 157.229 10.5
      vertex -8.49468 155.328 10.5
    endloop
  endfacet
  facet normal 0 0 -1
    outer loop
      vertex -10.7342 156.721 10.5
      vertex -9.59223 157.229 10.5
      vertex -9.50595 154.594 10.5
    endloop
  endfacet
  facet normal 0 0 -1
    outer loop
      vertex -11.4932 159.057 10.5
      vertex -10.2705 159.317 10.5
      vertex -10.7342 156.721 10.5
    endloop
  endfacet
  facet normal -0 0 -1
    outer loop
      vertex -9.59223 157.229 10.5
      vertex -10.7342 156.721 10.5
      vertex -10.2705 159.317 10.5
    endloop
  endfacet
  facet normal -0 0 -1
    outer loop
      vertex 11.4932 163.943 10.5
      vertex 10.2705 163.683 10.5
      vertex 10.7342 166.279 10.5
    endloop
  endfacet
  facet normal 0 0 -1
    outer loop
      vertex 9.59223 165.771 10.5
      vertex 10.7342 166.279 10.5
      vertex 10.2705 163.683 10.5
    endloop
  endfacet
  facet normal 0 0 -1
    outer loop
      vertex 9.59223 165.771 10.5
      vertex 9.50595 168.406 10.5
      vertex 10.7342 166.279 10.5
    endloop
  endfacet
  facet normal 0 0 -1
    outer loop
      vertex 8.49468 167.672 10.5
      vertex 9.50595 168.406 10.5
      vertex 9.59223 165.771 10.5
    endloop
  endfacet
  facet normal 0 0 -1
    outer loop
      vertex 8.49468 167.672 10.5
      vertex 7.86228 170.232 10.5
      vertex 9.50595 168.406 10.5
    endloop
  endfacet
  facet normal 0 0 -1
    outer loop
      vertex 7.02587 169.303 10.5
      vertex 7.86228 170.232 10.5
      vertex 8.49468 167.672 10.5
    endloop
  endfacet
  facet normal 0 0 -1
    outer loop
      vertex 7.02587 169.303 10.5
      vertex 5.875 171.676 10.5
      vertex 7.86228 170.232 10.5
    endloop
  endfacet
  facet normal 0 0 -1
    outer loop
      vertex 5.25 170.593 10.5
      vertex 5.875 171.676 10.5
      vertex 7.02587 169.303 10.5
    endloop
  endfacet
  facet normal 0 0 -1
    outer loop
      vertex 5.25 170.593 10.5
      vertex 3.63095 172.675 10.5
      vertex 5.875 171.676 10.5
    endloop
  endfacet
  facet normal 0 0 -1
    outer loop
      vertex 3.24468 171.486 10.5
      vertex 3.63095 172.675 10.5
      vertex 5.25 170.593 10.5
    endloop
  endfacet
  facet normal 0 0 -1
    outer loop
      vertex 3.24468 171.486 10.5
      vertex 1.22821 173.186 10.5
      vertex 3.63095 172.675 10.5
    endloop
  endfacet
  facet normal 0 0 -1
    outer loop
      vertex 1.09755 171.942 10.5
      vertex 1.22821 173.186 10.5
      vertex 3.24468 171.486 10.5
    endloop
  endfacet
  facet normal 0 0 -1
    outer loop
      vertex -1.09755 171.942 10.5
      vertex 1.22821 173.186 10.5
      vertex 1.09755 171.942 10.5
    endloop
  endfacet
  facet normal 0 0 -1
    outer loop
      vertex -1.09755 171.942 10.5
      vertex -1.22821 173.186 10.5
      vertex 1.22821 173.186 10.5
    endloop
  endfacet
  facet normal 0 0 -1
    outer loop
      vertex -3.24468 171.486 10.5
      vertex -1.22821 173.186 10.5
      vertex -1.09755 171.942 10.5
    endloop
  endfacet
  facet normal 0 0 -1
    outer loop
      vertex -3.24468 171.486 10.5
      vertex -3.63095 172.675 10.5
      vertex -1.22821 173.186 10.5
    endloop
  endfacet
  facet normal 0 0 -1
    outer loop
      vertex -5.25 170.593 10.5
      vertex -3.63095 172.675 10.5
      vertex -3.24468 171.486 10.5
    endloop
  endfacet
  facet normal 0 0 -1
    outer loop
      vertex -5.25 170.593 10.5
      vertex -5.875 171.676 10.5
      vertex -3.63095 172.675 10.5
    endloop
  endfacet
  facet normal 0 0 -1
    outer loop
      vertex -7.02587 169.303 10.5
      vertex -5.875 171.676 10.5
      vertex -5.25 170.593 10.5
    endloop
  endfacet
  facet normal 0 0 -1
    outer loop
      vertex -7.02587 169.303 10.5
      vertex -7.86228 170.232 10.5
      vertex -5.875 171.676 10.5
    endloop
  endfacet
  facet normal 0 0 -1
    outer loop
      vertex -8.49468 167.672 10.5
      vertex -7.86228 170.232 10.5
      vertex -7.02587 169.303 10.5
    endloop
  endfacet
  facet normal 0 0 -1
    outer loop
      vertex -8.49468 167.672 10.5
      vertex -9.50595 168.406 10.5
      vertex -7.86228 170.232 10.5
    endloop
  endfacet
  facet normal 0 0 -1
    outer loop
      vertex -9.59223 165.771 10.5
      vertex -9.50595 168.406 10.5
      vertex -8.49468 167.672 10.5
    endloop
  endfacet
  facet normal 0 0 -1
    outer loop
      vertex -10.7342 166.279 10.5
      vertex -9.59223 165.771 10.5
      vertex -10.2705 163.683 10.5
    endloop
  endfacet
  facet normal 0 0 -1
    outer loop
      vertex -9.59223 165.771 10.5
      vertex -10.7342 166.279 10.5
      vertex -9.50595 168.406 10.5
    endloop
  endfacet
  facet normal 0 0 -1
    outer loop
      vertex -11.4932 163.943 10.5
      vertex -10.2705 163.683 10.5
      vertex -10.5 161.5 10.5
    endloop
  endfacet
  facet normal -0 0 -1
    outer loop
      vertex -10.2705 159.317 10.5
      vertex -11.4932 159.057 10.5
      vertex -10.5 161.5 10.5
    endloop
  endfacet
  facet normal 0 0 -1
    outer loop
      vertex -11.75 161.5 10.5
      vertex -10.5 161.5 10.5
      vertex -11.4932 159.057 10.5
    endloop
  endfacet
  facet normal 0 0 -1
    outer loop
      vertex -10.2705 163.683 10.5
      vertex -11.4932 163.943 10.5
      vertex -10.7342 166.279 10.5
    endloop
  endfacet
  facet normal 0 0 -1
    outer loop
      vertex -10.5 161.5 10.5
      vertex -11.75 161.5 10.5
      vertex -11.4932 163.943 10.5
    endloop
  endfacet
  facet normal -0.951058 -0.309012 0
    outer loop
      vertex -10.7342 156.721 10.5
      vertex -11.4932 159.057 11.5
      vertex -11.4932 159.057 10.5
    endloop
  endfacet
  facet normal -0.951058 -0.309012 0
    outer loop
      vertex -11.4932 159.057 11.5
      vertex -10.7342 156.721 10.5
      vertex -10.7342 156.721 11.5
    endloop
  endfacet
  facet normal -0.743239 -0.669025 0
    outer loop
      vertex -7.86228 152.768 10.5
      vertex -9.50595 154.594 11.5
      vertex -9.50595 154.594 10.5
    endloop
  endfacet
  facet normal -0.743239 -0.669025 0
    outer loop
      vertex -9.50595 154.594 11.5
      vertex -7.86228 152.768 10.5
      vertex -7.86228 152.768 11.5
    endloop
  endfacet
  facet normal 0.743239 -0.669025 0
    outer loop
      vertex 7.86228 152.768 11.5
      vertex 9.50595 154.594 10.5
      vertex 9.50595 154.594 11.5
    endloop
  endfacet
  facet normal 0.743239 -0.669025 0
    outer loop
      vertex 9.50595 154.594 10.5
      vertex 7.86228 152.768 11.5
      vertex 7.86228 152.768 10.5
    endloop
  endfacet
  facet normal -0.406697 -0.913563 0
    outer loop
      vertex -5.875 151.324 10.5
      vertex -3.63095 150.325 11.5
      vertex -5.875 151.324 11.5
    endloop
  endfacet
  facet normal -0.406697 -0.913563 -0
    outer loop
      vertex -3.63095 150.325 11.5
      vertex -5.875 151.324 10.5
      vertex -3.63095 150.325 10.5
    endloop
  endfacet
  facet normal -0.587827 -0.808987 0
    outer loop
      vertex -7.86228 152.768 10.5
      vertex -5.875 151.324 11.5
      vertex -7.86228 152.768 11.5
    endloop
  endfacet
  facet normal -0.587827 -0.808987 -0
    outer loop
      vertex -5.875 151.324 11.5
      vertex -7.86228 152.768 10.5
      vertex -5.875 151.324 10.5
    endloop
  endfacet
endsolid OpenSCAD_Model
