<?xml version="1.0" encoding="UTF-8" standalone="no"?>
<svg
   width="757.186pt"
   height="241.521pt"
   version="1.1"
   viewBox="-321.088 568.681 757.186 241.521"
   id="svg27"
   sodipodi:docname="Buchtitel.svg"
   inkscape:version="1.1.1 (3bf5ae0d25, 2021-09-20)"
   xmlns:inkscape="http://www.inkscape.org/namespaces/inkscape"
   xmlns:sodipodi="http://sodipodi.sourceforge.net/DTD/sodipodi-0.dtd"
   xmlns="http://www.w3.org/2000/svg"
   xmlns:svg="http://www.w3.org/2000/svg">
  <sodipodi:namedview
     id="namedview29"
     pagecolor="#ffffff"
     bordercolor="#666666"
     borderopacity="1.0"
     inkscape:pageshadow="2"
     inkscape:pageopacity="0.0"
     inkscape:pagecheckerboard="0"
     inkscape:document-units="pt"
     showgrid="false"
     inkscape:zoom="1.1618678"
     inkscape:cx="504.36031"
     inkscape:cy="161.37808"
     inkscape:window-width="1920"
     inkscape:window-height="1017"
     inkscape:window-x="-8"
     inkscape:window-y="-8"
     inkscape:window-maximized="1"
     inkscape:current-layer="svg27" />
  <!--
	Exported with Concepts: Smarter Sketching
	Version: 1055 on iOS 15.3
	https://concepts.app/
	-->
  <title
     id="title2">Buchtitel</title>
  <desc
     id="desc4">Drawing exported from Concepts: Smarter Sketching</desc>
  <defs
     id="defs6" />
  <path
     id="STROKE_dc5d809f-7375-4929-87b1-39bff22bf100"
     d="M 773.24805 14.072266 L 204.49805 17.689453 L 169.16602 18.070312 L 76.367188 102.65234 L 77.322266 114.67969 C 77.130485 114.62382 76.938893 114.56506 76.746094 114.51172 C 76.386987 114.41132 76.027789 114.31621 75.666016 114.22461 C 75.304242 114.13301 74.941685 114.04454 74.578125 113.96094 C 74.214565 113.87734 73.849708 113.79826 73.484375 113.72266 C 73.119042 113.64706 72.751872 113.57643 72.384766 113.50977 C 72.018539 113.44217 71.652096 113.37898 71.283203 113.32031 C 70.915203 113.26165 70.545555 113.20692 70.175781 113.15625 C 69.806008 113.10652 69.43512 113.06024 69.064453 113.01758 C 68.693786 112.97584 68.322732 112.93803 67.951172 112.9043 C 67.579612 112.87056 67.208376 112.84134 66.835938 112.81641 C 66.463497 112.79067 66.09119 112.76889 65.71875 112.75195 C 65.34631 112.73502 64.972943 112.72284 64.599609 112.71484 C 64.227169 112.70551 63.853802 112.70117 63.480469 112.70117 C 63.107135 112.70117 62.735721 112.70551 62.363281 112.71484 C 61.989948 112.72284 61.616581 112.73502 61.244141 112.75195 C 60.871701 112.76889 60.499393 112.79067 60.126953 112.81641 C 59.754513 112.84134 59.381326 112.87056 59.009766 112.9043 C 58.638206 112.93803 58.267151 112.97584 57.896484 113.01758 C 57.525818 113.05931 57.156883 113.10558 56.787109 113.15625 C 56.417336 113.20692 56.047687 113.26165 55.679688 113.32031 C 55.311687 113.37898 54.945232 113.44217 54.578125 113.50977 C 54.211018 113.57643 53.843849 113.64706 53.478516 113.72266 C 53.113182 113.79826 52.748326 113.87734 52.384766 113.96094 C 52.021206 114.04454 51.658648 114.13301 51.296875 114.22461 C 50.935102 114.31621 50.575904 114.41132 50.216797 114.51172 C 49.856797 114.61132 49.497065 114.71582 49.140625 114.82422 C 48.783292 114.93182 48.428885 115.04376 48.074219 115.16016 C 47.719552 115.27576 47.365672 115.39513 47.013672 115.51953 C 46.662565 115.64393 46.312224 115.7727 45.962891 115.9043 C 45.614451 116.0367 45.266589 116.17294 44.919922 116.3125 C 44.574149 116.45206 44.230899 116.59463 43.888672 116.74219 C 43.545565 116.88975 43.203901 117.04171 42.865234 117.19727 C 42.525674 117.35283 42.188622 117.51116 41.853516 117.67383 C 41.517516 117.83649 41.183124 118.00316 40.851562 118.17383 C 40.520004 118.34449 40.191281 118.51949 39.863281 118.69727 C 39.535281 118.87504 39.208326 119.05641 38.884766 119.24219 C 38.560326 119.42708 38.239029 119.6157 37.919922 119.80859 C 37.599922 120.00149 37.283417 120.19738 36.96875 120.39648 C 36.65319 120.59648 36.339524 120.80071 36.029297 121.00781 C 35.71907 121.21492 35.411242 121.42534 35.105469 121.63867 C 34.799695 121.8529 34.495754 122.07058 34.195312 122.29102 C 33.89398 122.51146 33.596781 122.73533 33.300781 122.96289 C 33.005675 123.19045 32.712542 123.42052 32.421875 123.6543 C 32.131208 123.88807 31.841974 124.12629 31.556641 124.36719 C 31.271307 124.60719 30.990044 124.85055 30.710938 125.09766 C 30.430938 125.34476 30.154633 125.59432 29.880859 125.84766 C 29.606193 126.10099 29.333966 126.35657 29.066406 126.61523 C 28.797966 126.87479 28.533711 127.13745 28.271484 127.40234 C 28.009258 127.66812 27.749081 127.93592 27.492188 128.20703 C 27.236187 128.47814 26.982195 128.75286 26.732422 129.0293 C 26.482649 129.30663 26.236627 129.58647 25.992188 129.86914 C 25.748627 130.15091 25.508818 130.43661 25.271484 130.72461 C 25.034151 131.01261 24.798586 131.30237 24.568359 131.5957 C 24.337253 131.88904 24.110719 132.18465 23.886719 132.48242 C 23.662719 132.78109 23.441503 133.08166 23.224609 133.38477 C 23.006836 133.68787 22.793758 133.99429 22.583984 134.30273 C 22.373318 134.61117 22.16751 134.92042 21.964844 135.23242 C 21.761284 135.54532 21.559721 135.8604 21.363281 136.17773 C 21.166841 136.49507 20.975549 136.81495 20.787109 137.13672 C 20.597776 137.45849 20.411802 137.78314 20.230469 138.10938 C 20.049135 138.43471 19.871492 138.76202 19.697266 139.0918 C 19.523039 139.42157 19.352654 139.75366 19.185547 140.08789 C 19.01844 140.42122 18.854419 140.75598 18.695312 141.09375 C 18.536206 141.43064 18.381575 141.76999 18.230469 142.11133 C 18.078469 142.45266 17.930216 142.79662 17.787109 143.14062 C 17.643109 143.48463 17.503186 143.83017 17.367188 144.17773 C 17.231186 144.52529 17.100656 144.87438 16.972656 145.22461 C 16.844656 145.57484 16.719609 145.92552 16.599609 146.2793 C 16.479609 146.63219 16.363953 146.98624 16.251953 147.3418 C 16.139953 147.69824 16.031734 148.05584 15.927734 148.41406 C 15.823734 148.77229 15.724906 149.13219 15.628906 149.49219 C 15.532906 149.85308 15.439562 150.21547 15.351562 150.57812 C 15.264496 150.94079 15.181562 151.30353 15.101562 151.66797 C 15.022498 152.03241 14.94802 152.39745 14.876953 152.76367 C 14.805886 153.1299 14.736895 153.49617 14.673828 153.86328 C 14.610761 154.23128 14.552314 154.59986 14.498047 154.96875 C 14.44298 155.33764 14.39197 155.70746 14.345703 156.07812 C 14.299436 156.4479 14.258036 156.81985 14.220703 157.19141 C 14.182436 157.56207 14.148474 157.93225 14.119141 158.30469 C 14.089807 158.67625 14.066255 159.04944 14.044922 159.42188 C 14.023589 159.79432 14.006141 160.16573 13.994141 160.53906 C 13.982141 160.9115 13.97275 161.28487 13.96875 161.6582 C 13.96475 162.03154 13.96475 162.4049 13.96875 162.77734 C 13.97275 163.15068 13.982141 163.52404 13.994141 163.89648 C 14.006141 164.26982 14.023589 164.64319 14.044922 165.01562 C 14.066255 165.38806 14.089807 165.7593 14.119141 166.13086 C 14.148474 166.5033 14.182436 166.87543 14.220703 167.24609 C 14.258036 167.61765 14.299436 167.98765 14.345703 168.35742 C 14.39197 168.72809 14.44298 169.0979 14.498047 169.4668 C 14.552314 169.83569 14.610761 170.20427 14.673828 170.57227 C 14.736895 170.93937 14.805886 171.30565 14.876953 171.67188 C 14.94802 172.03809 15.022497 172.40314 15.101562 172.76758 C 15.181564 173.13202 15.264497 173.49671 15.351562 173.85938 C 15.439564 174.22204 15.532906 174.58247 15.628906 174.94336 C 15.724906 175.30336 15.823734 175.66433 15.927734 176.02344 C 16.031734 176.38166 16.139953 176.73819 16.251953 177.09375 C 16.363953 177.44931 16.479609 177.80336 16.599609 178.15625 C 16.719609 178.51002 16.844656 178.86266 16.972656 179.21289 C 17.100656 179.56312 17.231188 179.91025 17.367188 180.25781 C 17.503187 180.60537 17.643109 180.95287 17.787109 181.29688 C 17.931109 181.64177 18.079362 181.98378 18.230469 182.32422 C 18.381575 182.66555 18.536206 183.0049 18.695312 183.3418 C 18.854419 183.67957 19.01844 184.01432 19.185547 184.34766 C 19.352654 184.68188 19.523039 185.01398 19.697266 185.34375 C 19.871492 185.67352 20.049135 186.0019 20.230469 186.32812 C 20.411802 186.65346 20.597776 186.97705 20.787109 187.29883 C 20.975549 187.6206 21.166841 187.94048 21.363281 188.25781 C 21.559721 188.57515 21.761284 188.89023 21.964844 189.20312 C 22.16751 189.51602 22.373318 189.82525 22.583984 190.13281 C 22.794651 190.44125 23.007716 190.74767 23.224609 191.05078 C 23.441503 191.35389 23.662719 191.65446 23.886719 191.95312 C 24.110719 192.2509 24.337253 192.54651 24.568359 192.83984 C 24.798586 193.13318 25.034151 193.42489 25.271484 193.71289 C 25.508818 194.00089 25.749701 194.28569 25.994141 194.56836 C 26.237701 194.85013 26.482649 195.12892 26.732422 195.40625 C 26.982195 195.68269 27.237247 195.95741 27.494141 196.22852 C 27.750141 196.49962 28.009258 196.76743 28.271484 197.0332 C 28.533711 197.2981 28.797966 197.56075 29.066406 197.82031 C 29.334846 198.07987 29.607086 198.33545 29.880859 198.58789 C 30.154633 198.84122 30.430938 199.09078 30.710938 199.33789 C 30.990044 199.585 31.271307 199.82836 31.556641 200.06836 C 31.841974 200.30925 32.131208 200.54748 32.421875 200.78125 C 32.712542 201.01502 33.005675 201.2451 33.300781 201.47266 C 33.596781 201.70022 33.89398 201.92409 34.195312 202.14453 C 34.495753 202.36497 34.799695 202.58264 35.105469 202.79688 C 35.411242 203.01021 35.71907 203.22063 36.029297 203.42773 C 36.339524 203.63484 36.65319 203.83906 36.96875 204.03906 C 37.283417 204.23817 37.599922 204.43406 37.919922 204.62695 C 38.239029 204.81985 38.560326 205.00847 38.884766 205.19336 C 39.208326 205.37913 39.535281 205.56051 39.863281 205.73828 C 40.191281 205.91605 40.520004 206.09105 40.851562 206.26172 C 41.183124 206.43239 41.517516 206.59905 41.853516 206.76172 C 42.188622 206.92439 42.525674 207.08272 42.865234 207.23828 C 43.203901 207.39384 43.545565 207.5458 43.888672 207.69336 C 44.230899 207.84092 44.574149 207.98349 44.919922 208.12305 C 45.266589 208.26261 45.614451 208.39885 45.962891 208.53125 C 46.312224 208.66285 46.662565 208.79162 47.013672 208.91602 C 47.365672 209.04042 47.719552 209.15979 48.074219 209.27539 C 48.428885 209.39179 48.783292 209.50373 49.140625 209.61133 C 49.497065 209.71973 49.856797 209.82423 50.216797 209.92383 C 50.575904 210.02423 50.935102 210.12129 51.296875 210.21289 C 51.658648 210.30449 52.021206 210.39101 52.384766 210.47461 C 52.748326 210.55821 53.113182 210.63729 53.478516 210.71289 C 53.843849 210.78849 54.211018 210.85911 54.578125 210.92578 C 54.944352 210.99338 55.310793 211.05657 55.679688 211.11523 C 56.047687 211.1739 56.417336 211.22863 56.787109 211.2793 C 57.156883 211.32996 57.525818 211.37624 57.896484 211.41797 C 58.267151 211.4597 58.638206 211.49752 59.009766 211.53125 C 59.381326 211.56498 59.754513 211.59421 60.126953 211.61914 C 60.498513 211.64487 60.870807 211.66666 61.244141 211.68359 C 61.616581 211.70053 61.989948 211.7127 62.363281 211.7207 C 62.735721 211.73004 63.107135 211.73436 63.480469 211.73438 C 63.853802 211.73438 64.227169 211.73004 64.599609 211.7207 C 64.972943 211.7127 65.34631 211.70053 65.71875 211.68359 C 66.09119 211.66666 66.463497 211.64487 66.835938 211.61914 C 67.208376 211.59421 67.579612 211.56498 67.951172 211.53125 C 68.322732 211.49752 68.693786 211.4597 69.064453 211.41797 C 69.43512 211.37624 69.806008 211.32996 70.175781 211.2793 C 70.544675 211.22863 70.91431 211.1739 71.283203 211.11523 C 71.651203 211.05657 72.017659 210.99338 72.384766 210.92578 C 72.751872 210.85911 73.119042 210.78849 73.484375 210.71289 C 73.849708 210.63729 74.214565 210.55821 74.578125 210.47461 C 74.941685 210.39101 75.304242 210.30449 75.666016 210.21289 C 76.027789 210.12129 76.344627 210.03573 76.492188 209.89062 L 76.367188 223.48242 L 168.64062 308.06445 L 203.18359 307.59766 L 771.97852 303.98242 L 829.05469 304.17383 L 921.85547 219.59375 L 921.0918 206.74414 C 921.20211 206.86764 921.3572 206.97241 921.50391 207.05664 C 921.82835 207.24153 922.15336 207.42184 922.48047 207.59961 C 922.80847 207.77828 923.14022 207.95327 923.47266 208.12305 C 923.80422 208.29371 924.13755 208.46038 924.47266 208.62305 C 924.80866 208.78661 925.1448 208.94494 925.48438 209.09961 C 925.82304 209.25517 926.16471 209.40713 926.50781 209.55469 C 926.85004 209.70225 927.19329 209.84589 927.53906 209.98633 C 927.88484 210.12589 928.2327 210.26213 928.58203 210.39453 C 928.93047 210.52609 929.28081 210.6549 929.63281 210.7793 C 929.98481 210.90286 930.33869 211.02227 930.69336 211.13867 C 931.04803 211.25423 931.40333 211.36621 931.75977 211.47461 C 932.1171 211.58217 932.47488 211.68671 932.83398 211.78711 C 933.19398 211.88667 933.5562 211.98182 933.91797 212.07422 C 934.27886 212.16578 934.64035 212.25429 935.00391 212.33789 C 935.36747 212.42145 935.73232 212.50057 936.09766 212.57617 C 936.46299 212.65173 936.82821 212.7224 937.19531 212.78906 C 937.56242 212.85573 937.93189 212.91892 938.30078 212.97852 C 938.66878 213.03718 939.03648 213.09089 939.40625 213.14062 C 939.77602 213.19129 940.14691 213.23756 940.51758 213.2793 C 940.88824 213.32196 941.2593 213.3608 941.63086 213.39453 C 942.00242 213.42826 942.37453 213.45749 942.74609 213.48242 C 943.11853 213.50736 943.49084 213.52799 943.86328 213.54492 C 944.23661 213.56186 944.60803 213.57465 944.98047 213.58398 C 945.3538 213.59198 945.72823 213.5957 946.10156 213.5957 C 946.474 213.5957 946.84737 213.59198 947.2207 213.58398 C 947.59314 213.57505 947.96456 213.56186 948.33789 213.54492 C 948.71033 213.52799 949.08264 213.50736 949.45508 213.48242 C 949.82664 213.45749 950.19875 213.42826 950.57031 213.39453 C 950.94187 213.3608 951.31293 213.32196 951.68359 213.2793 C 952.05426 213.23756 952.42515 213.19129 952.79492 213.14062 C 953.1647 213.09089 953.53345 213.03718 953.90234 212.97852 C 954.27034 212.91892 954.63875 212.85573 955.00586 212.78906 C 955.37297 212.7215 955.73818 212.65084 956.10352 212.57617 C 956.46885 212.50061 956.83371 212.42149 957.19727 212.33789 C 957.56083 212.25433 957.92338 212.16582 958.28516 212.07422 C 958.64605 211.98178 959.00719 211.88671 959.36719 211.78711 C 959.72629 211.68667 960.08407 211.58221 960.44141 211.47461 C 960.79874 211.36617 961.15404 211.25427 961.50781 211.13867 C 961.86248 211.02223 962.21636 210.9029 962.56836 210.7793 C 962.92036 210.65486 963.2707 210.52498 963.61914 210.39258 C 963.96847 210.26102 964.31634 210.12589 964.66211 209.98633 C 965.00788 209.84589 965.35221 209.70225 965.69531 209.55469 C 966.03754 209.40713 966.37724 209.25517 966.7168 209.09961 C 967.05546 208.94494 967.39252 208.78661 967.72852 208.62305 C 968.06362 208.46038 968.39803 208.29371 968.73047 208.12305 C 969.06203 207.95238 969.3927 207.77738 969.7207 207.59961 C 970.0487 207.42184 970.37371 207.24153 970.69727 207.05664 C 971.02083 206.87087 971.34211 206.68117 971.66211 206.48828 C 971.98122 206.29628 972.29861 206.10039 972.61328 205.90039 C 972.92884 205.70039 973.24251 205.49724 973.55273 205.29102 C 973.86384 205.08391 974.17079 204.87349 974.47656 204.66016 C 974.78146 204.44593 975.08539 204.22825 975.38672 204.00781 C 975.68716 203.78737 975.98525 203.5635 976.28125 203.33594 C 976.57725 203.10838 976.87144 202.8783 977.16211 202.64453 C 977.45188 202.40986 977.7381 202.17164 978.02344 201.93164 C 978.30877 201.69075 978.59109 201.44633 978.87109 201.19922 C 979.1502 200.95299 979.42847 200.70451 979.70312 200.45117 C 979.9769 200.19784 980.24719 199.9412 980.51562 199.68164 C 980.78319 199.42297 981.04939 199.1603 981.3125 198.89453 C 981.57473 198.62964 981.83384 198.36095 982.08984 198.08984 C 982.34584 197.81874 982.59788 197.54491 982.84766 197.26758 C 983.09832 196.99114 983.34628 196.71235 983.58984 196.42969 C 983.8334 196.14702 984.07321 195.86133 984.31055 195.57422 C 984.54788 195.28622 984.78257 194.99646 985.01367 194.70312 C 985.2439 194.40979 985.47131 194.11312 985.69531 193.81445 C 985.91931 193.51668 986.13965 193.21717 986.35742 192.91406 C 986.57432 192.61006 986.78738 192.30365 986.99805 191.99609 C 987.20782 191.68765 987.41558 191.37735 987.61914 191.06445 C 987.8227 190.75156 988.02124 190.43647 988.2168 190.11914 C 988.41324 189.80181 988.60754 189.483 988.79688 189.16211 C 988.98531 188.84034 989.17023 188.51568 989.35156 188.18945 C 989.53379 187.86323 989.71054 187.53485 989.88477 187.20508 C 990.05899 186.8753 990.23026 186.54427 990.39648 186.21094 C 990.56359 185.87671 990.72566 185.54004 990.88477 185.20312 C 991.04387 184.86535 991.20046 184.52794 991.35156 184.1875 C 991.50356 183.84617 991.65092 183.5022 991.79492 183.1582 C 991.93803 182.81331 992.07689 182.46776 992.21289 182.12109 C 992.34889 181.77353 992.48137 181.42445 992.60938 181.07422 C 992.73738 180.72311 992.86047 180.37242 992.98047 180.01953 C 993.10047 179.66664 993.21808 179.31152 993.33008 178.95508 C 993.44297 178.59952 993.5503 178.24299 993.6543 177.88477 C 993.7583 177.52654 993.85807 177.16558 993.95312 176.80469 C 994.04913 176.44469 994.14052 176.08337 994.22852 175.7207 C 994.31652 175.35804 994.4014 174.9953 994.48047 174.63086 C 994.55958 174.26642 994.63503 173.90138 994.70703 173.53516 C 994.7781 173.16893 994.84514 172.80159 994.9082 172.43359 C 994.97047 172.06559 995.02892 171.69704 995.08398 171.32812 C 995.13825 170.95923 995.18811 170.59048 995.23438 170.2207 C 995.28062 169.85004 995.32306 169.47809 995.36133 169.10742 C 995.39866 168.73586 995.43262 168.3657 995.46289 167.99414 C 995.49222 167.6217 995.51773 167.24939 995.53906 166.87695 C 995.55946 166.50451 995.57589 166.13025 995.58789 165.75781 C 995.60122 165.38448 995.60928 165.01307 995.61328 164.64062 C 995.61728 164.26729 995.61728 163.89392 995.61328 163.52148 C 995.60968 163.14904 995.60122 162.77568 995.58789 162.40234 C 995.57549 162.0299 995.55946 161.6576 995.53906 161.28516 C 995.51773 160.91272 995.49222 160.54041 995.46289 160.16797 C 995.43356 159.79641 995.39959 159.42429 995.36133 159.05273 C 995.32306 158.68207 995.28064 158.31207 995.23438 157.94141 C 995.18811 157.57163 995.13825 157.20288 995.08398 156.83398 C 995.02892 156.46421 994.97047 156.09562 994.9082 155.72852 C 994.8451 155.36052 994.7781 154.99318 994.70703 154.62695 C 994.63592 154.26073 994.56047 153.89569 994.48047 153.53125 C 994.40136 153.16681 994.31652 152.80212 994.22852 152.43945 C 994.14052 152.07679 994.05014 151.71547 993.95508 151.35547 C 993.85908 150.99458 993.7583 150.63557 993.6543 150.27734 C 993.5503 149.91912 993.44208 149.56152 993.33008 149.20508 C 993.21808 148.84952 993.1014 148.49547 992.98047 148.14258 C 992.86047 147.7888 992.73738 147.43616 992.60938 147.08594 C 992.48136 146.73571 992.34889 146.38662 992.21289 146.03906 C 992.07778 145.6915 991.93892 145.34595 991.79492 145.00195 C 991.65092 144.65795 991.50267 144.31594 991.35156 143.97461 C 991.19956 143.63417 991.04387 143.2948 990.88477 142.95703 C 990.72566 142.61926 990.56271 142.28451 990.39648 141.95117 C 990.22938 141.61784 990.05899 141.28574 989.88477 140.95508 C 989.71054 140.6253 989.5329 140.29799 989.35156 139.97266 C 989.16934 139.64643 988.98531 139.32177 988.79688 139 C 988.60753 138.67823 988.41431 138.35835 988.21875 138.04102 C 988.02231 137.72368 987.8227 137.4086 987.61914 137.0957 C 987.41558 136.7837 987.20782 136.47446 986.99805 136.16602 C 986.78738 135.85758 986.57432 135.55115 986.35742 135.24805 C 986.13965 134.94494 985.91931 134.64437 985.69531 134.3457 C 985.47131 134.04793 985.2439 133.75232 985.01367 133.45898 C 984.78257 133.16565 984.54788 132.87394 984.31055 132.58594 C 984.07321 132.29794 983.8334 132.01314 983.58984 131.73047 C 983.34628 131.4487 983.09938 131.16991 982.84961 130.89258 C 982.59894 130.61614 982.34584 130.34142 982.08984 130.07031 C 981.83384 129.79921 981.57473 129.5314 981.3125 129.26562 C 981.05027 129.00073 980.78406 128.73808 980.51562 128.47852 C 980.24718 128.21896 979.9769 127.96338 979.70312 127.71094 C 979.42935 127.4576 979.15109 127.20804 978.87109 126.96094 C 978.59109 126.71383 978.30983 126.46852 978.02539 126.22852 C 977.74006 125.98762 977.45278 125.75135 977.16211 125.51758 C 976.87144 125.2838 976.57725 125.05373 976.28125 124.82617 C 975.98614 124.59861 975.68805 124.37474 975.38672 124.1543 C 975.08628 123.93296 974.78234 123.71529 974.47656 123.50195 C 974.17079 123.28773 973.86296 123.07732 973.55273 122.87109 C 973.24163 122.66399 972.9299 122.45977 972.61523 122.25977 C 972.29967 122.06066 971.98122 121.86476 971.66211 121.67188 C 971.34211 121.47898 971.02083 121.29036 970.69727 121.10547 C 970.37371 120.9197 970.0487 120.73832 969.7207 120.56055 C 969.3927 120.38277 969.06203 120.20778 968.73047 120.03711 C 968.39891 119.86644 968.06452 119.69978 967.72852 119.53711 C 967.39341 119.37444 967.05636 119.21611 966.7168 119.06055 C 966.37724 118.90499 966.03754 118.75303 965.69531 118.60547 C 965.35221 118.45791 965.00788 118.31339 964.66211 118.17383 C 964.31634 118.03339 963.96758 117.89918 963.61914 117.76758 C 963.26981 117.63514 962.92036 117.50641 962.56836 117.38281 C 962.21725 117.25837 961.86443 117.13904 961.50977 117.02344 C 961.1551 116.907 960.79874 116.79395 960.44141 116.68555 C 960.08407 116.57799 959.72629 116.47345 959.36719 116.37305 C 959.00808 116.27349 958.64693 116.17754 958.28516 116.08594 C 957.92338 115.99438 957.56083 115.90667 957.19727 115.82227 C 956.83371 115.73871 956.46885 115.6606 956.10352 115.58594 C 955.73818 115.51038 955.37297 115.43869 955.00586 115.37109 C 954.63875 115.30443 954.27034 115.24226 953.90234 115.18359 C 953.53345 115.12493 953.1647 115.0702 952.79492 115.01953 C 952.42603 114.96886 952.05621 114.92259 951.68555 114.88086 C 951.31488 114.83819 950.94383 114.80051 950.57227 114.76758 C 950.20071 114.73384 949.82752 114.70347 949.45508 114.67773 C 949.08264 114.6528 948.71033 114.63217 948.33789 114.61523 C 947.96545 114.5983 947.59404 114.58551 947.2207 114.57617 C 946.84737 114.56817 946.474 114.56445 946.10156 114.56445 C 945.72823 114.56445 945.3538 114.56817 944.98047 114.57617 C 944.60803 114.58511 944.23572 114.5983 943.86328 114.61523 C 943.48995 114.63217 943.11765 114.6528 942.74609 114.67773 C 942.37365 114.70347 942.00242 114.7327 941.63086 114.76562 C 941.2593 114.79936 940.88824 114.83819 940.51758 114.88086 C 940.14691 114.92259 939.77602 114.96886 939.40625 115.01953 C 939.03648 115.0702 938.66878 115.12493 938.30078 115.18359 C 937.93189 115.24226 937.56242 115.30443 937.19531 115.37109 C 936.82909 115.43865 936.46388 115.51034 936.09766 115.58594 C 935.73232 115.6606 935.36747 115.73867 935.00391 115.82227 C 934.64035 115.90583 934.27886 115.99354 933.91797 116.08594 C 933.5562 116.1775 933.19398 116.27345 932.83398 116.37305 C 932.47488 116.47349 932.1171 116.57795 931.75977 116.68555 C 931.40333 116.79399 931.04803 116.90704 930.69336 117.02344 C 930.33869 117.139 929.98481 117.25841 929.63281 117.38281 C 929.28081 117.50637 928.93047 117.63518 928.58203 117.76758 C 928.2327 117.89914 927.88484 118.03339 927.53906 118.17383 C 927.19329 118.31339 926.85004 118.45791 926.50781 118.60547 C 926.16471 118.75303 925.82303 118.90499 925.48438 119.06055 C 925.14481 119.21521 924.80866 119.37355 924.47266 119.53711 C 924.13755 119.69978 923.80422 119.86644 923.47266 120.03711 C 923.14022 120.20778 922.80847 120.38277 922.48047 120.56055 C 922.15247 120.73832 921.82747 120.9197 921.50391 121.10547 C 921.26821 121.24015 921.03411 121.37865 920.80078 121.51758 L 921.85547 99.246094 L 829.58203 14.181641 L 773.24805 14.072266 z M 812.69336 53.316406 L 873.91797 115.63477 L 873.91992 203.80078 L 812.3457 265.76367 L 774.47656 265.62305 L 621.33594 266.75977 L 384.63672 270.05078 L 206.69336 271.42773 L 183.77344 271.76953 L 122.55078 209.80664 L 122.55078 121.28711 L 184.125 59.326172 L 207.56641 59.046875 L 387.3418 57.478516 L 621.33398 54.589844 L 773.45312 53.632812 L 812.69336 53.316406 z M 65.355469 142.69336 C 65.50658 142.69514 65.657483 142.69781 65.808594 142.70312 C 65.959705 142.70757 66.110608 142.71572 66.261719 142.72461 C 66.41283 142.7335 66.564622 142.74235 66.714844 142.75391 C 66.865066 142.76635 67.015793 142.78175 67.166016 142.79688 C 67.317127 142.81287 67.465901 142.82899 67.615234 142.84766 C 67.765457 142.86721 67.91512 142.88793 68.064453 142.91016 C 68.213786 142.93238 68.364339 142.95771 68.513672 142.98438 C 68.662116 143.01015 68.81054 143.03707 68.958984 143.06641 C 69.107429 143.09574 69.254788 143.12727 69.402344 143.16016 C 69.550788 143.19305 69.699036 143.22723 69.845703 143.26367 C 69.99237 143.30012 70.137425 143.33891 70.283203 143.37891 C 70.42987 143.41802 70.575814 143.4584 70.720703 143.50195 C 70.865592 143.54462 71.011361 143.58961 71.15625 143.63672 C 71.30025 143.68294 71.442825 143.73147 71.585938 143.78125 C 71.729049 143.83103 71.873403 143.88221 72.015625 143.93555 C 72.156958 143.98888 72.29812 144.04361 72.439453 144.09961 C 72.579898 144.1565 72.719819 144.21584 72.859375 144.27539 C 72.998931 144.33495 73.136724 144.39587 73.275391 144.45898 C 73.413168 144.52121 73.550611 144.58568 73.6875 144.65234 C 73.824389 144.71812 73.960592 144.78614 74.095703 144.85547 C 74.230814 144.9248 74.365778 144.99547 74.5 145.06836 C 74.633333 145.14036 74.765991 145.21351 74.898438 145.28906 C 75.029993 145.36462 75.162302 145.44131 75.292969 145.51953 C 75.423635 145.59864 75.552752 145.67888 75.681641 145.75977 C 75.809641 145.84154 75.937342 145.92532 76.064453 146.00977 C 76.191564 146.09421 76.316962 146.17958 76.441406 146.26758 C 76.56674 146.35469 76.689833 146.44449 76.8125 146.53516 C 76.936056 146.62493 77.058797 146.71526 77.179688 146.80859 C 77.300576 146.90193 77.419951 146.99775 77.539062 147.09375 C 77.657286 147.18975 77.775245 147.2861 77.892578 147.38477 C 78.009023 147.48343 78.125568 147.58421 78.240234 147.68555 C 78.354901 147.78688 78.468078 147.89014 78.580078 147.99414 C 78.692967 148.09814 78.80384 148.20193 78.914062 148.30859 C 79.023398 148.41526 79.132679 148.52348 79.240234 148.63281 C 79.348679 148.74215 79.455658 148.85373 79.560547 148.96484 C 79.665436 149.07684 79.767983 149.18896 79.871094 149.30273 C 79.973316 149.4174 80.075337 149.53199 80.175781 149.64844 C 80.276226 149.76488 80.374878 149.88373 80.472656 150.00195 C 80.570434 150.12106 80.666608 150.24044 80.761719 150.36133 C 80.85683 150.48222 80.951413 150.6039 81.042969 150.72656 C 81.135413 150.85012 81.226628 150.97428 81.316406 151.09961 C 81.406184 151.22494 81.49492 151.3514 81.582031 151.47852 C 81.668253 151.60563 81.753446 151.73439 81.837891 151.86328 C 81.921446 151.99306 82.00416 152.12324 82.085938 152.25391 C 82.166826 152.38546 82.245997 152.51706 82.324219 152.65039 C 82.402441 152.78284 82.479132 152.91762 82.554688 153.05273 C 82.630241 153.18785 82.703391 153.32298 82.775391 153.45898 C 82.847391 153.59587 82.918948 153.73332 82.988281 153.87109 C 83.057615 154.00976 83.12474 154.14755 83.191406 154.28711 C 83.258073 154.42666 83.323608 154.56765 83.386719 154.70898 C 83.44983 154.85032 83.510759 154.99361 83.570312 155.13672 C 83.630758 155.27894 83.689205 155.42045 83.746094 155.56445 C 83.802983 155.70845 83.858776 155.85422 83.912109 156 C 83.966332 156.14489 84.017693 156.29083 84.068359 156.4375 C 84.119026 156.58417 84.169686 156.73135 84.216797 156.87891 C 84.263908 157.02646 84.309071 157.17489 84.353516 157.32422 C 84.397071 157.47266 84.43958 157.62215 84.480469 157.77148 C 84.521358 157.92171 84.560323 158.07048 84.597656 158.2207 C 84.63499 158.37181 84.670411 158.52272 84.705078 158.67383 C 84.738856 158.82583 84.771623 158.97886 84.802734 159.13086 C 84.833845 159.28286 84.863069 159.435 84.890625 159.58789 C 84.918181 159.74078 84.94475 159.89505 84.96875 160.04883 C 84.99275 160.20172 85.014712 160.3551 85.035156 160.50977 C 85.05649 160.66354 85.074908 160.81799 85.091797 160.97266 C 85.109575 161.12643 85.125339 161.27999 85.138672 161.43555 C 85.152894 161.59021 85.165115 161.74572 85.175781 161.90039 C 85.186448 162.05595 85.196014 162.21163 85.203125 162.36719 C 85.210236 162.52185 85.215194 162.67648 85.21875 162.83203 C 85.223194 162.98759 85.224609 163.14327 85.224609 163.29883 C 85.224609 163.45349 85.22337 163.60812 85.220703 163.76367 C 85.217148 163.91923 85.213253 164.07491 85.207031 164.23047 C 85.200809 164.38602 85.193372 164.54065 85.183594 164.69531 C 85.172927 164.85087 85.160882 165.00744 85.148438 165.16211 C 85.135103 165.31678 85.120405 165.47033 85.103516 165.625 C 85.086627 165.77967 85.067319 165.93411 85.046875 166.08789 C 85.027319 166.24167 85.004469 166.39505 84.980469 166.54883 C 84.957358 166.70261 84.932917 166.85688 84.90625 167.00977 C 84.879583 167.16265 84.852488 167.3148 84.822266 167.4668 C 84.792043 167.61969 84.758387 167.77076 84.724609 167.92188 C 84.690832 168.07388 84.655585 168.22584 84.619141 168.37695 C 84.581807 168.52718 84.543906 168.67792 84.503906 168.82812 C 84.463906 168.97746 84.422462 169.12606 84.378906 169.27539 C 84.335351 169.42384 84.290363 169.57315 84.244141 169.7207 C 84.19703 169.86915 84.149387 170.01544 84.099609 170.16211 C 84.049832 170.30878 83.996693 170.45578 83.943359 170.60156 C 83.890026 170.74645 83.835297 170.89027 83.779297 171.03516 C 83.723297 171.17916 83.666977 171.32369 83.607422 171.4668 C 83.547866 171.60902 83.48605 171.75124 83.423828 171.89258 C 83.360717 172.03391 83.296247 172.17401 83.230469 172.31445 C 83.164691 172.45401 83.097741 172.59376 83.029297 172.73242 C 82.960852 172.87109 82.890359 173.00764 82.818359 173.14453 C 82.746359 173.28053 82.674276 173.41762 82.599609 173.55273 C 82.524943 173.68785 82.448427 173.82174 82.371094 173.95508 C 82.292872 174.08841 82.212812 174.22001 82.132812 174.35156 C 82.051924 174.48312 81.970274 174.61436 81.886719 174.74414 C 81.803163 174.87303 81.719037 175.00091 81.632812 175.12891 C 81.54659 175.25602 81.45803 175.38248 81.369141 175.50781 C 81.280252 175.63403 81.190101 175.75926 81.097656 175.88281 C 81.006101 176.00548 80.912582 176.12822 80.818359 176.25 C 80.723248 176.37089 80.628139 176.49026 80.53125 176.60938 C 80.434361 176.72849 80.335884 176.84645 80.236328 176.96289 C 80.135884 177.07934 80.033863 177.19393 79.931641 177.30859 C 79.829418 177.42326 79.725983 177.53644 79.621094 177.64844 C 79.517094 177.76044 79.412243 177.87114 79.304688 177.98047 C 79.197131 178.0898 79.087849 178.19802 78.978516 178.30469 C 78.869182 178.41224 78.758484 178.51905 78.646484 178.62305 C 78.534484 178.72705 78.422372 178.82942 78.308594 178.93164 C 78.193927 179.03297 78.077382 179.13287 77.960938 179.23242 C 77.845382 179.33109 77.728486 179.43045 77.609375 179.52734 C 77.491153 179.62334 77.370889 179.71721 77.25 179.81055 C 77.13 179.90388 77.009385 179.99527 76.886719 180.08594 C 76.764052 180.17749 76.640069 180.26836 76.515625 180.35547 C 76.390292 180.44347 76.264894 180.5299 76.138672 180.61523 C 76.01245 180.69968 75.885813 180.7815 75.757812 180.86328 C 75.628924 180.94595 75.498918 181.02725 75.369141 181.10547 C 75.238474 181.18458 75.108118 181.26145 74.976562 181.33789 C 74.845007 181.41345 74.711458 181.48766 74.578125 181.56055 C 74.444792 181.63344 74.310892 181.70606 74.175781 181.77539 C 74.04067 181.84561 73.905531 181.9138 73.769531 181.98047 C 73.632642 182.04625 73.4952 182.10983 73.357422 182.17383 C 73.219644 182.23694 73.080962 182.29893 72.941406 182.35938 C 72.801851 182.41893 72.661929 182.47827 72.521484 182.53516 C 72.38104 182.59205 72.240943 182.64589 72.099609 182.69922 C 71.957387 182.75344 71.813033 182.80569 71.669922 182.85547 C 71.5277 182.90614 71.386188 182.95573 71.242188 183.00195 C 71.098186 183.04906 70.952418 183.09316 70.806641 183.13672 C 70.661752 183.18027 70.516872 183.22278 70.371094 183.26367 C 70.225316 183.30367 70.078307 183.34246 69.931641 183.37891 C 69.784974 183.41535 69.63779 183.4506 69.490234 183.48438 C 69.342679 183.51726 69.195319 183.54791 69.046875 183.57812 C 68.898431 183.60835 68.750007 183.6374 68.601562 183.66406 C 68.453119 183.68984 68.30363 183.71517 68.154297 183.73828 C 68.004075 183.76139 67.854411 183.78123 67.705078 183.80078 C 67.554856 183.82034 67.404128 183.83947 67.253906 183.85547 C 67.103684 183.87147 66.954909 183.88404 66.804688 183.89648 C 66.653576 183.90893 66.501785 183.9208 66.351562 183.92969 C 66.200451 183.93858 66.049549 183.94495 65.898438 183.95117 C 65.748215 183.95651 65.598377 183.96111 65.447266 183.96289 C 65.296155 183.96467 65.145252 183.96573 64.994141 183.96484 C 64.84303 183.96307 64.690176 183.95846 64.539062 183.95312 C 64.387951 183.94779 64.237049 183.94159 64.085938 183.93359 C 63.935715 183.9247 63.785877 183.9139 63.634766 183.90234 C 63.484543 183.8899 63.333816 183.87644 63.183594 183.86133 C 63.033372 183.84533 62.882644 183.82726 62.732422 183.80859 C 62.5822 183.78904 62.432536 183.76832 62.283203 183.74609 C 62.13387 183.72298 61.985271 183.69961 61.835938 183.67383 C 61.687493 183.64805 61.539069 183.61918 61.390625 183.58984 C 61.242181 183.56051 61.094821 183.53094 60.947266 183.49805 C 60.79971 183.46516 60.651462 183.42902 60.503906 183.39258 C 60.35724 183.35613 60.210231 183.3193 60.064453 183.2793 C 59.917786 183.24019 59.773795 183.19785 59.628906 183.1543 C 59.484017 183.11163 59.339314 183.06664 59.195312 183.01953 C 59.050424 182.97331 58.90483 182.92673 58.761719 182.87695 C 58.618608 182.82718 58.477271 182.77404 58.335938 182.7207 C 58.193714 182.66737 58.05149 182.61264 57.910156 182.55664 C 57.769712 182.49975 57.62979 182.44237 57.490234 182.38281 C 57.350679 182.32326 57.211997 182.26233 57.074219 182.19922 C 56.935552 182.13611 56.798998 182.07164 56.662109 182.00586 C 56.52522 181.94008 56.389017 181.87207 56.253906 181.80273 C 56.118795 181.7334 55.984898 181.66273 55.851562 181.58984 C 55.71734 181.51784 55.583616 181.44274 55.451172 181.36719 C 55.319616 181.29163 55.187307 181.21494 55.056641 181.13672 C 54.925974 181.05761 54.797922 180.97737 54.669922 180.89648 C 54.541033 180.81471 54.412267 180.73288 54.285156 180.64844 C 54.158934 180.56399 54.033536 180.47667 53.908203 180.38867 C 53.78287 180.30156 53.657823 180.21371 53.535156 180.12305 C 53.41249 180.03327 53.2917 179.94099 53.169922 179.84766 C 53.049033 179.75432 52.928769 179.66045 52.810547 179.56445 C 52.691436 179.46845 52.572411 179.37015 52.455078 179.27148 C 52.338634 179.17282 52.224042 179.07399 52.109375 178.97266 C 51.994708 178.87132 51.881531 178.76806 51.769531 178.66406 C 51.656642 178.56006 51.54488 178.45432 51.435547 178.34766 C 51.325325 178.24099 51.216931 178.13277 51.109375 178.02344 C 51.001819 177.9141 50.89484 177.80447 50.789062 177.69336 C 50.684174 177.58136 50.579676 177.46925 50.476562 177.35547 C 50.37434 177.2408 50.274273 177.12426 50.173828 177.00781 C 50.073384 176.89137 49.974731 176.77447 49.876953 176.65625 C 49.779175 176.53714 49.682113 176.41774 49.587891 176.29688 C 49.49278 176.17599 49.399085 176.05431 49.306641 175.93164 C 49.214196 175.80809 49.122981 175.68197 49.033203 175.55664 C 48.943425 175.43131 48.855753 175.30485 48.769531 175.17773 C 48.68242 175.05062 48.596163 174.92381 48.511719 174.79492 C 48.428163 174.66514 48.34545 174.53496 48.263672 174.4043 C 48.182783 174.27274 48.103613 174.13919 48.025391 174.00586 C 47.947168 173.87341 47.870477 173.74058 47.794922 173.60547 C 47.720255 173.47036 47.647108 173.33522 47.574219 173.19922 C 47.502219 173.06233 47.430661 172.92489 47.361328 172.78711 C 47.291995 172.64844 47.22487 172.5087 47.158203 172.36914 C 47.092425 172.22959 47.026891 172.0886 46.962891 171.94727 C 46.89978 171.80593 46.838852 171.66566 46.779297 171.52344 C 46.718852 171.38033 46.660405 171.2358 46.603516 171.0918 C 46.546627 170.9478 46.490833 170.80398 46.4375 170.6582 C 46.383278 170.51331 46.329964 170.36737 46.279297 170.2207 C 46.22863 170.07404 46.179926 169.92685 46.132812 169.7793 C 46.085701 169.63174 46.040538 169.48243 45.996094 169.33398 C 45.952538 169.18465 45.91003 169.03605 45.869141 168.88672 C 45.828252 168.7365 45.789286 168.58577 45.751953 168.43555 C 45.71462 168.28444 45.679198 168.13353 45.644531 167.98242 C 45.610753 167.83131 45.577986 167.68023 45.546875 167.52734 C 45.515764 167.37534 45.48654 167.22125 45.458984 167.06836 C 45.431429 166.91547 45.404859 166.76315 45.380859 166.60938 C 45.356859 166.45649 45.334898 166.3031 45.314453 166.14844 C 45.29312 165.99466 45.274701 165.84021 45.257812 165.68555 C 45.240035 165.53177 45.224271 165.37732 45.210938 165.22266 C 45.196714 165.0671 45.184495 164.91248 45.173828 164.75781 C 45.163161 164.60226 45.153595 164.44764 45.146484 164.29297 C 45.139373 164.13741 45.134415 163.98173 45.130859 163.82617 C 45.127304 163.67062 45.123936 163.51493 45.123047 163.35938 C 45.123047 163.20382 45.12624 163.04724 45.128906 162.89258 C 45.132462 162.73702 45.136356 162.58134 45.142578 162.42578 C 45.1488 162.27023 45.156238 162.1156 45.166016 161.96094 C 45.176682 161.80538 45.189792 161.65076 45.203125 161.49609 C 45.215569 161.34143 45.229205 161.18592 45.246094 161.03125 C 45.262983 160.87658 45.28229 160.72214 45.302734 160.56836 C 45.32229 160.41369 45.343187 160.26031 45.367188 160.10742 C 45.390299 159.95364 45.416693 159.80133 45.443359 159.64844 C 45.470026 159.49555 45.497122 159.34234 45.527344 159.18945 C 45.557566 159.03745 45.589269 158.88442 45.623047 158.73242 C 45.656825 158.58131 45.692071 158.43041 45.728516 158.2793 C 45.765849 158.12907 45.805703 157.9803 45.845703 157.83008 C 45.885703 157.68074 45.927148 157.53019 45.970703 157.38086 C 46.014259 157.23241 46.059247 157.08399 46.105469 156.93555 C 46.15258 156.78799 46.200222 156.64081 46.25 156.49414 C 46.299778 156.34747 46.352917 156.20242 46.40625 156.05664 C 46.459583 155.91175 46.512359 155.76598 46.568359 155.62109 C 46.624359 155.47709 46.682631 155.33452 46.742188 155.19141 C 46.801743 155.04918 46.86267 154.90589 46.925781 154.76367 C 46.988003 154.62234 47.053363 154.48135 47.119141 154.3418 C 47.184918 154.20135 47.251869 154.06356 47.320312 153.92578 C 47.388757 153.78711 47.45925 153.64861 47.53125 153.51172 C 47.60325 153.37483 47.675333 153.23863 47.75 153.10352 C 47.824667 152.9684 47.901182 152.83557 47.978516 152.70312 C 48.056738 152.56979 48.136797 152.43624 48.216797 152.30469 C 48.297686 152.17313 48.379335 152.04384 48.462891 151.91406 C 48.546446 151.78428 48.630575 151.65445 48.716797 151.52734 C 48.803019 151.40023 48.89158 151.27466 48.980469 151.14844 C 49.070247 151.0231 49.160398 150.89895 49.251953 150.77539 C 49.343509 150.65184 49.437028 150.52909 49.53125 150.4082 C 49.626361 150.28731 49.72147 150.16794 49.818359 150.04883 C 49.915248 149.92972 50.013726 149.81176 50.113281 149.69531 C 50.213726 149.57798 50.315747 149.46143 50.417969 149.34766 C 50.520191 149.23299 50.623627 149.11981 50.728516 149.00781 C 50.832516 148.89581 50.937366 148.78511 51.044922 148.67578 C 51.152477 148.56645 51.26176 148.45823 51.371094 148.35156 C 51.480427 148.24401 51.591125 148.13916 51.703125 148.03516 C 51.815125 147.93027 51.927238 147.82594 52.041016 147.72461 C 52.155682 147.62328 52.272227 147.52338 52.388672 147.42383 C 52.504227 147.32516 52.621123 147.22775 52.740234 147.13086 C 52.858457 147.03486 52.97872 146.93904 53.099609 146.8457 C 53.219609 146.75148 53.340224 146.65903 53.462891 146.56836 C 53.585557 146.47769 53.70954 146.38878 53.833984 146.30078 C 53.959318 146.21367 54.084715 146.1283 54.210938 146.04297 C 54.337159 145.95852 54.464861 145.87564 54.59375 145.79297 C 54.72175 145.71119 54.850691 145.62989 54.980469 145.55078 C 55.111135 145.47256 55.241491 145.3948 55.373047 145.31836 C 55.504602 145.2428 55.638151 145.16859 55.771484 145.0957 C 55.904818 145.02281 56.038717 144.95215 56.173828 144.88281 C 56.308939 144.81259 56.445142 144.7444 56.582031 144.67773 C 56.718031 144.61107 56.85441 144.54553 56.992188 144.48242 C 57.129964 144.41931 57.268648 144.35731 57.408203 144.29688 C 57.547759 144.23732 57.687681 144.17994 57.828125 144.12305 C 57.968569 144.06616 58.108667 144.0093 58.25 143.95508 C 58.392222 143.90174 58.534623 143.85056 58.677734 143.80078 C 58.820845 143.75011 58.965375 143.70141 59.109375 143.6543 C 59.253375 143.60807 59.39808 143.56309 59.542969 143.51953 C 59.687858 143.47598 59.832738 143.43347 59.978516 143.39258 C 60.124293 143.35258 60.271302 143.31574 60.417969 143.2793 C 60.564635 143.24196 60.711819 143.20672 60.859375 143.17383 C 61.006931 143.14005 61.15429 143.10748 61.302734 143.07812 C 61.451179 143.0479 61.599602 143.02081 61.748047 142.99414 C 61.89738 142.96836 62.04598 142.94303 62.195312 142.91992 C 62.344646 142.89681 62.495198 142.87502 62.644531 142.85547 C 62.794753 142.83591 62.943528 142.81873 63.09375 142.80273 C 63.243972 142.78673 63.3947 142.77221 63.544922 142.75977 C 63.696033 142.74732 63.847825 142.7374 63.998047 142.72852 C 64.149158 142.71874 64.300061 142.71041 64.451172 142.70508 C 64.602283 142.69974 64.753186 142.69709 64.904297 142.69531 C 65.054519 142.69353 65.204358 142.69247 65.355469 142.69336 z M 951.35547 144.69336 C 951.50658 144.69514 951.65748 144.6978 951.80859 144.70312 C 951.9597 144.70757 952.11061 144.71572 952.26172 144.72461 C 952.41283 144.7335 952.56462 144.74235 952.71484 144.75391 C 952.86507 144.76635 953.01579 144.78175 953.16602 144.79688 C 953.31713 144.81287 953.4659 144.82899 953.61523 144.84766 C 953.76546 144.86721 953.91512 144.88793 954.06445 144.91016 C 954.21379 144.93238 954.36434 144.95771 954.51367 144.98438 C 954.66212 145.01015 954.81054 145.03707 954.95898 145.06641 C 955.10743 145.09574 955.25479 145.12727 955.40234 145.16016 C 955.5499 145.19305 955.69815 145.22723 955.8457 145.26367 C 955.99237 145.30012 956.13743 145.33891 956.2832 145.37891 C 956.42987 145.41802 956.57581 145.4584 956.7207 145.50195 C 956.86559 145.54462 957.01136 145.58961 957.15625 145.63672 C 957.30025 145.68294 957.44283 145.73147 957.58594 145.78125 C 957.72905 145.83103 957.8734 145.88221 958.01562 145.93555 C 958.15697 145.98888 958.29812 146.04361 958.43945 146.09961 C 958.5799 146.1565 958.71981 146.21584 958.85938 146.27539 C 958.99892 146.33495 959.13672 146.39587 959.27539 146.45898 C 959.41317 146.52121 959.55061 146.58568 959.6875 146.65234 C 959.82439 146.71812 959.96059 146.78614 960.0957 146.85547 C 960.23081 146.9248 960.36578 146.99547 960.5 147.06836 C 960.63333 147.14036 960.76599 147.21351 960.89844 147.28906 C 961.02999 147.36462 961.1623 147.44131 961.29297 147.51953 C 961.42364 147.59864 961.55169 147.67888 961.67969 147.75977 C 961.80858 147.84154 961.93734 147.92532 962.06445 148.00977 C 962.19156 148.09421 962.31696 148.17958 962.44141 148.26758 C 962.56674 148.35469 962.68983 148.44449 962.8125 148.53516 C 962.93606 148.62493 963.0588 148.71526 963.17969 148.80859 C 963.30058 148.90193 963.41995 148.99775 963.53906 149.09375 C 963.65728 149.18975 963.77524 149.2861 963.89258 149.38477 C 964.00902 149.48343 964.12557 149.58421 964.24023 149.68555 C 964.3549 149.78688 964.46808 149.89014 964.58008 149.99414 C 964.69297 150.09814 964.80384 150.20193 964.91406 150.30859 C 965.0234 150.41526 965.13268 150.52348 965.24023 150.63281 C 965.34868 150.74215 965.45566 150.85373 965.56055 150.96484 C 965.66544 151.07684 965.76798 151.18896 965.87109 151.30273 C 965.9742 151.4174 966.07623 151.53199 966.17578 151.64844 C 966.27623 151.76488 966.37488 151.88373 966.47266 152.00195 C 966.57043 152.12106 966.66661 152.24044 966.76172 152.36133 C 966.85683 152.48222 966.95141 152.6039 967.04297 152.72656 C 967.13541 152.85012 967.22663 152.97428 967.31641 153.09961 C 967.40618 153.22494 967.49492 153.3514 967.58203 153.47852 C 967.66825 153.60563 967.75345 153.73439 967.83789 153.86328 C 967.92145 153.99306 968.00416 154.12324 968.08594 154.25391 C 968.16683 154.38546 968.246 154.51706 968.32422 154.65039 C 968.40244 154.78284 968.47913 154.91762 968.55469 155.05273 C 968.63024 155.18785 968.70339 155.32298 968.77539 155.45898 C 968.84739 155.59587 968.91895 155.73332 968.98828 155.87109 C 969.05761 156.00976 969.12474 156.14755 969.19141 156.28711 C 969.25807 156.42666 969.32361 156.56765 969.38672 156.70898 C 969.44983 156.85032 969.51076 156.99361 969.57031 157.13672 C 969.63076 157.27894 969.6892 157.42045 969.74609 157.56445 C 969.80298 157.70845 969.85878 157.85422 969.91211 158 C 969.96633 158.14489 970.01769 158.29083 970.06836 158.4375 C 970.11903 158.58417 970.16969 158.73135 970.2168 158.87891 C 970.26391 159.02646 970.30907 159.17489 970.35352 159.32422 C 970.39707 159.47266 970.43958 159.62215 970.48047 159.77148 C 970.52136 159.92171 970.56032 160.07048 970.59766 160.2207 C 970.63588 160.37181 970.6713 160.52272 970.70508 160.67383 C 970.73886 160.82583 970.77162 160.97886 970.80273 161.13086 C 970.83385 161.28286 970.86307 161.435 970.89062 161.58789 C 970.91818 161.74078 970.94475 161.89505 970.96875 162.04883 C 970.99275 162.20172 971.01471 162.3551 971.03516 162.50977 C 971.05649 162.66354 971.07491 162.81799 971.0918 162.97266 C 971.10957 163.12643 971.12534 163.27999 971.13867 163.43555 C 971.15289 163.59021 971.16511 163.74572 971.17578 163.90039 C 971.18645 164.05595 971.19602 164.21163 971.20312 164.36719 C 971.21024 164.52185 971.21519 164.67648 971.21875 164.83203 C 971.22319 164.98759 971.22461 165.14327 971.22461 165.29883 C 971.22461 165.45349 971.22337 165.60812 971.2207 165.76367 C 971.21715 165.91923 971.21325 166.07491 971.20703 166.23047 C 971.20081 166.38602 971.19337 166.54065 971.18359 166.69531 C 971.17382 166.85087 971.16177 167.00744 971.14844 167.16211 C 971.1351 167.31678 971.1204 167.47033 971.10352 167.625 C 971.08663 167.77967 971.06731 167.93411 971.04688 168.08789 C 971.02732 168.24167 971.00447 168.39505 970.98047 168.54883 C 970.95736 168.70261 970.93292 168.85688 970.90625 169.00977 C 970.87958 169.16265 970.85249 169.3148 970.82227 169.4668 C 970.79204 169.61969 970.75839 169.77076 970.72461 169.92188 C 970.69083 170.07388 970.65559 170.22584 970.61914 170.37695 C 970.58181 170.52718 970.54391 170.67791 970.50391 170.82812 C 970.46391 170.97746 970.42246 171.12606 970.37891 171.27539 C 970.33535 171.42384 970.29036 171.57315 970.24414 171.7207 C 970.19703 171.86915 970.14939 172.01544 970.09961 172.16211 C 970.04983 172.30878 969.99669 172.45578 969.94336 172.60156 C 969.89003 172.74645 969.8353 172.89027 969.7793 173.03516 C 969.7233 173.17916 969.66698 173.32369 969.60742 173.4668 C 969.54787 173.60902 969.48605 173.75124 969.42383 173.89258 C 969.36072 174.03391 969.29625 174.17401 969.23047 174.31445 C 969.16469 174.45401 969.09774 174.59376 969.0293 174.73242 C 968.96085 174.87109 968.89036 175.00764 968.81836 175.14453 C 968.74636 175.28053 968.67428 175.41762 968.59961 175.55273 C 968.52494 175.68785 968.44843 175.82174 968.37109 175.95508 C 968.29287 176.08841 968.21281 176.22001 968.13281 176.35156 C 968.05192 176.48312 967.97027 176.61436 967.88672 176.74414 C 967.80316 176.87303 967.71903 177.00091 967.63281 177.12891 C 967.54659 177.25602 967.45803 177.38248 967.36914 177.50781 C 967.28025 177.63403 967.1901 177.75926 967.09766 177.88281 C 967.0061 178.00548 966.91258 178.12822 966.81836 178.25 C 966.72325 178.37089 966.62814 178.49026 966.53125 178.60938 C 966.43436 178.72849 966.33588 178.84645 966.23633 178.96289 C 966.13588 179.07934 966.03386 179.19393 965.93164 179.30859 C 965.82942 179.42326 965.72598 179.53644 965.62109 179.64844 C 965.51709 179.76044 965.41224 179.87114 965.30469 179.98047 C 965.19713 180.0898 965.08785 180.19802 964.97852 180.30469 C 964.86918 180.41224 964.75848 180.51905 964.64648 180.62305 C 964.53448 180.72705 964.42237 180.82942 964.30859 180.93164 C 964.19393 181.03297 964.07738 181.13287 963.96094 181.23242 C 963.84538 181.33109 963.72848 181.43045 963.60938 181.52734 C 963.49114 181.62334 963.37089 181.71721 963.25 181.81055 C 963.13 181.90388 963.00939 181.99527 962.88672 182.08594 C 962.76405 182.17749 962.64008 182.26836 962.51562 182.35547 C 962.3903 182.44347 962.26489 182.5299 962.13867 182.61523 C 962.01245 182.69968 961.88475 182.7815 961.75586 182.86328 C 961.62786 182.94595 961.49892 183.02725 961.36914 183.10547 C 961.23936 183.18458 961.10901 183.26145 960.97656 183.33789 C 960.84501 183.41345 960.71146 183.48766 960.57812 183.56055 C 960.44479 183.63344 960.31089 183.70606 960.17578 183.77539 C 960.04067 183.84561 959.90553 183.9138 959.76953 183.98047 C 959.63264 184.04625 959.4952 184.10983 959.35742 184.17383 C 959.21964 184.23694 959.08096 184.29893 958.94141 184.35938 C 958.80185 184.41893 958.66193 184.47827 958.52148 184.53516 C 958.38104 184.59205 958.24094 184.64589 958.09961 184.69922 C 957.95739 184.75344 957.81303 184.80569 957.66992 184.85547 C 957.5277 184.90614 957.38619 184.95573 957.24219 185.00195 C 957.09819 185.04906 956.95242 185.09316 956.80664 185.13672 C 956.66175 185.18027 956.51687 185.22278 956.37109 185.26367 C 956.22532 185.30367 956.07831 185.34246 955.93164 185.37891 C 955.78497 185.41535 955.63779 185.4506 955.49023 185.48438 C 955.34268 185.51726 955.19532 185.54791 955.04688 185.57812 C 954.89842 185.60835 954.75001 185.6374 954.60156 185.66406 C 954.45312 185.68984 954.30363 185.71517 954.1543 185.73828 C 954.00407 185.76139 953.85441 185.78123 953.70508 185.80078 C 953.55486 185.82034 953.40413 185.83947 953.25391 185.85547 C 953.10368 185.87147 952.95491 185.88404 952.80469 185.89648 C 952.65358 185.90893 952.50178 185.9208 952.35156 185.92969 C 952.20045 185.93858 952.04955 185.94495 951.89844 185.95117 C 951.74822 185.95651 951.59838 185.96111 951.44727 185.96289 C 951.29615 185.96467 951.14525 185.96573 950.99414 185.96484 C 950.84303 185.96307 950.69017 185.95846 950.53906 185.95312 C 950.38795 185.94779 950.23705 185.94159 950.08594 185.93359 C 949.93572 185.9247 949.78588 185.9139 949.63477 185.90234 C 949.48454 185.8899 949.33382 185.87644 949.18359 185.86133 C 949.03337 185.84533 948.88264 185.82726 948.73242 185.80859 C 948.5822 185.78904 948.43254 185.76832 948.2832 185.74609 C 948.13387 185.72298 947.98527 185.69961 947.83594 185.67383 C 947.68749 185.64805 947.53908 185.61918 947.39062 185.58984 C 947.24218 185.56051 947.09482 185.53094 946.94727 185.49805 C 946.79971 185.46516 946.65146 185.42902 946.50391 185.39258 C 946.35724 185.35613 946.21023 185.3193 946.06445 185.2793 C 945.91779 185.24019 945.7738 185.19785 945.62891 185.1543 C 945.48402 185.11163 945.33931 185.06664 945.19531 185.01953 C 945.05042 184.97331 944.90483 184.92673 944.76172 184.87695 C 944.61861 184.82718 944.47727 184.77404 944.33594 184.7207 C 944.19372 184.66737 944.05149 184.61264 943.91016 184.55664 C 943.76971 184.49975 943.62979 184.44237 943.49023 184.38281 C 943.35068 184.32326 943.212 184.26233 943.07422 184.19922 C 942.93555 184.13611 942.799 184.07164 942.66211 184.00586 C 942.52522 183.94008 942.38902 183.87207 942.25391 183.80273 C 942.1188 183.7334 941.9849 183.66273 941.85156 183.58984 C 941.71734 183.51784 941.58362 183.44274 941.45117 183.36719 C 941.31962 183.29163 941.18731 183.21494 941.05664 183.13672 C 940.92597 183.05761 940.79792 182.97737 940.66992 182.89648 C 940.54103 182.81471 940.41227 182.73288 940.28516 182.64844 C 940.15893 182.56399 940.03354 182.47667 939.9082 182.38867 C 939.78287 182.30156 939.65782 182.21371 939.53516 182.12305 C 939.41249 182.03327 939.2917 181.94099 939.16992 181.84766 C 939.04903 181.75432 938.92877 181.66045 938.81055 181.56445 C 938.69144 181.46845 938.57241 181.37015 938.45508 181.27148 C 938.33863 181.17282 938.22403 181.07399 938.10938 180.97266 C 937.99471 180.87132 937.88153 180.76806 937.76953 180.66406 C 937.65664 180.56006 937.54488 180.45432 937.43555 180.34766 C 937.32532 180.24099 937.21693 180.13277 937.10938 180.02344 C 937.00181 179.9141 936.89484 179.80447 936.78906 179.69336 C 936.68417 179.58136 936.57967 179.46925 936.47656 179.35547 C 936.37434 179.2408 936.27427 179.12426 936.17383 179.00781 C 936.07338 178.89137 935.97473 178.77447 935.87695 178.65625 C 935.77918 178.53714 935.68211 178.41775 935.58789 178.29688 C 935.49278 178.17599 935.39909 178.05431 935.30664 177.93164 C 935.2142 177.80809 935.12298 177.68197 935.0332 177.55664 C 934.94343 177.43131 934.85575 177.30485 934.76953 177.17773 C 934.68242 177.05062 934.59616 176.92381 934.51172 176.79492 C 934.42816 176.66514 934.34545 176.53496 934.26367 176.4043 C 934.18278 176.27274 934.10361 176.13919 934.02539 176.00586 C 933.94717 175.87341 933.87048 175.74058 933.79492 175.60547 C 933.72026 175.47036 933.64711 175.33522 933.57422 175.19922 C 933.50222 175.06233 933.43066 174.92489 933.36133 174.78711 C 933.29199 174.64844 933.22487 174.5087 933.1582 174.36914 C 933.09243 174.22959 933.02689 174.0886 932.96289 173.94727 C 932.89978 173.80593 932.83885 173.66566 932.7793 173.52344 C 932.71885 173.38033 932.6604 173.2358 932.60352 173.0918 C 932.54663 172.9478 932.49083 172.80398 932.4375 172.6582 C 932.38328 172.51331 932.32996 172.36737 932.2793 172.2207 C 932.22863 172.07404 932.17992 171.92685 932.13281 171.7793 C 932.0857 171.63174 932.04054 171.48243 931.99609 171.33398 C 931.95254 171.18465 931.91003 171.03605 931.86914 170.88672 C 931.82825 170.7365 931.78929 170.58577 931.75195 170.43555 C 931.71462 170.28444 931.6792 170.13353 931.64453 169.98242 C 931.61075 169.83131 931.57799 169.68023 931.54688 169.52734 C 931.51576 169.37534 931.48654 169.22125 931.45898 169.06836 C 931.43143 168.91547 931.40486 168.76315 931.38086 168.60938 C 931.35686 168.45649 931.3349 168.3031 931.31445 168.14844 C 931.29312 167.99466 931.2747 167.84021 931.25781 167.68555 C 931.24003 167.53177 931.22427 167.37732 931.21094 167.22266 C 931.19672 167.0671 931.18449 166.91248 931.17383 166.75781 C 931.16316 166.60226 931.1536 166.44764 931.14648 166.29297 C 931.13937 166.13741 931.13441 165.98173 931.13086 165.82617 C 931.12641 165.67062 931.12305 165.51493 931.12305 165.35938 C 931.12305 165.20382 931.12624 165.04724 931.12891 164.89258 C 931.13246 164.73702 931.13636 164.58134 931.14258 164.42578 C 931.1488 164.27023 931.15624 164.1156 931.16602 163.96094 C 931.17668 163.80538 931.1898 163.65076 931.20312 163.49609 C 931.21557 163.34143 931.2292 163.18592 931.24609 163.03125 C 931.26298 162.87658 931.28229 162.72214 931.30273 162.56836 C 931.32229 162.41369 931.34319 162.26031 931.36719 162.10742 C 931.3903 161.95364 931.41669 161.80133 931.44336 161.64844 C 931.47003 161.49555 931.49712 161.34234 931.52734 161.18945 C 931.55757 161.03745 931.58927 160.88442 931.62305 160.73242 C 931.65682 160.58131 931.69207 160.43041 931.72852 160.2793 C 931.76585 160.12907 931.8057 159.9803 931.8457 159.83008 C 931.8857 159.68074 931.92715 159.53019 931.9707 159.38086 C 932.01426 159.23241 932.05925 159.08399 932.10547 158.93555 C 932.15258 158.78799 932.20022 158.64081 932.25 158.49414 C 932.29978 158.34747 932.35292 158.20242 932.40625 158.05664 C 932.45958 157.91175 932.51236 157.76598 932.56836 157.62109 C 932.62436 157.47709 932.68263 157.33452 932.74219 157.19141 C 932.80174 157.04918 932.86267 156.90589 932.92578 156.76367 C 932.988 156.62234 933.05336 156.48135 933.11914 156.3418 C 933.18492 156.20135 933.25187 156.06356 933.32031 155.92578 C 933.38876 155.78711 933.45925 155.64861 933.53125 155.51172 C 933.60325 155.37483 933.67533 155.23863 933.75 155.10352 C 933.82467 154.9684 933.90118 154.83557 933.97852 154.70312 C 934.05674 154.56979 934.1368 154.43624 934.2168 154.30469 C 934.29769 154.17313 934.37934 154.04384 934.46289 153.91406 C 934.54645 153.78428 934.63057 153.65445 934.7168 153.52734 C 934.80302 153.40023 934.89158 153.27466 934.98047 153.14844 C 935.07025 153.0231 935.1604 152.89895 935.25195 152.77539 C 935.34351 152.65184 935.43703 152.52909 935.53125 152.4082 C 935.62636 152.28731 935.72147 152.16794 935.81836 152.04883 C 935.91525 151.92972 936.01373 151.81176 936.11328 151.69531 C 936.21373 151.57798 936.31575 151.46143 936.41797 151.34766 C 936.52019 151.23299 936.62363 151.11981 936.72852 151.00781 C 936.83252 150.89581 936.93737 150.78511 937.04492 150.67578 C 937.15248 150.56645 937.26176 150.45823 937.37109 150.35156 C 937.48043 150.24401 937.59112 150.13916 937.70312 150.03516 C 937.81512 149.93027 937.92724 149.82594 938.04102 149.72461 C 938.15568 149.62328 938.27223 149.52338 938.38867 149.42383 C 938.50423 149.32516 938.62112 149.22775 938.74023 149.13086 C 938.85846 149.03486 938.97872 148.93904 939.09961 148.8457 C 939.21961 148.75148 939.34022 148.65903 939.46289 148.56836 C 939.58556 148.47769 939.70954 148.38878 939.83398 148.30078 C 939.95932 148.21367 940.08472 148.1283 940.21094 148.04297 C 940.33716 147.95852 940.46486 147.87564 940.59375 147.79297 C 940.72175 147.71119 940.85069 147.62989 940.98047 147.55078 C 941.11114 147.47256 941.24149 147.3948 941.37305 147.31836 C 941.5046 147.2428 941.63815 147.16859 941.77148 147.0957 C 941.90482 147.02281 942.03872 146.95215 942.17383 146.88281 C 942.30894 146.81259 942.44514 146.7444 942.58203 146.67773 C 942.71803 146.61107 942.85441 146.54553 942.99219 146.48242 C 943.12997 146.41931 943.26865 146.35731 943.4082 146.29688 C 943.54776 146.23732 943.68768 146.17994 943.82812 146.12305 C 943.96857 146.06616 944.10867 146.0093 944.25 145.95508 C 944.39222 145.90174 944.53462 145.85056 944.67773 145.80078 C 944.82085 145.75011 944.96538 145.70141 945.10938 145.6543 C 945.25337 145.60807 945.39808 145.56309 945.54297 145.51953 C 945.68786 145.47598 945.83274 145.43347 945.97852 145.39258 C 946.12429 145.35258 946.2713 145.31574 946.41797 145.2793 C 946.56464 145.24196 946.71182 145.20672 946.85938 145.17383 C 947.00693 145.14005 947.15429 145.10747 947.30273 145.07812 C 947.45118 145.0479 947.5996 145.02081 947.74805 144.99414 C 947.89738 144.96836 948.04598 144.94303 948.19531 144.91992 C 948.34465 144.89681 948.4952 144.87502 948.64453 144.85547 C 948.79475 144.83591 948.94353 144.81873 949.09375 144.80273 C 949.24397 144.78673 949.3947 144.77221 949.54492 144.75977 C 949.69603 144.74732 949.84782 144.7374 949.99805 144.72852 C 950.14916 144.71874 950.30006 144.71041 950.45117 144.70508 C 950.60228 144.69974 950.75319 144.69709 950.9043 144.69531 C 951.05452 144.69353 951.20436 144.69247 951.35547 144.69336 z "
     transform="matrix(0.75,0,0,0.75,-321.088,568.681)" />
</svg>
